<?xml version="1.0" encoding="UTF-8" standalone="no"?>
<svg xmlns="http://www.w3.org/2000/svg" xmlns:xlink="http://www.w3.org/1999/xlink" width="210.000mm" height="150.000mm" viewBox="0.000000 0.000000 210.000000 150.000000" stroke-linejoin="round" stroke-linecap="round" fill="none" fill-rule="evenodd"><desc>Composer Export</desc><script type="text/ecmascript"><![CDATA[
if(typeof(top) != "undefined")
{
	top.ShowPaper = ShowPaper;
}
function ShowHotSpot(evt,hotspotid)
{
	var svgDocument = evt.target.ownerDocument;
	var strId = "hotspot."+hotspotid;
	var hotspot = svgDocument.getElementById(strId);
	if(hotspot)
		hotspot.setAttribute("opacity",".5");
}
function HideHotSpot(evt,hotspotid)
{
	var svgDocument = evt.target.ownerDocument;
	var strId = "hotspot."+hotspotid;
	var hotspot = svgDocument.getElementById(strId);
	if(hotspot)
		hotspot.setAttribute("opacity","0");

	var toolTip = svgDocument.getElementById('ToolTip');
	if(toolTip)
		toolTip.setAttribute("visibility","hidden");
}
function ShowToolTip(evt,hotspotid,strTooltip)
{
	if(strTooltip=="")
	return;

	// change text
	var svgDocument = evt.target.ownerDocument;
	var tiptext = svgDocument.getElementById('ToolTipText');
	if( !tiptext )
	return;
	tiptext.firstChild.nodeValue = " " + strTooltip + "  " ;

	// show tooltip before, else some refresh issue

	var toolTip = svgDocument.getElementById('ToolTip');
	if(!toolTip)
	return;

	toolTip.setAttribute("visibility","visible");
	toolTip.setAttribute("opacity",".95");

	// move tooltip
	// get viewbox

	var root = svgDocument.documentElement;
	var vbox = (root.getAttribute("viewBox")).split(' ');
	var x0 = parseFloat(vbox[0]);
	var y0 = parseFloat(vbox[1]);
	var vboxW = parseFloat(vbox[2]);
	var vboxH = parseFloat(vbox[3]);

	// get default width of svg

	var strW = root.getAttribute("width");
	var svgW = parseFloat(strW);
	if(strW.indexOf('mm') != -1)
	svgW *= 3.779;

	var strH = root.getAttribute("height");
	var svgH = parseFloat(strH);
	if(strH.indexOf('mm') != -1)
	svgH *= 3.779;  	// 96 dpi  -> 96/25.4 = 3.779

	// update the viewbox / width / height if svg is embedded in html with zoom fit all
	var realx0 = x0;
	var realy0 = y0;
	var realvboxW = vboxW;
	var realvboxH = vboxH;
	var realsvgW = svgW;
	var realsvgH = svgH;

	if ((typeof(top) == "undefined") || (typeof(top.svgctl1) != "undefined")) // embedded in html
	{
		// get window size in pxl

		svgW = window.innerWidth;
		svgH = window.innerHeight;

		// calculate real viewbox

		realsvgW = svgW;
		realsvgH = svgH;
		if((svgW / svgH) > (vboxW / vboxH))
		{
			realvboxW = (vboxH * svgW) / svgH;
			realvboxH = vboxH;
			realx0 = x0 - (realvboxW - vboxW)/2 ;
		}
		else
		{
			realvboxH = (vboxW * svgH) / svgW;
			realvboxW = vboxW;
			realy0 = y0 - (realvboxH - vboxH)/2 ;
		}
	}

	// get user zoom/pan

	var newScale = root.currentScale;
	var translation = root.currentTranslate;

	// transform pxl to user unit

	var xPos = (((evt.clientX+10- translation.x)/newScale) * realvboxW)/realsvgW  + realx0 ;
	var yPos = (((evt.clientY+5- translation.y)/newScale) * realvboxH)/ realsvgH  + realy0 ;
	var scaleForWidth = ( (1 / newScale) * realvboxH) / realsvgH;

	// move tooltip

	toolTip.setAttribute("transform", "translate(" + xPos + "," + yPos + ")" );

	// resize tooltip

	var fontsize = 12;
	tiptext.setAttribute("font-size",fontsize*scaleForWidth);
	tiptext.setAttribute("y", fontsize*scaleForWidth);
	var tipBG = svgDocument.getElementById('ToolTipBG');
	var outline = tiptext.getBBox();
	if(tipBG)
	{
		tipBG.setAttribute("stroke-width", 1*scaleForWidth);
		tipBG.setAttribute("width", Number(outline.width) );
		tipBG.setAttribute("height", Number(outline.height) + fontsize*.5*scaleForWidth );
	}
	var ToolTipShadow = svgDocument.getElementById('ToolTipShadow');
	if(ToolTipShadow)
	{
		ToolTipShadow.setAttribute("width", Number(outline.width) );
		ToolTipShadow.setAttribute("height", Number(outline.height) + fontsize*.5*scaleForWidth );
		ToolTipShadow.setAttribute("x", 3*scaleForWidth);
		ToolTipShadow.setAttribute("y", 3*scaleForWidth);
	}
}
function ShowPaper()
{
  var svgDocument = getDocument();
  var paper = svgDocument.getElementById("paperID");
  if(paper)
  {
    paper.setAttribute("transform","scale(1)");
    paper.setAttribute("opacity","1");
    paper.setAttribute("visibility","visible");
  }
  var svg = svgDocument.getRootElement();
  if(svg)
  {
    svg.setAttribute("width","220.000mm");
    svg.setAttribute("height","160.000mm");
    svg.setAttribute("viewBox","-5.000000 -5.000000 220.000000 160.000000");
  }
}
]]></script><defs/><g><path style="fill:#ffffff" d="M209.93,149.99L0.04,149.99L0.04,0.04L209.93,0.04z"/><path style="fill:#c6cfed" d="M107.04,74.04L107.12,78.52L107.27,78.62L107.93,78.73L108.55,78.99L109.57,79.62L110.22,80.36L110.45,81.01L110.45,82.07L110.20,82.95L109.70,83.60L108.88,84.17L107.89,84.57L106.36,84.82L105.13,84.82L103.98,84.70L102.61,84.17L101.72,83.54L101.20,82.54L101.03,81.28L101.41,80.25L102.23,79.42L103.70,78.73L104.49,78.52L104.63,73.83L104.90,73.62L105.01,74.42L105.25,74.56L106.24,74.56L106.66,74.22L106.72,73.75z"/><path style="fill:#c6cfed" d="M125.54,84.68L125.61,89.30L126.17,89.37L127.18,89.76L128.19,90.39L128.72,91.01L129.09,92.05L128.83,93.61L128.14,94.44L127.20,95.01L125.75,95.46L123.13,95.46L122.36,95.34L121.11,94.81L120.35,94.31L119.82,93.57L119.70,92.93L119.70,91.56L120.03,90.89L120.80,90.14L121.44,89.76L122.58,89.38L123.00,89.29L123.13,84.60L123.40,84.39L123.51,85.07L123.75,85.20L124.98,85.20L125.16,84.99L125.22,84.39z"/><path style="fill:#8aa7bf" d="M45.96,101.54L46.20,101.68L47.26,101.65L47.07,101.81L46.07,101.80L45.76,101.63L45.84,101.12z"/><path style="fill:#8aa7bf" d="M64.58,112.31L65.69,112.33L66.01,112.01L65.99,112.39L65.43,112.58L64.96,112.57L64.46,112.43L64.26,112.26L64.34,111.89z"/><path style="fill:#01ff02" d="M105.13,67.58L105.85,67.72L106.32,67.55L106.68,67.41L106.72,73.75L106.66,74.22L106.24,74.56L105.25,74.56L105.01,74.42L104.90,73.62L104.95,67.41L105.05,67.40z"/><path style="fill:#01ff02" d="M123.68,78.20L123.87,78.36L124.87,78.36L125.18,78.19L125.22,84.39L125.16,84.99L124.98,85.20L123.75,85.20L123.51,85.07L123.40,84.39L123.44,78.06L123.51,78.05z"/><path style="fill:#c6cfed" d="M106.40,66.69L106.61,67.03L106.32,67.55L105.05,67.40L104.95,67.03L105.21,66.69L105.46,66.56L106.02,66.57z"/><path style="fill:#c6cfed" d="M125.10,77.68L125.03,78.02L124.74,78.23L123.68,78.20L123.51,78.05L123.52,77.68L123.84,77.33L124.78,77.33z"/><path style="fill:#c6cfed" d="M47.42,101.12L47.43,101.49L47.26,101.65L46.20,101.68L45.96,101.54L45.84,101.12L46.16,100.77L47.10,100.77z"/><path style="fill:#c6cfed" d="M47.86,108.12L47.94,112.74L48.36,112.82L49.50,113.20L50.14,113.58L50.91,114.33L51.28,115.10L51.28,116.28L51.02,117.17L50.60,117.75L49.59,118.39L48.08,118.91L45.32,118.90L43.92,118.53L43.04,118.02L42.54,117.62L42.15,117.01L42.02,116.63L41.89,115.40L42.22,114.45L42.75,113.83L43.92,113.11L44.77,112.82L45.33,112.74L45.45,108.05L45.72,107.84L45.83,108.51L45.95,108.64L47.19,108.65L47.49,108.44L47.54,107.84z"/><path style="fill:#c6cfed" d="M65.88,111.65L66.01,112.01L65.69,112.33L64.58,112.31L64.34,111.89L64.83,111.46L65.34,111.42z"/><path style="fill:#c6cfed" d="M66.36,118.76L66.44,123.38L67.24,123.59L68.64,124.22L69.53,125.11L69.91,126.13L69.66,127.82L69.10,128.53L68.15,129.10L67.34,129.43L65.93,129.67L64.33,129.67L63.43,129.55L62.05,129.04L61.17,128.40L60.64,127.66L60.53,127.01L60.52,125.78L60.99,124.86L61.88,124.09L63.82,123.38L63.95,118.82L64.22,118.61L64.33,119.16L64.70,119.42L65.69,119.42L66.07,119.04L66.18,118.61z"/><path style="fill:#f9e9b9" d="M131.50,34.12L131.49,40.25L126.51,43.14L125.74,43.25L124.61,43.89L124.00,43.89L123.70,43.76L72.52,73.28L72.44,74.34L67.20,77.35L66.69,77.33L65.42,78.10L64.96,78.11L59.98,75.23L59.89,73.29L48.25,66.56L46.94,67.34L46.33,67.33L41.36,64.45L41.27,62.64L41.27,56.47L105.60,19.29L105.89,19.29z"/><path style="fill:#f9e9b9" d="M150.38,41.98L150.38,50.78L150.19,51.10L127.81,64.08L127.70,69.54L127.40,69.74L126.81,69.73L122.49,67.20L122.50,63.45L122.62,63.32L122.62,60.48L122.50,60.35L122.49,57.23L149.44,41.60L149.87,41.60z"/><path style="fill:#8aa7bf" d="M105.05,67.40L104.95,67.41L104.95,67.03z"/><path style="fill:#8aa7bf" d="M106.68,67.41L106.32,67.55L106.61,67.03z"/><path style="fill:#8aa7bf" d="M106.32,67.55L105.85,67.72L105.13,67.58L105.05,67.40z"/><path style="fill:#8aa7bf" d="M123.51,78.05L123.44,78.06L123.52,77.68z"/><path style="fill:#8aa7bf" d="M124.74,78.23L125.03,78.02L125.10,77.68L125.18,78.19L124.87,78.36L123.87,78.36L123.68,78.20z"/><path style="fill:#8aa7bf" d="M105.39,80.00L105.90,80.13L105.89,80.56L105.12,80.39L104.96,80.30L105.01,79.73z"/><path style="fill:#8aa7bf" d="M124.40,90.91L124.41,91.19L123.75,91.16L123.51,91.02L123.46,90.51L123.62,90.49z"/><path style="fill:#8aa7bf" d="M47.50,101.50L47.43,101.49L47.42,101.12L47.48,101.16z"/><path style="fill:#8aa7bf" d="M46.10,114.07L46.72,114.35L46.73,114.63L46.07,114.60L45.83,114.47L45.79,113.95L45.95,113.94z"/><path style="fill:#8aa7bf" d="M65.22,124.99L65.22,125.42L64.83,125.37L64.33,125.11L64.33,124.59z"/><path style="fill:#01ff02" d="M106.42,20.81L105.87,20.99L105.84,20.85L106.10,20.68L106.29,20.69z"/><path style="fill:#01ff02" d="M128.97,33.86L128.40,33.88L128.65,33.73L128.85,33.74z"/><path style="fill:#01ff02" d="M129.11,36.60L128.94,36.97L128.65,36.92L128.94,36.53z"/><path style="fill:#01ff02" d="M129.11,40.27L128.83,40.77L128.81,40.51L128.94,40.20z"/><path style="fill:#01ff02" d="M44.58,56.55L43.99,56.55L44.12,56.42L44.45,56.42z"/><path style="fill:#01ff02" d="M67.14,69.64L66.54,69.60L66.67,69.47L67.14,69.49z"/><path style="fill:#01ff02" d="M69.93,70.92L69.65,71.18L69.63,70.92L69.76,70.61L69.90,70.61z"/><path style="fill:#01ff02" d="M69.93,74.48L69.76,74.85L69.48,74.81L69.76,74.42z"/><path style="fill:#01ff02" d="M46.07,101.80L47.07,101.81L47.26,101.65L47.43,101.49L47.50,101.50L47.54,107.84L47.49,108.44L47.19,108.65L45.95,108.64L45.83,108.51L45.72,107.84L45.76,101.63z"/><path style="fill:#01ff02" d="M64.46,112.43L64.96,112.57L65.43,112.58L65.99,112.39L66.18,118.61L66.07,119.04L65.69,119.42L64.70,119.42L64.33,119.16L64.22,118.61L64.26,112.26z"/><path style="fill:#ffffff" d="M82.96,50.86L82.66,51.13L82.45,51.11L82.27,50.84L82.39,50.71L82.71,50.71z"/><path style="fill:#ffffff" d="M82.19,51.37L82.05,51.50L81.54,51.50L81.38,51.35L81.83,51.11z"/><path style="fill:#ffffff" d="M83.84,51.36L83.70,51.50L83.07,51.49L83.07,51.28L83.60,51.23z"/><path style="fill:#ffffff" d="M84.48,51.75L84.45,51.99L83.96,51.99L83.92,51.75L84.24,51.61z"/><path style="fill:#ffffff" d="M82.96,51.86L82.81,52.01L82.44,52.02L82.27,51.90L82.27,51.76L82.70,51.60z"/><path style="fill:#ffffff" d="M81.32,51.76L81.32,51.90L81.15,52.02L80.78,52.01L80.63,51.86L80.88,51.60z"/><path style="fill:#ffffff" d="M85.36,52.25L85.19,52.51L84.86,52.51L84.69,52.25L85.12,52.11z"/><path style="fill:#ffffff" d="M83.75,52.25L83.72,52.41L83.56,52.52L83.33,52.52L83.04,52.25L83.29,52.11L83.60,52.10z"/><path style="fill:#ffffff" d="M82.20,52.25L82.09,52.42L81.69,52.52L81.39,52.25L81.64,52.11L81.95,52.11z"/><path style="fill:#ffffff" d="M80.55,52.25L80.44,52.42L80.03,52.52L79.87,52.41L79.90,52.16L80.30,52.11z"/><path style="fill:#ffffff" d="M86.24,52.76L86.11,52.89L85.47,52.88L85.48,52.68L85.88,52.51z"/><path style="fill:#ffffff" d="M84.61,52.74L84.29,53.01L84.11,53.01L83.81,52.76L84.23,52.50z"/><path style="fill:#ffffff" d="M79.78,52.76L79.64,52.89L79.13,52.90L78.98,52.74L79.42,52.51z"/><path style="fill:#ffffff" d="M82.97,52.74L82.93,52.88L82.30,52.89L82.16,52.76L82.40,52.62L82.85,52.62z"/><path style="fill:#ffffff" d="M81.43,52.76L81.29,52.89L80.66,52.88L80.66,52.67L81.19,52.62z"/><path style="fill:#ffffff" d="M87.02,53.25L86.86,53.40L86.36,53.39L86.33,53.14L86.64,53.01z"/><path style="fill:#ffffff" d="M85.37,53.25L85.21,53.41L84.84,53.41L84.68,53.29L84.68,53.15L85.11,53.00z"/><path style="fill:#ffffff" d="M83.73,53.15L83.73,53.29L83.56,53.41L83.19,53.41L83.03,53.25L83.29,53.00z"/><path style="fill:#ffffff" d="M82.07,53.14L82.04,53.39L81.54,53.40L81.38,53.25L81.83,53.01z"/><path style="fill:#ffffff" d="M80.56,53.25L80.40,53.40L79.90,53.39L79.87,53.15L80.30,53.00z"/><path style="fill:#ffffff" d="M78.91,53.15L78.91,53.29L78.75,53.41L78.38,53.41L78.21,53.29L78.21,53.15L78.65,52.99z"/><path style="fill:#ffffff" d="M86.15,53.64L86.13,53.81L85.97,53.92L85.74,53.91L85.45,53.64L85.70,53.50L86.01,53.50z"/><path style="fill:#ffffff" d="M84.60,53.64L84.49,53.81L84.09,53.91L83.80,53.64L84.05,53.50L84.36,53.50z"/><path style="fill:#ffffff" d="M82.95,53.64L82.78,53.90L82.44,53.92L82.27,53.80L82.31,53.56L82.71,53.50z"/><path style="fill:#ffffff" d="M81.32,53.66L81.32,53.80L81.15,53.92L80.81,53.90L80.64,53.64L81.06,53.50z"/><path style="fill:#ffffff" d="M79.69,53.64L79.67,53.81L79.51,53.92L79.28,53.91L78.99,53.64L79.23,53.50L79.55,53.50z"/><path style="fill:#ffffff" d="M82.19,54.15L81.88,54.41L81.71,54.41L81.40,54.15L81.82,53.89z"/><path style="fill:#ffffff" d="M85.49,54.15L85.35,54.28L84.70,54.28L84.56,54.15L84.81,54.01L85.25,54.01z"/><path style="fill:#ffffff" d="M83.84,54.15L83.70,54.28L83.07,54.27L83.07,54.07L83.60,54.01z"/><path style="fill:#ffffff" d="M80.56,54.13L80.52,54.27L79.89,54.28L79.75,54.15L79.99,54.01L80.44,54.01z"/><path style="fill:#ffffff" d="M84.61,54.64L84.46,54.80L83.96,54.78L83.92,54.54L84.24,54.40z"/><path style="fill:#ffffff" d="M82.96,54.65L82.81,54.80L82.44,54.80L82.27,54.69L82.27,54.54L82.70,54.39z"/><path style="fill:#ffffff" d="M81.32,54.54L81.32,54.69L81.15,54.80L80.78,54.80L80.63,54.65L80.88,54.39z"/><path style="fill:#ffffff" d="M83.73,55.05L83.73,55.19L83.56,55.31L83.21,55.29L83.05,55.03L83.47,54.89z"/><path style="fill:#ffffff" d="M82.10,55.03L82.07,55.20L81.91,55.31L81.69,55.31L81.39,55.04L81.64,54.90L81.95,54.89z"/><path style="fill:#ffffff" d="M82.97,55.53L82.93,55.67L82.30,55.68L82.16,55.54L82.40,55.41L82.85,55.41z"/><path style="fill:#ffffff" d="M125.30,58.93L125.23,58.73L144.37,47.68L144.37,50.73L128.02,60.23L127.57,60.23z"/><path style="stroke:#000000;stroke-width:0.088" d="M126.45,42.89L131.40,40.04L131.40,34.32L126.45,37.18L126.45,42.89"/><path style="stroke:#000000;stroke-width:0.088" d="M129.19,40.32L129.18,40.22L129.14,40.16L129.07,40.13L128.99,40.13L128.90,40.17L128.82,40.25L128.74,40.34L128.69,40.46L128.66,40.57L128.65,40.63L128.66,40.67L128.68,40.75L128.74,40.80L128.81,40.82L128.90,40.79L128.99,40.73L129.07,40.65L129.13,40.54L129.18,40.43L129.19,40.32"/><path style="stroke:#000000;stroke-width:0.088" d="M128.66,40.67L128.66,40.61L128.66,40.67"/><path style="stroke:#000000;stroke-width:0.088" d="M128.89,40.18L128.94,40.16L129.01,40.15L129.06,40.18L129.10,40.24L129.11,40.32L129.10,40.41L129.06,40.51L129.01,40.60L128.94,40.67L128.88,40.71L128.86,40.72L128.79,40.74L128.73,40.73L128.68,40.69L128.66,40.62"/><path style="stroke:#000000;stroke-width:0.088" d="M128.66,40.61L128.66,40.58"/><path style="stroke:#000000;stroke-width:0.088" d="M128.68,40.60L128.76,40.53L128.84,40.44L128.89,40.32L128.92,40.21L128.92,40.25L128.90,40.35L128.85,40.44L128.79,40.53L128.71,40.59L128.66,40.62"/><path style="stroke:#000000;stroke-width:0.088" d="M128.92,40.21L128.92,40.17L128.92,40.21"/><path style="stroke:#000000;stroke-width:0.088" d="M129.19,36.59L129.18,36.50L129.14,36.43L129.07,36.40L128.99,36.40L128.90,36.45L128.82,36.52L128.74,36.62L128.69,36.73L128.66,36.84L128.65,36.90L128.66,36.95L128.68,37.03L128.74,37.08L128.81,37.09L128.90,37.07L128.99,37.01L129.07,36.92L129.13,36.81L129.18,36.70L129.19,36.59"/><path style="stroke:#000000;stroke-width:0.088" d="M128.89,36.45L128.94,36.43L129.01,36.43L129.06,36.45L129.10,36.51L129.11,36.59L129.10,36.68L129.06,36.78L129.01,36.87L128.94,36.94L128.88,36.98L128.86,36.99L128.79,37.01L128.73,37.00L128.68,36.96L128.66,36.89L128.66,36.89L128.66,36.95L128.66,36.89L128.69,36.88L128.71,36.86L128.79,36.80L128.85,36.71L128.90,36.62L128.92,36.52L128.92,36.44L128.92,36.48L128.89,36.60L128.84,36.71L128.76,36.81L128.68,36.88"/><path style="stroke:#000000;stroke-width:0.088" d="M128.66,36.89L128.66,36.86"/><path style="stroke:#000000;stroke-width:0.088" d="M67.28,77.05L72.23,74.20L72.23,68.48L67.28,71.34L67.28,77.05"/><path style="stroke:#000000;stroke-width:0.088" d="M69.49,74.73L69.48,74.79L69.49,74.83L69.50,74.87L69.52,74.91L69.57,74.96L69.64,74.98L69.73,74.95L69.82,74.90L69.90,74.81L69.96,74.70L70.01,74.59L70.02,74.48L70.01,74.39L69.97,74.32L69.90,74.29L69.82,74.29L69.73,74.33L69.65,74.41L69.57,74.51L69.52,74.62L69.49,74.73"/><path style="stroke:#000000;stroke-width:0.088" d="M69.49,74.78L69.49,74.83L69.49,74.74"/><path style="stroke:#000000;stroke-width:0.088" d="M69.72,74.34L69.77,74.32L69.84,74.31L69.89,74.34L69.93,74.40L69.94,74.48L69.93,74.57L69.89,74.67L69.84,74.76L69.77,74.83L69.71,74.87L69.69,74.88L69.62,74.90L69.56,74.89L69.51,74.85L69.49,74.78"/><path style="stroke:#000000;stroke-width:0.088" d="M69.52,74.76L69.59,74.70L69.67,74.60L69.72,74.48L69.75,74.37L69.75,74.33L69.75,74.41L69.73,74.51L69.68,74.60L69.62,74.69L69.54,74.75L69.49,74.78"/><path style="stroke:#000000;stroke-width:0.088" d="M69.50,71.13L69.52,71.19L69.57,71.24L69.64,71.25L69.73,71.23L69.82,71.17L69.90,71.08L69.96,70.97L70.01,70.86L70.02,70.75L70.01,70.66L69.97,70.59L69.90,70.56L69.82,70.56L69.73,70.61L69.65,70.68L69.57,70.78L69.52,70.89L69.49,71.00L69.48,71.06L69.49,71.11L69.50,71.13"/><path style="stroke:#000000;stroke-width:0.088" d="M69.51,71.04L69.59,70.97L69.67,70.87L69.72,70.76L69.75,70.65L69.75,70.60L69.75,70.68L69.73,70.78L69.68,70.88L69.62,70.96L69.54,71.02L69.52,71.04L69.49,71.05L69.49,71.11L69.49,71.05L69.49,71.05L69.51,71.12L69.56,71.16L69.62,71.18L69.69,71.16L69.71,71.15L69.77,71.11L69.83,71.03L69.89,70.94L69.93,70.84L69.94,70.75L69.93,70.67L69.89,70.62L69.84,70.59L69.77,70.59L69.72,70.61"/><path style="stroke:#000000;stroke-width:0.088" d="M69.49,71.05L69.49,71.02"/><path style="stroke:#000000;stroke-width:0.088" d="M45.72,113.81L45.34,113.60L45.34,113.61L45.34,113.61L46.47,114.26L46.46,114.25L46.45,114.24L46.45,114.24L45.72,113.81"/><path style="stroke:#000000;stroke-width:0.088" d="M45.67,112.89L45.34,112.69L45.34,112.65L45.35,112.62L45.36,112.62L45.40,112.65L45.51,112.76L45.78,112.95L46.27,113.14L46.37,113.20L46.42,113.25L46.44,113.29L46.45,113.34L45.67,112.89"/><path style="stroke:#000000;stroke-width:0.088" d="M45.34,113.60L45.34,112.69L45.33,113.59L45.34,113.60L45.34,113.61"/><path style="stroke:#000000;stroke-width:0.088" d="M45.34,112.69L45.34,111.75"/><path style="stroke:#000000;stroke-width:0.088" d="M47.53,107.81L47.71,107.93L47.88,108.18L47.89,108.22L47.91,108.47L47.78,108.70L47.66,108.80L47.54,108.90L47.19,109.04L46.78,109.11L46.36,109.10L45.96,109.01L45.63,108.85L45.42,108.64L45.33,108.40L45.35,112.62"/><path style="stroke:#000000;stroke-width:0.088" d="M45.33,108.40L45.34,108.36L45.39,108.12L45.41,108.09L45.60,107.87L45.72,107.80"/><path style="stroke:#000000;stroke-width:0.088" d="M45.72,107.85L45.70,107.86L45.53,108.06L45.48,108.27L45.56,108.49L45.75,108.67L46.04,108.81L46.39,108.89L46.76,108.90L47.12,108.84L47.43,108.72L47.65,108.54L47.76,108.33L47.74,108.11L47.60,107.91L47.53,107.86"/><path style="stroke:#000000;stroke-width:0.088" d="M45.72,108.32L45.72,108.31L45.72,108.31"/><path style="stroke:#000000;stroke-width:0.088" d="M46.45,114.24L46.45,113.34"/><path style="stroke:#000000;stroke-width:0.088" d="M46.47,114.26L46.48,114.27L46.51,114.27L46.57,114.27L46.99,114.24L47.37,114.14L47.67,113.96L47.86,113.74L47.92,113.50L47.91,108.47"/><path style="stroke:#000000;stroke-width:0.088" d="M45.81,108.48L45.80,108.48L45.80,108.47"/><path style="stroke:#000000;stroke-width:0.088" d="M46.23,108.72L46.22,108.72L46.21,108.72"/><path style="stroke:#000000;stroke-width:0.088" d="M45.97,108.62L45.98,108.62"/><path style="stroke:#000000;stroke-width:0.088" d="M47.09,108.70L47.09,108.70L47.08,108.70"/><path style="stroke:#000000;stroke-width:0.088" d="M46.81,108.76L46.81,108.76L46.80,108.76"/><path style="stroke:#000000;stroke-width:0.088" d="M46.49,108.77L46.51,108.77L46.51,108.77"/><path style="stroke:#000000;stroke-width:0.088" d="M47.53,108.27L47.54,108.27L47.53,108.28"/><path style="stroke:#000000;stroke-width:0.088" d="M47.47,108.44L47.47,108.44L47.47,108.45"/><path style="stroke:#000000;stroke-width:0.088" d="M47.31,108.59L47.32,108.59L47.32,108.59"/><path style="stroke:#000000;stroke-width:0.088" d="M105.91,80.10L105.91,80.54L105.68,80.54L105.39,80.49L105.15,80.39L104.97,80.25L104.89,80.08L104.89,79.66"/><path style="stroke:#000000;stroke-width:0.088" d="M106.57,66.93L106.64,66.99L106.70,67.16L106.67,67.33L106.55,67.49L106.48,67.53L106.34,67.62L106.07,67.69L105.77,67.72L105.68,67.71L105.48,67.69L105.22,67.60L105.15,67.57L105.02,67.47L104.98,67.42L104.90,67.31L104.88,67.14L104.89,74.14"/><path style="stroke:#000000;stroke-width:0.088" d="M105.30,67.31L105.52,67.39L105.76,67.41L106.01,67.40L106.24,67.33L106.41,67.23L106.52,67.10L106.55,66.96L106.50,66.81L106.37,66.69L106.18,66.60L105.95,66.55L105.70,66.54L105.46,66.58L105.25,66.66L105.11,66.78L105.04,66.92L105.05,67.07L105.07,67.10L105.14,67.20L105.30,67.31"/><path style="stroke:#000000;stroke-width:0.088" d="M106.59,66.99L106.59,67.07L106.56,67.22L106.45,67.36L106.27,67.47L106.25,67.47L106.04,67.54L105.78,67.56L105.52,67.53L105.29,67.46L105.11,67.34L105.01,67.20L105.00,67.05L105.00,66.95L105.00,66.94L105.08,66.79L105.24,66.66L105.45,66.58L105.69,66.53L105.95,66.54L106.19,66.59L106.39,66.69L106.53,66.82L106.53,66.83L106.59,66.98L106.59,66.99L106.56,67.14L106.44,67.27L106.26,67.38L106.02,67.45L105.76,67.47L105.50,67.44L105.28,67.36L105.11,67.24L105.01,67.10L105.00,66.95"/><path style="stroke:#000000;stroke-width:0.088" d="M104.88,67.14L104.96,66.97L105.00,66.94"/><path style="stroke:#000000;stroke-width:0.088" d="M105.91,80.54L106.70,80.09L106.70,80.04L106.70,79.88"/><path style="stroke:#000000;stroke-width:0.088" d="M106.70,80.09L106.70,79.89"/><path style="stroke:#000000;stroke-width:0.088" d="M106.70,74.10L106.70,67.16"/><path style="stroke:#000000;stroke-width:0.088" d="M110.35,82.35L110.54,81.46L110.44,82.08L110.25,82.96L109.58,83.75L108.50,84.38L107.12,84.77L105.60,84.88L104.10,84.70L102.78,84.24L101.79,83.57L101.24,82.74L101.14,82.13L101.71,82.98L102.72,83.67L104.06,84.13L105.59,84.31L107.15,84.20L108.55,83.81L109.15,83.51L109.66,83.17L110.35,82.36"/><path style="stroke:#000000;stroke-width:0.088" d="M105.52,80.51L105.61,80.54L105.80,80.56L106.00,80.54L106.18,80.48L106.31,80.39L106.38,80.28L106.39,80.27"/><path style="stroke:#000000;stroke-width:0.088" d="M101.14,82.13L101.71,82.98L102.72,83.67L104.06,84.13L104.61,84.20L105.59,84.31L107.15,84.20L108.55,83.81L109.66,83.17L110.35,82.36L110.54,81.46L110.55,81.41L110.39,82.12L109.91,82.78L109.83,82.84L109.16,83.35L108.17,83.78L107.02,84.06L105.79,84.15L104.61,84.06L104.56,84.06L103.42,83.79L102.43,83.35L101.68,82.78L101.20,82.12L101.04,81.41L101.14,82.13"/><path style="stroke:#000000;stroke-width:0.088" d="M101.04,81.41L101.06,81.27L101.22,80.56L101.30,80.45L101.76,79.80L102.50,79.24L102.59,79.19L103.53,78.77L104.51,78.54"/><path style="stroke:#000000;stroke-width:0.088" d="M104.89,79.96L104.86,79.97L104.06,79.80L102.82,79.23L102.15,79.73L101.73,80.32L101.59,80.94L101.73,81.57L102.15,82.16L102.82,82.66L103.69,83.05L104.71,83.29L105.79,83.37L106.88,83.29L107.90,83.04L108.77,82.66L109.43,82.16L109.85,81.57L110.00,80.94L109.85,80.31L109.43,79.73L108.76,79.23L107.89,78.84L107.08,78.65"/><path style="stroke:#000000;stroke-width:0.088" d="M102.82,79.23L103.69,78.84L104.51,78.64"/><path style="stroke:#000000;stroke-width:0.088" d="M104.99,80.26L104.99,80.30L105.09,80.45L105.26,80.57L105.50,80.65L105.76,80.68L106.03,80.66L106.27,80.59L106.46,80.48L106.58,80.34L106.61,80.18L106.60,80.14"/><path style="stroke:#000000;stroke-width:0.088" d="M104.88,80.04L104.89,80.03L104.87,80.05L104.78,80.23L104.79,80.43L104.92,80.61L105.13,80.75L105.42,80.85L105.75,80.89L106.09,80.87L106.39,80.78L106.51,80.72L106.57,80.83L106.73,81.05L107.52,81.79L108.76,82.66"/><path style="stroke:#000000;stroke-width:0.088" d="M104.88,80.04L104.89,80.03"/><path style="stroke:#000000;stroke-width:0.088" d="M105.52,80.51L105.61,80.54L105.80,80.56L106.00,80.54L106.18,80.48L106.31,80.39L106.38,80.28L106.39,80.27"/><path style="stroke:#000000;stroke-width:0.088" d="M106.51,80.72L106.62,80.64L106.77,80.47L106.81,80.28L106.74,80.09L106.70,80.05"/><path style="stroke:#000000;stroke-width:0.088" d="M110.55,81.41L110.52,81.27L110.36,80.56L110.28,80.44L109.82,79.80L109.08,79.24L108.99,79.19L108.05,78.77L107.08,78.54"/><path style="stroke:#000000;stroke-width:0.088" d="M104.50,79.43L104.51,78.53L104.51,78.49L104.52,78.46L104.53,78.46L104.57,78.49L104.68,78.60L104.95,78.78L105.44,78.98L105.54,79.04L105.58,79.09L105.61,79.13L105.62,79.18L104.51,78.53L104.51,79.43L104.51,79.44L104.51,79.45L104.51,79.44L104.50,79.43"/><path style="stroke:#000000;stroke-width:0.088" d="M104.51,79.43L105.62,80.08L105.62,80.08L105.63,80.09L105.64,80.10L104.51,79.45"/><path style="stroke:#000000;stroke-width:0.088" d="M104.51,78.53L104.51,77.58"/><path style="stroke:#000000;stroke-width:0.088" d="M105.64,80.10L105.65,80.11L105.68,80.11L105.74,80.11L106.16,80.08L106.54,79.97L106.84,79.80L107.03,79.58L107.08,79.34L107.08,74.31L106.95,74.54L106.70,74.74L106.36,74.88L105.95,74.95L105.52,74.94L105.13,74.85L104.97,74.77L104.80,74.69L104.59,74.48L104.50,74.24L104.52,78.46"/><path style="stroke:#000000;stroke-width:0.088" d="M104.50,74.24L104.51,74.20L104.56,73.96L104.58,73.93L104.76,73.71L104.89,73.64"/><path style="stroke:#000000;stroke-width:0.088" d="M104.89,73.69L104.86,73.70L104.70,73.90L104.65,74.11L104.73,74.33L104.92,74.51L105.21,74.65L105.56,74.73L105.93,74.74L106.29,74.68L106.60,74.55L106.82,74.38L106.92,74.17L106.91,73.95L106.77,73.75L106.70,73.70"/><path style="stroke:#000000;stroke-width:0.088" d="M105.15,74.46L105.14,74.46"/><path style="stroke:#000000;stroke-width:0.088" d="M104.97,74.32L104.97,74.32L104.97,74.31"/><path style="stroke:#000000;stroke-width:0.088" d="M105.38,74.56L105.39,74.56L105.39,74.56"/><path style="stroke:#000000;stroke-width:0.088" d="M104.89,74.16L104.89,74.15L104.89,74.14"/><path style="stroke:#000000;stroke-width:0.088" d="M105.62,80.08L105.62,79.18"/><path style="stroke:#000000;stroke-width:0.088" d="M105.98,74.60L105.98,74.60L105.96,74.60"/><path style="stroke:#000000;stroke-width:0.088" d="M105.68,74.61L105.68,74.61L105.66,74.61"/><path style="stroke:#000000;stroke-width:0.088" d="M106.64,74.29L106.64,74.28L106.64,74.28"/><path style="stroke:#000000;stroke-width:0.088" d="M106.49,74.43L106.49,74.43L106.48,74.43"/><path style="stroke:#000000;stroke-width:0.088" d="M106.25,74.54L106.26,74.54L106.26,74.54"/><path style="stroke:#000000;stroke-width:0.088" d="M106.70,74.11L106.70,74.11L106.70,74.12"/><path style="stroke:#000000;stroke-width:0.088" d="M107.08,74.31L107.06,74.06L107.05,74.02L106.88,73.77L106.70,73.65"/><path style="stroke:#000000;stroke-width:0.088" d="M103.48,48.19L103.48,51.92L103.37,52.13L103.34,52.16L103.16,52.30L102.85,52.43L102.49,52.49L102.11,52.48L101.77,52.40L101.51,52.28L101.48,52.26L101.29,52.08L101.21,51.86L101.21,48.14L101.29,48.35L101.48,48.53L101.51,48.55L101.77,48.68L102.11,48.75L102.49,48.76L102.85,48.70L103.16,48.58L103.34,48.44L103.37,48.40L103.48,48.19L103.47,47.98L103.33,47.77L103.09,47.61L102.77,47.50L102.40,47.45L102.03,47.48L101.69,47.57L101.42,47.73L101.26,47.92L101.21,48.14"/><path style="stroke:#000000;stroke-width:0.088" d="M41.25,62.31L41.24,56.56L41.27,56.48L41.33,56.41L41.42,56.36L41.54,56.32L41.67,56.31L105.79,19.29L105.79,31.22L57.17,59.29"/><path style="stroke:#000000;stroke-width:0.088" d="M41.67,56.31L51.65,56.32"/><path style="stroke:#000000;stroke-width:0.088" d="M41.42,56.36L105.79,19.19L105.79,20.10"/><path style="stroke:#000000;stroke-width:0.088" d="M51.57,56.31L105.79,25.00L105.79,24.74L105.79,25.50L52.22,56.43"/><path style="stroke:#000000;stroke-width:0.088" d="M57.25,59.34L105.79,31.31L105.79,30.93"/><path style="stroke:#000000;stroke-width:0.088" d="M105.79,31.30L105.79,30.97L105.79,31.25"/><path style="stroke:#000000;stroke-width:0.088" d="M105.79,31.22L105.79,31.28L105.79,30.97L105.79,31.31L105.79,31.28"/><path style="stroke:#000000;stroke-width:0.088" d="M105.79,29.38L105.79,28.77L105.79,29.38"/><path style="stroke:#000000;stroke-width:0.088" d="M105.79,27.45L105.79,27.70L105.79,27.06L105.79,27.45"/><path style="stroke:#000000;stroke-width:0.088" d="M105.79,27.06L105.79,25.25L105.79,25.31"/><path style="stroke:#000000;stroke-width:0.088" d="M105.79,25.05L105.79,25.25L105.79,25.20"/><path style="stroke:#000000;stroke-width:0.088" d="M105.79,25.09L105.79,25.25L105.79,25.00"/><path style="stroke:#000000;stroke-width:0.088" d="M105.79,25.14L105.79,25.31"/><path style="stroke:#000000;stroke-width:0.088" d="M105.79,25.41L105.79,25.52"/><path style="stroke:#000000;stroke-width:0.088" d="M105.79,23.97L105.79,24.74L105.79,23.20"/><path style="stroke:#000000;stroke-width:0.088" d="M105.79,25.09L105.79,25.00L105.79,25.25L105.79,25.20"/><path style="stroke:#000000;stroke-width:0.088" d="M105.79,25.36L105.79,25.46"/><path style="stroke:#000000;stroke-width:0.088" d="M105.79,25.41L105.79,25.25L105.79,25.52"/><path style="stroke:#000000;stroke-width:0.088" d="M105.79,24.74L105.79,25.50"/><path style="stroke:#000000;stroke-width:0.088" d="M105.79,19.33L105.79,19.19L105.79,19.33L105.79,19.20"/><path style="stroke:#000000;stroke-width:0.088" d="M105.79,19.25L105.79,19.23"/><path style="stroke:#000000;stroke-width:0.088" d="M120.20,39.78L105.79,31.46L105.79,30.93L105.79,31.33"/><path style="stroke:#000000;stroke-width:0.088" d="M105.79,30.93L105.79,29.37"/><path style="stroke:#000000;stroke-width:0.088" d="M105.79,30.15L105.79,29.55"/><path style="stroke:#000000;stroke-width:0.088" d="M105.79,29.38L105.79,25.25L126.23,37.05L126.23,43.27L125.38,42.77"/><path style="stroke:#000000;stroke-width:0.088" d="M105.79,27.70L105.79,27.06L105.79,27.70"/><path style="stroke:#000000;stroke-width:0.088" d="M105.79,27.06L105.79,25.93"/><path style="stroke:#000000;stroke-width:0.088" d="M105.79,27.06L105.79,26.83"/><path style="stroke:#000000;stroke-width:0.088" d="M105.79,26.29L105.79,25.86"/><path style="stroke:#000000;stroke-width:0.088" d="M105.79,25.25L105.79,22.04"/><path style="stroke:#000000;stroke-width:0.088" d="M105.79,21.11L105.79,22.42L105.79,22.06"/><path style="stroke:#000000;stroke-width:0.088" d="M106.43,20.97L106.48,20.91L106.49,20.85L106.47,20.79L106.42,20.74L106.34,20.70L106.24,20.68L106.13,20.67L106.03,20.69L105.94,20.73L105.88,20.77L105.85,20.83L105.85,20.90L105.89,20.95L105.93,20.98"/><path style="stroke:#000000;stroke-width:0.088" d="M105.81,20.88L105.84,20.92L105.92,20.98L106.03,21.02L106.15,21.03L106.28,21.02L106.39,20.99L106.48,20.94L106.53,20.88L106.55,20.80L106.52,20.73L106.46,20.67L106.37,20.62L106.25,20.60L106.12,20.59L106.00,20.61L105.90,20.66L105.83,20.71L105.79,20.78L105.79,20.84L105.81,20.88"/><path style="stroke:#000000;stroke-width:0.088" d="M105.90,20.96L105.95,20.93L106.03,20.89L106.14,20.87L106.24,20.88L106.34,20.90L106.42,20.94L106.44,20.96"/><path style="stroke:#000000;stroke-width:0.088" d="M105.79,20.84L105.79,21.65"/><path style="stroke:#000000;stroke-width:0.088" d="M105.79,20.78L105.79,19.33L105.79,19.45"/><path style="stroke:#000000;stroke-width:0.088" d="M105.79,19.25L105.79,19.23L105.79,19.33L105.79,19.21"/><path style="stroke:#000000;stroke-width:0.088" d="M126.23,37.05L131.40,34.07L131.46,34.05L131.52,34.05L105.79,19.19L105.79,19.23"/><path style="stroke:#000000;stroke-width:0.088" d="M131.40,34.07L105.79,19.29"/><path style="stroke:#000000;stroke-width:0.088" d="M107.94,31.70L107.94,31.84L107.96,31.92L107.99,32.01L108.03,32.09L108.09,32.16L108.16,32.21L120.10,39.10L120.17,39.13L120.23,39.13L120.28,39.10L120.31,39.05L120.32,38.98L120.32,34.51L120.31,34.42L120.28,34.34L120.23,34.26L120.17,34.19L120.10,34.13L117.23,32.47L108.16,27.24L108.09,27.21L108.03,27.21L107.99,27.24L107.96,27.29L107.94,27.36L107.94,31.70"/><path style="stroke:#000000;stroke-width:0.088" d="M126.23,43.27L131.61,40.16L131.61,34.20L131.60,34.13L131.57,34.07L131.52,34.05"/><path style="stroke:#000000;stroke-width:0.088" d="M126.45,42.89L126.45,37.18L131.40,34.32L131.40,40.04L126.45,42.89"/><path style="stroke:#000000;stroke-width:0.088" d="M129.07,33.98L129.01,34.02L129.07,33.98L129.13,33.92L129.14,33.85L129.12,33.78L129.05,33.71L128.96,33.67L128.84,33.64L128.72,33.64L128.60,33.66L128.49,33.70L128.42,33.76L128.38,33.83L128.39,33.90L128.43,33.97L128.51,34.02L128.62,34.06L128.74,34.07L128.87,34.07L128.98,34.03L129.01,34.02L128.99,34.03"/><path style="stroke:#000000;stroke-width:0.088" d="M129.02,34.01L129.07,33.96L129.08,33.90L129.06,33.84L129.01,33.78L128.93,33.74L128.83,33.72L128.72,33.72L128.62,33.73L128.53,33.77L128.47,33.82L128.44,33.87L128.44,33.94L128.48,34.00L128.53,34.03"/><path style="stroke:#000000;stroke-width:0.088" d="M129.03,34.00L129.01,33.99L128.93,33.95L128.83,33.92L128.73,33.92L128.63,33.93L128.54,33.97L128.49,34.00"/><path style="stroke:#000000;stroke-width:0.088" d="M41.43,62.63L67.06,77.43L72.44,74.32L72.44,68.11L67.28,71.09L41.68,56.31L41.54,56.32L41.42,56.36L41.33,56.41L41.29,56.44L41.27,56.48L41.25,56.52L41.24,56.56L41.24,62.52L41.43,62.63"/><path style="stroke:#000000;stroke-width:0.088" d="M67.06,77.43L67.06,71.46L41.24,56.56"/><path style="stroke:#000000;stroke-width:0.088" d="M41.68,56.31L44.36,56.31L44.51,56.34L44.60,56.38L44.67,56.45L44.69,56.52L44.67,56.59L44.62,56.65L44.53,56.71L44.42,56.74L44.29,56.75L44.17,56.73L44.06,56.69L43.98,56.64L43.94,56.57L43.93,56.50L43.97,56.43L44.04,56.37L44.15,56.33L44.26,56.31"/><path style="stroke:#000000;stroke-width:0.088" d="M44.08,56.70L44.03,56.67L43.99,56.61L43.99,56.55L44.02,56.49L44.09,56.44L44.17,56.40L44.27,56.39L44.38,56.39L44.48,56.41L44.56,56.46L44.61,56.51L44.63,56.57L44.62,56.63L44.57,56.68"/><path style="stroke:#000000;stroke-width:0.088" d="M44.58,56.67L44.56,56.66L44.48,56.62L44.38,56.59L44.28,56.59L44.18,56.60L44.09,56.64L44.04,56.67"/><path style="stroke:#000000;stroke-width:0.088" d="M44.36,56.31L52.00,56.31L72.44,68.11"/><path style="stroke:#000000;stroke-width:0.088" d="M48.82,66.17L48.79,66.08L48.78,66.00L48.78,61.53L48.79,61.46L48.82,61.40L48.86,61.38L48.92,61.38L48.99,61.40L60.93,68.30L61.00,68.35L61.06,68.42L61.11,68.50L61.14,68.59L61.15,68.67L61.15,73.14L61.14,73.21L61.11,73.26L61.06,73.29L61.00,73.29L60.93,73.26L48.99,66.37L48.92,66.32L48.86,66.25L48.82,66.17"/><path style="stroke:#000000;stroke-width:0.088" d="M66.63,69.72L66.68,69.68L66.77,69.65L66.87,69.63L66.98,69.64L67.07,69.66L67.15,69.70L67.17,69.72"/><path style="stroke:#000000;stroke-width:0.088" d="M66.64,69.73L66.57,69.68L66.53,69.61L66.53,69.54L66.56,69.47L66.64,69.41L66.74,69.37L66.86,69.35L66.98,69.35L67.10,69.38L67.19,69.43L67.26,69.49L67.28,69.56L67.27,69.63L67.21,69.70L67.12,69.75L67.01,69.78L66.88,69.79L66.76,69.77L66.64,69.73"/><path style="stroke:#000000;stroke-width:0.088" d="M67.15,69.73L67.21,69.67L67.23,69.61L67.21,69.55L67.15,69.50L67.07,69.46L66.97,69.43L66.86,69.43L66.76,69.45L66.68,69.48L66.61,69.53L66.58,69.59L66.59,69.65L66.62,69.71L66.67,69.74"/><path style="stroke:#000000;stroke-width:0.088" d="M67.28,76.55L67.28,77.05L72.23,74.20L72.23,68.48L67.28,71.34L67.28,76.55"/><path style="stroke:#000000;stroke-width:0.088" d="M67.28,71.09L67.21,71.14L67.15,71.21L67.11,71.29L67.07,71.38L67.06,71.46"/><path style="stroke:#000000;stroke-width:0.088" d="M90.24,57.15L71.85,67.77"/><path style="stroke:#000000;stroke-width:0.088" d="M71.79,67.73L90.24,57.08"/><path style="stroke:#000000;stroke-width:0.088" d="M103.48,49.51L122.41,38.58L125.32,40.25L125.37,40.29L125.41,40.34L125.45,40.40L125.47,40.47L125.48,40.53L125.48,42.64L72.44,73.26"/><path style="stroke:#000000;stroke-width:0.088" d="M72.44,73.34L125.44,42.74"/><path style="stroke:#000000;stroke-width:0.088" d="M72.44,71.15L125.48,40.53"/><path style="stroke:#000000;stroke-width:0.088" d="M72.44,70.78L125.32,40.25"/><path style="stroke:#000000;stroke-width:0.088" d="M92.51,55.84L101.21,50.82"/><path style="stroke:#000000;stroke-width:0.088" d="M101.21,50.74L92.51,55.77"/><path style="stroke:#000000;stroke-width:0.088" d="M122.41,38.58L122.36,38.56L122.32,38.56L103.48,49.43"/><path style="stroke:#000000;stroke-width:0.088" d="M122.32,38.56L122.30,38.57"/><path style="stroke:#000000;stroke-width:0.088" d="M124.76,43.13L125.45,42.74L125.47,42.70L125.48,42.64"/><path style="stroke:#000000;stroke-width:0.088" d="M48.82,66.17L48.79,66.08L48.78,66.00L48.78,61.53L48.79,61.45L48.82,61.40L48.86,61.38L48.92,61.37L48.99,61.40L49.78,61.86L60.93,68.30L61.00,68.35L61.06,68.42L61.11,68.50L61.14,68.59L61.15,68.67L61.15,73.14L61.14,73.21L61.11,73.26L61.06,73.29L61.00,73.29L60.93,73.26L48.99,66.37L48.92,66.32L48.86,66.25L48.82,66.17"/><path style="stroke:#000000;stroke-width:0.088" d="M60.88,73.05L60.99,72.98L60.98,73.02L60.97,73.05L60.94,73.06L60.91,73.06L60.88,73.05L49.04,66.21L53.02,63.92"/><path style="stroke:#000000;stroke-width:0.088" d="M49.04,66.21L49.01,66.19L48.98,66.15L48.96,66.11L48.94,66.07L48.94,66.03L48.94,61.68L49.04,61.62L49.01,61.61L48.98,61.61L48.96,61.62L48.94,61.65L48.94,61.68"/><path style="stroke:#000000;stroke-width:0.088" d="M48.94,66.03L52.81,63.79"/><path style="stroke:#000000;stroke-width:0.088" d="M60.99,72.98L60.99,68.64L60.98,68.60L60.97,68.55L60.94,68.51L60.91,68.48L60.88,68.45L49.04,61.62"/><path style="stroke:#000000;stroke-width:0.088" d="M61.06,73.29L61.09,73.27"/><path style="stroke:#000000;stroke-width:0.088" d="M108.49,32.40L108.16,32.21L108.09,32.16L108.03,32.09L107.98,32.01L107.95,31.92L107.94,31.84L107.94,27.36L107.95,27.29L107.99,27.24L108.03,27.21L108.09,27.21L108.16,27.24L120.10,34.13L120.17,34.19L120.23,34.26L120.27,34.34L120.31,34.42L120.32,34.51L120.32,38.98L120.31,39.05L120.28,39.10L120.23,39.13L120.17,39.13L120.10,39.10L108.49,32.40"/><path style="stroke:#000000;stroke-width:0.088" d="M120.05,38.89L120.15,38.82L120.15,38.86L120.13,38.88L120.11,38.90L120.08,38.90L120.05,38.89L108.49,32.21L108.21,32.05L108.18,32.03L108.15,31.99L108.13,31.95L108.11,31.91L108.11,31.87L108.11,27.52L108.11,27.48L108.13,27.46L108.15,27.44L108.18,27.44L108.21,27.46L108.11,27.52"/><path style="stroke:#000000;stroke-width:0.088" d="M108.21,32.05L112.19,29.76"/><path style="stroke:#000000;stroke-width:0.088" d="M108.11,31.87L111.98,29.63"/><path style="stroke:#000000;stroke-width:0.088" d="M108.21,27.46L120.05,34.29L120.08,34.32L120.11,34.35L120.13,34.39L120.15,34.43L120.15,34.48L120.15,38.82"/><path style="stroke:#000000;stroke-width:0.088" d="M120.25,39.11L120.23,39.13"/><path style="stroke:#000000;stroke-width:0.088" d="M92.51,54.53L92.51,58.25L92.40,58.46L92.37,58.50L92.18,58.64L91.88,58.76L91.52,58.83L91.14,58.82L90.79,58.74L90.51,58.60L90.31,58.41L90.24,58.20L90.24,54.47L90.31,54.68L90.51,54.87L90.79,55.01L91.14,55.09L91.52,55.10L91.88,55.04L92.18,54.91L92.37,54.77L92.40,54.74L92.51,54.53L92.49,54.31L92.36,54.11L92.12,53.94L91.79,53.83L91.43,53.79L91.05,53.81L90.72,53.91L90.45,54.06L90.28,54.26L90.24,54.47"/><path style="stroke:#000000;stroke-width:0.088" d="M59.93,73.31L59.93,75.12L59.96,75.18L60.02,75.22L64.97,78.08L65.04,78.11L65.13,78.13L65.23,78.13L65.32,78.11L65.40,78.08L65.40,76.46"/><path style="stroke:#000000;stroke-width:0.088" d="M60.02,75.22L60.02,73.36L64.97,76.21L64.97,78.08"/><path style="stroke:#000000;stroke-width:0.088" d="M65.40,78.08L66.79,77.27"/><path style="stroke:#000000;stroke-width:0.088" d="M41.46,64.51L46.41,67.36L46.41,65.50L41.46,62.64L41.46,64.51L41.40,64.46L41.37,64.41L41.37,62.59"/><path style="stroke:#000000;stroke-width:0.088" d="M46.41,67.36L46.49,67.40L46.58,67.41L46.67,67.41L46.76,67.40L46.84,67.36L46.84,65.75"/><path style="stroke:#000000;stroke-width:0.088" d="M46.84,67.36L48.24,66.56"/><path style="stroke:#000000;stroke-width:0.088" d="M119.70,92.85L120.26,93.69L121.28,94.38L121.66,94.51L122.62,94.84L124.15,95.03L125.70,94.92L127.11,94.52L128.22,93.88L128.91,93.07L129.10,92.17L129.10,92.12L128.94,92.83L128.47,93.49L127.88,93.93L127.71,94.06L126.73,94.50L125.58,94.77L124.35,94.87L124.15,94.85L123.12,94.77L121.97,94.50L120.99,94.06L120.23,93.50L119.76,92.83L119.60,92.12L119.70,92.85"/><path style="stroke:#000000;stroke-width:0.088" d="M119.60,92.12L119.62,91.98L119.78,91.28L119.86,91.16L120.32,90.51L121.06,89.96L121.15,89.90L122.08,89.49L123.07,89.25"/><path style="stroke:#000000;stroke-width:0.088" d="M125.64,89.36L126.45,89.55L127.32,89.94L127.99,90.44L128.41,91.03L128.55,91.66L128.41,92.28L127.99,92.87L127.32,93.37L126.45,93.76L125.44,94.00L124.35,94.08L123.26,94.00L122.25,93.76L121.38,93.37L120.71,92.87L120.29,92.29L120.15,91.66L120.29,91.03L120.71,90.44L121.38,89.94L122.62,90.51L123.41,90.69L123.44,90.68"/><path style="stroke:#000000;stroke-width:0.088" d="M121.38,89.94L122.25,89.56L123.07,89.36"/><path style="stroke:#000000;stroke-width:0.088" d="M123.54,90.98L123.55,91.02L123.65,91.16L123.82,91.28L124.05,91.36L124.32,91.39L124.59,91.37L124.83,91.30L125.02,91.19L125.14,91.05L125.17,90.90L125.15,90.86"/><path style="stroke:#000000;stroke-width:0.088" d="M127.32,93.37L126.08,92.51L125.29,91.77L125.12,91.54L125.07,91.43L124.95,91.50L124.64,91.58L124.31,91.61L123.98,91.57L123.69,91.47L123.47,91.32L123.35,91.14L123.34,90.95L123.43,90.76L123.44,90.75L123.44,90.75"/><path style="stroke:#000000;stroke-width:0.088" d="M123.44,90.75L123.44,90.75"/><path style="stroke:#000000;stroke-width:0.088" d="M124.94,90.98L124.94,91.00L124.87,91.11L124.73,91.19L124.56,91.25L124.36,91.27L124.16,91.25L124.08,91.23"/><path style="stroke:#000000;stroke-width:0.088" d="M125.07,91.43L125.18,91.36L125.33,91.18L125.37,90.99L125.30,90.80L125.26,90.76"/><path style="stroke:#000000;stroke-width:0.088" d="M129.10,92.12L129.08,91.98L128.92,91.27L128.84,91.16L128.38,90.51L127.64,89.95L127.55,89.90L126.61,89.49L125.64,89.25"/><path style="stroke:#000000;stroke-width:0.088" d="M128.91,93.07L129.10,92.17L129.00,92.80L128.81,93.67L128.14,94.47L127.05,95.09L125.68,95.48L124.16,95.59L122.66,95.41L121.34,94.96L120.35,94.28L119.79,93.46L119.70,92.85L120.26,93.69L121.28,94.38L122.62,94.84L124.15,95.03L125.70,94.92L127.11,94.52L127.71,94.23L128.22,93.88L128.91,93.07"/><path style="stroke:#000000;stroke-width:0.088" d="M124.08,91.23L124.16,91.25L124.36,91.27L124.56,91.25L124.73,91.19L124.87,91.11L124.94,91.00L124.94,90.98"/><path style="stroke:#000000;stroke-width:0.088" d="M120.20,39.78L119.19,39.20L119.19,39.32"/><path style="stroke:#000000;stroke-width:0.088" d="M119.10,39.27L119.10,39.15"/><path style="stroke:#000000;stroke-width:0.088" d="M124.13,43.49L124.13,43.92L123.77,43.71"/><path style="stroke:#000000;stroke-width:0.088" d="M124.13,43.92L124.21,43.95L124.30,43.97L124.40,43.97L124.49,43.95L124.57,43.92L124.57,43.25"/><path style="stroke:#000000;stroke-width:0.088" d="M124.57,43.92L125.96,43.11"/><path style="stroke:#000000;stroke-width:0.088" d="M79.03,53.22L78.57,52.95L78.12,53.22"/><path style="stroke:#000000;stroke-width:0.088" d="M78.27,53.04L78.04,53.17L78.57,53.48L79.11,53.17L78.57,52.86L78.27,53.04"/><path style="stroke:#000000;stroke-width:0.088" d="M78.84,53.64L79.38,53.95L79.92,53.64L79.38,53.33L78.84,53.64"/><path style="stroke:#000000;stroke-width:0.088" d="M78.92,53.68L79.38,53.42L79.38,53.33"/><path style="stroke:#000000;stroke-width:0.088" d="M78.84,52.71L79.38,52.40L79.92,52.71L79.38,53.02L78.84,52.71"/><path style="stroke:#000000;stroke-width:0.088" d="M78.92,52.75L79.38,52.49L79.38,52.40"/><path style="stroke:#000000;stroke-width:0.088" d="M78.57,52.86L78.57,52.95"/><path style="stroke:#000000;stroke-width:0.088" d="M79.73,54.15L80.19,53.89L80.19,53.79L79.65,54.10L80.19,54.41L80.73,54.10L80.19,53.79"/><path style="stroke:#000000;stroke-width:0.088" d="M79.38,53.42L79.84,53.68"/><path style="stroke:#000000;stroke-width:0.088" d="M79.82,53.08L79.65,53.17L80.19,53.48L80.73,53.17L80.19,52.86L79.82,53.08"/><path style="stroke:#000000;stroke-width:0.088" d="M79.38,52.49L79.84,52.75"/><path style="stroke:#000000;stroke-width:0.088" d="M79.73,53.22L80.19,52.95L80.65,53.22"/><path style="stroke:#000000;stroke-width:0.088" d="M79.82,52.15L79.65,52.24L80.19,52.55L80.73,52.24L80.19,51.93L79.82,52.15"/><path style="stroke:#000000;stroke-width:0.088" d="M79.73,52.29L80.19,52.02L80.19,51.93"/><path style="stroke:#000000;stroke-width:0.088" d="M80.46,54.57L81.00,54.88L81.53,54.57L81.00,54.26L80.46,54.57"/><path style="stroke:#000000;stroke-width:0.088" d="M80.54,54.62L81.00,54.35L81.00,54.26"/><path style="stroke:#000000;stroke-width:0.088" d="M81.00,53.33L81.53,53.64L81.00,53.95L80.46,53.64L81.00,53.33L81.00,53.42L81.45,53.68"/><path style="stroke:#000000;stroke-width:0.088" d="M80.54,53.68L81.00,53.42"/><path style="stroke:#000000;stroke-width:0.088" d="M80.19,53.89L80.65,54.15"/><path style="stroke:#000000;stroke-width:0.088" d="M80.54,52.75L81.00,52.49L81.45,52.75"/><path style="stroke:#000000;stroke-width:0.088" d="M80.19,52.86L80.19,52.95"/><path style="stroke:#000000;stroke-width:0.088" d="M80.59,52.78L80.46,52.71L81.00,52.40L81.53,52.71L81.00,53.02L80.59,52.78"/><path style="stroke:#000000;stroke-width:0.088" d="M80.19,52.02L80.65,52.29"/><path style="stroke:#000000;stroke-width:0.088" d="M80.51,51.80L80.46,51.77L81.00,51.46L81.53,51.77L81.00,52.09L80.51,51.80"/><path style="stroke:#000000;stroke-width:0.088" d="M80.54,51.82L81.00,51.56L81.00,51.46"/><path style="stroke:#000000;stroke-width:0.088" d="M82.26,55.08L81.80,54.82L81.35,55.08"/><path style="stroke:#000000;stroke-width:0.088" d="M81.80,54.72L81.26,55.04L81.80,55.35L82.34,55.04L81.80,54.72L81.80,54.82"/><path style="stroke:#000000;stroke-width:0.088" d="M81.00,54.35L81.45,54.62"/><path style="stroke:#000000;stroke-width:0.088" d="M81.35,54.15L81.80,53.89L81.80,53.79L82.34,54.10L81.80,54.41L81.26,54.10L81.80,53.79"/><path style="stroke:#000000;stroke-width:0.088" d="M81.80,52.86L81.26,53.17L81.80,53.48L82.34,53.17L81.80,52.86L81.80,52.95L81.35,53.22"/><path style="stroke:#000000;stroke-width:0.088" d="M81.00,52.40L81.00,52.49"/><path style="stroke:#000000;stroke-width:0.088" d="M81.26,52.24L81.80,51.93L82.34,52.24L81.80,52.55L81.26,52.24"/><path style="stroke:#000000;stroke-width:0.088" d="M81.34,52.29L81.80,52.02L81.80,51.93"/><path style="stroke:#000000;stroke-width:0.088" d="M81.35,51.36L81.80,51.09L81.80,51.00L82.34,51.31L81.80,51.62L81.26,51.31L81.80,51.00"/><path style="stroke:#000000;stroke-width:0.088" d="M81.00,51.56L81.45,51.82"/><path style="stroke:#000000;stroke-width:0.088" d="M82.14,55.54L82.07,55.50L82.61,55.19L83.15,55.50L82.61,55.81L82.14,55.54"/><path style="stroke:#000000;stroke-width:0.088" d="M82.14,54.61L82.07,54.57L82.61,54.26L83.15,54.57L82.61,54.88L82.14,54.61"/><path style="stroke:#000000;stroke-width:0.088" d="M81.80,53.89L82.26,54.15"/><path style="stroke:#000000;stroke-width:0.088" d="M82.14,53.60L82.07,53.64L82.61,53.95L83.15,53.64L82.61,53.33L82.14,53.60"/><path style="stroke:#000000;stroke-width:0.088" d="M82.14,52.67L82.07,52.71L82.61,53.02L83.15,52.71L82.61,52.40L82.14,52.67"/><path style="stroke:#000000;stroke-width:0.088" d="M81.80,52.95L82.26,53.22"/><path style="stroke:#000000;stroke-width:0.088" d="M81.80,52.02L82.26,52.29"/><path style="stroke:#000000;stroke-width:0.088" d="M82.12,51.80L82.07,51.77L82.61,51.46L83.15,51.77L82.61,52.09L82.12,51.80"/><path style="stroke:#000000;stroke-width:0.088" d="M81.80,51.09L82.26,51.36"/><path style="stroke:#000000;stroke-width:0.088" d="M82.61,50.53L83.15,50.84L82.61,51.15L82.07,50.84L82.61,50.53L82.61,50.63L83.07,50.89"/><path style="stroke:#000000;stroke-width:0.088" d="M82.15,55.55L82.61,55.28L83.07,55.55"/><path style="stroke:#000000;stroke-width:0.088" d="M82.61,55.19L82.61,55.28"/><path style="stroke:#000000;stroke-width:0.088" d="M82.88,55.04L83.42,54.72L83.95,55.04L83.42,55.35L82.88,55.04"/><path style="stroke:#000000;stroke-width:0.088" d="M82.61,54.26L82.61,54.35L82.15,54.62"/><path style="stroke:#000000;stroke-width:0.088" d="M82.61,54.35L83.07,54.62"/><path style="stroke:#000000;stroke-width:0.088" d="M83.42,53.79L83.95,54.10L83.42,54.41L82.88,54.10L83.42,53.79L83.42,53.89L82.96,54.15"/><path style="stroke:#000000;stroke-width:0.088" d="M83.07,53.68L82.61,53.42L82.61,53.33"/><path style="stroke:#000000;stroke-width:0.088" d="M82.61,53.42L82.15,53.68"/><path style="stroke:#000000;stroke-width:0.088" d="M82.88,53.17L83.42,53.48L83.95,53.17L83.42,52.86L82.88,53.17"/><path style="stroke:#000000;stroke-width:0.088" d="M82.61,52.40L82.61,52.49L82.15,52.75"/><path style="stroke:#000000;stroke-width:0.088" d="M83.07,52.75L82.61,52.49"/><path style="stroke:#000000;stroke-width:0.088" d="M82.15,51.82L82.61,51.56L82.61,51.46"/><path style="stroke:#000000;stroke-width:0.088" d="M83.42,51.93L83.95,52.24L83.42,52.55L82.88,52.24L83.42,51.93L83.42,52.02L82.96,52.29"/><path style="stroke:#000000;stroke-width:0.088" d="M83.07,51.82L82.61,51.56"/><path style="stroke:#000000;stroke-width:0.088" d="M83.42,51.00L82.88,51.31L83.42,51.62L83.95,51.31L83.42,51.00L83.42,51.09L82.96,51.36"/><path style="stroke:#000000;stroke-width:0.088" d="M82.61,50.63L82.15,50.89"/><path style="stroke:#000000;stroke-width:0.088" d="M83.87,55.08L83.42,54.82L83.42,54.72"/><path style="stroke:#000000;stroke-width:0.088" d="M82.96,55.08L83.42,54.82"/><path style="stroke:#000000;stroke-width:0.088" d="M83.68,54.57L84.22,54.88L84.76,54.57L84.22,54.26L83.68,54.57"/><path style="stroke:#000000;stroke-width:0.088" d="M83.68,53.64L84.22,53.95L84.76,53.64L84.22,53.33L83.68,53.64"/><path style="stroke:#000000;stroke-width:0.088" d="M83.42,53.89L83.87,54.15"/><path style="stroke:#000000;stroke-width:0.088" d="M83.42,52.86L83.42,52.95L82.96,53.22"/><path style="stroke:#000000;stroke-width:0.088" d="M83.42,52.95L83.87,53.22"/><path style="stroke:#000000;stroke-width:0.088" d="M84.22,52.40L84.76,52.71L84.22,53.02L83.68,52.71L84.22,52.40L84.22,52.49L83.77,52.75"/><path style="stroke:#000000;stroke-width:0.088" d="M83.42,52.02L83.87,52.29"/><path style="stroke:#000000;stroke-width:0.088" d="M84.22,51.46L84.76,51.77L84.22,52.09L83.68,51.77L84.22,51.46L84.22,51.56L83.77,51.82"/><path style="stroke:#000000;stroke-width:0.088" d="M83.42,51.09L83.87,51.36"/><path style="stroke:#000000;stroke-width:0.088" d="M84.22,54.26L84.22,54.35L83.77,54.62"/><path style="stroke:#000000;stroke-width:0.088" d="M84.22,54.35L84.68,54.62"/><path style="stroke:#000000;stroke-width:0.088" d="M84.68,53.68L84.22,53.42L83.77,53.68"/><path style="stroke:#000000;stroke-width:0.088" d="M84.22,53.42L84.22,53.33"/><path style="stroke:#000000;stroke-width:0.088" d="M84.68,52.75L84.22,52.49"/><path style="stroke:#000000;stroke-width:0.088" d="M84.22,51.56L84.68,51.82"/><path style="stroke:#000000;stroke-width:0.088" d="M85.03,54.41L85.57,54.10L85.03,53.79L84.49,54.10L85.03,54.41"/><path style="stroke:#000000;stroke-width:0.088" d="M85.49,54.15L85.03,53.89L84.57,54.15"/><path style="stroke:#000000;stroke-width:0.088" d="M85.03,52.86L84.49,53.17L85.03,53.48L85.57,53.17L85.03,52.86L85.03,52.95L84.57,53.22"/><path style="stroke:#000000;stroke-width:0.088" d="M85.03,53.79L85.03,53.89"/><path style="stroke:#000000;stroke-width:0.088" d="M85.03,52.95L85.49,53.22"/><path style="stroke:#000000;stroke-width:0.088" d="M85.03,51.93L85.57,52.24L85.03,52.55L84.49,52.24L85.03,51.93L85.03,52.02L85.49,52.29"/><path style="stroke:#000000;stroke-width:0.088" d="M85.03,52.02L84.57,52.29"/><path style="stroke:#000000;stroke-width:0.088" d="M86.01,53.43L85.84,53.33L85.30,53.64L85.84,53.95L86.37,53.64L86.01,53.43"/><path style="stroke:#000000;stroke-width:0.088" d="M85.84,53.33L85.84,53.42L85.38,53.68"/><path style="stroke:#000000;stroke-width:0.088" d="M86.29,53.68L85.84,53.42"/><path style="stroke:#000000;stroke-width:0.088" d="M85.38,52.75L85.84,52.49L86.29,52.75"/><path style="stroke:#000000;stroke-width:0.088" d="M85.52,52.58L85.30,52.71L85.84,53.02L86.37,52.71L85.84,52.40L85.52,52.58"/><path style="stroke:#000000;stroke-width:0.088" d="M85.84,52.40L85.84,52.49"/><path style="stroke:#000000;stroke-width:0.088" d="M86.64,53.48L87.18,53.17L86.64,52.86L86.11,53.17L86.64,53.48"/><path style="stroke:#000000;stroke-width:0.088" d="M86.64,52.86L86.64,52.95L86.19,53.22"/><path style="stroke:#000000;stroke-width:0.088" d="M86.64,52.95L87.10,53.22"/><path style="stroke:#000000;stroke-width:0.088" d="M105.55,31.45L105.79,31.59L105.90,31.53"/><path style="stroke:#000000;stroke-width:0.088" d="M118.86,39.01L118.76,39.07L120.09,39.84"/><path style="stroke:#000000;stroke-width:0.088" d="M118.84,39.12L118.94,39.06"/><path style="stroke:#000000;stroke-width:0.088" d="M123.06,90.14L123.06,90.16L123.07,90.16L123.07,90.16L123.07,90.15L123.07,89.24L123.07,89.21L123.07,89.18L123.09,89.17L123.13,89.20L123.24,89.31L123.51,89.50L124.00,89.70L124.09,89.75L124.14,89.80L124.17,89.84L124.18,89.89L123.07,89.25L123.06,90.14"/><path style="stroke:#000000;stroke-width:0.088" d="M123.07,90.15L124.18,90.79L124.18,90.80L124.18,90.80L124.19,90.81L123.07,90.16"/><path style="stroke:#000000;stroke-width:0.088" d="M123.07,89.24L123.07,88.30"/><path style="stroke:#000000;stroke-width:0.088" d="M123.07,89.18L123.06,84.96L123.14,85.20L123.36,85.41L123.69,85.57L124.08,85.66L124.51,85.67L124.92,85.60L125.26,85.45L125.51,85.25L125.63,85.02L125.62,84.77L125.61,84.74L125.44,84.48L125.26,84.36"/><path style="stroke:#000000;stroke-width:0.088" d="M123.06,84.96L123.06,84.92L123.12,84.67L123.14,84.64L123.32,84.43L123.44,84.36"/><path style="stroke:#000000;stroke-width:0.088" d="M123.44,84.41L123.42,84.42L123.26,84.61L123.21,84.83L123.29,85.04L123.48,85.23L123.76,85.37L124.11,85.45L124.49,85.46L124.85,85.39L125.15,85.27L125.37,85.09L125.48,84.88L125.47,84.67L125.33,84.47L125.26,84.42"/><path style="stroke:#000000;stroke-width:0.088" d="M123.95,85.28L123.95,85.27L123.94,85.27"/><path style="stroke:#000000;stroke-width:0.088" d="M123.70,85.17L123.70,85.17"/><path style="stroke:#000000;stroke-width:0.088" d="M123.45,84.87L123.44,84.87L123.44,84.86"/><path style="stroke:#000000;stroke-width:0.088" d="M123.52,85.02L123.53,85.03L123.53,85.03"/><path style="stroke:#000000;stroke-width:0.088" d="M124.19,90.81L124.21,90.82L124.24,90.82L124.29,90.83L124.72,90.80L125.10,90.69L125.40,90.52L125.59,90.29L125.64,90.05L125.63,85.02"/><path style="stroke:#000000;stroke-width:0.088" d="M124.18,90.79L124.18,89.89"/><path style="stroke:#000000;stroke-width:0.088" d="M124.22,85.32L124.23,85.32L124.24,85.32"/><path style="stroke:#000000;stroke-width:0.088" d="M124.52,85.32L124.53,85.32L124.54,85.32"/><path style="stroke:#000000;stroke-width:0.088" d="M125.05,85.14L125.04,85.14L125.04,85.15"/><path style="stroke:#000000;stroke-width:0.088" d="M124.80,85.26L124.81,85.25L124.82,85.25"/><path style="stroke:#000000;stroke-width:0.088" d="M125.26,84.83L125.26,84.82L125.26,84.82"/><path style="stroke:#000000;stroke-width:0.088" d="M125.19,85.00L125.20,84.99L125.20,84.99"/><path style="stroke:#000000;stroke-width:0.088" d="M125.26,90.60L125.26,90.76L125.26,90.80L124.47,91.26L124.24,91.26L123.95,91.21L123.70,91.11L123.53,90.96L123.44,90.80L123.44,90.38"/><path style="stroke:#000000;stroke-width:0.088" d="M125.13,77.65L125.19,77.71L125.26,77.87L125.23,78.05L125.10,78.20L124.90,78.33L124.63,78.41L124.33,78.43L124.24,78.42L124.04,78.40L123.77,78.32L123.70,78.28L123.58,78.19L123.54,78.14L123.46,78.03L123.44,77.85L123.44,84.85"/><path style="stroke:#000000;stroke-width:0.088" d="M125.15,77.70L125.15,77.79L125.12,77.94L125.01,78.07L124.83,78.18L124.81,78.19L124.59,78.25L124.33,78.27L124.08,78.25L123.85,78.17L123.67,78.06L123.57,77.92L123.56,77.77L123.56,77.66L123.56,77.66L123.64,77.50L123.79,77.38L124.00,77.29L124.25,77.25L124.51,77.25L124.75,77.31L124.95,77.41L125.09,77.54L125.09,77.54L125.15,77.69L125.15,77.70L125.12,77.85L125.00,77.99L124.82,78.10L124.58,78.16L124.32,78.18L124.06,78.15L123.83,78.07L123.66,77.96L123.57,77.82L123.56,77.66"/><path style="stroke:#000000;stroke-width:0.088" d="M123.96,77.32L123.81,77.38L123.67,77.50L123.59,77.64L123.61,77.78L123.70,77.92L123.86,78.03L124.07,78.10L124.32,78.13L124.57,78.11L124.79,78.05L124.97,77.94L125.08,77.81L125.11,77.67L125.06,77.53L124.93,77.41L124.74,77.31L124.50,77.26L124.25,77.25L124.01,77.30L123.96,77.32"/><path style="stroke:#000000;stroke-width:0.088" d="M123.44,77.85L123.52,77.69L123.56,77.65"/><path style="stroke:#000000;stroke-width:0.088" d="M124.47,91.26L124.47,90.81"/><path style="stroke:#000000;stroke-width:0.088" d="M125.26,90.60L125.26,90.80"/><path style="stroke:#000000;stroke-width:0.088" d="M125.26,77.87L125.26,84.82"/><path style="stroke:#000000;stroke-width:0.088" d="M66.09,124.76L66.09,124.96L65.30,125.42L65.07,125.42L64.78,125.37L64.53,125.27L64.36,125.13L64.27,124.96L64.27,124.54"/><path style="stroke:#000000;stroke-width:0.088" d="M64.27,119.01L64.27,112.01L64.29,112.19L64.41,112.35L64.54,112.44L64.61,112.48L64.87,112.56L65.16,112.60L65.46,112.57L65.64,112.52L65.73,112.49L65.93,112.37L66.06,112.21L66.09,112.04L66.09,118.98"/><path style="stroke:#000000;stroke-width:0.088" d="M64.39,111.81L64.35,111.85L64.27,112.01"/><path style="stroke:#000000;stroke-width:0.088" d="M64.58,112.11L64.69,112.19L64.91,112.26L65.15,112.29L65.40,112.27L65.62,112.21L65.80,112.11L65.91,111.98L65.94,111.83L65.89,111.69L65.76,111.57L65.57,111.47L65.33,111.42L65.08,111.42L64.84,111.46L64.64,111.54L64.50,111.66L64.43,111.80L64.44,111.94L64.53,112.08L64.58,112.11"/><path style="stroke:#000000;stroke-width:0.088" d="M65.98,111.86L65.98,111.95L65.95,112.10L65.84,112.24L65.66,112.34L65.42,112.41L65.16,112.44L64.91,112.41L64.68,112.33L64.50,112.22L64.40,112.08L64.39,111.93L64.39,111.83L64.39,111.82L64.47,111.66L64.63,111.54L64.84,111.45L65.08,111.41L65.34,111.41L65.58,111.47L65.78,111.57L65.92,111.70L65.92,111.70L65.98,111.85L65.98,111.86L65.95,112.01L65.83,112.15L65.65,112.26L65.41,112.32L65.15,112.34L64.89,112.31L64.67,112.23L64.50,112.12L64.40,111.98L64.39,111.82"/><path style="stroke:#000000;stroke-width:0.088" d="M65.30,125.42L65.30,124.98"/><path style="stroke:#000000;stroke-width:0.088" d="M66.09,124.96L66.09,124.92L66.09,124.76"/><path style="stroke:#000000;stroke-width:0.088" d="M65.96,111.81L66.02,111.87L66.09,112.04"/><path style="stroke:#000000;stroke-width:0.088" d="M61.18,128.44L62.17,129.12L63.49,129.57L64.99,129.75L66.51,129.64L67.88,129.26L68.97,128.63L69.64,127.84L69.83,126.96L69.93,126.33L69.74,127.23L69.05,128.04L68.54,128.39L67.94,128.68L66.54,129.08L64.98,129.19L63.45,129.00L63.40,128.99L62.11,128.54L61.10,127.85L60.53,127.01L60.63,127.62L61.18,128.44"/><path style="stroke:#000000;stroke-width:0.088" d="M65.78,125.14L65.77,125.16L65.70,125.27L65.56,125.35L65.39,125.41L65.19,125.43L64.99,125.42L64.91,125.39"/><path style="stroke:#000000;stroke-width:0.088" d="M60.44,126.36L60.43,126.28L60.53,127.01L61.10,127.85L62.11,128.54L63.45,129.00L64.98,129.19L66.54,129.08L67.94,128.68L69.05,128.04L69.74,127.23L69.93,126.33L69.94,126.28L69.77,126.99L69.50,127.38L69.30,127.65L68.54,128.22L67.56,128.66L66.41,128.93L65.18,129.03L63.95,128.94L62.81,128.66L61.82,128.23L61.06,127.66L60.59,127.00L60.44,126.36"/><path style="stroke:#000000;stroke-width:0.088" d="M60.43,126.28L60.45,126.14L60.61,125.44L60.69,125.32L61.15,124.67L61.89,124.12L61.98,124.06L62.91,123.65L63.90,123.41"/><path style="stroke:#000000;stroke-width:0.088" d="M64.27,124.84L64.24,124.85L63.45,124.67L62.21,124.10L61.54,124.61L61.12,125.19L60.98,125.82L61.12,126.45L61.54,127.03L62.21,127.54L63.08,127.92L64.09,128.16L65.18,128.25L66.27,128.16L67.28,127.92L68.15,127.53L68.82,127.03L69.24,126.45L69.38,125.82L69.24,125.19L68.82,124.60L68.15,124.10L67.28,123.72L66.47,123.52"/><path style="stroke:#000000;stroke-width:0.088" d="M63.90,123.52L63.08,123.72L62.21,124.10"/><path style="stroke:#000000;stroke-width:0.088" d="M68.15,127.53L66.91,126.67L66.12,125.93L65.95,125.70L65.90,125.59L65.78,125.66L65.47,125.74L65.14,125.77L64.81,125.73L64.52,125.63L64.30,125.48L64.18,125.30L64.17,125.11L64.26,124.92L64.27,124.91L64.27,124.91"/><path style="stroke:#000000;stroke-width:0.088" d="M64.91,125.39L64.99,125.42L65.19,125.43L65.39,125.41L65.56,125.35L65.70,125.27L65.77,125.16L65.78,125.14"/><path style="stroke:#000000;stroke-width:0.088" d="M64.37,125.14L64.38,125.18L64.48,125.32L64.65,125.44L64.88,125.52L65.15,125.55L65.42,125.53L65.66,125.47L65.85,125.35L65.97,125.21L66.00,125.06L65.99,125.02"/><path style="stroke:#000000;stroke-width:0.088" d="M65.90,125.59L66.01,125.52L66.16,125.34L66.20,125.15L66.13,124.96L66.09,124.92"/><path style="stroke:#000000;stroke-width:0.088" d="M66.47,123.42L67.44,123.65L68.38,124.06L68.47,124.12L69.21,124.67L69.67,125.32L69.75,125.44L69.91,126.14L69.94,126.28"/><path style="stroke:#000000;stroke-width:0.088" d="M64.27,118.52L64.15,118.59L63.97,118.80L63.95,118.84L63.90,119.08L63.89,119.12L63.97,119.36L64.08,119.46L64.19,119.57L64.52,119.73L64.91,119.82L65.34,119.83L65.75,119.76L66.09,119.62L66.34,119.42L66.46,119.18L66.47,124.21L66.42,124.46L66.23,124.68L65.93,124.85L65.55,124.96L65.13,124.99L65.07,124.99L65.04,124.98L65.02,124.97L65.02,124.96L65.01,124.96L65.01,124.95L63.90,124.31L63.90,123.41L65.01,124.05L65.00,124.01L64.97,123.96L64.92,123.91L64.83,123.86L64.34,123.66L64.07,123.48L63.96,123.36L63.92,123.33L63.91,123.34L63.90,123.37L63.90,123.40L63.90,122.46"/><path style="stroke:#000000;stroke-width:0.088" d="M65.02,124.97L63.90,124.32L63.90,124.32L63.90,124.31"/><path style="stroke:#000000;stroke-width:0.088" d="M63.90,124.32L63.89,124.32L63.89,124.31L63.90,123.40"/><path style="stroke:#000000;stroke-width:0.088" d="M63.91,123.34L63.89,119.12"/><path style="stroke:#000000;stroke-width:0.088" d="M64.27,118.57L64.25,118.58L64.09,118.77L64.04,118.99L64.12,119.20L64.31,119.39L64.59,119.53L64.94,119.61L65.32,119.62L65.68,119.56L65.87,119.48L65.99,119.43L66.20,119.25L66.31,119.05L66.30,118.83L66.16,118.63L66.09,118.58"/><path style="stroke:#000000;stroke-width:0.088" d="M64.28,119.03L64.27,119.03L64.28,119.02"/><path style="stroke:#000000;stroke-width:0.088" d="M65.01,124.95L65.01,124.05"/><path style="stroke:#000000;stroke-width:0.088" d="M64.78,119.44L64.78,119.44L64.77,119.43"/><path style="stroke:#000000;stroke-width:0.088" d="M64.53,119.33L64.53,119.33"/><path style="stroke:#000000;stroke-width:0.088" d="M64.36,119.20L64.36,119.19L64.36,119.19"/><path style="stroke:#000000;stroke-width:0.088" d="M65.05,119.48L65.07,119.49L65.07,119.49"/><path style="stroke:#000000;stroke-width:0.088" d="M65.87,119.31L65.88,119.30L65.88,119.30"/><path style="stroke:#000000;stroke-width:0.088" d="M65.63,119.42L65.65,119.42L65.65,119.41"/><path style="stroke:#000000;stroke-width:0.088" d="M65.35,119.48L65.37,119.48L65.37,119.48"/><path style="stroke:#000000;stroke-width:0.088" d="M66.02,119.16L66.03,119.16L66.03,119.15"/><path style="stroke:#000000;stroke-width:0.088" d="M66.09,118.52L66.27,118.64L66.44,118.90L66.45,118.94L66.46,119.18"/><path style="stroke:#000000;stroke-width:0.088" d="M66.09,119.00L66.09,118.99L66.09,118.98"/><path style="stroke:#000000;stroke-width:0.088" d="M122.76,58.03L122.76,67.34L122.56,67.20L122.42,66.97L122.42,63.86L122.50,64.02L122.55,64.07L122.61,64.07L122.65,64.05L122.69,63.99L122.70,63.90L122.70,60.77L122.69,60.67L122.65,60.57L122.60,60.46L122.50,60.29L122.42,60.14L122.42,57.41L122.56,57.18L122.76,57.03L149.60,41.54L149.68,41.50L149.75,41.50L150.33,41.84L150.29,41.82L150.22,41.81L150.13,41.85L123.29,57.34L123.29,57.72L127.60,60.20L127.06,60.51L122.76,58.03L122.56,57.88L122.42,57.65"/><path style="stroke:#000000;stroke-width:0.088" d="M122.42,63.86L122.42,63.62L122.56,63.39L122.70,63.28"/><path style="stroke:#000000;stroke-width:0.088" d="M122.76,67.34L127.06,69.83L127.12,69.85L127.18,69.85L127.21,69.84"/><path style="stroke:#000000;stroke-width:0.088" d="M122.61,64.07L122.66,64.05"/><path style="stroke:#000000;stroke-width:0.088" d="M122.50,64.02L122.70,63.90"/><path style="stroke:#000000;stroke-width:0.088" d="M123.29,57.34L123.22,57.40L123.17,57.49L123.17,57.58L123.22,57.66L123.29,57.72"/><path style="stroke:#000000;stroke-width:0.088" d="M124.76,67.26L124.74,67.26L124.64,67.25L124.54,67.19L124.44,67.09L124.35,66.97L124.29,66.84L124.26,66.70L124.27,66.58L124.31,66.49L124.38,66.44L124.47,66.43L124.58,66.47L124.68,66.55L124.78,66.66L124.85,66.79L124.90,66.93L124.91,67.06L124.88,67.16L124.83,67.23L124.76,67.26"/><path style="stroke:#000000;stroke-width:0.088" d="M124.76,61.05L124.74,61.05L124.64,61.04L124.54,60.98L124.44,60.88L124.35,60.76L124.29,60.62L124.26,60.49L124.27,60.37L124.31,60.28L124.38,60.23L124.47,60.22L124.58,60.26L124.68,60.34L124.78,60.45L124.85,60.58L124.90,60.72L124.91,60.85L124.88,60.95L124.83,61.02L124.76,61.05"/><path style="stroke:#000000;stroke-width:0.088" d="M125.12,58.77L144.76,47.44L144.84,47.40L144.91,47.41L144.97,47.44L145.01,47.50L145.02,47.59L145.02,50.70L145.01,50.80L144.97,50.91L144.91,51.01L144.84,51.10L144.76,51.16L127.81,60.95"/><path style="stroke:#000000;stroke-width:0.088" d="M127.06,60.51L127.12,60.56L127.18,60.63L127.23,60.71L127.26,60.80L127.27,60.88L127.27,69.70L127.26,69.78L127.23,69.83L127.18,69.85L127.24,69.82"/><path style="stroke:#000000;stroke-width:0.088" d="M127.23,69.83L127.77,69.52L127.80,69.46L127.81,69.39L127.27,69.70"/><path style="stroke:#000000;stroke-width:0.088" d="M127.81,69.39L127.81,60.57L127.27,60.88"/><path style="stroke:#000000;stroke-width:0.088" d="M127.81,64.05L150.13,51.16L150.22,51.10L150.29,51.01L150.35,50.91L150.39,50.80L150.40,50.70L150.40,42.00L150.39,41.91L150.35,41.85L150.33,41.84"/><path style="stroke:#000000;stroke-width:0.088" d="M127.75,60.36L144.22,50.85L144.30,50.79L144.38,50.70L144.43,50.60L144.47,50.49L144.49,50.39L144.49,47.59"/><path style="stroke:#000000;stroke-width:0.088" d="M127.81,60.57L127.80,60.49L127.77,60.40L127.72,60.32L127.66,60.25L127.60,60.20"/><path style="stroke:#000000;stroke-width:0.088" d="M144.76,51.16L144.22,50.85"/><path style="stroke:#000000;stroke-width:0.088" d="M144.49,50.39L145.02,50.70"/><path style="stroke:#000000;stroke-width:0.088" d="M144.76,47.44L145.02,47.59"/><path style="stroke:#000000;stroke-width:0.088" d="M147.40,51.40L147.39,51.53L147.42,51.63L147.47,51.71L147.55,51.74L147.65,51.72L147.76,51.66L147.86,51.57L147.95,51.44L148.01,51.31L148.03,51.17L148.03,51.05L147.99,50.96L147.92,50.91L147.82,50.91L147.72,50.94L147.62,51.02L147.52,51.13L147.45,51.26L147.40,51.40"/><path style="stroke:#000000;stroke-width:0.088" d="M147.75,47.94L147.65,47.99L147.55,48.01L147.47,47.98L147.42,47.91L147.39,47.80L147.40,47.67L147.45,47.54L147.52,47.41L147.62,47.29L147.72,47.22L147.82,47.18L147.92,47.19L147.99,47.24L148.03,47.33L148.03,47.45L148.01,47.58L147.95,47.72L147.86,47.84L147.75,47.94"/><path style="stroke:#000000;stroke-width:0.088" d="M147.63,44.90L147.53,44.90L147.45,44.86L147.41,44.78L147.39,44.67L147.41,44.53L147.46,44.40L147.54,44.27L147.64,44.17L147.75,44.10L147.85,44.07L147.94,44.09L148.00,44.15L148.03,44.25L148.03,44.37L147.99,44.51L147.93,44.64L147.84,44.76L147.74,44.85L147.63,44.90"/><path style="stroke:#000000;stroke-width:0.088" d="M150.13,41.85L149.60,41.54"/><path style="stroke:#000000;stroke-width:0.088" d="M150.29,41.82L149.80,41.53"/><path style="stroke:#000000;stroke-width:0.088" d="M150.18,41.75L149.95,41.62"/><path style="stroke:#000000;stroke-width:0.088" d="M46.74,114.26L46.74,114.70L46.51,114.70L46.22,114.65L45.98,114.55L45.80,114.41L45.72,114.24L45.72,113.83"/><path style="stroke:#000000;stroke-width:0.088" d="M45.83,101.10L45.79,101.13L45.72,101.30L45.72,108.30"/><path style="stroke:#000000;stroke-width:0.088" d="M45.72,101.30L45.73,101.47L45.85,101.63L45.98,101.73L46.05,101.76L46.31,101.85L46.60,101.88L46.90,101.86L47.17,101.78L47.27,101.72L47.38,101.65L47.50,101.49L47.53,101.32L47.53,108.26"/><path style="stroke:#000000;stroke-width:0.088" d="M45.97,101.36L46.13,101.47L46.35,101.55L46.59,101.58L46.84,101.56L47.07,101.49L47.24,101.39L47.35,101.26L47.38,101.12L47.33,100.98L47.20,100.85L47.01,100.76L46.78,100.71L46.53,100.70L46.49,100.71L46.29,100.74L46.08,100.83L45.94,100.94L45.87,101.08L45.88,101.23L45.97,101.36"/><path style="stroke:#000000;stroke-width:0.088" d="M46.33,101.60L46.59,101.63L46.85,101.61L47.09,101.54L47.27,101.43L47.39,101.30L47.42,101.15L47.42,101.14L47.36,100.99L47.36,100.98L47.23,100.85L47.22,100.85L47.02,100.75L46.78,100.70L46.52,100.69L46.28,100.74L46.06,100.83L45.91,100.95L45.83,101.10L45.83,101.11L45.84,101.26L45.94,101.40L46.11,101.52L46.33,101.60"/><path style="stroke:#000000;stroke-width:0.088" d="M45.83,101.11L45.83,101.21L45.85,101.37L45.95,101.51L46.12,101.62L46.33,101.69L46.35,101.69L46.61,101.72L46.87,101.70L47.08,101.64L47.10,101.63L47.28,101.52L47.39,101.38L47.42,101.23L47.42,101.15"/><path style="stroke:#000000;stroke-width:0.088" d="M47.54,114.04L47.54,114.20L47.53,114.25L46.74,114.70"/><path style="stroke:#000000;stroke-width:0.088" d="M47.53,114.25L47.53,114.05"/><path style="stroke:#000000;stroke-width:0.088" d="M47.53,101.32L47.47,101.15L47.40,101.09"/><path style="stroke:#000000;stroke-width:0.088" d="M51.18,116.51L51.37,115.62L51.27,116.24L51.08,117.12L50.41,117.92L49.33,118.54L47.95,118.93L46.43,119.04L44.93,118.86L43.61,118.40L42.62,117.73L42.07,116.90L41.97,116.30L42.54,117.14L43.55,117.83L44.89,118.29L46.43,118.48L47.98,118.36L49.38,117.97L49.98,117.67L50.49,117.33L51.18,116.52"/><path style="stroke:#000000;stroke-width:0.088" d="M47.22,114.43L47.22,114.45L47.14,114.55L47.01,114.64L46.83,114.70L46.64,114.72L46.44,114.70L46.35,114.68"/><path style="stroke:#000000;stroke-width:0.088" d="M42.54,117.14L41.97,116.30L41.87,115.57L42.03,116.28L42.51,116.94L43.26,117.51L44.25,117.95L45.39,118.22L46.43,118.30L46.63,118.31L47.86,118.22L49.00,117.95L49.99,117.51L50.74,116.94L51.22,116.28L51.38,115.57L51.37,115.62L51.18,116.52L50.49,117.33L49.38,117.97L47.98,118.36L46.43,118.48L44.89,118.29L43.55,117.83L42.54,117.14"/><path style="stroke:#000000;stroke-width:0.088" d="M45.72,114.13L45.69,114.13L44.89,113.96L43.65,113.39L42.98,113.89L42.56,114.48L42.42,115.10L42.56,115.73L42.98,116.32L43.65,116.82L44.52,117.21L45.54,117.45L46.63,117.53L47.71,117.45L48.73,117.21L49.60,116.82L50.27,116.32L50.68,115.73L50.83,115.10L50.68,114.47L50.26,113.89L49.59,113.39L48.72,113.00L47.91,112.81"/><path style="stroke:#000000;stroke-width:0.088" d="M41.87,115.57L41.90,115.43L42.06,114.72L42.13,114.61L42.59,113.96L43.33,113.40L43.42,113.35L44.36,112.93L45.34,112.70"/><path style="stroke:#000000;stroke-width:0.088" d="M43.65,113.39L44.52,113.00L45.34,112.81"/><path style="stroke:#000000;stroke-width:0.088" d="M49.60,116.82L48.35,115.95L47.56,115.21L47.40,114.99L47.35,114.88L47.22,114.94L46.92,115.03L46.58,115.05L46.25,115.01L45.97,114.91L45.75,114.77L45.62,114.59L45.61,114.39L45.70,114.21L45.72,114.19L45.71,114.20"/><path style="stroke:#000000;stroke-width:0.088" d="M45.71,114.20L45.72,114.19"/><path style="stroke:#000000;stroke-width:0.088" d="M45.82,114.42L45.82,114.46L45.92,114.61L46.09,114.73L46.33,114.81L46.59,114.84L46.86,114.82L47.10,114.75L47.29,114.64L47.41,114.50L47.44,114.35L47.43,114.31"/><path style="stroke:#000000;stroke-width:0.088" d="M46.35,114.68L46.44,114.70L46.64,114.72L46.83,114.70L47.01,114.64L47.14,114.55L47.22,114.45L47.22,114.43"/><path style="stroke:#000000;stroke-width:0.088" d="M47.35,114.88L47.46,114.81L47.60,114.63L47.64,114.44L47.57,114.25L47.53,114.21"/><path style="stroke:#000000;stroke-width:0.088" d="M47.91,112.70L48.89,112.93L49.82,113.35L49.91,113.40L50.65,113.96L51.11,114.60L51.19,114.72L51.35,115.43L51.38,115.57"/><path style="fill:#ffffff" d="M171.65,67.34L198.06,67.34L198.06,61.70L171.65,61.70z"/><path style="stroke:#35414c;stroke-width:0.255" d="M171.65,67.34L198.06,67.34L198.06,61.70L171.65,61.70z"/><path style="stroke:#35404c;stroke-width:0.250;stroke-opacity:0.00" d="M171.65,67.34L198.06,67.34L198.06,61.70L171.65,61.70z"/><text xml:space="preserve" fill="#333f4b" stroke-width="0" x="172.36" y="65.75" font-size="3.48" opacity="1.00" font-family="Arial" font-weight="bold" font-style="italic">ES3208</text><path style="fill:#ffffff" d="M171.65,87.42L198.06,87.42L198.06,81.77L171.65,81.77z"/><path style="stroke:#35414c;stroke-width:0.255" d="M171.65,87.42L198.06,87.42L198.06,81.77L171.65,81.77z"/><path style="stroke:#35404c;stroke-width:0.250;stroke-opacity:0.00" d="M171.65,87.42L198.06,87.42L198.06,81.77L171.65,81.77z"/><text xml:space="preserve" fill="#333f4b" stroke-width="0" x="172.36" y="85.83" font-size="3.56" opacity="1.00" font-family="Arial" font-weight="bold" font-style="italic">F24093084V</text><path style="fill:#ffffff" d="M171.65,77.38L198.06,77.38L198.06,71.74L171.65,71.74z"/><path style="stroke:#35414c;stroke-width:0.255" d="M171.65,77.38L198.06,77.38L198.06,71.74L171.65,71.74z"/><path style="stroke:#35404c;stroke-width:0.250;stroke-opacity:0.00" d="M171.65,77.38L198.06,77.38L198.06,71.74L171.65,71.74z"/><text xml:space="preserve" fill="#333f4b" stroke-width="0" x="172.36" y="75.79" font-size="3.56" opacity="1.00" font-family="Arial" font-weight="bold" font-style="italic">F24093083V</text><g id="paperID" visibility="hidden" opacity="0.00" transform="scale(0.000100)"><path style="stroke:#000000;stroke-width:0.500;fill:#e6e6e6;fill-rule:evenodd" d="M-2000.00,-2000.00L2210.00,-2000.00L2210.00,2150.00L-2000.00,2150.00zM0.00,0.00L210.00,0.00L210.00,150.00L0.00,150.00z"/><path style="fill:#000000;fill-opacity:0.118" d="M3.00,150.00L210.00,150.00L210.00,3.00L213.00,3.00L213.00,153.00L3.00,153.00z"/></g><g id="hotspot.0" onmouseover="ShowHotSpot(evt,'0')" onmouseout="HideHotSpot(evt,'0')" onmousemove="ShowToolTip(evt,'0',&quot;NONE-10841.PRT&quot;)" opacity="0"><path style="fill:#00ff00;fill-rule:evenodd" d="M198.32,62.13L198.31,67.29L198.02,67.80L171.60,67.72L171.60,61.97L198.06,61.87zM106.66,67.16L107.07,78.62L107.67,78.82L109.30,79.56L110.34,80.65L110.34,82.87L110.07,83.39L109.04,84.21L107.08,84.89L104.78,84.88L102.69,84.33L101.62,83.55L101.33,83.05L101.36,80.49L102.58,79.34L104.51,78.62L105.05,67.01L105.87,66.66zM125.15,77.72L125.40,84.60L125.66,84.87L125.82,89.46L127.23,89.90L128.59,90.92L129.10,92.03L128.82,93.69L128.33,94.52L126.37,95.46L122.46,95.46L120.38,94.38L119.82,93.62L119.85,91.32L120.53,90.41L122.12,89.63L123.01,89.46L123.53,77.84L123.96,77.46L124.88,77.45zM47.49,101.23L47.90,112.70L50.10,113.67L51.17,114.71L51.17,116.94L50.53,117.89L48.44,118.97L44.80,118.97L42.99,118.14L42.18,117.37L42.18,114.56L43.67,113.41L45.34,112.70L45.86,101.07L47.23,100.96zM65.95,111.83L66.20,118.71L66.49,119.21L66.66,123.53L69.16,124.73L69.94,126.09L69.66,128.04L68.22,129.24L66.13,129.79L64.36,129.79L62.24,129.27L60.91,128.22L60.68,127.92L60.67,125.39L62.24,124.05L63.83,123.53L64.36,111.91L64.80,111.53L65.42,111.53z"/></g><g id="hotspot.1" onmouseover="ShowHotSpot(evt,'1')" onmouseout="HideHotSpot(evt,'1')" onmousemove="ShowToolTip(evt,'1',&quot;F24093083V&quot;)" opacity="0"><path style="fill:#00ff00;fill-rule:evenodd" d="M150.25,42.06L150.24,51.18L128.03,64.10L127.76,69.64L127.43,69.88L126.73,69.82L122.75,67.44L122.48,67.18L122.50,63.59L122.75,63.32L122.75,61.10L122.46,60.33L122.48,57.50L124.07,56.44L149.33,41.80L149.97,41.78zM198.32,72.17L198.31,77.33L198.02,77.83L171.60,77.76L171.60,72.01L198.06,71.91zM125.28,58.97L126.71,58.03L144.31,47.87L144.39,50.88L128.17,60.32L127.49,60.35z"/></g><g id="hotspot.2" onmouseover="ShowHotSpot(evt,'2')" onmouseout="HideHotSpot(evt,'2')" onmousemove="ShowToolTip(evt,'2',&quot;LAMIERA_SP5_92X92.1&quot;)" opacity="0"><path style="fill:#00ff00;fill-rule:evenodd" d="M131.45,34.17L131.48,40.35L129.34,41.65L124.78,43.96L123.68,43.95L72.55,73.35L72.20,74.58L68.06,77.04L66.65,77.48L65.85,78.00L64.61,78.03L60.05,75.46L59.90,73.50L48.51,66.89L47.90,66.89L47.19,67.28L46.40,67.47L41.65,64.80L41.38,62.69L41.30,56.63L105.87,19.37zM198.32,82.21L198.31,87.36L198.02,87.87L171.60,87.80L171.60,82.05L198.06,81.94zM82.89,51.04L82.14,51.24L82.48,50.78zM83.65,51.69L83.29,51.69L83.29,51.33L83.65,51.33zM82.14,51.78L81.66,51.66L81.66,51.35L82.14,51.24zM82.14,51.78L82.86,51.86L82.80,52.12L82.33,52.16zM80.68,51.84L81.25,51.84L81.22,52.13L80.70,52.13zM84.19,52.22L84.11,51.88L84.41,51.83zM84.47,52.89L83.75,53.11L84.06,52.63zM82.83,53.03L82.21,52.89L82.64,52.65zM81.25,53.03L80.63,52.89L81.06,52.65zM79.66,53.03L79.04,52.89L79.47,52.65zM82.07,53.43L81.73,53.52L81.82,53.18zM80.56,53.63L80.10,53.49L80.21,53.16zM86.82,53.54L86.46,53.54L86.46,53.18L86.82,53.18zM85.23,53.54L84.88,53.54L84.88,53.18L85.23,53.18zM83.61,53.56L83.29,53.54L83.25,53.21L83.75,53.11zM80.56,53.63L81.28,53.70L81.21,53.97L80.75,54.00zM79.09,53.69L79.66,53.69L79.63,53.98L79.12,53.98zM86.05,53.80L85.58,54.13L85.73,53.70zM84.19,54.07L84.11,53.73L84.41,53.68zM82.61,54.07L82.52,53.73L82.82,53.68zM85.48,54.33L84.59,54.24L85.58,54.13zM79.88,54.22L80.46,54.22L80.43,54.50L79.91,54.50zM82.83,54.88L82.21,54.74L82.64,54.50zM81.25,54.88L80.63,54.74L81.06,54.50zM83.65,55.28L83.31,55.37L83.40,55.03zM82.07,55.28L81.73,55.37L81.82,55.03zM82.61,55.92L82.52,55.58L82.82,55.53z"/></g></g></svg>
