<?xml version="1.0" encoding="UTF-8" standalone="no"?>
<svg xmlns="http://www.w3.org/2000/svg" xmlns:xlink="http://www.w3.org/1999/xlink" width="210.000mm" height="150.000mm" viewBox="0.000000 0.000000 210.000000 150.000000" stroke-linejoin="round" stroke-linecap="round" fill="none" fill-rule="evenodd"><desc>Composer Export</desc><script type="text/ecmascript"><![CDATA[
if(typeof(top) != "undefined")
{
	top.ShowPaper = ShowPaper;
}
function ShowHotSpot(evt,hotspotid)
{
	var svgDocument = evt.target.ownerDocument;
	var strId = "hotspot."+hotspotid;
	var hotspot = svgDocument.getElementById(strId);
	if(hotspot)
		hotspot.setAttribute("opacity",".5");
}
function HideHotSpot(evt,hotspotid)
{
	var svgDocument = evt.target.ownerDocument;
	var strId = "hotspot."+hotspotid;
	var hotspot = svgDocument.getElementById(strId);
	if(hotspot)
		hotspot.setAttribute("opacity","0");

	var toolTip = svgDocument.getElementById('ToolTip');
	if(toolTip)
		toolTip.setAttribute("visibility","hidden");
}
function ShowToolTip(evt,hotspotid,strTooltip)
{
	if(strTooltip=="")
	return;

	// change text
	var svgDocument = evt.target.ownerDocument;
	var tiptext = svgDocument.getElementById('ToolTipText');
	if( !tiptext )
	return;
	tiptext.firstChild.nodeValue = " " + strTooltip + "  " ;

	// show tooltip before, else some refresh issue

	var toolTip = svgDocument.getElementById('ToolTip');
	if(!toolTip)
	return;

	toolTip.setAttribute("visibility","visible");
	toolTip.setAttribute("opacity",".95");

	// move tooltip
	// get viewbox

	var root = svgDocument.documentElement;
	var vbox = (root.getAttribute("viewBox")).split(' ');
	var x0 = parseFloat(vbox[0]);
	var y0 = parseFloat(vbox[1]);
	var vboxW = parseFloat(vbox[2]);
	var vboxH = parseFloat(vbox[3]);

	// get default width of svg

	var strW = root.getAttribute("width");
	var svgW = parseFloat(strW);
	if(strW.indexOf('mm') != -1)
	svgW *= 3.779;

	var strH = root.getAttribute("height");
	var svgH = parseFloat(strH);
	if(strH.indexOf('mm') != -1)
	svgH *= 3.779;  	// 96 dpi  -> 96/25.4 = 3.779

	// update the viewbox / width / height if svg is embedded in html with zoom fit all
	var realx0 = x0;
	var realy0 = y0;
	var realvboxW = vboxW;
	var realvboxH = vboxH;
	var realsvgW = svgW;
	var realsvgH = svgH;

	if ((typeof(top) == "undefined") || (typeof(top.svgctl1) != "undefined")) // embedded in html
	{
		// get window size in pxl

		svgW = window.innerWidth;
		svgH = window.innerHeight;

		// calculate real viewbox

		realsvgW = svgW;
		realsvgH = svgH;
		if((svgW / svgH) > (vboxW / vboxH))
		{
			realvboxW = (vboxH * svgW) / svgH;
			realvboxH = vboxH;
			realx0 = x0 - (realvboxW - vboxW)/2 ;
		}
		else
		{
			realvboxH = (vboxW * svgH) / svgW;
			realvboxW = vboxW;
			realy0 = y0 - (realvboxH - vboxH)/2 ;
		}
	}

	// get user zoom/pan

	var newScale = root.currentScale;
	var translation = root.currentTranslate;

	// transform pxl to user unit

	var xPos = (((evt.clientX+10- translation.x)/newScale) * realvboxW)/realsvgW  + realx0 ;
	var yPos = (((evt.clientY+5- translation.y)/newScale) * realvboxH)/ realsvgH  + realy0 ;
	var scaleForWidth = ( (1 / newScale) * realvboxH) / realsvgH;

	// move tooltip

	toolTip.setAttribute("transform", "translate(" + xPos + "," + yPos + ")" );

	// resize tooltip

	var fontsize = 12;
	tiptext.setAttribute("font-size",fontsize*scaleForWidth);
	tiptext.setAttribute("y", fontsize*scaleForWidth);
	var tipBG = svgDocument.getElementById('ToolTipBG');
	var outline = tiptext.getBBox();
	if(tipBG)
	{
		tipBG.setAttribute("stroke-width", 1*scaleForWidth);
		tipBG.setAttribute("width", Number(outline.width) );
		tipBG.setAttribute("height", Number(outline.height) + fontsize*.5*scaleForWidth );
	}
	var ToolTipShadow = svgDocument.getElementById('ToolTipShadow');
	if(ToolTipShadow)
	{
		ToolTipShadow.setAttribute("width", Number(outline.width) );
		ToolTipShadow.setAttribute("height", Number(outline.height) + fontsize*.5*scaleForWidth );
		ToolTipShadow.setAttribute("x", 3*scaleForWidth);
		ToolTipShadow.setAttribute("y", 3*scaleForWidth);
	}
}
function ShowPaper()
{
  var svgDocument = getDocument();
  var paper = svgDocument.getElementById("paperID");
  if(paper)
  {
    paper.setAttribute("transform","scale(1)");
    paper.setAttribute("opacity","1");
    paper.setAttribute("visibility","visible");
  }
  var svg = svgDocument.getRootElement();
  if(svg)
  {
    svg.setAttribute("width","220.000mm");
    svg.setAttribute("height","160.000mm");
    svg.setAttribute("viewBox","-5.000000 -5.000000 220.000000 160.000000");
  }
}
]]></script><defs/><g><path style="fill:#ffffff" d="M209.93,149.99L0.04,149.99L0.04,0.04L209.93,0.04z"/><path style="fill:#ff0000" d="M39.74,61.53L40.08,61.12L49.96,55.41L50.52,55.41L50.48,60.23L40.21,66.20L39.88,66.20L39.75,66.06z"/><path style="fill:#42a8bb" d="M72.32,54.39L72.32,59.02L72.18,59.25L62.00,65.17L61.41,65.18L60.73,64.87L60.66,61.24L60.32,60.92L60.39,60.01L60.74,59.60L70.87,53.76L71.30,53.76z"/><path style="fill:#5287aa" d="M60.32,60.92L60.66,61.24L60.73,64.87L60.66,65.73L60.35,66.05L50.09,72.03L49.75,72.03L48.70,71.42L48.74,66.61L59.22,60.47L59.51,60.47z"/><path style="fill:#31bfcc" d="M72.70,93.93L72.70,101.84L72.26,102.55L48.20,116.51L47.74,116.49L47.48,116.24L47.47,108.29L47.99,107.55L49.71,106.48L71.88,93.68L72.45,93.68z"/><path style="fill:#2ac7ce" d="M101.46,34.13L101.84,34.63L101.84,52.81L101.54,53.13L100.81,53.15L94.75,49.58L94.60,49.34L94.61,30.88L95.26,30.58z"/><path style="fill:#2ac7ce" d="M152.27,36.03L152.66,36.53L152.66,54.71L152.35,55.03L151.64,55.03L145.56,51.48L145.42,51.12L145.41,32.89L146.01,32.48L146.07,32.48z"/><path style="fill:#9f9fa4" d="M53.81,41.36L53.82,47.74L53.45,48.38L29.45,62.27L28.84,62.27L28.60,62.13L28.59,55.58L29.19,54.91L53.14,41.08L53.43,41.09z"/><path style="fill:#95dce0" d="M159.10,68.48L159.24,68.85L159.24,106.65L159.11,107.16L158.75,107.69L141.83,117.50L141.11,117.51L140.60,117.14L140.61,78.77L141.13,78.02L158.05,68.21L158.61,68.21z"/><path style="fill:#f9e9b9" d="M40.01,33.62L40.00,39.36L39.87,39.87L39.57,40.33L15.51,54.29L15.03,54.29L14.78,54.15L14.78,47.72L15.30,46.98L39.33,33.10L39.62,33.10z"/><path style="fill:#d1ce96" d="M102.36,83.93L102.72,83.92L102.73,110.46L101.80,110.40L100.53,111.18L100.40,111.82L100.15,111.86L100.06,111.43L100.02,84.82L101.79,83.79L102.22,83.80z"/><path style="fill:#ffffff" d="M96.63,34.52L97.16,35.26L97.15,36.21L96.65,36.15L96.15,35.64L95.87,35.02L95.88,34.42L96.14,34.25z"/><path style="fill:#ffffff" d="M39.40,34.32L39.12,34.82L39.11,34.42L39.38,34.26z"/><path style="fill:#ffffff" d="M100.08,36.52L100.70,37.29L100.70,38.23L100.18,38.19L99.82,37.92L99.42,37.05L99.41,36.57L99.52,36.41L99.94,36.40z"/><path style="fill:#ffffff" d="M39.38,39.23L39.11,39.50L39.11,39.11L39.38,38.95z"/><path style="fill:#ffffff" d="M96.65,40.08L97.16,40.84L97.15,41.78L96.64,41.73L96.00,40.98L95.87,40.60L95.88,40.00L96.14,39.83z"/><path style="fill:#ffffff" d="M100.34,42.22L100.69,42.87L100.84,43.55L100.69,43.80L100.18,43.77L99.82,43.50L99.42,42.75L99.43,42.02L99.69,41.86z"/><path style="fill:#ffffff" d="M96.65,45.65L97.16,46.41L97.15,47.36L96.64,47.30L96.00,46.55L95.87,46.17L95.87,45.55L95.97,45.40L96.13,45.39z"/><path style="fill:#ffffff" d="M51.15,47.43L43.42,51.91L43.00,52.05L43.00,49.21L50.98,44.63L51.04,44.65z"/><path style="fill:#ffffff" d="M100.18,47.70L100.70,48.44L100.70,49.38L100.19,49.33L99.70,48.81L99.42,48.20L99.42,47.60L99.94,47.55z"/><path style="fill:#ffffff" d="M15.42,48.51L15.35,48.19L15.51,48.04L15.66,48.05z"/><path style="fill:#ffffff" d="M15.42,53.19L15.35,52.88L15.51,52.73L15.66,52.73z"/><path style="fill:#ffffff" d="M39.49,54.15L31.85,58.59L31.34,58.76L31.25,55.94L31.52,55.86L39.38,51.36z"/><path style="fill:#ffffff" d="M50.05,56.63L49.89,56.87L49.89,56.59L50.03,56.56z"/><path style="fill:#ffffff" d="M40.37,62.29L40.21,62.25L40.40,62.15z"/><path style="fill:#ffffff" d="M49.26,59.91L41.01,64.72L40.97,61.63L49.21,56.93L49.26,56.94z"/><path style="fill:#ffffff" d="M101.07,87.16L100.92,87.16L100.96,85.21L101.08,85.19z"/><path style="fill:#ffffff" d="M101.08,90.33L100.96,90.45L100.96,88.38L101.08,88.36z"/><path style="fill:#ffffff" d="M101.08,93.63L100.96,93.75L100.96,91.68L101.08,91.65z"/><path style="fill:#ffffff" d="M155.39,94.07L155.90,93.05L156.28,92.79L156.71,92.79L156.71,93.48L156.34,94.12L155.95,94.49L155.53,94.62z"/><path style="fill:#ffffff" d="M152.66,95.19L152.65,95.76L152.27,96.51L151.85,96.86L151.38,96.86L151.38,96.25L151.71,95.57L152.36,95.06L152.53,95.06z"/><path style="fill:#ffffff" d="M72.02,95.22L71.76,95.26L71.78,94.98L71.91,94.81L72.06,94.81z"/><path style="fill:#ffffff" d="M157.73,86.26L142.01,95.39L142.01,82.70L157.73,73.67z"/><path style="fill:#ffffff" d="M101.07,96.92L100.92,96.92L100.96,94.97L101.08,94.95z"/><path style="fill:#ffffff" d="M148.61,97.74L148.34,98.67L147.67,99.28L147.33,99.28L147.32,98.53L147.84,97.66L148.18,97.47L148.46,97.48z"/><path style="fill:#ffffff" d="M101.08,100.09L100.96,100.21L100.96,98.14L101.08,98.12z"/><path style="fill:#ffffff" d="M155.39,100.15L155.70,99.31L156.28,98.74L156.71,98.75L156.71,99.43L156.32,100.19L155.91,100.54L155.53,100.58z"/><path style="fill:#ffffff" d="M152.58,101.10L152.66,101.71L152.49,102.18L151.89,102.85L151.47,102.98L151.37,102.83L151.37,102.21L151.89,101.33L152.48,101.03z"/><path style="fill:#ffffff" d="M143.26,100.81L143.53,100.32L144.25,99.74L144.41,99.76L144.42,100.70L144.04,101.33L143.48,101.68L143.27,101.68z"/><path style="fill:#ffffff" d="M72.08,101.45L71.80,101.72L71.79,101.46L72.01,101.15L72.07,101.16z"/><path style="fill:#ffffff" d="M101.08,103.38L100.96,103.51L100.96,101.43L101.08,101.41z"/><path style="fill:#ffffff" d="M148.52,103.51L148.60,103.99L148.34,104.62L147.78,105.21L147.32,105.23L147.32,104.49L147.79,103.69L148.18,103.43z"/><path style="fill:#ffffff" d="M101.08,106.68L100.96,106.80L100.96,104.73L101.08,104.70z"/><path style="fill:#ffffff" d="M143.27,106.77L143.79,106.03L143.99,105.84L144.42,105.84L144.42,106.66L144.16,107.16L143.61,107.64L143.27,107.64z"/><path style="fill:#ffffff" d="M48.40,108.57L48.10,108.94L48.09,108.67L48.21,108.50z"/><path style="fill:#ffffff" d="M101.07,109.97L100.92,109.97L100.96,107.90L101.08,107.87z"/><path style="fill:#ffffff" d="M48.38,115.14L48.11,115.41L48.11,115.01L48.38,114.85z"/><path style="stroke:#000000;stroke-width:0.088" d="M145.60,32.70L145.57,32.72L146.01,32.46L146.12,32.46L146.23,32.50L145.79,32.76L145.67,32.71L145.57,32.72L145.49,32.76L145.43,32.85L145.41,32.97L145.41,50.96L145.43,51.10L145.49,51.25L145.57,51.39L145.67,51.51L145.79,51.60L151.87,55.11L151.98,55.16L152.09,55.16L152.47,54.93"/><path style="stroke:#000000;stroke-width:0.088" d="M145.56,34.81L145.61,34.49L145.75,34.25L145.98,34.12L146.25,34.11L146.56,34.24L151.09,36.85L151.40,37.08L151.68,37.41L151.90,37.79L152.04,38.20L152.09,38.58L152.09,53.06L152.04,53.39L151.90,53.63L151.68,53.75L151.40,53.76L151.09,53.63L146.56,51.02L146.25,50.79L145.98,50.46L145.75,50.08L145.61,49.67L145.56,49.29L145.56,34.81L145.71,34.73L145.71,49.20L145.56,49.29"/><path style="stroke:#000000;stroke-width:0.088" d="M146.22,51.28L146.25,51.37L146.30,51.45L146.36,51.52L146.42,51.56L146.49,51.59L146.55,51.58L146.59,51.54L146.62,51.48L146.62,51.41L146.60,51.32L146.56,51.23L146.50,51.16L146.44,51.10L146.36,51.07L146.31,51.06L146.26,51.08L146.22,51.13L146.21,51.20L146.22,51.28"/><path style="stroke:#000000;stroke-width:0.088" d="M146.56,51.02L146.71,50.94L146.40,50.70L146.12,50.38L145.91,50.00L145.76,49.59L145.71,49.20"/><path style="stroke:#000000;stroke-width:0.088" d="M146.13,34.45L146.28,34.36L146.48,34.36L146.71,34.45L146.56,34.54L146.34,34.45L146.13,34.45L145.96,34.54L145.86,34.72L145.82,34.96L145.82,49.44L145.86,49.72L145.96,50.02L146.13,50.31L146.34,50.55L146.56,50.72L151.09,53.34L151.32,53.43L151.52,53.42L151.69,53.33L151.79,53.15L151.83,52.91L151.83,38.43L151.79,38.15L151.69,37.85L151.52,37.56L151.32,37.32L151.09,37.15L151.24,37.06L151.47,37.24L151.67,37.48L151.84,37.76L151.94,38.06L151.98,38.35L151.83,38.43"/><path style="stroke:#000000;stroke-width:0.088" d="M146.68,49.97L146.45,49.80L146.24,49.56L146.08,49.27L145.97,48.97L145.93,48.69L146.16,48.56L146.19,48.85L146.30,49.15L146.33,49.21L146.46,49.43L146.67,49.67L146.90,49.85L146.68,49.97L150.98,52.46L151.20,52.33L151.43,52.42L151.60,52.42"/><path style="stroke:#000000;stroke-width:0.088" d="M145.93,48.69L145.93,35.84L146.16,35.71L146.16,48.56"/><path style="stroke:#000000;stroke-width:0.088" d="M145.93,35.84L145.97,35.60L146.08,35.42L146.24,35.33L146.45,35.32L146.68,35.41L150.98,37.90L151.21,38.07L151.41,38.31L151.58,38.60L151.68,38.90L151.72,39.18L151.72,52.03L151.68,52.27L151.58,52.45L151.41,52.55L151.21,52.55L150.98,52.46"/><path style="stroke:#000000;stroke-width:0.088" d="M146.16,35.71L146.19,35.47L146.28,35.33"/><path style="stroke:#000000;stroke-width:0.088" d="M145.71,34.73L145.76,34.40L145.90,34.16L145.75,34.25"/><path style="stroke:#000000;stroke-width:0.088" d="M145.96,34.54L146.08,34.48"/><path style="stroke:#000000;stroke-width:0.088" d="M145.90,34.16L145.96,34.13"/><path style="stroke:#000000;stroke-width:0.088" d="M146.36,33.96L146.30,33.89L146.25,33.81L146.22,33.73L146.21,33.64L146.22,33.57L146.26,33.53L146.31,33.50L146.37,33.51L146.44,33.54L146.50,33.60L146.56,33.68L146.60,33.76L146.62,33.85L146.62,33.92L146.59,33.98L146.55,34.02L146.49,34.03L146.43,34.01L146.36,33.96"/><path style="stroke:#000000;stroke-width:0.088" d="M145.79,32.76L151.87,36.27L151.98,36.36L152.09,36.48L152.17,36.62L152.22,36.77L152.24,36.91L152.24,54.90L152.22,55.02L152.17,55.11L152.09,55.16L152.59,54.86"/><path style="stroke:#000000;stroke-width:0.088" d="M152.24,54.90L152.68,54.64L152.68,36.66L152.67,36.51L152.61,36.36L152.53,36.22L152.43,36.10L152.31,36.01L146.23,32.50"/><path style="stroke:#000000;stroke-width:0.088" d="M146.71,50.94L151.24,53.55L151.55,53.67L151.83,53.67"/><path style="stroke:#000000;stroke-width:0.088" d="M151.20,52.33L146.90,49.85"/><path style="stroke:#000000;stroke-width:0.088" d="M146.71,34.45L151.24,37.06"/><path style="stroke:#000000;stroke-width:0.088" d="M146.56,34.54L151.09,37.15"/><path style="stroke:#000000;stroke-width:0.088" d="M151.04,53.97L151.03,53.98L151.04,54.07L151.07,54.15L151.12,54.23L151.18,54.30L151.25,54.35L151.31,54.37L151.37,54.36L151.41,54.32L151.44,54.27L151.44,54.19L151.42,54.10L151.38,54.02L151.32,53.94L151.26,53.88L151.19,53.85L151.13,53.84L151.08,53.87L151.05,53.91L151.04,53.97"/><path style="stroke:#000000;stroke-width:0.088" d="M151.09,53.63L151.24,53.55"/><path style="stroke:#000000;stroke-width:0.088" d="M151.14,36.69L151.12,36.68L151.07,36.60L151.04,36.51L151.03,36.43L151.05,36.36L151.08,36.31L151.13,36.29L151.19,36.29L151.26,36.33L151.32,36.38L151.38,36.46L151.42,36.55L151.44,36.63L151.44,36.71L151.41,36.77L151.37,36.80L151.31,36.81L151.25,36.79L151.18,36.74L151.14,36.69"/><path style="stroke:#000000;stroke-width:0.088" d="M151.69,53.33L151.84,53.24L151.94,53.06L151.98,52.82L151.83,52.91"/><path style="stroke:#000000;stroke-width:0.088" d="M151.73,53.30L151.52,53.42L151.74,53.30"/><path style="stroke:#000000;stroke-width:0.088" d="M151.74,53.71L151.68,53.75"/><path style="stroke:#000000;stroke-width:0.088" d="M151.87,36.27L152.31,36.01"/><path style="stroke:#000000;stroke-width:0.088" d="M152.68,54.64L152.67,54.76L152.61,54.85L152.17,55.11"/><path style="stroke:#000000;stroke-width:0.088" d="M151.98,52.82L151.98,38.35"/><path style="stroke:#000000;stroke-width:0.088" d="M152.24,36.91L152.68,36.66"/><path style="stroke:#000000;stroke-width:0.088" d="M39.73,66.00L39.78,66.09L39.93,66.18L39.87,66.09L39.86,65.97L39.71,65.88L39.73,66.00"/><path style="stroke:#000000;stroke-width:0.088" d="M39.71,65.88L39.71,61.77L39.73,61.63L39.78,61.48L39.86,61.34L39.96,61.21L40.08,61.13L50.09,55.35L50.21,55.30L50.31,55.30L50.46,55.39L50.35,55.39L50.24,55.43L40.23,61.21L40.11,61.30L40.01,61.42L39.93,61.56L39.87,61.71L39.86,61.86L39.71,61.77"/><path style="stroke:#000000;stroke-width:0.088" d="M50.46,55.39L50.54,55.44L50.59,55.52L50.61,55.65L50.61,59.76L50.59,59.90L50.54,60.05L50.46,60.19L50.35,60.31L50.24,60.40L40.23,66.18L40.11,66.23L40.01,66.22L39.78,66.09"/><path style="stroke:#000000;stroke-width:0.088" d="M39.86,65.97L39.86,61.86"/><path style="stroke:#000000;stroke-width:0.088" d="M39.86,66.14L39.97,66.20"/><path style="stroke:#000000;stroke-width:0.088" d="M40.21,65.13L40.21,65.05L40.23,64.97L40.27,64.88L40.32,64.80L40.38,64.74L40.45,64.71L40.51,64.70L40.57,64.72L40.60,64.76L40.62,64.83L40.62,64.84L40.61,64.91L40.58,65.00L40.53,65.08L40.47,65.15L40.41,65.20L40.34,65.22L40.28,65.22L40.24,65.18L40.21,65.13L40.26,65.11L40.33,65.06L40.39,64.99L40.43,64.91L40.46,64.82L40.47,64.76L40.47,64.74L40.46,64.71"/><path style="stroke:#000000;stroke-width:0.088" d="M40.21,62.39L40.24,62.44L40.28,62.48L40.34,62.48L40.41,62.46L40.47,62.41L40.53,62.34L40.58,62.26L40.61,62.17L40.62,62.10L40.62,62.09L40.60,62.02L40.57,61.98L40.57,61.98L40.51,61.96L40.45,61.97L40.38,62.00L40.32,62.06L40.27,62.14L40.23,62.23L40.21,62.31L40.21,62.39L40.26,62.37L40.33,62.32L40.39,62.25L40.43,62.17L40.46,62.08L40.47,62.02L40.47,62.00L40.46,61.96"/><path style="stroke:#000000;stroke-width:0.088" d="M40.23,61.21L40.08,61.13"/><path style="stroke:#000000;stroke-width:0.088" d="M40.97,64.72L49.35,59.89L49.50,59.97L40.97,64.90L40.97,61.64L49.50,56.72L49.50,59.97"/><path style="stroke:#000000;stroke-width:0.088" d="M50.10,59.14L50.11,59.18L50.11,59.19L50.10,59.26L50.07,59.34L50.03,59.43L49.97,59.50L49.90,59.55L49.86,59.56L49.88,59.62L49.93,59.65L49.98,59.65L50.05,59.63L50.12,59.58L50.18,59.51L50.22,59.43L50.25,59.34L50.26,59.28L50.26,59.26L50.24,59.19L50.21,59.15L50.16,59.13L50.09,59.14L50.03,59.18L49.96,59.24L49.91,59.31L49.87,59.40L49.85,59.49L49.86,59.56"/><path style="stroke:#000000;stroke-width:0.088" d="M49.35,59.89L49.35,56.80"/><path style="stroke:#000000;stroke-width:0.088" d="M50.10,56.40L50.11,56.43L50.11,56.45L50.10,56.52L50.07,56.60L50.03,56.69L49.97,56.76L49.90,56.80L49.86,56.82L49.85,56.75L49.87,56.66L49.91,56.57L49.96,56.50L50.03,56.44L50.09,56.40L50.16,56.39L50.21,56.41L50.24,56.45L50.26,56.52L50.26,56.53L50.25,56.60L50.22,56.69L50.18,56.77L50.12,56.84L50.05,56.89L49.98,56.91L49.93,56.91L49.88,56.88L49.86,56.82"/><path style="stroke:#000000;stroke-width:0.088" d="M50.24,55.43L50.09,55.35"/><path style="stroke:#000000;stroke-width:0.088" d="M50.44,55.38L50.31,55.30L50.45,55.39"/><path style="stroke:#000000;stroke-width:0.088" d="M141.30,77.88L141.07,78.05L140.87,78.29L140.70,78.58L140.60,78.88L140.56,79.16L140.56,116.85L140.60,117.09L140.70,117.27L141.31,117.62L141.52,117.62L141.75,117.53L158.51,107.85L158.74,107.68L158.95,107.44L159.11,107.15L159.22,106.85L159.25,106.57L159.25,68.89L159.22,68.64L159.11,68.46L158.95,68.37L158.74,68.37L158.51,68.46L141.75,78.13L141.30,77.88L158.07,68.20L158.51,68.46"/><path style="stroke:#000000;stroke-width:0.088" d="M140.56,116.85L141.01,117.10L141.04,117.35L141.15,117.52L141.31,117.62"/><path style="stroke:#000000;stroke-width:0.088" d="M140.80,117.32L140.86,117.36"/><path style="stroke:#000000;stroke-width:0.088" d="M140.56,79.16L141.01,79.42L141.01,117.10"/><path style="stroke:#000000;stroke-width:0.088" d="M140.91,117.39L141.15,117.52"/><path style="stroke:#000000;stroke-width:0.088" d="M141.04,117.46L140.83,117.34L140.92,117.39"/><path style="stroke:#000000;stroke-width:0.088" d="M141.01,79.42L141.04,79.13L141.15,78.83L141.31,78.55L141.52,78.31L141.75,78.13"/><path style="stroke:#000000;stroke-width:0.088" d="M142.17,116.71L142.14,116.80L142.09,116.88L142.03,116.95L141.97,117.00L141.90,117.02L141.84,117.02L141.80,116.98L141.77,116.93L141.77,116.85L141.79,116.77L141.82,116.68L141.88,116.60L141.94,116.54L142.01,116.51L142.07,116.50L142.12,116.52L142.16,116.56L142.17,116.63L142.17,116.71"/><path style="stroke:#000000;stroke-width:0.088" d="M141.90,97.97L141.84,97.96L141.80,97.93L141.77,97.87L141.77,97.80L141.79,97.71L141.82,97.63L141.88,97.55L141.94,97.49L142.01,97.45L142.07,97.44L142.12,97.46L142.16,97.51L142.17,97.57L142.17,97.65L142.14,97.74L142.09,97.82L142.03,97.89L141.97,97.94L141.90,97.97"/><path style="stroke:#000000;stroke-width:0.088" d="M141.97,95.91L141.97,82.72L158.29,73.30L158.29,86.48L141.97,95.91"/><path style="stroke:#000000;stroke-width:0.088" d="M158.29,86.48L157.84,86.23L141.97,95.39"/><path style="stroke:#000000;stroke-width:0.088" d="M141.90,78.91L141.84,78.91L141.80,78.87L141.77,78.82L141.77,78.74L141.79,78.66L141.82,78.57L141.87,78.51L141.94,78.43L142.01,78.40L142.07,78.39L142.12,78.40L142.16,78.45L142.17,78.52L142.17,78.60L142.14,78.68L142.09,78.77L142.03,78.84L141.97,78.89L141.90,78.91"/><path style="stroke:#000000;stroke-width:0.088" d="M143.98,107.77L143.73,107.86L143.49,107.84L143.31,107.71L143.21,107.48L143.19,107.18L143.26,106.83L143.42,106.49L143.63,106.18L143.89,105.93L144.16,105.78L144.42,105.74L144.63,105.82L144.77,106.00L144.83,106.27L144.83,106.33L144.80,106.60L144.69,106.95L144.50,107.28L144.26,107.56L143.98,107.77"/><path style="stroke:#000000;stroke-width:0.088" d="M143.30,107.68L143.43,107.69L143.70,107.59L143.96,107.39L144.21,107.11L144.39,106.78L144.51,106.43L144.54,106.16L144.54,106.10L144.47,105.83L144.41,105.74"/><path style="stroke:#000000;stroke-width:0.088" d="M143.25,101.59L143.31,101.71L143.49,101.85L143.73,101.86L143.99,101.77L144.24,101.59L144.26,101.57L144.50,101.29L144.69,100.95L144.80,100.60L144.83,100.33L144.83,100.28L144.77,100.01L144.63,99.82L144.42,99.75L144.16,99.79L143.89,99.94L143.63,100.18L143.42,100.49L143.26,100.84L143.19,101.18L143.21,101.49L143.25,101.59"/><path style="stroke:#000000;stroke-width:0.088" d="M143.30,101.68L143.43,101.69L143.70,101.60L143.96,101.40L144.21,101.12L144.39,100.78L144.51,100.43L144.54,100.16L144.54,100.10L144.47,99.83L144.41,99.75"/><path style="stroke:#000000;stroke-width:0.088" d="M147.81,105.50L147.57,105.49L147.39,105.35L147.29,105.13L147.27,104.82L147.34,104.48L147.50,104.13L147.71,103.82L147.97,103.58L148.24,103.43L148.50,103.39L148.71,103.46L148.85,103.65L148.91,103.92L148.91,103.97L148.88,104.24L148.77,104.59L148.58,104.93L148.34,105.21L148.07,105.41L147.81,105.50"/><path style="stroke:#000000;stroke-width:0.088" d="M147.38,105.32L147.51,105.33L147.78,105.24L148.04,105.04L148.28,104.76L148.47,104.42L148.59,104.07L148.62,103.80L148.61,103.74L148.55,103.47L148.49,103.39"/><path style="stroke:#000000;stroke-width:0.088" d="M147.39,99.36L147.57,99.49L147.81,99.51L147.95,99.46L148.07,99.41L148.34,99.21L148.58,98.93L148.77,98.60L148.88,98.25L148.91,97.98L148.91,97.92L148.85,97.65L148.71,97.47L148.50,97.39L148.24,97.43L147.97,97.58L147.71,97.83L147.50,98.14L147.34,98.48L147.27,98.83L147.29,99.13L147.39,99.36"/><path style="stroke:#000000;stroke-width:0.088" d="M147.38,99.33L147.51,99.34L147.78,99.24L148.04,99.04L148.28,98.76L148.47,98.43L148.59,98.08L148.62,97.81L148.61,97.75L148.55,97.48L148.49,97.39"/><path style="stroke:#000000;stroke-width:0.088" d="M151.89,103.15L151.65,103.13L151.47,103.00L151.37,102.77L151.35,102.47L151.42,102.12L151.57,101.78L151.79,101.47L152.05,101.22L152.32,101.07L152.58,101.03L152.79,101.11L152.93,101.29L152.99,101.56L152.99,101.62L152.96,101.89L152.85,102.24L152.66,102.57L152.42,102.85L152.15,103.05L151.89,103.15"/><path style="stroke:#000000;stroke-width:0.088" d="M152.57,101.03L152.63,101.12L152.69,101.39L152.70,101.45L152.67,101.72L152.55,102.07L152.36,102.40L152.12,102.68L151.85,102.88L151.59,102.98L151.46,102.97"/><path style="stroke:#000000;stroke-width:0.088" d="M151.89,97.15L151.65,97.14L151.47,97.00L151.37,96.78L151.35,96.47L151.42,96.13L151.57,95.78L151.79,95.47L152.05,95.23L152.32,95.08L152.58,95.04L152.79,95.11L152.93,95.30L152.99,95.57L152.99,95.62L152.96,95.89L152.85,96.24L152.66,96.58L152.42,96.86L152.15,97.06L151.89,97.15"/><path style="stroke:#000000;stroke-width:0.088" d="M151.46,96.97L151.59,96.98L151.85,96.89L152.12,96.69L152.36,96.41L152.55,96.07L152.67,95.72L152.70,95.45L152.69,95.39L152.63,95.12L152.57,95.04"/><path style="stroke:#000000;stroke-width:0.088" d="M154.31,101.21L154.20,101.29L154.10,101.32L154.01,101.32L153.94,101.27L153.90,101.18L153.89,101.06L153.92,100.93L153.98,100.79L154.06,100.67L154.16,100.58L154.27,100.52L154.37,100.50L154.45,100.53L154.50,100.60L154.53,100.73L154.52,100.84L154.47,100.97L154.40,101.10L154.31,101.21"/><path style="stroke:#000000;stroke-width:0.088" d="M154.09,100.65L154.11,100.65L154.13,100.68L154.14,100.73L154.12,100.83L154.09,100.88L154.05,100.92L154.01,100.95L153.97,100.97L153.94,100.96L153.91,100.95"/><path style="stroke:#000000;stroke-width:0.088" d="M154.03,100.72L154.02,100.77L153.99,100.82L153.95,100.86"/><path style="stroke:#000000;stroke-width:0.088" d="M155.91,100.79L155.73,100.78L155.55,100.64L155.45,100.42L155.43,100.11L155.50,99.77L155.65,99.42L155.87,99.11L156.13,98.87L156.40,98.72L156.66,98.68L156.87,98.75L157.01,98.94L157.07,99.21L157.07,99.26L157.04,99.53L156.93,99.88L156.74,100.22L156.50,100.50L156.23,100.70L155.97,100.79L155.91,100.79"/><path style="stroke:#000000;stroke-width:0.088" d="M156.64,98.68L156.71,98.76L156.77,99.03L156.77,99.09L156.74,99.36L156.63,99.71L156.44,100.05L156.20,100.33L155.93,100.53L155.67,100.62L155.54,100.61"/><path style="stroke:#000000;stroke-width:0.088" d="M155.91,94.79L155.73,94.78L155.55,94.65L155.45,94.42L155.43,94.12L155.50,93.77L155.65,93.43L155.87,93.11L156.13,92.87L156.15,92.86L156.40,92.72L156.66,92.68L156.87,92.76L157.01,92.94L157.07,93.21L157.07,93.27L157.04,93.54L156.93,93.89L156.74,94.22L156.50,94.50L156.23,94.70L155.96,94.80L155.91,94.79"/><path style="stroke:#000000;stroke-width:0.088" d="M155.54,94.62L155.67,94.63L155.93,94.53L156.20,94.33L156.44,94.05L156.63,93.72L156.75,93.37L156.77,93.10L156.77,93.04L156.71,92.77L156.64,92.68"/><path style="stroke:#000000;stroke-width:0.088" d="M158.10,107.35L158.14,107.26L158.19,107.18L158.26,107.12L158.33,107.09L158.39,107.08L158.44,107.09L158.48,107.14L158.49,107.22L158.48,107.29L158.46,107.37L158.41,107.46L158.35,107.53L158.28,107.58L158.22,107.60L158.16,107.60L158.11,107.56L158.09,107.51L158.08,107.43L158.10,107.35"/><path style="stroke:#000000;stroke-width:0.088" d="M158.19,88.13L158.14,88.21L158.10,88.29L158.08,88.38L158.09,88.45L158.11,88.51L158.16,88.54L158.22,88.54L158.28,88.52L158.35,88.47L158.41,88.40L158.46,88.32L158.48,88.23L158.49,88.15L158.48,88.08L158.44,88.04L158.39,88.02L158.33,88.03L158.30,88.05L158.26,88.07L158.19,88.13"/><path style="stroke:#000000;stroke-width:0.088" d="M157.84,86.23L157.84,73.55"/><path style="stroke:#000000;stroke-width:0.088" d="M158.22,69.05L158.14,69.15L158.10,69.24L158.08,69.32L158.09,69.40L158.11,69.45L158.16,69.48L158.22,69.49L158.30,69.46L158.35,69.42L158.41,69.35L158.46,69.26L158.48,69.18L158.49,69.11L158.48,69.03L158.44,68.98L158.39,68.96L158.33,68.97L158.26,69.01L158.22,69.05"/><path style="stroke:#000000;stroke-width:0.088" d="M158.07,68.20L158.30,68.11L158.50,68.11L158.95,68.37"/><path style="stroke:#000000;stroke-width:0.088" d="M159.05,68.43L159.09,68.45L159.04,68.42"/><path style="stroke:#000000;stroke-width:0.088" d="M49.73,71.80L48.62,71.15L48.62,67.04L48.64,66.90L48.69,66.75L48.77,66.61L48.85,66.52L48.87,66.49L48.99,66.40L50.10,67.04L49.99,67.13L49.88,67.25L49.80,67.39L49.78,67.46L49.75,67.54L49.73,67.68L49.73,71.80L49.75,71.92L49.80,72.01L49.88,72.05L49.87,72.05"/><path style="stroke:#000000;stroke-width:0.088" d="M48.62,71.15L48.64,71.27L48.69,71.36L48.74,71.39"/><path style="stroke:#000000;stroke-width:0.088" d="M48.69,71.36L49.80,72.01"/><path style="stroke:#000000;stroke-width:0.088" d="M48.62,67.04L49.73,67.68"/><path style="stroke:#000000;stroke-width:0.088" d="M48.99,66.40L59.22,60.49L59.34,60.45L59.44,60.45L59.47,60.46"/><path style="stroke:#000000;stroke-width:0.088" d="M50.10,67.04L60.34,61.13L60.45,61.09L60.55,61.09L60.64,61.14L60.69,61.22L60.71,61.35L60.71,65.46L60.69,65.60L60.64,65.75L60.55,65.89L60.45,66.01L60.34,66.10L50.10,72.01L49.99,72.05L49.88,72.05"/><path style="stroke:#000000;stroke-width:0.088" d="M49.32,71.73L49.58,71.88"/><path style="stroke:#000000;stroke-width:0.088" d="M50.11,70.73L50.08,70.87L50.09,70.98L50.13,71.07L50.20,71.12L50.29,71.13L50.39,71.09L50.49,71.02L50.59,70.91L50.66,70.78L50.70,70.65L50.71,70.54L50.71,70.52L50.69,70.42L50.63,70.35L50.55,70.32L50.46,70.33L50.35,70.39L50.25,70.48L50.17,70.60L50.11,70.73"/><path style="stroke:#000000;stroke-width:0.088" d="M50.33,70.41L50.33,70.43L50.29,70.57L50.21,70.69L50.12,70.80L50.09,70.82"/><path style="stroke:#000000;stroke-width:0.088" d="M50.11,68.30L50.09,68.24L50.08,68.13L50.11,68.00L50.17,67.86L50.25,67.74L50.35,67.65L50.46,67.59L50.55,67.58L50.63,67.61L50.69,67.68L50.71,67.78L50.71,67.80L50.70,67.91L50.66,68.04L50.59,68.17L50.49,68.28L50.39,68.35L50.29,68.39L50.20,68.38L50.13,68.33L50.11,68.30"/><path style="stroke:#000000;stroke-width:0.088" d="M50.09,68.08L50.12,68.06L50.21,67.95L50.29,67.83L50.33,67.69L50.33,67.67"/><path style="stroke:#000000;stroke-width:0.088" d="M51.70,70.87L51.44,71.02L51.44,70.51L59.00,66.14L59.00,66.66L51.70,70.87"/><path style="stroke:#000000;stroke-width:0.088" d="M59.00,66.66L58.78,66.53L51.44,70.77"/><path style="stroke:#000000;stroke-width:0.088" d="M51.70,70.08L51.51,70.06L51.34,69.95L51.25,69.74L51.24,69.47L51.30,69.16L51.44,68.85L51.63,68.56L51.87,68.34L52.03,68.25L52.11,68.21L52.34,68.17L52.53,68.24L52.66,68.41L52.71,68.65L52.71,68.70L52.69,68.94L52.58,69.26L52.42,69.56L52.20,69.81L51.96,69.99L51.72,70.08L51.70,70.08"/><path style="stroke:#000000;stroke-width:0.088" d="M51.07,68.46L51.12,68.56L51.20,68.62L51.31,68.63L51.43,68.59L51.55,68.50L51.66,68.37L51.74,68.22L51.79,68.06L51.81,67.94L51.81,67.92L51.80,67.90L51.78,67.79L51.71,67.71L51.62,67.68L51.50,67.69L51.38,67.76L51.27,67.87L51.17,68.01L51.10,68.17L51.07,68.33L51.07,68.46"/><path style="stroke:#000000;stroke-width:0.088" d="M51.70,66.84L51.44,67.00L51.44,66.49L59.00,62.12L59.00,62.63L51.70,66.84"/><path style="stroke:#000000;stroke-width:0.088" d="M51.44,66.74L58.78,62.50L58.78,62.25"/><path style="stroke:#000000;stroke-width:0.088" d="M52.05,67.69L52.17,67.65L52.29,67.56L52.40,67.43L52.48,67.28L52.53,67.12L52.55,67.00L52.55,66.97L52.52,66.85L52.46,66.77L52.36,66.74L52.25,66.75L52.12,66.82L52.01,66.93L51.91,67.07L51.84,67.23L51.81,67.38L51.82,67.52L51.86,67.62L51.94,67.68L52.05,67.69"/><path style="stroke:#000000;stroke-width:0.088" d="M52.97,69.23L52.93,69.12L52.92,68.99L52.95,68.83L53.02,68.68L53.12,68.54L53.24,68.43L53.30,68.39L53.36,68.36L53.47,68.34L53.57,68.38L53.63,68.46L53.66,68.58L53.66,68.60L53.65,68.73L53.60,68.88L53.51,69.03L53.40,69.16L53.28,69.25L53.16,69.29L53.06,69.29L52.97,69.23"/><path style="stroke:#000000;stroke-width:0.088" d="M53.30,67.84L53.11,67.91L52.90,67.89L52.73,67.77L52.64,67.57L52.63,67.29L52.69,66.98L52.83,66.67L53.02,66.39L53.26,66.17L53.50,66.04L53.73,66.00L53.92,66.07L54.05,66.23L54.10,66.48L54.11,66.53L54.08,66.77L53.98,67.09L53.81,67.39L53.59,67.64L53.35,67.82L53.30,67.84"/><path style="stroke:#000000;stroke-width:0.088" d="M53.91,68.25L53.99,68.31L54.12,68.32L54.28,68.27L54.44,68.15L54.58,67.99L54.69,67.79L54.76,67.59L54.77,67.43L54.77,67.39L54.74,67.24L54.65,67.13L54.53,67.08L54.38,67.11L54.22,67.19L54.09,67.32L54.07,67.34L53.94,67.52L53.85,67.72L53.81,67.92L53.82,68.10L53.88,68.24L53.91,68.25"/><path style="stroke:#000000;stroke-width:0.088" d="M54.88,67.72L54.85,67.87L54.86,68.01L54.90,68.11L54.98,68.17L55.09,68.18L55.21,68.14L55.33,68.05L55.44,67.92L55.52,67.77L55.58,67.61L55.59,67.49L55.59,67.47L55.56,67.34L55.50,67.26L55.40,67.23L55.29,67.25L55.16,67.31L55.05,67.42L54.95,67.56L54.88,67.72"/><path style="stroke:#000000;stroke-width:0.088" d="M54.81,66.83L54.96,66.84L55.20,66.75L55.44,66.57L55.66,66.32L55.83,66.02L55.93,65.70L55.96,65.46L55.96,65.41L55.90,65.16L55.77,65.00L55.58,64.93L55.36,64.96L55.11,65.10L54.88,65.32L54.68,65.60L54.55,65.91L54.48,66.22L54.50,66.50L54.59,66.70L54.75,66.82L54.81,66.83"/><path style="stroke:#000000;stroke-width:0.088" d="M55.67,66.85L55.68,67.03L55.68,67.05L55.74,67.17L55.84,67.24L55.98,67.25L56.13,67.20L56.29,67.08L56.43,66.92L56.48,66.84L56.54,66.72L56.61,66.51L56.63,66.36L56.63,66.32L56.59,66.17L56.51,66.06L56.38,66.01L56.23,66.04L56.08,66.12L55.92,66.27L55.80,66.45L55.71,66.65L55.67,66.85"/><path style="stroke:#000000;stroke-width:0.088" d="M56.35,65.08L56.33,65.15L56.35,65.43L56.44,65.63L56.60,65.75L56.82,65.77L57.06,65.68L57.30,65.50L57.52,65.25L57.68,64.95L57.79,64.63L57.81,64.39L57.81,64.34L57.80,64.29L57.76,64.09L57.63,63.93L57.44,63.86L57.21,63.89L56.97,64.03L56.73,64.25L56.54,64.53L56.40,64.84L56.35,65.08"/><path style="stroke:#000000;stroke-width:0.088" d="M56.89,66.67L56.90,66.76L56.96,66.90L57.06,66.98L57.20,66.99L57.36,66.93L57.52,66.81L57.66,66.65L57.77,66.45L57.83,66.25L57.85,66.09L57.85,66.06L57.81,65.90L57.73,65.79L57.61,65.75L57.46,65.77L57.30,65.86L57.15,66.00L57.02,66.18L56.93,66.39L56.89,66.59L56.89,66.67"/><path style="stroke:#000000;stroke-width:0.088" d="M58.02,64.07L57.97,63.96L57.96,63.83L58.00,63.67L58.07,63.52L58.16,63.38L58.28,63.27L58.40,63.20L58.52,63.18L58.61,63.22L58.68,63.30L58.70,63.42L58.70,63.44L58.69,63.57L58.64,63.72L58.55,63.87L58.45,64.00L58.33,64.09L58.21,64.13L58.10,64.13L58.02,64.07"/><path style="stroke:#000000;stroke-width:0.088" d="M58.78,66.27L58.78,66.53"/><path style="stroke:#000000;stroke-width:0.088" d="M58.75,66.11L58.66,66.18L58.50,66.24L58.36,66.23L58.26,66.15L58.20,66.01L58.19,65.84L58.23,65.64L58.32,65.43L58.45,65.25L58.60,65.11L58.76,65.02L58.91,65.00L59.03,65.04L59.11,65.15L59.15,65.31L59.15,65.34L59.13,65.50L59.06,65.70L58.95,65.90L58.81,66.06L58.75,66.11"/><path style="stroke:#000000;stroke-width:0.088" d="M58.86,64.72L58.74,64.77L58.64,64.76L58.56,64.70L58.51,64.60L58.50,64.46L58.53,64.30L58.60,64.15L58.70,64.01L58.82,63.90L58.94,63.83L59.05,63.81L59.15,63.85L59.21,63.93L59.24,64.05L59.24,64.08L59.23,64.20L59.18,64.36L59.09,64.51L58.98,64.63L58.86,64.72"/><path style="stroke:#000000;stroke-width:0.088" d="M58.78,62.50L59.00,62.63"/><path style="stroke:#000000;stroke-width:0.088" d="M59.22,60.49L60.34,61.13"/><path style="stroke:#000000;stroke-width:0.088" d="M59.44,60.45L60.06,60.81"/><path style="stroke:#000000;stroke-width:0.088" d="M60.30,65.22L60.34,65.08L60.35,64.98L60.35,64.95L60.33,64.85L60.28,64.78L60.19,64.75L60.10,64.77L59.99,64.82L59.89,64.92L59.81,65.04L59.75,65.17L59.73,65.30L59.73,65.42L59.77,65.50L59.84,65.56L59.93,65.56L60.03,65.53L60.13,65.45L60.23,65.34L60.30,65.22"/><path style="stroke:#000000;stroke-width:0.088" d="M59.97,64.84L59.97,64.87L59.93,65.00L59.86,65.13L59.76,65.23L59.73,65.26"/><path style="stroke:#000000;stroke-width:0.088" d="M59.74,62.70L59.77,62.76L59.84,62.81L59.93,62.82L60.03,62.78L60.13,62.71L60.23,62.60L60.30,62.47L60.34,62.34L60.35,62.24L60.35,62.21L60.33,62.11L60.28,62.04L60.19,62.01L60.10,62.03L59.99,62.08L59.89,62.18L59.81,62.30L59.75,62.43L59.73,62.56L59.73,62.68L59.74,62.70"/><path style="stroke:#000000;stroke-width:0.088" d="M59.73,62.52L59.76,62.49L59.86,62.39L59.93,62.26L59.97,62.12L59.97,62.10"/><path style="stroke:#000000;stroke-width:0.088" d="M59.66,60.57L60.55,61.09"/><path style="stroke:#000000;stroke-width:0.088" d="M60.34,60.96L60.34,60.28L60.35,60.13L60.41,59.98L60.49,59.84L60.59,59.72L60.71,59.63L61.82,60.28L61.70,60.36L61.60,60.48L61.52,60.63L61.47,60.78L61.45,60.92L61.45,65.03L61.47,65.15L61.52,65.24L60.71,64.77"/><path style="stroke:#000000;stroke-width:0.088" d="M61.45,60.92L60.34,60.28"/><path style="stroke:#000000;stroke-width:0.088" d="M61.45,65.03L60.71,64.60"/><path style="stroke:#000000;stroke-width:0.088" d="M60.71,59.63L70.94,53.72L71.06,53.68L71.16,53.68L71.59,53.93L71.16,53.68"/><path style="stroke:#000000;stroke-width:0.088" d="M61.52,65.24L61.60,65.29L61.70,65.29L61.82,65.24L72.05,59.33L72.17,59.25L72.27,59.13L72.35,58.98L72.41,58.83L72.43,58.69L72.43,54.58L72.41,54.46L72.35,54.37L72.27,54.32L72.17,54.32L72.05,54.37L61.82,60.28"/><path style="stroke:#000000;stroke-width:0.088" d="M61.96,64.37L61.88,64.34L61.84,64.29L61.82,64.27L61.80,64.16L61.80,64.14L61.81,64.04L61.86,63.90L61.93,63.78L62.02,63.67L62.05,63.65L62.12,63.59L62.22,63.55L62.31,63.56L62.38,63.61L62.42,63.70L62.43,63.82L62.40,63.95L62.34,64.08L62.26,64.20L62.16,64.29L62.06,64.35L61.96,64.37"/><path style="stroke:#000000;stroke-width:0.088" d="M62.05,63.65L62.03,63.73L61.97,63.87L61.89,63.99L61.81,64.06"/><path style="stroke:#000000;stroke-width:0.088" d="M61.88,61.11L61.86,61.16L61.81,61.30L61.80,61.40L61.80,61.42L61.82,61.53L61.88,61.60L61.96,61.62L62.06,61.61L62.16,61.55L62.26,61.46L62.34,61.34L62.40,61.21L62.43,61.07L62.42,60.96L62.38,60.87L62.31,60.82L62.22,60.81L62.12,60.85L62.02,60.93L61.93,61.04L61.88,61.11"/><path style="stroke:#000000;stroke-width:0.088" d="M62.05,60.91L62.03,60.99L61.97,61.13L61.89,61.24L61.81,61.32"/><path style="stroke:#000000;stroke-width:0.088" d="M62.93,64.39L62.93,63.87L70.94,59.25L70.94,59.76L62.93,64.39"/><path style="stroke:#000000;stroke-width:0.088" d="M63.09,63.52L63.22,63.50L63.36,63.43L63.50,63.30L63.61,63.14L63.64,63.08L63.69,62.96L63.73,62.78L63.72,62.62L63.66,62.50L63.57,62.44L63.45,62.43L63.31,62.48L63.17,62.58L63.05,62.73L62.95,62.90L62.89,63.08L62.88,63.22L62.88,63.25L62.90,63.37L62.91,63.39L62.98,63.48L63.09,63.52"/><path style="stroke:#000000;stroke-width:0.088" d="M70.94,59.76L70.72,59.63L62.93,64.13"/><path style="stroke:#000000;stroke-width:0.088" d="M63.61,62.15L63.50,62.11L63.43,62.02L63.41,61.94L63.40,61.88L63.40,61.85L63.41,61.71L63.47,61.53L63.57,61.36L63.69,61.21L63.72,61.19L63.83,61.11L63.97,61.06L64.09,61.07L64.18,61.13L64.24,61.25L64.25,61.41L64.21,61.59L64.13,61.77L64.02,61.93L63.88,62.06L63.74,62.13L63.61,62.15"/><path style="stroke:#000000;stroke-width:0.088" d="M63.50,61.16L63.36,61.28L63.22,61.36L63.09,61.38L62.98,61.34L62.91,61.25L62.88,61.11L62.88,61.08L62.89,60.94L62.95,60.76L63.05,60.59L63.17,60.44L63.31,60.34L63.45,60.29L63.57,60.30L63.64,60.34L63.66,60.36L63.72,60.48L63.73,60.64L63.69,60.82L63.61,61.00L63.50,61.16"/><path style="stroke:#000000;stroke-width:0.088" d="M70.94,55.74L62.93,60.36L62.93,59.85L70.94,55.22L70.94,55.74L70.72,55.61L62.93,60.10"/><path style="stroke:#000000;stroke-width:0.088" d="M64.13,62.92L64.26,62.90L64.40,62.83L64.54,62.70L64.65,62.54L64.73,62.36L64.76,62.18L64.76,62.02L64.70,61.90L64.61,61.84L64.49,61.83L64.43,61.85L64.35,61.88L64.21,61.98L64.09,62.13L63.99,62.30L63.93,62.48L63.91,62.62L63.92,62.65L63.95,62.79L64.02,62.88L64.13,62.92"/><path style="stroke:#000000;stroke-width:0.088" d="M63.93,60.57L63.95,60.65L64.02,60.74L64.13,60.78L64.26,60.76L64.40,60.69L64.54,60.56L64.65,60.40L64.68,60.32L64.73,60.22L64.76,60.04L64.76,59.88L64.70,59.76L64.61,59.70L64.49,59.69L64.35,59.74L64.21,59.84L64.09,59.99L63.99,60.16L63.93,60.34L63.91,60.48L63.92,60.51L63.93,60.57"/><path style="stroke:#000000;stroke-width:0.088" d="M64.95,62.02L64.95,62.05L64.99,62.19L65.06,62.29L65.17,62.32L65.23,62.32L65.30,62.30L65.44,62.23L65.57,62.10L65.69,61.94L65.77,61.76L65.80,61.58L65.79,61.42L65.74,61.31L65.65,61.24L65.53,61.23L65.39,61.28L65.25,61.38L65.12,61.53L65.03,61.70L64.97,61.88L64.95,62.02"/><path style="stroke:#000000;stroke-width:0.088" d="M64.86,61.49L64.92,61.46L65.05,61.33L65.17,61.17L65.25,60.99L65.28,60.81L65.28,60.65L65.22,60.53L65.13,60.47L65.01,60.46L64.87,60.51L64.73,60.61L64.61,60.76L64.51,60.93L64.45,61.11L64.43,61.25L64.43,61.28L64.47,61.42L64.54,61.51L64.65,61.55L64.78,61.53L64.86,61.49"/><path style="stroke:#000000;stroke-width:0.088" d="M65.03,59.56L65.12,59.39L65.23,59.27L65.25,59.24L65.39,59.14L65.53,59.09L65.65,59.10L65.74,59.16L65.79,59.28L65.80,59.44L65.77,59.62L65.69,59.80L65.57,59.96L65.44,60.09L65.30,60.16L65.17,60.18L65.06,60.14L64.99,60.05L64.95,59.91L64.95,59.88L64.97,59.74L65.03,59.56"/><path style="stroke:#000000;stroke-width:0.088" d="M66.02,61.23L66.01,61.28L65.99,61.42L65.99,61.45L66.02,61.59L66.10,61.69L66.21,61.73L66.34,61.70L66.48,61.63L66.61,61.50L66.73,61.34L66.80,61.16L66.84,60.98L66.83,60.82L66.78,60.71L66.69,60.64L66.56,60.63L66.43,60.68L66.29,60.78L66.16,60.93L66.07,61.10L66.02,61.23"/><path style="stroke:#000000;stroke-width:0.088" d="M65.90,60.89L65.96,60.86L66.09,60.73L66.21,60.57L66.29,60.39L66.32,60.21L66.31,60.05L66.26,59.94L66.17,59.87L66.05,59.86L66.02,59.87L65.91,59.91L65.77,60.01L65.64,60.16L65.55,60.32L65.55,60.33L65.49,60.51L65.47,60.65L65.47,60.68L65.50,60.82L65.58,60.92L65.69,60.95L65.82,60.93L65.90,60.89"/><path style="stroke:#000000;stroke-width:0.088" d="M65.99,59.31L65.99,59.28L66.01,59.14L66.07,58.96L66.16,58.79L66.29,58.64L66.43,58.54L66.56,58.49L66.69,58.50L66.78,58.56L66.83,58.68L66.84,58.73L66.84,58.84L66.80,59.02L66.73,59.20L66.61,59.36L66.48,59.49L66.34,59.56L66.21,59.58L66.10,59.54L66.02,59.45L65.99,59.31"/><path style="stroke:#000000;stroke-width:0.088" d="M66.81,60.34L66.86,60.33L67.00,60.26L67.13,60.13L67.24,59.97L67.32,59.79L67.36,59.61L67.35,59.45L67.30,59.34L67.21,59.27L67.08,59.26L66.95,59.31L66.94,59.31L66.81,59.41L66.68,59.56L66.58,59.73L66.53,59.91L66.51,60.05L66.51,60.08L66.54,60.22L66.62,60.32L66.73,60.35L66.81,60.34"/><path style="stroke:#000000;stroke-width:0.088" d="M67.20,61.11L67.24,61.13L67.38,61.11L67.52,61.03L67.65,60.90L67.76,60.74L67.84,60.56L67.88,60.38L67.87,60.23L67.82,60.11L67.72,60.04L67.60,60.03L67.46,60.08L67.33,60.18L67.20,60.33L67.10,60.50L67.04,60.68L67.03,60.82L67.03,60.85L67.06,60.99L67.14,61.09L67.20,61.11"/><path style="stroke:#000000;stroke-width:0.088" d="M67.58,59.62L67.55,59.48L67.55,59.45L67.56,59.31L67.62,59.13L67.72,58.96L67.85,58.81L67.98,58.71L68.12,58.66L68.24,58.67L68.34,58.74L68.39,58.85L68.40,59.01L68.36,59.19L68.28,59.37L68.17,59.53L68.04,59.66L67.90,59.74L67.76,59.76L67.66,59.72L67.58,59.62"/><path style="stroke:#000000;stroke-width:0.088" d="M67.03,58.73L67.06,58.85L67.14,58.95L67.24,58.98L67.38,58.96L67.52,58.89L67.65,58.76L67.76,58.60L67.84,58.42L67.88,58.24L67.87,58.08L67.82,57.97L67.72,57.90L67.60,57.89L67.46,57.94L67.33,58.04L67.20,58.19L67.10,58.36L67.04,58.54L67.03,58.68L67.03,58.71L67.03,58.73"/><path style="stroke:#000000;stroke-width:0.088" d="M68.10,60.39L68.17,60.49L68.28,60.53L68.41,60.51L68.42,60.51L68.56,60.43L68.69,60.30L68.80,60.14L68.88,59.96L68.92,59.78L68.91,59.63L68.86,59.51L68.76,59.44L68.64,59.43L68.50,59.48L68.36,59.58L68.24,59.73L68.14,59.90L68.08,60.08L68.07,60.22L68.07,60.25L68.10,60.39"/><path style="stroke:#000000;stroke-width:0.088" d="M68.36,58.37L68.28,58.39L68.17,58.35L68.10,58.25L68.07,58.11L68.07,58.08L68.08,57.94L68.14,57.76L68.24,57.59L68.36,57.44L68.50,57.34L68.64,57.29L68.76,57.30L68.86,57.37L68.91,57.48L68.92,57.64L68.88,57.82L68.80,58.00L68.69,58.16L68.56,58.29L68.42,58.36L68.36,58.37"/><path style="stroke:#000000;stroke-width:0.088" d="M69.20,59.88L69.14,59.79L69.11,59.65L69.11,59.62L69.12,59.48L69.18,59.30L69.28,59.13L69.40,58.98L69.54,58.88L69.68,58.83L69.80,58.84L69.89,58.91L69.95,59.03L69.96,59.18L69.92,59.36L69.84,59.54L69.73,59.70L69.59,59.83L69.45,59.91L69.32,59.93L69.21,59.89L69.20,59.88"/><path style="stroke:#000000;stroke-width:0.088" d="M68.80,59.16L68.93,59.14L69.07,59.06L69.21,58.93L69.32,58.77L69.34,58.73L69.40,58.59L69.44,58.41L69.43,58.26L69.38,58.14L69.28,58.07L69.16,58.06L69.02,58.11L68.88,58.21L68.76,58.36L68.66,58.53L68.60,58.71L68.59,58.85L68.59,58.88L68.62,59.02L68.69,59.12L68.80,59.16"/><path style="stroke:#000000;stroke-width:0.088" d="M69.18,57.16L69.12,57.34L69.11,57.48L69.11,57.51L69.14,57.65L69.21,57.75L69.32,57.79L69.45,57.77L69.59,57.69L69.73,57.56L69.84,57.40L69.92,57.22L69.96,57.04L69.95,56.89L69.89,56.77L69.80,56.70L69.68,56.69L69.54,56.74L69.40,56.84L69.28,56.99L69.18,57.16"/><path style="stroke:#000000;stroke-width:0.088" d="M69.64,58.11L69.63,58.25L69.63,58.28L69.66,58.42L69.73,58.52L69.84,58.56L69.97,58.54L70.11,58.46L70.25,58.33L70.36,58.17L70.44,57.99L70.48,57.81L70.47,57.66L70.41,57.54L70.32,57.47L70.20,57.46L70.06,57.51L69.92,57.61L69.80,57.76L69.70,57.93L69.64,58.11"/><path style="stroke:#000000;stroke-width:0.088" d="M70.72,59.63L70.72,59.38"/><path style="stroke:#000000;stroke-width:0.088" d="M70.80,59.06L70.77,59.10L70.63,59.23L70.49,59.31L70.36,59.33L70.25,59.29L70.18,59.19L70.15,59.05L70.14,59.02L70.16,58.88L70.22,58.70L70.32,58.53L70.44,58.38L70.58,58.28L70.72,58.23L70.84,58.24L70.93,58.31L70.99,58.43L71.00,58.58L70.96,58.76L70.88,58.94L70.80,59.06"/><path style="stroke:#000000;stroke-width:0.088" d="M70.53,57.14L70.49,57.17L70.36,57.19L70.25,57.15L70.18,57.05L70.15,56.91L70.14,56.88L70.16,56.74L70.22,56.56L70.32,56.39L70.44,56.24L70.58,56.14L70.72,56.09L70.84,56.10L70.93,56.17L70.99,56.29L71.00,56.44L70.96,56.62L70.88,56.80L70.77,56.96L70.63,57.09L70.53,57.14"/><path style="stroke:#000000;stroke-width:0.088" d="M70.72,55.61L70.72,55.35"/><path style="stroke:#000000;stroke-width:0.088" d="M71.59,58.79L71.52,58.77L71.47,58.70L71.44,58.60L71.44,58.57L71.45,58.47L71.50,58.34L71.57,58.21L71.66,58.10L71.76,58.02L71.87,57.99L71.96,57.99L72.03,58.05L72.06,58.13L72.07,58.25L72.04,58.38L71.99,58.51L71.90,58.63L71.80,58.73L71.70,58.78L71.60,58.80L71.59,58.79"/><path style="stroke:#000000;stroke-width:0.088" d="M71.45,58.49L71.53,58.42L71.61,58.30L71.67,58.17L71.69,58.08"/><path style="stroke:#000000;stroke-width:0.088" d="M71.50,55.60L71.57,55.47L71.59,55.44L71.66,55.36L71.76,55.28L71.87,55.25L71.96,55.25L72.03,55.30L72.06,55.39L72.07,55.51L72.04,55.64L71.99,55.77L71.90,55.89L71.80,55.99L71.70,56.04L71.60,56.06L71.52,56.03L71.47,55.96L71.44,55.86L71.44,55.83L71.45,55.73L71.50,55.60"/><path style="stroke:#000000;stroke-width:0.088" d="M71.45,55.75L71.53,55.68L71.61,55.56L71.67,55.43L71.69,55.34"/><path style="stroke:#000000;stroke-width:0.088" d="M72.05,54.37L70.94,53.72"/><path style="stroke:#000000;stroke-width:0.088" d="M71.59,53.93L72.27,54.32"/><path style="stroke:#000000;stroke-width:0.088" d="M72.35,54.37L71.66,53.97"/><path style="stroke:#000000;stroke-width:0.088" d="M100.10,84.89L100.07,84.87L100.06,84.84L100.06,111.39L100.07,111.42L100.10,111.44L100.10,84.89L100.43,85.09L100.45,85.10L100.45,85.11L100.43,85.13L100.18,85.28L100.25,85.32L100.25,111.87L100.18,111.83L100.18,85.28"/><path style="stroke:#000000;stroke-width:0.088" d="M100.10,111.44L100.18,111.49"/><path style="stroke:#000000;stroke-width:0.088" d="M100.06,84.84L100.06,84.82L100.07,84.79L100.10,84.77L101.88,83.74L101.92,83.72L101.97,83.71L102.02,83.71L102.06,83.72L102.10,83.74L102.44,83.93L102.47,83.94L102.48,83.94L102.51,83.93L102.77,83.78L102.85,83.82L102.59,83.97L102.55,83.99L102.50,84.00L102.45,84.00L102.40,83.99L102.36,83.97L102.03,83.78L102.03,110.33L102.36,110.52L102.40,110.54L102.45,110.55L102.50,110.55L102.55,110.54L102.59,110.52L102.59,83.97"/><path style="stroke:#000000;stroke-width:0.088" d="M102.03,83.78L102.00,83.77L101.97,83.77L101.96,83.78L100.18,84.81L100.17,84.82L100.16,84.83L100.18,84.85L100.18,84.81"/><path style="stroke:#000000;stroke-width:0.088" d="M100.18,84.85L100.51,85.04L100.54,85.07L100.55,85.09L100.55,85.12L100.54,85.15L100.51,85.17L100.51,111.72L100.25,111.87"/><path style="stroke:#000000;stroke-width:0.088" d="M100.51,111.72L100.54,111.70L100.55,111.67L100.55,111.11L100.55,111.67"/><path style="stroke:#000000;stroke-width:0.088" d="M100.55,111.11L100.55,85.12"/><path style="stroke:#000000;stroke-width:0.088" d="M100.55,111.14L101.96,110.33L101.97,110.32L102.00,110.32L102.03,110.33"/><path style="stroke:#000000;stroke-width:0.088" d="M100.90,110.01L100.93,110.01L100.99,109.99L101.05,109.94L101.10,109.88L101.14,109.81L101.17,109.74L101.18,109.67L101.18,107.95L101.25,108.00L101.25,109.71L101.24,109.78L101.22,109.85L101.17,109.93L101.12,109.99L101.07,110.03L101.01,110.05L100.96,110.05L100.92,110.03L100.89,109.98L100.88,109.92L100.88,108.21L100.89,108.14L100.92,108.06L100.96,107.99L101.01,107.93L101.07,107.89L101.12,107.87L101.17,107.87L101.22,107.89L101.24,107.94L101.25,108.00"/><path style="stroke:#000000;stroke-width:0.088" d="M101.25,106.45L101.25,104.74L101.24,104.68L101.22,104.64L101.17,104.61L101.12,104.61L101.07,104.63L101.01,104.68L100.96,104.74L100.92,104.81L100.89,104.88L100.88,104.96L100.88,106.67L100.89,106.73L100.92,106.77L100.96,106.80L101.01,106.80L101.07,106.78L101.12,106.73L101.17,106.67L101.22,106.60L101.24,106.53L101.25,106.45L101.18,106.41L101.17,106.48L101.14,106.56L101.10,106.63L101.05,106.69L100.99,106.73L100.93,106.76L100.90,106.75"/><path style="stroke:#000000;stroke-width:0.088" d="M100.89,103.47L100.88,103.41L100.88,103.17L100.88,101.70L100.89,101.63L100.92,101.55L100.96,101.48L101.01,101.42L101.07,101.38L101.12,101.36L101.17,101.36L101.22,101.38L101.24,101.43L101.25,101.49L101.25,103.20L101.24,103.27L101.22,103.35L101.17,103.42L101.12,103.48L101.07,103.52L101.01,103.54L100.96,103.54L100.92,103.52L100.89,103.47"/><path style="stroke:#000000;stroke-width:0.088" d="M100.90,103.50L100.93,103.50L100.99,103.48L101.05,103.43L101.10,103.37L101.14,103.30L101.17,103.23L101.18,103.16L101.25,103.20"/><path style="stroke:#000000;stroke-width:0.088" d="M101.25,99.95L101.25,98.23L101.24,98.17L101.22,98.13L101.17,98.10L101.12,98.10L101.07,98.13L101.01,98.17L100.96,98.23L100.92,98.30L100.89,98.38L100.88,98.45L100.88,100.16L100.89,100.22L100.92,100.26L100.96,100.29L101.01,100.29L101.07,100.27L101.12,100.22L101.17,100.16L101.22,100.09L101.24,100.02L101.25,99.95L101.18,99.90L101.17,99.97L101.14,100.05L101.10,100.12L101.05,100.18L100.99,100.22L100.93,100.25L100.90,100.25"/><path style="stroke:#000000;stroke-width:0.088" d="M101.25,96.69L101.25,94.98L101.24,94.92L101.22,94.87L101.17,94.85L101.12,94.85L101.07,94.87L101.01,94.91L100.96,94.97L100.92,95.05L100.89,95.12L100.88,95.19L100.88,96.90L100.89,96.97L100.92,97.01L100.96,97.03L101.01,97.03L101.07,97.01L101.12,96.97L101.17,96.91L101.22,96.84L101.24,96.76L101.25,96.69L101.18,96.65L101.17,96.72L101.14,96.79L101.10,96.87L101.05,96.93L100.99,96.97L100.93,96.99L100.90,96.99"/><path style="stroke:#000000;stroke-width:0.088" d="M100.90,93.74L100.93,93.74L100.99,93.71L101.05,93.67L101.10,93.61L101.14,93.54L101.17,93.46L101.18,93.39L101.18,91.68L101.17,91.62L101.15,91.59"/><path style="stroke:#000000;stroke-width:0.088" d="M101.18,91.68L101.25,91.72L101.24,91.66L101.22,91.62L101.17,91.59L101.12,91.59L101.07,91.62L101.01,91.66L100.96,91.72L100.92,91.79L100.89,91.87L100.88,91.94L100.88,93.65L100.89,93.71L100.92,93.76L100.96,93.78L101.01,93.78L101.02,93.77L101.07,93.76L101.12,93.71L101.17,93.65L101.22,93.58L101.24,93.51L101.25,93.44L101.18,93.39"/><path style="stroke:#000000;stroke-width:0.088" d="M100.92,93.76L100.92,93.76"/><path style="stroke:#000000;stroke-width:0.088" d="M101.15,88.34L101.17,88.37L101.18,88.43L101.18,90.14L101.17,90.21L101.14,90.29L101.10,90.36L101.05,90.42L100.99,90.46L100.93,90.48L100.90,90.48"/><path style="stroke:#000000;stroke-width:0.088" d="M101.25,90.18L101.25,88.47L101.24,88.41L101.22,88.36L101.17,88.34L101.12,88.34L101.07,88.36L101.01,88.41L100.96,88.47L100.92,88.54L100.89,88.61L100.88,88.68L100.88,90.40L100.89,90.46L100.92,90.50L100.96,90.53L101.01,90.53L101.07,90.50L101.12,90.46L101.17,90.40L101.22,90.33L101.24,90.25L101.25,90.18L101.18,90.14"/><path style="stroke:#000000;stroke-width:0.088" d="M101.25,86.93L101.25,85.21L101.24,85.15L101.22,85.11L101.17,85.09L101.12,85.08L101.07,85.11L101.01,85.15L100.96,85.21L100.92,85.28L100.89,85.36L100.88,85.43L100.88,87.14L100.89,87.20L100.92,87.25L100.96,87.27L101.01,87.27L101.07,87.25L101.12,87.21L101.17,87.14L101.22,87.07L101.24,87.00L101.25,86.93L101.18,86.88L101.17,86.96L101.14,87.03L101.10,87.10L101.05,87.16L100.99,87.21L100.93,87.23L100.90,87.23"/><path style="stroke:#000000;stroke-width:0.088" d="M100.55,85.09L100.55,85.71"/><path style="stroke:#000000;stroke-width:0.088" d="M100.51,85.17L100.25,85.32"/><path style="stroke:#000000;stroke-width:0.088" d="M100.43,85.09L100.43,85.13"/><path style="stroke:#000000;stroke-width:0.088" d="M101.18,109.67L101.25,109.71"/><path style="stroke:#000000;stroke-width:0.088" d="M101.18,107.95L101.17,107.89L101.15,107.87"/><path style="stroke:#000000;stroke-width:0.088" d="M101.18,106.41L101.18,104.70L101.25,104.74"/><path style="stroke:#000000;stroke-width:0.088" d="M101.18,104.70L101.17,104.64L101.15,104.61"/><path style="stroke:#000000;stroke-width:0.088" d="M101.18,103.16L101.18,101.44L101.25,101.49"/><path style="stroke:#000000;stroke-width:0.088" d="M101.15,101.36L101.17,101.38L101.18,101.44"/><path style="stroke:#000000;stroke-width:0.088" d="M101.18,99.90L101.18,98.19L101.25,98.23"/><path style="stroke:#000000;stroke-width:0.088" d="M101.18,98.19L101.17,98.13L101.15,98.10"/><path style="stroke:#000000;stroke-width:0.088" d="M101.18,96.65L101.18,94.94L101.17,94.87L101.15,94.85"/><path style="stroke:#000000;stroke-width:0.088" d="M101.18,94.94L101.25,94.98"/><path style="stroke:#000000;stroke-width:0.088" d="M101.21,94.87L101.22,94.87L101.21,94.87"/><path style="stroke:#000000;stroke-width:0.088" d="M101.25,93.44L101.25,91.72"/><path style="stroke:#000000;stroke-width:0.088" d="M101.22,91.62L101.18,91.60"/><path style="stroke:#000000;stroke-width:0.088" d="M101.25,88.47L101.18,88.43"/><path style="stroke:#000000;stroke-width:0.088" d="M101.18,86.88L101.18,85.17L101.17,85.11L101.15,85.09"/><path style="stroke:#000000;stroke-width:0.088" d="M101.25,85.21L101.18,85.17"/><path style="stroke:#000000;stroke-width:0.088" d="M102.59,110.52L102.85,110.37L102.85,83.82"/><path style="stroke:#000000;stroke-width:0.088" d="M102.36,110.52L102.36,83.97"/><path style="stroke:#000000;stroke-width:0.088" d="M101.96,110.33L101.96,83.78"/><path style="stroke:#000000;stroke-width:0.088" d="M101.33,53.21L101.39,53.12L101.40,53.00L101.85,52.74L101.83,52.86L101.78,52.95L101.33,53.21L101.25,53.25L101.15,53.26L101.03,53.21L94.95,49.70L94.84,49.61L94.73,49.49L94.65,49.35L94.60,49.20L94.58,49.06L94.58,31.07L94.60,30.95L94.65,30.86L94.73,30.81L94.84,30.81L94.95,30.86L95.40,30.60L95.28,30.56L95.18,30.56L95.15,30.57"/><path style="stroke:#000000;stroke-width:0.088" d="M95.40,49.21L95.38,49.26L95.38,49.34L95.40,49.42L95.44,49.51L95.50,49.58L95.56,49.64L95.63,49.68L95.69,49.68L95.74,49.66L95.77,49.61L95.79,49.54L95.78,49.46L95.74,49.37L95.70,49.29L95.64,49.22L95.58,49.18L95.50,49.16L95.45,49.17L95.40,49.21"/><path style="stroke:#000000;stroke-width:0.088" d="M94.73,32.91L94.88,32.83L94.93,32.50L95.07,32.26L95.14,32.22L94.92,32.34L94.80,32.54L94.78,32.58L94.73,32.91L94.73,47.39L94.78,47.77L94.92,48.18L95.14,48.56L95.42,48.89L95.73,49.12L100.25,51.73L100.40,51.65L95.88,49.03L95.73,49.12"/><path style="stroke:#000000;stroke-width:0.088" d="M94.73,47.39L94.88,47.30L94.93,47.69L95.07,48.09L95.29,48.47L95.57,48.80L95.88,49.03"/><path style="stroke:#000000;stroke-width:0.088" d="M95.88,32.55L100.40,35.16L100.25,35.25L100.48,35.42L100.69,35.66L100.85,35.95L100.96,36.25L101.00,36.53L101.00,51.00L100.96,51.25L100.85,51.43L100.69,51.52L100.48,51.52L100.25,51.43L95.73,48.82L95.50,48.65L95.29,48.41L95.13,48.12L95.02,47.82L94.99,47.54L94.99,33.06L95.02,32.82L95.13,32.64L95.29,32.55L95.50,32.54L95.73,32.63L95.88,32.55L95.65,32.46L95.44,32.46L95.30,32.54"/><path style="stroke:#000000;stroke-width:0.088" d="M95.32,46.66L95.10,46.79L95.14,47.07L95.24,47.37L95.41,47.66L95.61,47.90L95.84,48.07L96.06,47.94L95.83,47.77L95.63,47.53L95.46,47.24L95.36,46.94L95.32,46.66L95.32,33.81L95.36,33.57L95.44,33.42"/><path style="stroke:#000000;stroke-width:0.088" d="M94.88,47.30L94.88,32.83"/><path style="stroke:#000000;stroke-width:0.088" d="M96.06,47.94L100.37,50.43L100.14,50.56L100.37,50.65L100.58,50.64L100.74,50.55L100.85,50.37L100.88,50.13L100.88,37.28L100.85,36.99L100.74,36.70L100.58,36.41L100.37,36.17L100.14,36.00L95.84,33.51L95.61,33.42L95.41,33.42L95.24,33.52L95.14,33.70L95.10,33.94L95.10,46.79"/><path style="stroke:#000000;stroke-width:0.088" d="M95.32,33.81L95.10,33.94"/><path style="stroke:#000000;stroke-width:0.088" d="M95.29,32.55L95.30,32.54"/><path style="stroke:#000000;stroke-width:0.088" d="M95.44,31.95L95.40,31.87L95.38,31.78L95.38,31.70L95.40,31.64L95.45,31.61L95.50,31.60L95.58,31.63L95.64,31.67L95.70,31.74L95.74,31.82L95.78,31.90L95.79,31.99L95.77,32.06L95.74,32.10L95.69,32.13L95.63,32.12L95.56,32.09L95.50,32.03L95.44,31.95"/><path style="stroke:#000000;stroke-width:0.088" d="M95.14,32.22L95.42,32.21L95.73,32.33L100.25,34.95L100.56,35.18L100.84,35.51L101.06,35.89L101.21,36.30L101.26,36.68L101.26,51.15L101.21,51.48L101.06,51.72L100.84,51.85L100.56,51.85L100.25,51.73"/><path style="stroke:#000000;stroke-width:0.088" d="M95.07,32.26L94.92,32.34"/><path style="stroke:#000000;stroke-width:0.088" d="M95.40,30.60L101.48,34.11L101.03,34.37L94.95,30.86"/><path style="stroke:#000000;stroke-width:0.088" d="M94.73,30.81L95.18,30.56"/><path style="stroke:#000000;stroke-width:0.088" d="M95.84,48.07L100.14,50.56"/><path style="stroke:#000000;stroke-width:0.088" d="M97.10,47.37L97.09,47.37L96.84,47.35L96.57,47.21L96.31,46.98L96.09,46.67L95.92,46.33L95.84,45.98L95.85,45.67L95.94,45.43L95.97,45.40"/><path style="stroke:#000000;stroke-width:0.088" d="M96.09,47.11L95.86,46.80L95.70,46.46L95.62,46.11L95.63,45.80L95.72,45.56L95.89,45.42L96.12,45.38L96.38,45.47L96.43,45.49L96.65,45.65L96.90,45.93L97.09,46.26L97.22,46.61L97.26,46.94L97.21,47.22L97.09,47.39L97.07,47.41L96.87,47.50L96.62,47.48L96.35,47.34L96.09,47.11"/><path style="stroke:#000000;stroke-width:0.088" d="M97.10,41.80L97.09,41.81L96.84,41.78L96.57,41.65L96.31,41.41L96.09,41.11L95.92,40.76L95.84,40.42L95.85,40.11L95.94,39.87L95.97,39.84"/><path style="stroke:#000000;stroke-width:0.088" d="M96.09,41.54L95.86,41.23L95.70,40.89L95.62,40.54L95.63,40.23L95.72,39.99L95.89,39.85L96.12,39.82L96.38,39.90L96.43,39.93L96.65,40.09L96.90,40.36L97.09,40.69L97.22,41.04L97.26,41.37L97.21,41.65L97.07,41.85L96.87,41.94L96.62,41.91L96.35,41.77L96.09,41.54"/><path style="stroke:#000000;stroke-width:0.088" d="M97.10,36.24L97.09,36.24L96.84,36.22L96.57,36.08L96.31,35.84L96.09,35.54L95.92,35.19L95.84,34.85L95.85,34.54L95.94,34.30L95.97,34.27"/><path style="stroke:#000000;stroke-width:0.088" d="M96.25,36.12L96.09,35.97L95.86,35.67L95.70,35.32L95.62,34.98L95.63,34.67L95.72,34.43L95.89,34.28L96.12,34.25L96.38,34.33L96.43,34.36L96.65,34.52L96.90,34.79L97.09,35.12L97.22,35.47L97.26,35.81L97.21,36.08L97.07,36.28L96.87,36.37L96.62,36.34L96.35,36.21L96.25,36.12"/><path style="stroke:#000000;stroke-width:0.088" d="M95.73,32.63L100.25,35.25"/><path style="stroke:#000000;stroke-width:0.088" d="M98.13,47.26L98.16,47.37L98.23,47.50L98.32,47.61L98.36,47.65"/><path style="stroke:#000000;stroke-width:0.088" d="M98.35,47.66L98.37,47.62L98.38,47.56L98.37,47.50L98.34,47.43L98.30,47.36L98.25,47.31L98.20,47.27L98.14,47.26L98.10,47.27L98.07,47.29L98.07,47.30L98.05,47.35L98.05,47.41L98.07,47.48L98.10,47.55L98.15,47.61L98.21,47.66L98.26,47.68L98.31,47.69L98.35,47.66L98.34,47.67L98.29,47.67L98.24,47.65L98.18,47.60L98.13,47.54L98.10,47.47L98.08,47.40L98.08,47.33L98.10,47.28L98.11,47.26"/><path style="stroke:#000000;stroke-width:0.088" d="M99.43,48.87L99.42,48.86L99.26,48.51L99.18,48.17L99.19,47.86L99.28,47.62L99.45,47.47L99.68,47.44L99.94,47.52L99.99,47.55L100.21,47.71L100.46,47.98L100.65,48.31L100.78,48.66L100.82,48.99L100.77,49.27L100.63,49.47L100.43,49.56L100.18,49.53L99.91,49.40L99.65,49.16L99.43,48.87"/><path style="stroke:#000000;stroke-width:0.088" d="M99.53,47.46L99.50,47.49L99.41,47.73L99.40,48.04L99.48,48.38L99.65,48.73L99.87,49.03L100.13,49.27L100.40,49.40L100.65,49.43L100.66,49.42"/><path style="stroke:#000000;stroke-width:0.088" d="M99.22,42.86L99.24,42.95L99.41,43.30L99.64,43.61L99.91,43.85L100.18,43.99L100.44,44.02L100.65,43.93L100.79,43.73L100.84,43.44L100.83,43.35L100.80,43.10L100.67,42.74L100.47,42.40L100.22,42.12L99.99,41.96L99.94,41.93L99.67,41.84L99.44,41.88L99.26,42.03L99.16,42.27L99.16,42.59L99.22,42.86"/><path style="stroke:#000000;stroke-width:0.088" d="M99.52,41.87L99.48,41.90L99.39,42.14L99.38,42.46L99.47,42.82L99.63,43.17L99.86,43.48L100.13,43.72L100.41,43.87L100.66,43.89L100.68,43.88"/><path style="stroke:#000000;stroke-width:0.088" d="M99.43,37.73L99.42,37.72L99.26,37.38L99.18,37.03L99.19,36.72L99.28,36.48L99.45,36.34L99.68,36.31L99.94,36.39L99.99,36.42L100.21,36.58L100.46,36.85L100.65,37.18L100.78,37.53L100.82,37.86L100.77,38.14L100.63,38.33L100.43,38.42L100.18,38.40L99.91,38.26L99.65,38.03L99.43,37.73"/><path style="stroke:#000000;stroke-width:0.088" d="M99.53,36.33L99.50,36.35L99.41,36.59L99.40,36.90L99.48,37.25L99.65,37.59L99.87,37.90L100.13,38.13L100.40,38.27L100.65,38.30L100.66,38.29"/><path style="stroke:#000000;stroke-width:0.088" d="M100.22,52.21L100.20,52.12L100.20,52.04L100.23,51.98L100.27,51.95L100.32,51.94L100.39,51.96L100.46,52.01L100.52,52.08L100.57,52.16L100.60,52.24L100.61,52.33L100.59,52.40L100.56,52.44L100.51,52.47L100.45,52.46L100.38,52.43L100.32,52.37L100.26,52.29L100.22,52.21"/><path style="stroke:#000000;stroke-width:0.088" d="M100.22,34.65L100.20,34.56L100.20,34.49L100.23,34.43L100.27,34.39L100.32,34.38L100.39,34.40L100.46,34.45L100.52,34.52L100.57,34.60L100.60,34.69L100.61,34.77L100.59,34.84L100.56,34.89L100.51,34.91L100.45,34.90L100.38,34.87L100.32,34.81L100.26,34.74L100.22,34.65"/><path style="stroke:#000000;stroke-width:0.088" d="M100.40,51.65L100.71,51.77L100.99,51.77L101.02,51.75"/><path style="stroke:#000000;stroke-width:0.088" d="M100.84,51.85L100.99,51.77"/><path style="stroke:#000000;stroke-width:0.088" d="M100.92,51.39L101.00,51.34L100.85,51.43"/><path style="stroke:#000000;stroke-width:0.088" d="M101.00,51.00L101.14,50.92L101.11,51.16L101.00,51.34"/><path style="stroke:#000000;stroke-width:0.088" d="M100.37,50.43L100.59,50.52L100.76,50.52"/><path style="stroke:#000000;stroke-width:0.088" d="M101.00,36.53L101.14,36.45L101.14,50.92"/><path style="stroke:#000000;stroke-width:0.088" d="M101.14,36.45L101.11,36.16L101.00,35.86L100.84,35.58L100.63,35.33L100.40,35.16"/><path style="stroke:#000000;stroke-width:0.088" d="M101.56,53.07L101.71,52.99"/><path style="stroke:#000000;stroke-width:0.088" d="M101.40,53.00L101.40,35.01L101.85,34.75L101.83,34.61L101.78,34.46L101.70,34.32L101.59,34.20L101.48,34.11"/><path style="stroke:#000000;stroke-width:0.088" d="M101.40,35.01L101.39,34.87L101.33,34.72L101.25,34.58L101.15,34.46L101.03,34.37"/><path style="stroke:#000000;stroke-width:0.088" d="M101.85,52.74L101.85,34.75"/><path style="stroke:#000000;stroke-width:0.088" d="M47.43,108.66L47.46,108.38L47.57,108.08L47.73,107.79L47.94,107.55L48.17,107.38L48.28,107.44L48.05,107.61L47.84,107.86L47.68,108.14L47.58,108.44L47.54,108.73L47.43,108.66L47.43,115.94L47.46,116.18L47.57,116.36L47.73,116.45L47.70,116.44"/><path style="stroke:#000000;stroke-width:0.088" d="M47.81,116.50L47.68,116.43L47.58,116.25L47.54,116.00L47.54,108.73"/><path style="stroke:#000000;stroke-width:0.088" d="M47.54,116.00L47.43,115.94"/><path style="stroke:#000000;stroke-width:0.088" d="M47.57,116.36L47.68,116.43"/><path style="stroke:#000000;stroke-width:0.088" d="M47.73,116.45L47.84,116.52L48.05,116.52L48.28,116.43L72.01,102.73L72.24,102.56L72.45,102.32L72.61,102.03L72.72,101.73L72.76,101.45L72.76,94.17L72.72,93.92L72.61,93.74L72.45,93.65L72.61,93.74"/><path style="stroke:#000000;stroke-width:0.088" d="M48.38,114.84L48.39,114.85L48.41,114.93L48.40,115.02L48.37,115.13L48.31,115.22L48.24,115.31L48.16,115.37L48.09,115.39L48.07,115.39"/><path style="stroke:#000000;stroke-width:0.088" d="M48.06,115.16L48.04,115.26L48.05,115.35L48.08,115.41L48.13,115.45L48.20,115.46L48.28,115.43L48.35,115.37L48.42,115.29L48.48,115.19L48.51,115.09L48.52,115.01L48.50,114.91L48.46,114.86L48.40,114.84L48.33,114.85L48.25,114.89L48.17,114.96L48.11,115.06L48.06,115.16"/><path style="stroke:#000000;stroke-width:0.088" d="M48.38,108.42L48.39,108.43L48.41,108.51L48.40,108.60L48.37,108.70L48.31,108.80L48.24,108.88L48.16,108.94L48.09,108.97L48.07,108.97"/><path style="stroke:#000000;stroke-width:0.088" d="M48.06,108.73L48.11,108.63L48.17,108.54L48.25,108.47L48.33,108.43L48.40,108.41L48.46,108.44L48.50,108.49L48.52,108.59L48.51,108.67L48.48,108.77L48.42,108.87L48.35,108.95L48.28,109.01L48.20,109.03L48.13,109.03L48.08,108.99L48.05,108.92L48.04,108.83L48.06,108.73"/><path style="stroke:#000000;stroke-width:0.088" d="M48.28,107.44L72.01,93.74L71.90,93.67L48.17,107.38"/><path style="stroke:#000000;stroke-width:0.088" d="M71.80,101.69L71.82,101.69L71.90,101.66L71.98,101.60L72.05,101.52L72.10,101.42L72.14,101.32L72.14,101.23L72.13,101.15L72.12,101.14"/><path style="stroke:#000000;stroke-width:0.088" d="M71.78,101.59L71.78,101.64L71.81,101.71L71.86,101.75L71.93,101.75L72.01,101.73L72.09,101.67L72.16,101.59L72.21,101.49L72.25,101.39L72.26,101.29L72.24,101.21L72.20,101.16L72.13,101.13L72.06,101.15L71.98,101.19L71.90,101.26L71.84,101.35L71.80,101.45L71.78,101.56L71.78,101.59"/><path style="stroke:#000000;stroke-width:0.088" d="M72.12,94.71L72.13,94.72L72.14,94.80L72.14,94.90L72.10,95.00L72.05,95.10L71.98,95.18L71.90,95.24L71.82,95.27L71.80,95.27"/><path style="stroke:#000000;stroke-width:0.088" d="M72.09,95.24L72.01,95.30L71.93,95.33L71.86,95.33L71.81,95.29L71.78,95.22L71.78,95.13L71.80,95.03L71.84,94.93L71.90,94.84L71.98,94.77L72.06,94.72L72.13,94.71L72.20,94.73L72.24,94.79L72.26,94.88L72.25,94.96L72.21,95.06L72.16,95.16L72.09,95.24"/><path style="stroke:#000000;stroke-width:0.088" d="M71.90,93.67L72.13,93.58L72.34,93.59L72.45,93.65L72.41,93.63"/><path style="stroke:#000000;stroke-width:0.088" d="M72.01,93.74L72.24,93.65L72.45,93.65L72.43,93.64"/><path style="stroke:#000000;stroke-width:0.088" d="M14.68,53.74L14.71,53.98L14.82,54.16L14.93,54.23L14.82,54.05L14.79,53.81L14.68,53.74L14.68,48.17L14.71,47.89L14.82,47.59L14.98,47.30L15.19,47.06L15.42,46.89L39.15,33.19L39.26,33.25L15.53,46.95L15.30,47.13L15.09,47.37L14.95,47.62L14.93,47.65L14.82,47.95L14.79,48.24L14.68,48.17"/><path style="stroke:#000000;stroke-width:0.088" d="M14.93,54.23L15.09,54.32L15.30,54.32L15.53,54.23L39.26,40.53L39.49,40.36L39.70,40.12L39.86,39.83L39.97,39.53L40.00,39.25L40.00,33.68L39.97,33.44L39.86,33.26L39.70,33.16L39.49,33.16L39.26,33.25"/><path style="stroke:#000000;stroke-width:0.088" d="M14.79,53.81L14.79,48.24"/><path style="stroke:#000000;stroke-width:0.088" d="M15.63,52.64L15.65,52.69L15.66,52.77L15.64,52.88L15.59,52.98L15.53,53.07L15.45,53.14L15.37,53.18L15.31,53.19"/><path style="stroke:#000000;stroke-width:0.088" d="M15.56,53.20L15.48,53.25L15.41,53.26L15.35,53.24L15.31,53.18L15.29,53.10L15.30,53.01L15.33,52.91L15.38,52.81L15.46,52.73L15.53,52.67L15.61,52.64L15.68,52.64L15.73,52.68L15.76,52.75L15.77,52.84L15.75,52.94L15.70,53.04L15.64,53.13L15.56,53.20"/><path style="stroke:#000000;stroke-width:0.088" d="M15.63,47.93L15.65,47.98L15.66,48.06L15.64,48.17L15.59,48.27L15.53,48.36L15.45,48.43L15.37,48.47L15.31,48.48"/><path style="stroke:#000000;stroke-width:0.088" d="M15.35,48.53L15.41,48.55L15.48,48.54L15.56,48.49L15.64,48.42L15.70,48.33L15.75,48.23L15.77,48.13L15.76,48.04L15.73,47.97L15.68,47.93L15.61,47.93L15.53,47.96L15.46,48.02L15.38,48.10L15.33,48.20L15.30,48.30L15.29,48.39L15.31,48.47L15.35,48.53"/><path style="stroke:#000000;stroke-width:0.088" d="M15.53,46.95L15.42,46.89"/><path style="stroke:#000000;stroke-width:0.088" d="M39.37,38.94L39.39,38.98L39.39,39.07L39.37,39.17L39.33,39.27L39.26,39.37L39.19,39.44L39.11,39.48L39.05,39.49"/><path style="stroke:#000000;stroke-width:0.088" d="M39.14,39.56L39.22,39.55L39.30,39.50L39.37,39.43L39.44,39.34L39.48,39.24L39.50,39.14L39.50,39.05L39.47,38.98L39.42,38.94L39.35,38.94L39.27,38.96L39.19,39.02L39.12,39.11L39.06,39.20L39.03,39.31L39.02,39.39L39.04,39.48L39.08,39.53L39.14,39.56"/><path style="stroke:#000000;stroke-width:0.088" d="M39.37,34.23L39.39,34.27L39.39,34.36L39.37,34.46L39.33,34.56L39.26,34.66L39.19,34.73L39.11,34.77L39.05,34.78"/><path style="stroke:#000000;stroke-width:0.088" d="M39.19,34.31L39.12,34.40L39.06,34.49L39.03,34.60L39.02,34.67L39.04,34.77L39.08,34.82L39.14,34.85L39.22,34.83L39.30,34.79L39.37,34.72L39.44,34.63L39.48,34.53L39.50,34.43L39.50,34.34L39.47,34.27L39.42,34.23L39.35,34.23L39.27,34.25L39.19,34.31"/><path style="stroke:#000000;stroke-width:0.088" d="M39.75,33.19L39.77,33.21L39.72,33.17"/><path style="stroke:#000000;stroke-width:0.088" d="M39.15,33.19L39.38,33.10L39.59,33.10L39.70,33.16"/><path style="stroke:#000000;stroke-width:0.088" d="M28.50,61.90L28.51,61.95L28.62,62.13L28.84,62.26L28.73,62.08L28.70,61.84L28.70,56.27L28.48,56.14L28.48,61.71L28.50,61.90"/><path style="stroke:#000000;stroke-width:0.088" d="M28.48,61.71L28.70,61.84"/><path style="stroke:#000000;stroke-width:0.088" d="M28.70,56.27L28.73,55.98L28.84,55.68L29.00,55.40L29.21,55.16L29.44,54.98L29.43,54.98L29.22,54.86L28.99,55.03L28.78,55.27L28.62,55.56L28.51,55.86L28.48,56.14"/><path style="stroke:#000000;stroke-width:0.088" d="M28.84,62.26L29.00,62.35L29.21,62.35L29.44,62.26L53.17,48.56L53.40,48.39L53.61,48.15L53.77,47.86L53.88,47.56L53.92,47.28L53.92,41.71L53.88,41.47L53.77,41.29L53.61,41.19L53.40,41.19L53.17,41.28L29.44,54.98"/><path style="stroke:#000000;stroke-width:0.088" d="M29.20,61.14L29.22,61.21L29.26,61.27L29.32,61.29L29.39,61.28L29.47,61.24L29.55,61.16L29.61,61.07L29.66,60.97L29.68,60.87L29.67,60.78L29.64,60.71L29.59,60.68L29.52,60.67L29.44,60.70L29.37,60.76L29.30,60.84L29.24,60.94L29.21,61.04L29.20,61.14L29.25,61.11L29.33,61.04L29.39,60.94L29.44,60.84L29.46,60.74L29.45,60.70"/><path style="stroke:#000000;stroke-width:0.088" d="M29.45,55.98L29.46,56.03L29.44,56.13L29.39,56.23L29.33,56.32L29.25,56.40L29.20,56.43L29.22,56.50L29.26,56.56L29.32,56.58L29.39,56.57L29.47,56.52L29.55,56.45L29.61,56.36L29.66,56.26L29.68,56.16L29.67,56.07L29.64,56.00L29.59,55.97L29.52,55.96L29.44,55.99L29.37,56.05L29.30,56.13L29.24,56.23L29.21,56.33L29.20,56.43"/><path style="stroke:#000000;stroke-width:0.088" d="M29.22,54.86L52.95,41.15L53.18,41.06L53.39,41.07L53.61,41.19L53.60,41.19"/><path style="stroke:#000000;stroke-width:0.088" d="M30.62,59.52L30.59,59.54L30.53,59.55L30.49,59.53L30.45,59.49L30.44,59.43L30.45,59.36L30.47,59.28L30.52,59.20L30.57,59.14L30.63,59.09L30.67,59.08L30.69,59.07L30.74,59.08L30.78,59.11L30.81,59.16L30.81,59.23L30.79,59.30L30.76,59.38L30.71,59.45L30.65,59.51L30.62,59.52"/><path style="stroke:#000000;stroke-width:0.088" d="M30.45,59.36L30.50,59.31L30.54,59.24L30.57,59.16L30.58,59.13"/><path style="stroke:#000000;stroke-width:0.088" d="M30.59,59.13L30.58,59.18L30.55,59.25L30.51,59.31L30.45,59.37"/><path style="stroke:#000000;stroke-width:0.088" d="M30.44,59.40L30.45,59.44L30.48,59.48L30.52,59.49L30.57,59.49L30.62,59.46L30.66,59.42L30.71,59.35L30.74,59.29L30.75,59.22L30.75,59.16L30.73,59.12L30.69,59.10L30.65,59.09L30.61,59.11"/><path style="stroke:#000000;stroke-width:0.088" d="M30.45,56.62L30.50,56.57L30.54,56.50L30.57,56.42L30.58,56.39"/><path style="stroke:#000000;stroke-width:0.088" d="M30.59,56.80L30.53,56.81L30.49,56.79L30.45,56.75L30.44,56.69L30.44,56.65L30.45,56.62L30.47,56.54L30.52,56.46L30.57,56.40L30.63,56.35L30.69,56.33L30.74,56.34L30.78,56.37L30.81,56.42L30.81,56.49L30.79,56.56L30.76,56.64L30.71,56.71L30.65,56.77L30.59,56.80"/><path style="stroke:#000000;stroke-width:0.088" d="M30.59,56.38L30.58,56.44L30.55,56.51L30.51,56.57L30.45,56.63"/><path style="stroke:#000000;stroke-width:0.088" d="M30.61,56.37L30.65,56.35L30.69,56.36L30.73,56.38L30.75,56.42L30.75,56.48L30.74,56.55L30.71,56.61L30.67,56.67L30.62,56.72L30.57,56.75L30.52,56.75L30.48,56.74L30.45,56.70L30.44,56.66"/><path style="stroke:#000000;stroke-width:0.088" d="M31.26,58.90L39.34,54.24L39.56,54.36L31.33,59.12L31.33,59.15L31.31,59.18L31.30,59.21L31.27,59.23L31.25,59.25L31.22,59.26L31.20,59.25L31.19,59.24L31.18,59.21L31.18,59.18L31.19,59.15L31.21,59.12L31.23,59.09L31.26,59.07L31.33,59.12"/><path style="stroke:#000000;stroke-width:0.088" d="M31.26,59.07L31.26,56.08L31.23,56.09L31.21,56.08L31.19,56.07L31.18,56.05L31.18,56.02L31.19,55.99L31.20,55.96L31.22,55.93L31.25,55.91L31.27,55.90L31.30,55.90L31.31,55.90L31.33,55.92L31.33,55.95L31.26,55.91"/><path style="stroke:#000000;stroke-width:0.088" d="M31.33,55.95L39.56,51.20L39.64,51.24L39.66,51.22L39.68,51.19L39.70,51.16L39.71,51.13L39.71,51.10L39.70,51.08L39.69,51.06L39.67,51.06L39.65,51.06L39.62,51.08L39.60,51.10L39.58,51.13L39.57,51.16L39.56,51.20"/><path style="stroke:#000000;stroke-width:0.088" d="M31.18,56.03L31.26,56.08"/><path style="stroke:#000000;stroke-width:0.088" d="M39.49,54.15L39.48,54.19L39.47,54.22L39.45,54.25L39.41,54.28"/><path style="stroke:#000000;stroke-width:0.088" d="M39.56,54.36L39.57,54.39L39.58,54.41L39.60,54.42L39.62,54.41L39.65,54.40L39.67,54.38L39.69,54.35L39.70,54.32L39.71,54.29L39.71,54.26L39.70,54.24L39.68,54.23L39.66,54.23L39.64,54.24L39.42,54.11L39.42,51.28"/><path style="stroke:#000000;stroke-width:0.088" d="M39.64,54.24L39.64,51.24"/><path style="stroke:#000000;stroke-width:0.088" d="M40.24,53.97L40.18,53.98L40.13,53.96L40.10,53.92L40.08,53.86L40.09,53.79L40.11,53.71L40.16,53.64L40.21,53.57L40.27,53.53L40.33,53.51L40.38,53.51L40.43,53.54L40.45,53.59L40.45,53.66L40.44,53.74L40.40,53.81L40.35,53.88L40.29,53.94L40.24,53.97"/><path style="stroke:#000000;stroke-width:0.088" d="M40.09,53.80L40.14,53.75L40.18,53.68L40.22,53.60L40.22,53.56"/><path style="stroke:#000000;stroke-width:0.088" d="M40.09,53.80L40.15,53.74L40.19,53.68L40.22,53.62L40.23,53.56"/><path style="stroke:#000000;stroke-width:0.088" d="M40.25,53.54L40.29,53.53L40.34,53.53L40.37,53.55L40.39,53.60L40.39,53.66L40.38,53.72L40.35,53.79L40.31,53.84L40.26,53.89L40.21,53.92L40.16,53.93L40.12,53.91L40.09,53.88L40.09,53.84"/><path style="stroke:#000000;stroke-width:0.088" d="M40.09,51.06L40.14,51.01L40.18,50.94L40.22,50.86L40.22,50.82"/><path style="stroke:#000000;stroke-width:0.088" d="M40.11,50.97L40.09,51.05L40.09,51.08L40.08,51.12L40.10,51.18L40.13,51.22L40.18,51.24L40.23,51.23L40.29,51.20L40.35,51.14L40.40,51.07L40.44,51.00L40.45,50.90L40.45,50.85L40.43,50.80L40.38,50.77L40.33,50.76L40.27,50.79L40.21,50.83L40.16,50.89L40.11,50.97"/><path style="stroke:#000000;stroke-width:0.088" d="M40.09,51.06L40.15,51.00L40.19,50.94L40.22,50.88L40.23,50.82"/><path style="stroke:#000000;stroke-width:0.088" d="M40.09,51.10L40.09,51.14L40.12,51.17L40.16,51.19L40.21,51.18L40.26,51.15L40.31,51.10L40.35,51.05L40.38,50.98L40.39,50.92L40.39,50.86L40.37,50.81L40.34,50.79L40.29,50.79L40.25,50.80"/><path style="stroke:#000000;stroke-width:0.088" d="M42.30,52.36L42.29,52.40L42.26,52.48L42.21,52.55L42.17,52.60"/><path style="stroke:#000000;stroke-width:0.088" d="M42.94,52.49L42.92,52.49L42.91,52.47L42.90,52.45L42.90,52.42L42.91,52.38L42.93,52.35L42.95,52.33L42.98,52.31L43.05,52.35L43.05,52.38L43.03,52.41L43.01,52.44L42.99,52.47L42.97,52.48L42.94,52.49"/><path style="stroke:#000000;stroke-width:0.088" d="M42.53,52.46L42.51,52.54L42.48,52.62L42.43,52.69L42.37,52.74L42.31,52.77L42.25,52.78L42.21,52.77L42.17,52.72L42.17,52.71L42.16,52.66L42.17,52.59L42.19,52.51L42.23,52.44L42.29,52.37L42.35,52.33L42.39,52.31L42.41,52.31L42.46,52.31L42.50,52.34L42.53,52.39L42.53,52.46"/><path style="stroke:#000000;stroke-width:0.088" d="M42.31,52.36L42.30,52.42L42.27,52.48L42.23,52.54L42.16,52.60"/><path style="stroke:#000000;stroke-width:0.088" d="M42.16,52.64L42.17,52.68L42.20,52.71L42.24,52.73L42.29,52.72L42.34,52.69L42.38,52.65L42.43,52.59L42.46,52.52L42.47,52.46L42.47,52.40L42.45,52.36L42.41,52.33L42.37,52.33L42.33,52.34"/><path style="stroke:#000000;stroke-width:0.088" d="M42.31,50.03L42.25,50.04L42.21,50.03L42.19,50.00L42.17,49.98L42.16,49.92L42.17,49.85L42.19,49.77L42.23,49.70L42.29,49.63L42.35,49.59L42.39,49.57L42.41,49.57L42.46,49.57L42.50,49.60L42.53,49.65L42.53,49.72L42.51,49.80L42.48,49.87L42.43,49.94L42.37,50.00L42.31,50.03"/><path style="stroke:#000000;stroke-width:0.088" d="M42.17,49.86L42.21,49.81L42.26,49.74L42.29,49.66L42.30,49.62"/><path style="stroke:#000000;stroke-width:0.088" d="M51.13,44.52L51.13,47.34L51.36,47.47L51.36,44.47L51.28,44.43L43.05,49.18L43.05,49.16L43.03,49.14L43.01,49.13L42.99,49.13L42.97,49.15L42.94,49.17L42.92,49.20L42.91,49.23L42.90,49.26L42.90,49.29L42.91,49.31L42.93,49.32L42.95,49.32L42.98,49.31L42.90,49.27"/><path style="stroke:#000000;stroke-width:0.088" d="M42.16,49.86L42.23,49.80L42.27,49.74L42.30,49.68L42.31,49.62"/><path style="stroke:#000000;stroke-width:0.088" d="M42.33,49.60L42.37,49.59L42.41,49.59L42.45,49.61L42.47,49.66L42.47,49.72L42.46,49.78L42.43,49.85L42.39,49.91L42.34,49.95L42.29,49.98L42.24,49.99L42.20,49.97L42.17,49.94L42.16,49.90"/><path style="stroke:#000000;stroke-width:0.088" d="M43.05,52.35L51.28,47.60L51.29,47.62L51.30,47.64L51.32,47.65L51.34,47.65L51.36,47.64L51.39,47.61L51.41,47.59L51.42,47.55L51.43,47.52L51.43,47.49L51.42,47.47L51.40,47.46L51.38,47.46L51.36,47.47"/><path style="stroke:#000000;stroke-width:0.088" d="M42.98,52.31L42.98,49.31"/><path style="stroke:#000000;stroke-width:0.088" d="M51.28,47.60L51.06,47.47L42.98,52.14"/><path style="stroke:#000000;stroke-width:0.088" d="M43.05,49.18L42.98,49.14"/><path style="stroke:#000000;stroke-width:0.088" d="M51.13,47.51L51.17,47.49L51.19,47.46L51.20,47.43L51.21,47.38"/><path style="stroke:#000000;stroke-width:0.088" d="M51.36,44.47L51.38,44.45L51.40,44.43L51.42,44.40L51.43,44.36L51.43,44.33L51.42,44.31L51.41,44.30L51.39,44.29L51.36,44.30L51.34,44.31L51.32,44.34L51.29,44.38L51.28,44.43"/><path style="stroke:#000000;stroke-width:0.088" d="M51.94,46.80L51.94,46.83L51.90,46.91L51.86,46.98L51.81,47.03"/><path style="stroke:#000000;stroke-width:0.088" d="M51.85,47.20L51.82,47.16L51.80,47.10L51.80,47.06L51.81,47.02L51.83,46.94L51.88,46.87L51.93,46.81L51.99,46.76L52.05,46.74L52.10,46.74L52.14,46.77L52.17,46.83L52.17,46.87L52.15,46.97L52.12,47.05L52.07,47.12L52.01,47.17L51.95,47.21L51.90,47.22L51.85,47.20"/><path style="stroke:#000000;stroke-width:0.088" d="M51.95,46.79L51.94,46.85L51.91,46.92L51.87,46.98L51.81,47.04"/><path style="stroke:#000000;stroke-width:0.088" d="M51.80,47.07L51.81,47.11L51.84,47.15L51.88,47.16L51.93,47.15L51.98,47.13L52.03,47.08L52.07,47.02L52.10,46.95L52.11,46.89L52.11,46.83L52.09,46.79L52.06,46.76L52.01,46.76L51.97,46.77"/><path style="stroke:#000000;stroke-width:0.088" d="M51.95,44.47L51.90,44.48L51.85,44.46L51.82,44.42L51.80,44.36L51.81,44.28L51.83,44.20L51.88,44.13L51.93,44.07L51.99,44.02L52.05,44.00L52.10,44.00L52.14,44.03L52.17,44.08L52.17,44.15L52.15,44.23L52.12,44.31L52.07,44.38L52.01,44.43L51.95,44.47"/><path style="stroke:#000000;stroke-width:0.088" d="M51.94,44.06L51.94,44.09L51.90,44.17L51.86,44.24L51.81,44.29"/><path style="stroke:#000000;stroke-width:0.088" d="M51.95,44.05L51.94,44.11L51.91,44.18L51.87,44.24L51.81,44.30"/><path style="stroke:#000000;stroke-width:0.088" d="M51.97,44.03L52.01,44.02L52.06,44.02L52.09,44.05L52.11,44.09L52.11,44.15L52.10,44.21L52.07,44.28L52.03,44.34L51.98,44.38L51.93,44.41L51.88,44.42L51.84,44.41L51.81,44.37L51.80,44.33"/><path style="stroke:#000000;stroke-width:0.088" d="M53.19,46.99L53.19,47.04L53.17,47.14L53.12,47.24L53.06,47.33L52.99,47.40L52.93,47.43L52.94,47.34L52.97,47.23L53.03,47.14L53.10,47.05L53.18,47.00L53.26,46.97L53.33,46.97L53.38,47.01L53.41,47.08L53.41,47.17L53.39,47.27L53.35,47.37L53.28,47.46L53.21,47.53L53.13,47.58L53.05,47.59L52.99,47.57L52.95,47.51L52.93,47.43"/><path style="stroke:#000000;stroke-width:0.088" d="M52.93,42.72L52.94,42.63L52.97,42.52L53.03,42.43L53.10,42.34L53.18,42.29L53.26,42.26L53.33,42.26L53.38,42.30L53.41,42.37L53.41,42.46L53.39,42.56L53.35,42.66L53.28,42.75L53.21,42.82L53.13,42.87L53.05,42.88L53.00,42.86L52.95,42.80L52.93,42.72L52.99,42.69L53.06,42.62L53.12,42.53L53.17,42.43L53.19,42.33L53.19,42.28"/><path style="stroke:#000000;stroke-width:0.088" d="M53.17,41.28L52.95,41.15"/><path style="stroke:#000000;stroke-width:0.088" d="M53.66,41.22L53.74,41.27L53.70,41.25"/><path style="fill:#ffffff" d="M172.18,42.51L198.59,42.51L198.59,36.87L172.18,36.87z"/><path style="stroke:#35414c;stroke-width:0.255" d="M172.18,42.51L198.59,42.51L198.59,36.87L172.18,36.87z"/><path style="stroke:#35404c;stroke-width:0.250;stroke-opacity:0.00" d="M172.18,42.51L198.59,42.51L198.59,36.87L172.18,36.87z"/><text xml:space="preserve" fill="#333f4b" stroke-width="0" x="172.89" y="40.92" font-size="3.52" opacity="1.00" font-family="Arial" font-weight="bold" font-style="italic">A56091009A</text><path style="fill:#ffffff" d="M172.18,122.55L198.59,122.55L198.59,116.91L172.18,116.91z"/><path style="stroke:#35414c;stroke-width:0.255" d="M172.18,122.55L198.59,122.55L198.59,116.91L172.18,116.91z"/><path style="stroke:#35404c;stroke-width:0.250;stroke-opacity:0.00" d="M172.18,122.55L198.59,122.55L198.59,116.91L172.18,116.91z"/><text xml:space="preserve" fill="#333f4b" stroke-width="0" x="172.89" y="120.96" font-size="3.56" opacity="1.00" font-family="Arial" font-weight="bold" font-style="italic">H90092088V</text><path style="fill:#ffffff" d="M172.18,92.70L198.59,92.70L198.59,87.06L172.18,87.06z"/><path style="stroke:#35414c;stroke-width:0.255" d="M172.18,92.70L198.59,92.70L198.59,87.06L172.18,87.06z"/><path style="stroke:#35404c;stroke-width:0.250;stroke-opacity:0.00" d="M172.18,92.70L198.59,92.70L198.59,87.06L172.18,87.06z"/><text xml:space="preserve" fill="#333f4b" stroke-width="0" x="172.89" y="91.11" font-size="3.56" opacity="1.00" font-family="Arial" font-weight="bold" font-style="italic">F24090143X</text><path style="fill:#ffffff" d="M172.18,112.51L198.59,112.51L198.59,106.87L172.18,106.87z"/><path style="stroke:#35414c;stroke-width:0.255" d="M172.18,112.51L198.59,112.51L198.59,106.87L172.18,106.87z"/><path style="stroke:#35404c;stroke-width:0.250;stroke-opacity:0.00" d="M172.18,112.51L198.59,112.51L198.59,106.87L172.18,106.87z"/><text xml:space="preserve" fill="#333f4b" stroke-width="0" x="172.89" y="110.92" font-size="3.56" opacity="1.00" font-family="Arial" font-weight="bold" font-style="italic">F36090037V</text><path style="fill:#ffffff" d="M172.18,102.47L198.59,102.47L198.59,96.83L172.18,96.83z"/><path style="stroke:#35414c;stroke-width:0.255" d="M172.18,102.47L198.59,102.47L198.59,96.83L172.18,96.83z"/><path style="stroke:#35404c;stroke-width:0.250;stroke-opacity:0.00" d="M172.18,102.47L198.59,102.47L198.59,96.83L172.18,96.83z"/><text xml:space="preserve" fill="#333f4b" stroke-width="0" x="172.89" y="100.89" font-size="3.56" opacity="1.00" font-family="Arial" font-weight="bold" font-style="italic">F24092070V</text><path style="fill:#ffffff" d="M172.18,82.66L198.59,82.66L198.59,77.02L172.18,77.02z"/><path style="stroke:#35414c;stroke-width:0.255" d="M172.18,82.66L198.59,82.66L198.59,77.02L172.18,77.02z"/><path style="stroke:#35404c;stroke-width:0.250;stroke-opacity:0.00" d="M172.18,82.66L198.59,82.66L198.59,77.02L172.18,77.02z"/><text xml:space="preserve" fill="#333f4b" stroke-width="0" x="172.89" y="81.08" font-size="3.47" opacity="1.00" font-family="Arial" font-weight="bold" font-style="italic">ES3193</text><path style="fill:#ffffff" d="M172.18,72.62L198.59,72.62L198.59,66.98L172.18,66.98z"/><path style="stroke:#35414c;stroke-width:0.255" d="M172.18,72.62L198.59,72.62L198.59,66.98L172.18,66.98z"/><path style="stroke:#35404c;stroke-width:0.250;stroke-opacity:0.00" d="M172.18,72.62L198.59,72.62L198.59,66.98L172.18,66.98z"/><text xml:space="preserve" fill="#333f4b" stroke-width="0" x="172.89" y="71.04" font-size="3.47" opacity="1.00" font-family="Arial" font-weight="bold" font-style="italic">ES3191</text><path style="fill:#ffffff" d="M172.18,32.47L198.59,32.47L198.59,26.83L172.18,26.83z"/><path style="stroke:#35414c;stroke-width:0.255" d="M172.18,32.47L198.59,32.47L198.59,26.83L172.18,26.83z"/><path style="stroke:#35404c;stroke-width:0.250;stroke-opacity:0.00" d="M172.18,32.47L198.59,32.47L198.59,26.83L172.18,26.83z"/><text xml:space="preserve" fill="#333f4b" stroke-width="0" x="172.89" y="30.89" font-size="3.52" opacity="1.00" font-family="Arial" font-weight="bold" font-style="italic">A52090195A</text><path style="fill:#ffffff" d="M172.18,62.59L198.59,62.59L198.59,56.94L172.18,56.94z"/><path style="stroke:#35414c;stroke-width:0.255" d="M172.18,62.59L198.59,62.59L198.59,56.94L172.18,56.94z"/><path style="stroke:#35404c;stroke-width:0.250;stroke-opacity:0.00" d="M172.18,62.59L198.59,62.59L198.59,56.94L172.18,56.94z"/><text xml:space="preserve" fill="#333f4b" stroke-width="0" x="172.89" y="61.00" font-size="3.48" opacity="1.00" font-family="Arial" font-weight="bold" font-style="italic">ES3190</text><path style="fill:#ffffff" d="M172.18,52.55L198.59,52.55L198.59,46.91L172.18,46.91z"/><path style="stroke:#35414c;stroke-width:0.255" d="M172.18,52.55L198.59,52.55L198.59,46.91L172.18,46.91z"/><path style="stroke:#35404c;stroke-width:0.250;stroke-opacity:0.00" d="M172.18,52.55L198.59,52.55L198.59,46.91L172.18,46.91z"/><text xml:space="preserve" fill="#333f4b" stroke-width="0" x="172.89" y="50.96" font-size="3.52" opacity="1.00" font-family="Arial" font-weight="bold" font-style="italic">A56091010A</text><g id="paperID" visibility="hidden" opacity="0.00" transform="scale(0.000100)"><path style="stroke:#000000;stroke-width:0.500;fill:#e6e6e6;fill-rule:evenodd" d="M-2000.00,-2000.00L2210.00,-2000.00L2210.00,2150.00L-2000.00,2150.00zM0.00,0.00L210.00,0.00L210.00,150.00L0.00,150.00z"/><path style="fill:#000000;fill-opacity:0.118" d="M3.00,150.00L210.00,150.00L210.00,3.00L213.00,3.00L213.00,153.00L3.00,153.00z"/></g><g id="hotspot.0" onmouseover="ShowHotSpot(evt,'0')" onmouseout="HideHotSpot(evt,'0')" onmousemove="ShowToolTip(evt,'0',&quot;A52090195A&quot;)" opacity="0"><path style="fill:#00ff00;fill-rule:evenodd" d="M198.85,27.26L198.84,32.42L198.55,32.93L172.12,32.86L172.12,27.11L198.59,27.00zM159.22,68.74L159.21,107.17L158.94,107.70L141.92,117.63L140.97,117.64L140.70,117.37L140.71,78.63L142.20,77.48L158.43,68.24zM155.46,93.94L156.22,93.02L156.55,93.05L156.58,93.96L155.92,94.67L155.49,94.67zM157.90,86.31L142.03,95.56L142.03,82.86L157.90,73.79zM152.69,95.35L152.34,96.60L151.54,97.14L151.51,96.04L152.34,95.21zM148.66,97.79L148.66,98.17L147.58,99.53L147.58,98.18L148.41,97.54zM156.81,99.23L156.20,100.48L155.40,100.57L155.46,100.03L156.28,98.92L156.62,98.88zM144.50,100.10L144.15,101.36L143.35,101.90L143.33,100.79L144.07,99.88zM152.61,102.15L152.23,102.85L151.44,102.94L151.51,102.12L152.25,101.21L152.59,101.24zM148.66,103.87L148.66,104.25L147.99,105.24L147.49,105.33L147.54,104.22L148.26,103.62zM144.42,106.90L144.04,107.60L143.25,107.70L143.32,106.88L144.07,105.96L144.40,105.99z"/></g><g id="hotspot.1" onmouseover="ShowHotSpot(evt,'1')" onmouseout="HideHotSpot(evt,'1')" onmousemove="ShowToolTip(evt,'1',&quot;F24092070V&quot;)" opacity="0"><path style="fill:#00ff00;fill-rule:evenodd" d="M53.83,41.53L53.81,48.00L53.30,48.55L29.94,62.17L28.95,62.48L28.63,62.26L28.68,55.63L29.13,55.02L52.92,41.27L53.55,41.25zM198.85,97.26L198.84,102.42L198.55,102.93L172.12,102.86L172.12,97.11L198.59,97.00zM51.18,47.48L44.21,51.60L43.15,51.97L43.15,49.22L51.18,44.73zM39.30,54.35L32.32,58.47L31.26,58.84L31.26,56.09L39.30,51.60z"/></g><g id="hotspot.2" onmouseover="ShowHotSpot(evt,'2')" onmouseout="HideHotSpot(evt,'2')" onmousemove="ShowToolTip(evt,'2',&quot;F36090037V&quot;)" opacity="0"><path style="fill:#00ff00;fill-rule:evenodd" d="M39.81,40.08L39.44,40.49L15.68,54.26L14.89,54.35L14.97,47.46L16.56,46.40L39.19,33.34L39.79,33.35zM198.85,107.30L198.84,112.46L198.55,112.97L172.12,112.89L172.12,107.14L198.59,107.04z"/></g><g id="hotspot.3" onmouseover="ShowHotSpot(evt,'3')" onmouseout="HideHotSpot(evt,'3')" onmousemove="ShowToolTip(evt,'3',&quot;H90092088&quot;)" opacity="0"><path style="fill:#00ff00;fill-rule:evenodd" d="M47.73,107.95L49.31,106.90L71.95,93.83L72.55,93.84L72.47,102.58L48.16,116.61L47.72,116.61zM198.85,117.34L198.84,122.50L198.55,123.00L172.12,122.93L172.12,117.18L198.59,117.08z"/></g><g id="hotspot.4" onmouseover="ShowHotSpot(evt,'4')" onmouseout="HideHotSpot(evt,'4')" onmousemove="ShowToolTip(evt,'4',&quot;A56091009A&quot;)" opacity="0"><path style="fill:#00ff00;fill-rule:evenodd" d="M101.36,34.15L101.89,34.94L101.87,53.00L101.54,53.23L100.82,53.21L94.74,49.75L94.66,30.99L95.30,30.73zM198.85,37.30L198.84,42.46L198.55,42.97L172.12,42.89L172.12,37.14L198.59,37.04zM97.13,35.20L97.11,36.39L96.62,36.29L96.07,35.74L95.98,34.40L96.31,34.38zM100.55,37.07L100.82,38.23L100.03,38.13L99.46,37.34L99.48,36.61L100.03,36.51zM97.13,40.75L97.11,41.94L96.62,41.84L96.07,41.29L95.98,39.95L96.31,39.92zM100.85,43.14L100.74,43.96L100.28,43.98L99.48,42.89L99.40,42.08L100.02,42.05zM96.60,45.77L97.14,46.57L97.12,47.48L96.62,47.39L96.07,46.84L96.07,45.50zM100.27,47.91L100.85,48.96L100.75,49.49L100.28,49.53L99.47,48.43L99.48,47.71L99.78,47.62z"/></g><g id="hotspot.5" onmouseover="ShowHotSpot(evt,'5')" onmouseout="HideHotSpot(evt,'5')" onmousemove="ShowToolTip(evt,'5',&quot;A56091010A&quot;)" opacity="0"><path style="fill:#00ff00;fill-rule:evenodd" d="M150.74,35.22L152.61,36.52L152.51,55.05L151.53,55.05L145.65,51.67L145.44,51.09L145.44,32.92L146.52,32.83zM198.85,47.34L198.84,52.50L198.55,53.00L172.12,52.93L172.12,47.18L198.59,47.08z"/></g><g id="hotspot.6" onmouseover="ShowHotSpot(evt,'6')" onmouseout="HideHotSpot(evt,'6')" onmousemove="ShowToolTip(evt,'6',&quot;ES3190&quot;)" opacity="0"><path style="fill:#00ff00;fill-rule:evenodd" d="M198.85,57.38L198.84,62.53L198.55,63.04L172.12,62.97L172.12,57.22L198.59,57.11zM60.69,61.35L60.69,65.97L50.56,71.96L49.32,71.92L48.70,71.49L48.78,66.74L59.37,60.57z"/></g><g id="hotspot.7" onmouseover="ShowHotSpot(evt,'7')" onmouseout="HideHotSpot(evt,'7')" onmousemove="ShowToolTip(evt,'7',&quot;ES3191&quot;)" opacity="0"><path style="fill:#00ff00;fill-rule:evenodd" d="M72.28,54.51L72.28,59.34L62.25,65.17L61.45,65.37L60.93,65.07L60.68,61.36L60.42,61.08L60.40,60.15L62.77,58.55L70.88,53.95L71.49,53.95zM198.85,67.41L198.84,72.57L198.55,73.08L172.12,73.01L172.12,67.26L198.59,67.15z"/></g><g id="hotspot.8" onmouseover="ShowHotSpot(evt,'8')" onmouseout="HideHotSpot(evt,'8')" onmousemove="ShowToolTip(evt,'8',&quot;ES3193&quot;)" opacity="0"><path style="fill:#00ff00;fill-rule:evenodd" d="M50.65,55.79L50.64,59.89L50.38,60.41L40.51,66.15L39.72,66.24L39.77,61.69L42.09,60.05L50.02,55.53L50.38,55.52zM198.85,77.45L198.84,82.61L198.55,83.12L172.12,83.05L172.12,77.29L198.59,77.19zM49.22,60.05L41.91,64.36L41.03,64.65L41.12,61.73L48.98,57.10L49.30,57.12z"/></g><g id="hotspot.9" onmouseover="ShowHotSpot(evt,'9')" onmouseout="HideHotSpot(evt,'9')" onmousemove="ShowToolTip(evt,'9',&quot;F24090143&quot;)" opacity="0"><path style="fill:#00ff00;fill-rule:evenodd" d="M198.85,87.49L198.84,92.65L198.55,93.15L172.12,93.08L172.12,87.33L198.59,87.23zM102.66,110.61L102.17,110.54L100.97,111.01L100.51,111.94L100.23,111.96L100.21,84.89L101.51,84.08L102.68,84.08z"/></g></g></svg>
