<?xml version="1.0" encoding="UTF-8" standalone="no"?>
<svg xmlns="http://www.w3.org/2000/svg" xmlns:xlink="http://www.w3.org/1999/xlink" width="210.000mm" height="150.000mm" viewBox="0.000000 0.000000 210.000000 150.000000" stroke-linejoin="round" stroke-linecap="round" fill="none" fill-rule="evenodd"><desc>Composer Export</desc><script type="text/ecmascript"><![CDATA[
if(typeof(top) != "undefined")
{
	top.ShowPaper = ShowPaper;
}
function ShowHotSpot(evt,hotspotid)
{
	var svgDocument = evt.target.ownerDocument;
	var strId = "hotspot."+hotspotid;
	var hotspot = svgDocument.getElementById(strId);
	if(hotspot)
		hotspot.setAttribute("opacity",".5");
}
function HideHotSpot(evt,hotspotid)
{
	var svgDocument = evt.target.ownerDocument;
	var strId = "hotspot."+hotspotid;
	var hotspot = svgDocument.getElementById(strId);
	if(hotspot)
		hotspot.setAttribute("opacity","0");

	var toolTip = svgDocument.getElementById('ToolTip');
	if(toolTip)
		toolTip.setAttribute("visibility","hidden");
}
function ShowToolTip(evt,hotspotid,strTooltip)
{
	if(strTooltip=="")
	return;

	// change text
	var svgDocument = evt.target.ownerDocument;
	var tiptext = svgDocument.getElementById('ToolTipText');
	if( !tiptext )
	return;
	tiptext.firstChild.nodeValue = " " + strTooltip + "  " ;

	// show tooltip before, else some refresh issue

	var toolTip = svgDocument.getElementById('ToolTip');
	if(!toolTip)
	return;

	toolTip.setAttribute("visibility","visible");
	toolTip.setAttribute("opacity",".95");

	// move tooltip
	// get viewbox

	var root = svgDocument.documentElement;
	var vbox = (root.getAttribute("viewBox")).split(' ');
	var x0 = parseFloat(vbox[0]);
	var y0 = parseFloat(vbox[1]);
	var vboxW = parseFloat(vbox[2]);
	var vboxH = parseFloat(vbox[3]);

	// get default width of svg

	var strW = root.getAttribute("width");
	var svgW = parseFloat(strW);
	if(strW.indexOf('mm') != -1)
	svgW *= 3.779;

	var strH = root.getAttribute("height");
	var svgH = parseFloat(strH);
	if(strH.indexOf('mm') != -1)
	svgH *= 3.779;  	// 96 dpi  -> 96/25.4 = 3.779

	// update the viewbox / width / height if svg is embedded in html with zoom fit all
	var realx0 = x0;
	var realy0 = y0;
	var realvboxW = vboxW;
	var realvboxH = vboxH;
	var realsvgW = svgW;
	var realsvgH = svgH;

	if ((typeof(top) == "undefined") || (typeof(top.svgctl1) != "undefined")) // embedded in html
	{
		// get window size in pxl

		svgW = window.innerWidth;
		svgH = window.innerHeight;

		// calculate real viewbox

		realsvgW = svgW;
		realsvgH = svgH;
		if((svgW / svgH) > (vboxW / vboxH))
		{
			realvboxW = (vboxH * svgW) / svgH;
			realvboxH = vboxH;
			realx0 = x0 - (realvboxW - vboxW)/2 ;
		}
		else
		{
			realvboxH = (vboxW * svgH) / svgW;
			realvboxW = vboxW;
			realy0 = y0 - (realvboxH - vboxH)/2 ;
		}
	}

	// get user zoom/pan

	var newScale = root.currentScale;
	var translation = root.currentTranslate;

	// transform pxl to user unit

	var xPos = (((evt.clientX+10- translation.x)/newScale) * realvboxW)/realsvgW  + realx0 ;
	var yPos = (((evt.clientY+5- translation.y)/newScale) * realvboxH)/ realsvgH  + realy0 ;
	var scaleForWidth = ( (1 / newScale) * realvboxH) / realsvgH;

	// move tooltip

	toolTip.setAttribute("transform", "translate(" + xPos + "," + yPos + ")" );

	// resize tooltip

	var fontsize = 12;
	tiptext.setAttribute("font-size",fontsize*scaleForWidth);
	tiptext.setAttribute("y", fontsize*scaleForWidth);
	var tipBG = svgDocument.getElementById('ToolTipBG');
	var outline = tiptext.getBBox();
	if(tipBG)
	{
		tipBG.setAttribute("stroke-width", 1*scaleForWidth);
		tipBG.setAttribute("width", Number(outline.width) );
		tipBG.setAttribute("height", Number(outline.height) + fontsize*.5*scaleForWidth );
	}
	var ToolTipShadow = svgDocument.getElementById('ToolTipShadow');
	if(ToolTipShadow)
	{
		ToolTipShadow.setAttribute("width", Number(outline.width) );
		ToolTipShadow.setAttribute("height", Number(outline.height) + fontsize*.5*scaleForWidth );
		ToolTipShadow.setAttribute("x", 3*scaleForWidth);
		ToolTipShadow.setAttribute("y", 3*scaleForWidth);
	}
}
function ShowPaper()
{
  var svgDocument = getDocument();
  var paper = svgDocument.getElementById("paperID");
  if(paper)
  {
    paper.setAttribute("transform","scale(1)");
    paper.setAttribute("opacity","1");
    paper.setAttribute("visibility","visible");
  }
  var svg = svgDocument.getRootElement();
  if(svg)
  {
    svg.setAttribute("width","220.000mm");
    svg.setAttribute("height","160.000mm");
    svg.setAttribute("viewBox","-5.000000 -5.000000 220.000000 160.000000");
  }
}
]]></script><defs/><g><path style="fill:#ffffff" d="M209.93,149.99L0.04,149.99L0.04,0.04L209.93,0.04z"/><path style="fill:#d1ce96" d="M107.29,120.55L108.06,121.04L108.69,121.81L108.81,124.35L109.58,124.84L110.33,125.99L110.33,129.72L109.84,130.62L108.93,131.36L108.17,131.74L106.61,132.21L103.48,132.21L101.96,131.83L100.58,131.06L99.94,130.43L99.68,129.81L99.67,126.03L100.15,125.11L100.91,124.48L101.22,124.28L101.32,121.72L102.17,120.80L103.33,120.28L103.61,120.46L103.81,120.15L106.14,120.17z"/><path style="fill:#0000ff" d="M104.11,31.98L105.86,31.98L115.44,26.51L115.40,43.80L115.14,44.56L114.38,45.70L113.32,46.67L111.67,47.68L108.72,48.69L108.08,48.81L107.76,48.83L107.71,48.91L106.61,48.96L103.36,48.96L101.89,48.81L101.24,48.69L98.67,47.81L97.16,47.04L95.89,46.03L95.00,44.89L94.61,43.76L94.53,26.51z"/><path style="fill:#2ac7ce" d="M108.93,64.67L112.10,65.30L115.01,66.32L117.43,67.58L119.21,68.96L120.09,69.98L120.86,71.12L121.35,72.14L121.60,73.16L121.60,80.17L121.47,80.67L121.05,81.90L120.04,83.42L119.33,84.23L117.49,85.69L115.02,87.01L112.19,87.99L109.14,88.62L106.48,88.87L103.23,88.87L100.82,88.62L98.79,88.24L95.75,87.35L92.71,85.83L91.33,84.80L90.19,83.79L89.04,82.16L88.52,80.90L88.40,80.25L88.40,72.94L89.00,71.25L90.19,69.53L91.19,68.64L92.42,67.71L94.19,66.69L96.98,65.56L100.15,64.79L103.70,64.41L106.52,64.41z"/><path style="fill:#2ac7ce" d="M106.78,98.00L108.29,98.38L109.69,99.01L110.82,99.91L111.22,100.52L111.97,101.04L112.99,102.05L113.62,103.31L113.63,106.28L113.37,106.91L112.81,107.74L111.79,108.62L109.94,109.82L108.76,110.41L107.63,110.80L106.10,111.05L103.74,111.05L102.33,110.80L101.21,110.41L100.33,110.02L97.66,108.25L96.78,107.23L96.38,106.36L96.38,103.22L97.03,101.97L98.29,100.82L98.80,100.44L99.51,99.51L101.29,98.50L103.19,98.00L104.33,97.87L105.76,97.87z"/><path style="fill:#01ff02" d="M94.37,72.64L94.32,73.29L93.82,73.55L92.07,73.55L91.58,73.16L91.58,72.57L92.16,72.14L93.73,72.14z"/><path style="fill:#01ff02" d="M112.87,102.67L112.84,102.81L112.09,102.81L112.09,102.47L112.61,102.42z"/><path style="fill:#01ff02" d="M97.92,105.48L97.93,105.76L97.13,105.72L97.14,105.52L97.54,105.35z"/><path style="fill:#01ff02" d="M111.35,107.00L111.32,107.24L110.56,107.24L110.53,107.00L110.79,106.85L111.09,106.85z"/><path style="fill:#01ff02" d="M103.89,108.50L103.84,108.76L103.21,108.78L103.05,108.67L103.09,108.43L103.76,108.37z"/><path style="fill:#01ff02" d="M109.72,126.50L109.66,126.76L109.05,126.76L109.05,126.42L109.58,126.36z"/><path style="fill:#01ff02" d="M100.97,126.50L100.92,126.76L100.30,126.76L100.30,126.42L100.84,126.36z"/><path style="fill:#01ff02" d="M108.45,128.27L108.40,128.53L107.78,128.53L107.78,128.19L108.31,128.14z"/><path style="fill:#01ff02" d="M102.24,128.27L102.19,128.53L101.57,128.53L101.57,128.19L102.11,128.14z"/><path style="fill:#01ff02" d="M105.41,129.04L105.39,129.20L105.23,129.31L104.74,129.31L104.57,129.20L104.61,128.96L105.28,128.90z"/><path style="fill:#999999" d="M107.71,48.91L107.76,48.83L108.08,48.81z"/><path style="fill:#999999" d="M103.36,48.96L106.61,48.96L107.71,48.91L107.79,52.92L107.67,53.43L107.37,53.89L106.11,54.54L104.96,54.66L103.86,54.54L102.60,53.89L102.21,53.14L102.08,48.96L101.89,48.81z"/><path style="fill:#cccccc" d="M118.94,19.43L118.96,24.43L115.44,26.51L105.86,31.98L104.11,31.98L94.53,26.51L91.07,24.50L91.02,19.43L103.94,11.95L106.02,11.95z"/><path style="fill:#ffffff" d="M98.05,25.88L98.55,26.78L98.68,27.58L98.50,28.05L97.65,28.06L97.16,27.66L96.64,26.79L96.64,25.56L96.98,25.37L97.27,25.37z"/><path style="fill:#ffffff" d="M108.43,74.93L109.31,75.31L110.46,76.06L109.31,76.87L107.53,77.50L106.10,77.72L103.86,77.72L101.83,77.35L100.58,76.82L99.50,76.06L100.65,75.31L101.54,74.93L103.82,74.43L106.14,74.43z"/><path style="stroke:#000000;stroke-width:0.088" d="M110.41,126.67L110.41,128.53L110.24,129.17L109.83,129.79L109.22,130.33L108.83,130.58L108.41,130.80L107.46,131.15L106.47,131.38L106.41,131.39L105.29,131.49L104.16,131.46L103.06,131.29L102.05,130.99L101.17,130.58L100.46,130.07L99.94,129.49L99.65,128.86L99.59,128.21L99.59,126.35L99.65,127.00L99.94,127.64L100.46,128.22L101.17,128.72L102.05,129.14L103.06,129.43L104.16,129.60L105.29,129.64L106.41,129.53L107.46,129.30L108.41,128.94L108.83,128.72L109.22,128.48L109.83,127.93L110.24,127.32L110.41,126.67L110.35,126.02L110.06,125.39L109.54,124.80L108.83,124.29L108.75,124.26"/><path style="stroke:#000000;stroke-width:0.088" d="M101.26,124.27L100.78,124.54L100.17,125.09L99.76,125.70L99.59,126.35"/><path style="stroke:#000000;stroke-width:0.088" d="M101.26,124.63L101.08,124.74L100.49,125.28L100.13,125.89L100.02,126.54L100.14,127.10L100.15,127.17L100.53,127.78L101.13,128.32L101.93,128.78L102.88,129.11L103.93,129.32L105.04,129.39L106.15,129.31L107.20,129.09L107.52,128.97L108.14,128.75L108.52,128.55L108.92,128.29L109.51,127.74L109.87,127.13L109.98,126.49L109.85,125.85L109.47,125.24L108.87,124.70L108.75,124.63"/><path style="stroke:#000000;stroke-width:0.088" d="M109.28,125.07L109.63,125.45L109.92,126.06L109.97,126.70L109.78,127.33L109.35,127.92L108.70,128.44L107.88,128.86L106.91,129.17L105.84,129.35L104.74,129.38L103.65,129.28L102.62,129.04L101.71,128.67L100.97,128.20L100.42,127.65L100.10,127.04L100.02,126.40L100.19,125.77L100.35,125.53"/><path style="stroke:#000000;stroke-width:0.088" d="M100.61,126.21L100.48,126.22L100.33,126.26L100.26,126.30L100.20,126.33L100.13,126.42L100.10,126.52L100.14,126.62L100.22,126.70L100.35,126.77L100.51,126.81L100.69,126.81L100.85,126.78L100.99,126.73L101.10,126.65L101.15,126.55L101.14,126.45L101.08,126.36L100.97,126.28L100.82,126.23L100.65,126.21L100.61,126.21"/><path style="stroke:#000000;stroke-width:0.088" d="M100.97,126.74L101.03,126.69L101.07,126.61L101.07,126.52L101.01,126.45L100.92,126.38L100.79,126.34L100.65,126.32L100.51,126.33L100.43,126.35L100.37,126.36L100.27,126.42L100.20,126.50L100.18,126.58L100.21,126.67L100.27,126.73"/><path style="stroke:#000000;stroke-width:0.088" d="M100.84,124.96L100.59,125.17L100.35,125.52"/><path style="stroke:#000000;stroke-width:0.088" d="M101.41,128.37L101.38,128.31L101.41,128.21L101.48,128.12L101.54,128.08L101.61,128.05L101.76,128.00L101.94,127.99L102.10,128.02L102.25,128.07L102.36,128.14L102.42,128.24L102.43,128.34L102.38,128.43L102.28,128.51L102.13,128.57L101.97,128.60L101.80,128.59L101.63,128.55L101.50,128.49L101.42,128.40L101.41,128.37"/><path style="stroke:#000000;stroke-width:0.088" d="M101.26,122.44L101.46,122.97L101.89,123.45L102.50,123.85L103.27,124.16L103.80,124.27L104.15,124.34L105.07,124.40L106.00,124.32L106.20,124.27L106.86,124.11L107.60,123.79L108.19,123.37L108.58,122.89L108.75,122.36L108.75,126.64L108.58,127.17L108.19,127.66L107.60,128.08L106.86,128.40L106.00,128.60L105.07,128.68L104.15,128.63L103.27,128.44L102.50,128.13L101.89,127.73L101.46,127.25L101.26,126.73L101.26,122.44L101.28,121.91L101.53,121.39L102.00,120.92L102.65,120.53L103.44,120.25L103.78,120.72L103.17,120.94L102.66,121.25L102.30,121.63L102.13,122.05L102.15,122.48L102.35,122.89L102.74,123.26L103.27,123.56L103.80,123.73L103.92,123.77L104.64,123.88L105.38,123.88L106.10,123.77L106.75,123.55L107.28,123.25L107.65,122.88L107.86,122.47L107.87,122.04L107.68,121.62L107.32,121.24L106.81,120.93L106.18,120.71L105.46,120.58L104.72,120.57L104.02,120.66L103.84,123.75"/><path style="stroke:#000000;stroke-width:0.088" d="M100.84,124.95L101.15,124.69"/><path style="stroke:#000000;stroke-width:0.088" d="M101.26,124.62L101.21,124.64L101.15,124.69"/><path style="stroke:#000000;stroke-width:0.088" d="M102.25,128.52L102.31,128.48L102.35,128.39L102.35,128.31L102.29,128.23L102.20,128.16L102.13,128.14L102.07,128.12L101.93,128.10L101.79,128.11L101.71,128.13L101.65,128.15L101.55,128.21L101.48,128.28L101.46,128.37L101.49,128.45L101.55,128.51"/><path style="stroke:#000000;stroke-width:0.088" d="M103.78,120.72L103.74,121.25"/><path style="stroke:#000000;stroke-width:0.088" d="M103.68,120.59L103.68,120.20L104.02,120.66"/><path style="stroke:#000000;stroke-width:0.088" d="M103.68,120.20L104.59,120.07L105.52,120.08L106.42,120.22L107.23,120.48L107.91,120.85L108.41,121.31L108.69,121.82L108.75,122.36"/><path style="stroke:#000000;stroke-width:0.088" d="M104.60,129.23L104.52,129.16L104.48,129.07L104.49,128.97L104.55,128.87L104.67,128.80L104.82,128.75L104.99,128.73L105.16,128.75L105.31,128.79L105.43,128.86L105.51,128.95L105.52,129.05L105.48,129.15L105.39,129.24L105.37,129.25L105.26,129.30L105.10,129.33L104.92,129.33L104.76,129.30L104.62,129.24L104.60,129.23"/><path style="stroke:#000000;stroke-width:0.088" d="M105.34,129.26L105.41,129.20L105.44,129.11L105.43,129.03L105.37,128.95L105.27,128.89L105.22,128.88L105.14,128.85L104.99,128.84L104.85,128.86L104.72,128.90L104.62,128.96L104.57,129.04L104.56,129.13L104.59,129.21L104.66,129.26"/><path style="stroke:#000000;stroke-width:0.088" d="M107.77,128.53L107.85,128.57L108.01,128.60L108.19,128.59L108.35,128.56L108.46,128.51L108.48,128.50L108.58,128.41L108.61,128.31L108.60,128.22L108.52,128.12L108.40,128.05L108.25,128.01L108.08,127.99L107.91,128.01L107.76,128.06L107.65,128.14L107.58,128.23L107.57,128.33L107.61,128.42L107.71,128.51L107.77,128.53"/><path style="stroke:#000000;stroke-width:0.088" d="M107.75,128.52L107.69,128.47L107.65,128.39L107.66,128.30L107.71,128.22L107.81,128.16L107.94,128.12L108.08,128.10L108.23,128.11L108.36,128.15L108.46,128.21L108.52,128.29L108.54,128.38L108.50,128.46L108.43,128.52"/><path style="stroke:#000000;stroke-width:0.088" d="M109.26,126.81L109.10,126.77L108.97,126.70L108.88,126.62L108.85,126.52L108.87,126.42L108.95,126.33L109.00,126.30L109.07,126.26L109.23,126.22L109.40,126.21L109.57,126.23L109.71,126.28L109.82,126.36L109.89,126.45L109.89,126.55L109.84,126.65L109.74,126.73L109.60,126.78L109.43,126.81L109.26,126.81"/><path style="stroke:#000000;stroke-width:0.088" d="M109.71,126.74L109.77,126.69L109.81,126.61L109.81,126.52L109.76,126.45L109.66,126.38L109.54,126.34L109.39,126.32L109.25,126.33L109.12,126.36L109.01,126.42L108.94,126.50L108.92,126.58L108.95,126.67L109.02,126.73"/><path style="stroke:#000000;stroke-width:0.088" d="M108.98,124.80L109.11,124.88L109.28,125.06"/><path style="stroke:#000000;stroke-width:0.088" d="M108.75,124.65L108.98,124.79"/><path style="stroke:#000000;stroke-width:0.088" d="M110.41,128.39L110.42,128.35L110.42,129.21L110.30,129.88L109.94,130.52L109.34,131.09L108.55,131.59L107.60,131.97L106.52,132.23L105.38,132.35L104.22,132.32L103.09,132.15L102.05,131.85L101.15,131.43L100.42,130.90L99.91,130.30L99.63,129.65L99.60,128.98L99.60,128.31"/><path style="stroke:#000000;stroke-width:0.088" d="M99.64,128.82L99.63,128.79L99.62,128.53"/><path style="stroke:#000000;stroke-width:0.088" d="M99.80,129.19L99.91,129.44L99.93,129.47"/><path style="stroke:#000000;stroke-width:0.088" d="M100.23,129.82L100.42,130.05L100.44,130.06"/><path style="stroke:#000000;stroke-width:0.088" d="M101.16,130.58L101.15,130.57L100.92,130.41"/><path style="stroke:#000000;stroke-width:0.088" d="M102.05,130.99L102.46,131.11"/><path style="stroke:#000000;stroke-width:0.088" d="M101.75,130.85L102.05,130.99"/><path style="stroke:#000000;stroke-width:0.088" d="M102.25,122.16L102.16,122.34"/><path style="stroke:#000000;stroke-width:0.088" d="M102.24,122.67L102.29,122.40L102.60,121.97L103.12,121.60L103.81,121.34L103.74,121.25L103.66,121.28"/><path style="stroke:#000000;stroke-width:0.088" d="M102.47,121.93L102.61,121.78"/><path style="stroke:#000000;stroke-width:0.088" d="M103.13,121.47L102.96,121.57"/><path style="stroke:#000000;stroke-width:0.088" d="M103.08,131.29L103.09,131.30L103.45,131.35"/><path style="stroke:#000000;stroke-width:0.088" d="M104.65,131.47L104.22,131.46L104.19,131.46"/><path style="stroke:#000000;stroke-width:0.088" d="M103.81,121.34L103.81,123.74"/><path style="stroke:#000000;stroke-width:0.088" d="M107.77,122.65L107.77,122.56L107.53,122.11L107.07,121.71L106.43,121.41L105.67,121.23L104.86,121.19L104.05,121.28L104.05,123.79"/><path style="stroke:#000000;stroke-width:0.088" d="M103.84,123.75L103.99,121.19L104.05,121.28"/><path style="stroke:#000000;stroke-width:0.088" d="M103.99,121.19L103.99,121.19"/><path style="stroke:#000000;stroke-width:0.088" d="M105.82,131.44L105.38,131.49L105.33,131.49"/><path style="stroke:#000000;stroke-width:0.088" d="M104.69,121.10L104.93,121.10"/><path style="stroke:#000000;stroke-width:0.088" d="M105.72,121.15L105.44,121.11"/><path style="stroke:#000000;stroke-width:0.088" d="M106.16,121.23L106.44,121.32"/><path style="stroke:#000000;stroke-width:0.088" d="M106.47,131.38L106.52,131.37L107.00,131.26"/><path style="stroke:#000000;stroke-width:0.088" d="M107.05,121.58L106.81,121.45"/><path style="stroke:#000000;stroke-width:0.088" d="M107.97,130.97L107.60,131.11L107.53,131.13"/><path style="stroke:#000000;stroke-width:0.088" d="M107.72,122.13L107.82,122.31"/><path style="stroke:#000000;stroke-width:0.088" d="M107.52,121.92L107.34,121.75"/><path style="stroke:#000000;stroke-width:0.088" d="M108.60,130.70L108.55,130.73L108.51,130.75"/><path style="stroke:#000000;stroke-width:0.088" d="M109.56,130.02L109.34,130.24L109.27,130.28"/><path style="stroke:#000000;stroke-width:0.088" d="M110.07,129.43L109.94,129.66L109.88,129.72"/><path style="stroke:#000000;stroke-width:0.088" d="M110.26,129.09L110.30,129.02L110.34,128.79"/><path style="stroke:#000000;stroke-width:0.088" d="M110.42,128.35L110.41,128.32"/><path style="stroke:#000000;stroke-width:0.088" d="M96.62,106.87L96.35,106.21L96.26,105.38L96.26,103.95L96.35,104.78L96.67,105.59L97.23,106.36L97.99,107.07L98.95,107.69L99.01,107.72L100.07,108.22L101.33,108.63L102.68,108.92L104.10,109.07L104.60,109.08L105.54,109.09L106.97,108.97L108.35,108.71L109.63,108.33L110.79,107.83L111.79,107.23L112.60,106.54L113.21,105.79L113.59,104.98L113.74,104.15L113.74,105.58L113.59,106.41L113.21,107.21L112.60,107.97L111.79,108.66L110.79,109.26L110.67,109.31L109.63,109.76L108.35,110.14L107.85,110.25L106.97,110.39L105.54,110.52L104.10,110.50L102.68,110.34L101.41,110.08L101.33,110.06L100.07,109.65L98.95,109.12L97.99,108.50L97.23,107.79L96.67,107.02L96.62,106.87"/><path style="stroke:#000000;stroke-width:0.088" d="M96.26,103.95L96.41,103.12L96.79,102.31L97.40,101.56L98.21,100.87L98.74,100.55"/><path style="stroke:#000000;stroke-width:0.088" d="M97.18,105.32L97.08,105.40L97.04,105.50L97.05,105.60L97.12,105.69L97.23,105.77L97.38,105.81L97.55,105.83L97.72,105.82L97.88,105.77L98.00,105.70L98.07,105.61L98.08,105.51L98.04,105.41L97.95,105.33L97.81,105.26L97.65,105.23L97.48,105.23L97.39,105.24L97.31,105.26L97.18,105.32"/><path style="stroke:#000000;stroke-width:0.088" d="M97.87,105.77L97.92,105.74L97.98,105.66L97.99,105.58L97.96,105.50L97.88,105.43L97.77,105.38L97.64,105.35L97.49,105.35L97.42,105.36L97.35,105.38L97.34,105.38L97.24,105.43L97.16,105.50L97.12,105.58L97.13,105.66L97.19,105.74L97.24,105.77"/><path style="stroke:#000000;stroke-width:0.088" d="M98.89,105.42L98.55,104.73L98.44,104.01L98.44,101.58L98.55,102.30L98.89,102.99L99.45,103.64L100.21,104.21L101.14,104.68L102.21,105.05L103.39,105.29L104.62,105.40L105.87,105.37L107.08,105.21L107.13,105.20L108.22,104.92L109.24,104.51L110.11,103.99L110.80,103.39L111.27,102.73L111.52,102.02L111.53,101.33L111.53,103.73L111.52,104.45L111.27,105.15L110.80,105.82L110.11,106.42L109.24,106.94L108.22,107.35L107.13,107.63L107.08,107.64L105.87,107.80L104.60,107.83L103.39,107.72L102.21,107.48L101.14,107.11L100.21,106.63L99.45,106.06L98.89,105.42"/><path style="stroke:#000000;stroke-width:0.088" d="M111.53,101.33L111.53,101.30L111.31,100.59L110.86,99.92L110.19,99.31L109.34,98.79L108.34,98.36L107.21,98.06L106.00,97.88L104.75,97.84L103.52,97.93L102.34,98.16L101.25,98.52L100.30,98.98L99.52,99.54L98.94,100.18L98.57,100.87L98.44,101.58"/><path style="stroke:#000000;stroke-width:0.088" d="M98.54,101.05L98.54,101.04L98.54,101.03"/><path style="stroke:#000000;stroke-width:0.088" d="M110.48,109.39L110.37,109.51L109.56,110.05L108.58,110.50L107.48,110.84L106.29,111.05L105.05,111.12L103.80,111.06L102.61,110.86L101.49,110.53L100.51,110.09L99.68,109.55L99.52,109.39"/><path style="stroke:#000000;stroke-width:0.088" d="M102.98,108.51L102.99,108.58L103.06,108.67L103.17,108.75L103.32,108.79L103.49,108.81L103.66,108.80L103.82,108.75L103.93,108.68L104.00,108.59L104.02,108.49L103.98,108.39L103.89,108.31L103.75,108.24L103.59,108.21L103.42,108.21L103.33,108.22L103.25,108.24L103.12,108.30L103.02,108.38L102.97,108.48L102.98,108.51"/><path style="stroke:#000000;stroke-width:0.088" d="M102.46,102.26L102.81,101.90L103.42,101.58L104.17,101.37L104.99,101.29L105.81,101.36L106.57,101.57L107.18,101.90L107.54,102.25"/><path style="stroke:#000000;stroke-width:0.088" d="M102.58,102.43L102.27,101.99L102.21,101.51L102.39,101.04L102.81,100.62L102.97,100.53L103.42,100.29L104.17,100.08L104.99,100.01L105.81,100.08L106.57,100.28L107.18,100.61L107.60,101.03L107.64,101.10L107.79,101.50L107.73,101.98L107.43,102.43L106.91,102.80L106.22,103.08L106.20,103.08L105.43,103.22L104.59,103.22L103.80,103.08L103.10,102.81L102.58,102.43"/><path style="stroke:#000000;stroke-width:0.088" d="M103.81,108.75L103.86,108.72L103.92,108.65L103.93,108.56L103.90,108.48L103.82,108.41L103.71,108.36L103.57,108.33L103.43,108.33L103.29,108.36L103.28,108.36L103.18,108.41L103.10,108.48L103.06,108.56L103.07,108.64L103.13,108.72L103.18,108.75"/><path style="stroke:#000000;stroke-width:0.088" d="M110.42,107.00L110.43,107.10L110.50,107.19L110.61,107.27L110.76,107.32L110.93,107.33L111.10,107.32L111.26,107.27L111.37,107.20L111.44,107.11L111.46,107.01L111.42,106.91L111.33,106.83L111.19,106.76L111.03,106.73L110.86,106.73L110.77,106.74L110.69,106.76L110.55,106.82L110.46,106.91L110.42,107.00"/><path style="stroke:#000000;stroke-width:0.088" d="M111.25,107.27L111.30,107.24L111.36,107.17L111.37,107.08L111.34,107.00L111.26,106.93L111.15,106.88L111.01,106.85L110.99,106.85L110.87,106.85L110.79,106.86L110.73,106.88L110.62,106.93L110.54,107.00L110.50,107.08L110.51,107.16L110.57,107.24L110.62,107.27"/><path style="stroke:#000000;stroke-width:0.088" d="M113.74,104.15L113.65,103.32L113.32,102.51L112.77,101.74L112.01,101.03L111.29,100.56"/><path style="stroke:#000000;stroke-width:0.088" d="M112.59,102.86L112.43,102.87L112.26,102.86L112.11,102.81L112.00,102.73L111.93,102.64L111.92,102.54L111.96,102.45L112.06,102.36L112.19,102.30L112.27,102.28L112.36,102.27L112.53,102.27L112.58,102.28L112.69,102.31L112.83,102.37L112.92,102.45L112.96,102.55L112.95,102.65L112.88,102.74L112.76,102.81L112.60,102.86L112.59,102.86"/><path style="stroke:#000000;stroke-width:0.088" d="M112.12,102.81L112.07,102.78L112.01,102.70L112.00,102.62L112.04,102.54L112.12,102.47L112.22,102.43L112.23,102.42L112.37,102.39L112.52,102.39L112.65,102.42L112.76,102.47L112.84,102.54L112.87,102.62L112.86,102.71L112.80,102.78L112.75,102.81"/><path style="stroke:#000000;stroke-width:0.088" d="M88.50,80.77L88.31,79.61L88.31,74.32L88.50,75.48L88.93,76.62L89.59,77.72L90.48,78.77L91.57,79.74L92.87,80.63L94.34,81.43L95.97,82.12L97.73,82.69L99.59,83.13L101.54,83.44L103.53,83.61L105.55,83.64L107.55,83.54L109.52,83.29L111.43,82.91L113.24,82.39L114.93,81.76L116.48,81.01L117.85,80.16L119.04,79.22L120.03,78.21L120.80,77.13L121.06,76.58L121.33,76.01L121.63,74.86L121.69,73.69L121.69,78.99L121.63,80.14L121.33,81.29L120.80,82.41L120.03,83.49L119.04,84.51L117.85,85.45L116.68,86.17L116.48,86.30L114.93,87.04L113.24,87.68L111.43,88.19L109.52,88.57L107.55,88.82L105.55,88.93L103.80,88.90L103.53,88.89L101.54,88.72L99.59,88.41L97.73,87.97L95.97,87.40L94.34,86.71L92.87,85.92L91.57,85.02L90.48,84.05L89.59,83.00L88.93,81.90L88.50,80.77"/><path style="stroke:#000000;stroke-width:0.088" d="M88.31,74.32L88.37,73.16L88.61,72.17L88.67,72.01L89.20,70.89L89.97,69.81L90.95,68.79L92.15,67.86L93.52,67.01L95.07,66.26L96.62,65.68L96.76,65.62L98.57,65.11L100.48,64.73L102.45,64.48L104.45,64.37L106.47,64.41L107.00,64.45L108.46,64.58L110.41,64.89L112.27,65.33L114.03,65.90L115.66,66.59L116.46,67.02L117.13,67.38L118.42,68.28L119.52,69.25L120.41,70.30L121.07,71.40L121.50,72.54L121.69,73.69"/><path style="stroke:#000000;stroke-width:0.088" d="M91.82,73.40L91.57,73.26L91.31,72.96L91.24,72.63L91.27,72.47L91.35,72.30L91.64,72.02L92.07,71.80L92.61,71.67L93.18,71.66L93.73,71.75L94.21,71.94L94.55,72.21L94.72,72.52L94.70,72.86L94.50,73.17L94.13,73.42L93.64,73.60L93.08,73.67L92.50,73.63L91.98,73.49L91.82,73.40"/><path style="stroke:#000000;stroke-width:0.088" d="M94.07,73.44L94.27,73.31L94.44,73.04L94.46,72.76L94.31,72.49L94.02,72.26L93.62,72.10L93.15,72.02L92.66,72.04L92.21,72.14L91.84,72.33L91.82,72.34L91.59,72.57L91.50,72.85L91.56,73.13L91.78,73.37"/><path style="stroke:#000000;stroke-width:0.088" d="M97.31,75.81L97.51,75.84L97.71,75.83L97.89,75.79L98.04,75.71L98.14,75.60L98.17,75.49L98.14,75.38L98.04,75.27L97.90,75.19L97.71,75.15L97.51,75.14L97.41,75.15L97.32,75.16L97.15,75.23L97.02,75.32L96.96,75.43L96.96,75.54L97.02,75.65L97.14,75.75L97.31,75.81"/><path style="stroke:#000000;stroke-width:0.088" d="M98.82,75.27L98.52,74.57L98.45,73.86L98.62,73.14L99.02,72.46L99.56,71.91L99.63,71.83L100.44,71.29L101.42,70.84L102.52,70.50L103.71,70.30L104.95,70.22L106.25,70.29L107.39,70.48L108.51,70.81L109.39,71.21L109.49,71.25L110.31,71.79L110.95,72.41L111.36,73.09L111.55,73.80L111.50,74.52L111.21,75.22L110.70,75.88L109.99,76.47L109.09,76.97L108.04,77.36L106.89,77.63L106.20,77.71L105.67,77.78L104.42,77.78L103.20,77.65L102.04,77.39L100.98,77.00L100.07,76.51L99.34,75.92L98.82,75.27"/><path style="stroke:#000000;stroke-width:0.088" d="M99.01,71.38L98.81,71.35L98.64,71.29L98.52,71.20L98.46,71.09L98.46,70.97L98.52,70.86L98.65,70.77L98.82,70.70L99.01,70.68L99.18,70.68L99.40,70.73L99.55,70.81L99.64,70.92L99.67,71.03L99.64,71.15L99.54,71.25L99.39,71.33L99.21,71.37L99.01,71.38"/><path style="stroke:#000000;stroke-width:0.088" d="M99.53,76.08L99.63,75.98L100.44,75.43L101.42,74.98L102.52,74.64L103.71,74.44L104.95,74.36L106.25,74.43L107.39,74.62L108.51,74.95L109.49,75.39L110.31,75.93L110.46,76.08"/><path style="stroke:#000000;stroke-width:0.088" d="M102.96,78.30L102.90,78.41L102.89,78.53L102.96,78.64L103.08,78.73L103.25,78.79L103.44,78.82L103.65,78.81L103.83,78.77L103.98,78.69L104.08,78.59L104.11,78.47L104.08,78.36L103.98,78.25L103.84,78.17L103.65,78.13L103.45,78.12L103.25,78.14L103.09,78.21L102.96,78.30"/><path style="stroke:#000000;stroke-width:0.088" d="M105.90,69.49L105.96,69.38L106.09,69.29L106.26,69.23L106.45,69.20L106.62,69.20L106.84,69.26L106.99,69.33L107.08,69.44L107.11,69.55L107.08,69.67L106.98,69.77L106.83,69.85L106.65,69.89L106.45,69.90L106.25,69.87L106.08,69.81L105.96,69.72L105.90,69.61L105.90,69.49"/><path style="stroke:#000000;stroke-width:0.088" d="M110.89,76.64L110.70,76.67L110.53,76.73L110.40,76.82L110.34,76.93L110.33,77.05L110.40,77.16L110.52,77.25L110.69,77.31L110.88,77.34L111.09,77.33L111.27,77.29L111.42,77.21L111.52,77.11L111.55,76.99L111.52,76.88L111.42,76.77L111.28,76.69L111.09,76.65L110.89,76.64"/><path style="stroke:#000000;stroke-width:0.088" d="M112.50,72.88L112.39,72.88L112.19,72.85L112.02,72.79L111.90,72.70L111.84,72.59L111.84,72.47L111.90,72.36L112.03,72.27L112.20,72.21L112.39,72.18L112.59,72.19L112.78,72.24L112.92,72.31L113.02,72.42L113.05,72.53L113.02,72.65L112.92,72.75L112.77,72.83L112.59,72.87L112.50,72.88"/><path style="stroke:#000000;stroke-width:0.088" d="M116.58,75.79L116.52,75.77L116.31,75.66L116.18,75.51L116.14,75.35L116.19,75.18L116.34,75.04L116.55,74.93L116.82,74.87L117.10,74.86L117.38,74.90L117.62,74.99L117.79,75.13L117.88,75.28L117.87,75.45L117.78,75.61L117.63,75.71L117.59,75.74L117.35,75.82L117.07,75.86L116.78,75.84L116.58,75.79"/><path style="stroke:#000000;stroke-width:0.088" d="M91.04,23.14L91.04,19.95L91.04,20.43L104.12,27.98L104.12,31.98L91.04,24.43L91.04,23.14L91.04,23.94"/><path style="stroke:#000000;stroke-width:0.088" d="M91.04,20.75L91.04,20.43"/><path style="stroke:#000000;stroke-width:0.088" d="M91.04,19.58L91.04,19.95L91.04,19.42L104.12,11.86L105.88,11.86L118.96,19.42L118.96,20.43L110.12,25.53L105.88,27.98L104.12,27.98"/><path style="stroke:#000000;stroke-width:0.088" d="M91.04,19.95L91.04,19.63"/><path style="stroke:#000000;stroke-width:0.088" d="M115.40,43.80L115.18,44.44L114.98,44.82L114.85,45.07L114.40,45.67L113.84,46.24L113.17,46.78L112.42,47.26L111.57,47.70L110.65,48.08L110.08,48.27L109.66,48.41L108.61,48.67L107.53,48.86L106.41,48.98L105.28,49.03L104.14,49.02L103.02,48.93L101.92,48.77L101.41,48.66L100.85,48.54L99.83,48.25L98.88,47.90L97.99,47.49L97.19,47.02L96.48,46.51L95.87,45.96L95.36,45.37L94.97,44.76L94.70,44.12L94.64,43.88L94.70,44.16L94.98,44.80L95.39,45.45L95.89,46.03L96.16,46.28L96.50,46.58L97.21,47.09L98.04,47.57L98.92,47.98L99.87,48.33L100.88,48.62L101.12,48.67L101.94,48.84L103.03,49.00L104.15,49.09L105.28,49.11L106.40,49.06L107.51,48.93L107.79,48.88L108.59,48.74L109.63,48.48L110.61,48.16L110.99,48.01L111.52,47.78L112.36,47.35L113.15,46.85L113.81,46.32L114.37,45.75L114.57,45.48L114.84,45.11L115.17,44.49L115.39,43.84L115.49,43.15L115.49,26.43"/><path style="stroke:#000000;stroke-width:0.088" d="M94.64,43.88L94.54,43.47L94.64,43.88"/><path style="stroke:#000000;stroke-width:0.088" d="M94.54,43.47L94.51,42.81L94.53,26.44"/><path style="stroke:#000000;stroke-width:0.088" d="M95.02,20.27L94.82,20.26L94.63,20.22L94.48,20.15L94.38,20.05L94.35,19.95L94.34,19.93L94.37,19.82L94.46,19.72L94.60,19.64L94.78,19.59L94.97,19.57L95.17,19.60L95.34,19.66L95.47,19.75L95.54,19.85L95.55,19.97L95.49,20.08L95.37,20.17L95.21,20.24L95.02,20.27"/><path style="stroke:#000000;stroke-width:0.088" d="M112.38,22.20L112.30,22.00L112.36,21.75L112.55,21.53L112.85,21.35L113.24,21.24L113.33,21.23L113.33,20.52L113.39,19.73L113.23,18.96L112.85,18.21L112.27,17.50L111.50,16.86L110.56,16.29L110.19,16.13L109.48,15.82L108.27,15.46L108.27,16.17L108.23,16.20L107.88,16.34L107.47,16.41L107.04,16.40L106.63,16.31L106.30,16.15L106.08,15.94L106.03,15.83L104.67,15.79L103.33,15.89L102.03,16.10L100.80,16.44L99.69,16.88L98.71,17.43L97.90,18.05L97.27,18.75L97.27,18.03L97.17,17.98L96.79,17.87L96.36,17.83L95.94,17.88L95.56,18.00L95.27,18.19L95.11,18.42L95.08,18.67L95.20,18.91L95.44,19.11L95.79,19.26L96.20,19.34L96.67,19.33L96.61,20.11L96.77,20.89L97.10,21.54L97.15,21.64L97.73,22.35L98.50,22.99L99.44,23.55L100.52,24.02L101.72,24.38L101.72,25.10L101.93,24.99L102.32,24.88L102.75,24.85L103.17,24.90L103.54,25.03L103.82,25.22L103.84,25.25"/><path style="stroke:#000000;stroke-width:0.088" d="M96.62,26.83L96.50,26.46L96.47,26.03L96.56,25.67L96.76,25.43L97.05,25.34L97.40,25.40L97.77,25.62L98.11,25.95L98.21,26.10L98.40,26.38L98.60,26.85L98.69,27.31L98.66,27.72L98.51,28.02L98.26,28.18L98.21,28.19L97.94,28.20L97.58,28.06L97.22,27.78L96.90,27.39L96.65,26.94L96.62,26.83"/><path style="stroke:#000000;stroke-width:0.088" d="M98.32,28.14L98.18,28.17L98.01,28.16L97.84,28.10L97.65,28.02L97.52,27.93L97.47,27.89L97.29,27.74L97.12,27.55L96.97,27.35L96.84,27.13L96.72,26.89L96.64,26.66L96.58,26.42L96.55,26.19L96.55,25.98L96.58,25.79L96.64,25.62L96.73,25.49L96.81,25.42"/><path style="stroke:#000000;stroke-width:0.088" d="M98.57,27.90L98.54,27.94L98.43,28.04L98.30,28.10L98.15,28.13L97.99,28.12L97.82,28.07L97.64,27.98L97.46,27.86L97.29,27.71L97.13,27.53L96.98,27.34L96.85,27.12L96.74,26.90L96.66,26.67L96.60,26.44L96.59,26.33L96.57,26.22L96.57,26.01L96.60,25.83L96.62,25.79L96.66,25.67L96.74,25.54L96.85,25.44L96.98,25.38L97.13,25.35"/><path style="stroke:#000000;stroke-width:0.088" d="M96.65,20.29L96.67,20.04L97.03,19.96L97.37,19.80L97.60,19.59L97.69,19.35L97.65,19.10L97.47,18.88L97.27,18.75"/><path style="stroke:#000000;stroke-width:0.088" d="M96.67,20.04L96.67,19.33"/><path style="stroke:#000000;stroke-width:0.088" d="M97.27,18.03L97.90,17.34L98.71,16.71L99.69,16.17L100.80,15.73L102.03,15.39L103.33,15.17L104.67,15.08L106.03,15.11L106.03,15.83"/><path style="stroke:#000000;stroke-width:0.088" d="M98.57,21.60L99.00,22.28L99.65,22.91L100.49,23.45L101.49,23.89L102.62,24.22L103.84,24.41L105.10,24.47L106.20,24.40L106.36,24.39L107.56,24.18L108.68,23.83L109.66,23.37L110.47,22.81L111.09,22.18L111.48,21.48L111.64,20.76L111.56,20.03L111.25,19.33L110.70,18.67L109.95,18.08L109.03,17.58L107.95,17.20L106.77,16.94L105.53,16.81L104.27,16.82L103.03,16.97L101.87,17.25L100.81,17.66L100.30,17.92L99.91,18.17L99.69,18.35L99.20,18.77L98.69,19.44L98.41,20.15L98.37,20.88L98.57,21.60"/><path style="stroke:#000000;stroke-width:0.088" d="M99.59,22.85L99.58,21.02L99.67,20.56L99.89,20.08L100.22,19.64L100.65,19.24L101.18,18.89L101.80,18.58L102.48,18.33L103.22,18.14L104.00,18.02L104.79,17.97L105.60,17.99L106.39,18.07L107.15,18.23L107.86,18.44L108.51,18.72L109.09,19.06L109.57,19.43L109.95,19.84L110.23,20.30L110.38,20.76L110.42,21.25L110.33,21.72L110.12,22.17L109.79,22.60L109.39,22.97L108.84,23.35L108.22,23.65L107.54,23.90L107.39,23.94L106.79,24.09L106.01,24.21L105.21,24.26L104.40,24.25L104.16,24.22L103.60,24.16L102.84,24.00L102.12,23.79L101.47,23.51L101.41,23.47L100.89,23.18L100.41,22.80L100.03,22.39L99.76,21.95L99.61,21.49L99.58,21.02"/><path style="stroke:#000000;stroke-width:0.088" d="M99.58,21.73L99.20,22.05L99.01,22.29"/><path style="stroke:#000000;stroke-width:0.088" d="M99.74,21.54L99.70,21.41L99.67,20.95L99.76,20.49L99.96,20.05L100.04,19.95L100.28,19.63L100.71,19.24L101.23,18.89L101.83,18.59L102.50,18.34L103.23,18.16L104.00,18.04L104.80,17.99L105.59,18.00L106.38,18.09L107.00,18.21L107.13,18.24L107.83,18.46L108.48,18.73L109.04,19.05L109.16,19.15L109.51,19.42L109.89,19.83L110.15,20.27L110.30,20.72L110.33,21.18L110.24,21.63L110.03,22.08L109.72,22.50L109.29,22.89L108.77,23.24L108.17,23.54L107.49,23.79L107.00,23.91L106.76,23.97L105.99,24.09L105.20,24.14L104.41,24.12L103.62,24.04L103.00,23.91L102.87,23.89L102.17,23.67L101.52,23.40L100.96,23.07L100.49,22.70L100.11,22.30L99.85,21.86L99.74,21.54"/><path style="stroke:#000000;stroke-width:0.088" d="M101.72,24.38L101.63,24.45L101.44,24.68L101.38,24.92L101.47,25.17L101.69,25.38L102.02,25.54L102.42,25.64L102.85,25.65L103.26,25.58L103.62,25.43L103.87,25.23L103.99,24.99L103.97,24.74L103.97,25.03"/><path style="stroke:#000000;stroke-width:0.088" d="M107.79,48.88L107.79,52.89L107.76,53.22L107.61,53.55L107.35,53.85L107.16,53.99L106.98,54.11L106.53,54.33L106.01,54.48L105.44,54.57L104.86,54.59L104.28,54.53L103.80,54.43L103.73,54.41L103.24,54.23L102.83,53.99L102.51,53.71L102.30,53.39L102.21,53.06L102.21,48.88"/><path style="stroke:#000000;stroke-width:0.088" d="M102.21,21.99L102.01,21.78L101.83,21.43L101.77,21.07L101.83,20.70L102.01,20.35L102.31,20.03L102.71,19.74L103.20,19.51L103.76,19.34L104.36,19.23L105.00,19.20L105.63,19.23L106.23,19.34L106.64,19.46L106.79,19.51L107.28,19.74L107.69,20.02L107.99,20.35L108.17,20.70L108.23,21.06L108.17,21.43L107.99,21.78L107.69,22.10L107.29,22.38L106.80,22.62L106.24,22.79L105.63,22.90L105.00,22.93L104.37,22.90L103.77,22.79L103.21,22.62L102.72,22.39L102.31,22.10L102.21,21.99"/><path style="stroke:#000000;stroke-width:0.088" d="M102.96,19.82L103.34,19.65L103.88,19.49L104.45,19.40L105.04,19.37L105.63,19.41L106.20,19.51L106.73,19.68L107.18,19.90L107.25,19.95L107.56,20.17L107.83,20.47L108.00,20.80L108.06,21.14L108.00,21.49L107.82,21.82L107.54,22.12L107.16,22.38L106.70,22.60L106.20,22.76L105.61,22.87L105.01,22.90L104.42,22.87L103.85,22.77L103.32,22.61L102.86,22.40L102.78,22.34L102.47,22.13L102.19,21.83L102.01,21.50L101.94,21.16L101.99,20.82L102.15,20.49L102.43,20.18L102.72,19.96L103.65,20.50L103.43,20.69L103.28,20.95L103.26,21.22L103.36,21.48L103.57,21.72L103.80,21.86L103.89,21.92L104.29,22.06L104.74,22.13L105.20,22.14L105.65,22.07L106.06,21.94L106.39,21.75L106.62,21.51L106.74,21.25L106.73,20.98L106.60,20.72L106.35,20.50L106.01,20.31L105.60,20.19L105.14,20.13L104.68,20.14L104.23,20.23L103.89,20.35L102.94,19.81L102.91,19.82L102.90,19.84L102.90,20.07"/><path style="stroke:#000000;stroke-width:0.088" d="M107.92,21.80L108.09,21.47L108.09,21.47L108.15,21.14L108.09,20.78L107.91,20.44L107.61,20.12L107.22,19.85L106.75,19.62L106.34,19.50L106.20,19.46L105.61,19.35L105.00,19.32L104.38,19.35L103.79,19.46L103.25,19.63L103.10,19.69L102.77,19.85L102.38,20.13L102.09,20.44L101.91,20.78L101.85,21.14L101.91,21.48L101.91,21.47L102.08,21.80"/><path style="stroke:#000000;stroke-width:0.088" d="M102.08,21.79L102.37,22.11L102.76,22.38"/><path style="stroke:#000000;stroke-width:0.088" d="M102.72,19.96L102.68,19.95L102.67,19.96L102.37,20.19L102.09,20.50L101.91,20.86L101.86,21.18"/><path style="stroke:#000000;stroke-width:0.088" d="M102.21,53.06L102.31,53.44L102.54,53.78L102.85,54.06L103.29,54.31L103.77,54.49L104.30,54.61L104.86,54.66L105.43,54.64L105.98,54.56L106.49,54.41L106.93,54.20L107.32,53.92L107.58,53.63L107.61,53.59L107.76,53.27L107.76,53.22"/><path style="stroke:#000000;stroke-width:0.088" d="M107.25,22.38L106.77,22.60L106.22,22.77L105.62,22.88L105.00,22.92L104.38,22.88L103.78,22.78L103.23,22.61L102.75,22.38"/><path style="stroke:#000000;stroke-width:0.088" d="M102.67,19.96L102.66,19.97"/><path style="stroke:#000000;stroke-width:0.088" d="M102.92,19.81L103.32,19.64L103.86,19.48L104.44,19.38L105.04,19.35L105.54,19.38L105.65,19.39L106.22,19.50L106.76,19.67L107.22,19.89L107.62,20.17L107.91,20.50L108.09,20.84L108.14,21.18"/><path style="stroke:#000000;stroke-width:0.088" d="M103.65,20.50L103.69,20.54L103.71,20.60L103.71,21.77"/><path style="stroke:#000000;stroke-width:0.088" d="M103.42,21.50L103.63,21.72L103.93,21.91L104.31,22.04L104.74,22.12L105.20,22.12L105.63,22.06L106.03,21.93L106.35,21.74"/><path style="stroke:#000000;stroke-width:0.088" d="M103.71,20.60L103.51,20.79L103.37,21.03L103.34,21.28"/><path style="stroke:#000000;stroke-width:0.088" d="M103.34,21.26L103.43,21.51"/><path style="stroke:#000000;stroke-width:0.088" d="M104.12,31.98L105.88,31.98L105.88,27.98"/><path style="stroke:#000000;stroke-width:0.088" d="M104.50,25.53L104.42,25.63L104.39,25.74L104.44,25.85L104.54,25.95L104.60,25.98L104.69,26.03L104.87,26.07L105.07,26.07L105.26,26.04L105.40,25.99L105.43,25.97L105.54,25.88L105.60,25.77L105.59,25.66L105.52,25.55L105.39,25.46L105.22,25.40L105.03,25.38L104.83,25.39L104.65,25.44L104.50,25.53"/><path style="stroke:#000000;stroke-width:0.088" d="M113.33,20.52L113.67,20.50L114.09,20.55L114.46,20.68L114.74,20.87L114.90,21.10L114.91,21.35L114.79,21.59L114.54,21.79L114.19,21.94L113.77,22.01L113.34,22.00L112.94,21.90L112.73,21.81L112.10,22.51L111.29,23.13L110.31,23.67L109.20,24.12L107.97,24.45L106.67,24.67L105.33,24.76L103.97,24.74"/><path style="stroke:#000000;stroke-width:0.088" d="M103.96,21.92L103.96,20.46L103.94,20.41L103.89,20.35"/><path style="stroke:#000000;stroke-width:0.088" d="M103.96,20.46L104.27,20.35L104.69,20.26L105.13,20.25L105.57,20.31L105.96,20.42L106.28,20.60L106.52,20.82L106.64,21.06L106.65,21.31"/><path style="stroke:#000000;stroke-width:0.088" d="M104.43,14.24L104.54,14.34L104.69,14.42L104.87,14.46L105.07,14.46L105.26,14.43L105.43,14.36L105.54,14.27L105.60,14.16L105.59,14.05L105.52,13.94L105.39,13.85L105.22,13.79L105.03,13.77L104.83,13.78L104.65,13.83L104.57,13.87L104.51,13.91L104.42,14.02L104.40,14.13L104.43,14.24"/><path style="stroke:#000000;stroke-width:0.088" d="M105.88,31.98L112.62,28.08"/><path style="stroke:#000000;stroke-width:0.088" d="M108.27,15.46L108.48,15.28L108.61,15.04L108.59,14.80L108.44,14.56L108.16,14.37L107.79,14.24L107.37,14.19L106.94,14.22L106.55,14.33L106.24,14.51L106.05,14.73L106.00,14.98L106.03,15.11"/><path style="stroke:#000000;stroke-width:0.088" d="M106.55,21.53L106.33,21.75"/><path style="stroke:#000000;stroke-width:0.088" d="M106.65,21.30L106.55,21.53"/><path style="stroke:#000000;stroke-width:0.088" d="M107.25,22.38L107.63,22.11L107.92,21.79"/><path style="stroke:#000000;stroke-width:0.088" d="M108.27,16.17L109.48,16.54L110.19,16.85L110.56,17.01L111.50,17.57L112.27,18.21L112.85,18.92L113.23,19.67L113.35,20.26"/><path style="stroke:#000000;stroke-width:0.088" d="M110.41,22.85L110.42,21.25"/><path style="stroke:#000000;stroke-width:0.088" d="M110.42,21.73L110.70,21.95L110.98,22.29"/><path style="stroke:#000000;stroke-width:0.088" d="M110.38,20.77L110.39,20.78"/><path style="stroke:#000000;stroke-width:0.088" d="M112.59,28.11L118.96,24.43L118.96,24.24"/><path style="stroke:#000000;stroke-width:0.088" d="M114.62,20.16L114.78,20.23L114.97,20.27L115.17,20.27L115.35,20.23L115.51,20.15L115.61,20.06L115.66,19.95L115.64,19.83L115.55,19.73L115.42,19.64L115.24,19.59L115.04,19.57L114.98,19.58L114.85,19.59L114.67,19.65L114.54,19.74L114.47,19.84L114.45,19.96L114.51,20.07L114.62,20.16"/><path style="stroke:#000000;stroke-width:0.088" d="M118.96,24.43L118.96,20.43"/><path style="stroke:#000000;stroke-width:0.088" d="M118.96,19.42L118.96,19.44"/><path style="fill:#ffffff" d="M172.44,62.32L198.86,62.32L198.86,56.68L172.44,56.68z"/><path style="stroke:#35414c;stroke-width:0.255" d="M172.44,62.32L198.86,62.32L198.86,56.68L172.44,56.68z"/><path style="stroke:#35404c;stroke-width:0.250;stroke-opacity:0.00" d="M172.44,62.32L198.86,62.32L198.86,56.68L172.44,56.68z"/><text xml:space="preserve" fill="#333f4b" stroke-width="0" x="173.15" y="60.73" font-size="3.44" opacity="1.00" font-family="Arial" font-weight="bold" font-style="italic">CL4025</text><path style="fill:#ffffff" d="M172.45,72.36L198.86,72.36L198.86,66.72L172.44,66.72z"/><path style="stroke:#35414c;stroke-width:0.255" d="M172.45,72.36L198.86,72.36L198.86,66.72L172.44,66.72z"/><path style="stroke:#35404c;stroke-width:0.250;stroke-opacity:0.00" d="M172.45,72.36L198.86,72.36L198.86,66.72L172.44,66.72z"/><text xml:space="preserve" fill="#333f4b" stroke-width="0" x="173.15" y="70.77" font-size="3.49" opacity="1.00" font-family="Arial" font-weight="bold" font-style="italic">F24102151A</text><path style="fill:#ffffff" d="M172.45,82.40L198.86,82.40L198.86,76.75L172.44,76.75z"/><path style="stroke:#35414c;stroke-width:0.255" d="M172.45,82.40L198.86,82.40L198.86,76.75L172.44,76.75z"/><path style="stroke:#35404c;stroke-width:0.250;stroke-opacity:0.00" d="M172.45,82.40L198.86,82.40L198.86,76.75L172.44,76.75z"/><text xml:space="preserve" fill="#333f4b" stroke-width="0" x="173.15" y="80.81" font-size="3.49" opacity="1.00" font-family="Arial" font-weight="bold" font-style="italic">F24102152A</text><path style="fill:#ffffff" d="M172.45,92.44L198.86,92.44L198.86,86.79L172.44,86.79z"/><path style="stroke:#35414c;stroke-width:0.255" d="M172.45,92.44L198.86,92.44L198.86,86.79L172.44,86.79z"/><path style="stroke:#35404c;stroke-width:0.250;stroke-opacity:0.00" d="M172.45,92.44L198.86,92.44L198.86,86.79L172.44,86.79z"/><text xml:space="preserve" fill="#333f4b" stroke-width="0" x="173.15" y="90.85" font-size="3.48" opacity="1.00" font-family="Arial" font-weight="bold" font-style="italic">RI9300</text><g id="paperID" visibility="hidden" opacity="0.00" transform="scale(0.000100)"><path style="stroke:#000000;stroke-width:0.500;fill:#e6e6e6;fill-rule:evenodd" d="M-2000.00,-2000.00L2210.00,-2000.00L2210.00,2150.00L-2000.00,2150.00zM0.00,0.00L210.00,0.00L210.00,150.00L0.00,150.00z"/><path style="fill:#000000;fill-opacity:0.118" d="M3.00,150.00L210.00,150.00L210.00,3.00L213.00,3.00L213.00,153.00L3.00,153.00z"/></g><g id="hotspot.0" onmouseover="ShowHotSpot(evt,'0')" onmouseout="HideHotSpot(evt,'0')" onmousemove="ShowToolTip(evt,'0',&quot;VITE_UNI5931_M6x16-FC-COM.ARA.1&quot;)" opacity="0"><path style="fill:#00ff00;fill-rule:evenodd" d="M199.11,57.11L199.10,62.27L198.81,62.78L172.39,62.71L172.39,56.95L198.85,56.85zM107.95,121.06L108.76,122.11L109.01,124.50L109.29,124.75L110.34,126.07L110.34,129.89L109.43,131.09L107.95,131.98L105.75,132.43L104.25,132.43L102.65,132.18L100.84,131.35L99.74,130.07L99.74,125.89L101.10,124.34L101.33,121.93L102.05,121.06L103.11,120.52L103.47,120.56L103.91,120.32L106.10,120.27z"/></g><g id="hotspot.1" onmouseover="ShowHotSpot(evt,'1')" onmouseout="HideHotSpot(evt,'1')" onmousemove="ShowToolTip(evt,'1',&quot;F24102151A&quot;)" opacity="0"><path style="fill:#00ff00;fill-rule:evenodd" d="M199.11,67.15L199.10,72.31L198.81,72.81L172.39,72.74L172.39,66.99L198.85,66.89zM109.26,98.89L112.17,101.26L113.23,102.58L113.76,104.16L113.76,105.84L113.50,106.90L112.46,108.24L109.45,110.24L107.08,111.04L102.92,111.04L100.55,110.24L97.66,108.37L96.60,107.06L96.33,105.75L96.32,103.98L96.77,102.58L97.55,101.51L100.55,98.96L102.05,98.35L103.37,98.09L106.63,98.09z"/></g><g id="hotspot.2" onmouseover="ShowHotSpot(evt,'2')" onmouseout="HideHotSpot(evt,'2')" onmousemove="ShowToolTip(evt,'2',&quot;F24102152A&quot;)" opacity="0"><path style="fill:#00ff00;fill-rule:evenodd" d="M109.00,64.81L113.48,65.87L117.46,67.71L119.33,69.27L120.89,71.15L121.68,73.52L121.68,79.95L121.43,81.28L119.99,83.80L117.49,85.79L113.75,87.60L111.31,88.32L108.39,88.84L101.61,88.84L98.69,88.32L95.78,87.54L91.86,85.39L90.27,84.07L88.65,81.46L88.40,80.13L88.39,73.34L89.22,71.00L91.06,68.87L93.07,67.45L96.52,65.87L100.73,64.81L103.37,64.54L106.63,64.54zM199.11,77.19L199.10,82.35L198.81,82.85L172.39,82.78L172.39,77.03L198.85,76.92zM107.69,74.84L110.10,75.90L110.34,76.27L108.92,77.23L106.81,77.75L103.19,77.75L101.08,77.23L99.74,76.41L99.74,76.01L102.31,74.84L103.64,74.58L106.36,74.58z"/></g><g id="hotspot.3" onmouseover="ShowHotSpot(evt,'3')" onmouseout="HideHotSpot(evt,'3')" onmousemove="ShowToolTip(evt,'3',&quot;RI9300&quot;)" opacity="0"><path style="fill:#00ff00;fill-rule:evenodd" d="M117.73,18.84L118.80,19.62L118.78,24.74L115.52,26.51L115.36,44.30L115.00,45.00L113.78,46.43L111.39,47.99L107.94,49.03L107.70,53.55L106.56,54.52L103.44,54.52L102.41,53.71L102.17,49.19L101.91,48.92L99.75,48.44L97.11,47.11L95.29,45.50L94.73,44.48L94.48,26.51L91.22,24.74L91.31,19.46L104.15,11.96L105.85,11.96zM199.11,87.23L199.10,92.38L198.81,92.89L172.39,92.82L172.39,87.07L198.85,86.96z"/></g></g></svg>
