<?xml version="1.0" encoding="UTF-8" standalone="no"?>
<svg xmlns="http://www.w3.org/2000/svg" xmlns:xlink="http://www.w3.org/1999/xlink" width="210.000mm" height="150.000mm" viewBox="0.000000 0.000000 210.000000 150.000000" stroke-linejoin="round" stroke-linecap="round" fill="none" fill-rule="evenodd"><desc>Composer Export</desc><script type="text/ecmascript"><![CDATA[
if(typeof(top) != "undefined")
{
	top.ShowPaper = ShowPaper;
}
function ShowHotSpot(evt,hotspotid)
{
	var svgDocument = evt.target.ownerDocument;
	var strId = "hotspot."+hotspotid;
	var hotspot = svgDocument.getElementById(strId);
	if(hotspot)
		hotspot.setAttribute("opacity",".5");
}
function HideHotSpot(evt,hotspotid)
{
	var svgDocument = evt.target.ownerDocument;
	var strId = "hotspot."+hotspotid;
	var hotspot = svgDocument.getElementById(strId);
	if(hotspot)
		hotspot.setAttribute("opacity","0");

	var toolTip = svgDocument.getElementById('ToolTip');
	if(toolTip)
		toolTip.setAttribute("visibility","hidden");
}
function ShowToolTip(evt,hotspotid,strTooltip)
{
	if(strTooltip=="")
	return;

	// change text
	var svgDocument = evt.target.ownerDocument;
	var tiptext = svgDocument.getElementById('ToolTipText');
	if( !tiptext )
	return;
	tiptext.firstChild.nodeValue = " " + strTooltip + "  " ;

	// show tooltip before, else some refresh issue

	var toolTip = svgDocument.getElementById('ToolTip');
	if(!toolTip)
	return;

	toolTip.setAttribute("visibility","visible");
	toolTip.setAttribute("opacity",".95");

	// move tooltip
	// get viewbox

	var root = svgDocument.documentElement;
	var vbox = (root.getAttribute("viewBox")).split(' ');
	var x0 = parseFloat(vbox[0]);
	var y0 = parseFloat(vbox[1]);
	var vboxW = parseFloat(vbox[2]);
	var vboxH = parseFloat(vbox[3]);

	// get default width of svg

	var strW = root.getAttribute("width");
	var svgW = parseFloat(strW);
	if(strW.indexOf('mm') != -1)
	svgW *= 3.779;

	var strH = root.getAttribute("height");
	var svgH = parseFloat(strH);
	if(strH.indexOf('mm') != -1)
	svgH *= 3.779;  	// 96 dpi  -> 96/25.4 = 3.779

	// update the viewbox / width / height if svg is embedded in html with zoom fit all
	var realx0 = x0;
	var realy0 = y0;
	var realvboxW = vboxW;
	var realvboxH = vboxH;
	var realsvgW = svgW;
	var realsvgH = svgH;

	if ((typeof(top) == "undefined") || (typeof(top.svgctl1) != "undefined")) // embedded in html
	{
		// get window size in pxl

		svgW = window.innerWidth;
		svgH = window.innerHeight;

		// calculate real viewbox

		realsvgW = svgW;
		realsvgH = svgH;
		if((svgW / svgH) > (vboxW / vboxH))
		{
			realvboxW = (vboxH * svgW) / svgH;
			realvboxH = vboxH;
			realx0 = x0 - (realvboxW - vboxW)/2 ;
		}
		else
		{
			realvboxH = (vboxW * svgH) / svgW;
			realvboxW = vboxW;
			realy0 = y0 - (realvboxH - vboxH)/2 ;
		}
	}

	// get user zoom/pan

	var newScale = root.currentScale;
	var translation = root.currentTranslate;

	// transform pxl to user unit

	var xPos = (((evt.clientX+10- translation.x)/newScale) * realvboxW)/realsvgW  + realx0 ;
	var yPos = (((evt.clientY+5- translation.y)/newScale) * realvboxH)/ realsvgH  + realy0 ;
	var scaleForWidth = ( (1 / newScale) * realvboxH) / realsvgH;

	// move tooltip

	toolTip.setAttribute("transform", "translate(" + xPos + "," + yPos + ")" );

	// resize tooltip

	var fontsize = 12;
	tiptext.setAttribute("font-size",fontsize*scaleForWidth);
	tiptext.setAttribute("y", fontsize*scaleForWidth);
	var tipBG = svgDocument.getElementById('ToolTipBG');
	var outline = tiptext.getBBox();
	if(tipBG)
	{
		tipBG.setAttribute("stroke-width", 1*scaleForWidth);
		tipBG.setAttribute("width", Number(outline.width) );
		tipBG.setAttribute("height", Number(outline.height) + fontsize*.5*scaleForWidth );
	}
	var ToolTipShadow = svgDocument.getElementById('ToolTipShadow');
	if(ToolTipShadow)
	{
		ToolTipShadow.setAttribute("width", Number(outline.width) );
		ToolTipShadow.setAttribute("height", Number(outline.height) + fontsize*.5*scaleForWidth );
		ToolTipShadow.setAttribute("x", 3*scaleForWidth);
		ToolTipShadow.setAttribute("y", 3*scaleForWidth);
	}
}
function ShowPaper()
{
  var svgDocument = getDocument();
  var paper = svgDocument.getElementById("paperID");
  if(paper)
  {
    paper.setAttribute("transform","scale(1)");
    paper.setAttribute("opacity","1");
    paper.setAttribute("visibility","visible");
  }
  var svg = svgDocument.getRootElement();
  if(svg)
  {
    svg.setAttribute("width","220.000mm");
    svg.setAttribute("height","160.000mm");
    svg.setAttribute("viewBox","-5.000000 -5.000000 220.000000 160.000000");
  }
}
]]></script><defs/><g><path style="fill:#ffffff" d="M209.93,149.99L0.04,149.99L0.04,0.04L209.93,0.04z"/><path style="fill:#898989" d="M68.01,38.70L68.02,38.85L67.89,38.99L67.87,39.71L68.63,41.99L69.15,42.99L69.89,43.52L70.00,43.79L70.30,44.00L70.30,44.35L69.86,44.25L69.65,44.44L69.65,44.89L69.85,45.11L69.78,45.19L69.27,45.15L68.63,45.03L67.12,44.13L66.99,44.01L66.86,43.17L66.43,38.94L66.94,38.30L67.37,38.30z"/><path style="fill:#898989" d="M60.80,42.87L60.80,43.04L60.60,43.25L60.77,44.27L61.28,45.79L61.91,47.06L62.56,47.56L63.08,48.19L63.08,48.53L62.64,48.43L62.43,48.62L62.43,49.08L62.73,49.26L62.52,49.35L62.18,49.34L61.42,49.20L59.77,48.19L59.21,43.12L59.63,42.52L60.15,42.48z"/><path style="fill:#8aa7bf" d="M69.53,51.35L69.53,52.17L69.14,52.92L68.73,53.27L67.88,53.26L67.61,52.89L67.62,52.28L67.95,51.60L68.72,50.97L69.02,50.97z"/><path style="fill:#01ff02" d="M70.30,44.35L70.42,44.52L71.63,45.23L71.43,45.46L71.35,45.84L69.85,45.11L69.65,44.89L69.65,44.44L69.86,44.25z"/><path style="fill:#01ff02" d="M63.08,48.53L64.50,49.39L64.20,49.63L64.12,50.02L62.73,49.26L62.43,49.08L62.43,48.62L62.64,48.43z"/><path style="fill:#1497e5" d="M147.59,35.38L147.59,39.62L146.65,41.09L101.03,67.45L100.57,67.46L99.43,66.82L99.43,60.53L145.26,34.12L145.43,34.12z"/><path style="fill:#2ac7ce" d="M157.48,41.09L157.55,45.70L162.04,48.31L161.98,49.33L142.18,60.80L132.75,55.40L132.46,55.40L131.32,56.05L131.36,60.74L136.05,63.40L136.22,64.23L131.20,67.08L130.59,67.08L127.70,65.43L125.62,66.58L124.86,66.55L122.62,67.88L122.49,68.38L111.21,74.86L111.21,75.05L112.99,76.07L113.50,76.44L113.50,77.14L113.21,77.48L112.44,77.45L110.20,78.77L110.07,79.28L25.12,128.26L23.11,129.17L21.20,129.55L18.84,129.55L16.68,129.04L14.90,128.16L14.75,128.06L14.78,124.77L17.38,120.28L80.38,83.92L80.80,83.92L81.30,84.19L81.45,84.43L81.52,85.25L82.03,85.07L92.60,78.92L92.97,78.53L93.08,76.86L93.56,76.33L156.03,40.33L156.20,40.33z"/><path style="fill:#2ac7ce" d="M94.87,56.68L95.76,57.31L95.75,64.70L82.57,72.32L82.20,72.41L81.06,71.76L81.06,60.91L81.55,60.27L84.06,58.82L84.22,58.83L85.88,59.84L86.00,62.57L87.53,61.55L88.03,60.91L88.15,60.40L88.28,56.73L88.62,56.18L91.15,54.77L91.58,54.77z"/><path style="fill:#2ac7ce" d="M159.38,77.33L159.38,78.15L156.24,79.98L154.55,80.93L153.58,81.58L153.36,81.65L151.27,82.87L151.09,82.90L148.61,84.40L145.17,86.37L143.49,87.87L142.89,87.86L142.00,87.36L141.74,87.11L141.61,86.50L143.10,84.94L146.23,83.10L149.29,81.35L151.14,80.31L151.18,80.23L152.66,79.42L154.33,78.46L157.67,76.57L158.10,76.57z"/><path style="fill:#ffffff" d="M68.70,52.06L68.56,52.45L68.47,52.42L68.49,52.15L68.65,52.01z"/><path style="fill:#f9840c" d="M81.32,51.82L81.27,51.50L81.35,51.47z"/><path style="fill:#f9840c" d="M82.33,52.46L82.64,51.72L83.12,51.54L83.22,51.61L83.18,52.26L82.79,52.65L82.46,52.64z"/><path style="fill:#f9840c" d="M76.00,55.79L76.00,56.36L75.71,56.70L75.19,56.73L75.10,56.65L75.36,55.98L75.78,55.61z"/><path style="fill:#f9840c" d="M74.10,55.89L74.06,55.57L74.26,55.40z"/><path style="fill:#597ea0" d="M72.32,78.98L72.32,79.67L71.76,80.38L71.05,80.37L70.67,80.12L70.49,79.62L70.86,78.84L71.38,78.47L71.55,78.47z"/><path style="fill:#95dce0" d="M67.88,75.06L67.89,76.63L67.33,76.96L67.24,80.04L64.91,81.39L64.34,81.39L63.95,81.14L63.91,75.82L66.31,74.41L66.74,74.41z"/><path style="fill:#4c4c4c" d="M161.39,64.41L161.91,64.79L161.92,65.23L155.83,68.79L155.57,68.86L150.75,66.06L150.75,65.47L156.79,62.00L157.22,62.00z"/><path style="fill:#4c4c4c" d="M23.14,134.74L23.80,135.23L24.16,136.01L24.16,136.56L23.91,137.32L23.22,137.89L22.23,138.30L21.07,138.42L19.72,138.30L18.73,137.89L18.21,137.52L17.96,137.14L17.94,135.66L18.21,135.17L19.43,134.48L19.94,134.36L22.01,134.36z"/><path style="fill:#898989" d="M71.77,45.80L71.35,45.84L71.43,45.46L71.63,45.23L71.81,45.28z"/><path style="fill:#898989" d="M64.55,49.98L64.12,50.02L64.20,49.63L64.50,49.39L64.59,49.45z"/><path style="fill:#8aa7bf" d="M76.61,47.06L76.76,47.30L76.75,47.99L76.32,48.82L75.69,49.22L75.35,49.22L74.98,48.95L74.84,48.71L74.84,48.10L75.17,47.42L75.94,46.79z"/><path style="fill:#8aa7bf" d="M152.03,77.20L154.33,78.46L152.66,79.42L151.18,80.23L140.06,73.83L140.06,73.42L142.78,71.89z"/><path style="fill:#8aa7bf" d="M149.29,81.35L146.23,83.10L135.16,76.70L135.16,76.24L137.66,74.79L137.95,74.79z"/><path style="fill:#8aa7bf" d="M156.20,80.42L154.26,81.53L153.58,81.58L154.55,80.93L156.24,79.98z"/><path style="fill:#8aa7bf" d="M151.27,83.22L149.19,84.44L148.61,84.40L151.09,82.90L151.27,82.87z"/><path style="fill:#8aa7bf" d="M119.46,91.14L119.45,91.83L119.32,92.21L119.09,92.48L102.06,100.28L101.46,100.27L97.66,97.87L97.66,97.15L98.42,96.64L100.15,95.84L101.98,95.34L102.49,95.71L102.43,96.78L110.84,94.36L111.22,93.86L111.42,93.18L111.93,92.80L118.52,90.90L119.21,90.89z"/><path style="fill:#01ff02" d="M146.78,36.55L146.52,36.59L146.57,36.18L146.82,36.15z"/><path style="fill:#01ff02" d="M146.78,39.72L146.52,39.75L146.57,39.35L146.82,39.32z"/><path style="fill:#01ff02" d="M158.87,47.32L158.88,47.47L158.29,47.47L158.34,47.22L158.61,47.16z"/><path style="fill:#01ff02" d="M125.41,47.91L125.27,48.24L124.98,48.25L125.00,47.97L125.12,47.81L125.29,47.79z"/><path style="fill:#01ff02" d="M76.11,47.91L75.85,48.39L75.67,48.28L75.89,48.00L75.89,47.89L76.01,47.80z"/><path style="fill:#01ff02" d="M153.73,49.95L153.85,49.83L154.31,49.84L154.27,50.10L153.90,50.11z"/><path style="fill:#01ff02" d="M83.12,51.54L82.64,51.72L82.33,52.46L81.44,52.00L81.32,51.82L81.35,51.47L81.77,50.97L82.07,50.97z"/><path style="fill:#01ff02" d="M83.12,51.94L82.94,52.30L82.66,52.30L82.67,52.03L82.80,51.86L83.08,51.86z"/><path style="fill:#01ff02" d="M68.75,52.43L68.56,52.45L68.70,52.06L68.91,52.00z"/><path style="fill:#01ff02" d="M75.78,55.61L75.36,55.98L75.10,56.65L74.22,56.18L74.10,55.89L74.26,55.40L74.55,55.15L74.84,55.15z"/><path style="fill:#01ff02" d="M111.30,56.32L111.04,56.35L111.09,55.96L111.35,55.80z"/><path style="fill:#01ff02" d="M75.90,56.12L75.72,56.48L75.44,56.48L75.45,56.21L75.58,56.04L75.86,56.04z"/><path style="fill:#01ff02" d="M94.11,60.65L93.85,60.79L93.84,60.38L93.96,60.21L94.10,60.22z"/><path style="fill:#01ff02" d="M100.25,62.83L100.32,63.20L100.03,63.20L99.91,63.03L99.89,62.76z"/><path style="fill:#01ff02" d="M94.07,63.80L93.81,63.83L93.85,63.43L94.11,63.39z"/><path style="fill:#01ff02" d="M100.34,66.06L100.32,66.36L100.07,66.33L99.92,66.18L99.89,65.93L100.19,65.91z"/><path style="fill:#01ff02" d="M84.24,66.23L83.97,66.50L83.97,65.96L84.23,65.93z"/><path style="fill:#01ff02" d="M84.18,69.50L83.92,69.53L83.97,69.13L84.23,69.10z"/><path style="fill:#01ff02" d="M144.37,74.41L144.67,74.43L144.68,74.59L144.40,74.55z"/><path style="fill:#01ff02" d="M137.45,76.11L137.15,76.13L137.27,75.92L137.46,75.95z"/><path style="fill:#01ff02" d="M66.74,76.42L66.56,76.84L66.31,76.88L66.35,76.49L66.64,76.32z"/><path style="fill:#01ff02" d="M139.71,77.39L139.42,77.32L139.62,77.21z"/><path style="fill:#01ff02" d="M66.86,79.16L66.70,79.17L66.73,78.89L66.88,78.86z"/><path style="fill:#01ff02" d="M65.23,80.06L65.10,80.19L65.10,79.77L65.23,79.75z"/><path style="fill:#01ff02" d="M21.26,126.90L21.27,127.05L20.68,127.05L20.69,126.90L21.01,126.75z"/><path style="fill:#1497e5" d="M142.18,60.80L143.39,61.51L144.29,63.01L144.30,67.26L143.10,67.98L142.78,67.96L136.44,64.28L136.22,64.23L136.05,63.40L131.36,60.74L131.32,56.05L132.46,55.40L132.75,55.40z"/><path style="fill:#ffffff" d="M75.89,48.00L75.67,48.28L75.73,47.97L75.89,47.89z"/><path style="fill:#ffffff" d="M158.18,63.90L158.87,63.90L158.84,64.03L158.33,64.04z"/><path style="fill:#ffffff" d="M95.13,86.20L92.56,87.74L91.82,87.74L89.28,86.32L89.25,86.21L92.04,84.55L92.33,84.55z"/><path style="fill:#ffffff" d="M20.57,136.13L21.38,136.13L21.35,136.25L20.71,136.27z"/><path style="stroke:#000000;stroke-width:0.088" d="M14.67,128.04L14.67,124.91L15.21,125.22L15.21,127.72L15.58,127.93L15.58,128.56L14.67,128.04"/><path style="stroke:#000000;stroke-width:0.088" d="M14.67,124.91L17.38,120.23L17.47,120.28L16.24,123.46L15.21,125.22"/><path style="stroke:#000000;stroke-width:0.088" d="M15.58,128.56L17.19,129.23L17.57,129.30L19.08,129.59L21.08,129.59L22.97,129.23L24.58,128.56L24.58,128.46L24.58,127.93L22.97,128.61L21.08,128.96L19.08,128.96L17.19,128.61L15.58,127.93"/><path style="stroke:#000000;stroke-width:0.088" d="M15.21,127.72L131.42,60.73"/><path style="stroke:#000000;stroke-width:0.088" d="M16.24,123.46L73.50,90.44L73.59,90.33L73.69,90.00L73.77,89.08L73.77,88.34L80.98,84.19L81.12,84.13L81.24,84.13L81.34,84.19L81.41,84.30L81.43,84.45L81.43,85.39L81.45,85.64L81.52,85.74L81.62,85.80L81.74,85.80L81.88,85.75L81.44,85.50"/><path style="stroke:#000000;stroke-width:0.088" d="M17.47,120.28L73.05,88.24L73.50,90.44"/><path style="stroke:#000000;stroke-width:0.088" d="M17.38,120.23L80.44,83.88L80.58,83.82L80.70,83.82L81.24,84.13"/><path style="stroke:#000000;stroke-width:0.088" d="M20.60,126.92L20.64,126.99L20.71,127.05L20.93,127.11L21.17,127.08L21.27,127.04L21.33,126.97L21.36,126.91L21.35,126.83L21.25,126.74L21.09,126.68L20.97,126.67L20.74,126.72L20.65,126.78L20.60,126.92"/><path style="stroke:#000000;stroke-width:0.088" d="M20.74,127.06L20.67,126.97L20.70,126.86L20.80,126.79L20.97,126.76L21.17,126.80L21.24,126.84L21.29,126.91L21.29,126.97L21.27,127.04L21.23,127.05"/><path style="stroke:#000000;stroke-width:0.088" d="M24.58,128.56L110.08,79.27L110.08,78.85L110.19,78.79L112.59,77.40L112.96,77.60L113.32,77.40L113.32,76.77L24.58,127.93"/><path style="stroke:#000000;stroke-width:0.088" d="M73.05,88.24L73.26,88.18L73.39,88.18L73.50,88.20L73.77,88.34"/><path style="stroke:#000000;stroke-width:0.088" d="M73.77,89.08L73.60,88.24"/><path style="stroke:#000000;stroke-width:0.088" d="M80.44,83.88L80.98,84.19"/><path style="stroke:#000000;stroke-width:0.088" d="M81.43,85.39L92.60,78.95L92.74,78.84L92.87,78.69L92.97,78.52L93.03,78.34L93.07,76.95L93.14,76.77L93.24,76.60L93.36,76.45L93.50,76.34L94.04,76.66L156.65,40.56L157.56,41.08L157.56,45.66L136.74,57.66"/><path style="stroke:#000000;stroke-width:0.088" d="M81.88,85.75L93.14,79.26L93.28,79.15L93.41,79.01L93.51,78.83L93.57,78.65L93.59,78.48L93.59,77.44L93.05,77.12"/><path style="stroke:#000000;stroke-width:0.088" d="M89.18,86.23L92.24,84.46L95.21,86.17L92.60,87.68L92.44,87.75L92.25,87.78L92.05,87.78L91.86,87.75L91.70,87.68L89.09,86.17L88.97,86.08L88.91,85.97L88.91,85.86L88.97,85.75L89.09,85.65L89.09,86.17"/><path style="stroke:#000000;stroke-width:0.088" d="M89.09,85.65L92.69,83.58L92.24,84.36L95.30,86.12"/><path style="stroke:#000000;stroke-width:0.088" d="M88.91,85.86L88.91,85.89"/><path style="stroke:#000000;stroke-width:0.088" d="M92.24,84.36L92.24,84.46"/><path style="stroke:#000000;stroke-width:0.088" d="M92.60,78.95L93.14,79.26"/><path style="stroke:#000000;stroke-width:0.088" d="M95.21,86.17L96.20,85.60L92.69,83.58"/><path style="stroke:#000000;stroke-width:0.088" d="M93.59,78.48L93.05,78.17"/><path style="stroke:#000000;stroke-width:0.088" d="M93.59,77.44L93.61,77.26L93.68,77.08L93.78,76.91L93.90,76.76L94.04,76.66"/><path style="stroke:#000000;stroke-width:0.088" d="M93.50,76.34L156.11,40.25L156.65,40.56"/><path style="stroke:#000000;stroke-width:0.088" d="M98.88,78.66L98.71,78.67L98.58,78.60L98.49,78.46L98.46,78.26L98.48,78.13L98.59,77.80L98.72,77.57L99.08,77.27L99.26,77.22L99.41,77.25L99.52,77.36L99.58,77.52L99.58,77.74L99.52,77.98L99.40,78.21L99.25,78.42L99.07,78.57L98.88,78.66"/><path style="stroke:#000000;stroke-width:0.088" d="M98.77,77.53L98.68,77.77L98.53,77.94"/><path style="stroke:#000000;stroke-width:0.088" d="M98.87,77.41L98.96,77.43L99.01,77.48L99.05,77.57L99.04,77.68L98.95,77.93L98.78,78.12L98.68,78.16L98.59,78.17L98.52,78.13L98.49,78.08"/><path style="stroke:#000000;stroke-width:0.088" d="M99.01,75.47L98.88,75.54L98.71,75.54L98.58,75.48L98.49,75.34L98.46,75.14L98.50,74.91L98.59,74.67L98.72,74.45L98.97,74.22L99.08,74.15L99.26,74.10L99.41,74.13L99.52,74.23L99.58,74.40L99.58,74.62L99.52,74.85L99.40,75.09L99.25,75.29L99.01,75.47"/><path style="stroke:#000000;stroke-width:0.088" d="M98.49,74.95L98.52,75.01L98.59,75.04L98.68,75.04L98.87,74.91L98.95,74.81L99.04,74.56L99.05,74.45L99.01,74.36L98.96,74.31L98.87,74.29"/><path style="stroke:#000000;stroke-width:0.088" d="M98.77,74.40L98.68,74.65L98.53,74.82"/><path style="stroke:#000000;stroke-width:0.088" d="M108.68,71.81L108.99,71.56L109.17,71.51L109.32,71.54L109.43,71.64L109.49,71.81L109.49,72.03L109.43,72.26L109.31,72.50L109.16,72.70L108.98,72.86L108.79,72.95L108.62,72.95L108.49,72.89L108.40,72.75L108.37,72.56L108.41,72.32L108.49,72.08L108.68,71.81L108.59,72.06L108.44,72.23"/><path style="stroke:#000000;stroke-width:0.088" d="M108.78,71.70L108.87,71.72L108.92,71.77L108.96,71.86L108.95,71.97L108.86,72.22L108.69,72.40L108.59,72.45L108.50,72.45L108.43,72.42L108.40,72.36"/><path style="stroke:#000000;stroke-width:0.088" d="M108.59,69.82L108.49,69.76L108.40,69.62L108.37,69.43L108.41,69.20L108.49,68.96L108.63,68.74L108.88,68.51L108.99,68.43L109.17,68.38L109.32,68.41L109.43,68.52L109.49,68.69L109.49,68.90L109.43,69.14L109.31,69.38L109.16,69.58L108.98,69.74L108.79,69.82L108.59,69.82"/><path style="stroke:#000000;stroke-width:0.088" d="M108.78,68.58L108.87,68.59L108.92,68.65L108.95,68.74L108.95,68.85L108.86,69.09L108.69,69.28L108.59,69.32L108.50,69.33L108.43,69.29L108.40,69.24"/><path style="stroke:#000000;stroke-width:0.088" d="M108.44,69.10L108.59,68.94L108.68,68.69"/><path style="stroke:#000000;stroke-width:0.088" d="M110.80,74.70L110.80,74.58L110.86,74.48L110.98,74.38L110.99,74.91L110.86,74.81L110.80,74.70"/><path style="stroke:#000000;stroke-width:0.088" d="M110.98,74.38L128.10,64.51L127.65,65.29L130.51,66.94L130.69,66.94L130.99,66.79L131.18,66.61L131.34,66.38L128.10,64.51"/><path style="stroke:#000000;stroke-width:0.088" d="M113.32,76.77L113.44,76.68L113.50,76.57L113.50,76.45L113.44,76.35L113.32,76.25L110.99,74.91"/><path style="stroke:#000000;stroke-width:0.088" d="M125.03,66.49L125.39,66.70L125.39,66.28L122.51,67.94L122.51,68.36L111.07,74.95"/><path style="stroke:#000000;stroke-width:0.088" d="M112.59,77.40L112.96,77.19L112.96,77.60"/><path style="stroke:#000000;stroke-width:0.088" d="M113.32,77.40L113.44,77.30L113.50,77.19L113.49,76.60"/><path style="stroke:#000000;stroke-width:0.088" d="M121.29,62.46L121.09,62.57L120.91,62.60L120.76,62.54L120.65,62.41L120.62,62.23L120.63,61.98L120.71,61.72L120.85,61.48L121.02,61.28L121.22,61.13L121.41,61.07L121.58,61.08L121.71,61.17L121.78,61.34L121.80,61.56L121.74,61.81L121.63,62.06L121.48,62.28L121.29,62.46"/><path style="stroke:#000000;stroke-width:0.088" d="M121.02,61.28L121.09,61.28L121.16,61.33L121.20,61.41L121.18,61.65L121.12,61.77L121.04,61.88L120.85,62.03L120.76,62.04L120.68,62.01L120.64,61.95"/><path style="stroke:#000000;stroke-width:0.088" d="M120.96,61.36L120.93,61.51L120.88,61.63L120.80,61.74L120.67,61.85"/><path style="stroke:#000000;stroke-width:0.088" d="M125.39,66.70L127.65,65.40L130.44,67.01L130.44,66.90"/><path style="stroke:#000000;stroke-width:0.088" d="M127.65,65.40L127.65,65.29"/><path style="stroke:#000000;stroke-width:0.088" d="M136.16,63.60L131.34,66.38L131.34,67.01L131.18,67.08L130.99,67.11L130.79,67.11L130.60,67.08L130.44,67.01"/><path style="stroke:#000000;stroke-width:0.088" d="M130.98,59.86L130.69,59.69L130.74,59.86L130.81,59.90L130.89,59.90L131.30,59.68"/><path style="stroke:#000000;stroke-width:0.088" d="M131.30,59.00L130.89,59.26L130.74,59.46L130.69,59.69"/><path style="stroke:#000000;stroke-width:0.088" d="M130.83,59.33L131.30,59.06"/><path style="stroke:#000000;stroke-width:0.088" d="M131.34,67.01L136.28,64.16"/><path style="stroke:#000000;stroke-width:0.088" d="M134.87,54.54L134.72,54.49L134.62,54.36L134.57,54.12L134.60,53.93L134.68,53.67L134.81,53.43L134.99,53.23L135.18,53.08L135.37,53.02L135.54,53.03L135.67,53.12L135.75,53.29L135.74,53.59L135.71,53.76L135.60,54.01L135.44,54.23L135.25,54.41L135.06,54.52L134.87,54.54"/><path style="stroke:#000000;stroke-width:0.088" d="M134.64,53.80L134.76,53.69L134.84,53.58L134.90,53.46L134.92,53.30"/><path style="stroke:#000000;stroke-width:0.088" d="M134.60,53.90L134.65,53.96L134.72,53.99L134.82,53.98L135.01,53.83L135.09,53.72L135.17,53.47L135.16,53.36L135.12,53.28L135.06,53.23L134.99,53.23"/><path style="stroke:#000000;stroke-width:0.088" d="M161.97,48.72L161.97,49.35L162.09,49.26L162.15,49.15L162.15,48.52L162.09,48.63L161.97,48.72L141.61,60.47"/><path style="stroke:#000000;stroke-width:0.088" d="M142.06,56.92L142.25,56.95L142.44,56.95L142.62,56.91L142.77,56.84L142.87,56.75L142.90,56.65L142.89,56.53L142.81,56.43L142.67,56.35L142.50,56.30L142.31,56.29L142.13,56.31L141.96,56.36L141.84,56.44L141.76,56.55L141.75,56.66L141.81,56.76L141.91,56.85L142.06,56.92L142.05,56.82L142.09,56.77L142.23,56.70L142.32,56.69L142.42,56.70L142.57,56.77L142.61,56.82L142.60,56.91"/><path style="stroke:#000000;stroke-width:0.088" d="M142.15,60.78L161.97,49.35"/><path style="stroke:#000000;stroke-width:0.088" d="M144.32,58.21L144.50,58.25L144.69,58.25L144.87,58.21L145.02,58.14L145.12,58.04L145.16,57.94L145.14,57.83L145.06,57.73L144.93,57.65L144.75,57.60L144.57,57.58L144.38,57.60L144.21,57.66L144.09,57.74L144.02,57.84L144.01,57.95L144.06,58.06L144.17,58.15L144.32,58.21L144.30,58.12L144.34,58.07L144.40,58.03L144.57,57.99L144.67,58.00L144.82,58.06L144.86,58.11L144.85,58.21"/><path style="stroke:#000000;stroke-width:0.088" d="M153.76,50.01L153.71,49.92L153.71,49.85L153.76,49.78L153.95,49.69L154.20,49.68L154.31,49.72L154.40,49.77L154.45,49.83L154.47,49.91L154.44,49.98L154.37,50.04L154.16,50.11L153.92,50.09L153.76,50.01"/><path style="stroke:#000000;stroke-width:0.088" d="M154.34,50.06L154.40,49.96L154.35,49.84L154.18,49.77L154.08,49.76L153.88,49.80L153.82,49.85L153.77,49.97L153.84,50.06"/><path style="stroke:#000000;stroke-width:0.088" d="M156.50,44.69L156.67,44.55L156.86,44.48L157.03,44.49L157.16,44.59L157.23,44.75L157.25,44.97L157.19,45.22L157.08,45.48L156.93,45.70L156.74,45.87L156.54,45.98L156.36,46.01L156.21,45.95L156.10,45.82L156.06,45.59L156.08,45.39L156.16,45.14L156.30,44.90L156.47,44.69L156.54,44.70L156.61,44.74L156.65,44.83L156.63,45.06L156.57,45.19L156.49,45.30L156.30,45.44L156.21,45.45L156.13,45.43L156.09,45.37"/><path style="stroke:#000000;stroke-width:0.088" d="M156.41,44.77L156.38,44.92L156.33,45.05L156.25,45.16L156.12,45.27"/><path style="stroke:#000000;stroke-width:0.088" d="M156.50,42.86L156.36,42.89L156.21,42.83L156.10,42.70L156.06,42.46L156.08,42.27L156.16,42.01L156.30,41.77L156.50,41.55L156.67,41.43L156.86,41.36L157.03,41.37L157.16,41.47L157.23,41.63L157.25,41.85L157.19,42.10L157.08,42.35L156.93,42.57L156.74,42.75L156.50,42.86"/><path style="stroke:#000000;stroke-width:0.088" d="M156.09,42.25L156.13,42.30L156.21,42.33L156.30,42.32L156.49,42.18L156.57,42.06L156.63,41.94L156.65,41.70L156.61,41.62L156.54,41.57L156.47,41.57"/><path style="stroke:#000000;stroke-width:0.088" d="M156.41,41.65L156.38,41.80L156.33,41.92L156.25,42.04L156.12,42.14"/><path style="stroke:#000000;stroke-width:0.088" d="M157.56,45.66L161.97,48.21L162.09,48.31L162.15,48.41L162.15,48.52"/><path style="stroke:#000000;stroke-width:0.088" d="M158.28,47.31L158.28,47.38L158.28,47.31L158.39,47.21L158.58,47.17L158.69,47.17L158.85,47.25L158.90,47.30L158.89,47.42L158.93,47.40L158.97,47.31L158.96,47.24L158.86,47.14L158.70,47.09L158.46,47.09L158.35,47.13L158.27,47.18L158.22,47.25L158.21,47.32L158.27,47.41L158.42,47.49L158.67,47.51L158.78,47.49L158.89,47.42L158.84,47.46"/><path style="stroke:#000000;stroke-width:0.088" d="M158.28,47.38L158.35,47.46"/><path style="stroke:#000000;stroke-width:0.088" d="M162.15,49.15L162.15,48.41"/><path style="stroke:#000000;stroke-width:0.088" d="M146.65,82.90L135.12,76.25L137.83,74.69L149.36,81.34"/><path style="stroke:#000000;stroke-width:0.088" d="M135.12,76.25L135.12,76.67L146.29,83.11"/><path style="stroke:#000000;stroke-width:0.088" d="M137.28,76.13L137.20,76.10L137.15,76.06L137.13,76.02L137.12,75.97L137.15,75.92L137.20,75.89L137.27,75.86L137.35,75.85L137.43,75.85L137.51,75.87L137.57,75.90L137.62,75.94L137.63,75.99L137.62,76.04L137.58,76.08L137.52,76.11L137.44,76.13L137.36,76.14L137.28,76.13"/><path style="stroke:#000000;stroke-width:0.088" d="M137.55,76.10L137.58,76.06L137.59,76.03L137.57,75.99L137.54,75.95L137.49,75.93L137.42,75.91L137.35,75.91L137.29,75.92L137.26,75.93L137.23,75.94L137.19,75.97L137.17,76.01L137.17,76.05L137.19,76.09L137.22,76.11"/><path style="stroke:#000000;stroke-width:0.088" d="M139.45,77.39L139.53,77.43L139.61,77.44L139.70,77.43L139.77,77.41L139.83,77.38L139.87,77.34L139.88,77.29L139.87,77.24L139.83,77.20L139.76,77.17L139.69,77.15L139.60,77.14L139.52,77.16L139.45,77.18L139.40,77.22L139.38,77.27L139.38,77.32L139.41,77.36L139.45,77.39"/><path style="stroke:#000000;stroke-width:0.088" d="M139.46,77.40L139.43,77.37L139.42,77.33L139.43,77.29L139.46,77.25L139.51,77.23L139.57,77.21L139.64,77.21L139.71,77.21L139.74,77.23L139.77,77.24L139.81,77.27L139.83,77.30L139.84,77.34L139.82,77.38L139.79,77.40"/><path style="stroke:#000000;stroke-width:0.088" d="M148.64,84.35L148.64,84.46L148.55,84.41"/><path style="stroke:#000000;stroke-width:0.088" d="M149.18,84.46L151.34,83.21L151.34,82.80L149.18,84.04L149.18,84.46L148.64,84.46"/><path style="stroke:#000000;stroke-width:0.088" d="M151.34,83.10L151.34,82.80L151.34,82.93"/><path style="stroke:#000000;stroke-width:0.088" d="M151.61,80.04L140.08,73.39L142.78,71.84L154.31,78.48"/><path style="stroke:#000000;stroke-width:0.088" d="M140.08,73.39L140.08,73.81L151.25,80.25"/><path style="stroke:#000000;stroke-width:0.088" d="M142.10,73.07L142.08,73.11L142.08,73.16L142.11,73.21L142.16,73.24L142.23,73.27L142.31,73.28L142.40,73.28L142.47,73.26L142.54,73.22L142.57,73.18L142.59,73.13L142.57,73.08L142.53,73.04L142.47,73.01L142.39,72.99L142.30,72.99L142.22,73.00L142.15,73.03L142.10,73.07"/><path style="stroke:#000000;stroke-width:0.088" d="M142.17,73.25L142.15,73.23L142.12,73.19L142.12,73.15L142.14,73.12L142.19,73.08L142.21,73.07L142.24,73.06L142.31,73.05L142.38,73.05L142.44,73.07L142.49,73.09L142.53,73.13L142.54,73.17L142.53,73.21L142.50,73.24"/><path style="stroke:#000000;stroke-width:0.088" d="M144.52,74.29L144.48,74.30L144.41,74.33L144.36,74.37L144.33,74.41L144.33,74.46L144.36,74.51L144.40,74.54L144.49,74.57L144.57,74.58L144.65,74.57L144.73,74.55L144.79,74.52L144.83,74.48L144.84,74.43L144.82,74.38L144.78,74.34L144.72,74.31L144.64,74.29L144.56,74.29L144.52,74.29"/><path style="stroke:#000000;stroke-width:0.088" d="M144.74,74.55L144.77,74.53L144.79,74.49L144.79,74.45L144.77,74.41L144.72,74.38L144.66,74.36L144.60,74.35L144.53,74.35L144.46,74.37L144.41,74.40L144.38,74.43L144.37,74.47L144.39,74.51L144.42,74.54"/><path style="stroke:#000000;stroke-width:0.088" d="M153.59,81.50L153.59,81.60L153.50,81.55"/><path style="stroke:#000000;stroke-width:0.088" d="M153.59,81.60L154.13,81.60L156.29,80.36L156.30,79.94L156.29,80.24"/><path style="stroke:#000000;stroke-width:0.088" d="M154.13,81.60L154.13,81.19L156.30,79.94L156.29,80.08"/><path style="stroke:#000000;stroke-width:0.088" d="M141.63,86.70L141.78,87.09L141.84,87.22L141.96,87.33L141.81,86.93L142.71,87.44L142.87,87.50L143.05,87.52L143.25,87.48L143.43,87.40L143.58,87.28L143.74,87.68L143.58,87.80L143.40,87.88L143.21,87.92L143.02,87.90L142.86,87.84L141.96,87.33"/><path style="stroke:#000000;stroke-width:0.088" d="M143.58,87.28L144.63,86.24L142.83,85.20L141.78,86.24L141.67,86.39L141.62,86.54L141.62,86.69L141.69,86.82L141.81,86.93"/><path style="stroke:#000000;stroke-width:0.088" d="M142.86,87.84L142.71,87.44"/><path style="stroke:#000000;stroke-width:0.088" d="M142.83,85.20L143.05,85.00L143.29,84.84L157.46,76.67L157.63,76.60L157.82,76.56L158.01,76.56L158.20,76.60L158.37,76.67L159.27,77.19L159.38,77.28L159.44,77.39L159.45,77.50L159.38,77.61L159.27,77.71L145.09,85.88L143.29,84.84"/><path style="stroke:#000000;stroke-width:0.088" d="M143.74,87.68L144.78,86.64L144.93,86.51L145.09,86.40L159.27,78.23L159.27,77.71"/><path style="stroke:#000000;stroke-width:0.088" d="M144.63,86.24L144.86,86.04L145.09,85.88"/><path style="stroke:#000000;stroke-width:0.088" d="M149.27,82.71L149.09,82.68L148.94,82.61L148.83,82.52L148.78,82.42L148.79,82.31L148.87,82.20L148.99,82.12L149.16,82.07L149.35,82.05L149.53,82.06L149.70,82.11L149.84,82.19L149.92,82.29L149.94,82.40L149.89,82.51L149.79,82.60L149.77,82.62L149.64,82.67L149.46,82.71L149.27,82.71"/><path style="stroke:#000000;stroke-width:0.088" d="M149.63,82.68L149.64,82.63L149.63,82.58L149.59,82.53L149.53,82.49L149.45,82.46L149.35,82.46L149.26,82.47L149.18,82.49L149.11,82.53L149.08,82.58L149.07,82.64L149.09,82.68"/><path style="stroke:#000000;stroke-width:0.088" d="M154.04,79.82L154.01,79.81L153.87,79.74L153.77,79.64L153.73,79.53L153.76,79.42L153.84,79.33L153.90,79.29L153.98,79.25L154.15,79.20L154.34,79.19L154.53,79.21L154.69,79.27L154.81,79.36L154.88,79.46L154.89,79.57L154.83,79.67L154.72,79.76L154.56,79.83L154.38,79.86L154.18,79.85L154.04,79.82L154.03,79.77L154.04,79.71L154.08,79.66L154.15,79.63L154.24,79.60L154.33,79.60L154.42,79.61L154.50,79.64L154.56,79.68L154.59,79.73L154.60,79.79L154.58,79.82"/><path style="stroke:#000000;stroke-width:0.088" d="M159.27,78.23L159.38,78.13L159.44,78.02L159.44,77.94"/><path style="stroke:#000000;stroke-width:0.088" d="M159.45,77.50L159.45,77.74"/><path style="stroke:#000000;stroke-width:0.088" d="M98.06,96.79L98.33,96.95L98.17,97.05L98.03,97.21L97.92,97.40L97.85,97.60L97.83,97.79L97.87,97.94L97.96,98.04L101.65,100.34L101.38,100.18L97.69,97.89L97.60,97.79L97.56,97.63L97.58,97.44L97.65,97.24L97.76,97.05L97.90,96.89L98.06,96.79L100.12,95.86L100.39,96.01L100.45,95.99L100.18,95.83L100.12,95.86"/><path style="stroke:#000000;stroke-width:0.088" d="M97.69,97.89L97.96,98.04"/><path style="stroke:#000000;stroke-width:0.088" d="M98.33,96.95L100.39,96.01"/><path style="stroke:#000000;stroke-width:0.088" d="M100.45,95.99L102.15,95.50L102.28,95.49L102.39,95.54L102.12,95.38L102.01,95.33L101.88,95.35L100.18,95.83"/><path style="stroke:#000000;stroke-width:0.088" d="M101.08,96.20L101.08,96.25L101.06,96.35L101.01,96.48L100.94,96.59L100.85,96.68L100.77,96.73"/><path style="stroke:#000000;stroke-width:0.088" d="M101.28,96.63L101.21,96.75L101.12,96.84L101.02,96.90L100.93,96.92L100.85,96.90L100.80,96.84L100.77,96.75L100.77,96.64L100.81,96.51L100.87,96.39L100.95,96.29L101.05,96.21L101.14,96.17L101.23,96.17L101.30,96.21L101.34,96.28L101.35,96.39L101.35,96.41L101.33,96.51L101.28,96.63"/><path style="stroke:#000000;stroke-width:0.088" d="M102.39,95.54L102.46,95.63L102.49,95.77L102.48,95.94L102.37,96.51L102.35,96.68L102.39,96.82L102.46,96.92L102.56,96.97L102.69,96.96L102.42,96.80L110.72,94.42L110.86,94.36L111.00,94.24L111.07,94.15L111.12,94.09L111.22,93.91L111.27,93.73L111.54,93.89L111.59,93.66L111.64,93.48L111.73,93.30L111.85,93.15L111.99,93.03L112.13,92.96L119.16,90.95L119.28,90.94L119.38,90.97L119.46,91.05L119.50,91.17L119.50,91.31L119.46,91.82L119.42,92.00L119.35,92.18L119.24,92.34L119.11,92.48L118.96,92.57L101.92,100.33L101.82,100.37L101.73,100.37L101.65,100.34"/><path style="stroke:#000000;stroke-width:0.088" d="M102.15,95.50L101.88,95.35"/><path style="stroke:#000000;stroke-width:0.088" d="M102.42,96.80L102.38,96.80"/><path style="stroke:#000000;stroke-width:0.088" d="M102.69,96.96L110.99,94.58L111.14,94.51L111.27,94.40L111.39,94.24L111.49,94.07L111.54,93.89"/><path style="stroke:#000000;stroke-width:0.088" d="M110.72,94.42L110.99,94.58"/><path style="stroke:#000000;stroke-width:0.088" d="M111.27,93.73L111.31,93.50L111.59,93.66"/><path style="stroke:#000000;stroke-width:0.088" d="M111.31,93.50L111.37,93.32L111.46,93.14L111.58,92.99L111.72,92.88L111.86,92.81L112.13,92.96"/><path style="stroke:#000000;stroke-width:0.088" d="M111.86,92.81L118.89,90.79L119.16,90.95"/><path style="stroke:#000000;stroke-width:0.088" d="M118.89,90.79L119.01,90.78L119.11,90.82L119.38,90.97"/><path style="stroke:#000000;stroke-width:0.088" d="M74.17,55.85L74.17,55.90L74.19,56.05L74.25,56.15L74.11,55.96L74.07,55.88L74.05,55.76L74.07,55.60L74.13,55.45L74.22,55.30L74.33,55.17L74.45,55.08L74.54,55.05L74.76,55.06L74.63,55.11L74.49,55.21L74.36,55.36L74.25,55.54L74.19,55.72L74.17,55.85"/><path style="stroke:#000000;stroke-width:0.088" d="M74.25,56.15L74.61,56.36L74.65,56.39L75.29,56.76L75.36,56.79L75.40,56.80L75.54,56.78"/><path style="stroke:#000000;stroke-width:0.088" d="M75.24,55.27L74.98,55.12L74.86,55.11"/><path style="stroke:#000000;stroke-width:0.088" d="M74.76,55.06L75.12,55.27L75.24,55.27L75.92,55.66L75.79,55.64L75.65,55.69L75.50,55.80L75.37,55.95L75.35,55.99L75.26,56.13L75.20,56.32L75.18,56.50L75.21,56.65L75.29,56.76"/><path style="stroke:#000000;stroke-width:0.088" d="M75.54,56.78L75.69,56.70L75.75,56.67"/><path style="stroke:#000000;stroke-width:0.088" d="M76.08,56.09L76.04,56.25L75.97,56.41L75.87,56.56L75.86,56.57L75.75,56.67L75.62,56.74L75.50,56.75L75.41,56.72L75.34,56.63L75.32,56.50L75.33,56.35L75.38,56.18L75.47,56.03L75.59,55.90L75.71,55.81L75.74,55.80L75.84,55.77L75.93,55.77L75.94,55.78L76.03,55.84L76.07,55.95L76.08,56.09L76.08,56.02L76.07,55.86L76.02,55.73L75.92,55.66"/><path style="stroke:#000000;stroke-width:0.088" d="M75.79,56.50L75.70,56.57L75.61,56.61L75.53,56.60L75.47,56.56L75.47,56.55L75.44,56.49L75.43,56.39L75.45,56.28L75.50,56.17L75.57,56.06L75.65,55.98L75.74,55.93L75.82,55.91L75.86,55.92L75.89,55.93L75.94,55.99L75.97,56.07L75.96,56.18L75.93,56.30L75.87,56.41L75.79,56.50"/><path style="stroke:#000000;stroke-width:0.088" d="M75.43,56.38L75.44,56.43L75.47,56.49L75.52,56.53L75.59,56.53L75.66,56.50L75.72,56.45L75.73,56.44L75.80,56.36L75.85,56.27L75.87,56.19L75.88,56.17L75.89,56.08L75.89,56.08L75.87,56.01L75.82,55.96L75.76,55.94L75.69,55.95"/><path style="stroke:#000000;stroke-width:0.088" d="M75.06,49.04L74.89,48.87L74.81,48.59L74.82,48.25L74.83,48.18L74.92,47.87L75.06,47.60L75.11,47.49L75.37,47.17L75.66,46.93L75.95,46.80L76.22,46.79L76.43,46.91L76.65,47.04L76.44,46.92L76.18,46.93L75.88,47.06L75.59,47.30L75.34,47.62L75.21,47.87L75.15,48.00L75.05,48.31L75.04,48.38L75.03,48.72L75.06,48.81L75.12,49.00L75.29,49.18L75.07,49.05L75.06,49.04"/><path style="stroke:#000000;stroke-width:0.088" d="M75.29,49.18L75.53,49.24L75.82,49.17L76.11,48.98L76.39,48.70L76.61,48.34L76.76,47.96L76.82,47.59L76.79,47.27L76.65,47.04"/><path style="stroke:#000000;stroke-width:0.088" d="M75.95,47.76L75.97,47.81L75.96,47.91L75.93,48.00L75.88,48.10L75.81,48.18L75.74,48.23L75.67,48.26"/><path style="stroke:#000000;stroke-width:0.088" d="M75.97,47.80L75.96,47.87L75.96,47.87L75.92,47.99L75.86,48.10L75.79,48.19L75.72,48.24"/><path style="stroke:#000000;stroke-width:0.088" d="M75.80,47.87L75.76,47.92L75.70,48.03L75.66,48.14L75.65,48.25L75.67,48.34L75.72,48.40L75.79,48.42L75.87,48.41L75.96,48.36L76.05,48.28L76.12,48.18L76.17,48.07L76.18,48.00L76.19,47.95L76.19,47.85L76.15,47.78L76.09,47.73L76.02,47.73L75.93,47.76L75.84,47.82L75.80,47.87"/><path style="stroke:#000000;stroke-width:0.088" d="M75.91,47.78L75.96,47.76L76.03,47.76L76.08,47.80L76.11,47.86L76.11,47.95L76.10,47.99L76.09,48.04L76.05,48.14L75.99,48.23L75.92,48.30L75.84,48.34L75.77,48.35L75.71,48.33L75.67,48.27L75.66,48.21"/><path style="stroke:#000000;stroke-width:0.088" d="M76.03,47.76L76.03,47.76"/><path style="stroke:#000000;stroke-width:0.088" d="M72.16,78.77L71.62,78.46L71.42,78.44L71.20,78.52L70.98,78.68L70.79,78.92L70.63,79.19L70.54,79.48L70.51,79.70L70.52,79.75L70.57,79.97L70.68,80.12L71.22,80.43L71.11,80.28L71.06,80.06L71.06,80.01L71.08,79.79L71.17,79.50L71.33,79.23L71.53,79.00L71.75,78.83L71.96,78.75L72.16,78.77L72.30,78.88L72.39,79.07L72.40,79.31L72.34,79.60L72.22,79.88L72.04,80.14L71.83,80.34L71.61,80.46L71.40,80.49L71.22,80.43"/><path style="stroke:#000000;stroke-width:0.088" d="M71.44,79.79L71.44,79.81L71.46,79.91L71.51,79.97L71.59,80.00L71.68,79.98L71.77,79.93L71.86,79.84L71.94,79.73L72.00,79.61L72.02,79.49L72.02,79.38L71.98,79.30L71.92,79.25L71.83,79.24L71.74,79.28L71.64,79.35L71.56,79.45L71.49,79.57L71.45,79.69L71.44,79.79"/><path style="stroke:#000000;stroke-width:0.088" d="M80.96,61.12L82.31,61.89L82.31,72.46L80.96,71.68L80.96,61.12L81.41,60.34L82.76,61.11L85.46,59.56L85.91,59.82L85.91,63.10L85.96,63.39L86.09,63.61L86.29,63.72L86.54,63.73L86.82,63.62L88.62,62.58L88.90,62.37L89.15,62.08L89.35,61.73L89.47,61.37L89.52,61.02L88.17,60.24L88.12,60.59L87.99,60.95L87.80,61.30L87.54,61.59L87.27,61.80L85.91,62.58"/><path style="stroke:#000000;stroke-width:0.088" d="M81.21,71.09L81.32,71.29L81.44,71.45L81.46,71.47L81.62,71.60L81.79,71.66L81.93,71.66L82.04,71.59L82.11,71.46L82.13,71.32L82.13,71.28L82.09,71.08L82.01,70.87L81.88,70.67L81.73,70.52L81.56,70.42L81.41,70.39L81.28,70.43L81.19,70.53L81.14,70.69L81.15,70.88L81.21,71.09"/><path style="stroke:#000000;stroke-width:0.088" d="M81.44,68.32L81.32,68.17L81.21,67.97L81.15,67.76L81.14,67.56L81.19,67.41L81.28,67.30L81.41,67.27L81.56,67.30L81.73,67.40L81.88,67.55L82.01,67.74L82.04,67.82L82.09,67.95L82.13,68.16L82.13,68.19L82.11,68.33L82.04,68.47L81.93,68.54L81.79,68.54L81.62,68.47L81.46,68.35L81.44,68.32"/><path style="stroke:#000000;stroke-width:0.088" d="M81.41,60.34L84.11,58.78L85.46,59.56"/><path style="stroke:#000000;stroke-width:0.088" d="M82.31,72.46L95.82,64.67L95.82,57.66L95.79,57.41L95.70,57.21L95.56,57.07L93.45,55.85L92.94,55.55L92.75,55.50L92.53,55.52L92.30,55.62L89.97,56.96L89.52,57.74L89.52,61.02"/><path style="stroke:#000000;stroke-width:0.088" d="M82.31,61.89L82.76,61.11"/><path style="stroke:#000000;stroke-width:0.088" d="M83.80,61.56L83.89,61.61L84.01,61.61L84.11,61.56L84.14,61.55L84.26,61.44L84.37,61.30L84.45,61.14L84.49,60.98L84.50,60.83L84.46,60.71L84.38,60.64L84.28,60.62L84.19,60.64L84.15,60.65L84.03,60.73L83.91,60.85L83.81,61.01L83.75,61.17L83.73,61.33L83.74,61.47L83.80,61.56"/><path style="stroke:#000000;stroke-width:0.088" d="M84.29,69.47L84.22,69.57L84.13,69.64L84.04,69.68L83.96,69.69L83.90,69.65L83.86,69.58L83.84,69.49L83.86,69.38L83.90,69.26L83.97,69.16L84.05,69.07L84.11,69.03L84.14,69.01L84.23,68.99L84.30,69.01L84.35,69.06L84.38,69.14L84.38,69.24L84.35,69.36L84.29,69.47"/><path style="stroke:#000000;stroke-width:0.088" d="M84.09,69.04L84.16,69.02L84.22,69.04L84.27,69.08L84.29,69.15L84.29,69.23L84.29,69.25L84.26,69.33L84.22,69.42L84.15,69.50L84.08,69.57L84.01,69.60L83.94,69.60L83.89,69.57L83.85,69.52L83.85,69.47"/><path style="stroke:#000000;stroke-width:0.088" d="M84.35,66.22L84.35,66.24L84.29,66.35L84.22,66.45L84.13,66.52L84.04,66.56L83.96,66.56L83.90,66.53L83.86,66.46L83.84,66.37L83.86,66.26L83.90,66.14L83.97,66.03L84.05,65.95L84.11,65.90L84.14,65.89L84.23,65.87L84.28,65.88L84.30,65.88L84.35,65.94L84.38,66.02L84.38,66.12L84.35,66.22"/><path style="stroke:#000000;stroke-width:0.088" d="M83.85,66.34L83.85,66.39L83.89,66.45L83.94,66.48L84.01,66.48L84.08,66.44L84.15,66.38L84.22,66.30L84.26,66.21L84.29,66.12L84.29,66.11L84.29,66.03L84.27,65.96L84.22,65.91L84.16,65.90L84.09,65.92"/><path style="stroke:#000000;stroke-width:0.088" d="M84.11,58.78L84.12,58.78"/><path style="stroke:#000000;stroke-width:0.088" d="M85.91,63.10L86.82,63.62"/><path style="stroke:#000000;stroke-width:0.088" d="M85.91,59.81L85.91,59.82"/><path style="stroke:#000000;stroke-width:0.088" d="M86.29,63.72L86.28,63.72"/><path style="stroke:#000000;stroke-width:0.088" d="M87.27,61.80L88.62,62.58"/><path style="stroke:#000000;stroke-width:0.088" d="M88.17,60.24L88.17,56.96L89.52,57.74"/><path style="stroke:#000000;stroke-width:0.088" d="M88.17,56.96L88.62,56.18L90.95,54.84L91.18,54.74L91.40,54.72L91.59,54.78L92.94,55.55"/><path style="stroke:#000000;stroke-width:0.088" d="M88.62,56.18L89.97,56.96"/><path style="stroke:#000000;stroke-width:0.088" d="M90.93,57.14L90.97,56.98L91.04,56.81L91.14,56.66L91.26,56.55L91.39,56.48L91.51,56.46L91.61,56.50L91.68,56.58L91.69,56.65L91.71,56.71L91.71,56.74L91.69,56.86L91.64,57.03L91.55,57.19L91.44,57.32L91.31,57.41L91.19,57.46L91.08,57.45L90.99,57.39L90.94,57.28L90.93,57.14"/><path style="stroke:#000000;stroke-width:0.088" d="M90.95,54.84L92.30,55.62"/><path style="stroke:#000000;stroke-width:0.088" d="M94.11,63.87L94.02,63.94L93.93,63.97L93.85,63.97L93.79,63.93L93.76,63.85L93.75,63.75L93.78,63.64L93.83,63.53L93.90,63.42L93.98,63.34L94.02,63.31L94.07,63.29L94.15,63.28L94.22,63.30L94.27,63.36L94.29,63.45L94.28,63.56L94.25,63.67L94.22,63.72L94.19,63.78L94.11,63.87"/><path style="stroke:#000000;stroke-width:0.088" d="M93.76,63.74L93.76,63.79L93.79,63.85L93.84,63.89L93.90,63.89L93.97,63.86L94.05,63.81L94.11,63.73L94.16,63.64L94.20,63.54L94.20,63.45L94.19,63.38L94.15,63.33L94.09,63.31L94.02,63.32L94.00,63.33"/><path style="stroke:#000000;stroke-width:0.088" d="M93.76,60.73L93.79,60.80L93.85,60.85L93.93,60.85L94.02,60.82L94.11,60.75L94.19,60.66L94.25,60.55L94.28,60.43L94.29,60.33L94.27,60.24L94.22,60.18L94.15,60.15L94.07,60.17L94.02,60.19L93.98,60.22L93.90,60.30L93.83,60.40L93.78,60.52L93.75,60.63L93.76,60.73"/><path style="stroke:#000000;stroke-width:0.088" d="M94.00,60.21L94.02,60.20L94.09,60.19L94.15,60.21L94.19,60.26L94.20,60.33L94.20,60.42L94.16,60.51L94.11,60.61L94.05,60.69L93.97,60.74L93.90,60.77L93.84,60.76L93.79,60.73L93.76,60.66L93.76,60.62"/><path style="stroke:#000000;stroke-width:0.088" d="M68.08,53.34L68.32,53.39L68.61,53.33L68.90,53.14L69.18,52.85L69.41,52.50L69.56,52.12L69.61,51.75L69.58,51.43L69.44,51.20L69.23,51.08L68.97,51.09L68.67,51.22L68.38,51.45L68.13,51.78L67.94,52.15L67.84,52.46L67.83,52.53L67.82,52.88L67.91,53.16L68.08,53.34L67.86,53.21L67.68,53.03L67.60,52.75L67.61,52.40L67.62,52.33L67.71,52.02L67.90,51.65L68.16,51.33L68.45,51.09L68.74,50.96L69.01,50.95"/><path style="stroke:#000000;stroke-width:0.088" d="M68.74,51.92L68.76,51.97L68.75,52.06L68.72,52.16L68.67,52.25L68.60,52.33L68.53,52.39L68.46,52.42"/><path style="stroke:#000000;stroke-width:0.088" d="M68.76,51.96L68.75,52.03L68.75,52.03L68.71,52.14L68.65,52.25L68.58,52.35L68.51,52.40"/><path style="stroke:#000000;stroke-width:0.088" d="M68.55,52.07L68.63,51.98L68.72,51.91L68.81,51.88L68.89,51.89L68.94,51.93L68.98,52.01L68.98,52.11L68.98,52.16L68.96,52.22L68.91,52.34L68.84,52.44L68.75,52.52L68.66,52.57L68.58,52.58L68.51,52.55L68.46,52.49L68.44,52.40L68.45,52.30L68.49,52.18L68.55,52.07"/><path style="stroke:#000000;stroke-width:0.088" d="M68.70,51.93L68.75,51.91L68.82,51.92L68.87,51.95L68.90,52.02L68.90,52.10L68.90,52.15L68.88,52.20L68.84,52.30L68.78,52.38L68.71,52.45L68.63,52.49L68.56,52.50L68.50,52.48L68.46,52.43L68.45,52.37"/><path style="stroke:#000000;stroke-width:0.088" d="M68.82,51.92L68.82,51.92"/><path style="stroke:#000000;stroke-width:0.088" d="M69.01,50.95L69.22,51.07L69.44,51.20"/><path style="stroke:#000000;stroke-width:0.088" d="M66.89,43.72L66.94,43.95L67.07,44.10L68.79,45.09L68.66,44.94L68.60,44.72L68.62,44.44L68.72,44.14L68.87,43.86L69.07,43.62L69.30,43.44L69.53,43.36L69.73,43.37L69.89,43.47L69.98,43.66L69.98,43.76"/><path style="stroke:#000000;stroke-width:0.088" d="M67.93,43.19L66.85,42.57L66.87,42.80L66.90,42.91L66.93,43.15L66.90,43.46L66.89,43.59L68.20,44.35L68.22,44.25L68.23,44.20L68.24,44.15L68.27,44.05L68.28,44.00L68.32,43.91L68.31,43.91L68.29,43.88L67.93,43.19L67.79,42.87L67.90,42.75L68.19,42.50L68.35,42.79L68.56,43.03L68.79,43.22L68.84,43.25L68.87,43.23L68.86,43.23L68.85,43.22L68.85,43.21L68.86,43.20L68.87,43.19L68.88,43.19L68.90,43.18L68.91,43.19L68.93,43.19L68.94,43.19L68.96,43.18L69.06,43.14L69.16,43.12L69.26,43.12L69.31,43.13L69.36,43.14L69.43,43.18L69.43,43.19"/><path style="stroke:#000000;stroke-width:0.088" d="M66.93,43.15L68.30,43.94"/><path style="stroke:#000000;stroke-width:0.088" d="M66.89,43.59L66.89,43.72"/><path style="stroke:#000000;stroke-width:0.088" d="M66.89,43.61L68.20,44.36L68.20,44.35"/><path style="stroke:#000000;stroke-width:0.088" d="M66.91,43.01L66.87,43.14L66.86,43.28L66.89,43.39L66.91,43.41"/><path style="stroke:#000000;stroke-width:0.088" d="M66.91,42.97L66.91,42.98L66.86,43.12L66.85,43.26L66.88,43.37L66.88,43.38L66.91,43.41"/><path style="stroke:#000000;stroke-width:0.088" d="M66.85,42.57L66.43,39.13L66.97,39.44L66.98,39.44L67.05,39.42L67.06,39.42L67.08,39.41L67.10,39.38L67.11,39.35L67.11,39.34L68.06,38.79L68.02,38.71L67.91,38.61L67.71,38.51L67.40,38.45L67.29,38.44L67.27,38.44L67.26,38.43L67.20,38.47L67.21,38.47L67.21,38.48L67.22,38.53L67.19,38.79L67.16,39.03L67.13,39.22L67.11,39.34"/><path style="stroke:#000000;stroke-width:0.088" d="M67.92,38.93L67.85,39.00L67.80,39.19L67.81,39.41L66.82,39.99L66.84,40.04L66.82,40.04L67.21,41.37L67.79,42.87"/><path style="stroke:#000000;stroke-width:0.088" d="M66.82,39.99L66.81,39.76L66.86,39.57L66.97,39.44"/><path style="stroke:#000000;stroke-width:0.088" d="M66.84,40.04L67.19,39.78L67.61,41.11L68.19,42.50L68.38,42.39L67.85,41.04L67.45,39.63L67.83,39.47L67.81,39.41"/><path style="stroke:#000000;stroke-width:0.088" d="M66.43,39.13L66.43,39.00L66.43,38.97L66.50,38.76L66.61,38.56L66.71,38.46L66.89,38.36L66.97,38.34L66.98,38.34L66.98,38.34L67.20,38.47"/><path style="stroke:#000000;stroke-width:0.088" d="M66.98,39.44L66.97,39.44"/><path style="stroke:#000000;stroke-width:0.088" d="M67.26,38.43L67.04,38.31L67.04,38.30L67.04,38.30L67.05,38.28L67.12,38.22L67.13,38.21L67.20,38.21L67.21,38.21L67.77,38.54"/><path style="stroke:#000000;stroke-width:0.088" d="M67.04,38.31L66.98,38.34"/><path style="stroke:#000000;stroke-width:0.088" d="M67.07,38.25L66.74,38.44L66.71,38.46"/><path style="stroke:#000000;stroke-width:0.088" d="M66.73,38.44L66.73,38.44"/><path style="stroke:#000000;stroke-width:0.088" d="M66.80,38.41L67.13,38.21"/><path style="stroke:#000000;stroke-width:0.088" d="M67.82,39.48L68.21,40.82L68.78,42.30L68.67,42.31L68.38,42.39L68.40,42.45L68.54,42.75L68.74,43.00L68.96,43.18"/><path style="stroke:#000000;stroke-width:0.088" d="M67.11,39.35L68.07,38.80L68.07,38.82L68.06,38.84L68.05,38.85L67.08,39.41"/><path style="stroke:#000000;stroke-width:0.088" d="M67.91,38.61L67.54,38.40"/><path style="stroke:#000000;stroke-width:0.088" d="M68.32,43.91L68.45,43.67L68.49,43.60L68.54,43.53L68.59,43.47L68.65,43.41L68.74,43.32L68.84,43.25"/><path style="stroke:#000000;stroke-width:0.088" d="M68.20,44.36L68.22,44.21L68.24,44.14L68.26,44.06L68.29,43.99L68.32,43.91L68.47,43.63L68.52,43.56L68.57,43.50L68.62,43.44L68.68,43.39L68.77,43.30L68.87,43.23"/><path style="stroke:#000000;stroke-width:0.088" d="M68.19,42.50L68.19,42.50"/><path style="stroke:#000000;stroke-width:0.088" d="M68.38,42.39L68.38,42.39"/><path style="stroke:#000000;stroke-width:0.088" d="M68.07,38.80L68.06,38.79"/><path style="stroke:#000000;stroke-width:0.088" d="M68.92,44.45L68.90,44.55L69.32,44.79L69.25,44.81L68.87,44.59L68.87,44.66L69.25,44.88L69.32,44.89L69.32,44.79L69.33,44.68L69.36,44.57L69.29,44.57L68.91,44.35L68.95,44.33L69.36,44.57L69.41,44.45L69.36,44.41L69.40,44.33L69.02,44.11L68.98,44.19L68.99,44.22L69.41,44.45L69.46,44.34L69.40,44.33"/><path style="stroke:#000000;stroke-width:0.088" d="M69.33,44.68L69.27,44.65L69.29,44.57"/><path style="stroke:#000000;stroke-width:0.088" d="M69.32,44.89L69.33,44.99L68.92,44.75L68.89,44.79L68.91,44.85L69.29,45.07L69.27,45.01L68.89,44.79"/><path style="stroke:#000000;stroke-width:0.088" d="M68.99,44.89L68.98,44.93L68.91,44.85L68.91,44.84"/><path style="stroke:#000000;stroke-width:0.088" d="M68.98,44.93L69.36,45.15L69.40,45.19L69.02,44.97L68.98,44.93L68.98,44.93"/><path style="stroke:#000000;stroke-width:0.088" d="M69.29,45.07L69.36,45.06L69.41,45.13L69.30,45.07"/><path style="stroke:#000000;stroke-width:0.088" d="M69.27,45.01L69.33,44.99L69.36,45.06"/><path style="stroke:#000000;stroke-width:0.088" d="M69.25,44.88L69.25,44.81"/><path style="stroke:#000000;stroke-width:0.088" d="M69.01,44.96L69.01,44.96L68.90,44.90L68.80,44.78L68.76,44.61L68.78,44.40L68.85,44.17L68.97,43.95L69.13,43.76L69.30,43.62L69.48,43.56L69.63,43.57L69.74,43.63L69.72,43.63"/><path style="stroke:#000000;stroke-width:0.088" d="M68.87,44.66L68.87,44.67L68.90,44.78"/><path style="stroke:#000000;stroke-width:0.088" d="M69.40,45.19L69.46,45.17L69.41,45.13L69.36,45.15"/><path style="stroke:#000000;stroke-width:0.088" d="M69.52,45.08L69.50,45.07L69.43,44.98L69.39,44.84L69.40,44.67L69.46,44.48L69.56,44.31L69.68,44.16L69.82,44.05L69.96,44.00L70.09,44.00L70.11,44.01L69.98,44.01L69.84,44.06L69.70,44.17L69.58,44.32L69.48,44.49L69.42,44.68L69.41,44.85L69.44,44.99L69.52,45.08L69.63,45.12L69.77,45.10L69.89,45.03"/><path style="stroke:#000000;stroke-width:0.088" d="M69.42,45.18L69.49,45.23L69.53,45.20L69.61,45.21L69.55,45.23L69.49,45.23"/><path style="stroke:#000000;stroke-width:0.088" d="M68.92,44.75L68.91,44.68"/><path style="stroke:#000000;stroke-width:0.088" d="M68.79,45.09L68.97,45.15L69.18,45.11L69.23,45.09"/><path style="stroke:#000000;stroke-width:0.088" d="M69.01,44.96L69.01,44.96"/><path style="stroke:#000000;stroke-width:0.088" d="M69.46,45.17L69.53,45.20"/><path style="stroke:#000000;stroke-width:0.088" d="M69.11,43.96L69.17,43.89L69.55,44.11L69.61,44.14L69.53,44.24L69.49,44.18L69.11,43.96L69.12,44.00L69.05,44.10L69.46,44.34L69.53,44.24L69.12,44.00"/><path style="stroke:#000000;stroke-width:0.088" d="M69.02,44.11L69.05,44.10"/><path style="stroke:#000000;stroke-width:0.088" d="M69.36,44.41L68.98,44.19"/><path style="stroke:#000000;stroke-width:0.088" d="M68.87,44.59L68.90,44.55"/><path style="stroke:#000000;stroke-width:0.088" d="M68.95,44.33L68.99,44.22"/><path style="stroke:#000000;stroke-width:0.088" d="M68.91,44.35L68.88,44.46L68.87,44.58"/><path style="stroke:#000000;stroke-width:0.088" d="M69.28,43.78L69.28,43.82L69.69,44.06L69.66,44.00L69.28,43.78L69.35,43.73L69.73,43.95L69.66,44.00"/><path style="stroke:#000000;stroke-width:0.088" d="M69.73,43.95L69.78,43.99L69.69,44.06L69.61,44.14L69.19,43.90L69.17,43.89"/><path style="stroke:#000000;stroke-width:0.088" d="M69.19,43.90L69.28,43.82"/><path style="stroke:#000000;stroke-width:0.088" d="M68.89,44.43L69.27,44.65"/><path style="stroke:#000000;stroke-width:0.088" d="M68.98,44.19L68.96,44.23L68.92,44.35"/><path style="stroke:#000000;stroke-width:0.088" d="M69.11,43.97L69.08,44.01L69.02,44.11"/><path style="stroke:#000000;stroke-width:0.088" d="M69.28,43.78L69.23,43.82L69.17,43.90"/><path style="stroke:#000000;stroke-width:0.088" d="M69.38,43.75L69.45,43.70L69.47,43.66L69.53,43.63L69.92,43.85L69.85,43.88L69.47,43.66"/><path style="stroke:#000000;stroke-width:0.088" d="M69.45,43.70L69.87,43.94L69.85,43.88"/><path style="stroke:#000000;stroke-width:0.088" d="M69.43,43.18L69.28,43.06L69.23,43.02L68.93,42.62L68.78,42.30"/><path style="stroke:#000000;stroke-width:0.088" d="M69.73,43.37L69.38,43.15L69.33,43.14L69.24,43.12L69.13,43.13L68.94,43.19"/><path style="stroke:#000000;stroke-width:0.088" d="M69.35,43.73L69.41,43.69L69.47,43.66"/><path style="stroke:#000000;stroke-width:0.088" d="M69.70,45.19L69.69,45.19L69.66,45.21L69.73,45.19L69.78,45.16L69.70,45.19"/><path style="stroke:#000000;stroke-width:0.088" d="M69.78,45.16L69.87,45.11L69.94,45.06"/><path style="stroke:#000000;stroke-width:0.088" d="M69.69,45.19L69.61,45.21"/><path style="stroke:#000000;stroke-width:0.088" d="M69.66,45.21L69.65,45.20"/><path style="stroke:#000000;stroke-width:0.088" d="M71.77,45.23L71.69,45.23L71.60,45.27L71.51,45.33L71.50,45.35L71.43,45.43L71.37,45.54L71.34,45.65L71.33,45.76L71.36,45.85L71.40,45.90L69.65,44.89L69.60,44.84L69.57,44.76L69.58,44.66L69.61,44.54L69.66,44.43L69.74,44.33L69.82,44.26L69.84,44.25L69.91,44.22L69.99,44.22L70.06,44.25L71.77,45.23L71.83,45.27L71.86,45.35L71.87,45.44L71.87,45.49L71.85,45.58L71.81,45.68L71.75,45.77L71.68,45.84L71.61,45.88L71.54,45.90L71.48,45.88L71.43,45.83L71.41,45.76L71.42,45.67L71.45,45.57L71.50,45.47L71.57,45.39L71.64,45.33L71.71,45.31L71.78,45.31L71.83,45.34L71.86,45.40L71.87,45.48"/><path style="stroke:#000000;stroke-width:0.088" d="M70.11,43.89L70.18,43.93L70.18,43.88L70.22,43.91L70.24,43.97L70.18,43.93L70.11,43.90L70.04,43.89L70.03,43.83L69.65,43.61L69.71,43.62L70.09,43.84L70.03,43.83"/><path style="stroke:#000000;stroke-width:0.088" d="M69.55,44.11L69.49,44.18"/><path style="stroke:#000000;stroke-width:0.088" d="M69.59,43.66L69.62,43.66L70.04,43.89L69.95,43.91L69.87,43.94L69.78,43.99"/><path style="stroke:#000000;stroke-width:0.088" d="M70.11,43.90L70.09,43.84"/><path style="stroke:#000000;stroke-width:0.088" d="M70.24,43.97L70.28,44.04L70.31,44.12L70.31,44.06L70.29,44.00L70.24,43.97"/><path style="stroke:#000000;stroke-width:0.088" d="M70.11,44.01L70.20,44.08L70.26,44.20L70.27,44.36L70.27,44.37"/><path style="stroke:#000000;stroke-width:0.088" d="M69.95,43.91L69.92,43.85"/><path style="stroke:#000000;stroke-width:0.088" d="M69.65,43.61L69.62,43.66"/><path style="stroke:#000000;stroke-width:0.088" d="M69.79,43.67L69.80,43.66L70.18,43.88"/><path style="stroke:#000000;stroke-width:0.088" d="M69.54,43.64L69.58,43.62L69.65,43.62"/><path style="stroke:#000000;stroke-width:0.088" d="M69.74,43.63L69.79,43.66"/><path style="stroke:#000000;stroke-width:0.088" d="M70.31,44.12L70.33,44.21L70.33,44.31L70.32,44.40"/><path style="stroke:#000000;stroke-width:0.088" d="M70.33,44.21L70.33,44.18L70.32,44.18"/><path style="stroke:#000000;stroke-width:0.088" d="M70.33,44.18L70.33,44.31"/><path style="stroke:#000000;stroke-width:0.088" d="M70.28,44.04L70.29,44.00"/><path style="stroke:#000000;stroke-width:0.088" d="M71.40,45.90L71.48,45.93L71.56,45.91L71.61,45.88"/><path style="stroke:#000000;stroke-width:0.088" d="M59.69,47.62L59.69,47.62L59.68,47.75L61.00,48.51L61.00,48.52L59.68,47.76L59.68,47.88L59.73,48.11L59.86,48.26L61.58,49.25L61.45,49.10L61.39,48.87L61.41,48.60L61.51,48.30L61.66,48.01L61.87,47.77L62.09,47.60L62.32,47.51L62.52,47.52L62.17,47.31L62.12,47.29L62.03,47.28L62.05,47.27L62.10,47.28L62.15,47.30L62.22,47.34L62.22,47.34"/><path style="stroke:#000000;stroke-width:0.088" d="M59.90,43.50L59.93,43.38L59.95,43.18L59.98,42.94L60.01,42.68L60.00,42.64L60.00,42.63L59.99,42.62L60.05,42.59L60.06,42.59L60.08,42.60L60.19,42.61L60.50,42.67L60.71,42.77L60.81,42.87L60.85,42.95L59.90,43.50L59.90,43.51L59.89,43.54L59.87,43.56L59.85,43.57L59.84,43.57L59.77,43.59L59.76,43.60L59.22,43.29L59.64,46.73L59.66,46.95L59.69,47.06L59.72,47.31L61.09,48.10L61.07,48.15L61.06,48.21L61.03,48.31L61.01,48.41L61.00,48.51"/><path style="stroke:#000000;stroke-width:0.088" d="M59.72,47.31L59.69,47.62"/><path style="stroke:#000000;stroke-width:0.088" d="M59.68,47.76L59.68,47.75"/><path style="stroke:#000000;stroke-width:0.088" d="M59.70,47.57L59.68,47.55L59.65,47.43L59.66,47.29L59.70,47.16"/><path style="stroke:#000000;stroke-width:0.088" d="M59.70,47.13L59.70,47.13L59.65,47.28L59.64,47.41L59.64,47.42L59.67,47.53L59.67,47.54L59.70,47.57"/><path style="stroke:#000000;stroke-width:0.088" d="M59.64,46.73L60.72,47.35L60.58,47.03L60.69,46.90L60.98,46.66L61.14,46.94L61.35,47.19L61.58,47.38L61.63,47.41L61.66,47.39L61.65,47.38L61.64,47.37L61.64,47.36L61.65,47.35L61.66,47.35L61.67,47.34L61.69,47.34L61.70,47.34L61.72,47.35L61.73,47.35L61.75,47.33L61.85,47.30L61.95,47.28L62.03,47.28L61.92,47.28L61.73,47.35"/><path style="stroke:#000000;stroke-width:0.088" d="M60.58,47.03L60.00,45.52L59.61,44.19L59.63,44.20L59.61,44.14L59.60,43.91L59.65,43.73L59.76,43.60"/><path style="stroke:#000000;stroke-width:0.088" d="M59.61,44.14L60.60,43.57L60.62,43.63L60.24,43.79L60.64,45.20L61.17,46.55L61.17,46.55L61.19,46.61L61.33,46.91L61.53,47.15L61.75,47.33"/><path style="stroke:#000000;stroke-width:0.088" d="M59.63,44.20L59.98,43.93L60.40,45.27L60.98,46.66L61.17,46.55"/><path style="stroke:#000000;stroke-width:0.088" d="M59.99,42.62L59.77,42.50L59.77,42.50L59.76,42.50L59.68,42.52L59.50,42.61L59.40,42.71L59.29,42.91L59.22,43.13L59.22,43.16L59.22,43.29"/><path style="stroke:#000000;stroke-width:0.088" d="M59.77,43.59L59.76,43.60"/><path style="stroke:#000000;stroke-width:0.088" d="M59.90,43.51L60.86,42.96L60.86,42.98L60.85,42.99L60.84,43.00L59.87,43.56"/><path style="stroke:#000000;stroke-width:0.088" d="M60.05,42.59L59.83,42.46L59.83,42.46L59.83,42.46L59.84,42.44L59.91,42.37L59.92,42.37L59.99,42.36L60.00,42.37L60.56,42.70"/><path style="stroke:#000000;stroke-width:0.088" d="M59.77,42.50L59.83,42.46"/><path style="stroke:#000000;stroke-width:0.088" d="M59.59,42.57L59.92,42.37"/><path style="stroke:#000000;stroke-width:0.088" d="M59.86,42.40L59.53,42.60L59.50,42.61"/><path style="stroke:#000000;stroke-width:0.088" d="M59.52,42.60L59.52,42.60"/><path style="stroke:#000000;stroke-width:0.088" d="M61.17,46.55L61.46,46.46L61.57,46.46L61.00,44.98L60.61,43.63"/><path style="stroke:#000000;stroke-width:0.088" d="M60.71,43.08L60.65,43.16L60.59,43.34L60.60,43.57"/><path style="stroke:#000000;stroke-width:0.088" d="M60.33,42.56L60.71,42.77"/><path style="stroke:#000000;stroke-width:0.088" d="M60.72,47.35L61.08,48.04L61.10,48.06L61.11,48.07L61.09,48.10"/><path style="stroke:#000000;stroke-width:0.088" d="M61.11,48.07L61.24,47.82L61.28,47.75L61.33,47.69L61.38,47.63L61.44,47.57L61.53,47.48L61.63,47.41"/><path style="stroke:#000000;stroke-width:0.088" d="M61.66,47.39L61.56,47.46L61.47,47.54L61.41,47.60L61.36,47.66L61.31,47.72L61.26,47.78L61.11,48.07L61.08,48.14L61.05,48.22L61.03,48.29L61.02,48.37L61.00,48.52"/><path style="stroke:#000000;stroke-width:0.088" d="M60.98,46.66L60.98,46.66"/><path style="stroke:#000000;stroke-width:0.088" d="M60.86,42.96L60.85,42.95"/><path style="stroke:#000000;stroke-width:0.088" d="M61.67,48.74L61.67,48.61L61.68,48.59L62.06,48.81L62.08,48.73L62.15,48.72L62.12,48.84L62.11,48.95L61.69,48.71L61.66,48.74L62.04,48.96L62.11,48.95L62.11,49.05L62.12,49.14L61.71,48.90L61.68,48.95L61.70,49.00L62.08,49.22L62.06,49.17L61.68,48.95"/><path style="stroke:#000000;stroke-width:0.088" d="M62.08,48.73L61.70,48.51L61.68,48.59"/><path style="stroke:#000000;stroke-width:0.088" d="M61.69,48.71L61.71,48.60"/><path style="stroke:#000000;stroke-width:0.088" d="M62.11,49.05L62.04,49.04L61.66,48.82L61.66,48.74"/><path style="stroke:#000000;stroke-width:0.088" d="M61.77,49.09L61.81,49.12L62.19,49.34L62.25,49.33L62.20,49.28L62.15,49.31L61.77,49.09L61.77,49.08L61.70,49.00L61.70,48.99"/><path style="stroke:#000000;stroke-width:0.088" d="M62.06,49.17L62.12,49.14L62.15,49.22L62.20,49.28L62.09,49.22"/><path style="stroke:#000000;stroke-width:0.088" d="M62.08,49.22L62.15,49.22"/><path style="stroke:#000000;stroke-width:0.088" d="M61.58,49.25L61.76,49.31L61.97,49.27L62.02,49.24"/><path style="stroke:#000000;stroke-width:0.088" d="M61.80,49.12L61.80,49.12L61.69,49.06L61.59,48.94L61.55,48.77L61.57,48.55L61.64,48.32L61.76,48.10L61.92,47.91L62.09,47.78L62.27,47.71L62.42,47.72L62.53,47.78L62.51,47.78"/><path style="stroke:#000000;stroke-width:0.088" d="M61.80,49.12L61.80,49.12"/><path style="stroke:#000000;stroke-width:0.088" d="M61.77,49.08L61.78,49.05"/><path style="stroke:#000000;stroke-width:0.088" d="M61.66,48.81L61.66,48.83L61.69,48.94"/><path style="stroke:#000000;stroke-width:0.088" d="M62.25,49.33L62.32,49.36L62.40,49.36L62.34,49.39L62.28,49.38L62.32,49.36"/><path style="stroke:#000000;stroke-width:0.088" d="M62.15,49.31L62.19,49.34"/><path style="stroke:#000000;stroke-width:0.088" d="M62.04,48.96L62.04,49.04"/><path style="stroke:#000000;stroke-width:0.088" d="M62.46,48.15L62.52,48.10L62.14,47.88L62.07,47.93L62.46,48.15L62.48,48.22L62.07,47.98L61.98,48.06L61.96,48.05L61.90,48.12L61.91,48.16L61.84,48.26L61.81,48.27L61.77,48.35L61.78,48.37L62.20,48.61L62.15,48.72L61.74,48.49L61.70,48.51"/><path style="stroke:#000000;stroke-width:0.088" d="M62.06,48.81L62.12,48.84"/><path style="stroke:#000000;stroke-width:0.088" d="M62.22,49.13L62.18,49.00L62.19,48.82L62.25,48.64L62.35,48.46L62.47,48.31L62.61,48.21L62.76,48.15L62.88,48.16L62.90,48.17L62.77,48.16L62.63,48.22L62.49,48.32L62.37,48.47L62.27,48.65L62.21,48.83L62.20,49.01L62.23,49.15L62.31,49.24L62.29,49.23L62.22,49.13"/><path style="stroke:#000000;stroke-width:0.088" d="M62.21,49.34L62.28,49.38"/><path style="stroke:#000000;stroke-width:0.088" d="M61.71,48.90L61.70,48.84"/><path style="stroke:#000000;stroke-width:0.088" d="M61.96,48.05L62.34,48.27L62.40,48.30L62.48,48.22L62.57,48.15L62.66,48.10L62.24,47.86L62.17,47.90"/><path style="stroke:#000000;stroke-width:0.088" d="M62.07,47.98L62.07,47.93"/><path style="stroke:#000000;stroke-width:0.088" d="M61.98,48.06L62.40,48.30L62.32,48.39L61.91,48.16"/><path style="stroke:#000000;stroke-width:0.088" d="M61.81,48.27L62.19,48.49L62.15,48.57L62.20,48.61L62.25,48.50L62.19,48.49"/><path style="stroke:#000000;stroke-width:0.088" d="M61.78,48.37L61.74,48.49"/><path style="stroke:#000000;stroke-width:0.088" d="M61.77,48.35L62.15,48.57"/><path style="stroke:#000000;stroke-width:0.088" d="M61.77,48.35L61.75,48.38L61.71,48.50"/><path style="stroke:#000000;stroke-width:0.088" d="M61.90,48.12L61.87,48.16L61.81,48.27"/><path style="stroke:#000000;stroke-width:0.088" d="M62.07,47.94L62.02,47.98L61.96,48.05"/><path style="stroke:#000000;stroke-width:0.088" d="M62.14,47.89L62.20,47.84L62.26,47.82"/><path style="stroke:#000000;stroke-width:0.088" d="M61.84,48.26L62.25,48.50L62.32,48.39L62.28,48.34L62.34,48.27"/><path style="stroke:#000000;stroke-width:0.088" d="M61.90,48.12L62.28,48.34"/><path style="stroke:#000000;stroke-width:0.088" d="M62.24,47.86L62.26,47.81L62.64,48.03L62.66,48.10L62.74,48.06L62.71,48.01L62.64,48.03"/><path style="stroke:#000000;stroke-width:0.088" d="M62.22,47.34L62.07,47.22L62.02,47.18L61.72,46.78L61.57,46.46"/><path style="stroke:#000000;stroke-width:0.088" d="M62.26,47.81L62.32,47.79L62.71,48.01"/><path style="stroke:#000000;stroke-width:0.088" d="M62.40,49.36L62.48,49.35L62.57,49.32L62.66,49.27L62.73,49.21"/><path style="stroke:#000000;stroke-width:0.088" d="M62.57,49.32L62.52,49.34L62.46,49.37L62.44,49.36"/><path style="stroke:#000000;stroke-width:0.088" d="M62.46,49.37L62.48,49.35"/><path style="stroke:#000000;stroke-width:0.088" d="M64.56,49.39L64.48,49.39L64.39,49.42L64.38,49.43L64.30,49.49L64.22,49.59L64.16,49.70L64.13,49.81L64.12,49.92L64.15,50.00L64.20,50.06L62.44,49.05L62.39,49.00L62.36,48.92L62.37,48.81L62.40,48.70L62.45,48.59L62.53,48.49L62.61,48.42L62.63,48.41L62.70,48.38L62.78,48.37L62.85,48.41L64.56,49.39L64.62,49.43L64.65,49.50L64.66,49.60L64.66,49.64L64.64,49.74L64.60,49.84L64.54,49.92L64.47,49.99L64.40,50.04L64.33,50.05L64.27,50.03L64.22,49.99L64.20,49.91L64.21,49.82L64.24,49.73L64.29,49.63L64.36,49.55L64.43,49.49L64.50,49.46L64.57,49.46L64.62,49.50L64.65,49.56L64.66,49.64"/><path style="stroke:#000000;stroke-width:0.088" d="M62.31,49.24L62.42,49.28L62.56,49.25L62.68,49.18"/><path style="stroke:#000000;stroke-width:0.088" d="M62.44,47.77L62.41,47.81L62.83,48.05L62.90,48.06L62.88,48.00L62.50,47.78L62.44,47.77L62.82,47.99L62.83,48.05L62.74,48.06"/><path style="stroke:#000000;stroke-width:0.088" d="M62.58,47.82L62.59,47.81L62.97,48.03L63.01,48.07L63.03,48.13L62.97,48.08L62.90,48.06"/><path style="stroke:#000000;stroke-width:0.088" d="M63.03,48.13L63.08,48.15L63.07,48.19L63.10,48.27L63.10,48.21L63.08,48.15"/><path style="stroke:#000000;stroke-width:0.088" d="M63.07,48.19L63.03,48.13"/><path style="stroke:#000000;stroke-width:0.088" d="M62.77,47.92L62.77,47.82L62.68,47.63L62.52,47.52"/><path style="stroke:#000000;stroke-width:0.088" d="M62.57,48.15L62.52,48.10"/><path style="stroke:#000000;stroke-width:0.088" d="M62.82,47.99L62.88,48.00"/><path style="stroke:#000000;stroke-width:0.088" d="M62.90,48.04L62.97,48.08L62.97,48.03"/><path style="stroke:#000000;stroke-width:0.088" d="M62.90,48.17L62.99,48.24L63.05,48.36L63.06,48.51L63.06,48.53"/><path style="stroke:#000000;stroke-width:0.088" d="M62.44,47.78L62.37,47.78L62.33,47.79"/><path style="stroke:#000000;stroke-width:0.088" d="M62.38,47.82L62.41,47.81"/><path style="stroke:#000000;stroke-width:0.088" d="M62.53,47.78L62.58,47.82"/><path style="stroke:#000000;stroke-width:0.088" d="M63.11,48.56L63.12,48.47L63.12,48.34L63.11,48.34"/><path style="stroke:#000000;stroke-width:0.088" d="M63.12,48.36L63.10,48.27"/><path style="stroke:#000000;stroke-width:0.088" d="M63.12,48.34L63.12,48.47"/><path style="stroke:#000000;stroke-width:0.088" d="M64.40,50.04L64.35,50.07L64.27,50.08L64.20,50.06"/><path style="stroke:#000000;stroke-width:0.088" d="M24.05,137.10L23.61,137.64L22.89,138.08L21.95,138.36L20.92,138.44L19.89,138.33L18.97,138.03L18.28,137.58L17.88,137.02"/><path style="stroke:#000000;stroke-width:0.088" d="M24.16,135.97L23.92,135.38L23.37,134.87L23.23,134.79L22.55,134.49L21.57,134.28L20.52,134.27L19.52,134.46L18.68,134.82L18.09,135.32L17.81,135.90L17.88,136.50L18.28,137.06L18.97,137.51L19.89,137.81L20.92,137.92L21.95,137.84L22.89,137.56L23.61,137.12L24.05,136.57L24.16,135.97L24.16,136.49L24.05,137.09"/><path style="stroke:#000000;stroke-width:0.088" d="M17.88,137.02L17.81,136.42L17.81,135.90"/><path style="stroke:#000000;stroke-width:0.088" d="M20.72,136.27L20.63,136.21L20.58,136.14L20.57,136.06L20.60,135.99L20.68,135.92L20.79,135.88L20.92,135.85L21.06,135.85L21.19,135.88L21.27,135.92L21.29,135.93L21.36,136.00L21.39,136.07L21.38,136.15L21.32,136.22L21.23,136.28L21.11,136.32L20.97,136.33L20.84,136.31L20.72,136.27"/><path style="stroke:#000000;stroke-width:0.088" d="M20.59,136.13L20.85,136.08L21.15,136.09L21.38,136.13"/><path style="stroke:#000000;stroke-width:0.088" d="M20.58,136.14L20.61,136.09L20.68,136.03L20.79,135.98L20.92,135.96L21.06,135.96L21.19,135.98L21.27,136.02L21.29,136.03L21.36,136.10L21.38,136.15"/><path style="stroke:#000000;stroke-width:0.088" d="M21.39,136.07L21.39,136.07"/><path style="stroke:#000000;stroke-width:0.088" d="M150.71,66.02L150.71,65.50L157.02,61.87L161.97,64.72L155.67,68.36L155.67,68.88L150.71,66.02L150.71,66.02"/><path style="stroke:#000000;stroke-width:0.088" d="M150.71,65.50L155.67,68.36"/><path style="stroke:#000000;stroke-width:0.088" d="M153.80,66.59L153.91,66.63L154.05,66.65L154.18,66.65L154.31,66.62L154.42,66.56L154.48,66.49L154.51,66.42L154.49,66.34L154.43,66.27L154.33,66.21L154.20,66.18L154.06,66.17L153.93,66.19L153.81,66.23L153.79,66.24L153.72,66.29L153.68,66.37L153.67,66.45L153.72,66.52L153.80,66.59"/><path style="stroke:#000000;stroke-width:0.088" d="M154.48,66.50L154.43,66.44L154.33,66.39L154.20,66.35L154.06,66.35L153.93,66.36L153.81,66.41L153.79,66.42"/><path style="stroke:#000000;stroke-width:0.088" d="M153.79,66.42L153.72,66.47L153.70,66.50"/><path style="stroke:#000000;stroke-width:0.088" d="M153.71,66.51L153.77,66.48L154.04,66.45L154.31,66.46L154.47,66.51"/><path style="stroke:#000000;stroke-width:0.088" d="M155.67,68.88L161.97,65.24L161.97,64.72"/><path style="stroke:#000000;stroke-width:0.088" d="M158.98,63.91L158.82,63.87L158.54,63.85L158.27,63.89L158.21,63.91"/><path style="stroke:#000000;stroke-width:0.088" d="M158.22,63.92L158.30,63.99L158.42,64.03L158.55,64.06L158.69,64.05L158.82,64.02L158.92,63.97L158.99,63.90L159.02,63.82L158.99,63.74L158.93,63.67L158.83,63.61L158.71,63.58L158.57,63.57L158.43,63.59L158.31,63.63L158.30,63.64L158.23,63.69L158.18,63.77L158.18,63.85L158.22,63.92"/><path style="stroke:#000000;stroke-width:0.088" d="M158.98,63.90L158.93,63.85L158.83,63.79L158.71,63.76L158.57,63.75L158.43,63.77L158.32,63.81L158.30,63.82L158.23,63.87L158.21,63.90"/><path style="stroke:#000000;stroke-width:0.088" d="M99.42,66.22L99.42,66.78L100.78,67.56L100.78,61.32L99.42,60.54L99.42,66.22"/><path style="stroke:#000000;stroke-width:0.088" d="M99.42,60.54L145.37,34.05L146.72,34.83L100.78,61.32"/><path style="stroke:#000000;stroke-width:0.088" d="M100.37,66.29L100.36,66.37L100.32,66.44L100.26,66.48L100.18,66.48L100.10,66.44L100.01,66.37L99.93,66.28L99.87,66.17L99.84,66.05L99.83,65.95L99.85,65.86L99.90,65.80L99.98,65.78L100.06,65.80L100.15,65.86L100.23,65.94L100.30,66.04L100.35,66.16L100.37,66.29"/><path style="stroke:#000000;stroke-width:0.088" d="M100.37,66.26L100.36,66.31L100.33,66.37L100.28,66.40L100.21,66.40L100.13,66.37L100.06,66.31L100.00,66.23L99.94,66.14L99.92,66.04L99.91,65.95L99.93,65.88L99.98,65.83L100.04,65.81L100.11,65.83"/><path style="stroke:#000000;stroke-width:0.088" d="M99.87,63.03L99.93,63.15L100.01,63.25L100.10,63.32L100.18,63.36L100.26,63.35L100.32,63.32L100.36,63.24L100.37,63.15L100.35,63.03L100.30,62.92L100.23,62.82L100.15,62.73L100.06,62.68L99.98,62.66L99.90,62.68L99.85,62.74L99.83,62.82L99.84,62.93L99.87,63.03"/><path style="stroke:#000000;stroke-width:0.088" d="M100.10,62.71L100.04,62.69L99.98,62.71L99.93,62.76L99.91,62.83L99.92,62.92L99.94,63.02L100.00,63.11L100.06,63.19L100.13,63.25L100.21,63.28L100.28,63.28L100.33,63.25L100.36,63.19L100.37,63.14"/><path style="stroke:#000000;stroke-width:0.088" d="M100.78,67.56L146.72,41.07L147.62,39.51L147.62,35.35L146.72,34.83"/><path style="stroke:#000000;stroke-width:0.088" d="M111.17,55.87L111.09,55.97L111.04,56.08L111.00,56.19L111.00,56.30L111.03,56.38L111.08,56.43L111.16,56.45L111.24,56.43L111.33,56.37L111.41,56.28L111.48,56.18L111.52,56.06L111.54,55.95L111.53,55.86L111.49,55.79L111.42,55.75L111.34,55.76L111.27,55.79L111.17,55.87"/><path style="stroke:#000000;stroke-width:0.088" d="M111.24,55.81L111.28,55.79L111.35,55.79L111.41,55.81L111.44,55.87L111.45,55.95L111.44,56.04L111.40,56.14L111.34,56.23L111.27,56.30L111.20,56.35L111.13,56.36L111.07,56.35L111.02,56.31L111.00,56.25"/><path style="stroke:#000000;stroke-width:0.088" d="M111.27,55.79L111.26,55.79"/><path style="stroke:#000000;stroke-width:0.088" d="M121.37,53.95L121.05,54.13L120.95,54.17L120.87,54.17L120.81,54.13L120.77,54.06L120.75,53.97L120.77,53.85L120.81,53.73L120.87,53.62L120.95,53.53L121.05,53.46L122.85,52.42L122.94,52.38L123.02,52.38L123.08,52.42L123.12,52.49L123.14,52.59L123.12,52.70L123.08,52.82L123.02,52.93L122.94,53.03L122.85,53.10L121.37,53.95"/><path style="stroke:#000000;stroke-width:0.088" d="M121.05,54.13L120.75,53.97"/><path style="stroke:#000000;stroke-width:0.088" d="M122.85,53.10L122.26,52.76"/><path style="stroke:#000000;stroke-width:0.088" d="M125.05,47.92L125.13,47.82L125.22,47.75L125.31,47.71L125.39,47.70L125.45,47.74L125.49,47.81L125.50,47.90L125.49,48.01L125.44,48.13L125.38,48.23L125.29,48.32L125.21,48.38L125.12,48.40L125.05,48.38L124.99,48.33L124.97,48.25L124.97,48.14L125.00,48.03L125.05,47.92"/><path style="stroke:#000000;stroke-width:0.088" d="M124.97,48.19L124.99,48.26L125.03,48.30L125.09,48.31L125.17,48.30L125.24,48.25L125.31,48.18L125.36,48.09L125.40,47.99L125.41,47.90L125.40,47.82L125.37,47.76L125.32,47.74L125.25,47.74L125.21,47.76"/><path style="stroke:#000000;stroke-width:0.088" d="M124.97,48.25L124.97,48.23"/><path style="stroke:#000000;stroke-width:0.088" d="M145.37,34.05L145.53,34.14"/><path style="stroke:#000000;stroke-width:0.088" d="M146.59,39.86L146.67,39.85L146.76,39.80L146.85,39.72L146.92,39.61L146.97,39.50L146.99,39.39L146.98,39.29L146.95,39.21L146.89,39.17L146.81,39.17L146.72,39.20L146.63,39.27L146.56,39.36L146.49,39.47L146.46,39.58L146.45,39.69L146.47,39.78L146.52,39.84L146.59,39.86"/><path style="stroke:#000000;stroke-width:0.088" d="M146.70,39.22L146.75,39.20L146.81,39.20L146.86,39.24L146.89,39.30L146.89,39.42L146.88,39.48L146.84,39.57L146.75,39.68L146.71,39.72L146.64,39.77L146.57,39.78L146.51,39.76L146.47,39.71L146.45,39.65"/><path style="stroke:#000000;stroke-width:0.088" d="M146.81,39.20L146.83,39.21"/><path style="stroke:#000000;stroke-width:0.088" d="M146.71,36.70L146.67,36.73L146.59,36.74L146.52,36.72L146.47,36.66L146.45,36.57L146.46,36.46L146.49,36.35L146.56,36.24L146.63,36.14L146.72,36.08L146.81,36.04L146.89,36.05L146.95,36.09L146.98,36.17L146.99,36.26L146.97,36.38L146.92,36.49L146.85,36.59L146.76,36.68L146.71,36.70"/><path style="stroke:#000000;stroke-width:0.088" d="M146.70,36.10L146.75,36.08L146.81,36.08L146.86,36.12L146.89,36.18L146.89,36.30L146.88,36.35L146.84,36.45L146.78,36.53L146.75,36.56L146.71,36.60L146.64,36.64L146.57,36.66L146.51,36.64L146.47,36.59L146.45,36.53"/><path style="stroke:#000000;stroke-width:0.088" d="M146.81,36.08L146.84,36.09"/><path style="stroke:#000000;stroke-width:0.088" d="M63.84,75.85L66.54,74.29L67.89,75.07L65.19,76.63L63.84,75.85L63.84,81.05L64.65,81.52L67.35,79.96L67.35,76.94"/><path style="stroke:#000000;stroke-width:0.088" d="M64.65,81.52L64.65,77.88L65.19,78.19L65.19,76.63"/><path style="stroke:#000000;stroke-width:0.088" d="M65.12,79.81L65.07,79.87L65.03,79.95L65.01,80.02L65.01,80.06L65.01,80.09L65.03,80.15L65.06,80.18L65.11,80.19L65.17,80.18L65.23,80.14L65.29,80.08L65.33,80.01L65.36,79.93L65.37,79.86L65.36,79.80L65.33,79.75L65.29,79.73L65.24,79.73L65.18,79.76L65.12,79.81"/><path style="stroke:#000000;stroke-width:0.088" d="M65.01,80.05L65.01,80.06L65.03,80.10L65.06,80.13L65.10,80.14L65.15,80.13L65.20,80.10L65.24,80.05L65.28,79.99L65.31,79.92L65.32,79.86L65.31,79.81L65.28,79.77L65.25,79.75L65.20,79.75L65.17,79.76"/><path style="stroke:#000000;stroke-width:0.088" d="M65.28,79.77L65.28,79.77"/><path style="stroke:#000000;stroke-width:0.088" d="M65.19,78.19L67.89,76.63L67.89,75.07"/><path style="stroke:#000000;stroke-width:0.088" d="M66.27,76.73L66.27,76.78L66.27,76.83L66.30,76.91L66.36,76.96L66.43,76.98L66.52,76.95L66.60,76.89L66.69,76.81L66.75,76.70L66.80,76.59L66.81,76.48L66.80,76.38L66.76,76.31L66.69,76.28L66.61,76.29L66.52,76.33L66.43,76.40L66.36,76.50L66.30,76.61L66.27,76.73L66.27,76.73"/><path style="stroke:#000000;stroke-width:0.088" d="M66.27,76.76L66.27,76.78L66.30,76.85L66.34,76.89L66.41,76.90L66.48,76.88L66.55,76.83L66.62,76.76L66.68,76.67L66.72,76.57L66.73,76.48L66.72,76.40L66.68,76.34L66.63,76.31L66.56,76.31L66.51,76.34"/><path style="stroke:#000000;stroke-width:0.088" d="M66.69,79.25L66.65,79.21L66.63,79.16L66.63,79.13L66.63,79.09L66.65,79.01L66.69,78.94L66.74,78.87L66.80,78.82L66.86,78.80L66.91,78.79L66.95,78.82L66.98,78.86L66.99,78.92L66.98,79.00L66.95,79.07L66.91,79.14L66.85,79.20L66.79,79.24L66.74,79.26L66.69,79.25"/><path style="stroke:#000000;stroke-width:0.088" d="M66.63,79.11L66.63,79.12L66.65,79.17L66.68,79.20L66.72,79.21L66.77,79.19L66.82,79.16L66.86,79.11L66.90,79.05L66.93,78.99L66.94,78.92L66.93,78.87L66.91,78.83L66.87,78.81L66.82,78.81L66.79,78.83"/><path style="stroke:#000000;stroke-width:0.088" d="M66.91,78.83L66.91,78.83"/><path style="stroke:#000000;stroke-width:0.088" d="M131.30,56.08L142.11,62.31L143.46,61.53L132.65,55.30L131.30,56.08L131.30,60.66L136.16,63.47L136.16,64.09L143.01,68.04L143.01,63.87L144.36,63.09L144.36,67.26L143.01,68.04"/><path style="stroke:#000000;stroke-width:0.088" d="M142.11,62.31L143.01,63.87"/><path style="stroke:#000000;stroke-width:0.088" d="M143.46,61.53L144.36,63.09"/><path style="stroke:#000000;stroke-width:0.088" d="M82.45,51.11L82.33,51.11L81.97,50.90L81.84,50.95L81.70,51.06L81.67,51.09L81.57,51.20L81.46,51.38L81.40,51.56L81.38,51.74L81.40,51.89L81.46,52.00L81.82,52.20L81.86,52.24L82.50,52.60"/><path style="stroke:#000000;stroke-width:0.088" d="M81.46,52.00L81.32,51.80L81.28,51.73L81.26,51.60L81.28,51.45L81.34,51.29L81.43,51.14L81.49,51.06L81.54,51.02L81.66,50.93L81.75,50.89L81.97,50.90"/><path style="stroke:#000000;stroke-width:0.088" d="M82.45,51.11L82.19,50.96L82.07,50.96"/><path style="stroke:#000000;stroke-width:0.088" d="M82.75,52.63L82.61,52.64L82.57,52.64L82.50,52.60L82.42,52.50L82.39,52.35L82.41,52.17L82.47,51.98L82.58,51.79L82.71,51.64L82.86,51.53L83.00,51.49L83.13,51.50L83.23,51.57L83.28,51.70L83.29,51.87L83.29,51.94L83.25,52.10L83.18,52.26L83.08,52.40L82.96,52.51L82.83,52.58L82.71,52.60L82.62,52.56L82.55,52.47L82.52,52.34L82.54,52.19L82.59,52.03L82.68,51.87L82.80,51.74L82.92,51.65L83.04,51.61L83.13,51.62L83.15,51.62L83.24,51.69L83.28,51.79L83.29,51.94"/><path style="stroke:#000000;stroke-width:0.088" d="M83.04,52.29L83.00,52.34L82.91,52.41L82.82,52.45L82.74,52.45L82.68,52.41L82.65,52.33L82.64,52.24L82.66,52.13L82.71,52.01L82.78,51.91L82.86,51.82L82.95,51.77L83.03,51.75L83.07,51.76L83.10,51.78L83.15,51.83L83.18,51.92L83.17,52.02L83.14,52.14L83.08,52.25L83.04,52.29"/><path style="stroke:#000000;stroke-width:0.088" d="M82.64,52.22L82.64,52.28L82.68,52.34L82.73,52.37L82.80,52.37L82.87,52.34L82.93,52.30L82.94,52.28L83.01,52.20L83.06,52.11L83.09,52.01L83.10,51.92L83.08,51.85L83.03,51.80L82.97,51.78L82.90,51.80"/><path style="stroke:#000000;stroke-width:0.088" d="M82.75,52.63L82.90,52.55L82.96,52.51"/><path style="stroke:#000000;stroke-width:0.088" d="M82.45,51.11L83.13,51.50"/><path style="fill:#ffffff" d="M173.77,22.70L200.18,22.70L200.18,17.06L173.77,17.06z"/><path style="stroke:#35414c;stroke-width:0.255" d="M173.77,22.70L200.18,22.70L200.18,17.06L173.77,17.06z"/><path style="stroke:#35404c;stroke-width:0.250;stroke-opacity:0.00" d="M173.77,22.70L200.18,22.70L200.18,17.06L173.77,17.06z"/><text xml:space="preserve" fill="#333f4b" stroke-width="0" x="174.47" y="21.11" font-size="3.56" opacity="1.00" font-family="Arial" font-weight="bold" font-style="italic">F24167608X</text><path style="fill:#ffffff" d="M173.77,32.74L200.18,32.74L200.18,27.10L173.77,27.10z"/><path style="stroke:#35414c;stroke-width:0.255" d="M173.77,32.74L200.18,32.74L200.18,27.10L173.77,27.10z"/><path style="stroke:#35404c;stroke-width:0.250;stroke-opacity:0.00" d="M173.77,32.74L200.18,32.74L200.18,27.10L173.77,27.10z"/><text xml:space="preserve" fill="#333f4b" stroke-width="0" x="174.47" y="31.15" font-size="3.56" opacity="1.00" font-family="Arial" font-weight="bold" font-style="italic">F24167609X</text><path style="fill:#ffffff" d="M173.77,72.89L200.18,72.89L200.18,67.25L173.77,67.25z"/><path style="stroke:#35414c;stroke-width:0.255" d="M173.77,72.89L200.18,72.89L200.18,67.25L173.77,67.25z"/><path style="stroke:#35404c;stroke-width:0.250;stroke-opacity:0.00" d="M173.77,72.89L200.18,72.89L200.18,67.25L173.77,67.25z"/><text xml:space="preserve" fill="#333f4b" stroke-width="0" x="174.47" y="71.30" font-size="3.49" opacity="1.00" font-family="Arial" font-weight="bold" font-style="italic">F24167613A</text><path style="fill:#ffffff" d="M173.77,42.78L200.18,42.78L200.18,37.13L173.77,37.13z"/><path style="stroke:#35414c;stroke-width:0.255" d="M173.77,42.78L200.18,42.78L200.18,37.13L173.77,37.13z"/><path style="stroke:#35404c;stroke-width:0.250;stroke-opacity:0.00" d="M173.77,42.78L200.18,42.78L200.18,37.13L173.77,37.13z"/><text xml:space="preserve" fill="#333f4b" stroke-width="0" x="174.47" y="41.19" font-size="3.49" opacity="1.00" font-family="Arial" font-weight="bold" font-style="italic">F24167610A</text><path style="fill:#ffffff" d="M173.77,132.85L200.18,132.85L200.18,127.21L173.77,127.21z"/><path style="stroke:#35414c;stroke-width:0.255" d="M173.77,132.85L200.18,132.85L200.18,127.21L173.77,127.21z"/><path style="stroke:#35404c;stroke-width:0.250;stroke-opacity:0.00" d="M173.77,132.85L200.18,132.85L200.18,127.21L173.77,127.21z"/><text xml:space="preserve" fill="#333f4b" stroke-width="0" x="174.47" y="131.26" font-size="3.40" opacity="1.00" font-family="Arial" font-weight="bold" font-style="italic">VM1570</text><path style="fill:#ffffff" d="M173.77,112.78L200.18,112.78L200.18,107.13L173.77,107.13z"/><path style="stroke:#35414c;stroke-width:0.255" d="M173.77,112.78L200.18,112.78L200.18,107.13L173.77,107.13z"/><path style="stroke:#35404c;stroke-width:0.250;stroke-opacity:0.00" d="M173.77,112.78L200.18,112.78L200.18,107.13L173.77,107.13z"/><text xml:space="preserve" fill="#333f4b" stroke-width="0" x="174.47" y="111.19" font-size="3.56" opacity="1.00" font-family="Arial" font-weight="bold" font-style="italic">F24973942X</text><path style="fill:#ffffff" d="M173.77,62.85L200.18,62.85L200.18,57.21L173.77,57.21z"/><path style="stroke:#35414c;stroke-width:0.255" d="M173.77,62.85L200.18,62.85L200.18,57.21L173.77,57.21z"/><path style="stroke:#35404c;stroke-width:0.250;stroke-opacity:0.00" d="M173.77,62.85L200.18,62.85L200.18,57.21L173.77,57.21z"/><text xml:space="preserve" fill="#333f4b" stroke-width="0" x="174.47" y="61.26" font-size="3.49" opacity="1.00" font-family="Arial" font-weight="bold" font-style="italic">F24167612A</text><path style="fill:#ffffff" d="M173.77,82.66L200.18,82.66L200.18,77.02L173.77,77.02z"/><path style="stroke:#35414c;stroke-width:0.255" d="M173.77,82.66L200.18,82.66L200.18,77.02L173.77,77.02z"/><path style="stroke:#35404c;stroke-width:0.250;stroke-opacity:0.00" d="M173.77,82.66L200.18,82.66L200.18,77.02L173.77,77.02z"/><text xml:space="preserve" fill="#333f4b" stroke-width="0" x="174.47" y="81.08" font-size="3.49" opacity="1.00" font-family="Arial" font-weight="bold" font-style="italic">F24167646A</text><path style="fill:#ffffff" d="M173.77,142.89L200.18,142.89L200.18,137.25L173.77,137.25z"/><path style="stroke:#35414c;stroke-width:0.255" d="M173.77,142.89L200.18,142.89L200.18,137.25L173.77,137.25z"/><path style="stroke:#35404c;stroke-width:0.250;stroke-opacity:0.00" d="M173.77,142.89L200.18,142.89L200.18,137.25L173.77,137.25z"/><text xml:space="preserve" fill="#333f4b" stroke-width="0" x="174.47" y="141.30" font-size="3.40" opacity="1.00" font-family="Arial" font-weight="bold" font-style="italic">VT0039</text><path style="fill:#ffffff" d="M173.77,102.74L200.18,102.74L200.18,97.10L173.77,97.10z"/><path style="stroke:#35414c;stroke-width:0.255" d="M173.77,102.74L200.18,102.74L200.18,97.10L173.77,97.10z"/><path style="stroke:#35404c;stroke-width:0.250;stroke-opacity:0.00" d="M173.77,102.74L200.18,102.74L200.18,97.10L173.77,97.10z"/><text xml:space="preserve" fill="#333f4b" stroke-width="0" x="174.47" y="101.15" font-size="3.49" opacity="1.00" font-family="Arial" font-weight="bold" font-style="italic">F24973476A</text><path style="fill:#ffffff" d="M173.77,12.66L200.18,12.66L200.18,7.02L173.77,7.02z"/><path style="stroke:#35414c;stroke-width:0.255" d="M173.77,12.66L200.18,12.66L200.18,7.02L173.77,7.02z"/><path style="stroke:#35404c;stroke-width:0.250;stroke-opacity:0.00" d="M173.77,12.66L200.18,12.66L200.18,7.02L173.77,7.02z"/><text xml:space="preserve" fill="#333f4b" stroke-width="0" x="174.47" y="11.08" font-size="3.49" opacity="1.00" font-family="Arial" font-weight="bold" font-style="italic">F24167599A</text><path style="fill:#ffffff" d="M173.77,122.81L200.18,122.81L200.18,117.17L173.77,117.17z"/><path style="stroke:#35414c;stroke-width:0.255" d="M173.77,122.81L200.18,122.81L200.18,117.17L173.77,117.17z"/><path style="stroke:#35404c;stroke-width:0.250;stroke-opacity:0.00" d="M173.77,122.81L200.18,122.81L200.18,117.17L173.77,117.17z"/><text xml:space="preserve" fill="#333f4b" stroke-width="0" x="174.47" y="121.23" font-size="3.56" opacity="1.00" font-family="Arial" font-weight="bold" font-style="italic">F31975413X</text><path style="fill:#ffffff" d="M173.77,52.81L200.18,52.81L200.18,47.17L173.77,47.17z"/><path style="stroke:#35414c;stroke-width:0.255" d="M173.77,52.81L200.18,52.81L200.18,47.17L173.77,47.17z"/><path style="stroke:#35404c;stroke-width:0.250;stroke-opacity:0.00" d="M173.77,52.81L200.18,52.81L200.18,47.17L173.77,47.17z"/><text xml:space="preserve" fill="#333f4b" stroke-width="0" x="174.47" y="51.23" font-size="3.56" opacity="1.00" font-family="Arial" font-weight="bold" font-style="italic">F24167611X</text><path style="fill:#ffffff" d="M173.77,92.70L200.18,92.70L200.18,87.06L173.77,87.06z"/><path style="stroke:#35414c;stroke-width:0.255" d="M173.77,92.70L200.18,92.70L200.18,87.06L173.77,87.06z"/><path style="stroke:#35404c;stroke-width:0.250;stroke-opacity:0.00" d="M173.77,92.70L200.18,92.70L200.18,87.06L173.77,87.06z"/><text xml:space="preserve" fill="#333f4b" stroke-width="0" x="174.47" y="91.11" font-size="3.56" opacity="1.00" font-family="Arial" font-weight="bold" font-style="italic">F24304504X</text><g id="paperID" visibility="hidden" opacity="0.00" transform="scale(0.000100)"><path style="stroke:#000000;stroke-width:0.500;fill:#e6e6e6;fill-rule:evenodd" d="M-2000.00,-2000.00L2210.00,-2000.00L2210.00,2150.00L-2000.00,2150.00zM0.00,0.00L210.00,0.00L210.00,150.00L0.00,150.00z"/><path style="fill:#000000;fill-opacity:0.118" d="M3.00,150.00L210.00,150.00L210.00,3.00L213.00,3.00L213.00,153.00L3.00,153.00z"/></g><g id="hotspot.0" onmouseover="ShowHotSpot(evt,'0')" onmouseout="HideHotSpot(evt,'0')" onmousemove="ShowToolTip(evt,'0',&quot;F24167599A&quot;)" opacity="0"><path style="fill:#00ff00;fill-rule:evenodd" d="M200.43,7.45L200.42,12.61L200.14,13.12L173.71,13.05L173.71,7.29L200.17,7.19zM157.36,41.28L157.61,45.79L162.10,48.43L162.13,49.33L142.74,60.59L141.48,60.60L132.78,55.54L132.43,55.53L131.46,56.17L131.46,60.84L135.93,63.50L136.22,64.27L131.39,67.21L130.42,67.18L127.79,65.60L125.79,66.66L125.15,66.69L122.68,68.00L122.45,68.57L111.27,75.08L113.53,76.69L113.43,77.49L112.34,77.74L110.76,78.54L110.04,79.39L29.79,125.68L23.35,129.27L22.01,129.52L18.14,129.52L16.80,129.27L14.88,128.29L14.95,124.58L17.51,120.26L80.39,84.06L81.02,84.04L81.30,84.32L81.54,85.52L92.88,78.88L93.16,76.78L155.93,40.48L156.29,40.48zM95.03,86.32L92.79,87.77L91.55,87.81L89.35,86.52L89.35,86.23L92.39,84.62z"/></g><g id="hotspot.1" onmouseover="ShowHotSpot(evt,'1')" onmouseout="HideHotSpot(evt,'1')" onmousemove="ShowToolTip(evt,'1',&quot;F24167611X&quot;)" opacity="0"><path style="fill:#00ff00;fill-rule:evenodd" d="M200.43,47.60L200.42,52.76L200.14,53.27L173.71,53.20L173.71,47.44L200.17,47.34zM119.33,91.18L119.22,92.54L102.40,100.30L101.60,100.50L97.63,98.07L97.64,97.40L98.35,96.77L100.99,95.71L102.42,95.71L102.31,96.79L103.12,96.79L110.88,94.50L111.66,93.17L115.00,92.01L119.06,90.91z"/></g><g id="hotspot.2" onmouseover="ShowHotSpot(evt,'2')" onmouseout="HideHotSpot(evt,'2')" onmousemove="ShowToolTip(evt,'2',&quot;F24167612A&quot;)" opacity="0"><path style="fill:#00ff00;fill-rule:evenodd" d="M143.35,61.63L144.41,63.21L144.43,67.30L143.50,67.97L142.57,67.97L136.22,64.27L135.93,63.50L131.46,60.84L131.46,56.17L132.43,55.53L132.78,55.54zM200.43,57.64L200.42,62.80L200.14,63.31L173.71,63.23L173.71,57.48L200.17,57.38z"/></g><g id="hotspot.3" onmouseover="ShowHotSpot(evt,'3')" onmouseout="HideHotSpot(evt,'3')" onmousemove="ShowToolTip(evt,'3',&quot;F24167613A&quot;)" opacity="0"><path style="fill:#00ff00;fill-rule:evenodd" d="M147.56,35.49L147.59,39.81L146.79,41.13L101.27,67.47L100.28,67.47L99.50,66.92L99.50,60.67L145.11,34.40L145.72,34.40zM200.43,67.68L200.42,72.84L200.14,73.34L173.71,73.27L173.71,67.52L200.17,67.41z"/></g><g id="hotspot.4" onmouseover="ShowHotSpot(evt,'4')" onmouseout="HideHotSpot(evt,'4')" onmousemove="ShowToolTip(evt,'4',&quot;F24167646A&quot;)" opacity="0"><path style="fill:#00ff00;fill-rule:evenodd" d="M95.52,57.16L95.82,57.65L95.80,64.89L82.85,72.30L82.06,72.49L81.01,71.94L80.99,61.18L81.71,60.31L84.20,59.00L84.70,59.25L85.78,60.03L85.94,62.54L86.82,62.25L87.80,61.39L88.15,60.68L88.37,56.68L90.25,55.38L90.95,55.01L91.84,55.01zM200.43,77.45L200.42,82.61L200.14,83.12L173.71,83.05L173.71,77.29L200.17,77.19z"/></g><g id="hotspot.5" onmouseover="ShowHotSpot(evt,'5')" onmouseout="HideHotSpot(evt,'5')" onmousemove="ShowToolTip(evt,'5',&quot;F24304504X&quot;)" opacity="0"><path style="fill:#00ff00;fill-rule:evenodd" d="M200.43,87.49L200.42,92.65L200.14,93.15L173.71,93.08L173.71,87.33L200.17,87.23zM22.89,134.81L23.97,135.58L23.89,137.48L23.16,138.07L21.49,138.51L20.24,138.51L18.65,137.99L18.13,137.46L17.85,136.92L17.85,135.94L18.57,135.06L19.62,134.53L22.11,134.54z"/></g><g id="hotspot.6" onmouseover="ShowHotSpot(evt,'6')" onmouseout="HideHotSpot(evt,'6')" onmousemove="ShowToolTip(evt,'6',&quot;F24973476&quot;)" opacity="0"><path style="fill:#00ff00;fill-rule:evenodd" d="M67.80,75.11L67.81,76.79L67.55,77.06L67.27,80.21L65.08,81.48L64.34,81.50L64.02,81.27L64.02,75.91L66.39,74.55zM200.43,97.53L200.42,102.69L200.14,103.19L173.71,103.12L173.71,97.37L200.17,97.26z"/></g><g id="hotspot.7" onmouseover="ShowHotSpot(evt,'7')" onmouseout="HideHotSpot(evt,'7')" onmousemove="ShowToolTip(evt,'7',&quot;F24167608X&quot;)" opacity="0"><path style="fill:#00ff00;fill-rule:evenodd" d="M200.43,17.49L200.42,22.65L200.14,23.15L173.71,23.08L173.71,17.33L200.17,17.23zM161.84,64.83L161.88,65.42L156.18,68.76L155.22,68.79L151.00,66.38L151.00,65.43L156.73,62.13L157.34,62.14z"/></g><g id="hotspot.8" onmouseover="ShowHotSpot(evt,'8')" onmouseout="HideHotSpot(evt,'8')" onmousemove="ShowToolTip(evt,'8',&quot;F24973942&quot;)" opacity="0"><path style="fill:#00ff00;fill-rule:evenodd" d="M76.83,47.36L76.81,47.99L75.91,49.26L75.17,49.27L74.84,49.03L74.91,47.97L75.62,47.08L76.54,47.07zM69.37,51.35L69.65,51.82L69.38,52.74L68.75,53.45L68.04,53.50L67.71,53.27L67.81,51.96L68.73,51.06zM200.43,107.57L200.42,112.72L200.14,113.23L173.71,113.16L173.71,107.41L200.17,107.30z"/></g><g id="hotspot.9" onmouseover="ShowHotSpot(evt,'9')" onmouseout="HideHotSpot(evt,'9')" onmousemove="ShowToolTip(evt,'9',&quot;F31975413X&quot;)" opacity="0"><path style="fill:#00ff00;fill-rule:evenodd" d="M72.33,79.04L72.31,79.96L71.93,80.40L70.94,80.43L70.61,80.20L70.70,79.15L71.13,78.78L72.05,78.77zM200.43,117.60L200.42,122.76L200.14,123.27L173.71,123.20L173.71,117.44L200.17,117.34z"/></g><g id="hotspot.10" onmouseover="ShowHotSpot(evt,'10')" onmouseout="HideHotSpot(evt,'10')" onmousemove="ShowToolTip(evt,'10',&quot;VM1570&quot;)" opacity="0"><path style="fill:#00ff00;fill-rule:evenodd" d="M68.07,38.87L68.05,40.52L69.14,43.13L69.65,43.40L70.16,44.22L71.82,45.53L71.78,45.88L70.96,45.81L69.94,45.27L69.12,45.29L67.01,44.20L66.44,38.99L67.15,38.39zM60.68,42.90L60.63,43.94L62.00,47.36L62.83,47.85L63.24,48.76L64.65,49.73L64.56,50.02L63.83,50.05L63.06,49.47L61.17,49.24L59.88,48.43L59.23,43.14L59.78,42.59zM200.43,127.64L200.42,132.80L200.14,133.31L173.71,133.23L173.71,127.48L200.17,127.38z"/></g><g id="hotspot.11" onmouseover="ShowHotSpot(evt,'11')" onmouseout="HideHotSpot(evt,'11')" onmousemove="ShowToolTip(evt,'11',&quot;VT0039&quot;)" opacity="0"><path style="fill:#00ff00;fill-rule:evenodd" d="M83.12,51.61L83.03,52.68L82.32,52.69L81.53,52.12L81.53,51.13L82.06,51.04zM76.00,55.84L76.02,56.43L75.76,56.77L75.19,56.92L74.04,55.80L74.33,55.29L74.92,55.26zM200.43,137.68L200.42,142.84L200.14,143.34L173.71,143.27L173.71,137.52L200.17,137.41z"/></g><g id="hotspot.12" onmouseover="ShowHotSpot(evt,'12')" onmouseout="HideHotSpot(evt,'12')" onmousemove="ShowToolTip(evt,'12',&quot;F24167609X&quot;)" opacity="0"><path style="fill:#00ff00;fill-rule:evenodd" d="M200.43,27.53L200.42,32.69L200.14,33.19L173.71,33.12L173.71,27.37L200.17,27.26zM154.20,78.66L151.72,80.15L150.73,80.15L140.16,74.03L140.07,73.54L142.47,72.17L143.08,72.17zM148.93,81.18L149.18,81.56L146.70,83.07L145.99,83.06L135.41,76.94L135.41,76.27L137.82,74.84zM156.37,80.27L154.63,81.47L153.82,81.47L156.22,80.12zM151.35,83.18L149.61,84.37L148.80,84.37L151.20,83.03z"/></g><g id="hotspot.13" onmouseover="ShowHotSpot(evt,'13')" onmouseout="HideHotSpot(evt,'13')" onmousemove="ShowToolTip(evt,'13',&quot;F24167610A&quot;)" opacity="0"><path style="fill:#00ff00;fill-rule:evenodd" d="M200.43,37.57L200.42,42.72L200.14,43.23L173.71,43.16L173.71,37.41L200.17,37.30zM159.47,77.51L159.38,78.27L145.49,86.32L143.78,87.78L142.53,87.81L141.75,87.25L141.76,86.30L143.34,84.96L157.79,76.67L158.14,76.66z"/></g></g></svg>
