<?xml version="1.0" encoding="UTF-8" standalone="no"?>
<svg xmlns="http://www.w3.org/2000/svg" xmlns:xlink="http://www.w3.org/1999/xlink" width="210.000mm" height="150.000mm" viewBox="0.000000 0.000000 210.000000 150.000000" stroke-linejoin="round" stroke-linecap="round" fill="none" fill-rule="evenodd"><desc>Composer Export</desc><script type="text/ecmascript"><![CDATA[
if(typeof(top) != "undefined")
{
	top.ShowPaper = ShowPaper;
}
function ShowHotSpot(evt,hotspotid)
{
	var svgDocument = evt.target.ownerDocument;
	var strId = "hotspot."+hotspotid;
	var hotspot = svgDocument.getElementById(strId);
	if(hotspot)
		hotspot.setAttribute("opacity",".5");
}
function HideHotSpot(evt,hotspotid)
{
	var svgDocument = evt.target.ownerDocument;
	var strId = "hotspot."+hotspotid;
	var hotspot = svgDocument.getElementById(strId);
	if(hotspot)
		hotspot.setAttribute("opacity","0");

	var toolTip = svgDocument.getElementById('ToolTip');
	if(toolTip)
		toolTip.setAttribute("visibility","hidden");
}
function ShowToolTip(evt,hotspotid,strTooltip)
{
	if(strTooltip=="")
	return;

	// change text
	var svgDocument = evt.target.ownerDocument;
	var tiptext = svgDocument.getElementById('ToolTipText');
	if( !tiptext )
	return;
	tiptext.firstChild.nodeValue = " " + strTooltip + "  " ;

	// show tooltip before, else some refresh issue

	var toolTip = svgDocument.getElementById('ToolTip');
	if(!toolTip)
	return;

	toolTip.setAttribute("visibility","visible");
	toolTip.setAttribute("opacity",".95");

	// move tooltip
	// get viewbox

	var root = svgDocument.documentElement;
	var vbox = (root.getAttribute("viewBox")).split(' ');
	var x0 = parseFloat(vbox[0]);
	var y0 = parseFloat(vbox[1]);
	var vboxW = parseFloat(vbox[2]);
	var vboxH = parseFloat(vbox[3]);

	// get default width of svg

	var strW = root.getAttribute("width");
	var svgW = parseFloat(strW);
	if(strW.indexOf('mm') != -1)
	svgW *= 3.779;

	var strH = root.getAttribute("height");
	var svgH = parseFloat(strH);
	if(strH.indexOf('mm') != -1)
	svgH *= 3.779;  	// 96 dpi  -> 96/25.4 = 3.779

	// update the viewbox / width / height if svg is embedded in html with zoom fit all
	var realx0 = x0;
	var realy0 = y0;
	var realvboxW = vboxW;
	var realvboxH = vboxH;
	var realsvgW = svgW;
	var realsvgH = svgH;

	if ((typeof(top) == "undefined") || (typeof(top.svgctl1) != "undefined")) // embedded in html
	{
		// get window size in pxl

		svgW = window.innerWidth;
		svgH = window.innerHeight;

		// calculate real viewbox

		realsvgW = svgW;
		realsvgH = svgH;
		if((svgW / svgH) > (vboxW / vboxH))
		{
			realvboxW = (vboxH * svgW) / svgH;
			realvboxH = vboxH;
			realx0 = x0 - (realvboxW - vboxW)/2 ;
		}
		else
		{
			realvboxH = (vboxW * svgH) / svgW;
			realvboxW = vboxW;
			realy0 = y0 - (realvboxH - vboxH)/2 ;
		}
	}

	// get user zoom/pan

	var newScale = root.currentScale;
	var translation = root.currentTranslate;

	// transform pxl to user unit

	var xPos = (((evt.clientX+10- translation.x)/newScale) * realvboxW)/realsvgW  + realx0 ;
	var yPos = (((evt.clientY+5- translation.y)/newScale) * realvboxH)/ realsvgH  + realy0 ;
	var scaleForWidth = ( (1 / newScale) * realvboxH) / realsvgH;

	// move tooltip

	toolTip.setAttribute("transform", "translate(" + xPos + "," + yPos + ")" );

	// resize tooltip

	var fontsize = 12;
	tiptext.setAttribute("font-size",fontsize*scaleForWidth);
	tiptext.setAttribute("y", fontsize*scaleForWidth);
	var tipBG = svgDocument.getElementById('ToolTipBG');
	var outline = tiptext.getBBox();
	if(tipBG)
	{
		tipBG.setAttribute("stroke-width", 1*scaleForWidth);
		tipBG.setAttribute("width", Number(outline.width) );
		tipBG.setAttribute("height", Number(outline.height) + fontsize*.5*scaleForWidth );
	}
	var ToolTipShadow = svgDocument.getElementById('ToolTipShadow');
	if(ToolTipShadow)
	{
		ToolTipShadow.setAttribute("width", Number(outline.width) );
		ToolTipShadow.setAttribute("height", Number(outline.height) + fontsize*.5*scaleForWidth );
		ToolTipShadow.setAttribute("x", 3*scaleForWidth);
		ToolTipShadow.setAttribute("y", 3*scaleForWidth);
	}
}
function ShowPaper()
{
  var svgDocument = getDocument();
  var paper = svgDocument.getElementById("paperID");
  if(paper)
  {
    paper.setAttribute("transform","scale(1)");
    paper.setAttribute("opacity","1");
    paper.setAttribute("visibility","visible");
  }
  var svg = svgDocument.getRootElement();
  if(svg)
  {
    svg.setAttribute("width","220.000mm");
    svg.setAttribute("height","160.000mm");
    svg.setAttribute("viewBox","-5.000000 -5.000000 220.000000 160.000000");
  }
}
]]></script><defs/><g><path style="fill:#ffffff" d="M209.93,149.99L0.04,149.99L0.04,0.04L209.93,0.04z"/><path style="fill:#2ac7ce" d="M70.41,50.85L70.93,51.23L71.01,53.17L71.16,53.27L71.16,97.14L71.01,97.24L71.05,99.25L71.18,99.38L71.17,112.61L70.87,113.45L68.73,114.73L67.74,114.73L61.55,111.16L60.67,110.14L60.14,109.02L60.15,46.97L61.75,46.03L62.05,46.03z"/><path style="fill:#2ac7ce" d="M88.04,97.74L88.24,97.76L94.57,94.06L95.00,94.06L96.65,95.07L96.73,99.43L97.03,99.63L97.03,100.83L96.40,101.60L87.99,106.50L87.53,106.48L86.88,106.10L86.75,105.60L79.54,101.40L79.03,100.78L78.89,100.53L78.90,95.12L79.66,94.62L81.01,93.80L81.18,93.80z"/><path style="fill:#00fdff" d="M112.98,25.90L113.00,29.11L99.26,37.05L98.79,37.05L89.80,31.85L89.80,29.61L103.56,21.70L105.77,21.71z"/><path style="fill:#00fdff" d="M119.96,67.84L119.96,71.17L106.28,79.05L106.02,79.13L96.90,73.92L96.90,71.55L110.66,63.65L112.74,63.65z"/><path style="fill:#9daff7" d="M146.06,122.45L146.83,123.33L146.82,123.89L146.18,125.40L145.14,126.00L144.53,126.01L128.07,116.49L127.39,115.47L128.13,113.68L129.42,112.93L129.59,112.93z"/><path style="fill:#95dce0" d="M117.30,105.34L117.94,105.84L117.89,108.01L117.37,108.76L98.25,119.79L97.53,119.78L94.88,118.26L94.73,118.02L94.73,116.02L95.06,115.34L95.72,114.85L114.59,103.94L114.89,103.94z"/><path style="fill:#01ff02" d="M90.95,31.21L90.94,31.65L90.70,31.61L90.56,31.47L90.52,30.95L90.80,30.95z"/><path style="fill:#01ff02" d="M94.76,33.50L94.71,33.75L94.48,33.77L94.22,33.51L94.23,33.02L94.37,32.98z"/><path style="fill:#01ff02" d="M98.28,35.27L98.43,35.52L98.38,35.91L98.17,35.91L97.89,35.53L97.90,35.18L98.05,35.13z"/><path style="fill:#01ff02" d="M98.05,73.29L98.04,73.58L97.66,73.54L97.52,73.29L97.48,72.90L97.78,72.88z"/><path style="fill:#01ff02" d="M101.72,75.31L101.71,75.74L101.47,75.70L101.16,75.16L101.27,75.04L101.46,75.04z"/><path style="fill:#01ff02" d="M105.39,77.33L105.47,77.85L105.14,77.85L105.01,77.72L104.96,77.20L105.26,77.19z"/><path style="fill:#01ff02" d="M94.25,98.99L94.24,99.43L94.07,99.77L93.55,99.81L93.61,99.31L94.05,98.87z"/><path style="fill:#01ff02" d="M91.46,100.64L91.46,101.08L91.16,101.43L90.81,101.42L90.80,100.94L91.15,100.51L91.33,100.50z"/><path style="fill:#01ff02" d="M63.20,109.01L63.15,109.54L62.93,109.54L62.55,109.16L62.51,108.63L62.94,108.62z"/><path style="fill:#01ff02" d="M66.76,110.89L67.00,111.43L66.96,111.68L66.73,111.70L66.36,111.43L66.32,110.78L66.61,110.77z"/><path style="fill:#00fdff" d="M119.59,44.00L119.58,55.84L114.09,58.97L111.96,58.98L104.75,54.78L104.71,42.87L110.28,39.70L112.11,39.70z"/><path style="fill:#00fdff" d="M49.00,65.68L51.67,67.31L52.42,68.47L52.67,69.48L52.67,75.73L52.37,76.57L51.36,77.21L50.38,77.22L47.34,75.45L46.59,74.55L46.33,74.05L46.20,73.54L46.20,66.47L46.47,65.98L47.55,65.30L48.24,65.30z"/><path style="stroke:#000000;stroke-width:0.088" d="M119.59,45.66L119.59,45.41L119.58,55.80L114.00,59.02L112.13,59.02L104.68,54.72L104.68,53.51L104.68,54.32"/><path style="stroke:#000000;stroke-width:0.088" d="M104.68,53.51L104.68,43.96L112.13,48.26L112.13,59.02"/><path style="stroke:#000000;stroke-width:0.088" d="M104.68,44.59L104.68,43.78L104.68,43.96"/><path style="stroke:#000000;stroke-width:0.088" d="M104.68,43.78L104.68,42.89L110.27,39.66L112.13,39.67L119.59,43.96L119.59,45.41"/><path style="stroke:#000000;stroke-width:0.088" d="M106.79,43.78L106.73,43.86L106.70,43.97L106.74,44.08L106.83,44.18L106.98,44.25L107.16,44.29L107.35,44.30L107.54,44.27L107.70,44.21L107.82,44.12L107.88,44.01L107.87,43.90L107.81,43.79L107.71,43.72L107.68,43.70L107.52,43.64L107.33,43.62L107.13,43.63L106.96,43.68L106.82,43.76L106.79,43.78"/><path style="stroke:#000000;stroke-width:0.088" d="M111.79,47.03L111.82,47.04L112.00,47.09L112.20,47.09L112.38,47.06L112.54,47.00L112.66,46.91L112.72,46.80L112.72,46.69L112.65,46.58L112.55,46.51L112.53,46.50L112.36,46.44L112.17,46.41L111.98,46.42L111.80,46.47L111.66,46.55L111.57,46.65L111.54,46.76L111.58,46.87L111.67,46.97L111.79,47.03"/><path style="stroke:#000000;stroke-width:0.088" d="M111.64,41.35L111.67,41.38L111.82,41.46L112.00,41.50L112.20,41.51L112.38,41.48L112.55,41.41L112.66,41.32L112.72,41.22L112.72,41.10L112.65,41.00L112.55,40.93L112.53,40.91L112.36,40.85L112.17,40.83L111.98,40.84L111.80,40.88L111.66,40.96L111.57,41.06L111.54,41.18L111.58,41.29L111.64,41.35"/><path style="stroke:#000000;stroke-width:0.088" d="M112.13,48.26L114.00,48.26L114.00,59.02"/><path style="stroke:#000000;stroke-width:0.088" d="M114.00,48.26L119.59,45.03"/><path style="stroke:#000000;stroke-width:0.088" d="M116.41,43.86L116.50,43.76L116.64,43.68L116.82,43.63L117.02,43.62L117.20,43.64L117.37,43.70L117.40,43.72L117.49,43.79L117.56,43.90L117.56,44.01L117.51,44.12L117.39,44.21L117.23,44.27L117.04,44.30L116.84,44.29L116.66,44.25L116.52,44.17L116.42,44.08L116.39,43.97L116.41,43.86"/><path style="stroke:#000000;stroke-width:0.088" d="M117.56,44.01L117.56,44.01"/><path style="stroke:#000000;stroke-width:0.088" d="M47.17,65.77L46.75,65.77L46.43,65.96L46.42,65.97"/><path style="stroke:#000000;stroke-width:0.088" d="M46.75,65.77L47.68,65.24L47.49,65.35"/><path style="stroke:#000000;stroke-width:0.088" d="M47.63,75.64L47.84,75.76"/><path style="stroke:#000000;stroke-width:0.088" d="M47.17,65.77L47.63,65.95L50.24,67.45L51.17,66.92L51.63,67.27L52.04,67.75L52.37,68.32L52.59,68.92L52.66,69.50L51.73,70.04L51.66,69.46"/><path style="stroke:#000000;stroke-width:0.088" d="M47.63,65.95L48.56,65.41L51.17,66.92"/><path style="stroke:#000000;stroke-width:0.088" d="M47.68,65.24L47.94,65.24"/><path style="stroke:#000000;stroke-width:0.088" d="M48.92,75.89L48.75,75.79L48.45,75.48L48.40,75.41"/><path style="stroke:#000000;stroke-width:0.088" d="M48.18,73.62L48.12,73.66L47.99,73.93L47.95,74.21L47.95,74.28L48.02,74.69"/><path style="stroke:#000000;stroke-width:0.088" d="M48.86,69.40L48.75,69.33L48.45,69.03L48.27,68.76"/><path style="stroke:#000000;stroke-width:0.088" d="M47.96,67.62L47.95,67.75L47.95,67.82L48.02,68.23L48.04,68.28"/><path style="stroke:#000000;stroke-width:0.088" d="M48.63,67.06L48.55,67.06"/><path style="stroke:#000000;stroke-width:0.088" d="M48.56,65.41L48.26,65.30"/><path style="stroke:#000000;stroke-width:0.088" d="M49.46,76.03L49.39,76.05L49.32,76.04"/><path style="stroke:#000000;stroke-width:0.088" d="M49.21,73.85L49.11,73.85L48.99,73.93L48.92,74.06L48.90,74.24L48.94,74.45L49.03,74.67L49.16,74.87L49.32,75.03L49.38,75.07"/><path style="stroke:#000000;stroke-width:0.088" d="M49.36,74.01L49.39,74.19L49.48,74.41L49.61,74.60L49.77,74.77L49.81,74.79"/><path style="stroke:#000000;stroke-width:0.088" d="M49.11,73.85L49.11,73.85"/><path style="stroke:#000000;stroke-width:0.088" d="M49.46,69.57L49.38,69.59L49.32,69.58"/><path style="stroke:#000000;stroke-width:0.088" d="M48.99,67.46L48.92,67.60L48.90,67.78L48.94,68.00L49.03,68.22L49.10,68.33"/><path style="stroke:#000000;stroke-width:0.088" d="M49.77,68.31L49.61,68.15L49.48,67.95L49.39,67.73L49.36,67.55"/><path style="stroke:#000000;stroke-width:0.088" d="M49.21,67.39L49.11,67.39L49.04,67.43"/><path style="stroke:#000000;stroke-width:0.088" d="M49.11,67.39L49.11,67.39"/><path style="stroke:#000000;stroke-width:0.088" d="M49.83,75.76L49.83,75.77"/><path style="stroke:#000000;stroke-width:0.088" d="M49.56,75.15L49.65,75.16L49.66,75.16"/><path style="stroke:#000000;stroke-width:0.088" d="M49.77,74.65L49.56,74.25"/><path style="stroke:#000000;stroke-width:0.088" d="M49.84,69.28L49.83,69.31L49.77,69.38"/><path style="stroke:#000000;stroke-width:0.088" d="M49.65,69.52L49.46,69.57"/><path style="stroke:#000000;stroke-width:0.088" d="M49.90,68.62L49.77,68.20L49.73,68.11"/><path style="stroke:#000000;stroke-width:0.088" d="M49.78,68.66L49.78,68.66L49.74,68.68"/><path style="stroke:#000000;stroke-width:0.088" d="M50.24,67.45L50.70,67.80L51.11,68.29L51.44,68.86L51.66,69.46"/><path style="stroke:#000000;stroke-width:0.088" d="M51.18,77.28L52.04,76.78L52.04,76.78"/><path style="stroke:#000000;stroke-width:0.088" d="M51.73,70.04L51.73,76.28L51.66,76.77L51.52,77.00"/><path style="stroke:#000000;stroke-width:0.088" d="M51.73,76.28L52.66,75.74L52.59,76.23L52.37,76.59"/><path style="stroke:#000000;stroke-width:0.088" d="M52.15,76.72L52.04,76.78"/><path style="stroke:#000000;stroke-width:0.088" d="M52.66,75.74L52.66,69.50"/><path style="stroke:#000000;stroke-width:0.088" d="M106.09,79.16L106.09,77.01L96.78,71.64L110.75,63.58L112.61,63.59L120.06,67.88L120.06,71.11L106.09,79.16L99.57,75.41"/><path style="stroke:#000000;stroke-width:0.088" d="M97.35,73.15L97.34,73.12"/><path style="stroke:#000000;stroke-width:0.088" d="M97.59,73.59L97.56,73.56"/><path style="stroke:#000000;stroke-width:0.088" d="M98.02,73.66L98.01,73.67L97.98,73.69"/><path style="stroke:#000000;stroke-width:0.088" d="M98.08,73.47L98.08,73.44"/><path style="stroke:#000000;stroke-width:0.088" d="M97.72,72.84L97.62,72.82L97.54,72.84L97.49,72.91L97.46,73.00L97.47,73.12L97.51,73.25L97.57,73.38L97.66,73.49L97.76,73.57L97.86,73.61L97.95,73.60L98.02,73.56L98.04,73.52"/><path style="stroke:#000000;stroke-width:0.088" d="M97.95,73.60L97.98,73.59"/><path style="stroke:#000000;stroke-width:0.088" d="M97.77,72.87L97.77,72.87"/><path style="stroke:#000000;stroke-width:0.088" d="M97.53,72.77L97.43,72.80"/><path style="stroke:#000000;stroke-width:0.088" d="M97.37,72.88L97.42,72.81"/><path style="stroke:#000000;stroke-width:0.088" d="M101.30,75.73L101.20,75.60"/><path style="stroke:#000000;stroke-width:0.088" d="M101.26,74.92L101.16,74.95L101.10,75.02L101.06,75.14L101.06,75.29L101.12,75.44L101.19,75.60"/><path style="stroke:#000000;stroke-width:0.088" d="M101.80,75.57L101.79,75.63L101.75,75.71L101.67,75.75L101.59,75.76L101.49,75.71L101.48,75.71L101.39,75.64L101.30,75.53L101.30,75.53L101.23,75.41L101.20,75.27L101.19,75.15L101.20,75.07L101.21,75.05L101.26,75.00L101.27,74.99L101.35,74.96L101.44,74.99L101.46,75.00"/><path style="stroke:#000000;stroke-width:0.088" d="M101.31,74.98L101.26,75.00"/><path style="stroke:#000000;stroke-width:0.088" d="M101.78,75.45L101.70,75.27"/><path style="stroke:#000000;stroke-width:0.088" d="M101.79,75.72L101.74,75.82"/><path style="stroke:#000000;stroke-width:0.088" d="M101.67,75.75L101.73,75.72"/><path style="stroke:#000000;stroke-width:0.088" d="M101.71,75.73L101.73,75.72"/><path style="stroke:#000000;stroke-width:0.088" d="M101.38,74.94L101.37,74.94"/><path style="stroke:#000000;stroke-width:0.088" d="M101.44,74.99L101.40,74.96"/><path style="stroke:#000000;stroke-width:0.088" d="M105.53,77.74L105.53,77.76L105.51,77.87L105.46,77.97L105.40,78.01"/><path style="stroke:#000000;stroke-width:0.088" d="M105.15,77.97L105.27,78.02"/><path style="stroke:#000000;stroke-width:0.088" d="M105.45,77.88L105.41,77.90L105.31,77.90L105.21,77.86L105.12,77.78L105.02,77.67L104.96,77.55L104.92,77.42L104.91,77.30L104.94,77.20L105.00,77.14"/><path style="stroke:#000000;stroke-width:0.088" d="M104.82,77.52L104.84,77.59L104.92,77.75L104.94,77.77"/><path style="stroke:#000000;stroke-width:0.088" d="M104.79,77.44L104.79,77.29L104.79,77.27"/><path style="stroke:#000000;stroke-width:0.088" d="M104.82,77.17L104.88,77.10L104.98,77.07L105.10,77.09L105.14,77.11"/><path style="stroke:#000000;stroke-width:0.088" d="M105.16,77.13L105.17,77.13"/><path style="stroke:#000000;stroke-width:0.088" d="M105.10,77.09L105.16,77.13"/><path style="stroke:#000000;stroke-width:0.088" d="M105.41,77.90L105.47,77.86"/><path style="stroke:#000000;stroke-width:0.088" d="M105.52,77.71L105.51,77.78L105.49,77.84"/><path style="stroke:#000000;stroke-width:0.088" d="M106.09,77.01L120.06,68.96L120.06,70.54"/><path style="stroke:#000000;stroke-width:0.088" d="M107.88,68.19L107.87,68.07L107.80,67.97L107.67,67.89L107.49,67.83L107.31,67.81L107.12,67.82L106.94,67.88L106.80,67.96L106.73,68.06L106.70,68.17L106.75,68.28L106.85,68.38L107.00,68.45L107.19,68.49L107.39,68.49L107.57,68.45L107.72,68.39L107.84,68.29L107.88,68.19L107.88,68.19"/><path style="stroke:#000000;stroke-width:0.088" d="M112.67,70.80L112.64,70.76L112.51,70.68L112.34,70.62L112.15,70.60L111.96,70.62L111.78,70.67L111.65,70.75L111.57,70.85L111.55,70.97"/><path style="stroke:#000000;stroke-width:0.088" d="M111.55,70.96L111.59,71.07L111.71,71.17"/><path style="stroke:#000000;stroke-width:0.088" d="M112.25,71.28L112.23,71.28L112.03,71.28L111.84,71.24L111.78,71.21"/><path style="stroke:#000000;stroke-width:0.088" d="M111.89,65.67L111.84,65.66L111.69,65.58L111.59,65.49L111.55,65.38L111.57,65.27L111.64,65.17L111.78,65.09L111.96,65.03L112.15,65.02L112.34,65.04L112.51,65.10L112.64,65.18L112.71,65.28L112.73,65.40L112.68,65.50L112.57,65.60L112.41,65.66L112.23,65.70L112.03,65.70L111.89,65.67"/><path style="stroke:#000000;stroke-width:0.088" d="M111.55,65.38L111.55,65.39"/><path style="stroke:#000000;stroke-width:0.088" d="M112.67,70.80L112.72,70.86L112.73,70.98L112.68,71.09L112.57,71.18L112.51,71.20"/><path style="stroke:#000000;stroke-width:0.088" d="M117.05,67.81L117.00,67.81L116.81,67.83L116.62,67.88L116.49,67.96L116.41,68.06L116.39,68.18L116.43,68.28L116.56,68.39L116.69,68.45L116.87,68.49L117.07,68.49L117.26,68.46L117.41,68.39L117.52,68.29L117.57,68.19L117.56,68.07L117.48,67.97L117.35,67.89L117.18,67.83L117.06,67.81"/><path style="stroke:#000000;stroke-width:0.088" d="M120.06,68.96L120.06,68.92"/><path style="stroke:#000000;stroke-width:0.088" d="M114.45,104.03L117.24,105.64L117.47,105.55L117.68,105.55L114.88,103.94L114.68,103.93L114.45,104.03L95.45,114.98L95.22,115.15L95.01,115.40L94.84,115.68L94.74,115.98L94.70,116.27L94.70,117.57L94.70,117.78L94.74,118.02L94.84,118.20L97.80,119.91L97.64,119.81L97.53,119.63L97.50,119.39L94.70,117.78"/><path style="stroke:#000000;stroke-width:0.088" d="M94.70,116.27L97.49,117.88L97.50,119.39"/><path style="stroke:#000000;stroke-width:0.088" d="M95.45,114.98L98.24,116.59L98.01,116.77L97.80,117.01L97.64,117.29L97.53,117.59L97.49,117.88"/><path style="stroke:#000000;stroke-width:0.088" d="M117.68,105.55L117.84,105.64L117.95,105.82L117.99,106.07L117.99,107.57L117.95,107.86L117.84,108.16L117.68,108.45L117.47,108.69L117.24,108.86L98.24,119.82L98.01,119.91L97.80,119.91"/><path style="stroke:#000000;stroke-width:0.088" d="M98.92,117.90L98.85,117.86L98.87,117.66L98.94,117.45L99.06,117.26L99.20,117.09L99.36,116.97L112.58,109.34L112.74,109.28L112.88,109.28L113.00,109.35L113.07,109.47L113.10,109.64L113.07,109.84L113.00,110.04L112.88,110.24L112.74,110.41L112.58,110.53L99.36,118.15L98.92,117.90"/><path style="stroke:#000000;stroke-width:0.088" d="M98.85,117.86L98.87,118.02L98.94,118.15L99.06,118.21L99.20,118.21L99.36,118.15"/><path style="stroke:#000000;stroke-width:0.088" d="M98.24,116.59L117.24,105.64"/><path style="stroke:#000000;stroke-width:0.088" d="M112.58,110.53L111.56,109.94"/><path style="stroke:#000000;stroke-width:0.088" d="M116.03,108.25L116.14,108.37L116.31,108.42L116.50,108.38L116.70,108.26L116.89,108.07L117.05,107.83L117.16,107.57L117.20,107.32L117.20,107.27L117.18,107.10L117.10,106.93L116.95,106.85L116.77,106.84L116.76,106.85L116.57,106.92L116.38,107.08L116.20,107.30L116.07,107.55L115.99,107.81L115.98,108.05L116.03,108.25"/><path style="stroke:#000000;stroke-width:0.088" d="M144.17,125.17L144.88,126.15L128.12,116.49L127.41,115.51L128.09,113.70L144.86,123.37L144.17,125.17L127.41,115.51"/><path style="stroke:#000000;stroke-width:0.088" d="M128.09,113.70L129.49,112.88L146.26,122.55L144.86,123.37"/><path style="stroke:#000000;stroke-width:0.088" d="M146.26,122.55L146.97,123.53L146.76,124.08L146.28,125.33L144.88,126.15"/><path style="stroke:#000000;stroke-width:0.088" d="M95.68,35.21L99.07,37.17L99.06,35.02L89.75,29.64L89.75,29.65"/><path style="stroke:#000000;stroke-width:0.088" d="M89.75,29.64L103.72,21.59L103.72,21.59"/><path style="stroke:#000000;stroke-width:0.088" d="M90.50,31.53L90.61,31.64"/><path style="stroke:#000000;stroke-width:0.088" d="M90.41,30.81L90.46,30.79L90.57,30.78L90.69,30.83L90.81,30.93L90.84,30.97"/><path style="stroke:#000000;stroke-width:0.088" d="M90.72,30.86L90.65,30.83L90.56,30.83L90.49,30.87L90.45,30.96L90.44,31.04L90.44,31.07L90.46,31.19L90.51,31.32L90.59,31.44L90.69,31.54L90.79,31.60L90.89,31.62L90.97,31.60L91.02,31.53L91.05,31.45"/><path style="stroke:#000000;stroke-width:0.088" d="M91.00,31.21L91.05,31.37L91.05,31.52L91.02,31.63L90.95,31.71"/><path style="stroke:#000000;stroke-width:0.088" d="M90.90,31.73L90.86,31.74"/><path style="stroke:#000000;stroke-width:0.088" d="M94.78,33.66L94.75,33.78L94.68,33.86L94.58,33.89L94.46,33.86L94.34,33.79L94.22,33.68L94.13,33.53L94.07,33.37L94.03,33.22L94.03,33.19"/><path style="stroke:#000000;stroke-width:0.088" d="M94.77,33.59L94.76,33.66L94.75,33.68L94.69,33.74L94.61,33.77L94.52,33.75L94.44,33.70L94.41,33.68L94.32,33.59L94.24,33.47L94.22,33.43L94.19,33.34L94.16,33.19L94.17,33.18L94.17,33.15L94.17,33.10L94.22,33.02L94.29,32.98L94.29,32.98L94.28,32.99"/><path style="stroke:#000000;stroke-width:0.088" d="M94.73,33.36L94.64,33.21L94.54,33.08L94.42,32.98"/><path style="stroke:#000000;stroke-width:0.088" d="M94.71,33.72L94.71,33.72"/><path style="stroke:#000000;stroke-width:0.088" d="M94.69,33.74L94.70,33.74"/><path style="stroke:#000000;stroke-width:0.088" d="M94.29,32.98L94.38,32.98L94.45,33.01"/><path style="stroke:#000000;stroke-width:0.088" d="M97.78,35.45L97.79,35.52L97.85,35.68L97.95,35.83L97.97,35.85"/><path style="stroke:#000000;stroke-width:0.088" d="M98.50,35.74L98.48,35.83L98.42,35.89L98.34,35.92L98.24,35.89L98.14,35.83L98.04,35.74L97.97,35.62L97.91,35.49L97.89,35.36L97.90,35.25L97.94,35.17L98.01,35.13L98.10,35.13L98.18,35.16"/><path style="stroke:#000000;stroke-width:0.088" d="M98.15,35.13L98.02,35.08L97.91,35.08"/><path style="stroke:#000000;stroke-width:0.088" d="M97.88,35.10L97.83,35.13L97.78,35.23L97.76,35.34"/><path style="stroke:#000000;stroke-width:0.088" d="M98.16,36.00L98.19,36.01L98.31,36.04"/><path style="stroke:#000000;stroke-width:0.088" d="M98.47,35.94L98.50,35.81L98.50,35.68"/><path style="stroke:#000000;stroke-width:0.088" d="M98.42,35.89L98.42,35.89"/><path style="stroke:#000000;stroke-width:0.088" d="M98.46,35.54L98.45,35.51L98.37,35.36"/><path style="stroke:#000000;stroke-width:0.088" d="M107.84,32.11L99.07,37.17"/><path style="stroke:#000000;stroke-width:0.088" d="M99.06,35.02L113.03,26.96L113.03,26.96"/><path style="stroke:#000000;stroke-width:0.088" d="M99.53,26.58L99.57,26.61L99.87,26.72L100.21,26.76L100.55,26.74L100.87,26.66L101.12,26.51L101.27,26.34L101.33,26.14L101.26,25.95L101.09,25.77L100.83,25.64L100.51,25.56L100.16,25.55L99.83,25.60L99.54,25.72L99.34,25.88L99.23,26.07L99.24,26.27L99.35,26.46L99.53,26.58"/><path style="stroke:#000000;stroke-width:0.088" d="M100.99,26.59L100.83,26.51L100.51,26.43L100.16,26.42L99.83,26.46L99.54,26.59"/><path style="stroke:#000000;stroke-width:0.088" d="M100.59,26.73L100.41,26.68L100.21,26.68L100.03,26.71L99.97,26.73"/><path style="stroke:#000000;stroke-width:0.088" d="M103.72,21.59L105.58,21.59L113.03,25.88L113.03,26.96"/><path style="stroke:#000000;stroke-width:0.088" d="M105.35,28.36L105.68,28.43L105.93,28.56L106.10,28.74L106.17,28.93L106.12,29.13L105.96,29.31L105.71,29.45L105.40,29.54L105.05,29.55L104.71,29.51L104.42,29.40L104.37,29.37L104.20,29.25L104.09,29.06L104.07,28.86L104.18,28.67L104.38,28.51L104.68,28.40L104.99,28.34L105.01,28.34L105.35,28.36"/><path style="stroke:#000000;stroke-width:0.088" d="M105.84,29.38L105.68,29.30L105.35,29.22L105.01,29.21L104.68,29.26L104.38,29.38"/><path style="stroke:#000000;stroke-width:0.088" d="M104.07,28.86L104.07,28.88"/><path style="stroke:#000000;stroke-width:0.088" d="M105.74,22.88L105.94,22.98L106.11,23.15L106.17,23.35L106.12,23.55L105.96,23.72L105.71,23.86L105.40,23.95L105.05,23.97L104.71,23.93L104.42,23.82L104.37,23.79L104.20,23.67L104.08,23.48"/><path style="stroke:#000000;stroke-width:0.088" d="M105.41,23.65L105.35,23.64L105.00,23.62L104.67,23.67L104.38,23.80"/><path style="stroke:#000000;stroke-width:0.088" d="M105.67,22.85L105.35,22.77L105.00,22.76L104.67,22.81L104.39,22.92L104.18,23.09L104.12,23.20"/><path style="stroke:#000000;stroke-width:0.088" d="M105.44,29.52L105.26,29.48L105.06,29.47L104.87,29.50L104.81,29.52"/><path style="stroke:#000000;stroke-width:0.088" d="M105.44,23.94L105.25,23.89L105.06,23.89L104.87,23.91L104.81,23.94"/><path style="stroke:#000000;stroke-width:0.088" d="M106.17,28.93L106.17,28.94"/><path style="stroke:#000000;stroke-width:0.088" d="M106.17,23.35L106.17,23.36"/><path style="stroke:#000000;stroke-width:0.088" d="M108.92,26.17L108.93,26.27L109.04,26.46L109.21,26.58L109.26,26.61L109.46,26.68"/><path style="stroke:#000000;stroke-width:0.088" d="M110.68,26.59L110.52,26.51L110.19,26.43L109.85,26.42L109.52,26.47L109.23,26.58L109.22,26.59"/><path style="stroke:#000000;stroke-width:0.088" d="M109.52,25.60L109.23,25.72L109.03,25.88L108.99,25.95"/><path style="stroke:#000000;stroke-width:0.088" d="M110.07,25.56L110.19,25.57L110.52,25.64L110.78,25.77L110.95,25.95L111.01,26.14L110.96,26.34L110.80,26.52L110.56,26.65L110.24,26.74L109.89,26.76L109.86,26.76"/><path style="stroke:#000000;stroke-width:0.088" d="M110.28,26.73L110.10,26.69L109.90,26.68L109.71,26.70L109.65,26.73"/><path style="stroke:#000000;stroke-width:0.088" d="M109.54,25.60L109.85,25.55L110.05,25.56"/><path style="stroke:#000000;stroke-width:0.088" d="M111.01,26.14L111.01,26.16"/><path style="stroke:#000000;stroke-width:0.088" d="M113.04,25.89L113.03,25.88"/><path style="stroke:#000000;stroke-width:0.088" d="M60.81,110.34L60.78,110.31L60.37,109.59L60.11,108.83L60.03,108.13L60.03,47.00L60.21,46.89L69.16,52.05L69.34,52.37L69.34,113.50L69.25,114.10L68.99,114.56L68.58,114.80L68.05,114.81L67.48,114.58L61.89,111.36L61.31,110.92L60.81,110.34"/><path style="stroke:#000000;stroke-width:0.088" d="M60.54,94.93L60.76,95.18L60.96,95.33L61.24,95.42L61.45,95.39L61.61,95.26L61.69,95.04L61.69,94.77L61.62,94.46L61.47,94.14L61.27,93.86L61.03,93.65L60.79,93.53L60.56,93.51L60.38,93.59L60.26,93.76L60.21,94.01L60.25,94.31L60.36,94.63L60.54,94.93"/><path style="stroke:#000000;stroke-width:0.088" d="M60.38,93.59L60.40,93.58"/><path style="stroke:#000000;stroke-width:0.088" d="M61.62,48.40L61.69,48.70L61.69,48.98L61.61,49.20L61.45,49.33L61.24,49.36L61.00,49.29L60.96,49.26L60.76,49.11L60.54,48.87L60.36,48.57L60.25,48.25L60.21,47.95L60.26,47.70L60.38,47.52L60.56,47.44L60.79,47.46L61.03,47.59L61.27,47.80L61.30,47.84L61.30,47.89L61.37,48.06L61.47,48.24L61.62,48.40L61.47,48.08L61.30,47.84"/><path style="stroke:#000000;stroke-width:0.088" d="M60.03,47.00L60.81,46.55L60.21,46.89"/><path style="stroke:#000000;stroke-width:0.088" d="M61.30,93.90L61.30,93.95L61.37,94.13L61.47,94.30L61.62,94.46"/><path style="stroke:#000000;stroke-width:0.088" d="M60.96,93.61L60.99,93.89L61.10,94.21L61.28,94.50L61.50,94.75L61.69,94.89"/><path style="stroke:#000000;stroke-width:0.088" d="M60.96,47.55L60.99,47.82L61.10,48.14L61.28,48.44L61.50,48.68L61.69,48.83"/><path style="stroke:#000000;stroke-width:0.088" d="M61.38,46.22L60.81,46.55L61.62,46.08L61.38,46.22"/><path style="stroke:#000000;stroke-width:0.088" d="M62.36,108.78L62.36,108.96L62.42,109.15L62.52,109.35L62.66,109.51L62.81,109.63L62.96,109.69L63.10,109.69L63.20,109.63L63.27,109.50L63.29,109.37L63.25,109.14L63.17,108.94L63.05,108.76L62.91,108.62L62.75,108.53L62.60,108.50L62.48,108.53L62.40,108.63L62.36,108.78"/><path style="stroke:#000000;stroke-width:0.088" d="M70.43,113.73L70.85,113.48L71.11,113.03L71.20,112.43L71.20,99.30L71.02,99.41L71.02,98.11L71.02,97.25L71.20,97.15L71.20,53.24L71.02,53.34L71.02,51.41L70.83,51.08L61.88,45.92L61.62,46.08L61.88,45.92"/><path style="stroke:#000000;stroke-width:0.088" d="M63.28,109.32L63.27,109.40L63.22,109.50L63.12,109.55L63.01,109.56L62.91,109.52L62.76,109.40L62.64,109.26L62.56,109.10L62.51,108.94L62.50,108.79L62.54,108.66L62.59,108.60L62.64,108.57"/><path style="stroke:#000000;stroke-width:0.088" d="M63.16,109.53L63.15,109.54"/><path style="stroke:#000000;stroke-width:0.088" d="M62.75,108.53L62.76,108.53"/><path style="stroke:#000000;stroke-width:0.088" d="M62.59,108.60L62.61,108.58L62.71,108.55L62.83,108.58"/><path style="stroke:#000000;stroke-width:0.088" d="M63.98,96.49L63.94,96.16L63.98,95.91L64.10,95.74L64.29,95.65L64.51,95.68L64.76,95.80L64.99,96.01L65.20,96.29L65.34,96.60L65.42,96.91L65.41,97.19L65.33,97.41L65.17,97.54L64.96,97.57L64.68,97.47L64.48,97.33L64.26,97.08L64.08,96.78L63.98,96.49"/><path style="stroke:#000000;stroke-width:0.088" d="M63.94,87.56L63.94,75.07L63.97,74.83L64.08,74.65L64.24,74.56L64.45,74.55L64.68,74.65L64.91,74.82L65.12,75.06L65.29,75.35L65.39,75.64L65.43,75.93L65.43,88.42L65.39,88.67L65.29,88.84L65.12,88.94L64.91,88.94L64.68,88.85L64.45,88.67L64.24,88.43L64.08,88.15L63.97,87.85L63.94,87.56L65.43,86.70"/><path style="stroke:#000000;stroke-width:0.088" d="M63.94,75.07L64.68,74.65"/><path style="stroke:#000000;stroke-width:0.088" d="M64.68,55.27L64.91,55.45L65.12,55.69L65.29,55.97L65.39,56.27L65.43,56.56L65.43,69.05L65.39,69.29L65.29,69.47L65.12,69.57L64.91,69.57L64.68,69.48L64.45,69.30L64.24,69.06L64.08,68.77L63.97,68.47L63.94,68.19L63.94,55.70L63.97,55.46L64.08,55.28L64.24,55.18L64.45,55.18L64.68,55.27L63.94,55.70"/><path style="stroke:#000000;stroke-width:0.088" d="M63.94,68.19L65.43,67.33"/><path style="stroke:#000000;stroke-width:0.088" d="M63.97,50.40L63.94,50.10L63.98,49.85L64.10,49.67L64.29,49.59L64.51,49.61L64.76,49.73L64.99,49.94L65.20,50.22L65.34,50.53L65.42,50.85L65.41,51.13L65.33,51.34L65.17,51.48L64.97,51.50L64.73,51.43L64.68,51.41L64.48,51.26L64.26,51.02L64.08,50.72L63.97,50.40"/><path style="stroke:#000000;stroke-width:0.088" d="M65.42,97.04L65.23,96.90L65.01,96.65L64.83,96.36L64.72,96.03L64.68,95.76"/><path style="stroke:#000000;stroke-width:0.088" d="M64.10,95.74L64.12,95.73"/><path style="stroke:#000000;stroke-width:0.088" d="M65.42,50.97L65.23,50.83L65.01,50.59L64.83,50.29L64.72,49.97L64.68,49.70"/><path style="stroke:#000000;stroke-width:0.088" d="M65.17,97.54L65.18,97.53"/><path style="stroke:#000000;stroke-width:0.088" d="M65.35,96.61L65.19,96.45L65.09,96.28L65.03,96.10L65.02,96.05"/><path style="stroke:#000000;stroke-width:0.088" d="M65.12,88.94L65.18,88.91"/><path style="stroke:#000000;stroke-width:0.088" d="M65.02,49.98L65.03,50.04L65.09,50.21L65.19,50.38L65.35,50.54"/><path style="stroke:#000000;stroke-width:0.088" d="M66.09,111.08L66.15,111.30L66.25,111.49L66.38,111.66L66.53,111.78L66.69,111.84L66.83,111.84L66.93,111.77L66.99,111.65L67.01,111.52L66.97,111.29L66.89,111.09L66.78,110.91L66.63,110.77L66.49,110.68L66.33,110.65L66.21,110.68L66.12,110.77L66.08,110.93L66.09,111.08"/><path style="stroke:#000000;stroke-width:0.088" d="M66.58,110.74L66.53,110.71L66.41,110.70L66.32,110.75L66.25,110.84L66.22,110.97L66.25,111.13L66.31,111.30L66.40,111.45L66.51,111.58L66.64,111.67L66.77,111.71L66.87,111.69L66.96,111.62L67.00,111.51L67.00,111.46"/><path style="stroke:#000000;stroke-width:0.088" d="M66.32,110.75L66.33,110.74"/><path style="stroke:#000000;stroke-width:0.088" d="M67.01,111.48L67.01,111.47"/><path style="stroke:#000000;stroke-width:0.088" d="M67.80,98.92L67.99,99.23L68.21,99.48L68.45,99.64L68.69,99.72L68.90,99.69L69.06,99.56L69.14,99.34L69.14,99.06L69.07,98.75L68.92,98.44L68.72,98.16L68.66,98.11L68.48,97.95L68.24,97.82L68.01,97.80L67.83,97.88L67.71,98.06L67.67,98.31L67.70,98.61L67.80,98.92"/><path style="stroke:#000000;stroke-width:0.088" d="M67.81,52.86L67.99,53.17L68.21,53.41L68.45,53.58L68.69,53.65L68.90,53.62L69.06,53.49L69.14,53.28L69.14,52.99L69.07,52.68L68.92,52.37L68.72,52.09L68.48,51.88L68.24,51.76L68.01,51.73L67.83,51.82L67.71,51.99L67.67,52.25L67.70,52.55L67.81,52.86"/><path style="stroke:#000000;stroke-width:0.088" d="M69.14,99.18L68.95,99.05L68.73,98.80L68.55,98.50L68.44,98.18L68.41,97.91"/><path style="stroke:#000000;stroke-width:0.088" d="M68.90,99.69L68.91,99.68"/><path style="stroke:#000000;stroke-width:0.088" d="M68.75,98.20L68.75,98.24L68.82,98.43L68.92,98.60L69.04,98.73L69.07,98.76"/><path style="stroke:#000000;stroke-width:0.088" d="M69.14,53.12L68.95,52.98L68.73,52.74L68.55,52.43L68.44,52.12L68.41,51.85"/><path style="stroke:#000000;stroke-width:0.088" d="M69.07,52.69L69.04,52.67L68.92,52.53L68.82,52.36L68.75,52.18L68.75,52.13"/><path style="stroke:#000000;stroke-width:0.088" d="M68.92,114.60L70.44,113.73"/><path style="stroke:#000000;stroke-width:0.088" d="M69.34,113.50L71.20,112.43"/><path style="stroke:#000000;stroke-width:0.088" d="M69.16,52.05L70.83,51.08"/><path style="stroke:#000000;stroke-width:0.088" d="M69.34,52.37L71.02,51.41"/><path style="stroke:#000000;stroke-width:0.088" d="M71.02,99.19L71.20,99.30"/><path style="stroke:#000000;stroke-width:0.088" d="M71.02,53.13L71.20,53.24"/><path style="stroke:#000000;stroke-width:0.088" d="M79.05,100.84L78.98,100.73L78.92,100.54"/><path style="stroke:#000000;stroke-width:0.088" d="M79.16,94.89L79.37,94.88L79.60,94.97L80.27,94.59"/><path style="stroke:#000000;stroke-width:0.088" d="M78.89,95.15L78.99,94.98L79.11,94.91"/><path style="stroke:#000000;stroke-width:0.088" d="M78.99,94.98L80.85,93.91L80.84,93.91"/><path style="stroke:#000000;stroke-width:0.088" d="M79.59,101.43L82.70,103.22"/><path style="stroke:#000000;stroke-width:0.088" d="M80.44,100.92L80.40,100.87L80.29,100.66L80.22,100.46L80.20,100.27L80.20,96.83L80.21,96.73"/><path style="stroke:#000000;stroke-width:0.088" d="M80.20,100.27L81.22,99.68"/><path style="stroke:#000000;stroke-width:0.088" d="M80.59,96.49L80.55,96.47L80.41,96.47L80.29,96.54L80.22,96.66L80.22,96.69"/><path style="stroke:#000000;stroke-width:0.088" d="M80.71,96.54L80.20,96.83"/><path style="stroke:#000000;stroke-width:0.088" d="M79.60,94.97L87.23,99.38L86.86,99.59L86.86,106.05L87.79,106.59L87.79,104.97L87.42,104.76L87.42,99.92L86.86,99.59"/><path style="stroke:#000000;stroke-width:0.088" d="M80.45,100.92L80.55,101.04L80.71,101.15L80.86,101.22L81.01,101.22L81.13,101.15"/><path style="stroke:#000000;stroke-width:0.088" d="M80.85,93.91L80.90,93.88"/><path style="stroke:#000000;stroke-width:0.088" d="M81.22,97.40L81.22,97.42L81.22,98.92"/><path style="stroke:#000000;stroke-width:0.088" d="M84.02,102.81L84.13,103.02L84.19,103.09"/><path style="stroke:#000000;stroke-width:0.088" d="M84.95,103.01L84.95,103.01L84.92,103.18L84.85,103.30L84.73,103.37L84.59,103.37L84.43,103.30L84.27,103.18L84.22,103.13"/><path style="stroke:#000000;stroke-width:0.088" d="M83.94,102.52L83.95,102.61L84.01,102.78"/><path style="stroke:#000000;stroke-width:0.088" d="M84.44,98.68L83.92,98.98L83.92,101.35"/><path style="stroke:#000000;stroke-width:0.088" d="M83.92,98.98L83.95,98.81"/><path style="stroke:#000000;stroke-width:0.088" d="M84.02,98.69L83.99,98.75"/><path style="stroke:#000000;stroke-width:0.088" d="M84.85,103.30L84.85,103.30"/><path style="stroke:#000000;stroke-width:0.088" d="M84.95,103.01L84.95,99.57L84.92,99.37L84.85,99.16L84.82,99.11"/><path style="stroke:#000000;stroke-width:0.088" d="M84.95,99.57L84.95,99.57"/><path style="stroke:#000000;stroke-width:0.088" d="M84.32,98.64L84.44,98.68L84.59,98.80L84.61,98.82"/><path style="stroke:#000000;stroke-width:0.088" d="M86.86,106.05L86.86,106.05"/><path style="stroke:#000000;stroke-width:0.088" d="M87.79,106.59L96.36,101.65L96.59,101.47L96.79,101.23L96.97,100.94L97.07,100.64L97.10,100.35L97.11,99.60L96.73,99.39L87.42,104.76"/><path style="stroke:#000000;stroke-width:0.088" d="M87.42,99.92L95.99,94.97L94.50,94.12L93.20,94.86"/><path style="stroke:#000000;stroke-width:0.088" d="M87.79,104.97L97.11,99.60"/><path style="stroke:#000000;stroke-width:0.088" d="M91.44,100.54L91.43,100.53L91.33,100.49L91.21,100.51L91.09,100.58L90.96,100.70L90.86,100.84L90.79,101.01L90.76,101.17L90.76,101.25"/><path style="stroke:#000000;stroke-width:0.088" d="M90.84,101.44L90.90,101.49L90.93,101.49"/><path style="stroke:#000000;stroke-width:0.088" d="M90.95,101.49L91.00,101.50L91.14,101.45L91.26,101.36L91.37,101.22L91.47,101.07L91.51,100.90L91.53,100.77L91.53,100.74L91.50,100.61L91.45,100.55"/><path style="stroke:#000000;stroke-width:0.088" d="M90.90,101.49L90.89,101.48"/><path style="stroke:#000000;stroke-width:0.088" d="M93.56,99.70L93.61,99.81L93.69,99.88L93.80,99.88L93.94,99.84L94.05,99.75L94.17,99.61L94.26,99.46L94.31,99.28L94.33,99.16L94.33,99.13L94.30,99.00L94.23,98.92L94.13,98.88L94.01,98.90"/><path style="stroke:#000000;stroke-width:0.088" d="M93.57,99.43L93.58,99.40L93.66,99.23L93.75,99.09L93.88,98.97L93.97,98.92"/><path style="stroke:#000000;stroke-width:0.088" d="M94.50,94.12L94.73,94.03"/><path style="stroke:#000000;stroke-width:0.088" d="M94.98,94.06L95.10,94.12L95.70,94.47"/><path style="stroke:#000000;stroke-width:0.088" d="M94.93,94.03L94.86,94.03"/><path style="stroke:#000000;stroke-width:0.088" d="M96.49,94.93L96.42,94.89L96.22,94.88L95.99,94.97"/><path style="stroke:#000000;stroke-width:0.088" d="M96.73,99.39L96.73,95.41L96.73,95.40"/><path style="stroke:#000000;stroke-width:0.088" d="M96.73,95.41L96.70,95.16L96.63,95.05"/><path style="fill:#ffffff" d="M171.12,57.83L197.54,57.83L197.54,52.19L171.12,52.19z"/><path style="stroke:#35414c;stroke-width:0.255" d="M171.12,57.83L197.54,57.83L197.54,52.19L171.12,52.19z"/><path style="stroke:#35404c;stroke-width:0.250;stroke-opacity:0.00" d="M171.12,57.83L197.54,57.83L197.54,52.19L171.12,52.19z"/><text xml:space="preserve" fill="#333f4b" stroke-width="0" x="171.83" y="56.24" font-size="3.49" opacity="1.00" font-family="Arial" font-weight="bold" font-style="italic">F24167276A</text><path style="fill:#ffffff" d="M171.12,47.79L197.53,47.79L197.53,42.15L171.12,42.15z"/><path style="stroke:#35414c;stroke-width:0.255" d="M171.12,47.79L197.53,47.79L197.53,42.15L171.12,42.15z"/><path style="stroke:#35404c;stroke-width:0.250;stroke-opacity:0.00" d="M171.12,47.79L197.53,47.79L197.53,42.15L171.12,42.15z"/><text xml:space="preserve" fill="#333f4b" stroke-width="0" x="171.83" y="46.21" font-size="3.49" opacity="1.00" font-family="Arial" font-weight="bold" font-style="italic">F24167275A</text><path style="fill:#ffffff" d="M171.12,87.95L197.53,87.95L197.53,82.30L171.12,82.30z"/><path style="stroke:#35414c;stroke-width:0.255" d="M171.12,87.95L197.53,87.95L197.53,82.30L171.12,82.30z"/><path style="stroke:#35404c;stroke-width:0.250;stroke-opacity:0.00" d="M171.12,87.95L197.53,87.95L197.53,82.30L171.12,82.30z"/><text xml:space="preserve" fill="#333f4b" stroke-width="0" x="171.83" y="86.36" font-size="3.49" opacity="1.00" font-family="Arial" font-weight="bold" font-style="italic">F24304497A</text><path style="fill:#ffffff" d="M171.12,108.02L197.53,108.02L197.53,102.38L171.12,102.38z"/><path style="stroke:#35414c;stroke-width:0.255" d="M171.12,108.02L197.53,108.02L197.53,102.38L171.12,102.38z"/><path style="stroke:#35404c;stroke-width:0.250;stroke-opacity:0.00" d="M171.12,108.02L197.53,108.02L197.53,102.38L171.12,102.38z"/><text xml:space="preserve" fill="#333f4b" stroke-width="0" x="171.83" y="106.43" font-size="3.49" opacity="1.00" font-family="Arial" font-weight="bold" font-style="italic">F31167411A</text><path style="fill:#ffffff" d="M171.12,97.98L197.53,97.98L197.53,92.34L171.12,92.34z"/><path style="stroke:#35414c;stroke-width:0.255" d="M171.12,97.98L197.53,97.98L197.53,92.34L171.12,92.34z"/><path style="stroke:#35404c;stroke-width:0.250;stroke-opacity:0.00" d="M171.12,97.98L197.53,97.98L197.53,92.34L171.12,92.34z"/><text xml:space="preserve" fill="#333f4b" stroke-width="0" x="171.83" y="96.40" font-size="3.56" opacity="1.00" font-family="Arial" font-weight="bold" font-style="italic">F31167184X</text><path style="fill:#ffffff" d="M171.12,77.91L197.53,77.91L197.53,72.26L171.12,72.26z"/><path style="stroke:#35414c;stroke-width:0.255" d="M171.12,77.91L197.53,77.91L197.53,72.26L171.12,72.26z"/><path style="stroke:#35404c;stroke-width:0.250;stroke-opacity:0.00" d="M171.12,77.91L197.53,77.91L197.53,72.26L171.12,72.26z"/><text xml:space="preserve" fill="#333f4b" stroke-width="0" x="171.83" y="76.32" font-size="3.49" opacity="1.00" font-family="Arial" font-weight="bold" font-style="italic">F24167591A</text><path style="fill:#ffffff" d="M171.12,67.87L197.54,67.87L197.54,62.23L171.12,62.23z"/><path style="stroke:#35414c;stroke-width:0.255" d="M171.12,67.87L197.54,67.87L197.54,62.23L171.12,62.23z"/><path style="stroke:#35404c;stroke-width:0.250;stroke-opacity:0.00" d="M171.12,67.87L197.54,67.87L197.54,62.23L171.12,62.23z"/><text xml:space="preserve" fill="#333f4b" stroke-width="0" x="171.83" y="66.28" font-size="3.49" opacity="1.00" font-family="Arial" font-weight="bold" font-style="italic">F24167277A</text><g id="paperID" visibility="hidden" opacity="0.00" transform="scale(0.000100)"><path style="stroke:#000000;stroke-width:0.500;fill:#e6e6e6;fill-rule:evenodd" d="M-2000.00,-2000.00L2210.00,-2000.00L2210.00,2150.00L-2000.00,2150.00zM0.00,0.00L210.00,0.00L210.00,150.00L0.00,150.00z"/><path style="fill:#000000;fill-opacity:0.118" d="M3.00,150.00L210.00,150.00L210.00,3.00L213.00,3.00L213.00,153.00L3.00,153.00z"/></g><g id="hotspot.0" onmouseover="ShowHotSpot(evt,'0')" onmouseout="HideHotSpot(evt,'0')" onmousemove="ShowToolTip(evt,'0',&quot;F31167184&quot;)" opacity="0"><path style="fill:#00ff00;fill-rule:evenodd" d="M197.79,92.77L197.78,97.93L197.49,98.44L171.07,98.37L171.07,92.61L197.53,92.51zM146.23,122.68L146.80,123.44L146.80,124.33L146.27,125.40L145.35,126.08L144.42,126.08L128.04,116.56L127.40,115.50L128.30,113.77L129.26,113.12L129.60,113.11z"/></g><g id="hotspot.1" onmouseover="ShowHotSpot(evt,'1')" onmouseout="HideHotSpot(evt,'1')" onmousemove="ShowToolTip(evt,'1',&quot;F24167275A&quot;)" opacity="0"><path style="fill:#00ff00;fill-rule:evenodd" d="M197.79,42.58L197.78,47.74L197.49,48.25L171.07,48.18L171.07,42.43L197.53,42.32zM87.90,97.82L88.31,97.86L94.38,94.37L95.28,94.37L96.62,95.16L96.87,99.65L97.15,99.94L97.14,100.54L96.76,101.52L88.05,106.57L87.36,106.56L86.32,105.45L79.16,101.26L79.16,95.01L80.65,94.11L81.54,94.11z"/></g><g id="hotspot.2" onmouseover="ShowHotSpot(evt,'2')" onmouseout="HideHotSpot(evt,'2')" onmousemove="ShowToolTip(evt,'2',&quot;F24167276A&quot;)" opacity="0"><path style="fill:#00ff00;fill-rule:evenodd" d="M112.97,25.98L112.99,29.26L99.41,37.10L98.70,37.10L89.99,32.05L89.90,29.68L103.62,21.74L105.59,21.73zM197.79,52.62L197.78,57.78L197.49,58.29L171.07,58.22L171.07,52.46L197.53,52.36zM118.25,66.92L120.12,68.22L120.09,71.22L106.56,79.10L105.59,79.06L96.86,74.05L96.86,71.76L110.75,63.74L112.71,63.74z"/></g><g id="hotspot.3" onmouseover="ShowHotSpot(evt,'3')" onmouseout="HideHotSpot(evt,'3')" onmousemove="ShowToolTip(evt,'3',&quot;F24167277A&quot;)" opacity="0"><path style="fill:#00ff00;fill-rule:evenodd" d="M197.79,62.66L197.78,67.82L197.49,68.32L171.07,68.25L171.07,62.50L197.53,62.40zM51.69,67.44L52.49,68.75L52.50,76.53L51.62,77.24L50.08,77.24L47.44,75.65L46.38,74.34L46.40,66.21L47.36,65.58L48.53,65.58z"/></g><g id="hotspot.4" onmouseover="ShowHotSpot(evt,'4')" onmouseout="HideHotSpot(evt,'4')" onmousemove="ShowToolTip(evt,'4',&quot;F24167591A&quot;)" opacity="0"><path style="fill:#00ff00;fill-rule:evenodd" d="M69.65,50.54L70.98,51.58L71.23,53.45L71.24,112.71L70.98,113.51L69.02,114.71L67.52,114.74L61.21,111.02L60.12,108.94L60.05,47.11L61.37,46.30L62.26,46.30zM197.79,72.70L197.78,77.86L197.49,78.36L171.07,78.29L171.07,72.54L197.53,72.43z"/></g><g id="hotspot.5" onmouseover="ShowHotSpot(evt,'5')" onmouseout="HideHotSpot(evt,'5')" onmousemove="ShowToolTip(evt,'5',&quot;F24304497A&quot;)" opacity="0"><path style="fill:#00ff00;fill-rule:evenodd" d="M119.60,44.18L119.60,55.94L114.22,59.01L111.90,59.01L104.70,54.85L104.78,42.97L109.96,39.96L112.45,39.96zM197.79,82.74L197.78,87.89L197.49,88.40L171.07,88.33L171.07,82.58L197.53,82.47z"/></g><g id="hotspot.6" onmouseover="ShowHotSpot(evt,'6')" onmouseout="HideHotSpot(evt,'6')" onmousemove="ShowToolTip(evt,'6',&quot;F31167411A&quot;)" opacity="0"><path style="fill:#00ff00;fill-rule:evenodd" d="M197.79,102.81L197.78,107.97L197.49,108.48L171.07,108.40L171.07,102.65L197.53,102.55zM118.01,105.99L118.00,107.96L117.50,108.78L98.08,120.05L97.67,120.01L95.01,118.43L94.98,115.58L96.85,114.28L114.47,104.13L115.08,104.14z"/></g></g></svg>
