<?xml version="1.0" encoding="UTF-8" standalone="no"?>
<svg xmlns="http://www.w3.org/2000/svg" xmlns:xlink="http://www.w3.org/1999/xlink" width="210.000mm" height="150.000mm" viewBox="0.000000 0.000000 210.000000 150.000000" stroke-linejoin="round" stroke-linecap="round" fill="none" fill-rule="evenodd"><desc>Composer Export</desc><script type="text/ecmascript"><![CDATA[
if(typeof(top) != "undefined")
{
	top.ShowPaper = ShowPaper;
}
function ShowHotSpot(evt,hotspotid)
{
	var svgDocument = evt.target.ownerDocument;
	var strId = "hotspot."+hotspotid;
	var hotspot = svgDocument.getElementById(strId);
	if(hotspot)
		hotspot.setAttribute("opacity",".5");
}
function HideHotSpot(evt,hotspotid)
{
	var svgDocument = evt.target.ownerDocument;
	var strId = "hotspot."+hotspotid;
	var hotspot = svgDocument.getElementById(strId);
	if(hotspot)
		hotspot.setAttribute("opacity","0");

	var toolTip = svgDocument.getElementById('ToolTip');
	if(toolTip)
		toolTip.setAttribute("visibility","hidden");
}
function ShowToolTip(evt,hotspotid,strTooltip)
{
	if(strTooltip=="")
	return;

	// change text
	var svgDocument = evt.target.ownerDocument;
	var tiptext = svgDocument.getElementById('ToolTipText');
	if( !tiptext )
	return;
	tiptext.firstChild.nodeValue = " " + strTooltip + "  " ;

	// show tooltip before, else some refresh issue

	var toolTip = svgDocument.getElementById('ToolTip');
	if(!toolTip)
	return;

	toolTip.setAttribute("visibility","visible");
	toolTip.setAttribute("opacity",".95");

	// move tooltip
	// get viewbox

	var root = svgDocument.documentElement;
	var vbox = (root.getAttribute("viewBox")).split(' ');
	var x0 = parseFloat(vbox[0]);
	var y0 = parseFloat(vbox[1]);
	var vboxW = parseFloat(vbox[2]);
	var vboxH = parseFloat(vbox[3]);

	// get default width of svg

	var strW = root.getAttribute("width");
	var svgW = parseFloat(strW);
	if(strW.indexOf('mm') != -1)
	svgW *= 3.779;

	var strH = root.getAttribute("height");
	var svgH = parseFloat(strH);
	if(strH.indexOf('mm') != -1)
	svgH *= 3.779;  	// 96 dpi  -> 96/25.4 = 3.779

	// update the viewbox / width / height if svg is embedded in html with zoom fit all
	var realx0 = x0;
	var realy0 = y0;
	var realvboxW = vboxW;
	var realvboxH = vboxH;
	var realsvgW = svgW;
	var realsvgH = svgH;

	if ((typeof(top) == "undefined") || (typeof(top.svgctl1) != "undefined")) // embedded in html
	{
		// get window size in pxl

		svgW = window.innerWidth;
		svgH = window.innerHeight;

		// calculate real viewbox

		realsvgW = svgW;
		realsvgH = svgH;
		if((svgW / svgH) > (vboxW / vboxH))
		{
			realvboxW = (vboxH * svgW) / svgH;
			realvboxH = vboxH;
			realx0 = x0 - (realvboxW - vboxW)/2 ;
		}
		else
		{
			realvboxH = (vboxW * svgH) / svgW;
			realvboxW = vboxW;
			realy0 = y0 - (realvboxH - vboxH)/2 ;
		}
	}

	// get user zoom/pan

	var newScale = root.currentScale;
	var translation = root.currentTranslate;

	// transform pxl to user unit

	var xPos = (((evt.clientX+10- translation.x)/newScale) * realvboxW)/realsvgW  + realx0 ;
	var yPos = (((evt.clientY+5- translation.y)/newScale) * realvboxH)/ realsvgH  + realy0 ;
	var scaleForWidth = ( (1 / newScale) * realvboxH) / realsvgH;

	// move tooltip

	toolTip.setAttribute("transform", "translate(" + xPos + "," + yPos + ")" );

	// resize tooltip

	var fontsize = 12;
	tiptext.setAttribute("font-size",fontsize*scaleForWidth);
	tiptext.setAttribute("y", fontsize*scaleForWidth);
	var tipBG = svgDocument.getElementById('ToolTipBG');
	var outline = tiptext.getBBox();
	if(tipBG)
	{
		tipBG.setAttribute("stroke-width", 1*scaleForWidth);
		tipBG.setAttribute("width", Number(outline.width) );
		tipBG.setAttribute("height", Number(outline.height) + fontsize*.5*scaleForWidth );
	}
	var ToolTipShadow = svgDocument.getElementById('ToolTipShadow');
	if(ToolTipShadow)
	{
		ToolTipShadow.setAttribute("width", Number(outline.width) );
		ToolTipShadow.setAttribute("height", Number(outline.height) + fontsize*.5*scaleForWidth );
		ToolTipShadow.setAttribute("x", 3*scaleForWidth);
		ToolTipShadow.setAttribute("y", 3*scaleForWidth);
	}
}
function ShowPaper()
{
  var svgDocument = getDocument();
  var paper = svgDocument.getElementById("paperID");
  if(paper)
  {
    paper.setAttribute("transform","scale(1)");
    paper.setAttribute("opacity","1");
    paper.setAttribute("visibility","visible");
  }
  var svg = svgDocument.getRootElement();
  if(svg)
  {
    svg.setAttribute("width","220.000mm");
    svg.setAttribute("height","160.000mm");
    svg.setAttribute("viewBox","-5.000000 -5.000000 220.000000 160.000000");
  }
}
]]></script><defs/><g><path style="fill:#ffffff" d="M209.93,149.99L0.04,149.99L0.04,0.04L209.93,0.04z"/><path style="fill:#00fdff" d="M98.30,22.84L98.30,24.17L85.05,31.85L84.74,31.85L79.28,28.68L79.28,27.33L92.55,19.67L92.84,19.67z"/><path style="fill:#00fdff" d="M93.09,84.81L93.61,85.18L93.73,85.76L98.24,83.16L98.67,83.16L104.11,86.34L104.12,87.64L79.41,101.84L79.03,101.93L73.54,98.80L73.54,97.36L84.47,91.06L84.57,84.44L87.85,82.53L89.17,82.53z"/><path style="fill:#2ac7ce" d="M116.55,79.10L116.66,88.36L116.78,89.01L117.17,89.88L117.81,90.89L118.70,91.64L122.24,93.69L122.20,100.27L121.31,100.79L120.84,100.79L110.59,94.82L110.08,94.18L109.82,93.31L109.82,76.49L110.79,75.93L111.09,75.93z"/><path style="fill:#2ac7ce" d="M72.83,104.32L72.94,113.58L73.06,114.22L73.72,115.60L74.60,116.61L78.52,118.90L78.53,125.42L77.60,126.01L77.12,126.01L66.87,120.03L66.37,119.40L66.09,118.66L66.06,101.67L66.95,101.15L67.37,101.15z"/><path style="fill:#01ff02" d="M79.93,28.16L79.91,28.49L79.75,28.49L79.80,28.02z"/><path style="fill:#01ff02" d="M84.50,30.83L84.49,31.12L84.21,30.95L84.18,30.70L84.35,30.68z"/><path style="fill:#01ff02" d="M121.87,95.06L121.87,95.37L121.68,95.60L121.44,95.64L121.48,95.12L121.75,94.94z"/><path style="fill:#01ff02" d="M74.24,98.37L74.22,98.55L73.95,98.51L73.91,98.24L74.09,98.22z"/><path style="fill:#01ff02" d="M121.87,98.99L121.87,99.30L121.68,99.53L121.44,99.57L121.48,99.04L121.75,98.87z"/><path style="fill:#01ff02" d="M78.80,101.05L78.78,101.21L78.52,101.18L78.52,100.77z"/><path style="fill:#01ff02" d="M78.16,120.28L78.16,120.59L77.96,120.81L77.72,120.85L77.76,120.33L78.03,120.16z"/><path style="fill:#01ff02" d="M78.16,124.21L78.16,124.52L77.96,124.74L77.72,124.78L77.76,124.26L78.03,124.08z"/><path style="fill:#00fdff" d="M98.29,71.76L98.80,72.52L98.92,74.55L98.92,76.87L98.80,77.39L97.99,77.86L97.65,77.86L95.64,76.70L95.13,76.06L94.99,75.57L94.98,71.16L95.20,70.87L95.71,70.62L96.40,70.62z"/><path style="fill:#2ac7ce" d="M99.42,37.05L99.44,65.10L98.50,65.70L98.18,65.68L92.71,62.51L92.71,34.55L93.99,33.88z"/><path style="fill:#2ac7ce" d="M83.97,44.90L84.87,45.52L84.82,73.54L83.93,74.06L83.59,74.06L78.10,70.92L78.14,42.91L79.11,42.36L79.54,42.36z"/><path style="fill:#2ac7ce" d="M148.23,105.20L148.18,108.01L145.38,112.94L106.49,135.38L106.02,135.38L104.33,134.40L104.36,129.07L104.85,128.28L105.20,128.28L106.01,127.81L106.22,127.38L130.82,113.19L131.32,113.21L132.11,112.72L132.36,112.34L135.25,110.65L135.42,110.65L136.44,111.22L136.55,110.19L136.78,109.79L144.25,105.46L144.54,105.46L145.44,105.89L145.55,105.12L145.94,104.50L146.58,104.20z"/><path style="stroke:#000000;stroke-width:0.088" d="M94.95,75.28L94.94,71.47L94.98,71.17L95.11,70.95L95.31,70.84L95.56,70.83L95.85,70.94L96.41,70.62L98.00,71.53L97.44,71.85L97.72,72.07L97.97,72.36L98.17,72.71L98.30,73.07L98.34,73.42L98.35,77.23L98.31,77.53L98.18,77.75L97.98,77.87L97.73,77.87L97.45,77.76L95.86,76.85L95.58,76.64L95.33,76.34L95.13,76.00L95.00,75.63L94.95,75.28L94.95,75.28"/><path style="stroke:#000000;stroke-width:0.088" d="M94.94,71.47L94.94,71.47"/><path style="stroke:#000000;stroke-width:0.088" d="M97.44,71.85L95.85,70.94"/><path style="stroke:#000000;stroke-width:0.088" d="M95.31,70.84L95.88,70.51L95.81,70.56"/><path style="stroke:#000000;stroke-width:0.088" d="M95.88,70.51L96.12,70.51"/><path style="stroke:#000000;stroke-width:0.088" d="M96.81,76.72L96.71,76.71L96.61,76.65L96.51,76.56L96.43,76.44L96.37,76.31L96.34,76.18L96.35,76.07L96.39,75.98L96.46,75.93L96.54,75.92L96.65,75.96L96.75,76.03L96.84,76.14L96.91,76.27L96.95,76.40L96.97,76.52L96.94,76.62L96.89,76.69L96.81,76.72"/><path style="stroke:#000000;stroke-width:0.088" d="M96.89,76.69L96.89,76.69"/><path style="stroke:#000000;stroke-width:0.088" d="M96.96,76.47L96.95,76.46L96.79,76.23L96.68,75.98"/><path style="stroke:#000000;stroke-width:0.088" d="M96.83,76.44L96.79,76.40L96.71,76.28L96.65,76.15L96.62,76.02L96.62,76.00"/><path style="stroke:#000000;stroke-width:0.088" d="M96.80,72.78L96.70,72.77L96.60,72.71L96.50,72.62L96.42,72.50L96.36,72.37L96.33,72.24L96.34,72.12L96.38,72.04L96.45,71.99L96.53,71.98L96.64,72.02L96.74,72.09L96.83,72.20L96.90,72.33L96.94,72.46L96.95,72.56L96.95,72.58L96.93,72.69L96.88,72.75L96.80,72.78"/><path style="stroke:#000000;stroke-width:0.088" d="M96.88,72.75L96.88,72.75"/><path style="stroke:#000000;stroke-width:0.088" d="M96.67,72.04L96.78,72.29L96.94,72.52L96.95,72.53"/><path style="stroke:#000000;stroke-width:0.088" d="M96.65,72.23L96.70,72.35L96.78,72.46L96.88,72.56L96.95,72.60"/><path style="stroke:#000000;stroke-width:0.088" d="M96.88,72.56L96.88,72.56"/><path style="stroke:#000000;stroke-width:0.088" d="M96.13,70.51L96.41,70.62"/><path style="stroke:#000000;stroke-width:0.088" d="M97.98,77.87L97.98,77.86"/><path style="stroke:#000000;stroke-width:0.088" d="M98.55,77.54L98.55,77.54L98.28,77.70"/><path style="stroke:#000000;stroke-width:0.088" d="M98.35,77.23L98.35,77.23"/><path style="stroke:#000000;stroke-width:0.088" d="M98.34,73.42L98.34,73.42"/><path style="stroke:#000000;stroke-width:0.088" d="M98.73,73.20L98.91,73.10L98.87,72.75L98.74,72.38L98.54,72.03L98.40,71.88"/><path style="stroke:#000000;stroke-width:0.088" d="M98.00,71.53L98.16,71.64"/><path style="stroke:#000000;stroke-width:0.088" d="M98.55,77.54L98.75,77.42L98.88,77.21L98.88,77.20L98.92,76.91L98.65,77.06"/><path style="stroke:#000000;stroke-width:0.088" d="M98.92,76.91L98.91,73.10"/><path style="stroke:#000000;stroke-width:0.088" d="M78.53,125.00L78.53,118.92L77.40,119.57L77.40,126.12L67.19,120.24L66.84,119.97L66.52,119.60L66.27,119.16L66.11,118.70L66.09,118.49"/><path style="stroke:#000000;stroke-width:0.088" d="M66.06,110.48L66.06,101.69L67.19,101.04L72.86,104.30L71.73,104.96L71.73,113.68L71.73,113.71"/><path style="stroke:#000000;stroke-width:0.088" d="M66.06,101.69L71.73,104.96"/><path style="stroke:#000000;stroke-width:0.088" d="M66.44,102.36L66.40,102.41L66.37,102.50L66.38,102.59L66.41,102.70L66.47,102.81L66.54,102.90L66.62,102.96L66.70,103.00L66.78,103.00"/><path style="stroke:#000000;stroke-width:0.088" d="M66.81,102.98L66.84,102.96L66.87,102.89L66.88,102.80L66.86,102.70L66.82,102.59L66.75,102.49L66.67,102.41L66.59,102.36"/><path style="stroke:#000000;stroke-width:0.088" d="M70.98,104.98L70.94,105.02"/><path style="stroke:#000000;stroke-width:0.088" d="M70.93,105.03L70.91,105.11L70.91,105.17"/><path style="stroke:#000000;stroke-width:0.088" d="M70.91,105.20L70.91,105.21L70.95,105.32L71.00,105.42L71.07,105.51L71.16,105.58L71.24,105.61"/><path style="stroke:#000000;stroke-width:0.088" d="M71.29,105.61L71.31,105.61L71.37,105.58L71.41,105.51L71.42,105.42L71.40,105.31L71.35,105.20L71.29,105.11L71.21,105.03L71.13,104.97L71.05,104.96"/><path style="stroke:#000000;stroke-width:0.088" d="M77.40,119.57L74.00,117.61L73.30,117.08L72.67,116.34L72.17,115.47L71.85,114.55L71.74,113.78"/><path style="stroke:#000000;stroke-width:0.088" d="M71.73,113.68L72.86,113.02L72.98,113.90L73.30,114.82L73.80,115.68L74.43,116.42L75.13,116.95L74.00,117.61"/><path style="stroke:#000000;stroke-width:0.088" d="M71.31,105.61L71.35,105.59"/><path style="stroke:#000000;stroke-width:0.088" d="M72.86,113.02L72.86,104.30"/><path style="stroke:#000000;stroke-width:0.088" d="M75.13,116.95L78.53,118.92"/><path style="stroke:#000000;stroke-width:0.088" d="M77.85,124.19L77.81,124.23L77.72,124.36L77.66,124.50L77.63,124.64L77.63,124.68L77.64,124.77L77.68,124.86L77.75,124.92L77.85,124.93L77.96,124.88L78.07,124.80L78.17,124.68L78.25,124.55L78.30,124.40L78.31,124.27L78.28,124.15L78.22,124.08L78.14,124.05L78.03,124.06L77.92,124.13L77.85,124.19"/><path style="stroke:#000000;stroke-width:0.088" d="M77.63,124.64L77.64,124.69L77.67,124.77L77.74,124.81L77.81,124.82L77.91,124.78L78.01,124.71L78.09,124.61L78.15,124.49L78.19,124.38L78.20,124.27L78.18,124.17L78.12,124.11"/><path style="stroke:#000000;stroke-width:0.088" d="M77.63,124.68L77.63,124.67"/><path style="stroke:#000000;stroke-width:0.088" d="M77.92,124.13L77.92,124.13L77.97,124.10L78.06,124.09"/><path style="stroke:#000000;stroke-width:0.088" d="M77.63,120.71L77.64,120.75L77.67,120.83L77.74,120.88L77.81,120.89L77.83,120.88L77.92,120.85L78.00,120.78L78.09,120.67L78.15,120.56L78.19,120.45L78.20,120.34L78.18,120.24L78.13,120.18L78.06,120.15L77.97,120.17L77.92,120.19L78.03,120.13L78.14,120.11L78.22,120.15L78.28,120.22L78.31,120.34L78.30,120.47L78.25,120.61L78.17,120.75L78.07,120.87L77.96,120.95L77.85,120.99L77.75,120.98L77.68,120.93L77.64,120.83L77.63,120.73"/><path style="stroke:#000000;stroke-width:0.088" d="M77.92,120.19L77.81,120.29L77.72,120.42L77.66,120.57L77.63,120.71L77.63,120.75"/><path style="stroke:#000000;stroke-width:0.088" d="M122.26,99.19L122.26,93.71L121.13,94.36L121.13,100.91L110.92,95.03L110.57,94.76L110.25,94.39L110.00,93.95L109.84,93.49L109.81,93.28"/><path style="stroke:#000000;stroke-width:0.088" d="M109.79,84.68L109.79,76.48L115.46,79.75L115.46,88.47L115.57,89.34L115.89,90.26L116.40,91.13L117.03,91.87L117.73,92.40L121.13,94.36"/><path style="stroke:#000000;stroke-width:0.088" d="M109.79,76.48L110.92,75.83L116.59,79.09L116.59,87.81L116.71,88.69L117.03,89.61L117.53,90.47L118.16,91.21L118.86,91.74L122.26,93.71"/><path style="stroke:#000000;stroke-width:0.088" d="M110.32,77.15L110.40,77.20L110.48,77.28L110.55,77.38L110.59,77.49L110.61,77.59L110.60,77.68L110.57,77.75L110.53,77.77"/><path style="stroke:#000000;stroke-width:0.088" d="M110.17,77.15L110.12,77.20L110.10,77.29L110.11,77.39L110.14,77.49L110.19,77.60L110.27,77.69L110.35,77.75L110.43,77.79L110.51,77.79"/><path style="stroke:#000000;stroke-width:0.088" d="M114.64,79.99L114.64,80.00L114.68,80.11L114.73,80.22L114.80,80.30L114.82,80.32"/><path style="stroke:#000000;stroke-width:0.088" d="M114.66,79.82L114.64,79.90L114.64,79.96"/><path style="stroke:#000000;stroke-width:0.088" d="M114.71,79.77L114.67,79.81"/><path style="stroke:#000000;stroke-width:0.088" d="M115.46,88.47L116.59,87.81"/><path style="stroke:#000000;stroke-width:0.088" d="M115.01,80.40L115.04,80.40L115.10,80.37L115.14,80.30L115.15,80.21L115.13,80.10L115.08,79.99L115.02,79.90L114.94,79.82L114.86,79.76L114.78,79.75"/><path style="stroke:#000000;stroke-width:0.088" d="M114.97,80.41L114.89,80.37L114.82,80.32"/><path style="stroke:#000000;stroke-width:0.088" d="M115.04,80.40L115.08,80.38"/><path style="stroke:#000000;stroke-width:0.088" d="M115.46,79.75L116.59,79.09"/><path style="stroke:#000000;stroke-width:0.088" d="M117.73,92.40L118.86,91.74"/><path style="stroke:#000000;stroke-width:0.088" d="M121.39,99.29L121.36,99.43L121.36,99.47L121.36,99.56L121.41,99.65L121.48,99.71L121.58,99.72L121.69,99.67L121.80,99.59L121.90,99.47L121.98,99.34L122.03,99.19L122.04,99.06L122.01,98.94L121.95,98.87L121.87,98.84L121.76,98.85L121.65,98.92L121.54,99.02L121.45,99.15L121.39,99.29"/><path style="stroke:#000000;stroke-width:0.088" d="M121.36,99.47L121.36,99.46"/><path style="stroke:#000000;stroke-width:0.088" d="M121.36,99.43L121.36,99.48L121.40,99.56L121.46,99.60L121.54,99.61L121.65,99.57L121.73,99.51L121.81,99.41L121.88,99.29L121.92,99.17L121.93,99.06L121.92,99.05"/><path style="stroke:#000000;stroke-width:0.088" d="M121.85,98.90L121.91,98.96L121.92,99.04"/><path style="stroke:#000000;stroke-width:0.088" d="M121.79,98.88L121.70,98.89L121.65,98.92L121.65,98.92"/><path style="stroke:#000000;stroke-width:0.088" d="M121.90,95.54L121.80,95.66L121.69,95.74L121.58,95.78L121.48,95.78L121.41,95.72L121.36,95.62L121.36,95.50L121.39,95.36L121.45,95.21L121.54,95.09L121.65,94.98L121.76,94.92L121.87,94.91L121.95,94.94L122.01,95.01L122.04,95.13L122.03,95.26L121.98,95.40L121.90,95.54"/><path style="stroke:#000000;stroke-width:0.088" d="M121.65,94.98L121.70,94.96L121.79,94.94L121.86,94.97L121.91,95.03L121.93,95.13L121.92,95.24L121.88,95.35L121.82,95.47L121.73,95.57L121.65,95.64L121.54,95.68L121.46,95.67L121.40,95.62L121.36,95.54L121.36,95.50"/><path style="stroke:#000000;stroke-width:0.088" d="M121.36,95.54L121.36,95.52"/><path style="stroke:#000000;stroke-width:0.088" d="M89.06,94.26L89.06,87.70L90.20,87.70L90.20,94.26L89.06,94.26L84.52,91.64L84.52,84.43L87.93,82.47L89.06,82.47L93.60,85.08L93.60,87.54"/><path style="stroke:#000000;stroke-width:0.088" d="M84.52,85.08L89.06,87.70"/><path style="stroke:#000000;stroke-width:0.088" d="M86.37,84.94L86.35,84.93L86.25,84.89L86.13,84.88L86.02,84.88L85.91,84.91L85.82,84.96L85.77,85.02L85.75,85.09L85.77,85.16L85.83,85.22L85.92,85.26L86.03,85.29L86.15,85.29L86.26,85.27L86.36,85.24L86.43,85.18L86.47,85.12L86.47,85.05L86.43,84.98L86.37,84.94"/><path style="stroke:#000000;stroke-width:0.088" d="M88.85,86.62L88.77,86.66L88.72,86.72L88.70,86.79L88.72,86.86L88.78,86.92L88.87,86.96L88.98,86.99L89.10,86.99L89.21,86.97L89.31,86.94L89.38,86.88L89.42,86.82L89.42,86.75L89.37,86.68L89.32,86.64L89.30,86.63L89.20,86.59L89.08,86.58L88.97,86.58L88.86,86.61L88.85,86.62"/><path style="stroke:#000000;stroke-width:0.088" d="M88.77,83.26L88.72,83.32L88.70,83.39L88.72,83.46L88.78,83.52L88.87,83.56L88.98,83.59L89.10,83.59L89.21,83.57L89.31,83.53L89.38,83.48L89.42,83.41L89.42,83.35L89.37,83.28L89.32,83.24L89.30,83.23L89.20,83.19L89.08,83.18L88.97,83.18L88.86,83.21L88.77,83.26"/><path style="stroke:#000000;stroke-width:0.088" d="M90.20,94.26L93.60,92.29L93.60,87.10"/><path style="stroke:#000000;stroke-width:0.088" d="M90.20,87.70L93.60,85.74L93.60,86.29"/><path style="stroke:#000000;stroke-width:0.088" d="M91.81,84.91L91.92,84.88L92.03,84.88L92.15,84.89L92.25,84.93L92.27,84.94L92.32,84.98L92.37,85.05L92.37,85.11L92.33,85.18L92.26,85.24L92.16,85.27L92.05,85.29L91.93,85.29L91.82,85.26L91.73,85.22L91.67,85.16L91.65,85.09L91.67,85.02L91.72,84.96L91.81,84.91"/><path style="stroke:#000000;stroke-width:0.088" d="M91.65,85.09L91.65,85.09"/><path style="stroke:#000000;stroke-width:0.088" d="M93.60,85.74L93.60,85.48"/><path style="stroke:#000000;stroke-width:0.088" d="M84.52,91.05L73.48,97.42L73.48,98.73L79.16,102.00L104.12,87.61L104.12,86.30L79.16,100.69L79.16,102.00"/><path style="stroke:#000000;stroke-width:0.088" d="M73.48,97.42L79.16,100.69"/><path style="stroke:#000000;stroke-width:0.088" d="M73.87,98.46L73.92,98.54L73.99,98.62L74.07,98.67L74.14,98.69L74.20,98.68L74.25,98.64L74.27,98.58L74.28,98.53L74.28,98.49L74.25,98.39L74.21,98.30L74.15,98.22L74.07,98.16L74.00,98.12L73.93,98.11L73.88,98.13L73.84,98.19L73.83,98.27L73.84,98.36L73.87,98.46"/><path style="stroke:#000000;stroke-width:0.088" d="M74.27,98.58L74.27,98.49"/><path style="stroke:#000000;stroke-width:0.088" d="M74.07,98.16L74.08,98.16L74.05,98.15L73.99,98.14L73.95,98.16L73.91,98.20L73.90,98.27L73.91,98.34L73.94,98.42L73.98,98.50L74.04,98.56L74.10,98.60L74.16,98.62L74.22,98.61"/><path style="stroke:#000000;stroke-width:0.088" d="M74.21,98.61L74.25,98.58L74.27,98.53"/><path style="stroke:#000000;stroke-width:0.088" d="M74.08,98.16L73.90,98.27"/><path style="stroke:#000000;stroke-width:0.088" d="M73.95,98.16L73.95,98.16"/><path style="stroke:#000000;stroke-width:0.088" d="M78.36,100.88L78.38,100.97L78.41,101.07L78.46,101.16L78.53,101.24L78.60,101.29L78.68,101.31L78.74,101.30L78.79,101.26L78.81,101.19L78.82,101.15L78.81,101.11L78.79,101.01L78.75,100.92L78.68,100.83L78.61,100.77L78.54,100.73L78.47,100.72L78.41,100.75L78.38,100.81L78.36,100.88"/><path style="stroke:#000000;stroke-width:0.088" d="M78.44,100.88L78.62,100.78L78.59,100.76L78.53,100.75L78.48,100.78L78.45,100.82L78.44,100.88L78.45,100.96L78.48,101.04L78.52,101.11L78.58,101.17L78.64,101.22L78.70,101.24L78.75,101.23L78.79,101.19L78.81,101.14L78.81,101.10"/><path style="stroke:#000000;stroke-width:0.088" d="M78.81,101.19L78.81,101.14"/><path style="stroke:#000000;stroke-width:0.088" d="M78.61,100.77L78.62,100.77"/><path style="stroke:#000000;stroke-width:0.088" d="M79.15,94.58L79.05,94.59L78.93,94.64L78.87,94.68L78.83,94.75L78.82,94.82L78.86,94.88L78.93,94.93L79.03,94.98L79.15,94.99L79.27,94.99L79.38,94.96L79.46,94.92L79.52,94.86L79.54,94.79L79.53,94.72L79.47,94.66L79.39,94.61L79.28,94.58L79.15,94.58"/><path style="stroke:#000000;stroke-width:0.088" d="M79.54,94.79L79.54,94.80"/><path style="stroke:#000000;stroke-width:0.088" d="M83.81,97.60L83.69,97.61L83.57,97.59L83.47,97.55L83.40,97.50L83.36,97.43L83.36,97.36L83.41,97.30L83.46,97.25L83.58,97.21L83.70,97.19L83.82,97.20L83.93,97.23L84.01,97.28L84.07,97.34L84.08,97.41L84.06,97.47L84.00,97.53L83.92,97.58L83.81,97.60"/><path style="stroke:#000000;stroke-width:0.088" d="M84.08,97.41L84.08,97.41"/><path style="stroke:#000000;stroke-width:0.088" d="M93.60,86.45L93.62,86.46L93.72,86.50L93.84,86.52L93.96,86.52L94.07,86.49L94.15,86.45L94.21,86.39L94.24,86.32L94.22,86.25L94.16,86.19L94.08,86.14L93.97,86.11L93.85,86.11L93.74,86.12L93.62,86.17L93.60,86.18"/><path style="stroke:#000000;stroke-width:0.088" d="M93.60,85.82L98.44,83.03L104.12,86.30"/><path style="stroke:#000000;stroke-width:0.088" d="M98.51,88.73L98.39,88.72L98.28,88.74L98.17,88.77L98.10,88.83L98.06,88.90L98.05,88.96L98.09,89.03L98.16,89.08L98.26,89.12L98.37,89.14L98.50,89.14L98.61,89.11L98.69,89.06L98.75,89.00L98.78,88.94L98.76,88.87L98.70,88.81L98.62,88.76L98.51,88.73"/><path style="stroke:#000000;stroke-width:0.088" d="M79.36,42.24L79.15,42.36L79.36,42.24L84.80,45.38L83.67,46.03L83.78,46.23L83.78,74.15L78.11,70.88L78.11,42.96L79.15,42.36L79.00,42.44"/><path style="stroke:#000000;stroke-width:0.088" d="M83.67,46.03L78.23,42.89"/><path style="stroke:#000000;stroke-width:0.088" d="M78.53,43.97L78.47,43.87L78.43,43.76L78.42,43.66L78.44,43.57L78.48,43.51L78.54,43.48L78.62,43.49L78.70,43.53L78.78,43.60L78.85,43.70L78.90,43.81L78.93,43.91L78.93,44.01L78.90,44.08L78.85,44.13L78.77,44.14L78.69,44.11L78.61,44.06L78.53,43.97"/><path style="stroke:#000000;stroke-width:0.088" d="M78.85,44.13L78.85,44.12"/><path style="stroke:#000000;stroke-width:0.088" d="M80.95,64.13L80.80,64.07L80.68,64.07L80.58,64.13L80.51,64.24L80.49,64.39L80.95,64.13L81.09,64.23L81.22,64.38L81.29,64.52L81.32,64.55L81.38,64.73L81.40,64.91L81.40,69.76L81.38,69.91L81.32,70.02L81.22,70.08L81.09,70.08L80.95,70.02L80.80,69.92L80.68,69.77L80.58,69.60L80.51,69.41L80.49,69.24L81.40,68.72"/><path style="stroke:#000000;stroke-width:0.088" d="M80.49,69.24L80.49,64.39"/><path style="stroke:#000000;stroke-width:0.088" d="M80.49,51.28L80.49,56.13L80.51,56.30L80.58,56.49L80.68,56.66L80.80,56.81L80.95,56.91L81.09,56.97L81.22,56.97L81.32,56.91L81.38,56.80L81.40,56.65L81.40,51.80L81.38,51.63L81.32,51.44L81.22,51.27L81.09,51.12L80.95,51.02L80.49,51.28L80.51,51.13L80.58,51.02L80.68,50.96L80.80,50.96L80.95,51.02"/><path style="stroke:#000000;stroke-width:0.088" d="M80.49,56.13L81.40,55.61"/><path style="stroke:#000000;stroke-width:0.088" d="M83.19,46.12L83.16,46.10L83.08,46.10L83.02,46.12L82.98,46.19L82.96,46.27L82.97,46.38L83.01,46.48L83.07,46.59L83.15,46.67L83.23,46.73L83.31,46.76L83.39,46.74L83.44,46.70L83.47,46.63L83.47,46.53L83.44,46.42L83.39,46.31L83.32,46.22L83.24,46.15L83.19,46.12"/><path style="stroke:#000000;stroke-width:0.088" d="M84.80,45.38L84.92,45.58L84.92,73.49L83.78,74.15"/><path style="stroke:#000000;stroke-width:0.088" d="M83.78,46.23L84.92,45.58"/><path style="stroke:#000000;stroke-width:0.088" d="M92.69,62.10L92.69,62.47L98.36,65.74L98.36,37.82L98.25,37.62L92.81,34.48L92.69,34.55L92.69,62.10"/><path style="stroke:#000000;stroke-width:0.088" d="M98.25,37.62L99.38,36.97L93.94,33.83L92.81,34.48"/><path style="stroke:#000000;stroke-width:0.088" d="M93.16,35.62L93.09,35.52L93.04,35.42L93.01,35.31L93.01,35.21L93.03,35.13L93.09,35.09L93.15,35.07L93.23,35.09L93.32,35.15L93.39,35.23L93.46,35.33L93.50,35.44L93.51,35.54L93.50,35.63L93.46,35.70L93.40,35.73L93.33,35.73L93.26,35.70L93.24,35.69L93.16,35.62"/><path style="stroke:#000000;stroke-width:0.088" d="M95.07,60.83L95.07,55.98L95.53,55.72L95.67,55.82L95.80,55.97L95.90,56.14L95.96,56.33L95.98,56.50L95.98,61.35L95.96,61.50L95.90,61.61L95.80,61.67L95.67,61.67L95.53,61.62L95.39,61.51L95.26,61.36L95.16,61.19L95.10,61.00L95.07,60.83L95.98,60.31"/><path style="stroke:#000000;stroke-width:0.088" d="M95.07,55.98L95.10,55.83L95.16,55.72L95.26,55.67L95.39,55.66L95.53,55.72"/><path style="stroke:#000000;stroke-width:0.088" d="M95.26,55.67L95.26,55.66"/><path style="stroke:#000000;stroke-width:0.088" d="M95.07,42.87L95.07,47.72L95.10,47.90L95.16,48.08L95.26,48.26L95.39,48.40L95.53,48.51L95.67,48.56L95.80,48.56L95.90,48.50L95.96,48.39L95.98,48.24L95.98,43.39L95.96,43.22L95.90,43.04L95.80,42.86L95.67,42.72L95.53,42.61L95.39,42.55L95.26,42.55L95.16,42.61L95.10,42.72L95.07,42.87L95.53,42.61"/><path style="stroke:#000000;stroke-width:0.088" d="M95.07,47.72L95.98,47.20"/><path style="stroke:#000000;stroke-width:0.088" d="M97.70,38.24L97.63,38.14L97.58,38.03L97.54,37.93L97.55,37.83L97.57,37.75L97.62,37.70L97.69,37.69L97.77,37.71L97.85,37.76L97.93,37.84L98.00,37.94L98.04,38.06L98.05,38.16L98.04,38.25L98.00,38.31L97.94,38.34L97.87,38.34L97.80,38.31L97.70,38.24"/><path style="stroke:#000000;stroke-width:0.088" d="M98.36,65.74L99.50,65.09L99.50,37.17L99.38,36.97"/><path style="stroke:#000000;stroke-width:0.088" d="M99.50,37.17L98.36,37.82"/><path style="stroke:#000000;stroke-width:0.088" d="M79.95,29.03L84.92,31.89L84.92,30.58L79.24,27.31L79.24,28.62L79.95,29.03"/><path style="stroke:#000000;stroke-width:0.088" d="M79.24,28.62L79.24,28.62"/><path style="stroke:#000000;stroke-width:0.088" d="M80.04,28.42L80.04,28.38L80.01,28.29L79.97,28.19L79.90,28.11L79.83,28.05L79.76,28.01L79.69,28.00L79.63,28.03L79.60,28.08L79.58,28.16L79.59,28.25L79.63,28.35L79.68,28.44L79.75,28.51L79.82,28.56L79.90,28.58L79.96,28.58L80.01,28.54L80.03,28.47L80.04,28.41"/><path style="stroke:#000000;stroke-width:0.088" d="M79.82,28.56L79.86,28.49L79.92,28.51L79.92,28.51L79.97,28.51L80.01,28.47L80.01,28.54"/><path style="stroke:#000000;stroke-width:0.088" d="M80.04,28.39L79.86,28.49L79.80,28.45L79.74,28.39L79.70,28.31L79.67,28.23L79.66,28.16L79.67,28.10L79.71,28.05L79.75,28.03L79.75,28.03L79.81,28.04L79.85,28.06"/><path style="stroke:#000000;stroke-width:0.088" d="M79.83,28.05L79.84,28.05"/><path style="stroke:#000000;stroke-width:0.088" d="M79.71,28.05L79.72,28.05"/><path style="stroke:#000000;stroke-width:0.088" d="M79.24,27.31L92.69,19.56L98.36,22.83L84.92,30.58"/><path style="stroke:#000000;stroke-width:0.088" d="M80.04,28.39L80.03,28.42L80.01,28.47"/><path style="stroke:#000000;stroke-width:0.088" d="M80.01,28.51L80.01,28.47"/><path style="stroke:#000000;stroke-width:0.088" d="M80.03,28.42L80.03,28.47"/><path style="stroke:#000000;stroke-width:0.088" d="M84.12,30.78L84.13,30.70L84.17,30.64L84.23,30.62L84.29,30.62L84.37,30.66L84.44,30.73L84.50,30.81L84.55,30.91L84.57,31.00L84.57,31.04L84.57,31.09L84.54,31.15L84.50,31.19L84.43,31.20L84.36,31.18L84.29,31.13L84.22,31.05L84.17,30.96L84.13,30.87L84.12,30.78"/><path style="stroke:#000000;stroke-width:0.088" d="M84.36,31.18L84.40,31.11L84.46,31.13L84.46,31.13L84.51,31.12L84.55,31.09L84.57,31.03L84.57,31.00"/><path style="stroke:#000000;stroke-width:0.088" d="M84.55,31.09L84.54,31.15"/><path style="stroke:#000000;stroke-width:0.088" d="M84.55,31.09L84.55,31.13"/><path style="stroke:#000000;stroke-width:0.088" d="M84.57,31.01L84.40,31.11L84.35,31.07L84.28,31.01L84.24,30.93L84.21,30.85L84.20,30.78L84.20,30.75"/><path style="stroke:#000000;stroke-width:0.088" d="M84.21,30.71L84.24,30.67"/><path style="stroke:#000000;stroke-width:0.088" d="M84.27,30.66L84.29,30.65L84.34,30.65L84.38,30.67"/><path style="stroke:#000000;stroke-width:0.088" d="M84.57,31.03L84.57,31.09"/><path style="stroke:#000000;stroke-width:0.088" d="M84.57,31.04L84.57,31.02"/><path style="stroke:#000000;stroke-width:0.088" d="M84.37,30.66L84.38,30.67"/><path style="stroke:#000000;stroke-width:0.088" d="M84.92,31.89L96.92,24.97"/><path style="stroke:#000000;stroke-width:0.088" d="M86.79,24.97L86.71,25.09L86.57,25.18L86.38,25.24L86.17,25.26L85.97,25.24L85.78,25.19L85.63,25.10L85.55,24.99L85.52,24.87L85.57,24.75L85.68,24.64L85.71,24.63L85.85,24.57L86.04,24.53L86.26,24.52L86.46,24.56L86.63,24.63L86.75,24.74L86.80,24.85"/><path style="stroke:#000000;stroke-width:0.088" d="M85.85,25.10L85.72,25.15"/><path style="stroke:#000000;stroke-width:0.088" d="M86.61,25.15L86.45,25.09L86.25,25.05"/><path style="stroke:#000000;stroke-width:0.088" d="M85.97,25.24L85.99,25.24L86.10,25.21L86.22,25.21L86.33,25.23L86.36,25.24"/><path style="stroke:#000000;stroke-width:0.088" d="M88.85,26.92L88.73,26.89L88.58,26.80L88.50,26.69L88.47,26.57L88.52,26.45L88.63,26.35L88.66,26.33L88.80,26.27L88.99,26.23L89.21,26.22L89.41,26.26L89.58,26.33L89.70,26.44L89.75,26.55L89.74,26.67L89.66,26.79L89.52,26.88L89.33,26.94L89.12,26.96L88.92,26.94L88.85,26.92"/><path style="stroke:#000000;stroke-width:0.088" d="M88.47,26.57L88.47,26.57"/><path style="stroke:#000000;stroke-width:0.088" d="M88.92,23.54L88.73,23.49L88.58,23.40L88.50,23.29L88.47,23.17L88.52,23.05L88.63,22.94L88.66,22.93L88.80,22.87L88.99,22.83L89.21,22.82L89.41,22.86L89.57,22.93L89.69,23.03L89.75,23.15L89.74,23.28L89.66,23.39L89.52,23.48L89.33,23.54L89.13,23.56L88.92,23.54L88.93,23.54L89.05,23.51L89.16,23.51L89.28,23.53L89.31,23.54"/><path style="stroke:#000000;stroke-width:0.088" d="M89.56,23.45L89.41,23.39L89.21,23.35L88.99,23.35L88.80,23.39L88.67,23.45"/><path style="stroke:#000000;stroke-width:0.088" d="M89.30,26.94L89.28,26.93L89.17,26.91L89.05,26.91L88.94,26.94L88.92,26.94"/><path style="stroke:#000000;stroke-width:0.088" d="M88.99,26.75L89.21,26.75L89.41,26.79L89.56,26.85"/><path style="stroke:#000000;stroke-width:0.088" d="M89.75,26.55L89.75,26.57"/><path style="stroke:#000000;stroke-width:0.088" d="M89.75,23.15L89.75,23.17"/><path style="stroke:#000000;stroke-width:0.088" d="M91.86,25.24L91.68,25.19L91.53,25.10L91.44,24.99L91.42,24.87L91.47,24.75L91.58,24.65L91.61,24.63L91.75,24.57L91.94,24.53L92.16,24.52L92.36,24.56L92.53,24.63L92.64,24.73L92.70,24.85L92.69,24.97L92.61,25.08L92.47,25.18L92.28,25.24L92.08,25.26L91.86,25.24"/><path style="stroke:#000000;stroke-width:0.088" d="M91.87,25.24L91.88,25.24L91.99,25.21L92.12,25.21L92.23,25.23L92.26,25.24"/><path style="stroke:#000000;stroke-width:0.088" d="M91.62,25.15L91.75,25.09L91.94,25.05L92.16,25.05L92.36,25.09L92.51,25.15"/><path style="stroke:#000000;stroke-width:0.088" d="M92.70,24.85L92.70,24.89"/><path style="stroke:#000000;stroke-width:0.088" d="M98.36,22.83L98.36,22.83"/><path style="stroke:#000000;stroke-width:0.088" d="M104.81,134.68L105.00,134.79L104.33,134.40L104.33,129.16L104.90,128.17L105.12,128.31L106.26,127.65L106.03,127.52L125.19,116.47L130.99,113.13L131.21,113.26L132.35,112.61L132.12,112.48L135.38,110.60L136.74,111.38L106.26,128.96L105.69,129.94L104.33,129.16"/><path style="stroke:#000000;stroke-width:0.088" d="M105.69,135.19L105.81,135.26L105.00,134.79L105.69,135.19L105.69,129.94"/><path style="stroke:#000000;stroke-width:0.088" d="M105.12,128.31L106.26,128.96"/><path style="stroke:#000000;stroke-width:0.088" d="M146.16,106.55L146.90,106.97L146.90,105.92L147.24,105.33L147.89,104.96L148.23,105.15L148.23,107.77L148.21,107.95L148.15,108.14L148.06,108.33L145.56,112.66L145.44,112.83L145.31,112.98L145.16,113.09L106.26,135.51L105.81,135.26"/><path style="stroke:#000000;stroke-width:0.088" d="M106.62,134.82L106.46,134.84L106.27,134.78L106.14,134.61L106.08,134.37L106.09,134.17L106.10,134.07L106.20,133.76L106.37,133.45L106.59,133.19L106.82,133.01L107.07,132.92L107.29,132.93L107.45,133.05L107.55,133.25L107.57,133.53L107.51,133.84L107.37,134.15L107.17,134.44L106.94,134.66L106.69,134.80L106.62,134.82"/><path style="stroke:#000000;stroke-width:0.088" d="M106.60,133.18L106.68,133.19L106.76,133.25L106.81,133.35L106.82,133.48L106.79,133.64L106.72,133.80L106.62,133.94L106.51,134.05L106.38,134.12L106.27,134.14L106.17,134.11L106.11,134.04"/><path style="stroke:#000000;stroke-width:0.088" d="M106.13,130.65L106.23,130.81L106.41,130.90L106.63,130.89L106.88,130.77L107.12,130.57L107.33,130.30L107.48,129.98L107.56,129.67L107.56,129.38L107.49,129.16L107.34,129.02L107.13,128.98L106.89,129.04L106.65,129.20L106.42,129.45L106.24,129.74L106.12,130.06L106.08,130.38L106.11,130.63L106.13,130.65"/><path style="stroke:#000000;stroke-width:0.088" d="M106.11,130.10L106.15,130.16L106.24,130.21L106.36,130.20L106.48,130.14L106.60,130.04L106.70,129.90L106.78,129.75L106.82,129.59L106.82,129.45L106.78,129.33L106.71,129.26L106.61,129.25"/><path style="stroke:#000000;stroke-width:0.088" d="M106.03,127.78L106.03,127.52"/><path style="stroke:#000000;stroke-width:0.088" d="M132.18,119.35L132.23,119.57L132.36,119.73L132.55,119.80L132.79,119.76L133.03,119.62L133.27,119.40L133.46,119.11L133.60,118.79L133.66,118.48L133.64,118.21L133.55,118.00L133.38,117.89L133.17,117.87L132.92,117.96L132.68,118.15L132.46,118.41L132.29,118.71L132.19,119.03L132.17,119.33L132.18,119.35"/><path style="stroke:#000000;stroke-width:0.088" d="M132.69,118.14L132.77,118.14L132.86,118.20L132.91,118.31L132.91,118.44L132.88,118.60L132.81,118.76L132.72,118.90L132.60,119.01L132.48,119.08L132.36,119.10L132.26,119.07L132.20,118.99"/><path style="stroke:#000000;stroke-width:0.088" d="M132.32,115.77L132.21,115.58L132.17,115.33L132.21,115.02L132.33,114.70L132.51,114.40L132.74,114.16L132.98,114.00L133.22,113.93L133.43,113.97L133.58,114.11L133.66,114.34L133.65,114.52L133.65,114.63L133.57,114.94L133.42,115.25L133.21,115.53L132.97,115.73L132.73,115.85L132.50,115.86L132.32,115.77"/><path style="stroke:#000000;stroke-width:0.088" d="M132.20,115.06L132.24,115.12L132.34,115.16L132.45,115.16L132.57,115.10L132.69,115.00L132.79,114.86L132.87,114.71L132.91,114.55L132.91,114.40L132.87,114.29L132.80,114.22L132.70,114.20"/><path style="stroke:#000000;stroke-width:0.088" d="M132.12,112.74L132.12,112.48"/><path style="stroke:#000000;stroke-width:0.088" d="M136.46,111.22L136.46,110.37L136.80,109.78L138.16,110.56L137.82,111.15L136.46,110.37"/><path style="stroke:#000000;stroke-width:0.088" d="M137.82,111.15L137.82,112.20L137.80,112.35L137.75,112.49L137.67,112.64L137.57,112.76L137.45,112.84L137.34,112.89L137.24,112.89L137.16,112.84L137.10,112.75L137.09,112.63L137.09,111.58L136.74,111.38"/><path style="stroke:#000000;stroke-width:0.088" d="M137.09,111.78L137.82,112.20"/><path style="stroke:#000000;stroke-width:0.088" d="M136.80,109.78L144.46,105.37L146.16,106.35L146.16,107.40L146.18,107.52L146.23,107.61L146.31,107.65L146.42,107.65L146.53,107.61L146.64,107.52L146.75,107.40L146.83,107.26L146.88,107.11L146.90,106.97"/><path style="stroke:#000000;stroke-width:0.088" d="M138.16,110.56L145.82,106.15"/><path style="stroke:#000000;stroke-width:0.088" d="M145.54,105.99L145.54,105.14L146.90,105.92"/><path style="stroke:#000000;stroke-width:0.088" d="M145.54,105.14L145.88,104.55L147.24,105.33"/><path style="stroke:#000000;stroke-width:0.088" d="M145.88,104.55L146.53,104.17L147.89,104.96"/><path style="fill:#ffffff" d="M171.13,107.76L197.54,107.76L197.54,102.11L171.13,102.11z"/><path style="stroke:#35414c;stroke-width:0.255" d="M171.13,107.76L197.54,107.76L197.54,102.11L171.13,102.11z"/><path style="stroke:#35404c;stroke-width:0.250;stroke-opacity:0.00" d="M171.13,107.76L197.54,107.76L197.54,102.11L171.13,102.11z"/><text xml:space="preserve" fill="#333f4b" stroke-width="0" x="171.83" y="106.17" font-size="3.49" opacity="1.00" font-family="Arial" font-weight="bold" font-style="italic">F31304550A</text><path style="fill:#ffffff" d="M171.12,47.53L197.54,47.53L197.54,41.89L171.12,41.89z"/><path style="stroke:#35414c;stroke-width:0.255" d="M171.12,47.53L197.54,47.53L197.54,41.89L171.12,41.89z"/><path style="stroke:#35404c;stroke-width:0.250;stroke-opacity:0.00" d="M171.12,47.53L197.54,47.53L197.54,41.89L171.12,41.89z"/><text xml:space="preserve" fill="#333f4b" stroke-width="0" x="171.83" y="45.94" font-size="3.49" opacity="1.00" font-family="Arial" font-weight="bold" font-style="italic">F24167277A</text><path style="fill:#ffffff" d="M171.12,77.64L197.53,77.64L197.53,72.00L171.12,72.00z"/><path style="stroke:#35414c;stroke-width:0.255" d="M171.12,77.64L197.53,77.64L197.53,72.00L171.12,72.00z"/><path style="stroke:#35404c;stroke-width:0.250;stroke-opacity:0.00" d="M171.12,77.64L197.53,77.64L197.53,72.00L171.12,72.00z"/><text xml:space="preserve" fill="#333f4b" stroke-width="0" x="171.83" y="76.06" font-size="3.49" opacity="1.00" font-family="Arial" font-weight="bold" font-style="italic">F24167598A</text><path style="fill:#ffffff" d="M171.12,87.68L197.53,87.68L197.53,82.04L171.12,82.04z"/><path style="stroke:#35414c;stroke-width:0.255" d="M171.12,87.68L197.53,87.68L197.53,82.04L171.12,82.04z"/><path style="stroke:#35404c;stroke-width:0.250;stroke-opacity:0.00" d="M171.12,87.68L197.53,87.68L197.53,82.04L171.12,82.04z"/><text xml:space="preserve" fill="#333f4b" stroke-width="0" x="171.83" y="86.09" font-size="3.49" opacity="1.00" font-family="Arial" font-weight="bold" font-style="italic">F24304497A</text><path style="fill:#ffffff" d="M171.12,67.61L197.53,67.61L197.53,61.96L171.12,61.96z"/><path style="stroke:#35414c;stroke-width:0.255" d="M171.12,67.61L197.53,67.61L197.53,61.96L171.12,61.96z"/><path style="stroke:#35404c;stroke-width:0.250;stroke-opacity:0.00" d="M171.12,67.61L197.53,67.61L197.53,61.96L171.12,61.96z"/><text xml:space="preserve" fill="#333f4b" stroke-width="0" x="171.83" y="66.02" font-size="3.49" opacity="1.00" font-family="Arial" font-weight="bold" font-style="italic">F24167596A</text><path style="fill:#ffffff" d="M171.12,97.72L197.53,97.72L197.53,92.08L171.13,92.08z"/><path style="stroke:#35414c;stroke-width:0.255" d="M171.12,97.72L197.53,97.72L197.53,92.08L171.13,92.08z"/><path style="stroke:#35404c;stroke-width:0.250;stroke-opacity:0.00" d="M171.12,97.72L197.53,97.72L197.53,92.08L171.13,92.08z"/><text xml:space="preserve" fill="#333f4b" stroke-width="0" x="171.83" y="96.13" font-size="3.49" opacity="1.00" font-family="Arial" font-weight="bold" font-style="italic">F31304549A</text><path style="fill:#ffffff" d="M171.12,57.57L197.53,57.57L197.53,51.93L171.13,51.93z"/><path style="stroke:#35414c;stroke-width:0.255" d="M171.12,57.57L197.53,57.57L197.53,51.93L171.13,51.93z"/><path style="stroke:#35404c;stroke-width:0.250;stroke-opacity:0.00" d="M171.12,57.57L197.53,57.57L197.53,51.93L171.13,51.93z"/><text xml:space="preserve" fill="#333f4b" stroke-width="0" x="171.83" y="55.98" font-size="3.49" opacity="1.00" font-family="Arial" font-weight="bold" font-style="italic">F24167595A</text><g id="paperID" visibility="hidden" opacity="0.00" transform="scale(0.000100)"><path style="stroke:#000000;stroke-width:0.500;fill:#e6e6e6;fill-rule:evenodd" d="M-2000.00,-2000.00L2210.00,-2000.00L2210.00,2150.00L-2000.00,2150.00zM0.00,0.00L210.00,0.00L210.00,150.00L0.00,150.00z"/><path style="fill:#000000;fill-opacity:0.118" d="M3.00,150.00L210.00,150.00L210.00,3.00L213.00,3.00L213.00,153.00L3.00,153.00z"/></g><g id="hotspot.0" onmouseover="ShowHotSpot(evt,'0')" onmouseout="HideHotSpot(evt,'0')" onmousemove="ShowToolTip(evt,'0',&quot;F24167277A&quot;)" opacity="0"><path style="fill:#00ff00;fill-rule:evenodd" d="M197.79,42.32L197.78,47.48L197.49,47.98L171.07,47.91L171.07,42.16L197.53,42.06zM97.65,71.41L98.72,72.45L98.70,77.57L98.39,77.78L97.10,77.77L95.28,76.42L94.99,75.65L94.98,71.48L95.79,70.67L96.09,70.62z"/></g><g id="hotspot.1" onmouseover="ShowHotSpot(evt,'1')" onmouseout="HideHotSpot(evt,'1')" onmousemove="ShowToolTip(evt,'1',&quot;F24167595A&quot;)" opacity="0"><path style="fill:#00ff00;fill-rule:evenodd" d="M96.32,21.75L98.19,23.05L98.09,24.39L85.42,31.81L84.43,31.81L79.43,28.88L79.43,27.38L92.28,19.87L92.89,19.87zM197.79,52.36L197.78,57.52L197.49,58.02L171.07,57.95L171.07,52.20L197.53,52.09z"/></g><g id="hotspot.2" onmouseover="ShowHotSpot(evt,'2')" onmouseout="HideHotSpot(evt,'2')" onmousemove="ShowToolTip(evt,'2',&quot;F24167596A&quot;)" opacity="0"><path style="fill:#00ff00;fill-rule:evenodd" d="M197.79,62.40L197.78,67.55L197.49,68.06L171.07,67.99L171.07,62.24L197.53,62.13zM116.40,79.07L116.66,88.32L117.22,90.14L118.27,91.47L122.20,93.87L122.24,100.32L121.30,101.00L120.93,101.00L110.60,94.91L110.04,94.15L110.06,76.52L110.50,76.13L111.12,76.14zM72.82,104.43L73.06,114.22L73.61,115.53L74.42,116.56L78.36,118.96L78.39,125.67L77.75,126.12L77.04,126.12L67.03,120.26L66.19,119.24L66.13,101.79L67.30,101.26z"/></g><g id="hotspot.3" onmouseover="ShowHotSpot(evt,'3')" onmouseout="HideHotSpot(evt,'3')" onmousemove="ShowToolTip(evt,'3',&quot;F24167598A&quot;)" opacity="0"><path style="fill:#00ff00;fill-rule:evenodd" d="M197.79,72.43L197.78,77.59L197.49,78.10L171.07,78.03L171.07,72.28L197.53,72.17zM148.10,105.22L148.11,108.49L145.46,112.97L106.82,135.35L105.59,135.32L104.43,134.63L104.49,129.06L104.94,128.45L113.24,123.54L130.84,113.41L131.96,112.94L133.48,111.82L135.45,110.77L136.50,111.39L136.74,110.06L144.04,105.73L144.94,105.74L145.47,106.10L145.91,104.71L146.78,104.41z"/></g><g id="hotspot.4" onmouseover="ShowHotSpot(evt,'4')" onmouseout="HideHotSpot(evt,'4')" onmousemove="ShowToolTip(evt,'4',&quot;F24304497A&quot;)" opacity="0"><path style="fill:#00ff00;fill-rule:evenodd" d="M197.79,82.47L197.78,87.63L197.49,88.14L171.07,88.06L171.07,82.31L197.53,82.21zM93.41,85.15L93.33,92.54L90.71,94.15L88.65,94.14L84.63,91.83L84.70,84.44L87.77,82.76L89.21,82.76z"/></g><g id="hotspot.5" onmouseover="ShowHotSpot(evt,'5')" onmouseout="HideHotSpot(evt,'5')" onmousemove="ShowToolTip(evt,'5',&quot;F31304549A&quot;)" opacity="0"><path style="fill:#00ff00;fill-rule:evenodd" d="M99.52,37.31L99.52,65.18L98.89,65.62L97.90,65.62L92.89,62.69L92.89,34.52L93.60,34.14L94.21,34.14zM84.73,45.50L84.72,73.62L84.35,74.06L83.38,74.07L78.36,71.15L78.37,42.97L79.07,42.59L79.68,42.59zM197.79,92.51L197.78,97.67L197.49,98.17L171.07,98.10L171.07,92.35L197.53,92.24z"/></g><g id="hotspot.6" onmouseover="ShowHotSpot(evt,'6')" onmouseout="HideHotSpot(evt,'6')" onmousemove="ShowToolTip(evt,'6',&quot;F31304550A&quot;)" opacity="0"><path style="fill:#00ff00;fill-rule:evenodd" d="M104.01,86.44L103.98,87.87L79.34,102.09L78.92,102.05L73.53,98.97L73.53,97.57L84.10,91.44L84.41,91.49L84.95,92.03L88.65,94.14L90.71,94.15L93.33,92.54L93.60,85.94L98.36,83.26L98.70,83.27zM197.79,102.55L197.78,107.70L197.49,108.21L171.07,108.14L171.07,102.39L197.53,102.28z"/></g></g></svg>
