<?xml version="1.0" encoding="UTF-8" standalone="no"?>
<svg xmlns="http://www.w3.org/2000/svg" xmlns:xlink="http://www.w3.org/1999/xlink" width="210.000mm" height="150.000mm" viewBox="0.000000 0.000000 210.000000 150.000000" stroke-linejoin="round" stroke-linecap="round" fill="none" fill-rule="evenodd"><desc>Composer Export</desc><script type="text/ecmascript"><![CDATA[
if(typeof(top) != "undefined")
{
	top.ShowPaper = ShowPaper;
}
function ShowHotSpot(evt,hotspotid)
{
	var svgDocument = evt.target.ownerDocument;
	var strId = "hotspot."+hotspotid;
	var hotspot = svgDocument.getElementById(strId);
	if(hotspot)
		hotspot.setAttribute("opacity",".5");
}
function HideHotSpot(evt,hotspotid)
{
	var svgDocument = evt.target.ownerDocument;
	var strId = "hotspot."+hotspotid;
	var hotspot = svgDocument.getElementById(strId);
	if(hotspot)
		hotspot.setAttribute("opacity","0");

	var toolTip = svgDocument.getElementById('ToolTip');
	if(toolTip)
		toolTip.setAttribute("visibility","hidden");
}
function ShowToolTip(evt,hotspotid,strTooltip)
{
	if(strTooltip=="")
	return;

	// change text
	var svgDocument = evt.target.ownerDocument;
	var tiptext = svgDocument.getElementById('ToolTipText');
	if( !tiptext )
	return;
	tiptext.firstChild.nodeValue = " " + strTooltip + "  " ;

	// show tooltip before, else some refresh issue

	var toolTip = svgDocument.getElementById('ToolTip');
	if(!toolTip)
	return;

	toolTip.setAttribute("visibility","visible");
	toolTip.setAttribute("opacity",".95");

	// move tooltip
	// get viewbox

	var root = svgDocument.documentElement;
	var vbox = (root.getAttribute("viewBox")).split(' ');
	var x0 = parseFloat(vbox[0]);
	var y0 = parseFloat(vbox[1]);
	var vboxW = parseFloat(vbox[2]);
	var vboxH = parseFloat(vbox[3]);

	// get default width of svg

	var strW = root.getAttribute("width");
	var svgW = parseFloat(strW);
	if(strW.indexOf('mm') != -1)
	svgW *= 3.779;

	var strH = root.getAttribute("height");
	var svgH = parseFloat(strH);
	if(strH.indexOf('mm') != -1)
	svgH *= 3.779;  	// 96 dpi  -> 96/25.4 = 3.779

	// update the viewbox / width / height if svg is embedded in html with zoom fit all
	var realx0 = x0;
	var realy0 = y0;
	var realvboxW = vboxW;
	var realvboxH = vboxH;
	var realsvgW = svgW;
	var realsvgH = svgH;

	if ((typeof(top) == "undefined") || (typeof(top.svgctl1) != "undefined")) // embedded in html
	{
		// get window size in pxl

		svgW = window.innerWidth;
		svgH = window.innerHeight;

		// calculate real viewbox

		realsvgW = svgW;
		realsvgH = svgH;
		if((svgW / svgH) > (vboxW / vboxH))
		{
			realvboxW = (vboxH * svgW) / svgH;
			realvboxH = vboxH;
			realx0 = x0 - (realvboxW - vboxW)/2 ;
		}
		else
		{
			realvboxH = (vboxW * svgH) / svgW;
			realvboxW = vboxW;
			realy0 = y0 - (realvboxH - vboxH)/2 ;
		}
	}

	// get user zoom/pan

	var newScale = root.currentScale;
	var translation = root.currentTranslate;

	// transform pxl to user unit

	var xPos = (((evt.clientX+10- translation.x)/newScale) * realvboxW)/realsvgW  + realx0 ;
	var yPos = (((evt.clientY+5- translation.y)/newScale) * realvboxH)/ realsvgH  + realy0 ;
	var scaleForWidth = ( (1 / newScale) * realvboxH) / realsvgH;

	// move tooltip

	toolTip.setAttribute("transform", "translate(" + xPos + "," + yPos + ")" );

	// resize tooltip

	var fontsize = 12;
	tiptext.setAttribute("font-size",fontsize*scaleForWidth);
	tiptext.setAttribute("y", fontsize*scaleForWidth);
	var tipBG = svgDocument.getElementById('ToolTipBG');
	var outline = tiptext.getBBox();
	if(tipBG)
	{
		tipBG.setAttribute("stroke-width", 1*scaleForWidth);
		tipBG.setAttribute("width", Number(outline.width) );
		tipBG.setAttribute("height", Number(outline.height) + fontsize*.5*scaleForWidth );
	}
	var ToolTipShadow = svgDocument.getElementById('ToolTipShadow');
	if(ToolTipShadow)
	{
		ToolTipShadow.setAttribute("width", Number(outline.width) );
		ToolTipShadow.setAttribute("height", Number(outline.height) + fontsize*.5*scaleForWidth );
		ToolTipShadow.setAttribute("x", 3*scaleForWidth);
		ToolTipShadow.setAttribute("y", 3*scaleForWidth);
	}
}
function ShowPaper()
{
  var svgDocument = getDocument();
  var paper = svgDocument.getElementById("paperID");
  if(paper)
  {
    paper.setAttribute("transform","scale(1)");
    paper.setAttribute("opacity","1");
    paper.setAttribute("visibility","visible");
  }
  var svg = svgDocument.getRootElement();
  if(svg)
  {
    svg.setAttribute("width","220.000mm");
    svg.setAttribute("height","160.000mm");
    svg.setAttribute("viewBox","-5.000000 -5.000000 220.000000 160.000000");
  }
}
]]></script><defs/><g><path style="fill:#ffffff" d="M210.01,150.00L0.03,150.00L0.03,0.03L210.01,0.03z"/><path style="fill:#2ac7ce" d="M58.97,66.25L57.38,67.09L58.01,65.89L59.18,65.00z"/><path style="fill:#597ea0" d="M61.60,61.79L62.19,62.47L62.52,63.18L62.71,64.40L62.98,65.62L63.93,66.87L64.07,67.17L61.48,66.19L58.97,66.25L59.18,65.00L59.34,64.07L59.63,64.56L60.08,64.93L60.86,64.91L61.69,64.35L61.72,63.40L61.25,62.71L60.91,62.48L60.39,62.48L59.58,62.92L59.82,62.02L60.28,61.67L60.51,61.55L61.15,61.52z"/><path style="fill:#f9840c" d="M135.16,48.59L135.51,48.51L136.40,47.99L136.67,47.99L137.36,48.36L137.49,48.57L137.60,49.16L138.53,50.19L139.11,50.89L139.33,54.95L139.41,55.57L139.69,55.75L140.50,56.22L140.96,56.92L141.18,58.55L141.65,59.59L141.89,60.04L143.29,61.08L143.74,61.90L144.44,73.77L144.21,74.12L142.64,75.10L142.81,76.62L142.70,78.17L142.48,78.41L135.13,82.65L134.70,82.65L127.18,78.93L126.59,78.24L126.24,77.44L125.32,60.98L125.20,60.05L125.20,59.13L124.63,58.77L124.16,58.20L124.04,57.97L124.04,56.85L124.29,56.61L124.28,56.35L123.94,55.87L122.96,55.80L122.54,54.72L122.18,54.03L121.84,52.75L121.49,51.83L121.49,51.29L122.84,50.55L124.09,50.48L124.50,51.48L125.17,51.48L126.36,50.93L126.27,50.42L126.43,50.32L127.07,50.31L127.51,51.16L128.29,50.32L129.16,50.03L132.15,48.28L132.46,47.89L132.81,47.77L133.78,47.77z"/><path style="fill:#2ac7ce" d="M71.45,59.93L73.08,60.70L73.29,60.87L74.34,61.44L76.78,63.75L79.09,67.00L80.59,70.25L81.41,73.84L81.29,75.03L80.64,75.40L69.24,69.78L64.07,67.17L63.93,66.87L62.98,65.62L62.71,64.40L62.78,64.40L63.45,64.70L63.75,64.69L64.68,64.10L64.84,63.68L64.88,63.17L70.67,59.81z"/><path style="fill:#95dce0" d="M78.51,58.31L122.31,80.09L122.89,80.66L123.57,81.49L124.04,82.41L124.27,83.34L125.43,102.45L125.39,103.50L121.57,105.70L121.61,107.44L122.42,121.22L122.43,123.47L122.16,124.01L121.23,124.71L120.21,124.71L112.33,120.85L112.19,120.86L112.22,122.15L112.57,128.06L112.46,129.26L112.22,129.83L111.38,130.38L110.25,130.38L109.56,130.14L96.60,123.66L94.56,124.80L92.96,125.63L92.18,125.63L91.49,125.39L72.15,115.77L71.10,114.73L67.27,107.32L58.92,91.11L58.70,90.40L54.18,81.60L53.01,78.71L52.44,76.39L52.33,75.23L52.33,73.30L52.55,71.67L53.31,70.00L54.60,68.62L56.80,67.45L57.38,67.09L58.97,66.25L61.48,66.19L64.07,67.17L69.24,69.78L80.64,75.40L89.18,79.66L89.75,78.05L89.75,76.50L89.30,75.33L88.84,74.52L87.10,72.67L86.28,71.97L82.45,68.16L81.42,67.22L77.81,63.64L76.90,62.82L74.80,61.21L73.42,60.62L73.12,60.60L72.59,59.71L72.49,59.13L72.44,58.39L74.18,57.62L76.43,57.62z"/><path style="fill:#597ea0" d="M71.35,56.18L71.91,56.81L72.40,58.19L72.44,58.39L72.49,59.13L72.59,59.71L73.12,60.60L73.08,60.70L71.45,59.93L70.67,59.81L71.68,59.17L71.80,58.94L71.79,58.08L71.34,57.14L70.75,56.57L70.52,56.45L69.52,56.52L70.05,56.03L70.36,55.87L70.63,55.87z"/><path style="fill:#8aa7bf" d="M126.27,50.42L126.36,50.93L125.17,51.48L124.50,51.48L124.09,50.48L123.69,49.28L116.04,29.01L116.05,28.46L117.16,27.96L117.79,27.96z"/><path style="fill:#8aa7bf" d="M129.03,57.85L129.04,58.24L128.21,58.70L127.25,58.81L126.21,55.99L127.59,55.53L128.10,55.31z"/><path style="fill:#8aa7bf" d="M70.75,56.57L71.34,57.14L71.79,58.08L71.80,58.94L71.68,59.17L70.67,59.81L64.88,63.17L63.18,64.11L62.78,64.40L62.71,64.40L62.52,63.18L62.19,62.47L61.60,61.79L61.15,61.52L61.56,61.21L69.34,56.72L69.52,56.52L70.52,56.45z"/><path style="fill:#8aa7bf" d="M74.80,61.21L76.90,62.82L77.81,63.64L81.42,67.22L82.45,68.16L86.28,71.97L87.10,72.67L88.84,74.52L89.30,75.33L89.75,76.50L89.75,78.05L89.18,79.66L80.64,75.40L81.29,75.03L81.41,73.84L80.59,70.25L79.09,67.00L76.78,63.75L74.34,61.44L73.29,60.87L73.08,60.70L73.12,60.60L73.42,60.62z"/><path style="fill:#8aa7bf" d="M107.36,81.14L108.17,81.95L108.87,83.34L108.98,84.42L108.87,84.89L108.47,85.42L106.20,86.74L105.85,86.83L100.36,84.02L105.92,80.78L106.67,80.79z"/><path style="fill:#8aa7bf" d="M116.63,92.84L117.55,93.42L118.26,94.33L118.71,95.38L118.83,96.47L118.71,96.93L118.50,97.30L111.41,101.45L111.03,101.58L110.67,95.72L115.89,92.72L116.40,92.72z"/><path style="fill:#f9840c" d="M72.26,56.23L72.84,57.03L72.80,57.97L72.40,58.19L71.91,56.81L71.35,56.18L71.68,56.00z"/><path style="fill:#f9840c" d="M61.25,62.71L61.72,63.40L61.69,64.35L60.86,64.91L60.08,64.93L59.63,64.56L59.34,64.07L59.27,63.45L59.51,62.99L59.58,62.92L60.39,62.48L60.91,62.48z"/><path style="fill:#01ff02" d="M103.09,83.68L103.08,83.96L102.98,84.10L102.46,84.27L101.91,84.27L101.56,84.15L101.53,83.69L102.10,83.45L102.61,83.45z"/><path style="fill:#01ff02" d="M112.93,95.73L112.94,96.01L112.66,96.21L111.51,96.21L111.37,96.12L111.42,95.66L111.72,95.50L112.69,95.50z"/><path style="fill:#ffffff" d="M62.78,64.40L63.18,64.11L64.88,63.17L64.84,63.68L64.68,64.10L63.75,64.69L63.45,64.70z"/><path style="fill:#ffffff" d="M94.27,71.41L95.42,72.10L96.36,73.02L97.29,74.41L97.86,75.58L98.20,76.97L98.44,79.86L98.44,81.99L98.16,82.88L97.98,82.89L94.62,81.13L93.70,79.74L93.10,78.25L92.88,77.08L92.61,72.91L92.75,71.78L93.07,71.17L93.57,71.17z"/><path style="stroke:#000000;stroke-width:0.088" d="M115.95,28.61L115.97,28.68L116.10,28.71L116.31,28.70L116.58,28.64L116.88,28.54L117.19,28.42L117.51,28.26L117.67,28.16L117.80,28.04L117.82,27.95L117.75,27.90L117.58,27.89L117.34,27.93L117.04,28.01L116.75,28.11L116.44,28.25L116.20,28.38L116.03,28.51L115.95,28.61"/><path style="stroke:#000000;stroke-width:0.088" d="M124.56,51.52L115.97,28.68"/><path style="stroke:#000000;stroke-width:0.088" d="M126.45,50.89L117.82,27.95"/><path style="stroke:#000000;stroke-width:0.088" d="M128.10,55.29L129.15,58.08L129.12,58.17L129.00,58.29L128.83,58.39L128.52,58.55L128.21,58.67L127.90,58.77L127.63,58.83L127.42,58.84L127.30,58.81L126.24,55.98"/><path style="stroke:#000000;stroke-width:0.088" d="M124.16,50.47L122.81,50.55L121.72,51.18L121.53,51.31L121.41,51.42L121.39,51.51L121.47,51.56L121.63,51.56L124.03,51.41L124.10,51.41L124.15,51.43L124.16,51.46L124.13,51.50L124.06,51.64L125.66,55.90L125.74,55.99L125.96,56.02L126.29,55.98L126.71,55.88L127.17,55.73L127.61,55.54L128.00,55.34L128.71,54.93L127.11,50.67L126.40,51.08L126.01,51.28L125.57,51.47L125.11,51.62L124.69,51.72L124.36,51.76L124.14,51.73L124.06,51.64"/><path style="stroke:#000000;stroke-width:0.088" d="M121.39,51.51L122.15,53.51"/><path style="stroke:#000000;stroke-width:0.088" d="M122.66,54.81L123.13,53.18L122.88,53.05L122.62,53.01L122.40,53.08L122.25,53.25L122.17,53.51L122.18,53.83L122.28,54.19L122.45,54.53L122.66,54.81L122.66,54.82L122.66,54.84L122.67,54.85L122.68,54.85L122.70,54.85L122.99,54.70L123.04,54.75"/><path style="stroke:#000000;stroke-width:0.088" d="M123.42,53.44L122.94,55.07L123.19,55.21L123.45,55.25L123.67,55.18L123.81,55.03L123.83,55.01L123.90,54.75L123.89,54.43L123.80,54.07L123.62,53.72L123.42,53.44L123.43,53.42L123.45,53.39L123.47,53.37L123.49,53.34L123.80,53.15L123.51,52.89L123.22,53.08L122.93,52.93L122.65,52.88L122.42,52.95L122.23,53.16L122.23,53.18L122.15,53.46L122.16,53.81L122.26,54.18L122.44,54.55L122.66,54.84"/><path style="stroke:#000000;stroke-width:0.088" d="M121.63,51.56L122.23,53.17"/><path style="stroke:#000000;stroke-width:0.088" d="M124.44,51.21L124.39,51.21L121.98,51.36L121.90,51.35L121.86,51.33L121.87,51.29L121.93,51.23L122.03,51.16L122.36,50.97L122.46,50.96L122.55,50.92L124.29,50.81"/><path style="stroke:#000000;stroke-width:0.088" d="M122.03,51.16L122.10,51.35"/><path style="stroke:#000000;stroke-width:0.088" d="M122.55,50.92L122.59,51.02L122.54,51.18L122.44,51.18L122.36,50.97L122.05,50.99"/><path style="stroke:#000000;stroke-width:0.088" d="M122.64,54.81L122.99,55.77L123.07,55.82L123.23,55.82L122.97,55.12"/><path style="stroke:#000000;stroke-width:0.088" d="M122.84,54.78L122.95,55.07"/><path style="stroke:#000000;stroke-width:0.088" d="M122.94,55.07L122.94,55.09L122.95,55.11L123.23,55.26L123.53,55.31L123.55,55.31L123.79,55.23L123.95,55.04L124.04,54.76L124.02,54.41L123.92,54.03L123.74,53.65L123.52,53.37L123.50,53.34"/><path style="stroke:#000000;stroke-width:0.088" d="M122.99,54.70L123.51,52.89"/><path style="stroke:#000000;stroke-width:0.088" d="M122.84,52.65L123.01,52.41L123.28,52.31L123.61,52.36L123.96,52.55L124.29,52.86L124.57,53.26L124.78,53.71L124.87,54.15L124.85,54.54L124.72,54.84L124.49,55.01L124.64,54.93L124.86,54.76L125.00,54.46L125.01,54.16"/><path style="stroke:#000000;stroke-width:0.088" d="M122.42,52.95L123.05,52.49L123.30,52.40L123.61,52.44L123.94,52.62L124.25,52.91L124.52,53.29L124.71,53.71L124.80,54.13L124.78,54.50L124.66,54.78L124.44,54.95L123.79,55.23"/><path style="stroke:#000000;stroke-width:0.088" d="M123.01,52.41L123.15,52.33L123.42,52.23L123.75,52.28L124.10,52.46L124.43,52.78L124.54,52.93"/><path style="stroke:#000000;stroke-width:0.088" d="M122.44,51.18L122.49,51.33"/><path style="stroke:#000000;stroke-width:0.088" d="M122.70,51.31L122.59,51.02L122.38,51.04"/><path style="stroke:#000000;stroke-width:0.088" d="M122.54,51.18L122.67,51.24L122.47,51.25"/><path style="stroke:#000000;stroke-width:0.088" d="M122.67,51.24L122.64,51.32"/><path style="stroke:#000000;stroke-width:0.088" d="M122.59,51.02L122.46,50.96"/><path style="stroke:#000000;stroke-width:0.088" d="M123.23,55.82L125.58,55.68"/><path style="stroke:#000000;stroke-width:0.088" d="M123.55,55.30L123.55,55.31"/><path style="stroke:#000000;stroke-width:0.088" d="M123.22,53.08L123.19,53.10L123.17,53.12L123.15,53.15L123.13,53.18"/><path style="stroke:#000000;stroke-width:0.088" d="M124.29,58.31L124.54,58.63L124.82,58.87L125.11,59.00L125.38,59.01L125.59,58.90L125.72,58.68L125.76,58.37L125.71,58.01L125.57,57.64L125.35,57.29L125.08,57.00L124.79,56.81L124.51,56.74L124.27,56.79L124.09,56.96L124.00,57.23L124.01,57.56L124.10,57.93L124.29,58.31"/><path style="stroke:#000000;stroke-width:0.088" d="M124.60,58.26L125.14,58.58L125.42,58.21L125.16,57.50L124.61,57.18L124.33,57.56L124.60,58.26L125.29,57.86"/><path style="stroke:#000000;stroke-width:0.088" d="M124.53,58.67L124.27,58.33L124.07,57.93L123.96,57.53L123.96,57.13L124.06,56.83L124.08,56.79L124.27,56.60L124.31,56.58L124.58,56.52L124.90,56.60L125.23,56.82L125.53,57.14L125.78,57.54L125.87,57.76L125.94,57.96L126.00,58.37L125.95,58.72L125.80,58.97L125.56,59.10L125.52,59.11L125.18,59.09L124.86,58.95L124.84,58.93L124.53,58.67"/><path style="stroke:#000000;stroke-width:0.088" d="M124.33,57.56L124.80,57.29"/><path style="stroke:#000000;stroke-width:0.088" d="M125.65,55.86L125.51,55.89L124.31,56.58"/><path style="stroke:#000000;stroke-width:0.088" d="M124.24,56.15L124.10,56.10L124.39,56.08L124.51,56.14L124.47,56.29L124.21,56.31L124.24,56.15L124.51,56.14L124.43,55.92L124.31,55.86L123.99,55.88L124.01,55.78"/><path style="stroke:#000000;stroke-width:0.088" d="M124.21,56.31L124.35,56.36L124.32,56.52L124.42,56.51"/><path style="stroke:#000000;stroke-width:0.088" d="M124.51,56.14L124.61,56.40"/><path style="stroke:#000000;stroke-width:0.088" d="M124.32,56.52L124.37,56.54"/><path style="stroke:#000000;stroke-width:0.088" d="M123.99,55.88L124.12,55.94L124.10,56.10"/><path style="stroke:#000000;stroke-width:0.088" d="M124.39,56.08L124.43,55.92L124.12,55.94"/><path style="stroke:#000000;stroke-width:0.088" d="M124.31,55.86L124.34,55.76"/><path style="stroke:#000000;stroke-width:0.088" d="M124.57,56.43L124.59,56.35L124.47,56.29"/><path style="stroke:#000000;stroke-width:0.088" d="M124.59,56.35L124.35,56.36"/><path style="stroke:#000000;stroke-width:0.088" d="M124.43,55.92L124.36,55.75"/><path style="stroke:#000000;stroke-width:0.088" d="M124.23,55.04L124.49,55.01"/><path style="stroke:#000000;stroke-width:0.088" d="M124.64,51.54L124.58,51.53L124.58,51.53"/><path style="stroke:#000000;stroke-width:0.088" d="M124.55,51.50L124.53,51.47L124.54,51.46"/><path style="stroke:#000000;stroke-width:0.088" d="M124.03,51.41L124.09,51.58"/><path style="stroke:#000000;stroke-width:0.088" d="M125.37,55.69L125.20,55.79L125.02,56.08L125.01,56.18"/><path style="stroke:#000000;stroke-width:0.088" d="M125.20,55.79L125.39,55.69"/><path style="stroke:#000000;stroke-width:0.088" d="M125.20,51.47L125.23,51.46L125.35,51.42"/><path style="stroke:#000000;stroke-width:0.088" d="M125.06,51.50L124.95,51.52L124.92,51.53"/><path style="stroke:#000000;stroke-width:0.088" d="M124.82,51.54L124.73,51.55L124.71,51.55"/><path style="stroke:#000000;stroke-width:0.088" d="M125.99,58.86L126.22,59.10L126.94,59.52L127.62,59.63L128.18,59.44L128.56,58.95L128.66,58.48"/><path style="stroke:#000000;stroke-width:0.088" d="M125.80,58.97L126.89,58.36L127.05,58.15"/><path style="stroke:#000000;stroke-width:0.088" d="M125.51,55.89L125.51,55.89"/><path style="stroke:#000000;stroke-width:0.088" d="M126.14,56.00L126.28,56.10"/><path style="stroke:#000000;stroke-width:0.088" d="M125.66,51.31L125.53,51.36L125.50,51.37"/><path style="stroke:#000000;stroke-width:0.088" d="M125.94,51.18L125.83,51.23L125.80,51.25"/><path style="stroke:#000000;stroke-width:0.088" d="M127.11,50.67L126.80,50.69L126.09,51.10"/><path style="stroke:#000000;stroke-width:0.088" d="M126.42,58.62L126.63,58.67L126.95,58.61L127.15,58.42"/><path style="stroke:#000000;stroke-width:0.088" d="M128.00,55.34L126.40,51.08"/><path style="stroke:#000000;stroke-width:0.088" d="M127.45,51.57L127.59,51.48L127.14,50.28L126.24,50.34"/><path style="stroke:#000000;stroke-width:0.088" d="M127.14,50.28L126.39,50.72L126.51,50.78L126.48,50.88"/><path style="stroke:#000000;stroke-width:0.088" d="M126.51,50.78L126.41,50.78"/><path style="stroke:#000000;stroke-width:0.088" d="M126.39,50.72L126.38,50.72"/><path style="stroke:#000000;stroke-width:0.088" d="M126.95,58.61L127.18,58.48"/><path style="stroke:#000000;stroke-width:0.088" d="M128.18,59.44L128.85,59.05L129.23,58.56L129.38,57.84L129.29,56.97L128.83,57.24"/><path style="stroke:#000000;stroke-width:0.088" d="M128.18,55.50L128.19,55.47L128.16,55.45"/><path style="stroke:#000000;stroke-width:0.088" d="M128.12,55.33L128.14,55.26"/><path style="stroke:#000000;stroke-width:0.088" d="M128.17,55.47L128.19,55.47"/><path style="stroke:#000000;stroke-width:0.088" d="M128.60,54.63L128.74,54.54L128.29,53.34L128.14,53.43"/><path style="stroke:#000000;stroke-width:0.088" d="M128.29,53.34L128.12,53.35"/><path style="stroke:#000000;stroke-width:0.088" d="M129.29,56.97L128.74,54.54"/><path style="stroke:#000000;stroke-width:0.088" d="M127.91,50.76L127.63,50.98L127.49,51.21"/><path style="stroke:#000000;stroke-width:0.088" d="M127.50,51.54L127.63,51.75L127.92,51.96L128.22,52.11"/><path style="stroke:#000000;stroke-width:0.088" d="M127.48,51.65L127.48,51.55"/><path style="stroke:#000000;stroke-width:0.088" d="M128.94,58.97L129.43,59.02L130.00,58.75L130.38,58.18L130.52,57.38L130.40,56.42L130.04,55.42L129.47,54.48L128.76,53.70L128.31,53.39"/><path style="stroke:#000000;stroke-width:0.088" d="M128.07,53.23L128.24,53.34"/><path style="stroke:#000000;stroke-width:0.088" d="M127.92,51.96L127.93,52.27"/><path style="stroke:#000000;stroke-width:0.088" d="M127.92,50.70L128.03,50.51L128.25,50.35L128.55,50.22L128.90,50.16L129.26,50.16L129.60,50.22L129.87,50.34L130.05,50.50L130.12,50.69L130.11,50.71L130.07,50.88L129.90,51.07L129.80,51.13L129.64,51.21L129.60,51.22L129.31,51.31L128.94,51.34L128.59,51.31L128.28,51.22L128.05,51.08L127.92,50.90L127.92,50.70L127.89,51.45L128.01,51.64L128.24,51.79L128.55,51.90L128.59,51.90"/><path style="stroke:#000000;stroke-width:0.088" d="M127.75,52.38L128.55,51.91L129.10,51.80L129.72,51.92L136.51,47.99L136.77,48.11L137.03,48.25L130.24,52.18L130.88,52.68L131.47,53.36L131.95,54.13L132.18,54.68L132.36,55.29L132.47,56.02L132.63,56.07L133.13,56.14L133.65,56.11L134.15,56.01L134.57,55.82L134.72,60.05L134.33,60.22L133.88,60.32L133.40,60.34L132.95,60.27L132.56,60.14L129.88,58.81"/><path style="stroke:#000000;stroke-width:0.088" d="M128.89,50.80L128.65,50.29L128.35,50.47L128.70,50.57L128.35,50.85L128.65,51.00L129.00,50.72L129.36,50.97L129.66,50.79L129.30,50.54L129.32,50.94"/><path style="stroke:#000000;stroke-width:0.088" d="M129.09,58.74L128.95,58.97L128.89,59.00"/><path style="stroke:#000000;stroke-width:0.088" d="M128.95,58.97L129.70,58.53L130.03,58.01L130.14,57.27L130.14,57.12L130.02,56.41L129.68,55.51L129.16,54.67L128.72,54.19L128.97,54.41L129.13,54.63"/><path style="stroke:#000000;stroke-width:0.088" d="M129.33,58.12L129.28,58.44L129.24,58.50"/><path style="stroke:#000000;stroke-width:0.088" d="M129.20,54.72L129.50,55.13L129.66,55.48"/><path style="stroke:#000000;stroke-width:0.088" d="M128.54,54.00L128.72,54.19L128.71,54.18"/><path style="stroke:#000000;stroke-width:0.088" d="M128.70,50.57L128.72,50.94"/><path style="stroke:#000000;stroke-width:0.088" d="M129.26,50.90L129.32,50.93"/><path style="stroke:#000000;stroke-width:0.088" d="M128.65,50.29L129.00,50.40L129.36,50.27L129.16,50.83"/><path style="stroke:#000000;stroke-width:0.088" d="M129.00,50.40L129.02,50.73"/><path style="stroke:#000000;stroke-width:0.088" d="M132.15,48.31L128.95,50.16"/><path style="stroke:#000000;stroke-width:0.088" d="M132.47,56.02L132.48,56.25L132.34,57.05L132.31,57.13L131.98,57.61L131.86,57.70L130.00,58.75"/><path style="stroke:#000000;stroke-width:0.088" d="M129.31,57.13L129.38,57.56L129.39,57.71L129.38,57.77"/><path style="stroke:#000000;stroke-width:0.088" d="M130.06,56.69L130.08,56.76L130.08,56.80"/><path style="stroke:#000000;stroke-width:0.088" d="M129.96,56.24L129.88,55.94L129.70,55.55"/><path style="stroke:#000000;stroke-width:0.088" d="M135.67,48.42L135.25,48.62L129.58,51.89"/><path style="stroke:#000000;stroke-width:0.088" d="M129.46,51.87L129.66,51.81L129.95,51.67L130.14,51.48L130.21,51.27L130.12,50.69"/><path style="stroke:#000000;stroke-width:0.088" d="M129.66,51.90L129.29,51.83"/><path style="stroke:#000000;stroke-width:0.088" d="M129.71,51.92L129.66,51.90"/><path style="stroke:#000000;stroke-width:0.088" d="M129.63,51.90L136.51,47.93L136.51,47.99"/><path style="stroke:#000000;stroke-width:0.088" d="M129.36,50.27L129.66,50.41L129.30,50.54"/><path style="stroke:#000000;stroke-width:0.088" d="M130.37,59.05L130.37,59.07L130.41,59.13L130.47,59.16L130.48,59.17L130.57,59.20L130.68,59.21"/><path style="stroke:#000000;stroke-width:0.088" d="M130.62,52.47L137.49,48.50L137.46,48.44L137.40,48.37L137.28,48.30L137.10,48.26L137.03,48.25"/><path style="stroke:#000000;stroke-width:0.088" d="M130.76,52.59L137.27,48.83L137.86,49.40L138.22,49.93"/><path style="stroke:#000000;stroke-width:0.088" d="M130.38,52.29L130.30,52.22"/><path style="stroke:#000000;stroke-width:0.088" d="M130.24,52.18L130.30,52.22"/><path style="stroke:#000000;stroke-width:0.088" d="M132.14,53.18L131.57,53.51"/><path style="stroke:#000000;stroke-width:0.088" d="M131.57,53.51L131.53,53.46"/><path style="stroke:#000000;stroke-width:0.088" d="M131.26,53.12L131.23,53.08"/><path style="stroke:#000000;stroke-width:0.088" d="M132.31,57.13L132.56,60.14"/><path style="stroke:#000000;stroke-width:0.088" d="M132.18,54.68L132.16,54.06L132.56,54.20L133.03,54.27L133.21,54.26L133.53,54.25L134.00,54.14L134.41,53.97L134.57,55.82L138.81,53.37L138.96,57.60L139.25,57.38L139.39,57.13L139.39,56.87L139.28,52.62L139.28,52.86L139.12,53.13L138.81,53.37L138.65,51.52L134.41,53.97"/><path style="stroke:#000000;stroke-width:0.088" d="M134.34,52.70L134.45,53.38L134.38,53.58L134.19,53.77L133.90,53.92L133.55,54.01L133.16,54.04L132.79,54.00L132.48,53.90L132.25,53.74L132.13,53.55L132.14,52.90L132.20,52.70L132.37,52.52L132.47,52.46L132.64,52.38L132.98,52.28L133.21,52.26L133.34,52.25L133.69,52.29L134.00,52.38L134.22,52.52L134.34,52.70L134.34,52.82L134.34,52.90L134.23,53.09L134.00,53.25L133.70,53.38L133.35,53.44L132.98,53.44L132.65,53.37L132.43,53.27L132.38,53.25L132.20,53.09L132.14,52.90"/><path style="stroke:#000000;stroke-width:0.088" d="M132.16,54.06L131.79,53.88"/><path style="stroke:#000000;stroke-width:0.088" d="M132.15,48.30L132.24,48.11L132.43,47.93L132.71,47.80L133.06,47.72L133.42,47.70L133.77,47.74L134.06,47.85L134.27,48.00L134.36,48.19L134.34,48.38L134.20,48.57L134.04,48.68L133.96,48.73L133.64,48.84L133.58,48.84L133.28,48.89L132.92,48.87L132.60,48.80L132.34,48.67L132.19,48.50L132.15,48.30L132.13,48.83L132.15,49.04L132.29,49.22L132.54,49.37L132.87,49.46L133.25,49.48L133.63,49.44L133.98,49.34L134.25,49.18L134.41,48.98L134.46,48.78L134.36,48.19L134.42,48.21L135.25,48.62"/><path style="stroke:#000000;stroke-width:0.088" d="M133.26,52.83L133.24,52.50L132.89,52.40L133.13,52.91"/><path style="stroke:#000000;stroke-width:0.088" d="M133.56,53.05L133.54,52.65L133.90,52.90L133.60,53.07L133.24,52.82L132.89,53.10L132.59,52.95L132.94,52.67L132.96,53.04"/><path style="stroke:#000000;stroke-width:0.088" d="M132.94,52.67L132.59,52.57L132.89,52.40"/><path style="stroke:#000000;stroke-width:0.088" d="M132.97,48.49L132.95,48.12L132.60,48.40L132.90,48.54L133.25,48.26L133.61,48.51L133.91,48.34L133.55,48.09L133.57,48.49"/><path style="stroke:#000000;stroke-width:0.088" d="M132.95,48.12L132.60,48.02L132.90,47.84L133.25,47.94L133.61,47.81L133.40,48.37"/><path style="stroke:#000000;stroke-width:0.088" d="M132.90,47.84L133.14,48.35"/><path style="stroke:#000000;stroke-width:0.088" d="M133.54,52.65L133.90,52.52L133.60,52.37L133.40,52.93"/><path style="stroke:#000000;stroke-width:0.088" d="M133.47,52.98L133.56,53.03"/><path style="stroke:#000000;stroke-width:0.088" d="M133.24,52.50L133.60,52.37"/><path style="stroke:#000000;stroke-width:0.088" d="M133.69,52.29L136.38,50.73"/><path style="stroke:#000000;stroke-width:0.088" d="M133.55,48.09L133.91,47.96L133.61,47.81"/><path style="stroke:#000000;stroke-width:0.088" d="M133.25,47.94L133.27,48.28"/><path style="stroke:#000000;stroke-width:0.088" d="M133.50,48.44L133.57,48.48"/><path style="stroke:#000000;stroke-width:0.088" d="M134.72,60.05L138.96,57.60"/><path style="stroke:#000000;stroke-width:0.088" d="M136.39,50.40L136.37,50.93L136.39,51.14L136.53,51.32L136.78,51.47L137.11,51.56L137.49,51.59L137.87,51.54L138.21,51.44L138.35,51.37L138.48,51.28L138.65,51.09L138.70,50.88L138.60,50.30L138.57,50.50L138.43,50.68L138.40,50.70L138.18,50.84L137.86,50.94L137.50,50.99L137.14,50.98L136.82,50.90L136.71,50.85L136.57,50.76L136.42,50.59L136.39,50.40L136.48,50.20L136.68,50.03L136.97,49.90L137.31,49.82L137.35,49.82L137.68,49.80L138.02,49.85L137.84,49.92L137.64,50.48"/><path style="stroke:#000000;stroke-width:0.088" d="M137.38,50.46L137.14,49.95L136.84,50.12L137.19,50.22L136.84,50.50L137.14,50.65L137.49,50.37L137.84,50.62L138.14,50.45L137.79,50.19L137.81,50.59"/><path style="stroke:#000000;stroke-width:0.088" d="M136.51,47.93L136.52,47.93L136.91,48.08L137.28,48.30L137.13,48.21"/><path style="stroke:#000000;stroke-width:0.088" d="M136.91,48.08L137.40,48.37"/><path style="stroke:#000000;stroke-width:0.088" d="M137.72,50.53L137.81,50.57"/><path style="stroke:#000000;stroke-width:0.088" d="M137.79,50.19L138.14,50.07L137.84,49.92L137.49,50.05L137.51,50.38"/><path style="stroke:#000000;stroke-width:0.088" d="M137.21,50.59L137.19,50.22"/><path style="stroke:#000000;stroke-width:0.088" d="M137.14,49.95L137.49,50.05"/><path style="stroke:#000000;stroke-width:0.088" d="M137.27,48.83L137.52,48.98L137.50,48.55L137.49,48.50"/><path style="stroke:#000000;stroke-width:0.088" d="M137.52,48.98L137.98,49.44L138.38,50.01"/><path style="stroke:#000000;stroke-width:0.088" d="M138.65,51.52L138.95,51.29L139.09,51.05L139.10,51.03L139.10,50.76L138.95,50.51L138.66,50.31L138.59,50.28"/><path style="stroke:#000000;stroke-width:0.088" d="M138.02,49.85L138.31,49.96L138.51,50.11L138.60,50.30"/><path style="stroke:#000000;stroke-width:0.088" d="M139.10,50.76L139.28,52.58L139.28,52.62"/><path style="stroke:#000000;stroke-width:0.088" d="M126.23,76.36L125.30,60.40"/><path style="stroke:#000000;stroke-width:0.088" d="M127.14,61.97L127.26,61.90L127.50,61.72L127.65,61.41L127.68,61.01L127.66,60.73L127.54,60.79L127.56,61.08L127.53,61.48L127.38,61.79L127.14,61.97L126.82,62.01L126.46,61.90L126.10,61.65L125.76,61.28L125.74,61.26L125.48,60.84L125.29,60.37L125.21,59.91L125.19,59.63L125.22,59.22L125.28,59.10"/><path style="stroke:#000000;stroke-width:0.088" d="M126.17,59.04L126.01,58.99L125.76,59.02L125.57,59.17L125.45,59.42L125.42,59.74L125.44,60.02L125.51,60.39L125.66,60.77L125.88,61.13L126.16,61.42L126.45,61.62L126.74,61.71L126.99,61.68L127.18,61.53L127.30,61.28L127.32,60.96L127.31,60.68L127.24,60.31L127.09,59.93L126.87,59.57L126.66,59.35"/><path style="stroke:#000000;stroke-width:0.088" d="M127.07,61.61L126.85,61.64L126.57,61.55L126.27,61.35L126.00,61.06L125.78,60.71L125.62,60.33L125.56,59.96L125.44,60.02"/><path style="stroke:#000000;stroke-width:0.088" d="M125.97,60.47L126.01,60.59L126.16,60.84L126.35,61.04L126.56,61.17L126.76,61.23L126.93,61.20L127.05,61.08L127.12,60.89L127.12,60.65L127.05,60.39L126.92,60.13L126.75,59.90L126.55,59.73L126.34,59.63L126.16,59.62L126.00,59.70L125.91,59.85L125.87,60.07L125.88,60.11L125.91,60.32L125.97,60.47"/><path style="stroke:#000000;stroke-width:0.088" d="M125.42,59.74L125.54,59.67L125.57,59.35L125.68,59.10L125.79,59.02"/><path style="stroke:#000000;stroke-width:0.088" d="M125.56,59.96L125.54,59.67"/><path style="stroke:#000000;stroke-width:0.088" d="M128.56,78.23L128.55,77.95L128.46,77.49L128.27,77.02L127.99,76.57L127.65,76.21L127.29,75.96L126.93,75.85L126.61,75.89L126.37,76.07L126.22,76.38L126.19,76.78L126.21,77.07L126.29,77.53L126.48,78.00L126.76,78.45L127.10,78.81L127.47,79.06L127.83,79.17L128.14,79.13L128.39,78.95L128.53,78.64L128.56,78.23L128.68,78.17L128.65,78.57L128.50,78.88L128.26,79.06L128.14,79.13"/><path style="stroke:#000000;stroke-width:0.088" d="M126.43,76.90L126.45,76.58L126.57,76.33L126.76,76.18L127.02,76.15L127.09,76.18L127.30,76.24L127.60,76.44L127.87,76.73L128.09,77.09L128.24,77.47L128.31,77.84L128.33,78.12L128.30,78.44L128.19,78.69L127.99,78.84L127.74,78.87L127.45,78.78L127.16,78.58L126.89,78.29L126.66,77.93L126.51,77.55L126.44,77.18L126.56,77.11L126.55,76.83L126.43,76.90L126.44,77.18"/><path style="stroke:#000000;stroke-width:0.088" d="M126.56,77.11L126.63,77.49L126.78,77.87L127.00,78.22L127.28,78.51L127.57,78.71L127.86,78.80L128.08,78.77"/><path style="stroke:#000000;stroke-width:0.088" d="M127.85,76.71L126.88,77.27L126.92,77.52L127.02,77.75L127.02,77.77L127.17,78.00L127.35,78.20L127.55,78.33L127.74,78.39L127.91,78.37L128.03,78.27L128.11,78.11L128.13,77.89L128.09,77.33L128.05,77.08L127.98,76.91"/><path style="stroke:#000000;stroke-width:0.088" d="M126.88,77.27L126.85,76.71L127.46,76.35"/><path style="stroke:#000000;stroke-width:0.088" d="M126.55,76.83L126.57,76.51L126.69,76.26L126.79,76.18"/><path style="stroke:#000000;stroke-width:0.088" d="M126.85,76.71L126.86,76.49L126.94,76.33L127.07,76.23L127.22,76.22"/><path style="stroke:#000000;stroke-width:0.088" d="M126.61,75.89L126.73,75.82L127.05,75.78L127.41,75.89L127.77,76.14L128.11,76.51L128.39,76.95L128.58,77.42L128.66,77.89L128.68,78.17"/><path style="stroke:#000000;stroke-width:0.088" d="M127.68,61.01L127.56,61.08"/><path style="stroke:#000000;stroke-width:0.088" d="M127.66,60.73L127.58,60.26L127.39,59.79L127.25,59.57"/><path style="stroke:#000000;stroke-width:0.088" d="M127.54,60.79L127.46,60.33L127.27,59.85L127.07,59.54"/><path style="stroke:#000000;stroke-width:0.088" d="M127.83,79.17L127.83,79.25L134.42,82.52L134.45,82.50"/><path style="stroke:#000000;stroke-width:0.088" d="M128.66,77.89L128.55,77.95"/><path style="stroke:#000000;stroke-width:0.088" d="M128.88,59.01L133.17,61.14L133.23,62.12L133.46,62.24L133.11,62.13L132.79,62.17L132.67,62.23L132.99,62.20L133.35,62.31L133.71,62.56L134.05,62.92L134.33,63.36L134.52,63.84L134.61,64.30L134.62,64.58L134.74,64.51L134.71,64.92L134.56,65.23L134.32,65.41L134.20,65.48L134.45,65.30L134.59,64.99L134.62,64.58"/><path style="stroke:#000000;stroke-width:0.088" d="M130.36,59.05L130.37,59.07L130.40,59.13L130.48,59.17L130.57,59.20L130.69,59.21"/><path style="stroke:#000000;stroke-width:0.088" d="M130.60,59.20L130.65,59.20"/><path style="stroke:#000000;stroke-width:0.088" d="M130.50,59.18L130.55,59.19"/><path style="stroke:#000000;stroke-width:0.088" d="M130.43,59.14L130.46,59.16"/><path style="stroke:#000000;stroke-width:0.088" d="M130.38,59.09L130.39,59.10L130.41,59.12"/><path style="stroke:#000000;stroke-width:0.088" d="M130.37,59.08L130.37,59.05L130.37,59.06"/><path style="stroke:#000000;stroke-width:0.088" d="M134.20,65.48L133.89,65.51L133.53,65.40L133.16,65.15L132.82,64.79L132.54,64.35L132.35,63.88L132.27,63.41L132.25,63.13L132.28,62.72L132.43,62.42L132.67,62.23"/><path style="stroke:#000000;stroke-width:0.088" d="M132.95,64.63L132.72,64.28L132.57,63.90L132.50,63.53L132.49,63.25L132.51,62.92L132.63,62.68L132.82,62.53L133.08,62.50L133.36,62.59L133.66,62.79L133.93,63.08L134.15,63.43L134.30,63.81L134.37,64.18L134.39,64.46L134.36,64.79L134.25,65.04L134.05,65.18L134.04,65.18L133.80,65.21L133.51,65.12L133.22,64.92L132.95,64.63"/><path style="stroke:#000000;stroke-width:0.088" d="M133.21,64.57L133.10,64.40L133.00,64.15L132.96,63.90L132.92,63.34L132.94,63.12L133.02,62.96L133.15,62.86L133.31,62.84L133.50,62.90L133.70,63.03L133.88,63.23L134.03,63.46L134.13,63.71L134.17,63.96L134.20,64.52L134.19,64.73L134.11,64.90L133.98,64.99L133.81,65.01L133.62,64.96L133.43,64.82L133.25,64.63L133.21,64.57"/><path style="stroke:#000000;stroke-width:0.088" d="M134.14,65.12L133.92,65.14L133.63,65.05L133.34,64.85L133.06,64.56L132.84,64.21L132.69,63.83L132.62,63.46L132.50,63.53"/><path style="stroke:#000000;stroke-width:0.088" d="M132.96,63.90L133.94,63.33"/><path style="stroke:#000000;stroke-width:0.088" d="M132.49,63.25L132.61,63.18L132.63,62.85L132.75,62.61L132.85,62.53"/><path style="stroke:#000000;stroke-width:0.088" d="M132.92,63.34L133.58,62.96"/><path style="stroke:#000000;stroke-width:0.088" d="M132.62,63.46L132.61,63.18"/><path style="stroke:#000000;stroke-width:0.088" d="M133.17,61.14L140.25,57.05L139.39,56.62"/><path style="stroke:#000000;stroke-width:0.088" d="M135.63,81.74L135.61,81.46L135.53,81.00L135.34,80.52L135.06,80.08L134.72,79.72L134.35,79.47L133.99,79.36L133.67,79.39L133.43,79.58L133.29,79.88L133.26,80.29L133.27,80.57L133.35,81.04L133.55,81.51L133.82,81.95L134.16,82.31L134.38,82.46L134.53,82.56L134.89,82.67L135.21,82.64L135.45,82.46L135.56,82.22L135.59,82.15L135.63,81.74L142.82,77.58L142.81,77.36"/><path style="stroke:#000000;stroke-width:0.088" d="M133.88,81.68L133.95,81.79L134.22,82.08L134.52,82.28L134.80,82.37L135.06,82.34L135.25,82.20L135.37,81.95L135.39,81.62L135.37,81.34L135.31,80.97L135.16,80.59L134.93,80.24L134.66,79.95L134.37,79.75L134.08,79.66L133.83,79.69L133.63,79.84L133.52,80.08L133.49,80.41L133.51,80.69L133.57,81.06L133.73,81.44L133.88,81.68"/><path style="stroke:#000000;stroke-width:0.088" d="M135.14,82.28L134.92,82.30L134.63,82.21L134.34,82.01L134.07,81.72L133.84,81.37L133.69,80.99L133.63,80.62L133.51,80.69"/><path style="stroke:#000000;stroke-width:0.088" d="M133.49,80.41L133.61,80.34L133.63,80.62"/><path style="stroke:#000000;stroke-width:0.088" d="M133.96,80.71L133.93,80.45L133.96,80.24L134.05,80.08L134.20,80.01L134.39,80.02L134.60,80.11L134.80,80.29L134.97,80.51L135.10,80.77L135.17,81.04L135.17,81.12L135.17,81.28L135.10,81.46L134.98,81.58L134.81,81.61L134.61,81.56L134.40,81.42L134.21,81.22L134.06,80.97L133.96,80.71"/><path style="stroke:#000000;stroke-width:0.088" d="M133.61,80.34L133.63,80.01L133.75,79.77L133.86,79.69"/><path style="stroke:#000000;stroke-width:0.088" d="M135.61,81.46L135.73,81.39L135.64,80.93L135.45,80.45L135.18,80.01L134.84,79.65L134.47,79.40L134.11,79.29L133.79,79.33L133.67,79.39"/><path style="stroke:#000000;stroke-width:0.088" d="M133.23,62.12L140.31,58.04L140.25,57.05"/><path style="stroke:#000000;stroke-width:0.088" d="M133.46,62.24L140.54,58.15L140.31,58.04"/><path style="stroke:#000000;stroke-width:0.088" d="M134.42,82.49L134.42,82.52"/><path style="stroke:#000000;stroke-width:0.088" d="M134.61,64.30L141.80,60.14L141.82,60.43L134.74,64.51L134.80,64.54L135.70,80.01L142.72,75.90L142.78,75.93L135.70,80.01L135.79,81.42L135.73,81.39"/><path style="stroke:#000000;stroke-width:0.088" d="M135.21,82.64L142.40,78.48L142.65,78.30L142.79,77.99L142.82,77.58"/><path style="stroke:#000000;stroke-width:0.088" d="M134.80,64.54L141.88,60.45L141.96,61.86L134.88,65.95"/><path style="stroke:#000000;stroke-width:0.088" d="M135.79,81.42L142.86,77.33L142.78,75.93"/><path style="stroke:#000000;stroke-width:0.088" d="M136.60,58.97L136.68,58.96L136.79,58.93L136.83,58.90L136.87,58.88L136.92,58.83L136.93,58.77"/><path style="stroke:#000000;stroke-width:0.088" d="M136.69,58.91L136.78,58.93"/><path style="stroke:#000000;stroke-width:0.088" d="M140.17,56.60L140.15,56.57L140.13,56.56L139.38,56.18"/><path style="stroke:#000000;stroke-width:0.088" d="M139.78,56.82L140.07,56.65L139.38,56.31"/><path style="stroke:#000000;stroke-width:0.088" d="M139.36,55.67L140.60,56.28L140.13,56.56"/><path style="stroke:#000000;stroke-width:0.088" d="M139.85,55.91L139.76,55.79L139.52,55.58L139.36,55.50"/><path style="stroke:#000000;stroke-width:0.088" d="M140.07,56.65L140.55,56.38L140.69,56.48L140.83,56.63L140.94,56.80L141.02,56.99L141.05,57.18L141.13,58.58L141.10,58.60"/><path style="stroke:#000000;stroke-width:0.088" d="M141.80,60.14L141.72,59.68L141.53,59.21L141.25,58.76L140.91,58.40L140.54,58.15"/><path style="stroke:#000000;stroke-width:0.088" d="M140.28,57.62L141.05,57.18"/><path style="stroke:#000000;stroke-width:0.088" d="M140.60,56.28L140.64,56.31L140.66,56.36L140.67,56.47"/><path style="stroke:#000000;stroke-width:0.088" d="M140.60,56.42L140.67,56.38"/><path style="stroke:#000000;stroke-width:0.088" d="M141.74,59.79L141.83,59.93L142.16,60.27L142.51,60.51L142.80,60.65L143.10,60.85L143.37,61.14L143.59,61.49L143.74,61.87L143.81,62.25L144.47,73.50L144.44,73.82L144.33,74.07L144.13,74.22L143.66,74.49L143.86,74.34L143.97,74.10L144.00,73.77L143.34,62.52L143.27,62.15L143.12,61.77L142.90,61.41L142.63,61.12L142.33,60.93L142.04,60.78L141.89,60.68"/><path style="stroke:#000000;stroke-width:0.088" d="M141.82,60.43L141.88,60.45"/><path style="stroke:#000000;stroke-width:0.088" d="M141.13,58.48L141.21,58.53L141.24,58.57L141.25,58.59L141.31,58.87"/><path style="stroke:#000000;stroke-width:0.088" d="M141.16,58.67L141.26,58.61"/><path style="stroke:#000000;stroke-width:0.088" d="M141.13,58.55L141.19,58.52"/><path style="stroke:#000000;stroke-width:0.088" d="M142.60,73.82L142.66,74.88L142.67,74.84L142.70,74.52L142.04,63.27L141.97,62.90L141.96,62.85L142.60,73.82"/><path style="stroke:#000000;stroke-width:0.088" d="M141.96,62.85L141.90,61.89"/><path style="stroke:#000000;stroke-width:0.088" d="M142.04,63.27L143.22,62.59L143.15,62.22L143.00,61.84L142.78,61.48L142.51,61.19L142.21,60.99L141.92,61.16"/><path style="stroke:#000000;stroke-width:0.088" d="M141.90,60.83L142.21,60.99"/><path style="stroke:#000000;stroke-width:0.088" d="M142.04,60.78L142.51,60.51"/><path style="stroke:#000000;stroke-width:0.088" d="M141.92,60.85L141.90,60.86"/><path style="stroke:#000000;stroke-width:0.088" d="M142.33,60.93L142.80,60.65"/><path style="stroke:#000000;stroke-width:0.088" d="M142.72,75.90L142.66,74.88"/><path style="stroke:#000000;stroke-width:0.088" d="M142.67,75.06L143.54,74.56L143.74,74.41L143.85,74.16L143.88,73.84L142.70,74.52"/><path style="stroke:#000000;stroke-width:0.088" d="M143.88,73.84L143.22,62.59"/><path style="stroke:#000000;stroke-width:0.088" d="M143.34,62.52L143.81,62.25"/><path style="stroke:#000000;stroke-width:0.088" d="M143.66,74.49L143.63,74.49"/><path style="stroke:#000000;stroke-width:0.088" d="M144.00,73.77L144.47,73.50"/><path style="stroke:#000000;stroke-width:0.088" d="M72.33,60.33L72.17,59.96L72.07,59.52L71.89,58.16L71.78,57.69L71.56,57.22L71.26,56.80L70.91,56.46L70.54,56.25L70.42,56.20L70.08,56.13L69.78,56.20L69.57,56.40L69.47,56.66"/><path style="stroke:#000000;stroke-width:0.088" d="M69.78,56.20L70.25,55.93L70.55,55.86L70.89,55.93L70.42,56.20"/><path style="stroke:#000000;stroke-width:0.088" d="M70.54,56.25L71.02,55.98L70.89,55.93"/><path style="stroke:#000000;stroke-width:0.088" d="M71.89,58.16L72.37,57.89L72.25,57.42L72.03,56.95L71.74,56.53L71.39,56.19L71.02,55.98"/><path style="stroke:#000000;stroke-width:0.088" d="M72.07,59.52L72.54,59.25L72.64,59.69L72.83,60.13L73.10,60.53L73.39,60.90"/><path style="stroke:#000000;stroke-width:0.088" d="M72.54,59.25L72.37,57.89"/><path style="stroke:#000000;stroke-width:0.088" d="M73.10,60.53L72.91,60.64"/><path style="stroke:#000000;stroke-width:0.088" d="M84.94,73.25L84.99,73.28L85.28,73.47L85.56,73.76L85.78,74.11L85.81,74.18L85.93,74.49L85.99,74.86L85.99,74.91L85.93,74.52L85.77,74.12L85.54,73.75L85.25,73.45L84.94,73.25L84.64,73.18L84.38,73.24L80.63,75.40"/><path style="stroke:#000000;stroke-width:0.088" d="M85.80,75.48L83.49,76.82"/><path style="stroke:#000000;stroke-width:0.088" d="M85.99,74.91L85.94,75.24L85.80,75.48"/><path style="stroke:#000000;stroke-width:0.088" d="M59.23,65.00L57.89,65.87L57.25,67.13"/><path style="stroke:#000000;stroke-width:0.088" d="M69.10,69.68L67.52,67.75L64.84,65.66L62.82,64.85"/><path style="stroke:#000000;stroke-width:0.088" d="M62.76,64.37L65.32,65.38L67.99,67.48L70.28,70.26"/><path style="stroke:#000000;stroke-width:0.088" d="M64.20,64.42L64.24,64.40L63.66,64.73"/><path style="stroke:#000000;stroke-width:0.088" d="M64.24,64.40L68.41,62.04L67.09,62.72L67.15,62.66"/><path style="stroke:#000000;stroke-width:0.088" d="M64.99,63.08L64.77,64.08"/><path style="stroke:#000000;stroke-width:0.088" d="M64.25,64.39L67.09,62.72"/><path style="stroke:#000000;stroke-width:0.088" d="M79.76,74.97L79.74,73.10L78.96,70.11L77.51,67.17L75.55,64.59L73.28,62.65L70.96,61.56L68.84,61.44L67.14,62.30L66.77,62.91"/><path style="stroke:#000000;stroke-width:0.088" d="M68.41,62.05L68.73,61.88L70.78,61.99L73.03,63.04L75.22,64.92L77.12,67.41L78.52,70.26L79.28,73.15L79.29,74.74"/><path style="stroke:#000000;stroke-width:0.088" d="M80.93,75.23L80.98,74.16L80.23,70.71L80.00,70.05L78.67,67.24L76.48,64.12L73.88,61.69L71.16,60.22L70.17,60.08"/><path style="stroke:#000000;stroke-width:0.088" d="M81.40,74.96L81.45,73.89L80.70,70.44L80.47,69.78L79.14,66.96L76.95,63.85L74.35,61.42L71.63,59.95L70.64,59.81"/><path style="stroke:#000000;stroke-width:0.088" d="M61.06,61.52L69.88,56.42L70.20,56.35L70.57,56.45L70.96,56.69L71.27,57.02L71.32,57.07L71.61,57.53L71.80,58.03L71.88,58.52L71.83,58.93L71.65,59.23L62.76,64.37"/><path style="stroke:#000000;stroke-width:0.088" d="M62.71,63.96L62.72,63.74L62.63,63.26L62.50,62.91L62.42,62.76L62.36,62.67"/><path style="stroke:#000000;stroke-width:0.088" d="M71.88,58.52L71.88,58.46L71.81,58.00L71.62,57.52L71.50,57.33L71.34,57.07L70.99,56.71L70.62,56.48L70.57,56.45"/><path style="stroke:#000000;stroke-width:0.088" d="M106.37,80.70L101.91,83.27L101.62,83.42L101.38,83.58L100.49,84.09"/><path style="stroke:#000000;stroke-width:0.088" d="M105.91,80.77L100.31,84.01"/><path style="stroke:#000000;stroke-width:0.088" d="M101.91,83.27L102.19,83.22L102.52,83.22L102.83,83.27L103.07,83.38L103.24,83.52L103.30,83.69L103.26,83.87L103.22,83.92L103.10,84.04L102.87,84.17L102.70,84.23L101.80,84.74"/><path style="stroke:#000000;stroke-width:0.088" d="M101.38,83.58L101.31,83.72L101.32,83.90L101.44,84.06L101.65,84.18L101.93,84.26L102.25,84.29L102.58,84.26L102.70,84.23"/><path style="stroke:#000000;stroke-width:0.088" d="M103.03,84.08L103.12,83.98L103.16,83.83L103.11,83.68L102.97,83.56L102.75,83.47L102.50,83.42L102.22,83.43L101.95,83.48L101.72,83.58L101.55,83.70L101.47,83.85L101.48,84.00L101.58,84.14L101.66,84.19"/><path style="stroke:#000000;stroke-width:0.088" d="M101.47,83.96L101.48,84.00L101.47,83.95"/><path style="stroke:#000000;stroke-width:0.088" d="M102.02,83.47L101.95,83.48"/><path style="stroke:#000000;stroke-width:0.088" d="M103.22,83.92L107.68,81.35"/><path style="stroke:#000000;stroke-width:0.088" d="M108.87,83.23L104.19,85.93"/><path style="stroke:#000000;stroke-width:0.088" d="M108.96,84.80L105.70,86.68"/><path style="stroke:#000000;stroke-width:0.088" d="M108.38,85.50L106.04,86.85"/><path style="stroke:#000000;stroke-width:0.088" d="M56.19,68.08L56.08,68.11L54.47,68.72L53.24,69.95L52.46,71.73L52.43,71.84L52.15,74.04L52.32,76.25L52.98,78.88L54.11,81.52L54.22,81.49L52.89,78.12L52.35,74.85L52.68,72.01L53.82,69.95L55.68,68.86L55.77,68.83L58.11,68.89L59.81,69.52L59.83,69.31L59.89,69.11L60.00,68.92L60.13,68.77L60.25,68.68L103.70,90.25L103.58,90.34L103.43,90.52L103.33,90.71L103.27,90.93L103.26,91.08L59.81,69.52"/><path style="stroke:#000000;stroke-width:0.088" d="M55.69,68.03L58.85,66.21L61.45,66.15L63.41,66.85L60.25,68.68L58.29,67.98L55.69,68.03L54.55,68.60L53.71,69.36L53.51,69.68"/><path style="stroke:#000000;stroke-width:0.088" d="M54.22,81.49L70.86,113.98L70.74,114.01L55.84,84.91"/><path style="stroke:#000000;stroke-width:0.088" d="M55.92,85.06L56.19,85.60L54.11,81.52"/><path style="stroke:#000000;stroke-width:0.088" d="M63.41,66.85L92.74,81.41L93.82,80.78L94.04,80.89L107.95,87.80L108.58,88.20L109.33,88.98L109.95,89.95L110.34,90.99L110.47,91.78L112.61,128.35L112.14,128.62L112.07,129.43L111.78,130.05L111.30,130.42L110.67,130.49L109.95,130.27L96.56,123.62"/><path style="stroke:#000000;stroke-width:0.088" d="M72.68,116.01L72.55,115.94L72.47,115.82L72.44,115.66L71.90,115.31L71.33,114.71L70.86,113.98"/><path style="stroke:#000000;stroke-width:0.088" d="M70.74,114.01L71.06,114.56L71.55,115.17L72.09,115.66L72.55,115.94"/><path style="stroke:#000000;stroke-width:0.088" d="M72.66,116.01L91.64,125.43L91.54,125.37L91.48,125.28L91.46,125.25L91.42,125.08L72.44,115.66"/><path style="stroke:#000000;stroke-width:0.088" d="M76.79,85.74L76.55,85.33L76.30,84.58L76.22,83.87L76.33,83.27L76.63,82.86L77.07,82.68L77.61,82.74L78.19,83.05L78.75,83.56L79.23,84.22L79.57,84.96L79.74,85.70L79.75,85.83L79.72,86.36L79.51,86.87L79.14,87.17L78.64,87.23L78.07,87.05L77.50,86.64L76.97,86.04L76.79,85.74"/><path style="stroke:#000000;stroke-width:0.088" d="M91.64,125.43L92.15,125.61L92.27,125.63L92.78,125.65L92.89,125.64L93.25,125.52L93.33,125.50L93.81,125.10L94.08,124.41L94.12,123.73L97.89,121.55L97.16,109.05L94.62,107.78L94.63,107.78"/><path style="stroke:#000000;stroke-width:0.088" d="M91.42,125.08L91.95,125.25L92.46,125.18L92.90,124.84L93.12,124.37L93.17,123.77L92.31,109.00L92.37,108.23L92.65,107.64L93.11,107.30L93.71,107.23L94.39,107.44L106.40,113.40L105.28,94.27L105.42,94.32L105.64,94.35L105.86,94.34L106.08,94.29L106.22,94.23L107.37,113.92L107.25,113.96L107.11,113.96L106.91,113.89L97.16,109.05"/><path style="stroke:#000000;stroke-width:0.088" d="M92.31,109.00L92.48,109.06L92.68,109.09L92.89,109.08L93.09,109.03L93.25,108.96L94.12,123.73L93.95,123.80L93.75,123.85L93.54,123.85L93.34,123.83L93.17,123.77"/><path style="stroke:#000000;stroke-width:0.088" d="M93.33,125.50L97.03,123.36L97.56,122.96L97.85,122.25L97.89,121.55"/><path style="stroke:#000000;stroke-width:0.088" d="M94.98,107.96L93.25,108.96L93.30,108.35L93.52,107.89L93.82,107.66"/><path style="stroke:#000000;stroke-width:0.088" d="M93.84,107.71L93.51,107.91L93.94,107.65L94.11,107.63"/><path style="stroke:#000000;stroke-width:0.088" d="M93.94,107.65L93.72,107.67"/><path style="stroke:#000000;stroke-width:0.088" d="M94.05,107.61L94.62,107.78L94.50,107.71L94.42,107.59L94.39,107.44"/><path style="stroke:#000000;stroke-width:0.088" d="M105.28,94.27L105.14,93.49L104.80,92.69L104.32,91.97L103.74,91.39L103.26,91.08"/><path style="stroke:#000000;stroke-width:0.088" d="M107.95,87.80L103.70,90.25L104.31,90.64L105.08,91.42L105.69,92.39L106.10,93.45L106.22,94.23L110.47,91.78"/><path style="stroke:#000000;stroke-width:0.088" d="M106.40,113.40L106.67,113.72L106.91,113.89"/><path style="stroke:#000000;stroke-width:0.088" d="M107.37,113.92L111.15,111.74L112.14,128.62"/><path style="stroke:#000000;stroke-width:0.088" d="M111.30,130.42L111.77,130.14L112.25,129.78L112.54,129.16L112.61,128.35"/><path style="stroke:#000000;stroke-width:0.088" d="M72.81,57.96L72.90,57.72L72.91,57.41L72.83,57.06L72.67,56.72L72.44,56.41L72.18,56.17L71.91,56.04L71.66,56.01L71.68,56.00L71.71,56.00L71.95,56.03L72.22,56.16L72.23,56.17L72.49,56.40L72.70,56.70L72.86,57.03L72.94,57.36L72.93,57.68L72.84,57.92L72.83,57.94L72.80,57.96L72.64,58.10L72.41,58.23"/><path style="stroke:#000000;stroke-width:0.088" d="M71.66,56.01L71.45,56.10"/><path style="stroke:#000000;stroke-width:0.088" d="M71.45,56.10L71.34,56.16"/><path style="stroke:#000000;stroke-width:0.088" d="M59.41,64.04L59.00,66.20"/><path style="stroke:#000000;stroke-width:0.088" d="M60.06,61.81L60.36,61.74L60.70,61.81L61.17,61.54L60.83,61.47L60.53,61.54L60.06,61.81L59.85,62.02L59.72,62.34L59.61,62.95"/><path style="stroke:#000000;stroke-width:0.088" d="M60.70,61.81L60.82,61.86L61.19,62.08L61.55,62.41L61.84,62.83L62.06,63.30L62.17,63.78L62.35,65.14L62.45,65.57L62.64,66.01L62.91,66.42L63.19,66.78"/><path style="stroke:#000000;stroke-width:0.088" d="M60.82,61.86L61.30,61.59L61.17,61.54"/><path style="stroke:#000000;stroke-width:0.088" d="M62.17,63.78L62.65,63.50L62.53,63.03L62.32,62.56L62.02,62.14L61.67,61.80L61.30,61.59"/><path style="stroke:#000000;stroke-width:0.088" d="M62.35,65.14L62.82,64.87L62.65,63.50"/><path style="stroke:#000000;stroke-width:0.088" d="M62.91,66.42L63.38,66.14L64.28,67.28"/><path style="stroke:#000000;stroke-width:0.088" d="M63.38,66.14L63.11,65.74L62.92,65.30L62.82,64.87"/><path style="stroke:#000000;stroke-width:0.088" d="M118.22,97.49L111.05,101.63"/><path style="stroke:#000000;stroke-width:0.088" d="M118.80,96.78L111.02,101.28"/><path style="stroke:#000000;stroke-width:0.088" d="M118.71,95.22L110.93,99.71"/><path style="stroke:#000000;stroke-width:0.088" d="M110.79,97.23L112.54,96.22L112.71,96.16L112.94,96.03L113.07,95.91L113.10,95.86L113.15,95.68L113.14,95.66L113.08,95.51L112.92,95.37L112.67,95.26L112.37,95.21L112.04,95.21L111.76,95.26L116.21,92.69"/><path style="stroke:#000000;stroke-width:0.088" d="M111.76,95.26L111.47,95.41L111.23,95.57L110.71,95.87"/><path style="stroke:#000000;stroke-width:0.088" d="M112.54,96.22L112.42,96.24L112.10,96.28L111.77,96.25L111.49,96.17L111.28,96.04L111.17,95.88L111.16,95.71L111.23,95.57"/><path style="stroke:#000000;stroke-width:0.088" d="M115.76,92.76L110.70,95.68"/><path style="stroke:#000000;stroke-width:0.088" d="M112.87,96.07L112.97,95.97L113.01,95.82L112.95,95.67L112.81,95.55L112.60,95.46L112.34,95.41L112.06,95.42L111.79,95.47L111.56,95.56L111.40,95.69L111.31,95.84L111.32,95.99L111.42,96.13L111.50,96.17"/><path style="stroke:#000000;stroke-width:0.088" d="M111.32,95.95L111.32,95.99L111.32,95.94"/><path style="stroke:#000000;stroke-width:0.088" d="M113.07,95.91L117.52,93.34"/><path style="stroke:#000000;stroke-width:0.088" d="M74.42,61.49L74.44,61.50L76.64,63.21L77.11,62.94L74.91,61.22L73.05,60.46"/><path style="stroke:#000000;stroke-width:0.088" d="M88.90,79.51L89.29,78.42L89.42,77.66L89.32,76.75L88.99,75.80L88.48,74.89L87.83,74.12L76.64,63.21"/><path style="stroke:#000000;stroke-width:0.088" d="M77.11,62.94L88.30,73.84L87.83,74.12"/><path style="stroke:#000000;stroke-width:0.088" d="M88.30,73.84L88.95,74.62L89.46,75.53L89.79,76.48L89.89,77.39L89.76,78.15L89.22,79.66"/><path style="stroke:#000000;stroke-width:0.088" d="M89.29,78.42L89.76,78.15"/><path style="stroke:#000000;stroke-width:0.088" d="M59.33,63.61L59.38,63.92L59.51,64.24L59.70,64.53L59.93,64.77L60.18,64.93L60.42,64.98L60.62,64.93L60.76,64.78L60.83,64.55L60.83,64.32L60.82,64.25L60.73,63.93L60.57,63.62L60.36,63.35L60.12,63.15L59.87,63.05L59.65,63.04L59.64,63.04L59.47,63.14L59.36,63.34L59.33,63.61L59.33,63.61"/><path style="stroke:#000000;stroke-width:0.088" d="M59.49,64.24L59.36,63.90L59.30,63.58L59.30,63.56L59.33,63.27L59.34,63.25L59.46,63.04L59.48,63.02L59.67,62.91L59.68,62.91L59.92,62.92L60.19,63.03L60.46,63.25L60.69,63.55L60.86,63.88L60.86,63.89L60.96,64.24L60.97,64.56L60.90,64.81L60.74,64.98L60.71,64.99L60.49,65.04L60.47,65.04L60.21,64.98L60.20,64.97L59.93,64.80L59.69,64.55L59.49,64.24"/><path style="stroke:#000000;stroke-width:0.088" d="M60.02,64.44L60.13,64.50L60.23,64.53L60.32,64.53L60.40,64.49L60.46,64.41L60.49,64.31L60.49,64.19L60.47,64.06L60.41,63.92L60.34,63.79L60.25,63.67L60.15,63.58L60.04,63.51L59.94,63.48L59.84,63.49L59.77,63.53L59.71,63.60L59.76,63.71L59.79,63.81L59.78,63.94L59.75,64.09L59.83,64.22L59.92,64.34L60.02,64.44"/><path style="stroke:#000000;stroke-width:0.088" d="M60.48,64.30L60.13,64.50L60.26,64.45L60.35,64.43L60.41,64.41L60.46,64.41L60.49,64.26L60.49,64.19"/><path style="stroke:#000000;stroke-width:0.088" d="M60.13,64.50L60.07,64.37L59.99,64.27L59.89,64.18L59.75,64.09L59.70,63.96L59.68,63.82L59.68,63.70L59.71,63.60L59.84,63.55L59.93,63.52L60.00,63.51L60.04,63.51"/><path style="stroke:#000000;stroke-width:0.088" d="M59.75,64.09L60.23,63.82L60.21,63.63"/><path style="stroke:#000000;stroke-width:0.088" d="M60.23,63.82L60.47,64.09"/><path style="stroke:#000000;stroke-width:0.088" d="M59.67,62.91L60.54,62.41L60.55,62.41L60.79,62.41L61.06,62.53L61.33,62.74L61.56,63.04L61.74,63.38L61.84,63.73L61.85,64.05L61.77,64.31L61.61,64.47L60.74,64.98"/><path style="stroke:#000000;stroke-width:0.088" d="M89.85,77.03L89.72,74.82L89.82,73.61L89.87,73.43L89.85,73.07L72.86,59.45L74.40,58.57L74.72,58.63L76.68,59.33L100.46,71.13L98.93,72.02L104.34,74.71L103.26,75.33L103.65,82.08"/><path style="stroke:#000000;stroke-width:0.088" d="M72.86,59.45L72.59,59.47"/><path style="stroke:#000000;stroke-width:0.088" d="M72.45,58.53L73.94,57.69L74.07,57.66L76.55,57.73L78.31,58.39L76.68,59.33"/><path style="stroke:#000000;stroke-width:0.088" d="M73.75,57.80L72.84,58.18L72.44,58.48"/><path style="stroke:#000000;stroke-width:0.088" d="M74.40,58.57L91.38,72.18L89.85,73.07"/><path style="stroke:#000000;stroke-width:0.088" d="M73.94,57.69L74.46,57.56L74.59,57.56L76.48,57.61L77.14,57.83"/><path style="stroke:#000000;stroke-width:0.088" d="M124.13,83.01L124.26,83.79L124.15,83.88L124.02,83.09L123.63,82.05L123.39,81.68L123.02,81.08L122.26,80.30L121.63,79.89L78.31,58.39L78.47,58.33L77.38,57.90L76.35,57.62"/><path style="stroke:#000000;stroke-width:0.088" d="M78.47,58.33L78.61,58.34L77.73,58.04"/><path style="stroke:#000000;stroke-width:0.088" d="M78.61,58.34L121.91,79.84L121.76,79.84L121.63,79.89L117.39,82.35L103.26,75.33"/><path style="stroke:#000000;stroke-width:0.088" d="M90.32,80.21L90.18,79.87L89.93,78.48L89.88,77.47"/><path style="stroke:#000000;stroke-width:0.088" d="M89.93,78.48L92.86,76.79L92.65,73.13L89.72,74.82"/><path style="stroke:#000000;stroke-width:0.088" d="M89.87,73.43L91.40,72.54L91.38,72.18"/><path style="stroke:#000000;stroke-width:0.088" d="M98.15,82.93L98.43,82.32L98.53,81.10L98.32,77.44L98.07,76.05L97.50,74.63L96.66,73.31L95.64,72.22L94.54,71.47L93.46,71.14L92.51,71.25L91.78,71.79L91.40,72.54"/><path style="stroke:#000000;stroke-width:0.088" d="M94.86,81.30L94.51,80.93L93.68,79.61L93.11,78.18L92.86,76.79"/><path style="stroke:#000000;stroke-width:0.088" d="M92.65,73.13L92.74,71.92L93.09,71.18"/><path style="stroke:#000000;stroke-width:0.088" d="M98.92,83.31L99.28,82.65L99.45,80.88L98.93,72.02"/><path style="stroke:#000000;stroke-width:0.088" d="M105.78,80.85L105.83,80.82"/><path style="stroke:#000000;stroke-width:0.088" d="M106.33,80.71L106.30,80.70L106.13,80.74"/><path style="stroke:#000000;stroke-width:0.088" d="M106.39,80.72L106.90,80.83L107.01,80.89L107.52,81.21L107.63,81.33"/><path style="stroke:#000000;stroke-width:0.088" d="M107.97,81.68L108.10,81.81L108.13,81.86"/><path style="stroke:#000000;stroke-width:0.088" d="M108.71,85.25L108.69,85.28L108.58,85.34"/><path style="stroke:#000000;stroke-width:0.088" d="M108.92,84.86L108.95,84.80L109.03,84.12L108.90,83.34L108.86,83.25"/><path style="stroke:#000000;stroke-width:0.088" d="M108.59,82.58L108.53,82.46"/><path style="stroke:#000000;stroke-width:0.088" d="M112.16,120.73L119.85,124.54L120.57,124.77L121.21,124.69L121.69,124.33L121.98,123.71L122.04,122.90L119.91,86.33L124.15,83.88L125.30,103.57L121.53,105.75L122.52,122.63L122.04,122.90"/><path style="stroke:#000000;stroke-width:0.088" d="M116.01,92.72L115.88,92.72L115.84,92.75"/><path style="stroke:#000000;stroke-width:0.088" d="M116.28,92.72L116.44,92.72L117.05,92.98L117.45,93.30"/><path style="stroke:#000000;stroke-width:0.088" d="M117.39,82.35L118.01,82.75L118.77,83.53L119.38,84.50L119.78,85.54L119.91,86.33"/><path style="stroke:#000000;stroke-width:0.088" d="M118.28,97.45L118.34,97.43L118.45,97.31"/><path style="stroke:#000000;stroke-width:0.088" d="M118.29,94.31L118.20,94.15L118.09,94.01"/><path style="stroke:#000000;stroke-width:0.088" d="M117.61,93.44L117.66,93.48L117.82,93.68"/><path style="stroke:#000000;stroke-width:0.088" d="M118.80,96.69L118.87,96.46L118.84,95.73L118.72,95.31"/><path style="stroke:#000000;stroke-width:0.088" d="M118.73,96.93L118.69,97.05L118.63,97.11"/><path style="stroke:#000000;stroke-width:0.088" d="M118.64,95.05L118.61,94.93L118.52,94.76"/><path style="stroke:#000000;stroke-width:0.088" d="M122.52,122.63L122.45,123.44L122.16,124.06L121.68,124.42L121.21,124.69"/><path style="stroke:#000000;stroke-width:0.088" d="M121.91,79.84L122.60,80.28L123.29,80.99L123.86,81.87L124.22,82.83L124.34,83.55L124.34,83.67L124.26,83.79L125.48,103.26L125.49,103.16L124.64,88.74L124.67,89.26"/><path style="stroke:#000000;stroke-width:0.088" d="M124.64,88.74L124.41,84.82L124.41,84.84"/><path style="stroke:#000000;stroke-width:0.088" d="M124.55,87.17L124.59,87.96"/><path style="stroke:#000000;stroke-width:0.088" d="M124.34,83.67L124.41,84.85"/><path style="stroke:#000000;stroke-width:0.088" d="M124.36,84.03L124.34,83.55"/><path style="stroke:#000000;stroke-width:0.088" d="M125.30,103.57L125.40,103.48L125.46,103.36L125.48,103.26"/><path style="fill:#ffffff" d="M173.82,82.97L200.23,82.97L200.23,77.33L173.82,77.33z"/><path style="stroke:#000000;stroke-width:0.255" d="M173.82,82.97L200.23,82.97L200.23,77.33L173.82,77.33z"/><path style="stroke:#000000;stroke-width:0.250;stroke-opacity:0.00" d="M173.82,82.97L200.23,82.97L200.23,77.33L173.82,77.33z"/><text xml:space="preserve" fill="#000000" stroke-width="0" x="174.53" y="81.39" font-size="3.51" opacity="1.00" font-family="Arial" font-weight="bold" font-style="italic">W48201423X</text><path style="fill:#ffffff" d="M173.82,72.94L200.23,72.94L200.23,67.29L173.82,67.29z"/><path style="stroke:#000000;stroke-width:0.255" d="M173.82,72.94L200.23,72.94L200.23,67.29L173.82,67.29z"/><path style="stroke:#000000;stroke-width:0.250;stroke-opacity:0.00" d="M173.82,72.94L200.23,72.94L200.23,67.29L173.82,67.29z"/><text xml:space="preserve" fill="#000000" stroke-width="0" x="174.53" y="71.35" font-size="3.56" opacity="1.00" font-family="Arial" font-weight="bold" font-style="italic">F24201490X</text><g id="paperID" visibility="hidden" opacity="0.00" transform="scale(0.000100)"><path style="stroke:#000000;stroke-width:0.500;fill:#e6e6e6;fill-rule:evenodd" d="M-2000.00,-2000.00L2210.00,-2000.00L2210.00,2150.00L-2000.00,2150.00zM0.00,0.00L210.00,0.00L210.00,150.00L0.00,150.00z"/><path style="fill:#000000;fill-opacity:0.118" d="M3.00,150.00L210.00,150.00L210.00,3.00L213.00,3.00L213.00,153.00L3.00,153.00z"/></g><g id="hotspot.0" onmouseover="ShowHotSpot(evt,'0')" onmouseout="HideHotSpot(evt,'0')" onmousemove="ShowToolTip(evt,'0',&quot;ML2246.2&quot;)" opacity="0"><path style="fill:#00ff00;fill-rule:evenodd" d="M71.29,56.10L72.02,56.06L72.39,56.26L72.94,57.17L72.94,57.79L72.68,58.10L73.04,58.11L74.51,57.53L76.95,57.72L80.41,59.19L122.41,80.15L123.13,80.89L124.03,82.18L124.39,83.64L125.50,103.42L121.59,105.72L122.38,119.59L122.39,123.67L122.21,124.04L121.05,124.71L120.37,124.71L112.52,120.83L112.29,120.85L112.54,129.33L112.28,129.80L111.39,130.36L110.33,130.36L96.84,123.77L96.23,123.77L95.21,124.41L92.94,125.63L92.46,125.63L91.36,125.24L72.21,115.74L70.92,114.30L54.13,81.64L53.03,78.90L52.48,76.90L52.31,75.61L52.31,73.11L52.48,71.64L53.33,69.93L54.44,68.67L57.27,67.12L58.09,65.75L59.25,64.91L59.44,63.09L59.93,61.94L60.46,61.55L61.39,61.39L69.45,56.68L69.95,56.08L70.31,55.89L70.93,55.89zM200.48,67.40L200.50,72.76L200.30,73.11L173.82,73.08L173.60,72.93L173.64,67.43L173.79,67.22L200.13,67.20zM62.84,64.29L64.93,63.21L64.71,64.16L63.99,64.54L63.44,64.68zM94.47,71.41L95.00,71.78L96.31,72.85L97.41,74.49L98.12,76.15L98.48,79.44L98.49,82.25L98.22,82.73L97.75,82.75L94.65,81.08L93.55,79.26L93.18,78.36L93.00,77.43L92.82,75.43L92.81,71.83L93.13,71.23z"/></g><g id="hotspot.1" onmouseover="ShowHotSpot(evt,'1')" onmouseout="HideHotSpot(evt,'1')" onmousemove="ShowToolTip(evt,'1',&quot;Asta_d6&quot;)" opacity="0"><path style="fill:#00ff00;fill-rule:evenodd" d="M126.21,50.25L127.15,50.40L127.50,51.05L128.40,50.29L130.25,49.41L132.17,48.22L132.54,47.87L133.51,47.68L134.06,47.87L134.78,48.43L135.65,48.43L136.38,48.03L136.80,48.03L137.38,48.39L137.72,49.14L139.18,50.96L139.54,55.53L140.62,56.28L141.00,56.81L141.17,58.47L141.92,60.09L143.03,60.81L143.74,61.73L144.47,73.86L144.21,74.14L142.82,74.94L142.83,78.05L142.57,78.34L135.45,82.53L134.60,82.55L127.31,78.90L126.96,78.70L126.38,77.81L125.30,60.28L125.13,59.17L124.21,58.09L124.01,57.73L124.01,57.05L124.23,56.69L124.23,56.26L124.03,55.90L123.05,55.78L122.37,54.46L121.41,51.50L122.68,50.60L124.04,50.48L123.84,49.52L116.16,29.08L116.18,28.41L117.02,27.97L117.82,27.98zM200.48,77.43L200.50,82.80L200.30,83.15L173.82,83.11L173.60,82.97L173.64,77.47L173.79,77.25L200.13,77.24z"/></g></g></svg>
