<?xml version="1.0" encoding="UTF-8" standalone="no"?>
<svg xmlns="http://www.w3.org/2000/svg" xmlns:xlink="http://www.w3.org/1999/xlink" width="210.000mm" height="150.000mm" viewBox="0.000000 0.000000 210.000000 150.000000" stroke-linejoin="round" stroke-linecap="round" fill="none" fill-rule="evenodd"><desc>Composer Export</desc><script type="text/ecmascript"><![CDATA[
if(typeof(top) != "undefined")
{
	top.ShowPaper = ShowPaper;
}
function ShowHotSpot(evt,hotspotid)
{
	var svgDocument = evt.target.ownerDocument;
	var strId = "hotspot."+hotspotid;
	var hotspot = svgDocument.getElementById(strId);
	if(hotspot)
		hotspot.setAttribute("opacity",".5");
}
function HideHotSpot(evt,hotspotid)
{
	var svgDocument = evt.target.ownerDocument;
	var strId = "hotspot."+hotspotid;
	var hotspot = svgDocument.getElementById(strId);
	if(hotspot)
		hotspot.setAttribute("opacity","0");

	var toolTip = svgDocument.getElementById('ToolTip');
	if(toolTip)
		toolTip.setAttribute("visibility","hidden");
}
function ShowToolTip(evt,hotspotid,strTooltip)
{
	if(strTooltip=="")
	return;

	// change text
	var svgDocument = evt.target.ownerDocument;
	var tiptext = svgDocument.getElementById('ToolTipText');
	if( !tiptext )
	return;
	tiptext.firstChild.nodeValue = " " + strTooltip + "  " ;

	// show tooltip before, else some refresh issue

	var toolTip = svgDocument.getElementById('ToolTip');
	if(!toolTip)
	return;

	toolTip.setAttribute("visibility","visible");
	toolTip.setAttribute("opacity",".95");

	// move tooltip
	// get viewbox

	var root = svgDocument.documentElement;
	var vbox = (root.getAttribute("viewBox")).split(' ');
	var x0 = parseFloat(vbox[0]);
	var y0 = parseFloat(vbox[1]);
	var vboxW = parseFloat(vbox[2]);
	var vboxH = parseFloat(vbox[3]);

	// get default width of svg

	var strW = root.getAttribute("width");
	var svgW = parseFloat(strW);
	if(strW.indexOf('mm') != -1)
	svgW *= 3.779;

	var strH = root.getAttribute("height");
	var svgH = parseFloat(strH);
	if(strH.indexOf('mm') != -1)
	svgH *= 3.779;  	// 96 dpi  -> 96/25.4 = 3.779

	// update the viewbox / width / height if svg is embedded in html with zoom fit all
	var realx0 = x0;
	var realy0 = y0;
	var realvboxW = vboxW;
	var realvboxH = vboxH;
	var realsvgW = svgW;
	var realsvgH = svgH;

	if ((typeof(top) == "undefined") || (typeof(top.svgctl1) != "undefined")) // embedded in html
	{
		// get window size in pxl

		svgW = window.innerWidth;
		svgH = window.innerHeight;

		// calculate real viewbox

		realsvgW = svgW;
		realsvgH = svgH;
		if((svgW / svgH) > (vboxW / vboxH))
		{
			realvboxW = (vboxH * svgW) / svgH;
			realvboxH = vboxH;
			realx0 = x0 - (realvboxW - vboxW)/2 ;
		}
		else
		{
			realvboxH = (vboxW * svgH) / svgW;
			realvboxW = vboxW;
			realy0 = y0 - (realvboxH - vboxH)/2 ;
		}
	}

	// get user zoom/pan

	var newScale = root.currentScale;
	var translation = root.currentTranslate;

	// transform pxl to user unit

	var xPos = (((evt.clientX+10- translation.x)/newScale) * realvboxW)/realsvgW  + realx0 ;
	var yPos = (((evt.clientY+5- translation.y)/newScale) * realvboxH)/ realsvgH  + realy0 ;
	var scaleForWidth = ( (1 / newScale) * realvboxH) / realsvgH;

	// move tooltip

	toolTip.setAttribute("transform", "translate(" + xPos + "," + yPos + ")" );

	// resize tooltip

	var fontsize = 12;
	tiptext.setAttribute("font-size",fontsize*scaleForWidth);
	tiptext.setAttribute("y", fontsize*scaleForWidth);
	var tipBG = svgDocument.getElementById('ToolTipBG');
	var outline = tiptext.getBBox();
	if(tipBG)
	{
		tipBG.setAttribute("stroke-width", 1*scaleForWidth);
		tipBG.setAttribute("width", Number(outline.width) );
		tipBG.setAttribute("height", Number(outline.height) + fontsize*.5*scaleForWidth );
	}
	var ToolTipShadow = svgDocument.getElementById('ToolTipShadow');
	if(ToolTipShadow)
	{
		ToolTipShadow.setAttribute("width", Number(outline.width) );
		ToolTipShadow.setAttribute("height", Number(outline.height) + fontsize*.5*scaleForWidth );
		ToolTipShadow.setAttribute("x", 3*scaleForWidth);
		ToolTipShadow.setAttribute("y", 3*scaleForWidth);
	}
}
function ShowPaper()
{
  var svgDocument = getDocument();
  var paper = svgDocument.getElementById("paperID");
  if(paper)
  {
    paper.setAttribute("transform","scale(1)");
    paper.setAttribute("opacity","1");
    paper.setAttribute("visibility","visible");
  }
  var svg = svgDocument.getRootElement();
  if(svg)
  {
    svg.setAttribute("width","220.000mm");
    svg.setAttribute("height","160.000mm");
    svg.setAttribute("viewBox","-5.000000 -5.000000 220.000000 160.000000");
  }
}
]]></script><defs/><g><path style="fill:#ffffff" d="M210.01,150.00L0.03,150.00L0.03,0.03L210.01,0.03z"/><path style="fill:#898989" d="M80.36,77.08L80.89,77.62L80.87,78.07L80.10,78.36L79.40,78.39L78.62,76.05L78.54,75.68L78.62,75.70z"/><path style="fill:#597ea0" d="M82.37,42.32L82.57,42.55L83.03,43.14L83.32,44.14L83.48,45.35L83.60,45.69L83.91,46.10L83.96,46.35L82.68,45.68L81.80,45.51L82.69,44.92L82.80,44.69L82.80,44.06L82.35,43.12L81.64,42.55L81.13,42.55L80.75,42.72L80.95,42.37L81.48,42.09L81.87,42.09z"/><path style="fill:#597ea0" d="M85.23,81.14L85.69,83.46L85.86,84.11L85.92,84.73L86.33,86.66L86.85,89.60L86.81,90.27L86.58,90.75L85.61,91.31L84.33,91.50L83.15,88.79L83.08,88.75L82.93,88.39L82.82,87.71L82.69,87.11L81.86,82.64L81.79,82.57L80.94,78.13L80.87,78.07L80.89,77.62L81.06,77.65z"/><path style="fill:#2ac7ce" d="M71.48,51.88L70.36,52.51L69.83,53.38L69.63,53.50L69.70,52.55L70.69,50.76L71.52,50.20L71.69,50.17z"/><path style="fill:#8aa7bf" d="M85.46,46.73L87.78,48.58L91.26,52.05L92.30,52.99L95.78,56.45L96.81,57.39L97.74,58.43L98.32,59.59L98.56,60.64L98.44,61.60L97.51,64.14L97.12,65.85L97.39,67.82L97.86,69.09L98.67,70.60L99.84,72.09L100.99,73.02L102.37,73.61L103.73,73.61L104.20,73.27L104.81,72.25L106.27,68.27L106.74,67.93L107.48,67.92L107.71,68.04L109.80,70.12L110.49,70.71L110.95,71.29L111.30,71.98L111.30,72.95L110.49,76.89L108.87,80.71L106.63,83.69L106.06,84.16L105.38,84.16L104.59,83.56L101.22,80.79L101.10,80.81L100.76,82.57L99.13,86.39L96.89,89.36L96.20,89.83L95.77,89.83L95.20,89.47L92.42,87.15L92.26,87.14L92.11,87.26L90.41,88.21L90.02,88.49L86.81,90.27L86.85,89.60L86.33,86.66L87.43,86.03L87.49,85.95L89.10,85.29L89.42,85.13L89.48,85.04L89.64,85.00L89.65,84.85L88.85,84.21L88.71,84.03L88.62,84.02L87.66,83.21L87.39,83.21L86.51,83.76L85.86,84.11L85.69,83.46L85.23,81.14L81.06,77.65L80.89,77.62L80.36,77.08L78.62,75.70L78.54,75.68L78.28,75.34L75.97,73.45L73.77,68.70L70.17,60.75L69.35,58.32L69.09,55.88L69.46,53.82L69.63,53.50L69.83,53.38L70.36,52.51L71.48,51.88L71.98,51.59L73.88,51.59L75.61,52.29L77.28,53.50L79.33,55.52L79.83,55.93L85.70,61.67L86.11,61.67L91.15,58.71L91.14,57.50L90.44,54.49L89.06,51.58L87.21,49.03L85.81,47.66L84.88,46.84L83.96,46.35L83.91,46.10z"/><path style="fill:#01ff02" d="M87.49,85.95L87.43,86.03L86.33,86.66L85.92,84.73L85.86,84.11L86.51,83.76z"/><path style="fill:#ffffff" d="M88.62,84.02L88.75,84.25L88.82,84.74L88.87,84.81L88.92,85.09L89.10,85.29L87.49,85.95L86.51,83.76L87.39,83.21L87.66,83.21z"/><path style="fill:#00fdff" d="M89.48,85.04L89.42,85.13L89.10,85.29L88.92,85.09L88.87,84.81L89.29,84.71z"/><path style="fill:#00fdff" d="M92.77,90.18L92.67,90.46L91.95,90.79L91.49,90.87L90.45,88.52L91.74,87.93z"/><path style="fill:#00fdff" d="M83.08,88.75L82.88,88.91L82.90,89.13L83.18,89.76L82.85,89.67L82.40,88.50L82.93,88.39z"/><path style="fill:#00fdff" d="M86.39,94.05L86.04,94.27L85.08,94.62L83.97,92.22L85.36,91.64z"/><path style="fill:#f9840c" d="M83.39,42.54L83.73,43.25L83.73,43.76L83.32,44.14L83.03,43.14L82.57,42.55L82.37,42.32L82.91,42.20z"/><path style="fill:#f9840c" d="M73.55,47.99L74.00,48.69L74.00,49.44L73.25,49.97L72.49,49.97L71.97,49.34L71.86,48.58L72.17,48.17L72.91,47.76z"/><path style="fill:#f9840c" d="M89.65,84.85L89.64,85.00L89.48,85.04L89.29,84.71L88.87,84.81L88.82,84.74L88.75,84.25L88.85,84.21z"/><path style="fill:#f9840c" d="M82.93,88.39L82.40,88.50L82.28,87.94L82.52,87.82L82.82,87.71z"/><path style="fill:#f9840c" d="M92.08,87.67L91.74,87.93L90.45,88.52L90.02,88.49L90.41,88.21L92.11,87.26z"/><path style="fill:#f9840c" d="M83.18,89.76L83.51,90.41L83.47,90.64L82.72,90.70L82.51,90.05L82.85,89.67z"/><path style="fill:#f9840c" d="M83.27,91.76L84.33,91.50L85.61,91.31L85.36,91.64L83.97,92.22L83.49,92.14z"/><path style="fill:#597ea0" d="M73.45,47.01L74.13,47.40L74.69,48.34L74.85,49.47L75.15,50.67L76.43,52.40L77.27,53.33L77.28,53.50L75.61,52.29L73.88,51.59L71.98,51.59L71.48,51.88L71.69,50.17L71.80,50.01L71.91,49.42L71.97,49.34L72.49,49.97L73.25,49.97L74.00,49.44L74.00,48.69L73.55,47.99L72.91,47.76L72.17,48.17L72.25,47.57L72.45,47.31L73.13,46.97z"/><path style="fill:#597ea0" d="M75.50,57.84L76.89,60.86L76.89,61.24L74.77,62.49L73.75,62.49L73.19,62.13L72.13,59.82L72.13,59.39L72.46,58.79L74.30,57.74L74.65,57.62L75.16,57.61z"/><path style="fill:#597ea0" d="M93.11,73.03L93.39,74.27L93.45,74.77L94.30,79.04L94.13,79.18L92.52,79.17L91.38,78.70L90.35,77.85L88.84,70.44L88.59,69.55L88.25,68.96L88.23,68.54L88.71,67.28L88.82,66.19L88.71,65.49L87.94,63.98L88.54,63.75L90.11,62.54L90.45,61.86L90.91,61.56z"/><path style="fill:#2ac7ce" d="M82.68,45.68L83.96,46.35L84.88,46.84L85.81,47.66L87.21,49.03L89.06,51.58L90.44,54.49L91.14,57.50L91.15,58.71L86.11,61.67L85.70,61.67L79.83,55.93L79.69,55.63L78.18,53.90L77.35,53.33L77.27,53.33L76.43,52.40L75.15,50.67L74.85,49.47L74.93,49.47L75.50,49.75L75.81,49.76L76.67,49.21L76.79,48.43L81.80,45.51z"/><path style="fill:#2ac7ce" d="M87.62,63.52L88.24,63.10L90.45,61.86L90.11,62.54L88.54,63.75L87.94,63.98z"/><path style="fill:#8aa7bf" d="M82.35,43.12L82.80,44.06L82.80,44.69L82.69,44.92L81.80,45.51L76.79,48.43L74.93,49.47L74.85,49.47L74.69,48.34L74.13,47.40L73.45,47.01L80.75,42.72L81.13,42.55L81.64,42.55z"/><path style="fill:#8aa7bf" d="M125.55,79.17L126.14,79.62L126.83,80.78L126.94,81.49L126.94,82.46L126.78,82.75L121.27,85.94L112.65,90.88L112.22,90.88L111.19,90.28L110.60,89.60L110.25,88.91L110.13,87.32L110.48,86.84L124.34,78.81L124.86,78.81z"/><path style="fill:#8aa7bf" d="M84.33,91.50L83.27,91.76L82.34,91.80L82.05,91.09L82.72,90.70L83.47,90.64L83.51,90.41L83.18,89.76L82.90,89.13L82.88,88.91L83.08,88.75L83.15,88.79z"/><path style="fill:#8aa7bf" d="M134.47,89.82L134.81,90.18L135.51,91.56L135.52,92.88L135.24,93.30L121.46,101.30L120.79,101.30L119.76,100.71L119.17,100.02L118.82,99.33L118.82,97.62L119.13,97.24L132.81,89.36L133.31,89.24z"/><path style="fill:#8aa7bf" d="M84.91,89.30L84.86,89.60L85.11,90.06L85.39,90.11L85.44,90.29L85.00,90.29L84.64,89.84L84.66,89.27L84.87,89.23z"/><path style="fill:#898989" d="M82.69,87.11L82.41,87.16L82.52,87.82L82.28,87.94L82.21,87.87L82.12,87.38L82.00,87.26L81.60,87.20L80.82,84.85L80.72,84.26L80.47,83.69L80.48,83.14L81.17,82.79L81.79,82.57L81.86,82.64z"/><path style="fill:#898989" d="M88.85,84.21L88.75,84.25L88.62,84.02L88.71,84.03z"/><path style="fill:#95dce0" d="M116.63,27.61L125.66,32.02L154.74,46.50L155.80,47.18L156.60,48.23L157.06,49.63L157.99,65.03L157.99,67.27L154.74,69.13L154.74,70.94L155.32,80.79L155.44,84.66L155.05,85.30L154.13,85.78L153.70,85.78L153.01,85.54L131.22,74.76L131.22,74.47L131.47,74.11L131.46,73.85L124.85,70.48L123.93,69.66L120.80,63.64L108.86,40.36L107.93,38.05L107.36,35.38L107.36,33.56L107.47,32.05L108.46,30.03L110.49,28.69L111.71,27.95L112.19,27.61L113.46,27.15L115.12,27.15z"/><path style="fill:#95dce0" d="M78.18,53.90L79.69,55.63L79.83,55.93L79.33,55.52L77.28,53.50L77.27,53.33L77.35,53.33z"/><path style="fill:#95dce0" d="M75.97,73.45L75.62,73.50L73.48,68.84L73.77,68.70z"/><path style="fill:#95dce0" d="M75.11,68.86L75.39,68.74L75.44,68.81L75.50,69.44L75.61,69.56L75.89,69.61L75.97,69.82L75.82,69.92L75.61,69.91L75.39,69.78L75.15,69.33z"/><path style="fill:#95dce0" d="M76.58,71.22L76.54,71.75L76.66,71.86L77.03,72.07L77.01,72.26L76.65,72.23L76.30,71.88L76.28,71.16L76.53,71.15z"/><path style="fill:#95dce0" d="M37.73,73.14L53.49,80.91L63.33,85.89L63.87,85.88L64.45,85.53L64.72,85.53L77.02,91.67L77.83,92.37L78.53,93.29L78.98,94.34L79.09,95.04L80.94,127.28L80.83,127.87L80.55,128.28L79.87,128.76L78.85,128.76L67.16,122.95L66.77,122.95L65.25,123.87L63.88,124.59L62.98,124.59L45.84,116.01L45.04,115.31L44.45,114.39L29.96,86.12L29.04,83.92L28.46,81.60L28.34,80.33L28.34,79.09L28.57,77.46L29.34,75.91L30.21,74.93L32.30,73.77L33.98,72.79L36.34,72.68z"/><path style="fill:#01ff02" d="M111.78,33.16L112.00,33.64L111.87,34.02L111.41,33.98L111.06,33.53L111.03,32.82L111.42,32.82z"/><path style="fill:#01ff02" d="M118.85,35.24L119.30,35.83L119.30,36.34L118.71,36.30L118.49,36.06L118.31,35.37L118.45,35.14L118.71,35.13z"/><path style="fill:#01ff02" d="M127.40,47.55L127.64,48.00L127.59,48.48L127.29,48.47L126.94,48.12L126.90,47.41L127.17,47.41z"/><path style="fill:#01ff02" d="M134.71,49.83L134.58,50.11L133.61,50.67L133.64,50.90L133.79,51.13L133.74,51.48L133.19,51.48L132.95,51.01L132.92,50.79L134.23,50.00L134.43,49.72L134.60,49.72z"/><path style="fill:#01ff02" d="M137.95,54.95L138.19,55.69L138.02,55.89L137.71,55.90L137.49,55.76L137.24,55.31L137.21,54.72L137.49,54.61z"/><path style="fill:#01ff02" d="M123.34,57.17L123.70,57.73L123.66,58.20L123.12,58.19L122.89,57.96L122.76,57.63L122.76,57.07L123.12,57.02z"/><path style="fill:#01ff02" d="M135.52,61.42L135.98,62.01L135.94,62.61L135.52,62.60L135.04,62.03L135.05,61.48L135.24,61.31z"/><path style="fill:#01ff02" d="M141.66,61.79L141.66,62.18L141.19,62.13L141.06,61.91L141.03,61.44L141.41,61.44z"/><path style="fill:#01ff02" d="M128.23,62.23L128.55,62.94L128.44,63.22L128.10,63.18L127.74,62.73L127.75,62.17L128.10,62.12z"/><path style="fill:#01ff02" d="M85.36,63.65L85.35,63.92L85.12,63.88L85.00,63.76L85.00,63.17z"/><path style="fill:#01ff02" d="M134.71,65.84L134.67,66.20L134.24,66.19L134.01,65.95L133.83,65.37L133.95,65.25L134.36,65.25z"/><path style="fill:#01ff02" d="M141.89,66.07L141.89,66.47L141.50,66.46L141.25,65.84L141.37,65.71L141.66,65.71z"/><path style="fill:#01ff02" d="M75.89,69.61L75.61,69.56L75.50,69.44L75.44,68.81L75.51,68.83z"/><path style="fill:#01ff02" d="M76.89,71.64L77.03,72.07L76.66,71.86L76.54,71.75L76.58,71.22z"/><path style="fill:#01ff02" d="M124.86,79.80L124.59,80.11L123.45,80.10L123.46,79.67L123.77,79.51L124.63,79.51z"/><path style="fill:#01ff02" d="M119.06,82.88L119.18,83.09L119.02,83.34L117.78,83.34L117.78,82.92L118.09,82.75L118.84,82.75z"/><path style="fill:#01ff02" d="M113.52,86.23L113.47,86.46L113.01,86.70L112.33,86.71L112.10,86.57L112.10,86.28L112.53,86.00L113.04,86.00z"/><path style="fill:#01ff02" d="M85.23,89.59L85.39,90.11L85.11,90.06L84.86,89.60L84.91,89.30z"/><path style="fill:#01ff02" d="M133.44,90.17L133.34,90.47L132.81,90.64L132.38,90.65L132.03,90.52L131.99,90.18L132.45,89.94L133.08,89.94z"/><path style="fill:#01ff02" d="M127.77,93.41L127.77,93.70L127.37,93.89L126.58,93.89L126.35,93.76L126.35,93.46L126.90,93.18L127.28,93.18z"/><path style="fill:#01ff02" d="M122.08,96.67L122.09,96.93L121.81,97.13L120.80,97.13L120.67,97.00L120.68,96.71L120.99,96.54L121.85,96.54z"/><path style="fill:#ffffff" d="M131.11,39.32L131.80,39.78L132.74,40.69L133.44,41.73L134.00,42.91L134.24,43.83L134.47,46.15L134.47,48.74L134.08,49.40L133.78,49.40L132.74,49.03L131.81,48.34L130.88,47.31L130.29,46.39L129.83,45.23L129.60,43.95L129.49,41.98L129.48,39.81L129.78,39.07L130.42,39.08z"/><path style="fill:#ffffff" d="M74.93,49.47L76.79,48.43L76.67,49.21L75.81,49.76L75.50,49.75z"/><path style="fill:#ffffff" d="M88.84,70.44L90.35,77.85L89.87,77.42L88.82,76.04L88.01,74.42L87.65,73.38L87.39,71.53L87.77,69.80L87.90,69.66z"/><path style="fill:#ffffff" d="M108.76,71.38L109.33,72.09L109.33,72.95L107.94,77.93L105.61,81.64L105.26,81.62L104.80,81.03L104.65,80.44L105.05,79.68L107.13,76.31L108.52,71.31L108.64,71.28z"/><path style="fill:#ffffff" d="M95.67,76.15L95.19,77.58L94.73,78.51L94.30,79.04L93.45,74.77L93.39,74.27z"/><path style="fill:#ffffff" d="M99.38,79.28L98.32,83.26L95.88,87.32L95.66,87.29L95.32,87.04L95.08,86.69L94.95,86.04L97.48,81.72L98.40,78.48L98.44,78.47z"/><path style="fill:#ffffff" d="M82.82,87.71L82.52,87.82L82.41,87.16L82.69,87.11z"/><path style="stroke:#000000;stroke-width:0.088" d="M79.10,77.23L79.09,77.23L79.08,77.25L79.08,77.28L79.07,77.28L79.12,77.35L79.28,77.38L79.51,77.37L79.52,77.36L79.82,77.30L80.15,77.19L80.40,77.08"/><path style="stroke:#000000;stroke-width:0.088" d="M79.08,77.28L79.07,77.29L79.07,77.31L79.07,77.32L79.07,77.33L79.08,77.35L79.08,77.36L79.11,77.44L79.12,77.45L79.13,77.47L79.14,77.48L79.15,77.49L79.16,77.50L79.18,77.51L79.21,77.53L79.35,77.56L79.38,77.56L79.60,77.54L79.88,77.49L80.18,77.39L80.48,77.26L80.56,77.22"/><path style="stroke:#000000;stroke-width:0.088" d="M80.14,76.86L80.12,76.87L80.09,76.88L79.76,77.00L79.45,77.07L79.21,77.09L79.04,77.07L78.98,77.01L78.98,77.00L79.01,76.93"/><path style="stroke:#000000;stroke-width:0.088" d="M79.00,76.96L78.99,76.97L78.97,77.02L78.97,77.04L78.97,77.06L78.98,77.07L78.98,77.08L78.98,77.10L78.99,77.11L79.00,77.12L79.01,77.14L79.09,77.21L79.10,77.23L79.11,77.23L79.15,77.25L79.31,77.27L79.34,77.27L79.58,77.24L79.87,77.17L80.18,77.06L80.31,77.00"/><path style="stroke:#000000;stroke-width:0.088" d="M78.98,77.01L78.97,77.02"/><path style="stroke:#000000;stroke-width:0.088" d="M78.91,76.64L78.90,76.66L78.89,76.68L78.89,76.72L78.97,76.78L78.98,76.79L79.16,76.80L79.43,76.76L79.74,76.68L79.87,76.64"/><path style="stroke:#000000;stroke-width:0.088" d="M78.81,76.51L78.78,76.47L78.78,76.44L78.79,76.40L78.81,76.36L78.80,76.45L78.89,76.50L79.08,76.50L79.35,76.46L79.39,76.46L79.59,76.40"/><path style="stroke:#000000;stroke-width:0.088" d="M78.90,76.66L78.91,76.64"/><path style="stroke:#000000;stroke-width:0.088" d="M79.48,76.32L79.25,76.37L79.03,76.39L79.00,76.39L78.85,76.36L78.81,76.35L78.80,76.34L78.78,76.33L78.77,76.32L78.76,76.31L78.71,76.26L78.71,76.25L78.70,76.23L78.69,76.18L78.69,76.17L78.69,76.15L78.69,76.13L78.70,76.09L78.71,76.07L78.72,76.05"/><path style="stroke:#000000;stroke-width:0.088" d="M78.91,76.65L78.91,76.64"/><path style="stroke:#000000;stroke-width:0.088" d="M78.89,76.79L78.88,76.73L78.88,76.71L78.89,76.69"/><path style="stroke:#000000;stroke-width:0.088" d="M78.88,76.76L78.88,76.76L78.89,76.80L78.89,76.81L78.89,76.83L78.90,76.84L78.91,76.85L78.92,76.87L78.93,76.88L78.95,76.89L78.96,76.90L79.06,76.95L79.09,76.96L79.12,76.97L79.31,76.97L79.56,76.93L79.86,76.85L80.04,76.78"/><path style="stroke:#000000;stroke-width:0.088" d="M78.79,76.47L78.79,76.49L78.79,76.50L78.79,76.52L78.80,76.53L78.83,76.58L78.84,76.59L78.85,76.61L78.87,76.62L78.88,76.63L78.92,76.64L79.04,76.68L79.07,76.68L79.28,76.67L79.55,76.62L79.77,76.55"/><path style="stroke:#000000;stroke-width:0.088" d="M78.81,76.36L78.81,76.35"/><path style="stroke:#000000;stroke-width:0.088" d="M78.70,76.09L78.70,76.10"/><path style="stroke:#000000;stroke-width:0.088" d="M78.73,76.05L78.70,76.11L78.71,76.17L78.84,76.21L79.05,76.21L79.05,76.21L79.30,76.16"/><path style="stroke:#000000;stroke-width:0.088" d="M78.62,75.76L78.62,75.76L78.61,75.78L78.60,75.81L78.63,75.88L78.77,75.92L78.99,75.91"/><path style="stroke:#000000;stroke-width:0.088" d="M78.60,75.81L78.59,75.89L78.59,75.90L78.60,75.91L78.60,75.92L78.60,75.94L78.61,75.95L78.63,75.97L78.69,76.01"/><path style="stroke:#000000;stroke-width:0.088" d="M78.77,75.92L78.86,75.94"/><path style="stroke:#000000;stroke-width:0.088" d="M79.19,76.07L78.99,76.10L78.96,76.09L78.78,76.08L78.75,76.07L78.74,76.06L78.65,76.00L78.64,75.99L78.63,75.98L78.62,75.97L78.61,75.95"/><path style="stroke:#000000;stroke-width:0.088" d="M78.86,75.80L78.76,75.80L78.73,75.80L78.70,75.79L78.59,75.74L78.57,75.73L78.56,75.72L78.55,75.71L78.54,75.69L78.53,75.68L78.52,75.67L78.52,75.65L78.51,75.64L78.51,75.63L78.51,75.62L78.51,75.59"/><path style="stroke:#000000;stroke-width:0.088" d="M78.74,76.24L78.70,76.20L78.69,76.17"/><path style="stroke:#000000;stroke-width:0.088" d="M78.67,75.92L78.63,75.88"/><path style="stroke:#000000;stroke-width:0.088" d="M78.64,75.62L78.55,75.60L78.55,75.60L78.50,75.53L78.51,75.51"/><path style="stroke:#000000;stroke-width:0.088" d="M78.51,75.51L78.50,75.53L78.51,75.59"/><path style="stroke:#000000;stroke-width:0.088" d="M78.51,75.54L78.52,75.51"/><path style="stroke:#000000;stroke-width:0.088" d="M79.38,78.13L79.38,78.11L79.39,78.10"/><path style="stroke:#000000;stroke-width:0.088" d="M79.39,78.10L79.37,78.15L79.37,78.20L79.47,78.25L79.67,78.26L79.92,78.22L80.24,78.14L80.57,78.02L80.60,78.00L80.90,77.86L80.93,77.84"/><path style="stroke:#000000;stroke-width:0.088" d="M80.86,77.53L80.84,77.54L80.55,77.69L80.22,77.82L79.90,77.91L79.62,77.96L79.40,77.96L79.39,77.96L79.28,77.91L79.28,77.83L79.28,77.83"/><path style="stroke:#000000;stroke-width:0.088" d="M79.28,77.83L79.28,77.82L79.29,77.80"/><path style="stroke:#000000;stroke-width:0.088" d="M79.28,77.84L79.26,77.91L79.26,77.93L79.26,77.95L79.29,77.97L79.34,78.01"/><path style="stroke:#000000;stroke-width:0.088" d="M79.37,78.27L79.43,78.35L79.58,78.40L79.79,78.40L80.09,78.35L80.39,78.27L80.69,78.17L80.75,78.14L80.82,78.11L80.92,78.06L80.97,78.03"/><path style="stroke:#000000;stroke-width:0.088" d="M79.68,78.14L79.68,78.14L79.69,78.14"/><path style="stroke:#000000;stroke-width:0.088" d="M79.68,78.14L79.68,78.14"/><path style="stroke:#000000;stroke-width:0.088" d="M79.38,78.11L79.36,78.18L79.37,78.20L79.40,78.25"/><path style="stroke:#000000;stroke-width:0.088" d="M79.36,78.18L79.35,78.20L79.35,78.21L79.36,78.23L79.36,78.24L79.36,78.25L79.37,78.27L79.42,78.34"/><path style="stroke:#000000;stroke-width:0.088" d="M79.26,77.95L79.26,77.96L79.27,77.97L79.27,77.99L79.28,78.00L79.29,78.01L79.30,78.04L79.37,78.07"/><path style="stroke:#000000;stroke-width:0.088" d="M79.29,78.01L79.30,78.03L79.31,78.04L79.32,78.05L79.40,78.11L79.42,78.12L79.45,78.13L79.63,78.14L79.66,78.14L79.90,78.11L80.20,78.03L80.50,77.92L80.79,77.78L80.90,77.71"/><path style="stroke:#000000;stroke-width:0.088" d="M79.18,77.63L79.18,77.66L79.18,77.68L79.18,77.69L79.18,77.70L79.19,77.71L79.19,77.73L79.20,77.74L79.24,77.76L79.32,77.79"/><path style="stroke:#000000;stroke-width:0.088" d="M80.81,77.42L80.77,77.45L80.50,77.59L80.19,77.71L79.89,77.80L79.63,77.85L79.43,77.85L79.40,77.84L79.36,77.83L79.25,77.79L79.24,77.78L79.22,77.77L79.21,77.76L79.20,77.74"/><path style="stroke:#000000;stroke-width:0.088" d="M79.20,77.52L79.20,77.53L79.17,77.56L79.18,77.58L79.19,77.62L79.20,77.64L79.33,77.67L79.55,77.67L79.84,77.61L79.86,77.60L80.18,77.51L80.51,77.37L80.65,77.29"/><path style="stroke:#000000;stroke-width:0.088" d="M79.17,77.56L79.18,77.64L79.18,77.64"/><path style="stroke:#000000;stroke-width:0.088" d="M79.70,77.52L79.77,77.51L79.79,77.51"/><path style="stroke:#000000;stroke-width:0.088" d="M79.75,77.52L79.77,77.52"/><path style="stroke:#000000;stroke-width:0.088" d="M79.83,77.50L79.75,77.52L79.69,77.53"/><path style="stroke:#000000;stroke-width:0.088" d="M79.57,77.24L79.56,77.24"/><path style="stroke:#000000;stroke-width:0.088" d="M79.60,77.24L79.60,77.24L79.55,77.25L79.52,77.25"/><path style="stroke:#000000;stroke-width:0.088" d="M79.38,76.96L79.38,76.96L79.41,76.96"/><path style="stroke:#000000;stroke-width:0.088" d="M79.35,76.97L79.36,76.97L79.42,76.95"/><path style="stroke:#000000;stroke-width:0.088" d="M79.71,76.58L79.68,76.59L79.62,76.60"/><path style="stroke:#000000;stroke-width:0.088" d="M79.67,76.59L79.59,76.61"/><path style="stroke:#000000;stroke-width:0.088" d="M79.17,76.68L79.18,76.68L79.20,76.68"/><path style="stroke:#000000;stroke-width:0.088" d="M79.67,76.59L79.77,76.55"/><path style="stroke:#000000;stroke-width:0.088" d="M79.38,76.34L79.45,76.33L79.49,76.32L79.47,76.33L79.40,76.34"/><path style="stroke:#000000;stroke-width:0.088" d="M80.00,77.77L79.98,77.78L79.91,77.79"/><path style="stroke:#000000;stroke-width:0.088" d="M80.13,78.06L80.19,78.04L80.22,78.03"/><path style="stroke:#000000;stroke-width:0.088" d="M80.07,78.07L80.18,78.05L80.29,78.00"/><path style="stroke:#000000;stroke-width:0.088" d="M79.91,77.79L79.96,77.79L80.08,77.75"/><path style="stroke:#000000;stroke-width:0.088" d="M80.27,77.36L80.32,77.34L80.37,77.31"/><path style="stroke:#000000;stroke-width:0.088" d="M80.32,77.34L80.35,77.33"/><path style="stroke:#000000;stroke-width:0.088" d="M80.23,77.37L80.32,77.34L80.39,77.30"/><path style="stroke:#000000;stroke-width:0.088" d="M80.05,77.11L80.10,77.09L80.15,77.07"/><path style="stroke:#000000;stroke-width:0.088" d="M79.98,77.13L80.11,77.10L80.16,77.07"/><path style="stroke:#000000;stroke-width:0.088" d="M79.93,76.83L79.89,76.84L79.84,76.86"/><path style="stroke:#000000;stroke-width:0.088" d="M80.00,76.80L79.89,76.85L79.78,76.87"/><path style="stroke:#000000;stroke-width:0.088" d="M80.68,77.84L80.73,77.82L80.74,77.81"/><path style="stroke:#000000;stroke-width:0.088" d="M80.77,77.80L80.75,77.81L80.66,77.85"/><path style="stroke:#000000;stroke-width:0.088" d="M80.48,77.60L80.54,77.58L80.59,77.54"/><path style="stroke:#000000;stroke-width:0.088" d="M80.50,77.59L80.53,77.58L80.59,77.54"/><path style="stroke:#000000;stroke-width:0.088" d="M80.48,77.60L80.48,77.60"/><path style="stroke:#000000;stroke-width:0.088" d="M80.53,77.57L80.54,77.57"/><path style="stroke:#000000;stroke-width:0.088" d="M80.54,77.57L80.55,77.57"/><path style="stroke:#000000;stroke-width:0.088" d="M88.77,84.06L88.77,84.06L88.72,84.07L88.69,84.07L88.67,84.06L88.76,84.27L88.77,84.29"/><path style="stroke:#000000;stroke-width:0.088" d="M88.67,84.06L88.64,83.95"/><path style="stroke:#000000;stroke-width:0.088" d="M83.27,45.96L83.13,45.64L83.04,45.26L82.89,44.07L82.79,43.65L82.60,43.24L82.34,42.87L82.03,42.58L81.71,42.40L81.60,42.35L81.30,42.29L81.04,42.35L80.85,42.53L80.77,42.75"/><path style="stroke:#000000;stroke-width:0.088" d="M81.04,42.35L81.45,42.11L81.71,42.05L82.01,42.12L81.60,42.35"/><path style="stroke:#000000;stroke-width:0.088" d="M81.71,42.40L82.12,42.16L82.01,42.12"/><path style="stroke:#000000;stroke-width:0.088" d="M82.89,44.07L83.30,43.83L83.20,43.42L83.01,43.01L82.75,42.64L82.44,42.35L82.12,42.16"/><path style="stroke:#000000;stroke-width:0.088" d="M83.04,45.26L83.45,45.02L83.54,45.40L83.70,45.78L83.94,46.13L83.77,46.23"/><path style="stroke:#000000;stroke-width:0.088" d="M83.30,43.83L83.45,45.02"/><path style="stroke:#000000;stroke-width:0.088" d="M83.94,46.13L84.19,46.46"/><path style="stroke:#000000;stroke-width:0.088" d="M90.42,77.89L90.32,77.33L88.81,69.98L88.66,69.53L88.41,69.09L88.16,68.81"/><path style="stroke:#000000;stroke-width:0.088" d="M93.89,79.26L90.53,61.79"/><path style="stroke:#000000;stroke-width:0.088" d="M94.30,79.06L90.94,61.55"/><path style="stroke:#000000;stroke-width:0.088" d="M95.00,85.91L95.06,85.88L95.29,85.54L95.34,85.34"/><path style="stroke:#000000;stroke-width:0.088" d="M73.53,68.81L73.86,68.72L76.04,73.45L75.71,73.53L73.53,68.81L73.82,68.64"/><path style="stroke:#000000;stroke-width:0.088" d="M75.98,69.64L75.95,69.66L75.85,69.65L75.74,69.60L75.63,69.51L75.53,69.39L75.46,69.25L75.42,69.11L75.42,68.98L75.45,68.87L75.51,68.81"/><path style="stroke:#000000;stroke-width:0.088" d="M75.98,69.64L75.95,69.66"/><path style="stroke:#000000;stroke-width:0.088" d="M76.59,71.17L76.55,71.20L76.50,71.30L76.50,71.43L76.53,71.58L76.56,71.66L76.60,71.72L76.69,71.86L76.80,71.96L76.91,72.02L77.02,72.04L77.08,72.02"/><path style="stroke:#000000;stroke-width:0.088" d="M85.00,63.09L84.96,63.12L84.92,63.22L84.91,63.35L84.94,63.49L85.01,63.64L85.10,63.77L85.21,63.87L85.33,63.94L85.44,63.95L85.49,63.93"/><path style="stroke:#000000;stroke-width:0.088" d="M85.87,61.80L93.79,57.23L94.01,57.18L94.27,57.24L94.55,57.42L94.80,57.68L95.00,58.00L95.14,58.35L95.19,58.69L95.15,58.98L95.03,59.19L87.59,63.49"/><path style="stroke:#000000;stroke-width:0.088" d="M94.27,57.24L94.32,57.27L94.58,57.43L94.82,57.68L94.99,57.95L95.01,57.99L95.04,58.05L95.14,58.32L95.19,58.64L95.19,58.69"/><path style="stroke:#000000;stroke-width:0.088" d="M81.90,82.59L81.60,82.64L81.27,82.73L80.95,82.86L80.71,82.98L80.51,83.11L80.41,83.23L80.42,83.33L80.50,83.38L80.46,83.37L80.48,83.38L80.51,83.39L80.64,83.42L80.88,83.41L81.01,83.38"/><path style="stroke:#000000;stroke-width:0.088" d="M80.46,83.37L80.44,83.34"/><path style="stroke:#000000;stroke-width:0.088" d="M82.39,85.16L82.18,85.26L81.84,85.37L81.55,85.43L81.29,85.46L81.12,85.44L81.12,85.44L81.08,85.41L81.05,85.38L81.03,85.36L81.03,85.35"/><path style="stroke:#000000;stroke-width:0.088" d="M81.12,85.44L81.23,85.47"/><path style="stroke:#000000;stroke-width:0.088" d="M82.40,85.20L82.10,85.32L81.79,85.42L81.49,85.47L81.28,85.48L81.27,85.48L81.12,85.44L81.10,85.43L81.09,85.42"/><path style="stroke:#000000;stroke-width:0.088" d="M82.45,85.47L82.22,85.57L82.20,85.58L81.87,85.68L81.58,85.74L81.34,85.75L81.20,85.73L81.15,85.69L81.13,85.67L81.12,85.65L81.10,85.60L81.10,85.58L81.09,85.57L81.11,85.51L81.11,85.53"/><path style="stroke:#000000;stroke-width:0.088" d="M81.06,85.38L81.02,85.34L81.01,85.33L81.01,85.31L81.01,85.30L81.01,85.24L81.01,85.22L81.01,85.21L81.01,85.19L81.02,85.17L81.04,85.15"/><path style="stroke:#000000;stroke-width:0.088" d="M81.11,85.59L81.11,85.49L81.11,85.47L81.12,85.46L81.13,85.44"/><path style="stroke:#000000;stroke-width:0.088" d="M82.21,84.23L82.09,84.30L81.76,84.42L81.73,84.43L81.41,84.52L81.13,84.57L80.92,84.57L80.80,84.53L80.91,84.58"/><path style="stroke:#000000;stroke-width:0.088" d="M82.27,84.54L82.11,84.62L81.80,84.74L81.48,84.82L81.20,84.86L81.17,84.87L80.98,84.86L80.98,84.86L80.98,84.86"/><path style="stroke:#000000;stroke-width:0.088" d="M80.88,84.81L80.88,84.81L80.89,84.81"/><path style="stroke:#000000;stroke-width:0.088" d="M81.41,84.87L81.37,84.88L81.12,84.89L81.10,84.89L80.97,84.87L80.95,84.86L80.93,84.85L80.97,84.86L80.90,84.83L80.87,84.79L80.85,84.78L80.84,84.76L80.87,84.77L80.94,84.81"/><path style="stroke:#000000;stroke-width:0.088" d="M82.22,84.95L82.28,84.92L82.34,84.89L82.19,84.96L81.87,85.07L81.57,85.15L81.30,85.19L81.13,85.18L81.11,85.18L81.09,85.17L81.07,85.16L81.05,85.15L81.23,85.16L81.50,85.13L81.80,85.06L82.14,84.94L82.33,84.85"/><path style="stroke:#000000;stroke-width:0.088" d="M81.05,85.15L80.97,85.10L80.95,85.09L80.94,85.07"/><path style="stroke:#000000;stroke-width:0.088" d="M81.20,84.59L81.17,84.60L80.95,84.59L80.93,84.59L80.91,84.58"/><path style="stroke:#000000;stroke-width:0.088" d="M80.93,84.85L80.90,84.83"/><path style="stroke:#000000;stroke-width:0.088" d="M80.98,84.86L81.08,84.88"/><path style="stroke:#000000;stroke-width:0.088" d="M80.98,84.86L80.97,84.86"/><path style="stroke:#000000;stroke-width:0.088" d="M80.86,84.55L80.85,84.58L80.83,84.66L80.83,84.68L80.83,84.70L80.83,84.71L80.83,84.73L80.83,84.74L80.84,84.76"/><path style="stroke:#000000;stroke-width:0.088" d="M80.99,85.10L80.94,85.07L80.92,85.01L80.92,85.00L80.91,84.99L80.91,84.97L80.91,84.95L80.91,84.94L80.92,84.92L80.93,84.90L80.95,84.86"/><path style="stroke:#000000;stroke-width:0.088" d="M82.10,83.61L82.01,83.66L81.99,83.67L81.68,83.80L81.34,83.90L81.04,83.97L80.79,83.99L80.65,83.96L80.63,83.95L80.63,83.94"/><path style="stroke:#000000;stroke-width:0.088" d="M80.65,83.96L80.59,83.90L80.57,83.88L80.56,83.86L80.55,83.85L80.55,83.83L80.55,83.82L80.55,83.80L80.55,83.79L80.55,83.77L80.55,83.75L80.58,83.68"/><path style="stroke:#000000;stroke-width:0.088" d="M80.69,84.19L80.72,84.24L80.73,84.25L80.87,84.28L81.10,84.27L81.38,84.21L81.71,84.12L81.49,84.20"/><path style="stroke:#000000;stroke-width:0.088" d="M82.10,83.64L81.92,83.74L81.61,83.86L81.29,83.95L81.00,84.00L80.81,84.01L80.83,84.01"/><path style="stroke:#000000;stroke-width:0.088" d="M82.16,83.96L82.14,83.97L81.83,84.10L81.52,84.21L81.21,84.28L80.98,84.31L80.99,84.31L81.01,84.30"/><path style="stroke:#000000;stroke-width:0.088" d="M80.98,84.31L80.81,84.28L80.78,84.28L80.76,84.27L80.73,84.25"/><path style="stroke:#000000;stroke-width:0.088" d="M80.65,83.96L80.77,84.00L80.79,84.01L80.81,84.01"/><path style="stroke:#000000;stroke-width:0.088" d="M80.76,84.27L80.75,84.28L80.74,84.29L80.74,84.31L80.74,84.33L80.74,84.34L80.74,84.36L80.75,84.44L80.75,84.45L80.76,84.47L80.76,84.48L80.78,84.50L80.79,84.52L80.80,84.53"/><path style="stroke:#000000;stroke-width:0.088" d="M80.72,84.24L80.71,84.22L80.66,84.15L80.65,84.13L80.64,84.12L80.64,84.10L80.64,84.09L80.64,84.07L80.64,84.06L80.64,84.04L80.64,84.02L80.65,84.01L80.68,83.97L80.67,83.98"/><path style="stroke:#000000;stroke-width:0.088" d="M81.16,83.98L81.11,83.98"/><path style="stroke:#000000;stroke-width:0.088" d="M81.97,82.95L81.83,82.95L81.58,82.98L81.35,83.04L81.10,83.12L80.90,83.21L80.77,83.28L80.76,83.30"/><path style="stroke:#000000;stroke-width:0.088" d="M80.68,83.19L80.67,83.21L80.69,83.26L80.67,83.21L80.71,83.12L80.84,83.03L81.03,82.92L81.25,82.83L81.47,82.76L81.71,82.71L81.92,82.68"/><path style="stroke:#000000;stroke-width:0.088" d="M80.69,83.26L80.70,83.28L80.82,83.31L81.02,83.31L81.30,83.27L81.60,83.20L81.61,83.20L81.61,83.20L81.61,83.20L81.61,83.20L81.59,83.21L81.56,83.23L81.46,83.26L81.22,83.33L80.93,83.39L80.68,83.41L80.50,83.38"/><path style="stroke:#000000;stroke-width:0.088" d="M80.93,83.39L80.85,83.40"/><path style="stroke:#000000;stroke-width:0.088" d="M80.68,83.41L80.61,83.40"/><path style="stroke:#000000;stroke-width:0.088" d="M82.04,83.30L81.95,83.35L81.65,83.48L81.64,83.49L81.30,83.60L81.00,83.66L80.75,83.69L80.58,83.67L80.60,83.68L80.62,83.69L80.64,83.70L80.65,83.70L80.81,83.71L81.08,83.68L81.14,83.67L81.08,83.68L81.07,83.69"/><path style="stroke:#000000;stroke-width:0.088" d="M80.71,83.19L80.68,83.22"/><path style="stroke:#000000;stroke-width:0.088" d="M81.94,82.83L81.93,82.83L81.65,82.86L81.36,82.92L81.08,83.01L80.85,83.11L80.70,83.20"/><path style="stroke:#000000;stroke-width:0.088" d="M81.03,83.03L80.71,83.19"/><path style="stroke:#000000;stroke-width:0.088" d="M82.04,83.33L82.00,83.36L81.70,83.50L81.38,83.61L81.14,83.67L81.14,83.67"/><path style="stroke:#000000;stroke-width:0.088" d="M80.87,83.41L81.14,83.35"/><path style="stroke:#000000;stroke-width:0.088" d="M80.58,83.67L80.51,83.63L80.49,83.61L80.48,83.59L80.52,83.60L80.59,83.63"/><path style="stroke:#000000;stroke-width:0.088" d="M80.48,83.59L80.47,83.57L80.47,83.56L80.47,83.55L80.47,83.53L80.47,83.43L80.47,83.41L80.48,83.39L80.48,83.38"/><path style="stroke:#000000;stroke-width:0.088" d="M81.26,83.32L81.10,83.37"/><path style="stroke:#000000;stroke-width:0.088" d="M81.11,83.37L81.00,83.38"/><path style="stroke:#000000;stroke-width:0.088" d="M80.96,83.70L80.92,83.71L80.91,83.70"/><path style="stroke:#000000;stroke-width:0.088" d="M80.92,83.71L80.92,83.71L80.91,83.71"/><path style="stroke:#000000;stroke-width:0.088" d="M81.61,82.87L81.10,83.00"/><path style="stroke:#000000;stroke-width:0.088" d="M80.98,83.06L81.11,83.00L81.20,82.98"/><path style="stroke:#000000;stroke-width:0.088" d="M82.63,86.40L82.32,86.51L82.30,86.52L81.99,86.60L81.72,86.63L81.53,86.63"/><path style="stroke:#000000;stroke-width:0.088" d="M81.53,86.63L81.48,86.61L81.43,86.58L81.42,86.56L81.40,86.54L81.40,86.53L81.39,86.52L81.39,86.50L81.38,86.42L81.38,86.40L81.38,86.39L81.38,86.37L81.39,86.35L81.39,86.34L81.40,86.33L81.42,86.34L81.44,86.34L81.60,86.37L81.85,86.35L82.14,86.28L82.46,86.17L82.58,86.12"/><path style="stroke:#000000;stroke-width:0.088" d="M82.03,86.90L81.76,86.93L81.59,86.92L81.56,86.89L81.51,86.86L81.49,86.84L81.48,86.82L81.51,86.84L81.58,86.87"/><path style="stroke:#000000;stroke-width:0.088" d="M81.59,86.92L81.57,86.91L81.59,86.92L81.61,86.93L81.75,86.96L81.76,86.96L81.98,86.94L82.28,86.88L82.27,86.88"/><path style="stroke:#000000;stroke-width:0.088" d="M81.71,87.22L81.82,87.23L81.67,87.20L81.71,87.22L81.73,87.23L81.75,87.24L81.94,87.25L82.19,87.21L82.50,87.14L82.75,87.05"/><path style="stroke:#000000;stroke-width:0.088" d="M81.67,87.20L81.66,87.20L81.64,87.18"/><path style="stroke:#000000;stroke-width:0.088" d="M81.66,87.20L81.62,87.17L81.62,87.15"/><path style="stroke:#000000;stroke-width:0.088" d="M81.57,86.91L81.54,86.88"/><path style="stroke:#000000;stroke-width:0.088" d="M81.79,86.96L81.78,86.96L81.76,86.96"/><path style="stroke:#000000;stroke-width:0.088" d="M82.64,86.43L82.37,86.53L82.06,86.62L81.78,86.66L81.60,86.66L81.59,86.65L81.56,86.65L81.50,86.61L81.49,86.62L81.49,86.64L81.47,86.73L81.47,86.74L81.47,86.76L81.47,86.78L81.47,86.79L81.47,86.81L81.48,86.82"/><path style="stroke:#000000;stroke-width:0.088" d="M81.60,86.66L81.61,86.66"/><path style="stroke:#000000;stroke-width:0.088" d="M81.66,87.19L81.59,87.13L81.58,87.11L81.56,87.09L81.56,87.08L81.55,87.06L81.55,87.05L81.55,87.03L81.55,87.02L81.55,87.00L81.56,86.98L81.57,86.97L81.59,86.92"/><path style="stroke:#000000;stroke-width:0.088" d="M82.52,85.82L82.24,85.93L81.92,86.02L81.65,86.07L81.43,86.07L81.41,86.06L81.29,86.02L81.26,86.01L81.31,86.02L81.39,86.05L81.61,86.04L81.65,86.03L81.95,85.98L82.28,85.88L82.51,85.78"/><path style="stroke:#000000;stroke-width:0.088" d="M81.84,86.31L81.67,86.34L81.46,86.34L81.40,86.31L81.36,86.30L81.35,86.29L81.40,86.33L81.46,86.34"/><path style="stroke:#000000;stroke-width:0.088" d="M81.82,86.31L81.96,86.29L82.27,86.20L82.57,86.09"/><path style="stroke:#000000;stroke-width:0.088" d="M81.56,86.35L81.67,86.34"/><path style="stroke:#000000;stroke-width:0.088" d="M81.35,86.29L81.32,86.25"/><path style="stroke:#000000;stroke-width:0.088" d="M81.65,86.07L81.66,86.07L81.69,86.06"/><path style="stroke:#000000;stroke-width:0.088" d="M81.26,86.01L81.21,85.95L81.21,85.93L81.20,85.91L81.19,85.90L81.19,85.88L81.19,85.87L81.19,85.85L81.19,85.83L81.20,85.81L81.22,85.74"/><path style="stroke:#000000;stroke-width:0.088" d="M81.36,86.30L81.35,86.29L81.30,86.21L81.29,86.18L81.28,86.17L81.28,86.15L81.28,86.14L81.28,86.12L81.28,86.10L81.29,86.09L81.29,86.07L81.32,86.03"/><path style="stroke:#000000;stroke-width:0.088" d="M81.85,86.35L81.83,86.35L81.81,86.35"/><path style="stroke:#000000;stroke-width:0.088" d="M81.40,86.31L81.40,86.31"/><path style="stroke:#000000;stroke-width:0.088" d="M81.34,85.75L81.41,85.76"/><path style="stroke:#000000;stroke-width:0.088" d="M82.46,85.51L82.33,85.56L82.01,85.68L81.70,85.75L81.46,85.78L81.28,85.76L81.25,85.75L81.20,85.73"/><path style="stroke:#000000;stroke-width:0.088" d="M81.46,85.46L81.29,85.46"/><path style="stroke:#000000;stroke-width:0.088" d="M81.46,85.78L81.47,85.78L81.49,85.77"/><path style="stroke:#000000;stroke-width:0.088" d="M81.28,85.48L81.30,85.48L81.31,85.48"/><path style="stroke:#000000;stroke-width:0.088" d="M81.84,85.40L81.79,85.42L81.77,85.42"/><path style="stroke:#000000;stroke-width:0.088" d="M81.75,85.74L81.74,85.74"/><path style="stroke:#000000;stroke-width:0.088" d="M81.51,85.47L81.52,85.47L81.62,85.45"/><path style="stroke:#000000;stroke-width:0.088" d="M81.92,85.70L81.76,85.74"/><path style="stroke:#000000;stroke-width:0.088" d="M81.72,85.74L81.77,85.74"/><path style="stroke:#000000;stroke-width:0.088" d="M81.43,84.86L81.44,84.86L81.43,84.86"/><path style="stroke:#000000;stroke-width:0.088" d="M81.63,85.13L81.58,85.15L81.56,85.15"/><path style="stroke:#000000;stroke-width:0.088" d="M81.36,84.88L81.65,84.81L81.97,84.71L82.28,84.58"/><path style="stroke:#000000;stroke-width:0.088" d="M81.16,84.60L81.42,84.55L81.74,84.47L82.06,84.34L82.22,84.27"/><path style="stroke:#000000;stroke-width:0.088" d="M81.88,85.07L81.73,85.12"/><path style="stroke:#000000;stroke-width:0.088" d="M81.45,84.86L81.44,84.86"/><path style="stroke:#000000;stroke-width:0.088" d="M81.64,85.13L81.74,85.12"/><path style="stroke:#000000;stroke-width:0.088" d="M81.28,84.58L81.22,84.59L81.21,84.59"/><path style="stroke:#000000;stroke-width:0.088" d="M81.61,84.82L81.45,84.87"/><path style="stroke:#000000;stroke-width:0.088" d="M81.78,84.77L82.00,84.71L82.11,84.65"/><path style="stroke:#000000;stroke-width:0.088" d="M81.42,84.86L81.46,84.86"/><path style="stroke:#000000;stroke-width:0.088" d="M81.83,84.08L82.03,83.99L81.71,84.12"/><path style="stroke:#000000;stroke-width:0.088" d="M81.17,83.97L81.15,83.98"/><path style="stroke:#000000;stroke-width:0.088" d="M81.19,83.97L81.16,83.98"/><path style="stroke:#000000;stroke-width:0.088" d="M81.27,83.96L81.30,83.95L81.35,83.93"/><path style="stroke:#000000;stroke-width:0.088" d="M81.48,84.22L81.52,84.21L81.57,84.19"/><path style="stroke:#000000;stroke-width:0.088" d="M81.70,84.48L81.74,84.47L81.79,84.45"/><path style="stroke:#000000;stroke-width:0.088" d="M81.38,84.21L81.18,84.27"/><path style="stroke:#000000;stroke-width:0.088" d="M81.24,83.96L81.14,83.99"/><path style="stroke:#000000;stroke-width:0.088" d="M81.80,83.78L81.69,83.84L81.48,83.90"/><path style="stroke:#000000;stroke-width:0.088" d="M81.50,84.22L81.41,84.25"/><path style="stroke:#000000;stroke-width:0.088" d="M81.32,84.26L81.43,84.24"/><path style="stroke:#000000;stroke-width:0.088" d="M81.86,84.42L81.71,84.48L81.54,84.52"/><path style="stroke:#000000;stroke-width:0.088" d="M81.71,83.16L81.62,83.18L81.33,83.25L81.26,83.28"/><path style="stroke:#000000;stroke-width:0.088" d="M81.33,83.25L81.34,83.25"/><path style="stroke:#000000;stroke-width:0.088" d="M81.35,83.26L81.58,83.19"/><path style="stroke:#000000;stroke-width:0.088" d="M81.73,83.48L81.70,83.50L81.65,83.52"/><path style="stroke:#000000;stroke-width:0.088" d="M81.70,83.17L81.61,83.18L81.49,83.21"/><path style="stroke:#000000;stroke-width:0.088" d="M81.67,83.19L81.59,83.21"/><path style="stroke:#000000;stroke-width:0.088" d="M81.59,83.21L81.66,83.19L81.98,83.02L81.88,83.08L81.87,83.09L81.87,83.10L81.87,83.10L81.88,83.09L81.90,83.09L81.95,83.07L81.99,83.05"/><path style="stroke:#000000;stroke-width:0.088" d="M81.24,83.64L81.40,83.61L81.57,83.54"/><path style="stroke:#000000;stroke-width:0.088" d="M81.95,82.84L81.73,82.85"/><path style="stroke:#000000;stroke-width:0.088" d="M81.71,83.16L81.68,83.17"/><path style="stroke:#000000;stroke-width:0.088" d="M81.70,82.85L81.54,82.89"/><path style="stroke:#000000;stroke-width:0.088" d="M82.34,88.00L82.33,87.98L82.25,87.77L82.27,87.78L82.30,87.78L82.34,87.77L82.39,87.76L82.43,87.75L82.48,87.73L82.51,87.71L82.53,87.69L82.53,87.67L82.38,87.17"/><path style="stroke:#000000;stroke-width:0.088" d="M82.25,87.77L82.08,87.23"/><path style="stroke:#000000;stroke-width:0.088" d="M82.69,86.71L82.68,86.71L82.35,86.82L82.04,86.90L82.03,86.90"/><path style="stroke:#000000;stroke-width:0.088" d="M82.75,87.01L82.71,87.03L82.38,87.14L82.07,87.20L81.84,87.23L81.82,87.23"/><path style="stroke:#000000;stroke-width:0.088" d="M82.17,87.20L82.17,87.20L82.38,87.14"/><path style="stroke:#000000;stroke-width:0.088" d="M82.49,87.12L82.71,87.03"/><path style="stroke:#000000;stroke-width:0.088" d="M82.07,87.20L81.89,87.24L81.90,87.24"/><path style="stroke:#000000;stroke-width:0.088" d="M81.94,87.25L81.95,87.25L81.98,87.24"/><path style="stroke:#000000;stroke-width:0.088" d="M82.47,87.15L82.51,87.14L82.56,87.12"/><path style="stroke:#000000;stroke-width:0.088" d="M82.25,86.89L82.29,86.88L82.34,86.86"/><path style="stroke:#000000;stroke-width:0.088" d="M82.70,86.74L82.60,86.78L82.28,86.88"/><path style="stroke:#000000;stroke-width:0.088" d="M82.12,86.60L82.07,86.62L82.05,86.62"/><path style="stroke:#000000;stroke-width:0.088" d="M82.27,86.56L82.07,86.62"/><path style="stroke:#000000;stroke-width:0.088" d="M82.04,86.62L82.08,86.62"/><path style="stroke:#000000;stroke-width:0.088" d="M82.30,86.88L82.36,86.86L82.53,86.80"/><path style="stroke:#000000;stroke-width:0.088" d="M81.91,86.95L81.90,86.95L81.89,86.95"/><path style="stroke:#000000;stroke-width:0.088" d="M81.90,86.95L81.89,86.95"/><path style="stroke:#000000;stroke-width:0.088" d="M81.90,86.95L81.90,86.95"/><path style="stroke:#000000;stroke-width:0.088" d="M81.85,86.35L81.86,86.35L81.91,86.33"/><path style="stroke:#000000;stroke-width:0.088" d="M82.41,86.19L82.46,86.18L82.50,86.16"/><path style="stroke:#000000;stroke-width:0.088" d="M82.20,85.94L82.24,85.93L82.28,85.91"/><path style="stroke:#000000;stroke-width:0.088" d="M81.96,86.29L81.96,86.29"/><path style="stroke:#000000;stroke-width:0.088" d="M82.18,85.94L82.04,86.00"/><path style="stroke:#000000;stroke-width:0.088" d="M81.94,86.01L82.05,85.99"/><path style="stroke:#000000;stroke-width:0.088" d="M82.18,86.27L82.34,86.23L82.43,86.19"/><path style="stroke:#000000;stroke-width:0.088" d="M82.44,86.51L82.63,86.45L82.64,86.44"/><path style="stroke:#000000;stroke-width:0.088" d="M82.18,85.26L82.40,85.18"/><path style="stroke:#000000;stroke-width:0.088" d="M81.84,85.37L82.09,85.30"/><path style="stroke:#000000;stroke-width:0.088" d="M82.06,85.66L82.01,85.68L81.98,85.68"/><path style="stroke:#000000;stroke-width:0.088" d="M82.39,85.53L82.40,85.53"/><path style="stroke:#000000;stroke-width:0.088" d="M81.87,85.39L82.02,85.36L82.18,85.29"/><path style="stroke:#000000;stroke-width:0.088" d="M82.41,85.52L82.31,85.58L82.13,85.63"/><path style="stroke:#000000;stroke-width:0.088" d="M82.52,85.82L82.46,85.84"/><path style="stroke:#000000;stroke-width:0.088" d="M82.50,85.82L82.50,85.82"/><path style="stroke:#000000;stroke-width:0.088" d="M82.40,85.20L82.37,85.21"/><path style="stroke:#000000;stroke-width:0.088" d="M82.25,84.93L82.27,84.93"/><path style="stroke:#000000;stroke-width:0.088" d="M81.92,84.73L81.97,84.72L82.01,84.70"/><path style="stroke:#000000;stroke-width:0.088" d="M82.22,84.95L82.19,84.96L82.15,84.97"/><path style="stroke:#000000;stroke-width:0.088" d="M82.15,83.92L82.03,83.99"/><path style="stroke:#000000;stroke-width:0.088" d="M82.14,83.97L82.13,83.98L82.10,83.99"/><path style="stroke:#000000;stroke-width:0.088" d="M81.95,84.05L81.99,84.05"/><path style="stroke:#000000;stroke-width:0.088" d="M81.93,84.06L81.98,84.05"/><path style="stroke:#000000;stroke-width:0.088" d="M82.15,83.95L82.16,83.94"/><path style="stroke:#000000;stroke-width:0.088" d="M82.04,84.02L81.97,84.06L81.85,84.10"/><path style="stroke:#000000;stroke-width:0.088" d="M82.22,84.27L82.16,84.30"/><path style="stroke:#000000;stroke-width:0.088" d="M82.01,83.66L82.00,83.66"/><path style="stroke:#000000;stroke-width:0.088" d="M81.92,83.70L81.95,83.68"/><path style="stroke:#000000;stroke-width:0.088" d="M81.88,83.76L81.92,83.74L81.94,83.73"/><path style="stroke:#000000;stroke-width:0.088" d="M81.96,83.38L81.93,83.40L81.83,83.44"/><path style="stroke:#000000;stroke-width:0.088" d="M81.98,83.02L81.98,83.02"/><path style="stroke:#000000;stroke-width:0.088" d="M81.98,83.02L81.96,83.03"/><path style="stroke:#000000;stroke-width:0.088" d="M82.53,87.67L82.60,87.83"/><path style="stroke:#000000;stroke-width:0.088" d="M71.82,50.04L70.65,50.80L69.68,52.73L69.59,53.77"/><path style="stroke:#000000;stroke-width:0.088" d="M83.14,59.14L82.96,58.49L82.73,57.92L81.14,54.97L79.07,52.44L76.73,50.61L74.96,49.91"/><path style="stroke:#000000;stroke-width:0.088" d="M74.91,49.49L77.14,50.37L79.48,52.20L81.55,54.73L83.14,57.68L83.37,58.26L83.80,59.78"/><path style="stroke:#000000;stroke-width:0.088" d="M75.70,49.80L79.86,47.45L80.12,47.31L81.92,47.41L83.88,48.33L85.79,49.97L87.14,51.75L87.45,52.15L88.67,54.63L89.33,57.15L89.35,59.43L89.20,59.88"/><path style="stroke:#000000;stroke-width:0.088" d="M89.72,59.58L89.76,59.47L89.74,57.11L89.06,54.50L87.79,51.93L86.08,49.68L84.10,47.98L82.07,47.03L80.22,46.93L78.73,47.68L78.41,48.21L76.17,49.53"/><path style="stroke:#000000;stroke-width:0.088" d="M76.95,52.94L78.33,53.99L79.89,55.84L80.06,56.13"/><path style="stroke:#000000;stroke-width:0.088" d="M76.86,48.36L76.67,49.24"/><path style="stroke:#000000;stroke-width:0.088" d="M78.41,48.21L78.69,48.04L79.86,47.45"/><path style="stroke:#000000;stroke-width:0.088" d="M78.69,48.04L78.75,47.99"/><path style="stroke:#000000;stroke-width:0.088" d="M90.78,58.97L90.82,58.03L90.16,55.02L89.96,54.45L88.80,51.99L86.89,49.27L84.62,47.15L82.24,45.87L81.38,45.74"/><path style="stroke:#000000;stroke-width:0.088" d="M91.19,58.73L91.23,57.80L90.58,54.78L90.37,54.21L89.22,51.75L87.30,49.03L85.03,46.91L82.66,45.63L81.79,45.51"/><path style="stroke:#000000;stroke-width:0.088" d="M87.96,63.94L88.26,63.91L88.67,63.67L90.22,62.50L90.53,61.79"/><path style="stroke:#000000;stroke-width:0.088" d="M88.26,63.91L89.81,62.73L90.12,62.03"/><path style="stroke:#000000;stroke-width:0.088" d="M83.42,91.67L83.44,91.70L83.64,92.15L83.63,92.24L83.55,92.18L83.43,92.01L83.29,91.69"/><path style="stroke:#000000;stroke-width:0.088" d="M83.64,92.15L84.03,92.16L84.52,91.99L84.79,91.74L84.66,91.42"/><path style="stroke:#000000;stroke-width:0.088" d="M84.03,92.16L83.80,92.22L83.63,92.24"/><path style="stroke:#000000;stroke-width:0.088" d="M83.44,91.70L83.49,91.65"/><path style="stroke:#000000;stroke-width:0.088" d="M84.52,91.99L84.83,91.85L85.13,91.71L85.53,91.48L85.68,91.36L85.74,91.28L85.75,91.20"/><path style="stroke:#000000;stroke-width:0.088" d="M84.79,91.74L85.13,91.71"/><path style="stroke:#000000;stroke-width:0.088" d="M85.53,91.48L85.74,91.20"/><path style="stroke:#000000;stroke-width:0.088" d="M73.42,47.00L81.12,42.55L81.40,42.49L81.73,42.57L82.02,42.76L82.07,42.78L82.38,43.11L82.64,43.52L82.81,43.95L82.87,44.38L82.83,44.74L82.67,45.00L74.91,49.49"/><path style="stroke:#000000;stroke-width:0.088" d="M74.56,48.00L74.62,48.08L74.68,48.21L74.80,48.51L74.88,48.94L74.86,49.13"/><path style="stroke:#000000;stroke-width:0.088" d="M81.73,42.57L81.77,42.59L82.10,42.80L82.40,43.12L82.50,43.27L82.65,43.51L82.81,43.92L82.87,44.33L82.87,44.38"/><path style="stroke:#000000;stroke-width:0.088" d="M72.27,60.03L72.12,59.70L72.12,59.56L72.25,59.07L72.54,58.74L72.94,58.62L73.43,58.72L73.93,59.02L74.12,59.17L75.21,61.53L75.16,61.94L74.95,62.35L74.60,62.58L74.15,62.59L73.64,62.39L73.21,62.06L72.27,60.03"/><path style="stroke:#000000;stroke-width:0.088" d="M72.54,58.74L74.29,57.73"/><path style="stroke:#000000;stroke-width:0.088" d="M74.12,59.17L75.75,58.23"/><path style="stroke:#000000;stroke-width:0.088" d="M74.60,62.58L76.98,61.20"/><path style="stroke:#000000;stroke-width:0.088" d="M75.21,61.53L76.84,60.59"/><path style="stroke:#000000;stroke-width:0.088" d="M77.30,54.09L87.07,63.61L87.49,63.37L88.06,64.05L88.50,64.85L88.79,65.68L88.88,66.47L88.76,67.14L88.35,67.37L87.25,70.44L87.02,71.78L87.20,73.35L87.77,75.02L88.66,76.61L89.80,77.96L91.07,78.95L92.35,79.48L93.51,79.50L94.44,79.00L95.04,78.04L96.48,74.04L96.63,73.80L97.05,73.56L97.28,73.43L97.57,73.44L97.89,73.57L98.20,73.82L100.98,76.53L101.29,76.90L101.52,77.33L101.65,77.78L101.67,78.20L101.26,78.43L100.34,82.89L98.71,86.68L96.41,89.70L96.21,89.83L95.95,89.84L95.66,89.75L95.36,89.55L76.04,73.45L70.29,60.98L69.41,58.47L69.11,56.08L69.42,54.04L70.32,52.56L70.73,52.32L72.12,51.55L73.87,51.56L75.80,52.36L77.71,53.85L77.30,54.09L75.38,52.59L73.46,51.80L71.71,51.79L70.43,52.50"/><path style="stroke:#000000;stroke-width:0.088" d="M73.60,58.13L73.61,58.05L73.68,57.93L73.80,57.86L74.96,57.55L75.11,57.55L75.27,57.62L75.43,57.74L75.57,57.90L75.68,58.10L75.75,58.23L76.90,60.73L76.97,60.93L76.99,61.13L76.97,61.30L76.90,61.42L76.78,61.49L76.22,61.64"/><path style="stroke:#000000;stroke-width:0.088" d="M74.30,69.08L74.34,68.77L74.47,68.55L74.68,68.44L74.94,68.45L75.23,68.57L75.51,68.81L75.75,69.12L75.94,69.49L76.04,69.86L76.05,70.19L75.96,70.46L75.79,70.63L75.55,70.69L75.28,70.62L74.99,70.43L74.72,70.15L74.50,69.81L74.47,69.74L74.36,69.44L74.30,69.08"/><path style="stroke:#000000;stroke-width:0.088" d="M74.03,57.80L74.01,57.89"/><path style="stroke:#000000;stroke-width:0.088" d="M75.43,71.72L75.55,72.09L75.76,72.44L76.01,72.74L76.30,72.95L76.58,73.04L76.83,73.02L77.02,72.87L77.13,72.62L77.14,72.30L77.06,71.93L76.98,71.73L76.89,71.57L76.66,71.24L76.38,70.98L76.09,70.83L75.83,70.79L75.60,70.88L75.45,71.07L75.39,71.37L75.43,71.72"/><path style="stroke:#000000;stroke-width:0.088" d="M75.41,68.73L75.33,68.73L75.22,68.79L75.15,68.90L75.13,69.07L75.16,69.26L75.23,69.45L75.35,69.63L75.49,69.78L75.64,69.88L75.79,69.92L75.91,69.89L76.00,69.80L76.01,69.77"/><path style="stroke:#000000;stroke-width:0.088" d="M76.50,71.09L76.45,71.08L76.33,71.13L76.25,71.23L76.22,71.39L76.24,71.57L76.31,71.78L76.41,71.96L76.55,72.11L76.70,72.22L76.85,72.28L76.98,72.26L77.08,72.18L77.10,72.13"/><path style="stroke:#000000;stroke-width:0.088" d="M76.96,61.31L76.64,61.40"/><path style="stroke:#000000;stroke-width:0.088" d="M77.71,53.85L87.49,63.37"/><path style="stroke:#000000;stroke-width:0.088" d="M83.84,63.63L83.81,63.28L83.86,63.02L83.87,62.99L84.02,62.79L84.24,62.71L84.51,62.74L84.80,62.90L85.07,63.15L85.31,63.48L85.39,63.65L85.47,63.85L85.55,64.22L85.54,64.54L85.43,64.79L85.25,64.93L85.00,64.96L84.72,64.86L84.43,64.65L84.17,64.36L83.97,64.00L83.84,63.63"/><path style="stroke:#000000;stroke-width:0.088" d="M84.92,63.01L84.86,63.00L84.74,63.04L84.67,63.15L84.63,63.30L84.65,63.49L84.72,63.69L84.82,63.87L84.96,64.03L85.11,64.14L85.26,64.19L85.39,64.18L85.49,64.10L85.52,64.05"/><path style="stroke:#000000;stroke-width:0.088" d="M87.25,70.44L87.66,70.20L87.44,71.54L87.60,72.95L87.61,73.12L88.18,74.78L89.08,76.37L90.22,77.73L91.48,78.72L92.76,79.25L93.92,79.26L94.45,78.98"/><path style="stroke:#000000;stroke-width:0.088" d="M87.07,63.61L87.64,64.29L88.09,65.08L88.37,65.92L88.46,66.71L88.35,67.37"/><path style="stroke:#000000;stroke-width:0.088" d="M87.66,70.20L88.76,67.14"/><path style="stroke:#000000;stroke-width:0.088" d="M94.77,87.00L94.71,86.89L94.61,86.62L94.57,86.36L94.59,86.13L94.68,85.97L97.05,82.13L98.39,77.23L98.46,77.04L98.58,76.91L98.75,76.87L98.95,76.91L99.16,77.03L99.36,77.22L99.53,77.46L99.65,77.73L99.72,78.00L99.72,78.24L98.30,83.42L95.79,87.47L95.65,87.57L95.47,87.58L95.26,87.50L95.05,87.36L94.86,87.14L94.77,87.00"/><path style="stroke:#000000;stroke-width:0.088" d="M94.68,85.97L95.09,85.73L97.46,81.89L98.80,76.99L98.39,77.23"/><path style="stroke:#000000;stroke-width:0.088" d="M95.09,85.73L95.00,85.90L94.98,86.12L95.02,86.38L95.12,86.65L95.27,86.91L95.46,87.12L95.67,87.27L95.87,87.34"/><path style="stroke:#000000;stroke-width:0.088" d="M96.61,89.59L96.62,89.59L96.21,89.83"/><path style="stroke:#000000;stroke-width:0.088" d="M96.41,89.70L96.82,89.47L96.62,89.59"/><path style="stroke:#000000;stroke-width:0.088" d="M96.63,73.80L96.87,73.67L97.16,73.68L97.47,73.81L97.79,74.06L100.57,76.76L100.88,77.14L101.11,77.57L101.24,78.02L101.26,78.43"/><path style="stroke:#000000;stroke-width:0.088" d="M101.67,78.20L100.75,82.65L99.12,86.44L96.82,89.47"/><path style="stroke:#000000;stroke-width:0.088" d="M97.79,74.06L98.20,73.82"/><path style="stroke:#000000;stroke-width:0.088" d="M98.80,76.99L98.84,76.89"/><path style="stroke:#000000;stroke-width:0.088" d="M100.57,76.76L100.98,76.53"/><path style="stroke:#000000;stroke-width:0.088" d="M89.09,85.31L88.84,84.72L88.77,84.27L88.78,84.29L88.84,84.30L88.96,84.27L89.01,84.26"/><path style="stroke:#000000;stroke-width:0.088" d="M88.84,84.72L88.85,84.74L88.93,84.74L89.06,84.71L89.24,84.66L89.32,84.63L89.24,84.66"/><path style="stroke:#000000;stroke-width:0.088" d="M89.32,84.63L89.35,84.62L89.34,84.53"/><path style="stroke:#000000;stroke-width:0.088" d="M88.91,84.18L88.77,84.27"/><path style="stroke:#000000;stroke-width:0.088" d="M89.35,84.62L89.54,85.06"/><path style="stroke:#000000;stroke-width:0.088" d="M91.79,87.86L92.85,90.28L92.85,90.32L92.78,90.41L92.72,90.46L92.61,90.54L92.45,90.62L92.27,90.71L92.08,90.79L91.91,90.85L91.77,90.88L91.68,90.89L91.56,90.89L91.52,90.87L90.46,88.45"/><path style="stroke:#000000;stroke-width:0.088" d="M92.85,90.32L92.79,90.39L92.65,90.47L92.47,90.57L92.26,90.67L92.04,90.77L91.84,90.84L91.67,90.88L91.56,90.89"/><path style="stroke:#000000;stroke-width:0.088" d="M83.01,89.80L82.41,88.43L82.34,87.98L82.35,88.01L82.42,88.01L82.53,87.99L82.68,87.94L82.85,87.88L82.92,88.33L82.82,88.37L82.64,88.42L82.54,88.44L82.50,88.45L82.42,88.45L82.41,88.43"/><path style="stroke:#000000;stroke-width:0.088" d="M82.34,87.98L82.87,87.67"/><path style="stroke:#000000;stroke-width:0.088" d="M83.12,88.77L82.92,88.33L82.82,88.37"/><path style="stroke:#000000;stroke-width:0.088" d="M82.85,87.88L82.91,87.84"/><path style="stroke:#000000;stroke-width:0.088" d="M85.37,91.57L86.42,93.99L86.43,94.03L86.36,94.10L86.26,94.17L86.23,94.19L86.04,94.29L85.83,94.39L85.61,94.48L85.41,94.55L85.25,94.59L85.14,94.60L85.10,94.58L84.04,92.16"/><path style="stroke:#000000;stroke-width:0.088" d="M85.14,94.60L85.25,94.60L85.35,94.59L85.48,94.56L85.66,94.50L85.84,94.42L86.02,94.34L86.18,94.25L86.29,94.18L86.35,94.12L86.43,94.03"/><path style="stroke:#000000;stroke-width:0.088" d="M111.04,86.66L110.65,86.72L110.34,86.95L110.14,87.33L110.22,88.70L110.47,89.31L110.83,89.87L111.26,90.34L112.40,90.91L112.80,90.85L113.02,90.68L113.11,90.61L113.30,90.23L113.22,88.86L112.97,88.26L112.78,87.95L112.61,87.70L112.19,87.22L111.04,86.66L112.00,86.11L112.20,85.97L112.46,85.84L112.70,85.79L112.99,85.79L113.25,85.84L113.47,85.93L113.62,86.06L113.67,86.21L113.63,86.36L113.60,86.41L113.49,86.51L113.29,86.63L113.14,86.67L112.19,87.22"/><path style="stroke:#000000;stroke-width:0.088" d="M110.65,86.72L124.34,78.81L124.74,78.75L123.79,79.30L123.97,79.26L124.25,79.24L124.53,79.28L124.76,79.36L124.92,79.48L125.00,79.63L124.98,79.78L124.93,79.86L125.88,79.31L124.74,78.75"/><path style="stroke:#000000;stroke-width:0.088" d="M113.43,86.55L113.51,86.46L113.55,86.32L113.50,86.20L113.38,86.09L113.19,86.01L112.97,85.97L112.72,85.97L112.49,86.02L112.29,86.10L112.14,86.22L112.07,86.34L112.08,86.47L112.16,86.59L112.23,86.64"/><path style="stroke:#000000;stroke-width:0.088" d="M113.14,86.67L113.04,86.70L112.75,86.73L112.47,86.70L112.23,86.63L112.04,86.52L111.94,86.38L111.93,86.23L112.00,86.11"/><path style="stroke:#000000;stroke-width:0.088" d="M112.46,85.84L117.66,82.83L117.87,82.70L118.12,82.57L118.37,82.52L118.65,82.52L118.92,82.57L119.14,82.66L119.28,82.79L119.34,82.93L119.30,83.09L119.27,83.14L119.16,83.24L118.95,83.35L118.81,83.40L113.60,86.41"/><path style="stroke:#000000;stroke-width:0.088" d="M112.80,90.85L126.50,82.93L126.81,82.70L127.00,82.32L113.30,90.23"/><path style="stroke:#000000;stroke-width:0.088" d="M113.22,88.86L126.92,80.95L126.67,80.35L126.31,79.79L125.88,79.31"/><path style="stroke:#000000;stroke-width:0.088" d="M118.81,83.40L118.70,83.43L118.42,83.45L118.14,83.43L117.89,83.36L117.71,83.25L117.61,83.11L117.60,82.96L117.66,82.83"/><path style="stroke:#000000;stroke-width:0.088" d="M117.90,83.36L117.83,83.32L117.74,83.20L117.74,83.18L117.74,83.20"/><path style="stroke:#000000;stroke-width:0.088" d="M117.74,83.16L117.74,83.18L117.73,83.07L117.81,82.94L117.95,82.83L118.15,82.75L118.39,82.70L118.63,82.70L118.86,82.74L119.04,82.82L119.16,82.93L119.21,83.05L119.18,83.18L119.10,83.27"/><path style="stroke:#000000;stroke-width:0.088" d="M118.12,82.57L123.33,79.56L123.26,79.72L123.29,79.87L123.41,80.01L123.61,80.11L123.86,80.17L124.14,80.18L124.43,80.14L124.47,80.13L119.27,83.14"/><path style="stroke:#000000;stroke-width:0.088" d="M123.51,80.06L123.42,79.96L123.39,79.83L123.45,79.70L123.58,79.58L123.61,79.56L123.77,79.49L124.00,79.44L124.24,79.42L124.45,79.45L124.47,79.46L124.67,79.53L124.81,79.63L124.87,79.75L124.86,79.88L124.78,79.99"/><path style="stroke:#000000;stroke-width:0.088" d="M123.33,79.56L123.49,79.45L123.79,79.30"/><path style="stroke:#000000;stroke-width:0.088" d="M124.93,79.86L124.86,79.94L124.67,80.06L124.47,80.13"/><path style="stroke:#000000;stroke-width:0.088" d="M127.00,82.32L126.92,80.95"/><path style="stroke:#000000;stroke-width:0.088" d="M29.39,75.75L29.56,75.47L30.30,74.81L31.30,74.31L33.56,74.26L35.28,74.88L35.17,74.95L35.06,75.08L34.96,75.25L34.91,75.43L34.89,75.61L33.41,75.06L31.37,75.01L31.29,75.03L29.66,75.98L28.66,77.78L28.38,80.26L28.85,83.12L30.01,86.06L29.91,86.09L28.93,83.79L28.35,81.48L28.20,79.56L28.45,77.63L28.47,77.54L29.15,75.99L30.23,74.91L31.63,74.37L31.73,74.35"/><path style="stroke:#000000;stroke-width:0.088" d="M29.91,86.09L44.32,114.23L44.43,114.46L44.54,114.43L30.01,86.06"/><path style="stroke:#000000;stroke-width:0.088" d="M31.30,74.31L34.06,72.72L36.32,72.67L38.04,73.28L35.28,74.88L73.22,93.71L73.11,93.79L72.99,93.94L72.89,94.12L72.84,94.30L72.84,94.44L34.89,75.61"/><path style="stroke:#000000;stroke-width:0.088" d="M31.49,89.18L31.56,89.32L31.42,89.05"/><path style="stroke:#000000;stroke-width:0.088" d="M38.04,73.28L63.64,85.99L64.59,85.45L76.93,91.57L73.22,93.71L73.75,94.05L74.42,94.73L74.96,95.58L75.31,96.50L75.42,97.19L79.13,95.04L80.99,126.98L80.94,127.69L80.69,128.23L80.26,128.54L79.85,128.78L80.27,128.46L80.53,127.92L80.58,127.21L80.99,126.98"/><path style="stroke:#000000;stroke-width:0.088" d="M44.43,114.46L44.72,114.94L45.14,115.47L45.61,115.89L46.01,116.14L46.13,116.20"/><path style="stroke:#000000;stroke-width:0.088" d="M46.01,116.14L45.95,116.04L45.92,115.90L45.45,115.59L44.95,115.07L44.54,114.43"/><path style="stroke:#000000;stroke-width:0.088" d="M46.11,116.20L62.69,124.43L62.60,124.37L62.54,124.30L62.52,124.27L62.49,124.13L45.92,115.90"/><path style="stroke:#000000;stroke-width:0.088" d="M49.77,89.86L49.51,89.41L49.29,88.76L49.22,88.14L49.32,87.62L49.58,87.26L49.96,87.10L50.44,87.16L50.94,87.42L51.43,87.87L51.85,88.44L52.15,89.09L52.30,89.74L52.31,89.85L52.28,90.32L52.10,90.76L51.82,90.99L51.77,91.02L51.34,91.08L50.84,90.91L50.33,90.55L49.88,90.04L49.77,89.86"/><path style="stroke:#000000;stroke-width:0.088" d="M62.49,124.13L62.96,124.27L63.40,124.21L63.79,123.92L63.98,123.50L64.03,122.98L63.27,110.08L63.32,109.41L63.56,108.90L63.97,108.59L64.49,108.53L65.09,108.72L65.12,108.86L65.18,108.96L65.30,109.02"/><path style="stroke:#000000;stroke-width:0.088" d="M62.69,124.43L63.13,124.58L63.23,124.60L63.68,124.62L63.78,124.61"/><path style="stroke:#000000;stroke-width:0.088" d="M63.27,110.08L63.42,110.13L63.59,110.16L63.77,110.15L63.95,110.11L64.09,110.05L64.85,122.94L64.82,123.54L64.58,124.14L64.16,124.49L64.08,124.50L63.81,124.60"/><path style="stroke:#000000;stroke-width:0.088" d="M64.03,122.98L64.17,123.03L64.35,123.05L64.53,123.05L64.70,123.01L64.85,122.94L68.14,121.04L67.50,110.12L65.28,109.02L64.78,108.86"/><path style="stroke:#000000;stroke-width:0.088" d="M64.59,108.91L64.33,109.11L64.14,109.52L64.09,110.05L65.60,109.18"/><path style="stroke:#000000;stroke-width:0.088" d="M64.16,124.49L67.39,122.62L67.85,122.27L68.11,121.65L68.14,121.04"/><path style="stroke:#000000;stroke-width:0.088" d="M64.32,109.13L64.69,108.90L64.84,108.88"/><path style="stroke:#000000;stroke-width:0.088" d="M64.69,108.90L64.50,108.92"/><path style="stroke:#000000;stroke-width:0.088" d="M65.09,108.72L75.57,113.92L75.81,114.21L76.02,114.35L76.19,114.41L76.32,114.42L76.42,114.38L79.72,112.48L80.58,127.21"/><path style="stroke:#000000;stroke-width:0.088" d="M79.85,128.78L79.30,128.85L78.67,128.65L66.98,122.85"/><path style="stroke:#000000;stroke-width:0.088" d="M76.02,114.35L67.50,110.12"/><path style="stroke:#000000;stroke-width:0.088" d="M76.42,114.38L75.42,97.19L75.29,97.24L75.10,97.29L74.90,97.29L74.71,97.26L74.60,97.22L74.47,96.54L74.18,95.84L73.76,95.21L73.25,94.70L72.84,94.44"/><path style="stroke:#000000;stroke-width:0.088" d="M74.60,97.22L75.57,113.92"/><path style="stroke:#000000;stroke-width:0.088" d="M76.93,91.57L77.47,91.92L78.14,92.60L78.67,93.45L79.02,94.36L79.13,95.04"/><path style="stroke:#000000;stroke-width:0.088" d="M82.68,42.19L82.70,42.18L82.72,42.18L82.94,42.20L83.17,42.32L83.18,42.33L83.40,42.53L83.59,42.79L83.73,43.08L83.80,43.37L83.79,43.65L83.71,43.86L83.70,43.87L83.68,43.89L83.77,43.68L83.77,43.64L83.77,43.41L83.70,43.11L83.56,42.80L83.36,42.54L83.14,42.33L82.90,42.21L82.68,42.19L82.50,42.26L82.40,42.32"/><path style="stroke:#000000;stroke-width:0.088" d="M82.50,42.26L82.50,42.26"/><path style="stroke:#000000;stroke-width:0.088" d="M83.68,43.89L83.53,44.01L83.34,44.13"/><path style="stroke:#000000;stroke-width:0.088" d="M71.98,49.20L71.48,51.91"/><path style="stroke:#000000;stroke-width:0.088" d="M76.04,52.54L75.04,51.27L74.81,50.92L74.64,50.54L74.55,50.16L74.40,48.97L74.30,48.56L74.11,48.15L73.85,47.78L73.54,47.48L73.22,47.30L73.11,47.26L72.81,47.19L72.55,47.25L72.37,47.43L72.26,47.71L72.16,48.25"/><path style="stroke:#000000;stroke-width:0.088" d="M72.55,47.25L72.97,47.02L73.22,46.96L73.52,47.02L73.11,47.26"/><path style="stroke:#000000;stroke-width:0.088" d="M73.22,47.30L73.63,47.06L73.52,47.02"/><path style="stroke:#000000;stroke-width:0.088" d="M73.63,47.06L73.95,47.25L74.26,47.54L74.52,47.91L74.71,48.32L74.81,48.73L74.40,48.97"/><path style="stroke:#000000;stroke-width:0.088" d="M74.81,48.73L74.96,49.92L74.55,50.16"/><path style="stroke:#000000;stroke-width:0.088" d="M74.96,49.92L75.05,50.30L75.22,50.68L75.45,51.04L77.59,53.75"/><path style="stroke:#000000;stroke-width:0.088" d="M75.04,51.27L75.45,51.04"/><path style="stroke:#000000;stroke-width:0.088" d="M80.85,77.46L81.83,82.24L82.95,88.08L83.01,88.31L83.10,88.54L84.38,91.47L85.82,91.18L86.16,91.02L86.57,90.78L86.81,90.44L86.91,89.97L86.86,89.40L86.45,89.64L86.49,90.21L86.39,90.68L86.16,91.02"/><path style="stroke:#000000;stroke-width:0.088" d="M83.86,89.93L83.83,89.83L83.78,89.47L83.83,89.17L83.97,88.96L84.18,88.86L84.45,88.88L84.74,89.02L85.01,89.27L85.23,89.55L85.25,89.59L85.43,89.95L85.52,90.32L85.52,90.65L85.43,90.91L85.25,91.07L85.00,91.11L84.72,91.03L84.44,90.83L84.17,90.55L83.96,90.20L83.93,90.13L83.86,89.93"/><path style="stroke:#000000;stroke-width:0.088" d="M85.49,90.20L85.48,90.24L85.38,90.32L85.25,90.34L85.10,90.30L84.95,90.20L84.81,90.04L84.70,89.86L84.63,89.66L84.61,89.47L84.63,89.32L84.71,89.20L84.82,89.15L84.89,89.16"/><path style="stroke:#000000;stroke-width:0.088" d="M84.73,80.69L86.45,89.64"/><path style="stroke:#000000;stroke-width:0.088" d="M86.86,89.40L85.28,81.15"/><path style="stroke:#000000;stroke-width:0.088" d="M82.89,90.71L82.71,90.57L82.52,90.13L82.58,90.00L82.76,90.02L82.94,90.16L83.14,90.61L83.07,90.73"/><path style="stroke:#000000;stroke-width:0.088" d="M82.76,90.02L82.97,89.97L83.24,89.89L83.30,89.86"/><path style="stroke:#000000;stroke-width:0.088" d="M82.58,90.00L82.59,89.94L82.69,89.85L82.95,89.68"/><path style="stroke:#000000;stroke-width:0.088" d="M82.94,90.16L83.24,89.89"/><path style="stroke:#000000;stroke-width:0.088" d="M83.14,90.61L83.55,90.60"/><path style="stroke:#000000;stroke-width:0.088" d="M82.59,89.94L82.52,90.13L82.52,90.13"/><path style="stroke:#000000;stroke-width:0.088" d="M83.15,89.81L83.12,89.82L83.12,89.82"/><path style="stroke:#000000;stroke-width:0.088" d="M83.03,89.82L83.03,89.82L83.04,89.82"/><path style="stroke:#000000;stroke-width:0.088" d="M83.27,89.79L83.26,89.79"/><path style="stroke:#000000;stroke-width:0.088" d="M86.33,86.63L86.57,86.53L86.90,86.37L87.20,86.20L87.41,86.06L87.53,85.96L87.53,85.92L86.51,83.73"/><path style="stroke:#000000;stroke-width:0.088" d="M87.53,85.92L87.53,85.91L86.52,83.73"/><path style="stroke:#000000;stroke-width:0.088" d="M87.53,86.04L87.53,85.91"/><path style="stroke:#000000;stroke-width:0.088" d="M87.52,85.91L87.27,85.37"/><path style="stroke:#000000;stroke-width:0.088" d="M118.97,99.55L119.07,99.77L119.43,100.34L119.85,100.81L121.00,101.38L121.40,101.31L121.71,101.08L121.90,100.70L121.82,99.33L121.57,98.73L121.36,98.41L121.21,98.17L120.78,97.69L119.64,97.12L119.24,97.19L118.93,97.42L118.74,97.80L118.82,99.17L118.97,99.55"/><path style="stroke:#000000;stroke-width:0.088" d="M119.24,97.19L132.94,89.28L133.34,89.21L132.38,89.76L132.56,89.73L132.85,89.71L133.13,89.75L133.36,89.83L133.52,89.95L133.59,90.10L133.58,90.25L133.53,90.33L134.48,89.78L133.34,89.21"/><path style="stroke:#000000;stroke-width:0.088" d="M119.64,97.12L120.59,96.57L120.80,96.44L121.05,96.31L121.30,96.26L121.59,96.26L121.85,96.31L122.07,96.40L122.21,96.53L122.27,96.67L122.23,96.83L122.20,96.88L122.09,96.98L121.89,97.09L121.74,97.14L120.78,97.69"/><path style="stroke:#000000;stroke-width:0.088" d="M121.74,97.14L121.63,97.17L121.35,97.19L121.07,97.17L120.82,97.10L120.64,96.99L120.54,96.85L120.53,96.70L120.59,96.57"/><path style="stroke:#000000;stroke-width:0.088" d="M120.83,97.10L120.76,97.06L120.67,96.94L120.67,96.81L120.74,96.68L120.88,96.57L121.08,96.49L121.32,96.44L121.56,96.44L121.71,96.47L121.79,96.48L121.97,96.56L122.10,96.67L122.14,96.79L122.11,96.92L122.03,97.01"/><path style="stroke:#000000;stroke-width:0.088" d="M121.05,96.31L126.26,93.30L126.46,93.16L126.72,93.04L131.92,90.03L132.08,89.92L132.38,89.76"/><path style="stroke:#000000;stroke-width:0.088" d="M121.90,100.70L135.60,92.79L135.40,93.17L135.09,93.40L121.40,101.31"/><path style="stroke:#000000;stroke-width:0.088" d="M121.82,99.33L135.52,91.42L135.27,90.82L135.18,90.68L134.91,90.25L134.48,89.78"/><path style="stroke:#000000;stroke-width:0.088" d="M122.20,96.88L127.40,93.87L127.55,93.82L127.75,93.71L127.86,93.60L127.89,93.56L127.93,93.40L127.88,93.25L127.73,93.13L127.52,93.03L127.25,92.99L126.96,92.99L126.72,93.04"/><path style="stroke:#000000;stroke-width:0.088" d="M126.26,93.30L126.20,93.43L126.20,93.58L126.31,93.72L126.49,93.83L126.73,93.90L127.01,93.92L127.30,93.89L127.40,93.87"/><path style="stroke:#000000;stroke-width:0.088" d="M126.50,93.83L126.42,93.79L126.34,93.67L126.33,93.54L126.40,93.41L126.55,93.30L126.75,93.22L126.98,93.17L127.23,93.17L127.45,93.21L127.64,93.29L127.76,93.39L127.81,93.52L127.78,93.65L127.69,93.74"/><path style="stroke:#000000;stroke-width:0.088" d="M126.34,93.63L126.34,93.67L126.34,93.63"/><path style="stroke:#000000;stroke-width:0.088" d="M127.86,93.60L133.07,90.60L133.27,90.53L133.46,90.41L133.53,90.33"/><path style="stroke:#000000;stroke-width:0.088" d="M133.07,90.60L133.02,90.61L132.74,90.65L132.46,90.64L132.20,90.58L132.00,90.48L131.88,90.34L131.85,90.19L131.92,90.03"/><path style="stroke:#000000;stroke-width:0.088" d="M133.37,90.46L133.45,90.35L133.47,90.22L133.41,90.10L133.27,89.99L133.07,89.92L132.84,89.89L132.60,89.91L132.37,89.96L132.21,90.03L132.18,90.05L132.05,90.17L131.99,90.30L132.02,90.43L132.11,90.53"/><path style="stroke:#000000;stroke-width:0.088" d="M135.60,92.79L135.52,91.42"/><path style="stroke:#000000;stroke-width:0.088" d="M87.44,48.23L87.03,48.47L96.80,58.00L97.21,57.76L87.44,48.23L85.52,46.74L83.90,46.07"/><path style="stroke:#000000;stroke-width:0.088" d="M87.03,48.47L85.10,46.97"/><path style="stroke:#000000;stroke-width:0.088" d="M88.90,70.45L87.88,69.60"/><path style="stroke:#000000;stroke-width:0.088" d="M95.73,76.14L93.37,74.17"/><path style="stroke:#000000;stroke-width:0.088" d="M110.29,71.15L110.60,71.52L110.83,71.96L110.96,72.41L110.98,72.82L111.39,72.58L111.38,72.17L111.24,71.72L111.01,71.28L110.71,70.91L110.29,71.15L107.51,68.44L107.20,68.19L106.88,68.06L106.59,68.06L106.36,68.18L106.20,68.42L104.76,72.42L104.16,73.39L103.23,73.88L102.07,73.87L100.79,73.34L99.52,72.35L98.39,70.99L97.49,69.40L96.93,67.74L96.75,66.16L96.97,64.82L98.07,61.76L98.19,61.09L98.10,60.30L97.81,59.47L97.37,58.67L96.80,58.00"/><path style="stroke:#000000;stroke-width:0.088" d="M96.97,64.82L97.38,64.59L97.16,65.92L97.34,67.50L97.90,69.17L98.80,70.75L99.94,72.11L101.21,73.10L102.48,73.63L103.64,73.65L104.17,73.36"/><path style="stroke:#000000;stroke-width:0.088" d="M97.38,64.59L98.49,61.52L98.07,61.76"/><path style="stroke:#000000;stroke-width:0.088" d="M98.49,61.52L98.60,60.85L98.51,60.06L98.23,59.23L97.89,58.64L97.78,58.44L97.21,57.76"/><path style="stroke:#000000;stroke-width:0.088" d="M99.44,79.24L98.42,78.39"/><path style="stroke:#000000;stroke-width:0.088" d="M106.33,83.98L106.36,83.96L105.93,84.21L105.67,84.23L105.38,84.13L105.08,83.94L101.16,80.67"/><path style="stroke:#000000;stroke-width:0.088" d="M104.32,80.52L104.29,80.74L104.33,81.00L104.43,81.27L104.58,81.53L104.77,81.74L104.98,81.89L105.19,81.96L105.37,81.95L105.51,81.86L108.02,77.80L109.44,72.62L109.44,72.38L109.37,72.11L109.25,71.85L109.08,71.61L108.88,71.42L108.67,71.29L108.47,71.25L108.30,71.30L108.18,71.42L108.12,71.62L106.78,76.52L104.40,80.35L104.32,80.52"/><path style="stroke:#000000;stroke-width:0.088" d="M105.60,81.72L105.39,81.65L105.19,81.50L105.00,81.29L104.84,81.04L104.74,80.77L104.70,80.51L104.73,80.28L104.82,80.11L104.40,80.35"/><path style="stroke:#000000;stroke-width:0.088" d="M108.12,71.62L108.53,71.38L107.19,76.28L104.82,80.11"/><path style="stroke:#000000;stroke-width:0.088" d="M106.14,84.09L108.43,81.06L110.06,77.27L110.98,72.82"/><path style="stroke:#000000;stroke-width:0.088" d="M105.93,84.21L106.34,83.97"/><path style="stroke:#000000;stroke-width:0.088" d="M106.36,83.96L106.55,83.85L108.84,80.83L110.47,77.03L111.39,72.58"/><path style="stroke:#000000;stroke-width:0.088" d="M106.36,68.18L106.77,67.94L107.00,67.82L107.29,67.82L107.61,67.96L107.93,68.20L107.51,68.44"/><path style="stroke:#000000;stroke-width:0.088" d="M107.93,68.20L110.71,70.91"/><path style="stroke:#000000;stroke-width:0.088" d="M108.53,71.38L108.56,71.27"/><path style="stroke:#000000;stroke-width:0.088" d="M85.85,84.11L87.61,83.09"/><path style="stroke:#000000;stroke-width:0.088" d="M85.85,84.11L87.61,83.09"/><path style="stroke:#000000;stroke-width:0.088" d="M86.42,82.10L85.56,82.60"/><path style="stroke:#000000;stroke-width:0.088" d="M90.06,88.53L90.22,88.51L90.45,88.45L90.06,88.44L90.06,88.53L89.97,88.47L89.96,88.46"/><path style="stroke:#000000;stroke-width:0.088" d="M90.45,88.45L90.95,88.27L91.26,88.14L91.55,88.00L91.22,88.02L90.95,88.27"/><path style="stroke:#000000;stroke-width:0.088" d="M90.06,88.44L90.05,88.41"/><path style="stroke:#000000;stroke-width:0.088" d="M91.22,88.02L91.12,87.79"/><path style="stroke:#000000;stroke-width:0.088" d="M91.55,88.00L91.96,87.76L92.17,87.47L92.17,87.57L92.11,87.65L91.96,87.76"/><path style="stroke:#000000;stroke-width:0.088" d="M92.17,87.47L92.07,87.24"/><path style="stroke:#000000;stroke-width:0.088" d="M82.40,91.87L82.05,91.08L83.69,90.75L82.89,88.91L83.23,88.84L84.38,91.47L82.40,91.87"/><path style="stroke:#000000;stroke-width:0.088" d="M82.05,91.08L82.81,90.65"/><path style="stroke:#000000;stroke-width:0.088" d="M82.89,88.91L83.18,88.73"/><path style="stroke:#000000;stroke-width:0.088" d="M85.46,90.08L85.40,90.10L85.29,90.08L85.18,90.01L85.07,89.91L84.98,89.77L84.94,89.71L84.91,89.63L84.89,89.48L84.89,89.35L84.94,89.26L84.98,89.23"/><path style="stroke:#000000;stroke-width:0.088" d="M90.02,85.10L86.44,87.18"/><path style="stroke:#000000;stroke-width:0.088" d="M86.84,90.26L92.38,87.07"/><path style="stroke:#000000;stroke-width:0.088" d="M89.80,84.91L89.39,85.15L89.03,85.34L88.63,85.53L88.21,85.70L87.82,85.83L87.53,85.91"/><path style="stroke:#000000;stroke-width:0.088" d="M71.96,49.09L72.07,49.37L72.24,49.63L72.44,49.84L72.65,49.97L72.86,50.02L73.04,49.98L73.17,49.85L73.23,49.64L73.22,49.39L73.14,49.11L73.00,48.83L72.81,48.60L72.60,48.42L72.39,48.33L72.19,48.33L72.19,48.33L72.04,48.42L71.94,48.59L71.91,48.82L71.96,49.09"/><path style="stroke:#000000;stroke-width:0.088" d="M72.54,48.74L72.50,48.74L72.44,48.75L72.36,48.77L72.25,48.81L72.22,48.90L72.22,49.01L72.24,49.13L72.28,49.24L72.31,49.11L72.31,49.00L72.29,48.91L72.25,48.81L72.30,48.75L72.36,48.71L72.45,48.71L72.54,48.74L72.63,48.79L72.72,48.88L72.80,48.98L72.86,49.09L72.91,49.21L72.93,49.33L72.93,49.44L72.90,49.53L72.85,49.59L72.78,49.62L72.70,49.63L72.61,49.60L72.52,49.54L72.43,49.46L72.35,49.36L72.28,49.24L72.41,49.32L72.50,49.40L72.56,49.49L72.61,49.60L72.72,49.56L72.80,49.54L72.86,49.52L72.90,49.53L72.93,49.39L72.93,49.33"/><path style="stroke:#000000;stroke-width:0.088" d="M72.05,49.37L72.23,49.65L72.44,49.87L72.67,50.01L72.69,50.02L72.91,50.07L72.93,50.07L73.12,50.02L73.14,50.02L73.28,49.87L73.35,49.65L73.34,49.37L73.25,49.07L73.10,48.77L72.90,48.51L72.90,48.51L72.67,48.32L72.43,48.22L72.22,48.21L72.21,48.22L72.05,48.31L72.03,48.33L71.93,48.51L71.92,48.53L71.89,48.78L71.89,48.79L71.94,49.08L72.05,49.37"/><path style="stroke:#000000;stroke-width:0.088" d="M72.21,48.22L72.97,47.78L72.98,47.77L73.19,47.78L73.43,47.88L73.64,48.05L73.66,48.07L73.86,48.32L74.02,48.62L74.10,48.93L74.11,49.21L74.05,49.43L73.91,49.58L73.14,50.02"/><path style="stroke:#000000;stroke-width:0.088" d="M72.61,49.60L72.92,49.42"/><path style="stroke:#000000;stroke-width:0.088" d="M72.28,49.24L72.70,49.01L72.91,49.24"/><path style="stroke:#000000;stroke-width:0.088" d="M72.70,49.01L72.68,48.84"/><path style="stroke:#000000;stroke-width:0.088" d="M131.60,73.88L125.24,70.72L124.62,70.31L123.97,69.61L123.51,68.88L108.99,40.51L108.03,38.28L107.30,35.03L107.42,32.73L107.44,32.17L108.44,30.04L110.18,28.88L113.09,27.24L113.21,27.21L115.37,27.27L116.91,27.85L115.49,28.67L113.78,28.06L113.50,28.00L112.16,28.78L126.99,40.66L127.00,40.98L126.96,41.13L126.88,42.20L127.06,45.39L127.28,46.60L127.78,47.85L128.51,49.00L129.40,49.95L130.36,50.61L131.30,50.90L132.13,50.80L132.39,50.67L132.94,50.76L134.28,49.99L133.73,49.90L134.11,49.55L134.49,48.74L134.57,47.68L134.38,44.49L134.17,43.27L133.67,42.03L132.94,40.87L132.05,39.92L131.08,39.27L130.14,38.98L129.31,39.07L128.68,39.55L128.34,40.20L127.00,40.98"/><path style="stroke:#000000;stroke-width:0.088" d="M110.18,28.88L112.16,28.78"/><path style="stroke:#000000;stroke-width:0.088" d="M110.85,33.41L110.86,33.47L110.98,33.73L111.15,33.96L111.35,34.13L111.55,34.24L111.74,34.26L111.89,34.19L111.99,34.04L112.03,33.83L112.00,33.59L111.91,33.32L111.76,33.07L111.58,32.87L111.38,32.73L111.18,32.66L111.00,32.69L110.87,32.80L110.80,32.98L110.80,33.21L110.85,33.41"/><path style="stroke:#000000;stroke-width:0.088" d="M112.02,33.76L112.00,33.89L111.91,34.01L111.79,34.06L111.63,34.05L111.46,33.96L111.30,33.81L111.16,33.62L111.06,33.41L111.00,33.19L111.01,33.00L111.07,32.85L111.18,32.76L111.32,32.74L111.45,32.78"/><path style="stroke:#000000;stroke-width:0.088" d="M111.14,32.79L111.20,32.75"/><path style="stroke:#000000;stroke-width:0.088" d="M111.59,28.08L112.14,27.66L112.93,27.33"/><path style="stroke:#000000;stroke-width:0.088" d="M112.49,37.50L112.45,37.42L112.29,36.77L112.30,36.19L112.47,35.74L112.79,35.46L113.22,35.40L113.72,35.55L114.22,35.90L114.44,36.14L114.68,36.41L115.05,37.02L115.29,37.68L115.36,38.31L115.27,38.83L115.02,39.20L114.64,39.37L114.18,39.33L113.67,39.07L113.18,38.64L112.76,38.07L112.49,37.50"/><path style="stroke:#000000;stroke-width:0.088" d="M113.18,27.22L113.55,27.13L113.66,27.12L115.31,27.17L115.89,27.36"/><path style="stroke:#000000;stroke-width:0.088" d="M113.50,28.00L128.33,39.89L126.99,40.66"/><path style="stroke:#000000;stroke-width:0.088" d="M115.35,38.16L115.29,38.13L114.80,37.70L114.38,37.13L114.08,36.48L113.92,35.83L113.92,35.69"/><path style="stroke:#000000;stroke-width:0.088" d="M115.21,27.17L116.10,27.42L117.05,27.80L116.91,27.85L154.74,46.62L151.03,48.77L138.70,42.64L139.65,42.10L134.92,39.75L135.37,47.49L135.22,49.03L134.61,50.15L133.60,50.71L133.68,50.83L133.77,51.01L133.81,51.20L133.81,51.36L133.77,51.50L133.68,51.57L133.56,51.60L133.42,51.56L133.27,51.46L133.14,51.31L133.04,51.14L132.97,50.95L132.94,50.76"/><path style="stroke:#000000;stroke-width:0.088" d="M115.49,28.67L136.26,38.98L134.92,39.75"/><path style="stroke:#000000;stroke-width:0.088" d="M117.04,27.79L117.18,27.81L116.40,27.54"/><path style="stroke:#000000;stroke-width:0.088" d="M117.18,27.81L154.98,46.58L154.85,46.58L154.74,46.62L155.29,46.98L155.95,47.66L156.48,48.50L156.83,49.42L156.94,50.10L153.23,52.24L155.10,84.17L155.04,84.88L154.79,85.42L154.37,85.74L153.82,85.81L153.19,85.61L131.16,74.68L136.58,64.97L138.23,60.96L139.11,56.26L139.19,51.00L138.70,42.64"/><path style="stroke:#000000;stroke-width:0.088" d="M118.50,36.33L118.33,36.10L118.21,35.84L118.15,35.58L118.15,35.35L118.22,35.17L118.35,35.06L118.53,35.04L118.72,35.10L118.93,35.24L119.11,35.45L119.26,35.69L119.35,35.96L119.38,36.20L119.34,36.41L119.24,36.56L119.09,36.63L118.90,36.61L118.69,36.50L118.50,36.33"/><path style="stroke:#000000;stroke-width:0.088" d="M119.37,36.14L119.35,36.26L119.26,36.38L119.13,36.43L118.98,36.42L118.81,36.33L118.65,36.18L118.51,35.99L118.40,35.78L118.35,35.56L118.36,35.37L118.42,35.22L118.52,35.13L118.67,35.11L118.80,35.15"/><path style="stroke:#000000;stroke-width:0.088" d="M118.49,35.16L118.54,35.13"/><path style="stroke:#000000;stroke-width:0.088" d="M122.72,57.96L122.88,58.19L123.08,58.37L123.28,58.47L123.47,58.49L123.63,58.43L123.73,58.28L123.77,58.07L123.74,57.82L123.64,57.56L123.50,57.31L123.31,57.11L123.11,56.96L122.91,56.90L122.74,56.92L122.61,57.03L122.54,57.21L122.54,57.44L122.60,57.70L122.72,57.96"/><path style="stroke:#000000;stroke-width:0.088" d="M123.76,58.00L123.73,58.12L123.65,58.24L123.52,58.30L123.36,58.28L123.20,58.20L123.03,58.05L122.89,57.86L122.79,57.64L122.74,57.43L122.74,57.23L122.80,57.08L122.91,56.99L123.05,56.97L123.18,57.01"/><path style="stroke:#000000;stroke-width:0.088" d="M122.88,57.02L122.93,56.99"/><path style="stroke:#000000;stroke-width:0.088" d="M126.75,47.97L126.70,47.76L126.71,47.56L126.77,47.42L126.87,47.33L127.02,47.31L127.18,47.36L127.35,47.48L127.51,47.65L127.63,47.86L127.71,48.07L127.73,48.28L127.70,48.46L127.61,48.58L127.48,48.63L127.33,48.62L127.25,48.58L127.16,48.53L126.99,48.38L126.85,48.19L126.75,47.97"/><path style="stroke:#000000;stroke-width:0.088" d="M127.72,48.23L127.70,48.34L127.63,48.44L127.52,48.49L127.39,48.47L127.24,48.40L127.10,48.28L127.05,48.20L126.99,48.11L126.90,47.93L126.86,47.75L126.86,47.67L126.86,47.58L126.91,47.45L126.88,47.53"/><path style="stroke:#000000;stroke-width:0.088" d="M126.91,47.45L127.00,47.38L127.13,47.36L127.24,47.40"/><path style="stroke:#000000;stroke-width:0.088" d="M126.95,47.42L127.03,47.37"/><path style="stroke:#000000;stroke-width:0.088" d="M127.06,45.39L129.62,43.92L129.83,45.13L130.33,46.37L131.06,47.53L131.95,48.48L132.92,49.13L133.86,49.42L134.19,49.39"/><path style="stroke:#000000;stroke-width:0.088" d="M126.88,42.20L129.43,40.72L129.62,43.92"/><path style="stroke:#000000;stroke-width:0.088" d="M127.62,62.73L127.72,62.93L127.86,63.12L128.02,63.27L128.11,63.32L128.19,63.35L128.35,63.37L128.47,63.32L128.56,63.19L128.59,63.02L128.57,62.81L128.49,62.59L128.37,62.39L128.22,62.22L128.05,62.10L127.88,62.05L127.74,62.06L127.63,62.15L127.57,62.30L127.57,62.50L127.62,62.73"/><path style="stroke:#000000;stroke-width:0.088" d="M128.10,62.14L127.99,62.10L127.86,62.12L127.77,62.19L127.72,62.32L127.72,62.48L127.74,62.59L127.76,62.67L127.85,62.85L127.97,63.01L128.11,63.14L128.25,63.21L128.38,63.23L128.49,63.18L128.56,63.08L128.58,62.96"/><path style="stroke:#000000;stroke-width:0.088" d="M127.89,62.11L127.81,62.16"/><path style="stroke:#000000;stroke-width:0.088" d="M128.34,40.20L128.33,39.89"/><path style="stroke:#000000;stroke-width:0.088" d="M129.43,40.72L129.51,39.66L129.81,39.02"/><path style="stroke:#000000;stroke-width:0.088" d="M132.39,50.67L133.73,49.90"/><path style="stroke:#000000;stroke-width:0.088" d="M133.61,50.71L134.63,50.12"/><path style="stroke:#000000;stroke-width:0.088" d="M134.32,66.40L134.19,66.33L134.02,66.18L133.88,65.99L133.78,65.77L133.73,65.56L133.74,65.36L133.80,65.21L133.90,65.13L134.05,65.11L134.21,65.16L134.38,65.28L134.54,65.45L134.66,65.66L134.73,65.87L134.76,66.08L134.73,66.26L134.64,66.38L134.51,66.43L134.36,66.41L134.32,66.40"/><path style="stroke:#000000;stroke-width:0.088" d="M134.27,65.20L134.16,65.16L134.03,65.18L133.94,65.25L133.89,65.38L133.89,65.54L133.93,65.73L134.02,65.91L134.13,66.07L134.21,66.15L134.27,66.20L134.42,66.27L134.55,66.29L134.66,66.24L134.73,66.14L134.75,66.03"/><path style="stroke:#000000;stroke-width:0.088" d="M134.28,49.99L134.31,49.85L134.36,49.77L134.38,49.75L134.48,49.70L134.61,49.71L134.76,49.78L134.80,49.81"/><path style="stroke:#000000;stroke-width:0.088" d="M134.84,61.55L134.84,61.78L134.90,62.05L135.02,62.30L135.19,62.53L135.38,62.70L135.59,62.81L135.78,62.83L135.93,62.76L136.03,62.61L136.07,62.41L136.04,62.16L135.95,61.89L135.80,61.65L135.62,61.44L135.41,61.30L135.22,61.24L135.04,61.26L134.92,61.36L134.84,61.55"/><path style="stroke:#000000;stroke-width:0.088" d="M135.48,61.34L135.34,61.30L135.20,61.32L135.09,61.41L135.03,61.57L135.02,61.77L135.08,61.99L135.18,62.21L135.32,62.40L135.49,62.55L135.66,62.64L135.82,62.65L135.95,62.60L136.04,62.47L136.04,62.57"/><path style="stroke:#000000;stroke-width:0.088" d="M136.04,62.47L136.06,62.34"/><path style="stroke:#000000;stroke-width:0.088" d="M137.03,55.23L137.07,55.39L137.21,55.64L137.38,55.86L137.58,56.03L137.78,56.11L137.96,56.11L138.11,56.03L138.20,55.87L138.22,55.65L138.18,55.39L138.07,55.13L137.91,54.89L137.73,54.70L137.52,54.57L137.33,54.53L137.16,54.57L137.05,54.69L136.99,54.89L137.00,55.13L137.03,55.23"/><path style="stroke:#000000;stroke-width:0.088" d="M137.63,54.64L137.48,54.60L137.34,54.64L137.24,54.74L137.19,54.90L137.20,55.10L137.24,55.23L137.26,55.32L137.37,55.53L137.52,55.72L137.69,55.85L137.86,55.92L138.01,55.92L138.13,55.85L138.20,55.72L138.21,55.60"/><path style="stroke:#000000;stroke-width:0.088" d="M140.45,48.31L140.60,47.77L140.92,47.44L141.36,47.33L141.82,47.43L141.88,47.44L141.98,47.49L142.42,47.78L142.92,48.29L143.34,48.94L143.62,49.63L143.74,50.31L143.67,50.90L143.44,51.33L143.06,51.55L142.57,51.55L142.03,51.32L141.50,50.89L141.03,50.31L140.68,49.63L140.48,48.93L140.45,48.31"/><path style="stroke:#000000;stroke-width:0.088" d="M141.14,62.15L141.05,62.05L140.97,61.87L140.92,61.70L140.91,61.54L140.95,61.41L141.02,61.33L141.14,61.30L141.29,61.34L141.40,61.41L141.53,61.54L141.63,61.70L141.70,61.88L141.73,62.05L141.71,62.19L141.65,62.30L141.56,62.36L141.44,62.36L141.30,62.30L141.17,62.19L141.14,62.15"/><path style="stroke:#000000;stroke-width:0.088" d="M141.72,62.02L141.72,62.10L141.67,62.19L141.59,62.24L141.48,62.24L141.37,62.19L141.25,62.10L141.15,61.98L141.08,61.83L141.04,61.68L141.03,61.55L141.06,61.44L141.14,61.37L141.22,61.34L141.33,61.37"/><path style="stroke:#000000;stroke-width:0.088" d="M141.82,66.65L141.69,66.65L141.56,66.60L141.42,66.49L141.31,66.34L141.22,66.17L141.17,66.00L141.16,65.84L141.20,65.71L141.28,65.63L141.39,65.60L141.54,65.64L141.65,65.71L141.78,65.84L141.88,66.00L141.95,66.17L141.98,66.34L141.97,66.49L141.91,66.60L141.82,66.65"/><path style="stroke:#000000;stroke-width:0.088" d="M141.98,66.32L141.97,66.40L141.92,66.49L141.84,66.54L141.73,66.54L141.62,66.49L141.51,66.40L141.41,66.27L141.33,66.14L141.29,65.98L141.28,65.85L141.32,65.74L141.38,65.67L141.47,65.64L141.58,65.67"/><path style="stroke:#000000;stroke-width:0.088" d="M141.59,62.24L141.60,62.23"/><path style="stroke:#000000;stroke-width:0.088" d="M143.67,49.94L143.50,49.92L143.23,49.96L143.02,50.06L142.87,50.23L142.80,50.43L142.83,50.65L142.95,50.83L143.14,50.94L143.39,50.99L143.63,50.97"/><path style="stroke:#000000;stroke-width:0.088" d="M149.26,60.00L149.16,59.74L149.04,59.07L149.10,58.48L149.34,58.05L149.72,57.82L150.21,57.82L150.74,58.05L151.28,58.48L151.74,59.07L152.10,59.75L152.30,60.45L152.33,61.09L152.17,61.60L151.86,61.94L151.42,62.05L150.90,61.93L150.80,61.89L150.36,61.60L149.85,61.08L149.44,60.44L149.26,60.00"/><path style="stroke:#000000;stroke-width:0.088" d="M151.03,48.77L151.58,49.12L152.24,49.80L152.66,50.45L152.78,50.64L153.12,51.56L153.23,52.24"/><path style="stroke:#000000;stroke-width:0.088" d="M152.22,61.44L151.92,61.45L151.69,61.39L151.51,61.26L151.41,61.06L151.41,60.84L151.50,60.64L151.67,60.49L151.91,60.41L152.21,60.39L152.29,60.40"/><path style="stroke:#000000;stroke-width:0.088" d="M154.37,85.74L154.78,85.50L155.20,85.19L155.46,84.65L155.51,83.94L155.10,84.17"/><path style="stroke:#000000;stroke-width:0.088" d="M155.51,83.94L154.65,69.20L157.95,67.30L158.03,67.22L158.08,67.11L158.10,67.03L157.04,50.03L156.94,50.10L157.95,67.30"/><path style="stroke:#000000;stroke-width:0.088" d="M156.93,49.35L157.04,50.03L157.10,49.93L157.10,49.82L157.00,49.19L156.68,48.35L156.19,47.58L155.59,46.96L154.98,46.58"/><path style="stroke:#000000;stroke-width:0.088" d="M158.10,67.03L158.11,66.94L157.38,54.55L157.39,54.81"/><path style="stroke:#000000;stroke-width:0.088" d="M157.38,54.55L157.14,50.45L157.16,50.94"/><path style="stroke:#000000;stroke-width:0.088" d="M157.16,50.95L157.10,49.93"/><path style="stroke:#000000;stroke-width:0.088" d="M157.14,50.45L157.10,49.82"/><path style="fill:#ffffff" d="M173.82,82.61L200.23,82.61L200.23,76.97L173.82,76.97z"/><path style="stroke:#000000;stroke-width:0.255" d="M173.82,82.61L200.23,82.61L200.23,76.97L173.82,76.97z"/><path style="stroke:#000000;stroke-width:0.250;stroke-opacity:0.00" d="M173.82,82.61L200.23,82.61L200.23,76.97L173.82,76.97z"/><text xml:space="preserve" fill="#000000" stroke-width="0" x="174.53" y="81.02" font-size="3.49" opacity="1.00" font-family="Arial" font-weight="bold" font-style="italic">F24201488A</text><path style="fill:#ffffff" d="M173.82,72.76L200.23,72.76L200.23,67.11L173.82,67.11z"/><path style="stroke:#000000;stroke-width:0.255" d="M173.82,72.76L200.23,72.76L200.23,67.11L173.82,67.11z"/><path style="stroke:#000000;stroke-width:0.250;stroke-opacity:0.00" d="M173.82,72.76L200.23,72.76L200.23,67.11L173.82,67.11z"/><text xml:space="preserve" fill="#000000" stroke-width="0" x="174.53" y="71.17" font-size="3.56" opacity="1.00" font-family="Arial" font-weight="bold" font-style="italic">F24201487X</text><path style="fill:#ffffff" d="M173.82,92.65L200.23,92.65L200.23,87.00L173.82,87.00z"/><path style="stroke:#000000;stroke-width:0.255" d="M173.82,92.65L200.23,92.65L200.23,87.00L173.82,87.00z"/><path style="stroke:#000000;stroke-width:0.250;stroke-opacity:0.00" d="M173.82,92.65L200.23,92.65L200.23,87.00L173.82,87.00z"/><text xml:space="preserve" fill="#000000" stroke-width="0" x="174.53" y="91.06" font-size="3.49" opacity="1.00" font-family="Arial" font-weight="bold" font-style="italic">F24201489A</text><path style="fill:#ffffff" d="M173.82,62.72L200.23,62.72L200.23,57.08L173.82,57.08z"/><path style="stroke:#000000;stroke-width:0.255" d="M173.82,62.72L200.23,62.72L200.23,57.08L173.82,57.08z"/><path style="stroke:#000000;stroke-width:0.250;stroke-opacity:0.00" d="M173.82,62.72L200.23,62.72L200.23,57.08L173.82,57.08z"/><text xml:space="preserve" fill="#000000" stroke-width="0" x="174.53" y="61.13" font-size="3.56" opacity="1.00" font-family="Arial" font-weight="bold" font-style="italic">F24002020X</text><g id="paperID" visibility="hidden" opacity="0.00" transform="scale(0.000100)"><path style="stroke:#000000;stroke-width:0.500;fill:#e6e6e6;fill-rule:evenodd" d="M-2000.00,-2000.00L2210.00,-2000.00L2210.00,2150.00L-2000.00,2150.00zM0.00,0.00L210.00,0.00L210.00,150.00L0.00,150.00z"/><path style="fill:#000000;fill-opacity:0.118" d="M3.00,150.00L210.00,150.00L210.00,3.00L213.00,3.00L213.00,153.00L3.00,153.00z"/></g><g id="hotspot.0" onmouseover="ShowHotSpot(evt,'0')" onmouseout="HideHotSpot(evt,'0')" onmousemove="ShowToolTip(evt,'0',&quot;F24002020&quot;)" opacity="0"><path style="fill:#00ff00;fill-rule:evenodd" d="M200.48,57.18L200.50,62.54L200.30,62.89L173.82,62.86L173.60,62.71L173.64,57.21L173.79,57.00L200.13,56.98zM126.06,79.41L126.96,80.89L126.96,82.43L126.75,82.77L113.03,90.77L112.16,90.76L110.90,90.02L110.33,88.94L110.34,86.98L124.14,78.89L125.13,78.89zM134.60,89.86L135.53,91.29L135.46,93.13L121.77,101.15L120.55,101.16L119.48,100.41L118.90,99.34L118.90,97.55L119.95,96.77L132.90,89.28L133.52,89.28z"/></g><g id="hotspot.1" onmouseover="ShowHotSpot(evt,'1')" onmouseout="HideHotSpot(evt,'1')" onmousemove="ShowToolTip(evt,'1',&quot;F24201488A&quot;)" opacity="0"><path style="fill:#00ff00;fill-rule:evenodd" d="M118.73,28.53L155.05,46.60L156.16,47.48L157.06,49.33L158.14,66.84L157.96,67.25L154.87,69.10L154.86,72.14L155.23,78.35L155.42,84.80L155.24,85.17L154.61,85.63L153.39,85.66L131.26,74.75L131.30,74.40L131.54,74.02L131.52,73.79L124.93,70.50L124.04,69.76L108.69,39.85L107.96,37.84L107.41,35.47L107.42,33.51L107.59,31.86L108.52,30.05L110.71,28.59L113.01,27.24L115.64,27.25zM200.48,77.07L200.50,82.43L200.30,82.78L173.82,82.75L173.60,82.60L173.64,77.10L173.79,76.89L200.13,76.87zM131.35,39.45L132.80,40.74L133.54,41.83L134.25,43.49L134.59,47.68L134.44,48.85L134.17,49.34L133.70,49.35L132.62,48.94L131.34,47.86L130.23,46.05L129.85,45.15L129.68,44.04L129.43,40.59L129.66,39.33L129.81,39.11L130.60,39.11z"/></g><g id="hotspot.2" onmouseover="ShowHotSpot(evt,'2')" onmouseout="HideHotSpot(evt,'2')" onmousemove="ShowToolTip(evt,'2',&quot;F24201489A&quot;)" opacity="0"><path style="fill:#00ff00;fill-rule:evenodd" d="M36.97,72.88L41.73,75.06L63.25,85.84L63.93,85.84L64.74,85.46L77.13,91.66L78.06,92.56L78.77,93.67L79.13,94.95L80.41,116.30L80.97,127.69L80.78,128.04L80.00,128.72L78.94,128.72L67.11,122.87L64.12,124.52L62.88,124.52L45.74,115.94L45.03,115.37L40.45,106.63L29.86,86.02L28.94,83.83L28.40,81.64L28.40,78.22L28.58,77.30L29.24,75.95L29.99,75.06L34.18,72.68L36.44,72.68zM200.48,87.11L200.50,92.47L200.30,92.82L173.82,92.79L173.60,92.64L173.64,87.14L173.79,86.92L200.13,86.91z"/></g><g id="hotspot.3" onmouseover="ShowHotSpot(evt,'3')" onmouseout="HideHotSpot(evt,'3')" onmousemove="ShowToolTip(evt,'3',&quot;ML2246.2&quot;)" opacity="0"><path style="fill:#00ff00;fill-rule:evenodd" d="M83.32,42.41L83.70,42.94L83.68,43.90L83.47,44.05L83.50,45.15L83.89,46.03L85.52,46.78L88.08,48.78L93.57,54.24L96.12,56.61L97.77,58.44L98.48,59.91L98.48,61.62L97.37,64.71L97.37,67.59L97.74,68.68L98.66,70.50L99.77,71.94L100.87,72.86L102.48,73.61L103.73,73.61L104.50,72.93L105.77,69.64L106.43,68.11L106.80,67.94L107.61,67.93L110.36,70.48L111.07,71.41L111.42,72.49L110.53,76.96L109.06,80.41L106.87,83.51L106.14,84.07L105.60,84.20L104.69,83.63L101.22,80.70L100.85,82.42L99.21,86.25L97.93,88.08L96.59,89.66L95.54,89.67L92.37,87.09L91.88,87.84L92.82,90.29L92.23,90.77L91.49,90.82L90.65,88.73L90.46,88.54L89.84,88.55L87.16,90.08L86.72,90.55L85.46,91.50L85.50,91.84L86.44,94.03L85.84,94.41L85.10,94.47L84.06,92.22L83.46,92.08L83.34,91.69L82.36,91.73L82.15,91.11L82.80,90.66L82.53,89.99L82.98,89.65L82.04,87.30L81.65,87.15L80.59,83.64L80.53,83.10L81.26,82.72L81.88,82.60L80.95,78.16L79.98,78.36L79.51,78.36L78.41,75.42L76.22,73.60L75.67,73.41L73.62,68.84L73.68,68.31L70.19,60.65L69.46,58.65L69.28,57.18L69.28,55.23L69.45,53.94L69.66,53.60L69.82,52.48L70.70,50.81L71.84,49.95L72.03,48.31L72.47,47.29L73.67,46.87L80.71,42.75L81.25,42.20L82.97,42.19zM200.48,67.22L200.50,72.58L200.30,72.93L173.82,72.90L173.60,72.75L173.64,67.25L173.79,67.03L200.13,67.02zM75.04,49.50L76.78,48.42L76.78,49.04L75.95,49.70L75.48,49.72zM89.00,70.67L90.08,75.98L90.28,77.68L89.92,77.43L88.99,76.16L88.07,74.34L87.70,73.25L87.46,71.42L87.85,69.76L88.07,69.73zM109.44,72.14L109.43,72.74L108.15,77.50L105.71,81.64L105.41,81.66L104.88,81.07L104.85,80.03L107.24,76.22L108.52,71.45L108.88,71.39zM95.74,76.13L95.37,77.12L94.49,78.97L94.27,78.75L93.47,74.34zM99.41,79.25L98.30,83.52L95.94,87.33L95.39,87.09L95.18,86.76L95.19,85.69L97.57,81.69L98.44,78.52L98.65,78.49zM88.63,84.00L89.00,85.33L88.26,85.70L87.54,85.83L86.79,84.38L86.80,83.52L87.28,83.26L87.90,83.26zM82.78,87.74L82.55,87.74L82.55,87.07L82.78,87.07z"/></g></g></svg>
