<?xml version="1.0" encoding="UTF-8" standalone="no"?>
<svg xmlns="http://www.w3.org/2000/svg" xmlns:xlink="http://www.w3.org/1999/xlink" width="210.000mm" height="150.000mm" viewBox="0.000000 0.000000 210.000000 150.000000" stroke-linejoin="round" stroke-linecap="round" fill="none" fill-rule="evenodd"><desc>Composer Export</desc><script type="text/ecmascript"><![CDATA[
if(typeof(top) != "undefined")
{
	top.ShowPaper = ShowPaper;
}
function ShowHotSpot(evt,hotspotid)
{
	var svgDocument = evt.target.ownerDocument;
	var strId = "hotspot."+hotspotid;
	var hotspot = svgDocument.getElementById(strId);
	if(hotspot)
		hotspot.setAttribute("opacity",".5");
}
function HideHotSpot(evt,hotspotid)
{
	var svgDocument = evt.target.ownerDocument;
	var strId = "hotspot."+hotspotid;
	var hotspot = svgDocument.getElementById(strId);
	if(hotspot)
		hotspot.setAttribute("opacity","0");

	var toolTip = svgDocument.getElementById('ToolTip');
	if(toolTip)
		toolTip.setAttribute("visibility","hidden");
}
function ShowToolTip(evt,hotspotid,strTooltip)
{
	if(strTooltip=="")
	return;

	// change text
	var svgDocument = evt.target.ownerDocument;
	var tiptext = svgDocument.getElementById('ToolTipText');
	if( !tiptext )
	return;
	tiptext.firstChild.nodeValue = " " + strTooltip + "  " ;

	// show tooltip before, else some refresh issue

	var toolTip = svgDocument.getElementById('ToolTip');
	if(!toolTip)
	return;

	toolTip.setAttribute("visibility","visible");
	toolTip.setAttribute("opacity",".95");

	// move tooltip
	// get viewbox

	var root = svgDocument.documentElement;
	var vbox = (root.getAttribute("viewBox")).split(' ');
	var x0 = parseFloat(vbox[0]);
	var y0 = parseFloat(vbox[1]);
	var vboxW = parseFloat(vbox[2]);
	var vboxH = parseFloat(vbox[3]);

	// get default width of svg

	var strW = root.getAttribute("width");
	var svgW = parseFloat(strW);
	if(strW.indexOf('mm') != -1)
	svgW *= 3.779;

	var strH = root.getAttribute("height");
	var svgH = parseFloat(strH);
	if(strH.indexOf('mm') != -1)
	svgH *= 3.779;  	// 96 dpi  -> 96/25.4 = 3.779

	// update the viewbox / width / height if svg is embedded in html with zoom fit all
	var realx0 = x0;
	var realy0 = y0;
	var realvboxW = vboxW;
	var realvboxH = vboxH;
	var realsvgW = svgW;
	var realsvgH = svgH;

	if ((typeof(top) == "undefined") || (typeof(top.svgctl1) != "undefined")) // embedded in html
	{
		// get window size in pxl

		svgW = window.innerWidth;
		svgH = window.innerHeight;

		// calculate real viewbox

		realsvgW = svgW;
		realsvgH = svgH;
		if((svgW / svgH) > (vboxW / vboxH))
		{
			realvboxW = (vboxH * svgW) / svgH;
			realvboxH = vboxH;
			realx0 = x0 - (realvboxW - vboxW)/2 ;
		}
		else
		{
			realvboxH = (vboxW * svgH) / svgW;
			realvboxW = vboxW;
			realy0 = y0 - (realvboxH - vboxH)/2 ;
		}
	}

	// get user zoom/pan

	var newScale = root.currentScale;
	var translation = root.currentTranslate;

	// transform pxl to user unit

	var xPos = (((evt.clientX+10- translation.x)/newScale) * realvboxW)/realsvgW  + realx0 ;
	var yPos = (((evt.clientY+5- translation.y)/newScale) * realvboxH)/ realsvgH  + realy0 ;
	var scaleForWidth = ( (1 / newScale) * realvboxH) / realsvgH;

	// move tooltip

	toolTip.setAttribute("transform", "translate(" + xPos + "," + yPos + ")" );

	// resize tooltip

	var fontsize = 12;
	tiptext.setAttribute("font-size",fontsize*scaleForWidth);
	tiptext.setAttribute("y", fontsize*scaleForWidth);
	var tipBG = svgDocument.getElementById('ToolTipBG');
	var outline = tiptext.getBBox();
	if(tipBG)
	{
		tipBG.setAttribute("stroke-width", 1*scaleForWidth);
		tipBG.setAttribute("width", Number(outline.width) );
		tipBG.setAttribute("height", Number(outline.height) + fontsize*.5*scaleForWidth );
	}
	var ToolTipShadow = svgDocument.getElementById('ToolTipShadow');
	if(ToolTipShadow)
	{
		ToolTipShadow.setAttribute("width", Number(outline.width) );
		ToolTipShadow.setAttribute("height", Number(outline.height) + fontsize*.5*scaleForWidth );
		ToolTipShadow.setAttribute("x", 3*scaleForWidth);
		ToolTipShadow.setAttribute("y", 3*scaleForWidth);
	}
}
function ShowPaper()
{
  var svgDocument = getDocument();
  var paper = svgDocument.getElementById("paperID");
  if(paper)
  {
    paper.setAttribute("transform","scale(1)");
    paper.setAttribute("opacity","1");
    paper.setAttribute("visibility","visible");
  }
  var svg = svgDocument.getRootElement();
  if(svg)
  {
    svg.setAttribute("width","220.000mm");
    svg.setAttribute("height","160.000mm");
    svg.setAttribute("viewBox","-5.000000 -5.000000 220.000000 160.000000");
  }
}
]]></script><defs/><g><path style="fill:#ffffff" d="M209.93,149.95L0.04,149.95L0.04,0.04L209.93,0.04z"/><path style="fill:#95dce0" d="M26.71,58.62L28.93,60.10L22.98,66.10L23.53,67.89L23.68,68.11L24.56,70.28L25.70,70.93L26.02,70.92L27.60,69.31L27.64,69.13L28.14,69.37L27.42,70.66L19.83,75.11L19.37,75.10L17.92,74.25L17.95,71.58L18.23,70.49L18.52,69.39L20.50,62.21L20.52,61.76L20.94,60.88L21.94,60.21L22.47,60.00L25.52,58.23L25.85,58.17z"/><path style="fill:#2ac7ce" d="M61.83,26.54L62.08,27.23L62.55,27.04L63.37,26.93L65.27,28.04L65.64,28.69L65.76,29.46L150.47,78.39L150.93,78.41L151.17,78.26L152.12,78.15L154.01,79.28L154.39,80.04L154.43,80.89L153.90,80.51L153.75,80.04L153.51,79.78L152.69,79.79L151.79,80.54L151.21,81.73L151.21,82.71L151.58,83.23L152.24,83.24L152.31,83.17L152.55,83.29L150.66,85.62L146.52,90.48L145.81,91.19L145.73,91.21L135.54,101.33L134.95,101.34L134.66,101.45L133.09,100.58L132.45,100.47L132.19,100.31L132.04,100.33L131.89,100.58L132.07,102.11L132.59,102.47L133.73,103.08L133.73,103.21L131.13,105.77L130.63,106.38L119.81,112.56L118.01,111.49L117.56,111.73L117.03,111.94L123.41,105.53L124.54,104.51L148.05,80.92L147.54,80.55L64.49,32.61L64.33,32.63L64.23,32.78L62.28,34.77L61.16,35.80L29.90,67.07L27.73,65.84L27.04,65.84L26.55,66.11L26.07,67.02L26.08,68.13L27.64,69.13L27.60,69.31L26.02,70.92L25.70,70.93L24.56,70.28L23.68,68.11L23.53,67.89L22.98,66.10L28.93,60.10L38.62,50.41L38.64,50.33L39.58,49.45L39.71,49.32L40.05,48.97L41.35,47.67L44.59,44.46L45.30,43.66L45.38,43.58L45.99,43.08L48.93,40.03L49.54,39.53L58.80,30.26L58.69,29.94L58.19,29.65L57.55,29.26L57.78,28.87L59.94,26.47L61.12,25.97L61.33,26.03z"/><path style="fill:#95dce0" d="M119.81,112.56L119.74,112.63L118.80,113.12L118.59,113.13L117.32,113.77L115.80,115.04L115.15,115.79L114.19,117.23L113.44,118.76L112.79,120.65L112.67,121.80L112.67,122.78L112.79,123.80L112.97,124.00L113.08,124.37L113.70,125.43L115.28,126.53L115.23,126.61L112.26,128.36L111.65,128.36L110.39,127.59L110.39,124.71L112.05,118.30L112.57,116.39L112.94,115.00L113.14,114.28L116.80,112.11L117.03,111.94L117.56,111.73L118.01,111.49z"/><path style="fill:#9daff7" d="M29.90,67.07L74.80,93.04L72.95,94.25L72.91,95.19L28.14,69.37L27.64,69.13L26.08,68.13L26.07,67.02L26.55,66.11L27.04,65.84L27.73,65.84z"/><path style="fill:#2ac7ce" d="M112.67,121.80L112.79,120.65L113.44,118.76L114.19,117.23L115.15,115.79L115.80,115.04L117.32,113.77L118.59,113.13L118.80,113.12L118.38,113.43L117.31,114.14L116.30,115.03L115.15,116.30L113.95,118.27L113.30,119.90L112.89,121.63L112.97,124.00L112.79,123.80L112.67,122.78z"/><path style="fill:#95dce0" d="M80.21,92.73L80.34,93.36L80.31,95.00L80.48,95.38L80.48,96.24L79.09,95.50L78.40,95.25L77.75,95.63L77.26,96.40L77.03,97.29L77.42,97.80L80.78,99.79L80.91,102.70L78.77,105.01L77.95,105.97L77.43,106.84L77.17,107.60L77.17,109.09L77.43,109.58L78.07,109.96L79.58,110.74L80.05,110.74L80.90,110.46L80.85,110.64L80.21,111.66L79.40,112.37L78.15,113.14L77.29,113.14L74.26,111.36L73.99,110.86L73.88,110.10L73.08,96.65L72.91,95.19L72.95,94.25L74.80,93.04L77.51,91.32L77.80,91.32z"/><path style="fill:#1f4baa" d="M135.87,105.03L136.42,105.13L130.38,108.58L129.61,109.20L128.92,109.65L128.36,109.85L128.22,110.09L127.73,110.23L127.62,110.37L127.08,110.60L126.89,110.79L126.33,110.99L126.19,111.23L125.70,111.37L125.56,111.61L125.18,111.74L124.75,112.10L124.42,112.11L124.23,112.31L123.67,112.51L123.53,112.75L122.89,112.88L119.61,114.79L118.64,115.47L117.38,116.74L116.68,117.69L115.93,118.84L115.05,121.00L114.70,122.56L114.70,124.30L114.97,125.43L115.22,125.93L115.58,126.33L116.51,127.03L116.09,126.97L115.28,126.53L113.70,125.43L113.08,124.37L113.05,124.06L112.97,124.00L112.89,121.63L113.30,119.90L113.95,118.27L115.15,116.30L116.30,115.03L117.31,114.14L118.38,113.43L118.80,113.12L119.74,112.63L119.81,112.56L130.63,106.38L134.43,104.21z"/><path style="fill:#9daff7" d="M79.09,95.50L80.48,96.24L80.61,96.40L84.69,98.67L84.79,98.80L88.09,100.70L89.51,101.46L89.60,101.59L112.94,115.00L112.57,116.39L111.85,117.05L111.67,117.53L111.17,117.31L87.70,103.75L87.49,103.69L87.06,103.37L82.67,100.90L80.78,99.79L77.42,97.80L77.03,97.29L77.26,96.40L77.75,95.63L78.40,95.25z"/><path style="fill:#2ac7ce" d="M105.82,81.07L106.21,81.69L106.21,83.01L105.95,83.76L105.06,85.16L98.74,91.76L89.51,101.46L88.09,100.70L84.79,98.80L84.69,98.67L87.19,96.19L88.21,95.06L100.64,82.00L102.36,80.30L103.11,79.91L103.80,79.91z"/><path style="fill:#2ac7ce" d="M87.06,103.37L87.49,103.69L86.31,104.82L83.78,107.49L82.75,108.61L80.90,110.46L80.05,110.74L79.58,110.74L78.07,109.96L77.43,109.58L77.17,109.09L77.17,107.60L77.43,106.84L77.95,105.97L78.77,105.01L80.91,102.70L82.67,100.90z"/><path style="fill:#2ac7ce" d="M122.88,114.03L122.96,114.24L123.32,114.41L124.35,115.28L124.98,116.55L125.10,117.84L125.16,118.03L125.10,118.12L124.97,119.14L124.68,120.24L123.89,122.47L123.07,123.70L122.05,124.97L121.05,125.87L119.61,126.83L118.47,127.22L116.97,127.22L116.51,127.03L115.58,126.33L115.22,125.93L114.97,125.43L114.70,124.30L114.70,122.56L115.05,121.00L115.93,118.84L116.68,117.69L117.38,116.74L118.64,115.47L119.61,114.79L122.89,112.88L123.53,112.75L123.67,112.51L124.23,112.31L124.42,112.11L124.75,112.10z"/><path style="fill:#ffffff" d="M133.85,103.75L134.43,104.21L130.63,106.38L131.13,105.77L133.73,103.21z"/><path style="fill:#4c4c4c" d="M40.31,46.30L41.30,47.07L41.32,47.55L41.19,47.42L41.07,47.05L40.91,46.94L40.48,46.94L40.03,47.26L39.51,48.00L39.52,49.10L39.71,49.32L39.58,49.45L38.06,48.56L37.47,48.11L37.48,46.99L38.06,46.05L38.58,45.68L39.14,45.68z"/><path style="fill:#4c4c4c" d="M136.67,101.97L137.66,102.60L137.76,103.11L137.57,103.71L137.46,102.68L136.84,102.61L136.39,102.92L135.87,103.66L135.88,104.77L136.13,104.91L136.47,104.91L136.90,104.72L136.78,104.98L136.42,105.13L135.87,105.03L134.43,104.21L133.85,103.75L133.73,103.21L133.73,103.08L134.30,101.84L134.66,101.45L134.95,101.34L135.54,101.33z"/><path style="fill:#898989" d="M105.58,82.20L105.58,83.26L105.41,83.73L105.11,84.06L105.32,83.39L105.33,82.70L105.19,82.46L104.95,82.32L104.38,82.32L103.99,82.57L103.41,83.50L103.40,84.37L103.66,84.62L104.51,84.61L105.11,84.06L105.07,84.28L104.15,85.13L103.49,85.19L103.30,84.86L102.85,84.57L102.99,83.47L103.75,82.20L104.51,81.69L105.20,81.69z"/><path style="fill:#898989" d="M81.88,106.64L82.03,107.04L82.12,107.31L81.87,108.49L81.65,108.66L81.75,107.29L81.36,107.05L80.80,107.05L80.10,107.74L79.83,108.49L79.82,108.96L79.97,109.20L80.34,109.48L80.68,109.47L81.31,109.07L81.65,108.66L81.61,108.87L81.31,109.33L80.56,109.85L79.58,109.84L79.45,109.60L79.45,108.23L79.97,107.23L80.72,106.59L81.05,106.41L81.62,106.41z"/><path style="fill:#1f4baa" d="M61.12,25.97L59.94,26.47L57.78,28.87L57.55,29.26L56.97,29.84L45.68,43.14L45.38,43.58L45.30,43.66L44.59,44.46L41.35,47.67L41.32,47.55L41.30,47.07L40.31,46.30L40.87,45.69L55.96,27.94L56.83,26.91L57.05,26.59L57.39,26.33L58.24,25.40L59.09,25.00L59.55,25.01z"/><path style="fill:#1f4baa" d="M157.05,81.31L157.47,81.62L157.13,81.69L156.30,82.13L154.14,84.53L153.91,84.92L153.83,84.98L139.64,101.60L138.91,102.42L138.91,102.66L139.81,101.77L153.97,85.88L154.56,85.30L154.77,85.37L155.52,86.02L156.58,85.98L123.89,122.47L124.68,120.24L124.97,119.14L125.10,118.12L125.16,118.03L125.73,117.49L135.58,106.42L136.71,105.13L136.78,104.98L136.90,104.72L137.19,104.26L137.34,104.09L137.43,104.10L137.54,104.33L137.69,104.10L137.60,103.97L137.57,103.71L137.76,103.11L137.66,102.60L136.67,101.97L137.23,101.35L145.77,91.37L145.81,91.19L146.52,90.48L150.66,85.62L152.55,83.29L152.99,82.89L153.06,82.67L154.60,81.06L155.42,80.63L155.55,80.56z"/><path style="fill:#2ac7ce" d="M16.31,66.01L16.56,64.48L16.95,63.35L17.83,61.57L18.79,60.12L19.44,59.38L20.96,58.11L21.98,57.60L22.28,57.55L20.87,58.53L19.49,59.81L18.48,61.08L17.72,62.35L16.94,64.23L16.57,65.89L16.58,68.47L16.43,68.14L16.31,67.37z"/><path style="fill:#2ac7ce" d="M158.19,82.07L158.43,82.89L158.15,84.11L157.50,85.23L156.58,85.98L155.52,86.02L154.77,85.37L154.56,85.30L153.91,84.92L154.14,84.53L156.30,82.13L157.13,81.69L157.47,81.62L157.69,81.70z"/><path style="fill:#ffffff" d="M58.19,29.65L55.45,32.63L49.23,39.59L48.93,40.03L45.99,43.08L45.38,43.58L45.68,43.14L56.97,29.84L57.55,29.26z"/><path style="fill:#f9840c" d="M103.30,84.86L103.49,85.19L103.24,85.50L102.78,85.51L102.49,85.41L102.52,84.89L102.85,84.57z"/><path style="fill:#f9840c" d="M82.89,106.55L82.89,106.84L82.70,107.06L82.03,107.04L81.88,106.64L82.33,106.15L82.50,106.15z"/><path style="fill:#889da5" d="M41.07,47.05L41.19,47.42L40.62,47.32L40.36,47.46L39.89,48.00L39.86,48.90L40.05,48.97L39.71,49.32L39.52,49.10L39.51,48.00L40.03,47.26L40.48,46.94L40.91,46.94z"/><path style="fill:#889da5" d="M153.75,80.04L153.90,80.51L153.25,80.30L152.69,80.29L152.05,80.79L151.59,81.73L151.59,82.34L151.73,82.70L151.98,82.84L152.31,83.17L152.24,83.24L151.58,83.23L151.21,82.71L151.21,81.73L151.79,80.54L152.69,79.79L153.51,79.78z"/><path style="fill:#889da5" d="M137.46,102.68L137.57,103.71L137.43,104.10L137.34,104.09L137.28,103.49L137.02,103.23L136.72,103.23L136.39,103.55L136.34,104.18L136.49,104.28L137.19,104.26L136.90,104.72L136.47,104.91L136.13,104.91L135.88,104.77L135.87,103.66L136.39,102.92L136.84,102.61z"/><path style="fill:#8aa7bf" d="M61.45,27.72L60.18,28.88L60.17,28.48L60.78,27.68L61.15,27.42L61.71,27.42z"/><path style="fill:#8aa7bf" d="M153.90,80.51L154.43,80.89L153.57,81.56L153.11,82.24L153.06,82.67L152.99,82.89L152.55,83.29L152.31,83.17L151.98,82.84L151.73,82.70L151.59,82.34L151.59,81.73L152.05,80.79L152.69,80.29L153.25,80.30z"/><path style="fill:#8aa7bf" d="M105.19,82.46L105.33,82.70L105.32,83.39L105.11,84.06L104.51,84.61L103.66,84.62L103.40,84.37L103.41,83.50L103.99,82.57L104.38,82.32L104.95,82.32z"/><path style="fill:#8aa7bf" d="M157.69,82.83L157.94,83.21L157.94,84.03L157.56,84.78L157.00,85.24L156.16,85.24L155.91,84.99L155.90,83.89L156.53,83.00L157.00,82.70L157.43,82.70z"/><path style="fill:#8aa7bf" d="M81.75,107.29L81.65,108.66L81.31,109.07L80.68,109.47L80.34,109.48L79.97,109.20L79.82,108.96L79.83,108.49L80.10,107.74L80.80,107.05L81.36,107.05z"/><path style="fill:#8aa7bf" d="M122.31,117.19L122.83,117.68L123.20,118.59L123.20,119.90L123.07,120.41L122.44,121.93L121.80,122.94L120.68,124.10L119.49,124.68L118.37,124.68L117.62,124.29L117.23,123.67L117.11,123.16L117.11,121.67L117.62,120.15L118.26,119.03L119.09,118.07L119.90,117.36L120.49,117.07L121.00,116.94L121.68,116.94z"/><path style="fill:#95dce0" d="M120.32,117.90L120.16,118.14L120.16,117.86L120.30,117.83z"/><path style="fill:#4c4c4c" d="M137.60,103.97L137.43,104.10L137.57,103.71z"/><path style="fill:#898989" d="M104.96,82.96L104.81,83.64L104.26,84.23L103.89,84.28L103.78,83.76L104.12,83.07L104.52,82.69L104.80,82.70z"/><path style="fill:#898989" d="M81.37,107.54L81.36,108.12L81.10,108.62L80.69,108.97L80.30,109.01L80.35,108.12L80.80,107.56L81.24,107.41z"/><path style="fill:#1f4baa" d="M58.69,29.94L58.80,30.26L49.54,39.53L48.93,40.03L49.23,39.59L55.45,32.63L58.19,29.65z"/><path style="fill:#1f4baa" d="M39.58,49.45L38.64,50.33L33.55,53.20L33.20,53.61L32.63,53.81L32.50,54.05L32.00,54.19L31.86,54.43L31.37,54.57L31.26,54.71L30.72,54.94L30.53,55.13L29.97,55.33L29.83,55.57L29.34,55.71L29.20,55.95L28.69,56.07L28.33,56.49L27.95,56.46L27.68,56.85L27.31,56.84L27.17,57.09L26.53,57.22L25.37,57.92L24.77,58.24L22.36,59.76L21.94,60.21L20.94,60.88L20.52,61.76L20.45,61.78L20.08,62.30L18.85,64.74L18.34,66.77L18.34,68.76L18.52,69.39L18.23,70.49L17.33,69.77L16.83,69.14L16.58,68.47L16.57,65.89L16.94,64.23L17.72,62.35L18.48,61.08L19.49,59.81L20.87,58.53L22.28,57.55L25.96,55.50L38.06,48.56z"/><path style="fill:#01ff02" d="M62.33,31.91L62.17,31.92L62.21,31.64L62.36,31.62z"/><path style="fill:#01ff02" d="M44.77,50.17L44.54,50.37L44.37,50.95L43.73,50.70L43.50,50.48L43.45,50.33L43.63,49.84L44.10,49.69z"/><path style="fill:#01ff02" d="M21.09,62.79L21.38,62.79L21.38,63.37L21.14,63.33z"/><path style="fill:#01ff02" d="M25.40,63.45L25.14,63.49L25.19,63.08L25.45,63.05z"/><path style="fill:#01ff02" d="M23.43,68.49L23.31,68.83L22.99,68.94L23.12,68.49L23.31,68.37z"/><path style="fill:#01ff02" d="M19.63,69.76L19.61,70.21L19.22,70.16L19.23,69.68L19.49,69.62z"/><path style="fill:#01ff02" d="M151.13,82.91L150.97,83.14L150.97,82.87L151.11,82.84z"/><path style="fill:#01ff02" d="M113.83,116.31L113.78,116.57L113.43,116.57L113.43,116.08L113.57,116.05z"/><path style="fill:#01ff02" d="M111.62,123.01L111.91,123.01L111.87,123.55L111.66,123.55z"/><path style="fill:#9daff7" d="M41.19,47.42L41.32,47.55L41.35,47.67L40.05,48.97L39.86,48.90L39.89,48.00L40.36,47.46L40.62,47.32z"/><path style="fill:#9daff7" d="M44.10,49.49L44.10,49.69L43.63,49.84L43.45,50.33L43.14,49.49L43.39,49.10z"/><path style="fill:#9daff7" d="M43.73,50.70L43.53,50.68L43.50,50.48z"/><path style="fill:#9daff7" d="M44.37,50.95L44.54,50.37L44.77,50.17L44.98,50.25L44.98,50.68L44.68,51.03L44.46,51.02z"/><path style="fill:#9daff7" d="M132.45,100.47L133.09,100.58L134.66,101.45L134.30,101.84L133.73,103.08L132.59,102.47L132.07,102.11L131.89,100.58L132.04,100.33L132.19,100.31z"/><path style="fill:#9daff7" d="M137.28,103.49L137.34,104.09L137.19,104.26L136.49,104.28L136.34,104.18L136.39,103.55L136.72,103.23L137.02,103.23z"/><path style="fill:#2ac7ce" d="M58.24,25.40L57.39,26.33L57.05,26.59L57.59,25.77L58.28,25.19L58.61,25.01L59.09,25.00z"/><path style="fill:#2ac7ce" d="M25.85,58.17L25.52,58.23L22.47,60.00L21.94,60.21L22.36,59.76L24.77,58.24L25.37,57.92z"/><path style="fill:#2ac7ce" d="M18.34,66.77L18.85,64.74L20.08,62.30L20.45,61.78L20.52,61.76L20.50,62.21L18.52,69.39L18.34,68.76z"/><path style="fill:#2ac7ce" d="M154.60,81.06L153.06,82.67L153.11,82.24L153.57,81.56L154.43,80.89L154.97,80.67L155.42,80.63z"/><path style="fill:#2ac7ce" d="M111.67,117.53L111.85,117.05L112.57,116.39L112.05,118.30z"/><path style="fill:#2ac7ce" d="M120.97,119.67L121.04,120.54L120.66,121.42L120.00,122.02L119.26,122.02L119.27,120.92L119.97,119.84L120.36,119.60z"/><path style="fill:#2ac7ce" d="M122.35,120.94L122.19,121.18L122.19,120.91L122.32,120.87z"/><path style="fill:#2ac7ce" d="M118.16,123.35L118.00,123.59L118.00,123.31L118.14,123.28z"/><path style="fill:#2ac7ce" d="M113.08,124.37L112.97,124.00L113.05,124.06z"/><path style="fill:#ffffff" d="M147.54,80.55L148.05,80.92L124.54,104.51L123.41,105.53L117.03,111.94L116.80,112.11L113.14,114.28L112.94,115.00L89.60,101.59L89.51,101.46L98.74,91.76L105.06,85.16L105.95,83.76L106.21,83.01L106.21,81.69L105.82,81.07L103.80,79.91L103.11,79.91L102.36,80.30L100.64,82.00L88.21,95.06L87.19,96.19L84.69,98.67L80.61,96.40L80.48,96.24L80.48,95.38L80.31,95.00L80.34,93.36L80.21,92.73L77.80,91.32L77.51,91.32L74.80,93.04L29.90,67.07L61.16,35.80L62.28,34.77L64.23,32.78L64.33,32.63L64.49,32.61z"/><path style="fill:#ffffff" d="M28.33,56.49L28.69,56.07L29.20,55.95L29.34,55.71L29.83,55.57L29.97,55.33L30.53,55.13L30.72,54.94L31.26,54.71L31.37,54.57L31.86,54.43L32.00,54.19L32.50,54.05L32.63,53.81L33.20,53.61L33.55,53.20L38.64,50.33L38.62,50.41L28.93,60.10L26.71,58.62L25.85,58.17L25.37,57.92L26.53,57.22L27.17,57.09L27.31,56.84L27.68,56.85L27.95,56.46z"/><path style="fill:#ffffff" d="M154.56,85.30L153.97,85.88L139.81,101.77L138.91,102.66L138.91,102.42L139.64,101.60L153.83,84.98L153.91,84.92z"/><path style="fill:#ffffff" d="M82.67,100.90L80.91,102.70L80.78,99.79z"/><path style="fill:#ffffff" d="M135.54,101.33L145.73,91.21L145.81,91.19L145.77,91.37L137.23,101.35L136.67,101.97z"/><path style="fill:#ffffff" d="M138.70,102.94L138.28,103.42L138.28,103.18L138.68,102.88z"/><path style="fill:#ffffff" d="M137.69,104.10L137.54,104.33L137.43,104.10L137.60,103.97z"/><path style="fill:#ffffff" d="M122.96,114.24L122.88,114.03L124.75,112.10L125.18,111.74L125.56,111.61L125.70,111.37L126.19,111.23L126.33,110.99L126.89,110.79L127.08,110.60L127.62,110.37L127.73,110.23L128.22,110.09L128.36,109.85L128.92,109.65L129.61,109.20L130.38,108.58L136.42,105.13L136.78,104.98L136.71,105.13L135.58,106.42L125.73,117.49L125.16,118.03L125.10,117.84L124.98,116.55L124.35,115.28L123.32,114.41z"/><path style="stroke:#000000;stroke-width:0.088" d="M87.49,103.63L81.50,109.92L80.89,110.44L80.26,110.74L79.68,110.80L79.20,110.60L77.52,109.63L77.19,109.20L77.05,108.57L77.10,107.82L77.34,107.00L77.49,106.72L77.75,106.21L78.29,105.52L79.97,106.49L84.40,101.84"/><path style="stroke:#000000;stroke-width:0.088" d="M79.20,110.60L78.87,110.17L78.73,109.54L78.78,108.79L79.02,107.97L79.43,107.18L79.97,106.49"/><path style="stroke:#000000;stroke-width:0.088" d="M78.29,105.52L82.72,100.87"/><path style="stroke:#000000;stroke-width:0.088" d="M82.09,107.06L82.15,107.33L82.09,107.90L81.88,108.50L81.55,109.06L81.13,109.54L80.67,109.87L80.22,110.02L79.82,109.97L79.52,109.74L79.35,109.33L79.34,108.81L79.47,108.22L79.67,107.79L79.74,107.62L80.12,107.09L80.20,107.01L80.57,106.69L81.03,106.44L81.46,106.39L81.82,106.53L81.94,106.70"/><path style="stroke:#000000;stroke-width:0.088" d="M84.73,98.76L101.85,80.77L102.46,80.25L103.09,79.94L103.67,79.89L104.15,80.09L105.83,81.06L105.35,80.86L104.77,80.91L104.14,81.22L103.53,81.74L86.41,99.73"/><path style="stroke:#000000;stroke-width:0.088" d="M89.50,101.51L105.06,85.16L105.59,84.47L106.00,83.68L106.25,82.87L106.30,82.12L106.15,81.49L105.83,81.06"/><path style="stroke:#000000;stroke-width:0.088" d="M101.85,80.77L103.53,81.74"/><path style="stroke:#000000;stroke-width:0.088" d="M102.93,84.62L102.91,84.58L102.89,84.05L103.03,83.46L103.30,82.87L103.68,82.34L103.75,82.25L104.12,81.93L104.59,81.69L105.02,81.63L105.37,81.78L105.61,82.10L105.70,82.58L105.64,83.14L105.44,83.74L105.11,84.31L104.69,84.78L104.23,85.11L103.77,85.26L103.43,85.22"/><path style="stroke:#000000;stroke-width:0.088" d="M73.35,96.65L73.06,96.48L72.93,94.31L75.61,95.86L75.74,98.03L73.35,96.65"/><path style="stroke:#000000;stroke-width:0.088" d="M72.93,94.31L77.62,91.24L80.31,92.79L80.44,94.96L79.37,95.66"/><path style="stroke:#000000;stroke-width:0.088" d="M73.90,94.38L73.98,94.44L74.09,94.49L74.21,94.51L74.34,94.50L74.39,94.49L74.47,94.47L74.56,94.42L74.57,94.41L74.64,94.34L74.67,94.26L74.66,94.18L74.60,94.11L74.51,94.05L74.39,94.02L74.26,94.01L74.13,94.03L74.02,94.07L73.93,94.14L73.88,94.22L73.87,94.30L73.90,94.38"/><path style="stroke:#000000;stroke-width:0.088" d="M75.74,98.03L77.09,97.15L77.11,96.97"/><path style="stroke:#000000;stroke-width:0.088" d="M75.56,95.28L75.69,95.27L75.81,95.24L75.90,95.20L75.92,95.19L75.94,95.16L75.99,95.11L76.02,95.03L76.00,94.95L75.95,94.88L75.85,94.83L75.74,94.79L75.60,94.79L75.47,94.81L75.36,94.85L75.27,94.91L75.22,94.99L75.21,95.07L75.25,95.15L75.32,95.22L75.43,95.26L75.56,95.28"/><path style="stroke:#000000;stroke-width:0.088" d="M75.61,95.86L80.31,92.79"/><path style="stroke:#000000;stroke-width:0.088" d="M77.14,96.75L77.14,96.74L77.21,96.56"/><path style="stroke:#000000;stroke-width:0.088" d="M77.30,96.32L77.30,96.30L77.41,96.14"/><path style="stroke:#000000;stroke-width:0.088" d="M77.23,92.02L77.22,92.11L77.26,92.18L77.33,92.25L77.44,92.29L77.56,92.31L77.70,92.31L77.82,92.27L77.91,92.23L77.92,92.22L77.99,92.15L78.02,92.06L78.01,91.98L77.95,91.91L77.86,91.86L77.74,91.82L77.61,91.82L77.48,91.84L77.37,91.88L77.28,91.95L77.23,92.02"/><path style="stroke:#000000;stroke-width:0.088" d="M77.54,95.92L77.55,95.90L77.68,95.77"/><path style="stroke:#000000;stroke-width:0.088" d="M77.92,95.53L77.86,95.57L77.85,95.59"/><path style="stroke:#000000;stroke-width:0.088" d="M78.18,95.37L78.20,95.35L78.33,95.32"/><path style="stroke:#000000;stroke-width:0.088" d="M78.50,95.27L78.52,95.27L78.63,95.29"/><path style="stroke:#000000;stroke-width:0.088" d="M78.79,95.33L78.80,95.33L78.80,95.34"/><path style="stroke:#000000;stroke-width:0.088" d="M78.91,93.09L78.78,93.07L78.67,93.02L78.60,92.96L78.56,92.88L78.57,92.80L78.62,92.72L78.71,92.66L78.83,92.61L78.96,92.59L79.09,92.60L79.21,92.63L79.30,92.69L79.35,92.76L79.37,92.84L79.34,92.92L79.27,92.99L79.25,93.01L79.16,93.05L79.04,93.08L78.91,93.09"/><path style="stroke:#000000;stroke-width:0.088" d="M73.89,110.39L73.07,96.63L75.75,98.18L76.58,111.94L76.72,112.57L77.04,113.01L74.35,111.46L74.03,111.02L73.89,110.39L76.58,111.94"/><path style="stroke:#000000;stroke-width:0.088" d="M73.07,96.63L73.18,96.55"/><path style="stroke:#000000;stroke-width:0.088" d="M75.75,98.18L77.10,97.30L77.12,97.38"/><path style="stroke:#000000;stroke-width:0.088" d="M77.04,113.01L77.51,113.22L78.09,113.17L78.72,112.87L79.39,112.43L80.01,111.92L80.55,111.23L80.96,110.44L80.99,110.35"/><path style="stroke:#000000;stroke-width:0.088" d="M77.42,97.81L77.39,97.81L77.37,97.79"/><path style="stroke:#000000;stroke-width:0.088" d="M77.25,97.66L77.20,97.61L77.19,97.59"/><path style="stroke:#000000;stroke-width:0.088" d="M77.10,97.30L76.97,97.23"/><path style="stroke:#000000;stroke-width:0.088" d="M79.49,95.73L80.45,95.11L80.52,96.33"/><path style="stroke:#000000;stroke-width:0.088" d="M80.45,95.11L80.32,95.04"/><path style="stroke:#000000;stroke-width:0.088" d="M80.72,99.72L80.90,102.78"/><path style="stroke:#000000;stroke-width:0.088" d="M72.98,95.25L26.19,68.24"/><path style="stroke:#000000;stroke-width:0.088" d="M74.85,93.05L27.64,65.80"/><path style="stroke:#000000;stroke-width:0.088" d="M111.81,117.67L77.31,97.75"/><path style="stroke:#000000;stroke-width:0.088" d="M78.76,95.31L112.97,115.06"/><path style="stroke:#000000;stroke-width:0.088" d="M39.79,49.26L39.60,49.17L39.45,48.94L39.40,48.63L39.45,48.25L39.60,47.86L39.82,47.50L40.10,47.20L40.14,47.16L40.40,46.99L40.69,46.91L40.95,46.96L41.13,47.12L41.23,47.40L41.23,47.52"/><path style="stroke:#000000;stroke-width:0.088" d="M39.90,49.16L39.83,49.16L39.65,49.05L39.53,48.85L39.49,48.58L39.53,48.26L39.64,47.94L39.65,47.92L39.83,47.60L40.07,47.33L40.32,47.13L40.58,47.03L40.81,47.04L41.00,47.14L41.11,47.34L41.13,47.47"/><path style="stroke:#000000;stroke-width:0.088" d="M39.60,49.20L39.70,49.25"/><path style="stroke:#000000;stroke-width:0.088" d="M40.88,46.91L40.91,46.91"/><path style="stroke:#000000;stroke-width:0.088" d="M41.01,46.99L41.12,47.08"/><path style="stroke:#000000;stroke-width:0.088" d="M41.16,47.16L41.23,47.37"/><path style="stroke:#000000;stroke-width:0.088" d="M41.24,47.39L41.24,47.53"/><path style="stroke:#000000;stroke-width:0.088" d="M136.00,104.85L136.04,104.89"/><path style="stroke:#000000;stroke-width:0.088" d="M136.35,104.94L136.09,104.89L135.91,104.72L135.81,104.45L135.81,104.38L135.81,104.10L135.91,103.71L136.09,103.33L136.35,102.99L136.64,102.74L136.94,102.59L137.22,102.57L137.44,102.68L137.59,102.90L137.64,103.22L137.59,103.59L137.44,103.98L137.22,104.35L136.94,104.65L136.64,104.85L136.35,104.94"/><path style="stroke:#000000;stroke-width:0.088" d="M136.23,104.81L136.04,104.70L135.92,104.50L135.88,104.23L135.92,103.91L136.04,103.57L136.23,103.25L136.46,102.98L136.72,102.79L136.97,102.69L137.21,102.69L137.39,102.80L137.51,102.99L137.55,103.27L137.51,103.59L137.39,103.93L137.21,104.24L137.16,104.30L136.97,104.52L136.72,104.71L136.46,104.81L136.23,104.81"/><path style="stroke:#000000;stroke-width:0.088" d="M136.16,104.92L136.30,104.95"/><path style="stroke:#000000;stroke-width:0.088" d="M136.63,104.36L136.56,104.38L136.42,104.38L136.31,104.32L136.24,104.20L136.22,104.04L136.24,103.84L136.31,103.64L136.42,103.45L136.56,103.29L136.72,103.18L136.87,103.11L137.01,103.12L137.12,103.18L137.19,103.30L137.20,103.38"/><path style="stroke:#000000;stroke-width:0.088" d="M137.09,103.31L137.05,103.26L136.95,103.21L136.82,103.22L136.68,103.28L136.54,103.40L136.43,103.56L136.34,103.73L136.30,103.91L136.30,104.07L136.34,104.20L136.43,104.27L136.51,104.29"/><path style="stroke:#000000;stroke-width:0.088" d="M136.31,104.06L136.31,104.06L136.31,103.91L136.35,103.73L136.43,103.56L136.55,103.41L136.68,103.29"/><path style="stroke:#000000;stroke-width:0.088" d="M136.35,104.18L136.31,104.06"/><path style="stroke:#000000;stroke-width:0.088" d="M136.39,104.20L136.35,104.17"/><path style="stroke:#000000;stroke-width:0.088" d="M137.64,103.21L137.59,103.59L137.45,103.98L137.22,104.35L136.94,104.66L136.64,104.86"/><path style="stroke:#000000;stroke-width:0.088" d="M136.40,104.93L136.62,104.87"/><path style="stroke:#000000;stroke-width:0.088" d="M136.43,104.24L136.43,104.24"/><path style="stroke:#000000;stroke-width:0.088" d="M136.92,103.22L136.92,103.23"/><path style="stroke:#000000;stroke-width:0.088" d="M136.98,103.25L137.01,103.27L137.02,103.28"/><path style="stroke:#000000;stroke-width:0.088" d="M136.68,103.30L136.81,103.23L136.93,103.22"/><path style="stroke:#000000;stroke-width:0.088" d="M137.60,102.90L137.63,103.13"/><path style="stroke:#000000;stroke-width:0.088" d="M137.26,102.55L137.35,102.60"/><path style="stroke:#000000;stroke-width:0.088" d="M137.46,102.67L137.54,102.79"/><path style="stroke:#000000;stroke-width:0.088" d="M82.25,107.06L82.22,107.07L82.12,107.07L82.05,107.02L82.00,106.93L81.99,106.83L81.99,106.81L82.02,106.67L82.08,106.53L82.16,106.40L82.27,106.30L82.38,106.23L82.48,106.21L82.57,106.24L82.50,106.20L82.42,106.17L82.31,106.19L82.20,106.26L82.10,106.36L82.01,106.49L81.95,106.63L81.92,106.77"/><path style="stroke:#000000;stroke-width:0.088" d="M81.92,106.77L81.92,106.77L81.92,106.79L81.93,106.89L81.98,106.98L82.05,107.03"/><path style="stroke:#000000;stroke-width:0.088" d="M82.12,107.07L82.05,107.03L82.05,107.03"/><path style="stroke:#000000;stroke-width:0.088" d="M82.65,106.37L82.63,106.31L82.57,106.24"/><path style="stroke:#000000;stroke-width:0.088" d="M154.43,81.00L154.43,81.00L154.25,81.04L153.90,81.24L153.56,81.56L153.28,81.97L153.08,82.42L152.99,82.87L152.99,82.88"/><path style="stroke:#000000;stroke-width:0.088" d="M153.33,82.48L153.49,82.12L153.94,81.47L154.48,80.96L155.04,80.64L155.57,80.56L156.01,80.71L156.08,80.75L155.64,80.60L155.38,80.61L155.11,80.68L154.55,80.99L154.01,81.50L153.56,82.16L153.51,82.27"/><path style="stroke:#000000;stroke-width:0.088" d="M155.15,85.62L153.90,84.89"/><path style="stroke:#000000;stroke-width:0.088" d="M154.07,84.99L153.83,84.97"/><path style="stroke:#000000;stroke-width:0.088" d="M154.62,81.08L154.56,81.11L154.06,81.59L153.92,81.79"/><path style="stroke:#000000;stroke-width:0.088" d="M154.29,84.43L154.28,84.47L154.25,84.48"/><path style="stroke:#000000;stroke-width:0.088" d="M158.03,81.88L157.96,81.84L157.52,81.68L157.27,81.69L156.99,81.77L156.43,82.08L155.89,82.59L155.44,83.24L155.12,83.96L154.98,84.68L155.01,85.31L155.23,85.78L155.60,86.05L155.67,86.09L155.30,85.82L155.08,85.34L155.04,84.72L155.19,84.00L155.51,83.28L155.96,82.63L155.98,82.61L156.49,82.12L157.06,81.80L157.33,81.73L157.59,81.72L157.69,81.76L158.03,81.88L158.33,82.25L158.46,82.81L158.40,83.49L158.16,84.22L157.77,84.92L157.27,85.51L156.72,85.92L156.16,86.13L155.67,86.09"/><path style="stroke:#000000;stroke-width:0.088" d="M156.08,80.75L156.09,80.76"/><path style="stroke:#000000;stroke-width:0.088" d="M40.04,49.02L39.90,48.93L39.81,48.75L39.79,48.51L39.84,48.23L39.96,47.95L40.13,47.69L40.23,47.58L40.34,47.48L40.56,47.35L40.77,47.31L40.94,47.36L41.42,47.64"/><path style="stroke:#000000;stroke-width:0.088" d="M40.21,47.59L40.15,47.65L40.08,47.73L39.95,47.93L39.86,48.14L39.84,48.22"/><path style="stroke:#000000;stroke-width:0.088" d="M43.36,50.15L43.40,50.02L43.51,49.83L43.64,49.67L43.80,49.54L43.95,49.48L44.09,49.47L44.22,49.80"/><path style="stroke:#000000;stroke-width:0.088" d="M44.09,49.47L43.38,49.06"/><path style="stroke:#000000;stroke-width:0.088" d="M44.45,51.03L44.39,50.95L44.37,50.84L44.38,50.70L44.43,50.56L44.51,50.42L44.61,50.31L44.72,50.23L44.83,50.20L44.92,50.21L44.02,49.69L43.93,49.68L43.82,49.72L43.71,49.81L43.61,49.93L43.53,50.06L43.49,50.20L43.48,50.34L43.50,50.43L43.51,50.45L43.57,50.52L44.45,51.03L44.53,51.06L44.64,51.05L44.75,50.99L44.79,50.96L44.85,50.91L44.88,50.88L44.96,50.77L45.01,50.65L45.04,50.53L45.04,50.43L45.00,50.35L44.94,50.30L44.86,50.29L44.77,50.32L44.67,50.39L44.59,50.48L44.52,50.60L44.48,50.72L44.47,50.83L44.49,50.93L44.54,50.99L44.61,51.02L44.70,51.01L44.79,50.96"/><path style="stroke:#000000;stroke-width:0.088" d="M43.84,50.68L43.84,50.68L43.68,50.75L43.59,50.76"/><path style="stroke:#000000;stroke-width:0.088" d="M44.92,50.21L44.99,50.26L45.03,50.36L45.04,50.48"/><path style="stroke:#000000;stroke-width:0.088" d="M45.04,50.48L45.04,50.53"/><path style="stroke:#000000;stroke-width:0.088" d="M59.67,25.10L59.64,25.07L59.19,24.94L58.66,25.05L58.09,25.39L57.82,25.63L57.56,25.91L57.12,26.58L57.10,26.64"/><path style="stroke:#000000;stroke-width:0.088" d="M59.64,25.07L59.58,25.03L59.13,24.90L58.59,25.01L58.03,25.35L57.75,25.59L57.50,25.88L57.06,26.54L56.94,26.83"/><path style="stroke:#000000;stroke-width:0.088" d="M58.76,29.95L57.51,29.23"/><path style="stroke:#000000;stroke-width:0.088" d="M57.43,29.33L57.69,29.33"/><path style="stroke:#000000;stroke-width:0.088" d="M57.51,26.16L57.62,25.99L57.86,25.73L58.11,25.50L58.20,25.44"/><path style="stroke:#000000;stroke-width:0.088" d="M58.91,30.19L58.87,30.17L58.63,29.71L58.58,29.10L58.71,28.39L59.01,27.66L59.44,27.00L59.70,26.72L59.97,26.47L60.54,26.14L61.07,26.03L61.53,26.16L61.59,26.20L61.91,26.55L62.06,27.09L62.05,27.25"/><path style="stroke:#000000;stroke-width:0.088" d="M58.92,30.18L58.70,29.75L58.64,29.13L58.77,28.43L59.07,27.70L59.51,27.04L60.04,26.51L60.61,26.17L61.14,26.07L61.59,26.20"/><path style="stroke:#000000;stroke-width:0.088" d="M59.96,29.14L60.03,28.76L60.22,28.30L60.50,27.89L60.66,27.71L60.83,27.56L61.18,27.35L61.52,27.28L61.80,27.36L61.13,26.97L60.85,26.89L60.51,26.96L60.16,27.17L59.99,27.32L59.83,27.50L59.55,27.92L59.36,28.37L59.28,28.81L59.32,29.20L59.46,29.49L59.56,29.55"/><path style="stroke:#000000;stroke-width:0.088" d="M61.80,27.36L61.83,27.39"/><path style="stroke:#000000;stroke-width:0.088" d="M134.72,101.51L133.02,100.53L132.82,100.53L132.60,100.62L132.39,100.79L132.19,101.03L132.05,101.30L131.96,101.59L131.95,101.85L132.01,102.06L132.13,102.20L133.78,103.15"/><path style="stroke:#000000;stroke-width:0.088" d="M132.65,100.60L132.11,100.29"/><path style="stroke:#000000;stroke-width:0.088" d="M136.94,103.28L136.90,103.26L136.78,103.28L136.65,103.36L136.54,103.47L136.44,103.61L136.37,103.77L136.34,103.93L136.35,104.07L136.40,104.17L136.42,104.18"/><path style="stroke:#000000;stroke-width:0.088" d="M136.95,103.23L136.96,103.24L136.84,103.24L136.71,103.29L136.58,103.39L136.46,103.54L136.37,103.70L136.32,103.87L136.31,104.03L136.35,104.16L136.43,104.24L136.42,104.23"/><path style="stroke:#000000;stroke-width:0.088" d="M137.23,103.39L137.32,103.45L137.37,103.56L137.39,103.70L137.36,103.87L137.29,104.04L137.18,104.19L137.12,104.26L137.06,104.32L136.93,104.40L136.80,104.42L136.69,104.39L136.50,104.28L136.42,104.20L136.39,104.07L136.40,103.91L136.45,103.74L136.54,103.58L136.65,103.44L136.78,103.33L136.91,103.28L137.03,103.28L137.23,103.39L137.11,103.39L136.98,103.44L136.85,103.55L136.73,103.69L136.64,103.86L136.59,104.03L136.58,104.18L136.62,104.31L136.69,104.39"/><path style="stroke:#000000;stroke-width:0.088" d="M136.43,104.24L136.47,104.25"/><path style="stroke:#000000;stroke-width:0.088" d="M137.02,103.28L136.96,103.24"/><path style="stroke:#000000;stroke-width:0.088" d="M79.82,109.95L79.73,109.90"/><path style="stroke:#000000;stroke-width:0.088" d="M82.05,107.03L82.11,107.44L82.03,107.97L81.83,108.52L81.53,109.04L81.14,109.48L80.72,109.80L80.30,109.96L79.92,109.95L79.62,109.77L79.43,109.43L79.37,108.98L79.44,108.45L79.64,107.89L79.95,107.37L80.33,106.93L80.75,106.61L81.18,106.45L81.56,106.46L81.86,106.65L81.92,106.77"/><path style="stroke:#000000;stroke-width:0.088" d="M81.22,109.13L81.08,109.29L80.72,109.56L80.36,109.69L80.04,109.69L79.79,109.53L79.62,109.25L79.57,108.86L79.63,108.41L79.80,107.94L80.06,107.50L80.39,107.12L80.75,106.85L81.11,106.72L81.43,106.73L81.69,106.88L81.85,107.16L81.90,107.55L81.84,108.00L81.77,108.19"/><path style="stroke:#000000;stroke-width:0.088" d="M79.80,108.75L79.80,108.74L79.84,108.42"/><path style="stroke:#000000;stroke-width:0.088" d="M79.85,109.06L79.84,109.05L79.81,108.85"/><path style="stroke:#000000;stroke-width:0.088" d="M80.03,109.98L80.23,109.99"/><path style="stroke:#000000;stroke-width:0.088" d="M82.12,107.41L82.12,107.42L82.05,107.96L81.85,108.52L81.53,109.05L81.14,109.50L80.71,109.82L80.70,109.83L80.32,109.97"/><path style="stroke:#000000;stroke-width:0.088" d="M79.90,109.15L79.97,109.28L79.99,109.29"/><path style="stroke:#000000;stroke-width:0.088" d="M81.25,107.45L81.31,107.52L81.37,107.74L81.34,108.01L81.25,108.29L81.10,108.57L80.90,108.80L80.69,108.96L80.47,109.04L80.34,109.04"/><path style="stroke:#000000;stroke-width:0.088" d="M79.99,107.98L79.98,107.99L79.85,108.37L79.84,108.38"/><path style="stroke:#000000;stroke-width:0.088" d="M80.21,107.62L80.19,107.63L80.04,107.89"/><path style="stroke:#000000;stroke-width:0.088" d="M80.48,107.31L80.46,107.33L80.31,107.50"/><path style="stroke:#000000;stroke-width:0.088" d="M80.75,107.11L80.74,107.12"/><path style="stroke:#000000;stroke-width:0.088" d="M80.91,107.05L81.04,107.00L81.07,107.00"/><path style="stroke:#000000;stroke-width:0.088" d="M81.19,107.01L81.30,107.01L81.33,107.03"/><path style="stroke:#000000;stroke-width:0.088" d="M81.66,108.48L81.67,108.47L81.67,108.46"/><path style="stroke:#000000;stroke-width:0.088" d="M81.42,108.89L81.41,108.91L81.39,108.94"/><path style="stroke:#000000;stroke-width:0.088" d="M82.07,107.04L82.12,107.40"/><path style="stroke:#000000;stroke-width:0.088" d="M81.81,106.55L81.70,106.49"/><path style="stroke:#000000;stroke-width:0.088" d="M103.73,84.65L103.52,84.51L103.39,84.28L103.39,84.27L103.35,83.93L103.42,83.54L103.58,83.14L103.62,83.07L103.82,82.78L104.11,82.49L104.42,82.30L104.72,82.24L104.97,82.30L105.13,82.40L104.88,82.33L104.83,82.34L104.59,82.40L104.28,82.58L103.99,82.88L103.79,83.17L103.75,83.24L103.59,83.64L103.52,84.03L103.55,84.36L103.68,84.61L103.90,84.74L103.73,84.65"/><path style="stroke:#000000;stroke-width:0.088" d="M103.80,84.08L103.79,83.82L103.86,83.54L103.99,83.26L104.17,83.01L104.39,82.82L104.61,82.71L104.81,82.68L104.98,82.76L105.09,82.91L105.13,83.14L105.10,83.41L105.00,83.70L104.84,83.97L104.64,84.19L104.42,84.34L104.20,84.41L104.02,84.39L103.99,84.37L103.88,84.27L103.80,84.08"/><path style="stroke:#000000;stroke-width:0.088" d="M104.83,82.69L104.92,82.82L104.96,83.04L104.93,83.31L104.83,83.60L104.67,83.87L104.47,84.09L104.25,84.25L104.04,84.32L103.91,84.30"/><path style="stroke:#000000;stroke-width:0.088" d="M105.13,82.40L105.31,82.59L105.39,82.89L105.38,83.26L105.26,83.66L105.05,84.04L104.79,84.38L104.61,84.52L104.48,84.62L104.18,84.75L103.90,84.74"/><path style="stroke:#000000;stroke-width:0.088" d="M103.44,85.16L103.67,85.22L104.08,85.13L104.51,84.89L104.92,84.50L105.26,84.00L105.51,83.46L105.64,82.91L105.64,82.42L105.51,82.02L105.26,81.77L104.91,81.68L104.50,81.77L104.07,82.02L103.66,82.41L103.32,82.90L103.07,83.44L102.94,83.99L102.94,84.49L102.99,84.64"/><path style="stroke:#000000;stroke-width:0.088" d="M103.43,85.20L103.49,85.22"/><path style="stroke:#000000;stroke-width:0.088" d="M103.97,85.18L103.67,85.25"/><path style="stroke:#000000;stroke-width:0.088" d="M105.29,83.53L105.33,83.45L105.44,82.99L105.44,82.57L105.33,82.24L105.11,82.02L104.81,81.95L104.47,82.02L104.10,82.23L103.76,82.56L103.46,82.98L103.25,83.45L103.14,83.91L103.14,84.33L103.26,84.66L103.47,84.88L103.77,84.95L104.11,84.88L104.48,84.67L104.77,84.39"/><path style="stroke:#000000;stroke-width:0.088" d="M103.69,84.62L103.63,84.60L103.57,84.55"/><path style="stroke:#000000;stroke-width:0.088" d="M103.42,84.34L103.45,84.43L103.49,84.47"/><path style="stroke:#000000;stroke-width:0.088" d="M103.40,83.67L103.36,83.82L103.36,83.88"/><path style="stroke:#000000;stroke-width:0.088" d="M103.36,84.03L103.36,84.16L103.38,84.21"/><path style="stroke:#000000;stroke-width:0.088" d="M103.53,83.28L103.45,83.45L103.44,83.50"/><path style="stroke:#000000;stroke-width:0.088" d="M104.07,85.16L104.50,84.91"/><path style="stroke:#000000;stroke-width:0.088" d="M104.81,82.68L104.83,82.70L104.91,82.89L104.92,83.14L104.85,83.42L104.73,83.70L104.55,83.95L104.34,84.15L104.11,84.27L103.91,84.29L103.89,84.29"/><path style="stroke:#000000;stroke-width:0.088" d="M104.91,84.52L104.51,84.90"/><path style="stroke:#000000;stroke-width:0.088" d="M104.01,82.59L103.86,82.73L103.84,82.76"/><path style="stroke:#000000;stroke-width:0.088" d="M104.34,82.35L104.14,82.47L104.13,82.48"/><path style="stroke:#000000;stroke-width:0.088" d="M104.71,82.24L104.71,82.24L104.43,82.29L104.43,82.30"/><path style="stroke:#000000;stroke-width:0.088" d="M104.87,84.27L104.82,84.34L104.79,84.37"/><path style="stroke:#000000;stroke-width:0.088" d="M104.93,84.50L105.26,84.02"/><path style="stroke:#000000;stroke-width:0.088" d="M105.52,83.47L105.28,83.99"/><path style="stroke:#000000;stroke-width:0.088" d="M104.76,82.25L104.95,82.30L104.96,82.30"/><path style="stroke:#000000;stroke-width:0.088" d="M105.00,81.64L105.05,81.65"/><path style="stroke:#000000;stroke-width:0.088" d="M105.42,81.87L105.30,81.75"/><path style="stroke:#000000;stroke-width:0.088" d="M105.66,82.88L105.66,82.40"/><path style="stroke:#000000;stroke-width:0.088" d="M105.66,82.91L105.53,83.43"/><path style="stroke:#000000;stroke-width:0.088" d="M105.54,82.02L105.63,82.30"/><path style="stroke:#000000;stroke-width:0.088" d="M81.54,107.13L81.37,107.04L81.11,106.99L80.81,107.08L80.75,107.11L80.50,107.29L80.22,107.60L79.99,107.98L79.84,108.38L79.80,108.76L79.85,109.08L80.00,109.31L80.17,109.40L80.02,109.18L79.96,108.86L80.01,108.47L80.16,108.07L80.38,107.70L80.59,107.47L80.67,107.39L80.92,107.21L80.97,107.18L81.27,107.09L81.54,107.13L81.73,107.30L81.83,107.58L81.83,107.94L81.74,108.33L81.55,108.72L81.29,109.07L80.99,109.33L80.68,109.49L80.40,109.51L80.17,109.40"/><path style="stroke:#000000;stroke-width:0.088" d="M80.59,109.17L80.41,109.12L80.29,108.97L80.24,108.76L80.25,108.50L80.34,108.21L80.49,107.94L80.68,107.70L80.90,107.53L81.12,107.44L81.31,107.45L81.46,107.55L81.55,107.73L81.58,107.92L81.57,107.97L81.52,108.25L81.40,108.54L81.23,108.79L81.02,109.00L80.80,109.13L80.59,109.17"/><path style="stroke:#000000;stroke-width:0.088" d="M80.36,109.05L80.42,109.07L80.63,109.03L80.85,108.90L81.06,108.70L81.23,108.44L81.35,108.15L81.41,107.88L81.41,107.83L81.39,107.63L81.30,107.45L81.29,107.45"/><path style="stroke:#000000;stroke-width:0.088" d="M102.99,84.64L102.92,84.62L102.82,84.64L102.71,84.70L102.61,84.81L102.52,84.93L102.46,85.08L102.43,85.22L102.43,85.24L102.44,85.34L102.49,85.43L102.56,85.48L102.63,85.52L102.56,85.47L102.51,85.38L102.50,85.28L102.50,85.25L102.53,85.12L102.59,84.97L102.67,84.84L102.78,84.74L102.89,84.68L102.99,84.66L103.08,84.68L103.01,84.64"/><path style="stroke:#000000;stroke-width:0.088" d="M102.63,85.52L102.73,85.52L102.75,85.51"/><path style="stroke:#000000;stroke-width:0.088" d="M103.08,84.68L103.14,84.75L103.16,84.81"/><path style="stroke:#000000;stroke-width:0.088" d="M82.06,106.70L82.05,106.72L82.04,106.83L82.06,106.92L82.11,106.99L82.42,107.17L82.37,107.10L82.35,107.01L82.36,106.90L82.40,106.77L82.47,106.66L82.47,106.66L82.55,106.56L82.64,106.49L82.64,106.49L82.73,106.46L82.82,106.46L82.51,106.28L82.42,106.28L82.33,106.31L82.33,106.31L82.24,106.38L82.15,106.48L82.09,106.60L82.06,106.70"/><path style="stroke:#000000;stroke-width:0.088" d="M82.90,106.83L82.92,106.72L82.92,106.70L82.92,106.62L82.88,106.55L82.83,106.51L82.75,106.50L82.67,106.53L82.67,106.54L82.58,106.60L82.51,106.69L82.45,106.79L82.41,106.90L82.40,107.01L82.42,107.09L82.47,107.15L82.53,107.17L82.61,107.16L82.70,107.11L82.78,107.04L82.85,106.94L82.90,106.83"/><path style="stroke:#000000;stroke-width:0.088" d="M82.42,107.17L82.50,107.19"/><path style="stroke:#000000;stroke-width:0.088" d="M82.50,107.19L82.50,107.19"/><path style="stroke:#000000;stroke-width:0.088" d="M82.51,106.89L82.57,106.85L82.74,106.95L82.68,106.96L82.64,106.98L82.61,107.01L82.58,107.04L82.55,107.00L82.52,106.97L82.51,106.95L82.51,106.93L82.51,106.97L82.53,107.00L82.55,107.03L82.58,107.04L82.62,107.03L82.66,107.02L82.70,106.99L82.74,106.95L82.77,106.90L82.80,106.85L82.81,106.80L82.82,106.75L82.66,106.66"/><path style="stroke:#000000;stroke-width:0.088" d="M82.74,106.95L82.74,106.89L82.76,106.84L82.78,106.79L82.82,106.75L82.78,106.71L82.76,106.68L82.75,106.66L82.74,106.64L82.77,106.65L82.80,106.67L82.81,106.71L82.82,106.75"/><path style="stroke:#000000;stroke-width:0.088" d="M82.57,106.85L82.64,106.67"/><path style="stroke:#000000;stroke-width:0.088" d="M82.65,106.67L82.68,106.65L82.74,106.64L82.70,106.64L82.66,106.66L82.62,106.69L82.59,106.73L82.55,106.77L82.53,106.82L82.51,106.88L82.51,106.93"/><path style="stroke:#000000;stroke-width:0.088" d="M82.50,107.19L82.51,107.19L82.60,107.18L82.70,107.13L82.78,107.04L82.86,106.94L82.91,106.82L82.93,106.71L82.93,106.70L82.92,106.60L82.89,106.52L82.89,106.51L82.88,106.51L82.82,106.46"/><path style="stroke:#000000;stroke-width:0.088" d="M103.04,85.62L102.98,85.60L102.93,85.54L102.91,85.45L102.92,85.35L102.96,85.24L103.01,85.13L103.09,85.04L103.17,84.98L103.18,84.98L103.26,84.95L103.33,84.96L103.39,85.00L103.42,85.07L103.43,85.16L103.41,85.27L103.36,85.38L103.29,85.48L103.21,85.56L103.12,85.61L103.04,85.62"/><path style="stroke:#000000;stroke-width:0.088" d="M102.93,85.61L102.62,85.43L102.57,85.37L102.55,85.28L102.56,85.16L102.59,85.05L102.60,85.04L102.66,84.92L102.75,84.83L102.84,84.76L102.84,84.76L102.93,84.72L103.01,84.73L103.33,84.91L103.24,84.90L103.15,84.94L103.15,84.94L103.06,85.01L102.97,85.10L102.91,85.22L102.87,85.34L102.86,85.45L102.88,85.55L102.93,85.61L103.00,85.64"/><path style="stroke:#000000;stroke-width:0.088" d="M103.00,85.64L103.01,85.64L103.02,85.64L103.11,85.63L103.21,85.57L103.21,85.57L103.29,85.49L103.36,85.39L103.42,85.27L103.44,85.15L103.44,85.15L103.43,85.05L103.40,84.97L103.39,84.96L103.39,84.95L103.33,84.91"/><path style="stroke:#000000;stroke-width:0.088" d="M103.02,85.37L103.02,85.39L103.03,85.42L103.06,85.44L103.09,85.48L103.12,85.45L103.15,85.43L103.19,85.41L103.25,85.40L103.25,85.33L103.27,85.28L103.29,85.24L103.33,85.20L103.29,85.16L103.27,85.13L103.25,85.10L103.25,85.08L103.21,85.09L103.17,85.10L103.13,85.13L103.09,85.17L103.06,85.22L103.04,85.27L103.02,85.32L103.02,85.37L103.02,85.41L103.04,85.45L103.06,85.47L103.09,85.48L103.13,85.48L103.17,85.46L103.21,85.43L103.25,85.40L103.28,85.35L103.30,85.30L103.32,85.25L103.33,85.20L103.17,85.11"/><path style="stroke:#000000;stroke-width:0.088" d="M103.02,85.33L103.08,85.30L103.15,85.12"/><path style="stroke:#000000;stroke-width:0.088" d="M103.25,85.40L103.08,85.30"/><path style="stroke:#000000;stroke-width:0.088" d="M103.33,85.20L103.32,85.15L103.31,85.12L103.28,85.09L103.25,85.08L103.19,85.10L103.16,85.11"/><path style="stroke:#000000;stroke-width:0.088" d="M112.08,118.38L111.67,117.31L112.27,117.66"/><path style="stroke:#000000;stroke-width:0.088" d="M111.67,117.31L112.62,116.37"/><path style="stroke:#000000;stroke-width:0.088" d="M119.05,112.07L151.33,79.87L149.99,79.09L116.81,112.18"/><path style="stroke:#000000;stroke-width:0.088" d="M124.94,111.97L122.79,114.12"/><path style="stroke:#000000;stroke-width:0.088" d="M124.95,111.96L125.19,111.72"/><path style="stroke:#000000;stroke-width:0.088" d="M130.31,106.61L133.78,103.15"/><path style="stroke:#000000;stroke-width:0.088" d="M132.98,102.69L132.84,102.76L132.72,102.76L132.63,102.72L132.57,102.62L132.49,102.40"/><path style="stroke:#000000;stroke-width:0.088" d="M132.45,100.06L132.69,100.20L132.62,100.11L132.53,100.06L132.42,100.06L132.29,100.12L132.17,100.22L132.06,100.35L131.97,100.51L131.92,100.67L131.90,100.82L131.93,100.95L132.06,101.29"/><path style="stroke:#000000;stroke-width:0.088" d="M132.81,100.53L132.69,100.20"/><path style="stroke:#000000;stroke-width:0.088" d="M135.58,101.36L146.81,90.15"/><path style="stroke:#000000;stroke-width:0.088" d="M149.99,79.09L150.71,78.51L151.44,78.19L152.10,78.17L152.64,78.44L153.99,79.21L153.45,78.94L152.78,78.97L152.05,79.29L151.33,79.87"/><path style="stroke:#000000;stroke-width:0.088" d="M151.10,82.81L151.05,82.84L150.99,82.88L150.95,82.95L150.91,83.02L150.89,83.09L150.90,83.15L150.91,83.20L150.95,83.23L150.99,83.24L151.05,83.22L151.10,83.19L151.15,83.13L151.19,83.06L151.22,82.99L151.23,82.92L151.22,82.87L151.19,82.83L151.15,82.81L151.10,82.81"/><path style="stroke:#000000;stroke-width:0.088" d="M151.04,82.84L151.07,82.83L151.11,82.83L151.15,82.85L151.17,82.88L151.17,82.93L151.17,82.99L151.14,83.05L151.11,83.10L151.07,83.15L151.02,83.18L150.98,83.19L150.94,83.18L150.91,83.16L150.89,83.12"/><path style="stroke:#000000;stroke-width:0.088" d="M153.96,80.58L153.96,80.38L153.79,79.98L153.49,79.74L153.09,79.70L152.64,79.85L152.18,80.18L152.09,80.26L151.76,80.66L151.43,81.22L151.22,81.82L151.17,82.39L151.26,82.86L151.50,83.18L151.85,83.33L152.28,83.27L152.44,83.19"/><path style="stroke:#000000;stroke-width:0.088" d="M153.99,79.21L154.34,79.75L154.48,80.50L154.45,80.87"/><path style="stroke:#000000;stroke-width:0.088" d="M27.67,69.10L27.72,69.21L25.89,71.03L24.54,70.26L22.93,66.08L24.77,64.26L26.11,65.03L24.28,66.86L22.93,66.08"/><path style="stroke:#000000;stroke-width:0.088" d="M23.95,67.33L23.93,67.32L23.85,67.27L23.76,67.18L23.67,67.09L23.59,66.99L23.55,66.90L23.53,66.82L23.55,66.78L23.60,66.76L23.68,66.78L23.77,66.83L23.87,66.91L23.96,67.00L24.05,67.10L24.10,67.19L24.14,67.28L24.13,67.33L24.10,67.37L24.04,67.36L23.95,67.33"/><path style="stroke:#000000;stroke-width:0.088" d="M24.74,69.97L24.70,69.88L24.68,69.81L24.70,69.76L24.75,69.75L24.83,69.76L24.92,69.81L25.02,69.89L25.11,69.98L25.19,70.08L25.25,70.17L25.28,70.26L25.28,70.32L25.25,70.35L25.18,70.34L25.10,70.31L25.08,70.30L25.00,70.25L24.90,70.16L24.81,70.07L24.74,69.97"/><path style="stroke:#000000;stroke-width:0.088" d="M24.70,68.83L24.66,68.86L24.59,68.85L24.51,68.81L24.41,68.74L24.31,68.65L24.22,68.56L24.16,68.46L24.12,68.37L24.11,68.30L24.14,68.26L24.19,68.26L24.27,68.28L24.31,68.30L24.36,68.33L24.46,68.41L24.56,68.51L24.63,68.61L24.69,68.70L24.71,68.78L24.70,68.83"/><path style="stroke:#000000;stroke-width:0.088" d="M24.66,68.86L24.71,68.82"/><path style="stroke:#000000;stroke-width:0.088" d="M24.28,66.86L25.89,71.03"/><path style="stroke:#000000;stroke-width:0.088" d="M26.19,68.24L26.19,68.24"/><path style="stroke:#000000;stroke-width:0.088" d="M26.02,67.26L25.97,67.66"/><path style="stroke:#000000;stroke-width:0.088" d="M26.03,68.00L26.03,68.00"/><path style="stroke:#000000;stroke-width:0.088" d="M25.97,67.68L25.97,67.67"/><path style="stroke:#000000;stroke-width:0.088" d="M26.17,66.82L26.37,66.49"/><path style="stroke:#000000;stroke-width:0.088" d="M26.02,67.25L26.09,67.05"/><path style="stroke:#000000;stroke-width:0.088" d="M26.41,66.42L26.57,66.23L26.11,65.03"/><path style="stroke:#000000;stroke-width:0.088" d="M26.95,65.92L26.87,65.96L26.70,66.10L26.24,64.91L24.89,64.13L24.99,64.39"/><path style="stroke:#000000;stroke-width:0.088" d="M24.89,64.13L61.25,27.86L62.59,28.63L26.24,64.91"/><path style="stroke:#000000;stroke-width:0.088" d="M26.70,66.10L26.47,65.97"/><path style="stroke:#000000;stroke-width:0.088" d="M27.12,65.83L27.20,65.79L27.28,65.78"/><path style="stroke:#000000;stroke-width:0.088" d="M27.57,65.79L27.51,65.76L27.43,65.77"/><path style="stroke:#000000;stroke-width:0.088" d="M29.85,67.07L64.20,32.81L64.41,32.56"/><path style="stroke:#000000;stroke-width:0.088" d="M30.20,63.40L30.09,63.12L30.05,62.91L30.08,62.65L30.17,62.38L30.31,62.12L30.49,61.90L41.22,51.19L41.43,51.03L41.64,50.93L41.83,50.93L41.98,51.00L42.09,51.16L42.54,52.35L42.58,52.56L42.56,52.82L42.47,53.09L42.33,53.35L42.14,53.58L31.41,64.28L31.21,64.45L31.00,64.54L30.81,64.54L30.65,64.47L30.55,64.31L30.20,63.40"/><path style="stroke:#000000;stroke-width:0.088" d="M42.14,53.58L41.14,52.99L30.40,63.70L31.41,64.28"/><path style="stroke:#000000;stroke-width:0.088" d="M30.40,63.70L30.34,63.75"/><path style="stroke:#000000;stroke-width:0.088" d="M41.14,52.99L41.32,52.77L41.46,52.51L41.55,52.24L41.58,51.98L41.54,51.77L42.54,52.35"/><path style="stroke:#000000;stroke-width:0.088" d="M41.54,51.77L41.29,51.14"/><path style="stroke:#000000;stroke-width:0.088" d="M42.09,51.16L41.70,50.93"/><path style="stroke:#000000;stroke-width:0.088" d="M44.29,49.84L43.95,48.97L43.89,48.87L43.80,48.83L43.68,48.83L43.56,48.89L43.43,48.99L43.32,49.12L43.24,49.28L43.18,49.44L43.17,49.59L43.19,49.72L43.84,51.39L43.90,51.48L43.99,51.53L44.10,51.53L44.23,51.47L44.35,51.37L44.46,51.24L44.56,51.06"/><path style="stroke:#000000;stroke-width:0.088" d="M43.72,48.83L43.95,48.97"/><path style="stroke:#000000;stroke-width:0.088" d="M46.24,49.48L61.40,34.37L61.58,34.15L61.72,33.88L61.81,33.61L61.84,33.36L61.80,33.14L61.54,32.47L61.34,31.95L61.24,31.80L61.08,31.72L60.89,31.73L60.68,31.82L60.48,31.98L45.33,47.10L45.14,47.32L45.00,47.58L44.91,47.85L44.90,47.94L44.89,48.11L44.93,48.32L45.39,49.52L45.49,49.67L45.64,49.75L45.83,49.74L46.04,49.65L46.24,49.48L45.24,48.90L45.17,48.96"/><path style="stroke:#000000;stroke-width:0.088" d="M45.24,48.90L60.39,33.79L61.40,34.37"/><path style="stroke:#000000;stroke-width:0.088" d="M60.39,33.79L60.57,33.56L60.71,33.30L60.80,33.03L60.83,32.78L60.79,32.56L60.55,31.93"/><path style="stroke:#000000;stroke-width:0.088" d="M60.79,32.56L61.80,33.14"/><path style="stroke:#000000;stroke-width:0.088" d="M60.95,31.73L61.34,31.95"/><path style="stroke:#000000;stroke-width:0.088" d="M61.25,27.86L61.97,27.28L62.47,27.06L62.70,26.96L63.37,26.94L63.91,27.20L65.25,27.98L64.71,27.71L64.05,27.74L63.32,28.05L62.59,28.63"/><path style="stroke:#000000;stroke-width:0.088" d="M63.40,31.98L63.20,32.01L62.85,31.90L62.61,31.61L62.58,31.54L62.50,31.18L62.54,30.65L62.72,30.08L63.02,29.53L63.41,29.06L63.84,28.73L64.28,28.56L64.67,28.58L64.97,28.78L65.11,29.08"/><path style="stroke:#000000;stroke-width:0.088" d="M62.17,31.95L62.19,31.99L62.23,32.01L62.28,32.00L62.34,31.98L62.39,31.93L62.44,31.87L62.47,31.80L62.49,31.73L62.49,31.66L62.47,31.61L62.44,31.58L62.39,31.57L62.34,31.59L62.28,31.63L62.23,31.68L62.19,31.75L62.17,31.82L62.17,31.95"/><path style="stroke:#000000;stroke-width:0.088" d="M62.16,31.87L62.16,31.91L62.19,31.94L62.22,31.96L62.26,31.95L62.31,31.93L62.36,31.89L62.39,31.84L62.42,31.78L62.44,31.72L62.44,31.67L62.42,31.63L62.39,31.60"/><path style="stroke:#000000;stroke-width:0.088" d="M62.59,31.56L62.66,31.55"/><path style="stroke:#000000;stroke-width:0.088" d="M62.32,31.60L62.35,31.59L62.40,31.61"/><path style="stroke:#000000;stroke-width:0.088" d="M64.33,28.56L64.37,28.66"/><path style="stroke:#000000;stroke-width:0.088" d="M65.73,29.44L65.75,29.27L65.61,28.52L65.25,27.98"/><path style="stroke:#000000;stroke-width:0.088" d="M37.64,48.30L37.45,48.06L37.37,47.71L37.41,47.28L37.44,47.17L37.55,46.82L37.80,46.39L38.11,46.02L38.46,45.76L38.81,45.63L39.12,45.66L41.00,46.74L40.69,46.72L40.34,46.84L39.99,47.11L39.68,47.47L39.52,47.76L39.43,47.91L39.29,48.37L39.25,48.79L39.33,49.15L39.52,49.38L37.64,48.30"/><path style="stroke:#000000;stroke-width:0.088" d="M39.78,49.28L39.62,49.22L39.45,49.01L39.38,48.71L39.42,48.33L39.54,47.94L39.55,47.93L39.76,47.55L40.03,47.23L40.34,47.00L40.65,46.89L40.91,46.91L41.12,47.06L41.24,47.32L41.25,47.54"/><path style="stroke:#000000;stroke-width:0.088" d="M39.52,49.38L39.63,49.42"/><path style="stroke:#000000;stroke-width:0.088" d="M41.00,46.74L41.23,46.91L41.37,47.21L41.39,47.61L41.39,47.62"/><path style="stroke:#000000;stroke-width:0.088" d="M135.94,105.06L134.06,103.97L133.86,103.75L133.77,103.41L133.79,102.99L133.92,102.53L134.16,102.09L134.47,101.71L134.81,101.43L135.16,101.29L135.48,101.30L137.36,102.38L137.04,102.38L136.69,102.52L136.35,102.80L136.31,102.84L136.04,103.18L135.80,103.62L135.67,104.07L135.65,104.49L135.74,104.83L135.94,105.06L136.22,105.14L136.56,105.07L136.91,104.86L137.08,104.70L137.25,104.52L137.52,104.11L137.71,103.65L137.79,103.21L137.75,102.82L137.60,102.54L137.36,102.38"/><path style="stroke:#000000;stroke-width:0.088" d="M136.28,104.96L136.58,104.90L136.89,104.72L137.04,104.58L137.18,104.43L137.42,104.06L137.58,103.66L137.65,103.28L137.65,103.18L137.62,102.94L137.49,102.69L137.28,102.55L137.00,102.55L136.70,102.67L136.67,102.70L136.39,102.92L136.12,103.25L135.92,103.63L135.80,104.03L135.78,104.40L135.86,104.70L136.04,104.89L136.28,104.96"/><path style="stroke:#000000;stroke-width:0.088" d="M23.74,68.16L23.67,68.12"/><path style="stroke:#000000;stroke-width:0.088" d="M148.16,80.91L62.57,31.49"/><path style="stroke:#000000;stroke-width:0.088" d="M149.39,79.68L62.90,29.75"/><path style="stroke:#000000;stroke-width:0.088" d="M150.71,78.51L64.23,28.58"/><path style="stroke:#000000;stroke-width:0.088" d="M157.01,85.25L157.32,85.04L157.60,84.73L157.83,84.36L157.97,83.96L158.02,83.58L157.97,83.25L157.82,83.03L157.59,82.92L157.31,82.94L157.00,83.09L156.70,83.35L156.53,83.58L156.44,83.70L156.25,84.09L156.16,84.48L156.16,84.84L156.26,85.12L156.45,85.29L156.71,85.34L156.76,85.33L157.01,85.25L156.94,85.29L156.61,85.38L156.34,85.34L156.10,85.20L155.91,85.00"/><path style="stroke:#000000;stroke-width:0.088" d="M158.02,83.58L158.02,83.50L157.97,83.15L157.81,82.91L157.56,82.79L157.36,82.79L157.26,82.81L156.93,82.97L156.61,83.26L156.33,83.63L156.13,84.05L156.02,84.47L156.02,84.85L156.13,85.15L156.34,85.34"/><path style="stroke:#000000;stroke-width:0.088" d="M155.91,85.00L155.81,84.69L155.83,84.30L155.95,83.87L156.16,83.46L156.41,83.14L156.45,83.10L156.77,82.83L156.71,82.87L156.40,83.12L156.14,83.45L155.94,83.84L155.83,84.24L155.81,84.60L155.81,84.69"/><path style="stroke:#000000;stroke-width:0.088" d="M156.98,84.38L156.93,84.37L156.90,84.32L156.88,84.25L156.89,84.17L156.92,84.09L156.96,84.01L157.02,83.94L157.09,83.89L157.15,83.86L157.21,83.87L157.25,83.90L157.28,83.96L157.28,84.03L157.27,84.11L157.24,84.18L157.23,84.20L157.18,84.28L157.11,84.34L157.05,84.37L156.98,84.38"/><path style="stroke:#000000;stroke-width:0.088" d="M157.40,82.68L157.40,82.68L157.36,82.68L157.10,82.69L156.77,82.83"/><path style="stroke:#000000;stroke-width:0.088" d="M157.40,82.68L157.81,82.91"/><path style="stroke:#000000;stroke-width:0.088" d="M152.02,82.84L151.87,82.76"/><path style="stroke:#000000;stroke-width:0.088" d="M151.63,81.75L151.60,81.85"/><path style="stroke:#000000;stroke-width:0.088" d="M152.63,83.31L152.19,83.05L152.00,82.82L151.91,82.47L151.94,82.05L152.09,81.59L152.33,81.16L152.64,80.78L152.99,80.51L152.92,80.55L152.59,80.80L152.30,81.15L152.27,81.21L152.08,81.57L151.94,81.99L151.91,82.39L151.91,82.47"/><path style="stroke:#000000;stroke-width:0.088" d="M154.47,80.97L154.29,80.97L153.94,81.12L153.60,81.40L153.29,81.79L153.06,82.23L152.93,82.69L152.92,82.96"/><path style="stroke:#000000;stroke-width:0.088" d="M152.99,80.51L153.34,80.38L153.65,80.40"/><path style="stroke:#000000;stroke-width:0.088" d="M153.17,80.24L153.44,80.39"/><path style="stroke:#000000;stroke-width:0.088" d="M153.65,80.40L154.54,80.92"/><path style="stroke:#000000;stroke-width:0.088" d="M60.87,27.61L60.55,27.92L60.29,28.30L60.11,28.73L60.04,29.06"/><path style="stroke:#000000;stroke-width:0.088" d="M60.06,29.04L60.12,28.77L60.31,28.32L60.59,27.91L60.92,27.58L61.28,27.38L61.61,27.32L61.83,27.39"/><path style="stroke:#000000;stroke-width:0.088" d="M61.27,27.38L61.20,27.42L60.87,27.61"/><path style="stroke:#000000;stroke-width:0.088" d="M18.27,70.48L18.08,70.37L17.29,69.73L16.75,68.77L16.48,67.53L16.51,66.09L16.83,64.53L17.42,62.94L18.25,61.40L18.49,61.08L19.27,60.02L20.43,58.85L21.66,57.98L23.34,58.95L22.11,59.82L21.21,60.73"/><path style="stroke:#000000;stroke-width:0.088" d="M20.72,61.31L19.93,62.37L19.10,63.91L18.51,65.50L18.19,67.06L18.16,68.50L18.43,69.74L18.46,69.78"/><path style="stroke:#000000;stroke-width:0.088" d="M18.51,69.56L18.47,69.35"/><path style="stroke:#000000;stroke-width:0.088" d="M18.28,68.04L18.27,68.42L18.34,68.75"/><path style="stroke:#000000;stroke-width:0.088" d="M18.37,66.63L18.30,67.01L18.29,67.39"/><path style="stroke:#000000;stroke-width:0.088" d="M18.53,65.88L18.61,65.49L18.76,65.09"/><path style="stroke:#000000;stroke-width:0.088" d="M19.40,63.54L19.19,63.93L19.04,64.32"/><path style="stroke:#000000;stroke-width:0.088" d="M20.27,62.06L20.00,62.43L19.80,62.80"/><path style="stroke:#000000;stroke-width:0.088" d="M21.66,57.98L38.10,48.56"/><path style="stroke:#000000;stroke-width:0.088" d="M21.87,60.20L22.14,59.93L22.47,59.69"/><path style="stroke:#000000;stroke-width:0.088" d="M23.34,58.95L39.18,49.88"/><path style="stroke:#000000;stroke-width:0.088" d="M23.32,59.09L38.89,50.17"/><path style="stroke:#000000;stroke-width:0.088" d="M43.58,45.49L59.40,26.88L59.91,26.38L60.46,26.07L60.97,25.97L61.41,26.09L59.73,25.12L59.29,25.00L58.78,25.10L58.42,25.30L58.23,25.42L57.72,25.91L40.34,46.36"/><path style="stroke:#000000;stroke-width:0.088" d="M44.36,44.71L59.48,26.93"/><path style="stroke:#000000;stroke-width:0.088" d="M58.18,29.62L47.27,41.80"/><path style="stroke:#000000;stroke-width:0.088" d="M57.72,25.91L59.40,26.88"/><path style="stroke:#000000;stroke-width:0.088" d="M60.02,26.44L59.91,26.52"/><path style="stroke:#000000;stroke-width:0.088" d="M61.45,26.14L61.41,26.09"/><path style="stroke:#000000;stroke-width:0.088" d="M116.15,126.99L115.36,126.35L114.82,125.39L114.56,124.15L114.58,122.71L114.90,121.15L115.49,119.56L116.32,118.03L117.35,116.64L118.50,115.48L119.73,114.60L118.05,113.64L116.82,114.51L116.13,115.21L115.67,115.67L114.64,117.06L113.81,118.59L113.22,120.18L112.90,121.74L112.88,123.18L113.14,124.42L113.68,125.38L114.47,126.02L116.15,126.99L117.14,127.27L117.24,127.26"/><path style="stroke:#000000;stroke-width:0.088" d="M114.67,123.71L114.66,124.08L114.73,124.41"/><path style="stroke:#000000;stroke-width:0.088" d="M114.68,123.04L114.69,122.67L114.77,122.29"/><path style="stroke:#000000;stroke-width:0.088" d="M115.67,126.41L115.45,126.23L115.33,126.02"/><path style="stroke:#000000;stroke-width:0.088" d="M114.86,125.00L114.92,125.29L115.07,125.55"/><path style="stroke:#000000;stroke-width:0.088" d="M114.92,121.53L115.00,121.14L115.15,120.74"/><path style="stroke:#000000;stroke-width:0.088" d="M115.79,119.19L115.58,119.58L115.43,119.97"/><path style="stroke:#000000;stroke-width:0.088" d="M116.35,126.89L116.23,126.86L116.13,126.79"/><path style="stroke:#000000;stroke-width:0.088" d="M116.19,118.45L116.39,118.08L116.66,117.72"/><path style="stroke:#000000;stroke-width:0.088" d="M117.71,116.41L117.40,116.72L117.15,117.05"/><path style="stroke:#000000;stroke-width:0.088" d="M118.86,115.35L118.53,115.58L118.26,115.85"/><path style="stroke:#000000;stroke-width:0.088" d="M118.05,113.64L134.49,104.22"/><path style="stroke:#000000;stroke-width:0.088" d="M119.73,114.60L136.28,105.13"/><path style="stroke:#000000;stroke-width:0.088" d="M136.81,104.92L136.61,105.06L119.71,114.74"/><path style="stroke:#000000;stroke-width:0.088" d="M156.63,85.95L123.65,122.79"/><path style="stroke:#000000;stroke-width:0.088" d="M156.45,86.02L123.85,122.43"/><path style="stroke:#000000;stroke-width:0.088" d="M125.09,118.21L154.57,85.28"/><path style="stroke:#000000;stroke-width:0.088" d="M136.72,102.02L154.11,81.56L155.79,82.53L137.59,103.95"/><path style="stroke:#000000;stroke-width:0.088" d="M156.33,82.14L155.84,82.61L137.35,104.36"/><path style="stroke:#000000;stroke-width:0.088" d="M154.11,81.56L154.63,81.07L155.17,80.75L155.69,80.65L156.12,80.77L157.80,81.74L157.36,81.62L156.85,81.72L156.31,82.04L155.79,82.53"/><path style="stroke:#000000;stroke-width:0.088" d="M157.80,81.74L157.86,81.80"/><path style="stroke:#000000;stroke-width:0.088" d="M111.98,128.54L110.30,127.58L110.30,125.04L111.98,126.01L111.98,128.54L115.41,126.57"/><path style="stroke:#000000;stroke-width:0.088" d="M110.30,125.04L113.17,114.29L114.85,115.25L114.40,116.93"/><path style="stroke:#000000;stroke-width:0.088" d="M111.50,123.46L111.47,123.34L111.46,123.21L111.48,123.10L111.53,123.00L111.61,122.93L111.70,122.91L111.79,122.92L111.88,122.97L111.95,123.06L112.00,123.17L112.02,123.29L112.02,123.41L111.98,123.52L111.91,123.60L111.83,123.65L111.74,123.66L111.65,123.63L111.57,123.56L111.50,123.46"/><path style="stroke:#000000;stroke-width:0.088" d="M111.54,123.21L111.55,123.32L111.58,123.42L111.63,123.51L111.70,123.57L111.78,123.59L111.86,123.59L111.93,123.55L111.98,123.48L112.01,123.39L112.02,123.28L112.00,123.18L111.96,123.09L111.90,123.01L111.86,122.99L111.82,122.97L111.74,122.96L111.67,122.98L111.61,123.04L111.56,123.12L111.54,123.21"/><path style="stroke:#000000;stroke-width:0.088" d="M112.72,123.25L111.98,126.01"/><path style="stroke:#000000;stroke-width:0.088" d="M113.68,116.75L113.67,116.76L113.58,116.77L113.49,116.73L113.40,116.66L113.34,116.56L113.30,116.45L113.30,116.32L113.32,116.21L113.37,116.11L113.38,116.10L113.45,116.04L113.53,116.01L113.63,116.03L113.72,116.08L113.79,116.16L113.84,116.27L113.86,116.40L113.85,116.52L113.82,116.63L113.75,116.71L113.68,116.75"/><path style="stroke:#000000;stroke-width:0.088" d="M113.54,116.67L113.47,116.62L113.42,116.53L113.39,116.43L113.38,116.33L113.39,116.25L113.40,116.23L113.44,116.15L113.51,116.09L113.58,116.07L113.66,116.08L113.73,116.12L113.80,116.20L113.84,116.29L113.86,116.39L113.85,116.49L113.82,116.58L113.76,116.65L113.69,116.70L113.62,116.70L113.54,116.67"/><path style="stroke:#000000;stroke-width:0.088" d="M113.17,114.29L118.03,111.48L119.71,112.45L118.16,113.35"/><path style="stroke:#000000;stroke-width:0.088" d="M114.85,115.25L117.15,113.93"/><path style="stroke:#000000;stroke-width:0.088" d="M119.34,112.23L119.79,112.50L119.71,112.45"/><path style="stroke:#000000;stroke-width:0.088" d="M119.91,112.57L118.56,111.79L119.07,112.08"/><path style="stroke:#000000;stroke-width:0.088" d="M119.98,118.30L120.03,118.27L120.08,118.21L120.12,118.14L120.14,118.07L120.15,118.00L120.13,117.95L120.11,117.92"/><path style="stroke:#000000;stroke-width:0.088" d="M119.98,118.24L119.99,118.23L120.04,118.18L120.07,118.12L120.09,118.06L120.09,118.00L120.08,117.97"/><path style="stroke:#000000;stroke-width:0.088" d="M119.79,112.50L119.91,112.57"/><path style="stroke:#000000;stroke-width:0.088" d="M17.94,74.23L17.94,74.25L19.62,75.22L19.62,72.68L17.94,71.71L17.94,74.23"/><path style="stroke:#000000;stroke-width:0.088" d="M20.81,60.96L25.67,58.15L27.35,59.12L22.49,61.93L20.81,60.96L17.94,71.71"/><path style="stroke:#000000;stroke-width:0.088" d="M19.25,69.61L19.23,69.62L19.16,69.69L19.11,69.79L19.09,69.91L19.11,70.04L19.15,70.15L19.22,70.25L19.29,70.30L19.30,70.31L19.40,70.33L19.49,70.32L19.57,70.26L19.63,70.17L19.66,70.06L19.66,69.94L19.63,69.82L19.57,69.71L19.50,69.63L19.41,69.59L19.31,69.58L19.25,69.61"/><path style="stroke:#000000;stroke-width:0.088" d="M19.36,69.64L19.29,69.67L19.23,69.73L19.19,69.81L19.18,69.91L19.19,70.02L19.23,70.12L19.28,70.20L19.35,70.25L19.43,70.27L19.51,70.26L19.58,70.21L19.63,70.13L19.64,70.08L19.65,70.04L19.65,69.93L19.63,69.83L19.58,69.74L19.52,69.68L19.44,69.64L19.36,69.64"/><path style="stroke:#000000;stroke-width:0.088" d="M19.62,75.22L27.35,70.76L28.15,69.37"/><path style="stroke:#000000;stroke-width:0.088" d="M19.62,72.68L22.49,61.93"/><path style="stroke:#000000;stroke-width:0.088" d="M21.36,63.40L21.32,63.43L21.23,63.44L21.14,63.42L21.12,63.41L21.06,63.36L20.99,63.26L20.95,63.15L20.93,63.02L20.95,62.90L21.00,62.80L21.07,62.73L21.15,62.69L21.25,62.69L21.34,62.74L21.41,62.82L21.47,62.92L21.50,63.05L21.50,63.17L21.46,63.28L21.40,63.37L21.36,63.40"/><path style="stroke:#000000;stroke-width:0.088" d="M21.41,63.32L21.35,63.36L21.27,63.38L21.19,63.36L21.12,63.30L21.06,63.22L21.03,63.13L21.02,63.02L21.03,62.92L21.07,62.84L21.13,62.77L21.20,62.74L21.28,62.75L21.33,62.77L21.36,62.78L21.42,62.85L21.47,62.94L21.49,63.04L21.49,63.15L21.46,63.24L21.41,63.32"/><path style="stroke:#000000;stroke-width:0.088" d="M22.98,68.96L22.99,68.98L23.04,69.03L23.11,69.06L23.19,69.04L23.28,68.99L23.36,68.91L23.43,68.81L23.48,68.70L23.50,68.58L23.50,68.49L23.46,68.41L23.40,68.37L23.33,68.37L23.24,68.40L23.15,68.47L23.07,68.56L23.01,68.67L22.98,68.78L22.97,68.89L22.98,68.96"/><path style="stroke:#000000;stroke-width:0.088" d="M23.22,68.42L23.27,68.40L23.33,68.40L23.38,68.43L23.41,68.50L23.42,68.58L23.40,68.67L23.36,68.77L23.30,68.86L23.24,68.91L23.23,68.92L23.16,68.97L23.08,68.98L23.03,68.96L22.99,68.91L22.97,68.85"/><path style="stroke:#000000;stroke-width:0.088" d="M23.04,68.96L23.02,68.95"/><path style="stroke:#000000;stroke-width:0.088" d="M23.78,68.26L23.71,68.21L23.47,67.68L23.45,67.42"/><path style="stroke:#000000;stroke-width:0.088" d="M24.83,64.29L24.92,64.20"/><path style="stroke:#000000;stroke-width:0.088" d="M25.53,63.40L25.46,63.51L25.37,63.60L25.28,63.65L25.20,63.66L25.13,63.64L25.08,63.58L25.06,63.49L25.07,63.38L25.11,63.27L25.17,63.16L25.25,63.07L25.33,63.00L25.42,62.97L25.50,62.97L25.56,63.01L25.59,63.09L25.60,63.19L25.58,63.30L25.53,63.40"/><path style="stroke:#000000;stroke-width:0.088" d="M25.07,63.45L25.08,63.51L25.12,63.56L25.18,63.58L25.25,63.57L25.32,63.53L25.39,63.46L25.45,63.37L25.50,63.28L25.51,63.18L25.51,63.10L25.48,63.04L25.43,63.00L25.36,63.00L25.31,63.02"/><path style="stroke:#000000;stroke-width:0.088" d="M25.45,63.02L25.42,63.00"/><path style="stroke:#000000;stroke-width:0.088" d="M25.96,58.33L26.72,58.76L26.35,58.55"/><path style="stroke:#000000;stroke-width:0.088" d="M25.67,58.15L25.69,58.17"/><path style="stroke:#000000;stroke-width:0.088" d="M26.06,58.38L26.22,58.48"/><path style="stroke:#000000;stroke-width:0.088" d="M27.35,59.12L28.67,59.89L28.02,59.51L27.12,59.00"/><path style="stroke:#000000;stroke-width:0.088" d="M27.90,59.44L28.06,59.54"/><path style="stroke:#000000;stroke-width:0.088" d="M28.67,59.89L28.97,60.06"/><path style="stroke:#000000;stroke-width:0.088" d="M25.57,56.36L25.03,56.05L31.75,52.20L33.43,53.17L26.71,57.02L25.57,56.36"/><path style="stroke:#000000;stroke-width:0.088" d="M27.46,56.76L27.49,56.78L27.48,56.76L27.47,56.76L27.44,56.76L27.42,56.77L27.41,56.77L27.40,56.75L27.37,56.77L27.36,56.80L27.35,56.81L27.32,56.83L27.30,56.85L27.28,56.88L27.27,56.91L27.22,57.08L26.88,57.27L26.82,57.16L26.79,57.14"/><path style="stroke:#000000;stroke-width:0.088" d="M26.88,57.27L26.68,57.16"/><path style="stroke:#000000;stroke-width:0.088" d="M26.82,57.16L26.81,57.15L26.79,57.14L26.77,57.14L26.75,57.15L26.74,57.16L26.73,57.13L26.71,57.14L26.71,57.02"/><path style="stroke:#000000;stroke-width:0.088" d="M26.74,57.16L26.71,57.14"/><path style="stroke:#000000;stroke-width:0.088" d="M27.41,56.77L27.38,56.76"/><path style="stroke:#000000;stroke-width:0.088" d="M28.80,55.99L28.84,56.01L28.83,55.99L28.81,55.99L28.79,55.99L28.77,56.00L28.75,56.00L28.74,55.98L28.71,56.00L28.70,56.03L28.69,56.04L28.67,56.06L28.65,56.08L28.63,56.11L28.62,56.14L28.56,56.31L28.22,56.50L28.17,56.39L28.15,56.38L28.14,56.37L28.12,56.37L28.09,56.38L28.08,56.39L28.07,56.36L28.04,56.38L28.03,56.42L28.02,56.43L27.99,56.44L27.97,56.46L27.96,56.49L27.94,56.52L27.89,56.69L27.55,56.89L27.49,56.78"/><path style="stroke:#000000;stroke-width:0.088" d="M27.55,56.89L27.36,56.78"/><path style="stroke:#000000;stroke-width:0.088" d="M28.22,56.50L28.04,56.39"/><path style="stroke:#000000;stroke-width:0.088" d="M28.08,56.39L28.05,56.37"/><path style="stroke:#000000;stroke-width:0.088" d="M28.17,56.39L28.13,56.37"/><path style="stroke:#000000;stroke-width:0.088" d="M29.40,55.60L29.42,55.62L29.42,55.59L29.38,55.61L29.38,55.65L29.36,55.66L29.34,55.67L29.32,55.70L29.30,55.72L29.29,55.75L29.23,55.92L28.89,56.12L28.84,56.01"/><path style="stroke:#000000;stroke-width:0.088" d="M28.89,56.12L28.71,56.01"/><path style="stroke:#000000;stroke-width:0.088" d="M28.75,56.00L28.72,55.99"/><path style="stroke:#000000;stroke-width:0.088" d="M30.07,55.22L30.09,55.24L30.09,55.21L30.05,55.23L30.05,55.26L30.03,55.27L30.01,55.29L29.99,55.31L29.97,55.34L29.96,55.37L29.90,55.54L29.57,55.73L29.38,55.62"/><path style="stroke:#000000;stroke-width:0.088" d="M29.42,55.62L29.44,55.61L29.46,55.60L29.48,55.60L29.50,55.61L29.51,55.62L29.57,55.73"/><path style="stroke:#000000;stroke-width:0.088" d="M30.09,55.24L30.11,55.23L30.13,55.22L30.15,55.22L30.17,55.22L30.18,55.24L30.24,55.35L30.57,55.15L30.63,54.98L30.64,54.95L30.66,54.93L30.68,54.90L30.70,54.89L30.72,54.88L30.73,54.84L30.76,54.82L30.77,54.85L30.78,54.84L30.80,54.83L30.82,54.83L30.84,54.84L30.85,54.85L30.91,54.96L31.25,54.77L31.30,54.60L31.32,54.57L31.33,54.54L31.35,54.52L31.38,54.50L31.39,54.49L31.40,54.46L31.43,54.44L31.44,54.47L31.45,54.46L31.47,54.45L31.50,54.45L31.51,54.45L31.53,54.47L31.58,54.58L31.39,54.47"/><path style="stroke:#000000;stroke-width:0.088" d="M30.18,55.24L30.14,55.22"/><path style="stroke:#000000;stroke-width:0.088" d="M29.51,55.62L29.47,55.60"/><path style="stroke:#000000;stroke-width:0.088" d="M30.05,55.24L30.24,55.35"/><path style="stroke:#000000;stroke-width:0.088" d="M30.91,54.96L30.72,54.85"/><path style="stroke:#000000;stroke-width:0.088" d="M30.85,54.85L30.82,54.83"/><path style="stroke:#000000;stroke-width:0.088" d="M30.77,54.85L30.74,54.84"/><path style="stroke:#000000;stroke-width:0.088" d="M31.58,54.58L31.92,54.39L31.97,54.21L31.99,54.18L32.00,54.16L32.03,54.13L32.05,54.12L32.06,54.11L32.07,54.07L32.10,54.05L32.11,54.08L32.08,54.07"/><path style="stroke:#000000;stroke-width:0.088" d="M31.53,54.47L31.49,54.45"/><path style="stroke:#000000;stroke-width:0.088" d="M31.44,54.47L31.41,54.45"/><path style="stroke:#000000;stroke-width:0.088" d="M32.16,54.06L32.20,54.08L32.25,54.19L32.07,54.09"/><path style="stroke:#000000;stroke-width:0.088" d="M32.25,54.19L32.59,54.00L32.65,53.83L32.66,53.80L32.68,53.77L32.70,53.75L32.72,53.73L32.73,53.72L32.74,53.69L32.77,53.67L32.78,53.70L32.76,53.68"/><path style="stroke:#000000;stroke-width:0.088" d="M32.20,54.08L32.18,54.07L32.17,54.06L32.15,54.06L32.12,54.07L32.11,54.08"/><path style="stroke:#000000;stroke-width:0.088" d="M32.78,53.70L32.80,53.69L32.82,53.68L32.84,53.68L32.86,53.69L32.87,53.70L32.83,53.68"/><path style="stroke:#000000;stroke-width:0.088" d="M32.74,53.70L32.92,53.81L32.87,53.70"/><path style="stroke:#000000;stroke-width:0.088" d="M32.92,53.81L33.26,53.62L33.32,53.44L33.33,53.41L33.35,53.39L33.37,53.36L33.39,53.35L33.41,53.34L33.41,53.30L33.43,53.29L33.43,53.17"/><path style="stroke:#000000;stroke-width:0.088" d="M121.66,111.57L121.43,111.70L123.11,112.67L129.82,108.82L128.14,107.85L121.66,111.57"/><path style="stroke:#000000;stroke-width:0.088" d="M123.77,112.41L123.80,112.43L123.79,112.40L123.76,112.42L123.75,112.45L123.74,112.46L123.72,112.48L123.70,112.50L123.68,112.53L123.67,112.56L123.61,112.73L123.34,112.89L123.27,112.92L123.08,112.81"/><path style="stroke:#000000;stroke-width:0.088" d="M123.27,112.92L123.22,112.82L123.18,112.79"/><path style="stroke:#000000;stroke-width:0.088" d="M123.22,112.82L123.20,112.80L123.19,112.79L123.17,112.79L123.14,112.80L123.13,112.81L123.10,112.80"/><path style="stroke:#000000;stroke-width:0.088" d="M123.13,112.81L123.12,112.78L123.11,112.79L123.11,112.67"/><path style="stroke:#000000;stroke-width:0.088" d="M123.85,112.41L123.89,112.43L123.94,112.54L123.76,112.43"/><path style="stroke:#000000;stroke-width:0.088" d="M123.94,112.54L124.28,112.35L124.34,112.17L124.35,112.14L124.37,112.12L124.39,112.09L124.41,112.08L124.42,112.07L124.43,112.03L124.47,112.02L124.47,112.04L124.45,112.03"/><path style="stroke:#000000;stroke-width:0.088" d="M123.89,112.43L123.88,112.42L123.86,112.41L123.84,112.41L123.82,112.42L123.80,112.43"/><path style="stroke:#000000;stroke-width:0.088" d="M124.52,112.02L124.56,112.05L124.62,112.15L124.95,111.96L125.01,111.79L125.02,111.76L125.04,111.73L125.06,111.71L125.08,111.69L125.10,111.69L125.10,111.65L125.14,111.63L125.14,111.66L125.16,111.65L125.18,111.64L125.20,111.64L125.22,111.65L125.23,111.66L125.19,111.64"/><path style="stroke:#000000;stroke-width:0.088" d="M124.62,112.15L124.43,112.05"/><path style="stroke:#000000;stroke-width:0.088" d="M124.47,112.04L124.49,112.03L124.51,112.03L124.53,112.02L124.55,112.03L124.56,112.05"/><path style="stroke:#000000;stroke-width:0.088" d="M125.10,111.66L125.29,111.77L125.23,111.66"/><path style="stroke:#000000;stroke-width:0.088" d="M125.14,111.66L125.12,111.64"/><path style="stroke:#000000;stroke-width:0.088" d="M125.29,111.77L125.62,111.58L125.68,111.40L125.69,111.37L125.71,111.35L125.73,111.33L125.75,111.31L125.77,111.30L125.78,111.27L125.81,111.25L125.82,111.27L125.79,111.26"/><path style="stroke:#000000;stroke-width:0.088" d="M126.46,110.87L126.49,110.89L126.48,110.86L126.45,110.88L126.44,110.92L126.43,110.92L126.40,110.94L126.38,110.96L126.36,110.99L126.35,111.02L126.30,111.19L125.96,111.38L125.90,111.28L125.87,111.25"/><path style="stroke:#000000;stroke-width:0.088" d="M125.96,111.38L125.77,111.28"/><path style="stroke:#000000;stroke-width:0.088" d="M125.90,111.28L125.89,111.26L125.87,111.25L125.85,111.26L125.83,111.26L125.82,111.27"/><path style="stroke:#000000;stroke-width:0.088" d="M127.21,110.49L127.25,110.51L127.23,110.49L127.22,110.48L127.20,110.49L127.17,110.50L127.16,110.50L127.15,110.48L127.12,110.50L127.11,110.53L127.10,110.54L127.07,110.56L127.05,110.58L127.04,110.61L127.02,110.63L126.97,110.81L126.63,111.00L126.58,110.89L126.56,110.88L126.55,110.87L126.52,110.87L126.50,110.88L126.49,110.89"/><path style="stroke:#000000;stroke-width:0.088" d="M126.58,110.89L126.54,110.87"/><path style="stroke:#000000;stroke-width:0.088" d="M126.63,111.00L126.44,110.89"/><path style="stroke:#000000;stroke-width:0.088" d="M127.12,110.51L127.30,110.62L127.25,110.51"/><path style="stroke:#000000;stroke-width:0.088" d="M127.30,110.62L127.64,110.42L127.70,110.25L127.71,110.22L127.73,110.19L127.75,110.17L127.77,110.15L127.78,110.15L127.79,110.11L127.82,110.09L127.83,110.12L127.81,110.10"/><path style="stroke:#000000;stroke-width:0.088" d="M127.16,110.50L127.13,110.49"/><path style="stroke:#000000;stroke-width:0.088" d="M127.88,110.10L127.92,110.12L127.97,110.23L127.79,110.12"/><path style="stroke:#000000;stroke-width:0.088" d="M127.92,110.12L127.91,110.11L127.89,110.10L127.87,110.10L127.85,110.11L127.83,110.12"/><path style="stroke:#000000;stroke-width:0.088" d="M127.97,110.23L128.31,110.04L128.37,109.87L128.38,109.84L128.40,109.81L128.42,109.79L128.44,109.77L128.46,109.76L128.46,109.73L128.50,109.71L128.50,109.73L128.48,109.72"/><path style="stroke:#000000;stroke-width:0.088" d="M128.46,109.74L128.65,109.85L128.59,109.74L128.55,109.72"/><path style="stroke:#000000;stroke-width:0.088" d="M128.59,109.74L128.58,109.72L128.56,109.72L128.54,109.72L128.52,109.73L128.50,109.73"/><path style="stroke:#000000;stroke-width:0.088" d="M128.65,109.85L128.98,109.65L129.04,109.48L129.05,109.45L129.07,109.42L129.09,109.40L129.11,109.38L129.13,109.38L129.13,109.34L129.17,109.32L129.17,109.35L129.15,109.33"/><path style="stroke:#000000;stroke-width:0.088" d="M129.22,109.33L129.26,109.35L129.32,109.46L129.13,109.35"/><path style="stroke:#000000;stroke-width:0.088" d="M129.26,109.35L129.25,109.34L129.23,109.33L129.21,109.33L129.19,109.34L129.17,109.35"/><path style="stroke:#000000;stroke-width:0.088" d="M129.32,109.46L129.65,109.27L129.71,109.10L129.72,109.07L129.74,109.04L129.76,109.02L129.78,109.00L129.80,108.99L129.81,108.96L129.82,108.95L129.82,108.82"/><path style="stroke:#000000;stroke-width:0.088" d="M153.95,80.58L153.90,80.26L153.71,79.93L153.40,79.75L153.01,79.75L152.58,79.92L152.15,80.25L151.76,80.70L151.46,81.23L151.26,81.79L151.19,82.33L151.26,82.79L151.46,83.12L151.77,83.30L152.15,83.30L152.43,83.19"/><path style="stroke:#000000;stroke-width:0.088" d="M151.26,82.86L151.26,82.86"/><path style="stroke:#000000;stroke-width:0.088" d="M151.48,83.17L151.54,83.20"/><path style="stroke:#000000;stroke-width:0.088" d="M152.29,83.11L152.19,83.15L151.84,83.14L151.55,82.98L151.37,82.67L151.31,82.26L151.37,81.77L151.55,81.26L151.84,80.77L152.19,80.36L152.58,80.06L152.97,79.90L153.33,79.91L153.61,80.07L153.79,80.37L153.81,80.49"/><path style="stroke:#000000;stroke-width:0.088" d="M151.88,83.31L151.82,83.31"/><path style="stroke:#000000;stroke-width:0.088" d="M152.25,83.27L152.32,83.24"/><path style="stroke:#000000;stroke-width:0.088" d="M152.73,79.82L152.62,79.86"/><path style="stroke:#000000;stroke-width:0.088" d="M153.61,79.84L153.42,79.74"/><path style="stroke:#000000;stroke-width:0.088" d="M153.04,79.71L153.24,79.71"/><path style="stroke:#000000;stroke-width:0.088" d="M153.92,80.31L153.95,80.53"/><path style="stroke:#000000;stroke-width:0.088" d="M153.73,79.93L153.83,80.11"/><path style="stroke:#000000;stroke-width:0.088" d="M113.52,125.08L113.16,124.68L112.75,123.59L112.62,122.26L112.79,120.76L113.25,119.19L113.96,117.63L114.88,116.18L115.98,114.91L117.17,113.91L117.69,113.58L118.39,113.23L119.09,113.04"/><path style="stroke:#000000;stroke-width:0.088" d="M116.19,126.82L117.09,127.25L118.17,127.31L119.35,126.99L120.57,126.31L121.76,125.31L122.85,124.04L123.21,123.48L123.78,122.59L124.49,121.03L124.95,119.46L125.11,117.96L124.99,116.63L124.57,115.54L123.90,114.76L123.00,114.32L122.44,114.29L121.92,114.27L120.74,114.59L120.04,114.93L119.52,115.27L118.33,116.27L117.24,117.54L116.31,118.99L115.60,120.55L115.14,122.12L114.98,123.62L115.10,124.95L115.52,126.04L116.19,126.82L115.86,126.63"/><path style="stroke:#000000;stroke-width:0.088" d="M119.84,120.01L119.39,120.86L119.25,121.03"/><path style="stroke:#000000;stroke-width:0.088" d="M122.40,120.85L122.34,121.06"/><path style="stroke:#000000;stroke-width:0.088" d="M123.90,114.76L121.80,113.55"/><path style="stroke:#000000;stroke-width:0.088" d="M17.12,69.43L16.77,69.03L16.36,67.94L16.23,66.61L16.40,65.11L16.85,63.54L17.56,61.98L18.49,60.53L19.58,59.26L20.77,58.26L21.30,57.92L22.00,57.58L22.70,57.39"/><path style="stroke:#000000;stroke-width:0.088" d="M18.68,68.96L18.58,67.96L18.75,66.47L19.20,64.90L19.91,63.34L20.36,62.64"/><path style="stroke:#000000;stroke-width:0.088" d="M24.11,59.05L23.65,59.28L23.13,59.62L23.11,59.63"/><path style="stroke:#000000;stroke-width:0.088" d="M26.56,58.67L26.60,58.67L27.50,59.10L25.40,57.89"/><path style="stroke:#000000;stroke-width:0.088" d="M27.50,59.10L27.69,59.32"/><path style="stroke:#000000;stroke-width:0.088" d="M122.49,117.27L121.76,117.01L120.89,117.13L120.88,117.13L119.93,117.61L119.02,118.42L118.23,119.48L117.63,120.67L117.29,121.88L117.22,122.65L117.24,123.00L117.48,123.92L118.00,124.54L118.73,124.80L119.62,124.68L120.56,124.20L120.89,123.91L121.47,123.39L122.27,122.33L122.86,121.14L123.20,119.93L123.25,118.81L123.01,117.89L122.49,117.27L122.29,117.16L121.56,116.89L120.68,117.01L119.73,117.50L118.82,118.31L118.02,119.36L117.43,120.55L117.09,121.77L117.02,122.53L117.04,122.89L117.28,123.80L117.80,124.42L118.00,124.54"/><path style="stroke:#000000;stroke-width:0.088" d="M118.24,123.75L118.32,123.65L118.38,123.54L118.41,123.43L118.42,123.32L118.40,123.24L118.35,123.18L118.28,123.16L118.19,123.18L118.10,123.23L118.02,123.32L117.95,123.42L117.90,123.54L117.88,123.65L117.88,123.67L117.89,123.74L117.93,123.81L117.99,123.85L118.07,123.85L118.16,123.82L118.24,123.75"/><path style="stroke:#000000;stroke-width:0.088" d="M117.89,123.73L117.96,123.70L118.04,123.63L118.12,123.54L118.18,123.43L118.21,123.31L118.22,123.21L118.21,123.18"/><path style="stroke:#000000;stroke-width:0.088" d="M117.99,123.85L117.99,123.85"/><path style="stroke:#000000;stroke-width:0.088" d="M119.18,121.39L119.17,121.45L119.17,121.53L119.21,121.83L119.36,122.12L119.60,122.27L119.92,122.28L120.27,122.13L120.62,121.86L120.92,121.48L121.16,121.04L121.29,120.58L121.32,120.16L121.22,119.82L121.02,119.60L120.74,119.52L120.40,119.59L120.05,119.80L119.72,120.13L119.44,120.55L119.25,121.00L119.18,121.39"/><path style="stroke:#000000;stroke-width:0.088" d="M119.60,122.27L119.60,122.27"/><path style="stroke:#000000;stroke-width:0.088" d="M120.89,119.56L121.02,119.70L121.11,120.04L121.09,120.46L120.96,120.92L120.72,121.36L120.42,121.74L120.07,122.02L119.72,122.16L119.42,122.16"/><path style="stroke:#000000;stroke-width:0.088" d="M120.30,117.78L120.31,117.81L120.31,117.92L120.27,118.03L120.21,118.14L120.14,118.23L120.05,118.30L119.99,118.33"/><path style="stroke:#000000;stroke-width:0.088" d="M120.09,118.45L120.02,118.42L119.99,118.34L119.98,118.27L119.98,118.25L120.00,118.14L120.05,118.02L120.11,117.92L120.20,117.84L120.29,117.78L120.37,117.77L120.44,117.79L120.49,117.84L120.51,117.93L120.51,118.03L120.47,118.15L120.42,118.26L120.34,118.35L120.25,118.42L120.16,118.46L120.08,118.45"/><path style="stroke:#000000;stroke-width:0.088" d="M122.12,121.39L122.12,121.40L122.18,121.43L122.26,121.43L122.35,121.40L122.43,121.33L122.51,121.24L122.57,121.12L122.60,121.01L122.61,120.91L122.58,120.82L122.53,120.77L122.46,120.75L122.38,120.76L122.29,120.82L122.21,120.90L122.14,121.00L122.09,121.12L122.07,121.23L122.07,121.25L122.08,121.32L122.12,121.39"/><path style="stroke:#000000;stroke-width:0.088" d="M122.18,121.43L122.18,121.43"/><path style="stroke:#000000;stroke-width:0.088" d="M122.08,121.31L122.14,121.28L122.23,121.21L122.31,121.12L122.37,121.01L122.40,120.89L122.41,120.79L122.40,120.76"/><path style="fill:#ffffff" d="M170.68,87.70L197.09,87.70L197.09,82.05L170.68,82.05z"/><path style="stroke:#35414c;stroke-width:0.255" d="M170.68,87.70L197.09,87.70L197.09,82.05L170.68,82.05z"/><path style="stroke:#35404c;stroke-width:0.250;stroke-opacity:0.00" d="M170.68,87.70L197.09,87.70L197.09,82.05L170.68,82.05z"/><text xml:space="preserve" fill="#333f4b" stroke-width="0" x="171.39" y="86.11" font-size="3.49" opacity="1.00" font-family="Arial" font-weight="bold" font-style="italic">F24252021X_1</text><path style="fill:#ffffff" d="M170.68,77.91L197.09,77.91L197.09,72.27L170.68,72.27z"/><path style="stroke:#35414c;stroke-width:0.255" d="M170.68,77.91L197.09,77.91L197.09,72.27L170.68,72.27z"/><path style="stroke:#35404c;stroke-width:0.250;stroke-opacity:0.00" d="M170.68,77.91L197.09,77.91L197.09,72.27L170.68,72.27z"/><text xml:space="preserve" fill="#333f4b" stroke-width="0" x="171.39" y="76.32" font-size="3.56" opacity="1.00" font-family="Arial" font-weight="bold" font-style="italic">F24252009X</text><path style="fill:#ffffff" d="M170.68,67.86L197.09,67.86L197.09,62.22L170.68,62.22z"/><path style="stroke:#35414c;stroke-width:0.255" d="M170.68,67.86L197.09,67.86L197.09,62.22L170.68,62.22z"/><path style="stroke:#35404c;stroke-width:0.250;stroke-opacity:0.00" d="M170.68,67.86L197.09,67.86L197.09,62.22L170.68,62.22z"/><text xml:space="preserve" fill="#333f4b" stroke-width="0" x="171.39" y="66.27" font-size="3.56" opacity="1.00" font-family="Arial" font-weight="bold" font-style="italic">F24252006X</text><g id="paperID" visibility="hidden" opacity="0.00" transform="scale(0.000100)"><path style="stroke:#000000;stroke-width:0.500;fill:#e6e6e6;fill-rule:evenodd" d="M-2000.00,-2000.00L2210.00,-2000.00L2210.00,2150.00L-2000.00,2150.00zM0.00,0.00L210.00,0.00L210.00,150.00L0.00,150.00z"/><path style="fill:#000000;fill-opacity:0.118" d="M3.00,150.00L210.00,150.00L210.00,3.00L213.00,3.00L213.00,153.00L3.00,153.00z"/></g><g id="hotspot.0" onmouseover="ShowHotSpot(evt,'0')" onmouseout="HideHotSpot(evt,'0')" onmousemove="ShowToolTip(evt,'0',&quot;BRACCIO_METT.1&quot;)" opacity="0"><path style="fill:#00ff00;fill-rule:evenodd" d="M61.27,26.01L62.08,27.08L63.67,27.05L65.28,28.08L65.74,29.21L66.28,29.73L150.43,78.37L152.03,78.12L153.05,78.64L154.39,79.68L154.62,80.86L156.23,80.75L157.01,81.29L158.35,82.33L158.35,83.77L157.81,84.81L154.81,87.90L124.37,121.99L122.89,123.95L120.94,125.96L119.12,127.06L116.53,127.06L115.14,126.75L112.58,128.19L111.79,128.39L110.38,127.65L110.46,124.47L112.08,118.31L111.53,117.51L77.66,97.96L77.10,97.44L77.57,95.82L78.38,95.28L78.73,95.28L112.61,114.88L113.00,114.89L113.54,114.07L116.97,111.95L144.23,84.73L146.59,82.58L148.07,81.10L148.04,80.78L64.46,32.61L29.96,66.98L30.29,67.27L74.78,93.04L73.18,94.07L72.93,95.12L28.23,69.37L27.32,70.69L20.17,74.93L19.21,74.96L18.16,74.41L18.20,70.44L16.87,69.09L16.55,68.61L16.21,66.49L16.76,63.84L17.78,61.68L18.84,60.10L21.06,58.09L24.77,56.24L37.98,48.50L37.43,47.98L37.44,46.98L38.42,45.83L39.59,45.83L39.88,46.10L40.53,46.12L57.04,26.62L58.27,25.21L58.80,24.92L59.42,24.92zM197.25,82.31L197.23,87.99L170.73,87.93L170.42,87.72L170.49,82.15L196.98,82.05zM57.87,30.06L55.90,32.09L48.84,40.11L46.98,41.98L46.98,41.47L48.49,39.76L55.90,31.03L57.50,29.39L57.84,29.43zM41.21,47.14L39.92,47.59L40.03,47.17L40.55,46.86L40.95,46.88zM39.83,49.13L39.53,49.14L39.59,47.78L39.92,47.59zM25.88,58.20L25.69,57.75L30.89,54.96L31.29,54.57L32.41,54.09L34.48,52.73L37.68,50.84L38.01,50.95L29.16,59.87L28.75,59.89zM154.38,85.36L153.47,86.55L151.36,88.94L143.25,97.78L143.25,97.27L144.76,95.57L153.78,84.98L154.12,84.94zM142.81,98.35L141.66,99.64L141.66,99.12L142.77,98.23zM135.89,101.58L135.84,100.97L145.04,91.85L145.15,92.18L143.16,94.49L137.09,101.66L136.08,101.69zM136.95,103.21L136.37,103.61L136.28,104.09L136.96,104.58L136.95,104.86L136.05,104.91L135.74,104.03L136.54,102.68L137.45,102.69L137.45,103.87zM134.30,104.35L131.52,105.91L130.99,105.89L133.73,103.26zM122.79,114.06L125.18,111.70L129.40,109.30L130.83,108.35L136.07,105.32L136.38,105.32L136.31,105.56L133.92,108.26L125.28,117.90L124.49,115.40L123.70,114.61z"/></g><g id="hotspot.1" onmouseover="ShowHotSpot(evt,'1')" onmouseout="HideHotSpot(evt,'1')" onmousemove="ShowToolTip(evt,'1',&quot;LEVA.02&quot;)" opacity="0"><path style="fill:#00ff00;fill-rule:evenodd" d="M197.25,62.47L197.23,68.16L170.73,68.10L170.42,67.88L170.49,62.32L196.98,62.21zM80.34,92.90L80.33,96.19L78.73,95.28L78.38,95.28L77.57,95.82L77.10,97.44L77.66,97.96L79.52,99.00L80.60,99.78L80.86,102.81L80.34,103.35L77.69,106.26L77.12,107.82L77.12,108.80L77.41,109.58L79.24,110.66L80.83,110.60L80.34,111.56L78.40,113.04L77.13,113.04L74.24,111.43L73.95,110.66L73.17,97.68L73.18,94.07L77.59,91.30L77.93,91.31z"/></g><g id="hotspot.2" onmouseover="ShowHotSpot(evt,'2')" onmouseout="HideHotSpot(evt,'2')" onmousemove="ShowToolTip(evt,'2',&quot;F24252010A&quot;)" opacity="0"><path style="fill:#00ff00;fill-rule:evenodd" d="M197.25,72.52L197.23,78.21L170.73,78.15L170.42,77.93L170.49,72.37L196.98,72.26zM105.45,80.75L106.25,81.80L106.16,83.15L105.17,85.07L102.55,87.74L100.41,90.10L91.31,99.51L89.87,101.27L89.30,101.42L85.06,98.99L85.07,98.32L93.27,89.83L95.41,87.48L100.70,81.92L102.78,80.03L103.86,79.94zM87.24,103.49L87.23,103.85L86.82,104.28L84.81,106.50L80.51,110.66L79.24,110.66L77.41,109.58L77.12,108.80L77.12,107.82L77.69,106.26L80.34,103.35L82.61,101.09L83.22,101.09z"/></g></g></svg>
