<?xml version="1.0" encoding="UTF-8" standalone="no"?>
<svg xmlns="http://www.w3.org/2000/svg" xmlns:xlink="http://www.w3.org/1999/xlink" width="210.000mm" height="150.000mm" viewBox="0.000000 0.000000 210.000000 150.000000" stroke-linejoin="round" stroke-linecap="round" fill="none" fill-rule="evenodd"><desc>Composer Export</desc><script type="text/ecmascript"><![CDATA[
if(typeof(top) != "undefined")
{
	top.ShowPaper = ShowPaper;
}
function ShowHotSpot(evt,hotspotid)
{
	var svgDocument = evt.target.ownerDocument;
	var strId = "hotspot."+hotspotid;
	var hotspot = svgDocument.getElementById(strId);
	if(hotspot)
		hotspot.setAttribute("opacity",".5");
}
function HideHotSpot(evt,hotspotid)
{
	var svgDocument = evt.target.ownerDocument;
	var strId = "hotspot."+hotspotid;
	var hotspot = svgDocument.getElementById(strId);
	if(hotspot)
		hotspot.setAttribute("opacity","0");

	var toolTip = svgDocument.getElementById('ToolTip');
	if(toolTip)
		toolTip.setAttribute("visibility","hidden");
}
function ShowToolTip(evt,hotspotid,strTooltip)
{
	if(strTooltip=="")
	return;

	// change text
	var svgDocument = evt.target.ownerDocument;
	var tiptext = svgDocument.getElementById('ToolTipText');
	if( !tiptext )
	return;
	tiptext.firstChild.nodeValue = " " + strTooltip + "  " ;

	// show tooltip before, else some refresh issue

	var toolTip = svgDocument.getElementById('ToolTip');
	if(!toolTip)
	return;

	toolTip.setAttribute("visibility","visible");
	toolTip.setAttribute("opacity",".95");

	// move tooltip
	// get viewbox

	var root = svgDocument.documentElement;
	var vbox = (root.getAttribute("viewBox")).split(' ');
	var x0 = parseFloat(vbox[0]);
	var y0 = parseFloat(vbox[1]);
	var vboxW = parseFloat(vbox[2]);
	var vboxH = parseFloat(vbox[3]);

	// get default width of svg

	var strW = root.getAttribute("width");
	var svgW = parseFloat(strW);
	if(strW.indexOf('mm') != -1)
	svgW *= 3.779;

	var strH = root.getAttribute("height");
	var svgH = parseFloat(strH);
	if(strH.indexOf('mm') != -1)
	svgH *= 3.779;  	// 96 dpi  -> 96/25.4 = 3.779

	// update the viewbox / width / height if svg is embedded in html with zoom fit all
	var realx0 = x0;
	var realy0 = y0;
	var realvboxW = vboxW;
	var realvboxH = vboxH;
	var realsvgW = svgW;
	var realsvgH = svgH;

	if ((typeof(top) == "undefined") || (typeof(top.svgctl1) != "undefined")) // embedded in html
	{
		// get window size in pxl

		svgW = window.innerWidth;
		svgH = window.innerHeight;

		// calculate real viewbox

		realsvgW = svgW;
		realsvgH = svgH;
		if((svgW / svgH) > (vboxW / vboxH))
		{
			realvboxW = (vboxH * svgW) / svgH;
			realvboxH = vboxH;
			realx0 = x0 - (realvboxW - vboxW)/2 ;
		}
		else
		{
			realvboxH = (vboxW * svgH) / svgW;
			realvboxW = vboxW;
			realy0 = y0 - (realvboxH - vboxH)/2 ;
		}
	}

	// get user zoom/pan

	var newScale = root.currentScale;
	var translation = root.currentTranslate;

	// transform pxl to user unit

	var xPos = (((evt.clientX+10- translation.x)/newScale) * realvboxW)/realsvgW  + realx0 ;
	var yPos = (((evt.clientY+5- translation.y)/newScale) * realvboxH)/ realsvgH  + realy0 ;
	var scaleForWidth = ( (1 / newScale) * realvboxH) / realsvgH;

	// move tooltip

	toolTip.setAttribute("transform", "translate(" + xPos + "," + yPos + ")" );

	// resize tooltip

	var fontsize = 12;
	tiptext.setAttribute("font-size",fontsize*scaleForWidth);
	tiptext.setAttribute("y", fontsize*scaleForWidth);
	var tipBG = svgDocument.getElementById('ToolTipBG');
	var outline = tiptext.getBBox();
	if(tipBG)
	{
		tipBG.setAttribute("stroke-width", 1*scaleForWidth);
		tipBG.setAttribute("width", Number(outline.width) );
		tipBG.setAttribute("height", Number(outline.height) + fontsize*.5*scaleForWidth );
	}
	var ToolTipShadow = svgDocument.getElementById('ToolTipShadow');
	if(ToolTipShadow)
	{
		ToolTipShadow.setAttribute("width", Number(outline.width) );
		ToolTipShadow.setAttribute("height", Number(outline.height) + fontsize*.5*scaleForWidth );
		ToolTipShadow.setAttribute("x", 3*scaleForWidth);
		ToolTipShadow.setAttribute("y", 3*scaleForWidth);
	}
}
function ShowPaper()
{
  var svgDocument = getDocument();
  var paper = svgDocument.getElementById("paperID");
  if(paper)
  {
    paper.setAttribute("transform","scale(1)");
    paper.setAttribute("opacity","1");
    paper.setAttribute("visibility","visible");
  }
  var svg = svgDocument.getRootElement();
  if(svg)
  {
    svg.setAttribute("width","220.000mm");
    svg.setAttribute("height","160.000mm");
    svg.setAttribute("viewBox","-5.000000 -5.000000 220.000000 160.000000");
  }
}
]]></script><defs/><g><path style="fill:#ffffff" d="M209.93,149.99L0.04,149.99L0.04,0.04L209.93,0.04z"/><path style="fill:#8aa7bf" d="M156.07,67.45L156.49,67.76L156.27,67.85L156.27,68.01L156.58,68.01L156.63,67.83L158.73,68.98L158.70,69.75L158.31,70.13L157.97,70.13L154.44,68.09L154.33,67.93L154.42,67.87L154.44,67.57L154.24,67.46L154.33,67.93L154.04,67.84L154.03,67.11L154.42,66.72L154.80,66.68z"/><path style="fill:#8aa7bf" d="M150.92,72.34L150.69,72.41L150.70,72.56L150.99,72.59L150.92,72.34L152.65,73.28L153.16,73.66L153.16,74.22L152.74,74.70L152.40,74.69L151.92,74.39L152.16,74.23L152.02,74.02L151.85,74.04L151.92,74.39L150.76,73.78L148.65,72.48L148.86,72.44L148.88,72.27L148.57,72.12L148.65,72.48L148.46,72.41L148.46,71.67L148.85,71.28L149.10,71.24z"/><path style="fill:#4c4c4c" d="M140.75,67.45L140.75,67.88L140.57,68.09L139.81,68.13L139.68,67.71L139.98,67.12L140.49,67.06z"/><path style="fill:#4c4c4c" d="M143.04,68.58L143.02,69.15L142.85,69.48L142.22,69.52L142.12,69.24L142.13,68.64L142.34,68.46L142.91,68.45z"/><path style="fill:#4c4c4c" d="M140.62,69.99L140.62,70.28L140.44,70.62L139.59,70.63L139.59,70.02L139.93,69.60L140.37,69.59z"/><path style="fill:#4c4c4c" d="M142.91,71.12L142.90,71.68L142.72,72.01L142.09,72.06L141.99,71.91L142.01,71.17L142.34,70.99L142.78,70.98z"/><path style="fill:#4c4c4c" d="M72.95,101.03L72.96,101.59L72.65,101.81L72.06,101.81L72.05,101.07L72.44,100.68L72.70,100.64z"/><path style="fill:#4c4c4c" d="M75.38,102.29L75.37,102.60L74.94,103.21L74.47,103.19L74.33,102.94L74.34,102.34L74.54,102.17L75.24,102.16z"/><path style="fill:#4c4c4c" d="M72.68,103.32L72.83,103.56L72.83,104.00L72.53,104.35L71.94,104.34L71.77,103.94L72.07,103.36L72.46,103.19z"/><path style="fill:#4c4c4c" d="M75.24,105.13L74.82,105.74L74.34,105.73L74.20,105.48L74.21,104.88L74.42,104.70L75.10,104.71z"/><path style="fill:#95dce0" d="M145.30,54.41L145.39,54.82L146.69,55.56L147.20,55.53L147.45,55.67L147.33,59.01L147.20,59.77L57.07,104.59L56.34,104.59L54.32,103.44L54.40,100.53L54.57,99.18L70.03,91.45L144.54,54.45L145.05,54.26z"/><path style="fill:#95dce0" d="M154.44,67.57L154.42,67.87L154.33,67.93L154.24,67.46z"/><path style="fill:#95dce0" d="M156.58,68.01L156.27,68.01L156.27,67.85L156.49,67.76L156.63,67.83z"/><path style="fill:#95dce0" d="M157.74,69.48L157.72,69.66L157.46,69.62L157.46,69.39L157.61,69.34z"/><path style="fill:#95dce0" d="M148.88,72.27L148.86,72.44L148.65,72.48L148.57,72.12z"/><path style="fill:#95dce0" d="M150.99,72.59L150.70,72.56L150.69,72.41L150.92,72.34z"/><path style="fill:#95dce0" d="M152.16,74.23L151.92,74.39L151.85,74.04L152.02,74.02z"/><path style="fill:#95dce0" d="M144.55,74.15L144.50,76.12L144.92,75.99L146.27,75.30L146.70,75.30L146.58,78.15L61.75,120.31L61.42,120.31L61.43,119.28L60.66,118.76L60.23,118.77L59.73,119.04L59.26,119.04L59.33,116.23L144.25,74.03L144.42,74.02z"/><path style="fill:#95dce0" d="M134.02,88.87L134.02,89.55L133.35,89.88L133.14,91.20L132.59,91.54L132.11,91.55L131.95,91.44L131.88,89.24L131.32,88.78L131.36,88.15L131.95,87.84L132.25,87.84z"/><path style="fill:#95dce0" d="M64.20,123.59L64.21,124.15L63.57,124.52L63.31,125.91L62.64,126.27L62.32,126.25L62.00,126.03L62.06,123.96L61.92,123.72L61.50,123.51L61.50,122.83L62.00,122.57L62.43,122.57z"/><path style="fill:#1f4baa" d="M134.04,38.54L134.41,39.19L134.40,40.38L134.02,41.52L133.48,42.37L132.75,43.17L120.72,49.25L31.10,93.69L30.00,93.68L28.10,92.54L27.84,92.29L27.70,91.92L27.70,90.42L28.30,89.00L29.17,87.97L30.96,86.97L121.22,42.15L131.06,37.29L132.00,37.29z"/><path style="fill:#8aa7bf" d="M154.70,42.49L154.68,42.78L57.99,90.81L57.43,91.28L57.12,91.28L55.45,90.26L55.44,90.05L55.67,89.75L60.15,87.52L152.74,41.47L153.03,41.46z"/><path style="fill:#8aa7bf" d="M133.14,95.07L133.14,96.91L134.74,96.08L135.04,96.08L135.29,96.22L135.25,98.50L121.86,105.26L61.12,135.39L60.78,135.39L58.88,134.24L58.87,131.99L59.27,131.24L64.29,128.66L132.46,94.82L132.89,94.81z"/><path style="fill:#ffffff" d="M132.25,39.62L131.58,40.98L130.85,41.77L117.55,48.49L30.24,91.83L29.82,91.96L29.86,91.31L30.26,90.32L31.14,89.30L33.54,88.03L132.09,39.05L132.25,39.06z"/><path style="stroke:#000000;stroke-width:0.088" d="M61.50,117.85L60.18,118.51L60.16,118.79L59.45,119.15L59.21,119.01L59.38,116.17L59.62,116.31L59.45,119.15"/><path style="stroke:#000000;stroke-width:0.088" d="M59.84,118.33L59.81,118.39L59.79,118.49L59.81,118.53L59.84,118.56L59.87,118.57L59.92,118.55L60.00,118.48L60.05,118.37L60.05,118.27L60.03,118.24L59.96,118.22L59.87,118.28L59.84,118.33"/><path style="stroke:#000000;stroke-width:0.088" d="M59.89,117.29L59.87,117.20L59.91,117.09L59.99,117.00L60.03,116.98L60.11,116.99L60.13,117.03L60.13,117.08L60.11,117.19L60.07,117.24L59.99,117.31L59.95,117.32L59.89,117.29"/><path style="stroke:#000000;stroke-width:0.088" d="M59.62,116.31L144.61,74.10L144.49,76.21"/><path style="stroke:#000000;stroke-width:0.088" d="M59.38,116.17L144.37,73.96L144.61,74.10"/><path style="stroke:#000000;stroke-width:0.088" d="M61.42,119.20L60.76,118.82L60.65,118.77L60.53,118.74L60.40,118.74L60.27,118.76L60.16,118.79"/><path style="stroke:#000000;stroke-width:0.088" d="M60.18,118.51L60.29,118.47L60.41,118.45L60.54,118.46L60.67,118.49L60.78,118.53L61.43,118.91"/><path style="stroke:#000000;stroke-width:0.088" d="M61.48,120.32L61.36,120.25L61.52,117.41L61.76,117.54L61.60,120.39L61.48,120.32"/><path style="stroke:#000000;stroke-width:0.088" d="M60.78,118.53L60.76,118.82"/><path style="stroke:#000000;stroke-width:0.088" d="M61.49,117.96L61.44,118.01L61.43,118.03L61.46,118.07L61.41,118.01L61.41,117.98L61.43,117.95L61.49,117.93"/><path style="stroke:#000000;stroke-width:0.088" d="M61.46,118.07L61.48,118.08"/><path style="stroke:#000000;stroke-width:0.088" d="M61.60,120.39L146.59,78.18L146.76,75.33L146.52,75.20L61.52,117.41"/><path style="stroke:#000000;stroke-width:0.088" d="M146.76,75.33L61.76,117.54"/><path style="stroke:#000000;stroke-width:0.088" d="M146.05,77.89L146.05,77.99L146.07,78.02L146.12,78.04L146.19,78.01L146.23,77.97L146.30,77.86L146.31,77.80L146.29,77.72L146.26,77.70L146.23,77.69L146.14,77.74L146.10,77.78L146.05,77.89"/><path style="stroke:#000000;stroke-width:0.088" d="M146.12,76.65L146.12,76.72L146.16,76.79L146.19,76.79L146.28,76.75L146.32,76.71L146.38,76.60L146.38,76.50L146.36,76.47L146.32,76.45L146.24,76.47L146.16,76.56L146.12,76.65"/><path style="stroke:#000000;stroke-width:0.088" d="M58.98,134.34L58.91,134.28L58.84,134.20L58.79,134.11L58.77,134.01L58.76,133.92L58.87,132.07L58.91,131.83L59.01,131.59L59.15,131.37L59.32,131.19L59.50,131.06L59.62,131.13L59.44,131.26L59.27,131.44L59.12,131.66L59.03,131.90L58.99,132.14L58.88,133.98L58.90,134.08L58.95,134.17L58.99,134.20L60.87,135.28L60.94,135.29L60.97,135.28L60.99,135.21L61.10,133.36L61.22,133.43L61.11,135.27L61.10,135.36L61.06,135.42L61.00,135.45L60.93,135.45L60.86,135.42L58.98,134.34"/><path style="stroke:#000000;stroke-width:0.088" d="M58.99,134.20L61.14,133.13L61.24,132.88L61.38,132.66L61.55,132.48L61.74,132.35L61.86,132.42L61.67,132.55L61.50,132.73L61.36,132.95L61.26,133.19L61.22,133.43"/><path style="stroke:#000000;stroke-width:0.088" d="M58.88,133.98L61.31,132.78"/><path style="stroke:#000000;stroke-width:0.088" d="M58.99,132.14L58.87,132.07"/><path style="stroke:#000000;stroke-width:0.088" d="M59.62,131.13L132.61,94.89L132.79,94.83L132.95,94.85L133.08,94.95L133.15,95.10L133.16,95.30L133.07,96.93"/><path style="stroke:#000000;stroke-width:0.088" d="M59.50,131.06L132.49,94.82L132.67,94.76L132.83,94.78L132.95,94.85"/><path style="stroke:#000000;stroke-width:0.088" d="M61.11,135.27L135.29,98.44L135.27,98.52L135.24,98.58L135.17,98.61"/><path style="stroke:#000000;stroke-width:0.088" d="M60.87,135.28L60.99,135.22"/><path style="stroke:#000000;stroke-width:0.088" d="M61.00,135.45L135.18,98.61"/><path style="stroke:#000000;stroke-width:0.088" d="M61.10,133.36L61.14,133.13"/><path style="stroke:#000000;stroke-width:0.088" d="M61.86,132.42L134.85,96.18L135.03,96.12L135.19,96.14L135.07,96.07L134.91,96.05L134.73,96.11L61.74,132.35"/><path style="stroke:#000000;stroke-width:0.088" d="M132.49,94.82L132.61,94.89"/><path style="stroke:#000000;stroke-width:0.088" d="M134.85,96.18L134.73,96.11"/><path style="stroke:#000000;stroke-width:0.088" d="M135.29,98.44L135.40,96.59L135.38,96.39L135.31,96.23L135.19,96.14"/><path style="stroke:#000000;stroke-width:0.088" d="M30.13,93.73L28.34,92.69L27.90,92.37L27.64,91.81L27.59,91.08L27.74,90.24L28.08,89.38L28.58,88.59L29.19,87.94L29.86,87.49L31.64,88.52L30.98,88.97L30.37,89.62L29.87,90.42L29.52,91.27L29.44,91.76L29.37,92.11L29.43,92.84L29.69,93.40L30.13,93.73L30.70,93.79L31.35,93.59L132.22,43.50L132.88,43.05L133.50,42.39L134.00,41.60L134.34,40.74L134.49,39.91L134.43,39.17L134.17,38.62L133.74,38.29L133.17,38.22L132.52,38.42L31.64,88.52"/><path style="stroke:#000000;stroke-width:0.088" d="M29.54,92.26L29.53,92.05L29.67,91.28L29.98,90.48L30.45,89.75L31.02,89.14L31.63,88.72L132.44,38.66L133.10,38.47L133.68,38.59L134.07,38.99L134.26,39.64L134.25,39.89L134.22,40.45L133.94,41.33L133.47,42.18L132.86,42.88L132.18,43.36L31.36,93.43L30.76,93.61L30.23,93.55L29.82,93.25L29.58,92.73L29.54,92.26"/><path style="stroke:#000000;stroke-width:0.088" d="M29.74,92.05L130.46,42.04L132.25,43.07L132.80,42.70L133.31,42.15L133.73,41.49L134.01,40.78L134.14,40.08L134.09,39.47L133.87,39.01L133.51,38.74L133.03,38.68L132.49,38.85L31.62,88.94L31.03,89.36L30.56,89.86L30.14,90.52L29.85,91.24L29.73,91.93L29.78,92.54L29.99,93.00L30.34,93.26L30.83,93.33L31.37,93.16L29.75,92.23"/><path style="stroke:#000000;stroke-width:0.088" d="M29.86,87.49L130.73,37.39L132.52,38.42"/><path style="stroke:#000000;stroke-width:0.088" d="M31.37,93.16L132.25,43.07"/><path style="stroke:#000000;stroke-width:0.088" d="M130.46,42.04L131.01,41.66L131.17,41.49L131.52,41.12L131.94,40.46L132.22,39.75L132.35,39.05L132.34,38.93"/><path style="stroke:#000000;stroke-width:0.088" d="M130.73,37.39L131.38,37.19L131.95,37.26L133.74,38.29"/><path style="stroke:#000000;stroke-width:0.088" d="M56.65,104.75L147.29,59.74L147.52,55.83L147.51,55.73L147.47,55.65L147.41,55.61L147.33,55.60L147.24,55.62L57.19,100.34L57.10,100.41L57.02,100.50L56.95,100.61L56.90,100.73L56.88,100.85L56.65,104.75L54.26,103.38L54.49,99.47L54.73,99.61L54.75,99.49L54.80,99.37L54.87,99.26L54.96,99.17L55.05,99.10L145.10,54.39L145.19,54.36L145.27,54.37L145.03,54.23L144.95,54.22L144.86,54.25L54.81,98.97L54.72,99.03L54.63,99.12L54.56,99.23L54.51,99.35L54.49,99.47"/><path style="stroke:#000000;stroke-width:0.088" d="M146.81,55.58L145.25,54.69L54.85,99.58L54.72,99.78L56.63,100.89L56.66,100.59L56.71,100.47L56.78,100.36L56.86,100.27L56.96,100.20L57.19,100.34"/><path style="stroke:#000000;stroke-width:0.088" d="M54.72,99.78L54.73,99.61"/><path style="stroke:#000000;stroke-width:0.088" d="M54.85,99.58L56.65,100.63"/><path style="stroke:#000000;stroke-width:0.088" d="M55.05,99.10L54.81,98.97"/><path style="stroke:#000000;stroke-width:0.088" d="M56.64,100.71L56.88,100.85"/><path style="stroke:#000000;stroke-width:0.088" d="M56.65,99.90L56.51,99.86L56.39,99.80L56.32,99.73L56.29,99.65L56.31,99.57L56.38,99.50L56.49,99.45L56.63,99.42L56.78,99.41L56.93,99.44L57.08,99.50L57.15,99.56L57.21,99.63L57.21,99.72L57.16,99.79L57.07,99.85L56.95,99.89L56.80,99.91L56.65,99.90"/><path style="stroke:#000000;stroke-width:0.088" d="M56.90,99.90L56.75,99.88L56.58,99.88"/><path style="stroke:#000000;stroke-width:0.088" d="M57.48,103.00L57.38,102.91L57.33,102.75L57.33,102.56L57.38,102.35L57.49,102.14L57.63,101.95L57.79,101.81L57.95,101.73L58.11,101.72L58.23,101.79L58.31,101.91L58.33,102.13L58.30,102.29L58.22,102.51L58.10,102.71L57.95,102.87L57.78,102.98L57.62,103.03L57.48,103.00"/><path style="stroke:#000000;stroke-width:0.088" d="M56.96,100.20L147.00,55.49L147.09,55.46L147.17,55.47L147.41,55.61"/><path style="stroke:#000000;stroke-width:0.088" d="M58.85,98.89L58.70,98.88L58.56,98.84L58.44,98.78L58.37,98.71L58.34,98.63L58.36,98.55L58.43,98.48L58.54,98.43L58.68,98.40L58.83,98.40L58.98,98.42L59.11,98.47L59.21,98.54L59.26,98.62L59.26,98.70L59.21,98.77L59.09,98.85L59.00,98.88L58.85,98.89"/><path style="stroke:#000000;stroke-width:0.088" d="M58.95,98.88L58.80,98.86L58.63,98.86"/><path style="stroke:#000000;stroke-width:0.088" d="M59.89,102.99L59.77,103.07L59.61,103.11L59.48,103.08L59.39,102.99L59.34,102.85L59.34,102.67L59.39,102.47L59.49,102.27L59.62,102.09L59.77,101.96L59.93,101.89L60.07,101.88L60.19,101.94L60.26,102.06L60.29,102.22L60.26,102.42L60.18,102.62L60.07,102.81L59.89,102.99"/><path style="stroke:#000000;stroke-width:0.088" d="M60.66,97.37L60.59,97.44L60.57,97.52L60.60,97.60L60.67,97.68L60.79,97.74L60.93,97.77L61.08,97.79L61.23,97.77L61.35,97.73L61.44,97.67L61.49,97.59L61.49,97.51L61.43,97.43L61.34,97.36L61.21,97.31L61.06,97.29L60.91,97.29L60.77,97.32L60.66,97.37"/><path style="stroke:#000000;stroke-width:0.088" d="M61.18,97.77L61.03,97.75L60.86,97.76"/><path style="stroke:#000000;stroke-width:0.088" d="M61.62,101.36L61.57,101.56L61.57,101.74L61.62,101.89L61.71,101.98L61.84,102.00L62.00,101.96L62.15,101.85L62.30,101.70L62.41,101.51L62.49,101.31L62.51,101.15L62.49,100.95L62.42,100.83L62.30,100.77L62.16,100.78L62.00,100.86L61.85,100.99L61.72,101.16L61.62,101.36"/><path style="stroke:#000000;stroke-width:0.088" d="M65.08,100.17L65.17,100.18L65.28,100.16L65.39,100.08L65.48,99.99L65.57,99.85L65.62,99.71L65.64,99.57L65.62,99.46L65.57,99.38L65.49,99.34L65.39,99.35L65.30,99.39L65.18,99.49L65.09,99.61L65.02,99.75L64.98,99.88L64.98,100.01L65.02,100.11L65.08,100.17"/><path style="stroke:#000000;stroke-width:0.088" d="M65.13,97.45L65.17,97.55L65.23,97.61L65.32,97.63L65.43,97.60L65.54,97.53L65.64,97.42L65.72,97.29L65.77,97.15L65.78,97.02L65.77,96.90L65.72,96.82L65.64,96.78L65.54,96.79L65.43,96.84L65.33,96.93L65.24,97.05L65.17,97.19L65.13,97.33L65.13,97.45"/><path style="stroke:#000000;stroke-width:0.088" d="M98.96,83.34L98.90,83.28L98.86,83.18L98.86,83.06L98.88,82.98L98.97,82.79L99.06,82.67L99.18,82.56L99.27,82.52L99.37,82.52L99.45,82.56L99.50,82.64L99.51,82.75L99.50,82.88L99.44,83.02L99.37,83.15L99.27,83.26L99.16,83.33L99.05,83.36L98.96,83.34"/><path style="stroke:#000000;stroke-width:0.088" d="M99.51,80.59L99.42,80.70L99.31,80.77L99.20,80.80L99.11,80.79L99.05,80.73L99.01,80.63L99.01,80.50L99.05,80.36L99.12,80.23L99.21,80.11L99.31,80.02L99.42,79.97L99.52,79.96L99.60,80.00L99.65,80.08L99.66,80.19L99.65,80.33L99.59,80.46L99.51,80.59"/><path style="stroke:#000000;stroke-width:0.088" d="M121.34,67.28L121.31,67.36L121.34,67.44L121.42,67.51L121.53,67.57L121.67,67.61L121.83,67.62L121.97,67.60L122.10,67.56L122.19,67.50L122.24,67.42L122.23,67.34L122.18,67.26L122.08,67.20L121.95,67.15L121.81,67.12L121.65,67.13L121.52,67.15L121.41,67.21L121.34,67.28"/><path style="stroke:#000000;stroke-width:0.088" d="M121.92,67.61L121.78,67.58L121.61,67.59"/><path style="stroke:#000000;stroke-width:0.088" d="M122.38,71.02L122.32,71.22L122.32,71.40L122.37,71.54L122.47,71.63L122.60,71.66L122.75,71.61L122.91,71.51L122.97,71.45L123.05,71.36L123.17,71.17L123.24,70.96L123.27,70.81L123.25,70.61L123.17,70.49L123.06,70.43L122.91,70.44L122.76,70.51L122.61,70.64L122.47,70.82L122.38,71.02"/><path style="stroke:#000000;stroke-width:0.088" d="M126.84,64.71L126.92,64.78L127.03,64.84L127.17,64.88L127.30,64.89L127.47,64.87L127.60,64.83L127.69,64.77L127.73,64.69L127.73,64.61L127.68,64.53L127.58,64.47L127.45,64.42L127.30,64.39L127.15,64.39L127.01,64.42L126.90,64.48L126.83,64.55L126.81,64.63L126.84,64.71"/><path style="stroke:#000000;stroke-width:0.088" d="M127.11,64.86L127.28,64.85L127.42,64.88"/><path style="stroke:#000000;stroke-width:0.088" d="M128.36,67.04L128.20,67.08L128.07,67.05L127.98,66.97L127.93,66.82L127.93,66.64L127.98,66.44L128.08,66.24L128.21,66.07L128.36,65.94L128.52,65.86L128.66,65.85L128.78,65.91L128.85,66.03L128.88,66.19L128.85,66.39L128.77,66.59L128.66,66.78L128.51,66.93L128.36,67.04"/><path style="stroke:#000000;stroke-width:0.088" d="M133.31,66.22L133.24,66.33L133.15,66.43L133.04,66.51L132.93,66.53L132.84,66.52L132.78,66.46L132.74,66.36L132.74,66.24L132.78,66.10L132.85,65.96L132.94,65.84L133.04,65.75L133.15,65.70L133.25,65.69L133.33,65.73L133.38,65.81L133.39,65.92L133.38,66.06L133.31,66.22"/><path style="stroke:#000000;stroke-width:0.088" d="M133.08,63.98L133.19,63.95L133.30,63.88L133.39,63.77L133.47,63.64L133.53,63.50L133.54,63.37L133.53,63.25L133.48,63.17L133.40,63.14L133.30,63.14L133.21,63.18L133.09,63.28L132.99,63.40L132.93,63.54L132.89,63.68L132.90,63.83L132.93,63.90L132.99,63.96L133.08,63.98"/><path style="stroke:#000000;stroke-width:0.088" d="M134.58,60.71L134.64,60.64L134.74,60.58L134.87,60.55L135.02,60.54L135.17,60.56L135.31,60.60L135.41,60.66L135.48,60.74L135.49,60.82L135.46,60.90L135.36,60.98L135.26,61.01L135.12,61.04L134.97,61.03L134.82,61.00L134.70,60.95L134.61,60.87L134.57,60.79L134.58,60.71"/><path style="stroke:#000000;stroke-width:0.088" d="M134.86,61.01L134.99,61.00L135.17,61.03"/><path style="stroke:#000000;stroke-width:0.088" d="M135.74,65.05L135.63,64.96L135.58,64.82L135.58,64.63L135.63,64.43L135.73,64.24L135.86,64.06L136.01,63.93L136.17,63.86L136.31,63.85L136.43,63.91L136.50,64.02L136.53,64.19L136.50,64.38L136.42,64.58L136.31,64.77L136.16,64.93L136.01,65.03L135.85,65.07L135.74,65.05"/><path style="stroke:#000000;stroke-width:0.088" d="M140.26,58.24L140.46,58.30L140.62,58.31L140.76,58.28L140.88,58.24L140.96,58.17L140.99,58.09L140.98,58.01L140.91,57.93L140.81,57.87L140.67,57.83L140.52,57.81L140.37,57.82L140.24,57.85L140.14,57.91L140.08,57.98L140.07,58.06L140.11,58.14L140.20,58.22L140.26,58.24"/><path style="stroke:#000000;stroke-width:0.088" d="M140.36,58.28L140.49,58.27L140.67,58.30"/><path style="stroke:#000000;stroke-width:0.088" d="M141.23,60.38L141.18,60.24L141.19,60.06L141.24,59.86L141.33,59.67L141.47,59.48L141.62,59.35L141.78,59.28L141.92,59.27L142.03,59.33L142.11,59.45L142.13,59.65L142.10,59.81L142.03,60.01L141.91,60.20L141.77,60.35L141.61,60.45L141.46,60.50L141.33,60.47L141.23,60.38"/><path style="stroke:#000000;stroke-width:0.088" d="M142.84,57.02L142.72,56.96L142.64,56.89L142.60,56.81L142.60,56.73L142.66,56.65L142.76,56.60L142.90,56.56L143.05,56.55L143.20,56.57L143.39,56.65L143.44,56.68L143.50,56.76L143.52,56.84L143.48,56.92L143.38,56.99L143.28,57.03L143.14,57.05L142.99,57.05L142.84,57.02"/><path style="stroke:#000000;stroke-width:0.088" d="M142.88,57.02L143.02,57.02L143.20,57.04"/><path style="stroke:#000000;stroke-width:0.088" d="M143.60,60.65L143.60,60.83L143.65,60.98L143.75,61.06L143.88,61.09L144.03,61.05L144.19,60.94L144.33,60.79L144.45,60.60L144.52,60.40L144.55,60.20L144.52,60.04L144.45,59.92L144.34,59.86L144.19,59.87L144.04,59.95L143.88,60.08L143.75,60.25L143.66,60.45L143.60,60.65"/><path style="stroke:#000000;stroke-width:0.088" d="M144.02,56.23L144.02,56.19L144.04,56.15L144.15,56.10L144.22,56.09L144.36,56.11L144.46,56.18L144.47,56.22L144.46,56.26L144.43,56.29L144.31,56.33L144.16,56.32L144.06,56.27L144.02,56.23"/><path style="stroke:#000000;stroke-width:0.088" d="M144.11,56.30L144.10,56.27L144.11,56.24L144.22,56.21L144.35,56.24L144.38,56.29L144.37,56.32"/><path style="stroke:#000000;stroke-width:0.088" d="M145.30,55.85L145.10,55.78L145.01,55.71L144.97,55.63L144.98,55.55L145.04,55.47L145.14,55.42L145.32,55.38L145.42,55.37L145.57,55.39L145.71,55.43L145.82,55.50L145.88,55.57L145.90,55.66L145.86,55.73L145.76,55.81L145.66,55.85L145.52,55.87L145.30,55.85"/><path style="stroke:#000000;stroke-width:0.088" d="M145.26,55.84L145.40,55.83L145.57,55.86"/><path style="stroke:#000000;stroke-width:0.088" d="M145.27,54.37L145.33,54.41L145.37,54.49L145.36,54.75"/><path style="stroke:#000000;stroke-width:0.088" d="M144.86,54.25L145.10,54.39"/><path style="stroke:#000000;stroke-width:0.088" d="M146.09,57.62L146.09,57.80L146.14,57.95L146.23,58.04L146.36,58.06L146.51,58.02L146.67,57.92L146.82,57.76L146.93,57.57L147.01,57.37L147.03,57.18L147.01,57.01L146.94,56.89L146.82,56.84L146.68,56.84L146.52,56.92L146.37,57.05L146.24,57.22L146.14,57.42L146.09,57.62"/><path style="stroke:#000000;stroke-width:0.088" d="M147.24,55.62L147.00,55.49"/><path style="stroke:#000000;stroke-width:0.088" d="M55.49,90.19L55.45,90.17L55.53,90.31L55.56,90.33L55.49,90.19L57.15,91.16L57.20,91.17L57.29,91.16L57.38,91.10L57.51,90.96L55.61,89.85L55.80,89.67L56.00,89.54L152.82,41.45L152.92,41.43L153.06,41.46L154.73,42.43L154.78,42.48L154.76,42.53L154.73,42.56L57.91,90.64L56.00,89.54"/><path style="stroke:#000000;stroke-width:0.088" d="M55.56,90.33L57.23,91.30L57.32,91.31L57.42,91.28L57.46,91.24L57.38,91.10"/><path style="stroke:#000000;stroke-width:0.088" d="M55.45,90.17L55.43,90.09L55.45,90.04L55.61,89.85"/><path style="stroke:#000000;stroke-width:0.088" d="M57.15,91.16L57.23,91.30"/><path style="stroke:#000000;stroke-width:0.088" d="M57.46,91.24L57.73,90.96L57.89,90.85L154.72,42.77L154.76,42.72L154.78,42.51"/><path style="stroke:#000000;stroke-width:0.088" d="M57.51,90.96L57.70,90.77L57.91,90.64"/><path style="stroke:#000000;stroke-width:0.088" d="M145.30,46.25L145.23,46.22L145.18,46.16L145.15,46.10L145.17,46.04L145.22,45.98L145.31,45.94L145.42,45.92L145.65,45.93L145.75,45.97L145.83,46.02L145.87,46.09L145.87,46.15L145.84,46.21L145.77,46.26L145.67,46.29L145.44,46.29L145.30,46.25"/><path style="stroke:#000000;stroke-width:0.088" d="M145.69,46.28L145.69,46.24L145.67,46.21L145.63,46.18L145.52,46.15L145.44,46.16L145.35,46.19L145.32,46.22L145.32,46.26"/><path style="stroke:#000000;stroke-width:0.088" d="M145.67,46.29L145.61,46.24L145.50,46.22L145.38,46.24L145.33,46.27"/><path style="stroke:#000000;stroke-width:0.088" d="M154.73,42.56L154.72,42.77"/><path style="stroke:#000000;stroke-width:0.088" d="M133.39,89.85L133.35,89.86L133.30,89.87L133.25,89.87L133.20,89.86L133.16,89.84L132.77,89.61L132.68,89.58L132.59,89.58L132.52,89.62L132.47,89.70L132.45,89.80L132.34,91.64L131.87,91.37L131.97,89.52L131.97,89.40L131.93,89.28L131.87,89.16L131.79,89.06L131.70,88.99L131.31,88.77L131.34,88.27L131.31,88.25L131.29,88.22L131.29,88.19L131.31,88.17L131.34,88.15L131.99,87.82L132.03,87.81L132.08,87.80L132.14,87.80L132.19,87.81L132.23,87.83L132.55,88.01L134.08,88.90L134.11,88.92L134.12,88.95L134.12,88.98L134.11,89.00L134.08,89.02L133.42,89.35L133.39,89.85L134.05,89.52L134.08,89.50L134.09,89.47L134.12,88.98"/><path style="stroke:#000000;stroke-width:0.088" d="M131.31,88.77L131.28,88.75L131.26,88.72L131.26,88.69L131.29,88.19"/><path style="stroke:#000000;stroke-width:0.088" d="M131.75,88.11L131.75,88.15L131.76,88.18L131.80,88.21L131.85,88.23L131.91,88.24L131.98,88.24L132.03,88.23L132.08,88.21L132.11,88.18L132.12,88.15L132.11,88.11L132.08,88.08L132.04,88.06L131.98,88.04L131.92,88.04L131.86,88.04L131.81,88.06L131.80,88.06L131.77,88.08L131.75,88.11"/><path style="stroke:#000000;stroke-width:0.088" d="M133.42,89.35L133.38,89.36L133.33,89.37L133.28,89.37L133.23,89.36L133.18,89.34L131.34,88.27"/><path style="stroke:#000000;stroke-width:0.088" d="M132.34,91.64L133.23,91.20L133.31,89.87"/><path style="stroke:#000000;stroke-width:0.088" d="M132.45,89.80L132.79,89.63"/><path style="stroke:#000000;stroke-width:0.088" d="M133.16,89.84L133.18,89.34"/><path style="stroke:#000000;stroke-width:0.088" d="M133.29,89.04L133.31,89.07L133.35,89.10L133.40,89.12L133.46,89.13L133.52,89.13L133.58,89.12L133.63,89.10L133.66,89.07L133.67,89.04L133.66,89.01L133.63,88.98L133.59,88.95L133.53,88.94L133.47,88.93L133.41,88.94L133.36,88.95L133.35,88.95L133.32,88.98L133.30,89.01L133.29,89.04"/><path style="stroke:#000000;stroke-width:0.088" d="M133.30,89.01L133.30,89.01"/><path style="stroke:#000000;stroke-width:0.088" d="M134.05,89.52L134.08,89.02"/><path style="stroke:#000000;stroke-width:0.088" d="M148.76,72.48L151.91,74.30L151.90,74.29L151.85,74.22L151.82,74.14L151.81,74.07L151.81,74.00L151.84,73.94L151.88,73.91L151.93,73.90L148.79,72.09L148.83,72.14L148.86,72.22L148.88,72.30L148.88,72.37L148.87,72.43L148.83,72.47L148.78,72.48L148.76,72.48L148.73,72.47L148.67,72.43L148.63,72.41L148.35,72.25L148.41,72.36L148.50,72.42L152.46,74.71L152.37,74.64L152.32,74.53L152.04,74.37L152.07,74.37L152.12,74.35L152.15,74.31L152.16,74.25L152.16,74.17L152.14,74.09L152.10,74.02L152.06,73.98L152.34,74.14L152.41,73.96L152.51,73.80L152.64,73.66L152.97,73.50L153.08,73.52L153.17,73.59L153.23,73.70L153.21,74.09L153.13,74.27L153.03,74.43L152.91,74.57L152.58,74.73L152.46,74.71"/><path style="stroke:#000000;stroke-width:0.088" d="M148.35,72.25L148.38,71.85L148.45,71.68L148.52,71.57L148.55,71.51L148.68,71.38L150.59,72.48L150.63,72.52L150.69,72.55L150.72,72.56L152.64,73.66"/><path style="stroke:#000000;stroke-width:0.088" d="M148.38,71.85L148.65,72.01L148.61,72.01L148.57,72.04L148.54,72.09L148.53,72.16L148.54,72.23L148.57,72.31L148.61,72.38L148.63,72.41"/><path style="stroke:#000000;stroke-width:0.088" d="M148.74,72.05L148.70,72.03L148.65,72.04L148.61,72.06L148.59,72.10L148.58,72.16L148.59,72.22L148.61,72.29L148.65,72.35L148.70,72.40L148.75,72.43L148.80,72.43L148.84,72.42L148.87,72.39L148.88,72.34"/><path style="stroke:#000000;stroke-width:0.088" d="M148.79,72.09L148.73,72.04L148.65,72.01"/><path style="stroke:#000000;stroke-width:0.088" d="M148.68,71.38L149.01,71.21L149.12,71.23L153.08,73.52"/><path style="stroke:#000000;stroke-width:0.088" d="M149.01,71.21L150.92,72.32L150.99,72.35L151.06,72.39L152.97,73.50"/><path style="stroke:#000000;stroke-width:0.088" d="M150.59,72.48L150.59,72.48L150.57,72.43L150.58,72.39L150.62,72.35L150.68,72.32L150.76,72.30L150.84,72.30L150.92,72.32"/><path style="stroke:#000000;stroke-width:0.088" d="M150.72,72.56L150.77,72.57L150.85,72.57L150.93,72.57L151.00,72.54L151.05,72.51L151.07,72.47L151.07,72.42L151.06,72.39"/><path style="stroke:#000000;stroke-width:0.088" d="M150.64,72.52L150.62,72.50L150.61,72.46L150.62,72.43L150.65,72.39L150.70,72.37L150.76,72.36L150.83,72.36L150.90,72.37L150.96,72.39L150.97,72.39L151.01,72.42L151.03,72.46L151.03,72.50L151.01,72.53L150.99,72.55"/><path style="stroke:#000000;stroke-width:0.088" d="M151.91,74.30L151.96,74.33L152.01,74.37L152.04,74.37"/><path style="stroke:#000000;stroke-width:0.088" d="M152.32,74.53L152.34,74.14"/><path style="stroke:#000000;stroke-width:0.088" d="M152.01,73.94L151.96,73.92L151.92,73.93L151.88,73.96L151.86,74.01L151.86,74.06L151.87,74.13L151.90,74.19L151.94,74.25L151.98,74.30L152.04,74.32L152.08,74.33L152.12,74.31L152.15,74.27L152.16,74.22"/><path style="stroke:#000000;stroke-width:0.088" d="M151.93,73.90L151.99,73.92L152.06,73.98"/><path style="stroke:#000000;stroke-width:0.088" d="M61.50,122.96L61.47,123.45L61.44,123.43L61.42,123.40L61.42,123.37L61.45,122.88L61.45,122.90L61.47,122.93L61.50,122.96L63.35,124.02L63.39,124.04L63.44,124.05L63.49,124.05L63.54,124.05L63.58,124.03L63.55,124.53L63.51,124.54L63.46,124.55L63.41,124.55L63.36,124.54L63.32,124.52L63.35,124.02"/><path style="stroke:#000000;stroke-width:0.088" d="M61.45,122.88L61.47,122.85L61.50,122.83L62.15,122.50L62.20,122.49L62.25,122.48L62.30,122.48L62.35,122.49L62.39,122.51L64.24,123.58L64.27,123.60L64.28,123.63L64.28,123.66L64.27,123.69L64.24,123.71L63.58,124.03"/><path style="stroke:#000000;stroke-width:0.088" d="M61.47,123.45L61.86,123.68L61.95,123.75L62.03,123.85L62.09,123.96L62.13,124.09L62.13,124.20L62.03,126.05L62.50,126.33L62.61,124.48L62.63,124.38L62.68,124.30L62.75,124.26L62.84,124.26L62.93,124.30L63.32,124.52"/><path style="stroke:#000000;stroke-width:0.088" d="M62.01,122.91L62.07,122.92L62.14,122.92L62.19,122.91L62.24,122.89L62.27,122.86L62.28,122.83L62.27,122.80L62.25,122.77L62.20,122.74L62.14,122.72L62.08,122.72L62.02,122.72L61.97,122.74L61.96,122.74L61.93,122.76L61.91,122.79L61.91,122.83L61.93,122.86L61.94,122.87L61.96,122.89L62.01,122.91"/><path style="stroke:#000000;stroke-width:0.088" d="M61.91,122.79L61.91,122.79"/><path style="stroke:#000000;stroke-width:0.088" d="M62.50,126.33L63.39,125.88L63.47,124.55"/><path style="stroke:#000000;stroke-width:0.088" d="M62.61,124.48L62.95,124.31"/><path style="stroke:#000000;stroke-width:0.088" d="M63.55,124.53L64.21,124.20L64.24,124.18L64.26,124.16L64.28,123.66"/><path style="stroke:#000000;stroke-width:0.088" d="M63.46,123.69L63.48,123.66L63.51,123.64L63.52,123.63L63.57,123.62L63.63,123.61L63.69,123.62L63.75,123.64L63.79,123.66L63.80,123.67L63.82,123.69L63.83,123.72L63.82,123.76L63.79,123.78L63.74,123.81L63.69,123.82L63.62,123.82L63.56,123.80L63.51,123.78L63.47,123.75L63.46,123.72L63.46,123.69L63.46,123.69"/><path style="stroke:#000000;stroke-width:0.088" d="M64.24,123.71L64.21,124.20"/><path style="stroke:#000000;stroke-width:0.088" d="M140.20,67.01L140.34,66.99L140.36,66.99L140.48,67.02L140.50,67.03L140.38,66.99L140.24,67.02L140.09,67.11L139.95,67.24L139.84,67.41L139.76,67.60L139.72,67.79L139.72,67.79L139.74,67.95L139.80,68.07L139.78,68.06L139.77,68.04L139.71,67.92"/><path style="stroke:#000000;stroke-width:0.088" d="M139.70,67.76L139.71,67.92"/><path style="stroke:#000000;stroke-width:0.088" d="M139.70,67.76L139.70,67.75L139.73,67.57L139.81,67.40L139.92,67.23L140.05,67.10"/><path style="stroke:#000000;stroke-width:0.088" d="M139.80,68.07L139.91,68.15L139.83,68.06L139.78,67.92L139.79,67.82L139.79,67.75L139.85,67.56L139.94,67.37L140.07,67.21L140.21,67.10L140.36,67.04L140.49,67.03L140.59,67.10L140.50,67.03"/><path style="stroke:#000000;stroke-width:0.088" d="M140.21,68.13L140.20,68.14L140.17,68.15L140.03,68.18L139.91,68.15"/><path style="stroke:#000000;stroke-width:0.088" d="M140.02,68.01L139.95,67.96L139.91,67.86L139.90,67.74L139.94,67.60L140.00,67.47L140.09,67.34L140.19,67.25L140.30,67.19L140.40,67.18L140.48,67.22L140.72,67.35L140.64,67.32L140.54,67.33L140.53,67.33L140.43,67.39L140.33,67.48L140.24,67.60L140.17,67.74L140.14,67.88L140.15,68.00L140.18,68.10L140.25,68.15L140.02,68.01"/><path style="stroke:#000000;stroke-width:0.088" d="M140.26,67.89L140.29,67.78L140.34,67.66L140.41,67.56L140.50,67.49L140.58,67.44L140.67,67.43L140.73,67.46L140.78,67.52L140.79,67.61L140.78,67.72L140.74,67.83L140.68,67.94L140.60,68.03L140.51,68.09L140.43,68.12L140.35,68.11L140.30,68.07L140.26,67.99L140.26,67.91L140.26,67.89"/><path style="stroke:#000000;stroke-width:0.088" d="M140.25,68.15L140.35,68.16L140.45,68.13L140.51,68.09"/><path style="stroke:#000000;stroke-width:0.088" d="M140.05,67.10L140.19,67.02L140.20,67.01"/><path style="stroke:#000000;stroke-width:0.088" d="M140.59,67.10L140.66,67.21L140.67,67.33"/><path style="stroke:#000000;stroke-width:0.088" d="M140.79,67.61L140.79,67.54L140.79,67.54"/><path style="stroke:#000000;stroke-width:0.088" d="M140.79,67.54L140.77,67.43L140.72,67.35"/><path style="stroke:#000000;stroke-width:0.088" d="M72.44,100.66L72.58,100.64L72.60,100.64L72.72,100.67L72.74,100.68L72.62,100.64L72.48,100.67L72.33,100.76L72.19,100.89L72.08,101.06L72.00,101.25L71.96,101.44L71.96,101.44L71.98,101.60L72.04,101.72L72.02,101.71L72.01,101.69L71.95,101.57"/><path style="stroke:#000000;stroke-width:0.088" d="M72.74,100.68L72.84,100.75L72.73,100.68L72.60,100.68L72.45,100.75L72.31,100.86L72.18,101.02L72.09,101.21L72.03,101.40L72.03,101.57L72.07,101.71L72.15,101.80L72.27,101.83L72.41,101.80L72.44,101.79L72.45,101.78"/><path style="stroke:#000000;stroke-width:0.088" d="M72.49,101.80L72.26,101.66L72.19,101.61L72.15,101.51L72.15,101.39L72.18,101.25L72.24,101.12L72.33,100.99L72.43,100.90L72.54,100.84L72.64,100.83L72.72,100.87L72.96,101.00L72.88,100.97L72.78,100.98L72.67,101.04L72.66,101.04L72.57,101.13L72.48,101.25L72.42,101.39L72.38,101.53L72.39,101.65L72.43,101.75L72.49,101.80L72.59,101.81L72.69,101.78L72.75,101.74L72.84,101.68L72.92,101.59L72.98,101.48L73.02,101.37L73.04,101.26L73.02,101.17L72.97,101.11L72.91,101.08L72.82,101.09L72.74,101.14L72.65,101.21L72.58,101.31L72.53,101.43L72.50,101.54L72.50,101.56L72.51,101.64L72.54,101.72L72.59,101.76L72.67,101.77L72.75,101.74"/><path style="stroke:#000000;stroke-width:0.088" d="M72.29,100.75L72.16,100.88L72.05,101.04L71.97,101.22L71.94,101.40L71.94,101.41"/><path style="stroke:#000000;stroke-width:0.088" d="M71.95,101.57L71.94,101.41"/><path style="stroke:#000000;stroke-width:0.088" d="M72.15,101.80L72.04,101.72"/><path style="stroke:#000000;stroke-width:0.088" d="M72.29,100.75L72.43,100.67L72.44,100.66"/><path style="stroke:#000000;stroke-width:0.088" d="M72.96,101.00L73.01,101.08L73.04,101.19L73.04,101.19"/><path style="stroke:#000000;stroke-width:0.088" d="M73.04,101.19L73.04,101.26"/><path style="stroke:#000000;stroke-width:0.088" d="M72.84,100.75L72.90,100.86L72.91,100.98"/><path style="stroke:#000000;stroke-width:0.088" d="M75.06,103.08L75.04,103.10L74.92,103.17L74.79,103.20L74.69,103.17L74.62,103.09L74.59,102.97L74.60,102.81L74.64,102.65L74.73,102.49L74.84,102.35L74.97,102.25L75.06,102.22L75.09,102.20L75.21,102.21L75.29,102.26L75.35,102.37L75.36,102.50L75.36,102.51L75.33,102.66L75.26,102.83L75.16,102.98L75.06,103.08"/><path style="stroke:#000000;stroke-width:0.088" d="M74.59,103.21L74.51,103.11L74.47,102.97L74.47,102.87L74.48,102.80L74.53,102.61L74.63,102.42L74.76,102.27L74.91,102.15L75.05,102.09L75.06,102.09L75.18,102.10L75.28,102.16L75.30,102.17L75.31,102.19L75.37,102.31L75.38,102.47L75.38,102.48L75.35,102.66L75.28,102.83L75.17,103.00L75.04,103.13L74.90,103.21L74.88,103.22L74.75,103.25L74.72,103.25L74.61,103.21L74.59,103.21L74.48,103.13L74.48,103.13"/><path style="stroke:#000000;stroke-width:0.088" d="M74.48,103.13L74.42,103.00L74.41,102.84L74.45,102.65L74.53,102.47L74.64,102.29L74.78,102.16L74.93,102.08L75.07,102.05L75.18,102.09L75.28,102.16"/><path style="stroke:#000000;stroke-width:0.088" d="M74.87,102.11L74.80,102.07L74.70,102.08L74.59,102.13L74.54,102.16L74.45,102.23L74.38,102.33L74.32,102.44L74.29,102.56L74.29,102.56"/><path style="stroke:#000000;stroke-width:0.088" d="M74.29,102.56L74.29,102.65L74.29,102.61L74.33,102.47L74.39,102.34L74.49,102.22L74.59,102.13"/><path style="stroke:#000000;stroke-width:0.088" d="M74.29,102.65L74.29,102.74L74.33,102.84L74.39,102.90L74.41,102.91"/><path style="stroke:#000000;stroke-width:0.088" d="M140.05,69.57L140.19,69.54L140.21,69.54L140.33,69.58L140.35,69.59L140.23,69.55L140.09,69.58L139.94,69.66L139.80,69.80L139.69,69.97L139.61,70.16L139.57,70.35L139.57,70.35L139.59,70.51L139.65,70.63L139.63,70.62L139.62,70.60L139.56,70.48"/><path style="stroke:#000000;stroke-width:0.088" d="M140.52,69.88L140.51,69.77L140.44,69.65L140.34,69.59L140.21,69.59L140.06,69.65L139.92,69.77L139.79,69.93L139.70,70.11L139.64,70.30L139.64,70.48L139.68,70.62L139.76,70.71L139.88,70.74L140.02,70.71L140.05,70.69L140.06,70.68"/><path style="stroke:#000000;stroke-width:0.088" d="M139.90,69.66L139.77,69.79L139.66,69.95L139.58,70.13L139.55,70.31L139.55,70.32"/><path style="stroke:#000000;stroke-width:0.088" d="M139.56,70.48L139.55,70.32"/><path style="stroke:#000000;stroke-width:0.088" d="M139.65,70.63L139.76,70.71"/><path style="stroke:#000000;stroke-width:0.088" d="M140.10,70.71L139.87,70.57L139.80,70.52L139.76,70.42L139.75,70.30L139.79,70.16L139.85,70.02L139.94,69.90L140.04,69.81L140.15,69.75L140.25,69.74L140.33,69.77L140.57,69.91L140.49,69.88L140.39,69.89L140.28,69.94L140.18,70.04L140.09,70.16L140.02,70.30L139.99,70.44L140.00,70.56L140.03,70.65L140.10,70.71L140.20,70.72L140.30,70.69L140.36,70.65L140.28,70.68L140.20,70.67L140.15,70.62L140.11,70.55L140.11,70.47L140.11,70.45L140.14,70.33L140.19,70.22L140.26,70.12L140.35,70.04L140.43,70.00L140.52,69.99L140.58,70.02L140.63,70.08L140.65,70.17L140.63,70.28L140.59,70.39L140.53,70.50L140.45,70.59L140.36,70.65"/><path style="stroke:#000000;stroke-width:0.088" d="M140.05,69.57L140.04,69.58L139.90,69.66"/><path style="stroke:#000000;stroke-width:0.088" d="M140.35,69.59L140.44,69.65"/><path style="stroke:#000000;stroke-width:0.088" d="M140.65,70.17L140.64,70.10L140.64,70.10"/><path style="stroke:#000000;stroke-width:0.088" d="M140.64,70.10L140.62,69.99L140.57,69.91"/><path style="stroke:#000000;stroke-width:0.088" d="M153.98,67.27L153.96,67.67L154.02,67.78L154.11,67.85L158.07,70.13L158.18,70.15L158.51,69.99L158.64,69.85L158.74,69.69L158.81,69.51L158.84,69.12L158.78,69.01L158.69,68.94L158.58,68.92L158.24,69.09L156.33,67.98L156.30,67.97L156.24,67.94L156.20,67.90L154.28,66.80L154.16,66.94L154.06,67.10L153.98,67.27L154.26,67.43L154.22,67.44L154.17,67.46L154.14,67.51L154.13,67.58L154.14,67.66L154.17,67.74L154.22,67.81L154.24,67.83L154.27,67.86L154.33,67.89L154.37,67.91L154.39,67.91L154.44,67.89L154.47,67.85L154.49,67.79L154.49,67.72L154.47,67.64L154.43,67.57L154.39,67.51L154.33,67.46L154.26,67.43"/><path style="stroke:#000000;stroke-width:0.088" d="M153.96,67.67L154.24,67.83"/><path style="stroke:#000000;stroke-width:0.088" d="M154.49,67.76L154.47,67.81L154.44,67.84L154.40,67.86L154.35,67.85L154.30,67.82L154.26,67.77L154.22,67.71L154.20,67.65L154.19,67.58L154.20,67.52L154.22,67.48L154.26,67.46L154.30,67.46L154.35,67.47"/><path style="stroke:#000000;stroke-width:0.088" d="M154.39,67.51L157.54,69.32L157.48,69.33L157.44,69.37L157.42,69.42L157.41,69.49L157.43,69.57L157.46,69.64L157.50,69.71L157.51,69.72L154.37,67.91"/><path style="stroke:#000000;stroke-width:0.088" d="M154.28,66.80L154.61,66.64L154.73,66.65L158.69,68.94"/><path style="stroke:#000000;stroke-width:0.088" d="M158.58,68.92L156.66,67.82L156.59,67.77L156.53,67.74L154.61,66.64"/><path style="stroke:#000000;stroke-width:0.088" d="M156.20,67.90L156.19,67.90L156.18,67.85L156.19,67.81L156.23,67.77L156.29,67.74L156.36,67.73L156.44,67.73L156.53,67.74"/><path style="stroke:#000000;stroke-width:0.088" d="M156.33,67.98L156.37,67.99L156.46,68.00L156.54,67.99L156.60,67.97L156.65,67.93L156.68,67.89L156.68,67.85L156.66,67.82"/><path style="stroke:#000000;stroke-width:0.088" d="M156.25,67.95L156.23,67.92L156.21,67.89L156.22,67.85L156.25,67.82L156.31,67.79L156.37,67.78L156.44,67.78L156.51,67.79L156.57,67.81L156.58,67.82L156.61,67.84L156.64,67.88L156.64,67.92L156.62,67.95L156.60,67.97"/><path style="stroke:#000000;stroke-width:0.088" d="M157.51,69.72L157.56,69.76L157.62,69.79L157.65,69.80L157.67,69.80L157.72,69.78L157.75,69.73L157.77,69.67L157.76,69.59L157.74,69.52L157.70,69.44L157.67,69.40L157.94,69.56L158.02,69.39L158.12,69.22L158.24,69.09"/><path style="stroke:#000000;stroke-width:0.088" d="M157.94,69.56L157.92,69.96L157.65,69.80"/><path style="stroke:#000000;stroke-width:0.088" d="M158.07,70.13L157.98,70.07L157.92,69.96"/><path style="stroke:#000000;stroke-width:0.088" d="M157.62,69.36L157.57,69.35L157.52,69.35L157.49,69.38L157.47,69.43L157.47,69.49L157.48,69.55L157.50,69.62L157.54,69.68L157.59,69.72L157.64,69.74L157.69,69.75L157.73,69.73L157.76,69.69L157.77,69.65"/><path style="stroke:#000000;stroke-width:0.088" d="M157.54,69.32L157.60,69.34L157.67,69.40"/><path style="stroke:#000000;stroke-width:0.088" d="M123.08,43.11L121.30,42.08L124.27,40.60L126.06,41.63L123.08,43.11L123.08,43.26L123.11,43.25L123.12,43.32L123.14,43.37L123.18,43.40L123.24,43.41L123.30,43.39L123.36,43.34L123.42,43.28L123.47,43.21L123.50,43.13L123.52,43.05L123.59,43.01L123.59,43.08L123.62,43.13L123.66,43.16L123.71,43.17L123.77,43.15L123.84,43.11L123.90,43.05L123.94,42.97L123.98,42.89L123.99,42.81L124.06,42.77L124.07,42.84L124.09,42.90L124.13,42.93L124.19,42.93L124.25,42.92L124.31,42.87L124.37,42.81L124.42,42.73L124.45,42.65L124.47,42.57L124.54,42.54L124.54,42.61L124.57,42.66L124.61,42.69L124.66,42.70L124.73,42.68L124.79,42.64L124.85,42.57L124.89,42.50L124.93,42.42L124.94,42.34L125.01,42.30L125.02,42.37L125.04,42.42L125.08,42.46L125.14,42.46L125.20,42.44L125.26,42.40L125.32,42.34L125.36,42.28L125.37,42.26L125.40,42.18L125.42,42.10L125.49,42.07L125.49,42.14L125.52,42.19L125.56,42.22L125.61,42.23L125.68,42.21L125.74,42.16L125.80,42.10L125.85,42.03L125.88,41.94L125.89,41.87L126.05,41.79L126.06,41.63"/><path style="stroke:#000000;stroke-width:0.088" d="M142.12,72.02L142.20,72.11L142.22,72.12L142.33,72.15L142.36,72.15L142.49,72.13L142.51,72.12L142.65,72.03L142.78,71.90L142.89,71.74L142.96,71.56L142.99,71.39L142.99,71.37L142.98,71.22L142.92,71.10L142.91,71.08L142.89,71.07L142.79,71.00L142.66,71.00L142.51,71.06L142.37,71.17L142.24,71.33L142.14,71.52L142.09,71.70L142.08,71.88L142.12,72.02"/><path style="stroke:#000000;stroke-width:0.088" d="M142.20,72.11L142.09,72.03L142.03,71.91L142.02,71.75L142.05,71.56L142.14,71.37L142.25,71.20L142.39,71.07L142.54,70.98L142.68,70.96L142.79,71.00L142.89,71.07"/><path style="stroke:#000000;stroke-width:0.088" d="M142.02,71.82L142.00,71.81L141.93,71.74L141.90,71.65L141.90,71.56L141.90,71.52L141.94,71.38L142.00,71.25L142.09,71.13L142.20,71.04L142.14,71.07L142.06,71.14L141.98,71.24L141.93,71.35L141.90,71.46L141.90,71.47"/><path style="stroke:#000000;stroke-width:0.088" d="M141.90,71.46L141.90,71.56"/><path style="stroke:#000000;stroke-width:0.088" d="M142.65,72.01L142.52,72.08L142.40,72.11L142.30,72.08L142.23,72.00L142.20,71.87L142.20,71.72L142.25,71.56L142.34,71.40L142.45,71.26L142.57,71.16L142.70,71.11L142.81,71.11L142.90,71.17L142.96,71.27L142.97,71.41L142.97,71.41L142.94,71.57L142.87,71.74L142.77,71.89L142.65,72.01"/><path style="stroke:#000000;stroke-width:0.088" d="M142.20,71.04L142.31,70.99L142.41,70.98L142.48,71.02"/><path style="stroke:#000000;stroke-width:0.088" d="M74.72,104.67L74.65,104.63L74.55,104.63L74.44,104.69L74.34,104.78L74.25,104.90L74.18,105.03L74.14,105.17L74.14,105.21L74.14,105.30L74.18,105.39L74.24,105.45L74.26,105.47"/><path style="stroke:#000000;stroke-width:0.088" d="M74.14,105.11L74.14,105.11L74.17,105.00L74.23,104.89L74.30,104.79L74.39,104.72L74.44,104.69"/><path style="stroke:#000000;stroke-width:0.088" d="M74.14,105.11L74.14,105.21"/><path style="stroke:#000000;stroke-width:0.088" d="M74.89,105.65L74.77,105.73L74.64,105.76L74.54,105.73L74.47,105.65L74.44,105.52L74.45,105.37L74.49,105.21L74.58,105.05L74.69,104.91L74.82,104.81L74.94,104.76L75.06,104.76L75.14,104.82L75.20,104.92L75.21,105.06L75.21,105.06L75.18,105.22L75.11,105.39L75.01,105.54L74.89,105.65"/><path style="stroke:#000000;stroke-width:0.088" d="M74.44,105.76L74.36,105.67L74.32,105.53L74.32,105.43L74.33,105.35L74.38,105.16L74.48,104.98L74.61,104.82L74.76,104.71L74.84,104.68L74.90,104.65L75.03,104.65L75.13,104.72L75.15,104.73L75.16,104.75L75.22,104.87L75.23,105.02L75.23,105.04L75.20,105.21L75.13,105.39L75.02,105.55L74.89,105.68L74.75,105.77L74.73,105.78L74.60,105.80L74.57,105.80L74.46,105.77L74.44,105.76L74.33,105.68L74.33,105.68"/><path style="stroke:#000000;stroke-width:0.088" d="M74.33,105.68L74.27,105.56L74.26,105.40L74.30,105.21L74.38,105.02L74.49,104.85L74.63,104.72L74.78,104.63L74.92,104.61L75.03,104.65L75.13,104.72"/><path style="stroke:#000000;stroke-width:0.088" d="M72.29,103.22L72.43,103.19L72.45,103.19L72.57,103.23L72.59,103.23L72.47,103.20L72.33,103.23L72.18,103.31L72.04,103.45L71.93,103.62L71.89,103.72L71.85,103.81L71.82,104.00L71.82,104.00L71.83,104.16L71.89,104.28L71.87,104.27L71.86,104.24L71.80,104.13"/><path style="stroke:#000000;stroke-width:0.088" d="M71.79,103.97L71.79,103.95L71.82,103.78L71.90,103.60L72.01,103.44L72.14,103.31"/><path style="stroke:#000000;stroke-width:0.088" d="M71.80,104.13L71.79,103.97"/><path style="stroke:#000000;stroke-width:0.088" d="M72.76,103.53L72.75,103.42L72.69,103.30L72.58,103.24L72.45,103.24L72.31,103.30L72.16,103.42L72.03,103.58L71.94,103.76L71.88,103.95L71.88,104.13L71.92,104.27L72.00,104.36L72.12,104.39L72.26,104.36L72.29,104.34L72.30,104.33"/><path style="stroke:#000000;stroke-width:0.088" d="M72.00,104.36L71.89,104.28"/><path style="stroke:#000000;stroke-width:0.088" d="M72.35,104.36L72.11,104.22L72.04,104.16L72.00,104.07L72.00,103.95L72.03,103.81L72.07,103.72L72.09,103.67L72.18,103.55L72.28,103.46L72.39,103.40L72.49,103.39L72.57,103.42L72.81,103.56L72.73,103.53L72.63,103.54L72.52,103.59L72.42,103.69L72.33,103.81L72.27,103.95L72.23,104.09L72.24,104.21L72.28,104.30L72.35,104.36L72.44,104.37L72.54,104.34L72.61,104.30L72.69,104.24L72.77,104.15L72.84,104.04L72.87,103.92L72.89,103.82L72.87,103.73L72.82,103.67L72.76,103.64L72.68,103.65L72.59,103.69L72.55,103.72L72.50,103.77L72.43,103.87L72.38,103.98L72.35,104.10L72.35,104.12L72.36,104.20L72.39,104.27L72.44,104.32L72.52,104.33L72.61,104.30"/><path style="stroke:#000000;stroke-width:0.088" d="M72.29,103.22L72.28,103.23L72.14,103.31"/><path style="stroke:#000000;stroke-width:0.088" d="M72.59,103.23L72.69,103.30"/><path style="stroke:#000000;stroke-width:0.088" d="M72.89,103.82L72.89,103.75L72.89,103.75"/><path style="stroke:#000000;stroke-width:0.088" d="M72.89,103.75L72.86,103.64L72.81,103.56"/><path style="stroke:#000000;stroke-width:0.088" d="M142.63,68.46L142.56,68.42L142.46,68.43L142.35,68.48L142.29,68.51L142.21,68.58L142.13,68.68L142.08,68.79L142.05,68.91L142.05,68.91"/><path style="stroke:#000000;stroke-width:0.088" d="M142.17,69.26L142.15,69.25L142.08,69.19L142.05,69.09L142.05,69.00L142.05,68.96L142.09,68.83L142.15,68.69L142.24,68.57L142.35,68.48"/><path style="stroke:#000000;stroke-width:0.088" d="M142.05,68.91L142.05,69.00"/><path style="stroke:#000000;stroke-width:0.088" d="M142.80,69.45L142.67,69.52L142.55,69.55L142.45,69.52L142.38,69.44L142.35,69.32L142.35,69.16L142.40,69.00L142.49,68.84L142.60,68.70L142.72,68.61L142.85,68.55L142.96,68.56L143.05,68.61L143.10,68.72L143.12,68.86L143.12,68.86L143.09,69.02L143.02,69.18L142.92,69.33L142.80,69.45"/><path style="stroke:#000000;stroke-width:0.088" d="M142.35,69.56L142.27,69.46L142.23,69.32L142.24,69.15L142.29,68.96L142.39,68.77L142.52,68.62L142.66,68.50L142.75,68.47L142.81,68.44L142.94,68.45L143.04,68.51L143.06,68.52L143.07,68.54L143.13,68.66L143.14,68.82L143.14,68.83L143.11,69.01L143.04,69.18L142.93,69.35L142.80,69.48L142.66,69.56L142.64,69.57L142.50,69.60L142.48,69.60L142.37,69.56L142.35,69.56L142.24,69.48L142.18,69.35L142.17,69.19L142.20,69.00L142.29,68.82L142.40,68.65L142.43,68.62L142.54,68.51L142.69,68.43L142.83,68.40L142.94,68.44L143.04,68.51"/><path style="fill:#ffffff" d="M172.18,42.25L198.59,42.25L198.59,36.60L172.18,36.60z"/><path style="stroke:#35414c;stroke-width:0.255" d="M172.18,42.25L198.59,42.25L198.59,36.60L172.18,36.60z"/><path style="stroke:#35404c;stroke-width:0.250;stroke-opacity:0.00" d="M172.18,42.25L198.59,42.25L198.59,36.60L172.18,36.60z"/><text xml:space="preserve" fill="#333f4b" stroke-width="0" x="172.89" y="40.66" font-size="3.42" opacity="1.00" font-family="Arial" font-weight="bold" font-style="italic">CH8549</text><path style="fill:#ffffff" d="M172.18,92.44L198.59,92.44L198.59,86.79L172.18,86.79z"/><path style="stroke:#35414c;stroke-width:0.255" d="M172.18,92.44L198.59,92.44L198.59,86.79L172.18,86.79z"/><path style="stroke:#35404c;stroke-width:0.250;stroke-opacity:0.00" d="M172.18,92.44L198.59,92.44L198.59,86.79L172.18,86.79z"/><text xml:space="preserve" fill="#333f4b" stroke-width="0" x="172.89" y="90.85" font-size="3.49" opacity="1.00" font-family="Arial" font-weight="bold" font-style="italic">F24204077A</text><path style="fill:#ffffff" d="M172.18,72.36L198.59,72.36L198.59,66.72L172.18,66.72z"/><path style="stroke:#35414c;stroke-width:0.255" d="M172.18,72.36L198.59,72.36L198.59,66.72L172.18,66.72z"/><path style="stroke:#35404c;stroke-width:0.250;stroke-opacity:0.00" d="M172.18,72.36L198.59,72.36L198.59,66.72L172.18,66.72z"/><text xml:space="preserve" fill="#333f4b" stroke-width="0" x="172.89" y="70.77" font-size="3.49" opacity="1.00" font-family="Arial" font-weight="bold" font-style="italic">F24201449A</text><path style="fill:#ffffff" d="M172.18,82.40L198.59,82.40L198.59,76.76L172.18,76.76z"/><path style="stroke:#35414c;stroke-width:0.255" d="M172.18,82.40L198.59,82.40L198.59,76.76L172.18,76.76z"/><path style="stroke:#35404c;stroke-width:0.250;stroke-opacity:0.00" d="M172.18,82.40L198.59,82.40L198.59,76.76L172.18,76.76z"/><text xml:space="preserve" fill="#333f4b" stroke-width="0" x="172.89" y="80.81" font-size="3.49" opacity="1.00" font-family="Arial" font-weight="bold" font-style="italic">F24204076A</text><path style="fill:#ffffff" d="M172.18,52.29L198.59,52.29L198.59,46.64L172.18,46.64z"/><path style="stroke:#35414c;stroke-width:0.255" d="M172.18,52.29L198.59,52.29L198.59,46.64L172.18,46.64z"/><path style="stroke:#35404c;stroke-width:0.250;stroke-opacity:0.00" d="M172.18,52.29L198.59,52.29L198.59,46.64L172.18,46.64z"/><text xml:space="preserve" fill="#333f4b" stroke-width="0" x="172.89" y="50.70" font-size="3.56" opacity="1.00" font-family="Arial" font-weight="bold" font-style="italic">F24002013X</text><path style="fill:#ffffff" d="M172.18,62.32L198.59,62.32L198.59,56.68L172.18,56.68z"/><path style="stroke:#35414c;stroke-width:0.255" d="M172.18,62.32L198.59,62.32L198.59,56.68L172.18,56.68z"/><path style="stroke:#35404c;stroke-width:0.250;stroke-opacity:0.00" d="M172.18,62.32L198.59,62.32L198.59,56.68L172.18,56.68z"/><text xml:space="preserve" fill="#333f4b" stroke-width="0" x="172.89" y="60.74" font-size="3.56" opacity="1.00" font-family="Arial" font-weight="bold" font-style="italic">F24002021X</text><path style="fill:#ffffff" d="M172.18,102.47L198.59,102.47L198.59,96.83L172.18,96.83z"/><path style="stroke:#35414c;stroke-width:0.255" d="M172.18,102.47L198.59,102.47L198.59,96.83L172.18,96.83z"/><path style="stroke:#35404c;stroke-width:0.250;stroke-opacity:0.00" d="M172.18,102.47L198.59,102.47L198.59,96.83L172.18,96.83z"/><text xml:space="preserve" fill="#333f4b" stroke-width="0" x="172.89" y="100.89" font-size="3.49" opacity="1.00" font-family="Arial" font-weight="bold" font-style="italic">F24204078A</text><path style="fill:#ffffff" d="M172.18,112.25L198.59,112.25L198.59,106.60L172.18,106.60z"/><path style="stroke:#35414c;stroke-width:0.255" d="M172.18,112.25L198.59,112.25L198.59,106.60L172.18,106.60z"/><path style="stroke:#35404c;stroke-width:0.250;stroke-opacity:0.00" d="M172.18,112.25L198.59,112.25L198.59,106.60L172.18,106.60z"/><text xml:space="preserve" fill="#333f4b" stroke-width="0" x="172.89" y="110.66" font-size="3.56" opacity="1.00" font-family="Arial" font-weight="bold" font-style="italic">F24204079X</text><g id="paperID" visibility="hidden" opacity="0.00" transform="scale(0.000100)"><path style="stroke:#000000;stroke-width:0.500;fill:#e6e6e6;fill-rule:evenodd" d="M-2000.00,-2000.00L2210.00,-2000.00L2210.00,2150.00L-2000.00,2150.00zM0.00,0.00L210.00,0.00L210.00,150.00L0.00,150.00z"/><path style="fill:#000000;fill-opacity:0.118" d="M3.00,150.00L210.00,150.00L210.00,3.00L213.00,3.00L213.00,153.00L3.00,153.00z"/></g><g id="hotspot.0" onmouseover="ShowHotSpot(evt,'0')" onmouseout="HideHotSpot(evt,'0')" onmousemove="ShowToolTip(evt,'0',&quot;CH8549_ING&quot;)" opacity="0"><path style="fill:#00ff00;fill-rule:evenodd" d="M198.85,37.04L198.84,42.20L198.55,42.70L172.12,42.63L172.12,36.88L198.59,36.77zM133.61,38.36L134.38,39.16L134.37,40.86L134.09,41.64L132.81,43.26L112.44,53.53L30.99,93.89L30.29,93.89L27.91,92.54L27.63,91.05L28.35,89.10L29.48,87.86L105.57,50.10L131.38,37.32L131.72,37.31zM132.27,39.77L131.24,41.69L30.03,92.13L30.01,91.03L31.10,89.48L35.57,87.08L118.25,46.14L132.29,39.20z"/></g><g id="hotspot.1" onmouseover="ShowHotSpot(evt,'1')" onmouseout="HideHotSpot(evt,'1')" onmousemove="ShowToolTip(evt,'1',&quot;F24002013.08&quot;)" opacity="0"><path style="fill:#00ff00;fill-rule:evenodd" d="M198.85,47.08L198.84,52.23L198.55,52.74L172.12,52.67L172.12,46.92L198.59,46.81zM140.75,67.42L140.62,68.26L139.91,68.26L139.91,67.25L140.45,67.13zM143.17,68.92L142.79,69.67L142.21,69.67L142.19,68.76L143.10,68.76zM140.45,70.72L139.55,70.71L139.59,70.16L139.85,69.80L140.43,69.80zM141.89,71.39L142.18,71.10L142.82,71.13L142.72,72.24L142.22,72.30zM71.97,101.33L72.22,100.98L72.81,100.97L72.82,101.90L72.01,101.79zM74.38,102.40L75.20,102.29L75.20,103.22L74.38,103.11zM72.86,103.90L72.75,104.43L71.94,104.54L72.04,103.42L72.53,103.36zM75.28,105.11L74.90,105.86L74.32,105.86L74.30,104.94L75.21,104.95z"/></g><g id="hotspot.2" onmouseover="ShowHotSpot(evt,'2')" onmouseout="HideHotSpot(evt,'2')" onmousemove="ShowToolTip(evt,'2',&quot;F24002021.01&quot;)" opacity="0"><path style="fill:#00ff00;fill-rule:evenodd" d="M198.85,57.11L198.84,62.27L198.55,62.78L172.12,62.71L172.12,56.95L198.59,56.85zM158.67,69.04L158.59,70.11L157.63,70.08L154.17,67.97L154.16,66.99L154.97,66.89zM153.16,73.78L153.04,74.59L152.05,74.60L148.63,72.73L148.63,71.47L149.15,71.38z"/></g><g id="hotspot.3" onmouseover="ShowHotSpot(evt,'3')" onmouseout="HideHotSpot(evt,'3')" onmousemove="ShowToolTip(evt,'3',&quot;F24201449.01&quot;)" opacity="0"><path style="fill:#00ff00;fill-rule:evenodd" d="M198.85,67.15L198.84,72.31L198.55,72.81L172.12,72.74L172.12,66.99L198.59,66.89zM134.15,89.10L134.15,89.47L133.50,89.92L132.96,91.48L131.90,91.59L132.02,89.63L131.37,88.89L131.35,88.34L132.25,88.03zM64.14,123.70L64.14,124.34L63.49,124.77L63.34,125.94L63.06,126.20L62.25,126.38L62.00,123.97L61.74,123.68L61.63,122.93L62.28,122.66z"/></g><g id="hotspot.4" onmouseover="ShowHotSpot(evt,'4')" onmouseout="HideHotSpot(evt,'4')" onmousemove="ShowToolTip(evt,'4',&quot;F24204076&quot;)" opacity="0"><path style="fill:#00ff00;fill-rule:evenodd" d="M146.78,75.57L146.51,78.36L62.17,120.30L61.37,120.39L61.20,119.22L60.67,118.92L59.27,119.07L59.35,117.46L59.52,116.32L144.07,74.27L144.40,74.29L144.67,76.28L146.58,75.37zM198.85,77.19L198.84,82.35L198.55,82.85L172.12,82.78L172.12,77.03L198.59,76.92z"/></g><g id="hotspot.5" onmouseover="ShowHotSpot(evt,'5')" onmouseout="HideHotSpot(evt,'5')" onmousemove="ShowToolTip(evt,'5',&quot;F24204077&quot;)" opacity="0"><path style="fill:#00ff00;fill-rule:evenodd" d="M198.85,87.23L198.84,92.38L198.55,92.89L172.12,92.82L172.12,87.07L198.59,86.96zM133.06,95.14L133.22,96.88L135.18,96.19L135.46,96.48L135.19,98.74L61.65,135.35L60.38,135.35L58.80,134.27L59.05,131.69L60.32,130.84L128.29,97.12L132.83,94.90z"/></g><g id="hotspot.6" onmouseover="ShowHotSpot(evt,'6')" onmouseout="HideHotSpot(evt,'6')" onmousemove="ShowToolTip(evt,'6',&quot;F24204078&quot;)" opacity="0"><path style="fill:#00ff00;fill-rule:evenodd" d="M145.48,55.01L147.30,55.83L147.31,59.87L57.15,104.71L56.20,104.69L54.31,103.62L54.59,99.23L144.59,54.47L145.17,54.50zM198.85,97.26L198.84,102.42L198.55,102.93L172.12,102.86L172.12,97.11L198.59,97.00z"/></g><g id="hotspot.7" onmouseover="ShowHotSpot(evt,'7')" onmouseout="HideHotSpot(evt,'7')" onmousemove="ShowToolTip(evt,'7',&quot;F24204079&quot;)" opacity="0"><path style="fill:#00ff00;fill-rule:evenodd" d="M154.76,42.62L154.72,42.95L70.17,84.97L57.65,91.21L56.72,91.21L55.54,90.50L55.62,90.01L73.08,81.27L152.50,41.80L153.39,41.80zM198.85,107.04L198.84,112.20L198.55,112.70L172.12,112.63L172.12,106.88L198.59,106.77z"/></g></g></svg>
