<?xml version="1.0" encoding="UTF-8" standalone="no"?>
<svg xmlns="http://www.w3.org/2000/svg" xmlns:xlink="http://www.w3.org/1999/xlink" width="210.000mm" height="150.000mm" viewBox="0.000000 0.000000 210.000000 150.000000" stroke-linejoin="round" stroke-linecap="round" fill="none" fill-rule="evenodd"><desc>Composer Export</desc><script type="text/ecmascript"><![CDATA[
if(typeof(top) != "undefined")
{
	top.ShowPaper = ShowPaper;
}
function ShowHotSpot(evt,hotspotid)
{
	var svgDocument = evt.target.ownerDocument;
	var strId = "hotspot."+hotspotid;
	var hotspot = svgDocument.getElementById(strId);
	if(hotspot)
		hotspot.setAttribute("opacity",".5");
}
function HideHotSpot(evt,hotspotid)
{
	var svgDocument = evt.target.ownerDocument;
	var strId = "hotspot."+hotspotid;
	var hotspot = svgDocument.getElementById(strId);
	if(hotspot)
		hotspot.setAttribute("opacity","0");

	var toolTip = svgDocument.getElementById('ToolTip');
	if(toolTip)
		toolTip.setAttribute("visibility","hidden");
}
function ShowToolTip(evt,hotspotid,strTooltip)
{
	if(strTooltip=="")
	return;

	// change text
	var svgDocument = evt.target.ownerDocument;
	var tiptext = svgDocument.getElementById('ToolTipText');
	if( !tiptext )
	return;
	tiptext.firstChild.nodeValue = " " + strTooltip + "  " ;

	// show tooltip before, else some refresh issue

	var toolTip = svgDocument.getElementById('ToolTip');
	if(!toolTip)
	return;

	toolTip.setAttribute("visibility","visible");
	toolTip.setAttribute("opacity",".95");

	// move tooltip
	// get viewbox

	var root = svgDocument.documentElement;
	var vbox = (root.getAttribute("viewBox")).split(' ');
	var x0 = parseFloat(vbox[0]);
	var y0 = parseFloat(vbox[1]);
	var vboxW = parseFloat(vbox[2]);
	var vboxH = parseFloat(vbox[3]);

	// get default width of svg

	var strW = root.getAttribute("width");
	var svgW = parseFloat(strW);
	if(strW.indexOf('mm') != -1)
	svgW *= 3.779;

	var strH = root.getAttribute("height");
	var svgH = parseFloat(strH);
	if(strH.indexOf('mm') != -1)
	svgH *= 3.779;  	// 96 dpi  -> 96/25.4 = 3.779

	// update the viewbox / width / height if svg is embedded in html with zoom fit all
	var realx0 = x0;
	var realy0 = y0;
	var realvboxW = vboxW;
	var realvboxH = vboxH;
	var realsvgW = svgW;
	var realsvgH = svgH;

	if ((typeof(top) == "undefined") || (typeof(top.svgctl1) != "undefined")) // embedded in html
	{
		// get window size in pxl

		svgW = window.innerWidth;
		svgH = window.innerHeight;

		// calculate real viewbox

		realsvgW = svgW;
		realsvgH = svgH;
		if((svgW / svgH) > (vboxW / vboxH))
		{
			realvboxW = (vboxH * svgW) / svgH;
			realvboxH = vboxH;
			realx0 = x0 - (realvboxW - vboxW)/2 ;
		}
		else
		{
			realvboxH = (vboxW * svgH) / svgW;
			realvboxW = vboxW;
			realy0 = y0 - (realvboxH - vboxH)/2 ;
		}
	}

	// get user zoom/pan

	var newScale = root.currentScale;
	var translation = root.currentTranslate;

	// transform pxl to user unit

	var xPos = (((evt.clientX+10- translation.x)/newScale) * realvboxW)/realsvgW  + realx0 ;
	var yPos = (((evt.clientY+5- translation.y)/newScale) * realvboxH)/ realsvgH  + realy0 ;
	var scaleForWidth = ( (1 / newScale) * realvboxH) / realsvgH;

	// move tooltip

	toolTip.setAttribute("transform", "translate(" + xPos + "," + yPos + ")" );

	// resize tooltip

	var fontsize = 12;
	tiptext.setAttribute("font-size",fontsize*scaleForWidth);
	tiptext.setAttribute("y", fontsize*scaleForWidth);
	var tipBG = svgDocument.getElementById('ToolTipBG');
	var outline = tiptext.getBBox();
	if(tipBG)
	{
		tipBG.setAttribute("stroke-width", 1*scaleForWidth);
		tipBG.setAttribute("width", Number(outline.width) );
		tipBG.setAttribute("height", Number(outline.height) + fontsize*.5*scaleForWidth );
	}
	var ToolTipShadow = svgDocument.getElementById('ToolTipShadow');
	if(ToolTipShadow)
	{
		ToolTipShadow.setAttribute("width", Number(outline.width) );
		ToolTipShadow.setAttribute("height", Number(outline.height) + fontsize*.5*scaleForWidth );
		ToolTipShadow.setAttribute("x", 3*scaleForWidth);
		ToolTipShadow.setAttribute("y", 3*scaleForWidth);
	}
}
function ShowPaper()
{
  var svgDocument = getDocument();
  var paper = svgDocument.getElementById("paperID");
  if(paper)
  {
    paper.setAttribute("transform","scale(1)");
    paper.setAttribute("opacity","1");
    paper.setAttribute("visibility","visible");
  }
  var svg = svgDocument.getRootElement();
  if(svg)
  {
    svg.setAttribute("width","220.000mm");
    svg.setAttribute("height","160.000mm");
    svg.setAttribute("viewBox","-5.000000 -5.000000 220.000000 160.000000");
  }
}
]]></script><defs/><g><path style="fill:#ffffff" d="M209.93,149.95L0.04,149.95L0.04,0.04L209.93,0.04z"/><path style="fill:#2e28d4" d="M111.65,70.80L115.60,73.08L115.59,73.35L115.35,73.54L115.04,73.57L68.80,92.26L64.83,94.25L61.79,96.53L60.70,97.47L58.04,100.26L55.06,104.25L52.66,108.45L50.80,112.92L49.49,117.70L49.15,121.17L49.15,123.66L49.40,126.33L50.41,129.37L51.94,131.52L53.08,131.78L54.86,131.69L56.76,131.44L60.25,130.11L63.68,127.96L66.91,125.23L69.52,122.26L92.64,92.15L92.71,91.92L93.40,91.12L96.39,87.26L97.67,85.88L98.94,84.99L100.34,84.36L102.45,83.72L129.20,76.29L131.81,77.77L131.94,78.02L132.19,78.28L133.52,79.01L106.76,86.50L105.84,86.40L104.13,86.89L102.40,88.07L101.60,88.80L100.77,89.74L100.08,90.70L94.71,97.87L94.62,97.91L74.46,124.29L72.75,126.25L71.99,127.14L69.82,129.15L68.12,130.63L64.44,132.91L60.91,134.19L58.49,134.44L57.01,134.44L54.47,133.81L49.53,130.89L47.77,129.61L45.99,127.20L44.96,124.18L44.71,122.14L44.59,120.75L44.59,119.27L44.96,115.46L46.10,110.89L48.15,105.97L50.68,101.53L53.73,97.47L56.72,94.37L60.39,91.58L64.37,89.60L111.42,70.61z"/><path style="fill:#ffffff" d="M126.18,69.74L125.99,71.21L125.99,72.57L126.23,73.97L127.01,75.22L128.26,76.00L128.91,76.11L129.20,76.29L102.45,83.72L101.90,83.46L100.38,83.23L98.68,83.72L96.91,84.87L95.06,86.82L93.67,89.10L92.85,91.21L92.71,91.92L92.64,92.15L69.52,122.26L66.91,125.23L63.68,127.96L60.25,130.11L56.76,131.44L54.86,131.69L53.08,131.78L51.94,131.52L50.41,129.37L49.40,126.33L49.15,123.66L49.15,121.17L49.49,117.70L50.80,112.92L52.66,108.45L55.06,104.25L58.04,100.26L60.70,97.47L61.79,96.53L64.83,94.25L68.80,92.26L115.04,73.57L115.35,73.54L115.84,73.85L116.18,73.85L116.86,73.50L117.18,72.94L117.61,73.22L117.99,73.11L118.53,72.88L118.85,72.31L119.01,72.29L119.26,72.45L119.73,72.45L120.36,72.06L120.60,71.54L121.05,71.81L121.25,71.82L122.01,71.42L122.27,70.91L122.43,70.90L122.69,71.06L123.16,71.05L123.70,70.82L124.09,70.15L124.48,70.41L124.97,70.32L125.47,70.06L125.80,69.52z"/><path style="fill:#2ac7ce" d="M140.23,64.39L140.70,64.58L141.85,65.57L142.47,67.24L142.47,71.47L142.09,72.86L141.29,74.47L140.15,75.99L138.99,76.99L138.12,77.51L137.11,78.15L135.46,78.91L133.52,79.01L132.19,78.28L131.94,78.02L131.81,77.77L129.20,76.29L128.91,76.11L128.26,76.00L127.01,75.22L126.23,73.97L125.99,72.57L125.99,71.21L126.18,69.74L127.12,69.43L127.46,68.87L127.76,68.88L127.90,69.01L128.10,69.03L128.90,68.67L129.22,68.12L129.53,68.26L130.01,68.27L130.68,67.92L130.88,67.47L131.18,67.48L131.33,67.62L131.65,67.63L132.34,67.29L132.72,66.67L132.90,66.42L137.48,64.58L139.16,64.19z"/><path style="fill:#1f4baa" d="M132.71,66.09L132.90,66.42L132.72,66.67L132.34,67.29L131.65,67.63L131.33,67.62L131.18,67.48L130.88,67.47L130.68,67.92L130.01,68.27L129.53,68.26L129.22,68.12L128.90,68.67L128.10,69.03L127.90,69.01L127.76,68.88L127.46,68.87L127.12,69.43L126.18,69.74L125.80,69.52L125.47,70.06L124.97,70.32L124.48,70.41L124.09,70.15L123.70,70.82L123.16,71.05L122.69,71.06L122.43,70.90L122.27,70.91L122.01,71.42L121.25,71.82L121.05,71.81L120.60,71.54L120.36,72.06L119.73,72.45L119.26,72.45L119.01,72.29L118.85,72.31L118.53,72.88L117.99,73.11L117.61,73.22L117.18,72.94L116.86,73.50L116.18,73.85L115.84,73.85L115.35,73.54L115.59,73.35L115.60,73.08L111.65,70.80L111.42,70.61L128.57,63.68z"/><path style="fill:#8aa7bf" d="M58.41,64.85L59.55,64.83L62.46,66.48L63.36,67.11L63.73,68.38L69.31,71.55L69.83,72.18L69.82,73.24L69.69,73.62L69.01,74.71L68.26,75.23L67.29,75.22L61.59,71.93L60.91,72.19L60.17,72.19L56.39,70.02L55.99,69.15L53.59,67.75L53.48,66.56L53.60,65.01L54.55,63.78L55.45,63.43L55.87,63.43z"/><path style="fill:#d1ce96" d="M69.82,18.81L71.60,19.81L71.86,20.19L72.88,21.20L73.75,23.50L73.88,26.17L73.25,29.63L71.97,32.79L70.40,35.40L68.89,37.19L67.93,38.26L65.78,40.04L63.19,41.25L60.69,41.52L58.40,40.62L57.15,39.85L55.75,38.45L54.98,36.19L54.86,35.04L54.86,32.89L53.85,32.24L53.08,31.24L52.70,29.84L52.70,28.86L52.82,27.34L53.59,25.06L54.74,23.04L56.14,21.40L57.77,20.11L59.38,19.44L60.95,19.43L62.09,20.09L62.41,20.08L63.31,19.44L65.46,18.42L68.05,18.17z"/><path style="fill:#4c4c4c" d="M101.90,83.46L102.45,83.72L100.34,84.36L98.94,84.99L97.67,85.88L96.39,87.26L93.40,91.12L92.71,91.92L92.85,91.21L93.67,89.10L95.06,86.82L96.91,84.87L98.68,83.72L100.38,83.23z"/><path style="fill:#4c4c4c" d="M106.76,86.50L107.48,86.63L108.11,87.02L109.14,87.89L109.89,89.68L109.88,92.01L109.38,94.03L108.45,96.15L106.92,98.42L105.02,100.20L103.37,101.09L102.62,101.35L101.14,101.49L99.24,100.58L98.09,99.06L96.70,98.30L95.55,98.31L94.71,97.87L100.08,90.70L100.77,89.74L101.60,88.80L102.40,88.07L104.13,86.89L105.84,86.40z"/><path style="fill:#9daff7" d="M78.95,74.59L79.58,75.36L79.84,76.50L79.71,77.55L79.29,78.78L78.56,80.08L77.82,80.99L76.66,81.86L75.99,82.08L74.88,82.08L73.38,81.30L72.49,80.54L72.22,79.93L72.22,78.06L72.57,76.88L73.25,75.66L74.09,74.59L75.10,73.83L76.12,73.45L76.80,73.45z"/><path style="fill:#9daff7" d="M118.14,97.27L118.51,97.80L118.76,98.69L118.64,100.38L118.34,101.10L117.74,102.27L116.87,103.43L115.79,104.25L114.79,104.65L114.19,104.64L113.57,104.51L111.92,103.49L111.41,102.99L111.15,102.37L111.15,100.75L111.49,99.58L112.11,98.29L113.14,97.04L114.03,96.40L114.78,96.02L115.98,96.02z"/><path style="fill:#889da5" d="M116.73,52.28L119.41,53.91L120.03,55.07L120.28,56.34L120.15,58.15L119.77,59.42L118.84,61.41L118.09,62.55L116.80,63.93L115.41,64.94L114.03,65.47L113.05,65.47L112.05,65.20L109.64,63.68L109.12,62.94L108.86,62.18L108.87,59.55L109.25,58.02L109.88,56.63L110.91,54.99L112.12,53.68L113.14,52.91L114.40,52.28L114.91,52.15L116.22,52.15z"/><path style="fill:#2e28d4" d="M135.91,61.86L140.23,64.39L139.16,64.19L137.48,64.58L132.90,66.42L132.71,66.09L128.57,63.68L130.62,62.79L130.97,62.61L131.40,62.56L132.91,61.91L134.19,61.66L134.99,61.66z"/><path style="fill:#01ff02" d="M54.55,63.78L53.60,65.01L53.48,66.56L51.31,65.21L51.30,64.11L51.95,63.10L52.53,62.79L52.83,62.79z"/><path style="fill:#01ff02" d="M140.70,70.66L140.65,71.18L140.19,71.17L139.92,70.80L139.93,70.18L140.19,70.14z"/><path style="fill:#01ff02" d="M138.31,75.86L138.31,76.03L137.91,76.29L137.65,75.86L137.47,75.76L137.47,75.61L137.91,75.60z"/><path style="fill:#6a7691" d="M79.21,34.14L106.33,49.88L106.46,50.12L106.71,50.89L106.71,52.07L106.59,52.71L105.79,54.31L105.08,55.12L104.14,55.83L103.38,56.09L102.65,56.09L102.16,55.95L75.28,40.35L75.02,39.97L74.89,39.48L74.88,37.73L75.61,36.05L76.67,34.83L77.51,34.28L78.28,34.01z"/><path style="fill:#2ac7ce" d="M135.37,61.53L135.91,61.86L134.99,61.66L134.19,61.66L132.91,61.91L131.40,62.56L130.97,62.61L132.16,61.79L134.09,61.28z"/><path style="fill:#ffffff" d="M115.97,57.52L115.68,58.37L115.04,59.64L114.40,60.38L113.43,61.19L113.01,61.33L113.05,60.05L113.43,58.92L114.08,57.79L114.97,56.77L115.98,56.21z"/><path style="fill:#ffffff" d="M76.42,77.29L75.99,78.15L75.53,78.71L75.52,78.18L76.04,77.31L76.26,76.99L76.41,76.99z"/><path style="fill:#ffffff" d="M115.49,99.51L115.08,100.50L114.45,101.27L114.44,100.88L114.90,99.94L115.30,99.42z"/><path style="stroke:#000000;stroke-width:0.088" d="M132.90,66.21L128.55,63.70L111.35,70.63L115.70,73.14L132.90,66.21L132.86,66.55L132.81,66.57L132.78,66.66L132.75,66.67L132.69,66.71L132.63,66.76L132.58,66.82L132.54,66.90L132.35,67.34L131.49,67.69L130.98,67.39"/><path style="stroke:#000000;stroke-width:0.088" d="M115.78,73.52L115.91,73.60L116.01,73.93L115.28,73.51"/><path style="stroke:#000000;stroke-width:0.088" d="M115.49,73.42L115.71,73.54L115.74,73.53L115.80,73.52L115.85,73.53L115.89,73.55L115.91,73.60"/><path style="stroke:#000000;stroke-width:0.088" d="M115.71,73.54L115.70,73.47L115.66,73.48L115.53,73.41"/><path style="stroke:#000000;stroke-width:0.088" d="M116.01,73.93L116.87,73.58L117.06,73.14L117.10,73.07L117.15,73.00L117.21,72.95L117.27,72.92L117.30,72.90L117.33,72.81L117.42,72.77L117.43,72.85L117.46,72.84L117.52,72.82L117.57,72.83L117.61,72.86L117.63,72.91L117.50,72.83"/><path style="stroke:#000000;stroke-width:0.088" d="M115.66,73.48L115.70,73.14"/><path style="stroke:#000000;stroke-width:0.088" d="M117.63,72.91L117.73,73.24L117.22,72.94"/><path style="stroke:#000000;stroke-width:0.088" d="M117.43,72.85L117.34,72.80"/><path style="stroke:#000000;stroke-width:0.088" d="M117.73,73.24L118.59,72.89L118.78,72.45L118.82,72.37L118.87,72.31L118.93,72.26L118.99,72.22L119.02,72.21L119.05,72.11L119.14,72.08L119.15,72.16L119.18,72.14L119.24,72.13L119.29,72.14L119.33,72.17L119.35,72.22L119.22,72.14"/><path style="stroke:#000000;stroke-width:0.088" d="M118.94,72.25L119.45,72.54L119.35,72.22"/><path style="stroke:#000000;stroke-width:0.088" d="M119.15,72.16L119.06,72.11"/><path style="stroke:#000000;stroke-width:0.088" d="M119.45,72.54L120.31,72.20L120.50,71.75L120.54,71.68L120.59,71.61L120.65,71.56L120.71,71.53L120.74,71.51L120.77,71.42L120.86,71.39L120.87,71.46L120.78,71.42"/><path style="stroke:#000000;stroke-width:0.088" d="M120.66,71.56L121.17,71.85L121.07,71.52L120.94,71.44"/><path style="stroke:#000000;stroke-width:0.088" d="M121.07,71.52L121.05,71.47L121.01,71.44L120.96,71.44L120.90,71.45L120.87,71.46"/><path style="stroke:#000000;stroke-width:0.088" d="M121.17,71.85L122.03,71.50L122.22,71.06L122.26,70.98L122.31,70.92L122.37,70.87L122.43,70.83L122.46,70.82L122.49,70.73L122.58,70.69L122.59,70.77L122.50,70.72"/><path style="stroke:#000000;stroke-width:0.088" d="M122.65,70.75L122.79,70.83L122.89,71.16L122.38,70.86"/><path style="stroke:#000000;stroke-width:0.088" d="M122.59,70.77L122.62,70.76L122.68,70.74L122.73,70.75L122.77,70.78L122.79,70.83"/><path style="stroke:#000000;stroke-width:0.088" d="M122.89,71.16L123.75,70.81L123.94,70.36L123.98,70.29L124.03,70.23L124.09,70.17L124.15,70.14L124.18,70.13L124.21,70.03L124.30,70.00L124.31,70.08L124.22,70.03"/><path style="stroke:#000000;stroke-width:0.088" d="M124.10,70.17L124.61,70.46L124.51,70.13L124.49,70.09L124.45,70.06L124.40,70.05L124.34,70.06L124.31,70.08"/><path style="stroke:#000000;stroke-width:0.088" d="M124.37,70.06L124.51,70.13"/><path style="stroke:#000000;stroke-width:0.088" d="M124.61,70.46L125.47,70.12L125.66,69.67L125.70,69.60L125.75,69.53L125.81,69.48L125.87,69.45L125.90,69.43L125.93,69.34L126.02,69.31L126.03,69.38L126.06,69.37L126.12,69.36L126.17,69.36L126.21,69.39L126.23,69.44L126.09,69.36"/><path style="stroke:#000000;stroke-width:0.088" d="M125.82,69.47L126.33,69.77L126.23,69.44"/><path style="stroke:#000000;stroke-width:0.088" d="M125.94,69.34L126.03,69.38"/><path style="stroke:#000000;stroke-width:0.088" d="M126.33,69.77L127.19,69.42L127.38,68.98L127.42,68.90L127.47,68.84L127.53,68.79L127.59,68.75L127.62,68.74L127.65,68.65L127.74,68.61L127.75,68.69L127.66,68.64"/><path style="stroke:#000000;stroke-width:0.088" d="M127.54,68.78L128.05,69.08L127.95,68.75L127.81,68.67"/><path style="stroke:#000000;stroke-width:0.088" d="M127.95,68.75L127.93,68.70L127.89,68.67L127.84,68.66L127.78,68.68L127.75,68.69"/><path style="stroke:#000000;stroke-width:0.088" d="M128.05,69.08L128.91,68.73L129.10,68.28L129.14,68.21L129.19,68.15L129.25,68.09L129.31,68.06L129.34,68.05L129.37,67.95L129.46,67.92L129.47,68.00L129.38,67.95"/><path style="stroke:#000000;stroke-width:0.088" d="M129.47,68.00L129.50,67.98L129.56,67.97L129.61,67.98L129.65,68.01L129.67,68.05L129.77,68.38L129.26,68.09"/><path style="stroke:#000000;stroke-width:0.088" d="M129.77,68.38L130.63,68.03L130.82,67.59L130.86,67.52L130.91,67.45L130.97,67.40L131.03,67.37L131.06,67.35L131.09,67.26L131.18,67.22L131.19,67.30L131.10,67.25"/><path style="stroke:#000000;stroke-width:0.088" d="M129.67,68.05L129.53,67.97"/><path style="stroke:#000000;stroke-width:0.088" d="M131.19,67.30L131.22,67.29L131.28,67.27L131.33,67.28L131.37,67.31L131.39,67.36L131.25,67.28"/><path style="stroke:#000000;stroke-width:0.088" d="M131.49,67.69L131.39,67.36"/><path style="stroke:#000000;stroke-width:0.088" d="M115.79,95.94L115.77,95.94L115.75,95.94L114.84,96.00L113.83,96.49L112.87,97.33L112.03,98.44L111.42,99.70L111.10,100.97L111.10,102.14L111.43,103.04L111.44,103.06L111.46,103.08L111.45,103.07L111.12,102.16L111.12,101.01L111.45,99.72L112.06,98.46L112.72,97.58L112.90,97.34L113.87,96.49L114.87,96.01L115.79,95.94L116.53,96.30L118.16,97.24L117.42,96.89L116.50,96.95L115.51,97.44L115.50,97.44L114.54,98.28L113.70,99.40L113.08,100.67L112.84,101.61L112.76,101.95L112.76,103.11L113.09,104.01L113.70,104.57L113.72,104.57L114.56,104.72L114.58,104.72L115.54,104.44L115.56,104.43L116.55,103.77L117.46,102.78L118.17,101.61L118.19,101.58L118.66,100.29L118.83,99.07L118.83,99.05L118.66,98.01L118.65,97.99L118.17,97.25L118.16,97.24"/><path style="stroke:#000000;stroke-width:0.088" d="M112.07,103.62L111.63,103.23L112.07,103.62L113.70,104.57"/><path style="stroke:#000000;stroke-width:0.088" d="M111.63,103.23L111.46,103.08"/><path style="stroke:#000000;stroke-width:0.088" d="M112.91,103.23L113.18,103.99L113.79,104.53L114.62,104.68L115.57,104.40L116.55,103.74L117.45,102.76L118.18,101.57L118.64,100.30L118.79,99.19L118.81,99.09L118.64,98.06L118.17,97.33L117.45,96.98L116.54,97.05L115.56,97.52L114.61,98.35L113.78,99.45L113.18,100.70L112.86,101.96L112.86,103.10L112.91,103.23"/><path style="stroke:#000000;stroke-width:0.088" d="M113.88,104.08L113.62,103.93L113.23,103.28L113.10,102.39L113.23,101.34L113.62,100.25L114.22,99.21L114.98,98.33L115.81,97.69L116.65,97.36L117.12,97.36L117.41,97.37L118.01,97.71L118.39,98.36L118.53,99.25L118.43,100.00L118.39,100.30L118.01,101.39L117.41,102.43L116.65,103.32L115.81,103.95L114.98,104.28L114.22,104.28L113.88,104.08"/><path style="stroke:#000000;stroke-width:0.088" d="M114.20,102.55L114.38,102.85L114.77,103.08L115.27,103.09L115.81,102.87L116.36,102.45L116.86,101.88L117.25,101.20L117.50,100.48L117.59,99.80L117.50,99.21L117.25,98.79L116.86,98.56L116.36,98.56L116.31,98.58L115.81,98.77L115.27,99.19L114.77,99.77L114.38,100.45L114.13,101.16L114.04,101.84L114.13,102.43L114.20,102.55"/><path style="stroke:#000000;stroke-width:0.088" d="M114.47,102.44L114.78,102.72L115.20,102.79L115.69,102.65L116.19,102.31L116.65,101.81L117.02,101.20L117.26,100.55L117.34,99.94L117.26,99.41L117.02,99.04L116.65,98.86L116.19,98.89L115.68,99.13L115.20,99.56L114.77,100.12L114.47,100.76L114.30,101.41L114.30,101.99L114.47,102.44"/><path style="stroke:#000000;stroke-width:0.088" d="M114.78,102.64L114.48,102.37"/><path style="stroke:#000000;stroke-width:0.088" d="M114.48,102.38L114.32,101.94"/><path style="stroke:#000000;stroke-width:0.088" d="M115.68,99.16L115.20,99.58L114.79,100.13L114.48,100.76L114.32,101.39L114.33,101.96L114.32,101.96"/><path style="stroke:#000000;stroke-width:0.088" d="M115.57,99.26L115.53,99.59L115.30,100.22L114.94,100.80L114.49,101.29L114.32,101.40"/><path style="stroke:#000000;stroke-width:0.088" d="M115.54,99.28L115.50,99.56L115.27,100.20L114.91,100.79L114.46,101.28L114.33,101.37"/><path style="stroke:#000000;stroke-width:0.088" d="M116.58,98.90L116.93,99.07L117.16,99.43L117.24,99.93L117.16,100.53L116.93,101.16L116.57,101.75L116.13,102.23L115.64,102.56L115.50,102.60L115.17,102.70L114.76,102.63"/><path style="stroke:#000000;stroke-width:0.088" d="M116.60,98.90L116.15,98.93L115.67,99.16"/><path style="stroke:#000000;stroke-width:0.088" d="M72.47,80.56L72.56,80.64L72.45,80.55L72.45,80.53L72.12,79.63L72.12,78.47L72.44,77.19L73.05,75.93L73.88,74.82L74.85,73.98L75.85,73.50L76.77,73.43L76.79,73.43L76.80,73.44L75.89,73.50L74.89,73.98L73.92,74.83L73.08,75.95L72.46,77.22L72.14,78.50L72.14,79.66L72.47,80.56"/><path style="stroke:#000000;stroke-width:0.088" d="M72.56,80.64L73.08,81.12L72.69,80.76"/><path style="stroke:#000000;stroke-width:0.088" d="M73.08,81.12L74.72,82.06L74.10,81.50L74.08,81.45L73.78,80.60L73.77,79.44L74.10,78.16L74.46,77.42L74.71,76.89L75.55,75.77L76.52,74.93L77.52,74.45L78.44,74.38L79.18,74.74L77.54,73.79L76.80,73.44"/><path style="stroke:#000000;stroke-width:0.088" d="M74.19,81.45L74.20,81.48L74.81,82.03L75.63,82.17L76.59,81.90L76.73,81.80L77.57,81.23L78.47,80.26L79.19,79.07L79.66,77.80L79.82,76.61L79.82,76.58L79.66,75.55L79.19,74.83L78.46,74.48L77.56,74.54L76.58,75.02L75.62,75.85L74.80,76.95L74.20,78.19L73.88,79.45L73.88,80.59L74.19,81.45"/><path style="stroke:#000000;stroke-width:0.088" d="M74.23,80.64L74.25,80.77L74.63,81.42L75.24,81.77L75.99,81.78L76.83,81.45L77.67,80.81L78.42,79.93L78.48,79.84L79.03,78.89L79.41,77.79L79.54,76.75L79.41,75.86L79.02,75.20L78.42,74.86L77.67,74.85L76.83,75.18L75.99,75.82L75.23,76.70L74.63,77.74L74.25,78.84L74.12,79.88L74.23,80.64"/><path style="stroke:#000000;stroke-width:0.088" d="M79.18,74.74L79.19,74.75L79.67,75.49L79.68,75.50L79.84,76.54L79.84,76.56L79.68,77.79L79.21,79.07L78.48,80.27L77.57,81.26L76.57,81.93L76.56,81.93L75.59,82.21L75.57,82.21L74.73,82.07L74.72,82.06"/><path style="stroke:#000000;stroke-width:0.088" d="M75.12,79.73L75.06,79.34L75.14,78.65L75.39,77.94L75.79,77.26L76.28,76.68L76.83,76.26L77.38,76.05L77.87,76.05L78.27,76.28L78.52,76.71L78.60,77.29L78.52,77.97L78.27,78.69L77.87,79.37L77.38,79.94L76.83,80.36L76.28,80.58L75.79,80.57L75.39,80.35L75.14,79.92L75.12,79.73"/><path style="stroke:#000000;stroke-width:0.088" d="M75.80,80.21L75.49,79.93L75.32,79.48L75.32,78.90L75.33,78.86L75.48,78.25L75.79,77.62L76.21,77.05L76.70,76.63L76.73,76.61L77.20,76.38L77.66,76.35L78.04,76.53L78.28,76.90L78.36,77.42L78.28,78.05L78.04,78.70L77.67,79.30L77.21,79.81L76.73,80.13L76.71,80.15L76.22,80.29L75.80,80.21"/><path style="stroke:#000000;stroke-width:0.088" d="M77.60,76.39L77.94,76.56L78.17,76.92L78.26,77.43L78.18,78.03L77.95,78.65L77.59,79.24L77.14,79.73L76.66,80.05L76.19,80.19L75.78,80.12"/><path style="stroke:#000000;stroke-width:0.088" d="M75.50,79.86L75.79,80.13"/><path style="stroke:#000000;stroke-width:0.088" d="M75.50,79.88L75.34,79.44"/><path style="stroke:#000000;stroke-width:0.088" d="M76.69,76.66L76.21,77.07L75.80,77.62L75.50,78.25L75.34,78.88L75.34,79.45L75.34,79.45"/><path style="stroke:#000000;stroke-width:0.088" d="M76.59,76.75L76.54,77.08L76.31,77.71L75.95,78.30L75.51,78.78L75.34,78.90"/><path style="stroke:#000000;stroke-width:0.088" d="M76.56,76.77L76.52,77.05L76.29,77.69L75.92,78.29L75.47,78.78L75.34,78.86"/><path style="stroke:#000000;stroke-width:0.088" d="M77.62,76.39L77.17,76.43L76.69,76.66"/><path style="stroke:#000000;stroke-width:0.088" d="M63.79,89.81L68.14,92.32L64.55,94.22L61.02,96.96L57.70,100.44L55.07,104.03L54.74,104.49L52.28,108.92L50.42,113.53L49.27,118.12L48.86,122.47L48.87,122.58L49.22,126.38L50.32,129.68L52.13,132.22L54.56,133.87L50.21,131.36L47.78,129.71L45.97,127.17L44.87,123.87L44.51,119.96L44.92,115.61L46.08,111.02L47.93,106.41L50.39,101.98L53.35,97.93L56.67,94.45L60.20,91.71L63.79,89.81L132.93,61.93L134.68,61.57L136.16,61.98L140.51,64.49"/><path style="stroke:#000000;stroke-width:0.088" d="M137.65,64.57L137.25,64.65L68.11,92.53L64.56,94.40L61.07,97.12L57.78,100.56L54.85,104.57L52.41,108.96L50.58,113.53L49.43,118.07L49.08,121.77L49.03,122.37L49.38,126.25L50.48,129.52L52.27,132.02L52.61,132.26L54.67,133.66L57.57,134.35L60.84,134.06L64.33,132.80L67.87,130.64L71.32,127.66L74.51,124.02L100.50,90.04L96.15,87.53L70.16,121.50L66.97,125.15L63.53,128.12L59.98,130.29L56.49,131.55L53.22,131.84L51.91,131.53"/><path style="stroke:#000000;stroke-width:0.088" d="M54.56,133.87L57.48,134.56L60.79,134.27L64.31,133.00L67.90,130.82L71.38,127.81L74.60,124.13L99.83,91.15"/><path style="stroke:#000000;stroke-width:0.088" d="M132.93,61.93L137.27,64.44L68.14,92.32"/><path style="stroke:#000000;stroke-width:0.088" d="M70.16,121.50L74.51,124.02"/><path style="stroke:#000000;stroke-width:0.088" d="M104.62,86.78L100.38,84.33L98.93,84.97L97.48,86.06L96.15,87.53"/><path style="stroke:#000000;stroke-width:0.088" d="M100.50,90.04L101.83,88.57L101.89,88.53"/><path style="stroke:#000000;stroke-width:0.088" d="M100.38,84.33L129.28,76.32"/><path style="stroke:#000000;stroke-width:0.088" d="M133.36,78.90L106.15,86.45"/><path style="stroke:#000000;stroke-width:0.088" d="M133.61,79.03L106.63,86.51"/><path style="stroke:#000000;stroke-width:0.088" d="M137.27,64.44L139.03,64.08L140.49,64.49"/><path style="stroke:#000000;stroke-width:0.088" d="M102.46,83.75L101.96,83.47L100.35,83.24L98.51,83.81L98.16,84.00L96.63,85.12L94.92,87.03L93.56,89.33L92.69,91.77L92.65,92.11"/><path style="stroke:#000000;stroke-width:0.088" d="M102.34,83.79L100.96,83.59L99.12,84.16L98.77,84.35L97.24,85.47L95.53,87.38L94.17,89.68L93.87,90.52"/><path style="stroke:#000000;stroke-width:0.088" d="M94.67,97.89L95.73,98.36L96.66,98.26"/><path style="stroke:#000000;stroke-width:0.088" d="M95.08,97.36L98.25,99.19L97.90,97.25L98.17,94.93L99.04,92.49L100.40,90.19L102.11,88.28L103.99,86.97L105.83,86.40L107.44,86.63L108.04,86.98L109.24,87.99L109.89,89.66L109.93,91.82L109.35,94.23L108.22,96.63L106.66,98.76L104.84,100.39L102.96,101.35L101.77,101.46L101.21,101.52L99.79,100.89L98.86,99.54L98.80,99.19L98.51,97.60L98.78,95.28L99.64,92.84L101.01,90.54L102.72,88.64L104.25,87.52L104.60,87.32L105.81,86.95L106.44,86.75L108.04,86.98"/><path style="stroke:#000000;stroke-width:0.088" d="M95.14,88.85L95.65,87.95L97.18,86.16L98.88,84.89L100.10,84.45"/><path style="stroke:#000000;stroke-width:0.088" d="M98.25,99.19L99.19,100.54L99.79,100.89"/><path style="stroke:#000000;stroke-width:0.088" d="M101.76,97.58L101.35,96.89L101.20,95.83L101.39,94.58L101.89,93.29L102.64,92.09L103.56,91.11L104.56,90.47L105.53,90.22L106.36,90.39L106.95,90.97L107.26,91.90L107.24,93.07L106.89,94.35L106.26,95.62L105.41,96.72L104.44,97.54L104.25,97.66L103.44,98.00L102.53,98.04L101.81,97.65L101.76,97.58"/><path style="stroke:#000000;stroke-width:0.088" d="M105.31,90.27L105.52,90.89L105.50,92.06L105.15,93.35L104.52,94.61L103.67,95.71L102.70,96.54L102.51,96.65L101.70,96.99L101.42,97.01"/><path style="stroke:#000000;stroke-width:0.088" d="M101.30,96.50L101.32,96.51L102.13,96.34L102.99,95.82L103.80,95.01L104.47,94.00L104.92,92.90L105.11,91.82L105.12,91.63L105.02,90.89L104.77,90.41"/><path style="stroke:#000000;stroke-width:0.088" d="M126.41,69.74L126.08,71.96L126.35,73.96L127.21,75.40L127.04,75.30L126.17,73.86L125.90,71.86L126.22,69.71"/><path style="stroke:#000000;stroke-width:0.088" d="M126.62,69.65L126.54,69.88L126.28,72.12L126.62,73.99L127.52,75.30L131.82,77.78"/><path style="stroke:#000000;stroke-width:0.088" d="M127.21,75.40L128.57,76.13L128.93,76.11"/><path style="stroke:#000000;stroke-width:0.088" d="M130.36,62.96L132.24,61.75L134.06,61.28L135.62,61.61L135.79,61.71L134.23,61.38L132.41,61.85L131.81,62.16L131.09,62.67"/><path style="stroke:#000000;stroke-width:0.088" d="M131.61,77.42L132.08,78.21L132.26,78.31L131.39,76.87L131.12,74.87L131.47,72.52L132.40,70.09L133.82,67.83L135.57,65.99L137.45,64.76L139.27,64.29L140.83,64.62L140.66,64.52L139.10,64.19L137.28,64.66L135.39,65.88L133.65,67.73L132.23,69.99L131.30,72.42L130.95,74.77L131.22,76.77L131.61,77.42"/><path style="stroke:#000000;stroke-width:0.088" d="M132.26,78.31L133.62,79.04L135.33,78.97L136.86,78.32L137.21,78.11L137.69,77.70"/><path style="stroke:#000000;stroke-width:0.088" d="M132.51,62.10L132.15,62.21L132.04,62.29"/><path style="stroke:#000000;stroke-width:0.088" d="M141.37,67.77L139.63,66.77L138.54,66.54L137.27,66.86L135.96,67.72L134.74,69.00L134.01,70.16L133.75,70.58L133.10,72.27L132.86,73.91L133.05,75.30L133.65,76.31L135.39,77.31L136.34,77.82L137.53,77.77L138.60,77.32L138.84,77.17L138.92,77.10L140.13,76.09L141.24,74.64L142.08,72.98L142.40,71.77L142.53,71.29L142.56,69.75L142.16,68.54L141.37,67.77L141.35,67.76L140.28,67.54L139.01,67.87L137.70,68.72L136.48,70.00L135.88,70.97L135.49,71.58L134.84,73.28L134.60,74.91L134.72,75.81L134.79,76.31L135.39,77.31"/><path style="stroke:#000000;stroke-width:0.088" d="M134.13,61.68L133.93,61.66L133.29,61.86"/><path style="stroke:#000000;stroke-width:0.088" d="M136.33,75.50L136.03,74.74L136.02,73.76L136.28,72.66L136.79,71.57L137.31,70.87L137.50,70.60L138.33,69.86L139.19,69.43L139.98,69.35L140.62,69.63L141.05,70.25L141.21,71.13L141.08,72.19L140.69,73.29L140.07,74.34L139.29,75.20L139.29,75.97L137.90,76.78L137.90,76.01L137.60,76.06L136.87,75.96L136.33,75.50"/><path style="stroke:#000000;stroke-width:0.088" d="M137.90,76.01L136.13,74.98"/><path style="stroke:#000000;stroke-width:0.088" d="M139.29,75.97L136.02,74.09"/><path style="stroke:#000000;stroke-width:0.088" d="M139.29,75.20L136.11,73.36"/><path style="stroke:#000000;stroke-width:0.088" d="M135.79,61.71L136.03,61.94"/><path style="stroke:#000000;stroke-width:0.088" d="M137.19,75.59L137.26,75.54L137.48,75.47L137.71,75.45L137.95,75.47L138.17,75.53L138.34,75.63L138.44,75.76L138.47,75.90L138.41,76.04L138.28,76.16L138.25,76.18L138.09,76.25L137.90,76.29"/><path style="stroke:#000000;stroke-width:0.088" d="M138.21,76.19L138.31,76.10L138.35,75.99L138.33,75.87L138.25,75.76L138.17,75.71L138.10,75.67L137.92,75.62L137.72,75.60L137.51,75.62L137.34,75.68"/><path style="stroke:#000000;stroke-width:0.088" d="M138.34,76.01L138.34,75.92"/><path style="stroke:#000000;stroke-width:0.088" d="M140.33,71.24L140.18,71.14L140.06,70.99L139.98,70.84L139.92,70.66L139.89,70.47L139.91,70.31L139.96,70.20L140.05,70.14L140.16,70.15L140.30,70.20L140.39,70.26L140.53,70.39L140.65,70.55L140.74,70.74L140.78,70.92L140.76,71.08L140.69,71.20L140.60,71.26L140.47,71.28L140.33,71.24"/><path style="stroke:#000000;stroke-width:0.088" d="M139.96,70.20L140.03,70.16L139.98,70.19"/><path style="stroke:#000000;stroke-width:0.088" d="M140.00,70.18L140.06,70.14L140.03,70.16"/><path style="stroke:#000000;stroke-width:0.088" d="M140.83,64.62L141.96,65.72L142.54,67.47L142.50,69.58"/><path style="stroke:#000000;stroke-width:0.088" d="M108.75,60.12L108.75,61.65L109.10,62.89L109.13,62.95L109.81,63.84L109.85,63.87L109.17,62.98L108.85,61.86L108.82,61.74L108.82,60.23L109.17,58.58L109.84,56.91L110.79,55.33L111.95,53.97L113.08,53.04L113.22,52.92L114.52,52.27L115.75,52.07L116.82,52.32L118.41,53.33"/><path style="stroke:#000000;stroke-width:0.088" d="M108.75,60.12L109.09,58.49L109.76,56.84L110.69,55.29L111.83,53.95L113.09,52.92L113.13,52.90L114.42,52.26L115.64,52.05L115.70,52.05L116.77,52.30L116.82,52.32"/><path style="stroke:#000000;stroke-width:0.088" d="M109.85,63.87L111.64,64.81"/><path style="stroke:#000000;stroke-width:0.088" d="M110.49,64.21L112.23,65.28L112.76,65.47L113.55,65.51L113.98,65.49L115.25,65.06L115.29,65.04L116.57,64.20L117.78,63.00L118.83,61.54L119.64,59.93L120.15,58.27L120.32,56.71L120.32,56.66L120.14,55.28L119.63,54.21L119.59,54.15L119.24,53.77L118.77,53.46L118.08,53.21L117.71,53.21L116.64,53.32L115.07,54.07L113.54,55.40L112.23,57.16L111.27,59.14"/><path style="stroke:#000000;stroke-width:0.088" d="M111.33,63.71L111.42,64.01L112.07,64.87L112.99,65.33L114.10,65.35L115.33,64.94L115.50,64.83L116.58,64.11L117.77,62.94L118.79,61.52L119.58,59.93L120.08,58.32L120.25,56.79L120.08,55.45L119.58,54.41L118.78,53.74L117.76,53.50L116.58,53.70L115.32,54.32L114.09,55.33L112.98,56.64L112.06,58.16L111.41,59.77L111.08,61.36L111.08,62.81L111.33,63.71"/><path style="stroke:#000000;stroke-width:0.088" d="M112.23,65.28L111.81,65.00L111.26,64.41L111.13,64.10L110.75,62.98L110.76,63.01"/><path style="stroke:#000000;stroke-width:0.088" d="M110.75,62.98L110.75,61.17"/><path style="stroke:#000000;stroke-width:0.088" d="M111.26,59.15L110.75,61.16"/><path style="stroke:#000000;stroke-width:0.088" d="M112.27,64.04L111.75,63.16L111.55,61.81L111.75,60.24L112.33,58.58L113.23,57.01L114.38,55.68L115.64,54.72L116.31,54.46L116.91,54.22L118.05,54.23L118.96,54.75L119.54,55.74L119.74,57.08L119.61,58.06L119.54,58.66L118.96,60.31L118.05,61.88L116.91,63.21L116.31,63.67L115.64,64.18L114.38,64.68L113.23,64.66L112.33,64.14L112.27,64.04"/><path style="stroke:#000000;stroke-width:0.088" d="M113.08,63.32L112.95,63.25L112.48,62.46L112.32,61.37L112.48,60.09L112.95,58.74L113.69,57.47L114.62,56.39L115.64,55.61L116.31,55.35L116.67,55.21L117.59,55.22L118.33,55.64L118.80,56.44L118.96,57.53L118.90,58.06L118.80,58.81L118.33,60.15L117.59,61.42L116.67,62.50L115.64,63.28L114.62,63.69L113.69,63.68L113.08,63.32"/><path style="stroke:#000000;stroke-width:0.088" d="M113.08,62.06L112.90,61.57L112.90,60.51L113.19,59.34L113.75,58.18L114.52,57.15L115.41,56.38L116.32,55.94L117.16,55.88L117.84,56.20L118.27,56.88L118.42,57.84L118.28,58.97L117.84,60.15L117.17,61.25L116.33,62.16L116.31,62.18L115.42,62.78L114.53,63.04L113.76,62.90L113.20,62.39L113.08,62.06"/><path style="stroke:#000000;stroke-width:0.088" d="M116.07,56.14L116.16,56.74L116.02,57.79L115.62,58.90L114.98,59.94L114.20,60.79L113.34,61.37L112.98,61.47"/><path style="stroke:#000000;stroke-width:0.088" d="M113.25,62.20L112.96,61.42"/><path style="stroke:#000000;stroke-width:0.088" d="M112.96,61.47L112.96,60.45L113.25,59.32L113.79,58.20L114.50,57.26L114.53,57.22L115.38,56.47"/><path style="stroke:#000000;stroke-width:0.088" d="M112.97,61.43L113.24,61.35"/><path style="stroke:#000000;stroke-width:0.088" d="M116.94,56.02L117.52,56.31L117.93,56.94L118.08,57.84L117.94,58.90L117.53,60.00L116.90,61.04L116.11,61.89L115.26,62.47L114.42,62.71L113.71,62.59"/><path style="stroke:#000000;stroke-width:0.088" d="M113.23,62.16L113.75,62.62"/><path style="stroke:#000000;stroke-width:0.088" d="M116.09,56.63L115.95,57.70L115.53,58.83L115.51,58.87L114.88,59.90L114.08,60.78L113.23,61.35"/><path style="stroke:#000000;stroke-width:0.088" d="M117.01,56.02L116.21,56.08L115.38,56.48"/><path style="stroke:#000000;stroke-width:0.088" d="M116.10,56.65L116.02,56.17"/><path style="stroke:#000000;stroke-width:0.088" d="M118.44,53.34L118.34,53.29"/><path style="stroke:#000000;stroke-width:0.088" d="M119.68,54.33L119.99,54.94L120.01,55.00"/><path style="stroke:#000000;stroke-width:0.088" d="M119.59,54.15L119.59,54.15"/><path style="stroke:#000000;stroke-width:0.088" d="M51.21,64.70L51.21,64.52L51.26,64.16L51.41,63.79L51.63,63.44L51.90,63.15L52.10,63.01L52.25,62.92L52.02,63.09L51.70,63.42L51.44,63.83L51.27,64.27L51.24,64.52L51.21,64.70L51.26,65.07L51.42,65.33L53.58,66.58"/><path style="stroke:#000000;stroke-width:0.088" d="M52.25,62.92L52.36,62.86L52.69,62.78L52.98,62.84L54.64,63.80"/><path style="stroke:#000000;stroke-width:0.088" d="M56.07,69.16L53.58,67.72L53.58,65.07L56.58,66.80"/><path style="stroke:#000000;stroke-width:0.088" d="M53.58,65.07L54.03,64.38L54.59,63.83L55.17,63.49L55.73,63.40L56.18,63.56L58.50,64.90"/><path style="stroke:#000000;stroke-width:0.088" d="M56.09,69.35L56.11,69.51L56.44,70.05L59.75,71.96L59.42,71.42L59.32,70.66L59.39,70.16L59.45,69.77L59.80,68.85L60.34,67.99L61.00,67.29L61.71,66.83L62.40,66.65L62.99,66.78L59.69,64.87L59.10,64.74L58.41,64.92L57.70,65.38L57.03,66.08L56.50,66.94L56.14,67.86L56.01,68.75L56.09,69.35"/><path style="stroke:#000000;stroke-width:0.088" d="M59.75,71.96L60.26,72.24L60.91,72.21L61.49,71.97L61.58,71.91"/><path style="stroke:#000000;stroke-width:0.088" d="M68.55,71.13L68.14,71.07L67.67,71.21L67.58,71.26L67.18,71.55L66.74,72.04L66.39,72.64L66.17,73.26L66.10,73.86L66.19,74.36L66.43,74.71L60.34,71.20L60.10,70.85L60.01,70.35L60.08,69.75L60.30,69.12L60.64,68.55L60.65,68.53L61.10,68.04L61.58,67.70L62.05,67.55L62.47,67.61L68.55,71.13L68.67,71.23"/><path style="stroke:#000000;stroke-width:0.088" d="M62.99,66.78L63.42,67.19L63.64,67.85L63.63,68.28"/><path style="stroke:#000000;stroke-width:0.088" d="M68.33,71.18L68.25,71.15L67.81,71.23L67.35,71.50L66.91,71.92L66.54,72.46L66.29,73.06L66.17,73.64L66.21,74.16L66.40,74.54L66.46,74.58"/><path style="stroke:#000000;stroke-width:0.088" d="M67.30,75.21L66.62,74.82L66.38,74.47L66.29,73.97L66.36,73.37L66.58,72.75L66.93,72.15L67.37,71.66L67.76,71.39L67.86,71.33L68.33,71.18L68.75,71.24L69.42,71.63L69.01,71.57L68.54,71.72L68.45,71.77L68.05,72.05L67.61,72.55L67.26,73.14L67.04,73.77L66.97,74.36L67.06,74.86L67.30,75.21L67.66,75.37L68.11,75.33L68.60,75.08L69.07,74.66L69.47,74.11L69.76,73.49L69.91,72.87L69.90,72.32L69.73,71.89L69.42,71.63"/><path style="stroke:#000000;stroke-width:0.088" d="M66.43,74.71L66.59,74.78"/><path style="stroke:#000000;stroke-width:0.088" d="M84.83,45.91L84.37,45.33L84.18,44.47L84.17,44.29L84.27,43.44L84.63,42.33L84.81,42.01L85.22,41.27L85.99,40.37L86.84,39.74L87.68,39.44L88.43,39.50L79.03,34.07L78.29,34.02L77.44,34.32L76.59,34.95L76.14,35.48L75.83,35.85L75.24,36.91L74.87,38.01L74.79,39.05L74.98,39.91L75.43,40.49L84.83,45.91L85.04,45.98"/><path style="stroke:#000000;stroke-width:0.088" d="M74.79,39.05L74.78,38.67L74.87,37.87L75.21,36.84L75.76,35.85L76.47,35.01L77.27,34.42L77.44,34.32"/><path style="stroke:#000000;stroke-width:0.088" d="M87.90,39.62L87.54,39.61L86.73,39.94L85.92,40.58L85.21,41.46L84.67,42.48L84.36,43.54L84.31,44.51L84.53,45.30L84.63,45.42"/><path style="stroke:#000000;stroke-width:0.088" d="M84.59,45.22L84.65,45.49L85.10,46.07L93.80,51.09L93.35,50.51L93.15,49.66L93.15,49.47L93.24,48.62L93.60,47.51L94.20,46.45L94.96,45.56L95.81,44.92L96.66,44.62L97.40,44.68L88.71,39.66L87.96,39.60L87.11,39.90L86.64,40.25L86.26,40.54L85.50,41.43L84.91,42.49L84.54,43.60L84.45,44.45L84.46,44.63L84.59,45.22"/><path style="stroke:#000000;stroke-width:0.088" d="M88.64,39.65L88.43,39.50"/><path style="stroke:#000000;stroke-width:0.088" d="M93.62,50.67L93.43,49.82L93.43,49.63L93.52,48.78L93.88,47.67L93.93,47.58L94.48,46.61L95.24,45.72L96.09,45.08L96.93,44.78L97.68,44.84L105.73,49.51L104.97,49.50L104.12,49.85L103.93,50.00L103.28,50.52L102.53,51.44L101.96,52.51L101.63,53.62L101.57,54.33L101.58,54.64L101.81,55.46L102.29,56.00L94.08,51.25L93.62,50.67"/><path style="stroke:#000000;stroke-width:0.088" d="M96.89,44.80L96.61,44.78L95.81,45.06L95.00,45.67L94.27,46.52L93.70,47.53L93.36,48.59L93.27,49.40L93.27,49.58L93.46,50.39L93.60,50.58"/><path style="stroke:#000000;stroke-width:0.088" d="M93.80,51.09L94.01,51.17"/><path style="stroke:#000000;stroke-width:0.088" d="M97.40,44.68L97.61,44.83"/><path style="stroke:#000000;stroke-width:0.088" d="M102.58,55.87L102.14,55.39L101.93,54.62L101.91,54.33L101.98,53.66L102.28,52.63L102.81,51.63L103.51,50.77L104.30,50.15L105.09,49.82L105.80,49.83L106.36,50.18L106.70,50.82L106.78,51.70L106.65,52.42L106.60,52.70L106.17,53.73L105.55,54.68L104.80,55.43L104.00,55.91L103.24,56.07L102.59,55.89L102.58,55.87"/><path style="stroke:#000000;stroke-width:0.088" d="M102.29,56.00L102.98,56.19L103.80,56.02L104.00,55.91"/><path style="stroke:#000000;stroke-width:0.088" d="M105.73,49.51L106.33,49.88L106.69,50.57L106.78,51.51L106.78,51.70"/><path style="stroke:#000000;stroke-width:0.088" d="M54.91,32.90L54.07,32.42L53.10,31.34L52.65,29.69L52.75,27.65L52.82,27.42L53.41,25.44L54.55,23.30L56.04,21.46L57.73,20.11L59.43,19.42L60.95,19.44L62.26,20.20"/><path style="stroke:#000000;stroke-width:0.088" d="M71.57,19.81L69.83,18.81L67.90,18.14L65.61,18.37L63.15,19.50L60.72,21.42L58.51,23.98L57.41,25.81L56.70,26.98L55.44,30.17L54.84,33.29L54.79,34.36L54.94,36.09L55.73,38.34L57.14,39.87L58.88,40.87L60.82,41.54L63.11,41.30L65.57,40.18L68.00,38.26L70.21,35.69L72.02,32.70L73.27,29.51L73.37,29.03L73.88,26.39L73.78,23.59L72.99,21.33L72.69,21.01L71.57,19.81L69.64,19.14L67.35,19.38L67.04,19.52L64.89,20.50L62.45,22.43L60.25,24.99L58.44,27.99L57.18,31.17L56.82,33.06L56.58,34.29L56.53,35.36L56.68,37.10L57.47,39.35L58.88,40.87"/><path style="stroke:#000000;stroke-width:0.088" d="M57.35,35.60L57.20,35.54L57.07,35.38L57.01,35.14L57.01,35.09L57.04,34.84L57.14,34.53L57.31,34.23L57.52,33.98L57.67,33.87L57.77,33.80L58.00,33.71L58.22,33.73L58.38,33.85L58.47,34.05L58.48,34.32L58.42,34.63L58.28,34.94L58.09,35.22L57.86,35.44L57.61,35.58L57.38,35.61L57.35,35.60"/><path style="stroke:#000000;stroke-width:0.088" d="M59.72,36.29L60.06,37.04L61.39,38.01L62.69,38.77L64.44,38.90L66.40,38.20L68.39,36.72L70.17,34.63L70.60,33.87L71.56,32.16L72.40,29.57L72.62,27.58L72.61,27.15L72.16,25.16L71.10,23.81L69.79,23.05L68.24,22.49L66.36,22.78L64.35,23.89L62.44,25.70L60.84,28.01L59.71,30.57L59.17,33.11L59.30,35.35L59.72,36.29"/><path style="stroke:#000000;stroke-width:0.088" d="M71.10,23.81L69.54,23.25L67.66,23.54L67.04,23.88L65.66,24.64L63.75,26.45L62.14,28.76L61.01,31.32L60.65,33.06L60.48,33.86L60.60,36.10L61.37,37.80L62.69,38.77"/><path style="stroke:#000000;stroke-width:0.088" d="M62.19,35.92L61.78,34.41L61.87,32.54L62.48,30.51L63.52,28.55L64.89,26.86L66.44,25.63L67.99,24.99L69.39,25.02L70.48,25.70L71.15,26.97L71.31,28.68L70.95,30.66L70.29,32.26L70.12,32.68L69.92,33.05L68.89,34.53L67.42,36.01L66.23,36.72L65.84,36.96L64.34,37.27L63.08,36.91L62.19,35.92"/><path style="stroke:#000000;stroke-width:0.088" d="M61.99,35.20L62.32,35.29L63.66,35.01L65.06,34.17L66.38,32.85L67.47,31.20L68.21,29.40L68.53,27.64L68.53,27.33L68.38,26.11L67.83,25.06"/><path style="stroke:#000000;stroke-width:0.088" d="M62.21,35.94L63.58,35.65L65.15,34.71L66.63,33.23L67.65,31.74L67.86,31.38L68.69,29.35L69.05,27.38L68.88,25.66L68.54,25.00"/><path style="stroke:#000000;stroke-width:0.088" d="M64.63,38.84L64.52,39.16L64.49,39.40L64.49,39.45L64.55,39.70L64.67,39.86L64.86,39.93L65.09,39.89L65.34,39.76L65.57,39.54L65.76,39.26L65.90,38.95L65.96,38.64L65.95,38.36"/><path style="stroke:#000000;stroke-width:0.088" d="M64.52,21.89L64.49,22.13L64.49,22.18L64.55,22.43L64.67,22.59L64.86,22.66L65.09,22.62L65.33,22.49L65.57,22.27L65.76,21.99L65.90,21.68L65.96,21.37L65.95,21.10L65.86,20.89L65.69,20.77L65.48,20.76L65.24,20.84L65.00,21.02L64.79,21.28L64.62,21.58L64.52,21.89"/><path style="stroke:#000000;stroke-width:0.088" d="M72.26,25.61L72.48,25.34L72.72,25.16L72.96,25.07L73.17,25.09L73.33,25.21L73.43,25.41L73.44,25.69L73.38,25.99L73.24,26.31L73.05,26.59L72.81,26.81L72.57,26.94L72.56,26.94"/><path style="fill:#ffffff" d="M172.53,112.56L198.94,112.56L198.94,106.91L172.53,106.91z"/><path style="stroke:#35414c;stroke-width:0.255" d="M172.53,112.56L198.94,112.56L198.94,106.91L172.53,106.91z"/><path style="stroke:#35404c;stroke-width:0.250;stroke-opacity:0.00" d="M172.53,112.56L198.94,112.56L198.94,106.91L172.53,106.91z"/><text xml:space="preserve" fill="#333f4b" stroke-width="0" x="173.24" y="110.97" font-size="3.52" opacity="1.00" font-family="Arial" font-weight="bold" font-style="italic">F31304110Z</text><path style="fill:#ffffff" d="M172.53,102.77L198.94,102.77L198.94,97.13L172.53,97.13z"/><path style="stroke:#35414c;stroke-width:0.255" d="M172.53,102.77L198.94,102.77L198.94,97.13L172.53,97.13z"/><path style="stroke:#35404c;stroke-width:0.250;stroke-opacity:0.00" d="M172.53,102.77L198.94,102.77L198.94,97.13L172.53,97.13z"/><text xml:space="preserve" fill="#333f4b" stroke-width="0" x="173.24" y="101.18" font-size="3.56" opacity="1.00" font-family="Arial" font-weight="bold" font-style="italic">F31304105X</text><path style="fill:#ffffff" d="M172.53,62.57L198.94,62.57L198.94,56.93L172.53,56.93z"/><path style="stroke:#35414c;stroke-width:0.255" d="M172.53,62.57L198.94,62.57L198.94,56.93L172.53,56.93z"/><path style="stroke:#35404c;stroke-width:0.250;stroke-opacity:0.00" d="M172.53,62.57L198.94,62.57L198.94,56.93L172.53,56.93z"/><text xml:space="preserve" fill="#333f4b" stroke-width="0" x="173.24" y="60.98" font-size="3.42" opacity="1.00" font-family="Arial" font-weight="bold" font-style="italic">CU1301</text><path style="fill:#ffffff" d="M172.53,92.72L198.94,92.72L198.94,87.08L172.53,87.08z"/><path style="stroke:#35414c;stroke-width:0.255" d="M172.53,92.72L198.94,92.72L198.94,87.08L172.53,87.08z"/><path style="stroke:#35404c;stroke-width:0.250;stroke-opacity:0.00" d="M172.53,92.72L198.94,92.72L198.94,87.08L172.53,87.08z"/><text xml:space="preserve" fill="#333f4b" stroke-width="0" x="173.24" y="91.13" font-size="3.56" opacity="1.00" font-family="Arial" font-weight="bold" font-style="italic">F31304103X</text><path style="fill:#ffffff" d="M172.53,82.67L198.94,82.67L198.94,77.03L172.53,77.03z"/><path style="stroke:#35414c;stroke-width:0.255" d="M172.53,82.67L198.94,82.67L198.94,77.03L172.53,77.03z"/><path style="stroke:#35404c;stroke-width:0.250;stroke-opacity:0.00" d="M172.53,82.67L198.94,82.67L198.94,77.03L172.53,77.03z"/><text xml:space="preserve" fill="#333f4b" stroke-width="0" x="173.24" y="81.08" font-size="3.51" opacity="1.00" font-family="Arial" font-weight="bold" font-style="italic">F29304002N</text><path style="fill:#ffffff" d="M172.53,42.73L198.94,42.73L198.94,37.09L172.53,37.09z"/><path style="stroke:#35414c;stroke-width:0.255" d="M172.53,42.73L198.94,42.73L198.94,37.09L172.53,37.09z"/><path style="stroke:#35404c;stroke-width:0.250;stroke-opacity:0.00" d="M172.53,42.73L198.94,42.73L198.94,37.09L172.53,37.09z"/><text xml:space="preserve" fill="#333f4b" stroke-width="0" x="173.24" y="41.15" font-size="3.42" opacity="1.00" font-family="Arial" font-weight="bold" font-style="italic">CM1092</text><path style="fill:#ffffff" d="M172.53,72.62L198.94,72.62L198.94,66.98L172.53,66.98z"/><path style="stroke:#35414c;stroke-width:0.255" d="M172.53,72.62L198.94,72.62L198.94,66.98L172.53,66.98z"/><path style="stroke:#35404c;stroke-width:0.250;stroke-opacity:0.00" d="M172.53,72.62L198.94,72.62L198.94,66.98L172.53,66.98z"/><text xml:space="preserve" fill="#333f4b" stroke-width="0" x="173.24" y="71.03" font-size="3.56" opacity="1.00" font-family="Arial" font-weight="bold" font-style="italic">F26304111X</text><path style="fill:#ffffff" d="M172.53,52.78L198.94,52.78L198.94,47.14L172.53,47.14z"/><path style="stroke:#35414c;stroke-width:0.255" d="M172.53,52.78L198.94,52.78L198.94,47.14L172.53,47.14z"/><path style="stroke:#35404c;stroke-width:0.250;stroke-opacity:0.00" d="M172.53,52.78L198.94,52.78L198.94,47.14L172.53,47.14z"/><text xml:space="preserve" fill="#333f4b" stroke-width="0" x="173.24" y="51.20" font-size="3.42" opacity="1.00" font-family="Arial" font-weight="bold" font-style="italic">CU1171</text><g id="paperID" visibility="hidden" opacity="0.00" transform="scale(0.000100)"><path style="stroke:#000000;stroke-width:0.500;fill:#e6e6e6;fill-rule:evenodd" d="M-2000.00,-2000.00L2210.00,-2000.00L2210.00,2150.00L-2000.00,2150.00zM0.00,0.00L210.00,0.00L210.00,150.00L0.00,150.00z"/><path style="fill:#000000;fill-opacity:0.118" d="M3.00,150.00L210.00,150.00L210.00,3.00L213.00,3.00L213.00,153.00L3.00,153.00z"/></g><g id="hotspot.0" onmouseover="ShowHotSpot(evt,'0')" onmouseout="HideHotSpot(evt,'0')" onmousemove="ShowToolTip(evt,'0',&quot;CU1171&quot;)" opacity="0"><path style="fill:#00ff00;fill-rule:evenodd" d="M199.10,47.40L199.08,53.08L172.58,53.02L172.27,52.81L172.34,47.24L198.84,47.13zM79.30,74.90L79.79,75.99L79.78,77.14L79.52,78.20L78.72,79.78L77.83,81.00L76.01,82.10L75.01,82.10L72.66,80.74L72.36,80.25L72.37,77.39L73.46,75.31L75.27,73.68L77.15,73.60zM118.11,97.18L118.67,97.94L118.68,100.43L118.13,101.73L116.57,103.61L115.15,104.57L113.89,104.57L111.53,103.23L111.24,102.46L111.25,100.41L111.78,98.82L113.29,96.89L114.59,96.08L116.03,96.08zM76.37,77.65L75.55,78.75L75.52,78.21L76.25,77.02L76.37,77.06zM115.29,99.93L114.69,100.97L114.66,100.42L115.14,99.78z"/></g><g id="hotspot.1" onmouseover="ShowHotSpot(evt,'1')" onmouseout="HideHotSpot(evt,'1')" onmousemove="ShowToolTip(evt,'1',&quot;CU1301&quot;)" opacity="0"><path style="fill:#00ff00;fill-rule:evenodd" d="M118.93,53.51L119.73,54.30L120.25,55.90L120.25,57.57L119.99,58.90L118.67,61.81L116.71,64.07L114.10,65.43L112.83,65.43L110.19,64.11L109.15,63.03L108.87,61.98L108.88,59.68L109.13,58.35L110.64,55.37L111.97,53.78L114.42,52.26L116.56,52.18zM199.10,57.18L199.08,62.87L172.58,62.81L172.27,62.59L172.34,57.03L198.84,56.92zM116.02,57.31L115.41,59.07L113.68,61.05L113.03,61.30L113.10,59.93L114.31,57.45L115.93,56.13L116.05,56.16z"/></g><g id="hotspot.2" onmouseover="ShowHotSpot(evt,'2')" onmouseout="HideHotSpot(evt,'2')" onmousemove="ShowToolTip(evt,'2',&quot;F26304111&quot;)" opacity="0"><path style="fill:#00ff00;fill-rule:evenodd" d="M199.10,67.24L199.08,72.92L172.58,72.86L172.27,72.64L172.34,67.08L198.84,66.97zM102.27,83.67L98.47,85.25L96.60,87.08L92.98,91.68L92.99,90.88L93.83,88.81L95.54,86.29L97.76,84.27L98.73,83.66L99.80,83.40L101.76,83.39zM109.15,87.89L109.93,90.01L109.93,91.95L109.41,94.07L108.35,96.44L107.21,97.95L105.60,99.78L103.25,101.14L101.91,101.39L100.94,101.41L99.10,100.32L98.04,99.00L96.75,98.22L95.37,98.23L94.76,97.66L100.14,90.62L102.18,88.16L104.30,86.84L105.08,86.57L107.31,86.56z"/></g><g id="hotspot.3" onmouseover="ShowHotSpot(evt,'3')" onmouseout="HideHotSpot(evt,'3')" onmousemove="ShowToolTip(evt,'3',&quot;F29304002N&quot;)" opacity="0"><path style="fill:#00ff00;fill-rule:evenodd" d="M133.64,61.71L132.06,62.28L131.52,62.25L133.12,61.44L135.09,61.45zM140.88,64.62L141.71,65.38L142.47,67.26L142.47,71.58L142.21,72.65L141.41,74.23L139.86,76.38L135.52,78.92L133.46,78.92L132.40,78.39L131.64,77.57L129.24,76.26L127.38,75.48L126.31,74.17L126.07,72.82L126.07,71.06L126.33,69.73L127.11,69.45L127.66,68.86L128.65,68.89L129.17,68.34L130.48,68.06L131.01,67.51L131.81,67.57L132.43,67.09L132.84,66.46L137.36,64.63L138.41,64.36L140.09,64.35zM199.10,77.29L199.08,82.97L172.58,82.91L172.27,82.69L172.34,77.13L198.84,77.02z"/></g><g id="hotspot.4" onmouseover="ShowHotSpot(evt,'4')" onmouseout="HideHotSpot(evt,'4')" onmousemove="ShowToolTip(evt,'4',&quot;F31304103&quot;)" opacity="0"><path style="fill:#00ff00;fill-rule:evenodd" d="M54.15,63.56L56.26,63.55L58.08,64.64L59.70,64.87L60.22,65.15L63.15,66.97L63.85,68.40L67.89,70.70L69.75,72.01L69.75,73.45L69.21,74.50L68.34,75.23L67.35,75.22L61.80,72.00L59.94,72.04L56.76,70.19L55.49,68.82L53.78,67.88L53.62,66.72L52.55,65.94L51.49,65.42L51.46,63.62L52.46,62.75L52.80,62.74zM199.10,87.34L199.08,93.02L172.58,92.96L172.27,92.74L172.34,87.18L198.84,87.07z"/></g><g id="hotspot.5" onmouseover="ShowHotSpot(evt,'5')" onmouseout="HideHotSpot(evt,'5')" onmousemove="ShowToolTip(evt,'5',&quot;F31304105&quot;)" opacity="0"><path style="fill:#00ff00;fill-rule:evenodd" d="M106.25,49.80L106.77,50.87L106.50,53.08L105.97,54.13L104.05,55.91L102.02,55.88L75.30,40.28L75.03,40.02L75.01,37.45L75.96,35.50L77.57,34.20L79.27,34.19zM199.10,97.39L199.08,103.07L172.58,103.01L172.27,102.79L172.34,97.23L198.84,97.12z"/></g><g id="hotspot.6" onmouseover="ShowHotSpot(evt,'6')" onmouseout="HideHotSpot(evt,'6')" onmousemove="ShowToolTip(evt,'6',&quot;F31304110&quot;)" opacity="0"><path style="fill:#00ff00;fill-rule:evenodd" d="M71.32,19.66L72.91,21.24L73.71,23.36L73.70,27.41L73.44,28.74L72.57,31.31L70.97,34.48L68.94,37.20L66.46,39.48L63.58,41.10L62.24,41.35L60.46,41.36L57.86,40.26L56.00,38.68L55.17,36.87L54.92,35.53L54.90,32.86L54.39,32.64L53.06,31.05L52.79,30.26L52.79,27.40L54.12,23.97L55.61,22.02L57.85,20.03L59.32,19.38L61.02,19.39L61.79,19.96L62.51,19.96L64.36,18.87L65.67,18.32L68.68,18.33zM199.10,107.17L199.08,112.86L172.58,112.79L172.27,112.58L172.34,107.01L198.84,106.91z"/></g><g id="hotspot.7" onmouseover="ShowHotSpot(evt,'7')" onmouseout="HideHotSpot(evt,'7')" onmousemove="ShowToolTip(evt,'7',&quot;CM1092&quot;)" opacity="0"><path style="fill:#00ff00;fill-rule:evenodd" d="M199.10,37.35L199.08,43.03L172.58,42.97L172.27,42.76L172.34,37.19L198.84,37.08zM136.12,61.98L139.83,64.12L137.36,64.63L132.84,66.46L132.43,67.09L131.81,67.57L131.01,67.51L130.48,68.06L129.17,68.34L128.65,68.89L127.66,68.86L127.10,69.45L126.52,69.69L125.75,69.66L125.21,70.22L124.22,70.18L123.35,71.02L122.30,70.96L122.01,71.49L120.44,71.78L119.93,72.33L118.94,72.30L118.06,73.12L117.26,73.06L116.72,73.61L114.88,73.58L68.94,92.22L64.89,94.24L61.98,96.36L58.25,100.04L55.60,103.48L52.84,108.11L50.87,112.76L49.82,116.47L49.00,122.03L49.37,125.72L49.62,127.06L50.42,129.43L52.02,131.53L55.90,131.54L58.02,131.01L60.39,129.95L63.80,127.81L67.62,124.48L71.32,119.99L96.34,87.34L98.47,85.25L101.65,83.93L128.36,76.52L129.79,76.52L131.64,77.57L132.40,78.39L133.47,78.99L108.28,86.06L104.30,86.84L102.18,88.16L100.14,90.62L75.55,122.90L71.51,127.58L68.44,130.33L64.74,132.72L60.94,134.20L58.28,134.45L57.03,134.46L54.15,133.63L48.07,129.93L45.92,127.05L44.86,123.61L44.52,119.37L45.32,113.83L46.63,109.58L48.76,104.83L51.37,100.57L54.02,97.13L57.22,93.98L60.92,91.33L64.44,89.57L133.65,61.71L135.33,61.71z"/></g></g></svg>
