<?xml version="1.0" encoding="UTF-8" standalone="no"?>
<svg xmlns="http://www.w3.org/2000/svg" xmlns:xlink="http://www.w3.org/1999/xlink" width="210.000mm" height="150.000mm" viewBox="0.000000 0.000000 210.000000 150.000000" stroke-linejoin="round" stroke-linecap="round" fill="none" fill-rule="evenodd"><desc>Composer Export</desc><script type="text/ecmascript"><![CDATA[
if(typeof(top) != "undefined")
{
	top.ShowPaper = ShowPaper;
}
function ShowHotSpot(evt,hotspotid)
{
	var svgDocument = evt.target.ownerDocument;
	var strId = "hotspot."+hotspotid;
	var hotspot = svgDocument.getElementById(strId);
	if(hotspot)
		hotspot.setAttribute("opacity",".5");
}
function HideHotSpot(evt,hotspotid)
{
	var svgDocument = evt.target.ownerDocument;
	var strId = "hotspot."+hotspotid;
	var hotspot = svgDocument.getElementById(strId);
	if(hotspot)
		hotspot.setAttribute("opacity","0");

	var toolTip = svgDocument.getElementById('ToolTip');
	if(toolTip)
		toolTip.setAttribute("visibility","hidden");
}
function ShowToolTip(evt,hotspotid,strTooltip)
{
	if(strTooltip=="")
	return;

	// change text
	var svgDocument = evt.target.ownerDocument;
	var tiptext = svgDocument.getElementById('ToolTipText');
	if( !tiptext )
	return;
	tiptext.firstChild.nodeValue = " " + strTooltip + "  " ;

	// show tooltip before, else some refresh issue

	var toolTip = svgDocument.getElementById('ToolTip');
	if(!toolTip)
	return;

	toolTip.setAttribute("visibility","visible");
	toolTip.setAttribute("opacity",".95");

	// move tooltip
	// get viewbox

	var root = svgDocument.documentElement;
	var vbox = (root.getAttribute("viewBox")).split(' ');
	var x0 = parseFloat(vbox[0]);
	var y0 = parseFloat(vbox[1]);
	var vboxW = parseFloat(vbox[2]);
	var vboxH = parseFloat(vbox[3]);

	// get default width of svg

	var strW = root.getAttribute("width");
	var svgW = parseFloat(strW);
	if(strW.indexOf('mm') != -1)
	svgW *= 3.779;

	var strH = root.getAttribute("height");
	var svgH = parseFloat(strH);
	if(strH.indexOf('mm') != -1)
	svgH *= 3.779;  	// 96 dpi  -> 96/25.4 = 3.779

	// update the viewbox / width / height if svg is embedded in html with zoom fit all
	var realx0 = x0;
	var realy0 = y0;
	var realvboxW = vboxW;
	var realvboxH = vboxH;
	var realsvgW = svgW;
	var realsvgH = svgH;

	if ((typeof(top) == "undefined") || (typeof(top.svgctl1) != "undefined")) // embedded in html
	{
		// get window size in pxl

		svgW = window.innerWidth;
		svgH = window.innerHeight;

		// calculate real viewbox

		realsvgW = svgW;
		realsvgH = svgH;
		if((svgW / svgH) > (vboxW / vboxH))
		{
			realvboxW = (vboxH * svgW) / svgH;
			realvboxH = vboxH;
			realx0 = x0 - (realvboxW - vboxW)/2 ;
		}
		else
		{
			realvboxH = (vboxW * svgH) / svgW;
			realvboxW = vboxW;
			realy0 = y0 - (realvboxH - vboxH)/2 ;
		}
	}

	// get user zoom/pan

	var newScale = root.currentScale;
	var translation = root.currentTranslate;

	// transform pxl to user unit

	var xPos = (((evt.clientX+10- translation.x)/newScale) * realvboxW)/realsvgW  + realx0 ;
	var yPos = (((evt.clientY+5- translation.y)/newScale) * realvboxH)/ realsvgH  + realy0 ;
	var scaleForWidth = ( (1 / newScale) * realvboxH) / realsvgH;

	// move tooltip

	toolTip.setAttribute("transform", "translate(" + xPos + "," + yPos + ")" );

	// resize tooltip

	var fontsize = 12;
	tiptext.setAttribute("font-size",fontsize*scaleForWidth);
	tiptext.setAttribute("y", fontsize*scaleForWidth);
	var tipBG = svgDocument.getElementById('ToolTipBG');
	var outline = tiptext.getBBox();
	if(tipBG)
	{
		tipBG.setAttribute("stroke-width", 1*scaleForWidth);
		tipBG.setAttribute("width", Number(outline.width) );
		tipBG.setAttribute("height", Number(outline.height) + fontsize*.5*scaleForWidth );
	}
	var ToolTipShadow = svgDocument.getElementById('ToolTipShadow');
	if(ToolTipShadow)
	{
		ToolTipShadow.setAttribute("width", Number(outline.width) );
		ToolTipShadow.setAttribute("height", Number(outline.height) + fontsize*.5*scaleForWidth );
		ToolTipShadow.setAttribute("x", 3*scaleForWidth);
		ToolTipShadow.setAttribute("y", 3*scaleForWidth);
	}
}
function ShowPaper()
{
  var svgDocument = getDocument();
  var paper = svgDocument.getElementById("paperID");
  if(paper)
  {
    paper.setAttribute("transform","scale(1)");
    paper.setAttribute("opacity","1");
    paper.setAttribute("visibility","visible");
  }
  var svg = svgDocument.getRootElement();
  if(svg)
  {
    svg.setAttribute("width","220.000mm");
    svg.setAttribute("height","160.000mm");
    svg.setAttribute("viewBox","-5.000000 -5.000000 220.000000 160.000000");
  }
}
]]></script><defs/><g><path style="fill:#ffffff" d="M209.93,149.95L0.04,149.95L0.04,0.04L209.93,0.04z"/><path style="fill:#2ac7ce" d="M36.18,85.12L34.15,86.51L33.25,87.51L31.99,89.43L31.14,91.74L31.02,92.89L31.02,93.87L31.28,95.13L31.79,95.89L32.81,96.52L32.96,96.72L32.28,96.66L31.54,96.27L30.89,95.52L30.51,94.63L30.51,92.26L30.89,90.61L31.80,88.60L33.06,86.82L34.44,85.54L35.79,84.73L36.68,84.48L37.27,84.46z"/><path style="fill:#3e39c3" d="M136.30,29.52L136.52,29.58L138.96,31.04L137.10,30.98L136.09,31.23L134.86,31.66L124.13,37.81L52.45,79.20L51.84,79.63L51.65,79.66L50.70,80.25L50.50,80.29L49.60,80.89L49.44,81.04L49.24,81.05L48.31,81.65L48.09,81.69L46.25,82.76L43.90,83.97L43.73,84.29L43.58,84.24L43.27,84.37L42.71,84.76L42.64,84.75L42.01,85.13L41.82,85.27L40.61,85.88L40.30,86.23L39.98,86.38L39.22,86.64L37.70,87.53L36.29,88.91L35.08,90.74L34.18,92.63L33.81,94.41L33.81,95.64L33.93,96.66L34.08,96.90L34.08,97.25L32.96,96.72L32.81,96.52L31.79,95.89L31.28,95.13L31.02,93.87L31.02,92.89L31.14,91.74L31.99,89.43L33.25,87.51L34.15,86.51L36.18,85.12L37.27,84.46L37.53,84.34L38.75,85.13L39.22,85.13L44.60,82.51L45.05,82.20L49.86,79.91L50.12,79.66L51.43,79.03L49.07,77.71L128.60,31.73L129.21,31.30L129.99,30.97L131.27,30.22L133.17,29.45L134.06,29.33L135.37,29.33z"/><path style="fill:#2ac7ce" d="M40.92,86.35L41.68,86.50L42.69,87.27L43.32,88.67L43.32,90.99L43.07,92.27L42.25,94.21L41.00,96.02L40.29,96.84L39.84,97.38L38.39,98.24L37.07,98.69L36.09,98.69L35.45,98.57L34.45,97.79L34.08,97.25L34.08,96.90L33.93,96.66L33.81,95.64L33.81,94.41L34.18,92.63L35.08,90.74L36.29,88.91L37.70,87.53L39.22,86.64L39.98,86.38L40.30,86.23z"/><path style="fill:#ffffff" d="M123.66,38.84L122.81,41.54L122.56,43.45L122.56,45.31L122.68,46.58L123.33,48.21L124.35,49.48L125.61,50.12L126.37,50.38L127.26,50.88L127.55,51.21L71.53,83.55L71.59,81.57L71.10,80.03L70.33,79.16L69.06,78.65L67.76,78.70L67.43,77.87L66.78,77.13L66.01,76.76L65.26,76.49L63.68,76.62L62.42,77.26L60.90,78.53L59.56,80.23L58.62,81.95L57.89,84.26L57.90,86.64L58.28,87.78L59.16,88.80L60.36,89.30L42.25,94.21L43.07,92.27L43.32,90.99L43.32,88.67L42.69,87.27L41.68,86.50L40.92,86.35L41.30,86.05L41.48,85.61L41.68,85.74L41.88,85.77L42.44,85.42L42.62,84.98L43.27,84.98L43.56,84.77L43.73,84.29L43.96,84.37L44.29,84.37L44.71,84.14L44.92,83.70L45.44,83.74L45.85,83.39L46.06,83.07L46.56,83.09L47.12,82.62L47.31,82.33L47.85,82.34L48.27,82.00L48.31,81.65L48.65,81.70L48.97,81.70L49.42,81.37L49.44,81.04L49.60,80.89L49.79,81.06L50.00,81.08L50.55,80.73L50.70,80.25L50.79,80.30L51.40,80.31L51.69,80.09L51.84,79.63L52.45,79.20L124.13,37.81z"/><path style="fill:#d1ce96" d="M151.35,42.13L152.48,42.77L153.63,43.65L154.39,45.17L154.51,46.19L154.51,47.50L154.26,49.16L153.59,51.02L152.49,53.08L151.34,54.60L149.65,56.20L147.89,57.23L146.61,57.48L145.76,57.48L144.74,57.23L143.11,56.20L142.33,55.46L141.83,54.32L141.71,53.17L141.71,51.81L141.95,50.16L142.85,47.88L144.06,45.80L145.40,44.22L147.12,42.77L148.38,42.13L149.65,41.89L150.33,41.88z"/><path style="fill:#d1ce96" d="M23.42,79.54L23.94,80.03L24.17,80.68L24.17,82.24L23.79,83.39L22.91,84.78L22.03,85.55L21.10,86.01L19.87,86.00L18.60,85.24L18.21,84.49L18.15,83.94L18.47,84.36L18.85,84.41L18.86,83.84L18.48,83.46L18.15,83.67L18.21,82.62L18.60,81.48L19.61,79.97L20.71,79.16L21.34,78.90L22.15,78.90z"/><path style="fill:#d1ce96" d="M71.09,107.05L71.61,107.54L71.85,108.06L71.97,109.38L71.47,111.02L70.78,112.11L69.89,113.00L69.02,113.53L67.92,113.66L66.66,113.00L66.14,112.63L65.88,112.00L65.89,110.39L66.01,109.75L66.74,108.32L67.48,107.42L68.42,106.71L68.76,106.54L69.69,106.41z"/><path style="fill:#4c4c4c" d="M66.01,76.76L66.78,77.13L67.43,77.87L67.76,78.70L69.06,78.65L70.33,79.16L71.10,80.03L71.59,81.57L71.53,83.55L71.09,85.29L69.88,87.64L69.76,87.99L69.39,88.28L68.89,88.92L68.30,89.60L67.49,90.31L65.85,91.21L65.21,91.33L63.85,91.34L63.27,91.13L62.73,90.82L61.84,89.80L61.70,89.31L61.46,89.17L60.77,89.17L60.36,89.30L59.16,88.80L58.28,87.78L57.90,86.64L57.89,84.26L58.62,81.95L59.56,80.23L60.90,78.53L62.42,77.26L63.68,76.62L65.26,76.49z"/><path style="fill:#8aa7bf" d="M81.10,91.86L81.37,91.78L82.08,91.45L82.50,91.45L84.40,92.47L85.16,93.11L85.37,94.03L86.43,94.63L86.81,95.13L86.81,95.81L86.43,96.70L85.64,97.43L84.77,97.42L83.90,96.90L83.47,96.90L83.22,97.04L82.49,97.04L80.10,95.63L79.83,95.02L79.72,94.23L75.90,91.97L75.90,90.86L76.51,89.95L77.00,89.67L77.43,89.67z"/><path style="fill:#2ac7ce" d="M48.66,50.49L48.60,53.42L38.88,59.04L38.77,60.96L30.90,65.53L30.64,65.61L29.13,64.71L25.16,67.00L23.53,67.00L19.19,64.49L19.23,61.45L42.76,47.83L44.09,47.84z"/><path style="fill:#1f4baa" d="M49.27,47.86L49.49,48.44L49.40,48.53L49.03,48.48L48.90,48.35L48.85,47.71L49.03,47.66z"/><path style="fill:#1f4baa" d="M15.80,65.72L16.49,66.34L17.01,67.19L17.20,67.88L17.20,68.43L16.90,69.01L15.01,70.16L14.02,70.17L13.03,69.26L12.63,68.39L12.63,67.02L12.97,66.60L14.74,65.59L15.43,65.59z"/><path style="fill:#9daff7" d="M68.44,82.94L68.68,83.47L68.68,84.52L68.42,85.41L67.54,86.81L67.10,87.13L66.23,87.66L65.50,87.66L64.99,87.28L64.88,87.14L64.70,86.14L64.87,85.28L65.59,83.85L66.64,82.87L67.24,82.58L67.92,82.58z"/><path style="fill:#597ea0" d="M78.94,109.97L80.47,110.86L81.37,111.60L81.87,112.63L81.86,114.45L81.49,115.85L80.85,117.11L79.97,118.26L78.58,119.53L77.64,119.99L76.02,119.99L73.38,118.45L72.98,117.96L72.73,117.33L72.73,115.07L73.24,113.56L74.07,112.11L75.34,110.71L76.41,110.01L77.12,109.71L78.19,109.71z"/><path style="fill:#889da5" d="M162.00,52.53L162.50,53.04L162.88,54.06L162.88,55.36L162.76,56.00L162.12,57.52L161.49,58.53L160.29,59.75L159.04,60.40L157.68,60.40L155.79,59.25L155.39,58.50L155.27,57.99L155.27,56.75L155.74,55.20L156.11,54.42L156.93,53.22L157.93,52.32L159.16,51.64L160.35,51.64z"/><path style="fill:#889da5" d="M53.84,96.15L55.38,97.15L55.87,97.80L56.12,98.69L56.12,99.49L55.75,101.14L55.36,101.90L54.73,102.91L53.60,104.06L52.85,104.58L52.03,104.91L51.43,104.90L50.79,104.78L49.03,103.75L48.64,103.00L48.51,102.62L48.51,101.00L48.86,99.83L49.35,98.80L50.17,97.59L51.18,96.69L52.15,96.15L52.66,96.02L53.46,96.02z"/><path style="fill:#889da5" d="M63.62,101.84L64.11,102.49L64.36,103.38L64.36,104.43L63.95,106.04L63.06,107.56L61.78,108.94L60.53,109.60L59.16,109.60L57.40,108.57L57.01,108.07L56.75,107.31L56.76,105.95L57.01,104.81L57.86,103.12L58.67,102.16L59.62,101.33L60.65,100.84L61.84,100.83z"/><path style="fill:#3e39c3" d="M127.78,51.38L129.15,52.16L130.30,52.28L131.72,52.25L71.16,87.26L69.76,87.99L69.88,87.64L71.09,85.29L71.53,83.55L127.55,51.21z"/><path style="fill:#3e39c3" d="M61.70,89.31L61.84,89.80L62.73,90.82L63.27,91.13L42.04,96.82L39.84,97.38L40.29,96.84L41.00,96.02L42.25,94.21L60.36,89.30L60.77,89.17L61.46,89.17z"/><path style="fill:#01ff02" d="M149.12,44.00L148.89,44.67L148.38,44.72L148.42,44.20L148.63,43.90L149.07,43.91z"/><path style="fill:#01ff02" d="M51.19,46.95L51.18,47.50L50.31,48.05L49.49,48.44L49.27,47.86L49.03,47.66L49.74,47.17L50.63,46.69L50.93,46.69z"/><path style="fill:#01ff02" d="M153.36,47.25L153.75,46.72L154.01,46.69L154.01,47.26L153.83,47.59L153.36,47.59z"/><path style="fill:#01ff02" d="M143.47,52.82L143.68,52.52L144.13,52.53L144.13,52.82L143.70,53.44L143.48,53.43z"/><path style="fill:#01ff02" d="M32.18,55.23L31.47,55.23L31.47,54.95L32.18,54.95z"/><path style="fill:#01ff02" d="M149.08,55.43L149.07,55.88L148.76,56.21L148.38,56.26L148.42,55.73L148.77,55.31L148.94,55.30z"/><path style="fill:#01ff02" d="M36.50,57.47L36.44,57.73L35.83,57.73L35.83,57.39L36.36,57.34z"/><path style="fill:#01ff02" d="M27.99,57.64L27.29,57.64L27.29,57.36L27.99,57.36z"/><path style="fill:#01ff02" d="M32.31,59.88L32.26,60.14L31.64,60.14L31.64,59.80L32.18,59.74z"/><path style="fill:#01ff02" d="M21.78,64.07L21.77,64.37L21.39,64.33L21.20,63.80L21.39,63.68z"/><path style="fill:#01ff02" d="M17.97,66.22L17.98,66.66L17.01,67.19L16.49,66.34L17.46,65.84z"/><path style="fill:#01ff02" d="M22.80,82.82L22.81,83.17L22.66,83.26L22.59,83.55L22.52,83.64L22.01,83.60L22.01,82.99L22.22,82.69L22.67,82.69z"/><path style="fill:#01ff02" d="M18.86,83.84L18.85,84.41L18.47,84.36L18.15,83.94L18.15,83.67L18.48,83.46z"/><path style="fill:#01ff02" d="M86.20,95.63L86.05,96.32L85.63,96.67L85.29,96.67L85.28,96.05L85.75,95.50L86.06,95.49z"/><path style="fill:#01ff02" d="M70.71,108.70L70.97,109.08L70.93,109.47L70.46,109.46L70.32,109.22L70.28,108.56z"/><path style="fill:#d1ce96" d="M36.98,73.45L38.51,74.46L38.51,75.28L31.27,79.46L30.89,79.55L29.88,78.91L27.74,77.75L26.34,76.86L25.32,76.37L25.30,75.26L25.63,74.98L26.17,74.99L26.66,74.32L27.31,74.36L27.80,73.69L28.43,73.71L29.06,72.95L29.71,72.95L30.12,72.33L30.85,72.32L31.26,71.69L31.87,71.70L32.17,71.47L32.38,71.04L32.80,71.03z"/><path style="fill:#4c4c4c" d="M66.41,84.65L65.89,85.43L65.88,85.03L66.35,84.35L66.41,84.36z"/><path style="fill:#2ac7ce" d="M135.75,29.20L136.30,29.52L135.37,29.33L134.06,29.33L133.17,29.45L131.27,30.22L129.99,30.97L129.21,31.30L129.62,30.85L132.06,29.49L133.55,29.07L135.11,29.08z"/><path style="fill:#2ac7ce" d="M138.96,31.04L140.56,31.88L141.58,33.14L142.22,34.65L142.34,35.29L142.47,37.49L142.21,39.51L141.58,41.80L140.57,44.08L139.29,46.23L138.11,47.83L137.47,48.59L135.26,50.56L133.59,51.56L131.72,52.25L130.30,52.28L129.15,52.16L127.78,51.38L127.55,51.21L127.26,50.88L126.37,50.38L125.61,50.12L124.35,49.48L123.33,48.21L122.68,46.58L122.56,45.31L122.56,43.45L122.81,41.54L123.66,38.84L124.13,37.81L134.86,31.66L136.09,31.23L137.10,30.98z"/><path style="fill:#1f4baa" d="M52.96,44.42L53.60,45.04L54.23,46.32L54.22,47.13L54.05,47.59L53.28,48.08L51.77,48.87L51.43,48.87L50.81,48.59L50.31,48.05L51.18,47.50L51.19,46.95L50.93,46.69L50.63,46.69L49.74,47.17L49.65,46.97L49.66,45.60L50.38,45.06L51.89,44.16L52.45,44.16z"/><path style="fill:#1f4baa" d="M51.43,79.03L50.12,79.66L49.86,79.91L45.05,82.20L44.60,82.51L39.22,85.13L38.75,85.13L37.53,84.34L49.07,77.71z"/><path style="fill:#1f4baa" d="M50.70,80.25L51.65,79.66L51.84,79.63L51.69,80.09L51.40,80.31L50.79,80.30z"/><path style="fill:#1f4baa" d="M49.60,80.89L50.50,80.29L50.70,80.25L50.55,80.73L50.00,81.08L49.79,81.06z"/><path style="fill:#1f4baa" d="M48.31,81.65L49.24,81.05L49.44,81.04L49.42,81.37L48.97,81.70L48.65,81.70z"/><path style="fill:#1f4baa" d="M48.27,82.00L47.85,82.34L47.31,82.33L47.12,82.62L46.56,83.09L46.06,83.07L45.85,83.39L45.44,83.74L44.92,83.70L44.71,84.14L44.29,84.37L43.96,84.37L43.73,84.29L43.90,83.97L46.25,82.76L48.09,81.69L48.31,81.65z"/><path style="fill:#1f4baa" d="M43.73,84.29L43.56,84.77L43.27,84.98L42.62,84.98L42.44,85.42L41.88,85.77L41.68,85.74L41.48,85.61L41.30,86.05L40.92,86.35L40.30,86.23L40.61,85.88L41.82,85.27L42.01,85.13L42.64,84.75L42.71,84.76L43.27,84.37L43.58,84.24z"/><path style="fill:#ffffff" d="M150.59,45.94L150.83,46.83L150.84,47.76L150.71,48.52L150.20,50.04L149.28,51.52L148.06,52.84L146.78,53.59L145.72,53.72L145.38,52.67L145.38,51.94L145.50,50.79L145.96,49.47L146.79,48.02L148.06,46.63L149.15,45.94L149.77,45.68L150.46,45.69z"/><path style="fill:#ffffff" d="M160.13,54.38L159.93,55.58L159.28,56.83L158.19,57.78L158.18,56.62L158.91,55.20L159.71,54.48L160.10,54.31z"/><path style="fill:#ffffff" d="M33.44,72.33L33.44,72.47L33.27,72.59L33.06,72.56L32.50,72.18L33.19,72.18z"/><path style="fill:#ffffff" d="M37.38,74.61L37.37,74.76L36.85,74.73L36.43,74.46L37.12,74.46z"/><path style="fill:#ffffff" d="M26.79,75.60L27.61,75.61L27.57,75.87L27.22,75.88z"/><path style="fill:#ffffff" d="M30.72,77.89L31.54,77.89L31.50,78.15L31.17,78.14z"/><path style="fill:#ffffff" d="M22.29,81.05L22.15,82.00L21.51,83.26L20.59,84.12L20.20,84.15L20.36,83.00L21.01,81.75L21.89,80.96L22.16,80.91z"/><path style="fill:#ffffff" d="M22.79,83.40L22.59,83.55L22.66,83.26L22.81,83.17z"/><path style="fill:#ffffff" d="M38.12,90.23L37.61,91.50L36.98,92.51L36.23,93.41L35.58,93.91L35.70,92.89L36.36,91.39L37.18,90.18L38.09,89.28L38.25,89.30z"/><path style="fill:#ffffff" d="M53.35,98.93L53.22,99.87L52.66,100.97L51.69,102.02L51.27,102.16L51.30,101.38L51.77,100.08L52.66,99.07L53.04,98.80L53.22,98.79z"/><path style="fill:#ffffff" d="M61.63,103.71L61.42,104.78L60.77,106.03L59.82,106.86L59.51,106.98L59.54,106.20L60.01,104.89L61.03,103.76L61.28,103.61L61.58,103.62z"/><path style="fill:#ffffff" d="M69.82,109.00L69.56,109.88L68.93,110.90L68.18,111.55L67.88,111.67L67.91,110.64L68.17,109.88L68.88,108.94L69.66,108.30L69.82,108.31z"/><path style="fill:#ffffff" d="M77.69,114.30L77.30,115.08L76.91,115.60L76.90,115.34L77.64,114.14z"/><path style="stroke:#000000;stroke-width:0.088" d="M40.39,86.04L51.97,79.35L49.08,77.68L37.49,84.37L40.39,86.04L40.39,86.26L40.31,86.22"/><path style="stroke:#000000;stroke-width:0.088" d="M40.31,86.22L40.43,86.29L40.42,86.24L40.39,86.26"/><path style="stroke:#000000;stroke-width:0.088" d="M40.44,86.34L40.27,86.24"/><path style="stroke:#000000;stroke-width:0.088" d="M40.43,86.29L40.45,86.27L40.49,86.26L40.53,86.26L40.56,86.27L40.58,86.29L40.61,86.35"/><path style="stroke:#000000;stroke-width:0.088" d="M40.83,86.39L41.26,86.14L41.35,85.85L41.38,85.80L41.41,85.75L41.44,85.71L41.48,85.68L41.50,85.67L41.52,85.61L41.57,85.57L41.59,85.62L41.54,85.59"/><path style="stroke:#000000;stroke-width:0.088" d="M40.58,86.29L40.51,86.26"/><path style="stroke:#000000;stroke-width:0.088" d="M42.70,84.92L42.75,84.95L42.73,84.90L42.68,84.94L42.66,85.00L42.64,85.01L42.60,85.04L42.56,85.08L42.53,85.13L42.51,85.18L42.41,85.48L41.84,85.81L41.74,85.62L41.72,85.60L41.69,85.59L41.65,85.59L41.61,85.60L41.59,85.62"/><path style="stroke:#000000;stroke-width:0.088" d="M41.84,85.81L41.51,85.62"/><path style="stroke:#000000;stroke-width:0.088" d="M41.74,85.62L41.67,85.59"/><path style="stroke:#000000;stroke-width:0.088" d="M42.75,84.95L42.77,84.94L42.81,84.92L42.85,84.92L42.88,84.93L42.90,84.96L42.99,85.14L43.57,84.81L43.67,84.51L43.69,84.46L43.72,84.41L43.76,84.37L43.80,84.34L43.82,84.33L43.83,84.27L43.89,84.23L43.90,84.28L43.93,84.27L43.97,84.25L44.00,84.25L44.03,84.26L44.06,84.29L43.99,84.25"/><path style="stroke:#000000;stroke-width:0.088" d="M42.67,84.95L42.99,85.14"/><path style="stroke:#000000;stroke-width:0.088" d="M42.90,84.96L42.83,84.92"/><path style="stroke:#000000;stroke-width:0.088" d="M44.06,84.29L44.15,84.47L44.73,84.14L44.83,83.84L44.85,83.79L44.88,83.74L44.92,83.70L44.96,83.67L44.98,83.66L44.99,83.60L45.05,83.57L45.06,83.61L45.09,83.60L45.13,83.58L45.16,83.58L45.19,83.59L45.21,83.62L45.15,83.58"/><path style="stroke:#000000;stroke-width:0.088" d="M43.90,84.28L43.86,84.25"/><path style="stroke:#000000;stroke-width:0.088" d="M44.15,84.47L43.83,84.29"/><path style="stroke:#000000;stroke-width:0.088" d="M44.99,83.62L45.31,83.80L45.89,83.47L45.99,83.17L46.01,83.12L46.04,83.07L46.08,83.03L46.11,83.00L46.14,82.99L46.15,82.93L46.21,82.90L46.22,82.94L46.25,82.93L46.29,82.91L46.32,82.91L46.35,82.92L46.37,82.95L46.31,82.91"/><path style="stroke:#000000;stroke-width:0.088" d="M45.06,83.61L45.02,83.58"/><path style="stroke:#000000;stroke-width:0.088" d="M45.21,83.62L45.31,83.80"/><path style="stroke:#000000;stroke-width:0.088" d="M47.31,82.28L47.63,82.46L47.53,82.28L47.51,82.25L47.48,82.24L47.44,82.24L47.40,82.26L47.38,82.27L47.37,82.23L47.31,82.26L47.30,82.32L47.27,82.34L47.23,82.36L47.20,82.40L47.17,82.45L47.15,82.50L47.05,82.80L46.47,83.13L46.37,82.95"/><path style="stroke:#000000;stroke-width:0.088" d="M46.22,82.94L46.18,82.92"/><path style="stroke:#000000;stroke-width:0.088" d="M46.47,83.13L46.15,82.95"/><path style="stroke:#000000;stroke-width:0.088" d="M47.53,82.28L47.47,82.24"/><path style="stroke:#000000;stroke-width:0.088" d="M47.38,82.27L47.33,82.25"/><path style="stroke:#000000;stroke-width:0.088" d="M48.46,81.61L48.79,81.80L48.69,81.61L48.67,81.58L48.64,81.57L48.60,81.57L48.56,81.59L48.54,81.60L48.53,81.56L48.47,81.59L48.46,81.65L48.43,81.67L48.39,81.70L48.36,81.73L48.33,81.78L48.31,81.83L48.21,82.13L47.63,82.46"/><path style="stroke:#000000;stroke-width:0.088" d="M48.79,81.80L49.37,81.46L49.46,81.16L49.49,81.11L49.52,81.07L49.55,81.03L49.59,81.00L49.61,80.98L49.63,80.92L49.69,80.89L49.70,80.94L49.65,80.91"/><path style="stroke:#000000;stroke-width:0.088" d="M48.69,81.61L48.63,81.57"/><path style="stroke:#000000;stroke-width:0.088" d="M48.49,81.58L48.54,81.60"/><path style="stroke:#000000;stroke-width:0.088" d="M49.62,80.94L49.95,81.13L49.85,80.94L49.83,80.92L49.80,80.90L49.76,80.91L49.72,80.92L49.70,80.94"/><path style="stroke:#000000;stroke-width:0.088" d="M49.85,80.94L49.78,80.90"/><path style="stroke:#000000;stroke-width:0.088" d="M50.78,80.27L51.10,80.46L51.01,80.27L50.99,80.25L50.96,80.23L50.92,80.24L50.88,80.25L50.86,80.27L50.84,80.22L50.79,80.25L50.77,80.31L50.75,80.33L50.71,80.36L50.67,80.40L50.64,80.44L50.62,80.49L50.53,80.79L49.95,81.13"/><path style="stroke:#000000;stroke-width:0.088" d="M51.10,80.46L51.68,80.12L51.78,79.82L51.80,79.77L51.83,79.73L51.87,79.69L51.91,79.66L51.93,79.65L51.94,79.58L51.97,79.57L51.97,79.35"/><path style="stroke:#000000;stroke-width:0.088" d="M51.01,80.27L50.94,80.23"/><path style="stroke:#000000;stroke-width:0.088" d="M50.86,80.27L50.81,80.24"/><path style="stroke:#000000;stroke-width:0.088" d="M137.04,31.00L135.90,31.16L133.94,32.02L131.05,30.35L35.46,85.54L34.04,86.63L32.76,88.13L32.34,88.89L31.76,89.91L31.13,91.77L30.95,93.52L31.22,95.00L31.92,96.04L34.23,97.38"/><path style="stroke:#000000;stroke-width:0.088" d="M34.63,91.65L34.68,91.53"/><path style="stroke:#000000;stroke-width:0.088" d="M35.71,89.75L35.60,89.91"/><path style="stroke:#000000;stroke-width:0.088" d="M35.46,85.54L38.27,87.16"/><path style="stroke:#000000;stroke-width:0.088" d="M63.27,91.12L39.56,97.51"/><path style="stroke:#000000;stroke-width:0.088" d="M133.94,32.02L39.37,86.63"/><path style="stroke:#000000;stroke-width:0.088" d="M63.07,91.04L39.79,97.31"/><path style="stroke:#000000;stroke-width:0.088" d="M39.79,86.52L134.02,32.12"/><path style="stroke:#000000;stroke-width:0.088" d="M42.25,94.20L61.29,89.07"/><path style="stroke:#000000;stroke-width:0.088" d="M69.43,88.27L132.08,52.09"/><path style="stroke:#000000;stroke-width:0.088" d="M131.66,52.21L69.61,88.04"/><path style="stroke:#000000;stroke-width:0.088" d="M71.56,83.57L127.59,51.22"/><path style="stroke:#000000;stroke-width:0.088" d="M131.05,30.35L133.01,29.49L134.87,29.23L136.53,29.60"/><path style="stroke:#000000;stroke-width:0.088" d="M136.00,31.29L135.89,31.30L135.80,31.34"/><path style="stroke:#000000;stroke-width:0.088" d="M136.50,29.59L139.39,31.26L139.33,31.24"/><path style="stroke:#000000;stroke-width:0.088" d="M138.33,31.02L137.77,30.90L137.29,30.97"/><path style="stroke:#000000;stroke-width:0.088" d="M139.39,31.26L139.48,31.31"/><path style="stroke:#000000;stroke-width:0.088" d="M64.98,87.16L64.86,86.97L64.75,86.29L64.86,85.48L65.18,84.63L65.66,83.84L66.26,83.19L66.91,82.75L67.55,82.57L68.10,82.67L68.50,83.03L68.71,83.63L68.71,84.13L68.71,84.39L68.50,85.22L68.09,86.05L67.54,86.79L66.95,87.30L66.91,87.34L66.26,87.65L65.65,87.69L65.17,87.46L64.98,87.16"/><path style="stroke:#000000;stroke-width:0.088" d="M64.94,86.18L65.03,85.49L65.28,84.76L65.68,84.06L66.19,83.48L66.75,83.05L67.30,82.83L67.81,82.84L68.21,83.07L68.47,83.50L68.55,84.09L68.47,84.79L68.21,85.52L67.81,86.21L67.31,86.80L66.75,87.23L66.55,87.30L66.19,87.45L65.68,87.44L65.28,87.21L65.03,86.78L64.94,86.18"/><path style="stroke:#000000;stroke-width:0.088" d="M65.34,87.59L65.59,87.71"/><path style="stroke:#000000;stroke-width:0.088" d="M65.62,87.72L66.23,87.68L66.90,87.36L67.55,86.80L68.10,86.06L68.51,85.22L68.73,84.37L68.73,83.60L68.51,82.99"/><path style="stroke:#000000;stroke-width:0.088" d="M65.73,85.71L65.73,85.72L65.78,86.07L65.94,86.32L66.19,86.45L66.49,86.42L66.83,86.26L67.15,85.98L67.44,85.61L67.64,85.18L67.75,84.75L67.77,84.55L67.75,84.37L67.64,84.06L67.44,83.87L67.16,83.82L66.83,83.92L66.50,84.14L66.19,84.47L65.94,84.88L65.78,85.31L65.73,85.71"/><path style="stroke:#000000;stroke-width:0.088" d="M65.62,86.21L65.79,86.49L65.82,86.51L66.05,86.64L66.38,86.65L66.75,86.50L67.11,86.23L67.44,85.84L67.70,85.39L67.87,84.92L67.87,84.91L67.93,84.46L67.87,84.07L67.70,83.78L67.44,83.63L67.11,83.63L66.75,83.77L66.38,84.05L66.32,84.13L66.05,84.44L65.79,84.89L65.62,85.37L65.56,85.82L65.62,86.21"/><path style="stroke:#000000;stroke-width:0.088" d="M65.79,86.04L65.74,85.70"/><path style="stroke:#000000;stroke-width:0.088" d="M66.59,84.09L66.59,84.12L66.49,84.53L66.29,84.94L66.02,85.30L65.77,85.52"/><path style="stroke:#000000;stroke-width:0.088" d="M66.83,83.94L66.50,84.16L66.20,84.48L65.95,84.88L65.80,85.30L65.74,85.71"/><path style="stroke:#000000;stroke-width:0.088" d="M66.58,84.10L66.47,84.52L66.27,84.93L65.99,85.30L65.77,85.49"/><path style="stroke:#000000;stroke-width:0.088" d="M67.38,83.90L67.58,84.08L67.68,84.37L67.68,84.37L67.68,84.75L67.58,85.16L67.38,85.57L67.10,85.93L66.79,86.21L66.47,86.36L66.17,86.38L65.94,86.27"/><path style="stroke:#000000;stroke-width:0.088" d="M65.94,86.27L65.79,86.04"/><path style="stroke:#000000;stroke-width:0.088" d="M67.13,83.85L66.82,83.94"/><path style="stroke:#000000;stroke-width:0.088" d="M67.39,83.90L67.13,83.85"/><path style="stroke:#000000;stroke-width:0.088" d="M68.36,82.86L68.12,82.63"/><path style="stroke:#000000;stroke-width:0.088" d="M50.32,104.51L49.49,104.06L48.85,103.47L48.51,102.52L48.70,103.24L48.68,103.20L48.45,102.37L48.45,102.34L48.45,101.35L48.68,100.27L49.13,99.17L49.75,98.13L50.51,97.24L51.35,96.56L51.37,96.54L52.23,96.12L53.04,95.98L53.09,95.98L52.44,96.09L51.39,96.59L50.37,97.47L49.50,98.64L48.85,99.97L48.51,101.31L48.51,102.52L48.49,102.40"/><path style="stroke:#000000;stroke-width:0.088" d="M49.49,104.06L49.15,103.83L48.85,103.47L48.70,103.24"/><path style="stroke:#000000;stroke-width:0.088" d="M50.45,104.59L51.09,104.91L51.12,104.92L51.89,104.94L51.93,104.94L52.77,104.65L52.80,104.64L53.66,104.08L54.46,103.28L55.16,102.31L55.70,101.23L56.04,100.13L56.16,99.09L56.16,99.06L56.04,98.14L55.70,97.42L55.68,97.38L55.10,96.90L54.39,96.73L53.58,96.86L52.71,97.30L51.86,97.99L51.09,98.89L50.46,99.94L50.01,101.06L49.77,102.16L49.77,103.16L49.79,103.25L50.00,103.99L50.45,104.59L49.21,103.80"/><path style="stroke:#000000;stroke-width:0.088" d="M50.66,104.52L50.23,103.95L50.01,103.17L50.00,103.15L50.00,102.18L50.23,101.12L50.66,100.04L50.72,99.95L51.27,99.03L52.02,98.16L52.84,97.49L53.67,97.08L53.89,97.04L54.46,96.95L55.14,97.11L55.67,97.55L56.00,98.25L56.11,99.14L56.00,100.16L55.66,101.24L55.14,102.29L54.45,103.24L53.66,104.02L52.83,104.57L52.01,104.84L51.27,104.83L50.66,104.52"/><path style="stroke:#000000;stroke-width:0.088" d="M50.72,103.84L50.45,103.38L50.31,102.48L50.45,101.43L50.84,100.33L51.44,99.29L52.20,98.40L53.04,97.76L53.09,97.74L53.89,97.43L54.65,97.43L55.25,97.78L55.64,98.44L55.77,99.33L55.64,100.38L55.25,101.49L54.65,102.53L53.89,103.42L53.09,104.02L53.04,104.06L52.20,104.39L51.44,104.38L50.84,104.04L50.72,103.84"/><path style="stroke:#000000;stroke-width:0.088" d="M51.25,103.44L51.74,103.73L52.36,103.73L53.04,103.46L53.73,102.94L54.34,102.23L54.83,101.38L55.15,100.48L55.26,99.63L55.15,98.90L54.83,98.37L54.34,98.09L53.73,98.08L53.04,98.35L52.36,98.87L51.74,99.59L51.25,100.44L50.94,101.33L50.83,102.19L50.94,102.91L51.25,103.44"/><path style="stroke:#000000;stroke-width:0.088" d="M51.24,102.38L51.41,102.87L51.79,103.21L52.30,103.30L52.89,103.13L53.49,102.72L54.05,102.12L54.50,101.38L54.79,100.60L54.90,99.84L54.80,99.21L54.51,98.75L54.06,98.53L53.50,98.57L52.89,98.86L52.30,99.38L51.79,100.06L51.41,100.83L51.21,101.61L51.19,101.98L51.21,102.31L51.24,102.38"/><path style="stroke:#000000;stroke-width:0.088" d="M51.45,102.74L51.26,102.21"/><path style="stroke:#000000;stroke-width:0.088" d="M51.78,103.02L51.43,102.71"/><path style="stroke:#000000;stroke-width:0.088" d="M53.33,98.71L53.39,99.11L53.30,99.81L53.02,100.55L52.60,101.24L52.08,101.81L51.51,102.19L51.27,102.26"/><path style="stroke:#000000;stroke-width:0.088" d="M51.26,102.23L51.44,102.18"/><path style="stroke:#000000;stroke-width:0.088" d="M53.34,99.04L53.25,99.75L52.97,100.51L52.53,101.22L51.99,101.80L51.43,102.18"/><path style="stroke:#000000;stroke-width:0.088" d="M51.26,102.25L51.26,102.25L51.26,101.57L51.45,100.82L51.81,100.07L52.31,99.42L52.88,98.92"/><path style="stroke:#000000;stroke-width:0.088" d="M53.91,98.63L54.30,98.82L54.57,99.24L54.66,99.84L54.57,100.55L54.30,101.29L53.88,101.98L53.35,102.54L52.78,102.93L52.23,103.08L51.75,103.00"/><path style="stroke:#000000;stroke-width:0.088" d="M52.27,96.14L52.44,96.09L53.40,96.02L54.17,96.40L53.80,96.15L53.40,96.02L53.09,95.98"/><path style="stroke:#000000;stroke-width:0.088" d="M53.96,98.63L53.43,98.66L52.87,98.93"/><path style="stroke:#000000;stroke-width:0.088" d="M53.34,99.06L53.29,98.73"/><path style="stroke:#000000;stroke-width:0.088" d="M53.80,96.22L55.10,96.90"/><path style="stroke:#000000;stroke-width:0.088" d="M54.17,96.40L54.31,96.49"/><path style="stroke:#000000;stroke-width:0.088" d="M72.81,117.46L72.77,117.38L72.65,116.37L72.77,115.23L73.13,114.02L73.70,112.84L74.45,111.74L75.31,110.83L76.24,110.15L77.17,109.76L78.04,109.67L78.45,109.80L78.00,109.66L77.96,109.66L77.10,109.75L76.17,110.14L76.15,110.15L75.23,110.82L74.38,111.72L73.64,112.80L73.08,113.97L72.72,115.16L72.60,116.29L72.60,116.32L72.72,117.32L73.08,118.11L73.10,118.14L73.70,118.70L73.13,118.17L72.81,117.46"/><path style="stroke:#000000;stroke-width:0.088" d="M73.70,118.70L75.78,119.90L75.21,119.37L74.86,118.58L74.73,117.58L74.86,116.43L75.02,115.87L75.22,115.23L75.79,114.04L76.53,112.95L76.87,112.59L77.40,112.03L78.33,111.36L79.26,110.96L80.12,110.88L80.87,111.11L78.78,109.90L78.45,109.80L78.78,109.90"/><path style="stroke:#000000;stroke-width:0.088" d="M75.05,118.25L75.08,118.55L75.43,119.32L75.98,119.83L76.70,120.05L77.54,119.97L78.44,119.59L79.34,118.93L80.18,118.05L80.90,116.99L81.45,115.84L81.80,114.68L81.84,114.29L81.92,113.57L81.80,112.60L81.45,111.83L80.90,111.32L80.18,111.09L79.34,111.18L78.45,111.55L78.44,111.56L77.54,112.21L76.71,113.10L75.99,114.15L75.43,115.30L75.08,116.47L74.97,117.58L75.05,118.25"/><path style="stroke:#000000;stroke-width:0.088" d="M75.28,117.60L75.26,117.41L75.41,116.19L75.86,114.90L76.57,113.68L77.46,112.64L78.44,111.89L79.43,111.51L80.31,111.52L81.02,111.92L81.47,112.69L81.63,113.73L81.47,114.96L81.02,116.25L80.31,117.47L79.43,118.50L78.44,119.25L77.66,119.56L77.46,119.64L76.57,119.63L75.86,119.22L75.41,118.46L75.28,117.60"/><path style="stroke:#000000;stroke-width:0.088" d="M75.78,119.90L76.57,120.15L76.61,120.15L77.47,120.06L78.39,119.67L78.42,119.65L79.33,118.99L80.19,118.08L80.92,117.01L81.49,115.84L81.84,114.65L81.96,113.52L81.96,113.49L81.84,112.49L81.49,111.70L81.47,111.67L80.87,111.11"/><path style="stroke:#000000;stroke-width:0.088" d="M76.81,118.25L76.62,118.15L76.30,117.61L76.19,116.87L76.30,116.01L76.62,115.10L77.12,114.24L77.75,113.51L78.44,112.98L79.14,112.70L79.76,112.71L80.26,113.00L80.58,113.54L80.69,114.28L80.59,115.08L80.58,115.14L80.26,116.05L79.76,116.91L79.14,117.64L78.44,118.17L77.75,118.44L77.12,118.44L76.81,118.25"/><path style="stroke:#000000;stroke-width:0.088" d="M76.81,117.53L77.18,117.87L77.69,117.96L77.77,117.94L78.29,117.80L78.89,117.39L79.45,116.78L79.90,116.05L80.19,115.26L80.22,115.08L80.30,114.51L80.20,113.87L79.91,113.42L79.46,113.20L78.90,113.23L78.29,113.53L77.70,114.04L77.66,114.09L77.19,114.72L76.81,115.49L76.61,116.27L76.59,116.64L76.61,116.98L76.81,117.53"/><path style="stroke:#000000;stroke-width:0.088" d="M77.18,117.69L76.83,117.37"/><path style="stroke:#000000;stroke-width:0.088" d="M76.84,117.40L76.66,116.88"/><path style="stroke:#000000;stroke-width:0.088" d="M76.66,116.91L76.66,116.23L76.85,115.48L76.87,115.44L77.21,114.74L77.70,114.08L78.27,113.59"/><path style="stroke:#000000;stroke-width:0.088" d="M77.90,113.92L77.88,114.01L77.61,114.75L77.19,115.44L76.74,115.92"/><path style="stroke:#000000;stroke-width:0.088" d="M76.77,115.79L77.12,115.41L77.55,114.70L77.82,113.98"/><path style="stroke:#000000;stroke-width:0.088" d="M79.31,113.29L79.70,113.48L79.97,113.91L80.06,114.50L79.97,115.21L79.70,115.95L79.27,116.64L78.75,117.21L78.18,117.59L77.63,117.75L77.15,117.66"/><path style="stroke:#000000;stroke-width:0.088" d="M79.36,113.29L78.83,113.33L78.27,113.59"/><path style="stroke:#000000;stroke-width:0.088" d="M49.08,48.50L49.18,48.53L49.26,48.53L49.32,48.48L49.36,48.40L49.37,48.32L49.37,48.29L49.34,48.17L49.29,48.04L49.21,47.93L49.12,47.84L49.02,47.79L48.93,47.77L48.85,47.80L48.80,47.87L48.78,47.96L48.79,48.08L48.83,48.21L48.90,48.33L48.98,48.43L49.08,48.50L49.13,48.53L49.25,48.57L49.33,48.56L49.35,48.56L49.42,48.51L49.46,48.41L49.47,48.32L49.47,48.28L49.44,48.14L49.38,47.99L49.28,47.86L49.18,47.76L49.06,47.69L48.97,47.68L48.95,47.68L48.87,47.71L50.68,46.66L50.77,46.64L50.88,46.66L50.99,46.73L51.10,46.83L51.19,46.97L51.25,47.12L51.27,47.26L51.28,47.28L51.26,47.38L51.21,47.48L51.14,47.53L49.35,48.56"/><path style="stroke:#000000;stroke-width:0.088" d="M48.78,47.96L48.78,47.90L48.80,47.79L48.87,47.71"/><path style="stroke:#000000;stroke-width:0.088" d="M50.27,48.03L50.60,48.38L51.03,48.68L51.46,48.80L51.83,48.74L52.10,48.49L52.24,48.10L52.24,47.59L52.10,47.03L51.83,46.48L51.47,45.99L51.04,45.62L50.60,45.40L50.20,45.37L49.88,45.53L49.67,45.85L49.60,46.31L49.67,46.85L49.79,47.18"/><path style="stroke:#000000;stroke-width:0.088" d="M52.01,48.81L53.70,47.84L54.01,47.61L54.19,47.20L54.22,46.67L54.10,46.10L54.09,46.07L53.83,45.46L53.44,44.91L52.99,44.48L52.51,44.22L52.07,44.15L51.70,44.28L49.96,45.28L49.88,45.35L49.70,45.61L49.65,45.70L49.63,45.74L49.55,46.23L49.55,46.26L49.62,46.83L49.76,47.19"/><path style="stroke:#000000;stroke-width:0.088" d="M50.24,48.04L50.60,48.44L51.06,48.75L51.09,48.76L51.55,48.90L51.59,48.90L51.96,48.84L51.99,48.83L52.27,48.61L52.36,48.41L52.45,48.21L52.49,47.85L52.48,47.68L52.36,47.07L52.09,46.46L51.71,45.91L51.70,45.91L51.25,45.48L50.77,45.22L50.33,45.15L50.23,45.18L49.96,45.28"/><path style="stroke:#000000;stroke-width:0.088" d="M51.70,44.28L52.02,44.14L52.07,44.14L52.50,44.18L52.97,44.40L52.99,44.42L53.44,44.81L53.83,45.32L54.11,45.90L54.26,46.49L54.26,47.06L54.10,47.49L54.08,47.53L54.01,47.61L54.00,47.62L53.79,47.79L53.70,47.84"/><path style="stroke:#000000;stroke-width:0.088" d="M12.63,68.25L12.56,67.98L12.56,67.47L12.70,67.07L12.97,66.83L13.34,66.76L13.47,66.80L13.76,66.88L14.20,67.18L14.60,67.61L14.92,68.14L15.13,68.71L15.21,69.25L15.13,69.71L14.93,70.03L14.60,70.19L14.20,70.16L13.77,69.95L13.34,69.58L12.97,69.10L12.70,68.54L12.63,68.25"/><path style="stroke:#000000;stroke-width:0.088" d="M14.68,65.65L14.78,65.60L15.06,65.54L14.68,65.65L12.94,66.65L12.69,66.91L12.67,66.95L12.51,67.37L12.52,67.94L12.67,68.53L12.95,69.11L13.34,69.63L13.78,70.01L13.81,70.03L14.28,70.25L14.71,70.28L14.75,70.28L14.85,70.25L15.06,70.14L14.85,70.25"/><path style="stroke:#000000;stroke-width:0.088" d="M12.94,66.65L12.98,66.64L13.33,66.54L13.78,66.64"/><path style="stroke:#000000;stroke-width:0.088" d="M13.33,66.54L13.33,66.54"/><path style="stroke:#000000;stroke-width:0.088" d="M15.43,69.14L15.33,68.55L15.08,67.93L15.06,67.91L14.71,67.37L14.26,66.93L13.78,66.64"/><path style="stroke:#000000;stroke-width:0.088" d="M17.07,67.54L17.17,68.14L17.13,68.63L17.12,68.66L16.92,69.04L16.59,69.25L15.06,70.14L15.10,70.11L15.18,70.05L15.39,69.66L15.44,69.25L15.44,69.15"/><path style="stroke:#000000;stroke-width:0.088" d="M15.06,65.54L15.07,65.54L15.52,65.64L16.00,65.92L16.44,66.37L16.63,66.66L16.81,66.93L17.07,67.54"/><path style="stroke:#000000;stroke-width:0.088" d="M15.07,65.54L15.17,65.53L15.22,65.53L15.67,65.66L15.70,65.68L16.16,65.99L16.58,66.44L16.92,67.00L17.14,67.59L17.22,68.16L17.22,68.19L17.14,68.68L17.13,68.72L16.92,69.04L16.90,69.07L16.59,69.25"/><path style="stroke:#000000;stroke-width:0.088" d="M16.53,66.38L17.39,65.88L17.49,65.85L17.60,65.88L17.71,65.95L17.82,66.05L17.91,66.19L17.97,66.34L17.99,66.48L17.98,66.60L17.93,66.70L17.85,66.75L17.01,67.23"/><path style="stroke:#000000;stroke-width:0.088" d="M17.60,65.88L17.65,65.91L17.75,65.97"/><path style="stroke:#000000;stroke-width:0.088" d="M17.75,65.97L17.84,66.06L17.92,66.18L17.97,66.30L17.99,66.42L17.99,66.48"/><path style="stroke:#000000;stroke-width:0.088" d="M66.76,77.12L66.35,76.88L65.16,76.45L63.72,76.64L62.69,77.11L62.18,77.44L60.69,78.76L59.40,80.47L58.43,82.41L57.88,84.39L57.79,86.21L57.87,86.51L58.19,87.70L59.03,88.71L59.43,88.95L58.60,87.94L58.20,86.45L58.28,84.62L58.83,82.65L59.43,81.45L59.80,80.70L61.10,78.99L62.59,77.67L63.10,77.35L64.12,76.88L65.56,76.69L66.76,77.12L67.60,78.12L67.74,78.65"/><path style="stroke:#000000;stroke-width:0.088" d="M61.71,89.31L59.84,88.23L59.08,87.27L58.76,85.84L58.75,85.54L58.91,84.12L59.16,83.33L59.51,82.27L60.50,80.51L61.77,79.02L61.81,78.99L63.19,77.96L64.59,77.46L65.84,77.56L67.81,78.69"/><path style="stroke:#000000;stroke-width:0.088" d="M59.43,88.95L60.42,89.30"/><path style="stroke:#000000;stroke-width:0.088" d="M63.08,91.05L62.68,90.82L61.84,89.81L61.44,88.32L61.53,86.50L62.08,84.52L63.05,82.58L64.34,80.86L65.83,79.54L67.37,78.75L68.81,78.56L70.00,78.99L70.41,79.22L69.21,78.79L67.77,78.98L66.75,79.45L66.24,79.78L64.75,81.10L63.66,82.54L63.45,82.81L62.48,84.75L61.93,86.73L61.85,88.56L62.25,90.04L63.08,91.05L63.40,91.17L64.28,91.48L65.72,91.29L67.26,90.50L68.75,89.18L70.04,87.47L71.01,85.52L71.56,83.54L71.64,81.72L71.25,80.23L70.41,79.22"/><path style="stroke:#000000;stroke-width:0.088" d="M64.85,87.02L64.82,86.97L64.72,86.26L64.84,85.43L65.17,84.57L65.67,83.77L66.29,83.12L66.96,82.69L67.60,82.52L68.15,82.64L68.55,83.03L68.75,83.64L68.74,84.42L68.51,85.28L68.09,86.12L67.52,86.85L66.96,87.33L66.87,87.40L66.75,87.48L66.21,87.71L65.60,87.73L65.12,87.48L64.85,87.02"/><path style="stroke:#000000;stroke-width:0.088" d="M76.00,92.08L75.84,91.85L75.78,91.52L75.81,91.27L75.83,91.12L75.98,90.70L76.21,90.31L76.51,89.98L76.77,89.79L76.83,89.75L77.14,89.66L77.42,89.69L77.75,89.89L77.48,89.85L77.16,89.95L77.10,89.98L76.84,90.17L76.55,90.50L76.31,90.89L76.18,91.27L76.17,91.31L76.12,91.71L76.18,92.04L76.34,92.28L76.00,92.08"/><path style="stroke:#000000;stroke-width:0.088" d="M81.21,91.88L77.88,89.96L77.61,89.92L77.29,90.02L77.23,90.05L76.97,90.25L76.67,90.57L76.44,90.97L76.29,91.39L76.25,91.78L76.31,92.12L76.47,92.35L79.83,94.29"/><path style="stroke:#000000;stroke-width:0.088" d="M77.60,89.93L77.41,89.92L77.10,90.04L76.80,90.27L76.52,90.60L76.32,90.98L76.19,91.38L76.17,91.75L76.24,92.05L76.33,92.15"/><path style="stroke:#000000;stroke-width:0.088" d="M76.34,92.28L76.45,92.32"/><path style="stroke:#000000;stroke-width:0.088" d="M77.64,89.93L77.68,89.93L77.69,89.93"/><path style="stroke:#000000;stroke-width:0.088" d="M77.83,89.96L77.75,89.89"/><path style="stroke:#000000;stroke-width:0.088" d="M84.81,92.73L82.72,91.52L82.25,91.42L81.70,91.57L81.13,91.94L80.60,92.49L80.17,93.18L79.89,93.92L79.78,94.63L79.86,95.23L80.12,95.67L82.21,96.87L81.95,96.44L81.89,96.03L81.87,95.83L81.97,95.12L82.25,94.38L82.68,93.70L83.21,93.14L83.78,92.77L84.33,92.63L84.81,92.73L85.15,93.06L85.32,93.59L85.32,93.97"/><path style="stroke:#000000;stroke-width:0.088" d="M82.21,96.87L82.62,97.09L83.14,97.07L83.60,96.88L83.71,96.81"/><path style="stroke:#000000;stroke-width:0.088" d="M86.45,94.63L84.41,93.44L84.09,93.38L83.72,93.47L83.34,93.72L82.99,94.09L82.70,94.55L82.52,95.04L82.49,95.24L82.44,95.51L82.50,95.91L82.67,96.21L84.79,97.44L84.60,97.16L84.53,96.77L84.58,96.30L84.76,95.81L85.03,95.35L85.08,95.30L85.38,94.96L85.76,94.70L86.13,94.58L86.45,94.63L86.70,94.83L86.83,95.17"/><path style="stroke:#000000;stroke-width:0.088" d="M84.79,97.44L85.08,97.56L85.43,97.53L85.69,97.41L85.80,97.35L85.57,97.45L85.25,97.48L85.00,97.37L84.83,97.12L84.76,96.77L84.81,96.35L84.97,95.90L85.22,95.49L85.53,95.14L85.87,94.90L86.20,94.80L86.49,94.84L86.71,95.02L86.83,95.33L86.84,95.72L86.73,96.16L86.53,96.59L86.24,96.98L85.91,97.28L85.80,97.35"/><path style="stroke:#000000;stroke-width:0.088" d="M85.38,96.83L85.45,96.87L85.61,96.88L85.80,96.81L85.99,96.67L86.16,96.47L86.29,96.23L86.37,95.99L86.38,95.82L86.38,95.76L86.34,95.57L86.23,95.44L86.08,95.39L85.90,95.42L85.80,95.47L85.71,95.53L85.53,95.71L85.38,95.93L85.28,96.17L85.23,96.41L85.24,96.63L85.32,96.78L85.38,96.83"/><path style="stroke:#000000;stroke-width:0.088" d="M85.76,95.50L85.80,95.48L85.95,95.46L86.08,95.50L86.17,95.60L86.21,95.76L86.19,95.96L86.13,96.17L86.02,96.37L85.87,96.54L85.71,96.66L85.55,96.72L85.41,96.71L85.30,96.64L85.24,96.50L85.23,96.39"/><path style="stroke:#000000;stroke-width:0.088" d="M86.84,95.72L86.84,95.60L86.83,95.61"/><path style="stroke:#000000;stroke-width:0.088" d="M86.84,95.60L86.83,95.17"/><path style="stroke:#000000;stroke-width:0.088" d="M19.13,64.29L19.13,62.16L23.77,64.84L23.77,67.11L19.13,64.44L19.13,64.22"/><path style="stroke:#000000;stroke-width:0.088" d="M19.13,63.49L19.13,63.45"/><path style="stroke:#000000;stroke-width:0.088" d="M19.13,62.16L19.13,61.50L19.13,61.78"/><path style="stroke:#000000;stroke-width:0.088" d="M23.77,64.84L24.93,64.84L25.36,64.59L48.68,51.13L48.68,50.46L44.04,47.78L42.89,47.78L19.13,61.50L19.13,61.71"/><path style="stroke:#000000;stroke-width:0.088" d="M21.79,64.27L21.80,64.29L21.78,64.17L21.73,64.02L21.64,63.88L21.54,63.77L21.43,63.69L21.31,63.66L21.22,63.67L21.17,63.71L21.15,63.73L21.11,63.84L21.10,63.90L21.11,63.97L21.14,64.11L21.21,64.26L21.31,64.39L21.42,64.49L21.53,64.54L21.64,64.55L21.72,64.51L21.78,64.43L21.80,64.31L21.80,64.29L21.78,64.35L21.73,64.42L21.66,64.45L21.57,64.45L21.48,64.40L21.38,64.32L21.30,64.21L21.24,64.08L21.21,63.96L21.21,63.90L21.21,63.85L21.24,63.76L21.31,63.71L21.39,63.69L21.47,63.72"/><path style="stroke:#000000;stroke-width:0.088" d="M23.77,67.11L24.93,67.11L24.93,64.84"/><path style="stroke:#000000;stroke-width:0.088" d="M24.93,67.11L30.72,63.77L30.72,65.64L38.83,60.96L38.83,59.09L48.68,53.40L48.68,53.17L48.68,53.34"/><path style="stroke:#000000;stroke-width:0.088" d="M27.59,57.17L27.44,57.19L27.31,57.25L27.21,57.32L27.16,57.41L27.17,57.50L27.22,57.59L27.33,57.66L27.47,57.71L27.62,57.73L27.78,57.72L27.93,57.68L28.00,57.65L28.05,57.62L28.12,57.53L28.14,57.44L28.11,57.35L28.03,57.27L27.91,57.21L27.76,57.17L27.59,57.17"/><path style="stroke:#000000;stroke-width:0.088" d="M27.97,57.66L28.05,57.58L28.07,57.50L28.04,57.43L27.97,57.36L27.87,57.30L27.74,57.27L27.60,57.27L27.47,57.29L27.36,57.34L27.28,57.40L27.24,57.48L27.24,57.56L27.29,57.63L27.34,57.67"/><path style="stroke:#000000;stroke-width:0.088" d="M29.10,64.71L30.72,65.64"/><path style="stroke:#000000;stroke-width:0.088" d="M31.61,60.14L31.51,60.07L31.45,59.98L31.45,59.89L31.50,59.80L31.59,59.72L31.73,59.67L31.88,59.64L32.04,59.65L32.19,59.68L32.31,59.74L32.40,59.82L32.43,59.91L32.41,60.01L32.39,60.02L32.33,60.09L32.28,60.12L32.22,60.16L32.07,60.20L31.91,60.21L31.75,60.19L31.61,60.14"/><path style="stroke:#000000;stroke-width:0.088" d="M32.33,60.09L32.27,60.13L32.33,60.06L32.35,59.98L32.33,59.90L32.26,59.83L32.23,59.81L32.16,59.78L32.03,59.75L31.89,59.74L31.76,59.77L31.64,59.81L31.56,59.88L31.52,59.95L31.53,60.03L31.57,60.10L31.63,60.14"/><path style="stroke:#000000;stroke-width:0.088" d="M31.58,54.79L31.45,54.85L31.37,54.93L31.33,55.02L31.35,55.12L31.36,55.13L31.41,55.20L31.53,55.27L31.67,55.31L31.83,55.32L31.99,55.31L32.13,55.26L32.24,55.19L32.30,55.10L32.31,55.01L32.27,54.92L32.18,54.84L32.05,54.79L31.89,54.76L31.73,54.76L31.58,54.79"/><path style="stroke:#000000;stroke-width:0.088" d="M31.48,55.24L31.42,55.16L31.40,55.09L31.43,55.01L31.51,54.94L31.61,54.89L31.74,54.86L31.88,54.86L32.01,54.89L32.12,54.93L32.20,55.00L32.24,55.08L32.23,55.15L32.17,55.23L32.12,55.26"/><path style="stroke:#000000;stroke-width:0.088" d="M32.27,60.13L32.24,60.15"/><path style="stroke:#000000;stroke-width:0.088" d="M35.63,57.57L35.62,57.48L35.67,57.39L35.76,57.31L35.90,57.26L36.05,57.23L36.21,57.24L36.36,57.27L36.45,57.32L36.49,57.33L36.57,57.41L36.60,57.51L36.58,57.60L36.50,57.68L36.45,57.72L36.39,57.75L36.24,57.79L36.08,57.80L35.92,57.78L35.79,57.73L35.68,57.66L35.63,57.57"/><path style="stroke:#000000;stroke-width:0.088" d="M36.43,57.73L36.50,57.65L36.52,57.57L36.50,57.49L36.43,57.42L36.33,57.37L36.20,57.34L36.06,57.34L35.93,57.36L35.81,57.40L35.73,57.47L35.69,57.54L35.70,57.62L35.75,57.70L35.80,57.74"/><path style="stroke:#000000;stroke-width:0.088" d="M48.68,53.17L48.68,52.38L48.68,53.17"/><path style="stroke:#000000;stroke-width:0.088" d="M48.68,52.38L48.68,51.13"/><path style="stroke:#000000;stroke-width:0.088" d="M48.68,50.51L48.68,51.59L48.68,51.30"/><path style="stroke:#000000;stroke-width:0.088" d="M25.22,76.19L25.22,76.28L25.71,76.56L25.94,76.61L26.23,76.75L26.58,77.07L29.64,78.84L29.88,78.88L30.17,79.03L30.52,79.34L31.01,79.63L31.01,78.89L25.22,75.55L25.22,76.19"/><path style="stroke:#000000;stroke-width:0.088" d="M25.22,75.55L25.35,75.13L31.14,78.48L31.01,78.89"/><path style="stroke:#000000;stroke-width:0.088" d="M31.14,78.48L31.45,78.30L30.83,77.94L30.70,77.92L30.49,77.85L30.33,77.74L30.23,77.62L30.22,77.59L26.89,75.66L26.76,75.64L26.55,75.58L26.39,75.47L26.29,75.34L26.29,75.32L25.66,74.95L25.35,75.13"/><path style="stroke:#000000;stroke-width:0.088" d="M25.95,75.12L26.38,74.88L26.87,75.16L26.67,75.20L26.48,75.28L26.34,75.40L26.34,75.41"/><path style="stroke:#000000;stroke-width:0.088" d="M26.55,75.58L26.81,75.53L27.27,75.53L27.69,75.62"/><path style="stroke:#000000;stroke-width:0.088" d="M26.46,75.52L26.48,75.50L26.67,75.41L26.91,75.37L27.15,75.37L27.38,75.42L27.53,75.49L27.56,75.51L27.69,75.63L27.72,75.70"/><path style="stroke:#000000;stroke-width:0.088" d="M26.38,74.88L26.51,74.46L27.13,74.82L26.87,75.16"/><path style="stroke:#000000;stroke-width:0.088" d="M26.51,74.46L26.82,74.29L32.61,77.63L32.30,77.81L32.17,78.22L31.67,77.94L31.66,77.97L31.56,78.09L31.39,78.19L31.31,78.22"/><path style="stroke:#000000;stroke-width:0.088" d="M27.37,75.94L27.45,75.92L27.62,75.82L27.72,75.69L27.74,75.66L27.74,75.17L27.69,75.08L27.56,74.96L27.38,74.87L27.13,74.82"/><path style="stroke:#000000;stroke-width:0.088" d="M27.53,74.21L33.33,77.55L33.46,77.14L27.67,73.80L27.53,74.21L27.11,74.45"/><path style="stroke:#000000;stroke-width:0.088" d="M27.67,73.80L27.98,73.62L33.77,76.96L33.91,77.22L34.49,76.88L28.69,73.54L28.83,73.13L29.14,72.95L34.93,76.29L34.62,76.47L34.49,76.88"/><path style="stroke:#000000;stroke-width:0.088" d="M27.74,75.17L31.07,77.10L31.32,77.15L31.50,77.24L31.63,77.36L31.68,77.45L32.30,77.81"/><path style="stroke:#000000;stroke-width:0.088" d="M27.74,75.66L30.81,77.44L31.07,77.10"/><path style="stroke:#000000;stroke-width:0.088" d="M28.27,73.78L28.69,73.54"/><path style="stroke:#000000;stroke-width:0.088" d="M28.83,73.13L34.62,76.47"/><path style="stroke:#000000;stroke-width:0.088" d="M34.93,76.29L35.06,76.55L35.64,76.21L35.78,75.80L36.09,75.62L30.30,72.28L29.99,72.46L29.85,72.87L29.43,73.11"/><path style="stroke:#000000;stroke-width:0.088" d="M35.64,76.21L29.85,72.87"/><path style="stroke:#000000;stroke-width:0.088" d="M29.99,72.46L35.78,75.80"/><path style="stroke:#000000;stroke-width:0.088" d="M30.40,77.79L30.42,77.77L30.61,77.69L30.84,77.65L31.09,77.65L31.32,77.70L31.47,77.77L31.50,77.79L31.63,77.90L31.66,77.97"/><path style="stroke:#000000;stroke-width:0.088" d="M31.62,77.90L31.21,77.81L30.75,77.80L30.49,77.85"/><path style="stroke:#000000;stroke-width:0.088" d="M30.81,77.44L30.61,77.48L30.42,77.56L30.28,77.67L30.28,77.68"/><path style="stroke:#000000;stroke-width:0.088" d="M31.01,72.20L31.14,71.79L36.94,75.13L36.80,75.55L31.01,72.20L30.58,72.45"/><path style="stroke:#000000;stroke-width:0.088" d="M31.01,79.63L31.58,79.30L31.74,79.16L32.05,78.99L32.18,78.95L37.37,75.95L37.54,75.81L37.85,75.64L37.97,75.61L38.54,75.28L38.54,74.54L38.41,74.29L38.10,74.46L37.47,74.10L37.43,74.01L37.30,73.89L37.11,73.80L36.87,73.75L33.53,71.83L33.53,72.32L33.52,72.35L33.41,72.47L33.25,72.58L33.17,72.60"/><path style="stroke:#000000;stroke-width:0.088" d="M31.67,77.94L31.68,77.45"/><path style="stroke:#000000;stroke-width:0.088" d="M31.45,78.30L31.59,78.56L32.17,78.22"/><path style="stroke:#000000;stroke-width:0.088" d="M31.14,71.79L31.45,71.61L32.08,71.97L32.09,72.00L32.18,72.13L32.34,72.23L32.55,72.30L32.68,72.32L36.02,74.24L36.03,74.27L36.12,74.40L36.28,74.50L36.49,74.57L36.62,74.59L37.25,74.95L36.94,75.13"/><path style="stroke:#000000;stroke-width:0.088" d="M32.35,72.23L32.61,72.18L33.06,72.19L33.43,72.25L33.46,72.26"/><path style="stroke:#000000;stroke-width:0.088" d="M31.74,71.78L32.17,71.53L32.66,71.82L32.93,71.48L33.17,71.53L33.36,71.62L33.49,71.74L33.53,71.83"/><path style="stroke:#000000;stroke-width:0.088" d="M32.17,71.53L32.30,71.12L32.61,70.94L38.41,74.29"/><path style="stroke:#000000;stroke-width:0.088" d="M32.66,71.82L32.47,71.86L32.27,71.94L32.14,72.06L32.13,72.06"/><path style="stroke:#000000;stroke-width:0.088" d="M33.51,72.35L33.49,72.28L33.36,72.17L33.33,72.15L33.17,72.08L32.94,72.03L32.70,72.03L32.47,72.07L32.27,72.15L32.25,72.17"/><path style="stroke:#000000;stroke-width:0.088" d="M32.30,71.12L32.93,71.48"/><path style="stroke:#000000;stroke-width:0.088" d="M32.61,77.63L32.75,77.89L33.33,77.55"/><path style="stroke:#000000;stroke-width:0.088" d="M33.46,77.14L33.77,76.96"/><path style="stroke:#000000;stroke-width:0.088" d="M33.53,72.32L36.60,74.09L36.87,73.75"/><path style="stroke:#000000;stroke-width:0.088" d="M36.09,75.62L36.22,75.88L36.80,75.55"/><path style="stroke:#000000;stroke-width:0.088" d="M36.60,74.09L36.41,74.13L36.21,74.21L36.08,74.33L36.07,74.33"/><path style="stroke:#000000;stroke-width:0.088" d="M37.45,74.63L37.43,74.56L37.30,74.44L37.27,74.42L37.11,74.35L36.88,74.30L36.64,74.30L36.41,74.34L36.21,74.43L36.19,74.45"/><path style="stroke:#000000;stroke-width:0.088" d="M37.39,74.53L37.37,74.52L37.00,74.46L36.55,74.46L36.29,74.51"/><path style="stroke:#000000;stroke-width:0.088" d="M37.25,74.96L37.38,75.21L37.96,74.88L38.10,74.46"/><path style="stroke:#000000;stroke-width:0.088" d="M37.96,74.88L37.47,74.59L37.46,74.62L37.35,74.75L37.19,74.85L37.11,74.87"/><path style="stroke:#000000;stroke-width:0.088" d="M37.47,74.10L37.47,74.59"/><path style="stroke:#000000;stroke-width:0.088" d="M24.27,81.19L24.07,80.39L23.62,79.86L22.98,79.65L22.20,79.79L21.79,79.99L21.38,80.27L20.60,81.02L19.96,81.98L19.51,83.03L19.31,84.07L19.38,84.97L19.71,85.65L20.26,86.02L20.99,86.05L21.79,85.74L22.60,85.12L22.98,84.66L23.32,84.25L23.88,83.23L24.21,82.17L24.27,81.19L24.27,81.05L24.06,80.21L23.59,79.65L22.91,79.44L22.10,79.58L21.52,79.92L21.24,80.08L20.43,80.87L19.76,81.87L19.29,82.97L19.08,84.05L19.15,85.00L19.39,85.48L19.50,85.71L20.08,86.10L18.85,85.42L18.34,84.93L18.08,84.13L18.09,83.13L18.39,82.03L18.93,80.95L19.66,80.00L20.50,79.30L20.60,79.23L20.39,79.36L19.59,80.04L18.89,80.94L18.38,81.97L18.09,83.02L18.08,83.98L18.08,84.13"/><path style="stroke:#000000;stroke-width:0.088" d="M18.19,83.91L18.17,83.88L18.17,83.73L18.21,83.60L18.30,83.52L18.41,83.49L18.43,83.49L18.54,83.51L18.67,83.59L18.78,83.72L18.87,83.88L18.93,84.04L18.95,84.20L18.95,84.24L18.94,84.37L18.88,84.46L18.80,84.50L18.69,84.49L18.56,84.43L18.43,84.33L18.32,84.19L18.23,84.04L18.19,83.91"/><path style="stroke:#000000;stroke-width:0.088" d="M18.72,84.50L18.92,84.39"/><path style="stroke:#000000;stroke-width:0.088" d="M18.89,84.45L18.82,84.49"/><path style="stroke:#000000;stroke-width:0.088" d="M20.08,86.10L20.83,86.13L21.68,85.81"/><path style="stroke:#000000;stroke-width:0.088" d="M23.14,80.45L23.00,80.37L22.43,80.35L21.79,80.59L21.15,81.08L20.58,81.77L20.14,82.57L19.88,83.41L19.83,84.19L19.99,84.82L20.34,85.24L20.48,85.32L20.13,84.90L19.97,84.27L20.02,83.49L20.28,82.65L20.72,81.85L21.29,81.16L21.93,80.67L22.57,80.43L23.14,80.45L23.58,80.75L23.84,81.29L23.89,82.00L23.77,82.62L23.73,82.82L23.38,83.65L22.87,84.41L22.25,85.00L21.93,85.22L21.60,85.38L20.99,85.49L20.48,85.32"/><path style="stroke:#000000;stroke-width:0.088" d="M20.60,84.99L20.34,84.67L20.20,84.11L20.25,83.42L20.48,82.69L20.87,81.98L21.37,81.37L21.93,80.94L22.50,80.72L23.00,80.75L23.39,81.01L23.62,81.48L23.64,81.75L23.66,82.12L23.52,82.84L23.21,83.57L22.76,84.24L22.21,84.76L21.93,84.95L21.64,85.09L21.10,85.19L20.65,85.04L20.60,84.99"/><path style="stroke:#000000;stroke-width:0.088" d="M22.24,80.82L22.27,81.31L22.13,82.03L21.82,82.77L21.37,83.43L20.82,83.96L20.54,84.15L20.25,84.29L20.24,84.29"/><path style="stroke:#000000;stroke-width:0.088" d="M20.60,79.23L20.66,79.20L21.35,78.91L22.13,78.88L23.59,79.65"/><path style="stroke:#000000;stroke-width:0.088" d="M21.68,85.81L21.79,85.74"/><path style="stroke:#000000;stroke-width:0.088" d="M21.91,83.44L21.97,83.58L22.00,83.60L22.07,83.67L22.20,83.72L22.37,83.73L22.53,83.68L22.68,83.58L22.79,83.44L22.85,83.29L22.87,83.13L22.84,82.97L22.76,82.82L22.65,82.72L22.52,82.67L22.39,82.67L22.25,82.73L22.12,82.83L22.01,82.97L21.93,83.14L21.93,83.15L21.90,83.29L21.91,83.44"/><path style="stroke:#000000;stroke-width:0.088" d="M22.04,79.27L22.00,79.26L21.87,79.20L21.78,79.14L21.73,79.07L21.73,79.01L21.73,79.01L21.77,78.96L21.85,78.94L21.93,78.95L22.07,78.97L22.22,79.01L22.35,79.07L22.41,79.10L22.47,79.13L22.58,79.19L22.65,79.25L22.67,79.29L22.64,79.33L22.56,79.34L22.45,79.35L22.30,79.33L22.14,79.30L22.04,79.27"/><path style="stroke:#000000;stroke-width:0.088" d="M22.86,83.09L22.75,83.17L22.64,83.30L22.62,83.34L22.55,83.51L22.52,83.68L22.52,83.68"/><path style="stroke:#000000;stroke-width:0.088" d="M67.06,113.23L66.85,113.12L66.71,113.06L66.62,113.00L66.57,112.97L66.47,112.88"/><path style="stroke:#000000;stroke-width:0.088" d="M68.81,106.55L68.67,106.62L68.26,106.82L67.85,107.09L67.08,107.85L66.43,108.80L65.98,109.85L65.78,110.89L65.78,111.01L65.85,111.96L66.20,112.67L66.58,112.96L66.57,112.97"/><path style="stroke:#000000;stroke-width:0.088" d="M65.78,111.01L65.99,109.93L66.46,108.83L67.14,107.83L67.95,107.04L68.81,106.55L69.62,106.40L70.30,106.62L71.12,107.10L71.66,107.56L71.96,108.31L71.98,109.30"/><path style="stroke:#000000;stroke-width:0.088" d="M71.12,107.10L70.39,106.99L69.56,107.25L69.40,107.34L68.70,107.85L67.93,108.72L67.31,109.76L66.91,110.87L66.89,111.11L66.79,111.92L66.95,112.80L67.37,113.42L68.02,113.70L67.51,113.51L67.44,113.48L67.31,113.39L67.02,113.20L66.87,113.10L66.74,113.03L66.64,112.98L66.58,112.96L66.58,112.96"/><path style="stroke:#000000;stroke-width:0.088" d="M67.18,112.76L67.02,111.92L67.14,110.91L67.52,109.85L68.11,108.86L68.85,108.03L69.67,107.46L70.47,107.21L71.16,107.31L71.68,107.75L71.96,108.47L71.98,109.41L71.73,110.45L71.24,111.50L70.94,111.90L70.56,112.42L69.77,113.13L69.51,113.29L68.95,113.54L68.20,113.62L67.58,113.35L67.18,112.76"/><path style="stroke:#000000;stroke-width:0.088" d="M69.51,113.30L68.81,113.62L68.02,113.70"/><path style="stroke:#000000;stroke-width:0.088" d="M68.15,112.42L67.92,112.15L67.78,111.59L67.83,110.90L68.06,110.16L68.44,109.45L68.95,108.85L69.51,108.41L70.08,108.20L70.58,108.22L70.97,108.48L71.20,108.95L71.24,109.50L71.25,109.58L71.11,110.30L70.79,111.04L70.34,111.70L69.80,112.23L69.51,112.43L69.23,112.56L68.69,112.66L68.24,112.52L68.15,112.42"/><path style="stroke:#000000;stroke-width:0.088" d="M69.82,108.29L69.86,108.78L69.72,109.50L69.40,110.23L68.95,110.90L68.41,111.43L68.12,111.62L67.84,111.76L67.83,111.76"/><path style="stroke:#000000;stroke-width:0.088" d="M67.79,108.09L67.73,108.15L67.69,108.20L67.64,108.28L67.58,108.27L67.48,108.20L67.41,108.09L67.39,107.97L67.41,107.84L67.49,107.71L67.60,107.61L67.76,107.53L67.91,107.51L68.05,107.52L68.18,107.57L68.27,107.64L68.32,107.73L68.33,107.85L68.28,107.98L68.20,108.09L68.13,108.16L67.98,108.25L67.93,108.26L67.79,108.09L67.80,108.08L67.94,108.00L68.09,107.96L68.24,107.96L68.29,107.97"/><path style="stroke:#000000;stroke-width:0.088" d="M67.64,108.28L67.70,108.30L67.84,108.29L67.93,108.26"/><path style="stroke:#000000;stroke-width:0.088" d="M70.53,109.49L70.45,109.43L70.35,109.28L70.28,109.13L70.25,108.97L70.23,108.83L70.25,108.70L70.29,108.61L70.37,108.57L70.48,108.58L70.60,108.64L70.72,108.73L70.84,108.85L70.90,108.94L70.94,109.00L71.00,109.14L71.02,109.29L70.99,109.43L70.92,109.53L70.81,109.58L70.70,109.58L70.57,109.53L70.53,109.49"/><path style="stroke:#000000;stroke-width:0.088" d="M71.98,109.29L71.98,109.41"/><path style="stroke:#000000;stroke-width:0.088" d="M56.97,108.01L57.11,108.25L57.42,108.60L57.76,108.83L57.11,108.25L56.91,107.68L56.77,107.30L56.78,106.08L57.12,104.74L57.49,103.97L57.76,103.41L58.64,102.25L59.66,101.36L60.70,100.86L61.66,100.79L62.43,101.17L62.06,100.92L61.66,100.79L61.35,100.75L61.31,100.75L60.50,100.89L59.64,101.32L59.61,101.33L58.77,102.01L58.02,102.91L57.85,103.17L57.39,103.94L56.95,105.04L56.72,106.12L56.72,107.11L56.72,107.15L56.73,107.18L56.95,107.97L56.97,108.01L56.77,107.30L56.75,107.17"/><path style="stroke:#000000;stroke-width:0.088" d="M57.76,108.83L58.59,109.28"/><path style="stroke:#000000;stroke-width:0.088" d="M62.07,100.99L63.37,101.67L62.66,101.50L61.84,101.64L60.98,102.07L60.13,102.76L59.36,103.67L58.72,104.72L58.27,105.83L58.04,106.93L58.04,107.93L58.26,108.73L58.27,108.76L58.72,109.36L57.48,108.58"/><path style="stroke:#000000;stroke-width:0.088" d="M58.50,108.73L58.49,108.72L58.27,107.92L58.27,106.95L58.49,105.89L58.63,105.56L58.93,104.82L59.54,103.80L60.28,102.93L61.10,102.26L61.81,101.91L61.94,101.85L62.72,101.72L63.41,101.88L63.93,102.33L64.27,103.02L64.38,103.91L64.26,104.93L63.93,106.01L63.40,107.06L62.72,108.02L61.93,108.79L61.10,109.34L60.28,109.62L59.54,109.60L58.93,109.29L58.50,108.73"/><path style="stroke:#000000;stroke-width:0.088" d="M58.58,107.26L58.71,106.21L59.10,105.10L59.70,104.06L60.46,103.17L61.31,102.53L62.15,102.20L62.91,102.21L63.52,102.55L63.90,103.21L64.04,104.11L63.90,105.16L63.52,106.26L63.46,106.35L62.91,107.30L62.15,108.19L61.31,108.83L60.47,109.16L59.70,109.16L59.10,108.81L58.71,108.15L58.58,107.26"/><path style="stroke:#000000;stroke-width:0.088" d="M58.72,109.36L59.35,109.68L59.39,109.69L60.15,109.71L60.20,109.71L61.04,109.42L61.07,109.41L61.92,108.85L62.73,108.05L63.43,107.08L63.97,106.01L64.31,104.91L64.42,103.86L64.42,103.83L64.31,102.91L63.96,102.19L63.94,102.15L63.37,101.67"/><path style="stroke:#000000;stroke-width:0.088" d="M59.35,107.94L59.52,108.22L60.01,108.50L60.62,108.51L61.31,108.24L61.70,107.94L61.99,107.72L62.61,107.00L63.10,106.15L63.41,105.26L63.52,104.40L63.41,103.68L63.10,103.15L62.61,102.86L61.99,102.86L61.81,102.93L61.31,103.13L60.62,103.65L60.01,104.36L59.52,105.21L59.20,106.11L59.10,106.96L59.20,107.69L59.35,107.94"/><path style="stroke:#000000;stroke-width:0.088" d="M60.05,107.98L60.56,108.07L61.15,107.90L61.76,107.50L62.32,106.89L62.77,106.15L63.06,105.37L63.14,104.76L63.16,104.61L63.06,103.98L62.77,103.52L62.32,103.30L61.77,103.34L61.16,103.63L60.57,104.15L60.05,104.83L59.68,105.60L59.48,106.38L59.45,106.75L59.48,107.09L59.68,107.64L60.05,107.98"/><path style="stroke:#000000;stroke-width:0.088" d="M62.18,103.40L62.57,103.59L62.84,104.02L62.93,104.61L62.84,105.32L62.56,106.06L62.14,106.75L61.62,107.32L61.05,107.70L60.49,107.86L60.02,107.77"/><path style="stroke:#000000;stroke-width:0.088" d="M59.71,107.51L59.52,106.99"/><path style="stroke:#000000;stroke-width:0.088" d="M59.70,107.48L60.04,107.79"/><path style="stroke:#000000;stroke-width:0.088" d="M61.59,103.48L61.66,103.88L61.56,104.58L61.29,105.32L60.87,106.01L60.34,106.58L59.77,106.96L59.54,107.03"/><path style="stroke:#000000;stroke-width:0.088" d="M59.53,107.00L59.70,106.95"/><path style="stroke:#000000;stroke-width:0.088" d="M61.61,103.81L61.51,104.52L61.23,105.28L60.80,105.99L60.26,106.57L59.70,106.95"/><path style="stroke:#000000;stroke-width:0.088" d="M59.52,107.02L59.52,107.02L59.52,106.34L59.72,105.59L60.08,104.85L60.57,104.19L61.14,103.70"/><path style="stroke:#000000;stroke-width:0.088" d="M60.53,100.91L60.70,100.86L61.35,100.75"/><path style="stroke:#000000;stroke-width:0.088" d="M61.61,103.83L61.56,103.50"/><path style="stroke:#000000;stroke-width:0.088" d="M62.22,103.40L61.69,103.43L61.14,103.70"/><path style="stroke:#000000;stroke-width:0.088" d="M62.43,101.17L62.58,101.26"/><path style="stroke:#000000;stroke-width:0.088" d="M155.27,57.95L155.27,56.93L155.50,55.84L155.94,54.75L156.56,53.71L157.32,52.82L158.16,52.13L158.18,52.12L159.04,51.69L159.86,51.55L159.90,51.55L160.61,51.72L160.64,51.73L159.93,51.56L159.80,51.59L159.11,51.70L158.25,52.13L157.40,52.83L156.63,53.74L156.00,54.79L155.55,55.90L155.31,57.00L155.31,58.00L155.55,58.83L156.00,59.43L157.19,60.05"/><path style="stroke:#000000;stroke-width:0.088" d="M155.27,57.95L155.50,58.77L155.52,58.81L155.97,59.41L156.00,59.43"/><path style="stroke:#000000;stroke-width:0.088" d="M156.43,59.65L157.59,60.37L157.31,60.18L156.94,59.78L156.86,59.58L156.60,58.84L156.60,57.63"/><path style="stroke:#000000;stroke-width:0.088" d="M156.60,58.84L156.61,58.85"/><path style="stroke:#000000;stroke-width:0.088" d="M156.82,57.94L156.82,58.72L157.04,59.52L157.48,60.09L158.09,60.40L158.83,60.41L159.65,60.14L160.49,59.59L161.27,58.81L161.33,58.73L161.96,57.86L162.48,56.80L162.82,55.73L162.93,54.71L162.82,53.81L162.48,53.12L161.95,52.68L161.66,52.61L161.27,52.52L160.48,52.65L159.65,53.07L158.83,53.74L158.09,54.61L157.48,55.62L157.04,56.70L156.82,57.76L156.82,57.94"/><path style="stroke:#000000;stroke-width:0.088" d="M158.46,53.79L157.58,54.96L156.94,56.28L156.60,57.62"/><path style="stroke:#000000;stroke-width:0.088" d="M157.59,60.37L157.94,60.49L158.47,60.52L158.75,60.51L159.60,60.22L159.63,60.20L160.48,59.64L161.28,58.85L161.98,57.88L162.52,56.80L162.86,55.70L162.98,54.65L162.98,54.62L162.86,53.70L162.51,52.99L162.49,52.95L162.26,52.70L161.94,52.49L161.48,52.33L161.24,52.32L160.52,52.40L159.48,52.90"/><path style="stroke:#000000;stroke-width:0.088" d="M157.65,59.61L157.26,58.95L157.13,58.06L157.26,57.01L157.65,55.90L158.26,54.86L159.02,53.97L159.86,53.33L160.70,53.00L161.46,53.01L162.07,53.35L162.45,54.01L162.59,54.91L162.45,55.96L162.07,57.06L161.46,58.10L160.70,58.99L159.86,59.63L159.28,59.86L159.02,59.96L158.26,59.96L157.65,59.61"/><path style="stroke:#000000;stroke-width:0.088" d="M157.67,57.94L157.65,57.76L157.75,56.91L158.07,56.01L158.56,55.16L159.18,54.45L159.86,53.93L160.54,53.66L161.16,53.66L161.65,53.94L161.96,54.48L162.07,55.20L161.96,56.05L161.65,56.95L161.54,57.14L161.16,57.80L160.54,58.52L159.86,59.04L159.18,59.31L158.56,59.30L158.07,59.02L157.76,58.49L157.67,57.94"/><path style="stroke:#000000;stroke-width:0.088" d="M158.23,58.44L158.61,58.78L159.12,58.87L159.61,58.73L159.71,58.70L160.32,58.29L160.88,57.68L161.32,56.95L161.61,56.16L161.71,55.41L161.61,54.77L161.32,54.32L160.87,54.10L160.31,54.14L159.70,54.44L159.11,54.95L158.60,55.63L158.23,56.41L158.03,57.19L158.03,57.89L158.23,58.44"/><path style="stroke:#000000;stroke-width:0.088" d="M158.60,58.59L158.25,58.28"/><path style="stroke:#000000;stroke-width:0.088" d="M158.26,58.31L158.08,57.79"/><path style="stroke:#000000;stroke-width:0.088" d="M160.15,54.28L160.21,54.67L160.11,55.38L159.84,56.12L159.42,56.81L158.90,57.37L158.33,57.76L158.09,57.83"/><path style="stroke:#000000;stroke-width:0.088" d="M158.08,57.83L158.08,57.15L158.08,57.14L158.27,56.40L158.63,55.65L159.12,55.00L159.69,54.50"/><path style="stroke:#000000;stroke-width:0.088" d="M160.16,54.61L160.07,55.31L159.79,56.07L159.35,56.78L158.82,57.37L158.25,57.75"/><path style="stroke:#000000;stroke-width:0.088" d="M158.26,57.75L158.08,57.80"/><path style="stroke:#000000;stroke-width:0.088" d="M159.48,52.90L158.46,53.79"/><path style="stroke:#000000;stroke-width:0.088" d="M160.72,54.20L161.11,54.39L161.39,54.81L161.48,55.41L161.39,56.11L161.12,56.85L160.70,57.54L160.17,58.11L159.60,58.50L159.05,58.65L158.57,58.57"/><path style="stroke:#000000;stroke-width:0.088" d="M160.77,54.20L160.77,54.20L160.24,54.23L159.68,54.50"/><path style="stroke:#000000;stroke-width:0.088" d="M160.16,54.62L160.11,54.30"/><path style="stroke:#000000;stroke-width:0.088" d="M160.64,51.73L161.66,52.38L161.72,52.41"/><path style="stroke:#000000;stroke-width:0.088" d="M161.70,52.40L161.67,52.38"/><path style="stroke:#000000;stroke-width:0.088" d="M162.55,53.07L162.76,53.48L162.77,53.52"/><path style="stroke:#000000;stroke-width:0.088" d="M33.33,96.86L32.08,96.64L31.13,95.84L30.59,94.53L30.51,92.85L30.90,90.94L31.71,89.01L32.88,87.24L34.29,85.81L35.79,84.85L37.24,84.46L37.32,84.47"/><path style="stroke:#000000;stroke-width:0.088" d="M32.08,96.64L31.96,96.58L31.01,95.78L30.47,94.47L30.39,92.78L30.78,90.88L31.60,88.95L32.77,87.18L34.17,85.74L35.17,85.04L35.67,84.78L37.13,84.39L37.38,84.44"/><path style="stroke:#000000;stroke-width:0.088" d="M31.31,95.14L31.35,95.27L31.49,95.40"/><path style="stroke:#000000;stroke-width:0.088" d="M35.88,85.30L35.29,85.55L35.02,85.72L33.60,86.91L32.36,88.52L31.44,90.35L30.94,92.22L30.91,93.92L31.16,94.68"/><path style="stroke:#000000;stroke-width:0.088" d="M34.08,97.00L33.83,96.41L33.75,94.72L34.14,92.82L34.96,90.89L36.13,89.12L37.53,87.68L38.53,86.98L39.03,86.72L40.49,86.33L41.75,86.55L41.86,86.61L40.60,86.40L39.15,86.79L38.65,87.05L37.65,87.75L36.24,89.18L35.07,90.95L34.26,92.88L33.87,94.79L33.95,96.47L34.49,97.78L35.44,98.58L35.32,98.52L34.37,97.72L34.08,97.00"/><path style="stroke:#000000;stroke-width:0.088" d="M35.44,98.58L36.70,98.80L38.15,98.41L39.62,97.47L39.65,97.45L41.06,96.01L42.23,94.25L43.04,92.32L43.43,90.41L43.35,88.73L42.81,87.42L41.86,86.61"/><path style="stroke:#000000;stroke-width:0.088" d="M39.45,88.63L39.50,88.67L39.85,89.44L39.91,90.47L39.67,91.63L39.15,92.80L38.41,93.85L37.54,94.68L36.63,95.18L35.77,95.31L35.58,95.25"/><path style="stroke:#000000;stroke-width:0.088" d="M35.61,95.47L35.46,94.36L35.66,93.06L36.18,91.71L36.96,90.45L37.93,89.43L38.98,88.75L39.99,88.49L40.86,88.67L41.48,89.28L41.80,90.25L41.78,91.47L41.42,92.82L40.76,94.14L39.87,95.30L39.00,96.03L38.85,96.16L38.65,96.28L37.80,96.64L36.85,96.67L36.45,96.46L36.09,96.27L35.61,95.47"/><path style="stroke:#000000;stroke-width:0.088" d="M39.17,88.70L39.39,89.18L39.45,90.20L39.20,91.36L38.69,92.53L37.95,93.58L37.08,94.41L36.16,94.92L35.55,95.01"/><path style="stroke:#000000;stroke-width:0.088" d="M35.51,94.06L36.52,93.16L37.38,91.97L38.01,90.64L38.33,89.30L38.32,89.17"/><path style="stroke:#000000;stroke-width:0.088" d="M40.00,88.49L40.30,89.38L40.27,90.60L39.91,91.95L39.25,93.27L38.36,94.43L37.34,95.29L37.14,95.41L36.30,95.77L35.80,95.79"/><path style="stroke:#000000;stroke-width:0.088" d="M40.28,86.39L40.15,86.31"/><path style="stroke:#000000;stroke-width:0.088" d="M126.24,50.32L126.05,50.31L124.58,49.60L124.47,49.53L123.36,48.25L122.68,46.47L122.48,44.30L122.75,41.86L123.49,39.29L124.17,37.79"/><path style="stroke:#000000;stroke-width:0.088" d="M124.58,49.60L123.48,48.32L123.21,47.62L122.80,46.54L122.59,44.37L122.87,41.92L123.61,39.35L124.37,37.68"/><path style="stroke:#000000;stroke-width:0.088" d="M127.42,51.00L125.19,49.72L123.93,48.60L123.11,46.93L122.77,44.81L122.94,42.37L123.61,39.77L124.56,37.57"/><path style="stroke:#000000;stroke-width:0.088" d="M127.94,51.54L127.83,51.47L126.72,50.19L126.04,48.41L125.84,46.24L126.11,43.80L126.85,41.23L128.01,38.68L128.38,38.11L129.53,36.31L131.31,34.24L133.26,32.60L134.12,32.05L135.26,31.49L137.19,30.96L138.94,31.06L140.41,31.77L140.53,31.83L139.06,31.12L137.30,31.03L135.37,31.55L133.38,32.67L131.43,34.31L129.65,36.37L128.13,38.75L126.97,41.29L126.23,43.86L125.95,46.31L126.16,48.48L126.84,50.26L127.94,51.54L129.17,52.13L129.41,52.25L131.17,52.34L133.10,51.82L134.24,51.25L135.09,50.70L136.30,49.69L137.04,49.07L138.82,47.00L140.34,44.62L141.50,42.08L141.85,40.88L142.24,39.51L142.52,37.07L142.31,34.89L141.85,33.68L141.63,33.11L140.53,31.83"/><path style="stroke:#000000;stroke-width:0.088" d="M129.20,31.42L130.02,30.73L132.01,29.61L133.94,29.09L135.70,29.18L137.17,29.89L137.05,29.83L135.58,29.12L133.83,29.02L131.90,29.55L129.90,30.66L128.57,31.78"/><path style="stroke:#000000;stroke-width:0.088" d="M129.96,30.98L130.03,30.91L130.84,30.47"/><path style="stroke:#000000;stroke-width:0.088" d="M131.09,30.33L132.07,29.79L132.68,29.64"/><path style="stroke:#000000;stroke-width:0.088" d="M133.13,43.84L132.84,43.69L132.58,43.25L132.50,42.65L132.60,41.94L132.89,41.20L133.31,40.52L133.84,39.96L134.41,39.59L134.97,39.44L135.44,39.54L135.78,39.88L135.95,40.40L135.94,41.07L135.75,41.80L135.39,42.53L134.90,43.16L134.70,43.35L134.70,43.87L133.77,44.40L133.77,43.89L133.25,43.91L133.13,43.84"/><path style="stroke:#000000;stroke-width:0.088" d="M133.77,43.89L132.57,43.20"/><path style="stroke:#000000;stroke-width:0.088" d="M134.70,43.35L132.58,42.13"/><path style="stroke:#000000;stroke-width:0.088" d="M134.70,43.87L132.50,42.60"/><path style="stroke:#000000;stroke-width:0.088" d="M133.56,29.41L134.03,29.29L134.26,29.31"/><path style="stroke:#000000;stroke-width:0.088" d="M137.17,29.89L137.30,30.05"/><path style="stroke:#000000;stroke-width:0.088" d="M152.78,42.94L151.39,42.13L150.04,41.82L148.47,42.12L147.43,42.61L146.83,43.00L145.23,44.38L143.81,46.17L143.01,47.62L142.68,48.21L141.94,50.34L141.64,52.38L141.81,54.18L142.43,55.58L143.47,56.47L144.86,57.27L143.83,56.38L143.46,55.56L143.20,54.98L143.03,53.19L143.33,51.14L144.07,49.01L145.20,46.97L145.81,46.20L146.62,45.19L148.22,43.80L148.82,43.42L149.86,42.92L151.43,42.63L152.78,42.94L153.74,43.77L153.81,43.83L154.43,45.23L154.61,47.02L154.31,49.07L153.56,51.20L152.44,53.24L151.22,54.76L151.02,55.02L149.42,56.41L147.77,57.29L146.21,57.58L144.86,57.27"/><path style="stroke:#000000;stroke-width:0.088" d="M143.43,53.47L143.38,53.37L143.37,53.20L143.41,53.01L143.50,52.81L143.62,52.63L143.76,52.49L143.83,52.45L143.91,52.41L144.06,52.38L144.18,52.42L144.26,52.52L144.30,52.67L144.28,52.86L144.22,53.05L144.12,53.24L143.98,53.40L143.83,53.52L143.68,53.58L143.55,53.57L143.44,53.50L143.43,53.47"/><path style="stroke:#000000;stroke-width:0.088" d="M143.38,53.18L143.38,53.27L143.43,53.38L143.52,53.44L143.63,53.45L143.77,53.40L143.89,53.30L144.00,53.16L144.09,53.00L144.15,52.84L144.16,52.68L144.13,52.55L144.06,52.47L143.96,52.43L143.83,52.45L143.77,52.49"/><path style="stroke:#000000;stroke-width:0.088" d="M145.81,53.78L145.66,53.61L145.36,52.52L145.43,51.16L145.87,49.68L146.62,48.26L147.62,47.03L148.74,46.13L148.98,46.04L149.88,45.67L150.89,45.69L151.69,46.18L152.17,47.10L152.29,48.10L152.29,48.35L152.13,49.21L152.03,49.78L151.42,51.25L150.54,52.60L149.46,53.68L148.32,54.36L147.23,54.59L146.31,54.33L145.81,53.78"/><path style="stroke:#000000;stroke-width:0.088" d="M145.82,53.78L145.84,53.79L146.93,53.56L148.07,52.87L149.14,51.80L150.03,50.45L150.64,48.98L150.90,47.55L150.90,47.29L150.78,46.30L150.45,45.68"/><path style="stroke:#000000;stroke-width:0.088" d="M148.43,56.37L148.53,56.44L148.66,56.45L148.81,56.39L148.96,56.28L149.10,56.12L149.20,55.93L149.27,55.73L149.28,55.55L149.24,55.40L149.16,55.30L149.04,55.26L148.90,55.28L148.82,55.32L148.74,55.37L148.60,55.51L148.57,55.56L148.48,55.69L148.39,55.88L148.36,56.08L148.37,56.24L148.43,56.37"/><path style="stroke:#000000;stroke-width:0.088" d="M148.75,55.37L148.82,55.33L148.94,55.31L149.04,55.34L149.11,55.43L149.14,55.56L149.13,55.71L149.08,55.88L148.99,56.04L148.87,56.18L148.75,56.27L148.62,56.32L148.50,56.31L148.42,56.25L148.36,56.15L148.36,56.06"/><path style="stroke:#000000;stroke-width:0.088" d="M148.35,44.61L148.37,44.77L148.38,44.78L148.44,44.89L148.55,44.94L148.69,44.94L148.82,44.89L148.84,44.87L148.98,44.75L148.99,44.74L149.12,44.58L149.22,44.38L149.27,44.19L149.27,44.01L149.23,43.87L149.14,43.78L149.01,43.75L148.86,43.79L148.71,43.89L148.57,44.04L148.46,44.22L148.38,44.42L148.35,44.61"/><path style="stroke:#000000;stroke-width:0.088" d="M148.36,44.57L148.37,44.67L148.43,44.77L148.52,44.82L148.64,44.81L148.75,44.77L148.77,44.75L148.90,44.65L149.01,44.50L149.09,44.34L149.13,44.17L149.14,44.02L149.10,43.90L149.02,43.83L148.91,43.80L148.80,43.83"/><path style="stroke:#000000;stroke-width:0.088" d="M153.34,47.44L153.35,47.52L153.40,47.62L153.48,47.69L153.60,47.69L153.67,47.66L153.73,47.64L153.85,47.55L153.97,47.41L154.06,47.25L154.11,47.08L154.12,46.93L154.09,46.80L154.02,46.71L153.92,46.68L153.80,46.70L153.74,46.74L153.80,46.69L153.88,46.65L154.02,46.63L154.14,46.67L154.22,46.77L154.26,46.92L154.25,47.10L154.18,47.30L154.08,47.49L153.95,47.65L153.79,47.77L153.64,47.82L153.51,47.81L153.41,47.74L153.35,47.61L153.34,47.45L153.38,47.25L153.46,47.06L153.58,46.88L153.73,46.74L153.74,46.74L153.73,46.74"/><path style="fill:#ffffff" d="M171.74,127.63L198.15,127.63L198.15,121.99L171.74,121.99z"/><path style="stroke:#35414c;stroke-width:0.255" d="M171.74,127.63L198.15,127.63L198.15,121.99L171.74,121.99z"/><path style="stroke:#35404c;stroke-width:0.250;stroke-opacity:0.00" d="M171.74,127.63L198.15,127.63L198.15,121.99L171.74,121.99z"/><text xml:space="preserve" fill="#333f4b" stroke-width="0" x="172.44" y="126.05" font-size="3.49" opacity="1.00" font-family="Arial" font-weight="bold" font-style="italic">F31304106A</text><path style="fill:#ffffff" d="M171.74,137.42L198.15,137.42L198.15,131.78L171.74,131.78z"/><path style="stroke:#35414c;stroke-width:0.255" d="M171.74,137.42L198.15,137.42L198.15,131.78L171.74,131.78z"/><path style="stroke:#35404c;stroke-width:0.250;stroke-opacity:0.00" d="M171.74,137.42L198.15,137.42L198.15,131.78L171.74,131.78z"/><text xml:space="preserve" fill="#333f4b" stroke-width="0" x="172.44" y="135.83" font-size="3.52" opacity="1.00" font-family="Arial" font-weight="bold" font-style="italic">F31304111Z</text><path style="fill:#ffffff" d="M171.74,37.44L198.15,37.44L198.15,31.80L171.74,31.80z"/><path style="stroke:#35414c;stroke-width:0.255" d="M171.74,37.44L198.15,37.44L198.15,31.80L171.74,31.80z"/><path style="stroke:#35404c;stroke-width:0.250;stroke-opacity:0.00" d="M171.74,37.44L198.15,37.44L198.15,31.80L171.74,31.80z"/><text xml:space="preserve" fill="#333f4b" stroke-width="0" x="172.44" y="35.86" font-size="3.42" opacity="1.00" font-family="Arial" font-weight="bold" font-style="italic">CU1171</text><path style="fill:#ffffff" d="M171.74,77.65L198.15,77.65L198.15,72.00L171.74,72.00z"/><path style="stroke:#35414c;stroke-width:0.255" d="M171.74,77.65L198.15,77.65L198.15,72.00L171.74,72.00z"/><path style="stroke:#35404c;stroke-width:0.250;stroke-opacity:0.00" d="M171.74,77.65L198.15,77.65L198.15,72.00L171.74,72.00z"/><text xml:space="preserve" fill="#333f4b" stroke-width="0" x="172.44" y="76.06" font-size="3.56" opacity="1.00" font-family="Arial" font-weight="bold" font-style="italic">F24304123X</text><path style="fill:#ffffff" d="M171.74,67.60L198.15,67.60L198.15,61.95L171.74,61.95z"/><path style="stroke:#35414c;stroke-width:0.255" d="M171.74,67.60L198.15,67.60L198.15,61.95L171.74,61.95z"/><path style="stroke:#35404c;stroke-width:0.250;stroke-opacity:0.00" d="M171.74,67.60L198.15,67.60L198.15,61.95L171.74,61.95z"/><text xml:space="preserve" fill="#333f4b" stroke-width="0" x="172.44" y="66.01" font-size="3.47" opacity="1.00" font-family="Arial" font-weight="bold" font-style="italic">DE1004</text><path style="fill:#ffffff" d="M171.74,97.48L198.15,97.48L198.15,91.84L171.74,91.84z"/><path style="stroke:#35414c;stroke-width:0.255" d="M171.74,97.48L198.15,97.48L198.15,91.84L171.74,91.84z"/><path style="stroke:#35404c;stroke-width:0.250;stroke-opacity:0.00" d="M171.74,97.48L198.15,97.48L198.15,91.84L171.74,91.84z"/><text xml:space="preserve" fill="#333f4b" stroke-width="0" x="172.44" y="95.89" font-size="3.56" opacity="1.00" font-family="Arial" font-weight="bold" font-style="italic">F26304110X</text><path style="fill:#ffffff" d="M171.74,107.53L198.15,107.53L198.15,101.89L171.74,101.89z"/><path style="stroke:#35414c;stroke-width:0.255" d="M171.74,107.53L198.15,107.53L198.15,101.89L171.74,101.89z"/><path style="stroke:#35404c;stroke-width:0.250;stroke-opacity:0.00" d="M171.74,107.53L198.15,107.53L198.15,101.89L171.74,101.89z"/><text xml:space="preserve" fill="#333f4b" stroke-width="0" x="172.44" y="105.94" font-size="3.52" opacity="1.00" font-family="Arial" font-weight="bold" font-style="italic">F29304040Z</text><path style="fill:#ffffff" d="M171.74,87.43L198.15,87.43L198.15,81.79L171.74,81.79z"/><path style="stroke:#35414c;stroke-width:0.255" d="M171.74,87.43L198.15,87.43L198.15,81.79L171.74,81.79z"/><path style="stroke:#35404c;stroke-width:0.250;stroke-opacity:0.00" d="M171.74,87.43L198.15,87.43L198.15,81.79L171.74,81.79z"/><text xml:space="preserve" fill="#333f4b" stroke-width="0" x="172.44" y="85.84" font-size="3.49" opacity="1.00" font-family="Arial" font-weight="bold" font-style="italic">F24304468A</text><path style="fill:#ffffff" d="M171.74,27.66L198.15,27.66L198.15,22.02L171.74,22.02z"/><path style="stroke:#35414c;stroke-width:0.255" d="M171.74,27.66L198.15,27.66L198.15,22.02L171.74,22.02z"/><path style="stroke:#35404c;stroke-width:0.250;stroke-opacity:0.00" d="M171.74,27.66L198.15,27.66L198.15,22.02L171.74,22.02z"/><text xml:space="preserve" fill="#333f4b" stroke-width="0" x="172.44" y="26.07" font-size="3.41" opacity="1.00" font-family="Arial" font-weight="bold" font-style="italic">CM1013</text><path style="fill:#ffffff" d="M171.74,117.58L198.15,117.58L198.15,111.94L171.74,111.94z"/><path style="stroke:#35414c;stroke-width:0.255" d="M171.74,117.58L198.15,117.58L198.15,111.94L171.74,111.94z"/><path style="stroke:#35404c;stroke-width:0.250;stroke-opacity:0.00" d="M171.74,117.58L198.15,117.58L198.15,111.94L171.74,111.94z"/><text xml:space="preserve" fill="#333f4b" stroke-width="0" x="172.44" y="116.00" font-size="3.49" opacity="1.00" font-family="Arial" font-weight="bold" font-style="italic">F31304100A</text><path style="fill:#ffffff" d="M171.74,17.61L198.15,17.61L198.15,11.96L171.74,11.96z"/><path style="stroke:#35414c;stroke-width:0.255" d="M171.74,17.61L198.15,17.61L198.15,11.96L171.74,11.96z"/><path style="stroke:#35404c;stroke-width:0.250;stroke-opacity:0.00" d="M171.74,17.61L198.15,17.61L198.15,11.96L171.74,11.96z"/><text xml:space="preserve" fill="#333f4b" stroke-width="0" x="172.44" y="16.02" font-size="3.53" opacity="1.00" font-family="Arial" font-weight="bold" font-style="italic">AN1108</text><path style="fill:#ffffff" d="M171.74,47.49L198.15,47.49L198.15,41.85L171.74,41.85z"/><path style="stroke:#35414c;stroke-width:0.255" d="M171.74,47.49L198.15,47.49L198.15,41.85L171.74,41.85z"/><path style="stroke:#35404c;stroke-width:0.250;stroke-opacity:0.00" d="M171.74,47.49L198.15,47.49L198.15,41.85L171.74,41.85z"/><text xml:space="preserve" fill="#333f4b" stroke-width="0" x="172.44" y="45.91" font-size="3.42" opacity="1.00" font-family="Arial" font-weight="bold" font-style="italic">CU1301</text><path style="fill:#ffffff" d="M171.74,57.54L198.15,57.54L198.15,51.90L171.74,51.90z"/><path style="stroke:#35414c;stroke-width:0.255" d="M171.74,57.54L198.15,57.54L198.15,51.90L171.74,51.90z"/><path style="stroke:#35404c;stroke-width:0.250;stroke-opacity:0.00" d="M171.74,57.54L198.15,57.54L198.15,51.90L171.74,51.90z"/><text xml:space="preserve" fill="#333f4b" stroke-width="0" x="172.44" y="55.96" font-size="3.42" opacity="1.00" font-family="Arial" font-weight="bold" font-style="italic">CU2301</text><g id="paperID" visibility="hidden" opacity="0.00" transform="scale(0.000100)"><path style="stroke:#000000;stroke-width:0.500;fill:#e6e6e6;fill-rule:evenodd" d="M-2000.00,-2000.00L2210.00,-2000.00L2210.00,2150.00L-2000.00,2150.00zM0.00,0.00L210.00,0.00L210.00,150.00L0.00,150.00z"/><path style="fill:#000000;fill-opacity:0.118" d="M3.00,150.00L210.00,150.00L210.00,3.00L213.00,3.00L213.00,153.00L3.00,153.00z"/></g><g id="hotspot.0" onmouseover="ShowHotSpot(evt,'0')" onmouseout="HideHotSpot(evt,'0')" onmousemove="ShowToolTip(evt,'0',&quot;ANELLO_AB&quot;)" opacity="0"><path style="fill:#00ff00;fill-rule:evenodd" d="M198.31,12.22L198.28,17.91L171.79,17.84L171.48,17.63L171.55,12.06L198.04,11.96zM23.70,79.71L24.25,80.74L24.25,82.17L22.93,84.82L22.01,85.49L20.98,86.08L20.28,86.08L18.70,85.24L18.15,84.21L18.15,82.68L19.50,80.07L21.06,78.98L22.13,78.89zM71.33,107.20L71.86,107.99L71.86,109.94L71.32,111.26L70.29,112.60L68.87,113.57L67.61,113.57L66.31,112.74L66.01,112.25L66.02,109.66L67.11,107.84L68.40,106.75L69.73,106.40zM22.14,82.18L20.98,83.94L20.18,84.03L20.56,82.44L21.79,80.97L22.12,80.99zM69.84,108.69L69.47,110.20L68.30,111.45L67.79,111.54L67.86,110.72L68.56,109.29L69.40,108.47z"/></g><g id="hotspot.1" onmouseover="ShowHotSpot(evt,'1')" onmouseout="HideHotSpot(evt,'1')" onmousemove="ShowToolTip(evt,'1',&quot;CU1171&quot;)" opacity="0"><path style="fill:#00ff00;fill-rule:evenodd" d="M198.31,32.06L198.28,37.74L171.79,37.68L171.48,37.47L171.55,31.90L198.04,31.79zM68.69,83.39L68.68,84.55L67.78,86.55L66.21,87.66L65.49,87.68L64.95,87.13L64.96,85.06L66.05,83.24L66.99,82.60L68.17,82.58z"/></g><g id="hotspot.2" onmouseover="ShowHotSpot(evt,'2')" onmouseout="HideHotSpot(evt,'2')" onmousemove="ShowToolTip(evt,'2',&quot;CU1301&quot;)" opacity="0"><path style="fill:#00ff00;fill-rule:evenodd" d="M198.31,42.11L198.28,47.79L171.79,47.73L171.48,47.52L171.55,41.95L198.04,41.84zM162.32,52.71L162.85,53.50L162.83,55.72L162.50,56.97L160.88,59.32L159.06,60.41L157.79,60.41L155.97,59.32L155.41,58.56L155.41,56.23L156.25,54.16L157.83,52.30L159.03,51.65L160.47,51.65zM55.19,96.88L56.00,97.93L55.99,100.42L55.37,101.92L53.90,103.89L52.21,104.84L50.94,104.84L49.12,103.76L48.56,102.73L48.57,100.93L49.25,98.97L50.71,97.00L52.18,96.08L53.62,96.08zM63.92,102.17L64.42,103.75L64.20,105.46L63.31,107.21L61.83,108.91L60.41,109.60L59.14,109.60L57.32,108.51L56.76,107.22L56.77,105.96L57.74,103.23L58.80,101.91L59.86,101.12L60.65,100.85L62.08,100.85zM160.19,54.64L159.40,56.78L158.34,57.60L158.33,56.23L159.41,54.66zM52.99,100.33L51.90,101.93L51.41,102.03L51.47,100.66L52.72,98.99L53.38,98.76zM61.63,103.66L61.27,105.17L60.10,106.69L59.60,106.78L59.67,105.69L60.99,103.83L61.56,103.51z"/></g><g id="hotspot.3" onmouseover="ShowHotSpot(evt,'3')" onmouseout="HideHotSpot(evt,'3')" onmousemove="ShowToolTip(evt,'3',&quot;CU2301&quot;)" opacity="0"><path style="fill:#00ff00;fill-rule:evenodd" d="M198.31,52.16L198.28,57.84L171.79,57.78L171.48,57.57L171.55,52.00L198.04,51.90zM80.04,110.65L81.41,111.66L81.90,112.75L81.90,114.43L81.64,115.50L80.84,117.08L79.28,118.95L77.86,119.91L75.80,119.91L73.19,118.30L72.89,117.80L72.90,114.69L73.43,113.11L74.92,111.15L76.26,110.11L76.78,109.84L78.74,109.83z"/></g><g id="hotspot.4" onmouseover="ShowHotSpot(evt,'4')" onmouseout="HideHotSpot(evt,'4')" onmousemove="ShowToolTip(evt,'4',&quot;DE1004&quot;)" opacity="0"><path style="fill:#00ff00;fill-rule:evenodd" d="M54.14,45.83L54.16,47.54L52.17,48.75L51.21,48.78L50.42,48.20L49.81,48.20L49.51,48.49L49.12,48.50L48.74,47.93L49.65,47.23L49.60,45.93L50.34,45.05L51.65,44.24L52.82,44.24zM198.31,62.21L198.28,67.89L171.79,67.83L171.48,67.62L171.55,62.05L198.04,61.95zM16.33,66.22L16.75,66.24L17.66,65.90L17.94,66.19L17.94,66.57L17.09,67.10L17.12,68.70L14.90,70.20L14.19,70.21L13.16,69.36L12.59,68.34L12.58,67.06L14.44,65.76L15.80,65.66z"/></g><g id="hotspot.5" onmouseover="ShowHotSpot(evt,'5')" onmouseout="HideHotSpot(evt,'5')" onmousemove="ShowToolTip(evt,'5',&quot;F24304123&quot;)" opacity="0"><path style="fill:#00ff00;fill-rule:evenodd" d="M198.31,72.26L198.28,77.94L171.79,77.88L171.48,77.67L171.55,72.10L198.04,72.00zM66.30,76.79L67.80,78.46L69.22,78.62L70.82,79.67L71.59,81.28L71.58,83.49L71.32,84.54L69.66,87.90L67.64,90.12L66.22,91.09L64.88,91.34L63.91,91.36L62.34,90.53L61.56,89.18L60.65,89.23L59.40,88.97L58.91,88.67L58.08,87.39L58.09,83.74L58.89,81.37L60.36,79.14L62.59,77.14L64.36,76.53L65.51,76.52zM68.69,83.39L68.68,84.55L67.78,86.55L66.21,87.66L65.49,87.68L64.95,87.13L64.96,85.06L66.05,83.24L66.99,82.60L68.17,82.58z"/></g><g id="hotspot.6" onmouseover="ShowHotSpot(evt,'6')" onmouseout="HideHotSpot(evt,'6')" onmousemove="ShowToolTip(evt,'6',&quot;F24304468A&quot;)" opacity="0"><path style="fill:#00ff00;fill-rule:evenodd" d="M48.58,50.34L48.60,53.36L39.06,58.89L38.79,61.00L31.03,65.44L30.32,65.45L29.54,64.87L28.65,64.87L25.20,66.99L23.70,67.02L19.13,64.44L19.13,61.45L42.66,47.95L44.36,47.95zM198.31,82.05L198.28,87.73L171.79,87.67L171.48,87.45L171.55,81.89L198.04,81.78z"/></g><g id="hotspot.7" onmouseover="ShowHotSpot(evt,'7')" onmouseout="HideHotSpot(evt,'7')" onmousemove="ShowToolTip(evt,'7',&quot;F26304110&quot;)" opacity="0"><path style="fill:#00ff00;fill-rule:evenodd" d="M80.85,91.63L82.97,91.59L84.82,92.65L85.53,94.05L86.69,94.75L86.67,96.20L86.40,96.72L85.52,97.45L84.81,97.45L83.75,96.86L82.18,96.88L80.05,95.57L79.78,94.25L76.08,92.13L76.09,90.37L76.79,89.72L77.40,89.72zM198.31,92.10L198.28,97.78L171.79,97.72L171.48,97.50L171.55,91.94L198.04,91.83z"/></g><g id="hotspot.8" onmouseover="ShowHotSpot(evt,'8')" onmouseout="HideHotSpot(evt,'8')" onmousemove="ShowToolTip(evt,'8',&quot;F29304040&quot;)" opacity="0"><path style="fill:#00ff00;fill-rule:evenodd" d="M38.56,74.39L38.53,75.28L31.30,79.47L30.61,79.44L30.07,78.90L28.77,78.35L25.30,76.25L25.29,75.29L26.26,74.92L26.55,74.42L27.40,74.22L27.81,73.61L28.63,73.62L28.93,73.10L29.78,72.89L30.21,72.30L30.75,72.30L31.30,71.76L32.22,71.35L32.73,70.96zM198.31,102.15L198.28,107.83L171.79,107.77L171.48,107.55L171.55,101.99L198.04,101.88zM37.23,74.66L36.66,74.66L36.59,74.38L36.94,74.38zM30.77,77.83L31.65,77.84L31.60,78.11L31.08,78.15z"/></g><g id="hotspot.9" onmouseover="ShowHotSpot(evt,'9')" onmouseout="HideHotSpot(evt,'9')" onmousemove="ShowToolTip(evt,'9',&quot;F31304100&quot;)" opacity="0"><path style="fill:#00ff00;fill-rule:evenodd" d="M41.71,86.57L42.53,87.06L43.30,88.41L43.28,91.15L43.04,92.49L41.36,95.57L39.58,97.50L37.66,98.49L35.33,98.50L34.57,97.93L34.02,96.90L34.02,93.53L35.00,90.81L36.83,88.40L38.71,86.84L40.03,86.28zM35.38,85.63L33.52,87.21L32.09,89.22L31.11,92.21L31.11,94.25L31.40,95.29L31.93,96.08L32.98,96.65L32.16,96.65L31.14,95.81L30.58,94.79L30.59,91.95L30.84,90.61L32.21,88.02L34.05,85.88L35.78,84.70L36.67,84.70zM198.31,112.20L198.28,117.88L171.79,117.82L171.48,117.60L171.55,112.04L198.04,111.93zM38.00,90.64L36.30,93.48L35.79,93.56L35.87,92.46L37.22,90.12L38.29,89.23z"/></g><g id="hotspot.10" onmouseover="ShowHotSpot(evt,'10')" onmouseout="HideHotSpot(evt,'10')" onmousemove="ShowToolTip(evt,'10',&quot;F31304106&quot;)" opacity="0"><path style="fill:#00ff00;fill-rule:evenodd" d="M133.03,29.35L133.15,29.21L135.88,29.18zM131.26,30.27L130.72,30.24L132.05,29.43L133.03,29.35zM140.60,31.85L141.45,32.85L142.22,34.46L142.46,36.06L142.20,39.58L140.88,43.55L139.03,46.72L136.80,49.26L133.92,51.40L131.55,52.20L129.49,52.21L127.68,51.38L126.33,50.34L124.50,49.53L123.42,48.23L122.88,46.92L122.63,45.58L122.63,43.29L123.14,40.36L124.23,37.75L134.98,31.57L136.83,31.03L139.04,31.02zM129.97,31.02L129.39,31.02L129.68,30.74L130.04,30.74zM198.31,122.25L198.28,127.93L171.79,127.87L171.48,127.65L171.55,122.09L198.04,121.98z"/></g><g id="hotspot.11" onmouseover="ShowHotSpot(evt,'11')" onmouseout="HideHotSpot(evt,'11')" onmousemove="ShowToolTip(evt,'11',&quot;F31304111&quot;)" opacity="0"><path style="fill:#00ff00;fill-rule:evenodd" d="M151.47,42.13L153.34,43.44L154.38,45.04L154.61,46.88L154.38,48.85L153.58,51.22L152.17,53.52L150.16,55.74L147.77,57.32L145.91,57.51L144.31,56.96L142.49,55.61L141.93,54.59L141.92,50.41L143.03,47.55L145.28,44.25L147.40,42.67L148.46,42.14L150.39,41.87zM198.31,132.03L198.28,137.72L171.79,137.66L171.48,137.44L171.55,131.87L198.04,131.77zM150.69,46.08L150.94,47.18L150.67,48.85L149.87,50.69L148.31,52.57L146.89,53.53L145.63,53.53L145.63,50.41L146.84,47.93L148.72,46.10L149.24,45.83L150.44,45.81z"/></g><g id="hotspot.12" onmouseover="ShowHotSpot(evt,'12')" onmouseout="HideHotSpot(evt,'12')" onmousemove="ShowToolTip(evt,'12',&quot;CM1013&quot;)" opacity="0"><path style="fill:#00ff00;fill-rule:evenodd" d="M198.31,22.27L198.28,27.96L171.79,27.89L171.48,27.68L171.55,22.11L198.04,22.01zM138.54,30.76L134.98,31.57L52.45,79.16L51.73,80.03L50.40,80.81L49.56,81.04L49.37,81.37L48.34,81.93L47.18,82.36L46.99,82.69L45.59,83.70L45.15,83.68L43.21,85.02L42.77,85.00L42.41,85.50L41.38,85.81L41.15,86.11L40.01,86.29L38.71,86.84L36.83,88.40L35.00,90.81L34.02,93.53L34.06,97.23L31.93,96.08L31.40,95.29L31.11,94.25L31.11,92.21L32.09,89.22L33.52,87.21L35.38,85.63L131.80,29.97L133.12,29.44L136.13,29.43zM129.49,52.21L131.37,52.44L70.14,87.90L69.64,87.91L71.32,84.55L71.59,83.49L127.30,51.37zM62.34,90.53L63.13,91.09L40.83,97.18L40.00,97.16L41.70,95.13L42.16,94.26L60.66,89.22L61.55,89.19z"/></g></g></svg>
