<?xml version="1.0" encoding="UTF-8" standalone="no"?>
<svg xmlns="http://www.w3.org/2000/svg" xmlns:xlink="http://www.w3.org/1999/xlink" width="210.000mm" height="150.000mm" viewBox="0.000000 0.000000 210.000000 150.000000" stroke-linejoin="round" stroke-linecap="round" fill="none" fill-rule="evenodd"><desc>Composer Export</desc><script type="text/ecmascript"><![CDATA[
if(typeof(top) != "undefined")
{
	top.ShowPaper = ShowPaper;
}
function ShowHotSpot(evt,hotspotid)
{
	var svgDocument = evt.target.ownerDocument;
	var strId = "hotspot."+hotspotid;
	var hotspot = svgDocument.getElementById(strId);
	if(hotspot)
		hotspot.setAttribute("opacity",".5");
}
function HideHotSpot(evt,hotspotid)
{
	var svgDocument = evt.target.ownerDocument;
	var strId = "hotspot."+hotspotid;
	var hotspot = svgDocument.getElementById(strId);
	if(hotspot)
		hotspot.setAttribute("opacity","0");

	var toolTip = svgDocument.getElementById('ToolTip');
	if(toolTip)
		toolTip.setAttribute("visibility","hidden");
}
function ShowToolTip(evt,hotspotid,strTooltip)
{
	if(strTooltip=="")
	return;

	// change text
	var svgDocument = evt.target.ownerDocument;
	var tiptext = svgDocument.getElementById('ToolTipText');
	if( !tiptext )
	return;
	tiptext.firstChild.nodeValue = " " + strTooltip + "  " ;

	// show tooltip before, else some refresh issue

	var toolTip = svgDocument.getElementById('ToolTip');
	if(!toolTip)
	return;

	toolTip.setAttribute("visibility","visible");
	toolTip.setAttribute("opacity",".95");

	// move tooltip
	// get viewbox

	var root = svgDocument.documentElement;
	var vbox = (root.getAttribute("viewBox")).split(' ');
	var x0 = parseFloat(vbox[0]);
	var y0 = parseFloat(vbox[1]);
	var vboxW = parseFloat(vbox[2]);
	var vboxH = parseFloat(vbox[3]);

	// get default width of svg

	var strW = root.getAttribute("width");
	var svgW = parseFloat(strW);
	if(strW.indexOf('mm') != -1)
	svgW *= 3.779;

	var strH = root.getAttribute("height");
	var svgH = parseFloat(strH);
	if(strH.indexOf('mm') != -1)
	svgH *= 3.779;  	// 96 dpi  -> 96/25.4 = 3.779

	// update the viewbox / width / height if svg is embedded in html with zoom fit all
	var realx0 = x0;
	var realy0 = y0;
	var realvboxW = vboxW;
	var realvboxH = vboxH;
	var realsvgW = svgW;
	var realsvgH = svgH;

	if ((typeof(top) == "undefined") || (typeof(top.svgctl1) != "undefined")) // embedded in html
	{
		// get window size in pxl

		svgW = window.innerWidth;
		svgH = window.innerHeight;

		// calculate real viewbox

		realsvgW = svgW;
		realsvgH = svgH;
		if((svgW / svgH) > (vboxW / vboxH))
		{
			realvboxW = (vboxH * svgW) / svgH;
			realvboxH = vboxH;
			realx0 = x0 - (realvboxW - vboxW)/2 ;
		}
		else
		{
			realvboxH = (vboxW * svgH) / svgW;
			realvboxW = vboxW;
			realy0 = y0 - (realvboxH - vboxH)/2 ;
		}
	}

	// get user zoom/pan

	var newScale = root.currentScale;
	var translation = root.currentTranslate;

	// transform pxl to user unit

	var xPos = (((evt.clientX+10- translation.x)/newScale) * realvboxW)/realsvgW  + realx0 ;
	var yPos = (((evt.clientY+5- translation.y)/newScale) * realvboxH)/ realsvgH  + realy0 ;
	var scaleForWidth = ( (1 / newScale) * realvboxH) / realsvgH;

	// move tooltip

	toolTip.setAttribute("transform", "translate(" + xPos + "," + yPos + ")" );

	// resize tooltip

	var fontsize = 12;
	tiptext.setAttribute("font-size",fontsize*scaleForWidth);
	tiptext.setAttribute("y", fontsize*scaleForWidth);
	var tipBG = svgDocument.getElementById('ToolTipBG');
	var outline = tiptext.getBBox();
	if(tipBG)
	{
		tipBG.setAttribute("stroke-width", 1*scaleForWidth);
		tipBG.setAttribute("width", Number(outline.width) );
		tipBG.setAttribute("height", Number(outline.height) + fontsize*.5*scaleForWidth );
	}
	var ToolTipShadow = svgDocument.getElementById('ToolTipShadow');
	if(ToolTipShadow)
	{
		ToolTipShadow.setAttribute("width", Number(outline.width) );
		ToolTipShadow.setAttribute("height", Number(outline.height) + fontsize*.5*scaleForWidth );
		ToolTipShadow.setAttribute("x", 3*scaleForWidth);
		ToolTipShadow.setAttribute("y", 3*scaleForWidth);
	}
}
function ShowPaper()
{
  var svgDocument = getDocument();
  var paper = svgDocument.getElementById("paperID");
  if(paper)
  {
    paper.setAttribute("transform","scale(1)");
    paper.setAttribute("opacity","1");
    paper.setAttribute("visibility","visible");
  }
  var svg = svgDocument.getRootElement();
  if(svg)
  {
    svg.setAttribute("width","220.000mm");
    svg.setAttribute("height","160.000mm");
    svg.setAttribute("viewBox","-5.000000 -5.000000 220.000000 160.000000");
  }
}
]]></script><defs/><g><path style="fill:#ffffff" d="M209.96,149.95L0.04,149.95L0.04,0.04L209.96,0.04z"/><path style="fill:#8aa7bf" d="M154.21,78.97L154.21,79.91L153.11,80.59L151.71,79.86L150.53,80.49L150.40,82.61L140.82,88.22L99.65,111.95L99.32,111.95L99.19,109.92L98.95,109.96L98.28,112.19L97.81,112.20L84.40,104.42L84.14,104.18L84.15,103.70L84.66,101.83L85.24,101.41L85.46,101.33L86.29,101.79L86.75,101.79L138.30,72.02L138.28,71.34L137.41,70.82L137.12,70.82L136.87,70.97L136.27,70.97L135.66,70.58L135.45,70.54L135.54,70.38L135.54,69.82L134.65,69.19L134.36,69.19L82.78,98.94L82.78,99.78L83.83,100.39L83.16,100.83L82.49,103.04L82.02,103.05L47.75,83.30L44.95,81.61L44.81,81.48L44.81,81.03L44.87,80.60L45.41,78.99L46.11,78.55L46.95,79.10L47.41,79.12L98.94,49.32L98.95,48.64L97.96,48.03L97.40,48.30L97.06,48.30L96.15,47.78L96.18,47.03L95.31,46.52L94.89,46.52L43.44,76.27L43.40,77.01L43.94,77.35L44.60,77.59L43.78,78.11L43.18,80.27L43.03,80.38L42.68,80.37L29.03,72.46L29.02,71.87L29.62,69.59L74.25,43.81L74.33,43.73L75.71,43.01L77.56,41.86L78.16,41.57L81.65,39.53L81.72,39.46L82.03,39.50L83.78,40.53L84.25,40.52L85.17,39.94L85.29,39.29L85.53,39.25z"/><path style="fill:#2ac7ce" d="M96.18,47.03L96.15,47.78L97.06,48.30L97.40,48.30L97.96,48.03L98.95,48.64L98.94,49.32L47.41,79.12L46.95,79.10L46.11,78.55L46.19,77.89L48.34,76.63L48.34,76.49L47.70,76.09L47.28,76.09L46.99,76.20L46.77,76.21L46.64,76.44L44.60,77.59L43.94,77.35L43.40,77.01L43.44,76.27L94.89,46.52L95.31,46.52z"/><path style="fill:#2ac7ce" d="M135.54,69.82L135.54,70.38L135.45,70.54L135.22,70.58L135.10,70.71L135.35,70.71L135.45,70.54L135.66,70.58L136.27,70.97L136.87,70.97L137.12,70.82L137.41,70.82L138.28,71.34L138.30,72.02L86.75,101.79L86.29,101.79L85.46,101.33L85.54,100.57L87.79,99.28L86.92,98.77L86.75,98.77L83.83,100.39L82.78,99.78L82.78,98.94L134.36,69.19L134.65,69.19z"/><path style="fill:#d1ce96" d="M51.84,73.08L52.25,73.18L52.46,73.46L52.53,74.18L49.29,76.11L48.82,76.11L48.33,75.84L48.17,75.46L48.28,74.22L50.91,72.70L51.20,72.70z"/><path style="fill:#d1ce96" d="M91.58,95.90L91.79,96.16L91.87,96.86L91.81,96.95L88.55,98.84L88.30,98.92L87.80,98.65L87.52,98.16L87.64,98.07L87.76,96.90L90.39,95.38z"/><path style="fill:#2ac7ce" d="M81.72,39.46L81.65,39.53L78.16,41.57L77.56,41.86L77.53,41.62L77.40,41.50L77.35,41.80L77.56,41.86L75.71,43.01L74.33,43.73L74.38,37.54L74.64,37.05L75.84,36.37L76.40,36.37z"/><path style="fill:#2ac7ce" d="M153.11,80.59L153.20,80.73L156.96,82.86L157.47,83.35L157.97,84.24L157.97,96.58L156.79,97.29L156.46,97.29L151.44,94.38L151.32,95.56L148.77,97.04L148.45,97.02L141.80,93.14L141.80,92.43L143.81,91.19L143.80,90.01L140.92,88.36L140.82,88.22L150.40,82.61L150.53,80.49L151.71,79.86z"/><path style="fill:#2ac7ce" d="M38.93,81.86L38.92,82.40L38.54,83.99L38.97,84.24L40.81,85.35L40.64,85.75L38.19,86.20L37.42,86.13L36.97,85.93L34.87,84.65L34.90,84.28L35.90,80.51L36.01,80.35L36.29,80.34z"/><path style="fill:#000000" d="M41.06,86.12L41.31,86.36L41.25,87.33L40.82,87.80L40.14,88.25L39.38,88.50L39.01,88.77L38.51,88.61L38.14,88.89L37.67,88.89L36.92,88.38L36.55,88.24L36.42,88.02L36.17,88.01L35.91,87.86L35.87,87.64L36.30,87.30L36.50,86.62L36.97,85.93L37.42,86.13L38.19,86.20L38.22,86.30L37.76,86.62L38.94,87.38L39.12,87.38L39.36,86.95L39.88,86.24L40.69,86.00z"/><path style="fill:#01ff02" d="M77.53,41.62L77.56,41.86L77.35,41.80L77.40,41.50z"/><path style="fill:#01ff02" d="M50.59,73.82L50.55,73.97L50.19,73.97L50.19,73.75L50.47,73.70z"/><path style="fill:#01ff02" d="M36.08,82.53L36.01,82.60L36.05,83.02L36.11,83.09L35.93,83.13L35.79,82.99L35.79,82.52L36.04,82.46z"/><path style="fill:#01ff02" d="M37.71,83.54L37.64,83.61L37.72,83.86L37.66,84.05L37.52,84.04L37.38,83.72L37.52,83.48z"/><path style="fill:#01ff02" d="M153.78,85.73L153.94,85.74L153.97,86.03L153.82,86.01z"/><path style="fill:#01ff02" d="M153.78,90.49L153.94,90.50L153.97,90.80L153.82,90.77z"/><path style="fill:#01ff02" d="M89.94,96.68L89.48,96.68L89.48,96.53L89.94,96.53z"/><path style="fill:#b3eaa7" d="M45.57,81.15L45.40,81.15L45.40,80.98L45.57,80.98z"/><path style="fill:#b3eaa7" d="M44.81,81.03L44.81,81.48L44.95,81.61L47.75,83.30L41.90,87.00L41.25,87.33L41.31,86.36L41.06,86.12L40.69,86.00L39.88,86.24L39.36,86.95L38.22,86.30L38.19,86.20L40.64,85.75L40.81,85.35L38.97,84.24L44.87,80.60z"/><path style="fill:#b3eaa7" d="M40.43,87.31L40.37,86.99L40.52,86.85L40.67,86.85z"/><path style="fill:#8aa7bf" d="M89.06,51.97L88.74,52.13L88.87,51.90L89.09,51.90z"/><path style="fill:#8aa7bf" d="M85.44,54.16L85.24,54.05L85.70,53.89z"/><path style="fill:#8aa7bf" d="M80.12,57.17L79.84,57.17L79.98,57.04L80.15,57.04z"/><path style="fill:#8aa7bf" d="M76.90,58.98L76.59,59.15L76.71,58.92L76.93,58.91z"/><path style="fill:#8aa7bf" d="M68.01,64.12L67.69,64.28L67.82,64.05L68.04,64.05z"/><path style="fill:#8aa7bf" d="M64.75,66.00L64.43,66.16L64.56,65.93L64.78,65.93z"/><path style="fill:#8aa7bf" d="M135.35,70.71L135.10,70.71L135.22,70.58L135.45,70.54z"/><path style="fill:#8aa7bf" d="M55.85,71.14L55.54,71.30L55.66,71.07L55.88,71.07z"/><path style="fill:#8aa7bf" d="M132.11,72.59L131.84,72.59L131.98,72.45L132.15,72.45z"/><path style="fill:#8aa7bf" d="M52.60,73.02L52.25,73.18L52.41,72.95L52.62,72.95z"/><path style="fill:#8aa7bf" d="M126.48,75.84L126.20,75.84L126.34,75.71L126.51,75.71z"/><path style="fill:#8aa7bf" d="M46.96,76.27L46.64,76.44L46.77,76.21L46.99,76.20z"/><path style="fill:#8aa7bf" d="M123.22,77.72L122.95,77.72L123.08,77.59L123.25,77.59z"/><path style="fill:#8aa7bf" d="M114.37,82.79L114.05,82.95L114.18,82.72L114.40,82.72z"/><path style="fill:#8aa7bf" d="M111.11,84.67L110.79,84.83L110.92,84.60L111.14,84.60z"/><path style="fill:#8aa7bf" d="M102.21,89.81L101.90,89.97L102.02,89.74L102.24,89.74z"/><path style="fill:#8aa7bf" d="M98.96,91.69L98.64,91.85L98.77,91.62L98.98,91.62z"/><path style="fill:#000000" d="M90.44,51.52L90.42,52.33L88.37,53.54L87.54,53.57L87.41,54.08L82.22,57.05L81.98,57.06L82.39,56.70L82.64,56.33L84.23,55.42L85.42,54.34L85.44,54.16L85.70,53.89L87.87,52.65L88.28,52.67L88.25,52.42L88.74,52.13L89.06,51.97L89.09,51.90L90.01,51.40L90.31,51.39z"/><path style="fill:#ffffff" d="M80.54,57.81L80.65,57.97L52.53,74.18L52.46,73.46L52.25,73.18L52.60,73.02L52.62,72.95L55.46,71.37L55.54,71.30L55.85,71.14L55.88,71.07L58.79,69.44L64.43,66.16L64.75,66.00L64.78,65.93L67.61,64.36L67.69,64.28L68.01,64.12L68.04,64.05L70.95,62.43L76.59,59.15L76.90,58.98L76.93,58.91L79.61,57.41L79.90,57.41z"/><path style="fill:#ffffff" d="M29.80,71.96L29.78,72.15L29.62,72.14L29.59,71.84z"/><path style="fill:#ffffff" d="M123.65,78.35L123.75,78.52L93.57,95.95L91.87,96.86L91.79,96.16L91.58,95.90L94.82,94.07L98.64,91.85L98.96,91.69L98.98,91.62L101.82,90.04L101.90,89.97L102.21,89.81L102.24,89.74L105.15,88.11L110.79,84.83L111.11,84.67L111.14,84.60L113.97,83.03L114.05,82.95L114.37,82.79L114.40,82.72L117.31,81.10L122.71,77.96L123.00,77.97z"/><path style="fill:#ffffff" d="M42.81,79.46L42.70,79.66L42.63,79.37z"/><path style="fill:#ffffff" d="M36.01,82.60L36.08,82.53L36.17,82.60L36.18,83.04L36.11,83.09L36.05,83.02z"/><path style="fill:#ffffff" d="M37.72,83.86L37.64,83.61L37.71,83.54L37.81,83.61z"/><path style="fill:#ffffff" d="M39.36,86.95L39.12,87.38L38.94,87.38L37.76,86.62L38.22,86.30z"/><path style="fill:#ffffff" d="M58.68,88.61L58.84,88.62L58.87,88.92L58.72,88.89z"/><path style="fill:#ffffff" d="M68.88,94.49L68.76,94.70L68.70,94.40z"/><path style="fill:#ffffff" d="M82.17,102.15L82.15,102.34L81.99,102.33L81.97,102.04z"/><path style="fill:#ffffff" d="M84.93,103.78L84.91,103.97L84.75,103.96L84.73,103.67z"/><path style="fill:#ffffff" d="M97.96,111.30L97.94,111.49L97.78,111.48L97.76,111.18z"/><path style="stroke:#000000;stroke-width:0.088" d="M98.06,112.31L98.16,112.29L98.24,112.25L98.31,112.17L98.35,112.07L98.25,112.09L98.21,112.19L98.14,112.26L98.06,112.31L97.97,112.31L97.88,112.28L84.30,104.44L84.22,104.38L84.15,104.28L84.11,104.17L84.10,104.04L84.12,103.93L84.64,101.94L84.71,101.82L84.80,101.73L98.93,109.89L99.09,109.79L99.26,109.89L99.29,109.92L99.35,109.99L99.37,110.08L99.37,111.87L99.26,111.81L99.27,111.90L99.31,111.97L99.49,112.07L99.56,112.07L99.65,112.03L150.22,82.84L150.33,82.74L150.38,82.68L150.44,82.58L150.48,82.46L150.50,82.36L150.50,80.57L151.66,79.89L151.64,79.81L151.58,79.73L151.55,79.70L99.26,109.89"/><path style="stroke:#000000;stroke-width:0.088" d="M84.79,103.68L84.75,103.71L84.72,103.77L84.71,103.83L84.71,103.90L84.73,103.97L84.77,104.03L84.81,104.07L84.85,104.08"/><path style="stroke:#000000;stroke-width:0.088" d="M84.69,103.69L84.65,103.73L84.62,103.78L84.60,103.85L84.61,103.92L84.63,103.99L84.66,104.05L84.71,104.09L84.76,104.10L84.82,104.10L84.86,104.07L84.90,104.03L84.92,103.98L84.93,103.90L84.91,103.83L84.89,103.77L84.84,103.72L84.79,103.69L84.74,103.68L84.69,103.69"/><path style="stroke:#000000;stroke-width:0.088" d="M84.64,101.94L98.78,110.10L98.84,109.98L98.93,109.89"/><path style="stroke:#000000;stroke-width:0.088" d="M84.80,101.73L85.43,101.36"/><path style="stroke:#000000;stroke-width:0.088" d="M97.63,111.34L97.63,111.44L97.65,111.51L97.69,111.56L97.73,111.60L97.79,111.62L97.84,111.62L97.88,111.59L97.92,111.55L97.94,111.50L97.95,111.42L97.94,111.35L97.91,111.28L97.87,111.24L97.82,111.20L97.76,111.20L97.71,111.21L97.67,111.25L97.63,111.34"/><path style="stroke:#000000;stroke-width:0.088" d="M98.25,112.09L98.78,110.10"/><path style="stroke:#000000;stroke-width:0.088" d="M97.81,111.20L97.78,111.23L97.75,111.29L97.73,111.35L97.74,111.42L97.76,111.49L97.79,111.55L97.84,111.59L97.87,111.60"/><path style="stroke:#000000;stroke-width:0.088" d="M98.35,112.07L98.88,110.09L98.92,110.03L99.09,109.92L99.26,110.02L99.26,111.81"/><path style="stroke:#000000;stroke-width:0.088" d="M99.09,109.79L99.09,109.92"/><path style="stroke:#000000;stroke-width:0.088" d="M99.42,112.03L99.38,111.96L99.37,111.87"/><path style="stroke:#000000;stroke-width:0.088" d="M99.37,110.08L150.50,80.57"/><path style="stroke:#000000;stroke-width:0.088" d="M138.36,72.09L151.55,79.70"/><path style="stroke:#000000;stroke-width:0.088" d="M143.25,75.51L143.20,75.47L143.07,75.45L142.93,75.48L142.89,75.51"/><path style="stroke:#000000;stroke-width:0.088" d="M143.18,75.55L143.04,75.57L142.97,75.56L142.91,75.53L142.87,75.50L142.85,75.46L142.86,75.42L142.89,75.38L142.93,75.35L143.00,75.33L143.14,75.33L143.20,75.35L143.25,75.38L143.28,75.41L143.28,75.45L143.27,75.49L143.23,75.53L143.18,75.55"/><path style="stroke:#000000;stroke-width:0.088" d="M149.63,79.19L149.57,79.15L149.44,79.13L149.31,79.16L149.26,79.19"/><path style="stroke:#000000;stroke-width:0.088" d="M149.48,79.25L149.60,79.21L149.64,79.17L149.66,79.13L149.65,79.09L149.62,79.06L149.51,79.01L149.44,79.00L149.31,79.03L149.26,79.06L149.23,79.10L149.23,79.14L149.25,79.18L149.29,79.21L149.41,79.25L149.48,79.25"/><path style="stroke:#000000;stroke-width:0.088" d="M80.75,57.99L79.75,57.42"/><path style="stroke:#000000;stroke-width:0.088" d="M81.30,57.67L80.31,57.10"/><path style="stroke:#000000;stroke-width:0.088" d="M82.52,55.82L83.12,56.16"/><path style="stroke:#000000;stroke-width:0.088" d="M84.85,54.94L84.85,54.47"/><path style="stroke:#000000;stroke-width:0.088" d="M85.46,54.38L85.46,54.45"/><path style="stroke:#000000;stroke-width:0.088" d="M85.40,54.15L85.40,54.50"/><path style="stroke:#000000;stroke-width:0.088" d="M85.46,54.12L85.46,54.25"/><path style="stroke:#000000;stroke-width:0.088" d="M80.68,40.19L75.46,37.18L75.11,37.04L74.81,37.05L74.56,37.19L74.40,37.45L74.35,37.82L74.35,43.85"/><path style="stroke:#000000;stroke-width:0.088" d="M74.69,37.11L75.91,36.41L76.22,36.40L76.57,36.54L75.46,37.18"/><path style="stroke:#000000;stroke-width:0.088" d="M81.79,39.55L76.57,36.54"/><path style="stroke:#000000;stroke-width:0.088" d="M77.26,41.80L77.34,41.93L77.45,42.00L77.50,42.00L77.53,41.97L77.56,41.93L77.56,41.87L77.52,41.73L77.43,41.61L77.37,41.58L77.29,41.58L77.25,41.62L77.23,41.67L77.26,41.80"/><path style="stroke:#000000;stroke-width:0.088" d="M77.56,41.89L77.51,41.94L77.47,41.95L77.42,41.93L77.34,41.84L77.29,41.73L77.29,41.67L77.32,41.60L77.40,41.60"/><path style="stroke:#000000;stroke-width:0.088" d="M83.11,40.80L83.04,40.76L82.92,40.74L82.85,40.75L82.77,40.80"/><path style="stroke:#000000;stroke-width:0.088" d="M83.07,40.83L83.03,40.80L82.92,40.79L82.81,40.82"/><path style="stroke:#000000;stroke-width:0.088" d="M89.14,44.48L89.23,44.43L89.29,44.42L89.41,44.44L89.48,44.48"/><path style="stroke:#000000;stroke-width:0.088" d="M89.18,44.51L89.29,44.47L89.40,44.48L89.44,44.51"/><path style="stroke:#000000;stroke-width:0.088" d="M95.13,48.54L96.13,49.11"/><path style="stroke:#000000;stroke-width:0.088" d="M96.24,47.90L97.24,48.47"/><path style="stroke:#000000;stroke-width:0.088" d="M105.83,53.92L105.76,53.88L105.64,53.86L105.58,53.87L105.49,53.92"/><path style="stroke:#000000;stroke-width:0.088" d="M105.81,53.91L105.79,53.95L105.75,53.92L105.64,53.91L105.53,53.95"/><path style="stroke:#000000;stroke-width:0.088" d="M112.76,57.92L112.69,57.88L112.57,57.86L112.50,57.87L112.42,57.92"/><path style="stroke:#000000;stroke-width:0.088" d="M112.72,57.94L112.68,57.92L112.57,57.91L112.46,57.94"/><path style="stroke:#000000;stroke-width:0.088" d="M119.62,62.08L119.71,62.03L119.77,62.02L119.90,62.04L119.96,62.08"/><path style="stroke:#000000;stroke-width:0.088" d="M119.92,62.10L119.88,62.08L119.78,62.07L119.66,62.10"/><path style="stroke:#000000;stroke-width:0.088" d="M123.84,78.55L122.84,77.97"/><path style="stroke:#000000;stroke-width:0.088" d="M126.89,66.08L126.82,66.04L126.70,66.02L126.58,66.05L126.55,66.08"/><path style="stroke:#000000;stroke-width:0.088" d="M126.85,66.10L126.81,66.08L126.70,66.07L126.59,66.10"/><path style="stroke:#000000;stroke-width:0.088" d="M129.48,74.14L129.53,74.23L129.60,74.40L129.63,74.60L129.61,74.72L129.56,74.83L129.46,74.89L129.34,74.89L129.21,74.83L129.07,74.73L128.95,74.58L128.90,74.48"/><path style="stroke:#000000;stroke-width:0.088" d="M129.34,74.23L129.40,74.32L129.51,74.47L129.63,74.57"/><path style="stroke:#000000;stroke-width:0.088" d="M129.46,74.15L129.56,74.31"/><path style="stroke:#000000;stroke-width:0.088" d="M134.48,71.25L135.48,71.83"/><path style="stroke:#000000;stroke-width:0.088" d="M135.59,70.61L136.59,71.19"/><path style="stroke:#000000;stroke-width:0.088" d="M143.90,90.13L140.74,88.31"/><path style="stroke:#000000;stroke-width:0.088" d="M143.24,75.52L143.17,75.48L143.05,75.46L142.93,75.49L142.90,75.52"/><path style="stroke:#000000;stroke-width:0.088" d="M142.94,75.54L143.05,75.50L143.16,75.52L143.20,75.54"/><path style="stroke:#000000;stroke-width:0.088" d="M145.31,88.46L145.29,88.36L145.29,88.26L145.31,88.19"/><path style="stroke:#000000;stroke-width:0.088" d="M148.64,90.38L148.61,90.28L148.62,90.18L148.64,90.11"/><path style="stroke:#000000;stroke-width:0.088" d="M149.61,79.20L149.55,79.16L149.42,79.14L149.36,79.15L149.27,79.20"/><path style="stroke:#000000;stroke-width:0.088" d="M149.31,79.22L149.42,79.18L149.53,79.20L149.58,79.22"/><path style="stroke:#000000;stroke-width:0.088" d="M151.38,94.45L156.37,97.33L156.54,97.40L156.70,97.40L156.82,97.33L156.90,97.19L156.92,97.01L156.92,85.49L156.87,85.07L156.71,84.62L156.47,84.19L156.16,83.83L155.82,83.57L150.55,80.53"/><path style="stroke:#000000;stroke-width:0.088" d="M155.82,83.57L156.92,82.93L151.66,79.89"/><path style="stroke:#000000;stroke-width:0.088" d="M153.19,94.39L153.25,94.57L153.34,94.74L153.46,94.88L153.59,94.99L153.73,95.05L153.85,95.04L153.94,94.98L154.00,94.87L154.02,94.76L153.98,94.55L153.91,94.38L153.80,94.22L153.68,94.09L153.54,94.01L153.41,93.98L153.30,94.01L153.22,94.10L153.19,94.23L153.19,94.39"/><path style="stroke:#000000;stroke-width:0.088" d="M153.81,94.23L153.88,94.39L153.95,94.47"/><path style="stroke:#000000;stroke-width:0.088" d="M153.63,94.06L153.64,94.13L153.69,94.31L153.78,94.48L153.90,94.63L154.01,94.73"/><path style="stroke:#000000;stroke-width:0.088" d="M153.81,90.53L153.76,90.54L153.73,90.57L153.71,90.69L153.74,90.76L153.82,90.89L153.87,90.93L153.93,90.95L153.98,90.95L154.01,90.93L154.04,90.88L154.03,90.76L153.96,90.62L153.91,90.57L153.81,90.53"/><path style="stroke:#000000;stroke-width:0.088" d="M153.88,90.55L153.80,90.56L153.78,90.58L153.77,90.68L153.82,90.80L153.86,90.85L153.95,90.90L153.99,90.90L154.04,90.84"/><path style="stroke:#000000;stroke-width:0.088" d="M153.99,90.90L154.00,90.89"/><path style="stroke:#000000;stroke-width:0.088" d="M153.82,86.09L153.74,85.96L153.71,85.89L153.73,85.77L153.76,85.74L153.80,85.73L153.91,85.77L153.96,85.82L154.03,85.96L154.04,86.02L154.01,86.13L153.98,86.15L153.93,86.15L153.82,86.09"/><path style="stroke:#000000;stroke-width:0.088" d="M154.04,86.04L153.99,86.10L153.95,86.10L153.86,86.05L153.82,86.00L153.77,85.88L153.78,85.78L153.80,85.76L153.88,85.75"/><path style="stroke:#000000;stroke-width:0.088" d="M153.99,86.10L154.00,86.09"/><path style="stroke:#000000;stroke-width:0.088" d="M155.68,95.69L155.66,95.83L155.61,95.94L155.51,96.00L155.47,96.00L155.39,96.01L155.25,95.95L155.12,95.84L155.00,95.70L154.91,95.53L154.86,95.35L154.85,95.19L154.88,95.06L154.96,94.97L155.07,94.94L155.20,94.97L155.34,95.05L155.47,95.18L155.57,95.34L155.65,95.51L155.68,95.69L155.56,95.59L155.44,95.44L155.35,95.27L155.29,95.02"/><path style="stroke:#000000;stroke-width:0.088" d="M154.58,92.90L154.70,93.04L154.84,93.15L154.98,93.21L155.09,93.20L155.19,93.14L155.25,93.04L155.26,92.89L155.23,92.71L155.16,92.54L155.05,92.38L154.92,92.25L154.79,92.17L154.66,92.14L154.55,92.17L154.47,92.26L154.43,92.39L154.44,92.55L154.49,92.73L154.58,92.90"/><path style="stroke:#000000;stroke-width:0.088" d="M155.26,92.89L155.15,92.79L155.03,92.64L154.94,92.47L154.88,92.29L154.88,92.22"/><path style="stroke:#000000;stroke-width:0.088" d="M155.26,89.37L155.23,89.19L155.16,89.02L155.05,88.86L154.92,88.73L154.79,88.65L154.66,88.62L154.55,88.65L154.47,88.74L154.43,88.87L154.44,89.03L154.49,89.21L154.58,89.38L154.70,89.52L154.84,89.63L154.98,89.69L155.09,89.68L155.19,89.63L155.25,89.52L155.26,89.37L155.15,89.27L155.03,89.12L154.94,88.95L154.88,88.77L154.88,88.70"/><path style="stroke:#000000;stroke-width:0.088" d="M155.48,95.19L155.55,95.35L155.61,95.43"/><path style="stroke:#000000;stroke-width:0.088" d="M155.06,92.39L155.13,92.55L155.20,92.63"/><path style="stroke:#000000;stroke-width:0.088" d="M155.06,88.87L155.13,89.03L155.20,89.11"/><path style="stroke:#000000;stroke-width:0.088" d="M156.92,97.01L158.03,96.37L158.01,96.55L157.92,96.69L156.70,97.40"/><path style="stroke:#000000;stroke-width:0.088" d="M156.92,85.49L158.03,84.85L158.03,96.37"/><path style="stroke:#000000;stroke-width:0.088" d="M156.92,82.93L157.27,83.19L157.58,83.55L157.82,83.98L157.98,84.43L158.03,84.85"/><path style="stroke:#000000;stroke-width:0.088" d="M152.91,80.61L154.07,79.95L154.13,79.88L154.16,79.84L154.18,79.75L85.18,39.92L85.16,40.00L85.14,40.05L85.07,40.11L84.02,40.71"/><path style="stroke:#000000;stroke-width:0.088" d="M85.18,39.92L85.18,39.60L85.20,39.51L85.23,39.44L85.30,39.40L85.37,39.40L85.47,39.43L153.90,78.95L153.99,79.02L154.07,79.11L154.13,79.21L154.17,79.33L154.18,79.43L154.18,79.75"/><path style="stroke:#000000;stroke-width:0.088" d="M85.07,40.11L154.07,79.95"/><path style="stroke:#000000;stroke-width:0.088" d="M85.47,39.43L85.57,39.37L154.01,78.89L153.90,78.95"/><path style="stroke:#000000;stroke-width:0.088" d="M85.30,39.40L85.41,39.34L85.48,39.34L85.57,39.37"/><path style="stroke:#000000;stroke-width:0.088" d="M97.34,48.41L96.24,47.77"/><path style="stroke:#000000;stroke-width:0.088" d="M97.23,48.47L96.24,47.90"/><path style="stroke:#000000;stroke-width:0.088" d="M136.58,71.19L135.59,70.62"/><path style="stroke:#000000;stroke-width:0.088" d="M136.69,71.13L135.59,70.49"/><path style="stroke:#000000;stroke-width:0.088" d="M154.18,79.43L154.29,79.37L154.29,79.69L154.28,79.77L154.25,79.86L154.20,79.95L154.14,80.02L154.07,80.07L153.02,80.68"/><path style="stroke:#000000;stroke-width:0.088" d="M154.01,78.89L154.10,78.95L154.18,79.04L154.24,79.15L154.28,79.26L154.29,79.37"/><path style="stroke:#000000;stroke-width:0.088" d="M48.30,75.57L43.77,78.19L43.74,78.25L43.21,80.23L43.11,80.25L43.06,80.35L43.00,80.43L42.91,80.47L42.82,80.48L42.68,80.41L29.16,72.61L29.07,72.54L29.01,72.44L28.97,72.33L28.96,72.21L28.97,72.09L29.50,70.11L29.56,69.98L29.65,69.89L29.65,69.83L29.71,69.86"/><path style="stroke:#000000;stroke-width:0.088" d="M29.48,71.95L29.46,72.01L29.46,72.08L29.49,72.15L29.52,72.21L29.57,72.25L29.62,72.27L29.67,72.26L29.72,72.24L29.75,72.19L29.77,72.14L29.78,72.06L29.77,71.99L29.74,71.93L29.70,71.88L29.65,71.85L29.60,71.84L29.55,71.86L29.51,71.89L29.48,71.95"/><path style="stroke:#000000;stroke-width:0.088" d="M29.64,71.85L29.61,71.88L29.58,71.93L29.57,72.00L29.57,72.07L29.59,72.13L29.62,72.19L29.67,72.23L29.71,72.25"/><path style="stroke:#000000;stroke-width:0.088" d="M29.65,69.70L81.94,39.51L81.91,39.50L81.85,39.51L29.56,69.70L29.62,69.69L29.82,69.80L29.65,69.89L43.79,78.05L43.69,78.14L43.63,78.27L29.50,70.11"/><path style="stroke:#000000;stroke-width:0.088" d="M29.54,70.02L29.54,69.77L29.56,69.70"/><path style="stroke:#000000;stroke-width:0.088" d="M42.51,79.67L42.54,79.73L42.59,79.77L42.64,79.79L42.69,79.78L42.74,79.76L42.78,79.71L42.80,79.66L42.81,79.58L42.79,79.51L42.77,79.45L42.72,79.40L42.68,79.37L42.62,79.36L42.57,79.38L42.53,79.41L42.50,79.47L42.49,79.53L42.49,79.60L42.51,79.67"/><path style="stroke:#000000;stroke-width:0.088" d="M42.67,79.37L42.63,79.40L42.60,79.45L42.59,79.52L42.59,79.59L42.61,79.65L42.65,79.71L42.69,79.75L42.73,79.76"/><path style="stroke:#000000;stroke-width:0.088" d="M42.91,80.47L43.02,80.45L43.10,80.41L43.17,80.34L43.21,80.23"/><path style="stroke:#000000;stroke-width:0.088" d="M43.11,80.25L43.63,78.27"/><path style="stroke:#000000;stroke-width:0.088" d="M43.79,78.05L48.30,75.45"/><path style="stroke:#000000;stroke-width:0.088" d="M52.07,73.27L96.24,47.77L96.24,47.90L52.18,73.33"/><path style="stroke:#000000;stroke-width:0.088" d="M81.94,39.51L94.58,46.81"/><path style="stroke:#000000;stroke-width:0.088" d="M83.12,40.79L83.07,40.76L82.93,40.73L82.80,40.76L82.76,40.79"/><path style="stroke:#000000;stroke-width:0.088" d="M82.91,40.85L82.78,40.82L82.74,40.78L82.72,40.74L82.73,40.70L82.76,40.66L82.80,40.63L82.93,40.60L83.07,40.63L83.12,40.66L83.15,40.70L83.15,40.74L83.14,40.78L83.10,40.81L82.98,40.85L82.91,40.85"/><path style="stroke:#000000;stroke-width:0.088" d="M89.11,44.36L89.10,44.42L89.12,44.46L89.16,44.49L89.28,44.53L89.35,44.53L89.46,44.50L89.51,44.46L89.53,44.42L89.52,44.38L89.49,44.34L89.38,44.29L89.24,44.29L89.18,44.31L89.11,44.36"/><path style="stroke:#000000;stroke-width:0.088" d="M89.49,44.47L89.44,44.44L89.31,44.41L89.18,44.44L89.13,44.47"/><path style="stroke:#000000;stroke-width:0.088" d="M85.43,101.36L85.43,100.72L137.25,70.81L138.36,71.45L138.36,72.09L86.54,102.00L85.43,101.36"/><path style="stroke:#000000;stroke-width:0.088" d="M85.43,100.72L86.54,101.36L138.36,71.45"/><path style="stroke:#000000;stroke-width:0.088" d="M86.54,102.00L86.54,101.36"/><path style="stroke:#000000;stroke-width:0.088" d="M86.17,100.65L86.23,100.59L86.32,100.54L86.44,100.50L86.57,100.50L86.70,100.52L86.82,100.56L86.88,100.61L86.93,100.68L86.93,100.76L86.89,100.83L86.81,100.89L86.71,100.93L86.58,100.95L86.45,100.94L86.33,100.92L86.24,100.87L86.17,100.80L86.15,100.73L86.17,100.65"/><path style="stroke:#000000;stroke-width:0.088" d="M86.65,100.94L86.57,100.92L86.50,100.92L86.43,100.94"/><path style="stroke:#000000;stroke-width:0.088" d="M86.27,100.88L86.32,100.86L86.44,100.82L86.57,100.82L86.69,100.83L86.80,100.87L86.81,100.89"/><path style="stroke:#000000;stroke-width:0.088" d="M103.58,90.92L103.60,90.95L103.60,90.98L103.58,91.01L103.51,91.05L103.41,91.05L103.36,91.04L103.32,91.02L103.30,91.00L103.29,90.97L103.29,90.94L103.32,90.91L103.40,90.88L103.50,90.88L103.55,90.90L103.58,90.92"/><path style="stroke:#000000;stroke-width:0.088" d="M103.29,90.94L103.32,90.96L103.34,90.94L103.41,90.91L103.50,90.91L103.53,90.93L103.57,90.97L103.58,90.99L103.54,91.03"/><path style="stroke:#000000;stroke-width:0.088" d="M103.32,90.96L103.31,90.99L103.34,91.03"/><path style="stroke:#000000;stroke-width:0.088" d="M120.50,81.19L120.50,81.21L120.49,81.24L120.46,81.26L120.38,81.29L120.32,81.29L120.23,81.27L120.21,81.24L120.19,81.21L120.19,81.19L120.21,81.16L120.25,81.13L120.34,81.11L120.44,81.13L120.48,81.15L120.50,81.19"/><path style="stroke:#000000;stroke-width:0.088" d="M120.25,81.27L120.21,81.23L120.22,81.21L120.23,81.19L120.26,81.16L120.34,81.15L120.43,81.16L120.46,81.19L120.48,81.20L120.48,81.24L120.46,81.26L120.45,81.27"/><path style="stroke:#000000;stroke-width:0.088" d="M137.15,71.23L137.03,71.26L136.94,71.31L136.88,71.38L136.86,71.45L136.88,71.52L136.95,71.59L137.04,71.64L137.16,71.67L137.29,71.67L137.41,71.65L137.52,71.61L137.60,71.55L137.64,71.48L137.64,71.40L137.59,71.33L137.53,71.29L137.40,71.24L137.27,71.22L137.15,71.23"/><path style="stroke:#000000;stroke-width:0.088" d="M137.14,71.66L137.21,71.64L137.28,71.64L137.36,71.66"/><path style="stroke:#000000;stroke-width:0.088" d="M137.52,71.61L137.51,71.60L137.40,71.56L137.27,71.54L137.15,71.55L137.03,71.58L136.98,71.61"/><path style="stroke:#000000;stroke-width:0.088" d="M88.37,99.03L87.65,98.61L87.65,97.01L89.03,97.81L91.81,96.21L91.81,97.04"/><path style="stroke:#000000;stroke-width:0.088" d="M87.65,97.01L90.42,95.41L91.81,96.21"/><path style="stroke:#000000;stroke-width:0.088" d="M89.03,97.81L89.03,98.64"/><path style="stroke:#000000;stroke-width:0.088" d="M89.11,97.38L88.95,97.41L88.77,97.40L88.61,97.36L88.47,97.29L88.38,97.20L88.35,97.10L88.37,96.99L88.46,96.90L88.59,96.83L88.75,96.79L88.93,96.78L89.11,96.80L89.26,96.85L89.28,96.87L89.37,96.93L89.44,97.03L89.44,97.14L89.38,97.24L89.28,97.32L89.13,97.38L89.11,97.38"/><path style="stroke:#000000;stroke-width:0.088" d="M88.62,97.36L88.75,97.33L88.93,97.32L89.11,97.34L89.16,97.36"/><path style="stroke:#000000;stroke-width:0.088" d="M89.89,96.77L89.88,96.77L89.79,96.79L89.68,96.79L89.58,96.77L89.50,96.74L89.44,96.69L89.42,96.63L89.42,96.57L89.46,96.52L89.51,96.48L89.53,96.47L89.62,96.44L89.72,96.43L89.82,96.44L89.92,96.47L89.99,96.51L90.03,96.56L90.04,96.62L90.02,96.68L89.96,96.73L89.89,96.77"/><path style="stroke:#000000;stroke-width:0.088" d="M89.94,96.74L89.97,96.71L89.99,96.66L89.98,96.61L89.95,96.56L89.89,96.53L89.81,96.50L89.72,96.50L89.64,96.51L89.56,96.53L89.54,96.54L89.50,96.57L89.47,96.62L89.46,96.67L89.49,96.71L89.52,96.75"/><path style="stroke:#000000;stroke-width:0.088" d="M89.46,96.65L89.46,96.67"/><path style="stroke:#000000;stroke-width:0.088" d="M90.24,95.88L90.12,95.94L90.04,96.03L90.01,96.14L90.04,96.24L90.13,96.33L90.27,96.40L90.44,96.44L90.62,96.45L90.79,96.42L90.94,96.36L91.05,96.28L91.10,96.18L91.10,96.07L91.04,95.98L90.95,95.91L90.92,95.89L90.77,95.84L90.59,95.82L90.41,95.83L90.25,95.87L90.24,95.88"/><path style="stroke:#000000;stroke-width:0.088" d="M90.83,96.40L90.77,96.38L90.59,96.36L90.41,96.37L90.29,96.40"/><path style="stroke:#000000;stroke-width:0.088" d="M46.08,78.65L45.45,79.01L45.36,79.10L45.30,79.23L44.77,81.21L44.75,81.33L44.76,81.45L44.81,81.56L44.87,81.66L44.95,81.72L82.08,103.16L82.17,103.19L82.26,103.19L82.34,103.15L82.41,103.07L82.45,102.97L82.56,102.95L82.51,103.05L82.45,103.13L82.37,103.17L82.26,103.19"/><path style="stroke:#000000;stroke-width:0.088" d="M45.50,81.36L45.42,81.31L45.38,81.25L45.36,81.12L45.40,81.00L45.45,80.97L45.50,81.00L45.57,81.11L45.58,81.19L45.57,81.26L45.51,81.36L45.47,81.38L45.41,81.39L45.36,81.37L45.31,81.33L45.26,81.20L45.27,81.07L45.30,81.01L45.34,80.98L45.39,80.96L45.45,80.97"/><path style="stroke:#000000;stroke-width:0.088" d="M45.30,79.23L82.98,100.98L83.04,100.86L83.14,100.77L87.65,98.16"/><path style="stroke:#000000;stroke-width:0.088" d="M83.14,100.77L45.45,79.01"/><path style="stroke:#000000;stroke-width:0.088" d="M58.75,88.65L58.70,88.64L58.64,88.65L58.60,88.69L58.57,88.75L58.56,88.88L58.62,89.01L58.66,89.05L58.71,89.07L58.77,89.06L58.81,89.04L58.87,88.94L58.88,88.86L58.84,88.73L58.80,88.68L58.75,88.65L58.71,88.67L58.66,88.80L58.69,88.93L58.72,88.99L58.80,89.04"/><path style="stroke:#000000;stroke-width:0.088" d="M68.78,94.80L68.70,94.75L68.66,94.69L68.64,94.55L68.68,94.43L68.72,94.41L68.77,94.44L68.84,94.55L68.85,94.62L68.84,94.70L68.79,94.80L68.75,94.82L68.69,94.83L68.64,94.81L68.59,94.77L68.54,94.64L68.53,94.57L68.58,94.45L68.62,94.41L68.67,94.40L68.72,94.41"/><path style="stroke:#000000;stroke-width:0.088" d="M82.08,102.48L82.00,102.43L81.94,102.30L81.95,102.17L81.98,102.11L82.02,102.09L81.97,102.08L81.92,102.09L81.88,102.13L81.85,102.18L81.84,102.32L81.89,102.45L81.94,102.49L81.99,102.51L82.04,102.50L82.09,102.48L82.15,102.37L82.14,102.23L82.11,102.17L82.02,102.09"/><path style="stroke:#000000;stroke-width:0.088" d="M82.56,102.95L83.09,100.97L83.12,100.91L87.65,98.29"/><path style="stroke:#000000;stroke-width:0.088" d="M82.45,102.97L82.98,100.98"/><path style="stroke:#000000;stroke-width:0.088" d="M91.53,96.05L135.59,70.61L135.59,70.49L91.42,95.99"/><path style="stroke:#000000;stroke-width:0.088" d="M133.93,69.53L99.01,49.37"/><path style="stroke:#000000;stroke-width:0.088" d="M105.84,53.91L105.79,53.88L105.66,53.85L105.59,53.86L105.48,53.91"/><path style="stroke:#000000;stroke-width:0.088" d="M105.48,53.78L105.45,53.82L105.45,53.86L105.47,53.90L105.51,53.93L105.63,53.97L105.70,53.97L105.81,53.94L105.86,53.90L105.88,53.86L105.87,53.81L105.84,53.78L105.73,53.73L105.59,53.73L105.48,53.78"/><path style="stroke:#000000;stroke-width:0.088" d="M112.41,57.91L112.51,57.86L112.58,57.85L112.72,57.88L112.77,57.91"/><path style="stroke:#000000;stroke-width:0.088" d="M112.44,57.76L112.51,57.73L112.65,57.73L112.77,57.78L112.80,57.81L112.80,57.86L112.79,57.90L112.70,57.96L112.56,57.97L112.49,57.96L112.43,57.93L112.37,57.86L112.38,57.82L112.44,57.76"/><path style="stroke:#000000;stroke-width:0.088" d="M119.98,62.07L119.92,62.04L119.79,62.01L119.72,62.02L119.61,62.07"/><path style="stroke:#000000;stroke-width:0.088" d="M119.64,61.92L119.72,61.89L119.86,61.89L119.97,61.94L120.00,61.97L120.01,62.01L119.99,62.05L119.90,62.11L119.83,62.13L119.69,62.12L119.64,62.09L119.58,62.02L119.58,61.98L119.64,61.92"/><path style="stroke:#000000;stroke-width:0.088" d="M126.90,66.07L126.85,66.04L126.72,66.01L126.61,66.03L126.54,66.07"/><path style="stroke:#000000;stroke-width:0.088" d="M126.54,65.94L126.65,65.89L126.79,65.89L126.90,65.94L126.93,65.97L126.94,66.01L126.92,66.05L126.87,66.09L126.76,66.13L126.69,66.13L126.56,66.09L126.53,66.06L126.51,66.02L126.51,65.98L126.54,65.94"/><path style="stroke:#000000;stroke-width:0.088" d="M49.02,76.31L48.30,75.89L48.30,74.29L49.69,75.09L49.69,75.93"/><path style="stroke:#000000;stroke-width:0.088" d="M48.30,74.29L51.07,72.69L52.46,73.49L52.46,74.33"/><path style="stroke:#000000;stroke-width:0.088" d="M49.03,74.48L49.12,74.57L49.26,74.64L49.42,74.68L49.60,74.69L49.78,74.66L49.93,74.60L50.04,74.52L50.09,74.42L50.09,74.32L50.03,74.22L49.94,74.15L49.91,74.14L49.76,74.08L49.58,74.06L49.40,74.07L49.24,74.11L49.11,74.18L49.07,74.23L49.03,74.28L49.00,74.38L49.03,74.48"/><path style="stroke:#000000;stroke-width:0.088" d="M49.27,74.65L49.40,74.61L49.58,74.60L49.76,74.63L49.82,74.65"/><path style="stroke:#000000;stroke-width:0.088" d="M49.69,75.09L52.46,73.49"/><path style="stroke:#000000;stroke-width:0.088" d="M50.11,73.98L50.09,73.97L50.07,73.91L50.07,73.85L50.11,73.80L50.16,73.77L50.18,73.75L50.27,73.72L50.37,73.71L50.48,73.72L50.57,73.75L50.64,73.79L50.68,73.85L50.69,73.91L50.67,73.96L50.61,74.01L50.53,74.05L50.44,74.07L50.33,74.07L50.24,74.05L50.15,74.02L50.11,73.98"/><path style="stroke:#000000;stroke-width:0.088" d="M50.59,74.03L50.63,73.99L50.65,73.94L50.64,73.89L50.60,73.85L50.54,73.81L50.48,73.79L50.46,73.79L50.37,73.78L50.29,73.79L50.21,73.81L50.19,73.82L50.15,73.85L50.12,73.90L50.11,73.95L50.14,74.00L50.18,74.03"/><path style="stroke:#000000;stroke-width:0.088" d="M50.12,73.94L50.12,73.95"/><path style="stroke:#000000;stroke-width:0.088" d="M50.67,73.45L50.70,73.52L50.78,73.61L50.92,73.68L51.09,73.72L51.27,73.73L51.44,73.70L51.59,73.64L51.70,73.56L51.75,73.46L51.75,73.36L51.69,73.26L51.60,73.19L51.57,73.18L51.42,73.12L51.25,73.10L51.07,73.11L50.90,73.15L50.77,73.22L50.69,73.32L50.66,73.42L50.67,73.45"/><path style="stroke:#000000;stroke-width:0.088" d="M51.48,73.69L51.42,73.67L51.25,73.64L51.07,73.65L50.94,73.69"/><path style="stroke:#000000;stroke-width:0.088" d="M141.68,92.53L148.61,96.53L148.61,97.17L141.68,93.17L141.68,92.53L143.90,91.25L143.90,86.48"/><path style="stroke:#000000;stroke-width:0.088" d="M143.90,91.25L150.83,95.25L148.61,96.53"/><path style="stroke:#000000;stroke-width:0.088" d="M144.84,93.88L145.23,93.65L145.34,93.61L145.46,93.58"/><path style="stroke:#000000;stroke-width:0.088" d="M144.83,93.88L144.96,93.86L145.06,93.81L145.84,93.36L145.92,93.30L145.96,93.23L145.96,93.15L145.92,93.07L145.84,93.01L145.73,92.97L145.60,92.94L145.47,92.94L145.34,92.97L145.23,93.01L144.91,93.20L144.45,93.46L144.38,93.52L144.33,93.60L144.33,93.67L144.38,93.75L144.45,93.81L144.56,93.86L144.69,93.88L144.83,93.88"/><path style="stroke:#000000;stroke-width:0.088" d="M144.45,93.81L144.45,93.46"/><path style="stroke:#000000;stroke-width:0.088" d="M144.70,89.69L144.70,89.76L144.72,89.88L144.76,90.00L144.83,90.12L144.91,90.22L145.01,90.29L145.10,90.33L145.19,90.33L145.26,90.29L145.30,90.22L145.31,90.12L145.31,87.62L145.30,87.50L145.26,87.38L145.19,87.26L145.10,87.16L145.01,87.09L144.91,87.06L144.83,87.06L144.76,87.10L144.72,87.17L144.70,87.27L144.70,89.69"/><path style="stroke:#000000;stroke-width:0.088" d="M144.70,89.76L145.26,89.44L145.27,89.56L145.31,89.68"/><path style="stroke:#000000;stroke-width:0.088" d="M144.70,87.27L145.01,87.09"/><path style="stroke:#000000;stroke-width:0.088" d="M150.83,95.25L150.83,89.49L144.76,85.99"/><path style="stroke:#000000;stroke-width:0.088" d="M145.23,93.65L145.23,93.01"/><path style="stroke:#000000;stroke-width:0.088" d="M145.26,87.39L145.26,89.44"/><path style="stroke:#000000;stroke-width:0.088" d="M148.61,97.17L151.38,95.57L151.38,89.17L145.31,85.67"/><path style="stroke:#000000;stroke-width:0.088" d="M147.78,95.73L147.70,95.67L147.66,95.59L147.66,95.52L147.70,95.44L147.78,95.38L147.78,95.73L147.89,95.78L148.02,95.80L148.15,95.80L148.28,95.78L148.39,95.73L148.78,95.50L148.67,95.53L148.56,95.57L148.16,95.80"/><path style="stroke:#000000;stroke-width:0.088" d="M147.78,95.38L148.56,94.93L148.67,94.89L148.79,94.86L148.93,94.86L149.06,94.89L149.17,94.93L149.24,94.99L149.29,95.07L149.29,95.15L149.24,95.22L149.17,95.28L148.78,95.50L148.79,95.50"/><path style="stroke:#000000;stroke-width:0.088" d="M148.56,95.57L148.56,94.93"/><path style="stroke:#000000;stroke-width:0.088" d="M148.14,92.01L148.16,92.04L148.24,92.14L148.33,92.21L148.43,92.25L148.51,92.25L148.58,92.21L148.62,92.14L148.64,92.04L148.64,89.54L148.62,89.42L148.58,89.30L148.51,89.18L148.43,89.08L148.33,89.01L148.03,89.19L148.03,91.68L148.04,91.80L148.09,91.92L148.14,92.01"/><path style="stroke:#000000;stroke-width:0.088" d="M148.03,91.68L148.58,91.36L148.60,91.48L148.64,91.60"/><path style="stroke:#000000;stroke-width:0.088" d="M148.58,91.36L148.58,89.31"/><path style="stroke:#000000;stroke-width:0.088" d="M148.03,89.19L148.04,89.09L148.09,89.01L148.16,88.98L148.24,88.98L148.33,89.01"/><path style="stroke:#000000;stroke-width:0.088" d="M150.83,89.49L151.38,89.17"/><path style="stroke:#000000;stroke-width:0.088" d="M48.47,76.63L47.47,76.05"/><path style="stroke:#000000;stroke-width:0.088" d="M49.02,76.31L48.02,75.73"/><path style="stroke:#000000;stroke-width:0.088" d="M87.82,99.35L86.82,98.77"/><path style="stroke:#000000;stroke-width:0.088" d="M88.37,99.03L87.37,98.45"/><path style="stroke:#000000;stroke-width:0.088" d="M38.12,86.23L38.21,86.33L39.39,87.01"/><path style="stroke:#000000;stroke-width:0.088" d="M38.99,84.34L44.93,80.60"/><path style="stroke:#000000;stroke-width:0.088" d="M40.33,87.41L40.33,87.43"/><path style="stroke:#000000;stroke-width:0.088" d="M46.29,82.50L41.15,85.74L40.87,85.93L40.73,86.09"/><path style="stroke:#000000;stroke-width:0.088" d="M40.79,85.54L41.15,85.74"/><path style="stroke:#000000;stroke-width:0.088" d="M47.78,83.36L41.10,87.58"/><path style="stroke:#000000;stroke-width:0.088" d="M81.48,57.57L82.31,57.04L82.56,56.92L82.61,56.92"/><path style="stroke:#000000;stroke-width:0.088" d="M82.35,57.07L82.31,57.04"/><path style="stroke:#000000;stroke-width:0.088" d="M35.96,80.45L34.82,84.71L37.59,86.31L40.72,85.82L40.83,85.40L38.02,85.84L39.04,82.00L36.27,80.40L35.96,80.45L38.73,82.05L37.59,86.31"/><path style="stroke:#000000;stroke-width:0.088" d="M36.23,82.84L36.24,82.97L36.21,83.09L36.16,83.19L36.08,83.26L35.99,83.29L35.89,83.28L35.80,83.22L35.73,83.14L35.67,83.02L35.65,82.90L35.66,82.77L35.67,82.73L35.70,82.66L35.76,82.57L35.85,82.52L35.95,82.51L36.04,82.55L36.12,82.62L36.19,82.72L36.23,82.84"/><path style="stroke:#000000;stroke-width:0.088" d="M36.14,83.16L36.14,83.16L36.07,83.10L36.01,83.02L35.98,82.91L35.97,82.80L35.99,82.70L36.03,82.61L36.06,82.59"/><path style="stroke:#000000;stroke-width:0.088" d="M36.16,83.14L36.10,83.20L36.02,83.23L35.94,83.22L35.86,83.17L35.80,83.10L35.78,83.05L35.75,83.00L35.73,82.89L35.74,82.78L35.77,82.69L35.80,82.66L35.83,82.62L35.90,82.57L35.98,82.57L36.06,82.59L36.14,82.66L36.19,82.74L36.22,82.85L36.23,82.96L36.21,83.06L36.16,83.14"/><path style="stroke:#000000;stroke-width:0.088" d="M36.21,81.67L36.17,81.60L36.14,81.53L36.13,81.44L36.14,81.38L36.15,81.36L36.18,81.30L36.23,81.25L36.29,81.23L36.35,81.23L36.41,81.27L36.46,81.32L36.50,81.40L36.51,81.48L36.51,81.56L36.48,81.63L36.44,81.69L36.39,81.73L36.33,81.73L36.26,81.71L36.21,81.67"/><path style="stroke:#000000;stroke-width:0.088" d="M36.46,81.32L36.46,81.33L36.45,81.39L36.45,81.48L36.48,81.55L36.50,81.59"/><path style="stroke:#000000;stroke-width:0.088" d="M37.65,84.25L37.56,84.24L37.47,84.18L37.39,84.10L37.34,83.98L37.31,83.86L37.32,83.73L37.36,83.62L37.43,83.53L37.51,83.48L37.61,83.47L37.70,83.51L37.79,83.58L37.85,83.68L37.89,83.80L37.90,83.93L37.87,84.05L37.82,84.15L37.74,84.22L37.65,84.25"/><path style="stroke:#000000;stroke-width:0.088" d="M37.73,83.55L37.65,83.53L37.57,83.53L37.49,83.58L37.44,83.65L37.40,83.74L37.40,83.85L37.42,83.96L37.44,84.01L37.46,84.06L37.53,84.13L37.60,84.18L37.68,84.19L37.76,84.16L37.83,84.10L37.87,84.02L37.88,83.96L37.89,83.92L37.89,83.81L37.85,83.70L37.80,83.62L37.73,83.55"/><path style="stroke:#000000;stroke-width:0.088" d="M37.80,84.12L37.80,84.12L37.73,84.06L37.67,83.98L37.64,83.87L37.63,83.76L37.65,83.66L37.70,83.57L37.72,83.55"/><path style="stroke:#000000;stroke-width:0.088" d="M37.89,83.82L37.64,83.86"/><path style="stroke:#000000;stroke-width:0.088" d="M37.89,82.21L37.84,82.26L37.81,82.32L37.81,82.34L37.80,82.40L37.80,82.48L37.83,82.56L37.87,82.63L37.93,82.67L37.99,82.69L38.05,82.69L38.11,82.65L38.15,82.59L38.17,82.52L38.17,82.44L38.16,82.36L38.12,82.28L38.07,82.23L38.01,82.19L37.95,82.19L37.89,82.21"/><path style="stroke:#000000;stroke-width:0.088" d="M38.60,85.22L38.54,85.19L38.47,85.17L38.39,85.15L38.32,85.14L38.27,85.15L38.23,85.16L38.22,85.19L38.23,85.22L38.26,85.25L38.31,85.28L38.38,85.31L38.46,85.33L38.53,85.34L38.59,85.34L38.64,85.33L38.67,85.31L38.67,85.28L38.65,85.25L38.60,85.22"/><path style="stroke:#000000;stroke-width:0.088" d="M38.24,85.23L38.25,85.23L38.26,85.21L38.29,85.20L38.33,85.20L38.34,85.20L38.39,85.20L38.45,85.21L38.51,85.23L38.56,85.26L38.60,85.29L38.62,85.31L38.62,85.33"/><path style="stroke:#000000;stroke-width:0.088" d="M38.24,85.24L38.24,85.23L38.25,85.23"/><path style="stroke:#000000;stroke-width:0.088" d="M40.83,85.40L38.50,84.05"/><path style="stroke:#000000;stroke-width:0.088" d="M38.73,82.05L39.04,82.00"/><path style="stroke:#000000;stroke-width:0.088" d="M38.16,82.55L38.14,82.51L38.11,82.44L38.11,82.35L38.12,82.29L38.12,82.28"/><path style="stroke:#000000;stroke-width:0.088" d="M36.41,88.21L36.41,87.96"/><path style="stroke:#000000;stroke-width:0.088" d="M38.19,88.26L38.19,88.07L38.17,88.06L38.15,88.06L38.12,88.06L38.10,88.06L38.08,88.07L37.42,88.45L37.42,88.45L37.42,88.45L37.42,88.46L37.42,88.46L37.44,88.47L37.45,88.48L37.45,88.48L37.45,88.49L37.45,88.50L37.44,88.50L37.41,88.52L37.40,88.52L37.39,88.52L37.38,88.52L37.37,88.52L37.36,88.52L36.97,88.29L36.96,88.29L36.96,88.28L36.96,88.27L36.96,88.27L36.97,88.26L37.00,88.25L37.01,88.24L37.02,88.24L37.03,88.24L37.04,88.24L37.05,88.25L37.07,88.26L37.08,88.26L37.09,88.26L37.75,87.88L37.76,87.87L37.77,87.85L37.77,87.84L37.76,87.83L37.75,87.81L37.64,87.75L37.62,87.74L37.59,87.74L37.57,87.74L37.54,87.74L37.52,87.75L36.87,88.13L36.87,88.14L36.89,88.15L36.89,88.16L36.90,88.16L36.90,88.17L36.89,88.18L36.89,88.18L36.86,88.20L36.86,88.45L36.85,88.46L36.84,88.46L36.83,88.46L36.81,88.46L36.80,88.45L36.42,88.23L36.41,88.22L36.41,88.22"/><path style="stroke:#000000;stroke-width:0.088" d="M36.42,88.23L36.42,87.97L36.41,87.97L36.41,87.96L36.41,87.95L36.41,87.95L36.42,87.94L36.44,87.93L36.45,87.92L36.47,87.92L36.48,87.92L36.49,87.92L36.50,87.93L36.52,87.94L36.53,87.94L36.54,87.94L37.19,87.56L37.19,87.49L37.08,87.43L37.06,87.42L37.04,87.42L37.01,87.42L36.99,87.42L36.97,87.43L36.32,87.81L36.31,87.81L36.31,87.81L36.31,87.82L36.31,87.82L36.33,87.83L36.34,87.84L36.34,87.84L36.34,87.85L36.34,87.86L36.33,87.86L36.33,88.12L36.34,88.11L36.34,88.11L36.34,88.10"/><path style="stroke:#000000;stroke-width:0.088" d="M36.42,87.97L36.80,88.20L36.81,88.20L36.83,88.20L36.84,88.20L36.85,88.20L36.86,88.20"/><path style="stroke:#000000;stroke-width:0.088" d="M36.34,88.11L36.34,87.85"/><path style="stroke:#000000;stroke-width:0.088" d="M36.33,88.12L36.31,88.13L36.31,87.88L36.33,87.86"/><path style="stroke:#000000;stroke-width:0.088" d="M36.31,88.13L36.30,88.14L36.28,88.14L36.27,88.14L36.26,88.14L36.25,88.13L35.86,87.91L35.86,87.65L35.85,87.65L35.85,87.64L35.85,87.63L35.85,87.63L35.86,87.62L35.89,87.61L35.90,87.60L35.91,87.60L35.92,87.60L35.94,87.60L35.95,87.61L35.97,87.62L35.98,87.62L35.98,87.62L36.64,87.24L36.64,87.17L36.65,87.19L36.66,87.20L36.66,87.21L36.65,87.23L36.64,87.24"/><path style="stroke:#000000;stroke-width:0.088" d="M35.86,87.91L35.85,87.90L35.85,87.90"/><path style="stroke:#000000;stroke-width:0.088" d="M35.85,87.90L35.85,87.64"/><path style="stroke:#000000;stroke-width:0.088" d="M35.86,87.65L36.25,87.88L36.26,87.88L36.27,87.88L36.28,87.88L36.30,87.88L36.31,87.88"/><path style="stroke:#000000;stroke-width:0.088" d="M36.32,87.82L36.32,87.81"/><path style="stroke:#000000;stroke-width:0.088" d="M36.25,87.88L36.25,88.13"/><path style="stroke:#000000;stroke-width:0.088" d="M36.39,87.38L36.39,87.01L36.58,87.12L36.59,87.07L36.60,87.02L36.63,86.96L37.14,86.05"/><path style="stroke:#000000;stroke-width:0.088" d="M36.41,88.01L36.34,88.05"/><path style="stroke:#000000;stroke-width:0.088" d="M36.63,86.96L36.44,86.85L36.41,86.91L36.39,86.96L36.39,87.01"/><path style="stroke:#000000;stroke-width:0.088" d="M36.96,88.28L36.96,88.53"/><path style="stroke:#000000;stroke-width:0.088" d="M36.97,88.29L36.97,88.55L36.96,88.54L36.96,88.54"/><path style="stroke:#000000;stroke-width:0.088" d="M36.89,88.18L36.89,88.44L36.86,88.45"/><path style="stroke:#000000;stroke-width:0.088" d="M36.80,88.20L36.80,88.45"/><path style="stroke:#000000;stroke-width:0.088" d="M36.89,88.44L36.89,88.43L36.90,88.43L36.90,88.42"/><path style="stroke:#000000;stroke-width:0.088" d="M36.90,88.37L36.96,88.33"/><path style="stroke:#000000;stroke-width:0.088" d="M36.90,88.17L36.90,88.43"/><path style="stroke:#000000;stroke-width:0.088" d="M36.97,88.55L37.36,88.77L37.36,88.52"/><path style="stroke:#000000;stroke-width:0.088" d="M36.87,88.13L36.87,88.13L36.87,88.13L36.87,88.14L36.87,88.14"/><path style="stroke:#000000;stroke-width:0.088" d="M37.19,87.49L37.21,87.51L37.21,87.52L37.21,87.53L37.21,87.55L37.19,87.56"/><path style="stroke:#000000;stroke-width:0.088" d="M37.08,87.43L37.08,87.62"/><path style="stroke:#000000;stroke-width:0.088" d="M36.97,87.43L36.97,87.69"/><path style="stroke:#000000;stroke-width:0.088" d="M37.20,87.38L37.11,87.34L37.02,87.27L36.98,87.19L36.99,87.10L37.05,87.02L37.15,86.95L37.28,86.91L37.43,86.89L37.58,86.90L37.71,86.94L37.82,87.00L37.89,87.08L37.90,87.17L37.87,87.26L37.79,87.33L37.67,87.39L37.53,87.42L37.38,87.42L37.23,87.40L37.20,87.38"/><path style="stroke:#000000;stroke-width:0.088" d="M37.36,86.18L37.36,86.37L37.44,86.61L37.50,86.68L36.64,87.17"/><path style="stroke:#000000;stroke-width:0.088" d="M36.44,86.85L36.89,86.04L36.93,85.93"/><path style="stroke:#000000;stroke-width:0.088" d="M36.58,87.12L36.58,87.27"/><path style="stroke:#000000;stroke-width:0.088" d="M37.21,87.39L37.19,87.35L37.20,87.30L37.23,87.26L37.28,87.22L37.35,87.20L37.43,87.19L37.52,87.19L37.59,87.21L37.65,87.25L37.68,87.29L37.69,87.34L37.67,87.38L37.67,87.39"/><path style="stroke:#000000;stroke-width:0.088" d="M37.52,88.61L37.52,88.87L37.91,89.09L37.92,89.10L37.93,89.10L37.95,89.10L37.96,89.10L37.97,89.09L37.97,88.84L37.96,88.84L37.95,88.84L37.93,88.84L37.92,88.84L37.91,88.84L37.52,88.61L37.52,88.61L37.51,88.60L37.51,88.59L37.52,88.59L37.52,88.58L37.55,88.57L37.56,88.56L37.57,88.56L37.59,88.56L37.60,88.56L37.61,88.57L37.63,88.58L37.64,88.58L37.65,88.58L38.08,88.33L38.08,88.07"/><path style="stroke:#000000;stroke-width:0.088" d="M37.91,89.09L37.91,88.84"/><path style="stroke:#000000;stroke-width:0.088" d="M37.97,89.09L38.00,89.08L38.00,88.82L38.00,88.82L38.01,88.81L38.01,88.80L38.00,88.80L38.00,88.79L37.98,88.78L37.97,88.78L37.97,88.77L37.98,88.77L38.63,88.39L38.65,88.38L38.68,88.38L38.69,88.38"/><path style="stroke:#000000;stroke-width:0.088" d="M37.97,88.84L38.00,88.82"/><path style="stroke:#000000;stroke-width:0.088" d="M37.97,88.39L38.30,88.20L38.31,88.19L38.32,88.17L38.32,88.16L38.31,88.15L38.30,88.13L38.19,88.07"/><path style="stroke:#000000;stroke-width:0.088" d="M37.44,88.50L37.44,88.76L37.41,88.77L37.41,88.52"/><path style="stroke:#000000;stroke-width:0.088" d="M37.42,88.46L37.42,88.45"/><path style="stroke:#000000;stroke-width:0.088" d="M37.45,88.49L37.45,88.75L37.45,88.74"/><path style="stroke:#000000;stroke-width:0.088" d="M37.45,88.75L37.45,88.75L37.44,88.76"/><path style="stroke:#000000;stroke-width:0.088" d="M37.41,88.77L37.40,88.78L37.39,88.78L37.38,88.78L37.37,88.78L37.36,88.77"/><path style="stroke:#000000;stroke-width:0.088" d="M37.51,88.85L37.51,88.60"/><path style="stroke:#000000;stroke-width:0.088" d="M37.51,88.86L37.52,88.86L37.52,88.87"/><path style="stroke:#000000;stroke-width:0.088" d="M37.51,88.65L37.45,88.69"/><path style="stroke:#000000;stroke-width:0.088" d="M37.75,87.88L37.75,87.81"/><path style="stroke:#000000;stroke-width:0.088" d="M37.64,87.75L37.64,87.94"/><path style="stroke:#000000;stroke-width:0.088" d="M37.52,87.75L37.52,88.01"/><path style="stroke:#000000;stroke-width:0.088" d="M37.27,87.40L37.34,87.38L37.42,87.37L37.50,87.37L37.57,87.39L37.61,87.40"/><path style="stroke:#000000;stroke-width:0.088" d="M37.49,86.66L37.67,86.69L39.11,87.52"/><path style="stroke:#000000;stroke-width:0.088" d="M39.07,87.58L37.50,86.68"/><path style="stroke:#000000;stroke-width:0.088" d="M37.71,86.71L37.97,86.57L38.21,86.38L38.24,86.35"/><path style="stroke:#000000;stroke-width:0.088" d="M38.01,89.06L38.01,89.07L38.00,89.07L38.00,89.08"/><path style="stroke:#000000;stroke-width:0.088" d="M38.01,89.01L38.63,88.65L38.63,88.39"/><path style="stroke:#000000;stroke-width:0.088" d="M38.01,89.07L38.01,88.81"/><path style="stroke:#000000;stroke-width:0.088" d="M38.30,88.13L38.30,88.20"/><path style="stroke:#000000;stroke-width:0.088" d="M37.98,88.77L37.98,88.78"/><path style="stroke:#000000;stroke-width:0.088" d="M38.63,88.65L38.65,88.64L38.68,88.63L38.69,88.63"/><path style="stroke:#000000;stroke-width:0.088" d="M38.89,88.87L38.69,88.76"/><path style="stroke:#000000;stroke-width:0.088" d="M38.69,88.74L38.88,88.85L38.88,88.86L38.89,88.87L38.89,88.87L38.90,88.87L38.91,88.87L39.38,88.60L39.38,87.48L40.06,86.65L39.71,86.45L38.74,88.18L38.71,88.23L38.69,88.29L38.69,88.34L38.69,88.74L38.69,88.75L38.69,88.76"/><path style="stroke:#000000;stroke-width:0.088" d="M38.74,88.18L38.93,88.29L39.38,87.48"/><path style="stroke:#000000;stroke-width:0.088" d="M38.61,88.66L38.69,88.71"/><path style="stroke:#000000;stroke-width:0.088" d="M38.76,88.13L38.75,88.13L38.67,88.15L38.60,88.17"/><path style="stroke:#000000;stroke-width:0.088" d="M38.88,88.85L38.88,88.45L38.69,88.34"/><path style="stroke:#000000;stroke-width:0.088" d="M39.01,87.70L38.88,87.67L38.72,87.66L38.58,87.68L38.45,87.73L38.36,87.80L38.31,87.89L38.32,87.97L38.37,88.06L38.47,88.13L38.59,88.17L38.73,88.19"/><path style="stroke:#000000;stroke-width:0.088" d="M38.54,88.15L38.53,88.13L38.52,88.08L38.55,88.03L38.60,87.99L38.67,87.97L38.75,87.95L38.83,87.96L38.86,87.96"/><path style="stroke:#000000;stroke-width:0.088" d="M38.88,88.45L38.89,88.40L38.90,88.34L38.93,88.29"/><path style="stroke:#000000;stroke-width:0.088" d="M39.38,88.60L40.10,88.37L40.10,86.61L40.15,86.56L40.19,86.53L39.83,86.32L39.94,86.26L40.10,86.36L40.41,86.18L40.60,86.29L40.19,86.53"/><path style="stroke:#000000;stroke-width:0.088" d="M40.10,88.37L40.60,88.09L40.84,87.90L41.06,87.65L41.23,87.35L41.34,87.04L41.38,86.74L41.34,86.49L41.23,86.30L41.07,86.21"/><path style="stroke:#000000;stroke-width:0.088" d="M40.06,86.65L40.10,86.61"/><path style="stroke:#000000;stroke-width:0.088" d="M39.71,86.45L39.74,86.40L39.79,86.36L39.83,86.32"/><path style="stroke:#000000;stroke-width:0.088" d="M40.33,87.43L40.41,87.39L40.50,87.32L40.58,87.23L40.64,87.11L40.68,86.99L40.68,86.92L40.68,86.89L40.67,86.84"/><path style="stroke:#000000;stroke-width:0.088" d="M40.62,87.89L40.61,87.87L40.60,87.83L40.61,87.84L40.62,87.87L40.63,87.90L40.66,87.91L40.69,87.91L40.72,87.90L40.87,87.82L40.89,87.80L40.91,87.78L41.11,87.52L41.25,87.22L41.32,86.92L41.32,86.65L41.25,86.44L41.11,86.31L40.91,86.27L40.90,86.26L40.88,86.26L40.85,86.28L40.71,86.36L40.68,86.38L40.65,86.42L40.62,86.46L40.61,86.51L40.60,86.55L40.60,86.68L40.60,86.70L40.61,86.71L40.62,86.72L40.63,86.73L40.62,86.72L40.61,86.71L40.61,86.69L40.60,86.68"/><path style="stroke:#000000;stroke-width:0.088" d="M40.63,87.90L40.65,87.91"/><path style="stroke:#000000;stroke-width:0.088" d="M40.60,87.83L40.60,87.70L40.61,87.70L40.61,87.84"/><path style="stroke:#000000;stroke-width:0.088" d="M40.61,87.70L40.61,87.68L40.62,87.66L40.63,87.64L40.64,87.63L40.78,87.50L40.88,87.36L40.96,87.21L40.99,87.05L40.99,86.90L40.96,86.79L40.88,86.72L40.78,86.70L40.64,86.73L40.63,86.73"/><path style="stroke:#000000;stroke-width:0.088" d="M40.60,87.70L40.60,87.68L40.61,87.66L40.62,87.64L40.63,87.62L40.77,87.50L40.87,87.36L40.94,87.20L40.98,87.04L40.98,86.90L40.94,86.78L40.88,86.72"/><path style="stroke:#000000;stroke-width:0.088" d="M40.65,87.61L40.66,87.61"/><path style="stroke:#000000;stroke-width:0.088" d="M40.70,87.43L40.61,87.51L40.52,87.54L40.43,87.54L40.37,87.50L40.33,87.43L40.32,87.35L40.32,87.33L40.34,87.22L40.39,87.10L40.46,86.99L40.55,86.90L40.64,86.85L40.73,86.83L40.80,86.85L40.85,86.91L40.88,87.00L40.87,87.11L40.84,87.22L40.78,87.34L40.70,87.43"/><path style="stroke:#000000;stroke-width:0.088" d="M40.61,86.69L40.61,86.56L40.62,86.51L40.63,86.47L40.66,86.43L40.69,86.39L40.72,86.36L40.71,86.36"/><path style="stroke:#000000;stroke-width:0.088" d="M40.60,86.29L40.84,86.20L41.06,86.20L40.86,86.09L40.65,86.09L40.41,86.18"/><path style="stroke:#000000;stroke-width:0.088" d="M40.85,86.28L40.87,86.28L40.89,86.27L40.91,86.27"/><path style="stroke:#000000;stroke-width:0.088" d="M40.90,86.26L41.09,86.30L41.11,86.31"/><path style="stroke:#000000;stroke-width:0.088" d="M40.60,86.55L40.61,86.56"/><path style="stroke:#000000;stroke-width:0.088" d="M40.87,86.28L40.72,86.36"/><path style="stroke:#000000;stroke-width:0.088" d="M41.06,86.20L41.07,86.21L40.86,86.09L41.01,86.18"/><path style="stroke:#000000;stroke-width:0.088" d="M41.23,86.30L41.07,86.21"/><path style="stroke:#000000;stroke-width:0.088" d="M84.01,56.11L84.09,56.03L85.44,54.96L85.47,55.10"/><path style="stroke:#000000;stroke-width:0.088" d="M84.09,56.03L83.92,55.93L83.70,56.16L83.69,56.16"/><path style="stroke:#000000;stroke-width:0.088" d="M83.92,55.93L84.39,55.57L84.19,55.45L84.22,55.60L84.29,55.64"/><path style="stroke:#000000;stroke-width:0.088" d="M84.19,55.45L85.51,54.41"/><path style="stroke:#000000;stroke-width:0.088" d="M84.64,55.74L84.63,55.66L84.71,55.70"/><path style="stroke:#000000;stroke-width:0.088" d="M84.63,55.66L85.39,55.05L85.61,55.18"/><path style="stroke:#000000;stroke-width:0.088" d="M85.44,54.96L85.26,54.85L85.50,54.66"/><path style="stroke:#000000;stroke-width:0.088" d="M88.77,53.09L88.12,52.59"/><path style="stroke:#000000;stroke-width:0.088" d="M89.23,51.94L89.20,51.98L89.05,52.28L88.95,52.59L88.93,52.89L88.82,53.06L88.17,52.56"/><path style="stroke:#000000;stroke-width:0.088" d="M88.82,53.06L88.63,52.95L88.77,53.05"/><path style="stroke:#000000;stroke-width:0.088" d="M88.83,52.18L88.94,52.27L89.10,52.02"/><path style="stroke:#000000;stroke-width:0.088" d="M88.98,52.09L88.89,52.23"/><path style="stroke:#000000;stroke-width:0.088" d="M89.75,52.69L89.83,52.62L89.91,52.52L89.97,52.40L90.00,52.28L90.01,52.18L89.98,52.09L89.92,52.04L89.85,52.02L89.76,52.04L89.67,52.10L89.59,52.19L89.55,52.24L89.52,52.30L89.47,52.42L89.45,52.53L89.47,52.63L89.51,52.70L89.57,52.73L89.65,52.73L89.75,52.69"/><path style="stroke:#000000;stroke-width:0.088" d="M89.51,52.70L89.49,52.69"/><path style="stroke:#000000;stroke-width:0.088" d="M86.22,53.68L85.48,55.11"/><path style="stroke:#000000;stroke-width:0.088" d="M85.56,54.06L85.41,54.35L85.60,54.46L85.37,54.91"/><path style="stroke:#000000;stroke-width:0.088" d="M86.28,53.65L85.84,54.49L86.33,54.77"/><path style="stroke:#000000;stroke-width:0.088" d="M86.47,53.54L86.47,53.58"/><path style="stroke:#000000;stroke-width:0.088" d="M87.42,54.14L86.42,53.56"/><path style="stroke:#000000;stroke-width:0.088" d="M87.43,54.13L86.43,53.56"/><path style="stroke:#000000;stroke-width:0.088" d="M87.41,53.86L87.42,53.87L87.21,54.01"/><path style="stroke:#000000;stroke-width:0.088" d="M87.42,53.87L87.53,53.91L87.49,54.00"/><path style="stroke:#000000;stroke-width:0.088" d="M87.53,53.91L87.42,53.85"/><path style="stroke:#000000;stroke-width:0.088" d="M87.28,54.05L87.34,53.94L87.56,54.06"/><path style="stroke:#000000;stroke-width:0.088" d="M87.34,53.94L87.49,54.00L87.58,54.05"/><path style="stroke:#000000;stroke-width:0.088" d="M82.35,57.03L82.38,57.00L82.22,56.90L81.98,57.09L81.76,57.34L81.71,57.42"/><path style="stroke:#000000;stroke-width:0.088" d="M82.38,57.00L83.76,56.20L83.57,56.10L84.04,55.82L84.08,55.81"/><path style="stroke:#000000;stroke-width:0.088" d="M82.22,56.90L82.69,56.63L82.50,56.52L82.50,56.69L82.54,56.72"/><path style="stroke:#000000;stroke-width:0.088" d="M82.50,56.69L82.54,56.72"/><path style="stroke:#000000;stroke-width:0.088" d="M82.50,56.52L83.87,55.72L84.04,55.82"/><path style="stroke:#000000;stroke-width:0.088" d="M82.92,56.74L83.70,56.29L83.70,56.29"/><path style="stroke:#000000;stroke-width:0.088" d="M82.92,56.74L82.92,56.74"/><path style="stroke:#000000;stroke-width:0.088" d="M83.70,56.29L83.70,56.29"/><path style="stroke:#000000;stroke-width:0.088" d="M83.76,56.20L83.76,56.25"/><path style="stroke:#000000;stroke-width:0.088" d="M83.87,55.72L84.11,55.63L84.25,55.62"/><path style="stroke:#000000;stroke-width:0.088" d="M84.25,55.62L84.24,55.62"/><path style="stroke:#000000;stroke-width:0.088" d="M86.48,53.53L86.48,53.59"/><path style="stroke:#000000;stroke-width:0.088" d="M87.69,53.56L87.49,53.79L87.25,53.98L87.20,54.00"/><path style="stroke:#000000;stroke-width:0.088" d="M88.06,53.77L87.06,53.20"/><path style="stroke:#000000;stroke-width:0.088" d="M88.03,52.64L88.01,52.73"/><path style="stroke:#000000;stroke-width:0.088" d="M88.58,53.18L87.83,52.75"/><path style="stroke:#000000;stroke-width:0.088" d="M87.94,52.69L88.67,53.10"/><path style="stroke:#000000;stroke-width:0.088" d="M88.58,53.47L88.58,53.15L88.77,53.26L88.77,53.03"/><path style="stroke:#000000;stroke-width:0.088" d="M90.00,52.22L90.01,52.22L90.01,52.17L89.98,52.09L89.92,52.04L89.85,52.02L89.76,52.04L89.67,52.10L89.59,52.19L89.52,52.30L89.47,52.42L89.45,52.53L89.45,52.54L89.07,52.76L89.05,52.75L89.05,52.29L88.98,52.52L88.94,52.82L88.94,53.26"/><path style="stroke:#000000;stroke-width:0.088" d="M89.07,52.76L89.07,52.30L89.05,52.29"/><path style="stroke:#000000;stroke-width:0.088" d="M88.94,52.82L88.94,52.82"/><path style="stroke:#000000;stroke-width:0.088" d="M88.77,53.09L88.73,53.07L88.58,53.15"/><path style="stroke:#000000;stroke-width:0.088" d="M88.73,53.07L88.77,53.09"/><path style="stroke:#000000;stroke-width:0.088" d="M89.07,52.30L89.10,52.21L89.28,51.92"/><path style="stroke:#000000;stroke-width:0.088" d="M89.44,52.55L89.45,52.62"/><path style="stroke:#000000;stroke-width:0.088" d="M89.51,52.70L89.49,52.69L89.45,52.62L89.45,52.62"/><path style="stroke:#000000;stroke-width:0.088" d="M90.40,51.55L90.45,51.67L90.49,51.92L90.49,52.37"/><path style="stroke:#000000;stroke-width:0.088" d="M90.01,52.22L90.40,51.99L90.40,51.53L90.36,51.49L90.19,51.39L90.32,51.47"/><path style="stroke:#000000;stroke-width:0.088" d="M90.19,51.39L90.29,51.45"/><path style="stroke:#000000;stroke-width:0.088" d="M83.77,99.76L82.66,99.12L82.66,99.76L83.77,100.40L83.77,99.76L87.65,97.52"/><path style="stroke:#000000;stroke-width:0.088" d="M82.66,99.12L134.48,69.21L135.59,69.85L135.59,70.49L91.42,95.99"/><path style="stroke:#000000;stroke-width:0.088" d="M84.04,99.29L84.12,99.23L84.16,99.16L84.15,99.08L84.11,99.01L84.03,98.95L83.92,98.91L83.79,98.90L83.67,98.91L83.55,98.94L83.46,98.99L83.40,99.05L83.38,99.13L83.40,99.20L83.47,99.27L83.56,99.32L83.68,99.34L83.81,99.35L83.93,99.33L84.04,99.29L84.03,99.27L83.92,99.23L83.79,99.22L83.67,99.23L83.55,99.26L83.50,99.28"/><path style="stroke:#000000;stroke-width:0.088" d="M83.88,99.34L83.80,99.32L83.73,99.32L83.66,99.34"/><path style="stroke:#000000;stroke-width:0.088" d="M83.77,100.40L87.65,98.16"/><path style="stroke:#000000;stroke-width:0.088" d="M90.86,95.67L135.59,69.85"/><path style="stroke:#000000;stroke-width:0.088" d="M100.69,89.45L100.59,89.44L100.55,89.42L100.53,89.40L100.52,89.37L100.52,89.34L100.55,89.31L100.63,89.28L100.74,89.28L100.81,89.32L100.83,89.35L100.83,89.38L100.81,89.41L100.78,89.43L100.69,89.45"/><path style="stroke:#000000;stroke-width:0.088" d="M100.52,89.34L100.55,89.36L100.54,89.39L100.55,89.41L100.57,89.43"/><path style="stroke:#000000;stroke-width:0.088" d="M100.77,89.43L100.80,89.39L100.80,89.37L100.79,89.35L100.72,89.31L100.68,89.31L100.60,89.32L100.55,89.36"/><path style="stroke:#000000;stroke-width:0.088" d="M117.72,79.64L117.69,79.67L117.65,79.68L117.55,79.69L117.46,79.67L117.43,79.64L117.42,79.61L117.42,79.58L117.44,79.56L117.48,79.53L117.57,79.51L117.62,79.52L117.71,79.55L117.73,79.58L117.73,79.61L117.72,79.64"/><path style="stroke:#000000;stroke-width:0.088" d="M117.47,79.67L117.44,79.63L117.45,79.61L117.46,79.58L117.53,79.55L117.57,79.55L117.66,79.56L117.69,79.59L117.71,79.63L117.69,79.67L117.68,79.67"/><path style="stroke:#000000;stroke-width:0.088" d="M117.66,79.56L117.67,79.57"/><path style="stroke:#000000;stroke-width:0.088" d="M134.75,70.01L134.64,70.05L134.52,70.07L134.39,70.07L134.27,70.04L134.18,69.99L134.11,69.92L134.09,69.85L134.11,69.78L134.17,69.71L134.26,69.66L134.38,69.63L134.50,69.62L134.63,69.64L134.74,69.68L134.82,69.73L134.86,69.80L134.87,69.88L134.83,69.95L134.75,70.01L134.74,70.00L134.63,69.96L134.50,69.94L134.38,69.95L134.26,69.98L134.21,70.01"/><path style="stroke:#000000;stroke-width:0.088" d="M134.59,70.06L134.51,70.04L134.44,70.04L134.37,70.06"/><path style="stroke:#000000;stroke-width:0.088" d="M44.42,77.05L43.31,76.41L43.31,77.05L44.42,77.69L44.42,77.05L48.30,74.81"/><path style="stroke:#000000;stroke-width:0.088" d="M43.31,76.41L95.13,46.49L96.24,47.13L96.24,47.77L52.07,73.27"/><path style="stroke:#000000;stroke-width:0.088" d="M44.15,76.57L44.20,76.54L44.32,76.51L44.45,76.50L44.57,76.52L44.68,76.56L44.69,76.57L44.77,76.51L44.81,76.44L44.81,76.36L44.76,76.29L44.68,76.24L44.57,76.20L44.45,76.18L44.32,76.19L44.20,76.22L44.11,76.27L44.05,76.34L44.03,76.41L44.05,76.48L44.12,76.55L44.21,76.60L44.33,76.63L44.46,76.63L44.59,76.61L44.69,76.57"/><path style="stroke:#000000;stroke-width:0.088" d="M44.42,77.69L48.30,75.45"/><path style="stroke:#000000;stroke-width:0.088" d="M44.31,76.62L44.38,76.60L44.45,76.60L44.53,76.62"/><path style="stroke:#000000;stroke-width:0.088" d="M96.24,47.13L51.52,72.95"/><path style="stroke:#000000;stroke-width:0.088" d="M61.18,66.68L61.17,66.65L61.18,66.62L61.20,66.59L61.28,66.56L61.38,66.56L61.43,66.58L61.46,66.60L61.48,66.63L61.48,66.66L61.46,66.69L61.39,66.73L61.29,66.73L61.24,66.72L61.20,66.70L61.18,66.68"/><path style="stroke:#000000;stroke-width:0.088" d="M61.22,66.71L61.19,66.67L61.20,66.64L61.18,66.62"/><path style="stroke:#000000;stroke-width:0.088" d="M61.20,66.64L61.25,66.60L61.33,66.59L61.38,66.59L61.44,66.63L61.46,66.65L61.46,66.68L61.43,66.72"/><path style="stroke:#000000;stroke-width:0.088" d="M78.33,56.96L78.35,56.95L78.27,56.97L78.21,56.98L78.11,56.95L78.09,56.93L78.07,56.90L78.08,56.87L78.10,56.84L78.13,56.82L78.22,56.80L78.28,56.80L78.36,56.84L78.38,56.86L78.38,56.89L78.37,56.92L78.35,56.95L78.36,56.92L78.36,56.89L78.31,56.85L78.24,56.83L78.18,56.83L78.12,56.86L78.10,56.89L78.10,56.91L78.13,56.95"/><path style="stroke:#000000;stroke-width:0.088" d="M78.36,56.92L78.36,56.89"/><path style="stroke:#000000;stroke-width:0.088" d="M78.34,56.87L78.32,56.85"/><path style="stroke:#000000;stroke-width:0.088" d="M95.40,47.29L95.30,47.33L95.17,47.35L95.04,47.35L94.92,47.32L94.83,47.27L94.76,47.21L94.74,47.13L94.76,47.06L94.82,46.99L94.91,46.94L95.03,46.91L95.16,46.90L95.28,46.92L95.39,46.96L95.47,47.02L95.52,47.09L95.52,47.16L95.48,47.23L95.40,47.29L95.39,47.28L95.28,47.24L95.16,47.22L95.03,47.23L94.91,47.26L94.86,47.29"/><path style="stroke:#000000;stroke-width:0.088" d="M95.02,47.34L95.09,47.33L95.16,47.33L95.24,47.34"/><path style="stroke:#000000;stroke-width:0.088" d="M46.47,78.87L47.19,79.29L47.19,78.65L46.08,78.01L46.08,78.65L46.47,78.87"/><path style="stroke:#000000;stroke-width:0.088" d="M46.08,78.01L97.90,48.09L99.01,48.73L99.01,49.37L47.19,79.29"/><path style="stroke:#000000;stroke-width:0.088" d="M47.19,78.65L99.01,48.73"/><path style="stroke:#000000;stroke-width:0.088" d="M47.46,78.17L47.36,78.21L47.23,78.23L47.10,78.23L46.98,78.20L46.89,78.15L46.82,78.08L46.80,78.01L46.82,77.94L46.88,77.87L46.97,77.82L47.09,77.79L47.22,77.78L47.34,77.80L47.45,77.84L47.53,77.89L47.58,77.96L47.58,78.04L47.54,78.11L47.46,78.17L47.45,78.16L47.34,78.12L47.22,78.10L47.09,78.11L46.97,78.14L46.92,78.17"/><path style="stroke:#000000;stroke-width:0.088" d="M47.30,78.22L47.22,78.20L47.15,78.20L47.08,78.22"/><path style="stroke:#000000;stroke-width:0.088" d="M64.20,68.18L64.23,68.20L64.25,68.23L64.25,68.26L64.24,68.29L64.16,68.33L64.06,68.33L64.01,68.32L63.97,68.30L63.95,68.28L63.94,68.25L63.95,68.22L63.97,68.19L64.01,68.17L64.10,68.16L64.20,68.18"/><path style="stroke:#000000;stroke-width:0.088" d="M64.20,68.31L64.23,68.28L64.23,68.25L64.18,68.21L64.10,68.19L64.06,68.19L64.02,68.20L63.97,68.24L63.95,68.22"/><path style="stroke:#000000;stroke-width:0.088" d="M63.97,68.24L63.96,68.27L63.99,68.31"/><path style="stroke:#000000;stroke-width:0.088" d="M80.90,58.55L80.87,58.51L80.87,58.49L80.89,58.47L80.95,58.43L81.00,58.43L81.08,58.44L81.11,58.46L81.13,58.49L81.13,58.52L81.12,58.55L81.03,58.58L80.98,58.58L80.89,58.55L80.86,58.53L80.84,58.50L80.85,58.47L80.87,58.44L80.90,58.42L81.00,58.40L81.09,58.41L81.13,58.44L81.15,58.46L81.16,58.49L81.14,58.52L81.10,58.55"/><path style="stroke:#000000;stroke-width:0.088" d="M81.13,58.49L81.13,58.52"/><path style="stroke:#000000;stroke-width:0.088" d="M98.17,48.89L98.25,48.83L98.29,48.76L98.29,48.69L98.24,48.62L98.16,48.56L98.05,48.52L97.93,48.50L97.80,48.51L97.68,48.54L97.59,48.59L97.53,48.66L97.51,48.73L97.53,48.81L97.60,48.87L97.69,48.92L97.81,48.95L97.94,48.95L98.07,48.93L98.17,48.89L98.16,48.88L98.05,48.84L97.93,48.82L97.80,48.83L97.68,48.86L97.64,48.89"/><path style="stroke:#000000;stroke-width:0.088" d="M97.79,48.94L97.86,48.93L97.93,48.92L98.01,48.94"/><path style="fill:#ffffff" d="M171.97,73.49L198.38,73.49L198.38,67.84L171.97,67.84z"/><path style="stroke:#35414c;stroke-width:0.255" d="M171.97,73.49L198.38,73.49L198.38,67.84L171.97,67.84z"/><path style="stroke:#35404c;stroke-width:0.250;stroke-opacity:0.00" d="M171.97,73.49L198.38,73.49L198.38,67.84L171.97,67.84z"/><text xml:space="preserve" fill="#333f4b" stroke-width="0" x="172.68" y="71.90" font-size="3.56" opacity="1.00" font-family="Arial" font-weight="bold" font-style="italic">F24304345X</text><path style="fill:#ffffff" d="M171.97,83.30L198.38,83.30L198.38,77.66L171.97,77.66z"/><path style="stroke:#35414c;stroke-width:0.255" d="M171.97,83.30L198.38,83.30L198.38,77.66L171.97,77.66z"/><path style="stroke:#35404c;stroke-width:0.250;stroke-opacity:0.00" d="M171.97,83.30L198.38,83.30L198.38,77.66L171.97,77.66z"/><text xml:space="preserve" fill="#333f4b" stroke-width="0" x="172.68" y="81.72" font-size="3.56" opacity="1.00" font-family="Arial" font-weight="bold" font-style="italic">F24304711X</text><g id="paperID" visibility="hidden" opacity="0.00" transform="scale(0.000100)"><path style="stroke:#000000;stroke-width:0.500;fill:#e6e6e6;fill-rule:evenodd" d="M-2000.00,-2000.00L2210.00,-2000.00L2210.00,2150.00L-2000.00,2150.00zM0.00,0.00L210.00,0.00L210.00,150.00L0.00,150.00z"/><path style="fill:#000000;fill-opacity:0.118" d="M3.00,150.00L210.00,150.00L210.00,3.00L213.00,3.00L213.00,153.00L3.00,153.00z"/></g><g id="hotspot.0" onmouseover="ShowHotSpot(evt,'0')" onmouseout="HideHotSpot(evt,'0')" onmousemove="ShowToolTip(evt,'0',&quot;INGOMBRO&quot;)" opacity="0"><path style="fill:#00ff00;fill-rule:evenodd" d="M90.00,51.44L90.32,51.47L90.34,52.36L88.94,53.29L87.44,54.12L82.74,56.95L82.21,56.92L85.19,54.71L85.91,53.89L88.04,52.82zM198.58,67.99L198.48,73.72L171.93,73.72L171.85,67.75L198.32,67.73zM38.92,81.99L38.56,84.12L39.60,84.02L44.89,80.69L44.84,81.69L47.49,83.26L47.45,83.58L42.53,86.70L40.76,88.03L39.35,88.72L38.68,88.70L38.30,88.92L37.63,88.97L35.97,87.96L36.85,86.07L35.82,85.32L34.94,84.88L35.80,81.00L36.35,80.41zM39.19,86.91L39.22,87.45L38.03,86.93L38.03,86.62L38.66,86.57z"/></g><g id="hotspot.1" onmouseover="ShowHotSpot(evt,'1')" onmouseout="HideHotSpot(evt,'1')" onmousemove="ShowToolTip(evt,'1',&quot;F24304707X&quot;)" opacity="0"><path style="fill:#00ff00;fill-rule:evenodd" d="M83.87,40.67L84.40,40.52L85.15,39.94L85.35,39.60L85.92,39.57L154.15,79.11L154.15,80.01L153.01,80.68L154.38,81.45L157.52,83.48L158.00,84.55L158.01,96.54L157.15,97.23L156.18,97.23L151.54,94.60L151.29,95.50L149.14,96.98L148.17,96.97L141.97,93.33L141.98,92.39L143.79,91.35L143.81,90.21L140.95,88.40L140.61,88.39L100.14,111.76L99.28,112.04L99.03,110.11L98.31,112.29L97.57,112.18L84.30,104.53L84.36,102.96L84.92,101.71L85.39,101.40L85.94,100.40L87.76,99.39L87.24,99.00L86.36,99.00L83.27,100.84L82.49,103.18L82.06,103.18L44.84,81.69L44.83,81.03L45.52,79.10L46.38,77.90L48.23,76.65L47.71,76.26L47.10,76.26L43.83,78.19L43.03,80.52L42.57,80.43L29.10,72.66L29.09,71.72L29.62,69.66L74.33,43.85L74.49,37.29L75.77,36.48L76.37,36.48zM198.58,77.80L198.48,83.53L171.93,83.53L171.85,77.57L198.32,77.55zM90.00,51.44L90.32,51.47L90.34,52.36L88.94,53.29L87.44,54.12L82.74,56.95L82.21,56.92L85.19,54.71L85.91,53.89L88.04,52.82zM80.53,58.06L52.61,74.33L52.53,73.19L79.38,57.67L80.28,57.66zM123.42,78.35L123.63,78.69L91.87,97.06L91.79,95.91L122.89,78.09z"/></g></g></svg>
