<?xml version="1.0" encoding="UTF-8" standalone="no"?>
<svg xmlns="http://www.w3.org/2000/svg" xmlns:xlink="http://www.w3.org/1999/xlink" width="210.000mm" height="150.000mm" viewBox="0.000000 0.000000 210.000000 150.000000" stroke-linejoin="round" stroke-linecap="round" fill="none" fill-rule="evenodd"><desc>Composer Export</desc><script type="text/ecmascript"><![CDATA[
if(typeof(top) != "undefined")
{
	top.ShowPaper = ShowPaper;
}
function ShowHotSpot(evt,hotspotid)
{
	var svgDocument = evt.target.ownerDocument;
	var strId = "hotspot."+hotspotid;
	var hotspot = svgDocument.getElementById(strId);
	if(hotspot)
		hotspot.setAttribute("opacity",".5");
}
function HideHotSpot(evt,hotspotid)
{
	var svgDocument = evt.target.ownerDocument;
	var strId = "hotspot."+hotspotid;
	var hotspot = svgDocument.getElementById(strId);
	if(hotspot)
		hotspot.setAttribute("opacity","0");

	var toolTip = svgDocument.getElementById('ToolTip');
	if(toolTip)
		toolTip.setAttribute("visibility","hidden");
}
function ShowToolTip(evt,hotspotid,strTooltip)
{
	if(strTooltip=="")
	return;

	// change text
	var svgDocument = evt.target.ownerDocument;
	var tiptext = svgDocument.getElementById('ToolTipText');
	if( !tiptext )
	return;
	tiptext.firstChild.nodeValue = " " + strTooltip + "  " ;

	// show tooltip before, else some refresh issue

	var toolTip = svgDocument.getElementById('ToolTip');
	if(!toolTip)
	return;

	toolTip.setAttribute("visibility","visible");
	toolTip.setAttribute("opacity",".95");

	// move tooltip
	// get viewbox

	var root = svgDocument.documentElement;
	var vbox = (root.getAttribute("viewBox")).split(' ');
	var x0 = parseFloat(vbox[0]);
	var y0 = parseFloat(vbox[1]);
	var vboxW = parseFloat(vbox[2]);
	var vboxH = parseFloat(vbox[3]);

	// get default width of svg

	var strW = root.getAttribute("width");
	var svgW = parseFloat(strW);
	if(strW.indexOf('mm') != -1)
	svgW *= 3.779;

	var strH = root.getAttribute("height");
	var svgH = parseFloat(strH);
	if(strH.indexOf('mm') != -1)
	svgH *= 3.779;  	// 96 dpi  -> 96/25.4 = 3.779

	// update the viewbox / width / height if svg is embedded in html with zoom fit all
	var realx0 = x0;
	var realy0 = y0;
	var realvboxW = vboxW;
	var realvboxH = vboxH;
	var realsvgW = svgW;
	var realsvgH = svgH;

	if ((typeof(top) == "undefined") || (typeof(top.svgctl1) != "undefined")) // embedded in html
	{
		// get window size in pxl

		svgW = window.innerWidth;
		svgH = window.innerHeight;

		// calculate real viewbox

		realsvgW = svgW;
		realsvgH = svgH;
		if((svgW / svgH) > (vboxW / vboxH))
		{
			realvboxW = (vboxH * svgW) / svgH;
			realvboxH = vboxH;
			realx0 = x0 - (realvboxW - vboxW)/2 ;
		}
		else
		{
			realvboxH = (vboxW * svgH) / svgW;
			realvboxW = vboxW;
			realy0 = y0 - (realvboxH - vboxH)/2 ;
		}
	}

	// get user zoom/pan

	var newScale = root.currentScale;
	var translation = root.currentTranslate;

	// transform pxl to user unit

	var xPos = (((evt.clientX+10- translation.x)/newScale) * realvboxW)/realsvgW  + realx0 ;
	var yPos = (((evt.clientY+5- translation.y)/newScale) * realvboxH)/ realsvgH  + realy0 ;
	var scaleForWidth = ( (1 / newScale) * realvboxH) / realsvgH;

	// move tooltip

	toolTip.setAttribute("transform", "translate(" + xPos + "," + yPos + ")" );

	// resize tooltip

	var fontsize = 12;
	tiptext.setAttribute("font-size",fontsize*scaleForWidth);
	tiptext.setAttribute("y", fontsize*scaleForWidth);
	var tipBG = svgDocument.getElementById('ToolTipBG');
	var outline = tiptext.getBBox();
	if(tipBG)
	{
		tipBG.setAttribute("stroke-width", 1*scaleForWidth);
		tipBG.setAttribute("width", Number(outline.width) );
		tipBG.setAttribute("height", Number(outline.height) + fontsize*.5*scaleForWidth );
	}
	var ToolTipShadow = svgDocument.getElementById('ToolTipShadow');
	if(ToolTipShadow)
	{
		ToolTipShadow.setAttribute("width", Number(outline.width) );
		ToolTipShadow.setAttribute("height", Number(outline.height) + fontsize*.5*scaleForWidth );
		ToolTipShadow.setAttribute("x", 3*scaleForWidth);
		ToolTipShadow.setAttribute("y", 3*scaleForWidth);
	}
}
function ShowPaper()
{
  var svgDocument = getDocument();
  var paper = svgDocument.getElementById("paperID");
  if(paper)
  {
    paper.setAttribute("transform","scale(1)");
    paper.setAttribute("opacity","1");
    paper.setAttribute("visibility","visible");
  }
  var svg = svgDocument.getRootElement();
  if(svg)
  {
    svg.setAttribute("width","220.000mm");
    svg.setAttribute("height","160.000mm");
    svg.setAttribute("viewBox","-5.000000 -5.000000 220.000000 160.000000");
  }
}
]]></script><defs/><g><path style="fill:#ffffff" d="M209.96,149.95L0.04,149.95L0.04,0.04L209.96,0.04z"/><path style="fill:#8aa7bf" d="M153.58,75.35L154.46,75.96L154.46,76.90L153.24,77.66L151.82,76.84L151.66,76.83L150.53,77.48L150.45,79.66L150.21,79.91L140.07,85.83L96.15,111.18L95.68,111.33L95.52,111.23L95.44,109.15L95.33,109.04L95.14,109.16L94.68,110.72L94.39,111.56L93.92,111.57L79.27,103.04L79.26,102.44L79.85,100.40L80.36,100.03L80.67,99.87L81.53,100.40L82.12,100.42L137.37,68.46L137.42,67.82L136.30,67.08L135.86,67.32L135.27,67.33L134.36,66.83L134.41,66.06L133.40,65.43L133.11,65.43L77.73,97.40L77.73,98.19L78.95,98.89L78.15,99.45L77.61,101.42L77.36,101.81L77.01,101.80L40.22,80.55L37.18,78.72L37.05,78.60L37.08,77.70L37.68,75.89L38.45,75.43L38.56,75.59L39.44,76.10L39.76,76.12L95.18,44.06L95.20,43.38L94.18,42.75L93.89,42.75L93.50,43.02L93.18,43.03L92.14,42.39L92.17,41.64L91.17,41.00L91.01,41.00L35.54,73.01L35.54,73.84L36.18,74.20L36.83,74.45L35.92,75.01L35.25,77.35L34.67,77.34L20.13,68.96L20.13,68.24L20.76,65.86L68.71,38.14L68.79,38.06L72.12,36.16L72.18,36.08L72.70,35.86L76.68,33.55L76.91,33.50L79.04,34.75L79.22,34.75L80.23,34.12L80.49,33.37L80.90,33.36z"/><path style="fill:#2ac7ce" d="M92.17,41.64L92.14,42.39L93.18,43.03L93.50,43.02L93.89,42.75L94.18,42.75L95.20,43.38L95.18,44.06L39.76,76.12L39.44,76.10L38.56,75.59L38.45,75.43L38.51,74.72L40.83,73.38L40.81,73.23L39.95,72.72L39.59,72.82L39.37,72.83L39.25,73.05L38.72,73.32L38.50,73.33L38.37,73.56L37.84,73.82L37.62,73.83L37.49,74.06L36.83,74.45L36.18,74.20L35.54,73.84L35.54,73.01L91.01,41.00L91.17,41.00z"/><path style="fill:#2ac7ce" d="M134.41,66.06L134.36,66.83L135.27,67.33L135.86,67.32L136.30,67.08L137.42,67.82L137.37,68.46L82.12,100.42L81.53,100.40L80.67,99.87L80.78,99.07L83.17,97.70L82.29,97.14L81.94,97.12L81.72,97.13L81.60,97.36L81.07,97.63L80.85,97.63L80.72,97.86L80.19,98.13L79.97,98.13L79.84,98.36L78.95,98.89L77.73,98.19L77.73,97.40L133.11,65.43L133.40,65.43z"/><path style="fill:#d1ce96" d="M44.84,69.69L45.09,69.79L45.20,69.95L45.26,70.80L41.77,72.85L41.30,72.85L40.93,72.59L40.80,72.01L40.93,70.75L43.52,69.20L43.94,69.20z"/><path style="fill:#d1ce96" d="M86.68,93.88L87.21,94.10L87.41,94.27L87.46,95.20L83.98,97.27L83.66,97.29L83.16,97.02L82.88,96.53L83.01,96.44L83.12,95.15L85.87,93.50L86.04,93.50z"/><path style="fill:#4c4c4c" d="M29.15,83.62L29.96,83.61L29.96,83.69L29.49,84.12L30.67,84.87L30.98,84.88L31.20,84.46L31.74,83.74L32.41,83.52L32.79,83.48L33.30,83.86L33.29,84.67L33.20,84.92L33.03,85.16L32.42,85.68L30.86,86.39L30.54,86.36L30.42,86.25L29.90,86.54L29.52,86.64L28.02,85.65L27.52,85.49L27.48,85.13L28.04,84.80L28.14,84.15L28.58,83.32z"/><path style="fill:#2ac7ce" d="M76.68,33.55L72.70,35.86L72.18,36.08L72.01,35.74L72.00,36.00L72.18,36.08L72.12,36.16L68.79,38.06L68.86,31.14L69.75,30.53L70.33,30.23L71.01,30.23z"/><path style="fill:#2ac7ce" d="M153.24,77.66L157.21,79.98L157.97,80.59L158.46,81.61L158.47,94.82L157.30,95.53L156.71,95.51L151.56,92.49L151.41,92.50L151.33,93.69L148.63,95.27L148.31,95.28L141.01,91.05L141.00,90.38L143.30,89.04L143.30,87.75L140.07,85.83L150.21,79.91L150.45,79.66L150.53,77.48L151.66,76.83L151.82,76.84z"/><path style="fill:#2ac7ce" d="M30.80,79.10L30.40,80.77L30.41,81.36L30.83,81.59L32.77,82.73L32.65,83.15L29.96,83.61L29.15,83.62L28.58,83.32L26.35,82.02L27.52,77.52L27.91,77.35z"/><path style="fill:#b3eaa7" d="M37.65,78.07L37.79,78.10L37.82,78.39L37.65,78.24z"/><path style="fill:#b3eaa7" d="M37.05,78.60L37.18,78.72L40.22,80.55L34.99,83.85L33.20,84.92L33.29,84.67L33.30,83.86L32.79,83.48L32.41,83.52L31.74,83.74L31.20,84.46L29.96,83.69L29.96,83.61L32.65,83.15L32.77,82.73L30.83,81.59L37.00,77.72L37.08,77.70z"/><path style="fill:#b3eaa7" d="M32.55,84.65L32.28,84.92L32.27,84.66L32.49,84.35L32.55,84.37z"/><path style="fill:#01ff02" d="M72.18,36.08L72.00,36.00L72.01,35.74z"/><path style="fill:#01ff02" d="M43.33,70.45L42.75,70.49L42.75,70.34L43.21,70.33z"/><path style="fill:#01ff02" d="M27.56,79.81L27.71,80.33L27.52,80.39L27.36,80.27L27.40,79.75L27.56,79.72z"/><path style="fill:#01ff02" d="M29.45,80.78L29.35,81.07L29.53,81.36L29.25,81.41L29.13,81.25L29.15,80.76L29.40,80.71z"/><path style="fill:#01ff02" d="M154.22,83.23L154.20,83.42L154.04,83.41L154.02,83.12z"/><path style="fill:#01ff02" d="M154.22,88.37L154.20,88.56L154.04,88.55L154.02,88.26z"/><path style="fill:#01ff02" d="M100.07,88.74L99.91,88.79L99.96,88.63z"/><path style="fill:#01ff02" d="M85.55,94.75L85.51,94.89L85.02,94.89L85.02,94.68L85.43,94.63z"/><path style="fill:#4c4c4c" d="M86.05,46.52L86.04,47.32L83.73,48.65L82.89,48.70L82.91,49.10L76.88,52.59L76.89,52.35L77.51,51.91L77.58,51.66L79.27,50.70L80.66,49.46L80.66,49.26L80.82,49.01L81.35,48.75L81.66,48.58L81.69,48.51L82.85,47.87L83.17,47.70L83.20,47.63L83.69,47.74L83.80,47.91L84.05,47.90L83.93,47.78L83.69,47.74L83.64,47.45L83.72,47.37L84.05,47.20L84.07,47.13L84.61,46.87L84.92,46.70L84.95,46.63L85.62,46.26L85.79,46.26z"/><path style="fill:#2ac7ce" d="M84.05,47.90L83.80,47.91L83.69,47.74L83.93,47.78z"/><path style="fill:#8aa7bf" d="M90.52,43.52L90.24,43.52L90.38,43.38L90.55,43.38z"/><path style="fill:#8aa7bf" d="M89.64,44.02L89.37,44.02L89.50,43.88L89.67,43.88z"/><path style="fill:#8aa7bf" d="M87.26,45.40L86.99,45.40L87.12,45.26L87.29,45.26z"/><path style="fill:#8aa7bf" d="M86.38,45.90L86.11,45.90L86.24,45.76L86.41,45.76z"/><path style="fill:#8aa7bf" d="M84.92,46.70L84.61,46.87L84.73,46.64L84.95,46.63z"/><path style="fill:#8aa7bf" d="M84.05,47.20L83.72,47.37L83.86,47.14L84.07,47.13z"/><path style="fill:#8aa7bf" d="M83.17,47.70L82.85,47.87L82.98,47.63L83.20,47.63z"/><path style="fill:#8aa7bf" d="M81.66,48.58L81.35,48.75L81.47,48.52L81.69,48.51z"/><path style="fill:#8aa7bf" d="M80.66,49.26L80.47,49.15L80.59,49.03L80.82,49.01z"/><path style="fill:#8aa7bf" d="M78.36,50.53L78.09,50.53L78.23,50.40L78.39,50.40z"/><path style="fill:#8aa7bf" d="M77.48,51.03L77.21,51.03L77.35,50.90L77.52,50.90z"/><path style="fill:#8aa7bf" d="M75.10,52.41L74.83,52.41L74.97,52.28L75.14,52.28z"/><path style="fill:#8aa7bf" d="M74.27,52.84L73.96,53.01L74.08,52.77L74.30,52.77z"/><path style="fill:#8aa7bf" d="M72.77,53.72L72.45,53.88L72.58,53.65L72.80,53.65z"/><path style="fill:#8aa7bf" d="M71.89,54.22L71.57,54.38L71.70,54.15L71.92,54.15z"/><path style="fill:#8aa7bf" d="M71.01,54.72L70.70,54.89L70.82,54.66L71.04,54.65z"/><path style="fill:#8aa7bf" d="M69.51,55.60L69.19,55.76L69.32,55.53L69.54,55.53z"/><path style="fill:#8aa7bf" d="M68.63,56.10L68.32,56.26L68.44,56.03L68.66,56.03z"/><path style="fill:#8aa7bf" d="M66.25,57.48L65.94,57.64L66.06,57.41L66.28,57.41z"/><path style="fill:#8aa7bf" d="M65.37,57.98L65.06,58.14L65.19,57.91L65.40,57.91z"/><path style="fill:#8aa7bf" d="M63.87,58.86L63.55,59.02L63.68,58.79L63.90,58.79z"/><path style="fill:#8aa7bf" d="M62.99,59.36L62.68,59.52L62.80,59.29L63.02,59.29z"/><path style="fill:#8aa7bf" d="M62.12,59.86L61.80,60.02L61.93,59.79L62.15,59.79z"/><path style="fill:#8aa7bf" d="M60.61,60.74L60.30,60.90L60.42,60.67L60.64,60.67z"/><path style="fill:#8aa7bf" d="M59.74,61.24L59.42,61.40L59.55,61.17L59.77,61.17z"/><path style="fill:#8aa7bf" d="M57.36,62.62L57.04,62.78L57.17,62.55L57.38,62.55z"/><path style="fill:#8aa7bf" d="M56.48,63.12L56.16,63.28L56.29,63.05L56.51,63.05z"/><path style="fill:#8aa7bf" d="M54.10,64.50L53.78,64.66L53.91,64.43L54.13,64.43z"/><path style="fill:#8aa7bf" d="M53.22,65.00L52.91,65.16L53.03,64.93L53.25,64.93z"/><path style="fill:#8aa7bf" d="M51.72,65.87L51.40,66.04L51.53,65.81L51.75,65.80z"/><path style="fill:#8aa7bf" d="M50.84,66.37L50.52,66.54L50.65,66.31L50.87,66.30z"/><path style="fill:#8aa7bf" d="M49.96,66.88L49.65,67.04L49.77,66.81L49.99,66.81z"/><path style="fill:#8aa7bf" d="M132.87,67.82L132.59,67.82L132.73,67.69L132.90,67.69z"/><path style="fill:#8aa7bf" d="M48.46,67.75L48.14,67.92L48.27,67.69L48.49,67.68z"/><path style="fill:#8aa7bf" d="M131.99,68.33L131.72,68.33L131.85,68.19L132.02,68.19z"/><path style="fill:#8aa7bf" d="M47.58,68.25L47.27,68.42L47.39,68.19L47.61,68.18z"/><path style="fill:#8aa7bf" d="M129.61,69.70L129.34,69.70L129.47,69.57L129.64,69.57z"/><path style="fill:#8aa7bf" d="M45.09,69.79L44.84,69.69L45.23,69.56z"/><path style="fill:#8aa7bf" d="M128.73,70.20L128.46,70.20L128.60,70.07L128.76,70.07z"/><path style="fill:#8aa7bf" d="M127.23,71.08L126.96,71.08L127.09,70.95L127.26,70.95z"/><path style="fill:#8aa7bf" d="M126.35,71.58L126.08,71.58L126.21,71.45L126.38,71.45z"/><path style="fill:#8aa7bf" d="M125.47,72.08L125.20,72.08L125.34,71.95L125.51,71.95z"/><path style="fill:#8aa7bf" d="M123.97,72.96L123.70,72.96L123.83,72.82L124.00,72.82z"/><path style="fill:#8aa7bf" d="M39.56,72.89L39.25,73.05L39.37,72.83L39.59,72.82z"/><path style="fill:#8aa7bf" d="M123.09,73.46L122.82,73.46L122.96,73.33L123.13,73.33z"/><path style="fill:#8aa7bf" d="M38.69,73.39L38.37,73.56L38.50,73.33L38.72,73.32z"/><path style="fill:#8aa7bf" d="M37.81,73.89L37.49,74.06L37.62,73.83L37.84,73.82z"/><path style="fill:#8aa7bf" d="M120.79,74.78L120.44,74.93L120.58,74.69z"/><path style="fill:#8aa7bf" d="M119.88,75.27L119.56,75.44L119.69,75.20L119.91,75.20z"/><path style="fill:#8aa7bf" d="M118.38,76.15L118.06,76.31L118.19,76.08L118.41,76.08z"/><path style="fill:#8aa7bf" d="M117.50,76.65L117.18,76.81L117.31,76.58L117.53,76.58z"/><path style="fill:#8aa7bf" d="M116.62,77.15L116.31,77.31L116.43,77.08L116.65,77.08z"/><path style="fill:#8aa7bf" d="M115.12,78.03L114.80,78.19L114.93,77.96L115.15,77.96z"/><path style="fill:#8aa7bf" d="M114.24,78.53L113.92,78.69L114.05,78.46L114.27,78.46z"/><path style="fill:#8aa7bf" d="M113.36,79.03L113.05,79.19L113.17,78.96L113.39,78.96z"/><path style="fill:#8aa7bf" d="M111.86,79.91L111.54,80.07L111.67,79.84L111.89,79.84z"/><path style="fill:#8aa7bf" d="M110.98,80.41L110.67,80.57L110.79,80.34L111.01,80.34z"/><path style="fill:#8aa7bf" d="M108.60,81.79L108.29,81.95L108.41,81.72L108.63,81.72z"/><path style="fill:#8aa7bf" d="M107.73,82.29L107.41,82.45L107.54,82.22L107.76,82.22z"/><path style="fill:#8aa7bf" d="M106.22,83.16L105.91,83.33L106.03,83.10L106.25,83.09z"/><path style="fill:#8aa7bf" d="M105.35,83.67L105.03,83.83L105.16,83.60L105.37,83.60z"/><path style="fill:#8aa7bf" d="M104.47,84.17L104.15,84.33L104.28,84.10L104.50,84.10z"/><path style="fill:#8aa7bf" d="M102.96,85.04L102.65,85.21L102.77,84.98L102.99,84.97z"/><path style="fill:#8aa7bf" d="M102.09,85.55L101.77,85.71L101.90,85.48L102.12,85.48z"/><path style="fill:#8aa7bf" d="M101.21,86.05L100.89,86.21L101.02,85.98L101.24,85.98z"/><path style="fill:#8aa7bf" d="M99.71,86.92L99.39,87.09L99.52,86.86L99.74,86.85z"/><path style="fill:#8aa7bf" d="M98.83,87.42L98.51,87.59L98.64,87.36L98.86,87.35z"/><path style="fill:#8aa7bf" d="M96.45,88.80L96.13,88.97L96.26,88.74L96.48,88.73z"/><path style="fill:#8aa7bf" d="M95.57,89.30L95.26,89.47L95.38,89.24L95.60,89.23z"/><path style="fill:#8aa7bf" d="M94.07,90.18L93.75,90.35L93.88,90.12L94.10,90.11z"/><path style="fill:#8aa7bf" d="M93.19,90.68L92.87,90.85L93.00,90.62L93.22,90.61z"/><path style="fill:#8aa7bf" d="M92.31,91.18L92.00,91.35L92.12,91.12L92.34,91.11z"/><path style="fill:#8aa7bf" d="M90.81,92.06L90.49,92.23L90.62,92.00L90.84,91.99z"/><path style="fill:#8aa7bf" d="M89.93,92.56L89.62,92.73L89.74,92.50L89.96,92.49z"/><path style="fill:#8aa7bf" d="M87.56,93.94L87.21,94.10L87.37,93.87L87.58,93.87z"/><path style="fill:#8aa7bf" d="M81.91,97.19L81.60,97.36L81.72,97.13L81.94,97.12z"/><path style="fill:#8aa7bf" d="M81.04,97.70L80.72,97.86L80.85,97.63L81.07,97.63z"/><path style="fill:#8aa7bf" d="M80.16,98.20L79.84,98.36L79.97,98.13L80.19,98.13z"/><path style="fill:#ffffff" d="M75.40,53.17L75.52,53.35L46.39,70.20L45.26,70.80L45.20,69.95L45.09,69.79L45.23,69.56L46.71,68.76L47.27,68.42L47.58,68.25L47.61,68.18L48.14,67.92L48.46,67.75L48.49,67.68L49.65,67.04L49.96,66.88L49.99,66.81L50.52,66.54L50.84,66.37L50.87,66.30L51.40,66.04L51.72,65.87L51.75,65.80L52.91,65.16L53.22,65.00L53.25,64.93L53.78,64.66L54.10,64.50L54.13,64.43L56.08,63.35L56.16,63.28L56.48,63.12L56.51,63.05L57.04,62.78L57.36,62.62L57.38,62.55L59.34,61.47L59.42,61.40L59.74,61.24L59.77,61.17L60.30,60.90L60.61,60.74L60.64,60.67L61.80,60.02L62.12,59.86L62.15,59.79L62.68,59.52L62.99,59.36L63.02,59.29L63.55,59.02L63.87,58.86L63.90,58.79L65.06,58.14L65.37,57.98L65.40,57.91L65.94,57.64L66.25,57.48L66.28,57.41L68.24,56.34L68.32,56.26L68.63,56.10L68.66,56.03L69.19,55.76L69.51,55.60L69.54,55.53L70.70,54.89L71.01,54.72L71.04,54.65L71.57,54.38L71.89,54.22L71.92,54.15L72.45,53.88L72.77,53.72L72.80,53.65L73.96,53.01L74.27,52.84L74.30,52.77L74.77,52.79z"/><path style="fill:#ffffff" d="M20.90,68.32L20.88,68.51L20.72,68.50L20.70,68.21z"/><path style="fill:#ffffff" d="M121.64,75.22L121.76,75.40L87.46,95.20L87.41,94.27L87.21,94.10L87.56,93.94L87.58,93.87L89.62,92.73L89.93,92.56L89.96,92.49L90.49,92.23L90.81,92.06L90.84,91.99L92.00,91.35L92.31,91.18L92.34,91.11L92.87,90.85L93.19,90.68L93.22,90.61L93.75,90.35L94.07,90.18L94.10,90.11L95.26,89.47L95.57,89.30L95.60,89.23L96.13,88.97L96.45,88.80L96.48,88.73L98.43,87.66L98.51,87.59L98.83,87.42L98.86,87.35L99.39,87.09L99.71,86.92L99.74,86.85L100.89,86.21L101.21,86.05L101.24,85.98L101.77,85.71L102.09,85.55L102.12,85.48L102.65,85.21L102.96,85.04L102.99,84.97L104.15,84.33L104.47,84.17L104.50,84.10L105.03,83.83L105.35,83.67L105.37,83.60L105.91,83.33L106.22,83.16L106.25,83.09L107.41,82.45L107.73,82.29L107.76,82.22L108.29,81.95L108.60,81.79L108.63,81.72L110.59,80.65L110.67,80.57L110.98,80.41L111.01,80.34L111.54,80.07L111.86,79.91L111.89,79.84L113.05,79.19L113.36,79.03L113.39,78.96L113.92,78.69L114.24,78.53L114.27,78.46L114.80,78.19L115.12,78.03L115.15,77.96L116.31,77.31L116.62,77.15L116.65,77.08L117.18,76.81L117.50,76.65L117.53,76.58L118.06,76.31L118.38,76.15L118.41,76.08L119.56,75.44L119.88,75.27L119.91,75.20L120.44,74.93L120.79,74.78z"/><path style="fill:#ffffff" d="M34.92,76.45L34.81,76.65L34.74,76.36z"/><path style="fill:#ffffff" d="M27.79,79.84L27.71,80.33L27.56,79.81L27.56,79.72z"/><path style="fill:#ffffff" d="M29.57,80.95L29.35,81.07L29.45,80.78z"/><path style="fill:#ffffff" d="M31.20,84.46L30.98,84.88L30.67,84.87L29.49,84.12L29.96,83.69z"/><path style="fill:#ffffff" d="M51.96,86.27L52.09,86.26L52.09,86.53L51.96,86.52z"/><path style="fill:#ffffff" d="M62.86,92.63L62.75,92.82L62.73,92.38z"/><path style="fill:#ffffff" d="M79.90,102.43L80.03,102.42L80.03,102.69L79.90,102.68z"/><path style="fill:#ffffff" d="M94.08,110.55L94.06,110.74L93.90,110.73L93.87,110.43z"/><path style="stroke:#000000;stroke-width:0.088" d="M79.96,100.32L79.86,100.42L79.80,100.56L79.23,102.68L79.21,102.81L79.23,102.94L79.27,103.06L79.34,103.17L79.43,103.24L94.00,111.65L94.09,111.68L94.19,111.68L94.28,111.63L94.35,111.55L94.40,111.44L94.51,111.42L95.08,109.30L95.11,109.23L95.30,109.12L95.48,109.22L95.48,111.14L95.60,111.21L95.62,111.31L95.66,111.38L95.72,111.42L95.81,111.42L95.90,111.38L150.17,80.05L150.26,79.98L150.34,79.89L150.41,79.77L150.45,79.65L150.47,79.54L150.47,77.61L151.71,76.89L151.71,76.85L151.67,76.75L151.60,76.69L95.48,109.08L95.30,108.98L95.13,109.08L79.96,100.32L80.64,99.93"/><path style="stroke:#000000;stroke-width:0.088" d="M79.80,102.47L79.77,102.53L79.75,102.60L79.76,102.68L79.78,102.75L79.82,102.81L79.87,102.85L79.92,102.88L79.98,102.87L80.03,102.84L80.07,102.79L80.09,102.73L80.10,102.65L80.09,102.58L80.06,102.51L80.01,102.46L79.96,102.43L79.90,102.42L79.85,102.43L79.80,102.47"/><path style="stroke:#000000;stroke-width:0.088" d="M79.80,100.56L94.96,109.31L94.40,111.44"/><path style="stroke:#000000;stroke-width:0.088" d="M79.95,102.42L79.91,102.45L79.88,102.51L79.87,102.58L79.87,102.66L79.89,102.73L79.93,102.79L79.98,102.84L80.02,102.85"/><path style="stroke:#000000;stroke-width:0.088" d="M93.75,110.60L93.73,110.67L93.73,110.75L93.76,110.82L93.79,110.88L93.84,110.92L93.90,110.94L93.96,110.94L94.01,110.91L94.05,110.86L94.07,110.81L94.08,110.72L94.06,110.65L94.03,110.58L93.99,110.53L93.93,110.49L93.88,110.49L93.82,110.50L93.78,110.54L93.75,110.60"/><path style="stroke:#000000;stroke-width:0.088" d="M94.19,111.68L94.30,111.66L94.39,111.61L94.46,111.53L94.51,111.42"/><path style="stroke:#000000;stroke-width:0.088" d="M93.93,110.49L93.89,110.52L93.86,110.58L93.84,110.65L93.85,110.73L93.87,110.80L93.91,110.86L93.95,110.91L93.99,110.92"/><path style="stroke:#000000;stroke-width:0.088" d="M94.96,109.31L95.03,109.18L95.13,109.08"/><path style="stroke:#000000;stroke-width:0.088" d="M95.30,109.12L95.30,108.98"/><path style="stroke:#000000;stroke-width:0.088" d="M95.66,111.38L95.54,111.31L95.50,111.24L95.48,111.14"/><path style="stroke:#000000;stroke-width:0.088" d="M95.60,111.21L95.60,109.29L95.58,109.20L95.52,109.11L95.48,109.08"/><path style="stroke:#000000;stroke-width:0.088" d="M95.60,109.29L150.47,77.61"/><path style="stroke:#000000;stroke-width:0.088" d="M137.44,68.51L151.60,76.69"/><path style="stroke:#000000;stroke-width:0.088" d="M142.30,72.19L142.35,72.15L142.49,72.12L142.63,72.15L142.69,72.19"/><path style="stroke:#000000;stroke-width:0.088" d="M142.57,71.99L142.42,71.99L142.35,72.02L142.30,72.05L142.27,72.09L142.27,72.13L142.29,72.18L142.33,72.21L142.46,72.25L142.58,72.24L142.67,72.21L142.71,72.17L142.73,72.13L142.72,72.08L142.69,72.04L142.57,71.99"/><path style="stroke:#000000;stroke-width:0.088" d="M149.53,76.14L149.47,76.10L149.33,76.07L149.19,76.10L149.14,76.14"/><path style="stroke:#000000;stroke-width:0.088" d="M149.55,76.12L149.57,76.08L149.56,76.03L149.53,75.99L149.41,75.94L149.33,75.93L149.19,75.96L149.14,76.00L149.11,76.04L149.11,76.08L149.13,76.12L149.17,76.16L149.30,76.20L149.45,76.18L149.51,76.16L149.55,76.12"/><path style="stroke:#000000;stroke-width:0.088" d="M75.62,53.39L74.55,52.77"/><path style="stroke:#000000;stroke-width:0.088" d="M76.21,53.05L75.14,52.43"/><path style="stroke:#000000;stroke-width:0.088" d="M77.52,51.05L78.16,51.42"/><path style="stroke:#000000;stroke-width:0.088" d="M80.02,49.61L80.02,50.11"/><path style="stroke:#000000;stroke-width:0.088" d="M80.67,49.59L80.67,49.52"/><path style="stroke:#000000;stroke-width:0.088" d="M80.61,49.27L80.61,49.64"/><path style="stroke:#000000;stroke-width:0.088" d="M80.67,49.23L80.67,49.37"/><path style="stroke:#000000;stroke-width:0.088" d="M69.21,30.93L70.43,30.22L70.76,30.22L71.13,30.37L69.94,31.05L69.57,30.91L69.24,30.91L68.98,31.06L68.81,31.35L68.75,31.74L68.75,38.21"/><path style="stroke:#000000;stroke-width:0.088" d="M69.94,31.05L75.54,34.29"/><path style="stroke:#000000;stroke-width:0.088" d="M76.73,33.60L71.13,30.37"/><path style="stroke:#000000;stroke-width:0.088" d="M72.07,35.83L71.99,35.78L71.94,35.77L71.89,35.78L71.86,35.82L71.85,35.94L71.87,36.02L71.96,36.15L72.07,36.22L72.13,36.22L72.17,36.20L72.20,36.09L72.15,35.94L72.07,35.83"/><path style="stroke:#000000;stroke-width:0.088" d="M72.19,36.11L72.14,36.16L72.09,36.17L72.05,36.15L71.96,36.06L71.90,35.93L71.90,35.88L71.94,35.80L72.02,35.80"/><path style="stroke:#000000;stroke-width:0.088" d="M77.78,34.94L77.88,34.89L77.94,34.88L78.08,34.90L78.15,34.94"/><path style="stroke:#000000;stroke-width:0.088" d="M78.11,34.97L78.06,34.94L77.95,34.92L77.82,34.97"/><path style="stroke:#000000;stroke-width:0.088" d="M84.62,38.89L84.72,38.84L84.78,38.83L84.92,38.85L84.99,38.89"/><path style="stroke:#000000;stroke-width:0.088" d="M84.95,38.92L84.90,38.89L84.79,38.88L84.67,38.92"/><path style="stroke:#000000;stroke-width:0.088" d="M92.12,43.86L91.05,43.24"/><path style="stroke:#000000;stroke-width:0.088" d="M93.31,43.17L92.24,42.56"/><path style="stroke:#000000;stroke-width:0.088" d="M102.17,49.02L102.26,48.97L102.33,48.96L102.46,48.98L102.53,49.02"/><path style="stroke:#000000;stroke-width:0.088" d="M102.51,49.01L102.49,49.05L102.44,49.02L102.33,49.01L102.21,49.05"/><path style="stroke:#000000;stroke-width:0.088" d="M109.97,53.31L109.90,53.27L109.76,53.25L109.70,53.26L109.60,53.31"/><path style="stroke:#000000;stroke-width:0.088" d="M109.65,53.34L109.77,53.30L109.88,53.31L109.93,53.34"/><path style="stroke:#000000;stroke-width:0.088" d="M117.33,57.78L117.43,57.73L117.49,57.71L117.63,57.73L117.70,57.78"/><path style="stroke:#000000;stroke-width:0.088" d="M117.66,57.80L117.61,57.78L117.50,57.76L117.38,57.80"/><path style="stroke:#000000;stroke-width:0.088" d="M120.79,74.83L121.86,75.45"/><path style="stroke:#000000;stroke-width:0.088" d="M125.13,62.07L125.06,62.02L124.93,62.01L124.80,62.04L124.77,62.07"/><path style="stroke:#000000;stroke-width:0.088" d="M125.09,62.09L125.05,62.07L124.93,62.05L124.81,62.09"/><path style="stroke:#000000;stroke-width:0.088" d="M127.29,71.08L127.35,71.19L127.47,71.35L127.62,71.46L127.76,71.52L127.89,71.52L128.00,71.46L128.06,71.34L128.07,71.18L127.95,71.07L127.82,70.91L127.76,70.80"/><path style="stroke:#000000;stroke-width:0.088" d="M128.07,71.18L128.04,70.99L127.96,70.80L127.91,70.72"/><path style="stroke:#000000;stroke-width:0.088" d="M127.89,70.73L128.00,70.90"/><path style="stroke:#000000;stroke-width:0.088" d="M134.35,68.24L133.28,67.63"/><path style="stroke:#000000;stroke-width:0.088" d="M135.54,67.55L134.47,66.93"/><path style="stroke:#000000;stroke-width:0.088" d="M143.39,87.88L140.00,85.92"/><path style="stroke:#000000;stroke-width:0.088" d="M142.68,72.20L142.61,72.15L142.47,72.14L142.35,72.17L142.31,72.20"/><path style="stroke:#000000;stroke-width:0.088" d="M142.64,72.22L142.59,72.20L142.48,72.18L142.36,72.22"/><path style="stroke:#000000;stroke-width:0.088" d="M144.90,85.80L144.88,85.87L144.88,85.96L144.90,86.09"/><path style="stroke:#000000;stroke-width:0.088" d="M148.47,88.15L148.45,88.04L148.45,87.93L148.47,87.86"/><path style="stroke:#000000;stroke-width:0.088" d="M149.52,76.15L149.45,76.10L149.31,76.09L149.25,76.10L149.15,76.15"/><path style="stroke:#000000;stroke-width:0.088" d="M149.48,76.17L149.43,76.14L149.32,76.13L149.19,76.17"/><path style="stroke:#000000;stroke-width:0.088" d="M151.71,76.89L157.36,80.15L156.17,80.84L150.52,77.58"/><path style="stroke:#000000;stroke-width:0.088" d="M156.17,80.84L156.54,81.12L156.87,81.51L157.14,81.96L157.31,82.44L157.36,82.90L157.36,95.26L157.33,95.46L157.25,95.60L157.12,95.68L156.95,95.68L156.77,95.61L151.42,92.52"/><path style="stroke:#000000;stroke-width:0.088" d="M153.39,92.13L153.35,92.28L153.36,92.45L153.42,92.64L153.51,92.82L153.64,92.98L153.79,93.09L153.93,93.15L154.06,93.15L154.16,93.09L154.23,92.97L154.24,92.84L154.21,92.63L154.13,92.44L154.02,92.26L153.88,92.13L153.73,92.04L153.60,92.01L153.47,92.04L153.39,92.13"/><path style="stroke:#000000;stroke-width:0.088" d="M154.17,92.54L154.10,92.45L154.03,92.28"/><path style="stroke:#000000;stroke-width:0.088" d="M153.83,92.10L153.84,92.18L153.89,92.36L153.99,92.55L154.12,92.70L154.24,92.81"/><path style="stroke:#000000;stroke-width:0.088" d="M154.13,88.35L154.07,88.31L154.01,88.30L153.96,88.32L153.93,88.35L153.92,88.48L153.94,88.55L154.03,88.69L154.09,88.74L154.15,88.76L154.20,88.76L154.24,88.73L154.27,88.62L154.23,88.47L154.13,88.35"/><path style="stroke:#000000;stroke-width:0.088" d="M154.10,88.33L154.02,88.33L153.98,88.41L153.98,88.47L154.03,88.59L154.07,88.65L154.17,88.70L154.25,88.68L154.27,88.64"/><path style="stroke:#000000;stroke-width:0.088" d="M154.20,83.61L154.15,83.61L154.09,83.59L154.03,83.54L153.94,83.40L153.92,83.26L153.93,83.20L153.96,83.17L154.01,83.15L154.07,83.16L154.18,83.25L154.23,83.32L154.27,83.47L154.24,83.58L154.20,83.61"/><path style="stroke:#000000;stroke-width:0.088" d="M154.26,83.51L154.21,83.55L154.12,83.54L154.03,83.44L154.00,83.38L153.98,83.32L153.99,83.21L154.02,83.18L154.10,83.18"/><path style="stroke:#000000;stroke-width:0.088" d="M155.58,90.84L155.55,90.65L155.47,90.46L155.36,90.29L155.22,90.15L155.07,90.06L154.93,90.03L154.81,90.07L154.73,90.16L154.69,90.30L154.70,90.47L154.76,90.66L154.85,90.85L154.98,91.00L155.13,91.12L155.27,91.18L155.40,91.18L155.50,91.11L155.56,91.00L155.58,90.84L155.46,90.73L155.33,90.57L155.23,90.39L155.18,90.20L155.17,90.12"/><path style="stroke:#000000;stroke-width:0.088" d="M154.21,88.70L154.23,88.69"/><path style="stroke:#000000;stroke-width:0.088" d="M154.70,86.70L154.76,86.89L154.85,87.07L154.98,87.23L155.13,87.34L155.27,87.40L155.40,87.40L155.50,87.34L155.56,87.22L155.58,87.09L155.55,86.87L155.47,86.69L155.36,86.51L155.22,86.37L155.07,86.29L154.93,86.26L154.81,86.29L154.73,86.38L154.69,86.52L154.70,86.70"/><path style="stroke:#000000;stroke-width:0.088" d="M154.21,83.55L154.23,83.54"/><path style="stroke:#000000;stroke-width:0.088" d="M155.72,94.18L155.57,94.12L155.43,94.01L155.30,93.85L155.20,93.67L155.15,93.48L155.14,93.31L155.18,93.16L155.26,93.07L155.38,93.04L155.52,93.07L155.66,93.16L155.80,93.29L155.91,93.47L155.99,93.66L156.03,93.84L156.01,94.00L155.95,94.12L155.85,94.18L155.72,94.18"/><path style="stroke:#000000;stroke-width:0.088" d="M156.03,93.84L155.90,93.73L155.78,93.58L155.68,93.39L155.62,93.20L155.61,93.13"/><path style="stroke:#000000;stroke-width:0.088" d="M155.36,90.30L155.44,90.48L155.51,90.56"/><path style="stroke:#000000;stroke-width:0.088" d="M155.58,87.06L155.46,86.95L155.33,86.80L155.23,86.61L155.18,86.42L155.17,86.35"/><path style="stroke:#000000;stroke-width:0.088" d="M155.36,86.53L155.44,86.70L155.51,86.79"/><path style="stroke:#000000;stroke-width:0.088" d="M155.95,93.56L155.89,93.48L155.81,93.31"/><path style="stroke:#000000;stroke-width:0.088" d="M157.12,95.68L158.44,94.92L158.52,94.77L158.55,94.58L157.36,95.26"/><path style="stroke:#000000;stroke-width:0.088" d="M157.36,82.90L158.55,82.21L158.50,81.76L158.33,81.28L158.06,80.82L157.73,80.43L157.36,80.15"/><path style="stroke:#000000;stroke-width:0.088" d="M158.55,94.58L158.55,82.21"/><path style="stroke:#000000;stroke-width:0.088" d="M79.13,34.85L80.26,34.20L154.30,76.95L154.34,76.92L154.40,76.84L154.42,76.74L80.37,33.99L80.35,34.09L80.33,34.13L80.26,34.20"/><path style="stroke:#000000;stroke-width:0.088" d="M80.37,33.99L80.37,33.65L80.39,33.55L80.43,33.48L80.50,33.44L80.58,33.44L80.67,33.48L80.79,33.41L154.24,75.82L154.12,75.88L154.21,75.95L154.30,76.05L154.36,76.16L154.40,76.28L154.42,76.40L154.54,76.33L154.54,76.67L154.53,76.77L154.49,76.86L154.44,76.95L154.37,77.03L154.30,77.09L153.17,77.74"/><path style="stroke:#000000;stroke-width:0.088" d="M80.50,33.44L80.62,33.37L80.70,33.37L80.79,33.41"/><path style="stroke:#000000;stroke-width:0.088" d="M80.67,33.48L154.12,75.88"/><path style="stroke:#000000;stroke-width:0.088" d="M93.43,43.11L92.24,42.42"/><path style="stroke:#000000;stroke-width:0.088" d="M93.31,43.18L92.24,42.56"/><path style="stroke:#000000;stroke-width:0.088" d="M135.65,67.49L134.47,66.80"/><path style="stroke:#000000;stroke-width:0.088" d="M134.47,66.94L135.53,67.56"/><path style="stroke:#000000;stroke-width:0.088" d="M154.30,76.95L153.06,77.67"/><path style="stroke:#000000;stroke-width:0.088" d="M154.42,76.74L154.42,76.40"/><path style="stroke:#000000;stroke-width:0.088" d="M154.54,76.33L154.52,76.22L154.48,76.10L154.42,75.98L154.33,75.88L154.24,75.82"/><path style="stroke:#000000;stroke-width:0.088" d="M40.80,72.26L35.94,75.07L35.90,75.13L35.33,77.26L35.22,77.27L35.17,77.38L35.10,77.47L35.01,77.51L34.92,77.52L34.82,77.48L20.25,69.07L20.16,69.00L20.09,68.90L20.06,68.81L20.04,68.65L20.05,68.52L20.62,66.39L35.79,75.15L35.85,75.01L35.95,74.91L20.78,66.16L20.78,66.09L20.84,66.13"/><path style="stroke:#000000;stroke-width:0.088" d="M20.83,68.29L20.78,68.26L20.73,68.25L20.67,68.27L20.62,68.31L20.59,68.37L20.58,68.44L20.58,68.51L20.60,68.58L20.64,68.65L20.69,68.69L20.75,68.71L20.80,68.71L20.85,68.68L20.89,68.63L20.92,68.56L20.92,68.49L20.91,68.41L20.88,68.35L20.83,68.29"/><path style="stroke:#000000;stroke-width:0.088" d="M20.84,68.69L20.80,68.67L20.75,68.63L20.72,68.57L20.69,68.49L20.69,68.42L20.70,68.35L20.74,68.29L20.77,68.26"/><path style="stroke:#000000;stroke-width:0.088" d="M20.66,66.29L20.66,66.02L20.69,65.96L20.75,65.94L20.96,66.06L20.74,66.20L20.69,66.25L20.62,66.39"/><path style="stroke:#000000;stroke-width:0.088" d="M20.78,65.96L76.90,33.56L76.83,33.54L20.69,65.96"/><path style="stroke:#000000;stroke-width:0.088" d="M34.56,76.55L34.58,76.65L34.62,76.71L34.67,76.76L34.72,76.78L34.78,76.77L34.83,76.75L34.87,76.70L34.89,76.64L34.90,76.56L34.89,76.48L34.86,76.41L34.81,76.36L34.76,76.33L34.70,76.32L34.65,76.34L34.60,76.38L34.57,76.43L34.56,76.55"/><path style="stroke:#000000;stroke-width:0.088" d="M34.75,76.33L34.71,76.36L34.68,76.42L34.67,76.49L34.67,76.56L34.69,76.64L34.73,76.70L34.78,76.74L34.82,76.75"/><path style="stroke:#000000;stroke-width:0.088" d="M35.01,77.51L35.13,77.50L35.21,77.45L35.28,77.37L35.33,77.26"/><path style="stroke:#000000;stroke-width:0.088" d="M35.22,77.27L35.79,75.15"/><path style="stroke:#000000;stroke-width:0.088" d="M35.95,74.91L40.80,72.12"/><path style="stroke:#000000;stroke-width:0.088" d="M44.84,69.78L92.24,42.42L92.24,42.56L44.96,69.85"/><path style="stroke:#000000;stroke-width:0.088" d="M76.90,33.56L90.46,41.39"/><path style="stroke:#000000;stroke-width:0.088" d="M77.77,34.93L77.82,34.90L77.96,34.87L78.10,34.89L78.16,34.93"/><path style="stroke:#000000;stroke-width:0.088" d="M78.01,34.99L77.93,35.00L77.80,34.96L77.76,34.92L77.74,34.88L77.74,34.83L77.77,34.79L77.82,34.76L77.96,34.73L78.10,34.76L78.16,34.79L78.19,34.83L78.20,34.87L78.18,34.91L78.13,34.96L78.01,34.99"/><path style="stroke:#000000;stroke-width:0.088" d="M85.00,38.88L84.94,38.84L84.80,38.82L84.73,38.82L84.61,38.88"/><path style="stroke:#000000;stroke-width:0.088" d="M85.02,38.86L84.98,38.90L84.92,38.93L84.77,38.94L84.64,38.90L84.60,38.87L84.58,38.83L84.58,38.78L84.64,38.72L84.73,38.69L84.88,38.68L85.00,38.74L85.03,38.78L85.04,38.82L85.02,38.86"/><path style="stroke:#000000;stroke-width:0.088" d="M81.83,100.62L80.64,99.93L80.64,99.25L81.83,99.93L137.44,67.83L137.44,68.51L81.83,100.62L81.83,99.93"/><path style="stroke:#000000;stroke-width:0.088" d="M80.64,99.25L136.25,67.14L137.44,67.83"/><path style="stroke:#000000;stroke-width:0.088" d="M82.12,99.42L82.01,99.47L81.88,99.49L81.74,99.48L81.61,99.45L81.51,99.40L81.44,99.33L81.41,99.25L81.43,99.17L81.50,99.10L81.60,99.05L81.72,99.01L81.86,99.00L81.99,99.02L82.11,99.06L82.20,99.13L82.25,99.20L82.25,99.28L82.21,99.36L82.12,99.42L82.11,99.41L81.99,99.37L81.86,99.35L81.72,99.36L81.60,99.39L81.54,99.42"/><path style="stroke:#000000;stroke-width:0.088" d="M81.95,99.48L81.86,99.46L81.79,99.46L81.72,99.47"/><path style="stroke:#000000;stroke-width:0.088" d="M99.88,88.86L99.99,88.87L100.09,88.84L100.12,88.82L100.14,88.79L100.14,88.75L100.12,88.72L100.08,88.70L100.04,88.68L99.98,88.68L99.88,88.69L99.84,88.72L99.81,88.74L99.80,88.78L99.81,88.81L99.84,88.83L99.88,88.86"/><path style="stroke:#000000;stroke-width:0.088" d="M99.86,88.84L99.83,88.80L99.84,88.77L99.86,88.74L99.89,88.73L99.98,88.71L100.03,88.72L100.10,88.75L100.11,88.78L100.11,88.81L100.08,88.85"/><path style="stroke:#000000;stroke-width:0.088" d="M99.81,88.74L99.84,88.77"/><path style="stroke:#000000;stroke-width:0.088" d="M118.16,78.21L118.25,78.25L118.27,78.27L118.28,78.31L118.27,78.34L118.24,78.36L118.14,78.40L118.09,78.40L117.99,78.37L117.96,78.34L117.94,78.31L117.95,78.28L117.97,78.25L118.01,78.22L118.05,78.21L118.16,78.21"/><path style="stroke:#000000;stroke-width:0.088" d="M118.22,78.37L118.24,78.36L118.25,78.33L118.25,78.30L118.23,78.28L118.20,78.25L118.11,78.24L118.06,78.24L117.99,78.28L117.97,78.30L117.97,78.33L118.00,78.37"/><path style="stroke:#000000;stroke-width:0.088" d="M136.06,68.04L136.16,68.06L136.29,68.07L136.43,68.05L136.54,68.00L136.63,67.94L136.67,67.86L136.66,67.78L136.62,67.71L136.55,67.66L136.41,67.60L136.28,67.59L136.14,67.59L136.01,67.63L135.91,67.68L135.85,67.75L135.83,67.83L135.86,67.91L135.92,67.98L136.06,68.04"/><path style="stroke:#000000;stroke-width:0.088" d="M136.37,68.06L136.28,68.04L136.21,68.04L136.13,68.06"/><path style="stroke:#000000;stroke-width:0.088" d="M136.54,68.00L136.53,67.99L136.41,67.95L136.28,67.93L136.14,67.94L136.01,67.97L135.96,68.00"/><path style="stroke:#000000;stroke-width:0.088" d="M83.80,97.43L83.02,96.98L83.02,95.26L84.51,96.12L87.48,94.40L87.48,95.30"/><path style="stroke:#000000;stroke-width:0.088" d="M83.02,95.26L86.00,93.55L87.48,94.40"/><path style="stroke:#000000;stroke-width:0.088" d="M84.47,95.68L84.42,95.69L84.23,95.68L84.05,95.64L83.90,95.56L83.81,95.47L83.77,95.36L83.80,95.24L83.89,95.15L84.03,95.07L84.20,95.02L84.40,95.01L84.59,95.03L84.75,95.09L84.78,95.11L84.87,95.18L84.94,95.29L84.94,95.40L84.88,95.50L84.77,95.59L84.61,95.66L84.47,95.68"/><path style="stroke:#000000;stroke-width:0.088" d="M84.07,95.64L84.20,95.60L84.40,95.59L84.59,95.62L84.65,95.64"/><path style="stroke:#000000;stroke-width:0.088" d="M84.51,96.12L84.51,97.01"/><path style="stroke:#000000;stroke-width:0.088" d="M85.24,95.03L85.20,95.03L85.10,95.01L85.01,94.97L84.95,94.92L84.92,94.85L84.92,94.79L84.97,94.73L85.01,94.70L85.04,94.68L85.14,94.65L85.25,94.64L85.35,94.65L85.45,94.68L85.53,94.72L85.58,94.78L85.59,94.85L85.56,94.91L85.50,94.96L85.42,95.00L85.31,95.02L85.24,95.03"/><path style="stroke:#000000;stroke-width:0.088" d="M85.48,94.98L85.52,94.94L85.54,94.89L85.53,94.83L85.49,94.78L85.42,94.74L85.34,94.72L85.25,94.71L85.15,94.72L85.09,94.74L85.07,94.75L85.05,94.76L85.01,94.79L84.97,94.84L84.97,94.89L84.99,94.94L85.03,94.98"/><path style="stroke:#000000;stroke-width:0.088" d="M84.97,94.88L84.97,94.90"/><path style="stroke:#000000;stroke-width:0.088" d="M85.83,94.61L86.01,94.65L86.20,94.66L86.39,94.63L86.55,94.56L86.67,94.47L86.73,94.37L86.72,94.26L86.66,94.15L86.56,94.08L86.53,94.06L86.37,94.00L86.18,93.98L86.01,93.99L85.99,93.99L85.81,94.04L85.67,94.12L85.58,94.21L85.56,94.33L85.59,94.44L85.69,94.53L85.83,94.61"/><path style="stroke:#000000;stroke-width:0.088" d="M86.43,94.61L86.37,94.59L86.18,94.56L85.99,94.57L85.85,94.61"/><path style="stroke:#000000;stroke-width:0.088" d="M37.00,78.31L36.99,78.43L37.00,78.56L37.04,78.68L37.11,78.79L37.20,78.86L77.05,101.86L77.14,101.90L77.24,101.89L77.33,101.85L77.40,101.76L77.45,101.65L78.01,99.53L78.08,99.39L78.18,99.29L37.74,75.94L37.64,76.04L37.57,76.18L37.00,78.31"/><path style="stroke:#000000;stroke-width:0.088" d="M37.73,78.05L37.83,78.13L37.87,78.27L37.86,78.36L37.80,78.46L37.75,78.49L37.70,78.50L37.64,78.47L37.59,78.43L37.53,78.30L37.54,78.15L37.57,78.09L37.62,78.05L37.68,78.04L37.73,78.05L37.69,78.08L37.65,78.13L37.64,78.28L37.70,78.41L37.79,78.47"/><path style="stroke:#000000;stroke-width:0.088" d="M37.57,76.18L78.01,99.53"/><path style="stroke:#000000;stroke-width:0.088" d="M37.74,75.94L38.42,75.55"/><path style="stroke:#000000;stroke-width:0.088" d="M52.01,86.29L52.10,86.37L52.15,86.52L52.14,86.60L52.08,86.70L52.03,86.73L51.97,86.74L51.92,86.72L51.86,86.67L51.80,86.54L51.82,86.39L51.85,86.33L51.92,86.29L52.01,86.29L51.96,86.32L51.93,86.38L51.92,86.53L51.98,86.66L52.06,86.71"/><path style="stroke:#000000;stroke-width:0.088" d="M62.65,92.78L62.68,92.84L62.77,92.89L62.68,92.92L62.62,92.90L62.57,92.85L62.51,92.72L62.51,92.64L62.55,92.52L62.60,92.48L62.65,92.46L62.71,92.47L62.67,92.50L62.62,92.63L62.65,92.78"/><path style="stroke:#000000;stroke-width:0.088" d="M62.71,92.47L62.81,92.55L62.85,92.70L62.82,92.84L62.77,92.89"/><path style="stroke:#000000;stroke-width:0.088" d="M77.24,101.89L77.35,101.87L77.44,101.83L77.51,101.75L77.56,101.64L77.45,101.65"/><path style="stroke:#000000;stroke-width:0.088" d="M76.98,100.71L76.93,100.70L76.87,100.72L76.83,100.76L76.78,100.88L76.78,100.96L76.84,101.09L76.89,101.14L76.95,101.16L77.01,101.15L77.06,101.13L77.12,101.02L77.13,100.94L77.11,100.86L77.04,100.74L76.98,100.71L76.94,100.74L76.89,100.87L76.92,101.02L76.96,101.08L77.04,101.13"/><path style="stroke:#000000;stroke-width:0.088" d="M83.02,96.64L78.16,99.44L78.12,99.51L77.56,101.64"/><path style="stroke:#000000;stroke-width:0.088" d="M78.18,99.29L83.02,96.50"/><path style="stroke:#000000;stroke-width:0.088" d="M87.19,94.23L134.47,66.93L134.47,66.80L87.07,94.16"/><path style="stroke:#000000;stroke-width:0.088" d="M95.21,44.13L132.68,65.77"/><path style="stroke:#000000;stroke-width:0.088" d="M102.55,49.01L102.49,48.97L102.35,48.95L102.27,48.95L102.15,49.01"/><path style="stroke:#000000;stroke-width:0.088" d="M102.13,48.91L102.19,48.85L102.27,48.82L102.42,48.81L102.54,48.87L102.57,48.91L102.58,48.95L102.56,48.99L102.51,49.04L102.39,49.07L102.32,49.07L102.18,49.03L102.12,48.96L102.13,48.91"/><path style="stroke:#000000;stroke-width:0.088" d="M109.68,53.35L109.83,53.37L109.95,53.33L110.00,53.29L110.02,53.24L110.01,53.20L109.98,53.16L109.86,53.11L109.71,53.11L109.64,53.13L109.56,53.20L109.56,53.25L109.62,53.33L109.68,53.35"/><path style="stroke:#000000;stroke-width:0.088" d="M109.59,53.30L109.71,53.25L109.78,53.24L109.92,53.26L109.98,53.30"/><path style="stroke:#000000;stroke-width:0.088" d="M117.71,57.77L117.66,57.73L117.51,57.70L117.44,57.71L117.32,57.77"/><path style="stroke:#000000;stroke-width:0.088" d="M117.36,57.60L117.44,57.57L117.59,57.57L117.71,57.62L117.74,57.66L117.75,57.71L117.73,57.75L117.63,57.81L117.56,57.83L117.41,57.82L117.35,57.79L117.29,57.71L117.29,57.67L117.36,57.60"/><path style="stroke:#000000;stroke-width:0.088" d="M124.73,61.96L124.81,61.89L124.95,61.86L125.02,61.86L125.14,61.91L125.17,61.95L125.18,62.00L125.16,62.04L125.12,62.08L124.99,62.12L124.92,62.12L124.78,62.08L124.72,62.00L124.73,61.96"/><path style="stroke:#000000;stroke-width:0.088" d="M124.76,62.06L124.81,62.02L124.95,61.99L125.09,62.02L125.15,62.06"/><path style="stroke:#000000;stroke-width:0.088" d="M41.57,73.05L40.80,72.60L40.80,70.88L42.28,71.74L42.28,72.63"/><path style="stroke:#000000;stroke-width:0.088" d="M40.80,70.88L43.77,69.17L45.26,70.03L42.28,71.74"/><path style="stroke:#000000;stroke-width:0.088" d="M41.82,71.26L41.68,71.18L41.58,71.09L41.54,70.98L41.57,70.87L41.66,70.77L41.80,70.69L41.98,70.64L42.17,70.63L42.36,70.66L42.52,70.71L42.55,70.73L42.65,70.80L42.71,70.91L42.72,71.02L42.66,71.12L42.54,71.21L42.38,71.28L42.19,71.31L42.00,71.30L41.82,71.26"/><path style="stroke:#000000;stroke-width:0.088" d="M41.84,71.26L41.98,71.23L42.17,71.21L42.36,71.24L42.42,71.26"/><path style="stroke:#000000;stroke-width:0.088" d="M43.32,70.36L43.35,70.40L43.36,70.47L43.34,70.53L43.28,70.58L43.19,70.62L43.09,70.65L42.98,70.65L42.87,70.63L42.78,70.59L42.72,70.54L42.69,70.47L42.70,70.41L42.74,70.35L42.79,70.32L42.81,70.30L42.91,70.27L43.02,70.26L43.13,70.27L43.23,70.30L43.30,70.34L43.32,70.36"/><path style="stroke:#000000;stroke-width:0.088" d="M43.25,70.60L43.29,70.56L43.31,70.51L43.30,70.45L43.26,70.40L43.20,70.36L43.19,70.36L43.11,70.34L43.02,70.33L42.93,70.34L42.87,70.36L42.85,70.37L42.82,70.38L42.78,70.41L42.75,70.46L42.74,70.51L42.77,70.56L42.81,70.60"/><path style="stroke:#000000;stroke-width:0.088" d="M42.74,70.50L42.74,70.52"/><path style="stroke:#000000;stroke-width:0.088" d="M43.39,69.79L43.36,69.84L43.33,69.95L43.36,70.06L43.46,70.15L43.61,70.23L43.78,70.27L43.98,70.28L44.16,70.25L44.17,70.25L44.33,70.18L44.44,70.09L44.50,69.99L44.50,69.88L44.43,69.77L44.33,69.70L44.31,69.68L44.14,69.63L43.95,69.60L43.76,69.61L43.59,69.66L43.45,69.74L43.39,69.79"/><path style="stroke:#000000;stroke-width:0.088" d="M44.21,70.23L44.14,70.21L43.95,70.18L43.76,70.20L43.62,70.23"/><path style="stroke:#000000;stroke-width:0.088" d="M45.26,70.92L45.26,70.03"/><path style="stroke:#000000;stroke-width:0.088" d="M148.44,95.43L148.44,94.75L150.82,93.37L150.82,87.19L151.42,86.85L151.42,93.72L148.44,95.43L141.01,91.14L141.01,90.46L143.39,89.08L143.39,83.97"/><path style="stroke:#000000;stroke-width:0.088" d="M148.44,94.75L141.01,90.46"/><path style="stroke:#000000;stroke-width:0.088" d="M143.98,91.45L144.82,90.97L144.93,90.92L145.07,90.90L145.21,90.90L145.35,90.92L145.47,90.97L145.55,91.04L145.60,91.12L145.60,91.20L145.55,91.28L145.47,91.35L144.64,91.83L144.52,91.88L144.38,91.90L144.24,91.90L144.10,91.88L143.98,91.83L143.98,91.45L143.90,91.52L143.85,91.60L143.85,91.68L143.90,91.76L143.98,91.83"/><path style="stroke:#000000;stroke-width:0.088" d="M143.39,89.08L150.82,93.37"/><path style="stroke:#000000;stroke-width:0.088" d="M144.82,90.97L144.82,91.66L144.39,91.90"/><path style="stroke:#000000;stroke-width:0.088" d="M144.82,91.66L144.93,91.61L145.06,91.58"/><path style="stroke:#000000;stroke-width:0.088" d="M144.85,84.94L144.85,87.14L144.86,87.27L144.90,87.39"/><path style="stroke:#000000;stroke-width:0.088" d="M144.25,87.37L144.25,87.49L144.27,87.61L144.31,87.74L144.39,87.87L144.48,87.98L144.58,88.05L144.68,88.09L144.77,88.09L144.84,88.05L144.89,87.97L144.90,87.86L144.90,85.18L144.89,85.06L144.84,84.93L144.77,84.80L144.68,84.70L144.58,84.62L144.48,84.58L144.39,84.58L144.31,84.62L144.27,84.70L144.25,84.81L144.25,87.37"/><path style="stroke:#000000;stroke-width:0.088" d="M144.25,87.49L144.85,87.14"/><path style="stroke:#000000;stroke-width:0.088" d="M144.25,84.81L144.58,84.62"/><path style="stroke:#000000;stroke-width:0.088" d="M144.90,83.09L151.42,86.85"/><path style="stroke:#000000;stroke-width:0.088" d="M150.82,87.19L144.31,83.43"/><path style="stroke:#000000;stroke-width:0.088" d="M145.60,91.12L145.60,91.12"/><path style="stroke:#000000;stroke-width:0.088" d="M147.55,93.89L147.47,93.82L147.42,93.74L147.42,93.66L147.47,93.58L147.55,93.51L148.38,93.03L148.50,92.98L148.64,92.96L148.78,92.96L148.92,92.98L149.04,93.03L149.12,93.10L149.17,93.18L149.17,93.26L149.12,93.34L149.04,93.41L148.21,93.89L148.09,93.94L147.95,93.96L147.81,93.96L147.67,93.94L147.55,93.89L147.55,93.51"/><path style="stroke:#000000;stroke-width:0.088" d="M147.96,93.96L148.38,93.72L148.38,93.03"/><path style="stroke:#000000;stroke-width:0.088" d="M147.82,89.55L147.83,89.67L147.88,89.80L147.95,89.93L148.04,90.04L148.15,90.11L148.25,90.15L148.34,90.15L148.41,90.11L148.46,90.03L148.47,89.92L148.47,87.25L148.46,87.12L148.41,86.99L148.34,86.86L148.25,86.76L148.15,86.68L148.04,86.64L147.95,86.64L147.88,86.68L147.83,86.76L147.82,86.87L147.82,89.55L148.41,89.20L148.43,89.33L148.47,89.45"/><path style="stroke:#000000;stroke-width:0.088" d="M147.82,86.87L148.15,86.68"/><path style="stroke:#000000;stroke-width:0.088" d="M148.38,93.72L148.50,93.67L148.63,93.64"/><path style="stroke:#000000;stroke-width:0.088" d="M148.41,89.20L148.41,87.00"/><path style="stroke:#000000;stroke-width:0.088" d="M40.97,73.39L39.90,72.77"/><path style="stroke:#000000;stroke-width:0.088" d="M41.57,73.05L40.50,72.43"/><path style="stroke:#000000;stroke-width:0.088" d="M82.13,97.15L83.20,97.77"/><path style="stroke:#000000;stroke-width:0.088" d="M83.80,97.43L82.72,96.81"/><path style="stroke:#000000;stroke-width:0.088" d="M31.23,84.54L29.97,83.81L29.87,83.69"/><path style="stroke:#000000;stroke-width:0.088" d="M30.81,81.66L37.18,77.65"/><path style="stroke:#000000;stroke-width:0.088" d="M32.24,84.95L32.25,84.98"/><path style="stroke:#000000;stroke-width:0.088" d="M33.07,85.14L40.24,80.61"/><path style="stroke:#000000;stroke-width:0.088" d="M32.67,83.54L32.82,83.37L33.12,83.17L32.74,82.95"/><path style="stroke:#000000;stroke-width:0.088" d="M33.12,83.17L38.64,79.69"/><path style="stroke:#000000;stroke-width:0.088" d="M76.39,52.94L77.30,52.37L77.34,52.40"/><path style="stroke:#000000;stroke-width:0.088" d="M77.30,52.37L77.56,52.24L77.61,52.24"/><path style="stroke:#000000;stroke-width:0.088" d="M27.55,77.49L26.33,82.07L29.30,83.78L32.66,83.26L32.78,82.80L29.76,83.27L30.86,79.15L30.52,79.21L27.55,77.49L27.88,77.44L30.86,79.15"/><path style="stroke:#000000;stroke-width:0.088" d="M27.78,80.41L27.76,80.43L27.68,80.51L27.58,80.54L27.48,80.53L27.38,80.47L27.30,80.37L27.25,80.25L27.22,80.11L27.23,79.98L27.27,79.86L27.34,79.77L27.43,79.71L27.54,79.71L27.64,79.74L27.73,79.82L27.80,79.93L27.84,80.06L27.85,80.20L27.82,80.33L27.78,80.41"/><path style="stroke:#000000;stroke-width:0.088" d="M27.70,80.44L27.62,80.47L27.53,80.46L27.45,80.41L27.38,80.33L27.33,80.22L27.31,80.11L27.32,79.99L27.35,79.89L27.38,79.86L27.41,79.81L27.49,79.77L27.58,79.76L27.66,79.79L27.74,79.86L27.80,79.95L27.81,80.00L27.83,80.06L27.84,80.18L27.82,80.29L27.77,80.38L27.70,80.44"/><path style="stroke:#000000;stroke-width:0.088" d="M27.75,80.40L27.74,80.40L27.66,80.34L27.60,80.24L27.57,80.13L27.56,80.02L27.58,79.91L27.63,79.81L27.66,79.79"/><path style="stroke:#000000;stroke-width:0.088" d="M27.88,78.85L27.82,78.80L27.77,78.73L27.74,78.64L27.74,78.55L27.75,78.48L27.75,78.47L27.79,78.40L27.84,78.35L27.90,78.33L27.97,78.33L28.03,78.37L28.09,78.43L28.13,78.50L28.14,78.59L28.14,78.68L28.11,78.76L28.07,78.82L28.01,78.86L27.95,78.87L27.88,78.85"/><path style="stroke:#000000;stroke-width:0.088" d="M28.13,78.71L28.11,78.68L28.08,78.59L28.07,78.50L28.08,78.43L28.08,78.42"/><path style="stroke:#000000;stroke-width:0.088" d="M30.52,79.21L29.30,83.78"/><path style="stroke:#000000;stroke-width:0.088" d="M29.26,81.56L29.17,81.50L29.09,81.40L29.03,81.28L29.00,81.14L29.01,81.01L29.06,80.89L29.13,80.80L29.22,80.74L29.32,80.74L29.42,80.77L29.51,80.85L29.58,80.96L29.62,81.09L29.63,81.23L29.60,81.36L29.55,81.46L29.48,81.52L29.47,81.54L29.37,81.57L29.26,81.56"/><path style="stroke:#000000;stroke-width:0.088" d="M29.16,81.36L29.11,81.26L29.09,81.14L29.10,81.02L29.14,80.92L29.20,80.84L29.27,80.80L29.36,80.79L29.45,80.82L29.53,80.89L29.58,80.98L29.62,81.09L29.63,81.21L29.60,81.32L29.56,81.41L29.49,81.47L29.40,81.50L29.31,81.49L29.28,81.47L29.23,81.44L29.16,81.36"/><path style="stroke:#000000;stroke-width:0.088" d="M29.53,81.43L29.53,81.43L29.45,81.37L29.45,81.36L29.39,81.27L29.35,81.16L29.34,81.05L29.37,80.94L29.41,80.84L29.44,80.82"/><path style="stroke:#000000;stroke-width:0.088" d="M29.62,81.11L29.35,81.15"/><path style="stroke:#000000;stroke-width:0.088" d="M30.16,82.53L30.09,82.53L30.03,82.53L29.99,82.55L29.97,82.57L29.98,82.61L30.02,82.64L30.08,82.68L30.15,82.70L30.23,82.73L30.31,82.74L30.38,82.74L30.43,82.73L30.46,82.71L30.46,82.68L30.43,82.64L30.39,82.61L30.32,82.58L30.24,82.55L30.16,82.53"/><path style="stroke:#000000;stroke-width:0.088" d="M30.00,82.62L30.00,82.62L30.01,82.60L30.05,82.59L30.10,82.58L30.16,82.59L30.23,82.60L30.29,82.62L30.35,82.65L30.39,82.68L30.41,82.71L30.41,82.73"/><path style="stroke:#000000;stroke-width:0.088" d="M30.00,82.63L30.00,82.62L30.00,82.62"/><path style="stroke:#000000;stroke-width:0.088" d="M29.91,79.74L29.89,79.71L29.86,79.62L29.86,79.53L29.87,79.46L29.87,79.45"/><path style="stroke:#000000;stroke-width:0.088" d="M29.53,79.67L29.56,79.76L29.60,79.83L29.66,79.88L29.73,79.90L29.80,79.89L29.85,79.85L29.90,79.79L29.92,79.71L29.93,79.64L29.93,79.62L29.91,79.53L29.87,79.46L29.82,79.40L29.75,79.36L29.69,79.36L29.62,79.38L29.57,79.43L29.54,79.50L29.53,79.51L29.52,79.58L29.53,79.67"/><path style="stroke:#000000;stroke-width:0.088" d="M30.27,81.35L32.78,82.80"/><path style="stroke:#000000;stroke-width:0.088" d="M27.96,85.43L27.96,85.71L27.96,85.71L27.95,85.72L27.92,85.74L27.91,85.74L27.90,85.74L27.89,85.74L27.87,85.74L27.86,85.74L27.86,85.46L27.87,85.47L27.89,85.47L27.90,85.47L27.91,85.47L27.93,85.46L27.95,85.44L27.96,85.44L27.96,85.43L27.96,85.42L27.96,85.42L27.95,85.41L27.93,85.40L27.93,85.39L27.93,85.39L27.93,85.39L27.93,85.40"/><path style="stroke:#000000;stroke-width:0.088" d="M27.86,85.74L27.45,85.50L27.44,85.49L27.43,85.48L27.43,85.20L27.43,85.21L27.44,85.21L27.45,85.22L27.86,85.46"/><path style="stroke:#000000;stroke-width:0.088" d="M27.43,85.20L27.44,85.19L27.45,85.19L27.48,85.17L27.49,85.16L27.50,85.16L27.51,85.16L27.52,85.16L27.54,85.17L27.56,85.18L27.57,85.18L27.58,85.18L28.28,84.77L28.28,84.71L28.29,84.72L28.30,84.73L28.30,84.75L28.29,84.76L28.28,84.77"/><path style="stroke:#000000;stroke-width:0.088" d="M27.45,85.22L27.45,85.50"/><path style="stroke:#000000;stroke-width:0.088" d="M28.62,85.89L28.62,86.17L28.63,86.18L28.64,86.18L28.64,85.91L28.63,85.90L28.62,85.89L28.62,85.89L28.63,85.88L28.64,85.87L28.67,85.86L28.68,85.85L28.69,85.85L28.70,85.85L28.71,85.85L28.72,85.86L28.75,85.87L28.76,85.87L28.77,85.87L29.23,85.60L29.23,85.32L29.25,85.31L29.28,85.31L29.30,85.31L29.33,85.31L29.35,85.32L29.35,85.53"/><path style="stroke:#000000;stroke-width:0.088" d="M28.64,85.91L29.05,86.15L29.06,86.15L29.08,86.15L29.09,86.15L29.10,86.15L29.11,86.15L29.14,86.13L29.15,86.12L29.15,86.12L29.15,86.39L29.15,86.40L29.14,86.41L29.14,86.13"/><path style="stroke:#000000;stroke-width:0.088" d="M28.56,85.77L28.56,86.05L28.55,86.06L28.55,86.06L28.52,86.08L28.51,86.08L28.49,86.09L28.48,86.09L28.47,86.08L28.46,86.08L28.04,85.84L28.03,85.83L28.03,85.83L28.03,85.54L28.03,85.55L28.03,85.56L28.04,85.56L28.46,85.80L28.47,85.81L28.48,85.81L28.49,85.81L28.51,85.81L28.52,85.80L28.55,85.79L28.55,85.78L28.56,85.77L28.56,85.77L28.55,85.76L28.55,85.75L28.53,85.74L28.53,85.73L28.52,85.73L28.52,85.74L28.53,85.74"/><path style="stroke:#000000;stroke-width:0.088" d="M28.55,86.06L28.55,85.79"/><path style="stroke:#000000;stroke-width:0.088" d="M28.62,85.95L28.56,85.99"/><path style="stroke:#000000;stroke-width:0.088" d="M28.46,86.08L28.46,85.80"/><path style="stroke:#000000;stroke-width:0.088" d="M28.52,86.08L28.52,85.80"/><path style="stroke:#000000;stroke-width:0.088" d="M28.64,86.18L29.05,86.42L29.05,86.15"/><path style="stroke:#000000;stroke-width:0.088" d="M28.04,85.84L28.04,85.56"/><path style="stroke:#000000;stroke-width:0.088" d="M28.03,85.54L28.03,85.54L28.04,85.53L28.07,85.51L28.08,85.51L28.09,85.51L28.11,85.51L28.12,85.51L28.13,85.51L28.15,85.52L28.16,85.53L28.17,85.52L28.87,85.12L28.89,85.11L28.90,85.09L28.90,85.08L28.89,85.06L28.87,85.05L28.87,85.12"/><path style="stroke:#000000;stroke-width:0.088" d="M27.95,85.72L27.95,85.44"/><path style="stroke:#000000;stroke-width:0.088" d="M27.92,85.74L27.92,85.46"/><path style="stroke:#000000;stroke-width:0.088" d="M27.96,85.64L28.03,85.61"/><path style="stroke:#000000;stroke-width:0.088" d="M28.17,85.52L28.64,85.26L28.64,84.98L28.66,84.97L28.68,84.97L28.71,84.97L28.73,84.97L28.75,84.98L28.87,85.05"/><path style="stroke:#000000;stroke-width:0.088" d="M27.93,85.39L28.64,84.98"/><path style="stroke:#000000;stroke-width:0.088" d="M28.53,85.73L29.23,85.32"/><path style="stroke:#000000;stroke-width:0.088" d="M28.67,84.77L28.65,84.72L28.66,84.63L28.72,84.54L28.82,84.47L28.97,84.42L29.13,84.40L29.29,84.41L29.43,84.46L29.55,84.52L29.62,84.61L29.64,84.70L29.60,84.80L29.52,84.88L29.39,84.94L29.24,84.97L29.07,84.97L28.92,84.94L28.79,84.89L28.69,84.81L28.67,84.77"/><path style="stroke:#000000;stroke-width:0.088" d="M29.05,83.64L29.05,83.84L29.14,84.10L29.20,84.17L28.28,84.71"/><path style="stroke:#000000;stroke-width:0.088" d="M28.82,83.51L28.27,84.48L28.24,84.54L28.23,84.60L28.22,84.65L28.22,84.81"/><path style="stroke:#000000;stroke-width:0.088" d="M28.27,84.48L28.06,84.36L28.03,84.42L28.02,84.48L28.01,84.53L28.22,84.65"/><path style="stroke:#000000;stroke-width:0.088" d="M28.01,84.93L28.01,84.53"/><path style="stroke:#000000;stroke-width:0.088" d="M28.06,84.36L28.55,83.49L28.59,83.37"/><path style="stroke:#000000;stroke-width:0.088" d="M29.65,86.49L29.65,86.77L29.23,86.53L29.23,86.25L29.65,86.49L29.66,86.50L29.67,86.50L29.68,86.50L29.70,86.50L29.71,86.49L29.74,86.47L29.74,86.47L29.75,86.46L29.75,86.45L29.74,86.45L29.74,86.44L29.71,86.43L29.71,86.42L29.71,86.42L29.72,86.42L30.42,86.01L30.44,86.00L30.47,86.00L30.48,86.00"/><path style="stroke:#000000;stroke-width:0.088" d="M29.23,86.25L29.22,86.24L29.22,86.24L29.22,86.23L29.22,86.51L29.22,86.52L29.23,86.53"/><path style="stroke:#000000;stroke-width:0.088" d="M29.22,86.23L29.22,86.22L29.23,86.22L29.26,86.20L29.27,86.19L29.28,86.19L29.30,86.19L29.31,86.19L29.32,86.20L29.34,86.21L29.35,86.21L29.36,86.21L30.06,85.80L30.08,85.79L30.09,85.78L30.09,85.76L30.08,85.75L30.06,85.74L29.94,85.67L29.94,85.87"/><path style="stroke:#000000;stroke-width:0.088" d="M29.94,85.67L29.92,85.66L29.90,85.65L29.87,85.65L29.85,85.66L29.83,85.67L29.12,86.07L29.12,86.08L29.12,86.08L29.12,86.08L29.14,86.10L29.15,86.10L29.15,86.11L29.15,86.12"/><path style="stroke:#000000;stroke-width:0.088" d="M29.12,86.07L29.12,86.09"/><path style="stroke:#000000;stroke-width:0.088" d="M29.11,86.15L29.11,86.42L29.14,86.41"/><path style="stroke:#000000;stroke-width:0.088" d="M29.11,86.42L29.10,86.43L29.09,86.43L29.08,86.43L29.06,86.43L29.05,86.42"/><path style="stroke:#000000;stroke-width:0.088" d="M28.84,85.82L29.47,85.46L29.48,85.45L29.49,85.43L29.49,85.42L29.48,85.40L29.47,85.39L29.35,85.32"/><path style="stroke:#000000;stroke-width:0.088" d="M29.15,86.33L29.22,86.29"/><path style="stroke:#000000;stroke-width:0.088" d="M28.75,84.98L28.75,85.19"/><path style="stroke:#000000;stroke-width:0.088" d="M28.96,84.95L29.03,84.93L29.11,84.91L29.20,84.91L29.28,84.93L29.32,84.95"/><path style="stroke:#000000;stroke-width:0.088" d="M28.90,84.93L28.87,84.89L28.88,84.84L28.91,84.79L28.97,84.75L29.05,84.73L29.13,84.72L29.22,84.73L29.28,84.74L29.30,84.75L29.36,84.78L29.40,84.83L29.41,84.88L29.39,84.93L29.39,84.94"/><path style="stroke:#000000;stroke-width:0.088" d="M30.89,85.14L29.20,84.17"/><path style="stroke:#000000;stroke-width:0.088" d="M30.93,85.08L29.38,84.18L29.19,84.15"/><path style="stroke:#000000;stroke-width:0.088" d="M29.43,84.21L29.71,84.05L29.96,83.86L30.00,83.82"/><path style="stroke:#000000;stroke-width:0.088" d="M29.65,86.77L29.66,86.77L29.67,86.77L29.68,86.77L29.70,86.77L29.71,86.77L29.71,86.49"/><path style="stroke:#000000;stroke-width:0.088" d="M29.74,86.47L29.74,86.75L29.71,86.77"/><path style="stroke:#000000;stroke-width:0.088" d="M30.42,86.01L30.42,86.29L29.75,86.67"/><path style="stroke:#000000;stroke-width:0.088" d="M29.75,86.46L29.75,86.74L29.74,86.74L29.74,86.75"/><path style="stroke:#000000;stroke-width:0.088" d="M29.72,86.42L29.72,86.43"/><path style="stroke:#000000;stroke-width:0.088" d="M29.83,85.67L29.83,85.94L29.45,86.16"/><path style="stroke:#000000;stroke-width:0.088" d="M29.47,85.39L29.47,85.46"/><path style="stroke:#000000;stroke-width:0.088" d="M30.82,85.27L30.68,85.23L30.52,85.23L30.36,85.25L30.23,85.31L30.13,85.38L30.08,85.47L30.08,85.57L30.14,85.65L30.24,85.73L30.38,85.78L30.52,85.80"/><path style="stroke:#000000;stroke-width:0.088" d="M30.06,85.74L30.06,85.80"/><path style="stroke:#000000;stroke-width:0.088" d="M30.42,86.29L30.44,86.28L30.47,86.27L30.48,86.27"/><path style="stroke:#000000;stroke-width:0.088" d="M30.48,85.96L30.49,85.90L30.50,85.84L30.53,85.78L31.58,83.93L31.61,83.87L31.66,83.83L31.70,83.79L32.09,84.02L32.53,83.76L32.79,83.66L33.02,83.66L33.20,83.77L33.32,83.97L33.36,84.24L33.32,84.56L33.20,84.90L33.02,85.22L32.79,85.49L32.53,85.68L32.00,85.99L31.23,86.23L30.72,86.53L30.71,86.53L30.70,86.53L30.69,86.53L30.69,86.52L30.69,86.51L30.69,86.08L30.48,85.96L30.48,86.39L30.69,86.51"/><path style="stroke:#000000;stroke-width:0.088" d="M30.70,86.53L30.49,86.41L30.48,86.40L30.48,86.39"/><path style="stroke:#000000;stroke-width:0.088" d="M30.69,86.08L30.69,86.02L30.71,85.96L30.74,85.90L30.53,85.78"/><path style="stroke:#000000;stroke-width:0.088" d="M30.74,85.90L31.23,85.04L31.23,86.23"/><path style="stroke:#000000;stroke-width:0.088" d="M30.39,86.30L30.48,86.35"/><path style="stroke:#000000;stroke-width:0.088" d="M30.56,85.74L30.54,85.74L30.46,85.75L30.38,85.78"/><path style="stroke:#000000;stroke-width:0.088" d="M30.32,85.76L30.30,85.73L30.30,85.68L30.33,85.63L30.38,85.59L30.46,85.56L30.54,85.54L30.63,85.55L30.66,85.55"/><path style="stroke:#000000;stroke-width:0.088" d="M31.23,85.04L31.95,84.15L31.58,83.93"/><path style="stroke:#000000;stroke-width:0.088" d="M31.70,83.79L31.82,83.73L32.00,83.83L32.32,83.64L32.53,83.76"/><path style="stroke:#000000;stroke-width:0.088" d="M32.00,85.99L32.00,84.10L32.04,84.05L32.09,84.02"/><path style="stroke:#000000;stroke-width:0.088" d="M32.53,85.41L32.54,85.42L32.55,85.46L32.57,85.48L32.59,85.50L32.55,85.48L32.54,85.45L32.53,85.41L32.53,85.27L32.53,85.25L32.54,85.22L32.55,85.20L32.57,85.18L32.58,85.17L32.60,85.18L32.58,85.19L32.56,85.21L32.55,85.23L32.55,85.25L32.54,85.27L32.53,85.27"/><path style="stroke:#000000;stroke-width:0.088" d="M32.54,85.27L32.54,85.42"/><path style="stroke:#000000;stroke-width:0.088" d="M32.55,85.06L32.54,85.06L32.44,85.10L32.35,85.10L32.29,85.06L32.24,84.98L32.23,84.89L32.23,84.87L32.26,84.75L32.31,84.62L32.38,84.51L32.48,84.42L32.57,84.36L32.67,84.34L32.75,84.36L32.80,84.42L32.83,84.52L32.82,84.63L32.78,84.76L32.72,84.88L32.63,84.99L32.55,85.06"/><path style="stroke:#000000;stroke-width:0.088" d="M32.61,84.35L32.62,84.40L32.62,84.43L32.61,84.51L32.58,84.64L32.51,84.76L32.43,84.87L32.33,84.94L32.24,84.98"/><path style="stroke:#000000;stroke-width:0.088" d="M32.32,83.64L32.58,83.54L32.81,83.54L32.83,83.55"/><path style="stroke:#000000;stroke-width:0.088" d="M31.95,84.15L32.00,84.10"/><path style="stroke:#000000;stroke-width:0.088" d="M32.53,84.04L32.54,84.04L32.54,84.18L32.55,84.20L32.55,84.22L32.56,84.22L32.55,84.22L32.54,84.21L32.53,84.20L32.53,84.18L32.53,84.04L32.54,83.99L32.55,83.94L32.58,83.90L32.61,83.86L32.65,83.83L32.80,83.74L32.83,83.73L32.85,83.73L33.06,83.77L33.07,83.77L32.87,83.73L32.85,83.73"/><path style="stroke:#000000;stroke-width:0.088" d="M32.54,84.04L32.55,84.00L32.57,83.95L32.59,83.90L32.63,83.86L32.66,83.84L32.65,83.83"/><path style="stroke:#000000;stroke-width:0.088" d="M32.54,84.18L32.53,84.18"/><path style="stroke:#000000;stroke-width:0.088" d="M33.07,83.77L33.23,83.92L33.31,84.14L33.31,84.43L33.23,84.76L33.07,85.07L32.87,85.36L32.84,85.38L32.82,85.40L32.66,85.49L32.63,85.50L32.59,85.50"/><path style="stroke:#000000;stroke-width:0.088" d="M32.60,85.18L32.72,85.06L32.83,84.91L32.91,84.74L32.95,84.57L32.95,84.42L32.91,84.29L32.83,84.22L32.72,84.19L32.58,84.23L32.56,84.22"/><path style="stroke:#000000;stroke-width:0.088" d="M32.58,85.17L32.71,85.05L32.82,84.90L32.90,84.73L32.94,84.56L32.94,84.41L32.90,84.29L32.83,84.22"/><path style="stroke:#000000;stroke-width:0.088" d="M32.80,83.74L32.82,83.75L32.84,83.74L32.87,83.73"/><path style="stroke:#000000;stroke-width:0.088" d="M32.82,83.75L32.66,83.84"/><path style="stroke:#000000;stroke-width:0.088" d="M33.02,83.66L32.81,83.54L32.86,83.57"/><path style="stroke:#000000;stroke-width:0.088" d="M79.11,51.37L79.20,51.28L79.02,51.18L78.78,51.42L78.77,51.43"/><path style="stroke:#000000;stroke-width:0.088" d="M79.02,51.18L79.52,50.79L79.31,50.67L79.34,50.83L79.42,50.87"/><path style="stroke:#000000;stroke-width:0.088" d="M80.71,49.82L80.45,50.02L80.66,50.14L79.20,51.28"/><path style="stroke:#000000;stroke-width:0.088" d="M80.84,50.37L80.59,50.23L79.78,50.88L79.79,50.98"/><path style="stroke:#000000;stroke-width:0.088" d="M79.78,50.88L79.87,50.93"/><path style="stroke:#000000;stroke-width:0.088" d="M79.31,50.67L80.73,49.55"/><path style="stroke:#000000;stroke-width:0.088" d="M80.68,50.28L80.66,50.14"/><path style="stroke:#000000;stroke-width:0.088" d="M84.22,48.12L83.52,47.59"/><path style="stroke:#000000;stroke-width:0.088" d="M84.22,48.09L84.07,47.97L84.28,48.10L83.58,47.56"/><path style="stroke:#000000;stroke-width:0.088" d="M84.28,48.10L84.40,47.91L84.42,47.60L84.52,47.26L84.69,46.93L84.72,46.90"/><path style="stroke:#000000;stroke-width:0.088" d="M84.28,47.15L84.41,47.24L84.58,46.98"/><path style="stroke:#000000;stroke-width:0.088" d="M84.45,47.05L84.35,47.20"/><path style="stroke:#000000;stroke-width:0.088" d="M85.17,47.74L85.27,47.70L85.37,47.62L85.45,47.51L85.51,47.39L85.55,47.26L85.55,47.15L85.52,47.06L85.46,47.00L85.38,46.98L85.29,47.01L85.19,47.07L85.10,47.16L85.06,47.22L85.03,47.28L84.98,47.40L84.96,47.53L84.97,47.63L85.02,47.71L85.09,47.75L85.17,47.74"/><path style="stroke:#000000;stroke-width:0.088" d="M85.02,47.71L85.00,47.70"/><path style="stroke:#000000;stroke-width:0.088" d="M80.77,49.17L80.61,49.48L80.82,49.60L80.57,50.09"/><path style="stroke:#000000;stroke-width:0.088" d="M81.49,48.76L80.70,50.29"/><path style="stroke:#000000;stroke-width:0.088" d="M81.55,48.73L81.08,49.63L81.60,49.93"/><path style="stroke:#000000;stroke-width:0.088" d="M82.77,49.26L81.70,48.64"/><path style="stroke:#000000;stroke-width:0.088" d="M82.79,49.25L81.72,48.63"/><path style="stroke:#000000;stroke-width:0.088" d="M81.76,48.66L81.76,48.61"/><path style="stroke:#000000;stroke-width:0.088" d="M82.76,48.95L82.78,48.96L82.55,49.11"/><path style="stroke:#000000;stroke-width:0.088" d="M82.78,48.96L82.90,49.01L82.85,49.10"/><path style="stroke:#000000;stroke-width:0.088" d="M82.63,49.16L82.69,49.04L82.85,49.10L82.94,49.16"/><path style="stroke:#000000;stroke-width:0.088" d="M82.92,49.17L82.69,49.04"/><path style="stroke:#000000;stroke-width:0.088" d="M82.90,49.01L82.78,48.94"/><path style="stroke:#000000;stroke-width:0.088" d="M77.33,52.36L77.37,52.32L77.19,52.22L76.94,52.42L76.70,52.69L76.65,52.78"/><path style="stroke:#000000;stroke-width:0.088" d="M77.37,52.32L78.85,51.47L78.85,51.52"/><path style="stroke:#000000;stroke-width:0.088" d="M77.19,52.22L77.70,51.93L77.49,51.81L78.97,50.96L79.22,50.85L79.38,50.85"/><path style="stroke:#000000;stroke-width:0.088" d="M77.54,52.02L77.49,51.99L77.49,51.81"/><path style="stroke:#000000;stroke-width:0.088" d="M77.49,51.99L77.54,52.02"/><path style="stroke:#000000;stroke-width:0.088" d="M77.95,52.04L78.78,51.56"/><path style="stroke:#000000;stroke-width:0.088" d="M78.85,51.47L78.65,51.36L79.15,51.06L78.97,50.96"/><path style="stroke:#000000;stroke-width:0.088" d="M79.15,51.06L79.19,51.05"/><path style="stroke:#000000;stroke-width:0.088" d="M79.37,50.84L79.36,50.85"/><path style="stroke:#000000;stroke-width:0.088" d="M81.76,48.60L81.77,48.66"/><path style="stroke:#000000;stroke-width:0.088" d="M82.53,49.10L82.59,49.08L82.85,48.88L83.06,48.64"/><path style="stroke:#000000;stroke-width:0.088" d="M82.39,48.24L83.46,48.86"/><path style="stroke:#000000;stroke-width:0.088" d="M84.02,48.23L83.22,47.76"/><path style="stroke:#000000;stroke-width:0.088" d="M83.43,47.64L83.41,47.74"/><path style="stroke:#000000;stroke-width:0.088" d="M84.12,48.14L83.34,47.69"/><path style="stroke:#000000;stroke-width:0.088" d="M84.02,48.54L84.02,48.20L84.22,48.31L84.22,48.06"/><path style="stroke:#000000;stroke-width:0.088" d="M84.40,47.84L84.41,47.84L84.41,48.31"/><path style="stroke:#000000;stroke-width:0.088" d="M84.02,48.20L84.18,48.11L84.22,48.13"/><path style="stroke:#000000;stroke-width:0.088" d="M84.18,48.11L84.22,48.13"/><path style="stroke:#000000;stroke-width:0.088" d="M84.77,46.87L84.58,47.19L84.54,47.28L84.53,47.27L84.45,47.52L84.41,47.84"/><path style="stroke:#000000;stroke-width:0.088" d="M85.10,47.17L85.10,47.16L85.19,47.07L85.29,47.01L85.38,46.98L85.42,46.99"/><path style="stroke:#000000;stroke-width:0.088" d="M85.10,47.17L85.02,47.28L84.98,47.41L84.96,47.53L84.96,47.54L84.54,47.78L84.53,47.77L84.53,47.27"/><path style="stroke:#000000;stroke-width:0.088" d="M84.96,47.62L84.96,47.63L85.00,47.70L85.02,47.71"/><path style="stroke:#000000;stroke-width:0.088" d="M84.54,47.28L84.54,47.78"/><path style="stroke:#000000;stroke-width:0.088" d="M84.95,47.54L84.96,47.62"/><path style="stroke:#000000;stroke-width:0.088" d="M85.55,47.19L85.55,47.19L85.55,47.15L85.52,47.06L85.46,47.00L85.42,46.99"/><path style="stroke:#000000;stroke-width:0.088" d="M85.92,46.40L85.89,46.39L85.93,46.41L85.97,46.46L85.97,46.95L85.55,47.19"/><path style="stroke:#000000;stroke-width:0.088" d="M85.97,46.48L86.03,46.60L86.07,46.88L86.07,47.35"/><path style="stroke:#000000;stroke-width:0.088" d="M85.75,46.31L85.90,46.40"/><path style="stroke:#000000;stroke-width:0.088" d="M77.67,97.53L78.86,98.22L78.86,98.90L77.67,98.22L77.67,97.53L133.28,65.42L134.47,66.11L134.47,66.80L87.07,94.16"/><path style="stroke:#000000;stroke-width:0.088" d="M78.86,98.22L83.02,95.81"/><path style="stroke:#000000;stroke-width:0.088" d="M78.86,98.90L83.02,96.50"/><path style="stroke:#000000;stroke-width:0.088" d="M78.46,97.45L78.52,97.38L78.62,97.33L78.75,97.30L78.89,97.29L79.02,97.30L79.14,97.35L79.22,97.41L79.27,97.48L79.27,97.56L79.23,97.64L79.15,97.70L79.04,97.75L78.90,97.77L78.76,97.77L78.64,97.74L78.53,97.68L78.46,97.61L78.44,97.53L78.46,97.45"/><path style="stroke:#000000;stroke-width:0.088" d="M78.98,97.76L78.89,97.74L78.81,97.74L78.74,97.76"/><path style="stroke:#000000;stroke-width:0.088" d="M79.15,97.70L79.14,97.69L79.02,97.65L78.89,97.63L78.75,97.64L78.62,97.67L78.57,97.70"/><path style="stroke:#000000;stroke-width:0.088" d="M134.47,66.11L86.47,93.82"/><path style="stroke:#000000;stroke-width:0.088" d="M96.84,87.09L96.83,87.06L96.84,87.03L96.86,87.00L96.95,86.96L97.06,86.97L97.11,86.98L97.14,87.01L97.16,87.04L97.16,87.07L97.15,87.10L97.07,87.14L96.96,87.15L96.91,87.14L96.87,87.12L96.84,87.09"/><path style="stroke:#000000;stroke-width:0.088" d="M96.88,87.13L96.86,87.08L96.86,87.05L96.84,87.03"/><path style="stroke:#000000;stroke-width:0.088" d="M96.86,87.05L96.92,87.01L97.01,86.99L97.05,87.00L97.12,87.04L97.14,87.06L97.14,87.09L97.11,87.13"/><path style="stroke:#000000;stroke-width:0.088" d="M115.29,76.55L115.31,76.59L115.29,76.62L115.26,76.65L115.17,76.68L115.11,76.68L115.02,76.65L114.99,76.62L114.97,76.59L114.97,76.56L115.00,76.53L115.08,76.49L115.19,76.49L115.24,76.51L115.29,76.55"/><path style="stroke:#000000;stroke-width:0.088" d="M115.25,76.66L115.26,76.65L115.28,76.62L115.28,76.58L115.26,76.56L115.22,76.54L115.13,76.52L115.09,76.53L115.02,76.56L115.00,76.59L115.00,76.61L115.03,76.66"/><path style="stroke:#000000;stroke-width:0.088" d="M133.57,66.29L133.65,66.22L133.69,66.15L133.69,66.07L133.64,65.99L133.56,65.93L133.44,65.89L133.30,65.87L133.17,65.88L133.04,65.91L132.94,65.97L132.88,66.04L132.86,66.12L132.88,66.19L132.95,66.26L133.05,66.32L133.18,66.35L133.32,66.35L133.45,66.33L133.57,66.29L133.56,66.27L133.44,66.23L133.30,66.21L133.17,66.22L133.04,66.25L132.99,66.28"/><path style="stroke:#000000;stroke-width:0.088" d="M133.40,66.34L133.31,66.32L133.23,66.32L133.16,66.34"/><path style="stroke:#000000;stroke-width:0.088" d="M44.84,69.78L92.24,42.42L92.24,41.73L91.05,41.04L35.44,73.15L35.44,73.84L36.63,74.52L36.63,73.84L40.80,71.43"/><path style="stroke:#000000;stroke-width:0.088" d="M35.44,73.15L36.63,73.84"/><path style="stroke:#000000;stroke-width:0.088" d="M36.24,73.23L36.21,73.15L36.23,73.08L36.30,73.00L36.40,72.95L36.52,72.92L36.66,72.91L36.79,72.93L36.91,72.97L37.00,73.03L37.05,73.11L37.05,73.19L37.01,73.26L36.92,73.32L36.81,73.37L36.68,73.39L36.54,73.39L36.41,73.36L36.31,73.30L36.24,73.23"/><path style="stroke:#000000;stroke-width:0.088" d="M36.34,73.32L36.40,73.29L36.52,73.26L36.66,73.25L36.79,73.27L36.91,73.31L36.92,73.32"/><path style="stroke:#000000;stroke-width:0.088" d="M36.63,74.52L40.80,72.12"/><path style="stroke:#000000;stroke-width:0.088" d="M36.75,73.38L36.66,73.36L36.59,73.36L36.51,73.38"/><path style="stroke:#000000;stroke-width:0.088" d="M44.24,69.44L92.24,41.73"/><path style="stroke:#000000;stroke-width:0.088" d="M54.61,62.65L54.64,62.62L54.73,62.58L54.84,62.59L54.88,62.60L54.92,62.63L54.94,62.66L54.94,62.69L54.92,62.72L54.84,62.76L54.73,62.77L54.68,62.76L54.64,62.74L54.61,62.71L54.60,62.68L54.61,62.65L54.64,62.67L54.69,62.63L54.78,62.62L54.83,62.62L54.90,62.66L54.91,62.68L54.91,62.71L54.88,62.75"/><path style="stroke:#000000;stroke-width:0.088" d="M54.64,62.67L54.63,62.70L54.66,62.75"/><path style="stroke:#000000;stroke-width:0.088" d="M72.77,52.25L72.74,52.21L72.75,52.18L72.77,52.15L72.81,52.13L72.85,52.11L72.96,52.11L73.05,52.15L73.07,52.18L73.08,52.21L73.07,52.24L73.04,52.27L72.99,52.29L72.89,52.30L72.83,52.29L72.77,52.25"/><path style="stroke:#000000;stroke-width:0.088" d="M72.80,52.28L72.77,52.23L72.77,52.21L72.79,52.18L72.86,52.15L72.91,52.14L73.00,52.16L73.03,52.18L73.05,52.20L73.05,52.24L73.04,52.27L73.02,52.28"/><path style="stroke:#000000;stroke-width:0.088" d="M90.66,41.81L90.63,41.74L90.65,41.66L90.66,41.64L90.71,41.59L90.81,41.53L90.94,41.50L91.08,41.49L91.21,41.51L91.33,41.55L91.42,41.61L91.46,41.69L91.47,41.77L91.42,41.84L91.34,41.91L91.23,41.95L91.09,41.97L90.96,41.97L90.83,41.94L90.72,41.88L90.66,41.81"/><path style="stroke:#000000;stroke-width:0.088" d="M91.34,41.91L91.33,41.89L91.21,41.85L91.08,41.83L90.94,41.84L90.81,41.87L90.76,41.90"/><path style="stroke:#000000;stroke-width:0.088" d="M91.17,41.96L91.08,41.94L91.01,41.94L90.93,41.96"/><path style="stroke:#000000;stroke-width:0.088" d="M38.42,75.55L38.42,74.87L94.02,42.76L95.21,43.45L95.21,44.13L39.61,76.24L38.42,75.55"/><path style="stroke:#000000;stroke-width:0.088" d="M95.21,43.45L39.61,75.55L38.42,74.87"/><path style="stroke:#000000;stroke-width:0.088" d="M39.90,75.04L39.98,74.98L40.02,74.90L40.02,74.82L39.97,74.75L39.88,74.68L39.77,74.64L39.63,74.62L39.49,74.63L39.37,74.67L39.27,74.72L39.21,74.79L39.19,74.87L39.21,74.95L39.28,75.02L39.38,75.07L39.51,75.10L39.65,75.11L39.78,75.09L39.90,75.04L39.88,75.03L39.77,74.99L39.63,74.97L39.49,74.98L39.37,75.01L39.32,75.04"/><path style="stroke:#000000;stroke-width:0.088" d="M39.48,75.10L39.56,75.08L39.64,75.08L39.72,75.10"/><path style="stroke:#000000;stroke-width:0.088" d="M39.61,76.24L39.61,75.55"/><path style="stroke:#000000;stroke-width:0.088" d="M57.86,64.32L57.89,64.35L57.91,64.38L57.91,64.41L57.90,64.44L57.86,64.46L57.82,64.48L57.71,64.49L57.66,64.48L57.62,64.46L57.59,64.43L57.58,64.40L57.59,64.36L57.61,64.34L57.65,64.31L57.75,64.30L57.86,64.32"/><path style="stroke:#000000;stroke-width:0.088" d="M57.59,64.36L57.61,64.39L57.60,64.42L57.63,64.46"/><path style="stroke:#000000;stroke-width:0.088" d="M57.61,64.39L57.66,64.35L57.75,64.33L57.80,64.34L57.87,64.37L57.89,64.40L57.89,64.43L57.85,64.47"/><path style="stroke:#000000;stroke-width:0.088" d="M75.94,53.83L75.88,53.82L75.78,53.85L75.74,53.87L75.72,53.90L75.72,53.93L75.73,53.96L75.76,53.99L75.86,54.02L75.92,54.02L76.01,53.99L76.04,53.96L76.05,53.93L76.05,53.90L76.02,53.87L75.94,53.83"/><path style="stroke:#000000;stroke-width:0.088" d="M75.78,53.99L75.74,53.95L75.75,53.92L75.76,53.90L75.84,53.86L75.89,53.86L75.97,53.88L76.02,53.92L76.03,53.95L76.02,53.93"/><path style="stroke:#000000;stroke-width:0.088" d="M75.76,53.98L75.74,53.95"/><path style="stroke:#000000;stroke-width:0.088" d="M76.03,53.95L76.01,53.99L75.99,53.99"/><path style="stroke:#000000;stroke-width:0.088" d="M75.97,53.88L75.99,53.88"/><path style="stroke:#000000;stroke-width:0.088" d="M94.32,43.62L94.40,43.56L94.44,43.48L94.44,43.40L94.39,43.33L94.30,43.27L94.19,43.22L94.05,43.21L93.91,43.21L93.79,43.25L93.69,43.30L93.62,43.37L93.60,43.45L93.63,43.53L93.70,43.60L93.80,43.65L93.93,43.68L94.07,43.69L94.20,43.67L94.32,43.62L94.30,43.61L94.19,43.57L94.05,43.55L93.91,43.56L93.79,43.59L93.74,43.62"/><path style="stroke:#000000;stroke-width:0.088" d="M93.90,43.68L93.98,43.66L94.05,43.66L94.14,43.68"/><path style="fill:#ffffff" d="M171.97,78.40L198.38,78.40L198.38,72.75L171.97,72.75z"/><path style="stroke:#35414c;stroke-width:0.255" d="M171.97,78.40L198.38,78.40L198.38,72.75L171.97,72.75z"/><path style="stroke:#35404c;stroke-width:0.250;stroke-opacity:0.00" d="M171.97,78.40L198.38,78.40L198.38,72.75L171.97,72.75z"/><text xml:space="preserve" fill="#333f4b" stroke-width="0" x="172.68" y="76.81" font-size="3.56" opacity="1.00" font-family="Arial" font-weight="bold" font-style="italic">F24304712X</text><g id="paperID" visibility="hidden" opacity="0.00" transform="scale(0.000100)"><path style="stroke:#000000;stroke-width:0.500;fill:#e6e6e6;fill-rule:evenodd" d="M-2000.00,-2000.00L2210.00,-2000.00L2210.00,2150.00L-2000.00,2150.00zM0.00,0.00L210.00,0.00L210.00,150.00L0.00,150.00z"/><path style="fill:#000000;fill-opacity:0.118" d="M3.00,150.00L210.00,150.00L210.00,3.00L213.00,3.00L213.00,153.00L3.00,153.00z"/></g><g id="hotspot.0" onmouseover="ShowHotSpot(evt,'0')" onmouseout="HideHotSpot(evt,'0')" onmousemove="ShowToolTip(evt,'0',&quot;F24304707X&quot;)" opacity="0"><path style="fill:#00ff00;fill-rule:evenodd" d="M78.72,34.70L79.38,34.73L80.23,34.25L80.63,33.39L154.41,76.01L154.40,76.90L153.51,77.60L153.58,78.07L157.71,80.45L158.53,81.70L158.53,94.73L157.13,95.69L156.73,95.66L151.53,92.53L151.30,93.70L148.61,95.44L148.20,95.40L141.20,91.26L141.20,90.33L143.19,89.20L143.30,87.88L140.17,86.08L139.83,86.08L96.42,111.15L95.66,111.27L95.47,109.31L95.18,109.32L94.36,111.69L93.93,111.71L79.39,103.23L79.46,101.93L80.01,100.41L80.50,99.87L80.70,99.30L83.11,97.84L82.59,97.45L81.70,97.45L78.11,99.55L77.38,101.96L76.92,101.87L40.23,80.67L36.33,83.08L32.62,85.57L31.08,86.39L30.42,86.39L29.35,86.65L27.53,85.56L27.55,85.19L28.36,83.85L28.33,83.28L26.50,82.21L26.50,81.54L27.56,77.64L28.06,77.55L30.68,79.11L30.37,81.46L31.32,81.44L37.12,77.68L37.75,75.98L38.38,75.57L38.93,74.57L40.74,73.43L40.21,72.89L39.61,72.90L36.09,75.09L35.28,77.41L34.52,77.34L20.24,69.14L20.31,67.58L20.77,65.97L68.54,38.32L68.88,31.17L70.34,30.28L70.95,30.28zM198.58,72.90L198.48,78.62L171.93,78.62L171.85,72.66L198.32,72.64zM75.36,53.33L75.36,53.61L45.37,70.97L45.06,69.81L74.58,52.78zM121.59,75.63L87.74,95.24L87.38,94.12L120.46,74.97L121.06,74.96zM31.16,84.56L31.11,84.81L30.39,84.85L29.86,84.53L29.78,84.03L30.38,84.00z"/></g></g></svg>
