<?xml version="1.0" encoding="UTF-8" standalone="no"?>
<svg xmlns="http://www.w3.org/2000/svg" xmlns:xlink="http://www.w3.org/1999/xlink" width="210.000mm" height="150.000mm" viewBox="0.000000 0.000000 210.000000 150.000000" stroke-linejoin="round" stroke-linecap="round" fill="none" fill-rule="evenodd"><desc>Composer Export</desc><script type="text/ecmascript"><![CDATA[
if(typeof(top) != "undefined")
{
	top.ShowPaper = ShowPaper;
}
function ShowHotSpot(evt,hotspotid)
{
	var svgDocument = evt.target.ownerDocument;
	var strId = "hotspot."+hotspotid;
	var hotspot = svgDocument.getElementById(strId);
	if(hotspot)
		hotspot.setAttribute("opacity",".5");
}
function HideHotSpot(evt,hotspotid)
{
	var svgDocument = evt.target.ownerDocument;
	var strId = "hotspot."+hotspotid;
	var hotspot = svgDocument.getElementById(strId);
	if(hotspot)
		hotspot.setAttribute("opacity","0");

	var toolTip = svgDocument.getElementById('ToolTip');
	if(toolTip)
		toolTip.setAttribute("visibility","hidden");
}
function ShowToolTip(evt,hotspotid,strTooltip)
{
	if(strTooltip=="")
	return;

	// change text
	var svgDocument = evt.target.ownerDocument;
	var tiptext = svgDocument.getElementById('ToolTipText');
	if( !tiptext )
	return;
	tiptext.firstChild.nodeValue = " " + strTooltip + "  " ;

	// show tooltip before, else some refresh issue

	var toolTip = svgDocument.getElementById('ToolTip');
	if(!toolTip)
	return;

	toolTip.setAttribute("visibility","visible");
	toolTip.setAttribute("opacity",".95");

	// move tooltip
	// get viewbox

	var root = svgDocument.documentElement;
	var vbox = (root.getAttribute("viewBox")).split(' ');
	var x0 = parseFloat(vbox[0]);
	var y0 = parseFloat(vbox[1]);
	var vboxW = parseFloat(vbox[2]);
	var vboxH = parseFloat(vbox[3]);

	// get default width of svg

	var strW = root.getAttribute("width");
	var svgW = parseFloat(strW);
	if(strW.indexOf('mm') != -1)
	svgW *= 3.779;

	var strH = root.getAttribute("height");
	var svgH = parseFloat(strH);
	if(strH.indexOf('mm') != -1)
	svgH *= 3.779;  	// 96 dpi  -> 96/25.4 = 3.779

	// update the viewbox / width / height if svg is embedded in html with zoom fit all
	var realx0 = x0;
	var realy0 = y0;
	var realvboxW = vboxW;
	var realvboxH = vboxH;
	var realsvgW = svgW;
	var realsvgH = svgH;

	if ((typeof(top) == "undefined") || (typeof(top.svgctl1) != "undefined")) // embedded in html
	{
		// get window size in pxl

		svgW = window.innerWidth;
		svgH = window.innerHeight;

		// calculate real viewbox

		realsvgW = svgW;
		realsvgH = svgH;
		if((svgW / svgH) > (vboxW / vboxH))
		{
			realvboxW = (vboxH * svgW) / svgH;
			realvboxH = vboxH;
			realx0 = x0 - (realvboxW - vboxW)/2 ;
		}
		else
		{
			realvboxH = (vboxW * svgH) / svgW;
			realvboxW = vboxW;
			realy0 = y0 - (realvboxH - vboxH)/2 ;
		}
	}

	// get user zoom/pan

	var newScale = root.currentScale;
	var translation = root.currentTranslate;

	// transform pxl to user unit

	var xPos = (((evt.clientX+10- translation.x)/newScale) * realvboxW)/realsvgW  + realx0 ;
	var yPos = (((evt.clientY+5- translation.y)/newScale) * realvboxH)/ realsvgH  + realy0 ;
	var scaleForWidth = ( (1 / newScale) * realvboxH) / realsvgH;

	// move tooltip

	toolTip.setAttribute("transform", "translate(" + xPos + "," + yPos + ")" );

	// resize tooltip

	var fontsize = 12;
	tiptext.setAttribute("font-size",fontsize*scaleForWidth);
	tiptext.setAttribute("y", fontsize*scaleForWidth);
	var tipBG = svgDocument.getElementById('ToolTipBG');
	var outline = tiptext.getBBox();
	if(tipBG)
	{
		tipBG.setAttribute("stroke-width", 1*scaleForWidth);
		tipBG.setAttribute("width", Number(outline.width) );
		tipBG.setAttribute("height", Number(outline.height) + fontsize*.5*scaleForWidth );
	}
	var ToolTipShadow = svgDocument.getElementById('ToolTipShadow');
	if(ToolTipShadow)
	{
		ToolTipShadow.setAttribute("width", Number(outline.width) );
		ToolTipShadow.setAttribute("height", Number(outline.height) + fontsize*.5*scaleForWidth );
		ToolTipShadow.setAttribute("x", 3*scaleForWidth);
		ToolTipShadow.setAttribute("y", 3*scaleForWidth);
	}
}
function ShowPaper()
{
  var svgDocument = getDocument();
  var paper = svgDocument.getElementById("paperID");
  if(paper)
  {
    paper.setAttribute("transform","scale(1)");
    paper.setAttribute("opacity","1");
    paper.setAttribute("visibility","visible");
  }
  var svg = svgDocument.getRootElement();
  if(svg)
  {
    svg.setAttribute("width","220.000mm");
    svg.setAttribute("height","160.000mm");
    svg.setAttribute("viewBox","-5.000000 -5.000000 220.000000 160.000000");
  }
}
]]></script><defs/><g><path style="fill:#ffffff" d="M209.93,149.99L0.04,149.99L0.04,0.04L209.93,0.04z"/><path style="fill:#8aa7bf" d="M65.47,82.03L66.11,82.53L66.63,83.15L67.12,84.05L67.12,86.89L66.83,87.36L66.43,87.72L66.10,88.79L65.73,89.30L64.55,89.89L63.82,89.88L63.18,89.77L62.18,89.12L61.03,87.86L60.27,86.59L59.89,85.45L59.77,84.82L59.77,83.84L59.89,83.20L60.23,82.53L61.49,81.77L62.44,81.77L62.67,81.91L63.28,81.91L63.52,81.77L64.71,81.77z"/><path style="fill:#8aa7bf" d="M65.72,106.35L66.37,106.98L67.12,108.12L67.12,111.09L66.49,111.86L66.10,112.86L65.61,113.51L64.42,114.10L63.43,113.97L62.06,113.19L61.04,112.05L60.14,110.41L59.77,108.89L59.77,108.30L59.98,107.12L60.41,106.54L61.37,105.97L62.56,105.97L63.15,106.12L63.39,105.97L64.97,105.97z"/><path style="fill:#2ac7ce" d="M52.16,85.20L52.16,123.88L48.32,126.14L47.98,126.14L40.22,121.60L40.13,105.47L40.13,82.83L44.01,80.62L44.31,80.62z"/><path style="fill:#01ff02" d="M63.17,85.08L63.70,85.83L63.84,86.63L63.65,86.97L62.94,86.97L62.31,86.33L62.17,85.96L62.17,84.85L62.81,84.81z"/><path style="fill:#01ff02" d="M50.65,88.73L50.65,89.43L50.09,90.13L49.50,90.14L49.49,89.28L50.00,88.65L50.41,88.49z"/><path style="fill:#01ff02" d="M44.94,96.47L45.20,97.24L45.03,97.74L44.30,97.75L43.81,97.35L43.41,96.48L43.41,96.00L43.62,95.57L44.19,95.58z"/><path style="fill:#01ff02" d="M50.64,100.40L50.65,101.21L50.09,101.92L49.50,101.93L49.49,101.07L49.96,100.39L50.39,100.26z"/><path style="fill:#01ff02" d="M63.33,109.38L63.83,110.41L63.84,110.84L63.53,111.19L63.19,111.19L62.44,110.66L62.17,110.16L62.17,109.06L62.39,108.88L62.68,108.88z"/><path style="fill:#01ff02" d="M50.66,118.13L50.65,118.82L50.09,119.53L49.50,119.54L49.49,118.68L50.09,118.00L50.53,118.00z"/><path style="fill:#01ff02" d="M44.44,119.91L45.07,120.93L45.21,121.60L45.02,121.94L44.42,121.95L43.68,121.30L43.54,121.07L43.41,120.21L43.62,119.77L44.19,119.78z"/><path style="fill:#8aa7bf" d="M127.56,88.74L128.07,89.12L128.20,89.79L127.82,90.81L127.02,91.54L126.30,91.52L117.17,86.20L117.05,86.08L117.04,84.85L117.50,84.17L118.13,83.67L118.82,83.67z"/><path style="fill:#8aa7bf" d="M127.56,100.53L128.07,100.91L128.20,101.58L127.94,102.34L127.38,103.05L126.89,103.33L126.42,103.33L117.18,97.99L117.04,97.87L117.04,96.63L117.56,95.76L118.13,95.45L118.82,95.45z"/><path style="fill:#999999" d="M83.47,70.11L84.86,71.00L85.63,71.88L86.38,73.16L86.88,74.68L86.89,76.12L86.76,76.49L86.26,77.26L84.31,78.23L83.67,78.72L82.66,79.11L82.40,79.49L81.68,79.78L81.19,80.05L80.29,80.67L79.62,80.89L78.39,80.89L77.39,80.37L76.76,79.86L75.48,77.98L75.09,76.97L74.97,76.07L74.97,75.10L75.09,74.46L75.60,73.82L77.20,72.89L78.28,72.32L78.99,71.89L79.53,71.67L79.74,71.38L80.82,70.94L81.69,70.28L82.02,70.11L82.84,70.00z"/><path style="fill:#999999" d="M84.48,94.83L85.38,95.70L86.38,97.23L86.88,98.75L86.89,100.32L86.76,100.70L86.27,101.34L84.68,102.30L84.04,102.42L83.74,102.87L82.78,103.18L82.34,103.63L81.52,103.95L81.13,104.32L80.26,104.84L79.50,105.09L78.77,105.09L77.64,104.70L76.63,103.81L75.73,102.56L75.09,101.04L74.93,99.52L75.09,98.66L75.69,97.87L77.01,97.16L77.72,96.72L78.29,96.53L78.86,96.09L79.55,95.77L80.13,95.33L80.81,95.01L82.15,94.19L83.21,94.19z"/><path style="fill:#2ac7ce" d="M48.62,15.87L48.87,16.01L50.41,17.01L50.77,17.78L55.71,43.25L55.67,65.17L35.94,76.62L35.56,76.72L32.99,75.23L32.99,62.64L35.95,60.88L35.96,60.74L35.79,60.72L34.50,61.50L34.17,61.51L33.03,60.86L32.99,33.88L35.77,32.22L36.11,31.80L36.33,31.52L36.49,29.63L36.46,29.56L36.19,30.11L36.11,31.80L34.55,32.65L34.17,32.75L33.03,32.10L33.02,25.55L34.26,23.36L47.05,16.01L47.85,15.75z"/><path style="fill:#2ac7ce" d="M145.69,71.88L147.45,73.04L147.84,73.91L152.77,99.52L152.79,121.11L138.28,129.54L137.82,129.55L135.42,128.15L135.41,78.38L136.69,76.25L143.74,72.15L144.91,71.76z"/><path style="fill:#f2f2f2" d="M97.53,21.45L105.51,26.02L106.03,26.39L107.92,28.17L109.32,31.34L109.69,34.51L109.81,62.14L110.45,64.55L110.96,66.95L110.96,92.84L109.53,93.70L109.20,93.69L108.19,93.05L98.51,98.63L97.90,98.64L90.31,94.19L90.19,60.47L83.30,56.47L83.22,50.59L82.70,50.22L77.64,47.31L77.64,33.29L83.08,27.07L94.19,20.69L95.00,20.69z"/><path style="fill:#ffffff" d="M36.49,29.63L36.33,31.52L36.11,31.80L36.19,30.11L36.46,29.56z"/><path style="fill:#ffffff" d="M43.03,35.18L42.62,36.03L42.03,36.72L42.02,35.94L42.60,35.00L43.16,34.74z"/><path style="fill:#ffffff" d="M50.40,45.82L50.01,46.35L50.00,46.09L50.34,45.52L50.40,45.54z"/><path style="fill:#ffffff" d="M43.03,46.96L42.62,47.82L42.03,48.50L42.02,47.72L42.54,46.85L43.02,46.53L43.16,46.53z"/><path style="fill:#ffffff" d="M50.41,57.61L50.13,57.87L50.12,57.62L50.35,57.30L50.40,57.32z"/><path style="fill:#ffffff" d="M36.45,59.76L36.32,60.28L36.32,58.47L36.46,58.33z"/><path style="fill:#ffffff" d="M43.20,64.22L42.79,65.21L42.03,66.12L42.02,65.46L42.54,64.46L43.01,64.14z"/><path style="fill:#ffffff" d="M83.59,71.63L84.36,72.39L85.24,73.66L85.74,75.19L85.75,76.00L85.61,76.24L85.24,74.55L84.35,73.03L83.48,72.13L82.70,71.51L82.02,71.12L82.58,71.13z"/><path style="fill:#ffffff" d="M82.45,72.27L83.35,73.02L84.11,74.03L84.60,75.06L84.87,76.50L84.72,76.75L84.47,76.73L84.21,76.34L83.73,74.91L83.22,74.03L81.96,72.63L81.56,72.40L81.52,71.88L81.81,71.87z"/><path style="fill:#ffffff" d="M79.74,72.77L79.89,72.51L80.04,72.51L80.06,72.94L79.91,72.93z"/><path style="fill:#ffffff" d="M81.95,73.66L82.83,74.81L83.35,75.98L82.59,75.30L81.95,74.29L81.68,73.80L81.69,73.40z"/><path style="fill:#ffffff" d="M78.78,73.45L78.61,73.45L78.61,73.28L78.78,73.28z"/><path style="fill:#ffffff" d="M80.19,74.03L80.56,75.10L80.18,74.79L79.66,74.17L79.66,73.65z"/><path style="fill:#ffffff" d="M79.17,75.68L80.17,77.46L80.29,78.40L80.05,78.36L79.17,77.20L78.64,76.21L78.34,74.94L78.39,74.92z"/><path style="fill:#ffffff" d="M77.76,75.82L78.26,77.22L78.91,78.22L80.30,79.48L80.27,79.62L79.52,79.63L78.66,78.97L78.03,78.21L77.50,77.34L77.12,76.21L77.12,74.33L77.51,74.29z"/><path style="fill:#ffffff" d="M76.07,75.57L76.24,74.79L76.36,76.20L76.62,77.09L77.25,78.35L77.39,78.77L77.27,78.74L76.49,77.34L76.23,76.59z"/><path style="fill:#ffffff" d="M82.20,77.46L82.21,78.14L81.69,77.85L81.42,76.97L81.44,76.56z"/><path style="fill:#ffffff" d="M78.02,79.36L77.85,79.40L77.90,79.24z"/><path style="fill:#ffffff" d="M139.49,90.50L139.48,90.68L139.18,91.53L138.71,92.08L138.28,92.21L138.59,91.32L139.04,90.63L139.37,90.38z"/><path style="fill:#ffffff" d="M83.08,95.46L83.84,95.97L84.61,96.84L85.24,97.74L85.74,99.26L85.75,100.32L85.63,100.30L85.24,98.75L84.73,97.74L83.98,96.71L83.34,96.09L82.15,95.33L82.71,95.33z"/><path style="fill:#ffffff" d="M81.94,96.09L83.08,96.85L83.84,97.74L84.73,99.51L84.87,100.71L84.74,100.94L84.31,100.82L83.84,99.26L83.10,97.98L82.21,96.96L81.53,96.51L81.56,95.96z"/><path style="fill:#ffffff" d="M79.77,96.77L80.17,96.72L80.18,97.14L79.78,96.97z"/><path style="fill:#ffffff" d="M78.62,97.47L78.77,97.49L78.79,97.64L78.65,97.61z"/><path style="fill:#ffffff" d="M82.33,98.24L82.96,99.13L83.35,100.19L83.09,100.02L81.95,98.49L81.82,98.37L81.63,97.62z"/><path style="fill:#ffffff" d="M80.19,98.10L80.56,99.01L80.56,99.30L79.66,98.37L79.66,97.73z"/><path style="fill:#ffffff" d="M79.04,99.63L80.17,101.54L80.30,102.60L79.54,101.91L78.89,100.91L78.51,99.90L78.39,99.00z"/><path style="fill:#ffffff" d="M77.88,100.41L78.39,101.54L79.29,102.80L80.30,103.58L80.27,103.82L79.65,103.83L79.04,103.43L78.01,102.31L77.38,101.04L77.12,100.28L77.12,98.53L77.51,98.49z"/><path style="fill:#ffffff" d="M76.36,100.28L76.61,101.30L77.01,102.17L77.38,102.69L77.65,103.22L77.39,103.06L76.49,101.54L76.23,100.79L76.24,99.00z"/><path style="fill:#ffffff" d="M82.20,101.53L82.19,102.23L81.96,102.18L81.65,101.96L81.38,100.66z"/><path style="fill:#ffffff" d="M147.21,101.58L146.82,102.10L146.80,101.84L147.22,101.29z"/><path style="fill:#ffffff" d="M139.35,102.98L138.71,103.87L138.28,104.00L138.59,103.10L139.04,102.42L139.31,102.15L139.48,102.17z"/><path style="fill:#ffffff" d="M147.11,113.39L146.82,113.89L146.80,113.63L147.03,113.32z"/><path style="fill:#ffffff" d="M139.52,119.87L139.22,120.85L138.67,121.56L138.29,121.61L138.45,120.96L139.23,119.82L139.47,119.78z"/><path style="stroke:#000000;stroke-width:0.088" d="M80.08,104.47L80.15,104.41L80.48,103.71L80.55,102.89L80.55,102.89L80.56,102.88L80.58,102.83L80.59,102.60L80.47,101.75L80.08,100.65L79.43,99.56L78.67,98.69L77.78,98.02L76.88,97.68L76.07,97.71L75.49,98.06L75.46,98.11L75.28,98.35L75.06,98.75L74.92,99.71L75.06,100.85L75.33,101.67L75.40,101.88"/><path style="stroke:#000000;stroke-width:0.088" d="M75.06,100.85L75.40,101.88L76.03,103.02L76.83,104.00L77.73,104.72L78.53,105.08L79.37,105.14L80.03,104.82L80.16,104.69L79.91,104.33L79.27,104.62L78.51,104.55L78.16,104.38L78.22,104.41"/><path style="stroke:#000000;stroke-width:0.088" d="M75.06,98.75L75.46,98.11"/><path style="stroke:#000000;stroke-width:0.088" d="M75.91,98.72L75.69,98.97L75.47,99.72L75.51,100.67L75.75,101.55L75.90,101.87L75.89,101.84"/><path style="stroke:#000000;stroke-width:0.088" d="M75.90,101.87L76.24,102.57L76.91,103.47L76.91,103.47"/><path style="stroke:#000000;stroke-width:0.088" d="M77.23,103.73L76.68,103.09L76.21,102.35L75.85,101.54L75.63,100.72"/><path style="stroke:#000000;stroke-width:0.088" d="M75.63,100.73L75.56,99.96L75.64,99.32"/><path style="stroke:#000000;stroke-width:0.088" d="M75.64,99.32L75.84,98.83"/><path style="stroke:#000000;stroke-width:0.088" d="M76.35,98.42L76.08,98.55L75.90,98.73L76.14,98.47L76.79,98.30L77.56,98.46L78.29,98.89L79.07,99.63L79.74,100.59L80.24,101.70L80.47,102.61L80.53,102.85L80.54,102.88L80.55,102.89"/><path style="stroke:#000000;stroke-width:0.088" d="M76.10,98.54L75.80,98.87L75.81,98.87"/><path style="stroke:#000000;stroke-width:0.088" d="M75.49,98.06L75.55,98.00L75.71,97.87L76.33,97.59"/><path style="stroke:#000000;stroke-width:0.088" d="M75.66,97.91L76.07,97.71L76.23,97.65"/><path style="stroke:#000000;stroke-width:0.088" d="M76.24,102.57L76.24,102.57"/><path style="stroke:#000000;stroke-width:0.088" d="M77.92,103.55L77.36,102.95L76.86,102.23L76.47,101.43L76.22,100.63"/><path style="stroke:#000000;stroke-width:0.088" d="M79.13,104.25L78.34,103.72L77.57,102.88L77.02,101.96L76.57,100.81L76.48,100.46L76.37,99.31L76.55,98.36"/><path style="stroke:#000000;stroke-width:0.088" d="M76.33,98.60L76.26,99.25L76.34,100.16L76.59,101.12L76.98,102.04L77.49,102.88L77.73,103.19L78.35,103.84L78.37,103.86L78.64,104.05"/><path style="stroke:#000000;stroke-width:0.088" d="M76.22,100.64L76.11,99.86L76.15,99.16"/><path style="stroke:#000000;stroke-width:0.088" d="M76.14,99.18L76.32,98.62"/><path style="stroke:#000000;stroke-width:0.088" d="M76.72,98.32L76.86,98.31"/><path style="stroke:#000000;stroke-width:0.088" d="M76.31,98.64L76.51,98.37"/><path style="stroke:#000000;stroke-width:0.088" d="M81.63,101.67L81.62,101.64L81.35,100.75L80.92,99.86L80.35,99.03L79.70,98.32L79.68,98.31L78.96,97.76L78.23,97.40L78.19,97.38L77.47,97.23L77.42,97.23L76.72,97.32L76.66,97.35L76.13,97.66L76.08,97.70L76.07,97.71"/><path style="stroke:#000000;stroke-width:0.088" d="M76.33,97.59L76.39,97.58L77.06,97.56L77.11,97.56L77.83,97.76L77.87,97.78L78.61,98.19L79.35,98.82L79.98,99.56L80.50,100.40L80.89,101.29L81.13,102.17L81.13,102.20"/><path style="stroke:#000000;stroke-width:0.088" d="M76.91,103.47L77.70,104.15L78.16,104.38L77.79,104.20L77.21,103.71"/><path style="stroke:#000000;stroke-width:0.088" d="M78.84,103.27L78.30,102.70L77.81,101.99L77.42,101.19L77.13,100.26"/><path style="stroke:#000000;stroke-width:0.088" d="M77.06,98.74L77.02,99.46L77.13,100.27"/><path style="stroke:#000000;stroke-width:0.088" d="M77.06,98.76L77.17,98.38"/><path style="stroke:#000000;stroke-width:0.088" d="M77.57,98.46L77.10,98.36"/><path style="stroke:#000000;stroke-width:0.088" d="M76.79,98.30L76.79,98.30"/><path style="stroke:#000000;stroke-width:0.088" d="M77.67,96.76L77.11,97.10L77.06,97.13L76.94,97.29"/><path style="stroke:#000000;stroke-width:0.088" d="M79.03,104.24L79.04,104.24L78.49,103.98L77.90,103.54"/><path style="stroke:#000000;stroke-width:0.088" d="M77.71,98.54L77.69,99.13L77.89,100.15L78.36,101.30L79.03,102.33L79.26,102.60L80.06,103.29L80.37,103.45"/><path style="stroke:#000000;stroke-width:0.088" d="M77.58,98.47L77.56,98.73L77.69,99.68L77.96,100.57L78.37,101.47L78.91,102.29L79.52,102.97L80.20,103.51L80.35,103.58"/><path style="stroke:#000000;stroke-width:0.088" d="M78.25,98.86L78.47,99.06"/><path style="stroke:#000000;stroke-width:0.088" d="M80.58,104.60L80.91,104.48L80.97,104.46L81.02,104.42L81.40,104.03L81.44,103.98L81.46,103.93L81.59,103.61L82.03,103.35L82.15,103.18L82.38,102.45L82.36,101.62L82.06,100.54L81.49,99.45L81.28,99.14L80.47,98.22L79.67,97.62L78.72,97.22L77.83,97.18L77.59,97.24L77.58,97.25"/><path style="stroke:#000000;stroke-width:0.088" d="M78.02,96.66L77.72,96.74L77.67,96.76"/><path style="stroke:#000000;stroke-width:0.088" d="M78.02,96.66L78.08,96.65L78.79,96.64L78.84,96.65L79.61,96.87L79.65,96.89L80.41,97.32L81.15,97.94L81.80,98.68L82.11,99.14L82.58,100.01L82.89,100.89"/><path style="stroke:#000000;stroke-width:0.088" d="M78.37,97.38L78.25,97.41"/><path style="stroke:#000000;stroke-width:0.088" d="M84.16,100.04L83.83,99.16L83.35,98.29L82.75,97.51L82.03,96.82L81.28,96.30L80.72,96.05L80.68,96.03L79.93,95.87L79.88,95.87L79.19,95.94L79.13,95.95L79.08,95.97L78.55,96.23L78.50,96.27L78.15,96.65"/><path style="stroke:#000000;stroke-width:0.088" d="M78.59,104.56L78.47,104.53"/><path style="stroke:#000000;stroke-width:0.088" d="M79.04,104.24L79.04,104.24L79.51,104.30"/><path style="stroke:#000000;stroke-width:0.088" d="M79.84,103.86L79.40,103.67L78.83,103.26L78.83,103.26"/><path style="stroke:#000000;stroke-width:0.088" d="M80.03,102.42L79.50,101.82L79.02,101.08L78.65,100.27L78.41,99.45"/><path style="stroke:#000000;stroke-width:0.088" d="M78.41,99.47L78.35,98.95"/><path style="stroke:#000000;stroke-width:0.088" d="M78.98,99.54L79.13,99.70"/><path style="stroke:#000000;stroke-width:0.088" d="M78.29,98.89L78.30,98.89"/><path style="stroke:#000000;stroke-width:0.088" d="M79.01,97.47L79.00,97.79"/><path style="stroke:#000000;stroke-width:0.088" d="M78.86,97.71L78.89,97.43"/><path style="stroke:#000000;stroke-width:0.088" d="M78.51,97.53L78.56,97.40"/><path style="stroke:#000000;stroke-width:0.088" d="M80.42,98.30L79.78,97.81L79.55,97.68L78.89,97.42"/><path style="stroke:#000000;stroke-width:0.088" d="M78.31,97.37L78.31,97.37L78.93,97.44"/><path style="stroke:#000000;stroke-width:0.088" d="M78.66,96.64L78.84,96.51L79.55,96.40L80.46,96.61L80.75,96.75L81.69,97.40L82.52,98.31L83.10,99.23L83.53,100.31L83.61,100.64L83.69,101.62L83.47,102.39L83.08,102.80L82.89,102.85"/><path style="stroke:#000000;stroke-width:0.088" d="M79.53,105.06L79.55,105.06L79.61,105.05L80.18,104.90"/><path style="stroke:#000000;stroke-width:0.088" d="M79.32,104.60L79.26,104.62"/><path style="stroke:#000000;stroke-width:0.088" d="M79.88,104.20L79.46,104.31"/><path style="stroke:#000000;stroke-width:0.088" d="M79.91,100.97L79.65,100.47"/><path style="stroke:#000000;stroke-width:0.088" d="M79.32,99.98L79.33,100.01L79.77,100.89L80.07,101.32"/><path style="stroke:#000000;stroke-width:0.088" d="M79.34,100.02L79.77,100.65"/><path style="stroke:#000000;stroke-width:0.088" d="M79.64,98.28L79.64,98.24L79.63,97.73"/><path style="stroke:#000000;stroke-width:0.088" d="M79.21,96.75L79.39,96.67"/><path style="stroke:#000000;stroke-width:0.088" d="M79.90,96.63L79.34,96.67L79.34,96.67"/><path style="stroke:#000000;stroke-width:0.088" d="M79.75,96.95L79.85,96.64L79.84,96.65"/><path style="stroke:#000000;stroke-width:0.088" d="M79.70,95.61L79.44,95.91"/><path style="stroke:#000000;stroke-width:0.088" d="M80.26,95.26L79.76,95.55L79.72,95.58"/><path style="stroke:#000000;stroke-width:0.088" d="M80.16,104.69L80.14,104.58L80.09,104.48L80.01,104.39L79.91,104.33"/><path style="stroke:#000000;stroke-width:0.088" d="M81.20,103.05L81.08,103.81L80.77,104.42L80.73,104.47L80.29,104.84L80.24,104.88L80.19,104.90"/><path style="stroke:#000000;stroke-width:0.088" d="M79.83,103.86L79.83,103.86L80.19,103.90"/><path style="stroke:#000000;stroke-width:0.088" d="M80.38,102.30L80.44,103.01L80.34,103.63L80.35,103.63"/><path style="stroke:#000000;stroke-width:0.088" d="M80.35,103.57L80.15,103.99L80.15,103.99"/><path style="stroke:#000000;stroke-width:0.088" d="M80.16,103.97L79.83,104.25L79.83,104.25"/><path style="stroke:#000000;stroke-width:0.088" d="M80.01,102.40L80.42,102.72"/><path style="stroke:#000000;stroke-width:0.088" d="M80.47,102.61L80.47,102.61"/><path style="stroke:#000000;stroke-width:0.088" d="M80.39,102.32L80.17,101.55"/><path style="stroke:#000000;stroke-width:0.088" d="M80.41,98.29L80.70,99.25L80.87,99.63L81.51,100.68L82.23,101.45"/><path style="stroke:#000000;stroke-width:0.088" d="M82.25,101.57L81.83,101.18L81.25,100.43L80.76,99.57L80.41,98.65L80.31,98.21"/><path style="stroke:#000000;stroke-width:0.088" d="M80.42,98.29L81.02,98.92L81.54,99.65L81.93,100.43L82.19,101.20"/><path style="stroke:#000000;stroke-width:0.088" d="M80.29,97.25L80.27,96.95L80.20,96.89L80.16,96.82L80.18,96.70L80.17,96.75"/><path style="stroke:#000000;stroke-width:0.088" d="M80.82,96.93L80.78,96.96L80.68,96.99L80.55,97.01L80.50,97.01L80.38,96.99L80.28,96.95L80.27,96.95L80.31,96.73"/><path style="stroke:#000000;stroke-width:0.088" d="M80.18,97.19L80.16,96.83"/><path style="stroke:#000000;stroke-width:0.088" d="M79.87,96.63L80.50,96.77"/><path style="stroke:#000000;stroke-width:0.088" d="M80.47,96.76L81.05,97.04L81.69,97.52"/><path style="stroke:#000000;stroke-width:0.088" d="M80.49,95.99L80.52,95.97"/><path style="stroke:#000000;stroke-width:0.088" d="M80.49,95.98L80.99,95.88"/><path style="stroke:#000000;stroke-width:0.088" d="M84.35,98.39L83.65,97.35L83.40,97.06L82.52,96.28L81.70,95.84L80.78,95.65L79.97,95.84L79.92,95.87"/><path style="stroke:#000000;stroke-width:0.088" d="M83.61,96.33L83.69,96.39L82.98,95.80L82.22,95.38L81.83,95.24L81.10,95.12L81.04,95.11L80.31,95.24L80.26,95.26"/><path style="stroke:#000000;stroke-width:0.088" d="M81.20,103.04L81.13,102.21"/><path style="stroke:#000000;stroke-width:0.088" d="M81.17,102.70L81.20,102.71L81.32,102.73L81.44,102.73L81.56,102.70L81.65,102.65L81.71,102.59L81.74,102.52L81.74,102.49L81.63,101.69"/><path style="stroke:#000000;stroke-width:0.088" d="M81.00,97.81L80.94,97.57L80.92,96.98"/><path style="stroke:#000000;stroke-width:0.088" d="M81.89,96.06L81.56,95.94L80.93,95.87L80.93,95.87"/><path style="stroke:#000000;stroke-width:0.088" d="M81.13,95.89L81.01,96.17L81.01,96.17"/><path style="stroke:#000000;stroke-width:0.088" d="M81.01,96.18L81.01,96.17L81.01,96.18"/><path style="stroke:#000000;stroke-width:0.088" d="M81.28,95.15L81.55,95.01L82.39,95.04L83.28,95.43L84.17,96.15L84.94,97.11L85.52,98.21L85.85,99.32L85.89,99.59L85.86,100.54L85.55,101.27L85.53,101.28"/><path style="stroke:#000000;stroke-width:0.088" d="M81.75,94.48L81.12,94.74L81.07,94.78L80.68,95.18"/><path style="stroke:#000000;stroke-width:0.088" d="M81.69,103.91L81.75,103.90L82.25,103.71L82.31,103.68L82.36,103.65L82.73,103.23L82.76,103.19L82.79,103.14L83.00,102.54L83.00,102.49L83.04,101.75L83.01,101.62"/><path style="stroke:#000000;stroke-width:0.088" d="M81.47,103.90L81.68,103.91"/><path style="stroke:#000000;stroke-width:0.088" d="M81.59,103.61L81.69,103.35L81.69,103.30L81.74,102.52"/><path style="stroke:#000000;stroke-width:0.088" d="M82.06,102.85L81.73,102.72"/><path style="stroke:#000000;stroke-width:0.088" d="M81.72,102.87L81.95,102.97"/><path style="stroke:#000000;stroke-width:0.088" d="M82.25,102.39L82.08,102.86"/><path style="stroke:#000000;stroke-width:0.088" d="M82.10,102.81L81.84,103.09"/><path style="stroke:#000000;stroke-width:0.088" d="M81.87,103.05L81.70,103.11"/><path style="stroke:#000000;stroke-width:0.088" d="M82.26,102.28L82.04,102.20L82.04,102.21"/><path style="stroke:#000000;stroke-width:0.088" d="M81.67,101.94L82.08,102.22"/><path style="stroke:#000000;stroke-width:0.088" d="M83.22,100.41L82.66,99.79L82.17,99.04L81.79,98.24L81.55,97.44"/><path style="stroke:#000000;stroke-width:0.088" d="M83.42,100.24L83.22,100.09L82.48,99.23L82.04,98.50L81.99,98.40L81.89,98.44"/><path style="stroke:#000000;stroke-width:0.088" d="M81.88,98.43L81.99,98.40"/><path style="stroke:#000000;stroke-width:0.088" d="M81.68,97.51L82.29,98.13L82.53,98.45L83.01,99.20L83.35,99.99L83.55,100.74"/><path style="stroke:#000000;stroke-width:0.088" d="M81.56,97.45L81.55,97.41"/><path style="stroke:#000000;stroke-width:0.088" d="M81.89,96.06L82.56,96.43L83.13,96.90"/><path style="stroke:#000000;stroke-width:0.088" d="M81.48,96.44L81.51,96.00"/><path style="stroke:#000000;stroke-width:0.088" d="M81.54,95.94L81.51,96.02"/><path style="stroke:#000000;stroke-width:0.088" d="M81.88,95.25L81.90,95.23L81.86,95.25"/><path style="stroke:#000000;stroke-width:0.088" d="M81.90,95.23L81.92,95.23"/><path style="stroke:#000000;stroke-width:0.088" d="M82.41,95.22L81.88,95.23"/><path style="stroke:#000000;stroke-width:0.088" d="M83.51,94.27L83.51,94.27L83.40,94.24L83.23,94.19L82.90,94.14L82.84,94.14L82.19,94.20L82.13,94.21L82.07,94.23L81.53,94.53L81.48,94.56L81.44,94.61"/><path style="stroke:#000000;stroke-width:0.088" d="M81.76,94.48L81.82,94.47L82.49,94.47L82.55,94.48L83.27,94.70L83.31,94.72L84.05,95.16L84.76,95.79L85.39,96.54L85.90,97.39L86.28,98.28L86.50,99.16L86.50,99.19L86.55,100.03L86.41,100.79L86.39,100.84L86.08,101.38L86.05,101.43L85.54,101.81L85.49,101.83L85.19,101.90"/><path style="stroke:#000000;stroke-width:0.088" d="M82.95,103.16L82.78,103.15"/><path style="stroke:#000000;stroke-width:0.088" d="M82.25,102.42L82.28,101.79L82.19,101.19"/><path style="stroke:#000000;stroke-width:0.088" d="M82.91,101.00L83.09,101.17L83.57,101.43"/><path style="stroke:#000000;stroke-width:0.088" d="M83.03,101.72L83.04,101.75L82.89,100.88"/><path style="stroke:#000000;stroke-width:0.088" d="M82.97,95.40L82.39,95.22"/><path style="stroke:#000000;stroke-width:0.088" d="M82.97,103.16L83.02,103.15L83.53,102.97L83.59,102.94L83.64,102.91L84.01,102.50L84.05,102.45L84.10,102.37L84.12,102.32L84.31,101.71L84.31,101.66L84.33,100.90L84.25,100.52L84.33,100.90L84.32,100.87"/><path style="stroke:#000000;stroke-width:0.088" d="M83.03,101.99L83.09,102.04L83.35,102.10"/><path style="stroke:#000000;stroke-width:0.088" d="M83.02,102.12L83.15,102.20L83.20,102.22L83.24,102.23"/><path style="stroke:#000000;stroke-width:0.088" d="M83.26,102.25L83.48,101.88"/><path style="stroke:#000000;stroke-width:0.088" d="M83.01,102.38L83.29,102.20"/><path style="stroke:#000000;stroke-width:0.088" d="M83.01,102.37L83.03,102.37"/><path style="stroke:#000000;stroke-width:0.088" d="M83.58,101.38L83.54,100.72"/><path style="stroke:#000000;stroke-width:0.088" d="M83.48,101.89L83.48,101.90L83.58,101.38"/><path style="stroke:#000000;stroke-width:0.088" d="M83.43,101.50L83.55,101.54"/><path style="stroke:#000000;stroke-width:0.088" d="M82.94,101.18L83.46,101.51"/><path style="stroke:#000000;stroke-width:0.088" d="M82.93,101.14L83.18,101.33"/><path style="stroke:#000000;stroke-width:0.088" d="M83.52,100.64L83.20,100.39L83.20,100.39"/><path style="stroke:#000000;stroke-width:0.088" d="M84.83,99.90L84.61,99.14L84.25,98.35L83.77,97.61L83.18,96.95"/><path style="stroke:#000000;stroke-width:0.088" d="M82.96,95.39L83.60,95.77L84.20,96.29L84.76,96.96L85.22,97.72L85.56,98.51L85.76,99.30"/><path style="stroke:#000000;stroke-width:0.088" d="M83.67,94.36L83.62,94.33L84.42,94.76L85.31,95.56"/><path style="stroke:#000000;stroke-width:0.088" d="M83.62,94.33L83.58,94.31"/><path style="stroke:#000000;stroke-width:0.088" d="M84.29,94.68L83.51,94.27"/><path style="stroke:#000000;stroke-width:0.088" d="M84.19,102.09L84.42,102.02L84.84,101.49L84.92,101.27L84.99,100.40L84.81,99.49L84.35,98.39"/><path style="stroke:#000000;stroke-width:0.088" d="M85.04,102.07L84.58,102.34L84.52,102.36L84.47,102.37L84.08,102.40"/><path style="stroke:#000000;stroke-width:0.088" d="M84.32,101.62L84.57,101.47"/><path style="stroke:#000000;stroke-width:0.088" d="M84.82,100.98L84.31,100.80"/><path style="stroke:#000000;stroke-width:0.088" d="M84.16,100.03L84.25,100.52L84.19,100.22"/><path style="stroke:#000000;stroke-width:0.088" d="M84.75,101.19L84.33,101.12"/><path style="stroke:#000000;stroke-width:0.088" d="M84.32,101.11L84.35,101.12"/><path style="stroke:#000000;stroke-width:0.088" d="M85.53,101.30L85.64,100.57L85.64,100.52L85.57,99.77L85.56,99.73L85.32,98.88L84.92,98.00L84.38,97.16L83.73,96.43"/><path style="stroke:#000000;stroke-width:0.088" d="M83.72,96.42L83.69,96.39L83.72,96.41"/><path style="stroke:#000000;stroke-width:0.088" d="M85.53,101.30L85.47,101.45L85.45,101.50L85.13,101.98L85.09,102.03L85.05,102.06"/><path style="stroke:#000000;stroke-width:0.088" d="M84.78,101.14L84.54,101.52"/><path style="stroke:#000000;stroke-width:0.088" d="M84.82,99.88L84.88,100.55L84.79,101.13L84.79,101.13"/><path style="stroke:#000000;stroke-width:0.088" d="M84.77,101.18L84.80,101.08"/><path style="stroke:#000000;stroke-width:0.088" d="M86.74,100.78L86.31,101.34L86.09,101.46L85.90,101.53"/><path style="stroke:#000000;stroke-width:0.088" d="M85.79,99.99L85.69,100.55L85.69,100.54"/><path style="stroke:#000000;stroke-width:0.088" d="M85.63,100.65L85.69,100.53"/><path style="stroke:#000000;stroke-width:0.088" d="M85.75,99.27L85.79,99.99"/><path style="stroke:#000000;stroke-width:0.088" d="M86.04,96.55L86.07,96.59L85.31,95.56"/><path style="stroke:#000000;stroke-width:0.088" d="M86.74,100.78L86.84,100.44L86.97,99.89L86.91,98.79L86.57,97.61L86.07,96.59"/><path style="stroke:#000000;stroke-width:0.088" d="M80.06,76.49L79.42,75.41L78.66,74.54L77.76,73.87L76.86,73.53L76.05,73.56L75.47,73.91L75.05,74.60L74.90,75.56L75.04,76.70L75.39,77.73L76.02,78.87L76.82,79.85L77.72,80.57L78.52,80.93L79.35,80.99L80.02,80.67L80.15,80.54L79.90,80.18L79.31,80.45L79.25,80.47"/><path style="stroke:#000000;stroke-width:0.088" d="M75.04,76.70L75.31,77.52L75.39,77.73"/><path style="stroke:#000000;stroke-width:0.088" d="M75.05,74.60L75.26,74.20L75.44,73.96"/><path style="stroke:#000000;stroke-width:0.088" d="M76.33,74.27L76.06,74.40L75.89,74.58L75.67,74.82L75.45,75.58L75.49,76.52L75.73,77.41L75.89,77.72L75.87,77.69"/><path style="stroke:#000000;stroke-width:0.088" d="M75.89,77.72L76.23,78.42L76.90,79.32L76.90,79.32"/><path style="stroke:#000000;stroke-width:0.088" d="M77.21,79.58L76.67,78.94L76.20,78.20L75.84,77.39L75.62,76.57"/><path style="stroke:#000000;stroke-width:0.088" d="M75.62,76.58L75.55,75.81L75.63,75.17"/><path style="stroke:#000000;stroke-width:0.088" d="M75.62,75.17L75.83,74.68"/><path style="stroke:#000000;stroke-width:0.088" d="M80.07,80.32L80.14,80.26L80.47,79.57L80.53,78.74L80.52,78.73L80.51,78.71L80.46,78.47L80.22,77.55L79.73,76.44L79.06,75.48L78.28,74.74L77.55,74.31L76.78,74.15L76.13,74.32L75.89,74.58L75.90,74.57"/><path style="stroke:#000000;stroke-width:0.088" d="M76.09,74.39L75.79,74.72L75.79,74.72"/><path style="stroke:#000000;stroke-width:0.088" d="M75.47,73.91L75.54,73.85L75.70,73.72L76.26,73.47"/><path style="stroke:#000000;stroke-width:0.088" d="M75.65,73.76L76.05,73.56L76.21,73.50"/><path style="stroke:#000000;stroke-width:0.088" d="M76.23,78.42L76.23,78.42"/><path style="stroke:#000000;stroke-width:0.088" d="M77.90,79.40L77.34,78.80L76.85,78.08L76.46,77.28L76.21,76.48"/><path style="stroke:#000000;stroke-width:0.088" d="M79.12,80.10L78.33,79.57L77.56,78.73L77.00,77.81L76.56,76.67L76.47,76.31L76.36,75.16L76.53,74.21"/><path style="stroke:#000000;stroke-width:0.088" d="M76.32,74.45L76.25,75.10L76.32,76.01L76.57,76.97L76.96,77.89L77.48,78.73L77.72,79.05L78.33,79.69L78.36,79.71L78.62,79.90"/><path style="stroke:#000000;stroke-width:0.088" d="M76.21,76.50L76.09,75.71L76.13,75.01"/><path style="stroke:#000000;stroke-width:0.088" d="M76.13,75.03L76.31,74.47"/><path style="stroke:#000000;stroke-width:0.088" d="M76.30,74.49L76.49,74.23"/><path style="stroke:#000000;stroke-width:0.088" d="M81.62,77.52L81.61,77.49L81.34,76.60L80.91,75.71L80.34,74.88L79.68,74.18L79.66,74.16L78.95,73.61L78.22,73.25L78.17,73.23L77.46,73.08L77.40,73.08L76.70,73.17L76.65,73.20L76.11,73.51L76.06,73.55L76.05,73.56"/><path style="stroke:#000000;stroke-width:0.088" d="M76.32,73.44L76.26,73.47"/><path style="stroke:#000000;stroke-width:0.088" d="M76.70,74.17L76.84,74.16"/><path style="stroke:#000000;stroke-width:0.088" d="M76.32,73.44L76.38,73.43L77.04,73.41L77.10,73.41L77.82,73.61L77.86,73.63L78.59,74.04L79.33,74.67L79.96,75.41L80.49,76.25L80.88,77.14L81.11,78.02L81.12,78.05"/><path style="stroke:#000000;stroke-width:0.088" d="M78.21,80.26L77.78,80.05L77.19,79.56"/><path style="stroke:#000000;stroke-width:0.088" d="M76.90,79.32L77.68,80.00L78.50,80.40L79.26,80.47L79.31,80.45"/><path style="stroke:#000000;stroke-width:0.088" d="M77.11,76.11L77.40,77.04L77.80,77.84L78.29,78.55L78.83,79.12"/><path style="stroke:#000000;stroke-width:0.088" d="M77.05,74.59L77.01,75.31L77.11,76.12"/><path style="stroke:#000000;stroke-width:0.088" d="M77.04,74.61L77.16,74.23"/><path style="stroke:#000000;stroke-width:0.088" d="M77.56,74.32L77.09,74.21"/><path style="stroke:#000000;stroke-width:0.088" d="M76.78,74.15L76.78,74.15"/><path style="stroke:#000000;stroke-width:0.088" d="M77.65,72.61L77.10,72.95L77.05,72.98L76.93,73.14"/><path style="stroke:#000000;stroke-width:0.088" d="M79.03,80.09L78.48,79.84L77.89,79.39"/><path style="stroke:#000000;stroke-width:0.088" d="M80.36,79.30L80.04,79.14L79.25,78.45L79.02,78.19L78.35,77.16L77.88,76.00L77.68,74.98L77.69,74.40"/><path style="stroke:#000000;stroke-width:0.088" d="M80.34,79.43L80.19,79.36L79.50,78.82L78.89,78.14L78.36,77.32L77.94,76.42L77.68,75.53L77.55,74.58L77.56,74.32"/><path style="stroke:#000000;stroke-width:0.088" d="M78.24,74.71L78.46,74.91"/><path style="stroke:#000000;stroke-width:0.088" d="M81.57,79.46L82.01,79.20L82.14,79.03L82.37,78.30L82.34,77.47L82.05,76.39L81.48,75.30L81.27,74.99L80.45,74.07L79.65,73.47L78.70,73.07L77.82,73.03L77.58,73.09L77.57,73.10"/><path style="stroke:#000000;stroke-width:0.088" d="M78.24,73.26L78.36,73.23"/><path style="stroke:#000000;stroke-width:0.088" d="M78.13,72.50L78.49,72.12L78.54,72.08L79.06,71.82L79.12,71.80L79.18,71.79L79.86,71.72L79.92,71.73L80.66,71.88L80.71,71.90L81.26,72.15L82.02,72.67L82.73,73.36L83.34,74.15L83.82,75.01L84.15,75.89"/><path style="stroke:#000000;stroke-width:0.088" d="M77.66,72.61L77.71,72.59L78.01,72.51"/><path style="stroke:#000000;stroke-width:0.088" d="M78.01,72.51L78.07,72.50L78.78,72.49L78.83,72.50L79.59,72.72L79.63,72.74L80.39,73.17L81.14,73.80L81.78,74.53L82.10,74.99L82.56,75.86L82.88,76.74"/><path style="stroke:#000000;stroke-width:0.088" d="M78.57,80.41L78.46,80.38"/><path style="stroke:#000000;stroke-width:0.088" d="M79.02,80.09L79.50,80.15"/><path style="stroke:#000000;stroke-width:0.088" d="M79.83,79.71L79.38,79.52L78.81,79.11L78.82,79.11"/><path style="stroke:#000000;stroke-width:0.088" d="M78.40,75.31L78.64,76.12L79.01,76.93L79.48,77.67L80.02,78.27"/><path style="stroke:#000000;stroke-width:0.088" d="M78.40,75.32L78.34,74.80"/><path style="stroke:#000000;stroke-width:0.088" d="M78.96,75.39L79.11,75.56"/><path style="stroke:#000000;stroke-width:0.088" d="M78.28,74.74L78.28,74.74"/><path style="stroke:#000000;stroke-width:0.088" d="M78.99,73.64L78.99,73.32"/><path style="stroke:#000000;stroke-width:0.088" d="M78.88,73.29L78.85,73.56"/><path style="stroke:#000000;stroke-width:0.088" d="M78.49,73.38L78.55,73.25"/><path style="stroke:#000000;stroke-width:0.088" d="M78.87,73.27L79.54,73.53L79.77,73.67L80.41,74.15"/><path style="stroke:#000000;stroke-width:0.088" d="M78.92,73.29L78.29,73.22L78.30,73.22"/><path style="stroke:#000000;stroke-width:0.088" d="M78.64,72.49L78.82,72.36L79.54,72.25L80.45,72.46L80.74,72.60L81.68,73.25L82.51,74.17L83.09,75.08L83.52,76.17L83.60,76.49L83.67,77.47L83.46,78.24L83.07,78.65L82.87,78.70"/><path style="stroke:#000000;stroke-width:0.088" d="M80.17,80.75L79.60,80.90L79.54,80.91L79.52,80.91"/><path style="stroke:#000000;stroke-width:0.088" d="M80.18,79.75L79.82,79.71L79.82,79.71"/><path style="stroke:#000000;stroke-width:0.088" d="M79.81,80.10L80.14,79.82"/><path style="stroke:#000000;stroke-width:0.088" d="M79.87,80.06L79.45,80.17"/><path style="stroke:#000000;stroke-width:0.088" d="M79.90,76.82L79.64,76.32"/><path style="stroke:#000000;stroke-width:0.088" d="M79.31,75.83L79.31,75.86L79.75,76.74L80.06,77.18"/><path style="stroke:#000000;stroke-width:0.088" d="M79.33,75.87L79.75,76.50"/><path style="stroke:#000000;stroke-width:0.088" d="M79.63,74.13L79.62,74.10L79.62,73.58"/><path style="stroke:#000000;stroke-width:0.088" d="M79.82,72.50L79.83,72.49L79.74,72.80"/><path style="stroke:#000000;stroke-width:0.088" d="M79.19,72.61L79.38,72.52"/><path style="stroke:#000000;stroke-width:0.088" d="M79.89,72.48L79.32,72.52L79.33,72.52"/><path style="stroke:#000000;stroke-width:0.088" d="M80.24,71.11L79.75,71.40L79.70,71.43"/><path style="stroke:#000000;stroke-width:0.088" d="M79.43,71.76L79.68,71.46"/><path style="stroke:#000000;stroke-width:0.088" d="M80.15,80.54L80.13,80.43L80.07,80.33L79.99,80.24L79.90,80.18"/><path style="stroke:#000000;stroke-width:0.088" d="M80.57,80.45L80.90,80.33L80.96,80.31L81.00,80.27L81.39,79.88L81.42,79.83L81.45,79.78L81.67,79.20L81.68,79.15L81.73,78.37L81.70,78.44L81.64,78.51L81.54,78.55L81.43,78.58L81.30,78.58L81.18,78.56L81.16,78.55"/><path style="stroke:#000000;stroke-width:0.088" d="M80.18,80.75L80.23,80.73L80.28,80.69L80.72,80.32L80.76,80.27L81.06,79.66L81.18,78.90"/><path style="stroke:#000000;stroke-width:0.088" d="M80.34,79.42L80.13,79.84L80.14,79.84"/><path style="stroke:#000000;stroke-width:0.088" d="M80.37,78.15L80.43,78.86L80.33,79.48L80.33,79.48"/><path style="stroke:#000000;stroke-width:0.088" d="M80.53,78.74L80.54,78.74L80.55,78.73L80.56,78.68L80.58,78.46L80.46,77.60L80.06,76.50"/><path style="stroke:#000000;stroke-width:0.088" d="M80.46,78.47L80.46,78.46"/><path style="stroke:#000000;stroke-width:0.088" d="M80.00,78.25L80.40,78.57"/><path style="stroke:#000000;stroke-width:0.088" d="M80.16,77.40L80.38,78.17"/><path style="stroke:#000000;stroke-width:0.088" d="M82.23,77.42L81.82,77.03L81.24,76.28L80.75,75.42L80.39,74.50L80.30,74.06"/><path style="stroke:#000000;stroke-width:0.088" d="M80.40,74.14L80.68,75.10L80.86,75.48L81.49,76.53L82.21,77.31"/><path style="stroke:#000000;stroke-width:0.088" d="M82.18,77.05L81.92,76.28L81.52,75.50L81.01,74.77L80.40,74.14"/><path style="stroke:#000000;stroke-width:0.088" d="M80.28,73.10L80.26,72.80L80.18,72.74L80.15,72.67L80.15,72.68"/><path style="stroke:#000000;stroke-width:0.088" d="M80.81,72.78L80.77,72.81L80.66,72.85L80.54,72.86L80.49,72.86L80.37,72.84L80.27,72.80L80.26,72.80L80.30,72.58"/><path style="stroke:#000000;stroke-width:0.088" d="M80.16,73.04L80.15,72.68"/><path style="stroke:#000000;stroke-width:0.088" d="M80.15,72.66L80.16,72.55L80.16,72.60"/><path style="stroke:#000000;stroke-width:0.088" d="M79.86,72.48L80.48,72.62"/><path style="stroke:#000000;stroke-width:0.088" d="M80.46,72.61L81.03,72.89L81.68,73.37"/><path style="stroke:#000000;stroke-width:0.088" d="M79.90,71.72L79.96,71.69L80.76,71.50L81.68,71.69L82.51,72.13L83.39,72.91L83.64,73.20L84.34,74.24"/><path style="stroke:#000000;stroke-width:0.088" d="M80.48,71.84L80.51,71.82"/><path style="stroke:#000000;stroke-width:0.088" d="M80.48,71.83L80.98,71.73"/><path style="stroke:#000000;stroke-width:0.088" d="M83.60,72.18L83.69,72.25L82.97,71.65L82.21,71.23L81.82,71.09L81.09,70.97L81.03,70.97L80.30,71.09L80.25,71.11"/><path style="stroke:#000000;stroke-width:0.088" d="M81.18,78.89L81.12,78.06"/><path style="stroke:#000000;stroke-width:0.088" d="M80.98,73.66L80.93,73.42L80.91,72.83"/><path style="stroke:#000000;stroke-width:0.088" d="M81.12,71.74L80.99,72.02L80.99,72.02"/><path style="stroke:#000000;stroke-width:0.088" d="M80.99,72.03L80.99,72.02L80.99,72.03"/><path style="stroke:#000000;stroke-width:0.088" d="M81.88,71.91L81.54,71.80L80.92,71.72L80.92,71.72"/><path style="stroke:#000000;stroke-width:0.088" d="M85.52,77.13L85.53,77.12L85.84,76.39L85.87,75.44L85.84,75.18L85.51,74.06L84.93,72.96L84.16,72.00L83.27,71.29L82.37,70.89L81.54,70.86L81.26,71.00"/><path style="stroke:#000000;stroke-width:0.088" d="M81.74,70.34L81.10,70.59L81.05,70.63L80.66,71.03"/><path style="stroke:#000000;stroke-width:0.088" d="M81.67,79.76L81.73,79.75L82.24,79.56L82.29,79.53L82.34,79.50L82.71,79.08L82.75,79.04L82.77,78.99L82.98,78.39L82.99,78.34L83.02,77.60L83.00,77.47"/><path style="stroke:#000000;stroke-width:0.088" d="M81.67,79.76L81.46,79.75"/><path style="stroke:#000000;stroke-width:0.088" d="M82.09,78.66L81.83,78.94"/><path style="stroke:#000000;stroke-width:0.088" d="M81.69,78.96L81.86,78.90"/><path style="stroke:#000000;stroke-width:0.088" d="M82.05,78.70L81.71,78.57"/><path style="stroke:#000000;stroke-width:0.088" d="M81.71,78.72L81.94,78.82"/><path style="stroke:#000000;stroke-width:0.088" d="M81.73,78.37L81.72,78.34L81.62,77.54"/><path style="stroke:#000000;stroke-width:0.088" d="M82.24,78.24L82.07,78.71"/><path style="stroke:#000000;stroke-width:0.088" d="M82.24,78.13L82.02,78.05L82.03,78.06"/><path style="stroke:#000000;stroke-width:0.088" d="M81.65,77.79L82.07,78.07"/><path style="stroke:#000000;stroke-width:0.088" d="M83.40,76.09L83.21,75.94L82.47,75.08L82.03,74.35L81.98,74.25L81.88,74.29"/><path style="stroke:#000000;stroke-width:0.088" d="M81.98,74.25L81.87,74.28"/><path style="stroke:#000000;stroke-width:0.088" d="M81.54,73.29L81.78,74.09L82.15,74.89L82.65,75.64L83.20,76.26"/><path style="stroke:#000000;stroke-width:0.088" d="M81.67,73.36L82.27,73.98L82.52,74.30L82.99,75.05L83.34,75.84L83.53,76.59"/><path style="stroke:#000000;stroke-width:0.088" d="M81.54,73.30L81.54,73.26"/><path style="stroke:#000000;stroke-width:0.088" d="M81.87,71.91L82.54,72.28L83.12,72.75"/><path style="stroke:#000000;stroke-width:0.088" d="M81.47,72.29L81.50,71.85"/><path style="stroke:#000000;stroke-width:0.088" d="M81.52,71.79L81.50,71.87"/><path style="stroke:#000000;stroke-width:0.088" d="M81.43,70.46L81.46,70.41L81.51,70.38L82.06,70.08L82.12,70.06L82.17,70.05L82.83,69.99L82.88,69.99L83.22,70.04L83.39,70.09L83.50,70.12L83.50,70.12"/><path style="stroke:#000000;stroke-width:0.088" d="M81.87,71.11L81.89,71.08L81.85,71.10"/><path style="stroke:#000000;stroke-width:0.088" d="M81.89,71.08L81.90,71.08"/><path style="stroke:#000000;stroke-width:0.088" d="M82.39,71.07L81.87,71.08"/><path style="stroke:#000000;stroke-width:0.088" d="M81.75,70.33L81.81,70.32L82.48,70.32L82.54,70.33L83.26,70.55L83.30,70.57L84.03,71.01L84.75,71.64L85.37,72.39L85.89,73.24L86.27,74.13L86.48,75.01L86.49,75.04L86.54,75.88L86.39,76.64L86.37,76.69L86.07,77.23L86.03,77.28L85.53,77.66L85.47,77.69L85.17,77.75"/><path style="stroke:#000000;stroke-width:0.088" d="M82.93,79.01L82.77,79.00"/><path style="stroke:#000000;stroke-width:0.088" d="M82.24,78.27L82.27,77.64L82.17,77.04"/><path style="stroke:#000000;stroke-width:0.088" d="M83.56,77.28L83.08,77.02L82.90,76.85"/><path style="stroke:#000000;stroke-width:0.088" d="M83.02,77.57L83.02,77.60L82.87,76.73"/><path style="stroke:#000000;stroke-width:0.088" d="M82.38,71.07L82.96,71.25"/><path style="stroke:#000000;stroke-width:0.088" d="M84.31,76.72L84.31,76.75L84.30,77.51L84.29,77.56L84.11,78.17L84.08,78.22L84.04,78.30L84.00,78.35L83.63,78.76L83.58,78.79L83.52,78.82L83.01,79.01L82.95,79.01"/><path style="stroke:#000000;stroke-width:0.088" d="M83.47,77.73L83.25,78.10"/><path style="stroke:#000000;stroke-width:0.088" d="M83.27,78.06L82.99,78.23"/><path style="stroke:#000000;stroke-width:0.088" d="M83.00,78.23L83.01,78.22"/><path style="stroke:#000000;stroke-width:0.088" d="M83.01,77.84L83.08,77.89L83.34,77.95"/><path style="stroke:#000000;stroke-width:0.088" d="M83.01,77.97L83.14,78.05L83.19,78.07L83.23,78.08"/><path style="stroke:#000000;stroke-width:0.088" d="M83.47,77.74L83.47,77.75L83.57,77.23"/><path style="stroke:#000000;stroke-width:0.088" d="M83.42,77.35L83.54,77.39"/><path style="stroke:#000000;stroke-width:0.088" d="M82.93,77.03L83.45,77.36"/><path style="stroke:#000000;stroke-width:0.088" d="M83.57,77.24L83.53,76.57"/><path style="stroke:#000000;stroke-width:0.088" d="M82.92,76.99L83.17,77.18"/><path style="stroke:#000000;stroke-width:0.088" d="M83.51,76.49L83.19,76.24L83.19,76.25"/><path style="stroke:#000000;stroke-width:0.088" d="M83.17,72.80L83.75,73.46L84.24,74.21L84.60,74.99L84.82,75.75"/><path style="stroke:#000000;stroke-width:0.088" d="M82.95,71.24L83.59,71.62L84.18,72.14L84.74,72.81L85.21,73.57L85.55,74.36L85.74,75.15"/><path style="stroke:#000000;stroke-width:0.088" d="M83.50,70.12L84.27,70.53"/><path style="stroke:#000000;stroke-width:0.088" d="M84.41,70.61L83.56,70.16L83.65,70.21"/><path style="stroke:#000000;stroke-width:0.088" d="M84.07,78.25L84.45,78.22L84.51,78.21L84.57,78.19L85.03,77.92"/><path style="stroke:#000000;stroke-width:0.088" d="M84.34,74.24L84.80,75.34L84.97,76.25L84.90,77.12L84.83,77.34L84.41,77.87L84.18,77.94"/><path style="stroke:#000000;stroke-width:0.088" d="M84.30,77.47L84.56,77.32L84.52,77.37"/><path style="stroke:#000000;stroke-width:0.088" d="M84.80,76.83L84.29,76.65"/><path style="stroke:#000000;stroke-width:0.088" d="M84.31,76.75L84.27,76.55L84.31,76.75"/><path style="stroke:#000000;stroke-width:0.088" d="M84.32,76.97L84.73,77.04"/><path style="stroke:#000000;stroke-width:0.088" d="M84.31,76.96L84.34,76.98"/><path style="stroke:#000000;stroke-width:0.088" d="M84.15,75.88L84.27,76.55L84.18,76.07"/><path style="stroke:#000000;stroke-width:0.088" d="M85.51,77.15L85.63,76.42L85.56,75.62L85.55,75.58L85.31,74.73L84.91,73.85L84.37,73.01L83.72,72.28"/><path style="stroke:#000000;stroke-width:0.088" d="M83.71,72.27L83.69,72.25L83.70,72.26"/><path style="stroke:#000000;stroke-width:0.088" d="M84.42,70.61L85.30,71.41"/><path style="stroke:#000000;stroke-width:0.088" d="M85.51,77.15L85.46,77.30L85.44,77.35L85.12,77.83L85.08,77.88L85.03,77.92"/><path style="stroke:#000000;stroke-width:0.088" d="M84.56,77.32L84.77,76.99"/><path style="stroke:#000000;stroke-width:0.088" d="M84.81,75.73L84.87,76.41L84.78,76.98L84.78,76.98"/><path style="stroke:#000000;stroke-width:0.088" d="M84.75,77.03L84.79,76.93"/><path style="stroke:#000000;stroke-width:0.088" d="M86.73,76.63L86.30,77.19L86.08,77.31L85.89,77.38"/><path style="stroke:#000000;stroke-width:0.088" d="M85.78,75.84L85.74,75.12"/><path style="stroke:#000000;stroke-width:0.088" d="M85.68,76.39L85.68,76.40L85.78,75.84"/><path style="stroke:#000000;stroke-width:0.088" d="M85.62,76.50L85.68,76.38"/><path style="stroke:#000000;stroke-width:0.088" d="M86.03,72.40L86.05,72.44L85.29,71.41"/><path style="stroke:#000000;stroke-width:0.088" d="M86.73,76.63L86.83,76.29L86.96,75.74L86.90,74.65L86.56,73.46L86.05,72.44"/><path style="stroke:#000000;stroke-width:0.088" d="M65.10,89.67L64.31,89.96L63.36,89.81L62.35,89.25L61.38,88.34L60.56,87.16L59.99,85.87L59.72,84.58L59.78,83.45L60.17,82.59L60.84,82.10L61.38,81.79L62.26,81.72L63.26,82.08L64.26,82.82L65.16,83.88L65.87,85.13L66.30,86.44L66.41,87.45L66.40,87.67L66.17,88.68L65.64,89.36L65.10,89.67L65.64,88.99L65.87,87.98L65.87,87.76L65.76,86.75L65.33,85.44L64.63,84.19L63.72,83.13L63.54,83.00L62.72,82.39L61.72,82.03L60.84,82.10"/><path style="stroke:#000000;stroke-width:0.088" d="M61.98,86.34L61.80,85.88L61.72,85.44L61.71,85.36L61.75,85.06L61.90,84.77L62.15,84.62L62.46,84.61L62.81,84.76L63.16,85.03L63.46,85.41L63.70,85.85L63.83,86.31L63.85,86.73L63.76,87.07L63.56,87.29L63.28,87.37L62.94,87.30L62.59,87.08L62.26,86.75L61.98,86.34"/><path style="stroke:#000000;stroke-width:0.088" d="M62.88,84.81L62.67,84.73L62.40,84.73L62.19,84.86L62.07,85.10L62.04,85.36L62.04,85.43L62.11,85.81L62.26,86.19L62.50,86.54L62.78,86.83L63.08,87.01L63.37,87.07L63.61,87.00L63.78,86.81L63.85,86.56"/><path style="stroke:#000000;stroke-width:0.088" d="M63.05,82.00L63.19,81.92L63.47,81.78L64.16,81.74L64.93,82.03L65.70,82.63L66.39,83.46L66.67,83.94L67.21,84.13L67.21,86.75L66.68,87.56L66.39,87.73"/><path style="stroke:#000000;stroke-width:0.088" d="M64.16,81.74L64.78,81.77L65.47,82.03L66.15,82.56L66.76,83.30L67.21,84.13"/><path style="stroke:#000000;stroke-width:0.088" d="M65.56,84.58L66.67,83.94"/><path style="stroke:#000000;stroke-width:0.088" d="M65.11,113.82L64.33,114.11L63.37,113.96L62.36,113.40L61.39,112.48L60.58,111.31L60.00,110.02L59.73,108.73L59.79,107.60L60.18,106.74L60.85,106.25L61.39,105.94L62.27,105.87L63.27,106.22L64.27,106.97L65.18,108.03L65.73,109.02L65.88,109.28L66.31,110.59L66.42,111.60L66.42,111.82L66.19,112.83L65.65,113.51L65.11,113.82L65.65,113.14L65.88,112.13L65.88,111.91L65.77,110.90L65.35,109.59L65.09,109.14L64.64,108.34L63.74,107.28L62.73,106.53L61.74,106.18L60.85,106.25"/><path style="stroke:#000000;stroke-width:0.088" d="M61.99,110.48L61.81,110.03L61.73,109.59L61.73,109.51L61.77,109.21L61.91,108.92L62.16,108.77L62.47,108.76L62.82,108.91L63.17,109.18L63.48,109.56L63.54,109.69L63.71,110.00L63.85,110.46L63.87,110.88L63.77,111.22L63.57,111.44L63.29,111.52L62.95,111.45L62.60,111.23L62.27,110.90L62.00,110.49L61.99,110.48"/><path style="stroke:#000000;stroke-width:0.088" d="M63.86,110.71L63.79,110.96L63.62,111.15L63.38,111.22L63.09,111.16L62.79,110.98L62.77,110.95L62.51,110.69L62.28,110.34L62.12,109.96L62.05,109.58L62.05,109.51L62.08,109.25L62.21,109.01L62.42,108.88L62.68,108.88L62.89,108.96"/><path style="stroke:#000000;stroke-width:0.088" d="M66.40,111.88L66.69,111.71L67.23,110.89L67.22,108.28L66.69,108.08L66.40,107.61L65.72,106.78L64.94,106.18L64.17,105.89L63.48,105.93L63.20,106.07L63.06,106.15"/><path style="stroke:#000000;stroke-width:0.088" d="M64.17,105.89L64.80,105.92L65.48,106.18L66.17,106.71L66.77,107.45L67.22,108.28"/><path style="stroke:#000000;stroke-width:0.088" d="M65.57,108.73L66.69,108.08"/><path style="stroke:#000000;stroke-width:0.088" d="M135.36,127.58L135.36,128.11L136.70,128.89L136.67,79.35L138.01,77.03L145.20,72.87L143.86,72.10L136.67,76.25L135.33,78.58L135.36,127.58"/><path style="stroke:#000000;stroke-width:0.088" d="M135.33,78.58L136.67,79.35"/><path style="stroke:#000000;stroke-width:0.088" d="M145.20,72.87L146.10,72.53L146.90,72.59L147.50,73.04L147.83,73.84L152.78,99.46L152.79,121.13L138.04,129.66L136.70,128.89"/><path style="stroke:#000000;stroke-width:0.088" d="M136.67,76.25L138.01,77.03"/><path style="stroke:#000000;stroke-width:0.088" d="M138.61,123.38L138.30,123.00L138.17,122.43L138.23,121.73L138.47,120.99L138.71,120.57L138.87,120.29L139.38,119.69L139.95,119.26L140.51,119.06L141.01,119.10L141.39,119.38L141.61,119.86L141.66,120.29L141.65,120.50L141.49,121.23L141.17,121.96L140.71,122.63L140.16,123.15L139.59,123.46L139.05,123.55L138.61,123.38"/><path style="stroke:#000000;stroke-width:0.088" d="M138.24,121.71L138.42,121.68L138.73,121.50L139.02,121.22L139.26,120.86L139.43,120.46L139.51,120.07L139.48,119.73L139.44,119.64"/><path style="stroke:#000000;stroke-width:0.088" d="M139.46,119.63L139.70,119.65L139.90,119.80L140.02,120.06L140.04,120.41L139.96,120.80L139.79,121.19L139.54,121.55L139.24,121.83L139.11,121.92L138.93,122.00L138.64,122.04L138.40,121.96L138.24,121.75L138.24,121.72"/><path style="stroke:#000000;stroke-width:0.088" d="M138.71,105.78L138.60,105.74L138.29,105.35L138.16,104.78L138.22,104.09L138.46,103.35L138.86,102.64L139.37,102.04L139.94,101.62L140.50,101.41L141.00,101.45L141.38,101.73L141.60,102.22L141.65,102.64L141.64,102.86L141.49,103.58L141.16,104.32L140.70,104.98L140.15,105.50L139.58,105.81L139.04,105.90L138.71,105.78"/><path style="stroke:#000000;stroke-width:0.088" d="M139.45,101.98L139.69,102.00L139.89,102.15L140.01,102.41L140.03,102.76L139.95,103.15L139.78,103.55L139.53,103.90L139.23,104.18L139.10,104.27L138.93,104.35L138.64,104.40L138.39,104.31L138.23,104.10L138.23,104.08"/><path style="stroke:#000000;stroke-width:0.088" d="M139.43,102.00L139.47,102.08L139.50,102.42L139.42,102.82L139.25,103.21L139.01,103.57L138.72,103.86L138.41,104.03L138.23,104.07"/><path style="stroke:#000000;stroke-width:0.088" d="M138.59,93.97L138.29,93.59L138.16,93.01L138.22,92.32L138.46,91.58L138.85,90.87L139.36,90.28L139.93,89.85L140.50,89.65L141.00,89.69L141.38,89.96L141.60,90.45L141.64,90.88L141.63,91.09L141.48,91.82L141.15,92.55L140.69,93.21L140.15,93.73L139.57,94.05L139.04,94.13L138.59,93.97"/><path style="stroke:#000000;stroke-width:0.088" d="M139.42,90.23L139.47,90.32L139.49,90.66L139.42,91.05L139.25,91.45L139.00,91.81L138.71,92.09L138.40,92.27L138.22,92.30"/><path style="stroke:#000000;stroke-width:0.088" d="M138.22,92.31L138.22,92.34L138.39,92.54L138.63,92.63L138.92,92.59L139.09,92.50L139.23,92.42L139.52,92.14L139.77,91.78L139.94,91.38L140.03,90.99L140.01,90.65L139.89,90.39L139.68,90.24L139.44,90.22"/><path style="stroke:#000000;stroke-width:0.088" d="M143.86,72.10L144.76,71.75L145.56,71.81L146.90,72.59"/><path style="stroke:#000000;stroke-width:0.088" d="M147.01,115.21L147.32,115.24L147.67,115.11L148.02,114.85L148.33,114.48L148.58,114.05L148.72,113.59L148.76,113.24L148.76,113.17L148.68,112.81L148.49,112.58L148.22,112.48L147.89,112.53L147.53,112.72L147.20,113.04L146.92,113.45L146.72,113.90L146.62,114.35L146.64,114.74L146.78,115.04L147.01,115.21"/><path style="stroke:#000000;stroke-width:0.088" d="M147.36,112.89L147.23,113.28L146.99,113.71L146.68,114.07"/><path style="stroke:#000000;stroke-width:0.088" d="M147.01,103.45L146.77,103.28L146.64,102.98L146.62,102.58L146.71,102.14L146.91,101.68L147.19,101.28L147.53,100.96L147.88,100.76L148.21,100.71L148.49,100.81L148.67,101.05L148.75,101.40L148.76,101.48L148.72,101.83L148.57,102.28L148.32,102.72L148.01,103.09L147.66,103.35L147.31,103.47L147.01,103.45"/><path style="stroke:#000000;stroke-width:0.088" d="M146.67,102.31L146.98,101.94L147.23,101.51L147.35,101.12"/><path style="stroke:#000000;stroke-width:0.088" d="M34.31,75.97L34.31,63.43L36.99,61.88L35.65,61.11L32.97,62.66L32.97,75.00L32.98,75.20L35.66,76.75L55.77,65.12L55.76,43.45L50.81,17.82L50.48,17.03L49.88,16.58L49.08,16.52L48.18,16.86L35.63,24.11L34.29,23.34L46.84,16.08L48.18,16.86"/><path style="stroke:#000000;stroke-width:0.088" d="M32.97,62.66L34.31,63.43"/><path style="stroke:#000000;stroke-width:0.088" d="M32.97,60.31L32.97,60.80L34.31,61.58L34.29,34.64L36.97,33.09L35.63,32.32L32.95,33.87L32.97,60.31"/><path style="stroke:#000000;stroke-width:0.088" d="M34.29,34.64L32.95,33.87"/><path style="stroke:#000000;stroke-width:0.088" d="M32.95,25.66L32.95,32.01L34.29,32.78L34.29,26.44L32.95,25.66L34.29,23.34"/><path style="stroke:#000000;stroke-width:0.088" d="M34.31,61.58L36.18,60.49L36.18,59.10L36.22,58.79L36.34,58.46L36.51,58.15L36.74,57.89L36.99,57.70L37.79,58.17L37.79,59.54L37.79,60.49L37.75,60.80L37.64,61.12L37.46,61.43L37.24,61.69L36.99,61.88"/><path style="stroke:#000000;stroke-width:0.088" d="M34.29,32.78L36.16,31.70L36.17,30.31L36.21,29.99L36.32,29.67L36.50,29.36L36.72,29.10L36.97,28.91L37.22,28.81L37.44,28.81L37.62,28.92L37.74,29.11L37.78,29.37L37.78,31.70L37.74,32.01L37.62,32.33L37.45,32.64L37.22,32.90L36.97,33.09"/><path style="stroke:#000000;stroke-width:0.088" d="M34.29,26.44L35.63,24.11"/><path style="stroke:#000000;stroke-width:0.088" d="M35.63,32.32L35.88,32.13L36.11,31.87L36.28,31.56L36.40,31.23L36.44,30.93L36.44,29.47"/><path style="stroke:#000000;stroke-width:0.088" d="M35.65,61.11L35.90,60.92L36.12,60.66L36.30,60.35L36.41,60.03L36.45,59.72L36.45,58.26"/><path style="stroke:#000000;stroke-width:0.088" d="M36.45,59.72L37.79,60.49"/><path style="stroke:#000000;stroke-width:0.088" d="M36.99,57.70L37.24,57.61L37.46,57.61L37.64,57.71L37.75,57.90L37.79,58.17"/><path style="stroke:#000000;stroke-width:0.088" d="M36.44,30.93L37.78,31.70"/><path style="stroke:#000000;stroke-width:0.088" d="M36.97,28.91L37.78,29.37"/><path style="stroke:#000000;stroke-width:0.088" d="M42.59,66.49L42.32,66.47L42.11,66.33L41.98,66.08L41.96,65.74L42.03,65.35L42.20,64.95L42.45,64.59L42.74,64.31L43.05,64.13L43.34,64.07L43.58,64.15L43.75,64.35L43.83,64.65L43.81,65.02L43.68,65.42L43.47,65.81L43.20,66.13L42.90,66.37L42.59,66.49"/><path style="stroke:#000000;stroke-width:0.088" d="M42.03,66.17L42.28,66.10L42.59,65.89L42.87,65.58L43.10,65.21L43.25,64.81L43.30,64.43L43.25,64.11L43.23,64.09"/><path style="stroke:#000000;stroke-width:0.088" d="M43.22,64.10L43.20,64.21L42.93,64.95L42.51,65.64L42.03,66.16"/><path style="stroke:#000000;stroke-width:0.088" d="M42.58,48.84L42.31,48.82L42.10,48.68L41.98,48.43L41.95,48.09L42.02,47.70L42.19,47.30L42.44,46.94L42.73,46.66L43.04,46.48L43.33,46.43L43.57,46.50L43.74,46.70L43.82,47.01L43.80,47.38L43.67,47.77L43.46,48.16L43.19,48.48L42.89,48.72L42.58,48.84"/><path style="stroke:#000000;stroke-width:0.088" d="M43.23,46.44L43.24,46.46L43.29,46.78L43.24,47.16L43.09,47.56L42.86,47.94L42.58,48.24L42.27,48.45L42.02,48.52L42.50,47.99L42.92,47.30L43.19,46.56L43.21,46.45"/><path style="stroke:#000000;stroke-width:0.088" d="M41.97,36.66L42.09,36.92L42.30,37.06L42.57,37.07L42.88,36.96L43.18,36.72L43.46,36.39L43.66,36.01L43.79,35.61L43.81,35.24L43.74,34.94L43.57,34.74L43.32,34.66L43.03,34.71L42.72,34.89L42.43,35.18L42.19,35.54L42.02,35.93L41.94,36.32L41.97,36.66"/><path style="stroke:#000000;stroke-width:0.088" d="M43.20,34.68L43.19,34.80L42.91,35.54L42.49,36.23L42.01,36.76L42.27,36.69L42.57,36.48L42.86,36.17L43.08,35.80L43.23,35.40L43.28,35.02L43.23,34.70L43.22,34.68"/><path style="stroke:#000000;stroke-width:0.088" d="M46.84,16.08L47.74,15.74L48.54,15.80L49.88,16.58"/><path style="stroke:#000000;stroke-width:0.088" d="M50.28,58.79L50.10,58.71L49.98,58.54L49.93,58.29L49.97,57.99L50.08,57.68L50.25,57.38L50.47,57.14L50.67,56.99L50.72,56.97L50.95,56.90L51.16,56.93L51.31,57.05L51.40,57.27L51.40,57.55L51.33,57.86L51.18,58.17L50.98,58.44L50.75,58.65L50.51,58.77L50.28,58.79"/><path style="stroke:#000000;stroke-width:0.088" d="M50.74,56.96L50.75,57.11L50.69,57.42L50.56,57.73L50.37,58.01L50.14,58.24L49.94,58.35"/><path style="stroke:#000000;stroke-width:0.088" d="M49.95,58.18L50.01,58.12L50.38,57.58L50.60,57.04"/><path style="stroke:#000000;stroke-width:0.088" d="M50.60,45.28L50.37,45.82L50.00,46.36L49.94,46.42"/><path style="stroke:#000000;stroke-width:0.088" d="M50.27,47.03L50.09,46.95L49.97,46.78L49.93,46.53L49.96,46.23L50.07,45.91L50.25,45.62L50.47,45.37L50.66,45.23L50.71,45.21L50.95,45.13L51.15,45.16L51.31,45.29L51.39,45.50L51.39,45.78L51.32,46.09L51.18,46.39L50.98,46.67L50.74,46.88L50.50,47.01L50.27,47.03"/><path style="stroke:#000000;stroke-width:0.088" d="M50.73,45.20L50.74,45.35L50.68,45.65L50.55,45.96L50.36,46.25L50.13,46.47L49.94,46.58"/><path style="stroke:#000000;stroke-width:0.088" d="M40.12,121.39L40.12,121.56L48.17,126.20L48.15,87.50L40.10,82.86L40.12,121.39"/><path style="stroke:#000000;stroke-width:0.088" d="M40.10,82.86L44.12,80.53L52.17,85.18L48.15,87.50"/><path style="stroke:#000000;stroke-width:0.088" d="M44.25,119.77L44.14,119.70L43.90,119.59L43.57,119.56L43.31,119.68L43.13,119.93L43.07,120.29L43.12,120.73L43.28,121.18L43.54,121.61L43.86,121.97L44.21,122.21L44.55,122.32L44.85,122.28L45.07,122.09L45.20,121.78L45.20,121.39L45.20,121.56L45.10,121.82L44.91,121.98L44.65,122.02L44.36,121.93L44.06,121.72L43.79,121.42L43.57,121.05L43.56,121.01L43.43,120.67L43.39,120.30L43.45,119.99L43.60,119.77L43.82,119.68L44.10,119.70L44.25,119.77L44.59,120.08L44.88,120.48L45.10,120.92L45.20,121.39L45.20,121.37"/><path style="stroke:#000000;stroke-width:0.088" d="M43.27,97.03L43.11,96.58L43.06,96.14L43.12,95.78L43.30,95.53L43.56,95.41L43.89,95.44L44.13,95.55L44.24,95.62L44.08,95.55L43.81,95.53L43.58,95.62L43.43,95.84L43.38,96.15L43.42,96.52L43.56,96.90L43.78,97.27L44.05,97.57L44.35,97.78L44.64,97.87L44.89,97.83L45.08,97.68L45.19,97.41L45.19,97.23L45.18,97.63L45.06,97.94L44.84,98.13L44.54,98.17L44.20,98.06L43.84,97.82L43.52,97.46L43.27,97.03"/><path style="stroke:#000000;stroke-width:0.088" d="M45.19,97.23L45.08,96.78L44.87,96.33L44.58,95.93L44.24,95.62"/><path style="stroke:#000000;stroke-width:0.088" d="M45.19,97.41L45.19,97.22"/><path style="stroke:#000000;stroke-width:0.088" d="M48.17,126.20L52.19,123.88L52.17,85.18"/><path style="stroke:#000000;stroke-width:0.088" d="M49.38,119.15L49.38,119.46L49.47,119.70L49.63,119.85L49.85,119.89L50.11,119.81L50.37,119.64L50.61,119.37L50.81,119.05L50.94,118.71L50.98,118.38L50.97,118.30L50.94,118.11L50.81,117.91L50.62,117.82L50.37,117.84L50.11,117.96L49.85,118.18L49.63,118.48L49.47,118.81L49.38,119.15"/><path style="stroke:#000000;stroke-width:0.088" d="M50.08,117.98L50.22,117.92L50.43,117.90L50.59,117.98L50.70,118.15L50.74,118.38L50.72,118.50L50.70,118.66L50.59,118.95L50.43,119.22L50.22,119.45L50.00,119.60L49.78,119.66L49.59,119.63L49.45,119.50L49.38,119.30"/><path style="stroke:#000000;stroke-width:0.088" d="M49.47,102.06L49.46,102.05L49.37,101.81L49.37,101.51L49.46,101.17L49.62,100.83L49.84,100.54L50.10,100.31L50.36,100.19L50.61,100.17L50.80,100.26L50.93,100.46L50.94,100.52L50.97,100.74L50.93,101.06L50.80,101.41L50.61,101.73L50.36,101.99L50.10,102.17L49.84,102.24L49.62,102.20L49.47,102.06"/><path style="stroke:#000000;stroke-width:0.088" d="M49.37,101.66L49.44,101.85L49.58,101.98L49.77,102.01L49.99,101.95L50.21,101.80L50.42,101.58L50.58,101.31L50.69,101.01L50.71,100.86L50.73,100.74L50.69,100.50L50.58,100.33L50.42,100.25L50.21,100.27L50.07,100.34"/><path style="stroke:#000000;stroke-width:0.088" d="M49.37,89.74L49.37,90.05L49.43,90.24L49.45,90.29L49.61,90.43L49.84,90.47L50.09,90.40L50.36,90.22L50.60,89.96L50.79,89.64L50.92,89.30L50.96,88.97L50.96,88.92L50.92,88.70L50.79,88.50L50.60,88.40L50.36,88.42L50.09,88.55L49.84,88.77L49.61,89.07L49.45,89.40L49.37,89.74"/><path style="stroke:#000000;stroke-width:0.088" d="M49.37,89.89L49.44,90.09L49.57,90.21L49.76,90.25L49.98,90.19L50.21,90.04L50.32,89.91L50.41,89.81L50.58,89.54L50.68,89.25L50.71,89.09L50.72,88.97L50.69,88.74L50.58,88.57L50.41,88.49L50.21,88.50L50.07,88.57"/><path style="stroke:#000000;stroke-width:0.088" d="M50.58,100.33L50.58,100.33"/><path style="stroke:#000000;stroke-width:0.088" d="M77.61,47.27L85.60,51.88L85.59,37.95L77.60,33.34L77.61,47.27"/><path style="stroke:#000000;stroke-width:0.088" d="M86.79,24.93L87.11,24.74L82.96,27.14L77.60,33.34"/><path style="stroke:#000000;stroke-width:0.088" d="M85.60,51.88L91.23,48.63L91.24,61.01L83.25,56.40L83.24,50.52"/><path style="stroke:#000000;stroke-width:0.088" d="M85.59,37.95L90.96,31.75L102.17,25.27L98.91,25.11L96.85,25.52L94.98,26.33L92.30,27.88L86.99,24.81"/><path style="stroke:#000000;stroke-width:0.088" d="M87.11,24.74L89.78,23.20L89.11,23.58"/><path style="stroke:#000000;stroke-width:0.088" d="M89.78,23.20L91.44,22.24L91.12,22.42"/><path style="stroke:#000000;stroke-width:0.088" d="M89.67,23.26L94.98,26.33"/><path style="stroke:#000000;stroke-width:0.088" d="M108.14,62.70L109.75,61.77L110.85,66.09L109.24,67.02L108.14,62.70L108.16,93.04L98.24,98.78L90.24,94.16L90.23,60.42"/><path style="stroke:#000000;stroke-width:0.088" d="M91.44,92.12L91.12,91.09L91.03,89.82L91.29,88.79L91.87,88.10L92.71,87.83L93.71,88.01L94.77,88.62L95.77,89.60L96.61,90.83L97.19,92.19L97.45,93.53L97.36,94.69L96.93,95.57L96.22,96.05L95.29,96.10L94.24,95.69L93.20,94.89L92.26,93.77L91.55,92.46L91.44,92.12"/><path style="stroke:#000000;stroke-width:0.088" d="M91.21,67.27L91.11,66.94L91.02,65.67L91.28,64.64L91.86,63.95L92.69,63.68L93.69,63.86L94.75,64.47L95.76,65.45L96.59,66.68L97.17,68.04L97.43,69.38L97.35,70.54L96.92,71.42L96.20,71.90L95.27,71.95L94.23,71.55L93.18,70.74L92.25,69.62L91.53,68.31L91.21,67.27"/><path style="stroke:#000000;stroke-width:0.088" d="M98.24,98.78L98.21,56.98L91.24,61.01"/><path style="stroke:#000000;stroke-width:0.088" d="M90.96,31.75L92.30,27.88"/><path style="stroke:#000000;stroke-width:0.088" d="M91.44,22.24L92.99,21.34L92.46,21.65"/><path style="stroke:#000000;stroke-width:0.088" d="M92.99,21.34L94.17,20.66L95.03,20.69L97.81,21.54L105.80,26.16L103.03,25.30L102.17,25.27"/><path style="stroke:#000000;stroke-width:0.088" d="M95.24,89.08L95.57,90.13L96.29,91.44L97.22,92.56L97.27,92.60"/><path style="stroke:#000000;stroke-width:0.088" d="M97.25,68.45L97.20,68.41L96.27,67.29L95.55,65.98L95.23,64.93"/><path style="stroke:#000000;stroke-width:0.088" d="M99.72,88.01L99.56,87.73L99.51,87.36L100.65,88.02L100.29,88.15L99.98,88.15L99.72,88.01"/><path style="stroke:#000000;stroke-width:0.088" d="M99.51,87.36L99.56,86.92L99.72,86.46L99.97,86.02L100.29,85.65L100.64,85.38L102.79,84.14L103.14,84.00L103.46,84.01L103.71,84.15L103.88,84.43L103.93,84.80L103.88,85.24L103.71,85.70L103.46,86.14L103.14,86.51L102.79,86.77L100.65,88.02"/><path style="stroke:#000000;stroke-width:0.088" d="M99.72,76.24L99.56,75.97L99.50,75.59L100.64,76.25L100.29,76.39L99.97,76.39L99.72,76.24"/><path style="stroke:#000000;stroke-width:0.088" d="M99.50,75.59L99.55,75.15L99.72,74.69L99.96,74.27L100.29,73.89L100.64,73.62L102.78,72.38L103.14,72.24L103.45,72.24L103.71,72.39L103.87,72.66L103.92,73.04L103.87,73.45L103.71,73.93L103.46,74.37L103.14,74.74L102.79,75.01L100.53,73.70"/><path style="stroke:#000000;stroke-width:0.088" d="M100.53,85.47L102.79,86.77"/><path style="stroke:#000000;stroke-width:0.088" d="M100.64,76.25L102.79,75.01"/><path style="stroke:#000000;stroke-width:0.088" d="M105.80,26.16L107.94,28.13L109.28,31.09L109.74,34.83L109.75,61.77"/><path style="stroke:#000000;stroke-width:0.088" d="M108.16,93.04L109.40,93.75L111.00,92.82L110.99,67.17L109.38,68.10L109.24,67.02"/><path style="stroke:#000000;stroke-width:0.088" d="M109.40,93.75L109.38,68.10"/><path style="stroke:#000000;stroke-width:0.088" d="M110.99,67.17L110.85,66.09"/><path style="stroke:#000000;stroke-width:0.088" d="M116.96,97.61L116.94,97.34L116.94,97.21L117.04,96.77L117.24,96.31L117.52,95.91L117.86,95.59L118.21,95.39L118.54,95.34L118.81,95.44L127.90,100.68L127.62,100.60L127.28,100.68L126.93,100.89L126.60,101.22L126.32,101.64L126.14,102.09L126.06,102.53L126.10,102.92L126.23,103.16L126.24,103.20L126.49,103.35L117.33,98.08L117.10,97.91L116.96,97.61"/><path style="stroke:#000000;stroke-width:0.088" d="M116.94,97.34L116.94,97.07L117.02,96.68L117.20,96.29L117.45,95.93L117.74,95.65L117.86,95.59"/><path style="stroke:#000000;stroke-width:0.088" d="M126.35,102.84L126.36,102.88L126.49,103.13L126.70,103.26L126.98,103.26L127.28,103.14L127.59,102.90L127.86,102.57L128.06,102.18L128.18,101.78L128.20,101.52L128.20,101.42L128.11,101.12L127.94,100.93L127.69,100.86L127.40,100.92L127.09,101.10L126.80,101.39L126.56,101.76L126.40,102.15L126.33,102.54L126.35,102.84"/><path style="stroke:#000000;stroke-width:0.088" d="M126.49,103.35L126.80,103.36L127.15,103.21L127.28,103.14"/><path style="stroke:#000000;stroke-width:0.088" d="M127.90,100.68L128.10,100.91L128.20,101.24L128.20,101.37L128.20,101.52"/><path style="stroke:#000000;stroke-width:0.088" d="M116.96,85.84L116.93,85.58L116.94,85.45L117.03,85.00L117.23,84.55L117.51,84.14L117.85,83.82L118.20,83.63L118.53,83.58L118.81,83.68L127.90,88.92L127.61,88.84L127.28,88.91L126.92,89.12L126.63,89.41L126.59,89.45L126.32,89.87L126.13,90.32L126.05,90.77L126.09,91.15L126.22,91.40L126.24,91.44L126.48,91.59L117.33,86.31L117.09,86.14L116.96,85.84"/><path style="stroke:#000000;stroke-width:0.088" d="M117.85,83.82L117.73,83.89L117.44,84.17L117.19,84.52L117.02,84.92L116.94,85.31L116.93,85.58"/><path style="stroke:#000000;stroke-width:0.088" d="M127.28,91.37L127.58,91.13L127.85,90.80L128.05,90.41L128.17,90.02L128.20,89.76L128.19,89.65L128.11,89.35L127.93,89.16L127.69,89.09L127.39,89.15L127.08,89.34L126.79,89.63L126.55,89.99L126.39,90.39L126.38,90.46L126.32,90.78L126.35,91.11L126.48,91.36L126.70,91.50L126.97,91.50L127.28,91.37L127.15,91.45L126.80,91.59L126.48,91.59"/><path style="stroke:#000000;stroke-width:0.088" d="M128.20,89.76L128.20,89.60L128.19,89.48L128.10,89.14L127.90,88.92"/><path style="fill:#ffffff" d="M171.65,68.13L198.06,68.13L198.06,62.49L171.65,62.49z"/><path style="stroke:#35414c;stroke-width:0.255" d="M171.65,68.13L198.06,68.13L198.06,62.49L171.65,62.49z"/><path style="stroke:#35404c;stroke-width:0.250;stroke-opacity:0.00" d="M171.65,68.13L198.06,68.13L198.06,62.49L171.65,62.49z"/><text xml:space="preserve" fill="#333f4b" stroke-width="0" x="172.36" y="66.55" font-size="3.49" opacity="1.00" font-family="Arial" font-weight="bold" font-style="italic">F24623308A</text><path style="fill:#ffffff" d="M171.65,108.02L198.06,108.02L198.06,102.38L171.65,102.38z"/><path style="stroke:#35414c;stroke-width:0.255" d="M171.65,108.02L198.06,108.02L198.06,102.38L171.65,102.38z"/><path style="stroke:#35404c;stroke-width:0.250;stroke-opacity:0.00" d="M171.65,108.02L198.06,108.02L198.06,102.38L171.65,102.38z"/><text xml:space="preserve" fill="#333f4b" stroke-width="0" x="172.36" y="106.43" font-size="3.46" opacity="1.00" font-family="Arial" font-weight="bold" font-style="italic">ML2109</text><path style="fill:#ffffff" d="M171.65,78.17L198.06,78.17L198.06,72.53L171.65,72.53z"/><path style="stroke:#35414c;stroke-width:0.255" d="M171.65,78.17L198.06,78.17L198.06,72.53L171.65,72.53z"/><path style="stroke:#35404c;stroke-width:0.250;stroke-opacity:0.00" d="M171.65,78.17L198.06,78.17L198.06,72.53L171.65,72.53z"/><text xml:space="preserve" fill="#333f4b" stroke-width="0" x="172.36" y="76.59" font-size="3.56" opacity="1.00" font-family="Arial" font-weight="bold" font-style="italic">F24623311X</text><path style="fill:#ffffff" d="M171.65,58.10L198.06,58.10L198.06,52.45L171.65,52.45z"/><path style="stroke:#35414c;stroke-width:0.255" d="M171.65,58.10L198.06,58.10L198.06,52.45L171.65,52.45z"/><path style="stroke:#35404c;stroke-width:0.250;stroke-opacity:0.00" d="M171.65,58.10L198.06,58.10L198.06,52.45L171.65,52.45z"/><text xml:space="preserve" fill="#333f4b" stroke-width="0" x="172.36" y="56.51" font-size="3.56" opacity="1.00" font-family="Arial" font-weight="bold" font-style="italic">F21623173X</text><path style="fill:#ffffff" d="M171.65,48.06L198.06,48.06L198.06,42.42L171.65,42.42z"/><path style="stroke:#35414c;stroke-width:0.255" d="M171.65,48.06L198.06,48.06L198.06,42.42L171.65,42.42z"/><path style="stroke:#35404c;stroke-width:0.250;stroke-opacity:0.00" d="M171.65,48.06L198.06,48.06L198.06,42.42L171.65,42.42z"/><text xml:space="preserve" fill="#333f4b" stroke-width="0" x="172.36" y="46.47" font-size="3.56" opacity="1.00" font-family="Arial" font-weight="bold" font-style="italic">F21623153X</text><path style="fill:#ffffff" d="M171.65,87.95L198.06,87.95L198.06,82.30L171.65,82.30z"/><path style="stroke:#35414c;stroke-width:0.255" d="M171.65,87.95L198.06,87.95L198.06,82.30L171.65,82.30z"/><path style="stroke:#35404c;stroke-width:0.250;stroke-opacity:0.00" d="M171.65,87.95L198.06,87.95L198.06,82.30L171.65,82.30z"/><text xml:space="preserve" fill="#333f4b" stroke-width="0" x="172.36" y="86.36" font-size="3.49" opacity="1.00" font-family="Arial" font-weight="bold" font-style="italic">F24623312A</text><path style="fill:#ffffff" d="M171.65,97.98L198.06,97.98L198.06,92.34L171.65,92.34z"/><path style="stroke:#35414c;stroke-width:0.255" d="M171.65,97.98L198.06,97.98L198.06,92.34L171.65,92.34z"/><path style="stroke:#35404c;stroke-width:0.250;stroke-opacity:0.00" d="M171.65,97.98L198.06,97.98L198.06,92.34L171.65,92.34z"/><text xml:space="preserve" fill="#333f4b" stroke-width="0" x="172.36" y="96.40" font-size="3.49" opacity="1.00" font-family="Arial" font-weight="bold" font-style="italic">F36623077A</text><g id="paperID" visibility="hidden" opacity="0.00" transform="scale(0.000100)"><path style="stroke:#000000;stroke-width:0.500;fill:#e6e6e6;fill-rule:evenodd" d="M-2000.00,-2000.00L2210.00,-2000.00L2210.00,2150.00L-2000.00,2150.00zM0.00,0.00L210.00,0.00L210.00,150.00L0.00,150.00z"/><path style="fill:#000000;fill-opacity:0.118" d="M3.00,150.00L210.00,150.00L210.00,3.00L213.00,3.00L213.00,153.00L3.00,153.00z"/></g><g id="hotspot.0" onmouseover="ShowHotSpot(evt,'0')" onmouseout="HideHotSpot(evt,'0')" onmousemove="ShowToolTip(evt,'0',&quot;F24623311&quot;)" opacity="0"><path style="fill:#00ff00;fill-rule:evenodd" d="M97.91,21.75L105.60,26.21L107.72,28.06L109.28,31.24L109.53,33.11L109.79,61.91L110.85,66.13L110.87,92.91L110.00,93.62L108.76,93.58L108.47,93.31L107.87,93.31L98.87,98.60L97.63,98.64L90.43,94.48L90.25,60.58L83.39,56.61L83.12,50.54L77.76,47.45L77.84,33.20L83.14,27.14L93.85,20.95L95.54,20.95zM198.32,72.96L198.31,78.12L198.02,78.63L171.60,78.56L171.60,72.80L198.06,72.70z"/></g><g id="hotspot.1" onmouseover="ShowHotSpot(evt,'1')" onmouseout="HideHotSpot(evt,'1')" onmousemove="ShowToolTip(evt,'1',&quot;F24623312&quot;)" opacity="0"><path style="fill:#00ff00;fill-rule:evenodd" d="M51.95,85.15L52.21,87.26L52.21,124.06L48.71,126.12L47.72,126.11L40.33,121.86L40.33,82.86L43.67,80.90L44.56,80.90zM198.32,82.74L198.31,87.89L198.02,88.40L171.60,88.33L171.60,82.58L198.06,82.47z"/></g><g id="hotspot.2" onmouseover="ShowHotSpot(evt,'2')" onmouseout="HideHotSpot(evt,'2')" onmousemove="ShowToolTip(evt,'2',&quot;F36623077A&quot;)" opacity="0"><path style="fill:#00ff00;fill-rule:evenodd" d="M147.58,73.25L152.59,98.62L152.59,121.42L138.51,129.54L137.53,129.54L135.34,128.29L135.41,78.62L136.68,76.45L144.57,71.92L145.47,71.92zM198.32,92.77L198.31,97.93L198.02,98.44L171.60,98.37L171.60,92.61L198.06,92.51zM139.40,91.32L138.74,92.29L138.23,92.29L139.40,90.43zM139.41,103.21L138.59,104.01L138.57,103.18L139.29,102.28L139.41,102.32zM139.41,120.62L138.59,121.71L138.57,120.88L139.30,119.99L139.42,120.02z"/></g><g id="hotspot.3" onmouseover="ShowHotSpot(evt,'3')" onmouseout="HideHotSpot(evt,'3')" onmousemove="ShowToolTip(evt,'3',&quot;Molla_di_compressione_20x2_Compressa_3.5Spire_Lungh23&quot;)" opacity="0"><path style="fill:#00ff00;fill-rule:evenodd" d="M84.18,70.61L85.79,72.17L86.82,74.31L86.83,76.53L86.57,77.06L82.63,79.46L81.46,79.88L81.26,80.20L80.14,80.93L78.08,80.94L76.01,79.05L75.18,77.24L75.20,74.41L77.57,72.81L81.96,70.34L83.66,70.34zM84.44,94.91L85.53,95.94L86.82,98.61L86.83,100.83L86.59,101.12L82.47,103.60L79.60,105.26L78.90,105.24L77.85,104.94L76.54,103.88L75.18,101.27L75.17,98.68L75.62,98.08L79.72,95.83L81.96,94.38L83.40,94.38zM198.32,102.81L198.31,107.97L198.02,108.48L171.60,108.40L171.60,102.65L198.06,102.55zM84.46,72.71L85.51,74.30L85.59,75.28L84.21,72.96L83.05,71.64L83.35,71.64zM83.68,73.49L84.71,75.36L84.68,76.83L84.39,76.81L83.39,74.31L81.50,72.43L81.46,72.17L82.05,72.17zM82.59,74.58L83.16,75.71L82.35,75.08L81.68,73.80zM79.99,73.98L80.25,74.65L79.67,74.30L79.67,73.77zM79.19,75.87L80.24,77.76L80.24,78.35L79.44,77.73L78.61,76.17L78.63,75.35zM77.82,76.18L78.36,77.49L80.24,79.59L79.16,79.59L77.83,78.02L77.29,76.97L77.24,74.54L77.55,74.53zM85.77,76.27L85.59,75.28L85.75,75.40zM76.33,76.62L76.19,76.49L76.25,75.08zM82.09,77.46L82.09,78.10L81.81,78.06L81.81,77.18zM76.54,77.31L76.33,76.62L76.50,76.75zM83.66,95.97L85.00,97.52L85.77,99.40L85.76,100.58L84.70,97.83L83.38,96.24L82.83,95.93L82.77,95.69zM82.85,96.77L83.94,98.06L84.71,99.67L84.71,101.09L84.47,101.03L83.65,98.88L82.10,97.00L81.42,96.46L81.68,96.21L82.06,96.21zM82.59,98.61L83.15,100.02L82.61,99.67L81.68,97.84zM80.23,98.32L80.51,99.22L79.67,98.59L79.59,98.08L79.93,98.04zM78.92,99.60L80.23,101.78L80.24,102.66L79.71,102.30L78.61,100.21L78.63,99.39zM77.82,100.22L79.18,102.82L80.23,103.68L80.24,103.98L79.69,103.94L78.62,103.12L77.85,102.30L77.30,101.01L77.24,98.57L77.55,98.57zM82.11,101.53L82.05,102.17L81.75,102.17L81.42,101.00z"/></g><g id="hotspot.4" onmouseover="ShowHotSpot(evt,'4')" onmouseout="HideHotSpot(evt,'4')" onmousemove="ShowToolTip(evt,'4',&quot;F21623153&quot;)" opacity="0"><path style="fill:#00ff00;fill-rule:evenodd" d="M198.32,42.85L198.31,48.01L198.02,48.51L171.60,48.44L171.60,42.69L198.06,42.58zM65.95,82.50L67.02,83.81L67.02,87.10L65.96,89.21L64.82,89.91L63.29,89.91L62.00,89.09L60.70,87.49L60.12,86.48L59.87,85.42L59.85,83.36L60.84,82.24L61.36,81.96L64.91,81.96zM65.73,106.50L67.02,108.11L67.02,111.40L66.62,111.79L66.12,113.14L64.54,114.23L63.02,113.96L60.95,112.07L60.12,110.52L59.87,109.46L59.86,107.67L60.41,106.64L62.24,106.00L64.35,106.00z"/></g><g id="hotspot.5" onmouseover="ShowHotSpot(evt,'5')" onmouseout="HideHotSpot(evt,'5')" onmousemove="ShowToolTip(evt,'5',&quot;F21623173&quot;)" opacity="0"><path style="fill:#00ff00;fill-rule:evenodd" d="M198.32,52.89L198.31,58.04L198.02,58.55L171.60,58.48L171.60,52.73L198.06,52.62zM126.18,88.05L128.04,89.35L128.04,90.53L127.41,91.48L125.92,91.47L117.20,86.47L117.17,84.68L117.97,83.88L118.78,83.80zM128.05,100.97L127.96,102.60L127.16,103.40L126.20,103.36L117.19,98.09L117.20,96.33L117.88,95.70L119.06,95.70z"/></g><g id="hotspot.6" onmouseover="ShowHotSpot(evt,'6')" onmouseout="HideHotSpot(evt,'6')" onmousemove="ShowToolTip(evt,'6',&quot;F24623308&quot;)" opacity="0"><path style="fill:#00ff00;fill-rule:evenodd" d="M49.04,16.21L50.63,17.52L55.64,42.88L55.56,65.33L36.01,76.72L35.31,76.72L33.11,75.46L33.11,62.69L34.78,61.63L33.20,61.10L33.11,33.90L34.78,32.84L33.20,32.31L33.21,25.28L34.19,23.62L46.85,16.21L47.64,15.93L48.52,15.92zM198.32,62.92L198.31,68.08L198.02,68.59L171.60,68.52L171.60,62.77L198.06,62.66zM43.00,35.56L42.17,36.65L42.15,35.82L42.88,34.93L43.00,34.97zM43.00,47.45L42.19,48.55L42.19,47.47L42.66,46.82L42.97,46.82zM35.82,61.18L35.48,61.09L35.87,60.87zM43.04,64.68L42.19,66.25L42.16,65.14L42.63,64.49z"/></g></g></svg>
