<?xml version="1.0" encoding="UTF-8" standalone="no"?>
<svg xmlns="http://www.w3.org/2000/svg" xmlns:xlink="http://www.w3.org/1999/xlink" width="210.000mm" height="150.000mm" viewBox="0.000000 0.000000 210.000000 150.000000" stroke-linejoin="round" stroke-linecap="round" fill="none" fill-rule="evenodd"><desc>Composer Export</desc><script type="text/ecmascript"><![CDATA[
if(typeof(top) != "undefined")
{
	top.ShowPaper = ShowPaper;
}
function ShowHotSpot(evt,hotspotid)
{
	var svgDocument = evt.target.ownerDocument;
	var strId = "hotspot."+hotspotid;
	var hotspot = svgDocument.getElementById(strId);
	if(hotspot)
		hotspot.setAttribute("opacity",".5");
}
function HideHotSpot(evt,hotspotid)
{
	var svgDocument = evt.target.ownerDocument;
	var strId = "hotspot."+hotspotid;
	var hotspot = svgDocument.getElementById(strId);
	if(hotspot)
		hotspot.setAttribute("opacity","0");

	var toolTip = svgDocument.getElementById('ToolTip');
	if(toolTip)
		toolTip.setAttribute("visibility","hidden");
}
function ShowToolTip(evt,hotspotid,strTooltip)
{
	if(strTooltip=="")
	return;

	// change text
	var svgDocument = evt.target.ownerDocument;
	var tiptext = svgDocument.getElementById('ToolTipText');
	if( !tiptext )
	return;
	tiptext.firstChild.nodeValue = " " + strTooltip + "  " ;

	// show tooltip before, else some refresh issue

	var toolTip = svgDocument.getElementById('ToolTip');
	if(!toolTip)
	return;

	toolTip.setAttribute("visibility","visible");
	toolTip.setAttribute("opacity",".95");

	// move tooltip
	// get viewbox

	var root = svgDocument.documentElement;
	var vbox = (root.getAttribute("viewBox")).split(' ');
	var x0 = parseFloat(vbox[0]);
	var y0 = parseFloat(vbox[1]);
	var vboxW = parseFloat(vbox[2]);
	var vboxH = parseFloat(vbox[3]);

	// get default width of svg

	var strW = root.getAttribute("width");
	var svgW = parseFloat(strW);
	if(strW.indexOf('mm') != -1)
	svgW *= 3.779;

	var strH = root.getAttribute("height");
	var svgH = parseFloat(strH);
	if(strH.indexOf('mm') != -1)
	svgH *= 3.779;  	// 96 dpi  -> 96/25.4 = 3.779

	// update the viewbox / width / height if svg is embedded in html with zoom fit all
	var realx0 = x0;
	var realy0 = y0;
	var realvboxW = vboxW;
	var realvboxH = vboxH;
	var realsvgW = svgW;
	var realsvgH = svgH;

	if ((typeof(top) == "undefined") || (typeof(top.svgctl1) != "undefined")) // embedded in html
	{
		// get window size in pxl

		svgW = window.innerWidth;
		svgH = window.innerHeight;

		// calculate real viewbox

		realsvgW = svgW;
		realsvgH = svgH;
		if((svgW / svgH) > (vboxW / vboxH))
		{
			realvboxW = (vboxH * svgW) / svgH;
			realvboxH = vboxH;
			realx0 = x0 - (realvboxW - vboxW)/2 ;
		}
		else
		{
			realvboxH = (vboxW * svgH) / svgW;
			realvboxW = vboxW;
			realy0 = y0 - (realvboxH - vboxH)/2 ;
		}
	}

	// get user zoom/pan

	var newScale = root.currentScale;
	var translation = root.currentTranslate;

	// transform pxl to user unit

	var xPos = (((evt.clientX+10- translation.x)/newScale) * realvboxW)/realsvgW  + realx0 ;
	var yPos = (((evt.clientY+5- translation.y)/newScale) * realvboxH)/ realsvgH  + realy0 ;
	var scaleForWidth = ( (1 / newScale) * realvboxH) / realsvgH;

	// move tooltip

	toolTip.setAttribute("transform", "translate(" + xPos + "," + yPos + ")" );

	// resize tooltip

	var fontsize = 12;
	tiptext.setAttribute("font-size",fontsize*scaleForWidth);
	tiptext.setAttribute("y", fontsize*scaleForWidth);
	var tipBG = svgDocument.getElementById('ToolTipBG');
	var outline = tiptext.getBBox();
	if(tipBG)
	{
		tipBG.setAttribute("stroke-width", 1*scaleForWidth);
		tipBG.setAttribute("width", Number(outline.width) );
		tipBG.setAttribute("height", Number(outline.height) + fontsize*.5*scaleForWidth );
	}
	var ToolTipShadow = svgDocument.getElementById('ToolTipShadow');
	if(ToolTipShadow)
	{
		ToolTipShadow.setAttribute("width", Number(outline.width) );
		ToolTipShadow.setAttribute("height", Number(outline.height) + fontsize*.5*scaleForWidth );
		ToolTipShadow.setAttribute("x", 3*scaleForWidth);
		ToolTipShadow.setAttribute("y", 3*scaleForWidth);
	}
}
function ShowPaper()
{
  var svgDocument = getDocument();
  var paper = svgDocument.getElementById("paperID");
  if(paper)
  {
    paper.setAttribute("transform","scale(1)");
    paper.setAttribute("opacity","1");
    paper.setAttribute("visibility","visible");
  }
  var svg = svgDocument.getRootElement();
  if(svg)
  {
    svg.setAttribute("width","220.000mm");
    svg.setAttribute("height","160.000mm");
    svg.setAttribute("viewBox","-5.000000 -5.000000 220.000000 160.000000");
  }
}
]]></script><defs/><g><path style="fill:#ffffff" d="M209.93,149.99L0.04,149.99L0.04,0.04L209.93,0.04z"/><path style="fill:#8aa7bf" d="M76.75,46.79L77.75,47.44L78.15,48.19L78.23,48.74L78.39,48.83L78.91,49.58L78.91,52.30L78.74,52.63L78.03,53.57L76.97,54.28L75.34,54.28L75.11,54.15L74.81,54.28L73.45,54.28L72.57,53.76L72.19,53.26L72.06,52.76L72.05,51.14L72.63,49.57L73.21,48.63L74.10,47.61L75.18,46.93L75.98,46.67z"/><path style="fill:#8aa7bf" d="M76.75,69.48L77.75,70.13L78.15,70.87L78.23,71.42L78.54,71.62L79.03,72.39L79.03,74.85L78.65,75.48L77.84,76.44L76.97,76.97L75.34,76.96L75.11,76.83L74.81,76.96L73.83,77.10L72.70,76.57L72.19,75.94L72.06,75.31L72.05,73.96L72.57,72.44L73.21,71.31L74.17,70.24L75.19,69.61L75.87,69.36z"/><path style="fill:#8aa7bf" d="M81.69,91.02L82.33,91.90L82.33,92.98L82.19,93.21L73.67,98.13L72.81,98.13L72.32,97.73L71.92,96.99L71.92,95.99L73.03,95.21L80.76,90.76L81.19,90.76z"/><path style="fill:#8aa7bf" d="M81.82,102.17L82.33,102.93L82.28,104.20L73.54,109.28L73.07,109.28L72.32,108.76L72.05,108.39L71.92,108.01L71.92,107.02L72.82,106.40L80.76,101.79L81.19,101.79z"/><path style="fill:#2ac7ce" d="M66.24,30.19L66.24,66.50L58.96,70.75L58.50,70.76L54.95,68.72L54.95,32.27L62.26,28.03L62.55,28.03z"/><path style="fill:#01ff02" d="M57.00,35.63L57.50,36.41L57.50,36.84L57.31,37.05L56.98,37.06L56.48,36.65L56.34,36.42L56.34,35.56L56.86,35.51z"/><path style="fill:#01ff02" d="M62.99,42.18L63.07,43.17L62.81,43.68L62.27,44.15L61.67,44.14L61.54,44.01L61.53,43.29L61.86,42.60L62.38,42.10z"/><path style="fill:#01ff02" d="M57.00,46.66L57.49,47.43L57.45,48.07L56.85,48.07L56.34,47.44L56.34,46.58L56.86,46.54z"/><path style="fill:#01ff02" d="M77.39,51.41L77.21,51.74L76.62,52.43L76.61,51.78L77.14,51.03L77.39,50.85z"/><path style="fill:#01ff02" d="M57.00,63.26L57.50,64.03L57.50,64.46L57.31,64.68L56.98,64.68L56.61,64.41L56.34,63.91L56.34,63.18L56.86,63.14z"/><path style="fill:#01ff02" d="M63.08,64.91L63.07,65.86L62.81,66.36L62.27,66.83L61.67,66.82L61.54,66.69L61.53,66.09L61.99,65.16L62.38,64.79L62.95,64.78z"/><path style="fill:#01ff02" d="M77.39,74.09L77.21,74.43L76.62,75.11L76.61,74.58L77.01,73.84L77.22,73.64L77.38,73.65z"/><path style="fill:#01ff02" d="M72.94,96.48L73.33,97.24L73.19,97.66L72.82,97.61L72.44,97.23L72.25,96.60L72.40,96.34L72.69,96.33z"/><path style="fill:#01ff02" d="M73.09,107.73L73.33,108.26L73.29,108.64L72.81,108.65L72.57,108.50L72.27,107.73L72.52,107.35L72.69,107.35z"/><path style="fill:#999999" d="M92.21,55.92L92.55,56.34L93.10,56.42L93.35,56.56L93.86,57.06L94.36,57.19L94.88,57.56L96.40,58.32L96.77,58.84L97.03,60.11L96.90,61.04L96.35,62.64L95.38,64.08L94.88,64.46L94.19,64.92L93.44,65.18L92.71,65.18L90.95,64.15L90.69,63.91L89.93,63.65L89.55,63.27L88.67,62.88L88.28,62.51L87.52,62.25L87.27,62.00L86.77,61.75L86.24,61.13L86.12,60.75L86.12,58.88L86.59,57.44L87.46,56.17L88.28,55.46L88.87,55.04L89.25,54.91L90.44,54.90z"/><path style="fill:#999999" d="M92.21,78.60L92.55,79.02L93.10,79.11L93.35,79.24L93.86,79.74L94.36,79.87L94.88,80.24L96.40,81.01L96.66,81.38L97.02,82.28L97.02,83.08L96.50,84.93L96.14,85.74L95.27,86.90L94.19,87.60L93.44,87.86L92.83,87.86L91.07,86.96L90.69,86.59L89.93,86.33L89.55,85.95L88.67,85.57L88.28,85.19L87.52,84.94L87.27,84.69L86.77,84.43L86.24,83.81L86.12,83.43L86.12,81.56L86.50,80.42L87.46,78.84L88.61,77.84L89.25,77.59L90.44,77.59z"/><path style="fill:#2ac7ce" d="M138.34,27.78L139.23,28.54L140.10,29.70L140.61,30.96L145.30,60.23L145.30,81.31L144.41,81.82L144.03,81.91L130.23,73.91L129.07,71.90L129.08,25.17L131.45,23.85L131.62,23.85z"/><path style="fill:#2ac7ce" d="M51.79,76.70L53.18,77.59L54.08,78.59L54.70,79.62L55.08,80.89L59.77,110.41L59.76,130.72L58.83,131.31L58.24,131.33L39.62,120.54L38.49,118.64L38.48,106.53L39.45,105.96L39.75,105.96L41.28,106.87L41.52,106.92L41.53,104.95L41.39,104.70L41.28,105.14L40.20,105.85L40.02,105.85L38.48,104.96L38.30,79.61L39.56,78.86L41.53,79.91L41.53,77.96L41.39,77.71L41.26,78.14L40.21,78.75L39.89,78.73L38.35,77.85L38.35,71.81L40.72,70.48L41.01,70.48z"/><path style="fill:#f2f2f2" d="M100.95,23.11L102.22,23.36L114.76,30.58L115.65,31.21L116.80,33.74L117.17,35.52L121.22,71.26L122.36,73.92L122.62,75.06L122.63,99.19L113.00,104.78L112.74,104.85L111.34,104.08L111.23,102.67L103.23,97.99L103.10,58.72L96.60,54.95L96.51,43.25L91.28,40.25L91.32,27.08L98.62,22.85z"/><path style="fill:#ffffff" d="M132.39,39.82L132.89,40.84L132.89,41.27L132.39,40.84L131.86,39.84L131.87,39.44z"/><path style="fill:#ffffff" d="M132.39,50.84L132.89,51.87L132.88,52.30L132.64,52.26L131.99,51.24L131.81,50.49L131.87,50.47z"/><path style="fill:#ffffff" d="M140.12,58.21L140.12,58.50L140.00,58.47L139.84,58.21L139.84,57.83z"/><path style="fill:#ffffff" d="M92.09,57.90L91.96,58.01L91.94,57.60L92.08,57.31z"/><path style="fill:#ffffff" d="M95.76,59.22L95.75,60.15L95.37,61.29L94.88,62.06L93.99,63.07L92.93,63.79L92.28,63.82L92.32,63.58L93.48,62.69L94.30,61.74L94.74,61.03L95.25,59.51L95.34,58.70L95.50,58.68z"/><path style="fill:#ffffff" d="M93.37,58.25L92.91,58.72L92.67,58.76L92.81,58.22L93.19,57.93L93.35,57.94z"/><path style="fill:#ffffff" d="M87.26,59.64L87.52,58.62L88.02,57.61L88.73,56.67L89.66,55.96L90.33,55.81L90.33,55.95L89.63,56.43L88.98,57.18L88.24,58.46L87.77,60.02L87.77,61.26L87.53,61.25L87.26,60.49z"/><path style="fill:#ffffff" d="M90.82,57.24L90.25,57.81L89.42,59.26L88.92,60.79L88.53,61.05L88.53,59.89L89.00,58.46L89.99,57.05L90.82,56.56z"/><path style="fill:#ffffff" d="M91.05,62.07L90.91,62.07L90.94,61.41L91.21,61.25z"/><path style="fill:#ffffff" d="M90.19,62.44L89.88,62.44L89.88,62.13L90.19,62.13z"/><path style="fill:#ffffff" d="M94.49,59.64L93.98,60.91L93.17,61.99L92.20,62.81L92.33,61.92L93.10,61.04L93.92,59.46L94.33,59.07L94.48,59.08z"/><path style="fill:#ffffff" d="M132.52,67.57L132.88,68.34L132.89,68.89L132.39,68.46L131.86,67.46L131.87,67.07z"/><path style="fill:#ffffff" d="M139.98,69.08L140.12,69.52L140.00,69.50L139.80,68.98z"/><path style="fill:#ffffff" d="M92.09,80.58L91.95,80.69L91.94,80.43L92.08,79.99z"/><path style="fill:#ffffff" d="M95.76,81.90L95.75,82.83L95.63,83.34L94.96,84.69L93.99,85.76L92.93,86.47L92.28,86.50L92.32,86.26L93.29,85.56L94.20,84.57L94.87,83.46L95.13,82.84L95.34,81.38L95.50,81.36z"/><path style="fill:#ffffff" d="M93.37,80.93L92.71,81.57L92.70,81.17L92.95,80.79L93.19,80.61L93.35,80.63z"/><path style="fill:#ffffff" d="M87.26,82.45L87.51,81.30L88.16,80.05L89.00,79.11L89.75,78.61L90.33,78.49L90.33,78.64L89.93,78.91L88.73,80.24L88.02,81.68L87.77,82.96L87.77,83.98L87.53,83.94L87.26,83.17z"/><path style="fill:#ffffff" d="M90.82,79.92L90.07,80.82L89.63,81.52L88.92,83.47L88.53,83.73L88.53,82.57L88.91,81.44L89.68,80.18L90.69,79.26L90.82,79.24z"/><path style="fill:#ffffff" d="M91.24,84.01L91.05,84.74L90.91,84.75L90.93,84.21L91.14,83.91z"/><path style="fill:#ffffff" d="M90.18,85.12L89.88,85.12L89.88,84.82L90.19,84.69z"/><path style="fill:#ffffff" d="M94.49,82.46L93.69,84.06L92.85,84.99L92.20,85.50L92.28,84.68L93.35,83.34L93.98,82.07L94.50,81.78z"/><path style="fill:#ffffff" d="M47.11,88.73L47.87,90.01L47.86,90.31L47.60,90.28L47.36,90.13L46.84,89.26L46.84,88.48z"/><path style="fill:#ffffff" d="M47.12,99.74L47.87,101.04L47.86,101.34L47.48,101.29L46.97,100.53L46.84,100.28L46.80,99.63L46.96,99.62z"/><path style="fill:#ffffff" d="M54.57,107.35L54.71,107.79L54.59,107.76L54.39,107.25z"/><path style="fill:#ffffff" d="M47.12,116.34L47.87,117.64L47.86,117.93L47.60,117.91L46.96,117.13L46.84,116.76L46.80,116.23L46.96,116.22z"/><path style="fill:#ffffff" d="M54.70,118.63L54.84,119.07L54.72,119.04L54.52,118.52z"/><path style="stroke:#000000;stroke-width:0.088" d="M87.03,84.62L86.99,84.59L86.54,84.22"/><path style="stroke:#000000;stroke-width:0.088" d="M88.23,85.16L88.17,85.16L87.59,84.94L87.54,84.91L87.49,84.88L87.04,84.45L87.00,84.41L86.69,83.81L86.67,83.76L86.52,82.96L86.57,83.02L86.64,83.07L86.74,83.11L86.86,83.12L86.91,83.12L87.02,83.10L87.12,83.06L87.19,83.00L87.23,82.94"/><path style="stroke:#000000;stroke-width:0.088" d="M86.30,80.93L86.22,81.14L86.18,81.31L86.04,82.02L86.02,82.83L86.02,82.87L86.17,83.57L86.19,83.62L86.50,84.17L86.54,84.21"/><path style="stroke:#000000;stroke-width:0.088" d="M91.56,78.33L91.47,78.20L91.43,78.15L91.39,78.12L90.92,77.85L90.87,77.83L90.82,77.82L90.25,77.76L90.20,77.76L89.57,77.92L89.53,77.94L88.88,78.30L88.23,78.86L87.66,79.55L87.20,80.30L87.16,80.35L86.80,81.21L86.58,82.07L86.58,82.09L86.52,82.89L86.52,82.96"/><path style="stroke:#000000;stroke-width:0.088" d="M86.16,81.42L86.16,81.41"/><path style="stroke:#000000;stroke-width:0.088" d="M86.20,81.26L86.19,81.27"/><path style="stroke:#000000;stroke-width:0.088" d="M86.48,80.46L86.50,80.41L86.22,81.16L86.22,81.15"/><path style="stroke:#000000;stroke-width:0.088" d="M86.55,80.28L86.50,80.41L86.55,80.29"/><path style="stroke:#000000;stroke-width:0.088" d="M87.92,78.40L87.86,78.44L87.15,79.25L86.64,80.11"/><path style="stroke:#000000;stroke-width:0.088" d="M88.04,84.75L87.83,84.65L87.35,84.03L87.13,83.18L87.12,83.06L87.23,82.03L87.60,80.95L88.17,79.94L88.90,79.10L89.69,78.52L90.47,78.26L91.14,78.36L91.15,78.37"/><path style="stroke:#000000;stroke-width:0.088" d="M87.04,84.62L87.09,84.65L87.31,84.71"/><path style="stroke:#000000;stroke-width:0.088" d="M87.61,84.03L87.36,83.56"/><path style="stroke:#000000;stroke-width:0.088" d="M87.36,83.57L87.23,82.91"/><path style="stroke:#000000;stroke-width:0.088" d="M87.28,82.21L87.23,82.94"/><path style="stroke:#000000;stroke-width:0.088" d="M87.27,82.23L87.47,81.46L87.79,80.69L88.23,79.98L88.74,79.36"/><path style="stroke:#000000;stroke-width:0.088" d="M89.39,85.86L89.34,85.85L88.76,85.61L88.71,85.59L88.67,85.55L88.22,85.11L88.19,85.07L87.87,84.40L87.73,83.60L87.77,82.76L87.97,81.86L88.31,80.99L88.55,80.53L89.06,79.78L89.64,79.15L89.67,79.13L90.28,78.67L90.89,78.41L90.94,78.39L91.56,78.33L91.62,78.34L91.85,78.39L91.90,78.41L92.34,78.67L92.38,78.71L92.42,78.75L92.61,79.05"/><path style="stroke:#000000;stroke-width:0.088" d="M88.28,85.17L88.23,85.16"/><path style="stroke:#000000;stroke-width:0.088" d="M87.80,83.97L87.58,83.99"/><path style="stroke:#000000;stroke-width:0.088" d="M87.84,84.24L87.59,84.01"/><path style="stroke:#000000;stroke-width:0.088" d="M87.81,84.12L87.66,84.07"/><path style="stroke:#000000;stroke-width:0.088" d="M87.82,84.10L87.78,84.11"/><path style="stroke:#000000;stroke-width:0.088" d="M89.24,85.43L88.92,85.24L88.77,85.06L88.42,84.30L88.34,83.46L88.49,82.38L88.89,81.27L89.05,80.96L89.69,80.03L90.33,79.39L91.09,78.94L91.80,78.83L91.98,78.87L92.28,79.07"/><path style="stroke:#000000;stroke-width:0.088" d="M88.71,77.81L88.71,77.81L88.28,78.12L87.89,78.42"/><path style="stroke:#000000;stroke-width:0.088" d="M90.73,86.57L90.63,86.57L90.58,86.56L89.95,86.30L89.90,86.27L89.45,85.83L89.42,85.79L89.36,85.70L89.34,85.65L89.07,85.02L88.95,84.22"/><path style="stroke:#000000;stroke-width:0.088" d="M88.57,84.24L88.81,84.72"/><path style="stroke:#000000;stroke-width:0.088" d="M89.05,84.94L88.80,84.70"/><path style="stroke:#000000;stroke-width:0.088" d="M88.98,84.42L88.82,84.46"/><path style="stroke:#000000;stroke-width:0.088" d="M88.86,84.46L88.68,84.46"/><path style="stroke:#000000;stroke-width:0.088" d="M89.00,83.38L88.79,83.57L88.47,83.73"/><path style="stroke:#000000;stroke-width:0.088" d="M88.95,84.21L89.01,83.37L89.01,83.34L89.22,82.46L89.58,81.59L90.05,80.80L90.60,80.11L91.13,79.64L90.82,79.91"/><path style="stroke:#000000;stroke-width:0.088" d="M88.45,83.65L88.46,83.01L88.59,82.30"/><path style="stroke:#000000;stroke-width:0.088" d="M88.45,83.64L88.57,84.25"/><path style="stroke:#000000;stroke-width:0.088" d="M88.98,83.74L88.81,83.85L88.51,83.97"/><path style="stroke:#000000;stroke-width:0.088" d="M88.59,82.26L88.87,81.47L89.26,80.74L89.73,80.08L90.25,79.56"/><path style="stroke:#000000;stroke-width:0.088" d="M89.19,78.97L88.73,79.36"/><path style="stroke:#000000;stroke-width:0.088" d="M88.71,77.81L88.94,77.70L89.55,77.49L89.58,77.49L89.64,77.49L89.68,77.50"/><path style="stroke:#000000;stroke-width:0.088" d="M89.48,85.86L89.39,85.86"/><path style="stroke:#000000;stroke-width:0.088" d="M90.46,86.18L90.44,86.18L89.96,85.72L89.63,84.93L89.57,83.93L89.60,83.61L89.88,82.51L90.31,81.59L90.97,80.66L91.72,79.97L91.95,79.82L92.68,79.54L93.24,79.59L93.50,79.79"/><path style="stroke:#000000;stroke-width:0.088" d="M90.12,85.16L89.88,85.16"/><path style="stroke:#000000;stroke-width:0.088" d="M89.91,85.24L89.72,84.67"/><path style="stroke:#000000;stroke-width:0.088" d="M89.74,84.75L90.18,84.54"/><path style="stroke:#000000;stroke-width:0.088" d="M90.18,84.66L89.79,84.88"/><path style="stroke:#000000;stroke-width:0.088" d="M89.72,84.70L89.66,84.01L89.74,83.27"/><path style="stroke:#000000;stroke-width:0.088" d="M90.40,83.34L89.88,83.87L89.83,83.91L89.66,84.02"/><path style="stroke:#000000;stroke-width:0.088" d="M90.34,83.53L89.86,83.99L89.84,84.01L89.67,84.13"/><path style="stroke:#000000;stroke-width:0.088" d="M90.30,83.70L89.93,84.00L89.67,84.14"/><path style="stroke:#000000;stroke-width:0.088" d="M91.50,80.24L90.97,80.76L90.50,81.40L90.31,81.72L89.97,82.48L89.74,83.28"/><path style="stroke:#000000;stroke-width:0.088" d="M89.80,83.07L89.95,82.93L90.45,82.27L90.86,81.55L91.14,80.80L91.20,80.54"/><path style="stroke:#000000;stroke-width:0.088" d="M89.26,78.90L89.82,78.59"/><path style="stroke:#000000;stroke-width:0.088" d="M90.31,78.47L89.81,78.60"/><path style="stroke:#000000;stroke-width:0.088" d="M89.64,77.49L90.19,77.50"/><path style="stroke:#000000;stroke-width:0.088" d="M93.06,79.91L93.02,79.93L92.74,80.07L92.12,80.52L92.10,80.55L91.51,81.17L91.00,81.91L90.59,82.76L90.31,83.63L90.18,84.53L90.21,85.34L90.21,85.38L90.41,86.08L90.51,86.28L90.94,86.83"/><path style="stroke:#000000;stroke-width:0.088" d="M90.20,85.12L90.08,85.16"/><path style="stroke:#000000;stroke-width:0.088" d="M90.21,85.63L89.90,85.21"/><path style="stroke:#000000;stroke-width:0.088" d="M90.29,85.65L90.18,85.58"/><path style="stroke:#000000;stroke-width:0.088" d="M90.43,81.51L90.16,82.08L90.13,82.11"/><path style="stroke:#000000;stroke-width:0.088" d="M90.94,79.14L90.41,79.43L90.24,79.57"/><path style="stroke:#000000;stroke-width:0.088" d="M90.49,78.49L90.54,78.56"/><path style="stroke:#000000;stroke-width:0.088" d="M90.65,78.51L90.28,78.47"/><path style="stroke:#000000;stroke-width:0.088" d="M90.31,77.52L90.66,77.69L90.22,77.50L90.31,77.52"/><path style="stroke:#000000;stroke-width:0.088" d="M90.70,77.70L90.66,77.69L90.77,77.74L90.81,77.77"/><path style="stroke:#000000;stroke-width:0.088" d="M90.22,77.50L90.21,77.50"/><path style="stroke:#000000;stroke-width:0.088" d="M90.94,86.83L90.99,86.87L91.52,87.18L91.57,87.20L91.67,87.22"/><path style="stroke:#000000;stroke-width:0.088" d="M92.18,87.58L92.13,87.56L91.61,87.17L91.58,87.13L91.25,86.60L91.23,86.55L91.07,85.86L91.06,85.82L91.06,85.01L91.20,84.28L91.16,84.51"/><path style="stroke:#000000;stroke-width:0.088" d="M94.68,80.40L94.59,80.34L93.96,80.24L93.22,80.49L92.56,80.98L91.86,81.78L91.66,82.07L91.14,83.13L90.83,84.23L90.78,85.15L90.97,86.05L91.08,86.27L91.20,86.40"/><path style="stroke:#000000;stroke-width:0.088" d="M91.06,85.43L90.97,85.46"/><path style="stroke:#000000;stroke-width:0.088" d="M91.06,85.57L91.01,85.60"/><path style="stroke:#000000;stroke-width:0.088" d="M90.92,85.33L90.88,84.62L90.98,83.88"/><path style="stroke:#000000;stroke-width:0.088" d="M91.06,85.75L90.92,85.30"/><path style="stroke:#000000;stroke-width:0.088" d="M91.12,84.71L90.90,84.84"/><path style="stroke:#000000;stroke-width:0.088" d="M95.88,80.73L95.80,80.65L95.76,80.61L95.71,80.59L95.19,80.39L95.14,80.38L94.54,80.41L94.49,80.41L93.81,80.66L93.17,81.10L92.53,81.71L91.99,82.45L91.54,83.26L91.23,84.13L91.20,84.29"/><path style="stroke:#000000;stroke-width:0.088" d="M91.20,84.28L91.23,84.14L91.20,84.28"/><path style="stroke:#000000;stroke-width:0.088" d="M91.50,83.38L91.23,83.71L90.98,83.93"/><path style="stroke:#000000;stroke-width:0.088" d="M91.42,83.59L91.32,83.72L91.06,84.00L90.96,84.08"/><path style="stroke:#000000;stroke-width:0.088" d="M90.98,83.88L91.22,83.09L91.58,82.33L92.03,81.65L92.55,81.09"/><path style="stroke:#000000;stroke-width:0.088" d="M90.86,79.88L90.87,79.72L90.85,79.19"/><path style="stroke:#000000;stroke-width:0.088" d="M91.23,79.56L91.23,79.55L91.13,79.64L91.23,79.55"/><path style="stroke:#000000;stroke-width:0.088" d="M91.23,79.55L91.68,79.28L91.73,79.26L92.33,79.05L92.38,79.05L92.93,79.06L92.99,79.07L93.04,79.09L93.45,79.28L93.49,79.32L93.85,79.75"/><path style="stroke:#000000;stroke-width:0.088" d="M90.92,79.15L91.39,79.03"/><path style="stroke:#000000;stroke-width:0.088" d="M91.75,79.10L91.76,79.10L91.36,79.04"/><path style="stroke:#000000;stroke-width:0.088" d="M90.82,79.20L90.85,79.31"/><path style="stroke:#000000;stroke-width:0.088" d="M91.28,79.52L91.28,79.47"/><path style="stroke:#000000;stroke-width:0.088" d="M91.29,79.50L91.18,79.08"/><path style="stroke:#000000;stroke-width:0.088" d="M90.82,77.77L90.86,77.82"/><path style="stroke:#000000;stroke-width:0.088" d="M96.40,84.86L96.50,84.89L96.58,84.93L96.34,84.86L96.37,84.86L96.40,84.86L96.47,84.74L96.84,83.69L96.94,82.82L96.95,82.81L96.96,82.79L96.97,82.74L96.98,82.35L96.78,81.60L96.31,81.07L95.63,80.86L94.91,80.98L94.05,81.44L93.23,82.19L92.51,83.16L92.04,84.12L91.72,85.23L91.67,86.26L91.88,87.10L92.17,87.47L91.99,87.30L91.91,87.14"/><path style="stroke:#000000;stroke-width:0.088" d="M92.17,87.47L92.29,87.63L92.94,87.91L93.73,87.83L94.54,87.45L94.27,87.58L93.76,87.82"/><path style="stroke:#000000;stroke-width:0.088" d="M92.27,87.60L92.18,87.58"/><path style="stroke:#000000;stroke-width:0.088" d="M91.60,85.08L91.55,85.90L91.68,86.66L91.82,86.96"/><path style="stroke:#000000;stroke-width:0.088" d="M91.73,86.75L91.88,87.10L92.04,87.32L92.03,87.31"/><path style="stroke:#000000;stroke-width:0.088" d="M92.52,86.89L92.52,86.89L92.25,86.37L92.16,85.56"/><path style="stroke:#000000;stroke-width:0.088" d="M92.16,85.57L92.31,84.63L92.69,83.67L93.27,82.76L93.90,82.09L94.66,81.58L95.41,81.36L96.08,81.47L96.57,81.90L96.88,82.68L96.92,82.80L96.93,82.81L96.94,82.82L96.94,82.82"/><path style="stroke:#000000;stroke-width:0.088" d="M92.87,85.02L92.27,85.47L92.18,85.52"/><path style="stroke:#000000;stroke-width:0.088" d="M91.60,85.08L91.81,84.20L92.16,83.34L92.63,82.54L93.19,81.84"/><path style="stroke:#000000;stroke-width:0.088" d="M92.18,85.44L92.17,85.66"/><path style="stroke:#000000;stroke-width:0.088" d="M91.88,79.98L91.82,80.69L91.75,80.91"/><path style="stroke:#000000;stroke-width:0.088" d="M91.99,79.93L91.99,80.15L91.87,80.79"/><path style="stroke:#000000;stroke-width:0.088" d="M92.13,80.51L92.17,80.07"/><path style="stroke:#000000;stroke-width:0.088" d="M91.48,80.26L91.93,79.95L92.45,79.75"/><path style="stroke:#000000;stroke-width:0.088" d="M92.18,80.10L92.18,80.11L92.14,79.87"/><path style="stroke:#000000;stroke-width:0.088" d="M91.79,79.24L91.75,79.14"/><path style="stroke:#000000;stroke-width:0.088" d="M91.86,79.22L91.68,79.09"/><path style="stroke:#000000;stroke-width:0.088" d="M92.29,87.63L92.42,87.70L92.94,87.91"/><path style="stroke:#000000;stroke-width:0.088" d="M92.52,86.89L93.02,87.25L93.68,87.29L94.43,87.02L94.99,86.60L94.99,86.60"/><path style="stroke:#000000;stroke-width:0.088" d="M92.61,86.96L92.90,87.03"/><path style="stroke:#000000;stroke-width:0.088" d="M94.49,86.32L93.89,86.73L93.34,86.96L92.85,87.01"/><path style="stroke:#000000;stroke-width:0.088" d="M92.57,86.93L92.50,86.87"/><path style="stroke:#000000;stroke-width:0.088" d="M93.09,87.25L92.97,87.21"/><path style="stroke:#000000;stroke-width:0.088" d="M92.23,86.16L92.29,86.14L93.18,85.58L93.88,84.89L94.55,83.93L94.71,83.63L95.10,82.59L95.22,81.64L95.18,81.43"/><path style="stroke:#000000;stroke-width:0.088" d="M93.35,85.52L92.81,85.96L92.24,86.28"/><path style="stroke:#000000;stroke-width:0.088" d="M92.79,86.50L92.35,86.57"/><path style="stroke:#000000;stroke-width:0.088" d="M93.99,85.81L93.38,86.24L92.78,86.50"/><path style="stroke:#000000;stroke-width:0.088" d="M93.74,82.27L93.60,82.69L93.03,83.71L92.37,84.49"/><path style="stroke:#000000;stroke-width:0.088" d="M92.31,84.66L92.41,84.57L93.01,83.86L93.50,83.06L93.84,82.28L93.87,82.15"/><path style="stroke:#000000;stroke-width:0.088" d="M94.51,82.35L94.26,83.07L93.91,83.75L93.43,84.43L92.86,85.02"/><path style="stroke:#000000;stroke-width:0.088" d="M92.69,83.66L92.58,83.95"/><path style="stroke:#000000;stroke-width:0.088" d="M92.67,81.00L92.53,81.60L92.45,81.82"/><path style="stroke:#000000;stroke-width:0.088" d="M92.78,80.92L92.69,81.36L92.56,81.68"/><path style="stroke:#000000;stroke-width:0.088" d="M93.36,80.55L93.06,80.71L92.54,81.10"/><path style="stroke:#000000;stroke-width:0.088" d="M92.74,80.07L92.72,79.76"/><path style="stroke:#000000;stroke-width:0.088" d="M92.87,80.00L92.87,79.82L92.86,79.80"/><path style="stroke:#000000;stroke-width:0.088" d="M93.07,79.91L93.04,79.87L92.77,79.76"/><path style="stroke:#000000;stroke-width:0.088" d="M92.81,79.75L92.40,79.77"/><path style="stroke:#000000;stroke-width:0.088" d="M96.10,83.89L95.78,84.62L95.57,84.96L94.85,85.87L94.00,86.58L93.15,86.98"/><path style="stroke:#000000;stroke-width:0.088" d="M93.34,86.96L93.34,86.96"/><path style="stroke:#000000;stroke-width:0.088" d="M93.58,87.29L93.70,87.29"/><path style="stroke:#000000;stroke-width:0.088" d="M93.50,85.40L94.12,84.70L94.63,83.93L94.79,83.62L95.12,82.80L95.30,81.97L95.31,81.39"/><path style="stroke:#000000;stroke-width:0.088" d="M93.64,82.36L94.04,82.00"/><path style="stroke:#000000;stroke-width:0.088" d="M93.20,81.83L93.84,81.26L94.49,80.88L94.53,80.86L95.17,80.68L95.23,80.67L95.80,80.71L95.85,80.72L95.91,80.74L96.38,80.99L96.43,81.03L96.46,81.07L96.80,81.52L96.82,81.57L97.01,82.18L97.02,82.23L97.04,82.96L96.88,83.81"/><path style="stroke:#000000;stroke-width:0.088" d="M93.38,80.96L93.39,80.74L93.37,80.56"/><path style="stroke:#000000;stroke-width:0.088" d="M93.38,80.57L93.37,80.55"/><path style="stroke:#000000;stroke-width:0.088" d="M93.81,80.44L93.34,80.56"/><path style="stroke:#000000;stroke-width:0.088" d="M93.06,79.91L93.65,79.74L93.71,79.74L94.24,79.79L94.30,79.80"/><path style="stroke:#000000;stroke-width:0.088" d="M93.07,79.88L93.04,79.87L93.04,79.87"/><path style="stroke:#000000;stroke-width:0.088" d="M94.58,87.43L94.54,87.45L94.58,87.42L95.29,86.84L96.04,85.93L96.58,84.93"/><path style="stroke:#000000;stroke-width:0.088" d="M94.43,87.02L94.40,87.03"/><path style="stroke:#000000;stroke-width:0.088" d="M94.29,87.07L94.78,86.76"/><path style="stroke:#000000;stroke-width:0.088" d="M94.48,86.32L95.07,85.73"/><path style="stroke:#000000;stroke-width:0.088" d="M94.48,86.33L94.48,86.32"/><path style="stroke:#000000;stroke-width:0.088" d="M94.54,86.26L95.03,85.78L95.54,85.09L95.93,84.36L96.20,83.62"/><path style="stroke:#000000;stroke-width:0.088" d="M95.71,83.12L95.45,83.85L95.06,84.57L94.56,85.24L93.99,85.81"/><path style="stroke:#000000;stroke-width:0.088" d="M94.50,82.37L94.61,81.70L94.61,81.61"/><path style="stroke:#000000;stroke-width:0.088" d="M93.97,80.61L93.92,80.47"/><path style="stroke:#000000;stroke-width:0.088" d="M94.09,80.56L94.08,80.49"/><path style="stroke:#000000;stroke-width:0.088" d="M94.16,80.53L94.10,80.49"/><path style="stroke:#000000;stroke-width:0.088" d="M93.77,80.45L94.18,80.50"/><path style="stroke:#000000;stroke-width:0.088" d="M95.00,80.39L94.81,80.12L94.78,80.07L94.73,80.04L94.35,79.82L94.30,79.80"/><path style="stroke:#000000;stroke-width:0.088" d="M95.31,86.31L95.19,86.45L94.99,86.60L95.31,86.31L95.73,85.82L95.71,85.84"/><path style="stroke:#000000;stroke-width:0.088" d="M95.91,85.59L95.73,85.82L95.88,85.64L96.30,84.96L96.34,84.86"/><path style="stroke:#000000;stroke-width:0.088" d="M95.79,85.75L95.79,85.75"/><path style="stroke:#000000;stroke-width:0.088" d="M95.88,85.64L95.89,85.64"/><path style="stroke:#000000;stroke-width:0.088" d="M96.33,84.89L95.97,85.50"/><path style="stroke:#000000;stroke-width:0.088" d="M95.71,83.14L95.82,82.46"/><path style="stroke:#000000;stroke-width:0.088" d="M95.78,81.89L95.82,82.47L95.85,82.54L95.91,82.60L96.00,82.64L96.11,82.67L96.22,82.67L96.32,82.65"/><path style="stroke:#000000;stroke-width:0.088" d="M96.19,81.88L95.95,81.56"/><path style="stroke:#000000;stroke-width:0.088" d="M95.66,81.41L95.99,81.58L95.99,81.58"/><path style="stroke:#000000;stroke-width:0.088" d="M95.32,81.39L95.71,81.41"/><path style="stroke:#000000;stroke-width:0.088" d="M95.41,81.36L95.42,81.36"/><path style="stroke:#000000;stroke-width:0.088" d="M95.54,81.40L95.65,81.51"/><path style="stroke:#000000;stroke-width:0.088" d="M95.78,81.91L95.61,81.47"/><path style="stroke:#000000;stroke-width:0.088" d="M96.50,81.18L96.31,81.07L96.02,80.95"/><path style="stroke:#000000;stroke-width:0.088" d="M96.88,83.81L96.59,84.64L96.46,84.88"/><path style="stroke:#000000;stroke-width:0.088" d="M96.19,83.65L96.32,82.94L96.31,82.32"/><path style="stroke:#000000;stroke-width:0.088" d="M96.32,82.35L96.17,81.86"/><path style="stroke:#000000;stroke-width:0.088" d="M86.52,61.52L86.49,61.48L86.18,60.93L86.16,60.88L86.01,60.18L86.01,60.14L86.02,59.33L86.16,58.62L86.21,58.45L86.29,58.24"/><path style="stroke:#000000;stroke-width:0.088" d="M88.21,62.48L88.16,62.47L87.58,62.25L87.53,62.22L87.48,62.19L87.02,61.77L86.99,61.72L86.68,61.12L86.66,61.07L86.51,60.27L86.55,60.33L86.63,60.38L86.73,60.42L86.85,60.43L86.90,60.43L87.01,60.41L87.11,60.37L87.22,59.35L87.58,58.26L88.16,57.25L88.89,56.41L89.68,55.83L90.45,55.58L90.46,55.57L91.13,55.67L91.14,55.68"/><path style="stroke:#000000;stroke-width:0.088" d="M87.02,61.93L86.98,61.90L86.53,61.53"/><path style="stroke:#000000;stroke-width:0.088" d="M86.51,60.27L86.51,60.20L86.56,59.41L86.57,59.38L86.79,58.52L87.15,57.66L87.64,56.86L88.22,56.17L88.87,55.61L89.51,55.25L89.56,55.23L90.19,55.07L90.24,55.07L90.80,55.13L90.86,55.14L90.91,55.16L91.37,55.43L91.42,55.46L91.46,55.51L91.55,55.64"/><path style="stroke:#000000;stroke-width:0.088" d="M86.15,58.73L86.15,58.72"/><path style="stroke:#000000;stroke-width:0.088" d="M86.18,58.57L86.18,58.58"/><path style="stroke:#000000;stroke-width:0.088" d="M86.54,57.60L86.21,58.47L86.21,58.46"/><path style="stroke:#000000;stroke-width:0.088" d="M86.47,57.77L86.54,57.59L87.14,56.56L87.85,55.75L87.91,55.71"/><path style="stroke:#000000;stroke-width:0.088" d="M87.02,61.93L87.08,61.96L87.30,62.02"/><path style="stroke:#000000;stroke-width:0.088" d="M88.02,62.06L87.82,61.96L87.34,61.34L87.12,60.50L87.11,60.37L87.18,60.31L87.21,60.25"/><path style="stroke:#000000;stroke-width:0.088" d="M87.59,61.34L87.34,60.87"/><path style="stroke:#000000;stroke-width:0.088" d="M87.35,60.88L87.22,60.22"/><path style="stroke:#000000;stroke-width:0.088" d="M87.21,60.25L87.27,59.52"/><path style="stroke:#000000;stroke-width:0.088" d="M88.72,56.67L88.21,57.29L87.78,58.00L87.45,58.77L87.26,59.54"/><path style="stroke:#000000;stroke-width:0.088" d="M92.60,56.36L92.40,56.06L92.37,56.02L92.32,55.98L91.89,55.72L91.84,55.70L91.61,55.65L91.55,55.64L90.93,55.70L90.88,55.72L90.27,55.98L89.65,56.44L89.63,56.46L89.05,57.09L88.54,57.84L88.30,58.30L87.96,59.17L87.76,60.07L87.72,60.91L87.86,61.71L88.17,62.38L88.21,62.42L88.65,62.86L88.70,62.90L88.75,62.92L89.32,63.16L89.38,63.17"/><path style="stroke:#000000;stroke-width:0.088" d="M88.26,62.48L88.22,62.48"/><path style="stroke:#000000;stroke-width:0.088" d="M87.78,61.28L87.57,61.30"/><path style="stroke:#000000;stroke-width:0.088" d="M87.83,61.55L87.58,61.32"/><path style="stroke:#000000;stroke-width:0.088" d="M87.80,61.43L87.65,61.38"/><path style="stroke:#000000;stroke-width:0.088" d="M87.81,61.41L87.77,61.42"/><path style="stroke:#000000;stroke-width:0.088" d="M92.26,56.38L91.97,56.18L91.78,56.14L91.08,56.25L90.32,56.70L89.67,57.34L89.04,58.27L88.88,58.58L88.48,59.69L88.32,60.77L88.41,61.61L88.76,62.37L88.91,62.55L89.23,62.74"/><path style="stroke:#000000;stroke-width:0.088" d="M88.69,55.12L88.70,55.12L88.27,55.43L87.88,55.73"/><path style="stroke:#000000;stroke-width:0.088" d="M88.94,61.53L89.05,62.34L89.33,62.96L89.35,63.01L89.41,63.10L89.44,63.14L89.89,63.58L89.94,63.61L90.57,63.87L90.62,63.88L90.72,63.88"/><path style="stroke:#000000;stroke-width:0.088" d="M88.56,61.55L88.80,62.03"/><path style="stroke:#000000;stroke-width:0.088" d="M89.04,62.25L88.79,62.01"/><path style="stroke:#000000;stroke-width:0.088" d="M88.94,61.52L88.99,60.68L89.00,60.65L89.21,59.77L89.56,58.90L90.03,58.11L90.59,57.42L90.82,57.22L90.81,57.23"/><path style="stroke:#000000;stroke-width:0.088" d="M88.44,60.95L88.56,61.56"/><path style="stroke:#000000;stroke-width:0.088" d="M88.97,61.73L88.81,61.77"/><path style="stroke:#000000;stroke-width:0.088" d="M88.84,61.77L88.67,61.77"/><path style="stroke:#000000;stroke-width:0.088" d="M88.97,61.05L88.79,61.16L88.50,61.28"/><path style="stroke:#000000;stroke-width:0.088" d="M88.99,60.69L88.78,60.88L88.46,61.04"/><path style="stroke:#000000;stroke-width:0.088" d="M88.44,60.96L88.45,60.32L88.58,59.61"/><path style="stroke:#000000;stroke-width:0.088" d="M88.58,59.57L88.86,58.78L89.24,58.05L89.72,57.39L90.24,56.87"/><path style="stroke:#000000;stroke-width:0.088" d="M89.17,56.28L88.72,56.67"/><path style="stroke:#000000;stroke-width:0.088" d="M88.70,55.12L88.93,55.01L89.54,54.80L89.57,54.80L89.63,54.80L89.67,54.81"/><path style="stroke:#000000;stroke-width:0.088" d="M90.45,63.49L90.43,63.49L89.94,63.03L89.61,62.24L89.55,61.24L89.59,60.92L89.87,59.82L90.30,58.90L90.95,57.97L91.71,57.28L91.94,57.13L92.67,56.85L93.23,56.90L93.49,57.10"/><path style="stroke:#000000;stroke-width:0.088" d="M89.47,63.17L89.38,63.17"/><path style="stroke:#000000;stroke-width:0.088" d="M90.16,61.85L89.73,62.06"/><path style="stroke:#000000;stroke-width:0.088" d="M89.77,62.19L90.17,61.97"/><path style="stroke:#000000;stroke-width:0.088" d="M90.11,62.47L89.87,62.47"/><path style="stroke:#000000;stroke-width:0.088" d="M89.73,60.58L89.65,61.32L89.71,62.01"/><path style="stroke:#000000;stroke-width:0.088" d="M89.90,62.55L89.70,61.98"/><path style="stroke:#000000;stroke-width:0.088" d="M90.20,62.94L89.89,62.52"/><path style="stroke:#000000;stroke-width:0.088" d="M89.65,61.33L89.82,61.22L89.87,61.18L90.39,60.65"/><path style="stroke:#000000;stroke-width:0.088" d="M90.33,60.84L89.85,61.31L89.83,61.32L89.66,61.44"/><path style="stroke:#000000;stroke-width:0.088" d="M90.29,61.01L89.91,61.31L89.66,61.45"/><path style="stroke:#000000;stroke-width:0.088" d="M89.73,60.59L89.95,59.80L90.30,59.03L90.49,58.71L90.96,58.07L91.49,57.55"/><path style="stroke:#000000;stroke-width:0.088" d="M89.79,60.38L89.94,60.24L90.44,59.58L90.85,58.86L91.13,58.12L91.18,57.85"/><path style="stroke:#000000;stroke-width:0.088" d="M90.30,55.78L89.79,55.91"/><path style="stroke:#000000;stroke-width:0.088" d="M89.81,55.90L89.25,56.21"/><path style="stroke:#000000;stroke-width:0.088" d="M89.63,54.80L90.18,54.81"/><path style="stroke:#000000;stroke-width:0.088" d="M93.05,57.22L93.00,57.24L92.73,57.38L92.11,57.83L92.08,57.86L91.50,58.48L90.99,59.22L90.58,60.07L90.30,60.95L90.16,61.84L90.19,62.65L90.20,62.69L90.40,63.39L90.50,63.59L90.92,64.14"/><path style="stroke:#000000;stroke-width:0.088" d="M90.28,62.96L90.16,62.89"/><path style="stroke:#000000;stroke-width:0.088" d="M90.19,62.43L90.07,62.47"/><path style="stroke:#000000;stroke-width:0.088" d="M90.42,58.83L90.15,59.39L90.12,59.42"/><path style="stroke:#000000;stroke-width:0.088" d="M90.93,56.45L90.40,56.75L90.23,56.88"/><path style="stroke:#000000;stroke-width:0.088" d="M90.53,55.87L90.47,55.80"/><path style="stroke:#000000;stroke-width:0.088" d="M90.64,55.82L90.27,55.78"/><path style="stroke:#000000;stroke-width:0.088" d="M90.42,54.90L90.66,55.01L90.30,54.83L90.21,54.81L90.42,54.90"/><path style="stroke:#000000;stroke-width:0.088" d="M90.69,55.01L90.66,55.01L90.76,55.05L90.80,55.08"/><path style="stroke:#000000;stroke-width:0.088" d="M90.21,54.81L90.20,54.81"/><path style="stroke:#000000;stroke-width:0.088" d="M90.93,64.14L90.97,64.18L91.51,64.49L91.56,64.51L91.66,64.53"/><path style="stroke:#000000;stroke-width:0.088" d="M94.66,57.71L94.57,57.65L93.95,57.55L93.21,57.80L92.55,58.29L91.84,59.09L91.65,59.38L91.12,60.44L90.82,61.54L90.77,62.46L90.96,63.36L91.07,63.58L91.18,63.71"/><path style="stroke:#000000;stroke-width:0.088" d="M91.19,61.60L91.21,61.45L91.05,62.32L91.05,63.13L91.05,63.17L91.22,63.86L91.24,63.91L91.57,64.44L91.60,64.48L92.12,64.87L92.17,64.89"/><path style="stroke:#000000;stroke-width:0.088" d="M91.05,62.74L90.96,62.77"/><path style="stroke:#000000;stroke-width:0.088" d="M91.05,62.88L91.00,62.91"/><path style="stroke:#000000;stroke-width:0.088" d="M90.97,61.19L90.87,61.93L90.91,62.64"/><path style="stroke:#000000;stroke-width:0.088" d="M90.91,62.61L91.05,63.06"/><path style="stroke:#000000;stroke-width:0.088" d="M90.88,62.15L91.10,62.02"/><path style="stroke:#000000;stroke-width:0.088" d="M91.49,60.69L91.22,61.02L90.96,61.24"/><path style="stroke:#000000;stroke-width:0.088" d="M90.94,61.39L91.04,61.31L91.31,61.03L91.41,60.91"/><path style="stroke:#000000;stroke-width:0.088" d="M92.54,58.40L92.02,58.96L91.57,59.64L91.21,60.40L90.97,61.19"/><path style="stroke:#000000;stroke-width:0.088" d="M95.87,58.04L95.79,57.96L95.75,57.92L95.69,57.90L95.18,57.70L95.12,57.69L94.53,57.72L94.48,57.72L93.80,57.97L93.15,58.41L92.52,59.02L91.97,59.76L91.53,60.57L91.22,61.44L91.14,61.82"/><path style="stroke:#000000;stroke-width:0.088" d="M90.81,56.51L90.84,56.62"/><path style="stroke:#000000;stroke-width:0.088" d="M90.84,56.50L90.86,57.03L90.85,57.19"/><path style="stroke:#000000;stroke-width:0.088" d="M91.21,56.87L91.22,56.86L90.82,57.22L91.22,56.86"/><path style="stroke:#000000;stroke-width:0.088" d="M91.22,56.86L91.67,56.59L91.71,56.57L92.32,56.37L92.37,56.36L92.92,56.37L92.98,56.38L93.03,56.40L93.43,56.59L93.48,56.63L93.84,57.06"/><path style="stroke:#000000;stroke-width:0.088" d="M91.38,56.34L90.91,56.46"/><path style="stroke:#000000;stroke-width:0.088" d="M91.27,56.83L91.27,56.78"/><path style="stroke:#000000;stroke-width:0.088" d="M91.28,56.81L91.17,56.39"/><path style="stroke:#000000;stroke-width:0.088" d="M91.74,56.41L91.74,56.41L91.35,56.35"/><path style="stroke:#000000;stroke-width:0.088" d="M90.81,55.08L90.85,55.13"/><path style="stroke:#000000;stroke-width:0.088" d="M91.83,64.25L91.65,63.57L91.71,62.55L92.03,61.43L92.50,60.47L93.21,59.50L94.04,58.75L94.90,58.29L95.62,58.17L96.30,58.38L96.77,58.91L96.97,59.66L96.96,60.05L96.94,60.10L96.94,60.12L96.93,60.13L96.82,61.00L96.46,62.05L96.39,62.17L96.49,62.20L96.57,62.24L96.02,63.24L95.28,64.15L94.83,64.52L94.57,64.73L93.72,65.14L92.93,65.22L92.28,64.94L91.87,64.41L91.83,64.25"/><path style="stroke:#000000;stroke-width:0.088" d="M92.16,64.79L91.98,64.62L91.90,64.45"/><path style="stroke:#000000;stroke-width:0.088" d="M92.26,64.91L92.17,64.89"/><path style="stroke:#000000;stroke-width:0.088" d="M91.58,62.39L91.54,63.21L91.67,63.97L91.81,64.27"/><path style="stroke:#000000;stroke-width:0.088" d="M92.02,64.62L92.02,64.63L91.87,64.41L91.72,64.06"/><path style="stroke:#000000;stroke-width:0.088" d="M93.69,64.60L93.57,64.60L93.01,64.56L92.55,64.24L92.49,64.18L92.24,63.68L92.15,62.87"/><path style="stroke:#000000;stroke-width:0.088" d="M92.15,62.88L92.30,61.94L92.68,60.98L93.25,60.07L93.88,59.40L94.65,58.89L95.40,58.67L95.41,58.67"/><path style="stroke:#000000;stroke-width:0.088" d="M92.86,62.33L92.25,62.78L92.16,62.83"/><path style="stroke:#000000;stroke-width:0.088" d="M92.16,62.98L92.17,62.75"/><path style="stroke:#000000;stroke-width:0.088" d="M93.18,59.15L92.62,59.85L92.14,60.65L91.79,61.51L91.59,62.39"/><path style="stroke:#000000;stroke-width:0.088" d="M91.87,57.29L91.81,58.00L91.74,58.22"/><path style="stroke:#000000;stroke-width:0.088" d="M91.85,58.10L91.98,57.46L91.98,57.24"/><path style="stroke:#000000;stroke-width:0.088" d="M92.44,57.06L91.92,57.26L91.47,57.57"/><path style="stroke:#000000;stroke-width:0.088" d="M92.16,57.41L92.17,57.42L92.13,57.18"/><path style="stroke:#000000;stroke-width:0.088" d="M92.12,57.82L92.16,57.38"/><path style="stroke:#000000;stroke-width:0.088" d="M91.77,56.55L91.74,56.45"/><path style="stroke:#000000;stroke-width:0.088" d="M91.84,56.53L91.66,56.40"/><path style="stroke:#000000;stroke-width:0.088" d="M92.93,65.22L92.41,65.01L92.28,64.94"/><path style="stroke:#000000;stroke-width:0.088" d="M92.60,64.27L92.88,64.34"/><path style="stroke:#000000;stroke-width:0.088" d="M94.48,63.63L93.88,64.04L93.33,64.27L92.84,64.32"/><path style="stroke:#000000;stroke-width:0.088" d="M92.55,64.24L92.51,64.20L92.49,64.18"/><path style="stroke:#000000;stroke-width:0.088" d="M92.96,64.52L93.07,64.56"/><path style="stroke:#000000;stroke-width:0.088" d="M95.17,58.74L95.21,58.95L95.09,59.90L94.70,60.94L94.54,61.25L93.87,62.20L93.17,62.89L92.28,63.45L92.21,63.47"/><path style="stroke:#000000;stroke-width:0.088" d="M93.34,62.83L92.80,63.27L92.23,63.59"/><path style="stroke:#000000;stroke-width:0.088" d="M92.78,63.81L92.34,63.88"/><path style="stroke:#000000;stroke-width:0.088" d="M93.98,63.12L93.37,63.55L92.77,63.81"/><path style="stroke:#000000;stroke-width:0.088" d="M93.86,59.46L93.82,59.59L93.48,60.37L92.99,61.17L92.40,61.88L92.29,61.97"/><path style="stroke:#000000;stroke-width:0.088" d="M94.49,59.66L94.25,60.38L93.90,61.06L93.41,61.74L92.85,62.33"/><path style="stroke:#000000;stroke-width:0.088" d="M93.73,59.58L93.59,60.00L93.02,61.02L92.35,61.80"/><path style="stroke:#000000;stroke-width:0.088" d="M92.64,61.08L92.68,60.97"/><path style="stroke:#000000;stroke-width:0.088" d="M92.66,58.31L92.52,58.91L92.44,59.13"/><path style="stroke:#000000;stroke-width:0.088" d="M92.55,58.99L92.67,58.67L92.77,58.23"/><path style="stroke:#000000;stroke-width:0.088" d="M93.34,57.86L93.05,58.02L92.53,58.41"/><path style="stroke:#000000;stroke-width:0.088" d="M92.71,57.07L92.73,57.38"/><path style="stroke:#000000;stroke-width:0.088" d="M92.85,57.11L92.85,57.13L92.85,57.31"/><path style="stroke:#000000;stroke-width:0.088" d="M93.06,57.22L93.03,57.19L92.76,57.07"/><path style="stroke:#000000;stroke-width:0.088" d="M92.79,57.06L92.38,57.08"/><path style="stroke:#000000;stroke-width:0.088" d="M93.75,65.13L94.25,64.89L94.57,64.74"/><path style="stroke:#000000;stroke-width:0.088" d="M94.47,63.63L95.02,63.09L95.53,62.40L95.92,61.67L96.09,61.20L95.77,61.93L95.56,62.27L94.84,63.18L93.98,63.89L93.13,64.29"/><path style="stroke:#000000;stroke-width:0.088" d="M93.33,64.27L93.33,64.27"/><path style="stroke:#000000;stroke-width:0.088" d="M93.57,64.60L93.67,64.60L94.41,64.33L94.39,64.34"/><path style="stroke:#000000;stroke-width:0.088" d="M95.29,58.70L95.29,59.28L95.10,60.11L94.77,60.93L94.61,61.24L94.11,62.02L93.49,62.71"/><path style="stroke:#000000;stroke-width:0.088" d="M93.63,59.67L94.02,59.31"/><path style="stroke:#000000;stroke-width:0.088" d="M96.87,61.12L97.02,60.28L97.00,59.54L97.00,59.49L96.81,58.88L96.79,58.83L96.45,58.38L96.41,58.34L96.37,58.30L95.89,58.05L95.84,58.03L95.79,58.02L95.21,57.98L95.16,57.99L94.52,58.17L94.47,58.19L93.82,58.57L93.19,59.14"/><path style="stroke:#000000;stroke-width:0.088" d="M93.36,58.27L93.38,58.05L93.36,57.87"/><path style="stroke:#000000;stroke-width:0.088" d="M93.05,57.22L93.64,57.05L93.70,57.05L94.23,57.10L94.28,57.11"/><path style="stroke:#000000;stroke-width:0.088" d="M93.37,57.88L93.36,57.87"/><path style="stroke:#000000;stroke-width:0.088" d="M93.76,57.76L93.76,57.76L93.32,57.87"/><path style="stroke:#000000;stroke-width:0.088" d="M93.06,57.20L93.03,57.19L93.03,57.18"/><path style="stroke:#000000;stroke-width:0.088" d="M94.41,64.33L94.77,64.07L94.28,64.38"/><path style="stroke:#000000;stroke-width:0.088" d="M94.46,63.64L94.47,63.63"/><path style="stroke:#000000;stroke-width:0.088" d="M95.70,60.43L95.43,61.16L95.04,61.88L94.54,62.56L93.97,63.12"/><path style="stroke:#000000;stroke-width:0.088" d="M94.49,59.68L94.60,59.01L94.60,58.92"/><path style="stroke:#000000;stroke-width:0.088" d="M93.95,57.92L93.90,57.78"/><path style="stroke:#000000;stroke-width:0.088" d="M94.99,57.70L94.80,57.43L94.76,57.38L94.72,57.35L94.34,57.13L94.29,57.11"/><path style="stroke:#000000;stroke-width:0.088" d="M94.07,57.87L94.07,57.80"/><path style="stroke:#000000;stroke-width:0.088" d="M94.15,57.84L94.09,57.80"/><path style="stroke:#000000;stroke-width:0.088" d="M93.79,57.75L93.76,57.76L94.17,57.81"/><path style="stroke:#000000;stroke-width:0.088" d="M94.77,64.07L95.18,63.76L95.17,63.77"/><path style="stroke:#000000;stroke-width:0.088" d="M95.06,63.04L94.54,63.56"/><path style="stroke:#000000;stroke-width:0.088" d="M94.97,63.91L95.30,63.62"/><path style="stroke:#000000;stroke-width:0.088" d="M95.18,63.76L95.87,62.95L96.28,62.27L96.33,62.17L96.57,62.24"/><path style="stroke:#000000;stroke-width:0.088" d="M95.70,58.72L95.31,58.70"/><path style="stroke:#000000;stroke-width:0.088" d="M95.90,62.90L95.70,63.15"/><path style="stroke:#000000;stroke-width:0.088" d="M95.78,63.06L95.78,63.06"/><path style="stroke:#000000;stroke-width:0.088" d="M95.87,62.95L95.87,62.95"/><path style="stroke:#000000;stroke-width:0.088" d="M95.95,62.81L96.32,62.20"/><path style="stroke:#000000;stroke-width:0.088" d="M96.19,60.93L96.09,61.20L96.09,61.20"/><path style="stroke:#000000;stroke-width:0.088" d="M95.69,60.45L95.81,59.77"/><path style="stroke:#000000;stroke-width:0.088" d="M95.76,59.20L95.81,59.78L95.84,59.85L95.90,59.91L95.98,59.95L96.09,59.98L96.21,59.98L96.30,59.97"/><path style="stroke:#000000;stroke-width:0.088" d="M96.93,60.13L96.92,60.13L96.92,60.13L96.91,60.11L96.87,59.99L96.55,59.21L96.06,58.78L95.40,58.67"/><path style="stroke:#000000;stroke-width:0.088" d="M96.17,59.19L95.94,58.87"/><path style="stroke:#000000;stroke-width:0.088" d="M95.64,58.72L95.98,58.89L95.98,58.89"/><path style="stroke:#000000;stroke-width:0.088" d="M95.53,58.71L95.64,58.82"/><path style="stroke:#000000;stroke-width:0.088" d="M95.77,59.22L95.60,58.78"/><path style="stroke:#000000;stroke-width:0.088" d="M96.49,58.49L96.30,58.38L96.01,58.26"/><path style="stroke:#000000;stroke-width:0.088" d="M96.39,62.17L96.36,62.17L96.33,62.17"/><path style="stroke:#000000;stroke-width:0.088" d="M96.87,61.12L96.58,61.95L96.45,62.19"/><path style="stroke:#000000;stroke-width:0.088" d="M96.18,60.96L96.31,60.25L96.30,59.63"/><path style="stroke:#000000;stroke-width:0.088" d="M96.30,59.66L96.16,59.17"/><path style="stroke:#000000;stroke-width:0.088" d="M72.61,109.02L73.05,109.27L73.36,109.32L73.62,109.22L73.79,109.00L73.87,108.67L73.83,108.27L73.69,107.84L73.46,107.43L73.17,107.08L72.84,106.84L72.82,106.83L72.51,106.72L72.22,106.75L72.00,106.91L71.88,107.19L71.85,107.43L71.86,107.69L71.93,108.06L72.10,108.43L72.33,108.76L72.61,109.02L72.72,109.08L72.71,109.08"/><path style="stroke:#000000;stroke-width:0.088" d="M71.86,107.69L71.87,107.36L71.98,107.12L72.18,106.98L72.43,106.96L72.71,107.06L72.84,107.15L73.00,107.27L73.26,107.58L73.46,107.93L73.58,108.31L73.62,108.60L73.61,108.66L73.55,108.95L73.40,109.14L73.17,109.23L72.90,109.18L72.72,109.08"/><path style="stroke:#000000;stroke-width:0.088" d="M73.36,108.43L73.31,108.57L73.21,108.69L73.07,108.73L72.91,108.69L72.83,108.65L72.73,108.58L72.69,108.54L72.56,108.42L72.43,108.21L72.33,107.98L72.29,107.76L72.31,107.57L72.39,107.43L72.51,107.35L72.66,107.35L72.79,107.40"/><path style="stroke:#000000;stroke-width:0.088" d="M72.84,108.86L72.82,108.86L72.62,108.74L72.42,108.54L72.26,108.30L72.15,108.03L72.10,107.77L72.10,107.73L72.13,107.54L72.21,107.38L72.36,107.29L72.54,107.29L72.75,107.37L72.95,107.53L73.13,107.75L73.27,108.01L73.35,108.28L73.36,108.53L73.31,108.72L73.19,108.85L73.02,108.90L72.84,108.86"/><path style="stroke:#000000;stroke-width:0.088" d="M72.22,106.75L80.82,101.78L81.12,101.78L81.45,101.91L81.77,102.17L82.06,102.53L82.28,102.94L82.41,103.37L82.44,103.64L82.43,103.76L82.34,104.08L82.16,104.29L73.62,109.22"/><path style="stroke:#000000;stroke-width:0.088" d="M82.44,103.64L82.44,103.50L82.41,103.26L82.30,102.88L82.11,102.52L81.86,102.21L81.57,101.98L81.45,101.91"/><path style="stroke:#000000;stroke-width:0.088" d="M72.60,97.97L72.89,98.13L73.16,98.17L73.39,98.09L73.54,97.89L73.55,97.85L73.61,97.61L73.61,97.54L73.58,97.26L73.46,96.88L73.25,96.52L73.00,96.22L72.71,96.01L72.60,95.97L72.42,95.90L72.17,95.92L71.98,96.06L71.87,96.31L71.85,96.63L71.93,97.00L72.09,97.37L72.32,97.71L72.60,97.97L72.71,98.03L72.71,98.03"/><path style="stroke:#000000;stroke-width:0.088" d="M72.71,98.03L73.04,98.21L73.35,98.26L73.61,98.17L73.79,97.94L73.86,97.61L73.83,97.21L73.69,96.79L73.46,96.38L73.16,96.03L72.83,95.79L72.51,95.67L72.22,95.69L72.00,95.85L71.87,96.13L71.85,96.38L71.85,96.63"/><path style="stroke:#000000;stroke-width:0.088" d="M72.82,97.81L72.61,97.68L72.42,97.49L72.26,97.24L72.15,96.98L72.10,96.72L72.10,96.67L72.12,96.49L72.21,96.32L72.35,96.23L72.54,96.23L72.74,96.32L72.94,96.48L73.12,96.70L73.26,96.96L73.34,97.23L73.35,97.42L73.35,97.47L73.30,97.67L73.18,97.80L73.02,97.85L72.82,97.81"/><path style="stroke:#000000;stroke-width:0.088" d="M72.78,96.35L72.66,96.30L72.50,96.30L72.38,96.38L72.31,96.52L72.29,96.71L72.32,96.88L72.33,96.93L72.42,97.16L72.56,97.36L72.68,97.49L72.72,97.53L72.82,97.60L72.90,97.64L73.07,97.67L73.21,97.63L73.31,97.52L73.35,97.37"/><path style="stroke:#000000;stroke-width:0.088" d="M72.22,95.69L80.82,90.73L81.11,90.72L81.44,90.86L81.77,91.12L82.06,91.47L82.28,91.89L82.40,92.31L82.43,92.59L82.42,92.71L82.34,93.03L82.15,93.23L73.61,98.17"/><path style="stroke:#000000;stroke-width:0.088" d="M82.43,92.59L82.43,92.45L82.41,92.20L82.30,91.83L82.10,91.47L81.85,91.16L81.57,90.93L81.44,90.86"/><path style="stroke:#000000;stroke-width:0.088" d="M54.91,68.04L54.91,68.68L58.69,70.86L66.25,66.49L66.23,30.13L58.67,34.50L54.89,32.32L54.91,68.04"/><path style="stroke:#000000;stroke-width:0.088" d="M54.89,32.32L62.45,27.95L66.23,30.13"/><path style="stroke:#000000;stroke-width:0.088" d="M56.22,64.18L56.28,64.30L56.49,64.57L56.73,64.78L56.98,64.90L57.21,64.92L57.39,64.83L57.51,64.65L57.55,64.39L57.52,64.18L57.51,64.08L57.39,63.76L57.21,63.46L56.98,63.21L56.73,63.05L56.49,62.98L56.28,63.01L56.13,63.15L56.05,63.38L56.05,63.66L56.13,63.98L56.22,64.18"/><path style="stroke:#000000;stroke-width:0.088" d="M56.82,63.11L56.65,63.06L56.47,63.09L56.34,63.21L56.28,63.40L56.28,63.64L56.34,63.91L56.47,64.18L56.65,64.42L56.77,64.52L56.86,64.59L57.07,64.70L57.26,64.71L57.42,64.63L57.52,64.48L57.54,64.32"/><path style="stroke:#000000;stroke-width:0.088" d="M56.47,64.18L56.42,64.06"/><path style="stroke:#000000;stroke-width:0.088" d="M56.48,47.99L56.72,48.20L56.97,48.32L57.20,48.34L57.38,48.25L57.50,48.07L57.54,47.81L57.50,47.50L57.38,47.18L57.20,46.88L56.97,46.63L56.72,46.47L56.48,46.40L56.27,46.43L56.12,46.57L56.04,46.80L56.04,47.08L56.12,47.40L56.27,47.72L56.48,47.99"/><path style="stroke:#000000;stroke-width:0.088" d="M56.82,46.53L56.64,46.48L56.47,46.51L56.34,46.63L56.27,46.82L56.27,47.06L56.33,47.33L56.46,47.60L56.64,47.83L56.85,48.01L57.06,48.12L57.25,48.13L57.41,48.05L57.51,47.90L57.53,47.74"/><path style="stroke:#000000;stroke-width:0.088" d="M56.11,36.34L56.27,36.66L56.48,36.94L56.72,37.15L56.97,37.27L57.19,37.29L57.38,37.20L57.50,37.01L57.54,36.75L57.50,36.45L57.38,36.13L57.19,35.83L56.97,35.58L56.72,35.41L56.48,35.34L56.27,35.38L56.12,35.52L56.03,35.74L56.03,36.03L56.11,36.34"/><path style="stroke:#000000;stroke-width:0.088" d="M57.53,36.68L57.50,36.84L57.40,37.00L57.25,37.08L57.05,37.06L56.84,36.96L56.64,36.78L56.46,36.55L56.33,36.28L56.30,36.16L56.26,36.01L56.26,35.76L56.33,35.57L56.46,35.45L56.64,35.42L56.81,35.47"/><path style="stroke:#000000;stroke-width:0.088" d="M57.35,64.67L57.42,64.62"/><path style="stroke:#000000;stroke-width:0.088" d="M57.34,48.08L57.41,48.04"/><path style="stroke:#000000;stroke-width:0.088" d="M57.34,37.03L57.41,36.99"/><path style="stroke:#000000;stroke-width:0.088" d="M58.69,70.86L58.67,34.50"/><path style="stroke:#000000;stroke-width:0.088" d="M61.99,67.20L61.77,67.15L61.57,66.96L61.47,66.66L61.48,66.27L61.59,65.84L61.80,65.42L62.08,65.06L62.40,64.79L62.47,64.75L62.73,64.64L63.04,64.62L63.28,64.75L63.43,65.00L63.48,65.35L63.41,65.77L63.25,66.19L63.00,66.59L62.69,66.91L62.36,67.13L62.04,67.21L61.99,67.20"/><path style="stroke:#000000;stroke-width:0.088" d="M62.38,64.81L62.54,64.74L62.80,64.73L63.00,64.84L63.13,65.05L63.17,65.35L63.12,65.70L62.98,66.06L62.77,66.40L62.51,66.68L62.23,66.86L61.96,66.93L61.72,66.88L61.55,66.72L61.47,66.47"/><path style="stroke:#000000;stroke-width:0.088" d="M61.99,44.52L61.76,44.47L61.56,44.27L61.46,43.97L61.46,43.58L61.58,43.15L61.79,42.74L62.07,42.37L62.39,42.10L62.45,42.06L62.72,41.95L63.02,41.93L63.26,42.06L63.41,42.31L63.46,42.66L63.40,43.08L63.24,43.50L62.99,43.90L62.68,44.23L62.35,44.44L62.03,44.52L61.99,44.52"/><path style="stroke:#000000;stroke-width:0.088" d="M61.46,43.78L61.54,44.03L61.71,44.19L61.94,44.24L62.22,44.17L62.50,43.99L62.76,43.71L62.97,43.37L63.11,43.01L63.16,42.66L63.12,42.36L62.99,42.15L62.79,42.04L62.53,42.05L62.36,42.12"/><path style="stroke:#000000;stroke-width:0.088" d="M63.00,64.84L62.99,64.83"/><path style="stroke:#000000;stroke-width:0.088" d="M62.97,43.37L62.81,43.63"/><path style="stroke:#000000;stroke-width:0.088" d="M72.03,52.58L71.96,52.26L71.96,52.06L72.06,51.11L72.46,49.87L73.12,48.70L73.97,47.70L74.91,47.00L75.85,46.66L76.68,46.73L77.18,47.02L76.35,46.95L75.42,47.29L74.47,48.00L73.63,48.99L72.96,50.17L72.56,51.40L72.46,52.35L72.47,52.55L72.68,53.50L73.19,54.14L72.68,53.85L72.18,53.21L72.03,52.58"/><path style="stroke:#000000;stroke-width:0.088" d="M73.19,54.14L73.93,54.41L74.82,54.27L75.10,54.12"/><path style="stroke:#000000;stroke-width:0.088" d="M78.51,48.89L79.01,49.66L79.01,52.12L78.59,52.90L78.02,53.59L77.38,54.09L76.73,54.34L76.15,54.37L75.50,54.33L75.23,54.20L73.72,53.32L73.72,49.91L75.23,50.79L75.50,50.34L76.14,49.56L76.87,49.00L77.59,48.72L78.24,48.76L78.51,48.89L76.99,48.02L76.42,47.83L75.72,47.95L74.99,48.37L74.29,49.05L73.72,49.91"/><path style="stroke:#000000;stroke-width:0.088" d="M76.73,54.34L76.16,54.30L75.74,54.01L75.74,51.55L75.23,50.79"/><path style="stroke:#000000;stroke-width:0.088" d="M75.23,54.20L75.74,54.01"/><path style="stroke:#000000;stroke-width:0.088" d="M75.74,51.55L76.16,50.77L76.73,50.08L77.37,49.58L78.02,49.34L78.59,49.37L79.01,49.66"/><path style="stroke:#000000;stroke-width:0.088" d="M76.56,52.58L76.60,52.70L76.76,52.88L76.98,52.94L77.25,52.89L77.53,52.72L77.80,52.45L78.02,52.12L78.17,51.76L78.23,51.40L78.23,51.34L78.20,51.10L78.08,50.87L77.89,50.75L77.63,50.74L77.36,50.86L77.08,51.08L76.83,51.38L76.65,51.73L76.54,52.10L76.52,52.43L76.56,52.58"/><path style="stroke:#000000;stroke-width:0.088" d="M76.52,52.43L76.78,52.28L77.04,52.01L77.26,51.68L77.41,51.32L77.47,50.97L77.46,50.81"/><path style="stroke:#000000;stroke-width:0.088" d="M77.18,47.02L77.82,47.48L78.18,48.29L78.21,48.72"/><path style="stroke:#000000;stroke-width:0.088" d="M71.99,75.00L71.97,74.95L71.97,74.75L72.07,73.80L72.47,72.56L73.13,71.39L73.98,70.39L74.93,69.69L75.86,69.35L76.69,69.42L77.20,69.71L76.37,69.64L75.43,69.98L74.92,70.36L74.49,70.69L73.64,71.68L72.98,72.86L72.58,74.09L72.47,75.04L72.48,75.24L72.69,76.19L73.20,76.83L72.69,76.54L72.19,75.90L71.99,75.00"/><path style="stroke:#000000;stroke-width:0.088" d="M73.20,76.83L73.94,77.10L74.83,76.96L75.11,76.81"/><path style="stroke:#000000;stroke-width:0.088" d="M75.25,76.88L73.73,76.01L73.73,72.60L75.24,73.48L75.75,74.24L75.75,76.70L75.25,76.88L75.51,77.02L76.16,77.06L76.74,77.03L77.39,76.78L78.03,76.28L78.60,75.59L79.03,74.81L79.02,72.35L78.60,72.06L78.03,72.02L77.39,72.27L76.74,72.77L76.17,73.46L75.75,74.24"/><path style="stroke:#000000;stroke-width:0.088" d="M73.73,72.60L74.31,71.74L75.00,71.06L75.74,70.64L76.43,70.52L77.01,70.71L78.52,71.58L78.25,71.45L77.61,71.41L76.88,71.69L76.15,72.25L75.51,73.03L75.24,73.48"/><path style="stroke:#000000;stroke-width:0.088" d="M75.75,76.70L76.17,76.99L76.74,77.03"/><path style="stroke:#000000;stroke-width:0.088" d="M76.61,75.39L76.53,75.12L76.55,74.79L76.66,74.42L76.85,74.07L77.09,73.77L77.37,73.55L77.65,73.43L77.90,73.44L78.09,73.56L78.21,73.78L78.24,74.03L78.24,74.09L78.18,74.45L78.03,74.81L77.81,75.14L77.55,75.40L77.26,75.57L77.00,75.63L76.77,75.57L76.61,75.39"/><path style="stroke:#000000;stroke-width:0.088" d="M76.53,75.12L76.79,74.97L77.05,74.70L77.27,74.37L77.42,74.01L77.49,73.65L77.47,73.50"/><path style="stroke:#000000;stroke-width:0.088" d="M77.20,69.71L77.83,70.17L78.19,70.98L78.22,71.41"/><path style="stroke:#000000;stroke-width:0.088" d="M79.02,72.35L78.52,71.58"/><path style="stroke:#000000;stroke-width:0.088" d="M40.85,80.99L41.61,80.56L41.57,80.81L41.46,80.99L41.30,81.08L41.09,81.09L40.85,80.99L38.33,79.54L38.35,104.85L40.11,105.87L40.11,104.56L40.87,104.12L41.10,104.30L41.31,104.54L41.48,104.83L41.59,105.14L41.62,105.43L41.62,106.70L41.62,107.61L40.87,108.05L38.35,106.59L38.36,118.37L39.62,120.55L58.52,131.47L58.50,111.10L59.76,110.38L59.78,130.74L58.52,131.47"/><path style="stroke:#000000;stroke-width:0.088" d="M38.35,106.59L39.61,105.86L41.62,107.03"/><path style="stroke:#000000;stroke-width:0.088" d="M38.33,79.54L39.59,78.81L41.61,79.97"/><path style="stroke:#000000;stroke-width:0.088" d="M58.50,111.10L53.85,81.68L53.54,80.57L52.98,79.49L52.23,78.57L51.38,77.91L39.59,71.10L38.33,71.83L38.33,77.79L40.10,78.81L40.10,77.50L40.13,77.26L40.24,77.07L40.41,76.98L40.62,76.98L40.85,77.07L41.08,77.25L41.30,77.49L41.46,77.78L41.57,78.09L41.61,78.38L41.61,80.56"/><path style="stroke:#000000;stroke-width:0.088" d="M40.11,105.87L41.37,105.14L41.37,104.65"/><path style="stroke:#000000;stroke-width:0.088" d="M40.11,104.56L40.15,104.31L40.26,104.13L40.42,104.03L40.63,104.03L40.87,104.12"/><path style="stroke:#000000;stroke-width:0.088" d="M40.10,78.81L41.36,78.08L41.36,77.60"/><path style="stroke:#000000;stroke-width:0.088" d="M40.10,77.50L40.85,77.07"/><path style="stroke:#000000;stroke-width:0.088" d="M39.59,71.10L40.85,70.38L52.64,77.18L51.38,77.91"/><path style="stroke:#000000;stroke-width:0.088" d="M40.87,108.05L41.10,108.14L41.31,108.14L41.48,108.04L41.59,107.86L41.62,107.61"/><path style="stroke:#000000;stroke-width:0.088" d="M44.93,117.53L44.82,117.15L44.79,116.51L44.93,115.99L45.23,115.66L45.67,115.53L46.18,115.64L46.72,115.96L47.23,116.47L47.64,117.11L47.93,117.80L48.05,118.48L48.05,118.59L48.00,119.06L47.77,119.50L47.40,119.73L46.92,119.74L46.38,119.52L45.85,119.10L45.38,118.52L45.03,117.85L44.93,117.53"/><path style="stroke:#000000;stroke-width:0.088" d="M44.94,101.02L44.81,100.57L44.78,99.93L44.92,99.41L45.22,99.08L45.66,98.95L46.17,99.06L46.71,99.38L47.22,99.89L47.63,100.53L47.92,101.22L48.04,101.89L48.04,102.02L47.99,102.48L47.76,102.91L47.39,103.15L46.91,103.16L46.37,102.94L45.84,102.52L45.37,101.94L45.02,101.26L44.94,101.02"/><path style="stroke:#000000;stroke-width:0.088" d="M44.86,89.69L45.01,90.21L45.37,90.88L45.84,91.46L46.37,91.88L46.90,92.10L47.38,92.09L47.75,91.86L47.98,91.43L48.04,90.96L48.04,90.84L47.91,90.16L47.63,89.47L47.21,88.84L46.70,88.33L46.16,88.01L45.65,87.90L45.22,88.02L44.91,88.36L44.77,88.88L44.80,89.52L44.86,89.69"/><path style="stroke:#000000;stroke-width:0.088" d="M46.84,116.09L46.77,116.07L46.54,116.14L46.37,116.32L46.29,116.60L46.31,116.94L46.42,117.32L46.62,117.68L46.87,117.99L47.15,118.22L47.44,118.34L47.70,118.33L47.90,118.21L47.98,118.06"/><path style="stroke:#000000;stroke-width:0.088" d="M47.97,101.48L47.89,101.62L47.69,101.75L47.43,101.75L47.14,101.64L46.86,101.41L46.61,101.10L46.41,100.74L46.30,100.36L46.29,100.02L46.36,99.74L46.53,99.56L46.76,99.49L46.83,99.51"/><path style="stroke:#000000;stroke-width:0.088" d="M47.96,90.43L47.89,90.57L47.68,90.70L47.43,90.70L47.14,90.58L46.85,90.36L46.60,90.04L46.41,89.68L46.30,89.31L46.28,88.96L46.36,88.69L46.52,88.50L46.75,88.44L46.83,88.45"/><path style="stroke:#000000;stroke-width:0.088" d="M47.97,118.04L47.73,117.97L47.68,117.94L47.44,117.76L47.18,117.47L46.97,117.12L46.84,116.74L46.79,116.39L46.85,116.09"/><path style="stroke:#000000;stroke-width:0.088" d="M47.96,101.46L47.72,101.39L47.67,101.36L47.43,101.18L47.17,100.89L46.96,100.54L46.83,100.16L46.78,99.81L46.84,99.51"/><path style="stroke:#000000;stroke-width:0.088" d="M47.96,90.41L47.72,90.33L47.66,90.30L47.43,90.13L47.16,89.84L46.95,89.48L46.82,89.11L46.78,88.75L46.83,88.46"/><path style="stroke:#000000;stroke-width:0.088" d="M52.52,119.07L52.53,119.12L52.80,119.68L53.16,120.18L53.58,120.56L54.02,120.78L54.43,120.82L54.76,120.67L54.98,120.36L55.06,119.91L54.99,119.37L54.79,118.80L54.48,118.27L54.08,117.82L53.72,117.56L53.64,117.52L53.21,117.38L52.84,117.44L52.56,117.67L52.41,118.06L52.40,118.56L52.52,119.07"/><path style="stroke:#000000;stroke-width:0.088" d="M52.69,108.42L52.53,108.07L52.39,107.51L52.40,107.01L52.56,106.62L52.83,106.38L53.20,106.33L53.63,106.46L53.72,106.51L54.07,106.77L54.47,107.21L54.79,107.75L54.99,108.31L55.05,108.85L54.97,109.30L54.75,109.62L54.42,109.77L54.02,109.72L53.58,109.50L53.15,109.12L52.79,108.63L52.69,108.42"/><path style="stroke:#000000;stroke-width:0.088" d="M52.64,77.18L53.49,77.84L54.24,78.77L54.80,79.84L55.11,80.95L53.85,81.68"/><path style="stroke:#000000;stroke-width:0.088" d="M55.00,119.41L54.90,119.55L54.73,119.62L54.52,119.60L54.29,119.49L54.25,119.45L54.07,119.29L53.89,119.03L53.75,118.74L53.68,118.45L53.68,118.19L53.76,117.99L53.91,117.87L54.09,117.84"/><path style="stroke:#000000;stroke-width:0.088" d="M54.09,106.79L53.90,106.81L53.76,106.93L53.68,107.14L53.67,107.40L53.74,107.69L53.88,107.98L54.07,108.23L54.25,108.40L54.36,108.48L54.52,108.55L54.73,108.57L54.90,108.49L54.99,108.35"/><path style="stroke:#000000;stroke-width:0.088" d="M54.30,118.07L54.35,118.33L54.47,118.62L54.65,118.89L54.87,119.10L54.91,119.12"/><path style="stroke:#000000;stroke-width:0.088" d="M54.29,107.01L54.34,107.28L54.47,107.57L54.65,107.83L54.86,108.04L54.90,108.07"/><path style="stroke:#000000;stroke-width:0.088" d="M59.76,110.38L55.11,80.95"/><path style="stroke:#000000;stroke-width:0.088" d="M129.41,72.42L129.03,71.77L129.01,25.23L130.27,24.51L137.02,28.41L138.28,27.68L139.13,28.34L139.88,29.26L140.44,30.34L140.75,31.44L145.40,60.87L145.42,81.23L144.16,81.96L144.13,81.95L130.30,73.96L129.41,72.42"/><path style="stroke:#000000;stroke-width:0.088" d="M130.27,24.51L131.53,23.78L138.28,27.68"/><path style="stroke:#000000;stroke-width:0.088" d="M131.73,67.02L131.82,67.02L132.06,67.12L132.11,67.15L132.39,67.39L132.64,67.71L132.82,68.08L132.92,68.45L132.93,68.79L132.84,69.06L132.67,69.23L132.43,69.28L132.15,69.21L131.86,69.02L131.59,68.73L131.37,68.39L131.23,68.01L131.17,67.65L131.22,67.34L131.35,67.12L131.56,67.01L131.73,67.02L131.73,67.04L131.68,67.34L131.73,67.70L131.86,68.07L132.08,68.42L132.34,68.71L132.56,68.87L132.63,68.91L132.87,68.97"/><path style="stroke:#000000;stroke-width:0.088" d="M131.36,51.81L131.58,52.15L131.85,52.44L132.14,52.62L132.42,52.70L132.66,52.65L132.83,52.48L132.92,52.21L132.91,51.87L132.81,51.50L132.63,51.13L132.38,50.81L132.10,50.57L132.05,50.54L131.81,50.44L131.55,50.43L131.34,50.54L131.21,50.76L131.16,51.07L131.22,51.43L131.36,51.81"/><path style="stroke:#000000;stroke-width:0.088" d="M132.86,52.39L132.62,52.32L132.55,52.29L132.34,52.13L132.07,51.84L131.86,51.49L131.72,51.12L131.67,50.76L131.72,50.46L131.73,50.44"/><path style="stroke:#000000;stroke-width:0.088" d="M131.74,39.39L131.81,39.39L132.04,39.49L132.09,39.52L132.38,39.76L132.62,40.08L132.81,40.44L132.91,40.82L132.91,41.16L132.83,41.42L132.65,41.59L132.41,41.64L132.13,41.57L131.84,41.38L131.57,41.10L131.36,40.75L131.21,40.38L131.16,40.02L131.20,39.71L131.33,39.49L131.54,39.38L131.74,39.39L131.75,39.50L132.01,40.19L132.41,40.84L132.86,41.33"/><path style="stroke:#000000;stroke-width:0.088" d="M131.72,39.39L131.71,39.40L131.66,39.71L131.71,40.06L131.85,40.44L132.06,40.79L132.33,41.08L132.62,41.27L132.85,41.34"/><path style="stroke:#000000;stroke-width:0.088" d="M131.75,67.02L131.77,67.13L132.02,67.83L132.42,68.48L132.87,68.96"/><path style="stroke:#000000;stroke-width:0.088" d="M132.86,52.38L132.41,51.90L132.02,51.25L131.76,50.55L131.74,50.44"/><path style="stroke:#000000;stroke-width:0.088" d="M137.02,28.41L137.87,29.07L138.62,29.99L139.18,31.06L139.49,32.17L140.75,31.44"/><path style="stroke:#000000;stroke-width:0.088" d="M138.47,69.59L138.58,69.88L138.83,70.28L139.14,70.60L139.47,70.81L139.79,70.90L140.06,70.84L140.26,70.65L140.36,70.34L140.35,69.95L140.24,69.53L140.03,69.11L139.75,68.74L139.42,68.47L139.36,68.43L139.09,68.32L138.79,68.31L138.55,68.43L138.40,68.69L138.35,69.04L138.42,69.45L138.47,69.59"/><path style="stroke:#000000;stroke-width:0.088" d="M138.71,59.05L138.51,58.69L138.38,58.26L138.35,57.87L138.43,57.54L138.61,57.33L138.88,57.24L139.19,57.30L139.52,57.49L139.83,57.79L140.10,58.18L140.28,58.61L140.36,59.02L140.33,59.39L140.20,59.66L139.98,59.82L139.68,59.83L139.36,59.71L139.03,59.45L138.74,59.10L138.71,59.05"/><path style="stroke:#000000;stroke-width:0.088" d="M139.67,68.68L139.68,68.72L139.84,69.15L140.09,69.55L140.30,69.77"/><path style="stroke:#000000;stroke-width:0.088" d="M140.30,58.74L140.00,58.37L139.77,57.96L139.67,57.63"/><path style="stroke:#000000;stroke-width:0.088" d="M144.16,81.96L144.14,61.60L139.49,32.17"/><path style="stroke:#000000;stroke-width:0.088" d="M144.14,61.60L145.40,60.87"/><path style="stroke:#000000;stroke-width:0.088" d="M111.31,102.66L103.14,97.95L103.12,58.68L96.57,54.90L96.56,43.26L91.27,40.21L91.26,27.12L98.77,22.78L102.13,23.26L104.61,24.70L103.84,24.25"/><path style="stroke:#000000;stroke-width:0.088" d="M91.26,27.12L94.62,27.60L108.02,35.34L108.51,36.19L109.28,38.03L109.68,39.86L113.69,75.54L113.35,77.93L113.16,78.89L112.94,79.76L111.43,78.89L111.30,79.91L111.31,104.00L112.82,104.88L122.65,99.20L122.64,75.10L122.50,74.24L122.28,73.62L113.16,78.89"/><path style="stroke:#000000;stroke-width:0.088" d="M94.62,27.60L99.24,27.36L104.23,24.48"/><path style="stroke:#000000;stroke-width:0.088" d="M99.24,27.36L105.94,31.23L110.94,28.35L112.36,29.17L111.59,28.72"/><path style="stroke:#000000;stroke-width:0.088" d="M104.54,89.45L104.39,89.02L104.34,88.61L104.39,88.26L104.54,88.00L104.78,87.86L105.08,87.86L105.41,87.99L106.16,88.43L107.42,89.15L107.75,89.40L108.05,89.75L108.29,90.16L108.44,90.60L108.49,91.01L107.42,91.63L105.39,90.45L105.08,90.21L104.78,89.86L104.54,89.45"/><path style="stroke:#000000;stroke-width:0.088" d="M105.40,79.41L105.07,79.16L104.77,78.81L104.53,78.40L104.38,77.96L104.33,77.55L104.38,77.20L104.53,76.94L104.77,76.81L105.07,76.80L105.40,76.93L107.42,78.10L107.75,78.35L108.05,78.70L108.28,79.11L108.43,79.54L108.49,79.95L107.42,80.57L105.40,79.41L107.52,78.18"/><path style="stroke:#000000;stroke-width:0.088" d="M104.61,24.70L111.39,28.61"/><path style="stroke:#000000;stroke-width:0.088" d="M105.41,90.46L107.53,89.23"/><path style="stroke:#000000;stroke-width:0.088" d="M105.94,31.23L106.61,31.73L107.16,32.41L107.87,34.21L108.02,35.34"/><path style="stroke:#000000;stroke-width:0.088" d="M107.42,91.63L107.75,91.76L108.05,91.75L108.29,91.62L108.44,91.36L108.49,91.01"/><path style="stroke:#000000;stroke-width:0.088" d="M107.42,80.57L107.75,80.70L108.05,80.70L108.28,80.56L108.44,80.30L108.49,79.95"/><path style="stroke:#000000;stroke-width:0.088" d="M109.68,39.86L117.19,35.52L121.20,71.20L122.00,72.93L113.35,77.93"/><path style="stroke:#000000;stroke-width:0.088" d="M111.30,79.91L112.81,80.78L112.82,104.88"/><path style="stroke:#000000;stroke-width:0.088" d="M111.43,78.89L112.45,74.83L113.69,75.54"/><path style="stroke:#000000;stroke-width:0.088" d="M110.81,28.27L110.94,28.35"/><path style="stroke:#000000;stroke-width:0.088" d="M112.07,29.00L112.73,29.38L112.36,29.17"/><path style="stroke:#000000;stroke-width:0.088" d="M112.94,79.76L112.81,80.78"/><path style="stroke:#000000;stroke-width:0.088" d="M112.73,29.38L114.69,30.51L114.07,30.15"/><path style="stroke:#000000;stroke-width:0.088" d="M114.69,30.51L115.53,31.00L116.02,31.85L116.79,33.69L117.19,35.52"/><path style="stroke:#000000;stroke-width:0.088" d="M122.28,73.62L122.00,72.93"/><path style="fill:#ffffff" d="M171.12,67.87L197.54,67.87L197.54,62.23L171.12,62.23z"/><path style="stroke:#35414c;stroke-width:0.255" d="M171.12,67.87L197.54,67.87L197.54,62.23L171.12,62.23z"/><path style="stroke:#35404c;stroke-width:0.250;stroke-opacity:0.00" d="M171.12,67.87L197.54,67.87L197.54,62.23L171.12,62.23z"/><text xml:space="preserve" fill="#333f4b" stroke-width="0" x="171.83" y="66.28" font-size="3.49" opacity="1.00" font-family="Arial" font-weight="bold" font-style="italic">F24623312A</text><path style="fill:#ffffff" d="M171.12,87.68L197.54,87.68L197.54,82.04L171.12,82.04z"/><path style="stroke:#35414c;stroke-width:0.255" d="M171.12,87.68L197.54,87.68L197.54,82.04L171.12,82.04z"/><path style="stroke:#35404c;stroke-width:0.250;stroke-opacity:0.00" d="M171.12,87.68L197.54,87.68L197.54,82.04L171.12,82.04z"/><text xml:space="preserve" fill="#333f4b" stroke-width="0" x="171.83" y="86.09" font-size="3.49" opacity="1.00" font-family="Arial" font-weight="bold" font-style="italic">F24623314A</text><path style="fill:#ffffff" d="M171.12,107.76L197.54,107.76L197.54,102.11L171.12,102.11z"/><path style="stroke:#35414c;stroke-width:0.255" d="M171.12,107.76L197.54,107.76L197.54,102.11L171.12,102.11z"/><path style="stroke:#35404c;stroke-width:0.250;stroke-opacity:0.00" d="M171.12,107.76L197.54,107.76L197.54,102.11L171.12,102.11z"/><text xml:space="preserve" fill="#333f4b" stroke-width="0" x="171.83" y="106.17" font-size="3.46" opacity="1.00" font-family="Arial" font-weight="bold" font-style="italic">ML2109</text><path style="fill:#ffffff" d="M171.12,47.79L197.54,47.79L197.54,42.15L171.12,42.15z"/><path style="stroke:#35414c;stroke-width:0.255" d="M171.12,47.79L197.54,47.79L197.54,42.15L171.12,42.15z"/><path style="stroke:#35404c;stroke-width:0.250;stroke-opacity:0.00" d="M171.12,47.79L197.54,47.79L197.54,42.15L171.12,42.15z"/><text xml:space="preserve" fill="#333f4b" stroke-width="0" x="171.83" y="46.21" font-size="3.56" opacity="1.00" font-family="Arial" font-weight="bold" font-style="italic">F21623153X</text><path style="fill:#ffffff" d="M171.12,97.72L197.54,97.72L197.54,92.08L171.12,92.08z"/><path style="stroke:#35414c;stroke-width:0.255" d="M171.12,97.72L197.54,97.72L197.54,92.08L171.12,92.08z"/><path style="stroke:#35404c;stroke-width:0.250;stroke-opacity:0.00" d="M171.12,97.72L197.54,97.72L197.54,92.08L171.12,92.08z"/><text xml:space="preserve" fill="#333f4b" stroke-width="0" x="171.83" y="96.13" font-size="3.56" opacity="1.00" font-family="Arial" font-weight="bold" font-style="italic">F24623372X</text><path style="fill:#ffffff" d="M171.12,57.83L197.54,57.83L197.54,52.19L171.12,52.19z"/><path style="stroke:#35414c;stroke-width:0.255" d="M171.12,57.83L197.54,57.83L197.54,52.19L171.12,52.19z"/><path style="stroke:#35404c;stroke-width:0.250;stroke-opacity:0.00" d="M171.12,57.83L197.54,57.83L197.54,52.19L171.12,52.19z"/><text xml:space="preserve" fill="#333f4b" stroke-width="0" x="171.83" y="56.25" font-size="3.56" opacity="1.00" font-family="Arial" font-weight="bold" font-style="italic">F21623173X</text><path style="fill:#ffffff" d="M171.12,77.91L197.54,77.91L197.54,72.26L171.12,72.26z"/><path style="stroke:#35414c;stroke-width:0.255" d="M171.12,77.91L197.54,77.91L197.54,72.26L171.12,72.26z"/><path style="stroke:#35404c;stroke-width:0.250;stroke-opacity:0.00" d="M171.12,77.91L197.54,77.91L197.54,72.26L171.12,72.26z"/><text xml:space="preserve" fill="#333f4b" stroke-width="0" x="171.83" y="76.32" font-size="3.49" opacity="1.00" font-family="Arial" font-weight="bold" font-style="italic">F24623313A</text><g id="paperID" visibility="hidden" opacity="0.00" transform="scale(0.000100)"><path style="stroke:#000000;stroke-width:0.500;fill:#e6e6e6;fill-rule:evenodd" d="M-2000.00,-2000.00L2210.00,-2000.00L2210.00,2150.00L-2000.00,2150.00zM0.00,0.00L210.00,0.00L210.00,150.00L0.00,150.00z"/><path style="fill:#000000;fill-opacity:0.118" d="M3.00,150.00L210.00,150.00L210.00,3.00L213.00,3.00L213.00,153.00L3.00,153.00z"/></g><g id="hotspot.0" onmouseover="ShowHotSpot(evt,'0')" onmouseout="HideHotSpot(evt,'0')" onmousemove="ShowToolTip(evt,'0',&quot;F21623153&quot;)" opacity="0"><path style="fill:#00ff00;fill-rule:evenodd" d="M197.79,42.58L197.78,47.74L197.49,48.25L171.07,48.18L171.07,42.43L197.53,42.32zM77.82,47.66L78.91,49.73L78.91,52.49L77.48,54.23L73.06,54.26L72.57,53.96L71.93,52.14L72.73,49.48L73.77,48.14L75.11,47.11L75.63,46.82L76.52,46.82zM77.58,70.08L78.37,71.66L78.91,72.18L78.91,75.21L78.63,75.73L77.24,76.98L73.05,76.99L72.30,76.15L72.01,74.68L72.55,72.55L73.50,71.12L74.93,69.91L75.62,69.55L76.79,69.55z"/></g><g id="hotspot.1" onmouseover="ShowHotSpot(evt,'1')" onmouseout="HideHotSpot(evt,'1')" onmousemove="ShowToolTip(evt,'1',&quot;F21623173&quot;)" opacity="0"><path style="fill:#00ff00;fill-rule:evenodd" d="M197.79,52.62L197.78,57.78L197.49,58.29L171.07,58.22L171.07,52.46L197.53,52.36zM81.81,91.21L82.34,92.00L82.35,93.18L73.87,98.18L73.07,98.38L72.30,97.81L72.01,97.32L72.02,96.06L80.65,90.93L81.27,90.93zM82.34,103.09L82.35,104.28L74.04,109.17L72.55,109.18L72.01,108.41L71.95,107.08L80.65,102.03L81.55,102.03z"/></g><g id="hotspot.2" onmouseover="ShowHotSpot(evt,'2')" onmouseout="HideHotSpot(evt,'2')" onmousemove="ShowToolTip(evt,'2',&quot;F24623312&quot;)" opacity="0"><path style="fill:#00ff00;fill-rule:evenodd" d="M64.36,29.15L66.23,30.45L66.13,66.66L59.10,70.75L58.56,70.91L55.12,69.03L55.12,32.40L62.54,28.09zM197.79,62.66L197.78,67.82L197.49,68.32L171.07,68.25L171.07,62.50L197.53,62.40z"/></g><g id="hotspot.3" onmouseover="ShowHotSpot(evt,'3')" onmouseout="HideHotSpot(evt,'3')" onmousemove="ShowToolTip(evt,'3',&quot;F24623313&quot;)" opacity="0"><path style="fill:#00ff00;fill-rule:evenodd" d="M52.48,77.22L53.80,78.28L55.13,80.91L59.61,109.45L59.63,130.96L59.01,131.40L58.01,131.40L39.81,120.79L38.46,118.71L38.48,106.63L39.18,106.26L40.07,106.26L41.67,107.15L41.64,105.46L41.04,105.45L40.51,105.77L39.55,105.74L38.39,105.04L38.39,79.60L39.89,78.98L41.12,79.90L41.64,79.97L41.66,78.49L41.43,78.26L39.89,78.98L38.48,78.01L38.39,71.94L40.77,70.58L41.12,70.59zM197.79,72.70L197.78,77.86L197.49,78.36L171.07,78.29L171.07,72.54L197.53,72.43zM41.66,78.49L41.64,79.97L41.12,79.90L39.89,78.98L41.43,78.26zM47.77,89.92L47.73,90.27L47.22,90.18L46.90,89.65L46.93,88.82zM47.76,101.02L47.72,101.37L47.41,101.37L46.91,100.47L46.94,99.64zM47.75,117.39L47.76,117.97L47.21,117.63L46.90,117.12L46.94,116.28z"/></g><g id="hotspot.4" onmouseover="ShowHotSpot(evt,'4')" onmouseout="HideHotSpot(evt,'4')" onmousemove="ShowToolTip(evt,'4',&quot;F24623314&quot;)" opacity="0"><path style="fill:#00ff00;fill-rule:evenodd" d="M138.33,27.82L139.68,29.11L140.71,31.25L145.19,59.52L145.19,81.53L144.86,81.73L143.87,82.01L130.65,74.33L129.60,73.00L129.07,71.95L129.08,25.27L131.10,24.11L131.99,24.11zM197.79,82.47L197.78,87.63L197.49,88.14L171.07,88.06L171.07,82.31L197.53,82.21zM132.80,40.49L132.80,41.38L131.95,40.23L131.98,39.70zM132.81,51.61L132.81,52.20L132.27,51.85L131.95,51.33L131.90,50.79L132.24,50.75zM132.81,68.25L132.80,68.85L132.55,68.80L132.00,67.96L131.99,67.16z"/></g><g id="hotspot.5" onmouseover="ShowHotSpot(evt,'5')" onmouseout="HideHotSpot(evt,'5')" onmousemove="ShowToolTip(evt,'5',&quot;F24623372&quot;)" opacity="0"><path style="fill:#00ff00;fill-rule:evenodd" d="M101.89,23.32L115.36,30.98L116.14,32.31L117.19,35.49L120.63,66.13L121.40,71.95L122.48,74.31L122.48,99.49L113.43,104.71L112.16,104.71L111.38,104.17L111.15,102.82L103.19,98.09L102.92,58.74L96.86,55.30L96.59,43.41L91.57,40.50L91.57,27.12L98.60,23.06zM197.79,92.51L197.78,97.67L197.49,98.17L171.07,98.10L171.07,92.35L197.53,92.24z"/></g><g id="hotspot.6" onmouseover="ShowHotSpot(evt,'6')" onmouseout="HideHotSpot(evt,'6')" onmousemove="ShowToolTip(evt,'6',&quot;Molla_di_compressione_20x2_Compressa_3.5Spire_Lungh23&quot;)" opacity="0"><path style="fill:#00ff00;fill-rule:evenodd" d="M91.85,55.81L93.70,57.14L95.53,57.94L96.87,58.98L96.87,61.47L96.33,62.78L95.46,64.02L94.15,65.09L92.35,65.08L91.29,64.56L90.75,64.05L86.84,61.88L86.29,61.37L86.27,58.27L87.36,56.46L88.58,55.30L89.37,55.03L90.53,55.02zM91.84,78.54L93.70,79.85L95.53,80.66L96.87,81.70L96.87,84.19L96.33,85.50L95.46,86.74L94.15,87.81L92.35,87.80L86.57,84.34L86.27,83.84L86.27,81.25L87.23,79.30L88.91,77.82L90.53,77.74zM197.79,102.55L197.78,107.70L197.49,108.21L171.07,108.14L171.07,102.39L197.53,102.28zM93.24,58.35L92.90,58.85L92.90,58.27L93.19,58.20zM95.83,59.51L95.54,61.20L94.74,62.51L93.32,63.73L92.27,63.77L94.21,61.98L94.99,60.39L95.53,58.99zM87.33,59.33L88.28,57.38L89.65,56.06L90.24,56.06L89.60,56.58L88.12,58.80L87.62,61.48L87.33,60.87zM90.86,57.02L90.02,58.32L88.89,60.96L88.60,60.97L88.65,59.59L89.60,57.64L90.45,56.84zM94.21,60.66L93.17,62.26L92.36,62.80L92.36,62.00L94.39,59.24L94.51,59.27zM92.88,81.55L92.89,81.00L93.41,80.88zM95.82,81.93L95.54,83.92L94.63,85.39L93.08,86.49L92.25,86.46L94.11,84.86L94.99,83.11L95.56,81.67zM87.33,82.04L88.28,80.09L89.65,78.77L90.24,78.78L89.76,79.18L88.31,81.18L87.62,83.92L87.33,83.62zM90.86,79.74L90.02,81.03L88.89,83.68L88.60,83.69L88.65,82.31L89.60,80.36L90.45,79.55zM94.14,83.57L92.36,85.52L92.36,84.71L93.68,82.85L93.88,82.25L94.52,82.00z"/></g></g></svg>
