<?xml version="1.0" encoding="UTF-8" standalone="no"?>
<svg xmlns="http://www.w3.org/2000/svg" xmlns:xlink="http://www.w3.org/1999/xlink" width="210.000mm" height="150.000mm" viewBox="0.000000 0.000000 210.000000 150.000000" stroke-linejoin="round" stroke-linecap="round" fill="none" fill-rule="evenodd"><desc>Composer Export</desc><script type="text/ecmascript"><![CDATA[
if(typeof(top) != "undefined")
{
	top.ShowPaper = ShowPaper;
}
function ShowHotSpot(evt,hotspotid)
{
	var svgDocument = evt.target.ownerDocument;
	var strId = "hotspot."+hotspotid;
	var hotspot = svgDocument.getElementById(strId);
	if(hotspot)
		hotspot.setAttribute("opacity",".5");
}
function HideHotSpot(evt,hotspotid)
{
	var svgDocument = evt.target.ownerDocument;
	var strId = "hotspot."+hotspotid;
	var hotspot = svgDocument.getElementById(strId);
	if(hotspot)
		hotspot.setAttribute("opacity","0");

	var toolTip = svgDocument.getElementById('ToolTip');
	if(toolTip)
		toolTip.setAttribute("visibility","hidden");
}
function ShowToolTip(evt,hotspotid,strTooltip)
{
	if(strTooltip=="")
	return;

	// change text
	var svgDocument = evt.target.ownerDocument;
	var tiptext = svgDocument.getElementById('ToolTipText');
	if( !tiptext )
	return;
	tiptext.firstChild.nodeValue = " " + strTooltip + "  " ;

	// show tooltip before, else some refresh issue

	var toolTip = svgDocument.getElementById('ToolTip');
	if(!toolTip)
	return;

	toolTip.setAttribute("visibility","visible");
	toolTip.setAttribute("opacity",".95");

	// move tooltip
	// get viewbox

	var root = svgDocument.documentElement;
	var vbox = (root.getAttribute("viewBox")).split(' ');
	var x0 = parseFloat(vbox[0]);
	var y0 = parseFloat(vbox[1]);
	var vboxW = parseFloat(vbox[2]);
	var vboxH = parseFloat(vbox[3]);

	// get default width of svg

	var strW = root.getAttribute("width");
	var svgW = parseFloat(strW);
	if(strW.indexOf('mm') != -1)
	svgW *= 3.779;

	var strH = root.getAttribute("height");
	var svgH = parseFloat(strH);
	if(strH.indexOf('mm') != -1)
	svgH *= 3.779;  	// 96 dpi  -> 96/25.4 = 3.779

	// update the viewbox / width / height if svg is embedded in html with zoom fit all
	var realx0 = x0;
	var realy0 = y0;
	var realvboxW = vboxW;
	var realvboxH = vboxH;
	var realsvgW = svgW;
	var realsvgH = svgH;

	if ((typeof(top) == "undefined") || (typeof(top.svgctl1) != "undefined")) // embedded in html
	{
		// get window size in pxl

		svgW = window.innerWidth;
		svgH = window.innerHeight;

		// calculate real viewbox

		realsvgW = svgW;
		realsvgH = svgH;
		if((svgW / svgH) > (vboxW / vboxH))
		{
			realvboxW = (vboxH * svgW) / svgH;
			realvboxH = vboxH;
			realx0 = x0 - (realvboxW - vboxW)/2 ;
		}
		else
		{
			realvboxH = (vboxW * svgH) / svgW;
			realvboxW = vboxW;
			realy0 = y0 - (realvboxH - vboxH)/2 ;
		}
	}

	// get user zoom/pan

	var newScale = root.currentScale;
	var translation = root.currentTranslate;

	// transform pxl to user unit

	var xPos = (((evt.clientX+10- translation.x)/newScale) * realvboxW)/realsvgW  + realx0 ;
	var yPos = (((evt.clientY+5- translation.y)/newScale) * realvboxH)/ realsvgH  + realy0 ;
	var scaleForWidth = ( (1 / newScale) * realvboxH) / realsvgH;

	// move tooltip

	toolTip.setAttribute("transform", "translate(" + xPos + "," + yPos + ")" );

	// resize tooltip

	var fontsize = 12;
	tiptext.setAttribute("font-size",fontsize*scaleForWidth);
	tiptext.setAttribute("y", fontsize*scaleForWidth);
	var tipBG = svgDocument.getElementById('ToolTipBG');
	var outline = tiptext.getBBox();
	if(tipBG)
	{
		tipBG.setAttribute("stroke-width", 1*scaleForWidth);
		tipBG.setAttribute("width", Number(outline.width) );
		tipBG.setAttribute("height", Number(outline.height) + fontsize*.5*scaleForWidth );
	}
	var ToolTipShadow = svgDocument.getElementById('ToolTipShadow');
	if(ToolTipShadow)
	{
		ToolTipShadow.setAttribute("width", Number(outline.width) );
		ToolTipShadow.setAttribute("height", Number(outline.height) + fontsize*.5*scaleForWidth );
		ToolTipShadow.setAttribute("x", 3*scaleForWidth);
		ToolTipShadow.setAttribute("y", 3*scaleForWidth);
	}
}
function ShowPaper()
{
  var svgDocument = getDocument();
  var paper = svgDocument.getElementById("paperID");
  if(paper)
  {
    paper.setAttribute("transform","scale(1)");
    paper.setAttribute("opacity","1");
    paper.setAttribute("visibility","visible");
  }
  var svg = svgDocument.getRootElement();
  if(svg)
  {
    svg.setAttribute("width","220.000mm");
    svg.setAttribute("height","160.000mm");
    svg.setAttribute("viewBox","-5.000000 -5.000000 220.000000 160.000000");
  }
}
]]></script><defs/><g><path style="fill:#ffffff" d="M209.93,149.99L0.04,149.99L0.04,0.04L209.93,0.04z"/><path style="fill:#2ac7ce" d="M63.33,28.54L63.33,60.41L56.94,64.18L56.60,64.18L53.56,62.39L53.56,30.37L59.85,26.77L60.28,26.77z"/><path style="fill:#8aa7bf" d="M73.58,43.76L73.97,44.39L74.05,44.94L74.20,45.03L74.72,45.66L74.73,47.99L74.47,48.49L73.78,49.33L72.91,49.85L71.67,49.85L71.43,49.70L70.88,49.85L70.02,49.85L69.41,49.58L68.75,48.84L68.59,47.69L68.89,46.46L69.21,45.64L69.79,44.70L70.91,43.67L71.76,43.25L72.82,43.25z"/><path style="fill:#8aa7bf" d="M72.83,63.14L73.71,63.78L74.09,64.79L74.72,65.55L74.73,67.88L74.41,68.45L73.70,69.27L72.78,69.74L71.80,69.75L71.42,69.60L70.75,69.74L70.15,69.74L69.15,69.22L68.76,68.60L68.63,68.09L68.64,67.50L68.85,66.45L69.21,65.54L69.79,64.59L70.87,63.52L72.07,63.03z"/><path style="fill:#8aa7bf" d="M86.27,91.52L86.76,92.28L86.77,93.10L86.62,93.34L78.99,97.75L78.65,97.75L77.90,97.22L77.63,96.73L77.64,95.76L78.77,94.99L85.19,91.27L85.88,91.27z"/><path style="fill:#8aa7bf" d="M86.52,101.52L86.76,102.05L86.72,102.94L79.12,107.38L78.51,107.38L78.02,107.11L77.63,106.37L77.62,105.50L77.84,105.21L85.32,100.90L85.75,100.90z"/><path style="fill:#01ff02" d="M55.32,33.38L55.72,34.00L55.68,34.52L55.08,34.51L54.83,34.25L54.64,33.49L54.79,33.24L55.08,33.22z"/><path style="fill:#01ff02" d="M60.59,39.14L60.66,39.88L60.40,40.38L59.86,40.86L59.39,40.85L59.26,40.72L59.25,40.12L59.58,39.44L59.97,39.06z"/><path style="fill:#01ff02" d="M55.48,43.23L55.72,43.76L55.67,44.28L55.21,44.27L54.83,43.88L54.69,43.51L54.70,43.04L54.96,42.87z"/><path style="fill:#01ff02" d="M73.34,47.35L72.69,48.12L72.68,47.59L73.16,46.90L73.32,46.92z"/><path style="fill:#01ff02" d="M55.32,57.58L55.72,58.20L55.72,58.76L55.08,58.71L54.69,58.08L54.68,57.60L54.79,57.44L55.08,57.42z"/><path style="fill:#01ff02" d="M60.67,59.08L60.66,59.77L60.40,60.28L59.86,60.75L59.39,60.74L59.25,60.49L59.25,60.02L59.58,59.33L59.97,58.96L60.54,58.95z"/><path style="fill:#01ff02" d="M73.34,67.25L72.69,68.02L72.68,67.48L73.16,66.79L73.32,66.81z"/><path style="fill:#01ff02" d="M78.51,96.23L78.78,96.59L78.73,97.25L78.52,97.25L78.15,96.97L78.01,96.74L78.01,96.12L78.27,96.07z"/><path style="fill:#01ff02" d="M78.78,106.35L78.77,106.92L78.38,106.88L78.02,106.48L77.97,105.84L78.40,105.84z"/><path style="fill:#999999" d="M90.69,53.77L91.20,54.14L91.83,54.40L92.17,54.82L92.59,54.91L93.22,55.42L93.73,55.54L94.24,55.92L94.61,56.05L95.63,56.68L96.01,57.44L96.01,58.63L95.61,59.97L95.34,60.62L94.44,61.75L93.19,62.52L92.32,62.52L90.82,61.74L89.69,60.98L88.67,60.48L88.15,60.11L87.15,59.59L86.62,58.97L86.50,58.59L86.50,57.10L86.95,55.78L87.72,54.65L88.67,53.83L89.37,53.51L90.19,53.51z"/><path style="fill:#999999" d="M91.20,74.04L91.83,74.29L92.17,74.72L92.97,74.92L93.22,75.31L93.86,75.43L94.24,75.81L94.87,76.07L95.64,76.56L96.01,77.34L96.01,78.52L95.61,79.86L95.25,80.68L94.31,81.76L93.06,82.41L92.32,82.41L91.71,82.14L91.45,81.90L90.70,81.51L89.68,80.87L88.67,80.37L88.15,80.00L87.15,79.48L86.62,78.87L86.50,78.36L86.50,77.00L86.88,75.86L87.65,74.60L88.67,73.72L89.24,73.40L90.31,73.40z"/><path style="fill:#2ac7ce" d="M140.23,33.24L141.39,34.24L142.13,35.52L142.52,36.66L146.57,62.39L146.58,80.18L145.64,80.77L145.30,80.77L133.27,73.78L132.24,72.03L132.25,31.13L134.36,29.93L134.53,29.94z"/><path style="fill:#2ac7ce" d="M53.18,83.17L54.33,84.04L55.08,84.94L55.72,86.46L59.77,111.93L59.78,130.36L59.00,130.86L58.62,130.96L42.16,121.43L41.15,119.66L41.14,109.19L42.11,108.63L42.28,108.63L43.94,109.57L43.93,108.00L43.79,107.62L43.68,107.92L42.91,108.43L42.53,108.52L41.10,107.66L41.10,85.45L41.99,84.93L42.28,84.93L43.94,85.87L43.93,84.31L43.79,83.93L43.68,84.22L42.80,84.75L42.54,84.83L41.10,83.97L41.10,78.74L43.30,77.46z"/><path style="fill:#f2f2f2" d="M105.89,29.69L107.92,30.08L119.33,36.66L119.70,37.17L120.60,39.19L120.84,40.34L124.39,71.64L124.51,72.15L125.40,74.17L125.66,75.19L125.66,96.51L117.24,101.42L116.93,101.42L115.74,100.69L115.66,99.50L108.68,95.46L108.55,60.99L102.94,57.74L102.86,47.55L98.29,44.90L98.29,33.28L104.71,29.55z"/><path style="fill:#ffffff" d="M135.15,43.90L135.55,44.51L135.55,45.20L135.17,44.89L134.63,43.75L134.63,43.61z"/><path style="fill:#ffffff" d="M135.05,53.50L135.55,54.27L135.55,54.83L135.17,54.52L134.64,53.51L134.65,53.26z"/><path style="fill:#ffffff" d="M94.88,57.05L95.00,57.58L94.87,58.50L94.62,59.13L93.98,60.15L93.06,61.00L92.17,61.39L91.94,61.37L91.90,61.13L93.05,60.35L94.06,58.84L94.49,57.61L94.57,56.92L94.74,56.91z"/><path style="fill:#ffffff" d="M92.85,56.47L92.34,56.99L92.33,56.47L92.86,56.19z"/><path style="fill:#ffffff" d="M87.52,57.74L87.77,56.72L88.60,55.27L89.51,54.53L89.75,54.40L90.31,54.40L89.17,55.34L88.41,56.60L88.02,57.74L87.91,59.13L87.65,58.97L87.52,58.46z"/><path style="fill:#ffffff" d="M90.57,55.60L89.94,56.36L89.38,57.45L89.05,58.63L88.66,58.89L88.65,57.73L89.25,56.31L90.12,55.28L90.57,55.04z"/><path style="fill:#ffffff" d="M90.95,59.52L90.81,59.77L90.82,59.11L90.95,59.09z"/><path style="fill:#ffffff" d="M141.89,59.98L141.89,60.15L141.76,60.11L141.76,59.84z"/><path style="fill:#ffffff" d="M90.06,60.15L89.75,60.16L89.79,59.89L90.06,59.85z"/><path style="fill:#ffffff" d="M93.86,57.74L93.47,58.63L92.84,59.64L91.95,60.41L91.96,59.64L92.66,58.82L93.48,57.37L93.87,57.19z"/><path style="fill:#ffffff" d="M135.15,68.10L135.55,68.71L135.55,69.40L135.30,69.22L134.63,67.95L134.63,67.81z"/><path style="fill:#ffffff" d="M90.68,75.31L89.94,76.25L89.38,77.34L89.05,78.53L88.66,78.79L88.65,77.63L89.25,76.20L90.12,75.17L90.56,74.94z"/><path style="fill:#ffffff" d="M91.69,75.99L91.67,75.55L91.81,75.53z"/><path style="fill:#ffffff" d="M95.00,77.34L94.99,77.89L94.87,78.39L94.36,79.54L93.42,80.62L92.17,81.28L91.94,81.27L91.90,81.02L92.99,80.32L93.98,78.90L94.36,78.14L94.58,76.82L94.74,76.80z"/><path style="fill:#ffffff" d="M92.85,76.36L92.33,76.88L92.32,76.49L92.72,76.09L92.86,76.08z"/><path style="fill:#ffffff" d="M87.47,77.85L87.77,76.62L88.60,75.17L89.51,74.43L89.75,74.29L90.31,74.29L90.06,74.46L89.17,75.23L88.41,76.49L88.02,77.63L87.90,79.03L87.63,78.74z"/><path style="fill:#ffffff" d="M90.95,79.42L90.81,79.67L90.82,79.00L90.95,78.99z"/><path style="fill:#ffffff" d="M89.79,79.78L90.06,79.74L90.06,80.05L89.79,80.01z"/><path style="fill:#ffffff" d="M93.86,77.64L93.47,78.52L92.84,79.53L91.95,80.31L91.96,79.54L92.67,78.73L93.48,77.26L93.87,77.09z"/><path style="fill:#ffffff" d="M49.01,93.92L49.50,94.96L49.27,94.96L48.61,94.20L48.49,93.46L48.62,93.43z"/><path style="fill:#ffffff" d="M49.01,103.56L49.51,104.59L49.25,104.60L48.88,104.32L48.61,103.83L48.62,103.05z"/><path style="fill:#ffffff" d="M55.47,110.16L55.47,110.33L55.34,110.29L55.34,110.02z"/><path style="fill:#ffffff" d="M49.01,118.13L49.50,119.17L49.27,119.16L48.61,118.40L48.62,117.62z"/><path style="fill:#ffffff" d="M55.34,119.83L55.22,119.81L55.20,119.40z"/><path style="stroke:#000000;stroke-width:0.088" d="M86.88,79.22L86.85,79.19L86.59,78.70L86.57,78.66L86.44,78.04L86.43,78.01L86.45,77.30L86.57,76.68L86.61,76.53L86.68,76.35"/><path style="stroke:#000000;stroke-width:0.088" d="M86.56,76.77L86.56,76.76"/><path style="stroke:#000000;stroke-width:0.088" d="M86.59,76.64L86.58,76.64"/><path style="stroke:#000000;stroke-width:0.088" d="M86.61,76.54L86.61,76.54L86.90,75.78"/><path style="stroke:#000000;stroke-width:0.088" d="M88.36,80.05L88.32,80.05L87.81,79.85L87.76,79.83L87.72,79.80L87.32,79.43L87.29,79.40L87.00,78.82L86.87,78.12L86.91,78.18L86.98,78.22L87.07,78.25L87.17,78.26L87.21,78.26L87.31,78.25L87.40,78.21L87.46,78.16L87.49,78.10L87.53,77.46"/><path style="stroke:#000000;stroke-width:0.088" d="M87.32,79.58L87.37,79.60L87.56,79.65"/><path style="stroke:#000000;stroke-width:0.088" d="M88.20,79.69L88.02,79.61L87.60,79.06L87.41,78.32L87.40,78.21L87.49,77.31L87.81,76.36L88.31,75.48L88.95,74.74L89.65,74.23L90.33,74.01L90.92,74.09L90.93,74.10"/><path style="stroke:#000000;stroke-width:0.088" d="M86.89,79.23L87.28,79.55L87.32,79.58"/><path style="stroke:#000000;stroke-width:0.088" d="M86.87,78.12L86.87,78.06L86.92,77.36L86.93,77.34L87.12,76.59L87.43,75.84L87.87,75.13L88.37,74.53L88.94,74.04L89.50,73.72L89.54,73.71L90.09,73.57L90.14,73.57"/><path style="stroke:#000000;stroke-width:0.088" d="M87.61,78.66L87.49,78.08"/><path style="stroke:#000000;stroke-width:0.088" d="M88.81,74.97L88.36,75.51L87.98,76.14L87.70,76.81L87.53,77.48"/><path style="stroke:#000000;stroke-width:0.088" d="M86.90,75.77L86.84,75.93"/><path style="stroke:#000000;stroke-width:0.088" d="M86.92,75.73L87.43,74.87L88.05,74.16"/><path style="stroke:#000000;stroke-width:0.088" d="M89.38,80.66L89.34,80.65L88.84,80.45L88.79,80.43L88.75,80.40L88.36,80.01L88.33,79.97L88.05,79.39L87.93,78.69L87.97,77.95L88.14,77.16L88.44,76.39L88.65,75.99L89.10,75.33L89.61,74.79L89.63,74.77L90.17,74.36L90.70,74.13L90.74,74.12L91.29,74.07L91.34,74.07L91.54,74.12L91.59,74.14L91.97,74.37L92.01,74.40L92.04,74.44L92.21,74.70"/><path style="stroke:#000000;stroke-width:0.088" d="M88.03,79.24L87.81,79.04"/><path style="stroke:#000000;stroke-width:0.088" d="M87.82,79.06L87.60,78.65"/><path style="stroke:#000000;stroke-width:0.088" d="M87.80,79.02L87.99,79.01"/><path style="stroke:#000000;stroke-width:0.088" d="M88.00,79.14L87.87,79.10"/><path style="stroke:#000000;stroke-width:0.088" d="M88.01,79.12L87.97,79.13"/><path style="stroke:#000000;stroke-width:0.088" d="M88.09,74.13L88.05,74.16"/><path style="stroke:#000000;stroke-width:0.088" d="M89.53,73.33L89.53,73.33L88.99,73.51L88.79,73.61L88.41,73.88L88.07,74.14L88.08,74.14"/><path style="stroke:#000000;stroke-width:0.088" d="M89.25,80.29L88.98,80.12L88.84,79.97L88.54,79.30L88.46,78.56L88.59,77.61L88.95,76.64L89.09,76.37L89.65,75.55L90.21,74.99L90.88,74.60L91.49,74.51L91.66,74.54L91.92,74.72"/><path style="stroke:#000000;stroke-width:0.088" d="M89.44,80.64L89.41,80.60L89.36,80.53L89.34,80.48L89.10,79.93L89.00,79.22"/><path style="stroke:#000000;stroke-width:0.088" d="M88.41,80.06L88.37,80.06"/><path style="stroke:#000000;stroke-width:0.088" d="M88.66,79.25L88.88,79.66"/><path style="stroke:#000000;stroke-width:0.088" d="M89.09,79.85L88.87,79.65"/><path style="stroke:#000000;stroke-width:0.088" d="M89.00,79.22L89.05,78.48L89.05,78.46L89.24,77.68L89.55,76.93L89.96,76.23L90.45,75.63L90.66,75.43L90.61,75.48"/><path style="stroke:#000000;stroke-width:0.088" d="M88.56,78.72L88.67,79.25"/><path style="stroke:#000000;stroke-width:0.088" d="M89.02,79.40L88.89,79.44"/><path style="stroke:#000000;stroke-width:0.088" d="M88.92,79.44L88.76,79.44"/><path style="stroke:#000000;stroke-width:0.088" d="M89.03,78.80L88.87,78.91L88.62,79.00"/><path style="stroke:#000000;stroke-width:0.088" d="M89.05,78.49L88.86,78.66L88.58,78.80"/><path style="stroke:#000000;stroke-width:0.088" d="M88.56,78.73L88.57,78.17L88.68,77.55"/><path style="stroke:#000000;stroke-width:0.088" d="M88.69,77.51L88.93,76.82L89.27,76.17L89.68,75.60L90.14,75.14"/><path style="stroke:#000000;stroke-width:0.088" d="M89.15,74.67L88.81,74.97"/><path style="stroke:#000000;stroke-width:0.088" d="M90.32,80.95L90.30,80.94L89.88,80.54L89.59,79.85L89.54,78.98L89.57,78.69L89.82,77.73L90.19,76.92L90.77,76.11L91.43,75.50L91.63,75.37L92.27,75.13L92.76,75.17L92.99,75.34"/><path style="stroke:#000000;stroke-width:0.088" d="M89.44,80.64L89.84,81.02L89.88,81.05L90.43,81.28L90.47,81.28L90.56,81.29"/><path style="stroke:#000000;stroke-width:0.088" d="M89.47,80.67L89.39,80.66"/><path style="stroke:#000000;stroke-width:0.088" d="M89.69,79.69L90.07,79.51"/><path style="stroke:#000000;stroke-width:0.088" d="M89.73,79.80L90.08,79.62"/><path style="stroke:#000000;stroke-width:0.088" d="M89.82,80.05L90.02,80.05"/><path style="stroke:#000000;stroke-width:0.088" d="M89.67,79.65L89.62,79.04L89.70,78.39"/><path style="stroke:#000000;stroke-width:0.088" d="M89.84,80.12L89.67,79.62"/><path style="stroke:#000000;stroke-width:0.088" d="M90.11,80.46L90.11,80.46L89.83,80.09"/><path style="stroke:#000000;stroke-width:0.088" d="M90.27,78.46L89.82,78.92L89.77,78.96L89.62,79.05"/><path style="stroke:#000000;stroke-width:0.088" d="M90.22,78.62L89.80,79.03L89.78,79.05L89.63,79.15"/><path style="stroke:#000000;stroke-width:0.088" d="M90.18,78.77L89.86,79.03L89.63,79.15"/><path style="stroke:#000000;stroke-width:0.088" d="M91.23,75.74L90.77,76.19L90.36,76.75L90.19,77.04L89.89,77.71L89.69,78.40"/><path style="stroke:#000000;stroke-width:0.088" d="M89.74,78.22L89.88,78.10L90.32,77.52L90.67,76.88L90.92,76.23L90.97,76.00"/><path style="stroke:#000000;stroke-width:0.088" d="M90.19,74.19L89.75,74.30"/><path style="stroke:#000000;stroke-width:0.088" d="M89.77,74.29L89.28,74.57"/><path style="stroke:#000000;stroke-width:0.088" d="M89.53,73.33L89.55,73.33L89.61,73.33L89.60,73.33"/><path style="stroke:#000000;stroke-width:0.088" d="M90.63,73.57L90.59,73.55L90.12,73.34L89.61,73.33L89.64,73.33"/><path style="stroke:#000000;stroke-width:0.088" d="M91.30,81.84L91.25,81.82L90.78,81.55L90.74,81.52L90.37,81.04L90.28,80.86L90.11,80.25L90.10,80.21L90.07,79.50L90.19,78.71L90.44,77.94L90.80,77.21L91.25,76.55L91.76,76.01L91.78,75.99L92.32,75.59L92.56,75.47L92.60,75.45"/><path style="stroke:#000000;stroke-width:0.088" d="M90.17,80.48L90.07,80.42"/><path style="stroke:#000000;stroke-width:0.088" d="M90.97,81.14L90.87,81.03L90.77,80.83L90.60,80.04L90.65,79.24L90.92,78.27L91.38,77.34L91.55,77.09L92.17,76.38L92.74,75.96L93.39,75.74L93.94,75.83L94.02,75.88"/><path style="stroke:#000000;stroke-width:0.088" d="M90.09,80.02L89.99,80.05"/><path style="stroke:#000000;stroke-width:0.088" d="M90.30,76.86L90.06,77.35L90.04,77.38"/><path style="stroke:#000000;stroke-width:0.088" d="M90.66,75.43L91.00,75.14L90.66,75.43"/><path style="stroke:#000000;stroke-width:0.088" d="M90.74,74.77L90.28,75.03L90.13,75.15"/><path style="stroke:#000000;stroke-width:0.088" d="M90.40,74.27L90.35,74.21"/><path style="stroke:#000000;stroke-width:0.088" d="M90.67,74.92L90.64,74.83"/><path style="stroke:#000000;stroke-width:0.088" d="M90.67,75.42L90.68,75.28L90.66,74.82"/><path style="stroke:#000000;stroke-width:0.088" d="M91.29,74.07L91.21,73.95L91.17,73.91L91.13,73.88L90.73,73.64L90.68,73.62L90.63,73.62L90.14,73.57"/><path style="stroke:#000000;stroke-width:0.088" d="M90.64,73.58L90.67,73.62"/><path style="stroke:#000000;stroke-width:0.088" d="M90.53,73.52L90.20,73.36L90.12,73.34"/><path style="stroke:#000000;stroke-width:0.088" d="M90.49,74.22L90.16,74.19"/><path style="stroke:#000000;stroke-width:0.088" d="M95.00,80.57L95.08,80.47L95.44,79.87L95.48,79.79L95.50,79.79L95.53,79.79L95.59,79.68L95.91,78.76L96.00,78.00L96.01,77.99L96.02,77.98L96.03,77.93L96.04,77.59L95.86,76.93L95.45,76.47L94.86,76.29L94.22,76.39L93.47,76.79L92.75,77.45L92.12,78.30L91.71,79.14L91.43,80.12L91.38,81.02L91.57,81.75L91.82,82.08L91.67,81.93L91.59,81.79"/><path style="stroke:#000000;stroke-width:0.088" d="M91.39,81.85L91.30,81.84"/><path style="stroke:#000000;stroke-width:0.088" d="M91.91,82.19L91.83,82.17L91.79,82.15L91.33,81.82L91.30,81.78L91.02,81.31L91.00,81.27L90.85,80.66L90.85,80.63L90.85,79.92L90.99,79.16L90.96,79.31"/><path style="stroke:#000000;stroke-width:0.088" d="M92.72,77.14L92.22,77.75L91.81,78.46L91.50,79.21L91.32,79.98L91.28,80.70L91.39,81.37L91.52,81.63"/><path style="stroke:#000000;stroke-width:0.088" d="M91.44,81.44L91.57,81.75L91.70,81.94"/><path style="stroke:#000000;stroke-width:0.088" d="M90.85,80.41L90.81,80.43"/><path style="stroke:#000000;stroke-width:0.088" d="M90.73,80.17L90.85,80.57"/><path style="stroke:#000000;stroke-width:0.088" d="M90.85,80.29L90.77,80.32"/><path style="stroke:#000000;stroke-width:0.088" d="M90.70,79.77L90.90,79.66"/><path style="stroke:#000000;stroke-width:0.088" d="M90.73,80.20L90.69,79.58L90.78,78.93"/><path style="stroke:#000000;stroke-width:0.088" d="M91.24,78.49L91.00,78.78L90.77,78.98"/><path style="stroke:#000000;stroke-width:0.088" d="M91.17,78.68L91.08,78.79L90.84,79.03L90.76,79.10"/><path style="stroke:#000000;stroke-width:0.088" d="M92.15,76.49L91.70,76.98L91.31,77.57L90.99,78.24L90.78,78.93"/><path style="stroke:#000000;stroke-width:0.088" d="M92.14,77.03L91.66,77.67L91.27,78.39L91.00,79.14L90.93,79.50"/><path style="stroke:#000000;stroke-width:0.088" d="M93.30,75.31L92.98,74.93L92.94,74.90L92.58,74.73L92.54,74.71L92.49,74.71L92.01,74.70L91.96,74.70L91.43,74.88L91.40,74.90L91.00,75.14L90.94,75.19"/><path style="stroke:#000000;stroke-width:0.088" d="M92.07,75.31L91.61,75.48L91.22,75.75"/><path style="stroke:#000000;stroke-width:0.088" d="M91.04,75.11L91.04,75.06"/><path style="stroke:#000000;stroke-width:0.088" d="M91.05,75.09L90.96,74.73"/><path style="stroke:#000000;stroke-width:0.088" d="M91.55,74.84L91.39,74.73"/><path style="stroke:#000000;stroke-width:0.088" d="M90.73,74.78L91.14,74.68"/><path style="stroke:#000000;stroke-width:0.088" d="M91.46,74.74L91.46,74.74L91.11,74.69"/><path style="stroke:#000000;stroke-width:0.088" d="M91.82,82.08L91.92,82.21L92.49,82.46L92.04,82.28L91.92,82.21"/><path style="stroke:#000000;stroke-width:0.088" d="M92.11,81.54L92.17,81.60L92.13,81.57L91.89,81.11L91.81,80.41L91.94,79.59L92.21,78.90L92.18,78.99"/><path style="stroke:#000000;stroke-width:0.088" d="M92.17,81.60L92.57,81.88L93.15,81.92L93.80,81.68L94.11,81.45L93.68,81.73"/><path style="stroke:#000000;stroke-width:0.088" d="M91.98,81.29L92.37,81.23"/><path style="stroke:#000000;stroke-width:0.088" d="M92.20,81.62L92.46,81.69"/><path style="stroke:#000000;stroke-width:0.088" d="M94.46,76.78L94.49,76.97L94.39,77.80L94.05,78.71L93.91,78.98L93.32,79.81L92.70,80.42L91.93,80.91L91.87,80.93"/><path style="stroke:#000000;stroke-width:0.088" d="M91.82,80.49L91.83,80.30"/><path style="stroke:#000000;stroke-width:0.088" d="M91.88,81.03L92.39,80.76"/><path style="stroke:#000000;stroke-width:0.088" d="M92.44,79.92L91.90,80.33L91.83,80.36"/><path style="stroke:#000000;stroke-width:0.088" d="M93.20,77.52L93.08,77.89L92.58,78.78L91.99,79.46"/><path style="stroke:#000000;stroke-width:0.088" d="M91.94,79.61L92.03,79.53L92.55,78.91L92.98,78.21L93.28,77.53L93.31,77.41"/><path style="stroke:#000000;stroke-width:0.088" d="M92.26,76.41L92.14,76.93L92.06,77.13"/><path style="stroke:#000000;stroke-width:0.088" d="M92.16,77.01L92.27,76.72L92.36,76.33"/><path style="stroke:#000000;stroke-width:0.088" d="M92.14,77.03L92.67,76.51L92.69,76.49L93.26,76.11L93.86,75.89L93.90,75.88L94.42,75.86L94.47,75.87"/><path style="stroke:#000000;stroke-width:0.088" d="M91.45,76.33L91.52,76.13L91.57,75.51"/><path style="stroke:#000000;stroke-width:0.088" d="M91.67,75.46L91.67,75.66L91.56,76.22"/><path style="stroke:#000000;stroke-width:0.088" d="M92.86,76.01L92.60,76.15L92.15,76.49"/><path style="stroke:#000000;stroke-width:0.088" d="M91.82,75.59L91.79,75.98"/><path style="stroke:#000000;stroke-width:0.088" d="M92.38,75.31L92.02,75.33"/><path style="stroke:#000000;stroke-width:0.088" d="M91.83,75.62L91.83,75.63L91.79,75.41"/><path style="stroke:#000000;stroke-width:0.088" d="M91.49,74.86L91.46,74.78"/><path style="stroke:#000000;stroke-width:0.088" d="M92.49,82.46L93.19,82.39L93.94,82.03L93.66,82.17L93.19,82.39"/><path style="stroke:#000000;stroke-width:0.088" d="M95.27,78.94L94.98,79.58L94.80,79.88L94.17,80.67L93.42,81.29L92.68,81.65"/><path style="stroke:#000000;stroke-width:0.088" d="M93.42,80.62L92.88,81.00L92.36,81.23"/><path style="stroke:#000000;stroke-width:0.088" d="M93.85,81.07L93.85,81.06L93.33,81.43L92.85,81.63L92.42,81.68"/><path style="stroke:#000000;stroke-width:0.088" d="M92.85,81.63L92.85,81.63"/><path style="stroke:#000000;stroke-width:0.088" d="M92.52,81.85L92.62,81.88"/><path style="stroke:#000000;stroke-width:0.088" d="M94.57,76.75L94.56,77.25L94.40,77.98L94.11,78.70L93.97,78.97L93.53,79.65L92.99,80.26L92.39,80.75"/><path style="stroke:#000000;stroke-width:0.088" d="M93.87,77.59L93.65,78.22L93.35,78.81L92.92,79.41L92.43,79.93"/><path style="stroke:#000000;stroke-width:0.088" d="M92.21,78.90L92.28,78.74L92.78,77.95L93.34,77.36"/><path style="stroke:#000000;stroke-width:0.088" d="M92.23,78.87L92.28,78.74"/><path style="stroke:#000000;stroke-width:0.088" d="M92.72,77.14L93.28,76.64"/><path style="stroke:#000000;stroke-width:0.088" d="M92.88,76.37L92.89,76.18L92.88,76.02"/><path style="stroke:#000000;stroke-width:0.088" d="M92.88,76.03L92.88,76.02"/><path style="stroke:#000000;stroke-width:0.088" d="M92.84,76.02L93.25,75.92"/><path style="stroke:#000000;stroke-width:0.088" d="M92.32,75.59L92.31,75.32"/><path style="stroke:#000000;stroke-width:0.088" d="M92.60,75.45L93.12,75.31L93.17,75.30L93.64,75.34L93.69,75.35L93.73,75.37L94.07,75.56L94.10,75.59L94.14,75.63L94.30,75.87"/><path style="stroke:#000000;stroke-width:0.088" d="M92.43,75.53L92.43,75.37L92.43,75.35"/><path style="stroke:#000000;stroke-width:0.088" d="M92.61,75.45L92.58,75.42"/><path style="stroke:#000000;stroke-width:0.088" d="M92.61,75.43L92.58,75.42L92.35,75.32"/><path style="stroke:#000000;stroke-width:0.088" d="M93.06,81.91L93.16,81.91"/><path style="stroke:#000000;stroke-width:0.088" d="M94.92,78.26L94.69,78.90L94.35,79.53L93.91,80.12L93.41,80.62"/><path style="stroke:#000000;stroke-width:0.088" d="M93.11,77.60L93.46,77.28"/><path style="stroke:#000000;stroke-width:0.088" d="M93.33,77.36L94.00,76.91L94.66,76.72L95.24,76.82L95.67,77.19L95.95,77.88L95.98,77.98L95.99,78.00L96.00,78.00"/><path style="stroke:#000000;stroke-width:0.088" d="M93.28,76.64L93.85,76.30L93.89,76.28L94.45,76.12L94.50,76.12L95.00,76.15L95.05,76.16L95.10,76.18L95.51,76.40L95.55,76.43L95.58,76.47L95.88,76.86L95.90,76.90L96.06,77.44L96.07,77.48L96.08,78.13L95.95,78.86"/><path style="stroke:#000000;stroke-width:0.088" d="M93.40,76.06L93.35,75.94"/><path style="stroke:#000000;stroke-width:0.088" d="M93.50,76.02L93.49,75.96"/><path style="stroke:#000000;stroke-width:0.088" d="M93.57,76.00L93.52,75.96"/><path style="stroke:#000000;stroke-width:0.088" d="M93.58,75.97L93.58,75.97L93.23,75.92"/><path style="stroke:#000000;stroke-width:0.088" d="M93.94,82.03L94.56,81.52L95.21,80.73L95.69,79.85L95.48,79.79"/><path style="stroke:#000000;stroke-width:0.088" d="M94.11,81.45L94.47,81.18L95.00,80.56"/><path style="stroke:#000000;stroke-width:0.088" d="M94.58,81.06L94.29,81.32"/><path style="stroke:#000000;stroke-width:0.088" d="M93.87,81.04L94.36,80.55"/><path style="stroke:#000000;stroke-width:0.088" d="M93.84,81.07L93.85,81.07"/><path style="stroke:#000000;stroke-width:0.088" d="M95.35,78.70L95.12,79.35L94.77,79.99L94.33,80.59L93.85,81.07"/><path style="stroke:#000000;stroke-width:0.088" d="M93.87,77.61L93.96,77.02L93.96,76.94"/><path style="stroke:#000000;stroke-width:0.088" d="M95.07,76.17L95.01,76.10L94.97,76.07L94.92,76.05L94.48,75.87"/><path style="stroke:#000000;stroke-width:0.088" d="M95.10,80.43L94.92,80.65"/><path style="stroke:#000000;stroke-width:0.088" d="M95.15,80.35L95.47,79.82"/><path style="stroke:#000000;stroke-width:0.088" d="M94.92,78.28L95.02,77.69"/><path style="stroke:#000000;stroke-width:0.088" d="M94.98,77.19L95.02,77.70L95.04,77.76L95.10,77.81L95.17,77.84L95.27,77.87L95.37,77.87L95.45,77.86"/><path style="stroke:#000000;stroke-width:0.088" d="M95.34,77.17L95.13,76.90"/><path style="stroke:#000000;stroke-width:0.088" d="M94.88,76.76L95.17,76.92L95.17,76.92"/><path style="stroke:#000000;stroke-width:0.088" d="M94.58,76.74L94.92,76.76"/><path style="stroke:#000000;stroke-width:0.088" d="M94.66,76.72L94.67,76.72"/><path style="stroke:#000000;stroke-width:0.088" d="M94.78,76.76L94.87,76.86"/><path style="stroke:#000000;stroke-width:0.088" d="M94.98,77.20L94.84,76.82"/><path style="stroke:#000000;stroke-width:0.088" d="M95.62,76.56L95.45,76.47L95.20,76.36"/><path style="stroke:#000000;stroke-width:0.088" d="M95.53,79.79L95.61,79.82L95.69,79.85"/><path style="stroke:#000000;stroke-width:0.088" d="M95.95,78.87L95.69,79.60L95.58,79.81"/><path style="stroke:#000000;stroke-width:0.088" d="M95.44,79.87L95.44,79.87"/><path style="stroke:#000000;stroke-width:0.088" d="M95.45,77.57L95.46,78.10L95.35,78.72L95.35,78.72"/><path style="stroke:#000000;stroke-width:0.088" d="M95.45,77.59L95.33,77.16"/><path style="stroke:#000000;stroke-width:0.088" d="M86.87,59.34L86.84,59.30L86.57,58.82L86.56,58.78L86.43,58.16L86.42,58.12L86.44,57.42L86.56,56.80L86.60,56.64L86.67,56.47"/><path style="stroke:#000000;stroke-width:0.088" d="M86.55,56.89L86.55,56.88"/><path style="stroke:#000000;stroke-width:0.088" d="M86.57,56.75L86.57,56.76"/><path style="stroke:#000000;stroke-width:0.088" d="M86.60,56.66L86.59,56.66L86.88,55.90"/><path style="stroke:#000000;stroke-width:0.088" d="M89.64,54.35L88.94,54.85L88.30,55.60L87.80,56.48L87.48,57.43L87.39,58.33L87.30,58.37L87.20,58.38L87.16,58.38L87.06,58.37L86.97,58.34L86.90,58.30L86.86,58.24L86.99,58.94L87.28,59.51L87.31,59.55L87.71,59.92L87.75,59.95L87.80,59.97L88.31,60.17L88.35,60.17"/><path style="stroke:#000000;stroke-width:0.088" d="M87.31,59.70L87.27,59.67L86.88,59.34"/><path style="stroke:#000000;stroke-width:0.088" d="M87.31,59.70L87.36,59.72L87.55,59.77"/><path style="stroke:#000000;stroke-width:0.088" d="M88.19,59.81L88.01,59.72L87.59,59.17L87.40,58.44L87.39,58.33L87.45,58.28L87.48,58.22"/><path style="stroke:#000000;stroke-width:0.088" d="M86.86,58.24L86.86,58.18L86.91,57.48L86.91,57.46L87.11,56.71L87.42,55.96L87.86,55.25L88.36,54.65L88.93,54.16L89.49,53.84L89.53,53.83L90.08,53.69L90.13,53.68"/><path style="stroke:#000000;stroke-width:0.088" d="M87.59,58.78L87.48,58.20"/><path style="stroke:#000000;stroke-width:0.088" d="M87.52,57.58L87.48,58.22"/><path style="stroke:#000000;stroke-width:0.088" d="M87.52,57.60L87.69,56.93L87.97,56.26L88.35,55.63L88.80,55.09"/><path style="stroke:#000000;stroke-width:0.088" d="M86.83,56.04L86.88,55.89L87.42,54.99L88.04,54.28"/><path style="stroke:#000000;stroke-width:0.088" d="M89.37,60.78L89.33,60.77L88.83,60.56L88.78,60.54L88.74,60.51L88.35,60.13L88.32,60.09L88.04,59.50L87.92,58.80L87.96,58.07L88.13,57.27L88.43,56.51L88.64,56.11L89.09,55.45L89.59,54.90L89.62,54.88L90.16,54.48L90.69,54.25L90.73,54.23L91.28,54.18L91.33,54.19L91.53,54.24L91.58,54.25L91.95,54.48L91.99,54.51L92.03,54.55L92.20,54.82"/><path style="stroke:#000000;stroke-width:0.088" d="M88.02,59.36L87.80,59.16"/><path style="stroke:#000000;stroke-width:0.088" d="M87.81,59.18L87.59,58.77"/><path style="stroke:#000000;stroke-width:0.088" d="M87.79,59.14L87.98,59.12"/><path style="stroke:#000000;stroke-width:0.088" d="M87.99,59.26L87.86,59.22"/><path style="stroke:#000000;stroke-width:0.088" d="M88.00,59.24L87.96,59.25"/><path style="stroke:#000000;stroke-width:0.088" d="M88.08,54.25L88.04,54.28"/><path style="stroke:#000000;stroke-width:0.088" d="M89.51,53.45L89.52,53.45L88.98,53.63L88.78,53.73L88.40,54.00L88.06,54.26L88.07,54.26"/><path style="stroke:#000000;stroke-width:0.088" d="M89.24,60.40L88.97,60.24L88.83,60.08L88.53,59.42L88.45,58.68L88.58,57.73L88.94,56.76L89.08,56.49L89.63,55.67L90.20,55.11"/><path style="stroke:#000000;stroke-width:0.088" d="M89.43,60.76L89.40,60.72L89.35,60.64L89.33,60.60L89.09,60.05L88.99,59.34"/><path style="stroke:#000000;stroke-width:0.088" d="M88.40,60.17L88.36,60.17"/><path style="stroke:#000000;stroke-width:0.088" d="M88.65,59.36L88.87,59.78"/><path style="stroke:#000000;stroke-width:0.088" d="M89.08,59.97L88.86,59.76"/><path style="stroke:#000000;stroke-width:0.088" d="M89.01,59.52L88.88,59.55"/><path style="stroke:#000000;stroke-width:0.088" d="M88.91,59.56L88.75,59.55"/><path style="stroke:#000000;stroke-width:0.088" d="M88.57,58.92L88.85,58.78L89.04,58.61"/><path style="stroke:#000000;stroke-width:0.088" d="M88.99,59.34L89.04,58.60L89.04,58.57L89.23,57.80L89.54,57.04L89.95,56.35L90.44,55.74L90.66,55.54L90.60,55.60"/><path style="stroke:#000000;stroke-width:0.088" d="M88.55,58.84L88.56,58.29L88.67,57.67"/><path style="stroke:#000000;stroke-width:0.088" d="M88.55,58.84L88.65,59.37"/><path style="stroke:#000000;stroke-width:0.088" d="M89.02,58.92L88.86,59.02L88.61,59.12"/><path style="stroke:#000000;stroke-width:0.088" d="M88.68,57.63L88.92,56.94L89.26,56.29L89.67,55.72L90.13,55.26"/><path style="stroke:#000000;stroke-width:0.088" d="M89.14,54.79L88.80,55.09"/><path style="stroke:#000000;stroke-width:0.088" d="M89.43,60.76L89.82,61.14L89.86,61.17L90.41,61.39L90.46,61.40L90.55,61.40"/><path style="stroke:#000000;stroke-width:0.088" d="M90.31,61.07L90.29,61.06L89.87,60.66L89.58,59.97L89.53,59.09L89.56,58.81L89.81,57.85L90.18,57.04L90.75,56.23L91.41,55.62L91.62,55.49L92.26,55.25L92.75,55.28L92.98,55.46"/><path style="stroke:#000000;stroke-width:0.088" d="M89.46,60.78L89.38,60.78"/><path style="stroke:#000000;stroke-width:0.088" d="M90.06,59.62L89.68,59.81"/><path style="stroke:#000000;stroke-width:0.088" d="M89.72,59.92L90.07,59.73"/><path style="stroke:#000000;stroke-width:0.088" d="M90.01,60.17L89.81,60.17"/><path style="stroke:#000000;stroke-width:0.088" d="M89.66,59.77L89.61,59.16L89.68,58.51"/><path style="stroke:#000000;stroke-width:0.088" d="M89.83,60.24L89.66,59.74"/><path style="stroke:#000000;stroke-width:0.088" d="M90.10,60.58L90.10,60.58L89.82,60.21"/><path style="stroke:#000000;stroke-width:0.088" d="M90.26,58.58L89.81,59.04L89.76,59.08L89.61,59.17"/><path style="stroke:#000000;stroke-width:0.088" d="M90.21,58.74L89.79,59.15L89.77,59.16L89.62,59.27"/><path style="stroke:#000000;stroke-width:0.088" d="M90.17,58.89L89.84,59.15L89.62,59.27"/><path style="stroke:#000000;stroke-width:0.088" d="M91.22,55.86L90.76,56.31L90.35,56.87L90.18,57.15L89.88,57.82L89.68,58.52"/><path style="stroke:#000000;stroke-width:0.088" d="M90.96,56.12L90.91,56.35L90.66,57.00L90.31,57.64L89.87,58.21L89.73,58.34"/><path style="stroke:#000000;stroke-width:0.088" d="M90.92,54.22L90.91,54.21L90.32,54.13L89.64,54.35"/><path style="stroke:#000000;stroke-width:0.088" d="M90.18,54.30L89.74,54.42"/><path style="stroke:#000000;stroke-width:0.088" d="M89.75,54.41L89.26,54.69"/><path style="stroke:#000000;stroke-width:0.088" d="M89.52,53.45L89.54,53.44L89.59,53.45L89.59,53.45"/><path style="stroke:#000000;stroke-width:0.088" d="M90.62,53.69L90.58,53.66L90.11,53.45L89.59,53.45L89.63,53.45"/><path style="stroke:#000000;stroke-width:0.088" d="M91.28,61.96L91.24,61.94L90.77,61.67L90.73,61.64L90.35,61.15L90.27,60.97L90.10,60.36L90.09,60.33L90.06,59.61L90.18,58.83L90.43,58.06L90.79,57.32L91.24,56.67L91.75,56.13L91.77,56.11L92.31,55.71L92.55,55.58L92.59,55.57L93.11,55.42L93.16,55.42L93.63,55.46L93.67,55.47L93.72,55.49L94.05,55.68L94.09,55.71L94.13,55.75L94.29,55.99"/><path style="stroke:#000000;stroke-width:0.088" d="M90.96,61.26L90.86,61.14L90.76,60.95L90.59,60.16L90.64,59.36L90.91,58.39L91.37,57.46L91.54,57.21L92.15,56.50L92.73,56.08L93.38,55.86L93.93,55.95L94.01,56.00"/><path style="stroke:#000000;stroke-width:0.088" d="M90.16,60.60L90.06,60.53"/><path style="stroke:#000000;stroke-width:0.088" d="M90.08,60.13L89.98,60.17"/><path style="stroke:#000000;stroke-width:0.088" d="M90.29,56.97L90.05,57.47L90.03,57.50"/><path style="stroke:#000000;stroke-width:0.088" d="M91.90,54.83L91.64,54.66L91.48,54.62L90.87,54.72L90.20,55.11"/><path style="stroke:#000000;stroke-width:0.088" d="M90.63,54.95L90.66,55.04"/><path style="stroke:#000000;stroke-width:0.088" d="M90.65,54.94L90.67,55.40L90.66,55.54"/><path style="stroke:#000000;stroke-width:0.088" d="M90.66,55.54L90.99,55.25L90.66,55.54"/><path style="stroke:#000000;stroke-width:0.088" d="M90.73,54.89L90.27,55.15L90.12,55.27"/><path style="stroke:#000000;stroke-width:0.088" d="M90.33,54.33L90.39,54.38"/><path style="stroke:#000000;stroke-width:0.088" d="M90.48,54.34L90.15,54.31"/><path style="stroke:#000000;stroke-width:0.088" d="M90.51,53.63L90.19,53.47L90.11,53.45"/><path style="stroke:#000000;stroke-width:0.088" d="M90.63,53.70L90.66,53.74L90.62,53.73L90.13,53.68"/><path style="stroke:#000000;stroke-width:0.088" d="M90.66,53.74L90.67,53.74L90.72,53.76L91.12,54.00L91.16,54.03L91.20,54.07L91.28,54.18"/><path style="stroke:#000000;stroke-width:0.088" d="M91.29,61.96L91.38,61.97"/><path style="stroke:#000000;stroke-width:0.088" d="M90.92,59.61L90.93,59.54L90.84,60.03L90.84,60.74L90.84,60.78L90.99,61.39L91.01,61.43L91.29,61.89L91.32,61.93L91.77,62.27L91.82,62.29L91.90,62.31"/><path style="stroke:#000000;stroke-width:0.088" d="M91.58,61.91L91.65,62.05L91.81,62.20L91.56,61.87L91.37,61.13L91.41,60.23L91.69,59.26L92.11,58.42L92.74,57.57L93.46,56.91L94.21,56.51L94.84,56.40L95.44,56.58L95.85,57.05L96.02,57.71L96.02,58.05L96.00,58.10L96.00,58.11L95.99,58.12L95.90,58.88L95.58,59.80L95.52,59.91L95.49,59.90L95.47,59.91L95.68,59.96L95.20,60.85L94.55,61.64L94.16,61.96L93.93,62.15L93.18,62.51L93.65,62.29L93.93,62.15"/><path style="stroke:#000000;stroke-width:0.088" d="M92.71,57.26L92.21,57.87L91.80,58.57L91.49,59.32L91.31,60.10L91.27,60.81L91.38,61.49L91.51,61.75"/><path style="stroke:#000000;stroke-width:0.088" d="M91.43,61.56L91.56,61.87L91.69,62.06"/><path style="stroke:#000000;stroke-width:0.088" d="M90.84,60.41L90.76,60.43"/><path style="stroke:#000000;stroke-width:0.088" d="M90.84,60.53L90.79,60.55"/><path style="stroke:#000000;stroke-width:0.088" d="M90.77,59.04L90.68,59.70L90.72,60.31"/><path style="stroke:#000000;stroke-width:0.088" d="M90.84,60.69L90.72,60.29"/><path style="stroke:#000000;stroke-width:0.088" d="M90.69,59.89L90.89,59.77"/><path style="stroke:#000000;stroke-width:0.088" d="M90.95,59.43L90.98,59.28L90.93,59.54L90.99,59.26L91.26,58.51L91.65,57.79L92.13,57.15"/><path style="stroke:#000000;stroke-width:0.088" d="M91.23,58.61L90.99,58.90L90.76,59.09"/><path style="stroke:#000000;stroke-width:0.088" d="M91.16,58.80L91.07,58.91L90.83,59.15L90.75,59.22"/><path style="stroke:#000000;stroke-width:0.088" d="M92.14,56.60L91.69,57.10L91.30,57.69L90.98,58.36L90.77,59.05"/><path style="stroke:#000000;stroke-width:0.088" d="M92.06,55.43L91.60,55.60L91.21,55.87"/><path style="stroke:#000000;stroke-width:0.088" d="M93.28,55.43L92.97,55.05L92.93,55.02L92.57,54.85L92.53,54.83L92.48,54.82L92.00,54.81L91.95,54.82L91.42,55.00L91.38,55.01L90.99,55.25L90.93,55.31"/><path style="stroke:#000000;stroke-width:0.088" d="M90.72,54.90L91.13,54.80"/><path style="stroke:#000000;stroke-width:0.088" d="M91.03,55.23L91.03,55.18"/><path style="stroke:#000000;stroke-width:0.088" d="M91.04,55.20L90.94,54.84"/><path style="stroke:#000000;stroke-width:0.088" d="M91.47,54.98L91.45,54.90L91.38,54.85"/><path style="stroke:#000000;stroke-width:0.088" d="M91.45,54.86L91.45,54.86L91.10,54.81"/><path style="stroke:#000000;stroke-width:0.088" d="M91.81,62.20L91.91,62.33L92.48,62.57L93.18,62.51"/><path style="stroke:#000000;stroke-width:0.088" d="M91.91,62.33L92.03,62.40L92.48,62.57"/><path style="stroke:#000000;stroke-width:0.088" d="M92.10,61.66L92.16,61.72L92.12,61.69L91.88,61.23L91.80,60.52L91.93,59.71L92.21,58.99L92.17,59.11"/><path style="stroke:#000000;stroke-width:0.088" d="M92.37,60.87L91.87,61.15"/><path style="stroke:#000000;stroke-width:0.088" d="M92.36,61.34L91.97,61.41"/><path style="stroke:#000000;stroke-width:0.088" d="M92.19,61.74L92.45,61.80"/><path style="stroke:#000000;stroke-width:0.088" d="M92.16,61.72L92.56,62.00L93.14,62.04"/><path style="stroke:#000000;stroke-width:0.088" d="M94.45,56.90L94.48,57.08L94.38,57.92L94.04,58.82L93.90,59.09L93.31,59.93L92.69,60.54L91.92,61.03L91.86,61.05"/><path style="stroke:#000000;stroke-width:0.088" d="M91.81,60.61L91.82,60.41"/><path style="stroke:#000000;stroke-width:0.088" d="M92.43,60.04L91.89,60.44L91.81,60.48"/><path style="stroke:#000000;stroke-width:0.088" d="M93.19,57.63L93.06,58.01L92.57,58.89L91.98,59.58"/><path style="stroke:#000000;stroke-width:0.088" d="M93.30,57.53L93.27,57.65L92.97,58.33L92.54,59.03L92.02,59.65L91.93,59.73"/><path style="stroke:#000000;stroke-width:0.088" d="M92.05,57.25L92.13,57.05L92.25,56.52"/><path style="stroke:#000000;stroke-width:0.088" d="M91.44,56.45L91.51,56.25L91.56,55.63"/><path style="stroke:#000000;stroke-width:0.088" d="M92.15,57.12L92.26,56.84L92.35,56.45"/><path style="stroke:#000000;stroke-width:0.088" d="M92.85,56.13L92.59,56.27L92.14,56.61"/><path style="stroke:#000000;stroke-width:0.088" d="M92.13,57.15L92.66,56.63L92.68,56.61L93.25,56.23L93.84,56.01L93.89,56.00L94.41,55.98L94.46,55.99"/><path style="stroke:#000000;stroke-width:0.088" d="M91.66,55.58L91.66,55.78L91.54,56.34"/><path style="stroke:#000000;stroke-width:0.088" d="M91.82,55.74L91.82,55.75L91.78,55.53"/><path style="stroke:#000000;stroke-width:0.088" d="M91.78,56.10L91.81,55.71"/><path style="stroke:#000000;stroke-width:0.088" d="M92.37,55.43L92.01,55.45"/><path style="stroke:#000000;stroke-width:0.088" d="M91.53,54.96L91.45,54.90"/><path style="stroke:#000000;stroke-width:0.088" d="M92.51,61.97L92.61,62.00"/><path style="stroke:#000000;stroke-width:0.088" d="M95.26,59.06L94.97,59.70L94.79,60.00L94.16,60.79L93.41,61.41L92.67,61.76"/><path style="stroke:#000000;stroke-width:0.088" d="M93.41,60.74L92.87,61.12L92.35,61.35"/><path style="stroke:#000000;stroke-width:0.088" d="M93.84,61.18L93.84,61.18L93.32,61.54L92.84,61.74L92.41,61.79"/><path style="stroke:#000000;stroke-width:0.088" d="M92.84,61.74L92.83,61.74"/><path style="stroke:#000000;stroke-width:0.088" d="M94.56,56.87L94.55,57.37L94.39,58.10L94.10,58.82L93.96,59.09L93.52,59.77L92.98,60.38L92.38,60.87"/><path style="stroke:#000000;stroke-width:0.088" d="M93.86,57.71L93.64,58.34L93.33,58.93L92.91,59.53L92.42,60.05"/><path style="stroke:#000000;stroke-width:0.088" d="M93.45,57.40L93.10,57.72L92.77,58.07L92.27,58.86L92.21,58.99L92.27,58.86"/><path style="stroke:#000000;stroke-width:0.088" d="M92.71,57.25L93.27,56.75"/><path style="stroke:#000000;stroke-width:0.088" d="M92.87,56.14L92.88,56.30L92.87,56.48"/><path style="stroke:#000000;stroke-width:0.088" d="M92.31,55.71L92.29,55.43"/><path style="stroke:#000000;stroke-width:0.088" d="M92.87,56.15L92.86,56.13"/><path style="stroke:#000000;stroke-width:0.088" d="M92.83,56.14L93.24,56.03"/><path style="stroke:#000000;stroke-width:0.088" d="M92.42,55.65L92.42,55.49L92.42,55.47"/><path style="stroke:#000000;stroke-width:0.088" d="M92.60,55.57L92.57,55.54"/><path style="stroke:#000000;stroke-width:0.088" d="M92.60,55.55L92.57,55.54L92.34,55.43"/><path style="stroke:#000000;stroke-width:0.088" d="M93.13,62.04L93.79,61.80L94.10,61.57L93.67,61.84"/><path style="stroke:#000000;stroke-width:0.088" d="M93.05,62.03L93.15,62.03"/><path style="stroke:#000000;stroke-width:0.088" d="M94.91,58.38L94.68,59.02L94.34,59.65L93.90,60.24L93.40,60.74"/><path style="stroke:#000000;stroke-width:0.088" d="M93.10,57.72L93.32,57.48"/><path style="stroke:#000000;stroke-width:0.088" d="M93.32,57.48L93.99,57.03L94.65,56.84L95.23,56.94L95.66,57.31L95.94,57.99L95.97,58.10L95.98,58.11L95.99,58.12"/><path style="stroke:#000000;stroke-width:0.088" d="M93.27,56.75L93.84,56.42L93.88,56.40L94.44,56.24L94.49,56.24L94.99,56.27L95.04,56.27L95.08,56.29L95.50,56.52L95.54,56.55L95.57,56.58L95.87,56.98L95.89,57.02L96.05,57.56L96.06,57.60L96.07,58.25L95.94,58.98"/><path style="stroke:#000000;stroke-width:0.088" d="M93.38,56.18L93.34,56.06"/><path style="stroke:#000000;stroke-width:0.088" d="M93.49,56.14L93.48,56.08"/><path style="stroke:#000000;stroke-width:0.088" d="M93.56,56.11L93.50,56.08"/><path style="stroke:#000000;stroke-width:0.088" d="M93.22,56.04L93.57,56.09L93.57,56.09"/><path style="stroke:#000000;stroke-width:0.088" d="M94.10,61.57L94.46,61.30L95.06,60.59L95.43,59.99L95.47,59.91"/><path style="stroke:#000000;stroke-width:0.088" d="M94.35,60.66L93.86,61.16"/><path style="stroke:#000000;stroke-width:0.088" d="M93.83,61.19L93.84,61.18"/><path style="stroke:#000000;stroke-width:0.088" d="M95.34,58.82L95.11,59.47L94.76,60.11L94.32,60.71L93.83,61.19"/><path style="stroke:#000000;stroke-width:0.088" d="M94.56,61.17L94.28,61.43"/><path style="stroke:#000000;stroke-width:0.088" d="M93.85,57.73L93.95,57.14L93.95,57.06"/><path style="stroke:#000000;stroke-width:0.088" d="M95.06,56.29L95.00,56.21L94.96,56.18L94.91,56.16L94.46,55.99"/><path style="stroke:#000000;stroke-width:0.088" d="M95.09,60.55L94.91,60.77"/><path style="stroke:#000000;stroke-width:0.088" d="M94.99,60.68L94.98,60.68"/><path style="stroke:#000000;stroke-width:0.088" d="M95.14,60.47L95.45,59.93"/><path style="stroke:#000000;stroke-width:0.088" d="M95.01,57.80L94.91,58.40"/><path style="stroke:#000000;stroke-width:0.088" d="M94.97,57.31L95.01,57.81L95.03,57.87L95.09,57.92L95.16,57.96L95.26,57.98L95.36,57.99L95.44,57.97"/><path style="stroke:#000000;stroke-width:0.088" d="M95.33,57.29L95.12,57.02"/><path style="stroke:#000000;stroke-width:0.088" d="M94.83,56.94L94.97,57.32"/><path style="stroke:#000000;stroke-width:0.088" d="M95.61,56.68L95.44,56.58L95.18,56.48"/><path style="stroke:#000000;stroke-width:0.088" d="M95.16,57.03L95.16,57.04L94.87,56.88"/><path style="stroke:#000000;stroke-width:0.088" d="M94.57,56.86L94.91,56.88"/><path style="stroke:#000000;stroke-width:0.088" d="M94.65,56.84L94.66,56.84"/><path style="stroke:#000000;stroke-width:0.088" d="M94.77,56.87L94.86,56.97"/><path style="stroke:#000000;stroke-width:0.088" d="M95.52,59.91L95.60,59.93L95.68,59.96"/><path style="stroke:#000000;stroke-width:0.088" d="M95.94,58.99L95.68,59.71L95.57,59.92"/><path style="stroke:#000000;stroke-width:0.088" d="M95.43,59.99L95.43,59.99"/><path style="stroke:#000000;stroke-width:0.088" d="M95.34,58.84L95.34,58.84L95.45,58.22L95.44,57.68"/><path style="stroke:#000000;stroke-width:0.088" d="M95.44,57.70L95.32,57.28"/><path style="stroke:#000000;stroke-width:0.088" d="M78.22,106.96L78.05,106.79L77.91,106.57L77.82,106.34L77.77,106.11L77.77,106.07L77.79,105.91L77.87,105.77L78.00,105.69L78.16,105.69L78.34,105.76L78.52,105.90L78.67,106.10L78.79,106.32L78.86,106.56L78.87,106.77L78.83,106.95L78.72,107.06L78.58,107.10L78.41,107.07L78.22,106.96"/><path style="stroke:#000000;stroke-width:0.088" d="M77.97,106.98L78.22,107.21L78.27,107.24L78.47,107.35L78.71,107.39L78.91,107.31L79.04,107.14L79.10,106.89L79.10,106.84L79.07,106.58L78.96,106.25L78.79,105.94L78.56,105.68L78.31,105.49L78.06,105.40L77.84,105.42L77.67,105.54L77.57,105.75L77.56,106.04L77.62,106.36L77.77,106.69L77.97,106.98"/><path style="stroke:#000000;stroke-width:0.088" d="M78.87,106.69L78.83,106.82L78.75,106.91L78.62,106.95L78.48,106.92L78.41,106.88L78.32,106.82L78.18,106.68L78.06,106.50L77.98,106.30L77.94,106.10L77.96,105.94L78.02,105.81L78.13,105.75L78.27,105.74L78.37,105.79"/><path style="stroke:#000000;stroke-width:0.088" d="M77.56,106.04L77.55,105.82L77.58,105.60L77.69,105.35L77.88,105.21L78.13,105.19L78.42,105.30L78.70,105.51L78.96,105.81L79.16,106.17L79.29,106.55L79.32,106.90L79.25,107.19L79.10,107.38L78.87,107.46L78.60,107.42L78.31,107.26"/><path style="stroke:#000000;stroke-width:0.088" d="M77.88,105.21L85.42,100.86L85.67,100.86L85.96,100.98L86.07,101.04L86.32,101.24L86.54,101.51L86.71,101.83L86.81,102.16L86.83,102.37L86.83,102.50L86.82,102.60L86.75,102.88L86.58,103.06L79.10,107.38"/><path style="stroke:#000000;stroke-width:0.088" d="M78.27,107.24L78.31,107.26"/><path style="stroke:#000000;stroke-width:0.088" d="M85.96,100.98L86.25,101.20L86.50,101.52L86.69,101.88L86.80,102.25L86.83,102.50"/><path style="stroke:#000000;stroke-width:0.088" d="M78.10,97.42L78.21,97.52L78.46,97.66L78.70,97.70L78.90,97.63L79.03,97.46L79.09,97.20L79.09,97.15L79.07,96.90L78.96,96.57L78.78,96.25L78.56,95.99L78.30,95.80L78.05,95.71L77.83,95.73L77.66,95.85L77.65,95.88L77.57,96.07L77.55,96.35L77.62,96.67L77.76,97.00L77.97,97.29L78.10,97.42"/><path style="stroke:#000000;stroke-width:0.088" d="M78.37,96.10L78.26,96.06L78.12,96.06L78.02,96.13L77.95,96.25L77.93,96.42L77.97,96.61L78.05,96.81L78.17,96.99L78.27,97.09L78.32,97.14L78.40,97.20L78.47,97.23L78.62,97.26L78.74,97.23L78.83,97.13L78.86,97.00"/><path style="stroke:#000000;stroke-width:0.088" d="M78.22,97.27L78.05,97.10L77.91,96.89L77.81,96.65L77.77,96.42L77.77,96.39L77.79,96.23L77.86,96.08L77.99,96.00L78.15,96.00L78.33,96.07L78.51,96.22L78.67,96.41L78.79,96.64L78.86,96.87L78.87,97.09L78.82,97.26L78.72,97.38L78.57,97.42L78.40,97.38L78.22,97.27"/><path style="stroke:#000000;stroke-width:0.088" d="M78.30,97.57L78.60,97.74L78.87,97.78L79.09,97.70L79.25,97.50L79.31,97.21L79.28,96.86L79.16,96.49L78.96,96.13L78.70,95.82L78.41,95.61L78.13,95.51L77.87,95.53L77.68,95.67L77.57,95.91L77.55,96.13L77.55,96.35"/><path style="stroke:#000000;stroke-width:0.088" d="M79.09,97.70L86.58,93.37L86.74,93.19L86.82,92.91L86.82,92.81L86.80,92.57L86.69,92.19L86.50,91.83L86.24,91.52L85.96,91.29L85.67,91.17L85.41,91.18L77.87,95.53"/><path style="stroke:#000000;stroke-width:0.088" d="M78.30,97.58L78.27,97.55"/><path style="stroke:#000000;stroke-width:0.088" d="M85.96,91.29L86.06,91.35L86.31,91.55L86.54,91.83L86.70,92.14L86.80,92.47L86.82,92.68L86.82,92.81"/><path style="stroke:#000000;stroke-width:0.088" d="M53.45,30.45L53.47,62.32L56.78,64.23L63.40,60.40L63.39,28.54L56.76,32.37L53.45,30.45L60.07,26.62L63.39,28.54"/><path style="stroke:#000000;stroke-width:0.088" d="M54.90,58.76L54.85,58.72L54.67,58.48L54.54,58.20L54.47,57.92L54.47,57.67L54.54,57.47L54.67,57.35L54.85,57.32L55.07,57.38L55.28,57.53L55.48,57.74L55.64,58.01L55.75,58.29L55.78,58.56L55.75,58.78L55.64,58.95L55.48,59.02L55.28,59.01L55.07,58.90L54.90,58.76"/><path style="stroke:#000000;stroke-width:0.088" d="M55.61,58.80L55.67,58.76L55.66,58.77L55.53,58.84L55.36,58.83L55.17,58.74L54.99,58.58L54.84,58.37L54.72,58.14L54.66,57.90L54.66,57.81L54.66,57.69L54.72,57.52L54.84,57.42L54.99,57.39L55.15,57.43"/><path style="stroke:#000000;stroke-width:0.088" d="M54.85,44.19L54.66,43.95L54.53,43.67L54.46,43.39L54.46,43.14L54.53,42.94L54.66,42.82L54.85,42.79L55.06,42.85L55.27,43.00L55.47,43.21L55.63,43.48L55.74,43.76L55.77,44.03L55.74,44.26L55.63,44.42L55.47,44.49L55.27,44.48L55.06,44.37L54.85,44.19"/><path style="stroke:#000000;stroke-width:0.088" d="M55.77,43.96L55.74,44.11L55.66,44.24L55.52,44.31L55.35,44.30L55.16,44.21L54.98,44.05L54.83,43.84L54.72,43.61L54.66,43.37L54.66,43.16L54.72,42.99L54.83,42.89L54.99,42.86L55.14,42.90"/><path style="stroke:#000000;stroke-width:0.088" d="M54.54,34.02L54.66,34.26L54.84,34.50L55.05,34.69L55.27,34.79L55.47,34.81L55.63,34.73L55.73,34.57L55.77,34.34L55.73,34.07L55.63,33.79L55.47,33.53L55.27,33.31L55.05,33.16L54.84,33.10L54.66,33.14L54.52,33.26L54.45,33.45L54.45,33.71L54.52,33.98L54.54,34.02"/><path style="stroke:#000000;stroke-width:0.088" d="M55.76,34.28L55.74,34.42L55.65,34.56L55.51,34.62L55.34,34.61L55.16,34.52L54.98,34.37L54.82,34.16L54.71,33.92L54.68,33.82L54.65,33.69L54.65,33.47L54.71,33.30L54.82,33.20L54.98,33.18L55.13,33.22"/><path style="stroke:#000000;stroke-width:0.088" d="M55.67,58.76L55.75,58.64L55.77,58.49"/><path style="stroke:#000000;stroke-width:0.088" d="M55.60,44.27L55.66,44.23"/><path style="stroke:#000000;stroke-width:0.088" d="M55.59,34.59L55.66,34.55"/><path style="stroke:#000000;stroke-width:0.088" d="M56.78,64.23L56.76,32.37"/><path style="stroke:#000000;stroke-width:0.088" d="M59.48,60.98L59.30,60.81L59.22,60.54L59.22,60.20L59.32,59.83L59.51,59.46L59.75,59.14L60.03,58.90L60.09,58.87L60.32,58.77L60.59,58.76L60.80,58.87L60.93,59.09L60.97,59.40L60.92,59.76L60.78,60.14L60.56,60.49L60.29,60.77L60.00,60.96L59.72,61.03L59.48,60.98"/><path style="stroke:#000000;stroke-width:0.088" d="M60.01,58.93L60.16,58.86L60.38,58.85L60.56,58.95L60.67,59.14L60.71,59.40L60.66,59.71L60.54,60.02L60.36,60.32L60.13,60.56L59.88,60.72L59.64,60.78L59.44,60.74L59.29,60.60L59.22,60.38"/><path style="stroke:#000000;stroke-width:0.088" d="M59.47,41.10L59.29,40.93L59.20,40.66L59.21,40.32L59.31,39.95L59.49,39.58L59.74,39.26L60.02,39.02L60.08,38.99L60.31,38.89L60.58,38.88L60.79,38.99L60.92,39.21L60.96,39.52L60.91,39.88L60.78,40.21L60.76,40.26L60.55,40.60L60.28,40.89L59.99,41.08L59.71,41.15L59.47,41.10"/><path style="stroke:#000000;stroke-width:0.088" d="M60.00,39.04L60.15,38.98L60.37,38.97L60.55,39.07L60.66,39.26L60.70,39.52L60.66,39.75L60.65,39.82L60.53,40.14L60.34,40.44L60.12,40.68L59.87,40.84L59.63,40.90L59.43,40.86L59.28,40.72L59.21,40.50"/><path style="stroke:#000000;stroke-width:0.088" d="M60.56,58.95L60.55,58.94"/><path style="stroke:#000000;stroke-width:0.088" d="M69.67,49.69L69.23,49.43L68.79,48.87L68.60,48.04L68.60,47.86L68.69,47.03L69.04,45.95L69.62,44.92L70.36,44.05L71.19,43.43L72.01,43.13L72.74,43.19L73.18,43.45L72.45,43.39L71.63,43.69L70.80,44.30L70.06,45.17L69.48,46.20L69.13,47.28L69.04,48.12L69.04,48.29L69.23,49.12L69.67,49.69L70.32,49.92L71.11,49.80L71.35,49.67"/><path style="stroke:#000000;stroke-width:0.088" d="M70.14,45.98L70.14,48.97L71.47,49.74L71.91,49.57L71.91,47.42L71.47,46.75L70.14,45.98L70.65,45.23L71.25,44.63L71.90,44.26L72.51,44.15L73.01,44.32L74.34,45.09L74.10,44.97L73.54,44.94L72.90,45.18L72.26,45.67L71.70,46.36L71.47,46.75"/><path style="stroke:#000000;stroke-width:0.088" d="M71.91,49.57L72.28,49.83L72.78,49.86L72.27,49.89L71.70,49.85L71.47,49.74"/><path style="stroke:#000000;stroke-width:0.088" d="M71.91,47.42L72.28,46.74L72.78,46.13L73.34,45.69L73.91,45.48L74.41,45.51L74.78,45.76L74.78,47.91L74.41,48.60L73.91,49.21L73.34,49.64L72.78,49.86"/><path style="stroke:#000000;stroke-width:0.088" d="M72.66,48.43L72.60,48.19L72.61,47.90L72.71,47.58L72.87,47.27L72.95,47.16L73.08,47.00L73.33,46.81L73.57,46.71L73.79,46.71L73.96,46.82L74.07,47.02L74.09,47.23L74.09,47.29L74.04,47.60L73.91,47.92L73.72,48.21L73.48,48.44L73.24,48.59L73.00,48.64L72.80,48.58L72.66,48.43"/><path style="stroke:#000000;stroke-width:0.088" d="M72.60,48.19L72.82,48.06L73.05,47.82L73.24,47.53L73.38,47.22L73.43,46.91L73.42,46.77"/><path style="stroke:#000000;stroke-width:0.088" d="M73.18,43.45L73.73,43.85L74.05,44.56L74.07,44.94"/><path style="stroke:#000000;stroke-width:0.088" d="M74.78,45.76L74.34,45.09"/><path style="stroke:#000000;stroke-width:0.088" d="M69.68,69.57L69.24,69.31L68.80,68.75L68.61,67.92L68.61,67.74L68.70,66.91L69.05,65.83L69.63,64.80L70.37,63.93L71.20,63.31L71.29,63.28L72.02,63.02L72.75,63.07L73.19,63.33L72.46,63.27L72.07,63.41L71.64,63.57L70.81,64.18L70.07,65.06L69.49,66.09L69.14,67.16L69.05,68.00L69.05,68.17L69.24,69.01L69.68,69.57L70.33,69.80L71.12,69.68L71.36,69.55"/><path style="stroke:#000000;stroke-width:0.088" d="M71.92,69.45L71.92,67.30L71.48,66.63L71.71,66.24L72.28,65.56L72.91,65.06L73.55,64.82L74.11,64.85L74.35,64.97L73.02,64.21L72.52,64.04L71.91,64.14L71.26,64.52L70.66,65.11L70.15,65.87L70.15,68.85L71.48,69.62L71.71,69.74L72.28,69.77L72.79,69.74L72.29,69.71L71.92,69.45L71.48,69.62"/><path style="stroke:#000000;stroke-width:0.088" d="M70.15,65.87L71.48,66.63"/><path style="stroke:#000000;stroke-width:0.088" d="M71.92,67.30L72.29,66.62L72.79,66.01L73.35,65.57L73.92,65.36L74.42,65.39L74.79,65.64L74.79,67.80L74.42,68.48L73.92,69.09L73.36,69.52L72.79,69.74"/><path style="stroke:#000000;stroke-width:0.088" d="M72.84,68.47L72.81,68.46L72.67,68.31L72.61,68.07L72.62,67.78L72.72,67.46L72.88,67.15L73.10,66.89L73.34,66.69L73.58,66.59L73.80,66.59L73.97,66.70L74.08,66.90L74.11,67.12L74.10,67.17L74.05,67.48L73.92,67.80L73.73,68.09L73.49,68.32L73.25,68.47L73.01,68.52L72.84,68.47"/><path style="stroke:#000000;stroke-width:0.088" d="M72.61,68.07L72.83,67.94L73.06,67.71L73.26,67.41L73.39,67.10L73.44,66.79L73.43,66.65"/><path style="stroke:#000000;stroke-width:0.088" d="M73.19,63.33L73.74,63.73L74.06,64.44L74.08,64.82"/><path style="stroke:#000000;stroke-width:0.088" d="M74.35,64.97L74.79,65.64"/><path style="stroke:#000000;stroke-width:0.088" d="M43.94,86.38L43.28,86.76L43.49,86.84L43.67,86.84L43.82,86.76L43.91,86.60L43.94,86.38L43.94,84.47L43.91,84.21L43.81,83.94L43.67,83.69L43.48,83.48L43.28,83.32L43.07,83.24L42.89,83.24L42.74,83.33L42.65,83.48L42.62,83.70L42.62,84.85L41.07,83.96L41.07,78.73L42.17,78.09L52.51,84.06L53.61,83.42L54.35,84.00L55.01,84.81L55.50,85.75L55.78,86.72L54.67,87.36L58.75,113.15L58.76,130.99L42.20,121.43L41.09,119.51L41.09,109.19L42.19,108.55L43.96,109.57"/><path style="stroke:#000000;stroke-width:0.088" d="M41.09,109.19L43.29,110.47L43.96,110.08L43.92,110.30L43.83,110.46L43.68,110.54L43.50,110.55L43.29,110.47"/><path style="stroke:#000000;stroke-width:0.088" d="M43.28,86.76L41.07,85.49L41.08,107.66L42.63,108.55L42.63,107.41L42.66,107.19L42.76,107.03L42.90,106.95L43.09,106.94L43.29,107.02L42.63,107.41"/><path style="stroke:#000000;stroke-width:0.088" d="M41.07,85.49L42.18,84.85L43.94,85.87"/><path style="stroke:#000000;stroke-width:0.088" d="M42.62,84.85L43.72,84.21L43.72,83.78"/><path style="stroke:#000000;stroke-width:0.088" d="M42.62,83.70L43.28,83.32"/><path style="stroke:#000000;stroke-width:0.088" d="M42.17,78.09L43.28,77.46L53.61,83.42"/><path style="stroke:#000000;stroke-width:0.088" d="M42.63,108.55L43.73,107.92L43.73,107.49"/><path style="stroke:#000000;stroke-width:0.088" d="M43.29,107.02L43.50,107.18L43.68,107.40L43.83,107.65L43.92,107.92L43.95,108.17L43.96,110.08"/><path style="stroke:#000000;stroke-width:0.088" d="M47.27,119.67L46.94,119.05L46.76,118.44L46.73,117.88L46.85,117.43L47.12,117.13L47.50,117.03L47.95,117.12L48.42,117.40L48.86,117.85L49.23,118.40L49.48,119.01L49.59,119.60L49.59,119.71L49.54,120.12L49.34,120.50L49.01,120.70L48.59,120.71L48.13,120.52L47.66,120.15L47.27,119.67"/><path style="stroke:#000000;stroke-width:0.088" d="M47.24,105.11L46.93,104.52L46.75,103.91L46.72,103.35L46.84,102.90L47.11,102.60L47.49,102.50L47.94,102.59L48.41,102.87L48.86,103.32L49.22,103.88L49.47,104.48L49.58,105.07L49.58,105.18L49.53,105.59L49.33,105.97L49.00,106.17L48.58,106.18L48.12,105.99L47.65,105.62L47.24,105.11"/><path style="stroke:#000000;stroke-width:0.088" d="M47.07,95.10L47.24,95.43L47.65,95.93L48.11,96.30L48.58,96.49L49.00,96.49L49.33,96.28L49.53,95.90L49.58,95.49L49.57,95.39L49.47,94.80L49.22,94.19L48.85,93.63L48.41,93.19L47.93,92.90L47.48,92.81L47.11,92.92L46.84,93.21L46.71,93.67L46.74,94.23L46.92,94.84L47.07,95.10"/><path style="stroke:#000000;stroke-width:0.088" d="M48.52,102.98L48.46,102.97L48.25,103.03L48.11,103.19L48.04,103.43L48.06,103.73L48.15,104.06L48.33,104.38L48.54,104.65L48.79,104.85L49.04,104.95L49.27,104.95L49.45,104.84L49.51,104.71"/><path style="stroke:#000000;stroke-width:0.088" d="M49.51,95.03L49.44,95.15L49.27,95.26L49.04,95.27L48.79,95.16L48.54,94.96L48.32,94.69L48.15,94.37L48.05,94.05L48.03,93.74L48.10,93.50L48.25,93.34L48.45,93.28L48.51,93.30"/><path style="stroke:#000000;stroke-width:0.088" d="M48.53,117.51L48.46,117.50L48.26,117.56L48.12,117.72L48.05,117.96L48.06,118.26L48.16,118.59L48.33,118.91L48.55,119.18L48.80,119.38L49.05,119.48L49.28,119.48L49.46,119.37L49.52,119.24"/><path style="stroke:#000000;stroke-width:0.088" d="M48.53,117.52L48.49,117.77L48.52,118.09L48.64,118.42L48.82,118.72L49.05,118.98L49.26,119.13L49.31,119.16L49.52,119.22"/><path style="stroke:#000000;stroke-width:0.088" d="M49.51,104.69L49.30,104.63L49.25,104.60L49.05,104.45L48.81,104.20L48.63,103.89L48.51,103.56L48.48,103.25L48.52,102.99"/><path style="stroke:#000000;stroke-width:0.088" d="M48.52,93.30L48.47,93.56L48.51,93.87L48.63,94.20L48.81,94.51L49.04,94.77L49.25,94.92L49.29,94.94L49.51,95.01"/><path style="stroke:#000000;stroke-width:0.088" d="M52.51,84.06L53.25,84.64L53.91,85.45L54.40,86.39L54.67,87.36"/><path style="stroke:#000000;stroke-width:0.088" d="M53.41,119.24L53.40,119.68L53.52,120.17L53.75,120.66L54.07,121.10L54.44,121.43L54.82,121.62L55.18,121.66L55.47,121.53L55.66,121.25L55.73,120.86L55.67,120.39L55.50,119.89L55.22,119.42L55.02,119.20L54.87,119.03L54.56,118.80L54.48,118.76L54.11,118.65L53.78,118.69L53.54,118.90L53.41,119.24"/><path style="stroke:#000000;stroke-width:0.088" d="M53.47,110.31L53.39,109.99L53.40,109.55L53.53,109.21L53.78,109.01L54.10,108.96L54.48,109.08L54.55,109.12L54.86,109.35L55.21,109.73L55.49,110.20L55.67,110.70L55.72,111.17L55.65,111.57L55.46,111.84L55.17,111.97L54.82,111.94L54.43,111.74L54.06,111.41L53.74,110.97L53.51,110.48L53.47,110.31"/><path style="stroke:#000000;stroke-width:0.088" d="M55.68,120.42L55.59,120.54L55.44,120.61L55.26,120.59L55.06,120.49L55.02,120.46L54.86,120.32L54.70,120.09L54.58,119.84L54.52,119.58L54.52,119.35L54.59,119.18L54.72,119.07L54.88,119.05"/><path style="stroke:#000000;stroke-width:0.088" d="M54.88,109.36L54.71,109.39L54.59,109.49L54.52,109.67L54.51,109.90L54.57,110.15L54.69,110.41L54.86,110.63L55.02,110.77L55.12,110.84L55.25,110.90L55.44,110.92L55.59,110.86L55.67,110.73"/><path style="stroke:#000000;stroke-width:0.088" d="M55.59,120.17L55.56,120.15L55.37,119.96L55.21,119.73L55.11,119.48L55.06,119.25"/><path style="stroke:#000000;stroke-width:0.088" d="M55.05,109.56L55.10,109.79L55.21,110.05L55.37,110.28L55.56,110.46L55.59,110.48"/><path style="stroke:#000000;stroke-width:0.088" d="M58.75,113.15L59.85,112.51L55.78,86.72"/><path style="stroke:#000000;stroke-width:0.088" d="M58.76,130.99L59.86,130.35L59.85,112.51"/><path style="stroke:#000000;stroke-width:0.088" d="M145.48,80.85L146.59,80.21L146.58,62.37L145.47,63.01L145.48,80.85L133.34,73.84L132.23,71.93L132.21,31.14L133.32,30.51L139.23,33.93L140.34,33.29L134.42,29.87L133.32,30.51"/><path style="stroke:#000000;stroke-width:0.088" d="M134.82,69.59L134.71,69.51L134.47,69.26L134.28,68.96L134.16,68.63L134.11,68.32L134.14,68.05L134.26,67.85L134.44,67.75L134.68,67.76L134.88,67.85L134.93,67.88L135.18,68.09L135.39,68.37L135.55,68.69L135.64,69.02L135.65,69.31L135.57,69.55L135.42,69.70L135.21,69.74L134.96,69.68L134.82,69.59"/><path style="stroke:#000000;stroke-width:0.088" d="M135.59,69.47L135.39,69.41L135.32,69.38L135.13,69.24L134.90,68.99L134.71,68.68L134.59,68.36L134.55,68.04L134.59,67.78L134.60,67.76"/><path style="stroke:#000000;stroke-width:0.088" d="M134.62,67.76L134.63,67.86L134.85,68.47L135.20,69.04L135.60,69.47"/><path style="stroke:#000000;stroke-width:0.088" d="M134.70,54.98L134.46,54.73L134.27,54.43L134.15,54.10L134.10,53.79L134.14,53.52L134.25,53.32L134.44,53.23L134.67,53.24L134.87,53.32L134.92,53.35L135.17,53.56L135.38,53.84L135.54,54.16L135.63,54.49L135.64,54.78L135.56,55.02L135.41,55.17L135.20,55.21L134.95,55.15L134.70,54.98"/><path style="stroke:#000000;stroke-width:0.088" d="M135.59,54.94L135.38,54.88L135.32,54.85L135.13,54.71L134.89,54.46L134.71,54.16L134.58,53.83L134.54,53.51L134.58,53.25L134.59,53.23"/><path style="stroke:#000000;stroke-width:0.088" d="M134.61,53.23L134.62,53.33L134.85,53.94L135.19,54.51L135.59,54.94"/><path style="stroke:#000000;stroke-width:0.088" d="M134.69,45.30L134.46,45.05L134.27,44.74L134.14,44.42L134.09,44.10L134.13,43.83L134.25,43.64L134.43,43.54L134.66,43.55L134.87,43.64L134.91,43.67L135.16,43.87L135.38,44.15L135.54,44.47L135.63,44.80L135.63,45.10L135.56,45.33L135.40,45.48L135.19,45.52L134.95,45.46L134.69,45.30"/><path style="stroke:#000000;stroke-width:0.088" d="M134.59,43.55L134.58,43.56L134.54,43.83L134.58,44.14L134.70,44.47L134.89,44.78L135.12,45.03L135.37,45.20L135.58,45.26"/><path style="stroke:#000000;stroke-width:0.088" d="M135.58,45.25L135.19,44.82L134.84,44.25L134.61,43.65L134.60,43.55"/><path style="stroke:#000000;stroke-width:0.088" d="M139.23,33.93L139.98,34.50L140.63,35.31L141.13,36.26L141.40,37.22L145.47,63.01"/><path style="stroke:#000000;stroke-width:0.088" d="M140.82,70.61L140.60,70.27L140.45,69.89L140.40,69.53L140.44,69.22L140.57,69.00L140.78,68.89L141.05,68.90L141.28,69.00L141.34,69.03L141.62,69.27L141.87,69.59L142.05,69.96L142.15,70.33L142.16,70.67L142.07,70.94L141.90,71.11L141.66,71.16L141.38,71.09L141.09,70.90L140.82,70.61"/><path style="stroke:#000000;stroke-width:0.088" d="M141.55,59.54L141.70,59.68L141.93,60.02L142.09,60.39L142.16,60.76L142.13,61.08L142.02,61.32L141.82,61.45L141.57,61.46L141.28,61.35L140.99,61.13L140.74,60.82L140.54,60.46L140.42,60.09L140.40,59.74L140.47,59.46L140.63,59.27L140.86,59.19L141.13,59.24L141.42,59.41L141.55,59.54L141.64,59.83L141.84,60.19L142.11,60.50"/><path style="stroke:#000000;stroke-width:0.088" d="M140.34,33.29L141.08,33.86L141.74,34.67L142.23,35.62L142.50,36.59L146.58,62.37"/><path style="stroke:#000000;stroke-width:0.088" d="M141.55,69.21L141.56,69.25L141.70,69.63L141.92,69.98L142.11,70.17"/><path style="stroke:#000000;stroke-width:0.088" d="M141.40,37.22L142.50,36.59"/><path style="stroke:#000000;stroke-width:0.088" d="M115.77,99.53L108.62,95.40L108.60,60.99L102.86,57.68L102.85,47.48L98.21,44.80L98.21,33.33L101.15,33.76L105.20,33.55L111.07,36.94L111.66,37.38L112.14,37.97L112.76,39.55L112.89,40.54L101.15,33.76"/><path style="stroke:#000000;stroke-width:0.088" d="M98.21,33.33L104.79,29.53L107.73,29.96L109.57,31.02L105.20,33.55"/><path style="stroke:#000000;stroke-width:0.088" d="M109.95,88.14L109.84,87.96L109.71,87.58L109.66,87.22L109.71,86.91L109.84,86.68L110.05,86.56L110.31,86.56L110.60,86.67L112.36,87.69L112.65,87.91L112.92,88.22L113.12,88.58L113.26,88.96L113.30,89.32L112.37,89.86L110.60,88.84L110.31,88.62L110.05,88.31L109.95,88.14"/><path style="stroke:#000000;stroke-width:0.088" d="M110.04,78.62L109.83,78.27L109.70,77.89L109.65,77.53L109.70,77.22L109.83,77.00L110.04,76.88L110.30,76.87L110.59,76.99L111.17,77.32L112.36,78.01L112.65,78.23L112.91,78.53L113.12,78.89L113.25,79.27L113.30,79.64L113.25,79.94L113.12,80.17L112.91,80.29L112.65,80.29L112.36,80.18L110.59,79.15L110.30,78.93L110.04,78.62"/><path style="stroke:#000000;stroke-width:0.088" d="M109.57,31.02L110.04,31.29L109.41,30.93"/><path style="stroke:#000000;stroke-width:0.088" d="M110.60,88.84L112.46,87.77"/><path style="stroke:#000000;stroke-width:0.088" d="M110.59,79.15L112.45,78.08"/><path style="stroke:#000000;stroke-width:0.088" d="M111.07,36.94L115.44,34.41L110.04,31.29"/><path style="stroke:#000000;stroke-width:0.088" d="M112.37,89.86L112.66,89.97L112.92,89.97L113.12,89.85L113.26,89.63L113.30,89.32"/><path style="stroke:#000000;stroke-width:0.088" d="M112.36,80.18L113.30,79.64"/><path style="stroke:#000000;stroke-width:0.088" d="M112.89,40.54L113.31,41.28L113.99,42.90L114.34,44.50L120.92,40.70L124.43,71.96L125.14,73.48L117.56,77.86L117.39,78.70L117.20,79.47L115.88,78.70L115.76,79.59L115.77,100.71L117.10,101.47L125.71,96.49L125.70,75.38L125.58,74.62L125.38,74.08L117.39,78.70"/><path style="stroke:#000000;stroke-width:0.088" d="M114.34,44.50L117.85,75.76L117.56,77.86"/><path style="stroke:#000000;stroke-width:0.088" d="M115.44,34.41L115.46,34.42L114.77,34.02"/><path style="stroke:#000000;stroke-width:0.088" d="M115.46,34.42L116.24,34.87L116.11,34.79"/><path style="stroke:#000000;stroke-width:0.088" d="M115.76,79.59L117.08,80.36L117.10,101.47"/><path style="stroke:#000000;stroke-width:0.088" d="M115.88,78.70L116.77,75.14L117.85,75.76"/><path style="stroke:#000000;stroke-width:0.088" d="M116.87,35.24L116.24,34.87L117.01,35.32L116.87,35.24"/><path style="stroke:#000000;stroke-width:0.088" d="M116.44,34.99L118.56,36.21L117.79,35.76"/><path style="stroke:#000000;stroke-width:0.088" d="M117.20,79.47L117.08,80.36"/><path style="stroke:#000000;stroke-width:0.088" d="M118.56,36.21L119.47,36.73L119.89,37.48L120.57,39.10L120.92,40.70"/><path style="stroke:#000000;stroke-width:0.088" d="M125.38,74.08L125.14,73.48"/><path style="fill:#ffffff" d="M171.39,67.87L197.80,67.87L197.80,62.23L171.39,62.23z"/><path style="stroke:#35414c;stroke-width:0.255" d="M171.39,67.87L197.80,67.87L197.80,62.23L171.39,62.23z"/><path style="stroke:#35404c;stroke-width:0.250;stroke-opacity:0.00" d="M171.39,67.87L197.80,67.87L197.80,62.23L171.39,62.23z"/><text xml:space="preserve" fill="#333f4b" stroke-width="0" x="172.09" y="66.28" font-size="3.49" opacity="1.00" font-family="Arial" font-weight="bold" font-style="italic">F24623312A</text><path style="fill:#ffffff" d="M171.39,47.79L197.80,47.79L197.80,42.15L171.39,42.15z"/><path style="stroke:#35414c;stroke-width:0.255" d="M171.39,47.79L197.80,47.79L197.80,42.15L171.39,42.15z"/><path style="stroke:#35404c;stroke-width:0.250;stroke-opacity:0.00" d="M171.39,47.79L197.80,47.79L197.80,42.15L171.39,42.15z"/><text xml:space="preserve" fill="#333f4b" stroke-width="0" x="172.09" y="46.21" font-size="3.56" opacity="1.00" font-family="Arial" font-weight="bold" font-style="italic">F21623153X</text><path style="fill:#ffffff" d="M171.39,107.76L197.80,107.76L197.80,102.11L171.39,102.11z"/><path style="stroke:#35414c;stroke-width:0.255" d="M171.39,107.76L197.80,107.76L197.80,102.11L171.39,102.11z"/><path style="stroke:#35404c;stroke-width:0.250;stroke-opacity:0.00" d="M171.39,107.76L197.80,107.76L197.80,102.11L171.39,102.11z"/><text xml:space="preserve" fill="#333f4b" stroke-width="0" x="172.09" y="106.17" font-size="3.46" opacity="1.00" font-family="Arial" font-weight="bold" font-style="italic">ML2109</text><path style="fill:#ffffff" d="M171.39,87.68L197.80,87.68L197.80,82.04L171.39,82.04z"/><path style="stroke:#35414c;stroke-width:0.255" d="M171.39,87.68L197.80,87.68L197.80,82.04L171.39,82.04z"/><path style="stroke:#35404c;stroke-width:0.250;stroke-opacity:0.00" d="M171.39,87.68L197.80,87.68L197.80,82.04L171.39,82.04z"/><text xml:space="preserve" fill="#333f4b" stroke-width="0" x="172.09" y="86.09" font-size="3.49" opacity="1.00" font-family="Arial" font-weight="bold" font-style="italic">F24623314A</text><path style="fill:#ffffff" d="M171.39,97.72L197.80,97.72L197.80,92.08L171.39,92.08z"/><path style="stroke:#35414c;stroke-width:0.255" d="M171.39,97.72L197.80,97.72L197.80,92.08L171.39,92.08z"/><path style="stroke:#35404c;stroke-width:0.250;stroke-opacity:0.00" d="M171.39,97.72L197.80,97.72L197.80,92.08L171.39,92.08z"/><text xml:space="preserve" fill="#333f4b" stroke-width="0" x="172.09" y="96.13" font-size="3.56" opacity="1.00" font-family="Arial" font-weight="bold" font-style="italic">F24623372X</text><path style="fill:#ffffff" d="M171.39,57.83L197.80,57.83L197.80,52.19L171.39,52.19z"/><path style="stroke:#35414c;stroke-width:0.255" d="M171.39,57.83L197.80,57.83L197.80,52.19L171.39,52.19z"/><path style="stroke:#35404c;stroke-width:0.250;stroke-opacity:0.00" d="M171.39,57.83L197.80,57.83L197.80,52.19L171.39,52.19z"/><text xml:space="preserve" fill="#333f4b" stroke-width="0" x="172.09" y="56.25" font-size="3.56" opacity="1.00" font-family="Arial" font-weight="bold" font-style="italic">F21623173X</text><path style="fill:#ffffff" d="M171.39,77.91L197.80,77.91L197.80,72.26L171.39,72.26z"/><path style="stroke:#35414c;stroke-width:0.255" d="M171.39,77.91L197.80,77.91L197.80,72.26L171.39,72.26z"/><path style="stroke:#35404c;stroke-width:0.250;stroke-opacity:0.00" d="M171.39,77.91L197.80,77.91L197.80,72.26L171.39,72.26z"/><text xml:space="preserve" fill="#333f4b" stroke-width="0" x="172.09" y="76.32" font-size="3.49" opacity="1.00" font-family="Arial" font-weight="bold" font-style="italic">F24623313A</text><g id="paperID" visibility="hidden" opacity="0.00" transform="scale(0.000100)"><path style="stroke:#000000;stroke-width:0.500;fill:#e6e6e6;fill-rule:evenodd" d="M-2000.00,-2000.00L2210.00,-2000.00L2210.00,2150.00L-2000.00,2150.00zM0.00,0.00L210.00,0.00L210.00,150.00L0.00,150.00z"/><path style="fill:#000000;fill-opacity:0.118" d="M3.00,150.00L210.00,150.00L210.00,3.00L213.00,3.00L213.00,153.00L3.00,153.00z"/></g><g id="hotspot.0" onmouseover="ShowHotSpot(evt,'0')" onmouseout="HideHotSpot(evt,'0')" onmousemove="ShowToolTip(evt,'0',&quot;F21623153&quot;)" opacity="0"><path style="fill:#00ff00;fill-rule:evenodd" d="M198.06,42.58L198.04,47.74L197.76,48.25L171.33,48.18L171.33,42.43L197.79,42.32zM73.66,43.89L74.07,45.06L74.69,45.76L74.68,48.26L73.52,49.74L70.61,50.03L69.39,49.73L68.86,49.21L68.84,46.65L69.54,45.23L70.61,43.93L71.66,43.40L72.83,43.40zM73.59,63.77L74.15,65.06L74.68,65.58L74.68,68.08L74.41,68.59L73.02,69.84L69.90,69.85L68.86,69.03L68.84,66.73L69.79,64.77L71.14,63.48L71.94,63.21L72.82,63.20z"/></g><g id="hotspot.1" onmouseover="ShowHotSpot(evt,'1')" onmouseout="HideHotSpot(evt,'1')" onmousemove="ShowToolTip(evt,'1',&quot;F21623173&quot;)" opacity="0"><path style="fill:#00ff00;fill-rule:evenodd" d="M198.06,52.62L198.04,57.78L197.76,58.29L171.33,58.22L171.33,52.46L197.79,52.36zM86.85,92.54L86.74,93.33L79.07,97.85L78.39,97.83L77.84,97.29L77.75,95.71L85.14,91.46L86.04,91.46zM86.85,102.32L86.86,102.94L79.35,107.35L78.10,107.33L77.83,107.07L77.84,105.31L85.41,100.96L85.76,100.97z"/></g><g id="hotspot.2" onmouseover="ShowHotSpot(evt,'2')" onmouseout="HideHotSpot(evt,'2')" onmousemove="ShowToolTip(evt,'2',&quot;F24623312&quot;)" opacity="0"><path style="fill:#00ff00;fill-rule:evenodd" d="M63.31,28.62L63.31,60.66L57.42,64.03L56.16,64.03L53.45,62.51L53.54,30.56L60.16,26.77zM198.06,62.66L198.04,67.82L197.76,68.32L171.33,68.25L171.33,62.50L197.79,62.40z"/></g><g id="hotspot.3" onmouseover="ShowHotSpot(evt,'3')" onmouseout="HideHotSpot(evt,'3')" onmousemove="ShowToolTip(evt,'3',&quot;F24623313&quot;)" opacity="0"><path style="fill:#00ff00;fill-rule:evenodd" d="M198.06,72.70L198.04,77.86L197.76,78.36L171.33,78.29L171.33,72.54L197.79,72.43zM54.33,84.08L54.88,84.85L55.65,86.47L59.87,112.62L59.90,130.43L59.27,130.87L58.28,130.86L42.19,121.58L41.40,120.26L41.30,109.19L41.82,108.88L42.44,108.89L43.78,109.53L43.78,108.13L43.16,108.41L42.17,108.41L41.30,107.95L41.04,85.68L41.82,85.14L42.51,85.04L43.27,85.68L43.75,85.79L43.78,84.35L42.51,85.04L41.12,84.09L41.12,78.89L43.14,77.72L43.50,77.72zM42.51,85.04L43.78,84.35L43.75,85.79L43.27,85.68zM49.04,94.08L49.34,95.00L48.78,94.66L48.79,93.83zM49.33,104.18L49.34,104.77L48.78,104.44L48.76,103.37zM49.34,118.71L49.33,119.30L49.08,119.25L48.75,118.70L48.79,117.87z"/></g><g id="hotspot.4" onmouseover="ShowHotSpot(evt,'4')" onmouseout="HideHotSpot(evt,'4')" onmousemove="ShowToolTip(evt,'4',&quot;F24623314&quot;)" opacity="0"><path style="fill:#00ff00;fill-rule:evenodd" d="M137.53,31.79L141.24,34.16L142.56,36.80L146.51,61.90L146.53,80.23L145.64,80.96L145.22,80.92L133.32,74.04L132.50,72.48L132.52,31.08L134.02,30.18L134.63,30.17zM198.06,82.47L198.04,87.63L197.76,88.14L171.33,88.06L171.33,82.31L197.79,82.21zM135.46,44.48L135.45,45.07L135.19,45.03L134.78,43.95zM135.45,53.97L135.44,54.85L134.90,54.22L134.89,53.43zM135.19,68.16L135.64,69.44L135.14,69.06L134.90,68.75L134.89,67.95z"/></g><g id="hotspot.5" onmouseover="ShowHotSpot(evt,'5')" onmouseout="HideHotSpot(evt,'5')" onmousemove="ShowToolTip(evt,'5',&quot;F24623372&quot;)" opacity="0"><path style="fill:#00ff00;fill-rule:evenodd" d="M107.95,30.20L119.31,36.80L119.84,37.60L120.89,40.51L124.58,72.48L125.65,75.10L125.67,96.62L117.48,101.39L116.94,101.56L115.87,101.00L115.64,99.65L108.74,95.71L108.47,61.12L102.93,57.94L102.69,47.61L98.35,45.08L98.35,33.37L104.69,29.65zM198.06,92.51L198.04,97.67L197.76,98.17L171.33,98.10L171.33,92.35L197.79,92.24z"/></g><g id="hotspot.6" onmouseover="ShowHotSpot(evt,'6')" onmouseout="HideHotSpot(evt,'6')" onmousemove="ShowToolTip(evt,'6',&quot;Molla_di_compressione_20x2_Compressa_3.5Spire_Lungh23&quot;)" opacity="0"><path style="fill:#00ff00;fill-rule:evenodd" d="M92.92,55.27L95.01,56.35L96.08,57.67L96.07,58.54L95.28,60.94L93.62,62.45L91.82,62.44L88.40,60.32L87.09,59.77L86.54,58.75L86.55,57.22L87.08,55.64L88.58,53.97L89.09,53.70L90.27,53.70zM92.92,75.08L95.28,76.42L96.08,77.47L96.07,78.63L95.72,79.61L94.75,81.54L93.35,82.53L92.35,82.53L86.82,79.33L86.54,78.56L86.54,77.03L87.89,74.41L89.37,73.50L90.26,73.50zM198.06,102.55L198.04,107.70L197.76,108.21L171.33,108.14L171.33,102.39L197.79,102.28zM95.03,57.37L94.75,59.09L93.85,60.56L92.53,61.40L92.00,61.38L93.16,60.41L94.21,58.81L94.76,57.10zM87.59,57.48L88.55,55.53L89.40,54.73L89.71,54.73L88.32,56.88L87.89,59.09L87.63,59.04zM90.59,55.43L88.68,59.12L88.66,58.01L89.11,56.62L89.89,55.54L90.55,55.31zM93.34,59.00L92.10,60.43L92.10,59.62L92.89,58.55L93.62,57.37L93.92,57.36zM92.97,76.30L92.35,77.06L92.35,76.53L92.93,76.18zM94.83,77.06L95.03,78.09L94.22,79.95L92.82,81.21L91.98,81.18L93.42,79.95L94.41,78.03L94.73,76.94zM87.59,77.29L88.67,75.21L89.43,74.80L89.47,74.92L88.81,75.87L88.13,77.30L87.89,79.16L87.60,78.86zM90.55,75.71L90.14,76.14L88.68,78.93L88.65,77.82L89.60,75.87L90.55,75.12zM93.71,78.38L92.90,79.69L92.09,80.22L92.06,79.69L93.37,77.46L93.67,77.45z"/></g></g></svg>
