<?xml version="1.0" encoding="UTF-8" standalone="no"?>
<svg xmlns="http://www.w3.org/2000/svg" xmlns:xlink="http://www.w3.org/1999/xlink" width="210.000mm" height="150.000mm" viewBox="0.000000 0.000000 210.000000 150.000000" stroke-linejoin="round" stroke-linecap="round" fill="none" fill-rule="evenodd"><desc>Composer Export</desc><script type="text/ecmascript"><![CDATA[
if(typeof(top) != "undefined")
{
	top.ShowPaper = ShowPaper;
}
function ShowHotSpot(evt,hotspotid)
{
	var svgDocument = evt.target.ownerDocument;
	var strId = "hotspot."+hotspotid;
	var hotspot = svgDocument.getElementById(strId);
	if(hotspot)
		hotspot.setAttribute("opacity",".5");
}
function HideHotSpot(evt,hotspotid)
{
	var svgDocument = evt.target.ownerDocument;
	var strId = "hotspot."+hotspotid;
	var hotspot = svgDocument.getElementById(strId);
	if(hotspot)
		hotspot.setAttribute("opacity","0");

	var toolTip = svgDocument.getElementById('ToolTip');
	if(toolTip)
		toolTip.setAttribute("visibility","hidden");
}
function ShowToolTip(evt,hotspotid,strTooltip)
{
	if(strTooltip=="")
	return;

	// change text
	var svgDocument = evt.target.ownerDocument;
	var tiptext = svgDocument.getElementById('ToolTipText');
	if( !tiptext )
	return;
	tiptext.firstChild.nodeValue = " " + strTooltip + "  " ;

	// show tooltip before, else some refresh issue

	var toolTip = svgDocument.getElementById('ToolTip');
	if(!toolTip)
	return;

	toolTip.setAttribute("visibility","visible");
	toolTip.setAttribute("opacity",".95");

	// move tooltip
	// get viewbox

	var root = svgDocument.documentElement;
	var vbox = (root.getAttribute("viewBox")).split(' ');
	var x0 = parseFloat(vbox[0]);
	var y0 = parseFloat(vbox[1]);
	var vboxW = parseFloat(vbox[2]);
	var vboxH = parseFloat(vbox[3]);

	// get default width of svg

	var strW = root.getAttribute("width");
	var svgW = parseFloat(strW);
	if(strW.indexOf('mm') != -1)
	svgW *= 3.779;

	var strH = root.getAttribute("height");
	var svgH = parseFloat(strH);
	if(strH.indexOf('mm') != -1)
	svgH *= 3.779;  	// 96 dpi  -> 96/25.4 = 3.779

	// update the viewbox / width / height if svg is embedded in html with zoom fit all
	var realx0 = x0;
	var realy0 = y0;
	var realvboxW = vboxW;
	var realvboxH = vboxH;
	var realsvgW = svgW;
	var realsvgH = svgH;

	if ((typeof(top) == "undefined") || (typeof(top.svgctl1) != "undefined")) // embedded in html
	{
		// get window size in pxl

		svgW = window.innerWidth;
		svgH = window.innerHeight;

		// calculate real viewbox

		realsvgW = svgW;
		realsvgH = svgH;
		if((svgW / svgH) > (vboxW / vboxH))
		{
			realvboxW = (vboxH * svgW) / svgH;
			realvboxH = vboxH;
			realx0 = x0 - (realvboxW - vboxW)/2 ;
		}
		else
		{
			realvboxH = (vboxW * svgH) / svgW;
			realvboxW = vboxW;
			realy0 = y0 - (realvboxH - vboxH)/2 ;
		}
	}

	// get user zoom/pan

	var newScale = root.currentScale;
	var translation = root.currentTranslate;

	// transform pxl to user unit

	var xPos = (((evt.clientX+10- translation.x)/newScale) * realvboxW)/realsvgW  + realx0 ;
	var yPos = (((evt.clientY+5- translation.y)/newScale) * realvboxH)/ realsvgH  + realy0 ;
	var scaleForWidth = ( (1 / newScale) * realvboxH) / realsvgH;

	// move tooltip

	toolTip.setAttribute("transform", "translate(" + xPos + "," + yPos + ")" );

	// resize tooltip

	var fontsize = 12;
	tiptext.setAttribute("font-size",fontsize*scaleForWidth);
	tiptext.setAttribute("y", fontsize*scaleForWidth);
	var tipBG = svgDocument.getElementById('ToolTipBG');
	var outline = tiptext.getBBox();
	if(tipBG)
	{
		tipBG.setAttribute("stroke-width", 1*scaleForWidth);
		tipBG.setAttribute("width", Number(outline.width) );
		tipBG.setAttribute("height", Number(outline.height) + fontsize*.5*scaleForWidth );
	}
	var ToolTipShadow = svgDocument.getElementById('ToolTipShadow');
	if(ToolTipShadow)
	{
		ToolTipShadow.setAttribute("width", Number(outline.width) );
		ToolTipShadow.setAttribute("height", Number(outline.height) + fontsize*.5*scaleForWidth );
		ToolTipShadow.setAttribute("x", 3*scaleForWidth);
		ToolTipShadow.setAttribute("y", 3*scaleForWidth);
	}
}
function ShowPaper()
{
  var svgDocument = getDocument();
  var paper = svgDocument.getElementById("paperID");
  if(paper)
  {
    paper.setAttribute("transform","scale(1)");
    paper.setAttribute("opacity","1");
    paper.setAttribute("visibility","visible");
  }
  var svg = svgDocument.getRootElement();
  if(svg)
  {
    svg.setAttribute("width","220.000mm");
    svg.setAttribute("height","160.000mm");
    svg.setAttribute("viewBox","-5.000000 -5.000000 220.000000 160.000000");
  }
}
]]></script><defs/><g><path style="fill:#ffffff" d="M209.93,149.99L0.04,149.99L0.04,0.04L209.93,0.04z"/><path style="fill:#8aa7bf" d="M56.85,79.75L57.36,80.13L58.01,80.87L58.51,81.77L58.47,84.19L57.80,85.05L57.58,85.71L57.06,86.58L56.06,87.10L55.33,87.10L54.70,86.96L53.69,86.33L52.79,85.33L51.91,83.80L51.53,82.41L51.53,81.56L51.65,80.80L52.17,80.05L52.88,79.62L53.26,79.49L53.94,79.49L54.31,79.63L54.79,79.63L55.16,79.49L56.10,79.49z"/><path style="fill:#8aa7bf" d="M116.15,87.86L116.79,88.36L116.93,89.03L116.66,89.80L115.87,90.53L115.13,90.52L106.53,85.57L106.39,85.20L106.39,84.73L106.74,83.80L107.28,83.33L107.62,83.16L108.05,83.16z"/><path style="fill:#8aa7bf" d="M116.41,99.01L116.79,99.39L116.93,100.06L116.66,100.82L115.87,101.55L115.13,101.55L106.53,96.60L106.39,96.22L106.39,95.75L106.73,94.82L107.24,94.32L107.63,94.19L108.05,94.18z"/><path style="fill:#8aa7bf" d="M56.87,102.41L57.75,103.18L58.51,104.32L58.51,106.78L58.13,107.42L57.74,107.67L57.49,108.68L56.87,109.33L56.19,109.66L54.94,109.66L53.82,109.01L52.81,107.99L52.16,107.00L51.65,105.60L51.53,104.96L51.53,104.12L51.78,103.10L51.99,102.81L53.00,102.17L54.20,102.17L54.44,102.31L54.66,102.31L54.90,102.17L56.35,102.17z"/><path style="fill:#2ac7ce" d="M46.59,81.39L46.59,117.68L43.13,119.67L42.53,119.67L35.31,115.48L35.27,79.24L39.06,77.08z"/><path style="fill:#01ff02" d="M54.45,82.41L55.21,83.29L55.35,84.10L55.04,84.46L54.70,84.45L54.20,84.17L53.80,83.56L53.64,82.79L53.78,82.42L54.19,82.27z"/><path style="fill:#01ff02" d="M45.13,84.63L45.20,85.24L44.94,85.75L44.53,86.09L44.05,86.09L44.05,85.36L44.56,84.61L45.06,84.56z"/><path style="fill:#01ff02" d="M116.42,88.86L116.42,89.43L116.28,89.67L115.86,90.03L115.52,90.02L115.51,89.28L115.99,88.73L116.29,88.72z"/><path style="fill:#01ff02" d="M39.51,91.52L40.01,92.41L40.01,92.97L39.83,93.18L39.23,93.19L38.74,92.79L38.47,92.30L38.48,91.32L38.69,91.14L39.12,91.14z"/><path style="fill:#01ff02" d="M45.21,95.70L45.20,96.27L44.94,96.77L44.53,97.12L44.05,97.12L44.05,96.38L44.56,95.63L45.08,95.57z"/><path style="fill:#01ff02" d="M116.42,99.88L116.42,100.45L116.28,100.70L115.86,101.05L115.52,101.05L115.51,100.31L115.99,99.75L116.29,99.74z"/><path style="fill:#01ff02" d="M54.84,105.33L55.20,105.98L55.35,106.65L55.16,106.99L54.56,107.00L54.07,106.60L53.67,105.73L53.67,105.25L53.88,104.95L54.45,104.96z"/><path style="fill:#01ff02" d="M45.21,112.31L45.20,112.73L45.07,113.11L44.64,113.58L44.05,113.59L44.05,112.85L44.55,112.22L44.78,112.05L44.94,112.04z"/><path style="fill:#01ff02" d="M39.64,114.32L40.00,115.10L40.01,115.66L39.83,115.86L39.36,115.87L38.61,115.22L38.47,114.85L38.47,113.87L39.12,113.83z"/><path style="fill:#999999" d="M73.34,69.97L74.48,71.24L74.97,72.14L75.48,73.54L75.48,75.10L75.05,75.94L73.47,76.89L72.90,77.08L72.58,77.40L71.89,77.72L71.32,78.16L70.79,78.39L70.29,78.66L69.40,79.28L68.73,79.50L67.49,79.50L66.62,78.98L65.98,78.47L65.21,77.47L64.45,75.70L64.28,74.43L64.45,73.57L64.97,72.83L67.51,71.44L68.22,71.00L68.65,70.81L69.23,70.37L69.80,70.18L70.37,69.73L71.00,69.35L72.06,69.35z"/><path style="fill:#999999" d="M72.82,92.29L73.84,93.05L74.61,94.05L75.10,94.95L75.48,96.09L75.48,97.78L75.35,98.16L74.96,98.66L73.53,99.51L72.90,99.63L72.31,100.19L71.63,100.40L71.38,100.65L70.17,101.34L69.41,101.85L68.60,102.19L68.13,102.18L67.36,102.06L66.36,101.41L65.47,100.40L64.71,99.14L64.45,98.38L64.28,96.98L64.45,96.12L64.91,95.45L66.62,94.50L66.94,94.31L67.36,94.23L67.57,93.93L68.59,93.55L68.96,93.16L69.85,92.66L70.87,92.03L71.80,91.91z"/><path style="fill:#f2f2f2" d="M83.84,22.98L86.25,23.74L93.73,28.04L94.50,28.80L95.63,29.81L96.90,32.60L97.27,35.52L97.40,61.63L98.41,65.81L98.43,90.45L97.16,91.22L96.90,91.29L96.01,90.76L95.58,90.76L86.59,95.98L86.39,95.97L79.16,91.78L79.04,60.09L72.52,56.35L72.45,50.85L71.93,50.47L67.37,47.81L67.37,34.55L72.27,28.94L82.79,22.84z"/><path style="fill:#2ac7ce" d="M41.53,19.17L42.41,19.68L43.16,20.20L43.55,21.07L48.11,44.77L48.11,65.34L34.51,73.17L34.17,73.17L31.89,71.89L31.88,25.29L33.13,23.24L39.96,19.30L40.77,19.06z"/><path style="fill:#2ac7ce" d="M146.21,79.73L146.57,80.50L151.13,104.20L151.14,124.78L132.59,135.51L132.00,135.49L129.84,134.23L129.80,122.45L132.52,120.86L132.75,120.53L132.61,120.53L131.32,121.32L130.85,121.32L129.80,120.72L129.84,95.50L132.46,93.93L132.63,93.67L132.48,93.67L131.24,94.38L130.98,94.46L129.80,93.72L129.83,87.76L131.12,85.62L143.11,78.73L143.48,78.60L144.42,78.60z"/><path style="fill:#ffffff" d="M36.20,37.46L35.51,38.57L35.27,38.62L35.30,37.96L35.82,37.09L36.03,36.90L36.33,36.91z"/><path style="fill:#ffffff" d="M42.95,46.86L42.66,47.36L42.64,47.10L42.87,46.79z"/><path style="fill:#ffffff" d="M36.37,47.89L36.07,48.74L35.42,49.64L35.28,49.65L35.30,48.99L35.64,48.31L36.29,47.80z"/><path style="fill:#ffffff" d="M42.95,57.89L42.66,58.38L42.64,58.12L42.87,57.81z"/><path style="fill:#ffffff" d="M36.35,64.47L35.94,65.47L35.31,66.24L35.31,65.46L35.93,64.57L36.17,64.40z"/><path style="fill:#ffffff" d="M72.31,70.75L73.34,71.75L74.22,73.28L74.47,74.56L74.33,75.23L73.96,73.54L73.07,72.02L72.18,71.13L71.00,70.36L71.43,70.36z"/><path style="fill:#ffffff" d="M71.55,71.51L72.32,72.26L73.07,73.41L73.58,74.81L73.58,75.62L73.20,75.57L73.07,75.44L72.95,74.80L72.06,73.03L71.06,71.87L70.54,71.51L70.53,71.00z"/><path style="fill:#ffffff" d="M69.16,71.75L69.15,72.07L68.89,72.03L68.89,71.67L69.03,71.62z"/><path style="fill:#ffffff" d="M67.71,72.38L68.01,72.40L68.02,72.56L67.73,72.53z"/><path style="fill:#ffffff" d="M70.93,72.77L71.80,73.92L72.20,74.97L71.94,74.80L70.65,72.91L70.66,72.51z"/><path style="fill:#ffffff" d="M69.40,73.41L69.54,74.08L68.77,73.28L68.72,72.77L68.88,72.75z"/><path style="fill:#ffffff" d="M66.73,73.41L66.86,74.30L67.11,75.32L68.01,76.95L69.28,78.11L69.28,78.39L68.76,78.36L67.76,77.71L66.73,76.20L66.35,74.94L66.35,73.43L66.49,73.28z"/><path style="fill:#ffffff" d="M68.15,74.41L69.14,76.07L69.41,77.25L68.90,76.82L68.27,76.06L67.75,74.94L67.62,74.56L67.63,73.90z"/><path style="fill:#ffffff" d="M65.84,75.83L66.40,77.17L66.10,76.83L65.59,75.70L65.47,75.06L65.47,74.04z"/><path style="fill:#ffffff" d="M71.18,76.32L71.17,76.89L70.94,76.83L70.63,76.61L70.36,75.44z"/><path style="fill:#ffffff" d="M66.63,77.35L66.62,77.50L66.50,77.49L66.40,77.17z"/><path style="fill:#ffffff" d="M67.25,78.09L67.08,78.13L67.13,77.97z"/><path style="fill:#ffffff" d="M72.18,93.31L72.96,93.93L73.72,94.94L74.21,95.97L74.47,97.12L74.34,97.92L74.08,96.61L73.34,95.07L72.55,94.08L71.30,93.18L70.88,92.92L71.30,92.92z"/><path style="fill:#ffffff" d="M133.02,93.23L132.88,93.48L132.88,91.95L133.01,91.52z"/><path style="fill:#ffffff" d="M71.93,94.45L72.45,95.07L73.07,95.97L73.58,97.36L73.54,98.26L73.33,98.26L73.07,98.12L72.69,96.73L71.69,95.19L70.79,94.32L70.54,94.19L70.50,93.67L70.79,93.67z"/><path style="fill:#ffffff" d="M68.89,94.35L69.14,94.31L69.16,94.74L68.88,94.57z"/><path style="fill:#ffffff" d="M70.80,95.30L71.68,96.35L72.20,97.52L71.56,96.97L70.65,95.60L70.66,95.20z"/><path style="fill:#ffffff" d="M69.15,95.58L69.40,95.97L69.54,96.64L69.28,96.47L68.77,95.84L68.76,95.32z"/><path style="fill:#ffffff" d="M68.27,97.22L69.02,98.50L69.40,99.51L69.41,99.93L68.65,99.25L67.74,97.62L67.57,96.60z"/><path style="fill:#ffffff" d="M66.86,96.98L67.37,98.50L68.27,99.88L69.30,100.79L69.28,100.95L68.63,100.91L68.01,100.52L67.13,99.50L66.48,98.13L66.35,97.62L66.35,96.00L66.73,95.95z"/><path style="fill:#ffffff" d="M65.84,98.51L66.36,99.52L66.52,99.98L66.12,99.50L65.59,98.26L65.47,97.74L65.47,96.59z"/><path style="fill:#ffffff" d="M138.72,96.39L138.21,97.40L137.91,97.63L137.65,97.66L137.69,97.27L138.47,96.00L138.71,95.96z"/><path style="fill:#ffffff" d="M71.18,99.00L71.18,99.55L70.67,99.26L70.36,98.12L70.41,98.11z"/><path style="fill:#ffffff" d="M66.76,100.16L66.75,100.31L66.62,100.30L66.52,99.98z"/><path style="fill:#ffffff" d="M70.67,100.32L70.63,100.16L70.78,100.13z"/><path style="fill:#ffffff" d="M145.69,106.39L145.43,106.79L145.41,106.53L145.69,106.11z"/><path style="fill:#ffffff" d="M138.72,107.41L138.21,108.43L137.91,108.66L137.65,108.68L137.69,108.29L138.47,107.02L138.71,106.98z"/><path style="fill:#ffffff" d="M145.69,117.41L145.43,117.81L145.41,117.56L145.69,117.13z"/><path style="fill:#ffffff" d="M133.02,120.10L132.88,120.34L132.87,118.80L133.01,118.51z"/><path style="fill:#ffffff" d="M138.71,124.02L138.41,124.72L137.69,125.29L137.69,124.89L138.21,123.90L138.72,123.46z"/><path style="stroke:#000000;stroke-width:0.088" d="M65.56,95.16L65.03,95.40L64.99,95.44L65.37,95.25L64.83,95.57L64.43,96.23L64.29,97.13L64.42,98.19L64.74,99.16L65.33,100.23L66.08,101.14L66.92,101.81L67.67,102.15L68.46,102.21L69.08,101.91L69.20,101.79L69.18,101.69L69.13,101.59L69.06,101.51L68.96,101.45L68.37,101.72L67.65,101.66L66.89,101.29L66.16,100.64L65.53,99.80L65.07,98.85L64.84,98.02L64.81,97.14L65.01,96.43L65.44,95.97L66.04,95.80L66.77,95.95L67.45,96.35L68.18,97.05L68.81,97.95L69.27,98.99L69.49,99.84L69.54,100.07L69.55,100.09L69.56,100.10L69.50,100.87L69.19,101.53L69.12,101.58"/><path style="stroke:#000000;stroke-width:0.088" d="M64.74,99.16L64.67,98.96L64.42,98.20"/><path style="stroke:#000000;stroke-width:0.088" d="M65.07,98.85L65.07,98.86"/><path style="stroke:#000000;stroke-width:0.088" d="M66.45,100.88L65.94,100.29L65.50,99.59L65.17,98.84L64.96,98.07"/><path style="stroke:#000000;stroke-width:0.088" d="M64.96,98.08L64.89,97.36L64.97,96.75"/><path style="stroke:#000000;stroke-width:0.088" d="M64.96,96.76L65.15,96.30"/><path style="stroke:#000000;stroke-width:0.088" d="M64.43,96.23L64.63,95.85L64.79,95.63"/><path style="stroke:#000000;stroke-width:0.088" d="M64.83,95.57L64.88,95.52L64.99,95.44"/><path style="stroke:#000000;stroke-width:0.088" d="M65.53,99.80L65.53,99.81"/><path style="stroke:#000000;stroke-width:0.088" d="M67.10,100.72L66.57,100.16L66.11,99.48L65.75,98.74L65.51,97.98"/><path style="stroke:#000000;stroke-width:0.088" d="M68.23,101.37L67.49,100.88L66.78,100.09L66.25,99.23L65.84,98.16L65.75,97.82L65.65,96.75L65.82,95.86"/><path style="stroke:#000000;stroke-width:0.088" d="M65.62,96.09L65.55,96.69L65.62,97.55L65.62,97.58L65.85,98.45L66.22,99.31L66.70,100.09L66.92,100.39L67.50,100.99L67.52,101.01L67.77,101.19"/><path style="stroke:#000000;stroke-width:0.088" d="M65.51,98.00L65.40,97.26L65.44,96.61"/><path style="stroke:#000000;stroke-width:0.088" d="M65.38,96.04L65.21,96.21L65.23,96.19"/><path style="stroke:#000000;stroke-width:0.088" d="M65.63,95.91L65.39,96.03"/><path style="stroke:#000000;stroke-width:0.088" d="M65.40,96.03L65.12,96.34"/><path style="stroke:#000000;stroke-width:0.088" d="M65.44,96.62L65.61,96.10"/><path style="stroke:#000000;stroke-width:0.088" d="M65.59,96.12L65.78,95.87"/><path style="stroke:#000000;stroke-width:0.088" d="M65.51,95.20L65.52,95.20L65.37,95.25L66.13,95.22L66.97,95.54L67.81,96.17L68.52,96.98L69.12,98.00L69.49,99.03L69.60,99.83L69.59,100.05L69.57,100.09L69.57,100.10L69.56,100.10"/><path style="stroke:#000000;stroke-width:0.088" d="M65.37,95.25L65.38,95.24L65.42,95.21L65.92,94.91L65.98,94.89L66.63,94.80L66.69,94.80L67.35,94.94"/><path style="stroke:#000000;stroke-width:0.088" d="M65.57,95.16L65.62,95.14L65.67,95.13L66.30,95.11L66.35,95.11L67.02,95.30L67.06,95.31L67.75,95.70L68.44,96.29L69.03,96.98L69.52,97.77L69.89,98.60L70.11,99.43L70.11,99.46L70.17,100.24"/><path style="stroke:#000000;stroke-width:0.088" d="M66.21,100.69L66.21,100.69"/><path style="stroke:#000000;stroke-width:0.088" d="M67.36,101.52L66.98,101.33L66.43,100.87L66.44,100.87"/><path style="stroke:#000000;stroke-width:0.088" d="M66.36,97.64L66.63,98.51L67.00,99.26L67.46,99.92L67.96,100.46"/><path style="stroke:#000000;stroke-width:0.088" d="M66.30,96.22L66.26,96.89L66.36,97.65"/><path style="stroke:#000000;stroke-width:0.088" d="M66.29,96.23L66.40,95.88"/><path style="stroke:#000000;stroke-width:0.088" d="M66.27,95.85L66.77,95.96"/><path style="stroke:#000000;stroke-width:0.088" d="M66.11,95.81L65.97,95.82"/><path style="stroke:#000000;stroke-width:0.088" d="M67.20,94.26L66.92,94.34L66.87,94.36L66.34,94.68L66.30,94.71L66.18,94.86"/><path style="stroke:#000000;stroke-width:0.088" d="M67.40,101.54L67.41,101.54"/><path style="stroke:#000000;stroke-width:0.088" d="M66.89,101.28L66.89,101.29"/><path style="stroke:#000000;stroke-width:0.088" d="M68.15,101.36L67.63,101.13L67.08,100.71"/><path style="stroke:#000000;stroke-width:0.088" d="M69.40,100.63L69.10,100.48L68.36,99.83L68.14,99.58L67.51,98.62L67.07,97.54L66.88,96.59L66.90,96.03"/><path style="stroke:#000000;stroke-width:0.088" d="M66.78,95.96L66.76,96.21L66.89,97.10L67.13,97.93L67.53,98.78L68.03,99.54L68.59,100.18L68.62,100.20L69.23,100.68L69.38,100.75"/><path style="stroke:#000000;stroke-width:0.088" d="M66.78,94.82L66.80,94.81L67.02,94.75L67.85,94.79L68.74,95.16L69.49,95.73L70.25,96.59L70.45,96.88L70.98,97.90L71.26,98.91L71.28,99.69L71.06,100.37L70.95,100.53L70.53,100.78"/><path style="stroke:#000000;stroke-width:0.088" d="M68.08,95.29L67.39,94.96L67.35,94.94"/><path style="stroke:#000000;stroke-width:0.088" d="M67.53,94.94L67.41,94.97"/><path style="stroke:#000000;stroke-width:0.088" d="M67.32,94.25L67.65,93.90L67.69,93.87L68.18,93.63"/><path style="stroke:#000000;stroke-width:0.088" d="M67.92,94.25L67.25,94.26L67.20,94.26"/><path style="stroke:#000000;stroke-width:0.088" d="M67.65,101.66L67.65,101.66"/><path style="stroke:#000000;stroke-width:0.088" d="M67.73,101.67L67.61,101.64"/><path style="stroke:#000000;stroke-width:0.088" d="M68.59,101.42L68.14,101.36"/><path style="stroke:#000000;stroke-width:0.088" d="M68.90,101.01L68.48,100.84L67.95,100.45L67.95,100.45"/><path style="stroke:#000000;stroke-width:0.088" d="M69.08,99.66L68.58,99.10L68.13,98.41L67.78,97.65L67.56,96.89"/><path style="stroke:#000000;stroke-width:0.088" d="M67.56,96.90L67.56,96.90L67.50,96.41"/><path style="stroke:#000000;stroke-width:0.088" d="M68.18,97.05L68.18,97.05"/><path style="stroke:#000000;stroke-width:0.088" d="M68.09,96.96L68.23,97.12"/><path style="stroke:#000000;stroke-width:0.088" d="M67.45,96.35L67.46,96.36"/><path style="stroke:#000000;stroke-width:0.088" d="M67.42,96.33L67.62,96.51"/><path style="stroke:#000000;stroke-width:0.088" d="M68.12,95.02L68.12,95.32"/><path style="stroke:#000000;stroke-width:0.088" d="M68.01,94.99L67.98,95.25"/><path style="stroke:#000000;stroke-width:0.088" d="M70.15,99.93L70.17,99.94L70.28,99.95L70.40,99.95L70.51,99.93L70.60,99.88L70.65,99.82L70.68,99.76L70.68,99.73L70.58,98.96L70.57,98.93L70.31,98.09L69.91,97.27L69.38,96.49L68.77,95.83L68.75,95.81L68.08,95.29"/><path style="stroke:#000000;stroke-width:0.088" d="M67.65,95.08L67.71,94.96"/><path style="stroke:#000000;stroke-width:0.088" d="M69.45,95.80L68.85,95.35L68.71,95.27L68.63,95.22L68.01,94.98L68.02,94.99"/><path style="stroke:#000000;stroke-width:0.088" d="M68.05,95.00L67.47,94.93L67.47,94.93"/><path style="stroke:#000000;stroke-width:0.088" d="M71.75,100.06L71.93,100.02L72.30,99.63L72.50,98.92L72.43,98.00L72.36,97.69L71.95,96.67L71.41,95.82L70.63,94.97L69.76,94.35L69.48,94.22L68.63,94.03L67.96,94.13L67.80,94.25"/><path style="stroke:#000000;stroke-width:0.088" d="M68.24,93.60L68.19,93.63"/><path style="stroke:#000000;stroke-width:0.088" d="M70.63,101.06L70.68,101.05L71.16,100.87L71.21,100.84L71.25,100.81L71.60,100.43L71.64,100.38L71.66,100.33L71.85,99.77L71.86,99.73L71.89,99.03L71.75,98.22L71.46,97.40L71.03,96.59L70.73,96.16L70.13,95.47L69.43,94.88L68.72,94.48L68.68,94.47L67.97,94.26L67.92,94.25"/><path style="stroke:#000000;stroke-width:0.088" d="M69.22,101.99L68.68,102.13L68.63,102.14L68.61,102.14"/><path style="stroke:#000000;stroke-width:0.088" d="M68.41,101.70L68.36,101.72"/><path style="stroke:#000000;stroke-width:0.088" d="M68.96,101.45L69.20,101.79"/><path style="stroke:#000000;stroke-width:0.088" d="M69.20,101.11L68.88,101.38"/><path style="stroke:#000000;stroke-width:0.088" d="M68.94,101.33L68.54,101.44L68.54,101.44"/><path style="stroke:#000000;stroke-width:0.088" d="M68.89,101.01L68.89,101.01L69.23,101.05"/><path style="stroke:#000000;stroke-width:0.088" d="M68.99,98.35L68.70,97.81"/><path style="stroke:#000000;stroke-width:0.088" d="M68.40,97.37L68.42,97.40L68.83,98.23L69.12,98.65"/><path style="stroke:#000000;stroke-width:0.088" d="M68.83,98.00L68.44,97.42"/><path style="stroke:#000000;stroke-width:0.088" d="M68.72,95.78L68.71,95.75L68.70,95.26"/><path style="stroke:#000000;stroke-width:0.088" d="M68.31,94.36L68.48,94.28"/><path style="stroke:#000000;stroke-width:0.088" d="M68.82,94.53L68.91,94.25L68.90,94.26"/><path style="stroke:#000000;stroke-width:0.088" d="M72.53,94.04L71.84,93.47L71.13,93.07L70.77,92.94L70.08,92.83L70.03,92.82L69.98,92.83L69.34,92.94L69.29,92.96L68.83,93.23L68.78,93.26L68.53,93.57"/><path style="stroke:#000000;stroke-width:0.088" d="M68.24,93.60L68.29,93.59L68.94,93.53L68.99,93.53L69.68,93.68"/><path style="stroke:#000000;stroke-width:0.088" d="M68.43,94.28L68.96,94.24"/><path style="stroke:#000000;stroke-width:0.088" d="M68.93,94.24L69.51,94.37"/><path style="stroke:#000000;stroke-width:0.088" d="M70.36,101.17L70.00,101.54L69.96,101.57L69.90,101.59L69.59,101.70"/><path style="stroke:#000000;stroke-width:0.088" d="M69.22,101.99L69.28,101.96L69.32,101.93L69.73,101.58L69.77,101.54L70.06,100.96L70.17,100.25"/><path style="stroke:#000000;stroke-width:0.088" d="M69.41,99.55L69.46,100.21L69.37,100.80"/><path style="stroke:#000000;stroke-width:0.088" d="M69.19,101.13L69.18,101.14L69.38,100.74"/><path style="stroke:#000000;stroke-width:0.088" d="M69.06,99.65L69.44,99.95"/><path style="stroke:#000000;stroke-width:0.088" d="M69.35,99.28L69.35,99.28"/><path style="stroke:#000000;stroke-width:0.088" d="M69.41,99.57L69.21,98.84"/><path style="stroke:#000000;stroke-width:0.088" d="M71.14,98.76L70.46,98.03L69.86,97.06L69.70,96.69L69.43,95.79"/><path style="stroke:#000000;stroke-width:0.088" d="M71.15,98.87L70.76,98.51L70.22,97.80L69.76,97.00L69.43,96.13L69.34,95.72"/><path style="stroke:#000000;stroke-width:0.088" d="M71.10,98.52L70.86,97.79L70.49,97.07L70.01,96.39L69.44,95.79"/><path style="stroke:#000000;stroke-width:0.088" d="M69.32,94.82L69.30,94.54L69.23,94.48L69.20,94.42L69.22,94.76"/><path style="stroke:#000000;stroke-width:0.088" d="M69.21,94.35L69.21,94.33L69.20,94.42"/><path style="stroke:#000000;stroke-width:0.088" d="M69.82,94.52L69.78,94.55L69.68,94.58L69.57,94.60L69.52,94.60L69.41,94.58L69.31,94.54L69.30,94.54L69.34,94.33"/><path style="stroke:#000000;stroke-width:0.088" d="M69.21,94.33L69.21,94.30"/><path style="stroke:#000000;stroke-width:0.088" d="M69.49,94.36L70.03,94.63L70.64,95.07"/><path style="stroke:#000000;stroke-width:0.088" d="M72.95,97.43L72.64,96.61L72.19,95.80L71.62,95.06L70.95,94.41L70.25,93.93L69.73,93.70L69.69,93.68"/><path style="stroke:#000000;stroke-width:0.088" d="M69.51,93.64L69.54,93.63"/><path style="stroke:#000000;stroke-width:0.088" d="M69.51,93.63L69.51,93.63L69.98,93.53"/><path style="stroke:#000000;stroke-width:0.088" d="M68.97,93.53L69.03,93.50L69.78,93.32L70.64,93.50L71.41,93.92L72.24,94.64L72.47,94.91L73.12,95.89"/><path style="stroke:#000000;stroke-width:0.088" d="M73.51,93.45L72.84,92.86L72.15,92.45L72.11,92.44L71.44,92.23L71.39,92.22L70.75,92.22L70.70,92.23L70.09,92.47L70.05,92.51L69.68,92.88"/><path style="stroke:#000000;stroke-width:0.088" d="M70.63,101.06L70.43,101.05"/><path style="stroke:#000000;stroke-width:0.088" d="M70.36,101.17L70.39,101.13L70.42,101.08L70.63,100.53L70.64,100.48L70.68,99.76"/><path style="stroke:#000000;stroke-width:0.088" d="M69.98,95.34L69.93,95.12L69.91,94.57"/><path style="stroke:#000000;stroke-width:0.088" d="M70.50,95.00L70.73,95.75L71.08,96.50L71.54,97.21L72.06,97.78"/><path style="stroke:#000000;stroke-width:0.088" d="M70.51,95.01L70.50,94.97"/><path style="stroke:#000000;stroke-width:0.088" d="M69.92,93.53L70.51,93.60L70.83,93.71"/><path style="stroke:#000000;stroke-width:0.088" d="M70.44,94.06L70.47,93.66L70.46,93.67"/><path style="stroke:#000000;stroke-width:0.088" d="M70.47,93.66L70.49,93.60"/><path style="stroke:#000000;stroke-width:0.088" d="M70.11,93.55L69.99,93.81L69.99,93.81"/><path style="stroke:#000000;stroke-width:0.088" d="M69.99,93.82L69.99,93.81"/><path style="stroke:#000000;stroke-width:0.088" d="M74.23,98.60L74.24,98.59L74.53,97.90L74.56,97.01L74.53,96.76L74.22,95.72L73.68,94.69L72.96,93.80L72.13,93.12L71.29,92.75L70.51,92.72L70.25,92.85"/><path style="stroke:#000000;stroke-width:0.088" d="M72.40,92.07L72.84,92.30L72.34,92.03L72.24,92.00L72.08,91.96L71.76,91.91L71.71,91.91L71.10,91.97L71.04,91.98L70.99,92.00L70.48,92.27L70.43,92.31L70.40,92.35"/><path style="stroke:#000000;stroke-width:0.088" d="M70.67,99.94L70.98,100.07"/><path style="stroke:#000000;stroke-width:0.088" d="M70.66,100.09L70.88,100.18"/><path style="stroke:#000000;stroke-width:0.088" d="M71.00,100.08L71.16,99.63"/><path style="stroke:#000000;stroke-width:0.088" d="M71.02,100.03L70.77,100.29"/><path style="stroke:#000000;stroke-width:0.088" d="M70.80,100.25L70.65,100.31"/><path style="stroke:#000000;stroke-width:0.088" d="M71.16,99.67L71.19,99.07L71.10,98.51"/><path style="stroke:#000000;stroke-width:0.088" d="M70.96,99.46L71.16,99.54"/><path style="stroke:#000000;stroke-width:0.088" d="M70.61,99.22L71.00,99.48"/><path style="stroke:#000000;stroke-width:0.088" d="M72.25,97.62L72.07,97.49L71.37,96.68L70.96,96.00L70.92,95.90L70.82,95.94"/><path style="stroke:#000000;stroke-width:0.088" d="M70.91,95.90L70.81,95.93"/><path style="stroke:#000000;stroke-width:0.088" d="M70.63,95.06L71.19,95.65L71.42,95.94L71.87,96.65L72.19,97.38L72.37,98.09"/><path style="stroke:#000000;stroke-width:0.088" d="M70.82,93.70L71.45,94.05L72.03,94.54L72.58,95.16L73.03,95.86L73.37,96.59L73.57,97.30"/><path style="stroke:#000000;stroke-width:0.088" d="M71.84,93.09L71.29,92.92"/><path style="stroke:#000000;stroke-width:0.088" d="M70.82,92.95L70.83,92.93L70.80,92.95"/><path style="stroke:#000000;stroke-width:0.088" d="M70.83,92.93L70.84,92.93"/><path style="stroke:#000000;stroke-width:0.088" d="M71.30,92.93L70.81,92.93"/><path style="stroke:#000000;stroke-width:0.088" d="M73.10,98.24L73.09,98.20L73.10,98.24L73.09,98.95L73.08,99.00L72.91,99.57L72.88,99.62L72.84,99.70L72.81,99.74L72.46,100.12L72.41,100.15L72.36,100.18L71.88,100.35L71.83,100.36"/><path style="stroke:#000000;stroke-width:0.088" d="M71.65,100.35L71.82,100.36"/><path style="stroke:#000000;stroke-width:0.088" d="M71.88,99.26L71.95,99.31L72.19,99.36"/><path style="stroke:#000000;stroke-width:0.088" d="M71.88,99.38L72.00,99.46L72.04,99.48L72.09,99.49"/><path style="stroke:#000000;stroke-width:0.088" d="M71.87,98.92L71.89,99.02"/><path style="stroke:#000000;stroke-width:0.088" d="M72.13,99.46L71.87,99.63"/><path style="stroke:#000000;stroke-width:0.088" d="M71.87,99.62L71.88,99.62"/><path style="stroke:#000000;stroke-width:0.088" d="M71.77,98.34L71.94,98.50L72.39,98.74"/><path style="stroke:#000000;stroke-width:0.088" d="M71.75,98.22L71.76,98.23"/><path style="stroke:#000000;stroke-width:0.088" d="M72.29,98.81L71.80,98.51"/><path style="stroke:#000000;stroke-width:0.088" d="M72.02,98.65L71.80,98.47"/><path style="stroke:#000000;stroke-width:0.088" d="M72.35,98.00L72.05,97.77"/><path style="stroke:#000000;stroke-width:0.088" d="M74.44,96.74L74.26,96.01L73.94,95.26L73.51,94.55L72.98,93.92L72.42,93.44L71.83,93.08"/><path style="stroke:#000000;stroke-width:0.088" d="M72.40,98.69L72.31,99.17L72.31,99.17"/><path style="stroke:#000000;stroke-width:0.088" d="M72.10,99.50L72.31,99.16"/><path style="stroke:#000000;stroke-width:0.088" d="M72.37,98.07L72.40,98.69"/><path style="stroke:#000000;stroke-width:0.088" d="M72.26,98.80L72.37,98.84"/><path style="stroke:#000000;stroke-width:0.088" d="M72.87,99.65L73.23,99.62L73.29,99.61L73.34,99.59L73.77,99.33L73.82,99.30L73.85,99.26L74.15,98.81L74.17,98.76L74.22,98.62L74.33,97.93L74.27,97.18L74.26,97.15L74.03,96.34L73.66,95.52L73.15,94.74L72.55,94.05"/><path style="stroke:#000000;stroke-width:0.088" d="M72.33,92.03L72.33,92.03"/><path style="stroke:#000000;stroke-width:0.088" d="M72.40,92.07L72.66,92.21"/><path style="stroke:#000000;stroke-width:0.088" d="M73.17,92.47L73.19,92.49L72.84,92.30L73.08,92.43"/><path style="stroke:#000000;stroke-width:0.088" d="M72.97,99.35L73.19,99.29L73.58,98.79L73.65,98.59L73.72,97.77L73.55,96.92L73.12,95.89"/><path style="stroke:#000000;stroke-width:0.088" d="M73.08,98.15L73.56,98.32"/><path style="stroke:#000000;stroke-width:0.088" d="M73.54,98.46L73.62,97.92L73.57,97.29"/><path style="stroke:#000000;stroke-width:0.088" d="M73.51,98.50L73.54,98.41"/><path style="stroke:#000000;stroke-width:0.088" d="M73.52,98.47L73.30,98.82"/><path style="stroke:#000000;stroke-width:0.088" d="M73.09,98.92L73.33,98.78"/><path style="stroke:#000000;stroke-width:0.088" d="M73.11,98.45L73.49,98.52"/><path style="stroke:#000000;stroke-width:0.088" d="M73.10,98.44L73.12,98.45"/><path style="stroke:#000000;stroke-width:0.088" d="M72.94,97.43L73.09,98.20L73.09,98.19"/><path style="stroke:#000000;stroke-width:0.088" d="M73.09,98.20L72.98,97.62"/><path style="stroke:#000000;stroke-width:0.088" d="M74.02,93.24L73.19,92.49"/><path style="stroke:#000000;stroke-width:0.088" d="M73.51,93.45L74.10,94.16L74.58,94.95L74.93,95.79L75.14,96.64L75.18,97.43L75.05,98.13L75.03,98.18L74.75,98.69L74.71,98.73L74.25,99.09"/><path style="stroke:#000000;stroke-width:0.088" d="M73.90,99.18L74.18,99.12"/><path style="stroke:#000000;stroke-width:0.088" d="M74.24,99.10L74.18,99.12"/><path style="stroke:#000000;stroke-width:0.088" d="M74.47,97.39L74.38,97.91L74.38,97.91"/><path style="stroke:#000000;stroke-width:0.088" d="M74.32,98.00L74.38,97.90"/><path style="stroke:#000000;stroke-width:0.088" d="M75.58,97.30L75.52,96.27L75.21,95.16L74.73,94.21L74.02,93.24"/><path style="stroke:#000000;stroke-width:0.088" d="M75.36,98.14L74.96,98.65L74.75,98.77L74.58,98.84"/><path style="stroke:#000000;stroke-width:0.088" d="M74.47,97.39L74.43,96.72"/><path style="stroke:#000000;stroke-width:0.088" d="M75.58,97.29L75.46,97.81L75.36,98.13"/><path style="stroke:#000000;stroke-width:0.088" d="M69.12,78.96L69.19,78.90L69.50,78.25L69.56,77.48L69.57,77.48L69.57,77.47L69.59,77.42L69.60,77.21L69.49,76.41L69.12,75.38L68.52,74.36L67.81,73.55L66.97,72.92L66.13,72.60L65.37,72.63L64.83,72.95L64.43,73.60L64.29,74.51L64.42,75.57L64.74,76.53L64.67,76.34L64.42,75.57"/><path style="stroke:#000000;stroke-width:0.088" d="M64.74,76.53L65.33,77.60L66.08,78.52L66.92,79.19L67.67,79.53L68.46,79.58L69.08,79.29L69.20,79.16L68.96,78.83L68.41,79.08L68.36,79.10"/><path style="stroke:#000000;stroke-width:0.088" d="M65.23,73.57L65.01,73.81L64.81,74.52L64.84,75.40L65.07,76.23L65.53,77.18L66.16,78.02L66.89,78.66L67.41,78.92L67.40,78.92"/><path style="stroke:#000000;stroke-width:0.088" d="M65.07,76.23L65.07,76.24"/><path style="stroke:#000000;stroke-width:0.088" d="M64.42,75.57L64.42,75.57"/><path style="stroke:#000000;stroke-width:0.088" d="M66.45,78.26L65.94,77.66L65.50,76.97L65.17,76.22L64.96,75.44"/><path style="stroke:#000000;stroke-width:0.088" d="M64.96,75.46L64.89,74.73L64.97,74.13"/><path style="stroke:#000000;stroke-width:0.088" d="M64.43,73.60L64.63,73.22L64.79,73.00"/><path style="stroke:#000000;stroke-width:0.088" d="M64.96,74.14L65.15,73.68"/><path style="stroke:#000000;stroke-width:0.088" d="M64.83,72.95L64.88,72.90L65.03,72.78L65.56,72.54"/><path style="stroke:#000000;stroke-width:0.088" d="M64.99,72.81L65.37,72.63L65.52,72.57L65.51,72.58"/><path style="stroke:#000000;stroke-width:0.088" d="M65.53,77.18L65.53,77.19"/><path style="stroke:#000000;stroke-width:0.088" d="M65.62,73.47L65.55,74.07L65.62,74.93L65.62,74.95L65.85,75.83L66.22,76.68L66.70,77.47L66.92,77.77L67.50,78.37L67.52,78.39L67.77,78.57"/><path style="stroke:#000000;stroke-width:0.088" d="M67.10,78.10L66.57,77.54L66.11,76.86L65.75,76.11L65.51,75.36"/><path style="stroke:#000000;stroke-width:0.088" d="M65.82,73.24L65.65,74.13L65.75,75.20L65.84,75.54L66.25,76.61L66.78,77.47L67.49,78.26L68.23,78.75"/><path style="stroke:#000000;stroke-width:0.088" d="M65.51,75.38L65.40,74.64L65.44,73.98"/><path style="stroke:#000000;stroke-width:0.088" d="M65.38,73.42L65.21,73.59L65.44,73.34L66.04,73.18L66.77,73.33L67.46,73.74"/><path style="stroke:#000000;stroke-width:0.088" d="M65.40,73.41L65.12,73.71"/><path style="stroke:#000000;stroke-width:0.088" d="M65.44,74.00L65.61,73.48"/><path style="stroke:#000000;stroke-width:0.088" d="M65.59,73.50L65.78,73.25"/><path style="stroke:#000000;stroke-width:0.088" d="M65.63,73.29L65.39,73.41"/><path style="stroke:#000000;stroke-width:0.088" d="M67.35,72.32L66.69,72.18L66.63,72.18L65.98,72.27L65.92,72.29L65.42,72.58L65.38,72.62L65.37,72.63"/><path style="stroke:#000000;stroke-width:0.088" d="M65.57,72.54L65.62,72.52L65.67,72.51L66.30,72.48L66.35,72.49L67.02,72.68L67.06,72.69L67.75,73.08L68.44,73.67L69.03,74.36L69.52,75.15L69.89,75.98L70.11,76.81L70.11,76.84L70.17,77.62"/><path style="stroke:#000000;stroke-width:0.088" d="M67.36,78.89L66.98,78.71L66.43,78.25L66.44,78.25"/><path style="stroke:#000000;stroke-width:0.088" d="M66.21,78.07L66.21,78.07"/><path style="stroke:#000000;stroke-width:0.088" d="M66.36,75.01L66.63,75.89L67.00,76.64L67.46,77.30L67.96,77.84"/><path style="stroke:#000000;stroke-width:0.088" d="M66.36,75.03L66.26,74.27L66.30,73.59"/><path style="stroke:#000000;stroke-width:0.088" d="M66.29,73.61L66.40,73.25"/><path style="stroke:#000000;stroke-width:0.088" d="M66.27,73.23L66.77,73.33"/><path style="stroke:#000000;stroke-width:0.088" d="M66.11,73.19L65.97,73.20"/><path style="stroke:#000000;stroke-width:0.088" d="M67.20,71.64L66.92,71.72L66.87,71.74L66.34,72.06L66.30,72.09L66.18,72.24"/><path style="stroke:#000000;stroke-width:0.088" d="M67.41,78.92L67.65,79.04L68.37,79.10L68.41,79.08"/><path style="stroke:#000000;stroke-width:0.088" d="M66.89,78.66L66.89,78.66"/><path style="stroke:#000000;stroke-width:0.088" d="M68.15,78.74L67.63,78.51L67.08,78.09"/><path style="stroke:#000000;stroke-width:0.088" d="M66.78,73.34L66.76,73.58L66.89,74.48L67.13,75.31L67.53,76.16L68.03,76.92L68.59,77.56L68.62,77.58L69.23,78.06L69.38,78.13"/><path style="stroke:#000000;stroke-width:0.088" d="M66.90,73.41L66.89,73.96L67.07,74.91L67.51,76.00L68.14,76.96L68.36,77.21L69.10,77.86L69.40,78.00"/><path style="stroke:#000000;stroke-width:0.088" d="M66.78,72.20L66.80,72.19L67.02,72.13L67.85,72.17L68.74,72.54L69.49,73.11L70.25,73.96L70.45,74.26L70.98,75.28L71.26,76.29L71.28,77.07L71.06,77.75L70.95,77.91L70.53,78.15"/><path style="stroke:#000000;stroke-width:0.088" d="M68.08,72.67L67.39,72.33L67.35,72.32"/><path style="stroke:#000000;stroke-width:0.088" d="M67.41,72.34L67.53,72.32"/><path style="stroke:#000000;stroke-width:0.088" d="M67.32,71.63L67.65,71.28L67.69,71.24L68.18,71.00"/><path style="stroke:#000000;stroke-width:0.088" d="M67.92,71.63L67.25,71.63L67.20,71.64"/><path style="stroke:#000000;stroke-width:0.088" d="M67.65,79.04L67.65,79.04"/><path style="stroke:#000000;stroke-width:0.088" d="M67.73,79.05L67.61,79.02"/><path style="stroke:#000000;stroke-width:0.088" d="M68.14,78.74L68.59,78.80"/><path style="stroke:#000000;stroke-width:0.088" d="M68.90,78.39L68.48,78.21L67.95,77.83L67.95,77.83"/><path style="stroke:#000000;stroke-width:0.088" d="M69.08,77.04L68.58,76.48L68.13,75.79L67.78,75.03L67.56,74.26"/><path style="stroke:#000000;stroke-width:0.088" d="M67.45,73.73L68.18,74.43L68.18,74.42"/><path style="stroke:#000000;stroke-width:0.088" d="M67.50,73.79L67.56,74.28L67.56,74.28"/><path style="stroke:#000000;stroke-width:0.088" d="M68.18,74.43L68.81,75.33L69.27,76.37L69.49,77.22L69.54,77.45L69.55,77.47L69.56,77.48"/><path style="stroke:#000000;stroke-width:0.088" d="M68.23,74.50L68.09,74.34"/><path style="stroke:#000000;stroke-width:0.088" d="M67.42,73.71L67.62,73.89"/><path style="stroke:#000000;stroke-width:0.088" d="M68.12,72.70L68.12,72.40"/><path style="stroke:#000000;stroke-width:0.088" d="M70.15,77.30L70.17,77.31L70.28,77.33L70.40,77.33L70.51,77.30L70.60,77.26L70.65,77.20L70.68,77.14L70.68,77.11L70.58,76.34L70.57,76.31L70.31,75.47L69.91,74.65L69.38,73.86L68.77,73.20L68.75,73.19L68.08,72.67"/><path style="stroke:#000000;stroke-width:0.088" d="M67.98,72.62L68.01,72.37"/><path style="stroke:#000000;stroke-width:0.088" d="M67.65,72.46L67.71,72.34"/><path style="stroke:#000000;stroke-width:0.088" d="M69.45,73.18L68.85,72.73L68.63,72.60L68.01,72.36L68.02,72.36"/><path style="stroke:#000000;stroke-width:0.088" d="M68.05,72.38L67.47,72.31L67.47,72.31"/><path style="stroke:#000000;stroke-width:0.088" d="M71.75,77.44L71.93,77.40L72.30,77.01L72.50,76.30L72.43,75.37L72.36,75.07L71.95,74.05L71.41,73.20L70.63,72.34L69.76,71.73L69.48,71.60L68.63,71.40L67.96,71.51L67.80,71.63"/><path style="stroke:#000000;stroke-width:0.088" d="M71.76,75.61L71.46,74.78L71.03,73.97L70.73,73.54L70.13,72.85L69.43,72.26L68.72,71.86L68.68,71.84L67.97,71.63L67.92,71.63"/><path style="stroke:#000000;stroke-width:0.088" d="M68.24,70.98L68.19,71.00"/><path style="stroke:#000000;stroke-width:0.088" d="M69.22,79.37L68.68,79.51L68.63,79.52L68.61,79.51"/><path style="stroke:#000000;stroke-width:0.088" d="M68.96,78.83L69.06,78.89L69.13,78.97L69.18,79.06L69.20,79.16"/><path style="stroke:#000000;stroke-width:0.088" d="M68.89,78.39L68.89,78.39L69.23,78.43"/><path style="stroke:#000000;stroke-width:0.088" d="M69.20,78.49L68.88,78.76"/><path style="stroke:#000000;stroke-width:0.088" d="M68.94,78.71L68.54,78.81L68.54,78.81"/><path style="stroke:#000000;stroke-width:0.088" d="M68.40,74.74L68.42,74.78L68.83,75.61L69.12,76.03"/><path style="stroke:#000000;stroke-width:0.088" d="M68.99,75.73L68.70,75.19"/><path style="stroke:#000000;stroke-width:0.088" d="M68.83,75.38L68.43,74.79"/><path style="stroke:#000000;stroke-width:0.088" d="M68.72,73.16L68.71,73.13L68.70,72.64"/><path style="stroke:#000000;stroke-width:0.088" d="M68.90,71.64L68.91,71.62L68.82,71.91"/><path style="stroke:#000000;stroke-width:0.088" d="M68.31,71.73L68.48,71.66"/><path style="stroke:#000000;stroke-width:0.088" d="M68.43,71.66L68.96,71.62"/><path style="stroke:#000000;stroke-width:0.088" d="M68.93,71.61L69.51,71.75"/><path style="stroke:#000000;stroke-width:0.088" d="M72.53,71.42L71.84,70.85L71.13,70.45L70.77,70.31L70.08,70.21L70.03,70.20L69.98,70.21L69.34,70.32L69.29,70.34L68.83,70.61L68.78,70.64L68.53,70.95"/><path style="stroke:#000000;stroke-width:0.088" d="M69.68,71.06L68.99,70.91L68.94,70.91L68.29,70.97L68.24,70.98"/><path style="stroke:#000000;stroke-width:0.088" d="M70.36,78.55L70.00,78.92L69.96,78.95L69.90,78.97L69.59,79.08"/><path style="stroke:#000000;stroke-width:0.088" d="M70.17,77.62L70.06,78.34L69.77,78.92L69.73,78.96L69.32,79.31L69.28,79.34L69.22,79.36"/><path style="stroke:#000000;stroke-width:0.088" d="M69.41,76.93L69.46,77.59L69.37,78.17"/><path style="stroke:#000000;stroke-width:0.088" d="M69.19,78.51L69.18,78.51L69.38,78.12"/><path style="stroke:#000000;stroke-width:0.088" d="M69.44,77.33L69.06,77.03"/><path style="stroke:#000000;stroke-width:0.088" d="M69.35,76.66L69.35,76.66"/><path style="stroke:#000000;stroke-width:0.088" d="M69.21,76.22L69.41,76.95"/><path style="stroke:#000000;stroke-width:0.088" d="M69.27,76.37L69.27,76.35"/><path style="stroke:#000000;stroke-width:0.088" d="M71.15,76.25L70.76,75.88L70.22,75.18L69.76,74.37L69.43,73.51L69.34,73.10"/><path style="stroke:#000000;stroke-width:0.088" d="M71.14,76.14L70.46,75.41L69.86,74.43L69.70,74.07L69.43,73.17"/><path style="stroke:#000000;stroke-width:0.088" d="M71.10,75.90L70.86,75.17L70.49,74.44L70.01,73.77L69.44,73.17L69.44,73.17"/><path style="stroke:#000000;stroke-width:0.088" d="M69.32,72.20L69.30,71.92L69.23,71.86L69.20,71.80L69.22,72.14"/><path style="stroke:#000000;stroke-width:0.088" d="M69.82,71.90L69.78,71.93L69.68,71.96L69.57,71.98L69.52,71.98L69.41,71.96L69.31,71.92L69.30,71.92L69.34,71.71"/><path style="stroke:#000000;stroke-width:0.088" d="M69.21,71.73L69.21,71.68L69.21,71.73L69.20,71.79"/><path style="stroke:#000000;stroke-width:0.088" d="M69.49,71.74L70.03,72.00L70.64,72.45"/><path style="stroke:#000000;stroke-width:0.088" d="M68.97,70.91L69.03,70.88L69.78,70.70L70.64,70.88L71.41,71.29L72.24,72.02L72.47,72.29L73.12,73.27"/><path style="stroke:#000000;stroke-width:0.088" d="M71.83,77.74L71.88,77.73L72.36,77.55L72.41,77.53L72.46,77.50L72.81,77.12L72.84,77.07L72.88,77.00L72.91,76.95L73.08,76.38L73.09,76.33L73.10,75.62L72.94,74.81L72.64,73.99L72.19,73.18L71.62,72.44L70.95,71.79L70.25,71.31L69.73,71.08L69.69,71.06"/><path style="stroke:#000000;stroke-width:0.088" d="M69.51,71.02L69.54,71.01"/><path style="stroke:#000000;stroke-width:0.088" d="M69.98,70.91L69.51,71.01L69.51,71.01"/><path style="stroke:#000000;stroke-width:0.088" d="M69.68,70.26L70.05,69.89L70.09,69.85L70.70,69.61L70.75,69.60L71.39,69.60L71.44,69.60L72.11,69.82L72.15,69.83L72.84,70.24L73.51,70.83"/><path style="stroke:#000000;stroke-width:0.088" d="M70.63,78.44L70.43,78.43"/><path style="stroke:#000000;stroke-width:0.088" d="M70.36,78.55L70.39,78.51L70.42,78.46L70.63,77.91L70.64,77.86L70.68,77.14"/><path style="stroke:#000000;stroke-width:0.088" d="M69.98,72.72L69.93,72.50L69.91,71.95"/><path style="stroke:#000000;stroke-width:0.088" d="M70.50,72.38L70.73,73.13L71.08,73.88L71.54,74.58L72.06,75.16"/><path style="stroke:#000000;stroke-width:0.088" d="M70.51,72.39L70.50,72.35"/><path style="stroke:#000000;stroke-width:0.088" d="M70.44,71.44L70.47,71.04"/><path style="stroke:#000000;stroke-width:0.088" d="M69.99,71.19L69.99,71.20"/><path style="stroke:#000000;stroke-width:0.088" d="M70.11,70.93L69.99,71.19L69.99,71.19"/><path style="stroke:#000000;stroke-width:0.088" d="M70.83,71.09L70.51,70.98L69.92,70.91"/><path style="stroke:#000000;stroke-width:0.088" d="M70.49,70.98L70.46,71.05"/><path style="stroke:#000000;stroke-width:0.088" d="M74.23,75.98L74.24,75.96L74.53,75.28L74.56,74.39L74.53,74.14L74.22,73.10L73.68,72.07L72.96,71.17L72.13,70.50L71.29,70.13L70.51,70.10L70.25,70.23"/><path style="stroke:#000000;stroke-width:0.088" d="M72.40,69.45L72.84,69.68L72.34,69.41L72.24,69.38L72.08,69.34L71.76,69.29L71.71,69.28L71.10,69.34L71.04,69.35L70.99,69.38L70.48,69.65L70.43,69.69L70.40,69.73"/><path style="stroke:#000000;stroke-width:0.088" d="M70.63,78.44L70.68,78.43L71.16,78.25L71.21,78.22L71.25,78.19L71.60,77.80L71.64,77.76L71.66,77.71L71.85,77.15L71.86,77.10L71.89,76.41L71.75,75.60"/><path style="stroke:#000000;stroke-width:0.088" d="M70.98,77.45L70.67,77.32"/><path style="stroke:#000000;stroke-width:0.088" d="M70.66,77.47L70.88,77.56"/><path style="stroke:#000000;stroke-width:0.088" d="M71.16,77.01L71.00,77.46"/><path style="stroke:#000000;stroke-width:0.088" d="M71.02,77.41L70.77,77.67"/><path style="stroke:#000000;stroke-width:0.088" d="M70.65,77.69L70.80,77.63"/><path style="stroke:#000000;stroke-width:0.088" d="M71.16,77.04L71.19,76.45L71.10,75.89"/><path style="stroke:#000000;stroke-width:0.088" d="M70.96,76.84L71.16,76.91"/><path style="stroke:#000000;stroke-width:0.088" d="M70.61,76.59L71.00,76.85"/><path style="stroke:#000000;stroke-width:0.088" d="M70.82,73.32L70.92,73.28L70.96,73.37L71.37,74.06L72.07,74.87L72.25,75.00"/><path style="stroke:#000000;stroke-width:0.088" d="M70.91,73.28L70.81,73.31"/><path style="stroke:#000000;stroke-width:0.088" d="M70.63,72.44L71.19,73.02L71.42,73.32L71.87,74.03L72.19,74.76L72.37,75.47"/><path style="stroke:#000000;stroke-width:0.088" d="M73.57,74.68L73.37,73.97L73.03,73.23L72.58,72.54L72.03,71.92L71.45,71.43L70.82,71.08"/><path style="stroke:#000000;stroke-width:0.088" d="M71.29,70.30L71.84,70.47"/><path style="stroke:#000000;stroke-width:0.088" d="M70.82,70.33L70.83,70.31L70.80,70.32"/><path style="stroke:#000000;stroke-width:0.088" d="M70.83,70.31L70.84,70.31"/><path style="stroke:#000000;stroke-width:0.088" d="M71.30,70.30L70.81,70.31"/><path style="stroke:#000000;stroke-width:0.088" d="M71.65,77.73L71.82,77.74"/><path style="stroke:#000000;stroke-width:0.088" d="M71.88,76.64L71.95,76.68L72.19,76.74"/><path style="stroke:#000000;stroke-width:0.088" d="M71.88,76.76L72.00,76.84L72.04,76.86L72.09,76.87"/><path style="stroke:#000000;stroke-width:0.088" d="M72.13,76.84L71.87,77.01"/><path style="stroke:#000000;stroke-width:0.088" d="M71.87,77.00L71.88,77.00"/><path style="stroke:#000000;stroke-width:0.088" d="M71.77,75.72L71.94,75.88L72.39,76.12"/><path style="stroke:#000000;stroke-width:0.088" d="M71.89,76.41L71.89,76.39"/><path style="stroke:#000000;stroke-width:0.088" d="M71.89,76.40L71.87,76.30"/><path style="stroke:#000000;stroke-width:0.088" d="M72.29,76.19L71.80,75.89"/><path style="stroke:#000000;stroke-width:0.088" d="M72.02,76.02L71.80,75.85"/><path style="stroke:#000000;stroke-width:0.088" d="M72.05,75.15L72.35,75.38"/><path style="stroke:#000000;stroke-width:0.088" d="M71.83,70.46L72.42,70.81L72.98,71.30L73.51,71.93L73.94,72.64L74.26,73.38L74.44,74.12"/><path style="stroke:#000000;stroke-width:0.088" d="M72.40,76.07L72.31,76.55L72.31,76.55"/><path style="stroke:#000000;stroke-width:0.088" d="M72.10,76.88L72.31,76.53"/><path style="stroke:#000000;stroke-width:0.088" d="M72.37,75.45L72.40,76.07"/><path style="stroke:#000000;stroke-width:0.088" d="M72.26,76.18L72.37,76.22"/><path style="stroke:#000000;stroke-width:0.088" d="M72.55,71.43L73.15,72.12L73.66,72.90L74.03,73.72L74.26,74.52L74.27,74.56L74.33,75.31L74.22,75.99L74.17,76.14L74.15,76.18L73.85,76.63L73.82,76.68L73.77,76.71L73.34,76.97L73.29,76.99L73.23,77.00L72.87,77.02"/><path style="stroke:#000000;stroke-width:0.088" d="M72.33,69.41L72.33,69.41"/><path style="stroke:#000000;stroke-width:0.088" d="M72.40,69.45L72.66,69.59"/><path style="stroke:#000000;stroke-width:0.088" d="M73.12,73.27L73.55,74.30L73.72,75.15L73.65,75.97L73.58,76.17L73.19,76.67L72.97,76.73"/><path style="stroke:#000000;stroke-width:0.088" d="M73.57,74.66L73.62,75.30L73.54,75.84"/><path style="stroke:#000000;stroke-width:0.088" d="M73.51,75.88L73.54,75.79"/><path style="stroke:#000000;stroke-width:0.088" d="M73.52,75.85L73.30,76.20"/><path style="stroke:#000000;stroke-width:0.088" d="M73.09,76.30L73.33,76.15"/><path style="stroke:#000000;stroke-width:0.088" d="M73.11,75.83L73.49,75.89"/><path style="stroke:#000000;stroke-width:0.088" d="M73.10,75.82L73.12,75.83"/><path style="stroke:#000000;stroke-width:0.088" d="M73.56,75.70L73.08,75.52"/><path style="stroke:#000000;stroke-width:0.088" d="M73.09,75.56L73.10,75.62L72.98,75.00"/><path style="stroke:#000000;stroke-width:0.088" d="M72.94,74.81L72.95,74.81"/><path style="stroke:#000000;stroke-width:0.088" d="M73.51,70.83L74.10,71.54L74.58,72.33L74.93,73.17L75.14,74.02L75.18,74.81L75.05,75.51L75.03,75.56L74.75,76.07L74.71,76.11L74.25,76.46"/><path style="stroke:#000000;stroke-width:0.088" d="M73.08,69.80L72.84,69.68L73.19,69.87L73.17,69.85"/><path style="stroke:#000000;stroke-width:0.088" d="M74.02,70.62L73.19,69.87"/><path style="stroke:#000000;stroke-width:0.088" d="M73.90,76.56L74.18,76.50"/><path style="stroke:#000000;stroke-width:0.088" d="M74.24,76.47L74.18,76.50"/><path style="stroke:#000000;stroke-width:0.088" d="M74.47,74.77L74.38,75.29L74.38,75.28"/><path style="stroke:#000000;stroke-width:0.088" d="M74.32,75.38L74.38,75.28"/><path style="stroke:#000000;stroke-width:0.088" d="M75.36,75.51L75.46,75.19L75.58,74.67L75.52,73.65L75.21,72.54L74.73,71.59L74.02,70.61"/><path style="stroke:#000000;stroke-width:0.088" d="M74.58,76.21L74.75,76.15L74.96,76.03L75.36,75.52"/><path style="stroke:#000000;stroke-width:0.088" d="M74.47,74.77L74.43,74.10"/><path style="stroke:#000000;stroke-width:0.088" d="M75.58,74.67L75.58,74.67"/><path style="stroke:#000000;stroke-width:0.088" d="M51.92,83.75L51.74,83.34L51.48,82.13L51.54,81.07L51.91,80.26L52.54,79.80L53.04,79.51L53.86,79.45L54.80,79.78L55.74,80.49L56.59,81.48L57.24,82.65L57.64,83.87L57.75,84.82L57.74,85.02L57.53,85.97L57.03,86.61L56.52,86.90L55.79,87.17L54.89,87.03L53.94,86.51L53.04,85.65L52.27,84.55L51.92,83.75"/><path style="stroke:#000000;stroke-width:0.088" d="M52.54,79.80L53.36,79.74L54.30,80.07L55.24,80.78L56.08,81.77L56.57,82.63L56.74,82.94L57.14,84.16L57.25,85.11L57.24,85.31L57.03,86.26L56.52,86.90"/><path style="stroke:#000000;stroke-width:0.088" d="M53.47,83.45L53.43,83.35L53.35,82.94L53.35,82.86L53.39,82.58L53.53,82.31L53.76,82.17L54.05,82.16L54.38,82.30L54.70,82.56L54.99,82.91L55.21,83.32L55.34,83.75L55.36,84.14L55.27,84.46L55.08,84.67L54.82,84.74L54.50,84.68L54.17,84.48L53.86,84.17L53.60,83.78L53.47,83.45"/><path style="stroke:#000000;stroke-width:0.088" d="M55.35,83.98L55.28,84.22L55.12,84.40L54.90,84.46L54.63,84.40L54.35,84.23L54.09,83.97L53.87,83.64L53.72,83.28L53.66,82.93L53.65,82.86L53.68,82.62L53.80,82.39L54.00,82.27L54.25,82.27L54.44,82.35"/><path style="stroke:#000000;stroke-width:0.088" d="M54.61,79.72L54.73,79.64L55.00,79.51L55.64,79.47L56.37,79.75L57.09,80.31L57.73,81.09L58.00,81.53L58.50,81.71L58.50,84.16L58.00,84.93L57.73,85.08"/><path style="stroke:#000000;stroke-width:0.088" d="M55.64,79.47L56.23,79.50L56.87,79.75L57.51,80.24L58.08,80.93L58.50,81.71"/><path style="stroke:#000000;stroke-width:0.088" d="M56.95,82.13L58.00,81.53"/><path style="stroke:#000000;stroke-width:0.088" d="M67.25,34.70L74.74,39.02L74.74,52.07L67.25,47.75L67.25,34.70L72.28,28.90L76.05,26.72L81.02,29.59L83.53,28.14L78.56,25.27L79.04,24.99L75.94,26.78"/><path style="stroke:#000000;stroke-width:0.088" d="M74.74,52.07L80.01,49.03L80.01,60.63L72.53,56.31L72.53,50.80"/><path style="stroke:#000000;stroke-width:0.088" d="M74.74,39.02L79.76,33.22L90.26,27.16L87.21,27.01L85.28,27.38L83.53,28.14"/><path style="stroke:#000000;stroke-width:0.088" d="M76.05,26.72L76.72,26.34"/><path style="stroke:#000000;stroke-width:0.088" d="M78.27,25.44L78.56,25.27"/><path style="stroke:#000000;stroke-width:0.088" d="M80.08,24.40L79.82,24.55L80.59,24.10L79.04,24.99L79.42,24.78"/><path style="stroke:#000000;stroke-width:0.088" d="M80.01,60.63L86.54,56.86L86.54,96.01L79.06,91.69L79.06,60.08"/><path style="stroke:#000000;stroke-width:0.088" d="M79.82,87.88L79.80,87.62L80.04,86.65L80.59,86.00L81.37,85.76L82.31,85.92L83.30,86.50L84.24,87.41L85.02,88.57L85.56,89.84L85.81,91.09L85.72,92.19L85.32,93.00L84.65,93.46L83.78,93.50L82.80,93.12L81.82,92.37L80.95,91.32L80.28,90.09L79.88,88.81L79.82,87.88"/><path style="stroke:#000000;stroke-width:0.088" d="M79.81,64.95L79.80,65.00L79.88,66.19L80.28,67.47L80.95,68.70L81.82,69.75L82.80,70.50L83.78,70.88L84.65,70.84L85.32,70.38L85.72,69.56L85.81,68.47L85.56,67.22L85.02,65.95L84.24,64.79L83.30,63.88L82.31,63.30L81.37,63.13L80.59,63.38L80.57,63.40L80.04,64.03L79.81,64.95"/><path style="stroke:#000000;stroke-width:0.088" d="M79.76,33.22L81.02,29.59"/><path style="stroke:#000000;stroke-width:0.088" d="M80.59,24.10L82.14,23.20L81.37,23.65"/><path style="stroke:#000000;stroke-width:0.088" d="M82.14,23.20L82.77,22.84L83.58,22.87L86.18,23.67L93.67,27.99L91.06,27.19L90.26,27.16"/><path style="stroke:#000000;stroke-width:0.088" d="M83.74,86.93L84.05,87.92L84.72,89.15L85.59,90.20L85.64,90.23"/><path style="stroke:#000000;stroke-width:0.088" d="M85.64,67.61L85.59,67.57L84.72,66.52L84.05,65.29L83.74,64.30"/><path style="stroke:#000000;stroke-width:0.088" d="M86.54,96.01L95.84,90.64L95.84,62.22L96.86,66.27L96.99,67.28L96.99,91.31L95.84,90.64"/><path style="stroke:#000000;stroke-width:0.088" d="M88.18,86.06L87.94,85.92L87.79,85.67L87.74,85.32L88.80,85.93L88.47,86.06L88.18,86.06"/><path style="stroke:#000000;stroke-width:0.088" d="M87.74,85.32L87.79,84.91L87.94,84.47L88.18,84.06L88.47,83.72L88.80,83.47L90.81,82.31L91.14,82.18L91.44,82.18L91.68,82.32L91.83,82.57L91.88,82.92L91.83,83.33L91.68,83.77L91.44,84.17L91.14,84.52L90.81,84.77L88.80,85.93"/><path style="stroke:#000000;stroke-width:0.088" d="M88.34,75.04L88.18,75.04L87.94,74.90L87.79,74.65L87.74,74.29L88.80,74.91L88.47,75.04L88.34,75.04"/><path style="stroke:#000000;stroke-width:0.088" d="M87.74,74.29L87.79,73.88L87.94,73.45L88.18,73.04L88.47,72.70L88.80,72.45L90.81,71.29L91.14,71.16L91.44,71.16L91.68,71.30L91.83,71.55L91.88,71.91L91.83,72.31L91.68,72.74L91.44,73.16L91.14,73.50L90.81,73.75L88.70,72.53"/><path style="stroke:#000000;stroke-width:0.088" d="M90.81,84.77L88.70,83.55"/><path style="stroke:#000000;stroke-width:0.088" d="M88.80,74.91L90.81,73.75"/><path style="stroke:#000000;stroke-width:0.088" d="M93.67,27.99L95.66,29.84L96.92,32.61L97.34,36.12L97.34,61.35L95.84,62.22"/><path style="stroke:#000000;stroke-width:0.088" d="M96.86,66.27L98.37,65.40L97.34,61.35"/><path style="stroke:#000000;stroke-width:0.088" d="M96.99,91.31L98.50,90.44L98.50,66.41L96.99,67.28"/><path style="stroke:#000000;stroke-width:0.088" d="M98.50,66.41L98.37,65.40"/><path style="stroke:#000000;stroke-width:0.088" d="M116.93,88.90L116.93,88.83L116.89,88.47L116.75,88.20L116.52,88.06L108.02,83.14L107.73,83.12L107.40,83.23L107.28,83.31L106.99,83.52L106.73,83.82L106.53,84.18L106.50,84.28L106.41,84.55L106.38,84.90L106.38,85.06L106.45,85.38L106.63,85.61L115.20,90.56L115.46,90.63L115.78,90.57L115.92,90.49L115.65,90.54L115.41,90.48L115.25,90.30L115.22,90.18L115.17,90.02L115.19,89.67L115.30,89.30L115.49,88.94L115.75,88.63L116.03,88.40L116.32,88.29L116.57,88.29L116.77,88.42L116.90,88.65L116.93,88.90L116.93,88.96L116.86,89.33L116.71,89.70L116.48,90.04L116.21,90.31L115.92,90.49"/><path style="stroke:#000000;stroke-width:0.088" d="M106.38,85.05L106.41,84.66L106.55,84.23L106.78,83.82L107.08,83.48L107.40,83.23"/><path style="stroke:#000000;stroke-width:0.088" d="M115.20,90.56L115.01,90.35L114.92,90.03L114.92,89.92L114.94,89.64L115.07,89.21L115.23,88.92L115.29,88.80L115.58,88.45L115.90,88.19L116.23,88.05L116.52,88.06"/><path style="stroke:#000000;stroke-width:0.088" d="M116.01,88.72L116.14,88.67L116.29,88.68L116.41,88.77L116.47,88.91L116.49,89.11L116.44,89.33L116.34,89.56L116.20,89.76L116.03,89.92L115.95,89.97L115.86,90.02L115.69,90.04L115.55,89.99L115.46,89.87L115.43,89.72"/><path style="stroke:#000000;stroke-width:0.088" d="M115.45,89.94L115.47,90.02L115.58,90.16L115.74,90.22L115.93,90.19L116.14,90.07L116.34,89.89L116.50,89.65L116.62,89.38L116.67,89.12L116.66,88.89L116.58,88.72L116.44,88.62L116.26,88.60L116.06,88.68L115.86,88.83L115.67,89.04L115.53,89.30L115.44,89.56L115.42,89.77L115.42,89.81L115.45,89.94"/><path style="stroke:#000000;stroke-width:0.088" d="M106.94,96.81L106.63,96.63L106.45,96.41L106.38,96.08L106.38,95.92L106.41,95.57L106.53,95.20L106.73,94.84L106.94,94.60L106.99,94.54L107.28,94.33L107.40,94.25L107.73,94.14L108.02,94.16L116.52,99.08L116.23,99.07L115.90,99.21L115.58,99.47L115.29,99.82L115.07,100.23L114.94,100.66L114.92,100.94L114.92,101.05L115.01,101.37L115.20,101.58L106.94,96.81"/><path style="stroke:#000000;stroke-width:0.088" d="M106.38,96.08L106.41,95.68L106.55,95.25L106.75,94.89L106.78,94.84L107.08,94.50L107.40,94.25"/><path style="stroke:#000000;stroke-width:0.088" d="M115.41,101.50L115.25,101.32L115.17,101.04L115.19,100.70L115.30,100.32L115.49,99.96L115.75,99.65L116.03,99.42L116.24,99.34L116.32,99.31L116.57,99.31L116.77,99.44L116.90,99.67L116.93,99.92L116.93,99.98L116.86,100.35L116.71,100.72L116.48,101.06L116.21,101.33L115.92,101.51L115.65,101.56L115.41,101.50"/><path style="stroke:#000000;stroke-width:0.088" d="M115.20,101.58L115.46,101.65L115.78,101.59L115.92,101.51"/><path style="stroke:#000000;stroke-width:0.088" d="M116.01,99.74L116.14,99.69L116.29,99.70L116.41,99.79L116.47,99.94L116.49,100.13L116.47,100.19L116.44,100.35L116.34,100.58L116.20,100.78L116.03,100.94L115.95,100.99L115.86,101.04L115.69,101.06L115.55,101.01L115.46,100.90L115.43,100.74"/><path style="stroke:#000000;stroke-width:0.088" d="M115.45,100.96L115.47,101.04L115.58,101.18L115.74,101.24L115.93,101.21L116.14,101.09L116.34,100.91L116.50,100.67L116.62,100.41L116.67,100.14L116.66,99.91L116.58,99.74L116.44,99.64L116.26,99.62L116.06,99.70L115.86,99.85L115.67,100.06L115.53,100.32L115.44,100.59L115.42,100.79L115.42,100.84L115.45,100.96"/><path style="stroke:#000000;stroke-width:0.088" d="M116.52,99.08L116.75,99.22L116.89,99.49L116.93,99.85L116.93,99.92"/><path style="stroke:#000000;stroke-width:0.088" d="M56.52,109.52L55.79,109.79L54.89,109.65L53.94,109.13L53.04,108.27L52.27,107.17L51.74,105.96L51.48,104.75L51.54,103.69L51.91,102.89L52.54,102.43L53.04,102.14L53.86,102.07L54.80,102.41L55.74,103.11L56.59,104.10L56.74,104.38L57.24,105.27L57.64,106.50L57.75,107.44L57.74,107.65L57.53,108.59L57.03,109.23L56.52,109.52L57.03,108.88L57.24,107.94L57.25,107.73L57.14,106.79L56.74,105.56L56.57,105.25L56.08,104.39L55.24,103.40L54.30,102.70L53.36,102.36L52.54,102.43"/><path style="stroke:#000000;stroke-width:0.088" d="M53.43,105.97L53.35,105.56L53.35,105.49L53.39,105.20L53.53,104.93L53.76,104.79L54.05,104.78L54.38,104.92L54.70,105.18L54.99,105.53L55.21,105.94L55.34,106.37L55.36,106.76L55.27,107.08L55.08,107.29L54.82,107.36L54.50,107.30L54.17,107.10L53.86,106.79L53.60,106.40L53.43,105.97"/><path style="stroke:#000000;stroke-width:0.088" d="M55.35,106.60L55.28,106.84L55.12,107.02L54.90,107.08L54.63,107.03L54.35,106.86L54.09,106.59L53.87,106.26L53.72,105.90L53.66,105.55L53.65,105.49L53.68,105.24L53.80,105.02L54.00,104.89L54.25,104.89L54.44,104.97"/><path style="stroke:#000000;stroke-width:0.088" d="M54.61,102.34L54.73,102.26L55.00,102.13L55.64,102.09L56.23,102.12L56.87,102.37L57.51,102.86L58.08,103.56L58.50,104.33L58.00,104.15L57.73,103.71L57.09,102.93L56.37,102.37L55.64,102.09"/><path style="stroke:#000000;stroke-width:0.088" d="M56.95,104.75L58.00,104.15"/><path style="stroke:#000000;stroke-width:0.088" d="M58.50,104.33L58.50,106.78L58.00,107.55L57.73,107.70"/><path style="stroke:#000000;stroke-width:0.088" d="M31.83,71.13L31.83,71.82L33.09,72.54L33.09,26.14L31.83,25.41L31.83,71.13"/><path style="stroke:#000000;stroke-width:0.088" d="M31.83,25.41L33.09,23.24L39.82,19.35L40.66,19.03L41.41,19.09L42.67,19.81L41.92,19.76L41.07,20.08L39.82,19.35"/><path style="stroke:#000000;stroke-width:0.088" d="M33.09,72.54L34.34,73.27L48.16,65.29L48.16,44.99L43.54,20.99L43.23,20.24L42.67,19.81"/><path style="stroke:#000000;stroke-width:0.088" d="M33.09,23.24L34.34,23.96L33.09,26.14"/><path style="stroke:#000000;stroke-width:0.088" d="M34.34,23.96L41.07,20.08"/><path style="stroke:#000000;stroke-width:0.088" d="M35.27,66.26L35.22,65.97L35.26,65.61L35.40,65.24L35.60,64.89L35.87,64.59L36.10,64.42L36.15,64.39L36.44,64.30L36.68,64.34L36.86,64.49L36.96,64.75L36.97,65.08L36.88,65.45L36.71,65.82L36.47,66.14L36.19,66.39L35.90,66.54L35.64,66.57L35.42,66.47L35.27,66.26L35.38,66.26L35.60,66.16L35.67,66.12L35.95,65.87L36.19,65.55L36.37,65.18L36.47,64.81L36.46,64.48L36.41,64.31"/><path style="stroke:#000000;stroke-width:0.088" d="M35.27,66.26L35.50,66.06L35.95,65.46L36.28,64.78L36.40,64.32"/><path style="stroke:#000000;stroke-width:0.088" d="M36.40,47.78L36.28,48.25L35.95,48.93L35.50,49.53L35.27,49.72"/><path style="stroke:#000000;stroke-width:0.088" d="M35.27,49.73L35.42,49.94L35.64,50.04L35.90,50.01L36.19,49.86L36.47,49.61L36.71,49.29L36.88,48.92L36.97,48.55L36.96,48.22L36.86,47.96L36.68,47.81L36.44,47.77L36.15,47.86L36.10,47.89L35.87,48.06L35.60,48.35L35.39,48.71L35.26,49.08L35.22,49.43L35.27,49.73L35.38,49.72L35.60,49.63L35.67,49.58L35.95,49.34L36.19,49.02L36.37,48.65L36.47,48.28L36.46,47.95L36.41,47.78"/><path style="stroke:#000000;stroke-width:0.088" d="M36.40,36.76L36.28,37.23L35.95,37.91L35.50,38.51L35.27,38.70"/><path style="stroke:#000000;stroke-width:0.088" d="M35.42,38.92L35.64,39.01L35.90,38.99L36.19,38.84L36.47,38.59L36.71,38.26L36.88,37.90L36.97,37.53L36.96,37.20L36.86,36.94L36.68,36.79L36.44,36.75L36.15,36.84L36.10,36.87L35.87,37.04L35.60,37.33L35.40,37.68L35.26,38.06L35.22,38.41L35.27,38.71L35.42,38.92"/><path style="stroke:#000000;stroke-width:0.088" d="M36.41,36.76L36.46,36.93L36.48,37.09L36.47,37.26L36.37,37.63L36.19,38.00L35.95,38.32L35.67,38.56L35.38,38.70L35.27,38.71"/><path style="stroke:#000000;stroke-width:0.088" d="M42.52,59.54L42.60,59.66L42.85,59.77L43.16,59.74L43.49,59.57L43.81,59.28L44.08,58.91L44.28,58.49L44.38,58.07L44.37,57.69L44.26,57.40L44.05,57.22L43.77,57.18L43.45,57.28L43.38,57.32L43.12,57.51L42.82,57.85L42.58,58.25L42.43,58.68L42.38,59.08L42.44,59.42L42.52,59.54"/><path style="stroke:#000000;stroke-width:0.088" d="M42.43,58.67L42.55,58.56L42.82,58.19L43.02,57.77L43.07,57.56"/><path style="stroke:#000000;stroke-width:0.088" d="M42.62,48.63L42.54,48.58L42.41,48.30L42.38,47.94L42.46,47.52L42.64,47.10L42.91,46.71L43.22,46.41L43.55,46.22L43.86,46.16L44.12,46.24L44.30,46.46L44.39,46.78L44.36,47.18L44.23,47.60L44.00,48.01L43.71,48.36L43.38,48.61L43.06,48.74L42.77,48.73L42.62,48.63"/><path style="stroke:#000000;stroke-width:0.088" d="M42.44,47.65L42.75,47.29L42.97,46.88L43.07,46.55"/><path style="stroke:#000000;stroke-width:0.088" d="M35.29,79.23L35.29,115.48L42.83,119.83L42.83,83.58L46.59,81.40L39.06,77.05L35.29,79.23L42.83,83.58"/><path style="stroke:#000000;stroke-width:0.088" d="M38.49,115.53L38.79,115.86L39.12,116.09L39.44,116.19L39.72,116.15L39.93,115.98L40.05,115.68L40.05,115.31L39.95,114.88L39.76,114.46L39.48,114.09L39.16,113.81L39.06,113.74L38.83,113.64L38.53,113.61L38.28,113.72L38.12,113.95L38.05,114.29L38.10,114.70L38.25,115.13L38.49,115.53"/><path style="stroke:#000000;stroke-width:0.088" d="M40.05,115.30L40.05,115.48L39.95,115.73L39.78,115.88L39.54,115.91L39.26,115.83L38.98,115.63L38.73,115.35L38.53,115.01L38.40,114.64L38.36,114.30L38.41,114.01L38.55,113.81L38.76,113.71L39.02,113.74L39.16,113.81"/><path style="stroke:#000000;stroke-width:0.088" d="M38.49,92.91L38.25,92.50L38.10,92.08L38.05,91.67L38.12,91.33L38.28,91.09L38.53,90.99L38.83,91.02L39.06,91.12L39.16,91.18L39.48,91.47L39.76,91.84L39.95,92.26L40.05,92.68L40.05,93.06L39.93,93.35L39.72,93.53L39.44,93.57L39.12,93.47L38.79,93.24L38.49,92.91"/><path style="stroke:#000000;stroke-width:0.088" d="M40.05,92.68L40.05,92.86L39.95,93.11L39.78,93.26L39.54,93.29L39.26,93.20L38.98,93.01L38.73,92.73L38.70,92.68L38.53,92.38L38.40,92.02L38.36,91.68L38.41,91.39L38.55,91.18L38.76,91.09L39.02,91.12L39.16,91.18"/><path style="stroke:#000000;stroke-width:0.088" d="M42.83,119.83L46.59,117.65L46.59,81.40"/><path style="stroke:#000000;stroke-width:0.088" d="M44.03,113.69L44.05,113.74L44.20,113.88L44.41,113.91L44.65,113.84L44.90,113.68L45.12,113.43L45.30,113.13L45.42,112.81L45.46,112.51L45.42,112.25L45.31,112.06L45.12,111.98L44.90,111.99L44.65,112.11L44.41,112.32L44.20,112.59L44.05,112.91L43.97,113.23L43.97,113.51L44.03,113.69"/><path style="stroke:#000000;stroke-width:0.088" d="M44.62,112.13L44.76,112.07L44.95,112.05L45.10,112.13L45.20,112.29L45.24,112.51L45.22,112.62L45.20,112.77L45.10,113.04L44.94,113.30L44.75,113.50L44.54,113.64L44.34,113.70L44.16,113.67L44.03,113.55L43.97,113.37"/><path style="stroke:#000000;stroke-width:0.088" d="M43.97,96.98L44.05,97.21L44.20,97.34L44.41,97.38L44.65,97.31L44.89,97.15L45.12,96.90L45.30,96.60L45.42,96.28L45.46,95.98L45.45,95.88L45.42,95.72L45.31,95.53L45.12,95.44L44.90,95.46L44.65,95.58L44.41,95.79L44.20,96.06L44.05,96.38L43.97,96.69L43.97,96.98"/><path style="stroke:#000000;stroke-width:0.088" d="M43.97,96.83L44.03,97.02L44.16,97.14L44.34,97.17L44.54,97.11L44.75,96.97L44.94,96.77L45.10,96.51L45.20,96.24L45.24,95.98L45.20,95.76L45.10,95.60"/><path style="stroke:#000000;stroke-width:0.088" d="M43.99,86.02L44.05,86.18L44.20,86.32L44.41,86.36L44.65,86.29L44.89,86.13L45.12,85.88L45.30,85.58L45.42,85.26L45.46,84.95L45.42,84.70L45.31,84.51L45.12,84.42L44.90,84.44L44.65,84.56L44.41,84.77L44.20,85.04L44.05,85.36L43.97,85.67L43.97,85.96L43.99,86.02"/><path style="stroke:#000000;stroke-width:0.088" d="M44.62,84.58L44.76,84.52L44.95,84.50L45.10,84.58L45.20,84.73L45.24,84.95L45.22,85.07L45.20,85.21L45.10,85.49L44.94,85.74L44.86,85.83L44.75,85.95L44.54,86.09L44.34,86.15L44.16,86.12L44.03,86.00L43.97,85.81"/><path style="stroke:#000000;stroke-width:0.088" d="M45.10,95.60L44.95,95.52L44.76,95.54L44.62,95.60"/><path style="stroke:#000000;stroke-width:0.088" d="M129.84,133.76L129.84,134.20L131.10,134.93L131.10,123.18L129.84,122.46L129.84,133.76"/><path style="stroke:#000000;stroke-width:0.088" d="M129.84,122.46L132.35,121.01L133.61,121.73L133.84,121.56L134.05,121.31L134.22,121.02L134.32,120.72L134.36,120.43L134.36,119.41L134.36,118.25L134.32,118.00L134.22,117.82L134.05,117.73L133.84,117.73L133.61,117.82L133.37,117.99L133.16,118.24L133.00,118.53L132.89,118.83L132.85,119.12L132.85,120.43L131.10,121.44L131.10,96.21L129.84,95.48L129.84,120.72L131.10,121.44"/><path style="stroke:#000000;stroke-width:0.088" d="M129.84,95.48L132.35,94.03L132.58,93.86L132.79,93.61L132.96,93.32L133.07,93.02L133.10,92.73L134.36,93.46L134.36,91.28L134.32,91.03L134.22,90.85L134.05,90.76L133.84,90.75L133.61,90.84L134.36,91.28"/><path style="stroke:#000000;stroke-width:0.088" d="M131.10,88.52L131.10,94.47L129.84,93.74L129.84,87.80L131.10,88.52L132.35,86.35L144.11,79.56L144.95,79.24L145.70,79.30L146.26,79.73L146.57,80.47L151.19,104.48L151.19,124.78L132.35,135.65L131.10,134.93"/><path style="stroke:#000000;stroke-width:0.088" d="M129.84,87.80L131.10,85.62L132.35,86.35"/><path style="stroke:#000000;stroke-width:0.088" d="M131.10,123.18L133.61,121.73"/><path style="stroke:#000000;stroke-width:0.088" d="M131.10,96.21L133.61,94.76L133.84,94.58L134.05,94.34L134.22,94.05L134.32,93.74L134.36,93.46"/><path style="stroke:#000000;stroke-width:0.088" d="M131.10,94.47L132.85,93.45L132.85,92.15L132.89,91.86L133.00,91.56L133.16,91.27L133.37,91.02L133.61,90.84"/><path style="stroke:#000000;stroke-width:0.088" d="M131.10,85.62L142.85,78.84L143.70,78.52L144.44,78.58L145.70,79.30"/><path style="stroke:#000000;stroke-width:0.088" d="M132.35,121.01L132.58,120.83L132.79,120.59L132.96,120.30L133.07,119.99L133.10,119.70L134.36,120.43"/><path style="stroke:#000000;stroke-width:0.088" d="M132.35,94.03L133.61,94.76"/><path style="stroke:#000000;stroke-width:0.088" d="M133.10,119.70L133.10,118.34"/><path style="stroke:#000000;stroke-width:0.088" d="M133.10,92.73L133.10,91.37"/><path style="stroke:#000000;stroke-width:0.088" d="M133.61,117.82L134.36,118.25"/><path style="stroke:#000000;stroke-width:0.088" d="M134.17,117.79L134.06,117.73"/><path style="stroke:#000000;stroke-width:0.088" d="M138.71,123.37L138.90,123.19L139.44,122.90L139.94,122.82L140.36,122.97L140.64,123.33L140.76,123.87L140.77,123.98L140.71,124.52L140.48,125.21L140.11,125.87L139.63,126.43L139.10,126.83L138.57,127.02L138.10,126.98L137.75,126.72L137.54,126.27L137.51,125.66L137.65,124.98L137.96,124.30L138.39,123.68L138.71,123.37L138.81,123.35L139.04,123.44L139.15,123.58L139.19,123.63L139.26,123.92L139.23,124.27L139.11,124.64L138.90,125.00L138.65,125.30L138.36,125.51L138.08,125.62L137.82,125.60L137.63,125.46L137.58,125.33"/><path style="stroke:#000000;stroke-width:0.088" d="M137.58,125.31L137.64,125.31L137.88,125.21L137.93,125.18L138.21,124.94L138.46,124.62L138.64,124.26L138.74,123.89L138.75,123.55L138.69,123.39"/><path style="stroke:#000000;stroke-width:0.088" d="M138.71,106.84L138.90,106.66L139.44,106.36L139.94,106.29L140.36,106.44L140.64,106.80L140.76,107.33L140.77,107.45L140.71,107.98L140.48,108.68L140.11,109.34L139.63,109.90L139.10,110.30L138.57,110.49L138.10,110.45L137.75,110.19L137.54,109.73L137.51,109.13L137.65,108.45L137.96,107.77L138.39,107.15L138.71,106.84L138.81,106.82L139.04,106.90L139.15,107.05L139.19,107.10L139.26,107.39L139.23,107.74L139.14,108.02L139.11,108.11L138.90,108.47L138.65,108.77L138.36,108.98L138.08,109.08L137.82,109.06L137.63,108.92L137.58,108.80"/><path style="stroke:#000000;stroke-width:0.088" d="M138.69,106.86L138.75,107.02L138.74,107.36L138.64,107.73L138.46,108.09L138.21,108.41L137.93,108.65L137.88,108.68L137.64,108.78L137.58,108.78"/><path style="stroke:#000000;stroke-width:0.088" d="M137.66,98.97L137.75,99.17L138.10,99.43L138.57,99.46L139.10,99.27L139.63,98.88L140.11,98.32L140.48,97.66L140.71,96.96L140.77,96.43L140.76,96.31L140.64,95.78L140.36,95.42L139.94,95.27L139.44,95.34L138.90,95.64L138.39,96.12L137.96,96.74L137.65,97.43L137.51,98.11L137.54,98.71L137.66,98.97"/><path style="stroke:#000000;stroke-width:0.088" d="M137.58,97.76L137.64,97.76L137.88,97.66L137.93,97.63L138.21,97.39L138.46,97.07L138.64,96.71L138.74,96.33L138.75,96.00L138.69,95.83"/><path style="stroke:#000000;stroke-width:0.088" d="M138.71,95.82L138.81,95.80L139.04,95.88L139.19,96.08L139.26,96.37L139.23,96.72L139.14,97.00L139.11,97.09L138.90,97.45L138.65,97.75L138.36,97.96L138.08,98.06L137.82,98.04L137.63,97.90L137.58,97.78"/><path style="stroke:#000000;stroke-width:0.088" d="M144.11,79.56L142.85,78.84"/><path style="stroke:#000000;stroke-width:0.088" d="M145.14,119.07L145.23,119.35L145.49,119.60L145.86,119.68L146.28,119.57L146.72,119.29L147.12,118.86L147.45,118.34L147.67,117.77L147.75,117.23L147.69,116.76L147.48,116.43L147.17,116.26L146.77,116.28L146.42,116.42L146.34,116.47L145.91,116.84L145.54,117.32L145.26,117.87L145.11,118.43L145.10,118.94L145.14,119.07"/><path style="stroke:#000000;stroke-width:0.088" d="M146.05,116.71L146.17,116.71L146.33,116.80L146.43,116.97L146.47,117.21L146.42,117.49L146.31,117.79L146.14,118.06L146.10,118.10L145.93,118.28L145.70,118.43L145.49,118.48L145.30,118.44L145.16,118.31L145.15,118.28"/><path style="stroke:#000000;stroke-width:0.088" d="M145.23,117.98L145.27,117.96L145.49,117.75L145.67,117.48L145.79,117.19L145.85,116.91"/><path style="stroke:#000000;stroke-width:0.088" d="M145.49,108.58L145.23,108.33L145.10,107.92L145.11,107.47L145.11,107.41L145.26,106.85L145.54,106.30L145.91,105.81L146.34,105.45L146.42,105.40L146.77,105.26L147.17,105.24L147.48,105.41L147.69,105.74L147.75,106.21L147.67,106.75L147.45,107.31L147.12,107.84L146.72,108.27L146.28,108.55L145.86,108.66L145.49,108.58"/><path style="stroke:#000000;stroke-width:0.088" d="M145.85,105.89L145.79,106.17L145.67,106.46L145.49,106.73L145.27,106.94L145.23,106.96"/><path style="stroke:#000000;stroke-width:0.088" d="M145.15,107.26L145.16,107.29L145.30,107.42L145.49,107.46L145.70,107.41L145.78,107.37L145.93,107.26L146.10,107.08L146.14,107.04L146.31,106.76L146.42,106.47L146.47,106.19L146.43,105.95L146.33,105.77L146.17,105.69L146.05,105.69"/><path style="fill:#ffffff" d="M171.92,97.46L198.33,97.46L198.33,91.81L171.92,91.81z"/><path style="stroke:#35414c;stroke-width:0.255" d="M171.92,97.46L198.33,97.46L198.33,91.81L171.92,91.81z"/><path style="stroke:#35404c;stroke-width:0.250;stroke-opacity:0.00" d="M171.92,97.46L198.33,97.46L198.33,91.81L171.92,91.81z"/><text xml:space="preserve" fill="#333f4b" stroke-width="0" x="172.62" y="95.87" font-size="3.49" opacity="1.00" font-family="Arial" font-weight="bold" font-style="italic">F24623314A</text><path style="fill:#ffffff" d="M171.92,107.49L198.33,107.49L198.33,101.85L171.92,101.85z"/><path style="stroke:#35414c;stroke-width:0.255" d="M171.92,107.49L198.33,107.49L198.33,101.85L171.92,101.85z"/><path style="stroke:#35404c;stroke-width:0.250;stroke-opacity:0.00" d="M171.92,107.49L198.33,107.49L198.33,101.85L171.92,101.85z"/><text xml:space="preserve" fill="#333f4b" stroke-width="0" x="172.62" y="105.91" font-size="3.46" opacity="1.00" font-family="Arial" font-weight="bold" font-style="italic">ML2109</text><path style="fill:#ffffff" d="M171.92,67.61L198.33,67.61L198.33,61.96L171.92,61.96z"/><path style="stroke:#35414c;stroke-width:0.255" d="M171.92,67.61L198.33,67.61L198.33,61.96L171.92,61.96z"/><path style="stroke:#35404c;stroke-width:0.250;stroke-opacity:0.00" d="M171.92,67.61L198.33,67.61L198.33,61.96L171.92,61.96z"/><text xml:space="preserve" fill="#333f4b" stroke-width="0" x="172.62" y="66.02" font-size="3.56" opacity="1.00" font-family="Arial" font-weight="bold" font-style="italic">F24623311X</text><path style="fill:#ffffff" d="M171.92,57.57L198.33,57.57L198.33,51.93L171.92,51.93z"/><path style="stroke:#35414c;stroke-width:0.255" d="M171.92,57.57L198.33,57.57L198.33,51.93L171.92,51.93z"/><path style="stroke:#35404c;stroke-width:0.250;stroke-opacity:0.00" d="M171.92,57.57L198.33,57.57L198.33,51.93L171.92,51.93z"/><text xml:space="preserve" fill="#333f4b" stroke-width="0" x="172.62" y="55.98" font-size="3.56" opacity="1.00" font-family="Arial" font-weight="bold" font-style="italic">F21623173X</text><path style="fill:#ffffff" d="M171.92,47.53L198.33,47.53L198.33,41.89L171.92,41.89z"/><path style="stroke:#35414c;stroke-width:0.255" d="M171.92,47.53L198.33,47.53L198.33,41.89L171.92,41.89z"/><path style="stroke:#35404c;stroke-width:0.250;stroke-opacity:0.00" d="M171.92,47.53L198.33,47.53L198.33,41.89L171.92,41.89z"/><text xml:space="preserve" fill="#333f4b" stroke-width="0" x="172.62" y="45.94" font-size="3.56" opacity="1.00" font-family="Arial" font-weight="bold" font-style="italic">F21623153X</text><path style="fill:#ffffff" d="M171.92,77.64L198.33,77.64L198.33,72.00L171.92,72.00z"/><path style="stroke:#35414c;stroke-width:0.255" d="M171.92,77.64L198.33,77.64L198.33,72.00L171.92,72.00z"/><path style="stroke:#35404c;stroke-width:0.250;stroke-opacity:0.00" d="M171.92,77.64L198.33,77.64L198.33,72.00L171.92,72.00z"/><text xml:space="preserve" fill="#333f4b" stroke-width="0" x="172.62" y="76.06" font-size="3.49" opacity="1.00" font-family="Arial" font-weight="bold" font-style="italic">F24623312A</text><path style="fill:#ffffff" d="M171.92,87.42L198.33,87.42L198.33,81.77L171.92,81.77z"/><path style="stroke:#35414c;stroke-width:0.255" d="M171.92,87.42L198.33,87.42L198.33,81.77L171.92,81.77z"/><path style="stroke:#35404c;stroke-width:0.250;stroke-opacity:0.00" d="M171.92,87.42L198.33,87.42L198.33,81.77L171.92,81.77z"/><text xml:space="preserve" fill="#333f4b" stroke-width="0" x="172.62" y="85.83" font-size="3.49" opacity="1.00" font-family="Arial" font-weight="bold" font-style="italic">F24623313A</text><g id="paperID" visibility="hidden" opacity="0.00" transform="scale(0.000100)"><path style="stroke:#000000;stroke-width:0.500;fill:#e6e6e6;fill-rule:evenodd" d="M-2000.00,-2000.00L2210.00,-2000.00L2210.00,2150.00L-2000.00,2150.00zM0.00,0.00L210.00,0.00L210.00,150.00L0.00,150.00z"/><path style="fill:#000000;fill-opacity:0.118" d="M3.00,150.00L210.00,150.00L210.00,3.00L213.00,3.00L213.00,153.00L3.00,153.00z"/></g><g id="hotspot.0" onmouseover="ShowHotSpot(evt,'0')" onmouseout="HideHotSpot(evt,'0')" onmousemove="ShowToolTip(evt,'0',&quot;F21623153&quot;)" opacity="0"><path style="fill:#00ff00;fill-rule:evenodd" d="M198.59,42.32L198.57,47.48L198.29,47.98L171.86,47.91L171.86,42.16L198.32,42.06zM57.24,80.12L58.30,81.44L58.31,84.72L57.90,85.11L57.25,86.57L56.64,87.02L54.57,87.01L52.50,85.12L51.67,83.05L51.66,80.98L52.19,80.19L53.78,79.59L55.90,79.58zM57.26,102.81L58.30,104.15L58.30,107.17L57.50,108.74L56.37,109.73L54.60,109.70L52.76,108.11L51.67,105.77L51.66,103.44L52.12,102.84L52.91,102.31L56.46,102.30z"/></g><g id="hotspot.1" onmouseover="ShowHotSpot(evt,'1')" onmouseout="HideHotSpot(evt,'1')" onmousemove="ShowToolTip(evt,'1',&quot;F21623173&quot;)" opacity="0"><path style="fill:#00ff00;fill-rule:evenodd" d="M198.59,52.36L198.57,57.52L198.29,58.02L171.86,57.95L171.86,52.20L198.32,52.09zM116.97,88.57L116.67,89.99L115.79,90.73L115.11,90.69L106.63,85.68L106.61,84.15L107.41,83.35L107.95,83.27zM115.08,98.35L116.96,99.67L116.96,100.29L116.08,101.55L114.80,101.54L106.63,96.77L106.61,95.25L107.32,94.37L108.22,94.37z"/></g><g id="hotspot.2" onmouseover="ShowHotSpot(evt,'2')" onmouseout="HideHotSpot(evt,'2')" onmousemove="ShowToolTip(evt,'2',&quot;F24623311&quot;)" opacity="0"><path style="fill:#00ff00;fill-rule:evenodd" d="M86.29,23.86L93.69,28.08L95.57,29.90L96.87,32.56L97.38,36.28L97.64,62.70L98.44,65.86L98.47,90.54L97.30,91.25L96.59,91.25L96.06,90.92L95.45,90.93L86.97,95.98L86.29,96.01L79.08,91.83L78.91,60.30L77.04,59.00L72.82,56.61L72.58,51.04L67.46,47.98L67.54,34.52L72.46,28.88L82.75,23.06L83.92,23.06zM198.59,62.40L198.57,67.55L198.29,68.06L171.86,67.99L171.86,62.24L198.32,62.13z"/></g><g id="hotspot.3" onmouseover="ShowHotSpot(evt,'3')" onmouseout="HideHotSpot(evt,'3')" onmousemove="ShowToolTip(evt,'3',&quot;F24623312&quot;)" opacity="0"><path style="fill:#00ff00;fill-rule:evenodd" d="M198.59,72.43L198.57,77.59L198.29,78.10L171.86,78.03L171.86,72.28L198.32,72.17zM46.39,81.46L46.32,117.90L43.14,119.78L42.44,119.78L35.57,115.78L35.57,79.16L39.03,77.21z"/></g><g id="hotspot.4" onmouseover="ShowHotSpot(evt,'4')" onmouseout="HideHotSpot(evt,'4')" onmousemove="ShowToolTip(evt,'4',&quot;F24623313&quot;)" opacity="0"><path style="fill:#00ff00;fill-rule:evenodd" d="M146.00,79.58L146.52,80.38L151.00,103.64L150.92,125.03L132.69,135.63L131.98,135.63L130.14,134.54L130.14,122.48L131.54,121.53L132.21,121.31L132.24,121.04L131.92,121.02L131.54,121.53L130.65,121.35L130.14,121.07L130.05,95.45L131.45,94.66L130.14,94.12L130.15,87.36L131.48,85.52L143.24,78.79L144.68,78.80zM198.59,82.21L198.57,87.36L198.29,87.87L171.86,87.80L171.86,82.05L198.32,81.94zM138.69,96.40L138.21,97.57L137.71,97.58L138.36,96.29zM138.69,107.49L138.21,108.67L137.71,108.76L137.76,108.21L138.50,107.31zM132.21,121.31L131.54,121.53L131.92,121.02L132.24,121.04zM138.61,124.60L137.79,125.40L137.77,124.87L138.49,123.67L138.61,123.71z"/></g><g id="hotspot.5" onmouseover="ShowHotSpot(evt,'5')" onmouseout="HideHotSpot(evt,'5')" onmousemove="ShowToolTip(evt,'5',&quot;F24623314&quot;)" opacity="0"><path style="fill:#00ff00;fill-rule:evenodd" d="M42.97,20.16L43.51,20.94L47.98,44.21L48.01,65.45L34.70,73.30L34.02,73.26L31.87,71.94L31.86,25.52L33.12,23.35L40.22,19.36L41.66,19.36zM198.59,92.24L198.57,97.40L198.29,97.91L171.86,97.84L171.86,92.09L198.32,91.98zM36.11,37.68L35.30,38.76L35.28,38.22L35.86,37.14L36.34,37.03zM36.32,48.40L35.31,49.86L35.28,49.03L36.04,48.13L36.34,48.12zM36.13,65.41L35.52,66.23L35.23,66.24L35.27,65.69L35.78,64.77L36.10,64.78z"/></g><g id="hotspot.6" onmouseover="ShowHotSpot(evt,'6')" onmouseout="HideHotSpot(evt,'6')" onmousemove="ShowToolTip(evt,'6',&quot;Molla_di_compressione_20x2_Compressa_3.5Spire_Lungh23&quot;)" opacity="0"><path style="fill:#00ff00;fill-rule:evenodd" d="M73.35,70.09L74.13,70.88L75.46,73.52L75.47,75.47L74.91,76.23L70.20,78.92L68.78,79.61L67.52,79.61L66.23,78.79L65.15,77.49L64.61,76.44L64.27,74.59L64.76,73.22L70.87,69.55L72.30,69.55zM73.38,92.77L74.93,94.66L75.46,96.24L75.47,97.93L74.83,98.87L71.67,100.46L71.26,100.85L70.35,101.26L69.32,102.07L67.02,102.04L65.96,101.24L64.88,99.69L64.26,97.04L64.82,95.72L70.87,92.26L72.57,92.26zM198.59,102.28L198.57,107.44L198.29,107.95L171.86,107.88L171.86,102.12L198.32,102.02zM72.84,71.39L73.87,72.73L74.24,73.95L72.84,71.91L71.47,70.84L71.41,70.59L71.73,70.58zM71.23,71.40L72.58,72.70L73.62,74.84L73.61,75.74L73.09,75.67L72.56,74.05L71.27,72.17L70.61,71.72L70.70,71.13zM71.50,73.52L71.79,74.39L71.25,74.04L70.58,72.75zM69.39,73.28L69.42,73.86L68.84,73.50L68.85,72.98zM68.89,75.87L69.41,77.30L68.61,76.67L67.77,75.12L67.80,74.29zM66.99,75.12L68.08,77.20L69.39,78.30L68.33,78.27L67.00,76.70L66.46,75.39L66.41,73.48L66.72,73.48zM74.40,75.48L74.24,73.95L74.38,74.06zM71.00,76.13L70.96,76.82L70.63,76.82L70.72,75.85zM72.82,93.86L73.88,95.45L74.24,96.66L72.84,94.63L71.42,93.30L72.01,93.31zM71.77,94.39L72.85,95.68L73.62,97.56L73.64,98.43L73.09,98.09L72.32,96.20L70.69,94.36L70.69,93.85zM69.42,95.99L69.42,96.58L68.85,96.24L68.85,95.42zM71.49,96.25L72.06,97.37L71.51,97.02L70.84,95.73L70.96,95.70zM68.59,97.83L69.41,100.02L68.61,99.39L67.78,97.84L67.81,96.73zM66.99,97.58L68.34,100.18L69.17,100.74L69.14,101.08L68.59,101.04L67.29,99.92L66.46,98.10L66.42,96.19L66.72,96.20zM74.40,97.94L74.24,96.66L74.39,96.78zM71.00,98.85L71.00,99.50L70.72,99.45L70.72,98.57z"/></g></g></svg>
