<?xml version="1.0" encoding="UTF-8" standalone="no"?>
<svg xmlns="http://www.w3.org/2000/svg" xmlns:xlink="http://www.w3.org/1999/xlink" width="210.000mm" height="150.000mm" viewBox="0.000000 0.000000 210.000000 150.000000" stroke-linejoin="round" stroke-linecap="round" fill="none" fill-rule="evenodd"><desc>Composer Export</desc><script type="text/ecmascript"><![CDATA[
if(typeof(top) != "undefined")
{
	top.ShowPaper = ShowPaper;
}
function ShowHotSpot(evt,hotspotid)
{
	var svgDocument = evt.target.ownerDocument;
	var strId = "hotspot."+hotspotid;
	var hotspot = svgDocument.getElementById(strId);
	if(hotspot)
		hotspot.setAttribute("opacity",".5");
}
function HideHotSpot(evt,hotspotid)
{
	var svgDocument = evt.target.ownerDocument;
	var strId = "hotspot."+hotspotid;
	var hotspot = svgDocument.getElementById(strId);
	if(hotspot)
		hotspot.setAttribute("opacity","0");

	var toolTip = svgDocument.getElementById('ToolTip');
	if(toolTip)
		toolTip.setAttribute("visibility","hidden");
}
function ShowToolTip(evt,hotspotid,strTooltip)
{
	if(strTooltip=="")
	return;

	// change text
	var svgDocument = evt.target.ownerDocument;
	var tiptext = svgDocument.getElementById('ToolTipText');
	if( !tiptext )
	return;
	tiptext.firstChild.nodeValue = " " + strTooltip + "  " ;

	// show tooltip before, else some refresh issue

	var toolTip = svgDocument.getElementById('ToolTip');
	if(!toolTip)
	return;

	toolTip.setAttribute("visibility","visible");
	toolTip.setAttribute("opacity",".95");

	// move tooltip
	// get viewbox

	var root = svgDocument.documentElement;
	var vbox = (root.getAttribute("viewBox")).split(' ');
	var x0 = parseFloat(vbox[0]);
	var y0 = parseFloat(vbox[1]);
	var vboxW = parseFloat(vbox[2]);
	var vboxH = parseFloat(vbox[3]);

	// get default width of svg

	var strW = root.getAttribute("width");
	var svgW = parseFloat(strW);
	if(strW.indexOf('mm') != -1)
	svgW *= 3.779;

	var strH = root.getAttribute("height");
	var svgH = parseFloat(strH);
	if(strH.indexOf('mm') != -1)
	svgH *= 3.779;  	// 96 dpi  -> 96/25.4 = 3.779

	// update the viewbox / width / height if svg is embedded in html with zoom fit all
	var realx0 = x0;
	var realy0 = y0;
	var realvboxW = vboxW;
	var realvboxH = vboxH;
	var realsvgW = svgW;
	var realsvgH = svgH;

	if ((typeof(top) == "undefined") || (typeof(top.svgctl1) != "undefined")) // embedded in html
	{
		// get window size in pxl

		svgW = window.innerWidth;
		svgH = window.innerHeight;

		// calculate real viewbox

		realsvgW = svgW;
		realsvgH = svgH;
		if((svgW / svgH) > (vboxW / vboxH))
		{
			realvboxW = (vboxH * svgW) / svgH;
			realvboxH = vboxH;
			realx0 = x0 - (realvboxW - vboxW)/2 ;
		}
		else
		{
			realvboxH = (vboxW * svgH) / svgW;
			realvboxW = vboxW;
			realy0 = y0 - (realvboxH - vboxH)/2 ;
		}
	}

	// get user zoom/pan

	var newScale = root.currentScale;
	var translation = root.currentTranslate;

	// transform pxl to user unit

	var xPos = (((evt.clientX+10- translation.x)/newScale) * realvboxW)/realsvgW  + realx0 ;
	var yPos = (((evt.clientY+5- translation.y)/newScale) * realvboxH)/ realsvgH  + realy0 ;
	var scaleForWidth = ( (1 / newScale) * realvboxH) / realsvgH;

	// move tooltip

	toolTip.setAttribute("transform", "translate(" + xPos + "," + yPos + ")" );

	// resize tooltip

	var fontsize = 12;
	tiptext.setAttribute("font-size",fontsize*scaleForWidth);
	tiptext.setAttribute("y", fontsize*scaleForWidth);
	var tipBG = svgDocument.getElementById('ToolTipBG');
	var outline = tiptext.getBBox();
	if(tipBG)
	{
		tipBG.setAttribute("stroke-width", 1*scaleForWidth);
		tipBG.setAttribute("width", Number(outline.width) );
		tipBG.setAttribute("height", Number(outline.height) + fontsize*.5*scaleForWidth );
	}
	var ToolTipShadow = svgDocument.getElementById('ToolTipShadow');
	if(ToolTipShadow)
	{
		ToolTipShadow.setAttribute("width", Number(outline.width) );
		ToolTipShadow.setAttribute("height", Number(outline.height) + fontsize*.5*scaleForWidth );
		ToolTipShadow.setAttribute("x", 3*scaleForWidth);
		ToolTipShadow.setAttribute("y", 3*scaleForWidth);
	}
}
function ShowPaper()
{
  var svgDocument = getDocument();
  var paper = svgDocument.getElementById("paperID");
  if(paper)
  {
    paper.setAttribute("transform","scale(1)");
    paper.setAttribute("opacity","1");
    paper.setAttribute("visibility","visible");
  }
  var svg = svgDocument.getRootElement();
  if(svg)
  {
    svg.setAttribute("width","220.000mm");
    svg.setAttribute("height","160.000mm");
    svg.setAttribute("viewBox","-5.000000 -5.000000 220.000000 160.000000");
  }
}
]]></script><defs/><g><path style="fill:#ffffff" d="M209.93,149.99L0.04,149.99L0.04,0.04L209.93,0.04z"/><path style="fill:#8aa7bf" d="M47.72,57.86L48.12,57.11L48.31,56.93L48.91,56.99L48.44,57.18L48.18,57.55L47.89,58.39L47.73,58.34z"/><path style="fill:#9daff7" d="M23.28,28.04L23.28,28.85L23.02,29.49L22.35,30.08L21.62,30.08L21.24,29.70L21.24,28.84L21.76,27.97L22.21,27.66L22.90,27.66z"/><path style="fill:#9daff7" d="M23.14,35.28L23.28,35.51L23.28,36.33L23.02,36.96L22.35,37.56L21.62,37.56L21.24,37.18L21.24,36.32L21.76,35.44L22.51,35.04L22.66,35.02z"/><path style="fill:#9daff7" d="M150.76,101.53L150.76,102.60L150.50,103.11L149.83,103.70L149.09,103.71L148.71,103.33L148.72,102.46L149.30,101.53L149.95,101.15L150.12,101.15z"/><path style="fill:#9daff7" d="M150.76,109.01L150.76,110.08L150.50,110.58L149.83,111.18L149.09,111.18L148.71,110.80L148.72,109.94L149.30,109.00L149.95,108.63L150.12,108.63z"/><path style="fill:#ba9928" d="M16.83,57.42L17.45,58.45L17.40,63.02L16.15,63.79L15.55,63.77L13.39,62.51L13.35,56.44L14.29,55.92z"/><path style="fill:#ba9928" d="M61.92,83.42L62.44,83.79L62.44,89.68L61.74,90.13L61.28,90.15L58.89,88.74L58.37,87.86L58.37,83.08L59.73,82.27L59.89,82.27z"/><path style="fill:#ba9928" d="M106.65,109.28L106.66,115.28L105.98,115.74L105.52,115.73L103.35,114.47L103.10,114.22L102.59,113.34L102.56,108.77L104.07,107.86L104.25,107.87z"/><path style="fill:#ff0000" d="M47.89,58.39L48.18,57.55L48.44,57.18L48.91,56.99L49.04,57.11L48.83,57.19L48.32,57.70L48.05,58.56z"/><path style="fill:#2ac7ce" d="M47.36,35.76L47.36,39.13L46.42,39.71L46.35,41.69L45.20,41.09L44.69,41.14L44.17,41.89L44.17,42.51L44.43,42.75L46.38,43.87L46.46,48.45L47.35,48.96L47.39,49.77L45.20,48.57L44.69,48.62L44.17,49.37L44.17,49.98L44.43,50.23L47.41,51.96L47.35,52.55L46.71,53.68L38.82,58.22L38.48,58.22L33.25,55.20L33.28,51.53L34.69,50.66L34.69,42.74L34.17,42.36L33.28,41.86L33.28,38.09L33.87,37.16L39.58,33.86L40.12,33.93L40.22,33.50L41.73,32.60L41.90,32.59z"/><path style="fill:#2ac7ce" d="M90.70,65.80L90.70,67.29L89.55,66.69L89.12,66.68L88.52,67.36L88.53,68.22L90.73,69.46L90.69,74.61L90.61,74.74L89.55,74.16L89.12,74.16L88.52,74.84L88.53,75.69L88.78,75.82L89.22,76.13L83.17,79.63L82.70,79.63L79.16,77.59L79.05,70.20L79.15,68.63L79.34,68.30L79.87,67.58L83.48,65.48L83.53,65.39L85.26,64.48L85.40,64.34L86.72,63.64L87.01,63.64z"/><path style="fill:#2ac7ce" d="M137.58,87.84L137.57,91.32L135.16,92.71L135.12,99.68L137.57,101.04L137.58,104.76L137.01,105.71L129.18,110.29L128.58,110.28L123.47,107.28L123.40,95.79L123.39,93.65L123.51,90.19L124.15,89.30L124.57,88.98L126.34,87.97L132.14,84.69z"/><path style="fill:#8aa7bf" d="M46.35,41.69L46.59,41.87L84.98,64.03L85.40,64.34L85.26,64.48L83.53,65.39L83.08,65.05L46.38,43.87L44.43,42.75L44.17,42.51L44.17,41.89L44.69,41.14L45.20,41.09z"/><path style="fill:#8aa7bf" d="M47.39,49.77L79.34,68.30L79.15,68.63L79.05,70.20L47.41,51.96L44.43,50.23L44.17,49.98L44.17,49.37L44.69,48.62L45.20,48.57z"/><path style="fill:#8aa7bf" d="M50.02,57.69L50.02,58.38L49.89,58.63L49.34,59.10L48.88,59.09L48.05,58.56L48.32,57.70L48.83,57.19L49.04,57.11L49.26,57.19z"/><path style="fill:#8aa7bf" d="M90.70,67.29L90.94,67.47L120.09,84.31L126.34,87.97L124.57,88.98L90.73,69.46L88.53,68.22L88.52,67.36L89.12,66.68L89.55,66.69z"/><path style="fill:#8aa7bf" d="M90.61,74.74L123.39,93.65L123.40,95.79L89.42,76.19L89.22,76.13L88.78,75.82L88.53,75.69L88.52,74.84L89.12,74.16L89.55,74.16z"/><path style="fill:#8aa7bf" d="M132.89,100.32L133.21,99.89L133.47,99.76L133.90,99.76L133.90,100.58L133.77,100.82L133.22,101.30L132.88,101.30z"/><path style="fill:#00fdff" d="M35.71,47.30L35.69,47.49L35.53,47.48L35.50,47.18z"/><path style="fill:#00fdff" d="M37.35,48.49L37.08,48.32L37.08,48.10L37.21,48.07z"/><path style="fill:#00fdff" d="M15.41,58.47L15.81,59.09L15.76,59.60L15.16,59.60L14.90,59.23L14.91,58.36L15.16,58.31z"/><path style="fill:#00fdff" d="M80.05,73.03L79.78,73.03L79.74,72.77L79.90,72.77z"/><path style="fill:#00fdff" d="M81.58,73.78L81.58,74.09L81.44,74.07L81.44,73.64z"/><path style="fill:#00fdff" d="M137.03,89.51L136.76,89.55L136.80,89.28L137.07,89.24z"/><path style="fill:#00fdff" d="M137.03,90.65L136.76,90.69L136.80,90.43L137.07,90.38z"/><path style="fill:#00fdff" d="M124.40,98.63L124.13,98.63L124.09,98.36L124.25,98.36z"/><path style="fill:#00fdff" d="M125.93,99.38L125.91,99.57L125.75,99.56L125.73,99.26z"/><path style="fill:#00fdff" d="M133.47,100.67L133.22,100.70L133.26,100.30L133.52,100.27z"/><path style="fill:#00fdff" d="M137.03,102.82L136.76,102.86L136.80,102.59L137.07,102.55z"/><path style="fill:#00fdff" d="M137.03,103.96L136.76,104.00L136.80,103.73L137.07,103.69z"/><path style="fill:#00fdff" d="M104.13,109.76L104.49,110.53L104.37,110.83L103.87,110.79L103.48,110.30L103.48,109.56L103.87,109.51z"/><path style="fill:#7f7f7f" d="M27.58,53.26L28.47,54.15L28.85,55.16L28.85,55.85L28.55,56.30L25.27,58.21L24.53,58.21L23.79,57.69L23.14,56.44L23.14,55.45L23.48,55.03L26.78,53.13L27.20,53.13z"/><path style="fill:#7f7f7f" d="M71.93,78.86L72.58,79.48L73.08,80.37L73.21,81.30L73.03,81.77L69.62,83.81L68.88,83.81L68.14,83.29L67.76,82.78L67.49,82.16L67.48,80.91L68.21,80.38L71.13,78.72L71.55,78.73z"/><path style="fill:#7f7f7f" d="M116.41,104.58L116.93,105.07L117.43,106.10L117.43,107.17L117.12,107.49L113.84,109.40L113.23,109.40L112.49,108.88L111.84,107.88L111.84,106.52L112.05,106.22L115.35,104.32L115.91,104.32z"/><path style="fill:#ffffff" d="M22.55,28.74L22.33,29.20L22.09,29.24L22.21,28.79L22.35,28.65z"/><path style="fill:#ffffff" d="M22.55,36.22L22.33,36.67L22.09,36.71L22.21,36.27L22.35,36.13z"/><path style="fill:#ffffff" d="M83.08,65.05L83.53,65.39L83.48,65.48L79.87,67.58L79.34,68.30L47.39,49.77L47.35,48.96L46.46,48.45L46.38,43.87z"/><path style="fill:#ffffff" d="M15.56,61.11L16.06,61.88L16.06,62.30L15.55,61.87L15.28,61.25L15.29,60.86z"/><path style="fill:#ffffff" d="M124.57,88.98L124.15,89.30L123.51,90.19L123.39,93.65L90.61,74.74L90.69,74.61L90.73,69.46z"/><path style="fill:#ffffff" d="M60.02,84.16L60.16,84.60L60.04,84.57L59.84,84.06z"/><path style="fill:#ffffff" d="M59.91,86.71L60.41,87.47L60.41,87.90L59.90,87.47L59.63,86.98L59.64,86.45z"/><path style="fill:#ffffff" d="M149.91,102.26L149.76,102.63L149.44,102.73L149.56,102.29L149.70,102.15z"/><path style="fill:#ffffff" d="M149.91,109.73L149.76,110.10L149.44,110.21L149.56,109.76L149.70,109.62z"/><path style="fill:#ffffff" d="M104.13,112.16L104.77,113.20L104.75,113.50L104.51,113.46L103.98,112.58L103.99,112.05z"/><path style="stroke:#000000;stroke-width:0.088" d="M111.74,107.29L111.71,107.18L111.75,106.71L111.92,106.36L112.21,106.16L112.58,106.14L113.00,106.30L113.42,106.63L113.80,107.08L114.09,107.61L114.26,108.16L114.29,108.67L114.19,109.08L113.96,109.36L113.62,109.47L113.22,109.40L113.00,109.29L112.79,109.15L112.39,108.76L112.05,108.26L111.82,107.71L111.74,107.29"/><path style="stroke:#000000;stroke-width:0.088" d="M112.30,108.24L112.57,108.62L112.90,108.91L113.23,109.08L113.54,109.11L113.79,109.00L113.96,108.76L114.02,108.41L113.97,108.00L113.82,107.57L113.58,107.16L113.28,106.82L113.00,106.62L112.94,106.59L112.61,106.49L112.33,106.53L112.12,106.71L112.00,107.00L112.00,107.39L112.10,107.81L112.30,108.24"/><path style="stroke:#000000;stroke-width:0.088" d="M112.51,107.00L112.54,107.05L112.56,107.11L112.57,107.17L112.56,107.22L112.54,107.25L112.51,107.09L112.51,107.00L113.07,106.67"/><path style="stroke:#000000;stroke-width:0.088" d="M112.21,106.16L115.44,104.29L115.82,104.27L116.24,104.44L116.66,104.76L117.03,105.21L117.32,105.74L117.49,106.29L117.53,106.80L117.42,107.22L117.19,107.49L113.96,109.36"/><path style="stroke:#000000;stroke-width:0.088" d="M113.91,107.82L113.08,108.30L113.09,108.32L113.27,108.50L113.98,108.09"/><path style="stroke:#000000;stroke-width:0.088" d="M113.27,108.50L113.25,108.44L113.21,108.38L113.17,108.34L113.12,108.31L113.08,108.30"/><path style="stroke:#000000;stroke-width:0.088" d="M112.54,107.25L113.28,106.83"/><path style="stroke:#000000;stroke-width:0.088" d="M115.64,104.69L115.72,104.74L115.80,104.78L113.60,106.05L113.52,106.01L113.44,105.96L115.64,104.69L115.64,104.75L113.50,105.99"/><path style="stroke:#000000;stroke-width:0.088" d="M114.91,108.77L114.60,108.95L114.68,108.83L116.88,107.56L116.80,107.68L114.91,108.77"/><path style="stroke:#000000;stroke-width:0.088" d="M116.88,106.23L114.68,107.50L114.60,107.30L116.80,106.03L116.88,106.23L116.83,106.24L114.67,107.49"/><path style="stroke:#000000;stroke-width:0.088" d="M115.64,104.75L115.68,104.76L115.72,104.77L115.77,104.81"/><path style="stroke:#000000;stroke-width:0.088" d="M116.80,107.68L116.76,107.63"/><path style="stroke:#000000;stroke-width:0.088" d="M116.83,106.24L116.83,106.19L116.81,106.13L116.79,106.08L116.76,106.05"/><path style="stroke:#000000;stroke-width:0.088" d="M23.77,57.23L23.57,56.90L23.40,56.47L23.34,56.06L23.39,55.70L23.54,55.44L23.78,55.32L24.09,55.33L24.42,55.48L24.51,55.56L24.75,55.76L25.03,56.13L25.24,56.55L25.36,56.98L25.37,57.37L25.26,57.68L25.06,57.87L24.79,57.93L24.46,57.85L24.36,57.80L24.13,57.63L23.82,57.31L23.77,57.23"/><path style="stroke:#000000;stroke-width:0.088" d="M23.45,57.14L23.74,57.58L24.15,57.97L24.36,58.11L24.57,58.22L24.97,58.29L25.31,58.18L25.54,57.90L25.65,57.49L25.61,56.98L25.44,56.43L25.15,55.90L24.78,55.45L24.36,55.12L23.94,54.96L23.56,54.98L23.27,55.18L23.10,55.53L23.07,56.00L23.17,56.53L23.41,57.08L23.45,57.14"/><path style="stroke:#000000;stroke-width:0.088" d="M23.56,54.98L26.80,53.11L27.17,53.09L27.59,53.26L28.01,53.58L28.39,54.03L28.68,54.56L28.85,55.11L28.88,55.62L28.78,56.04L28.55,56.31L25.31,58.18"/><path style="stroke:#000000;stroke-width:0.088" d="M25.06,56.19L24.14,56.72L24.22,56.84L24.30,56.96L25.19,56.45"/><path style="stroke:#000000;stroke-width:0.088" d="M24.14,56.72L24.19,56.75L24.23,56.79L24.27,56.85L24.29,56.91L24.30,56.96"/><path style="stroke:#000000;stroke-width:0.088" d="M23.91,55.60L23.89,55.63L23.86,55.65L23.87,55.54L23.90,55.43L23.92,55.49L23.92,55.55L23.91,55.60"/><path style="stroke:#000000;stroke-width:0.088" d="M24.27,55.41L23.89,55.63"/><path style="stroke:#000000;stroke-width:0.088" d="M23.90,55.43L24.08,55.33"/><path style="stroke:#000000;stroke-width:0.088" d="M25.28,57.63L25.13,57.60L25.15,57.58L25.19,57.56L25.23,57.57L25.28,57.60L25.29,57.61"/><path style="stroke:#000000;stroke-width:0.088" d="M25.15,57.58L25.33,57.47"/><path style="stroke:#000000;stroke-width:0.088" d="M24.80,54.78L26.99,53.51L27.08,53.56L27.16,53.61L24.96,54.88L24.88,54.83L24.80,54.78"/><path style="stroke:#000000;stroke-width:0.088" d="M26.99,53.51L26.99,53.57L24.85,54.81"/><path style="stroke:#000000;stroke-width:0.088" d="M26.03,57.65L25.95,57.77L28.15,56.50L28.23,56.38L26.03,57.65"/><path style="stroke:#000000;stroke-width:0.088" d="M28.23,55.05L26.03,56.32L25.95,56.12L28.15,54.85L28.23,55.05L28.19,55.06L28.18,55.01L28.17,54.95L28.14,54.90L28.12,54.87"/><path style="stroke:#000000;stroke-width:0.088" d="M26.03,56.31L28.19,55.06"/><path style="stroke:#000000;stroke-width:0.088" d="M26.99,53.57L27.03,53.58L27.08,53.59L27.12,53.63"/><path style="stroke:#000000;stroke-width:0.088" d="M28.15,56.50L28.12,56.45"/><path style="stroke:#000000;stroke-width:0.088" d="M68.15,82.91L68.14,82.90L67.89,82.49L67.72,82.06L67.66,81.65L67.71,81.29L67.86,81.03L68.11,80.91L68.41,80.92L68.74,81.07L69.07,81.35L69.36,81.72L69.57,82.14L69.68,82.57L69.69,82.96L69.59,83.27L69.39,83.46L69.11,83.52L68.79,83.44L68.68,83.39L68.45,83.22L68.15,82.91"/><path style="stroke:#000000;stroke-width:0.088" d="M67.67,82.54L67.73,82.67L68.07,83.17L68.47,83.56L68.68,83.70L68.89,83.81L69.30,83.88L69.63,83.77L69.87,83.49L69.97,83.08L69.94,82.57L69.76,82.02L69.48,81.49L69.10,81.04L68.68,80.71L68.26,80.55L67.89,80.57L67.60,80.77L67.43,81.12L67.39,81.59L67.50,82.12L67.67,82.54"/><path style="stroke:#000000;stroke-width:0.088" d="M67.89,80.57L71.12,78.70L71.50,78.68L71.92,78.85L72.34,79.17L72.71,79.62L73.00,80.15L73.17,80.70L73.21,81.21L73.10,81.63L72.87,81.90L69.63,83.77"/><path style="stroke:#000000;stroke-width:0.088" d="M68.47,82.31L68.54,82.43L68.63,82.55L68.62,82.50L68.59,82.44L68.56,82.38L68.51,82.34L68.47,82.31L69.39,81.78"/><path style="stroke:#000000;stroke-width:0.088" d="M68.63,82.55L69.52,82.04"/><path style="stroke:#000000;stroke-width:0.088" d="M68.24,81.19L68.25,81.14L68.24,81.08L68.22,81.02L68.20,81.13L68.18,81.24L68.22,81.22L68.24,81.19"/><path style="stroke:#000000;stroke-width:0.088" d="M68.22,81.02L68.40,80.92"/><path style="stroke:#000000;stroke-width:0.088" d="M68.22,81.22L68.59,81.00"/><path style="stroke:#000000;stroke-width:0.088" d="M69.60,83.22L69.45,83.19L69.47,83.17L69.51,83.15L69.55,83.16L69.60,83.18L69.61,83.20"/><path style="stroke:#000000;stroke-width:0.088" d="M69.66,83.06L69.47,83.17"/><path style="stroke:#000000;stroke-width:0.088" d="M69.20,80.42L69.12,80.37L71.32,79.10L71.40,79.15L71.48,79.19L69.28,80.46L69.20,80.42"/><path style="stroke:#000000;stroke-width:0.088" d="M69.17,80.40L71.32,79.16L71.32,79.10"/><path style="stroke:#000000;stroke-width:0.088" d="M70.28,83.36L70.36,83.24L72.56,81.97L72.48,82.09L70.28,83.36"/><path style="stroke:#000000;stroke-width:0.088" d="M72.44,80.46L72.46,80.49L72.49,80.54L72.51,80.60L72.51,80.65L70.35,81.90"/><path style="stroke:#000000;stroke-width:0.088" d="M72.56,80.64L70.36,81.91L70.28,81.71L72.48,80.44L72.56,80.64L72.51,80.65"/><path style="stroke:#000000;stroke-width:0.088" d="M71.44,79.22L71.40,79.18L71.36,79.17L71.32,79.16"/><path style="stroke:#000000;stroke-width:0.088" d="M72.48,82.09L72.44,82.04"/><path style="stroke:#000000;stroke-width:0.088" d="M80.04,78.06L82.32,79.38L82.32,70.64L82.97,69.52L79.73,67.65L79.08,68.77L79.08,77.51L80.04,78.06L79.55,77.78"/><path style="stroke:#000000;stroke-width:0.088" d="M79.08,68.77L82.32,70.64"/><path style="stroke:#000000;stroke-width:0.088" d="M79.80,75.88L80.17,76.36L80.59,76.73L81.03,76.94L81.43,76.97L81.71,76.83L81.75,76.81L81.96,76.49L82.03,76.03L81.96,75.50L81.75,74.93L81.62,74.72L81.43,74.40L81.03,73.97L80.59,73.68L80.17,73.56L79.80,73.62L79.60,73.81L79.54,73.87L79.39,74.26L79.38,74.50L79.39,74.76L79.54,75.32L79.80,75.88"/><path style="stroke:#000000;stroke-width:0.088" d="M82.03,76.01L81.96,76.44L81.76,76.76L81.44,76.91L81.05,76.88L80.63,76.68L80.21,76.32L79.86,75.84L79.60,75.30L79.46,74.76L79.44,74.50L79.46,74.27L79.60,73.88L79.86,73.64L80.22,73.58L80.62,73.70"/><path style="stroke:#000000;stroke-width:0.088" d="M79.81,73.05L79.86,73.10L79.92,73.14L79.97,73.15L80.01,73.13L80.04,73.10L80.06,73.05L80.05,72.98L80.03,72.91L80.00,72.85L79.95,72.79L79.90,72.74L79.84,72.72L79.79,72.72L79.76,72.75L79.73,72.79L79.73,72.84L79.74,72.92L79.77,72.99L79.81,73.05"/><path style="stroke:#000000;stroke-width:0.088" d="M80.04,72.31L80.00,72.14L80.00,71.87L80.08,71.67L80.23,71.54L80.43,71.51L80.66,71.58L80.70,71.61L80.89,71.75L81.10,71.98L81.27,72.27L81.38,72.57L81.41,72.86L81.37,73.10L81.25,73.27L81.08,73.34L80.86,73.32L80.63,73.20L80.40,73.00L80.21,72.74L80.07,72.44L80.04,72.31"/><path style="stroke:#000000;stroke-width:0.088" d="M79.73,67.65L86.85,63.54L86.87,63.55"/><path style="stroke:#000000;stroke-width:0.088" d="M81.36,73.85L81.35,73.77L81.35,73.72L81.37,73.68L81.41,73.66L81.46,73.66L81.51,73.68L81.57,73.72L81.62,73.78L81.65,73.85L81.67,73.92L81.68,73.98L81.66,74.03L81.63,74.07L81.59,74.08L81.53,74.07L81.48,74.04L81.43,73.99L81.39,73.92L81.36,73.85"/><path style="stroke:#000000;stroke-width:0.088" d="M82.32,79.38L82.42,79.43L82.30,79.37"/><path style="stroke:#000000;stroke-width:0.088" d="M82.42,79.43L82.97,79.75L89.31,76.09"/><path style="stroke:#000000;stroke-width:0.088" d="M82.97,69.52L90.08,65.41L86.85,63.54L87.00,63.62"/><path style="stroke:#000000;stroke-width:0.088" d="M88.80,75.80L88.69,75.79L88.54,75.68L88.45,75.49L88.43,75.32L88.44,75.24L88.50,74.96L88.62,74.67L88.80,74.41L89.02,74.21L89.24,74.09L89.45,74.06L89.62,74.12L89.70,74.21"/><path style="stroke:#000000;stroke-width:0.088" d="M88.45,75.45L88.45,75.45L88.44,75.30"/><path style="stroke:#000000;stroke-width:0.088" d="M88.51,75.58L88.53,75.63L88.54,75.63"/><path style="stroke:#000000;stroke-width:0.088" d="M88.63,75.70L88.67,75.73L88.68,75.73"/><path style="stroke:#000000;stroke-width:0.088" d="M89.70,66.74L89.62,66.65L89.45,66.58L89.24,66.62L89.02,66.74L88.80,66.94L88.62,67.20L88.50,67.49L88.44,67.77L88.43,67.85L88.45,68.02L88.54,68.21L88.69,68.32L88.80,68.33"/><path style="stroke:#000000;stroke-width:0.088" d="M88.68,68.26L88.67,68.26L88.63,68.23"/><path style="stroke:#000000;stroke-width:0.088" d="M88.44,67.83L88.45,67.97L88.45,67.98"/><path style="stroke:#000000;stroke-width:0.088" d="M88.51,68.11L88.53,68.15L88.54,68.16"/><path style="stroke:#000000;stroke-width:0.088" d="M89.44,74.09L89.40,74.08L89.39,74.08"/><path style="stroke:#000000;stroke-width:0.088" d="M89.25,74.10L89.20,74.11L89.19,74.11"/><path style="stroke:#000000;stroke-width:0.088" d="M89.04,74.20L89.02,74.21"/><path style="stroke:#000000;stroke-width:0.088" d="M89.04,66.73L89.02,66.74"/><path style="stroke:#000000;stroke-width:0.088" d="M89.44,66.62L89.40,66.61L89.39,66.61"/><path style="stroke:#000000;stroke-width:0.088" d="M89.25,66.63L89.20,66.64L89.19,66.64"/><path style="stroke:#000000;stroke-width:0.088" d="M90.08,65.41L90.73,65.78L90.73,67.34"/><path style="stroke:#000000;stroke-width:0.088" d="M90.73,69.44L90.73,74.52L90.61,74.74"/><path style="stroke:#000000;stroke-width:0.088" d="M90.72,65.77L90.73,65.78L90.72,65.77"/><path style="stroke:#000000;stroke-width:0.088" d="M128.26,96.67L126.64,95.74L126.64,105.56L128.26,106.50L128.26,110.05L123.41,107.25L123.41,90.44L128.26,93.24L128.26,96.67L137.64,91.26L137.64,87.82L137.00,87.45L135.25,88.46L134.60,88.08L134.21,88.31L134.86,88.68L134.86,89.54L134.87,89.60L134.90,89.65L134.94,89.67L134.99,89.67L135.05,89.65L135.11,89.60L135.17,89.54L135.21,89.47L135.24,89.39L135.25,89.31L134.86,89.09"/><path style="stroke:#000000;stroke-width:0.088" d="M123.41,90.44L124.05,89.31L132.14,84.64L132.34,84.76L132.18,84.67"/><path style="stroke:#000000;stroke-width:0.088" d="M124.42,101.86L124.37,101.81L124.03,101.30L123.80,100.74L123.70,100.19L123.70,100.09L123.75,99.71L123.93,99.36L124.23,99.17L124.62,99.17L125.05,99.34L125.48,99.68L125.86,100.15L126.15,100.70L126.32,101.26L126.34,101.78L126.23,102.20L125.98,102.47L125.63,102.57L125.22,102.48L124.78,102.22L124.42,101.86"/><path style="stroke:#000000;stroke-width:0.088" d="M126.34,101.74L126.23,102.15L125.99,102.41L125.65,102.51L125.24,102.43L124.82,102.17L124.44,101.79L124.42,101.77L124.09,101.27L123.86,100.72L123.77,100.19L123.76,100.09L123.81,99.72L123.99,99.38L124.28,99.19L124.66,99.19L125.07,99.35"/><path style="stroke:#000000;stroke-width:0.088" d="M124.12,98.66L124.18,98.72L124.24,98.76L124.31,98.77L124.36,98.76L124.39,98.72L124.41,98.66L124.41,98.58L124.38,98.50L124.34,98.42L124.28,98.35L124.22,98.30L124.16,98.28L124.10,98.28L124.06,98.30L124.03,98.36L124.02,98.41L124.04,98.51L124.07,98.59L124.12,98.66"/><path style="stroke:#000000;stroke-width:0.088" d="M124.41,98.63L124.40,98.67L124.36,98.71L124.32,98.72L124.27,98.71L124.21,98.68L124.16,98.62L124.12,98.56L124.09,98.49L124.08,98.42L124.09,98.36L124.11,98.32L124.15,98.30L124.20,98.30L124.23,98.31"/><path style="stroke:#000000;stroke-width:0.088" d="M124.42,98.07L124.37,97.97L124.32,97.68L124.34,97.42L124.43,97.23L124.59,97.12L124.79,97.11L125.03,97.20L125.26,97.38L125.46,97.62L125.62,97.91L125.72,98.22L125.73,98.50L125.68,98.73L125.55,98.88L125.36,98.94L125.14,98.90L125.03,98.84L124.91,98.76L124.69,98.55L124.50,98.27L124.42,98.07"/><path style="stroke:#000000;stroke-width:0.088" d="M124.05,89.31L128.91,92.12L128.26,93.24"/><path style="stroke:#000000;stroke-width:0.088" d="M125.64,99.36L125.65,99.29L125.67,99.24L125.72,99.21L125.77,99.21L125.84,99.24L125.90,99.29L125.96,99.35L126.00,99.43L126.02,99.52L126.03,99.59L126.01,99.65L125.97,99.69L125.92,99.71L125.86,99.69L125.80,99.66L125.74,99.60L125.69,99.52L125.65,99.44L125.64,99.36"/><path style="stroke:#000000;stroke-width:0.088" d="M126.03,99.56L126.01,99.61L125.98,99.64L125.94,99.65L125.90,99.65L125.89,99.64L125.83,99.61L125.78,99.56L125.74,99.49L125.71,99.43L125.70,99.38L125.70,99.36L125.70,99.30L125.73,99.25L125.76,99.23L125.81,99.23L125.85,99.25"/><path style="stroke:#000000;stroke-width:0.088" d="M126.64,105.56L135.05,100.71L135.05,92.75"/><path style="stroke:#000000;stroke-width:0.088" d="M128.26,110.05L128.91,110.42L137.00,105.75L137.64,104.63L137.64,101.08L135.25,102.46L135.25,102.61L134.60,102.24L134.60,102.09L135.25,102.46"/><path style="stroke:#000000;stroke-width:0.088" d="M128.26,106.50L134.86,102.69L134.86,102.84L134.87,102.90L134.90,102.95L134.94,102.97L134.99,102.97L135.05,102.95L135.11,102.90L135.17,102.84L135.21,102.77L135.24,102.69L135.25,102.61"/><path style="stroke:#000000;stroke-width:0.088" d="M128.86,110.39L128.91,110.42L128.85,110.39"/><path style="stroke:#000000;stroke-width:0.088" d="M129.20,107.27L129.23,107.30L129.29,107.45L129.29,107.65L129.23,107.87L129.13,108.08L128.99,108.27L128.82,108.41L128.65,108.50L128.49,108.51L128.49,108.50"/><path style="stroke:#000000;stroke-width:0.088" d="M128.39,108.22L128.42,108.39L128.50,108.52L128.62,108.58L128.78,108.57L128.95,108.49L129.12,108.35L129.26,108.16L129.36,107.94L129.42,107.72L129.43,107.62L129.42,107.53L129.36,107.37L129.26,107.28L129.12,107.25L128.95,107.30L128.78,107.41L128.62,107.58L128.50,107.79L128.42,108.01L128.39,108.22"/><path style="stroke:#000000;stroke-width:0.088" d="M128.95,107.30L129.06,107.32L129.15,107.40L129.19,107.52L129.19,107.68L129.15,107.86L129.06,108.04L128.95,108.19L128.81,108.31L128.67,108.37L128.55,108.38L128.45,108.33L128.40,108.26"/><path style="stroke:#000000;stroke-width:0.088" d="M129.20,93.96L129.09,93.96L128.92,94.02L128.75,94.14L128.60,94.32L128.48,94.53L128.41,94.75L128.39,94.92L128.39,94.95L128.43,95.12L128.52,95.24L128.65,95.29L128.81,95.26L128.98,95.17L129.14,95.01L129.28,94.82L129.38,94.60L129.42,94.38L129.41,94.19L129.35,94.05L129.23,93.97L129.20,93.96L129.22,93.97L129.28,94.12L129.30,94.25L129.29,94.31L129.25,94.53L129.15,94.74L129.01,94.94L128.85,95.09L128.68,95.19L128.52,95.21L128.49,95.20"/><path style="stroke:#000000;stroke-width:0.088" d="M128.95,94.00L129.06,94.02L129.15,94.10L129.19,94.22L129.19,94.38L129.15,94.56L129.06,94.74L128.95,94.89L128.81,95.01L128.67,95.07L128.55,95.08L128.45,95.03L128.39,94.95"/><path style="stroke:#000000;stroke-width:0.088" d="M128.91,92.12L134.86,88.68"/><path style="stroke:#000000;stroke-width:0.088" d="M130.82,102.55L130.83,102.68L130.87,102.78L130.95,102.84L131.05,102.85L131.16,102.80L131.28,102.72L131.38,102.60L131.47,102.45L131.52,102.30L131.53,102.16L131.50,102.04L131.44,101.96L131.35,101.93L131.24,101.95L131.12,102.01L131.01,102.12L130.92,102.25L130.85,102.40L130.82,102.55L130.89,102.49L131.00,102.37L131.08,102.23L131.13,102.08L131.13,102.00"/><path style="stroke:#000000;stroke-width:0.088" d="M130.89,102.32L130.91,102.29L130.96,102.20L130.97,102.18"/><path style="stroke:#000000;stroke-width:0.088" d="M132.34,84.76L133.13,85.22L132.49,84.85"/><path style="stroke:#000000;stroke-width:0.088" d="M133.08,105.73L133.02,105.74L132.97,105.72L132.94,105.68L132.92,105.62L132.93,105.54L132.95,105.46L132.99,105.38L133.05,105.31L133.11,105.27L133.18,105.24L133.23,105.24L133.28,105.27L133.30,105.33L133.31,105.40L133.29,105.48L133.26,105.56L133.21,105.63L133.15,105.69L133.08,105.73"/><path style="stroke:#000000;stroke-width:0.088" d="M133.83,100.79L133.84,100.80L133.97,100.53L134.04,100.26L134.11,100.26L134.11,100.01L134.03,99.80L133.90,99.68L133.71,99.65L133.49,99.71L133.27,99.86L133.07,100.08L132.90,100.35L132.79,100.64L132.76,100.91L132.79,101.15L132.90,101.31L133.07,101.39L133.27,101.38L133.49,101.27L133.71,101.08L133.90,100.83L133.84,100.80L133.66,101.04L133.46,101.22L133.25,101.32L133.05,101.33L133.01,101.31"/><path style="stroke:#000000;stroke-width:0.088" d="M132.79,101.15L132.79,101.10L132.76,100.89"/><path style="stroke:#000000;stroke-width:0.088" d="M133.07,101.39L133.05,101.33L132.89,101.26L132.90,101.31"/><path style="stroke:#000000;stroke-width:0.088" d="M132.89,101.26L132.79,101.10"/><path style="stroke:#000000;stroke-width:0.088" d="M133.04,93.91L133.07,93.92L133.06,93.90"/><path style="stroke:#000000;stroke-width:0.088" d="M133.07,93.92L133.27,93.91L133.49,93.80L133.46,93.75L133.66,93.57L133.71,93.61L133.49,93.80"/><path style="stroke:#000000;stroke-width:0.088" d="M133.13,92.40L133.12,92.41L133.05,92.44L133.00,92.44L132.95,92.41L132.93,92.36L132.92,92.29L132.93,92.21L132.97,92.13L133.02,92.05L133.08,91.99L133.14,91.95L133.20,91.94L133.25,91.95L133.29,91.99L133.31,92.06L133.30,92.13L133.28,92.21L133.24,92.29L133.18,92.36L133.13,92.40"/><path style="stroke:#000000;stroke-width:0.088" d="M133.27,101.38L133.25,101.32L133.21,101.30"/><path style="stroke:#000000;stroke-width:0.088" d="M133.71,101.08L133.66,101.04L133.65,101.03"/><path style="stroke:#000000;stroke-width:0.088" d="M133.90,100.83L134.03,100.55L134.11,100.26"/><path style="stroke:#000000;stroke-width:0.088" d="M133.49,101.27L133.46,101.22L133.43,101.20"/><path style="stroke:#000000;stroke-width:0.088" d="M133.90,99.68L133.84,99.70L133.66,99.67L133.47,99.72"/><path style="stroke:#000000;stroke-width:0.088" d="M133.66,99.67L133.71,99.65"/><path style="stroke:#000000;stroke-width:0.088" d="M134.11,100.01L134.04,100.01L133.97,99.82L133.92,99.79"/><path style="stroke:#000000;stroke-width:0.088" d="M133.84,99.70L133.97,99.82L134.03,99.80"/><path style="stroke:#000000;stroke-width:0.088" d="M133.14,93.85L133.25,93.85L133.21,93.83"/><path style="stroke:#000000;stroke-width:0.088" d="M133.27,93.91L133.25,93.85L133.46,93.75L133.43,93.73"/><path style="stroke:#000000;stroke-width:0.088" d="M133.71,93.61L133.82,93.46"/><path style="stroke:#000000;stroke-width:0.088" d="M133.65,93.56L133.66,93.57L133.68,93.54"/><path style="stroke:#000000;stroke-width:0.088" d="M133.13,85.22L137.00,87.45"/><path style="stroke:#000000;stroke-width:0.088" d="M134.21,105.56L134.04,105.30L134.04,105.35L134.21,105.61L134.47,105.74L134.46,105.68L134.21,105.56L134.21,105.61"/><path style="stroke:#000000;stroke-width:0.088" d="M134.47,105.74L134.79,105.72L134.77,105.66L134.46,105.68L134.31,105.60L134.63,105.57L134.97,105.41L135.11,105.49L134.77,105.66L134.63,105.57"/><path style="stroke:#000000;stroke-width:0.088" d="M135.87,103.40L135.87,103.81L135.75,104.27L135.53,104.72L135.23,105.12L134.89,105.42L134.56,105.58"/><path style="stroke:#000000;stroke-width:0.088" d="M134.31,105.60L134.19,105.54"/><path style="stroke:#000000;stroke-width:0.088" d="M134.79,105.72L135.14,105.55L135.48,105.25L135.78,104.86L135.99,104.41L136.11,103.96L136.11,103.56L135.99,103.24L135.78,103.04L135.48,102.99L135.14,103.09L134.79,103.33L134.47,103.67L134.21,104.10L134.04,104.55L133.99,104.99L134.04,105.35"/><path style="stroke:#000000;stroke-width:0.088" d="M134.19,105.53L134.23,105.55L134.54,105.53L134.88,105.36L135.21,105.07L135.50,104.69L135.71,104.26L135.82,103.83L135.82,103.43L135.71,103.13L135.62,103.05"/><path style="stroke:#000000;stroke-width:0.088" d="M135.23,103.08L135.23,103.10L135.23,103.49L135.12,103.93L134.91,104.36L134.63,104.74L134.30,105.03L134.02,105.16"/><path style="stroke:#000000;stroke-width:0.088" d="M134.00,104.86L134.02,104.86L134.28,104.74L134.53,104.53L134.74,104.24L134.90,103.92L134.98,103.59L134.99,103.44L134.98,103.29L134.95,103.22"/><path style="stroke:#000000;stroke-width:0.088" d="M134.04,105.30L133.99,104.97"/><path style="stroke:#000000;stroke-width:0.088" d="M134.60,102.09L134.55,102.12L134.58,102.15L134.60,102.19L134.60,102.24L134.59,102.31L134.56,102.39L134.52,102.47L134.51,102.48"/><path style="stroke:#000000;stroke-width:0.088" d="M134.55,102.12L134.26,102.29L134.24,102.33"/><path style="stroke:#000000;stroke-width:0.088" d="M134.26,102.29L134.21,102.31L134.86,102.69"/><path style="stroke:#000000;stroke-width:0.088" d="M134.01,99.99L134.04,100.01L134.05,100.13L134.04,100.26L134.01,100.24"/><path style="stroke:#000000;stroke-width:0.088" d="M134.03,100.55L133.97,100.53L133.95,100.52"/><path style="stroke:#000000;stroke-width:0.088" d="M134.79,92.42L134.47,92.44L134.46,92.38L134.77,92.36L135.11,92.19L135.44,91.91L135.72,91.53L135.78,91.56L135.48,91.95L135.14,92.25L134.79,92.42L134.77,92.36L134.63,92.28L134.31,92.30L134.19,92.24"/><path style="stroke:#000000;stroke-width:0.088" d="M134.63,92.28L134.97,92.11L135.30,91.82L135.58,91.44L135.79,91.01L135.90,90.58L136.04,90.66L136.11,90.67L135.99,91.12L135.78,91.56"/><path style="stroke:#000000;stroke-width:0.088" d="M134.47,92.44L134.21,92.31L134.04,92.05L134.04,92.00L134.21,92.26L134.46,92.38L134.31,92.30"/><path style="stroke:#000000;stroke-width:0.088" d="M134.21,92.31L134.21,92.26"/><path style="stroke:#000000;stroke-width:0.088" d="M135.62,89.75L135.71,89.83L135.82,90.13L135.82,90.53L135.71,90.96L135.50,91.40L135.21,91.78L134.88,92.06L134.54,92.23L134.23,92.25L134.19,92.23"/><path style="stroke:#000000;stroke-width:0.088" d="M135.87,90.10L135.87,90.51L135.75,90.97L135.53,91.42L135.23,91.82L134.89,92.12L134.56,92.28"/><path style="stroke:#000000;stroke-width:0.088" d="M135.23,89.78L135.23,89.80L135.23,90.19L135.12,90.63L134.91,91.06L134.63,91.44L134.30,91.73L134.02,91.86"/><path style="stroke:#000000;stroke-width:0.088" d="M134.95,89.92L134.98,89.99L134.98,90.29L134.90,90.62L134.74,90.94L134.53,91.23L134.28,91.44L134.02,91.56L134.00,91.57"/><path style="stroke:#000000;stroke-width:0.088" d="M133.99,91.67L134.04,92.00"/><path style="stroke:#000000;stroke-width:0.088" d="M134.04,92.05L133.99,91.69L134.04,91.25L134.21,90.80L134.47,90.38L134.79,90.03L135.14,89.79L135.48,89.69L135.44,89.72L135.72,89.77L135.78,89.75L135.99,89.94L136.11,90.26L136.04,90.27L135.93,89.96L135.72,89.77"/><path style="stroke:#000000;stroke-width:0.088" d="M134.60,88.08L134.60,88.53"/><path style="stroke:#000000;stroke-width:0.088" d="M135.48,105.25L135.44,105.21L135.72,104.83L135.93,104.39L136.04,103.96L135.90,103.88L135.79,104.31L135.93,104.39L135.99,104.41"/><path style="stroke:#000000;stroke-width:0.088" d="M135.14,105.55L135.11,105.49L135.44,105.21L135.30,105.12L134.97,105.41"/><path style="stroke:#000000;stroke-width:0.088" d="M135.30,105.12L135.58,104.74L135.79,104.31"/><path style="stroke:#000000;stroke-width:0.088" d="M135.48,102.99L135.44,103.02L135.72,103.07L135.78,103.04"/><path style="stroke:#000000;stroke-width:0.088" d="M135.44,103.02L135.12,103.11"/><path style="stroke:#000000;stroke-width:0.088" d="M135.05,99.59L137.64,101.08"/><path style="stroke:#000000;stroke-width:0.088" d="M135.14,92.25L135.11,92.19L134.97,92.11"/><path style="stroke:#000000;stroke-width:0.088" d="M135.12,89.81L135.44,89.72"/><path style="stroke:#000000;stroke-width:0.088" d="M135.48,89.69L135.78,89.75"/><path style="stroke:#000000;stroke-width:0.088" d="M135.25,89.31L135.25,88.46"/><path style="stroke:#000000;stroke-width:0.088" d="M135.58,104.74L135.78,104.86"/><path style="stroke:#000000;stroke-width:0.088" d="M136.11,103.96L136.04,103.96L136.04,103.56L136.11,103.56"/><path style="stroke:#000000;stroke-width:0.088" d="M135.72,103.07L135.93,103.26L135.99,103.24"/><path style="stroke:#000000;stroke-width:0.088" d="M135.90,103.48L136.04,103.56L135.93,103.26L135.79,103.17L135.90,103.48L135.90,103.88"/><path style="stroke:#000000;stroke-width:0.088" d="M135.79,103.17L135.66,103.06"/><path style="stroke:#000000;stroke-width:0.088" d="M135.58,91.44L135.72,91.53L135.93,91.09L135.99,91.12"/><path style="stroke:#000000;stroke-width:0.088" d="M136.11,90.67L136.11,90.26"/><path style="stroke:#000000;stroke-width:0.088" d="M135.79,91.01L135.93,91.09L136.04,90.66L136.06,90.45L136.04,90.27L135.90,90.18L135.90,90.58"/><path style="stroke:#000000;stroke-width:0.088" d="M135.99,89.94L135.93,89.96L135.79,89.87L135.66,89.76"/><path style="stroke:#000000;stroke-width:0.088" d="M135.79,89.87L135.90,90.18"/><path style="stroke:#000000;stroke-width:0.088" d="M136.77,103.97L136.78,104.02L136.82,104.06L136.87,104.08L136.93,104.07L136.99,104.03L137.05,103.98L137.10,103.90L137.14,103.82L137.16,103.74L137.16,103.72L137.15,103.67L137.13,103.61L137.09,103.58L137.03,103.58L136.97,103.60L136.90,103.65L136.85,103.72L136.80,103.79L136.78,103.88L136.77,103.95L136.77,103.97"/><path style="stroke:#000000;stroke-width:0.088" d="M136.78,103.97L136.78,103.97L136.81,104.01L136.85,104.02L136.90,104.02L136.96,103.98L137.01,103.94L137.05,103.87L137.08,103.80L137.10,103.74L137.09,103.68L137.07,103.63L137.04,103.60L136.99,103.60L136.95,103.61"/><path style="stroke:#000000;stroke-width:0.088" d="M136.78,103.97L136.77,103.93"/><path style="stroke:#000000;stroke-width:0.088" d="M136.99,102.91L137.05,102.86L137.10,102.78L137.14,102.70L137.16,102.62L137.15,102.55L137.13,102.49L137.09,102.46L137.03,102.46L136.97,102.48L136.90,102.53L136.85,102.59L136.80,102.67L136.78,102.76L136.77,102.83L136.78,102.90L136.82,102.94L136.87,102.96L136.93,102.95L136.99,102.91"/><path style="stroke:#000000;stroke-width:0.088" d="M136.95,102.49L136.99,102.48L137.04,102.48L137.07,102.51L137.09,102.55L137.10,102.62L137.08,102.68L137.05,102.75L137.01,102.82L136.96,102.87L136.90,102.90L136.85,102.90L136.81,102.89L136.78,102.85L136.77,102.81"/><path style="stroke:#000000;stroke-width:0.088" d="M137.05,90.68L136.99,90.73L136.93,90.77L136.87,90.78L136.82,90.76L136.78,90.72L136.77,90.65L136.78,90.58L136.80,90.49L136.85,90.42L136.90,90.35L136.97,90.30L137.03,90.28L137.09,90.28L137.13,90.31L137.15,90.37L137.16,90.42L137.16,90.44L137.14,90.52L137.10,90.60L137.05,90.68"/><path style="stroke:#000000;stroke-width:0.088" d="M136.95,90.31L136.99,90.30L137.04,90.30L137.07,90.33L137.09,90.38L137.10,90.44L137.08,90.51L137.05,90.58L137.01,90.64L136.96,90.69L136.90,90.72L136.85,90.72L136.81,90.71L136.78,90.67L136.77,90.63"/><path style="stroke:#000000;stroke-width:0.088" d="M136.93,89.65L136.87,89.66L136.82,89.64L136.78,89.60L136.77,89.53L136.78,89.46L136.80,89.37L136.85,89.29L136.90,89.23L136.97,89.18L137.03,89.16L137.09,89.16L137.13,89.19L137.15,89.25L137.16,89.32L137.14,89.40L137.10,89.48L137.05,89.56L136.99,89.61L136.93,89.65"/><path style="stroke:#000000;stroke-width:0.088" d="M136.78,89.55L136.77,89.51L136.78,89.55L136.81,89.59L136.85,89.60L136.90,89.60L136.96,89.57L137.01,89.52L137.05,89.45L137.08,89.38L137.10,89.32L137.10,89.26L137.07,89.21L137.10,89.26"/><path style="stroke:#000000;stroke-width:0.088" d="M136.95,89.19L136.99,89.18L137.04,89.18L137.07,89.21"/><path style="stroke:#000000;stroke-width:0.088" d="M136.74,87.30L137.09,87.50"/><path style="stroke:#000000;stroke-width:0.088" d="M61.48,90.25L61.48,88.68L62.45,88.12L62.45,89.69L61.48,90.25L58.89,88.76L58.24,87.64L58.24,83.15L58.89,82.78L61.48,84.28L61.48,88.53L62.45,87.97L62.45,83.72L59.86,82.22L59.64,82.35"/><path style="stroke:#000000;stroke-width:0.088" d="M61.48,88.53L60.50,87.97L60.43,87.56L60.25,87.13L59.98,86.75L59.67,86.45L59.34,86.28L59.03,86.24L58.78,86.35L58.62,86.58L58.57,86.93L58.62,87.34L58.78,87.76L59.03,88.16L59.34,88.47L59.67,88.68L59.98,88.74L60.25,88.66L60.43,88.45L60.50,88.12L61.48,88.68"/><path style="stroke:#000000;stroke-width:0.088" d="M58.63,85.31L58.58,85.23L58.54,85.15L58.52,85.06L58.52,84.98L58.55,84.92L58.59,84.89L58.66,84.88L58.72,84.91L58.79,84.96L58.85,85.03L58.90,85.12L58.93,85.21L58.94,85.27L58.94,85.29L58.92,85.36L58.89,85.41L58.83,85.42L58.77,85.41L58.70,85.38L58.63,85.31"/><path style="stroke:#000000;stroke-width:0.088" d="M59.03,85.08L59.26,85.36L59.52,85.57L59.78,85.68L60.02,85.68L60.20,85.56L60.32,85.35L60.35,85.12L60.34,85.06L60.28,84.72L60.14,84.38L59.98,84.13L59.94,84.07L59.69,83.82L59.42,83.66L59.17,83.60L58.95,83.67L58.80,83.83L58.73,84.09L58.75,84.40L58.85,84.75L59.03,85.08"/><path style="stroke:#000000;stroke-width:0.088" d="M59.86,82.22L58.89,82.78L58.92,82.76"/><path style="stroke:#000000;stroke-width:0.088" d="M60.58,88.08L60.31,87.91L60.00,87.59L59.75,87.20L59.59,86.78L59.54,86.38"/><path style="stroke:#000000;stroke-width:0.088" d="M60.15,86.08L60.14,85.99L60.14,85.91L60.17,85.86L60.21,85.82L60.27,85.82L60.34,85.84L60.41,85.89L60.47,85.97L60.52,86.05L60.55,86.14L60.56,86.21L60.56,86.22L60.54,86.29L60.50,86.34L60.45,86.36L60.38,86.35L60.32,86.31L60.25,86.25L60.19,86.17L60.15,86.08"/><path style="stroke:#000000;stroke-width:0.088" d="M59.72,83.85L59.82,84.19L60.00,84.52L60.23,84.80L60.31,84.87"/><path style="stroke:#000000;stroke-width:0.088" d="M60.50,88.12L60.63,88.05"/><path style="stroke:#000000;stroke-width:0.088" d="M62.45,83.72L61.48,84.28"/><path style="stroke:#000000;stroke-width:0.088" d="M61.75,83.87L61.77,83.86L61.84,83.80L61.87,83.73L61.85,83.66L61.81,83.60L61.80,83.59L61.71,83.54L61.60,83.50L61.47,83.49L61.34,83.50L61.23,83.54L61.15,83.60L61.10,83.66L61.09,83.74L61.12,83.81L61.20,83.87L61.30,83.91L61.42,83.94L61.55,83.94L61.67,83.91L61.75,83.87"/><path style="stroke:#000000;stroke-width:0.088" d="M62.45,88.12L62.32,88.05"/><path style="stroke:#000000;stroke-width:0.088" d="M47.79,58.39L47.71,58.21L47.69,57.98L47.75,57.71L47.87,57.43L48.04,57.19L48.24,57.00L48.46,56.88L48.66,56.85L48.82,56.91L49.08,57.06L48.92,57.00L48.72,57.03L48.62,57.08L48.50,57.14L48.30,57.34L48.13,57.58L48.01,57.85L47.95,58.12L47.97,58.36L48.01,58.46L48.05,58.54L48.19,58.65L47.93,58.50L47.79,58.39"/><path style="stroke:#000000;stroke-width:0.088" d="M49.88,57.52L49.28,57.17L49.11,57.11L48.91,57.14L48.70,57.26L48.49,57.45L48.32,57.69L48.20,57.97L48.17,58.14L48.15,58.24L48.16,58.47L48.24,58.65L48.38,58.76L48.93,59.08L48.80,58.96L48.75,58.81L48.73,58.77L48.73,58.52L48.80,58.25L48.91,58.03L48.93,57.98L49.11,57.74L49.32,57.57L49.53,57.46L49.73,57.45L49.88,57.52L49.92,57.56L50.02,57.71L50.04,57.75L50.07,57.96L50.07,58.00L50.04,58.24L49.95,58.49L49.80,58.73L49.62,58.92L49.43,59.05L49.40,59.07L49.20,59.13L49.16,59.13L48.98,59.10L48.93,59.08"/><path style="stroke:#000000;stroke-width:0.088" d="M49.09,57.11L49.06,57.09L48.90,57.04L48.71,57.07L48.51,57.18L48.32,57.36L48.15,57.59L48.04,57.85L48.02,57.94L47.98,58.11L48.00,58.34L48.07,58.51L48.21,58.61L48.22,58.61"/><path style="stroke:#000000;stroke-width:0.088" d="M48.19,58.65L48.24,58.65"/><path style="stroke:#000000;stroke-width:0.088" d="M49.05,58.90L49.15,59.00L49.29,59.02L49.46,58.97L49.63,58.86L49.79,58.69L49.91,58.48L49.92,58.45L49.99,58.26L50.02,58.05L49.99,57.88L49.91,57.75L49.79,57.69L49.63,57.70L49.46,57.78L49.41,57.83L49.29,57.93L49.15,58.12L49.05,58.33L48.99,58.55L48.99,58.75L49.05,58.90"/><path style="stroke:#000000;stroke-width:0.088" d="M49.13,57.11L49.08,57.06"/><path style="stroke:#000000;stroke-width:0.088" d="M83.68,65.37L44.35,42.67"/><path style="stroke:#000000;stroke-width:0.088" d="M45.24,41.08L85.50,64.32"/><path style="stroke:#000000;stroke-width:0.088" d="M124.60,89.00L88.65,68.24"/><path style="stroke:#000000;stroke-width:0.088" d="M89.57,66.67L126.43,87.95"/><path style="stroke:#000000;stroke-width:0.088" d="M133.25,93.79L133.45,93.72L133.17,93.84"/><path style="stroke:#000000;stroke-width:0.088" d="M133.41,93.73L133.39,93.75"/><path style="stroke:#000000;stroke-width:0.088" d="M133.45,93.72L133.62,93.58"/><path style="stroke:#000000;stroke-width:0.088" d="M38.56,58.26L38.64,58.31L33.14,55.13L33.16,55.14"/><path style="stroke:#000000;stroke-width:0.088" d="M33.14,55.13L33.14,51.58L34.76,52.52L34.76,48.41L34.76,42.69L33.14,41.76L33.14,38.32L38.00,41.12L38.00,57.93L37.61,57.71"/><path style="stroke:#000000;stroke-width:0.088" d="M33.14,51.58L34.76,50.65"/><path style="stroke:#000000;stroke-width:0.088" d="M33.14,38.32L33.79,37.20L39.74,33.76L40.39,34.14L40.78,33.91L40.13,33.54L41.88,32.53L42.00,32.60L41.95,32.57"/><path style="stroke:#000000;stroke-width:0.088" d="M33.79,37.20L38.64,40.00L38.00,41.12"/><path style="stroke:#000000;stroke-width:0.088" d="M35.48,50.29L35.21,49.73L35.07,49.17L35.07,48.67L35.21,48.28L35.48,48.03L35.85,47.97L36.27,48.09L36.71,48.38L37.11,48.82L37.43,49.34L37.63,49.91L37.71,50.44L37.63,50.90L37.43,51.22L37.10,51.38L36.70,51.35L36.27,51.14L35.87,50.79L35.85,50.77L35.48,50.29"/><path style="stroke:#000000;stroke-width:0.088" d="M36.30,48.11L35.89,47.99L35.54,48.05L35.27,48.29L35.14,48.68L35.14,49.17L35.21,49.48L35.27,49.71L35.54,50.25L35.89,50.73L36.30,51.09L36.73,51.29L37.12,51.32L37.43,51.17L37.64,50.85L37.70,50.42"/><path style="stroke:#000000;stroke-width:0.088" d="M35.62,47.15L35.55,47.11L35.49,47.09L35.44,47.10L35.40,47.14L35.38,47.20L35.38,47.27L35.40,47.35L35.44,47.43L35.49,47.50L35.55,47.56L35.62,47.59L35.68,47.59L35.72,47.57L35.75,47.52L35.76,47.46L35.75,47.38L35.72,47.29L35.68,47.22L35.62,47.15"/><path style="stroke:#000000;stroke-width:0.088" d="M35.58,47.13L35.53,47.11L35.49,47.12L35.45,47.15L35.44,47.20L35.44,47.26L35.45,47.31L35.45,47.33L35.49,47.40L35.53,47.46L35.59,47.51L35.64,47.53L35.69,47.54L35.73,47.52L35.76,47.48L35.76,47.44"/><path style="stroke:#000000;stroke-width:0.088" d="M36.32,47.62L36.54,47.73L36.76,47.75L36.93,47.68L37.05,47.51L37.09,47.27L37.06,46.98L36.95,46.68L36.78,46.39L36.57,46.16L36.38,46.02L36.34,45.99L36.11,45.92L35.91,45.95L35.76,46.08L35.68,46.28L35.68,46.55L35.75,46.85L35.89,47.15L36.08,47.41L36.32,47.62"/><path style="stroke:#000000;stroke-width:0.088" d="M37.11,48.44L37.17,48.49L37.24,48.52L37.29,48.53L37.34,48.50L37.37,48.46L37.38,48.39L37.37,48.31L37.34,48.23L37.29,48.15L37.24,48.09L37.17,48.04L37.11,48.03L37.06,48.04L37.02,48.07L37.00,48.13L36.99,48.17L37.00,48.20L37.02,48.29L37.06,48.37L37.11,48.44"/><path style="stroke:#000000;stroke-width:0.088" d="M37.38,48.37L37.37,48.41L37.35,48.45L37.31,48.47L37.26,48.47L37.20,48.44L37.15,48.40L37.11,48.34L37.07,48.27L37.07,48.25L37.05,48.20L37.05,48.14L37.07,48.09L37.11,48.06L37.15,48.05L37.20,48.06"/><path style="stroke:#000000;stroke-width:0.088" d="M38.64,58.31L46.73,53.64L47.38,52.52L47.38,51.89"/><path style="stroke:#000000;stroke-width:0.088" d="M38.39,55.56L38.30,55.73L38.24,55.91L38.22,56.05L38.22,56.08L38.26,56.21L38.33,56.31L38.44,56.35L38.57,56.33L38.70,56.25L38.84,56.13L38.95,55.97L39.03,55.79L39.06,55.61L39.05,55.46L39.00,55.34L38.91,55.27L38.79,55.27L38.65,55.31L38.52,55.42L38.39,55.56"/><path style="stroke:#000000;stroke-width:0.088" d="M38.33,43.01L38.44,43.05L38.57,43.03L38.70,42.95L38.83,42.83L38.95,42.67L39.03,42.49L39.06,42.31L39.05,42.16L39.00,42.04L38.91,41.98L38.79,41.97L38.65,42.01L38.52,42.12L38.39,42.26L38.30,42.43L38.24,42.61L38.22,42.75L38.22,42.78L38.26,42.92L38.33,43.01"/><path style="stroke:#000000;stroke-width:0.088" d="M38.64,40.00L46.73,35.33L46.75,35.35L46.02,34.92L46.73,35.33"/><path style="stroke:#000000;stroke-width:0.088" d="M40.13,33.54L40.13,33.99"/><path style="stroke:#000000;stroke-width:0.088" d="M42.00,32.60L42.79,33.06L42.00,32.60"/><path style="stroke:#000000;stroke-width:0.088" d="M42.58,51.41L42.60,51.40L42.66,51.32L42.71,51.24L42.73,51.15L42.74,51.06L42.72,50.99L42.68,50.95L42.62,50.93L42.56,50.95L42.49,50.99L42.42,51.06L42.37,51.14L42.33,51.23L42.31,51.32L42.32,51.39L42.35,51.45L42.40,51.48L42.46,51.48L42.53,51.45L42.58,51.41"/><path style="stroke:#000000;stroke-width:0.088" d="M42.79,33.06L46.06,34.95"/><path style="stroke:#000000;stroke-width:0.088" d="M44.38,53.28L44.28,53.28L44.10,53.15L44.00,52.92L43.98,52.72L43.99,52.62L44.06,52.29L44.21,51.95L44.42,51.64L44.67,51.40L44.94,51.25L45.19,51.21L45.40,51.29L45.54,51.47L45.60,51.73L45.57,52.05L45.46,52.40L45.27,52.73L45.04,53.00L44.77,53.20L44.51,53.29L44.38,53.28"/><path style="stroke:#000000;stroke-width:0.088" d="M43.98,52.70L44.00,52.88L44.10,53.09L44.27,53.22L44.49,53.23L44.74,53.14L45.00,52.95L45.22,52.69L45.40,52.37L45.51,52.04L45.53,51.73L45.48,51.48L45.34,51.31L45.14,51.24L44.90,51.27L44.67,51.40"/><path style="stroke:#000000;stroke-width:0.088" d="M45.38,48.63L45.30,48.53L45.13,48.47L44.92,48.50L44.69,48.62L44.48,48.82L44.30,49.08L44.17,49.37L44.12,49.65L44.13,49.90L44.21,50.09L44.36,50.20L44.47,50.21"/><path style="stroke:#000000;stroke-width:0.088" d="M44.35,50.14L44.21,50.04L44.13,49.86L44.12,49.82"/><path style="stroke:#000000;stroke-width:0.088" d="M45.38,41.15L45.30,41.06L45.13,40.99L44.92,41.03L44.69,41.15L44.48,41.35L44.30,41.61L44.17,41.90L44.12,42.18L44.13,42.43L44.21,42.62L44.36,42.73L44.47,42.74"/><path style="stroke:#000000;stroke-width:0.088" d="M44.12,42.35L44.13,42.38L44.21,42.56L44.35,42.67"/><path style="stroke:#000000;stroke-width:0.088" d="M44.03,39.68L44.10,39.85L44.28,39.98L44.51,39.99L44.77,39.90L45.04,39.70L45.27,39.43L45.46,39.10L45.57,38.75L45.60,38.43L45.54,38.17L45.40,37.99L45.19,37.91L44.94,37.95L44.67,38.10L44.42,38.34L44.21,38.65L44.06,38.99L43.99,39.32L43.98,39.42L44.00,39.62L44.03,39.68"/><path style="stroke:#000000;stroke-width:0.088" d="M44.68,38.10L44.90,37.97L45.14,37.94L45.34,38.01L45.48,38.18L45.53,38.44L45.51,38.74L45.40,39.07L45.22,39.39L45.00,39.66L44.74,39.84L44.49,39.93L44.27,39.92L44.10,39.79L44.00,39.58L43.98,39.40"/><path style="stroke:#000000;stroke-width:0.088" d="M45.08,48.49L44.88,48.52L44.69,48.62"/><path style="stroke:#000000;stroke-width:0.088" d="M45.08,48.49L45.24,48.55"/><path style="stroke:#000000;stroke-width:0.088" d="M45.24,41.08L45.08,41.02"/><path style="stroke:#000000;stroke-width:0.088" d="M45.08,41.02L44.88,41.05L44.69,41.15"/><path style="stroke:#000000;stroke-width:0.088" d="M46.41,49.22L46.41,43.86"/><path style="stroke:#000000;stroke-width:0.088" d="M46.41,48.41L47.38,48.97L46.67,49.37"/><path style="stroke:#000000;stroke-width:0.088" d="M46.75,35.35L47.38,35.71L47.38,39.14L46.41,39.70L46.41,41.75"/><path style="stroke:#000000;stroke-width:0.088" d="M47.38,48.97L47.38,49.78"/><path style="stroke:#000000;stroke-width:0.088" d="M79.08,70.19L44.35,50.14"/><path style="stroke:#000000;stroke-width:0.088" d="M79.38,68.26L45.24,48.55"/><path style="stroke:#000000;stroke-width:0.088" d="M123.41,95.78L88.65,75.71"/><path style="stroke:#000000;stroke-width:0.088" d="M123.41,93.68L89.55,74.13"/><path style="stroke:#000000;stroke-width:0.088" d="M133.84,99.70L133.96,99.83L134.02,100.04L134.02,100.12L133.97,99.93L133.86,99.81L133.70,99.77L133.52,99.81L133.33,99.92L133.15,100.10L133.00,100.33L132.90,100.58L132.86,100.82L132.88,101.02L132.96,101.18L133.09,101.26L133.26,101.26L133.45,101.19L133.64,101.04L133.80,100.83L133.93,100.59L134.00,100.35L134.02,100.12L134.02,100.14"/><path style="stroke:#000000;stroke-width:0.088" d="M132.95,101.28L132.89,101.24"/><path style="stroke:#000000;stroke-width:0.088" d="M133.41,101.20L133.18,101.31L133.00,101.31"/><path style="stroke:#000000;stroke-width:0.088" d="M133.22,100.81L133.27,100.85L133.35,100.85L133.43,100.82L133.52,100.76L133.59,100.67L133.65,100.57L133.70,100.37L133.68,100.27L133.63,100.21L133.56,100.19L133.48,100.20L133.40,100.25L133.32,100.32L133.25,100.42L133.20,100.53L133.18,100.64L133.18,100.73L133.22,100.81"/><path style="stroke:#000000;stroke-width:0.088" d="M133.45,101.19L133.39,101.22"/><path style="stroke:#000000;stroke-width:0.088" d="M133.18,100.64L133.21,100.74L133.26,100.78L133.32,100.78L133.39,100.76L133.46,100.70L133.58,100.54L133.62,100.37L133.60,100.28L133.56,100.24L133.51,100.22L133.40,100.25"/><path style="stroke:#000000;stroke-width:0.088" d="M13.47,62.54L13.27,62.42L13.27,60.85L14.25,61.41L14.32,61.83L14.50,62.25L14.77,62.63L15.08,62.93L15.41,63.11L15.72,63.15L15.97,63.04L16.13,62.80L16.18,62.46L16.13,62.05L15.97,61.63L15.72,61.23L15.41,60.91L15.08,60.71L14.77,60.65L14.50,60.72L14.32,60.94L14.25,61.26L13.27,60.70L13.27,56.44L15.86,57.94L16.51,59.06L16.51,63.54L15.86,63.92L13.47,62.54"/><path style="stroke:#000000;stroke-width:0.088" d="M13.27,60.85L13.40,60.78"/><path style="stroke:#000000;stroke-width:0.088" d="M13.27,56.44L14.24,55.88L16.83,57.38L15.86,57.94"/><path style="stroke:#000000;stroke-width:0.088" d="M14.25,61.41L15.22,60.85L15.29,61.27L15.47,61.69L15.74,62.07L16.05,62.37L16.18,62.44"/><path style="stroke:#000000;stroke-width:0.088" d="M15.14,60.75L14.25,61.26"/><path style="stroke:#000000;stroke-width:0.088" d="M14.21,59.52L14.21,59.54L14.25,59.63L14.30,59.71L14.37,59.78L14.43,59.82L14.50,59.84L14.56,59.82L14.60,59.78L14.61,59.71L14.61,59.63L14.58,59.54L14.54,59.45L14.48,59.38L14.41,59.32L14.34,59.30L14.28,59.30L14.23,59.33L14.20,59.38L14.19,59.44L14.19,59.46L14.21,59.52"/><path style="stroke:#000000;stroke-width:0.088" d="M14.25,56.67L14.12,56.66L14.01,56.62L13.92,56.57L13.87,56.50L13.85,56.43L13.88,56.36L13.95,56.30L13.97,56.29L14.05,56.25L14.17,56.22L14.30,56.22L14.42,56.24L14.52,56.29L14.60,56.35L14.63,56.42L14.62,56.49L14.57,56.56L14.49,56.62L14.38,56.66L14.25,56.67"/><path style="stroke:#000000;stroke-width:0.088" d="M15.28,58.35L15.21,58.31L15.07,58.25L14.87,58.23L14.71,58.30L14.61,58.45L14.57,58.67L14.60,58.93L14.69,59.21L14.85,59.47L15.04,59.68L15.25,59.83L15.46,59.89L15.64,59.87L15.78,59.75L15.85,59.57L15.85,59.32L15.79,59.05L15.66,58.78L15.49,58.54L15.28,58.35L15.19,58.31L15.02,58.30L14.88,58.36L14.81,58.47L14.79,58.49L14.76,58.67L14.79,58.89L14.87,59.13L15.00,59.35L15.16,59.53L15.34,59.66L15.52,59.71L15.67,59.69L15.79,59.59L15.85,59.43L15.85,59.32"/><path style="stroke:#000000;stroke-width:0.088" d="M15.82,60.32L15.81,60.38L15.81,60.39L15.83,60.48L15.86,60.57L15.92,60.65L15.98,60.71L16.05,60.76L16.12,60.77L16.17,60.75L16.21,60.71L16.23,60.64L16.23,60.56L16.20,60.47L16.16,60.39L16.09,60.31L16.03,60.26L15.96,60.23L15.90,60.23L15.85,60.26L15.82,60.32"/><path style="stroke:#000000;stroke-width:0.088" d="M15.22,60.85L15.09,60.78"/><path style="stroke:#000000;stroke-width:0.088" d="M15.86,63.92L16.59,63.49L16.51,63.54"/><path style="stroke:#000000;stroke-width:0.088" d="M16.59,63.49L17.20,63.14"/><path style="stroke:#000000;stroke-width:0.088" d="M16.51,59.06L17.48,58.50L17.48,62.98L16.64,63.46"/><path style="stroke:#000000;stroke-width:0.088" d="M17.48,58.50L16.83,57.38"/><path style="stroke:#000000;stroke-width:0.088" d="M104.96,113.64L104.83,113.71L105.80,114.27L105.80,115.84L103.21,114.35L102.57,113.23L102.57,108.74L104.18,107.81L106.77,109.30L105.80,109.87L103.21,108.37L103.24,108.35"/><path style="stroke:#000000;stroke-width:0.088" d="M105.80,109.87L105.80,114.12L104.83,113.56L104.75,113.15L104.57,112.72L104.31,112.34L103.99,112.04L103.66,111.87L103.36,111.83L103.11,111.94L102.94,112.17L102.89,112.52L102.94,112.93L103.11,113.35L103.36,113.75L103.66,114.06L103.99,114.26L104.31,114.33L104.57,114.25L104.75,114.04L104.83,113.71"/><path style="stroke:#000000;stroke-width:0.088" d="M102.87,110.51L102.85,110.57L102.84,110.65L102.86,110.74L102.90,110.82L102.95,110.90L103.02,110.97L103.09,111.00L103.15,111.01L103.21,110.99L103.24,110.95L103.26,110.88L103.26,110.86L103.25,110.80L103.22,110.71L103.18,110.62L103.11,110.55L103.05,110.50L102.98,110.47L102.92,110.48L102.87,110.51"/><path style="stroke:#000000;stroke-width:0.088" d="M103.59,110.76L103.79,110.94L104.00,111.05L104.20,111.07L104.36,111.00L104.40,110.95L104.47,110.85L104.51,110.63L104.48,110.37L104.46,110.32L104.38,110.09L104.22,109.83L104.03,109.62L103.86,109.49L103.82,109.47L103.61,109.41L103.43,109.43L103.30,109.54L103.22,109.73L103.22,109.98L103.28,110.25L103.41,110.52L103.59,110.76"/><path style="stroke:#000000;stroke-width:0.088" d="M104.50,110.56L104.47,110.70L104.38,110.83L104.25,110.89L104.08,110.87L103.90,110.78L103.72,110.63L103.58,110.42L103.47,110.19L103.41,109.96L103.42,109.75L103.48,109.59L103.59,109.50L103.75,109.47L103.90,109.52"/><path style="stroke:#000000;stroke-width:0.088" d="M103.53,110.32L103.49,110.25"/><path style="stroke:#000000;stroke-width:0.088" d="M104.90,113.67L104.63,113.50L104.33,113.18L104.08,112.79L103.92,112.37L103.86,111.97"/><path style="stroke:#000000;stroke-width:0.088" d="M104.52,111.76L104.48,111.67L104.46,111.58L104.46,111.50L104.49,111.45L104.54,111.41L104.60,111.41L104.66,111.43L104.73,111.48L104.79,111.55L104.84,111.64L104.87,111.73L104.88,111.80L104.88,111.81L104.86,111.88L104.83,111.93L104.77,111.95L104.71,111.94L104.64,111.90L104.60,111.87L104.57,111.84L104.52,111.76"/><path style="stroke:#000000;stroke-width:0.088" d="M105.80,115.84L106.77,115.28L106.77,113.71L105.80,114.27"/><path style="stroke:#000000;stroke-width:0.088" d="M105.80,114.12L106.77,113.56L106.77,109.30"/><path style="stroke:#000000;stroke-width:0.088" d="M105.88,109.52L105.87,109.53L105.74,109.53L105.62,109.50L105.52,109.46L105.45,109.40L105.41,109.33L105.42,109.25L105.47,109.19L105.56,109.13L105.67,109.09L105.79,109.08L105.92,109.09L106.03,109.13L106.12,109.18L106.18,109.25L106.19,109.32L106.16,109.39L106.09,109.45L106.08,109.46L105.99,109.50L105.88,109.52"/><path style="stroke:#000000;stroke-width:0.088" d="M106.77,113.71L106.64,113.64"/><path style="stroke:#000000;stroke-width:0.088" d="M149.04,103.63L148.82,103.49L148.69,103.23L148.66,102.88L148.74,102.47L148.91,102.06L149.16,101.69L149.46,101.39L149.77,101.21L149.78,101.21L150.09,101.15L150.34,101.23L150.57,101.36L150.31,101.30L150.00,101.37L149.68,101.58L149.39,101.88L149.14,102.26L148.98,102.68L148.92,103.07L148.96,103.42L148.98,103.45L149.11,103.66L149.33,103.79L149.62,103.78L149.90,103.66L149.94,103.64L150.00,103.60L150.29,103.36L150.55,103.04L150.74,102.66L150.84,102.28L150.86,102.03L150.85,101.93L150.77,101.65L150.59,101.47L150.35,101.42L150.06,101.49L149.76,101.68L149.48,101.97L149.26,102.32L149.11,102.71L149.05,103.08L149.09,103.39L149.22,103.63L149.44,103.74L149.71,103.74L150.00,103.60"/><path style="stroke:#000000;stroke-width:0.088" d="M149.33,103.79L149.04,103.63"/><path style="stroke:#000000;stroke-width:0.088" d="M149.77,103.29L149.75,103.29L149.59,103.27L149.48,103.18L149.42,103.02L149.41,102.82L149.46,102.58L149.57,102.35L149.72,102.15L149.89,101.99L150.07,101.90L150.24,101.88L150.38,101.94L150.47,102.07L150.50,102.25L150.48,102.47L150.40,102.71L150.27,102.93L150.11,103.11L149.93,103.24L149.77,103.29"/><path style="stroke:#000000;stroke-width:0.088" d="M149.46,102.77L149.52,102.78L149.61,102.75L149.71,102.68L149.79,102.59L149.86,102.47L149.91,102.35L149.92,102.23L149.91,102.13L149.87,102.07"/><path style="stroke:#000000;stroke-width:0.088" d="M149.43,102.72L149.44,102.75L149.51,102.80L149.59,102.81L149.68,102.78L149.78,102.71L149.86,102.62L149.93,102.50L149.97,102.38L149.99,102.27L149.99,102.26L149.97,102.16L149.92,102.09L149.85,102.06L149.81,102.07"/><path style="stroke:#000000;stroke-width:0.088" d="M150.57,101.36L150.76,101.55L150.85,101.85L150.86,101.96L150.86,102.03"/><path style="stroke:#000000;stroke-width:0.088" d="M149.04,111.10L148.82,110.96L148.69,110.70L148.66,110.35L148.74,109.95L148.91,109.54L149.16,109.16L149.46,108.86L149.78,108.68L150.09,108.62L150.34,108.70L150.57,108.83L150.31,108.77L150.00,108.84L149.68,109.05L149.39,109.36L149.14,109.74L148.98,110.15L148.92,110.55L148.96,110.89L148.98,110.92L149.11,111.13L149.33,111.26L149.62,111.25L149.94,111.11"/><path style="stroke:#000000;stroke-width:0.088" d="M149.33,111.26L149.04,111.10"/><path style="stroke:#000000;stroke-width:0.088" d="M150.86,109.50L150.84,109.75L150.74,110.13L150.55,110.51L150.29,110.83L150.00,111.08L149.71,111.21L149.44,111.22L149.22,111.10L149.09,110.87L149.05,110.55L149.11,110.18L149.26,109.79L149.48,109.44L149.76,109.15L150.06,108.96L150.35,108.89L150.59,108.95L150.77,109.12L150.85,109.40L150.86,109.50L150.86,109.43L150.85,109.32L150.76,109.02L150.57,108.83"/><path style="stroke:#000000;stroke-width:0.088" d="M149.77,110.76L149.75,110.77L149.59,110.75L149.48,110.65L149.42,110.49L149.41,110.32L149.41,110.29L149.46,110.06L149.57,109.83L149.72,109.62L149.89,109.46L150.07,109.37L150.24,109.35L150.38,109.41L150.47,109.54L150.50,109.72L150.48,109.94L150.40,110.18L150.27,110.40L150.11,110.58L149.93,110.71L149.77,110.76"/><path style="stroke:#000000;stroke-width:0.088" d="M149.87,109.54L149.91,109.60L149.92,109.70L149.91,109.82L149.86,109.94L149.79,110.06L149.71,110.15L149.61,110.22L149.52,110.25L149.46,110.24"/><path style="stroke:#000000;stroke-width:0.088" d="M149.43,110.19L149.44,110.22L149.51,110.27L149.59,110.28L149.68,110.25L149.78,110.19L149.86,110.10L149.86,110.09L149.93,109.97L149.97,109.85L149.99,109.73L149.97,109.63L149.92,109.57L149.85,109.53L149.81,109.54"/><path style="stroke:#000000;stroke-width:0.088" d="M149.94,111.11L150.00,111.08"/><path style="stroke:#000000;stroke-width:0.088" d="M21.16,29.32L21.16,29.24L21.17,29.13L21.26,28.75L21.43,28.37L21.68,28.03L21.96,27.77L22.02,27.74L21.71,28.02L21.45,28.38L21.26,28.79L21.17,29.19L21.16,29.32L21.18,29.56L21.29,29.84L21.50,30.00L21.79,30.16L21.57,30.01L21.45,29.75L21.42,29.46L21.43,29.39L21.51,28.99L21.68,28.58L21.69,28.57L21.94,28.21L22.24,27.92L22.56,27.74L22.86,27.69L23.11,27.77L23.28,27.98L23.36,28.30L23.33,28.68L23.20,29.09L22.98,29.49L22.70,29.82L22.38,30.06L22.07,30.18L21.79,30.16"/><path style="stroke:#000000;stroke-width:0.088" d="M22.19,29.29L22.16,29.28L22.12,29.20L22.10,29.10L22.12,28.98L22.16,28.86L22.23,28.75L22.32,28.65L22.40,28.60L22.42,28.59L22.51,28.56L22.59,28.58L22.65,28.63L22.68,28.72L22.68,28.83L22.65,28.95L22.59,29.07L22.51,29.18L22.41,29.26L22.32,29.31L22.23,29.31L22.19,29.29"/><path style="stroke:#000000;stroke-width:0.088" d="M22.56,28.57L22.59,28.60L22.62,28.69L22.62,28.74L22.61,28.80L22.58,28.92L22.52,29.04L22.44,29.15L22.34,29.23L22.25,29.27L22.16,29.27L22.16,29.27"/><path style="stroke:#000000;stroke-width:0.088" d="M22.02,27.74L22.34,27.57L22.64,27.54L22.88,27.64L23.11,27.77"/><path style="stroke:#000000;stroke-width:0.088" d="M22.21,29.27L22.27,29.22L22.43,29.02L22.54,28.80L22.59,28.62"/><path style="stroke:#000000;stroke-width:0.088" d="M23.11,35.24L22.88,35.11L22.64,35.01L22.34,35.05L22.02,35.21L21.98,35.25L21.71,35.49L21.45,35.85L21.26,36.26L21.17,36.67L21.16,36.79L21.18,37.03L21.29,37.31L21.50,37.47L21.79,37.64L21.57,37.49L21.45,37.22L21.42,36.94L21.43,36.87L21.51,36.46L21.68,36.05L21.94,35.68L22.24,35.39L22.56,35.21L22.86,35.16L23.11,35.24L23.28,35.45L23.36,35.77L23.33,36.15L23.20,36.56L22.98,36.96L22.70,37.30L22.38,37.54L22.19,37.61L22.07,37.65L21.79,37.64"/><path style="stroke:#000000;stroke-width:0.088" d="M22.02,35.21L21.96,35.24L21.68,35.50L21.43,35.84L21.26,36.22L21.17,36.60L21.16,36.71L21.16,36.79"/><path style="stroke:#000000;stroke-width:0.088" d="M22.19,36.76L22.16,36.75L22.12,36.68L22.10,36.57L22.12,36.46L22.16,36.33L22.23,36.22L22.32,36.12L22.40,36.07L22.42,36.06L22.51,36.03L22.59,36.05L22.65,36.10L22.68,36.19L22.68,36.30L22.65,36.43L22.59,36.55L22.51,36.65L22.41,36.73L22.32,36.78L22.23,36.78L22.19,36.76"/><path style="stroke:#000000;stroke-width:0.088" d="M22.56,36.04L22.59,36.07L22.62,36.16L22.62,36.21L22.61,36.27L22.58,36.40L22.52,36.52L22.44,36.62L22.34,36.70L22.25,36.74L22.16,36.74L22.16,36.74"/><path style="stroke:#000000;stroke-width:0.088" d="M22.59,36.09L22.54,36.27L22.43,36.49L22.27,36.69L22.21,36.74"/><path style="fill:#ffffff" d="M171.92,68.13L198.33,68.13L198.33,62.49L171.92,62.49z"/><path style="stroke:#35414c;stroke-width:0.255" d="M171.92,68.13L198.33,68.13L198.33,62.49L171.92,62.49z"/><path style="stroke:#35404c;stroke-width:0.250;stroke-opacity:0.00" d="M171.92,68.13L198.33,68.13L198.33,62.49L171.92,62.49z"/><text xml:space="preserve" fill="#333f4b" stroke-width="0" x="172.62" y="66.55" font-size="3.49" opacity="1.00" font-family="Arial" font-weight="bold" font-style="italic">F24623295A</text><path style="fill:#ffffff" d="M171.92,97.98L198.33,97.98L198.33,92.34L171.92,92.34z"/><path style="stroke:#35414c;stroke-width:0.255" d="M171.92,97.98L198.33,97.98L198.33,92.34L171.92,92.34z"/><path style="stroke:#35404c;stroke-width:0.250;stroke-opacity:0.00" d="M171.92,97.98L198.33,97.98L198.33,92.34L171.92,92.34z"/><text xml:space="preserve" fill="#333f4b" stroke-width="0" x="172.62" y="96.40" font-size="3.56" opacity="1.00" font-family="Arial" font-weight="bold" font-style="italic">F24623658X</text><path style="fill:#ffffff" d="M171.92,118.06L198.33,118.06L198.33,112.42L171.92,112.42z"/><path style="stroke:#35414c;stroke-width:0.255" d="M171.92,118.06L198.33,118.06L198.33,112.42L171.92,112.42z"/><path style="stroke:#35404c;stroke-width:0.250;stroke-opacity:0.00" d="M171.92,118.06L198.33,118.06L198.33,112.42L171.92,112.42z"/><text xml:space="preserve" fill="#333f4b" stroke-width="0" x="172.62" y="116.47" font-size="3.56" opacity="1.00" font-family="Arial" font-weight="bold" font-style="italic">F24975765X</text><path style="fill:#ffffff" d="M171.92,87.95L198.33,87.95L198.33,82.30L171.92,82.30z"/><path style="stroke:#35414c;stroke-width:0.255" d="M171.92,87.95L198.33,87.95L198.33,82.30L171.92,82.30z"/><path style="stroke:#35404c;stroke-width:0.250;stroke-opacity:0.00" d="M171.92,87.95L198.33,87.95L198.33,82.30L171.92,82.30z"/><text xml:space="preserve" fill="#333f4b" stroke-width="0" x="172.62" y="86.36" font-size="3.56" opacity="1.00" font-family="Arial" font-weight="bold" font-style="italic">F24623567X</text><path style="fill:#ffffff" d="M171.92,58.10L198.33,58.10L198.33,52.45L171.92,52.45z"/><path style="stroke:#35414c;stroke-width:0.255" d="M171.92,58.10L198.33,58.10L198.33,52.45L171.92,52.45z"/><path style="stroke:#35404c;stroke-width:0.250;stroke-opacity:0.00" d="M171.92,58.10L198.33,58.10L198.33,52.45L171.92,52.45z"/><text xml:space="preserve" fill="#333f4b" stroke-width="0" x="172.62" y="56.51" font-size="3.49" opacity="1.00" font-family="Arial" font-weight="bold" font-style="italic">F24623293A</text><path style="fill:#ffffff" d="M171.92,108.02L198.33,108.02L198.33,102.38L171.92,102.38z"/><path style="stroke:#35414c;stroke-width:0.255" d="M171.92,108.02L198.33,108.02L198.33,102.38L171.92,102.38z"/><path style="stroke:#35404c;stroke-width:0.250;stroke-opacity:0.00" d="M171.92,108.02L198.33,108.02L198.33,102.38L171.92,102.38z"/><text xml:space="preserve" fill="#333f4b" stroke-width="0" x="172.62" y="106.43" font-size="3.56" opacity="1.00" font-family="Arial" font-weight="bold" font-style="italic">F24623659X</text><path style="fill:#ffffff" d="M171.92,77.91L198.33,77.91L198.33,72.26L171.92,72.26z"/><path style="stroke:#35414c;stroke-width:0.255" d="M171.92,77.91L198.33,77.91L198.33,72.26L171.92,72.26z"/><path style="stroke:#35404c;stroke-width:0.250;stroke-opacity:0.00" d="M171.92,77.91L198.33,77.91L198.33,72.26L171.92,72.26z"/><text xml:space="preserve" fill="#333f4b" stroke-width="0" x="172.62" y="76.32" font-size="3.49" opacity="1.00" font-family="Arial" font-weight="bold" font-style="italic">F24623305A</text><path style="fill:#ffffff" d="M171.92,38.02L198.33,38.02L198.33,32.38L171.92,32.38z"/><path style="stroke:#35414c;stroke-width:0.255" d="M171.92,38.02L198.33,38.02L198.33,32.38L171.92,32.38z"/><path style="stroke:#35404c;stroke-width:0.250;stroke-opacity:0.00" d="M171.92,38.02L198.33,38.02L198.33,32.38L171.92,32.38z"/><text xml:space="preserve" fill="#333f4b" stroke-width="0" x="172.62" y="36.43" font-size="3.52" opacity="1.00" font-family="Arial" font-weight="bold" font-style="italic">BA1037</text><path style="fill:#ffffff" d="M171.92,48.06L198.33,48.06L198.33,42.42L171.92,42.42z"/><path style="stroke:#35414c;stroke-width:0.255" d="M171.92,48.06L198.33,48.06L198.33,42.42L171.92,42.42z"/><path style="stroke:#35404c;stroke-width:0.250;stroke-opacity:0.00" d="M171.92,48.06L198.33,48.06L198.33,42.42L171.92,42.42z"/><text xml:space="preserve" fill="#333f4b" stroke-width="0" x="172.62" y="46.47" font-size="3.56" opacity="1.00" font-family="Arial" font-weight="bold" font-style="italic">F21623126X</text><g id="paperID" visibility="hidden" opacity="0.00" transform="scale(0.000100)"><path style="stroke:#000000;stroke-width:0.500;fill:#e6e6e6;fill-rule:evenodd" d="M-2000.00,-2000.00L2210.00,-2000.00L2210.00,2150.00L-2000.00,2150.00zM0.00,0.00L210.00,0.00L210.00,150.00L0.00,150.00z"/><path style="fill:#000000;fill-opacity:0.118" d="M3.00,150.00L210.00,150.00L210.00,3.00L213.00,3.00L213.00,153.00L3.00,153.00z"/></g><g id="hotspot.0" onmouseover="ShowHotSpot(evt,'0')" onmouseout="HideHotSpot(evt,'0')" onmousemove="ShowToolTip(evt,'0',&quot;BA1037&quot;)" opacity="0"><path style="fill:#00ff00;fill-rule:evenodd" d="M198.59,32.81L198.57,37.97L198.29,38.48L171.86,38.40L171.86,32.65L198.32,32.55zM28.72,54.75L28.62,56.35L25.46,58.22L24.22,58.20L23.41,57.16L23.04,55.81L23.98,54.88L26.49,53.43L27.66,53.43zM72.02,79.06L73.09,80.37L73.11,81.83L69.85,83.84L68.60,83.82L67.81,83.02L67.52,82.26L67.53,81.00L71.38,78.81zM116.71,104.92L117.48,106.27L117.48,107.17L117.18,107.67L114.19,109.43L112.97,109.44L111.89,108.15L111.92,106.63L113.50,105.57L115.52,104.40L115.87,104.40z"/></g><g id="hotspot.1" onmouseover="ShowHotSpot(evt,'1')" onmouseout="HideHotSpot(evt,'1')" onmousemove="ShowToolTip(evt,'1',&quot;F21623126&quot;)" opacity="0"><path style="fill:#00ff00;fill-rule:evenodd" d="M23.19,28.06L23.09,29.43L22.28,30.24L21.59,30.22L21.31,29.94L21.29,28.68L22.08,27.89L22.91,27.78zM23.19,35.45L23.17,36.91L22.54,37.59L21.29,37.61L21.29,36.34L22.28,35.19L22.91,35.17zM198.59,42.85L198.57,48.01L198.29,48.51L171.86,48.44L171.86,42.69L198.32,42.58zM150.77,101.76L150.76,102.95L150.12,103.63L148.88,103.65L148.87,102.38L149.59,101.50L150.50,101.48zM150.77,109.15L150.75,110.34L149.88,111.34L149.14,111.35L148.81,111.12L148.88,109.78L149.59,108.90L150.50,108.88z"/></g><g id="hotspot.2" onmouseover="ShowHotSpot(evt,'2')" onmouseout="HideHotSpot(evt,'2')" onmousemove="ShowToolTip(evt,'2',&quot;F24623293&quot;)" opacity="0"><path style="fill:#00ff00;fill-rule:evenodd" d="M198.59,52.89L198.57,58.04L198.29,58.55L171.86,58.48L171.86,52.73L198.32,52.62zM90.54,65.83L90.54,67.27L89.72,66.89L89.11,66.89L88.67,67.27L88.58,68.31L90.54,69.53L90.51,74.70L90.03,74.58L89.72,74.29L89.11,74.28L88.56,74.83L88.68,75.90L89.22,76.28L83.58,79.62L82.34,79.58L79.16,77.75L79.14,68.84L79.85,67.70L86.85,63.75z"/></g><g id="hotspot.3" onmouseover="ShowHotSpot(evt,'3')" onmouseout="HideHotSpot(evt,'3')" onmousemove="ShowToolTip(evt,'3',&quot;F24623295&quot;)" opacity="0"><path style="fill:#00ff00;fill-rule:evenodd" d="M47.19,35.75L47.22,39.30L46.59,39.72L46.42,41.91L45.34,41.27L44.72,41.26L44.26,41.90L44.20,42.68L46.40,43.94L46.67,48.68L47.19,48.97L47.22,49.83L45.34,48.67L44.72,48.65L44.26,49.29L44.28,50.27L45.34,50.81L47.22,52.12L47.21,53.01L46.94,53.55L39.16,58.19L38.21,58.22L33.20,55.29L33.20,51.69L34.69,50.81L34.77,42.89L33.11,41.91L33.18,38.46L34.00,37.17L40.27,33.70L41.56,32.81L42.18,32.81zM198.59,62.92L198.57,68.08L198.29,68.59L171.86,68.52L171.86,62.77L198.32,62.66z"/></g><g id="hotspot.4" onmouseover="ShowHotSpot(evt,'4')" onmouseout="HideHotSpot(evt,'4')" onmousemove="ShowToolTip(evt,'4',&quot;F24623305&quot;)" opacity="0"><path style="fill:#00ff00;fill-rule:evenodd" d="M198.59,72.70L198.57,77.86L198.29,78.36L171.86,78.29L171.86,72.54L198.32,72.43zM137.56,88.02L137.45,91.49L135.16,92.89L135.07,99.76L137.56,101.23L137.54,105.05L137.01,105.84L129.54,110.26L128.27,110.26L123.45,107.42L123.55,90.27L124.23,89.36L131.90,84.86L132.24,84.85zM133.86,100.83L133.46,101.28L132.96,101.37L133.04,100.29L133.50,99.89L133.83,99.92z"/></g><g id="hotspot.5" onmouseover="ShowHotSpot(evt,'5')" onmouseout="HideHotSpot(evt,'5')" onmousemove="ShowToolTip(evt,'5',&quot;F24623567&quot;)" opacity="0"><path style="fill:#00ff00;fill-rule:evenodd" d="M16.55,57.41L17.36,58.45L17.36,63.06L16.49,63.77L15.25,63.74L13.38,62.69L13.31,56.63L14.10,56.06L14.43,56.06zM198.59,82.74L198.57,87.89L198.29,88.40L171.86,88.33L171.86,82.58L198.32,82.47zM106.65,109.42L106.64,115.36L106.27,115.79L105.33,115.78L103.21,114.45L102.68,113.66L102.59,108.93L103.90,108.10L104.52,108.10zM15.76,61.32L16.05,62.24L15.49,61.90L15.50,61.08zM104.75,113.55L104.20,113.16L104.25,112.59z"/></g><g id="hotspot.6" onmouseover="ShowHotSpot(evt,'6')" onmouseout="HideHotSpot(evt,'6')" onmousemove="ShowToolTip(evt,'6',&quot;F24623658X&quot;)" opacity="0"><path style="fill:#00ff00;fill-rule:evenodd" d="M85.26,64.31L85.26,64.60L84.06,65.33L83.39,65.36L44.20,42.68L44.26,41.90L44.72,41.26L45.35,41.27zM79.17,68.26L78.92,70.17L44.28,50.27L44.26,49.29L44.72,48.65L45.34,48.67zM126.43,88.05L125.04,88.86L124.05,88.87L88.58,68.31L88.67,67.27L89.11,66.89L89.72,66.89zM123.30,93.84L123.30,95.79L88.67,75.90L88.66,74.67L89.11,74.28L89.72,74.29zM198.59,92.77L198.57,97.93L198.29,98.44L171.86,98.37L171.86,92.61L198.32,92.51zM133.86,100.83L133.46,101.28L132.96,101.37L133.04,100.29L133.50,99.89L133.83,99.92z"/></g><g id="hotspot.7" onmouseover="ShowHotSpot(evt,'7')" onmouseout="HideHotSpot(evt,'7')" onmousemove="ShowToolTip(evt,'7',&quot;F24623659X&quot;)" opacity="0"><path style="fill:#00ff00;fill-rule:evenodd" d="M62.28,83.80L62.25,89.98L61.93,90.21L60.95,90.16L58.83,88.83L58.28,87.80L58.20,83.30L59.53,82.48L60.13,82.48zM198.59,102.81L198.57,107.97L198.29,108.48L171.86,108.40L171.86,102.65L198.32,102.55zM60.44,87.56L60.41,87.89L60.09,87.90L59.83,87.56L59.84,86.73z"/></g><g id="hotspot.8" onmouseover="ShowHotSpot(evt,'8')" onmouseout="HideHotSpot(evt,'8')" onmousemove="ShowToolTip(evt,'8',&quot;F24975765X&quot;)" opacity="0"><path style="fill:#00ff00;fill-rule:evenodd" d="M50.10,58.16L49.75,58.99L48.50,59.01L47.99,58.73L47.95,57.46L48.17,57.14L49.05,57.13zM198.59,112.85L198.57,118.01L198.29,118.51L171.86,118.44L171.86,112.69L198.32,112.58z"/></g></g></svg>
