<?xml version="1.0" encoding="UTF-8" standalone="no"?>
<svg xmlns="http://www.w3.org/2000/svg" xmlns:xlink="http://www.w3.org/1999/xlink" width="210.000mm" height="150.000mm" viewBox="0.000000 0.000000 210.000000 150.000000" stroke-linejoin="round" stroke-linecap="round" fill="none" fill-rule="evenodd"><desc>Composer Export</desc><script type="text/ecmascript"><![CDATA[
if(typeof(top) != "undefined")
{
	top.ShowPaper = ShowPaper;
}
function ShowHotSpot(evt,hotspotid)
{
	var svgDocument = evt.target.ownerDocument;
	var strId = "hotspot."+hotspotid;
	var hotspot = svgDocument.getElementById(strId);
	if(hotspot)
		hotspot.setAttribute("opacity",".5");
}
function HideHotSpot(evt,hotspotid)
{
	var svgDocument = evt.target.ownerDocument;
	var strId = "hotspot."+hotspotid;
	var hotspot = svgDocument.getElementById(strId);
	if(hotspot)
		hotspot.setAttribute("opacity","0");

	var toolTip = svgDocument.getElementById('ToolTip');
	if(toolTip)
		toolTip.setAttribute("visibility","hidden");
}
function ShowToolTip(evt,hotspotid,strTooltip)
{
	if(strTooltip=="")
	return;

	// change text
	var svgDocument = evt.target.ownerDocument;
	var tiptext = svgDocument.getElementById('ToolTipText');
	if( !tiptext )
	return;
	tiptext.firstChild.nodeValue = " " + strTooltip + "  " ;

	// show tooltip before, else some refresh issue

	var toolTip = svgDocument.getElementById('ToolTip');
	if(!toolTip)
	return;

	toolTip.setAttribute("visibility","visible");
	toolTip.setAttribute("opacity",".95");

	// move tooltip
	// get viewbox

	var root = svgDocument.documentElement;
	var vbox = (root.getAttribute("viewBox")).split(' ');
	var x0 = parseFloat(vbox[0]);
	var y0 = parseFloat(vbox[1]);
	var vboxW = parseFloat(vbox[2]);
	var vboxH = parseFloat(vbox[3]);

	// get default width of svg

	var strW = root.getAttribute("width");
	var svgW = parseFloat(strW);
	if(strW.indexOf('mm') != -1)
	svgW *= 3.779;

	var strH = root.getAttribute("height");
	var svgH = parseFloat(strH);
	if(strH.indexOf('mm') != -1)
	svgH *= 3.779;  	// 96 dpi  -> 96/25.4 = 3.779

	// update the viewbox / width / height if svg is embedded in html with zoom fit all
	var realx0 = x0;
	var realy0 = y0;
	var realvboxW = vboxW;
	var realvboxH = vboxH;
	var realsvgW = svgW;
	var realsvgH = svgH;

	if ((typeof(top) == "undefined") || (typeof(top.svgctl1) != "undefined")) // embedded in html
	{
		// get window size in pxl

		svgW = window.innerWidth;
		svgH = window.innerHeight;

		// calculate real viewbox

		realsvgW = svgW;
		realsvgH = svgH;
		if((svgW / svgH) > (vboxW / vboxH))
		{
			realvboxW = (vboxH * svgW) / svgH;
			realvboxH = vboxH;
			realx0 = x0 - (realvboxW - vboxW)/2 ;
		}
		else
		{
			realvboxH = (vboxW * svgH) / svgW;
			realvboxW = vboxW;
			realy0 = y0 - (realvboxH - vboxH)/2 ;
		}
	}

	// get user zoom/pan

	var newScale = root.currentScale;
	var translation = root.currentTranslate;

	// transform pxl to user unit

	var xPos = (((evt.clientX+10- translation.x)/newScale) * realvboxW)/realsvgW  + realx0 ;
	var yPos = (((evt.clientY+5- translation.y)/newScale) * realvboxH)/ realsvgH  + realy0 ;
	var scaleForWidth = ( (1 / newScale) * realvboxH) / realsvgH;

	// move tooltip

	toolTip.setAttribute("transform", "translate(" + xPos + "," + yPos + ")" );

	// resize tooltip

	var fontsize = 12;
	tiptext.setAttribute("font-size",fontsize*scaleForWidth);
	tiptext.setAttribute("y", fontsize*scaleForWidth);
	var tipBG = svgDocument.getElementById('ToolTipBG');
	var outline = tiptext.getBBox();
	if(tipBG)
	{
		tipBG.setAttribute("stroke-width", 1*scaleForWidth);
		tipBG.setAttribute("width", Number(outline.width) );
		tipBG.setAttribute("height", Number(outline.height) + fontsize*.5*scaleForWidth );
	}
	var ToolTipShadow = svgDocument.getElementById('ToolTipShadow');
	if(ToolTipShadow)
	{
		ToolTipShadow.setAttribute("width", Number(outline.width) );
		ToolTipShadow.setAttribute("height", Number(outline.height) + fontsize*.5*scaleForWidth );
		ToolTipShadow.setAttribute("x", 3*scaleForWidth);
		ToolTipShadow.setAttribute("y", 3*scaleForWidth);
	}
}
function ShowPaper()
{
  var svgDocument = getDocument();
  var paper = svgDocument.getElementById("paperID");
  if(paper)
  {
    paper.setAttribute("transform","scale(1)");
    paper.setAttribute("opacity","1");
    paper.setAttribute("visibility","visible");
  }
  var svg = svgDocument.getRootElement();
  if(svg)
  {
    svg.setAttribute("width","220.000mm");
    svg.setAttribute("height","160.000mm");
    svg.setAttribute("viewBox","-5.000000 -5.000000 220.000000 160.000000");
  }
}
]]></script><defs/><g><path style="fill:#ffffff" d="M209.93,149.99L0.04,149.99L0.04,0.04L209.93,0.04z"/><path style="fill:#2ac7ce" d="M146.69,91.53L146.65,95.33L145.05,96.26L145.05,105.09L146.71,106.09L146.70,109.95L146.07,111.09L137.33,116.18L137.06,116.26L131.19,112.86L131.19,108.89L132.13,108.31L132.14,106.19L132.14,103.78L132.12,98.76L131.24,98.25L131.12,97.32L131.12,95.04L131.22,94.22L131.94,93.16L140.75,88.11z"/><path style="fill:#8aa7bf" d="M138.09,107.36L138.08,108.18L137.95,108.43L137.41,108.90L136.94,108.90L136.81,108.76L136.80,108.29L137.13,107.61L137.52,107.23L137.96,107.23z"/><path style="fill:#ff0000" d="M50.56,63.60L50.14,63.95L49.74,64.70L49.76,65.28L49.51,65.15L49.62,64.32L50.22,63.66L50.47,63.47L50.58,63.52z"/><path style="fill:#ba9928" d="M58.52,32.97L59.14,34.00L59.13,39.11L57.69,39.95L57.23,39.97L54.66,38.48L54.70,31.89L55.54,31.33L55.71,31.33z"/><path style="fill:#ba9928" d="M108.31,61.74L108.31,68.27L107.63,68.73L107.02,68.73L104.62,67.33L104.36,67.08L103.85,66.20L103.86,61.03L105.34,60.22L105.77,60.22z"/><path style="fill:#ba9928" d="M156.84,89.74L156.83,96.26L156.04,96.74L155.56,96.74L152.91,95.20L152.26,94.08L152.23,89.13L154.06,88.11z"/><path style="fill:#00fdff" d="M56.97,34.14L57.37,34.76L57.32,35.41L56.85,35.41L56.61,35.26L56.34,34.77L56.34,34.03L56.73,33.99z"/><path style="fill:#00fdff" d="M105.40,62.12L105.91,62.89L105.91,63.19L105.72,63.41L105.38,63.42L105.01,63.14L104.74,62.64L104.73,62.16L104.84,62.00L105.26,62.00z"/><path style="fill:#00fdff" d="M153.94,90.12L154.30,90.76L154.29,91.32L154.14,91.43L153.91,91.42L153.42,91.01L153.27,90.78L153.25,90.01L153.55,89.89z"/><path style="fill:#00fdff" d="M137.28,98.52L137.02,98.55L137.04,98.28L137.17,98.10L137.32,98.11z"/><path style="fill:#00fdff" d="M137.36,99.45L137.06,99.82L137.06,99.41L137.32,99.38z"/><path style="fill:#00fdff" d="M137.74,107.95L137.56,108.31L137.27,108.31L137.31,107.91L137.70,107.87z"/><path style="fill:#00fdff" d="M137.36,112.76L137.06,113.13L137.06,112.72L137.32,112.69z"/><path style="fill:#00fdff" d="M137.28,114.22L137.01,114.26L137.06,113.99L137.32,113.95z"/><path style="fill:#7f7f7f" d="M24.16,55.04L24.93,55.79L25.56,57.06L25.56,57.74L25.25,58.33L21.46,60.50L20.99,60.50L20.11,59.97L19.47,58.97L19.34,58.59L19.33,57.35L19.55,57.06L23.23,54.91L23.78,54.91z"/><path style="fill:#7f7f7f" d="M72.84,83.15L73.59,84.04L73.96,84.81L73.97,86.01L73.66,86.33L71.37,87.72L69.86,88.50L69.13,88.37L68.39,87.72L68.00,87.10L67.74,86.34L67.74,85.48L68.12,84.98L71.63,82.91L72.31,82.91z"/><path style="fill:#7f7f7f" d="M121.35,111.17L122.11,112.06L122.49,113.07L122.49,113.75L122.32,114.21L118.66,116.38L117.67,116.38L116.80,115.60L116.40,114.98L116.27,114.60L116.27,113.36L116.62,112.95L120.16,110.91L120.85,110.91z"/><path style="fill:#9daff7" d="M26.94,34.39L27.08,34.63L27.08,35.57L26.69,36.32L26.03,36.93L25.31,36.91L24.91,36.55L24.91,35.30L25.44,34.56L26.15,34.12L26.44,34.12z"/><path style="fill:#9daff7" d="M27.08,42.74L27.08,43.81L26.57,44.69L26.14,45.02L25.29,45.04L24.92,44.77L24.91,43.54L25.55,42.65L26.01,42.36L26.57,42.36z"/><path style="fill:#9daff7" d="M152.41,107.11L152.27,108.05L151.89,108.68L151.35,109.15L150.49,109.15L150.11,108.89L150.11,107.78L150.44,107.10L151.21,106.48L151.90,106.48z"/><path style="fill:#9daff7" d="M152.15,114.84L152.40,115.36L152.40,115.77L152.02,116.66L151.22,117.39L150.62,117.39L150.10,117.01L150.11,115.90L150.69,114.96L151.34,114.58L151.64,114.58z"/><path style="fill:#2ac7ce" d="M48.00,34.62L48.02,47.12L41.15,43.12L40.58,43.12L40.20,43.49L39.82,44.27L40.01,44.77L48.03,49.44L47.99,53.06L47.35,54.06L46.75,54.51L41.01,51.22L40.72,51.22L40.46,51.36L39.96,51.99L39.85,52.76L40.12,53.02L44.73,55.72L38.73,59.14L38.35,59.23L32.49,55.83L32.52,51.91L35.18,50.39L35.19,42.86L34.68,42.49L32.52,41.23L32.52,37.33L33.23,36.15L35.07,35.14L35.45,35.31L35.56,34.80L41.86,31.20L42.15,31.20z"/><path style="fill:#2ac7ce" d="M96.38,66.83L96.40,75.02L89.55,71.12L88.91,71.18L88.40,71.92L88.41,72.65L88.54,72.77L96.05,77.19L95.74,77.62L91.24,80.23L89.55,79.23L89.12,79.23L88.86,79.36L88.40,80.03L88.40,80.89L89.21,81.37L88.11,82.04L87.77,82.04L83.84,79.75L83.74,78.18L83.74,75.90L83.74,70.08L84.55,68.83L85.02,68.53L92.22,64.41z"/><path style="fill:#8aa7bf" d="M48.02,47.12L85.02,68.53L84.55,68.83L83.74,70.08L48.03,49.44L40.01,44.77L39.82,44.27L40.20,43.49L40.58,43.12L41.15,43.12z"/><path style="fill:#8aa7bf" d="M46.75,54.51L46.96,54.66L83.74,75.90L83.74,78.18L44.73,55.72L40.12,53.02L39.85,52.76L39.96,51.99L40.46,51.36L40.72,51.22L41.01,51.22z"/><path style="fill:#8aa7bf" d="M51.54,64.03L51.79,64.41L51.79,64.97L51.50,65.44L50.98,65.82L50.64,65.82L49.76,65.28L49.74,64.70L50.14,63.95L50.56,63.60L50.58,63.52z"/><path style="fill:#8aa7bf" d="M49.24,64.58L49.51,63.83L50.10,63.38L50.47,63.47L50.22,63.66L49.62,64.32L49.51,65.15L49.34,65.09z"/><path style="fill:#8aa7bf" d="M96.40,75.02L128.84,93.80L131.12,95.04L131.12,97.32L129.47,96.46L96.14,77.22L96.05,77.19L88.54,72.77L88.41,72.65L88.40,71.92L88.91,71.18L89.55,71.12z"/><path style="fill:#8aa7bf" d="M91.24,80.23L130.74,103.05L132.14,103.78L132.14,106.19L89.21,81.37L88.40,80.89L88.40,80.03L88.86,79.36L89.12,79.23L89.55,79.23z"/><path style="fill:#ffffff" d="M26.33,35.43L25.94,35.96L25.93,35.44L26.16,35.25L26.32,35.26z"/><path style="fill:#ffffff" d="M57.37,37.28L57.75,38.06L57.74,38.36L57.49,38.32L56.85,37.31L56.86,36.78z"/><path style="fill:#ffffff" d="M25.94,44.20L25.92,43.66L26.28,43.37L26.33,43.39z"/><path style="fill:#ffffff" d="M83.74,70.08L83.74,75.90L46.96,54.66L46.75,54.51L47.35,54.06L47.99,53.06L48.03,49.44z"/><path style="fill:#ffffff" d="M105.65,65.04L106.15,65.80L106.15,66.36L105.65,65.93L105.38,65.43L105.20,64.67z"/><path style="fill:#ffffff" d="M129.47,96.46L131.12,97.32L131.24,98.25L132.12,98.76L132.14,103.78L130.74,103.05L91.24,80.23L95.74,77.62L96.05,77.19L96.14,77.22z"/><path style="fill:#ffffff" d="M153.93,92.77L154.55,93.69L154.69,94.36L154.18,93.93L153.91,93.56L153.78,93.19L153.79,92.66z"/><path style="fill:#ffffff" d="M151.22,108.01L150.82,108.01L151.21,107.48L151.27,107.50z"/><path style="fill:#ffffff" d="M151.38,115.70L151.07,116.25L150.83,116.25L151.14,115.64L151.28,115.60z"/><path style="stroke:#000000;stroke-width:0.088" d="M83.77,79.68L84.00,79.81L83.75,79.66L83.75,70.10L87.29,72.15L87.29,81.71L83.86,79.73"/><path style="stroke:#000000;stroke-width:0.088" d="M83.75,70.10L84.46,68.88L84.79,69.07L87.99,70.92L87.29,72.15"/><path style="stroke:#000000;stroke-width:0.088" d="M84.60,80.16L84.00,79.81"/><path style="stroke:#000000;stroke-width:0.088" d="M84.49,77.78L84.53,77.88L84.93,78.41L85.40,78.81L85.87,79.04L86.31,79.07L86.66,78.90L86.89,78.55L86.97,78.05L86.89,77.46L86.66,76.85L86.31,76.27L85.87,75.79L85.58,75.60L85.40,75.47L84.93,75.34L84.53,75.41L84.24,75.68L84.09,76.11L84.07,76.38L84.09,76.66L84.24,77.27L84.49,77.78"/><path style="stroke:#000000;stroke-width:0.088" d="M86.96,78.03L86.89,78.50L86.67,78.84L86.33,79.01L85.90,78.98L85.44,78.75L84.98,78.36L84.59,77.84L84.31,77.25L84.16,76.66L84.14,76.38L84.16,76.12L84.31,75.70L84.59,75.44L84.98,75.37L85.43,75.49"/><path style="stroke:#000000;stroke-width:0.088" d="M84.76,73.81L84.79,74.00L84.91,74.33L85.11,74.63L85.34,74.88L85.60,75.05L85.84,75.11L86.06,75.07L86.21,74.92L86.29,74.68L86.28,74.38L86.19,74.05L86.03,73.73L85.81,73.45L85.57,73.24L85.52,73.21L85.31,73.12L85.08,73.11L84.89,73.21L84.78,73.41L84.74,73.68L84.76,73.81"/><path style="stroke:#000000;stroke-width:0.088" d="M84.46,68.88L92.24,64.38L92.26,64.39"/><path style="stroke:#000000;stroke-width:0.088" d="M87.17,81.64L87.35,81.75L87.29,81.71"/><path style="stroke:#000000;stroke-width:0.088" d="M87.35,81.75L87.99,82.12L89.27,81.38"/><path style="stroke:#000000;stroke-width:0.088" d="M87.96,82.10L87.99,82.11"/><path style="stroke:#000000;stroke-width:0.088" d="M89.69,79.33L89.61,79.22L89.42,79.16L89.19,79.19L88.95,79.33L88.91,79.37L88.72,79.55L88.52,79.83L88.38,80.14L88.32,80.45L88.33,80.72L88.42,80.93L88.59,81.05L88.71,81.06"/><path style="stroke:#000000;stroke-width:0.088" d="M88.53,80.95L88.57,80.99L88.58,80.99"/><path style="stroke:#000000;stroke-width:0.088" d="M88.33,80.68L88.33,80.64"/><path style="stroke:#000000;stroke-width:0.088" d="M88.42,80.88L88.42,80.87L88.40,80.83"/><path style="stroke:#000000;stroke-width:0.088" d="M89.69,71.16L89.61,71.05L89.42,70.98L89.19,71.02L88.95,71.16L88.72,71.38L88.52,71.66L88.38,71.97L88.32,72.28L88.33,72.55L88.42,72.76L88.59,72.88L88.71,72.89"/><path style="stroke:#000000;stroke-width:0.088" d="M88.53,72.78L88.57,72.81L88.58,72.81"/><path style="stroke:#000000;stroke-width:0.088" d="M88.33,72.51L88.33,72.47"/><path style="stroke:#000000;stroke-width:0.088" d="M88.42,72.70L88.42,72.70L88.40,72.66"/><path style="stroke:#000000;stroke-width:0.088" d="M92.24,64.38L95.78,66.43L87.99,70.92"/><path style="stroke:#000000;stroke-width:0.088" d="M89.36,79.18L89.37,79.18L89.41,79.20"/><path style="stroke:#000000;stroke-width:0.088" d="M89.14,79.22L89.15,79.21L89.20,79.21"/><path style="stroke:#000000;stroke-width:0.088" d="M88.95,79.33L88.97,79.31"/><path style="stroke:#000000;stroke-width:0.088" d="M89.41,71.02L89.37,71.01L89.36,71.01"/><path style="stroke:#000000;stroke-width:0.088" d="M89.20,71.04L89.15,71.04L89.14,71.05"/><path style="stroke:#000000;stroke-width:0.088" d="M88.97,71.14L88.95,71.16"/><path style="stroke:#000000;stroke-width:0.088" d="M91.26,80.23L95.78,77.62L96.06,77.13"/><path style="stroke:#000000;stroke-width:0.088" d="M96.49,75.08L96.49,66.84L95.77,66.42"/><path style="stroke:#000000;stroke-width:0.088" d="M96.49,66.84L96.45,66.81"/><path style="stroke:#000000;stroke-width:0.088" d="M19.81,59.52L19.59,59.21L19.34,58.61L19.22,58.02L19.26,57.51L19.45,57.12L19.76,56.91L20.17,56.89L20.63,57.07L21.09,57.42L21.50,57.91L21.82,58.49L22.01,59.09L22.04,59.65L21.93,60.10L21.68,60.41L21.31,60.53L20.87,60.45L20.63,60.33L20.40,60.18L19.96,59.75L19.81,59.52"/><path style="stroke:#000000;stroke-width:0.088" d="M19.77,59.01L19.59,58.54L19.52,58.08L19.57,57.70L19.74,57.42L20.00,57.27L20.34,57.29L20.70,57.46L21.06,57.76L21.37,58.16L21.60,58.62L21.73,59.09L21.74,59.52L21.63,59.86L21.41,60.07L21.10,60.14L20.75,60.05L20.63,59.99L20.38,59.81L20.04,59.45L19.77,59.01"/><path style="stroke:#000000;stroke-width:0.088" d="M19.76,56.91L23.30,54.87L23.71,54.85L24.17,55.02L24.63,55.38L25.04,55.87L25.36,56.45L25.54,57.05L25.58,57.61L25.47,58.06L25.21,58.37L21.68,60.41"/><path style="stroke:#000000;stroke-width:0.088" d="M20.40,58.81L20.48,58.95L20.57,59.08L20.56,59.01L20.54,58.95L20.50,58.89L20.45,58.84L20.40,58.81L21.41,58.23"/><path style="stroke:#000000;stroke-width:0.088" d="M20.57,59.08L21.55,58.51"/><path style="stroke:#000000;stroke-width:0.088" d="M20.15,57.58L20.16,57.53L20.15,57.47L20.13,57.40L20.10,57.52L20.09,57.64L20.12,57.62L20.15,57.58"/><path style="stroke:#000000;stroke-width:0.088" d="M20.13,57.40L20.33,57.29"/><path style="stroke:#000000;stroke-width:0.088" d="M20.54,57.38L20.12,57.62"/><path style="stroke:#000000;stroke-width:0.088" d="M21.40,56.73L21.29,56.79L21.20,56.74L21.11,56.69L23.52,55.30L23.61,55.35L23.69,55.40L21.40,56.73"/><path style="stroke:#000000;stroke-width:0.088" d="M23.52,55.30L23.52,55.37L21.17,56.72"/><path style="stroke:#000000;stroke-width:0.088" d="M21.64,59.81L21.47,59.78L21.50,59.75L21.54,59.73L21.59,59.74L21.64,59.77L21.65,59.78"/><path style="stroke:#000000;stroke-width:0.088" d="M21.50,59.75L21.70,59.63"/><path style="stroke:#000000;stroke-width:0.088" d="M24.78,58.57L22.38,59.96L22.47,59.83L24.87,58.44L24.78,58.57L24.74,58.52"/><path style="stroke:#000000;stroke-width:0.088" d="M24.87,56.99L22.47,58.38L22.38,58.15L24.79,56.76L24.87,56.99L24.82,56.99L24.82,56.94L24.80,56.88L24.77,56.82L24.75,56.78"/><path style="stroke:#000000;stroke-width:0.088" d="M24.82,56.99L22.46,58.36"/><path style="stroke:#000000;stroke-width:0.088" d="M23.65,55.43L23.61,55.39L23.56,55.37L23.52,55.37"/><path style="stroke:#000000;stroke-width:0.088" d="M68.15,87.32L68.07,87.19L67.81,86.59L67.70,86.01L67.74,85.49L67.92,85.11L68.20,84.92L68.24,84.90L68.65,84.88L69.11,85.05L69.57,85.41L69.98,85.90L70.29,86.48L70.48,87.08L70.52,87.64L70.40,88.09L70.15,88.39L69.78,88.51L69.34,88.43L69.11,88.32L68.88,88.16L68.43,87.73L68.15,87.32"/><path style="stroke:#000000;stroke-width:0.088" d="M68.12,86.70L68.34,87.17L68.64,87.58L68.99,87.90L69.36,88.09L69.70,88.12L69.97,88.00L70.15,87.73L70.22,87.36L70.17,86.91L70.00,86.43L69.74,85.99L69.40,85.62L69.11,85.40L69.04,85.36L68.68,85.25L68.37,85.30L68.14,85.49L68.01,85.82L68.01,86.23L68.12,86.70"/><path style="stroke:#000000;stroke-width:0.088" d="M68.60,86.09L68.57,85.91L68.56,85.81L68.60,85.87L68.62,85.94L68.63,86.00L68.62,86.05L68.60,86.09L69.41,85.62"/><path style="stroke:#000000;stroke-width:0.088" d="M68.56,85.81L69.18,85.45"/><path style="stroke:#000000;stroke-width:0.088" d="M68.24,84.90L71.78,82.85L72.19,82.83L72.65,83.01L73.11,83.36L73.52,83.86L73.83,84.43L74.02,85.04L74.06,85.59L73.94,86.05L73.69,86.35L70.15,88.39"/><path style="stroke:#000000;stroke-width:0.088" d="M70.18,87.00L69.40,87.45L69.21,87.26L69.19,87.24L69.24,87.25L69.29,87.28L69.33,87.33L69.37,87.39L69.40,87.45"/><path style="stroke:#000000;stroke-width:0.088" d="M69.19,87.24L70.10,86.71"/><path style="stroke:#000000;stroke-width:0.088" d="M69.59,84.68L69.67,84.73L69.76,84.78L72.17,83.39L72.08,83.34L71.99,83.29L69.59,84.68"/><path style="stroke:#000000;stroke-width:0.088" d="M69.65,84.71L71.99,83.36L71.99,83.29"/><path style="stroke:#000000;stroke-width:0.088" d="M70.91,87.86L70.85,87.94L73.26,86.56L73.35,86.43L70.94,87.82L70.91,87.86"/><path style="stroke:#000000;stroke-width:0.088" d="M70.93,86.34L73.30,84.98L73.35,84.98L73.26,84.75L70.85,86.14L70.94,86.36L73.35,84.98"/><path style="stroke:#000000;stroke-width:0.088" d="M71.99,83.36L72.03,83.36L72.08,83.38L72.13,83.41"/><path style="stroke:#000000;stroke-width:0.088" d="M73.26,86.56L73.22,86.50"/><path style="stroke:#000000;stroke-width:0.088" d="M73.30,84.98L73.29,84.92L73.28,84.86L73.25,84.81L73.22,84.77"/><path style="stroke:#000000;stroke-width:0.088" d="M49.83,65.32L49.77,65.32L49.49,65.15L49.33,65.04L49.24,64.84L49.23,64.58L49.29,64.29L49.42,63.99L49.61,63.72L49.83,63.51L49.92,63.46L50.06,63.38L50.28,63.35L50.46,63.41L50.75,63.58L50.57,63.51L50.35,63.55L50.11,63.67L49.89,63.88L49.71,64.15L49.57,64.45L49.51,64.75L49.53,65.01L49.58,65.11L49.62,65.20L49.77,65.32"/><path style="stroke:#000000;stroke-width:0.088" d="M49.81,65.28L49.79,65.27L49.65,65.16L49.56,64.98L49.55,64.73L49.61,64.45L49.73,64.17L49.91,63.91L49.92,63.90L50.12,63.71L50.34,63.59L50.55,63.56L50.72,63.62L50.75,63.64"/><path style="stroke:#000000;stroke-width:0.088" d="M50.59,65.79L49.98,65.44L49.83,65.33L49.74,65.13L49.72,64.87L49.75,64.76L49.79,64.57L49.92,64.28L50.10,64.01L50.33,63.80L50.56,63.67L50.78,63.63L50.96,63.70L51.62,64.09L51.45,64.01L51.41,64.01L51.24,64.02L51.01,64.13L50.78,64.33L50.72,64.41L50.59,64.59L50.44,64.88L50.37,65.18L50.37,65.45L50.44,65.66L50.59,65.79L50.63,65.81L50.83,65.84L50.88,65.84L51.09,65.78L51.13,65.76L51.34,65.61L51.53,65.40L51.69,65.14L51.79,64.87L51.83,64.61L51.83,64.57L51.79,64.34L51.77,64.29L51.66,64.12L51.62,64.09"/><path style="stroke:#000000;stroke-width:0.088" d="M50.71,65.59L50.65,65.43L50.65,65.21L50.67,65.14L50.71,64.97L50.82,64.74L50.98,64.53L51.16,64.37L51.35,64.28L51.52,64.27L51.65,64.34L51.74,64.47L51.77,64.67L51.74,64.90L51.68,65.08L51.65,65.14L51.52,65.36L51.35,65.55L51.16,65.67L50.98,65.73L50.82,65.70L50.71,65.59"/><path style="stroke:#000000;stroke-width:0.088" d="M50.75,63.58L50.80,63.64"/><path style="stroke:#000000;stroke-width:0.088" d="M83.78,70.04L40.11,44.83"/><path style="stroke:#000000;stroke-width:0.088" d="M85.10,68.51L41.08,43.09"/><path style="stroke:#000000;stroke-width:0.088" d="M131.16,97.40L88.55,72.80"/><path style="stroke:#000000;stroke-width:0.088" d="M89.55,71.07L131.16,95.10"/><path style="stroke:#000000;stroke-width:0.088" d="M137.33,100.74L137.54,100.66L137.73,100.51"/><path style="stroke:#000000;stroke-width:0.088" d="M137.24,100.79L137.50,100.67"/><path style="stroke:#000000;stroke-width:0.088" d="M137.54,100.66L137.47,100.70"/><path style="stroke:#000000;stroke-width:0.088" d="M131.16,108.92L136.47,111.98L136.47,115.86L131.16,112.80L131.16,108.92L132.22,108.30L132.22,98.79"/><path style="stroke:#000000;stroke-width:0.088" d="M131.16,98.01L131.16,98.17L136.47,101.24L136.47,97.48L131.16,94.41L131.16,98.01"/><path style="stroke:#000000;stroke-width:0.088" d="M131.16,94.41L131.87,93.19L137.18,96.25L139.09,95.15L139.09,96.09L139.10,96.16L139.13,96.21L139.17,96.24L139.23,96.24L139.30,96.21L139.36,96.16L139.42,96.09L139.47,96.01L139.50,95.93L139.51,95.84L139.51,94.90L138.80,94.50L138.80,94.99"/><path style="stroke:#000000;stroke-width:0.088" d="M132.22,108.30L135.76,110.35L144.96,105.04L144.96,96.33"/><path style="stroke:#000000;stroke-width:0.088" d="M140.79,88.12L141.06,88.28L140.71,88.08L131.87,93.19"/><path style="stroke:#000000;stroke-width:0.088" d="M133.01,105.86L132.72,105.26L132.59,104.76L132.56,104.65L132.54,104.36L132.56,104.10L132.72,103.67L133.01,103.40L133.41,103.33L133.87,103.46L134.35,103.78L134.78,104.26L135.14,104.83L135.36,105.45L135.44,106.04L135.36,106.54L135.14,106.89L134.78,107.06L134.35,107.03L133.87,106.80L133.41,106.40L133.01,105.86"/><path style="stroke:#000000;stroke-width:0.088" d="M135.44,106.02L135.37,106.48L135.14,106.83L134.80,106.99L134.37,106.96L133.91,106.74L133.46,106.35L133.07,105.83L132.78,105.24L132.77,105.20L132.63,104.64L132.61,104.36L132.63,104.10L132.78,103.68L133.07,103.42L133.46,103.35L133.90,103.48"/><path style="stroke:#000000;stroke-width:0.088" d="M133.43,102.38L133.58,102.62L133.82,102.87L134.07,103.04L134.32,103.10L134.53,103.05L134.68,102.91L134.76,102.67L134.76,102.37L134.67,102.04L134.51,101.72L134.29,101.44L134.04,101.23L133.99,101.20L133.78,101.11L133.55,101.10L133.37,101.20L133.25,101.39L133.21,101.66L133.26,101.98L133.39,102.31L133.43,102.38"/><path style="stroke:#000000;stroke-width:0.088" d="M135.76,110.35L135.76,100.83"/><path style="stroke:#000000;stroke-width:0.088" d="M136.47,115.86L137.18,116.27L146.02,111.16L146.73,109.94L146.73,106.06L144.96,105.04"/><path style="stroke:#000000;stroke-width:0.088" d="M137.07,114.39L137.02,114.35L137.00,114.29L137.00,114.25L137.00,114.21L137.02,114.12L137.07,114.03L137.13,113.95L137.19,113.89L137.26,113.86L137.33,113.85L137.38,113.88L137.41,113.93L137.42,114.00L137.41,114.09L137.38,114.18L137.33,114.27L137.26,114.33L137.19,114.38L137.13,114.40L137.07,114.39"/><path style="stroke:#000000;stroke-width:0.088" d="M137.19,113.90L137.22,113.88L137.28,113.88L137.32,113.90L137.35,113.94L137.36,114.01L137.35,114.08L137.32,114.15L137.28,114.23L137.22,114.29L137.16,114.32L137.11,114.34L137.06,114.33L137.02,114.30L137.00,114.23"/><path style="stroke:#000000;stroke-width:0.088" d="M137.09,113.17L137.07,113.16L137.02,113.13L137.00,113.06L137.00,113.02L137.00,112.98L137.02,112.89L137.07,112.80L137.13,112.73L137.19,112.67L137.26,112.64L137.33,112.63L137.38,112.65L137.41,112.71L137.42,112.78L137.41,112.86L137.38,112.96L137.33,113.04L137.26,113.11L137.19,113.16L137.13,113.17L137.09,113.17"/><path style="stroke:#000000;stroke-width:0.088" d="M137.19,112.67L137.22,112.66L137.28,112.65L137.32,112.68L137.35,112.72L137.36,112.78L137.35,112.85L137.32,112.93L137.27,113.00L137.22,113.06L137.16,113.10L137.11,113.12L137.06,113.11L137.02,113.07L137.00,113.02L137.00,113.06L137.00,113.02L137.00,113.02"/><path style="stroke:#000000;stroke-width:0.088" d="M137.00,112.99L137.00,113.02"/><path style="stroke:#000000;stroke-width:0.088" d="M138.41,110.08L138.43,110.03L138.38,110.06L139.09,110.47L136.47,111.98"/><path style="stroke:#000000;stroke-width:0.088" d="M136.90,108.92L136.81,108.71L136.79,108.44L136.86,108.13L136.99,107.82L137.19,107.53L137.42,107.31L137.53,107.25L137.67,107.18L137.90,107.14L138.09,107.21L138.22,107.38L138.27,107.62L138.27,107.67L138.25,107.92L138.14,108.23L137.97,108.53L137.76,108.79L137.51,108.97L137.27,109.05L137.06,109.04L136.90,108.92"/><path style="stroke:#000000;stroke-width:0.088" d="M137.42,107.31L137.63,107.20L137.84,107.17L138.02,107.23L138.15,107.39L138.20,107.62L138.20,107.67L138.18,107.90L138.08,108.20L137.92,108.49L137.71,108.73L137.48,108.91L137.25,108.99L137.05,108.97L136.89,108.86L136.80,108.66L136.79,108.43"/><path style="stroke:#000000;stroke-width:0.088" d="M136.47,101.24L146.73,95.31L146.73,91.55L146.02,91.15L139.51,94.90"/><path style="stroke:#000000;stroke-width:0.088" d="M137.09,99.45L137.07,99.48L137.02,99.57L137.00,99.66L137.00,99.74L137.02,99.81L137.04,99.82L137.07,99.85L137.13,99.86L137.19,99.84L137.26,99.79L137.33,99.72L137.38,99.64L137.41,99.55L137.42,99.46L137.41,99.39L137.38,99.33L137.33,99.31L137.26,99.31L137.19,99.35L137.13,99.41L137.09,99.45"/><path style="stroke:#000000;stroke-width:0.088" d="M137.23,99.34L137.19,99.35L137.23,99.34L137.28,99.33L137.32,99.36L137.35,99.40L137.36,99.46L137.35,99.53L137.32,99.61L137.28,99.68L137.22,99.74L137.16,99.78L137.11,99.80L137.06,99.79L137.02,99.75L137.00,99.69"/><path style="stroke:#000000;stroke-width:0.088" d="M137.07,98.62L137.02,98.58L137.00,98.52L137.00,98.48L137.00,98.44L137.02,98.35L137.07,98.26L137.13,98.18L137.19,98.12L137.26,98.09L137.33,98.08L137.38,98.11L137.41,98.16L137.42,98.23L137.41,98.32L137.38,98.41L137.33,98.49L137.26,98.56L137.19,98.61L137.13,98.63L137.07,98.62"/><path style="stroke:#000000;stroke-width:0.088" d="M137.19,98.13L137.22,98.11L137.28,98.11L137.32,98.13L137.35,98.17L137.36,98.23L137.35,98.31L137.32,98.38L137.28,98.46L137.22,98.51L137.16,98.55L137.11,98.57L137.06,98.56L137.02,98.53L137.00,98.47L137.00,98.52L137.00,98.44"/><path style="stroke:#000000;stroke-width:0.088" d="M137.00,98.47L137.00,98.47"/><path style="stroke:#000000;stroke-width:0.088" d="M136.47,97.48L137.18,96.25"/><path style="stroke:#000000;stroke-width:0.088" d="M137.96,100.37L137.76,100.62L137.51,100.80L137.27,100.88L137.10,100.87"/><path style="stroke:#000000;stroke-width:0.088" d="M137.20,100.81L137.25,100.82L137.48,100.73L137.71,100.56L137.78,100.48"/><path style="stroke:#000000;stroke-width:0.088" d="M137.32,98.13L137.32,98.13"/><path style="stroke:#000000;stroke-width:0.088" d="M138.31,113.59L138.56,113.78L138.90,113.81L139.27,113.67L139.65,113.39L140.00,112.99L140.26,112.51L140.42,112.02L140.47,111.63L140.46,111.55L140.38,111.17L140.17,110.91L139.88,110.80L139.52,110.86L139.47,110.89L139.13,111.07L138.76,111.42L138.46,111.86L138.24,112.35L138.14,112.84L138.16,113.27L138.31,113.59"/><path style="stroke:#000000;stroke-width:0.088" d="M138.43,113.63L138.72,113.65L139.08,113.52L139.45,113.24L139.78,112.86L140.04,112.40L140.20,111.92L140.24,111.54L140.24,111.47L140.15,111.09L139.99,110.89"/><path style="stroke:#000000;stroke-width:0.088" d="M139.92,110.86L140.06,111.04L140.15,111.41L140.15,111.49L140.11,111.86L139.95,112.34L139.69,112.80L139.36,113.19L138.99,113.47L138.63,113.60L138.36,113.58"/><path style="stroke:#000000;stroke-width:0.088" d="M138.16,113.18L138.16,113.22L138.30,113.53L138.55,113.72L138.87,113.74L139.24,113.61L139.61,113.33L139.94,112.95L140.20,112.49L140.35,112.01L140.39,111.56L140.31,111.18L140.11,110.93L139.82,110.83L139.47,110.88L139.51,111.04L139.51,111.12L139.47,111.49L139.31,111.98L139.06,112.44L138.72,112.82L138.36,113.10L138.16,113.17"/><path style="stroke:#000000;stroke-width:0.088" d="M139.18,111.04L139.23,111.23L139.23,111.29L139.20,111.57L139.08,111.93L138.89,112.27L138.64,112.56L138.36,112.77L138.14,112.85"/><path style="stroke:#000000;stroke-width:0.088" d="M138.43,110.03L138.75,109.85L138.78,109.88L138.80,109.92L138.80,109.98L139.51,110.39L139.51,110.22L138.80,109.82L138.80,109.98L138.79,110.06L138.76,110.15L138.72,110.23L138.70,110.25"/><path style="stroke:#000000;stroke-width:0.088" d="M138.56,99.24L138.90,99.26L139.27,99.13L139.65,98.84L140.00,98.44L140.26,97.97L140.42,97.47L140.47,97.09L140.46,97.01L140.38,96.63L140.17,96.37L139.88,96.26L139.52,96.31L139.13,96.53L138.76,96.87L138.46,97.32L138.24,97.81L138.14,98.29L138.16,98.72L138.31,99.05L138.56,99.24"/><path style="stroke:#000000;stroke-width:0.088" d="M138.14,98.29L138.16,98.67L138.30,98.99L138.55,99.17L138.87,99.20L139.24,99.06L139.61,98.79L139.94,98.40L140.20,97.94L140.35,97.46L140.40,97.09L140.39,97.01L140.31,96.64L140.11,96.39L139.82,96.28L139.47,96.34L139.51,96.50L139.47,96.95L139.31,97.43L139.06,97.89L138.72,98.28L138.36,98.55L138.16,98.62"/><path style="stroke:#000000;stroke-width:0.088" d="M139.92,96.32L140.06,96.50L140.15,96.87L140.15,96.95L140.11,97.32L139.95,97.80L139.69,98.26L139.36,98.65L138.99,98.92L138.63,99.05L138.36,99.03"/><path style="stroke:#000000;stroke-width:0.088" d="M138.43,99.08L138.72,99.11L139.08,98.97L139.45,98.70L139.78,98.31L140.04,97.85L140.20,97.37L140.24,97.00L140.24,96.92L140.15,96.55L139.99,96.35"/><path style="stroke:#000000;stroke-width:0.088" d="M139.18,96.50L139.23,96.68L139.23,96.74L139.20,97.02L139.08,97.38L138.89,97.73L138.64,98.02L138.36,98.22L138.14,98.30"/><path style="stroke:#000000;stroke-width:0.088" d="M138.80,94.50L138.38,94.74L139.09,95.15"/><path style="stroke:#000000;stroke-width:0.088" d="M140.14,111.07L140.21,111.37L140.21,111.46L140.17,111.85L140.00,112.35L139.73,112.84L139.38,113.25L138.99,113.54L138.68,113.65"/><path style="stroke:#000000;stroke-width:0.088" d="M139.09,110.47L139.09,110.63L139.10,110.70L139.13,110.75L139.17,110.78L139.23,110.78L139.30,110.76L139.36,110.71L139.42,110.64L139.47,110.56L139.50,110.47L139.51,110.39"/><path style="stroke:#000000;stroke-width:0.088" d="M138.80,109.82L138.75,109.85"/><path style="stroke:#000000;stroke-width:0.088" d="M140.14,96.53L140.21,96.83L140.21,96.91L140.17,97.30L140.00,97.81L139.73,98.29L139.38,98.70L138.99,98.99L138.68,99.10"/><path style="stroke:#000000;stroke-width:0.088" d="M139.51,95.84L139.09,95.60"/><path style="stroke:#000000;stroke-width:0.088" d="M139.51,110.22L146.73,106.06"/><path style="stroke:#000000;stroke-width:0.088" d="M139.62,107.46L139.65,107.30L139.72,107.14L139.83,106.99L139.95,106.87L140.08,106.80L140.20,106.78L140.30,106.82L140.37,106.90L140.40,107.03L140.38,107.19L140.33,107.35L140.24,107.51L140.13,107.64L140.00,107.74L139.87,107.78L139.76,107.77L139.68,107.71L139.63,107.60L139.62,107.46L139.70,107.40L139.81,107.26L139.90,107.11L139.96,106.94L139.97,106.86"/><path style="stroke:#000000;stroke-width:0.088" d="M139.69,107.21L139.72,107.17L139.77,107.08L139.78,107.05"/><path style="stroke:#000000;stroke-width:0.088" d="M141.21,111.24L141.23,111.30L141.27,111.34L141.33,111.36L141.40,111.34L141.47,111.29L141.53,111.23L141.59,111.14L141.62,111.05L141.63,110.97L141.62,110.89L141.59,110.84L141.54,110.81L141.48,110.81L141.41,110.85L141.34,110.90L141.28,110.98L141.24,111.07L141.21,111.16L141.21,111.24"/><path style="stroke:#000000;stroke-width:0.088" d="M141.40,96.79L141.34,96.81L141.28,96.80L141.24,96.76L141.21,96.70L141.21,96.62L141.24,96.53L141.28,96.44L141.34,96.36L141.40,96.30L141.47,96.27L141.54,96.27L141.59,96.29L141.62,96.34L141.63,96.42L141.62,96.50L141.59,96.59L141.54,96.68L141.47,96.75L141.40,96.79"/><path style="stroke:#000000;stroke-width:0.088" d="M141.85,88.74L141.06,88.28L146.24,91.27"/><path style="stroke:#000000;stroke-width:0.088" d="M145.54,109.05L145.47,108.89L145.46,108.75L145.46,108.68L145.51,108.45L145.61,108.21L145.76,108.00L145.94,107.83L146.13,107.72L146.30,107.70L146.45,107.75L146.54,107.88L146.59,108.06L146.57,108.29L146.49,108.53L146.36,108.76L146.19,108.95L146.01,109.09L145.83,109.15L145.66,109.14L145.54,109.05"/><path style="stroke:#000000;stroke-width:0.088" d="M146.06,107.76L146.15,107.76L146.26,107.83L146.32,107.95L146.34,108.08L146.34,108.11L146.30,108.30L146.22,108.50L146.11,108.68L145.97,108.82L145.81,108.91L145.67,108.94L145.55,108.90L145.46,108.81L145.46,108.80"/><path style="stroke:#000000;stroke-width:0.088" d="M145.56,109.06L145.68,109.07L145.87,109.01L146.05,108.87L146.22,108.67L146.35,108.44L146.43,108.20L146.45,108.02L146.44,107.98L146.40,107.79L146.34,107.71"/><path style="stroke:#000000;stroke-width:0.088" d="M145.81,94.61L145.79,94.61L145.64,94.58L145.52,94.48L145.46,94.31L145.46,94.21L145.46,94.10L145.52,93.86L145.64,93.62L145.79,93.41L145.97,93.26L146.16,93.17L146.33,93.16L146.47,93.22L146.56,93.36L146.59,93.56L146.56,93.79L146.47,94.03L146.33,94.25L146.16,94.44L145.97,94.56L145.81,94.61"/><path style="stroke:#000000;stroke-width:0.088" d="M146.34,93.16L146.42,93.28L146.45,93.47L146.42,93.70L146.33,93.94L146.19,94.17L146.02,94.35L145.83,94.48L145.65,94.53L145.56,94.51"/><path style="stroke:#000000;stroke-width:0.088" d="M146.06,93.21L146.15,93.22L146.26,93.28L146.32,93.40L146.34,93.57L146.30,93.76L146.22,93.95L146.11,94.13L145.97,94.27L145.81,94.36L145.67,94.39L145.55,94.36L145.46,94.27L145.46,94.25"/><path style="stroke:#000000;stroke-width:0.088" d="M146.02,91.15L145.81,91.02L145.90,91.07"/><path style="stroke:#000000;stroke-width:0.088" d="M146.73,91.55L146.60,91.48"/><path style="stroke:#000000;stroke-width:0.088" d="M116.49,115.06L116.29,114.58L116.17,113.99L116.21,113.48L116.40,113.10L116.71,112.88L117.12,112.86L117.58,113.04L118.04,113.39L118.08,113.43L118.45,113.89L118.77,114.46L118.95,115.06L118.99,115.62L118.88,116.08L118.62,116.38L118.26,116.50L117.82,116.42L117.58,116.31L117.35,116.15L116.91,115.72L116.54,115.18L116.49,115.06"/><path style="stroke:#000000;stroke-width:0.088" d="M116.49,113.79L116.49,113.80L116.48,114.22L116.59,114.69L116.81,115.16L117.11,115.57L117.47,115.89L117.83,116.07L118.17,116.11L118.45,115.98L118.63,115.72L118.70,115.34L118.64,114.89L118.48,114.42L118.21,113.97L117.88,113.60L117.58,113.39L117.51,113.35L117.16,113.24L116.85,113.28L116.61,113.48L116.49,113.79"/><path style="stroke:#000000;stroke-width:0.088" d="M117.08,114.08L117.10,114.04L117.11,113.99L117.10,113.92L117.07,113.86L117.04,113.80L117.05,113.89L117.08,114.08L117.89,113.61"/><path style="stroke:#000000;stroke-width:0.088" d="M117.04,113.80L117.66,113.44"/><path style="stroke:#000000;stroke-width:0.088" d="M116.71,112.88L120.25,110.84L120.66,110.82L121.12,111.00L121.58,111.35L121.99,111.84L122.31,112.42L122.49,113.02L122.53,113.58L122.42,114.04L122.16,114.34L118.62,116.38"/><path style="stroke:#000000;stroke-width:0.088" d="M118.65,114.99L117.88,115.44L117.68,115.24L117.66,115.22L117.71,115.24L117.76,115.27L117.81,115.31L117.85,115.37L117.88,115.44"/><path style="stroke:#000000;stroke-width:0.088" d="M117.66,115.22L118.57,114.70"/><path style="stroke:#000000;stroke-width:0.088" d="M120.47,111.28L120.55,111.32L120.64,111.38L118.24,112.77L118.15,112.71L118.06,112.66L120.47,111.28L120.47,111.34L118.12,112.70"/><path style="stroke:#000000;stroke-width:0.088" d="M119.33,115.93L119.42,115.81L121.82,114.42L121.73,114.54L119.33,115.93"/><path style="stroke:#000000;stroke-width:0.088" d="M119.41,114.33L121.77,112.97L121.82,112.96L121.73,112.73L119.33,114.12L119.42,114.35L121.82,112.96"/><path style="stroke:#000000;stroke-width:0.088" d="M120.47,111.34L120.51,111.35L120.55,111.36L120.60,111.40"/><path style="stroke:#000000;stroke-width:0.088" d="M121.73,114.54L121.69,114.49"/><path style="stroke:#000000;stroke-width:0.088" d="M121.77,112.97L121.77,112.91L121.75,112.85L121.72,112.79L121.70,112.76"/><path style="stroke:#000000;stroke-width:0.088" d="M156.73,94.44L156.87,94.52L156.87,96.24L155.81,96.85L152.98,95.22L152.27,93.99L152.27,89.09L152.37,89.03"/><path style="stroke:#000000;stroke-width:0.088" d="M155.81,94.97L155.81,90.31L156.87,89.70L156.87,94.36L155.81,94.97L154.75,94.36L154.66,93.90L154.46,93.44L154.18,93.02L153.83,92.70L153.47,92.50L153.14,92.46L152.86,92.58L152.69,92.84L152.63,93.22L152.69,93.66L152.86,94.13L153.14,94.56L153.47,94.90L153.83,95.13L154.18,95.20L154.46,95.11L154.66,94.88L154.75,94.52L155.81,95.14L155.81,96.85"/><path style="stroke:#000000;stroke-width:0.088" d="M152.60,91.27L152.64,91.36L152.70,91.45L152.77,91.52L152.85,91.56L152.92,91.57L152.98,91.55L153.02,91.50L153.03,91.42L153.03,91.41L153.02,91.33L152.99,91.23L152.94,91.14L152.87,91.06L152.80,91.01L152.72,90.98L152.66,90.98L152.61,91.02L152.58,91.09L152.57,91.17L152.60,91.27"/><path style="stroke:#000000;stroke-width:0.088" d="M152.27,89.09L152.98,88.68L155.81,90.31"/><path style="stroke:#000000;stroke-width:0.088" d="M154.83,94.47L154.53,94.29L154.20,93.94L153.93,93.51L153.75,93.05L153.69,92.62"/><path style="stroke:#000000;stroke-width:0.088" d="M153.61,91.49L153.39,91.29L153.20,91.03L153.06,90.73L153.05,90.70L152.99,90.44L152.99,90.17L153.07,89.96L153.22,89.84L153.42,89.81L153.64,89.88L153.69,89.91L153.88,90.04L154.09,90.28L154.26,90.56L154.36,90.86L154.40,91.15L154.37,91.27L154.35,91.39L154.24,91.56L154.06,91.63L153.85,91.61L153.61,91.49"/><path style="stroke:#000000;stroke-width:0.088" d="M154.39,91.07L154.36,91.23L154.26,91.37L154.11,91.43L153.93,91.42L153.73,91.32L153.59,91.19L153.54,91.15L153.38,90.92L153.26,90.67L153.20,90.42L153.20,90.19L153.27,90.02L153.40,89.91L153.56,89.89L153.73,89.94"/><path style="stroke:#000000;stroke-width:0.088" d="M153.29,90.73L153.38,90.92"/><path style="stroke:#000000;stroke-width:0.088" d="M152.98,88.68L153.99,88.10L153.95,88.12"/><path style="stroke:#000000;stroke-width:0.088" d="M154.41,92.38L154.36,92.29L154.34,92.19L154.35,92.11L154.38,92.04L154.43,92.01L154.49,92.00L154.57,92.03L154.64,92.08L154.71,92.16L154.76,92.26L154.79,92.35L154.80,92.43L154.80,92.44L154.78,92.52L154.74,92.57L154.69,92.59L154.61,92.58L154.54,92.54L154.47,92.47L154.41,92.38"/><path style="stroke:#000000;stroke-width:0.088" d="M156.87,89.70L154.04,88.07L153.99,88.10"/><path style="stroke:#000000;stroke-width:0.088" d="M154.75,94.52L154.89,94.44"/><path style="stroke:#000000;stroke-width:0.088" d="M155.81,95.14L156.87,94.52"/><path style="stroke:#000000;stroke-width:0.088" d="M156.11,89.88L156.02,89.92L155.89,89.94L155.75,89.94L155.62,89.92L155.50,89.87L155.42,89.80L155.39,89.73L155.40,89.65L155.45,89.57L155.54,89.51L155.66,89.47L155.80,89.46L155.94,89.47L156.07,89.50L156.16,89.56L156.22,89.64L156.24,89.72L156.20,89.80L156.13,89.86L156.11,89.88"/><path style="stroke:#000000;stroke-width:0.088" d="M32.50,55.84L32.44,55.80L32.44,51.92L35.06,50.41L35.27,50.53"/><path style="stroke:#000000;stroke-width:0.088" d="M32.44,51.92L37.75,54.99L37.75,58.87L38.46,59.28L44.72,55.66"/><path style="stroke:#000000;stroke-width:0.088" d="M37.75,44.24L32.44,41.18L32.44,37.42L37.75,40.48L37.75,44.24L38.81,43.63L38.81,54.37L37.75,54.99"/><path style="stroke:#000000;stroke-width:0.088" d="M32.44,37.42L33.15,36.19L38.46,39.26L47.30,34.15L42.10,31.15"/><path style="stroke:#000000;stroke-width:0.088" d="M32.49,55.83L37.75,58.87"/><path style="stroke:#000000;stroke-width:0.088" d="M33.15,36.19L35.06,35.09L35.77,35.50L36.19,35.25L35.49,34.84L35.49,35.34"/><path style="stroke:#000000;stroke-width:0.088" d="M38.81,54.37L35.27,52.33L35.27,42.81"/><path style="stroke:#000000;stroke-width:0.088" d="M35.59,48.49L35.64,47.97L35.85,47.59L36.18,47.38L36.60,47.38L37.07,47.57L37.54,47.94L37.96,48.45L38.27,49.05L38.46,49.67L38.49,50.06L38.49,50.23L38.36,50.69L38.09,50.99L37.71,51.10L37.25,51.00L36.77,50.72L36.33,50.27L35.95,49.71L35.70,49.09L35.59,48.49"/><path style="stroke:#000000;stroke-width:0.088" d="M35.49,34.84L42.00,31.09L42.79,31.55"/><path style="stroke:#000000;stroke-width:0.088" d="M37.09,47.58L36.65,47.40L36.23,47.41L35.91,47.61L35.71,47.98L35.67,48.49L35.77,49.08L36.02,49.67L36.38,50.22L36.82,50.66L37.28,50.94L37.73,51.03L38.10,50.93L38.36,50.64L38.49,50.19L38.49,50.05"/><path style="stroke:#000000;stroke-width:0.088" d="M36.33,46.07L36.27,45.75L36.29,45.47L36.39,45.25L36.56,45.14L36.79,45.13L37.04,45.22L37.30,45.42L37.52,45.69L37.69,46.01L37.80,46.34L37.82,46.64L37.76,46.89L37.62,47.06L37.41,47.13L37.17,47.08L36.91,46.93L36.67,46.70L36.47,46.40L36.33,46.07"/><path style="stroke:#000000;stroke-width:0.088" d="M37.75,40.48L38.46,39.26"/><path style="stroke:#000000;stroke-width:0.088" d="M40.59,54.34L41.43,54.82L41.38,54.53L41.25,54.32L41.05,54.23L40.79,54.24L40.51,54.38L40.24,54.61L40.01,54.92L39.83,55.28L39.74,55.64L39.74,55.96L39.83,56.21L40.01,56.37L40.24,56.41L40.51,56.33L40.79,56.14L41.05,55.87L41.25,55.53L41.38,55.17L41.43,54.82L42.13,55.18"/><path style="stroke:#000000;stroke-width:0.088" d="M41.24,51.35L41.23,51.34L41.08,51.21L40.88,51.17L40.64,51.24L40.40,51.40L40.17,51.64L39.99,51.94L39.88,52.25L39.84,52.56L39.88,52.81L39.99,52.99L40.17,53.08L40.23,53.08"/><path style="stroke:#000000;stroke-width:0.088" d="M40.05,52.96L39.99,52.93L39.97,52.90"/><path style="stroke:#000000;stroke-width:0.088" d="M39.91,52.82L39.88,52.76L39.87,52.72"/><path style="stroke:#000000;stroke-width:0.088" d="M41.24,43.18L41.23,43.17L41.08,43.03L40.88,43.00L40.64,43.07L40.40,43.23L40.17,43.47L39.99,43.77L39.88,44.08L39.84,44.38L39.88,44.64L39.99,44.82L40.17,44.91L40.23,44.90"/><path style="stroke:#000000;stroke-width:0.088" d="M39.97,44.73L39.99,44.76L40.05,44.79"/><path style="stroke:#000000;stroke-width:0.088" d="M39.91,44.65L39.88,44.59L39.87,44.55"/><path style="stroke:#000000;stroke-width:0.088" d="M40.24,41.86L40.01,41.82L39.83,41.67L39.74,41.41L39.74,41.09L39.83,40.73L40.01,40.38L40.24,40.07L40.51,39.83L40.79,39.70L41.05,39.68L41.25,39.78L41.38,39.99L41.43,40.28L41.38,40.62L41.25,40.98L41.05,41.32L40.79,41.60L40.51,41.79L40.24,41.86"/><path style="stroke:#000000;stroke-width:0.088" d="M40.96,51.22L41.03,51.23L41.05,51.25"/><path style="stroke:#000000;stroke-width:0.088" d="M40.86,51.20L40.83,51.19L40.75,51.22"/><path style="stroke:#000000;stroke-width:0.088" d="M40.64,51.25L40.61,51.26"/><path style="stroke:#000000;stroke-width:0.088" d="M40.75,43.04L40.83,43.02L40.86,43.03"/><path style="stroke:#000000;stroke-width:0.088" d="M40.96,43.05L41.03,43.06L41.05,43.08"/><path style="stroke:#000000;stroke-width:0.088" d="M40.64,43.08L40.61,43.08"/><path style="stroke:#000000;stroke-width:0.088" d="M42.89,51.59L42.92,51.61L42.99,51.61L43.06,51.58L43.14,51.52L43.21,51.43L43.26,51.34L43.29,51.24L43.29,51.15L43.27,51.07L43.23,51.03L43.16,51.01L43.09,51.02L43.01,51.07L42.94,51.14L42.88,51.23L42.84,51.33L42.82,51.44L42.83,51.51L42.87,51.57L42.89,51.59"/><path style="stroke:#000000;stroke-width:0.088" d="M43.14,31.75L42.95,31.64"/><path style="stroke:#000000;stroke-width:0.088" d="M46.71,54.51L47.30,54.17L48.01,52.94L48.01,49.39"/><path style="stroke:#000000;stroke-width:0.088" d="M47.31,50.90L47.76,51.17L47.74,51.01L47.67,50.90L47.56,50.84L47.42,50.85L47.27,50.93L47.12,51.05L46.99,51.22L46.90,51.41L46.85,51.61L46.85,51.78L46.90,51.92L46.99,52.00L47.12,52.03L47.27,51.98L47.42,51.88L47.56,51.73L47.67,51.55L47.74,51.35L47.76,51.17L48.01,51.78"/><path style="stroke:#000000;stroke-width:0.088" d="M46.87,37.30L46.90,37.37L46.99,37.46L47.12,37.48L47.27,37.44L47.42,37.34L47.56,37.19L47.67,37.00L47.74,36.81L47.76,36.62L47.74,36.46L47.67,36.35L47.56,36.30L47.42,36.31L47.27,36.38L47.12,36.51L46.99,36.68L46.90,36.87L46.85,37.06L46.85,37.24L46.87,37.30"/><path style="stroke:#000000;stroke-width:0.088" d="M48.01,47.09L48.01,37.24L47.76,36.62L47.31,36.36"/><path style="stroke:#000000;stroke-width:0.088" d="M47.30,34.15L47.55,34.29L47.26,34.13"/><path style="stroke:#000000;stroke-width:0.088" d="M48.01,37.24L48.01,34.56L47.55,34.29L47.96,34.53"/><path style="stroke:#000000;stroke-width:0.088" d="M47.96,34.53L47.55,34.29"/><path style="stroke:#000000;stroke-width:0.088" d="M54.68,38.46L54.62,38.43L54.62,36.71L55.68,37.32L55.76,37.78L55.96,38.24L56.25,38.66L56.59,38.98L56.95,39.18L57.29,39.22L57.56,39.10L57.74,38.84L57.80,38.47L57.74,38.02L57.56,37.56L57.29,37.13L56.95,36.78L56.59,36.56L56.25,36.48L55.96,36.57L55.77,36.81L55.68,37.16L54.62,36.55L54.62,31.89L57.45,33.52L58.15,34.75L58.15,39.65L57.45,40.06L54.68,38.46"/><path style="stroke:#000000;stroke-width:0.088" d="M54.62,36.71L54.76,36.63"/><path style="stroke:#000000;stroke-width:0.088" d="M57.45,33.52L58.51,32.91L55.68,31.28L54.62,31.89"/><path style="stroke:#000000;stroke-width:0.088" d="M55.42,32.09L55.33,32.03L55.27,31.95L55.25,31.87L55.28,31.80L55.36,31.73L55.38,31.72L55.47,31.68L55.60,31.65L55.74,31.65L55.87,31.67L55.98,31.72L56.06,31.79L56.10,31.86L56.09,31.95L56.04,32.02L55.95,32.08L55.82,32.12L55.69,32.14L55.55,32.12L55.42,32.09"/><path style="stroke:#000000;stroke-width:0.088" d="M55.68,37.32L56.74,36.71L56.83,37.17L57.02,37.63L57.31,38.05L57.66,38.37L57.80,38.45"/><path style="stroke:#000000;stroke-width:0.088" d="M55.68,37.16L56.66,36.60"/><path style="stroke:#000000;stroke-width:0.088" d="M55.96,35.60L55.89,35.58L55.81,35.54L55.74,35.47L55.68,35.38L55.64,35.28L55.63,35.19L55.62,35.17L55.63,35.10L55.66,35.04L55.72,35.01L55.78,35.01L55.86,35.04L55.93,35.10L56.00,35.18L56.05,35.27L56.08,35.37L56.08,35.46L56.06,35.53L56.02,35.58L55.96,35.60"/><path style="stroke:#000000;stroke-width:0.088" d="M56.18,34.92L56.17,34.91L56.07,34.61L56.03,34.32L56.07,34.08L56.19,33.92L56.36,33.84L56.58,33.86L56.74,33.93L56.81,33.98L57.04,34.18L57.23,34.44L57.37,34.74L57.44,35.04L57.43,35.30L57.35,35.51L57.21,35.63L57.01,35.66L56.78,35.59L56.55,35.43L56.34,35.19L56.18,34.92"/><path style="stroke:#000000;stroke-width:0.088" d="M56.81,33.98L56.71,33.93L56.53,33.92L56.38,33.98L56.28,34.12L56.24,34.33L56.27,34.57L56.36,34.82L56.51,35.07L56.69,35.27L56.66,35.24"/><path style="stroke:#000000;stroke-width:0.088" d="M56.60,36.63L56.74,36.71"/><path style="stroke:#000000;stroke-width:0.088" d="M56.69,35.27L56.88,35.40L57.08,35.46L57.24,35.44L57.37,35.33L57.44,35.16L57.44,35.03"/><path style="stroke:#000000;stroke-width:0.088" d="M57.85,39.83L57.56,40.00"/><path style="stroke:#000000;stroke-width:0.088" d="M57.73,36.62L57.66,36.60L57.58,36.56L57.51,36.49L57.45,36.40L57.41,36.30L57.39,36.21L57.39,36.19L57.40,36.12L57.43,36.06L57.49,36.03L57.55,36.03L57.63,36.06L57.70,36.12L57.77,36.20L57.82,36.29L57.85,36.39L57.85,36.48L57.85,36.51L57.83,36.55L57.79,36.60L57.73,36.62"/><path style="stroke:#000000;stroke-width:0.088" d="M58.10,39.68L58.64,39.37L58.51,39.45"/><path style="stroke:#000000;stroke-width:0.088" d="M58.15,34.75L59.22,34.14L59.22,39.04L58.64,39.37"/><path style="stroke:#000000;stroke-width:0.088" d="M58.51,32.91L59.22,34.14"/><path style="stroke:#000000;stroke-width:0.088" d="M107.34,62.33L107.34,66.99L106.27,66.37L106.19,65.92L105.99,65.45L105.70,65.04L105.36,64.71L105.00,64.52L104.66,64.48L104.39,64.59L104.21,64.85L104.15,65.23L104.21,65.67L104.39,66.14L104.66,66.57L104.76,66.67L105.00,66.92L105.36,67.14L105.70,67.21L105.99,67.13L106.19,66.89L106.27,66.53L107.34,67.15L108.40,66.54L108.40,68.25L107.34,68.86L104.51,67.23L103.80,66.00L103.80,61.10L105.57,60.08L108.40,61.71L107.34,62.33L104.51,60.69"/><path style="stroke:#000000;stroke-width:0.088" d="M103.81,61.09L103.87,61.06"/><path style="stroke:#000000;stroke-width:0.088" d="M104.30,63.53L104.37,63.57L104.44,63.58L104.50,63.56L104.54,63.51L104.56,63.44L104.56,63.42L104.55,63.35L104.52,63.25L104.47,63.15L104.40,63.08L104.32,63.02L104.25,62.99L104.18,63.00L104.13,63.03L104.10,63.10L104.10,63.18L104.12,63.28L104.16,63.38L104.22,63.46L104.30,63.53"/><path style="stroke:#000000;stroke-width:0.088" d="M104.58,62.75L104.51,62.45L104.52,62.18L104.60,61.98L104.75,61.85L104.94,61.83L105.17,61.90L105.21,61.92L105.40,62.06L105.61,62.29L105.78,62.58L105.89,62.88L105.92,63.16L105.88,63.40L105.76,63.57L105.59,63.65L105.37,63.62L105.14,63.51L104.92,63.31L104.72,63.04L104.58,62.75"/><path style="stroke:#000000;stroke-width:0.088" d="M106.36,66.49L106.06,66.30L105.72,65.96L105.45,65.53L105.27,65.06L105.22,64.63"/><path style="stroke:#000000;stroke-width:0.088" d="M105.91,63.09L105.88,63.24L105.79,63.38L105.64,63.45L105.45,63.43L105.26,63.33L105.07,63.16L104.90,62.94L104.81,62.75L104.90,62.94"/><path style="stroke:#000000;stroke-width:0.088" d="M105.07,63.16L104.94,62.99"/><path style="stroke:#000000;stroke-width:0.088" d="M104.81,62.75L104.78,62.68L104.72,62.43L104.73,62.20L104.80,62.03L104.92,61.92L105.09,61.90L105.26,61.95"/><path style="stroke:#000000;stroke-width:0.088" d="M105.99,64.48L105.93,64.40L105.89,64.30L105.87,64.20L105.87,64.12L105.90,64.06L105.95,64.02L106.02,64.01L106.09,64.04L106.17,64.10L106.24,64.18L106.29,64.27L106.29,64.29L106.32,64.37L106.33,64.44L106.33,64.46L106.31,64.53L106.27,64.58L106.21,64.61L106.14,64.59L106.07,64.55L105.99,64.48"/><path style="stroke:#000000;stroke-width:0.088" d="M105.57,60.08L105.50,60.12"/><path style="stroke:#000000;stroke-width:0.088" d="M106.27,66.53L106.41,66.45"/><path style="stroke:#000000;stroke-width:0.088" d="M106.92,61.66L106.98,61.58L107.07,61.52L107.19,61.48L107.33,61.47L107.47,61.48L107.59,61.52L107.69,61.58L107.75,61.65L107.76,61.73L107.73,61.81L107.66,61.88L107.64,61.89L107.55,61.93L107.41,61.96L107.27,61.96L107.14,61.93L107.03,61.88L106.95,61.82L106.91,61.74L106.92,61.66"/><path style="stroke:#000000;stroke-width:0.088" d="M107.34,68.86L107.34,67.15"/><path style="stroke:#000000;stroke-width:0.088" d="M107.34,66.99L108.40,66.37L108.40,61.71"/><path style="stroke:#000000;stroke-width:0.088" d="M108.40,66.54L108.26,66.45"/><path style="stroke:#000000;stroke-width:0.088" d="M150.75,117.44L150.50,117.30L150.34,117.03L150.29,116.66L150.36,116.22L150.54,115.77L150.57,115.73L150.80,115.35L151.13,115.02L151.48,114.79L151.81,114.71L152.10,114.78L151.85,114.63L151.57,114.55L151.24,114.61L150.89,114.82L150.56,115.14L150.28,115.55L150.15,115.87L150.10,116.00L150.01,116.44L150.04,116.82L150.19,117.11L150.43,117.26L150.75,117.44L151.06,117.43L151.41,117.28L151.48,117.24L151.79,116.97L152.07,116.62L152.28,116.21L152.40,115.79L152.42,115.52L152.41,115.40L152.31,115.10L152.12,114.91L151.85,114.84L151.54,114.92L151.21,115.13L150.91,115.44L150.66,115.83L150.50,116.25L150.44,116.66L150.44,116.67L150.48,117.01L150.62,117.26L150.86,117.39L151.15,117.38L151.48,117.24"/><path style="stroke:#000000;stroke-width:0.088" d="M151.36,115.47L151.56,115.37L151.74,115.35L151.89,115.41L151.99,115.55L152.03,115.76L152.00,116.00L151.91,116.25L151.77,116.49L151.59,116.70L151.39,116.84L151.20,116.90L151.03,116.88L150.90,116.77L150.84,116.60L150.83,116.37L150.89,116.12L151.01,115.87L151.17,115.64L151.36,115.47L151.36,115.47"/><path style="stroke:#000000;stroke-width:0.088" d="M150.89,116.32L150.95,116.33L151.05,116.30L151.15,116.23L151.25,116.12L151.32,116.00L151.37,115.86L151.39,115.73L151.37,115.62L151.33,115.56"/><path style="stroke:#000000;stroke-width:0.088" d="M150.85,116.27L150.87,116.30L150.93,116.36L151.02,116.37L151.13,116.34L151.23,116.26L151.32,116.16L151.40,116.03L151.45,115.89L151.46,115.77L151.44,115.66L151.39,115.58L151.31,115.55L151.27,115.55"/><path style="stroke:#000000;stroke-width:0.088" d="M152.10,114.78L152.30,114.99L152.41,115.31L152.42,115.43L152.42,115.52"/><path style="stroke:#000000;stroke-width:0.088" d="M83.75,78.20L40.11,53.00"/><path style="stroke:#000000;stroke-width:0.088" d="M83.75,75.90L41.08,51.26"/><path style="stroke:#000000;stroke-width:0.088" d="M132.22,106.18L88.55,80.97"/><path style="stroke:#000000;stroke-width:0.088" d="M132.22,103.88L89.55,79.24"/><path style="stroke:#000000;stroke-width:0.088" d="M137.00,108.82L136.92,108.65L136.89,108.42L136.94,108.16L137.05,107.89L137.21,107.64L137.41,107.45L137.53,107.37L137.62,107.32L137.82,107.28L137.99,107.33L138.11,107.46L138.16,107.66L138.15,107.91L138.07,108.18L137.93,108.44L137.75,108.66L137.54,108.83L137.34,108.91L137.15,108.91L137.00,108.82"/><path style="stroke:#000000;stroke-width:0.088" d="M137.00,108.93L137.04,108.96L137.01,108.94"/><path style="stroke:#000000;stroke-width:0.088" d="M137.04,108.96L137.24,108.96L137.50,108.84"/><path style="stroke:#000000;stroke-width:0.088" d="M137.47,108.87L137.54,108.83"/><path style="stroke:#000000;stroke-width:0.088" d="M137.28,108.40L137.34,108.45L137.42,108.47L137.51,108.44L137.60,108.38L137.68,108.28L137.75,108.17L137.80,108.05L137.81,107.94L137.80,107.84L137.75,107.77L137.68,107.74L137.59,107.75L137.51,107.79L137.42,107.87L137.34,107.97L137.28,108.09L137.25,108.21L137.25,108.32L137.28,108.40"/><path style="stroke:#000000;stroke-width:0.088" d="M137.25,108.24L137.28,108.33L137.32,108.37L137.39,108.39L137.47,108.36L137.55,108.31L137.68,108.14L137.71,108.03L137.73,107.94L137.71,107.85L137.68,107.80L137.62,107.77L137.55,107.77L137.50,107.80"/><path style="stroke:#000000;stroke-width:0.088" d="M137.99,107.22L138.10,107.35L138.16,107.57L138.16,107.73"/><path style="stroke:#000000;stroke-width:0.088" d="M151.48,109.07L151.41,109.10L151.06,109.26L150.75,109.27L150.50,109.13L150.34,108.86L150.29,108.48L150.36,108.05L150.54,107.60L150.80,107.18L151.13,106.85L151.48,106.62L151.81,106.54L152.10,106.61L152.30,106.81L152.41,107.14L152.42,107.26L152.42,107.35L152.41,107.23L152.31,106.93L152.12,106.73L151.85,106.67L151.54,106.75L151.21,106.96L150.91,107.27L150.66,107.66L150.50,108.08L150.44,108.49L150.48,108.84L150.62,109.09L150.86,109.22L151.15,109.21L151.48,109.07L151.79,108.80L152.07,108.44L152.28,108.03L152.40,107.61L152.42,107.35"/><path style="stroke:#000000;stroke-width:0.088" d="M152.10,106.61L151.85,106.46L151.57,106.38L151.24,106.44L150.89,106.65L150.57,106.96L150.56,106.97L150.28,107.38L150.10,107.83L150.01,108.27L150.04,108.65L150.19,108.94L150.43,109.09L150.75,109.27"/><path style="stroke:#000000;stroke-width:0.088" d="M151.33,107.39L151.37,107.45L151.39,107.56L151.37,107.69L151.32,107.82L151.25,107.95L151.15,108.06L151.05,108.13L150.95,108.16L150.89,108.15"/><path style="stroke:#000000;stroke-width:0.088" d="M151.36,107.30L151.56,107.20L151.74,107.18L151.89,107.24L151.99,107.38L152.03,107.58L152.00,107.83L151.91,108.08L151.77,108.32L151.59,108.52L151.39,108.66L151.20,108.73L151.03,108.70L150.90,108.60L150.84,108.43L150.83,108.20L150.89,107.95L151.01,107.70L151.17,107.47L151.36,107.30L151.36,107.30"/><path style="stroke:#000000;stroke-width:0.088" d="M150.85,108.10L150.87,108.13L150.93,108.19L151.02,108.20L151.13,108.17L151.23,108.09L151.32,107.99L151.32,107.99L151.40,107.86L151.45,107.72L151.46,107.60L151.46,107.59L151.44,107.49L151.39,107.41L151.31,107.38L151.27,107.38"/><path style="stroke:#000000;stroke-width:0.088" d="M24.78,44.20L24.80,44.46L24.93,44.77L25.15,44.95L25.47,45.12L25.23,44.96L25.10,44.67L25.07,44.36L25.07,44.28L25.16,43.84L25.35,43.39L25.63,42.99L25.96,42.67L26.15,42.56L26.31,42.47L26.64,42.41L26.91,42.51L26.66,42.36L26.40,42.25L26.07,42.29L25.72,42.47L25.39,42.78L25.10,43.17L24.90,43.62L24.79,44.06L24.78,44.20L24.78,44.12L24.79,43.99L24.89,43.58L25.08,43.16L25.35,42.79L25.66,42.51L25.72,42.47"/><path style="stroke:#000000;stroke-width:0.088" d="M25.47,45.12L25.77,45.14L26.12,45.01L26.46,44.75L26.77,44.38L27.01,43.95L27.15,43.50L27.19,43.08L27.10,42.74L26.91,42.51"/><path style="stroke:#000000;stroke-width:0.088" d="M26.15,44.14L26.05,44.18L25.95,44.19L25.87,44.15L25.83,44.07L25.81,43.96L25.83,43.83L25.88,43.70L25.96,43.57L26.05,43.47L26.14,43.41L26.16,43.40L26.26,43.37L26.35,43.39L26.41,43.45L26.44,43.54L26.44,43.67L26.41,43.80L26.34,43.93L26.25,44.05L26.15,44.14"/><path style="stroke:#000000;stroke-width:0.088" d="M26.31,43.38L26.34,43.41L26.37,43.51L26.38,43.57L26.37,43.63L26.33,43.77L26.27,43.90L26.18,44.01L26.07,44.10L25.97,44.15L25.88,44.15L25.87,44.15"/><path style="stroke:#000000;stroke-width:0.088" d="M26.35,43.43L26.29,43.63L26.17,43.88L26.00,44.09L25.93,44.15"/><path style="stroke:#000000;stroke-width:0.088" d="M24.78,36.02L24.80,36.29L24.93,36.59L25.15,36.78L25.47,36.95L25.23,36.79L25.10,36.50L25.07,36.19L25.07,36.11L25.16,35.67L25.35,35.22L25.63,34.82L25.96,34.50L26.31,34.30L26.64,34.24L26.91,34.33L26.66,34.19L26.40,34.08L26.07,34.12L25.72,34.30L25.39,34.61L25.10,35.00L24.90,35.45L24.79,35.89L24.78,36.02L24.78,35.94L24.79,35.82L24.89,35.41L25.08,34.99L25.35,34.62L25.66,34.34L25.72,34.30"/><path style="stroke:#000000;stroke-width:0.088" d="M26.91,34.33L27.10,34.57L27.19,34.91L27.15,35.33L27.01,35.78L26.77,36.21L26.46,36.58L26.15,36.82L26.12,36.84L25.77,36.97L25.47,36.95"/><path style="stroke:#000000;stroke-width:0.088" d="M26.15,35.96L26.05,36.01L25.95,36.02L25.87,35.98L25.83,35.90L25.81,35.79L25.83,35.66L25.88,35.53L25.96,35.40L26.05,35.30L26.14,35.24L26.16,35.23L26.26,35.20L26.35,35.22L26.41,35.28L26.44,35.37L26.44,35.49L26.41,35.63L26.34,35.76L26.25,35.88L26.15,35.96"/><path style="stroke:#000000;stroke-width:0.088" d="M25.93,35.98L26.00,35.92L26.17,35.70L26.29,35.45L26.35,35.26"/><path style="stroke:#000000;stroke-width:0.088" d="M26.31,35.21L26.34,35.24L26.37,35.34L26.38,35.40L26.37,35.46L26.33,35.60L26.27,35.73L26.18,35.84L26.07,35.93L25.97,35.97L25.88,35.98L25.87,35.98"/><path style="fill:#ffffff" d="M172.45,113.04L198.86,113.04L198.86,107.40L172.45,107.40z"/><path style="stroke:#35414c;stroke-width:0.255" d="M172.45,113.04L198.86,113.04L198.86,107.40L172.45,107.40z"/><path style="stroke:#35404c;stroke-width:0.250;stroke-opacity:0.00" d="M172.45,113.04L198.86,113.04L198.86,107.40L172.45,107.40z"/><text xml:space="preserve" fill="#333f4b" stroke-width="0" x="173.15" y="111.45" font-size="3.56" opacity="1.00" font-family="Arial" font-weight="bold" font-style="italic">F24975765X</text><path style="fill:#ffffff" d="M172.45,82.93L198.86,82.93L198.86,77.28L172.45,77.28z"/><path style="stroke:#35414c;stroke-width:0.255" d="M172.45,82.93L198.86,82.93L198.86,77.28L172.45,77.28z"/><path style="stroke:#35404c;stroke-width:0.250;stroke-opacity:0.00" d="M172.45,82.93L198.86,82.93L198.86,77.28L172.45,77.28z"/><text xml:space="preserve" fill="#333f4b" stroke-width="0" x="173.15" y="81.34" font-size="3.49" opacity="1.00" font-family="Arial" font-weight="bold" font-style="italic">F24623305A</text><path style="fill:#ffffff" d="M172.45,43.04L198.86,43.04L198.86,37.40L172.45,37.40z"/><path style="stroke:#35414c;stroke-width:0.255" d="M172.45,43.04L198.86,43.04L198.86,37.40L172.45,37.40z"/><path style="stroke:#35404c;stroke-width:0.250;stroke-opacity:0.00" d="M172.45,43.04L198.86,43.04L198.86,37.40L172.45,37.40z"/><text xml:space="preserve" fill="#333f4b" stroke-width="0" x="173.15" y="41.45" font-size="3.52" opacity="1.00" font-family="Arial" font-weight="bold" font-style="italic">BA1037</text><path style="fill:#ffffff" d="M172.45,63.12L198.86,63.12L198.86,57.47L172.45,57.47z"/><path style="stroke:#35414c;stroke-width:0.255" d="M172.45,63.12L198.86,63.12L198.86,57.47L172.45,57.47z"/><path style="stroke:#35404c;stroke-width:0.250;stroke-opacity:0.00" d="M172.45,63.12L198.86,63.12L198.86,57.47L172.45,57.47z"/><text xml:space="preserve" fill="#333f4b" stroke-width="0" x="173.15" y="61.53" font-size="3.49" opacity="1.00" font-family="Arial" font-weight="bold" font-style="italic">F24623293A</text><path style="fill:#ffffff" d="M172.45,92.96L198.86,92.96L198.86,87.32L172.45,87.32z"/><path style="stroke:#35414c;stroke-width:0.255" d="M172.45,92.96L198.86,92.96L198.86,87.32L172.45,87.32z"/><path style="stroke:#35404c;stroke-width:0.250;stroke-opacity:0.00" d="M172.45,92.96L198.86,92.96L198.86,87.32L172.45,87.32z"/><text xml:space="preserve" fill="#333f4b" stroke-width="0" x="173.15" y="91.38" font-size="3.56" opacity="1.00" font-family="Arial" font-weight="bold" font-style="italic">F24623567X</text><path style="fill:#ffffff" d="M172.45,73.15L198.86,73.15L198.86,67.51L172.45,67.51z"/><path style="stroke:#35414c;stroke-width:0.255" d="M172.45,73.15L198.86,73.15L198.86,67.51L172.45,67.51z"/><path style="stroke:#35404c;stroke-width:0.250;stroke-opacity:0.00" d="M172.45,73.15L198.86,73.15L198.86,67.51L172.45,67.51z"/><text xml:space="preserve" fill="#333f4b" stroke-width="0" x="173.15" y="71.57" font-size="3.49" opacity="1.00" font-family="Arial" font-weight="bold" font-style="italic">F24623295A</text><path style="fill:#ffffff" d="M172.45,103.00L198.86,103.00L198.86,97.36L172.45,97.36z"/><path style="stroke:#35414c;stroke-width:0.255" d="M172.45,103.00L198.86,103.00L198.86,97.36L172.45,97.36z"/><path style="stroke:#35404c;stroke-width:0.250;stroke-opacity:0.00" d="M172.45,103.00L198.86,103.00L198.86,97.36L172.45,97.36z"/><text xml:space="preserve" fill="#333f4b" stroke-width="0" x="173.15" y="101.42" font-size="3.56" opacity="1.00" font-family="Arial" font-weight="bold" font-style="italic">F24623658X</text><path style="fill:#ffffff" d="M172.45,53.08L198.86,53.08L198.86,47.43L172.45,47.43z"/><path style="stroke:#35414c;stroke-width:0.255" d="M172.45,53.08L198.86,53.08L198.86,47.43L172.45,47.43z"/><path style="stroke:#35404c;stroke-width:0.250;stroke-opacity:0.00" d="M172.45,53.08L198.86,53.08L198.86,47.43L172.45,47.43z"/><text xml:space="preserve" fill="#333f4b" stroke-width="0" x="173.15" y="51.49" font-size="3.56" opacity="1.00" font-family="Arial" font-weight="bold" font-style="italic">F21623126X</text><g id="paperID" visibility="hidden" opacity="0.00" transform="scale(0.000100)"><path style="stroke:#000000;stroke-width:0.500;fill:#e6e6e6;fill-rule:evenodd" d="M-2000.00,-2000.00L2210.00,-2000.00L2210.00,2150.00L-2000.00,2150.00zM0.00,0.00L210.00,0.00L210.00,150.00L0.00,150.00z"/><path style="fill:#000000;fill-opacity:0.118" d="M3.00,150.00L210.00,150.00L210.00,3.00L213.00,3.00L213.00,153.00L3.00,153.00z"/></g><g id="hotspot.0" onmouseover="ShowHotSpot(evt,'0')" onmouseout="HideHotSpot(evt,'0')" onmousemove="ShowToolTip(evt,'0',&quot;BA1037&quot;)" opacity="0"><path style="fill:#00ff00;fill-rule:evenodd" d="M199.11,37.83L199.10,42.99L198.81,43.49L172.39,43.42L172.39,37.67L198.85,37.57zM25.04,56.05L25.54,57.15L25.56,58.03L25.17,58.46L21.49,60.60L20.26,60.31L19.45,59.01L19.46,57.23L23.34,55.00L23.95,55.00zM72.82,83.29L73.89,84.60L73.90,86.32L70.09,88.61L69.38,88.61L68.35,87.77L67.78,86.48L67.80,85.51L70.17,83.91L71.68,83.01L72.29,83.00zM121.66,111.59L122.49,113.15L122.50,114.03L122.11,114.46L118.77,116.41L117.99,116.61L116.95,116.04L116.39,115.01L116.41,113.23L120.28,111.00L120.89,111.01z"/></g><g id="hotspot.1" onmouseover="ShowHotSpot(evt,'1')" onmouseout="HideHotSpot(evt,'1')" onmousemove="ShowToolTip(evt,'1',&quot;F21623126&quot;)" opacity="0"><path style="fill:#00ff00;fill-rule:evenodd" d="M27.16,34.67L27.14,35.58L26.33,36.91L25.53,37.10L25.01,36.80L24.99,35.29L25.69,34.41L26.89,34.40zM27.16,42.86L27.14,43.77L26.50,44.99L24.99,45.01L24.99,43.48L25.69,42.60L26.89,42.58zM199.11,47.87L199.10,53.03L198.81,53.53L172.39,53.46L172.39,47.71L198.85,47.60zM152.34,107.05L152.34,108.22L151.48,109.21L150.20,109.20L150.20,107.66L150.91,106.80L151.80,106.51zM152.35,115.25L152.34,116.14L151.48,117.40L150.20,117.39L150.19,115.85L151.18,114.70L151.80,114.70zM26.08,35.84L25.99,35.50L26.30,35.45zM26.08,44.03L25.99,43.69L26.30,43.64z"/></g><g id="hotspot.2" onmouseover="ShowHotSpot(evt,'2')" onmouseout="HideHotSpot(evt,'2')" onmousemove="ShowToolTip(evt,'2',&quot;F24623293&quot;)" opacity="0"><path style="fill:#00ff00;fill-rule:evenodd" d="M199.11,57.91L199.10,63.06L198.81,63.57L172.39,63.50L172.39,57.75L198.85,57.64zM96.32,66.93L96.33,74.95L95.80,74.89L89.49,71.15L89.19,71.20L88.37,72.02L88.39,72.72L88.68,72.98L96.05,77.22L95.86,77.59L91.76,80.15L90.77,80.15L89.46,79.30L89.10,79.30L88.37,80.21L88.38,80.91L89.18,81.45L88.56,81.96L87.36,81.96L83.91,79.86L83.89,69.89L84.88,68.76L92.39,64.55z"/></g><g id="hotspot.3" onmouseover="ShowHotSpot(evt,'3')" onmouseout="HideHotSpot(evt,'3')" onmousemove="ShowToolTip(evt,'3',&quot;F24623295&quot;)" opacity="0"><path style="fill:#00ff00;fill-rule:evenodd" d="M199.11,67.94L199.10,73.10L198.81,73.61L172.39,73.54L172.39,67.78L198.85,67.68zM145.46,90.95L146.53,91.73L146.54,95.56L145.20,96.33L145.11,105.31L146.53,106.26L146.53,110.34L145.97,111.37L137.55,116.19L137.01,116.35L131.46,113.14L131.37,108.92L132.25,108.48L132.27,99.13L131.38,98.43L131.47,93.96L132.70,92.81L140.62,88.28L140.97,88.29zM138.09,107.57L138.09,108.21L137.70,108.92L136.92,109.03L137.01,107.95L137.84,107.31z"/></g><g id="hotspot.4" onmouseover="ShowHotSpot(evt,'4')" onmouseout="HideHotSpot(evt,'4')" onmousemove="ShowToolTip(evt,'4',&quot;F24623305&quot;)" opacity="0"><path style="fill:#00ff00;fill-rule:evenodd" d="M47.99,34.69L48.01,47.19L40.87,43.14L40.07,43.77L40.06,44.99L47.98,49.49L48.00,53.02L47.09,54.52L46.40,54.54L40.87,51.33L40.07,51.96L40.06,53.18L44.58,55.80L39.00,59.09L38.21,59.28L32.67,56.09L32.67,51.95L35.30,50.62L35.33,43.13L34.25,42.35L32.59,41.37L32.65,37.14L33.63,36.01L35.28,35.28L36.55,34.44L41.55,31.50L42.45,31.50zM199.11,77.72L199.10,82.87L198.81,83.38L172.39,83.31L172.39,77.56L198.85,77.45z"/></g><g id="hotspot.5" onmouseover="ShowHotSpot(evt,'5')" onmouseout="HideHotSpot(evt,'5')" onmousemove="ShowToolTip(evt,'5',&quot;F24623567&quot;)" opacity="0"><path style="fill:#00ff00;fill-rule:evenodd" d="M58.53,33.13L59.09,34.15L59.08,39.27L57.92,39.97L56.95,40.00L54.85,38.66L54.86,31.88L55.91,31.50zM108.24,61.87L108.23,68.34L107.86,68.78L106.88,68.79L104.53,67.43L103.97,66.40L103.99,61.19L105.60,60.32zM199.11,87.75L199.10,92.91L198.81,93.42L172.39,93.35L172.39,87.60L198.85,87.49zM156.84,89.87L156.84,96.35L156.21,96.80L155.50,96.80L152.87,95.17L152.31,94.14L152.33,89.20L153.83,88.29L154.17,88.28zM57.50,37.59L57.79,38.47L57.25,38.12L56.85,37.08zM106.13,65.87L106.13,66.47L105.87,66.42L105.19,64.81L105.30,64.79zM154.45,93.59L154.73,94.47L154.20,94.12L153.80,93.08z"/></g><g id="hotspot.6" onmouseover="ShowHotSpot(evt,'6')" onmouseout="HideHotSpot(evt,'6')" onmousemove="ShowToolTip(evt,'6',&quot;F24623658X&quot;)" opacity="0"><path style="fill:#00ff00;fill-rule:evenodd" d="M84.75,68.50L84.74,68.85L83.89,69.92L83.10,69.85L40.06,44.99L40.07,43.77L40.87,43.14zM82.59,75.37L83.67,76.15L83.65,78.12L83.12,78.06L40.06,53.18L40.07,51.96L40.87,51.33zM130.14,94.65L131.21,95.43L131.19,97.41L130.67,97.34L88.68,72.98L88.39,72.72L88.37,72.02L89.19,71.20L89.49,71.15zM132.28,104.14L132.27,106.37L88.68,81.17L88.39,80.91L88.37,80.21L89.10,79.30L89.46,79.30zM199.11,97.79L199.10,102.95L198.81,103.46L172.39,103.39L172.39,97.63L198.85,97.53zM138.09,107.57L138.09,108.21L137.70,108.92L136.92,109.03L137.01,107.95L137.84,107.31z"/></g><g id="hotspot.7" onmouseover="ShowHotSpot(evt,'7')" onmouseout="HideHotSpot(evt,'7')" onmousemove="ShowToolTip(evt,'7',&quot;F24975765X&quot;)" opacity="0"><path style="fill:#00ff00;fill-rule:evenodd" d="M51.68,64.28L51.70,65.44L51.33,65.87L50.38,65.85L49.29,65.06L49.27,64.36L50.10,63.53L50.39,63.49zM199.11,107.83L199.10,112.99L198.81,113.49L172.39,113.42L172.39,107.67L198.85,107.57z"/></g></g></svg>
