<?xml version="1.0" encoding="UTF-8" standalone="no"?>
<svg xmlns="http://www.w3.org/2000/svg" xmlns:xlink="http://www.w3.org/1999/xlink" width="210.000mm" height="150.000mm" viewBox="0.000000 0.000000 210.000000 150.000000" stroke-linejoin="round" stroke-linecap="round" fill="none" fill-rule="evenodd"><desc>Composer Export</desc><script type="text/ecmascript"><![CDATA[
if(typeof(top) != "undefined")
{
	top.ShowPaper = ShowPaper;
}
function ShowHotSpot(evt,hotspotid)
{
	var svgDocument = evt.target.ownerDocument;
	var strId = "hotspot."+hotspotid;
	var hotspot = svgDocument.getElementById(strId);
	if(hotspot)
		hotspot.setAttribute("opacity",".5");
}
function HideHotSpot(evt,hotspotid)
{
	var svgDocument = evt.target.ownerDocument;
	var strId = "hotspot."+hotspotid;
	var hotspot = svgDocument.getElementById(strId);
	if(hotspot)
		hotspot.setAttribute("opacity","0");

	var toolTip = svgDocument.getElementById('ToolTip');
	if(toolTip)
		toolTip.setAttribute("visibility","hidden");
}
function ShowToolTip(evt,hotspotid,strTooltip)
{
	if(strTooltip=="")
	return;

	// change text
	var svgDocument = evt.target.ownerDocument;
	var tiptext = svgDocument.getElementById('ToolTipText');
	if( !tiptext )
	return;
	tiptext.firstChild.nodeValue = " " + strTooltip + "  " ;

	// show tooltip before, else some refresh issue

	var toolTip = svgDocument.getElementById('ToolTip');
	if(!toolTip)
	return;

	toolTip.setAttribute("visibility","visible");
	toolTip.setAttribute("opacity",".95");

	// move tooltip
	// get viewbox

	var root = svgDocument.documentElement;
	var vbox = (root.getAttribute("viewBox")).split(' ');
	var x0 = parseFloat(vbox[0]);
	var y0 = parseFloat(vbox[1]);
	var vboxW = parseFloat(vbox[2]);
	var vboxH = parseFloat(vbox[3]);

	// get default width of svg

	var strW = root.getAttribute("width");
	var svgW = parseFloat(strW);
	if(strW.indexOf('mm') != -1)
	svgW *= 3.779;

	var strH = root.getAttribute("height");
	var svgH = parseFloat(strH);
	if(strH.indexOf('mm') != -1)
	svgH *= 3.779;  	// 96 dpi  -> 96/25.4 = 3.779

	// update the viewbox / width / height if svg is embedded in html with zoom fit all
	var realx0 = x0;
	var realy0 = y0;
	var realvboxW = vboxW;
	var realvboxH = vboxH;
	var realsvgW = svgW;
	var realsvgH = svgH;

	if ((typeof(top) == "undefined") || (typeof(top.svgctl1) != "undefined")) // embedded in html
	{
		// get window size in pxl

		svgW = window.innerWidth;
		svgH = window.innerHeight;

		// calculate real viewbox

		realsvgW = svgW;
		realsvgH = svgH;
		if((svgW / svgH) > (vboxW / vboxH))
		{
			realvboxW = (vboxH * svgW) / svgH;
			realvboxH = vboxH;
			realx0 = x0 - (realvboxW - vboxW)/2 ;
		}
		else
		{
			realvboxH = (vboxW * svgH) / svgW;
			realvboxW = vboxW;
			realy0 = y0 - (realvboxH - vboxH)/2 ;
		}
	}

	// get user zoom/pan

	var newScale = root.currentScale;
	var translation = root.currentTranslate;

	// transform pxl to user unit

	var xPos = (((evt.clientX+10- translation.x)/newScale) * realvboxW)/realsvgW  + realx0 ;
	var yPos = (((evt.clientY+5- translation.y)/newScale) * realvboxH)/ realsvgH  + realy0 ;
	var scaleForWidth = ( (1 / newScale) * realvboxH) / realsvgH;

	// move tooltip

	toolTip.setAttribute("transform", "translate(" + xPos + "," + yPos + ")" );

	// resize tooltip

	var fontsize = 12;
	tiptext.setAttribute("font-size",fontsize*scaleForWidth);
	tiptext.setAttribute("y", fontsize*scaleForWidth);
	var tipBG = svgDocument.getElementById('ToolTipBG');
	var outline = tiptext.getBBox();
	if(tipBG)
	{
		tipBG.setAttribute("stroke-width", 1*scaleForWidth);
		tipBG.setAttribute("width", Number(outline.width) );
		tipBG.setAttribute("height", Number(outline.height) + fontsize*.5*scaleForWidth );
	}
	var ToolTipShadow = svgDocument.getElementById('ToolTipShadow');
	if(ToolTipShadow)
	{
		ToolTipShadow.setAttribute("width", Number(outline.width) );
		ToolTipShadow.setAttribute("height", Number(outline.height) + fontsize*.5*scaleForWidth );
		ToolTipShadow.setAttribute("x", 3*scaleForWidth);
		ToolTipShadow.setAttribute("y", 3*scaleForWidth);
	}
}
function ShowPaper()
{
  var svgDocument = getDocument();
  var paper = svgDocument.getElementById("paperID");
  if(paper)
  {
    paper.setAttribute("transform","scale(1)");
    paper.setAttribute("opacity","1");
    paper.setAttribute("visibility","visible");
  }
  var svg = svgDocument.getRootElement();
  if(svg)
  {
    svg.setAttribute("width","220.000mm");
    svg.setAttribute("height","160.000mm");
    svg.setAttribute("viewBox","-5.000000 -5.000000 220.000000 160.000000");
  }
}
]]></script><defs/><g><path style="fill:#ffffff" d="M209.95,149.95L0.03,149.95L0.03,0.03L209.95,0.03z"/><path style="fill:#8aa7bf" d="M53.63,53.12L54.10,53.58L54.10,54.34L53.87,54.69L53.60,54.89L52.80,54.89L52.45,54.54L52.44,53.38L52.77,53.12L53.27,53.00z"/><path style="fill:#8aa7bf" d="M87.85,68.93L87.85,69.69L87.61,70.04L87.35,70.24L86.56,70.23L86.21,69.88L86.19,68.73L86.52,68.47L87.14,68.34z"/><path style="fill:#8aa7bf" d="M93.48,72.21L93.47,72.85L93.23,73.20L92.85,73.52L92.18,73.51L91.83,73.16L91.66,72.34L91.95,71.80L92.13,71.63L92.89,71.63z"/><path style="fill:#8aa7bf" d="M125.11,94.48L125.35,94.83L125.35,95.35L125.11,95.69L124.73,96.02L124.04,96.02L123.83,95.88L123.58,95.43L123.58,94.63L123.89,94.25L124.12,94.13L124.65,94.13z"/><path style="fill:#8aa7bf" d="M43.09,94.82L43.09,95.58L42.75,96.07L42.22,96.25L41.68,96.12L41.43,95.78L41.44,94.64L41.75,94.36L42.50,94.36z"/><path style="fill:#8aa7bf" d="M113.87,135.60L114.34,136.07L114.33,136.60L113.82,137.25L112.92,137.26L112.56,136.68L112.56,136.00L112.80,135.54L113.51,135.37z"/><path style="fill:#01ff02" d="M53.18,53.93L53.16,54.22L52.89,54.22L52.76,53.92L52.87,53.81L53.05,53.80z"/><path style="fill:#01ff02" d="M86.93,69.28L86.91,69.57L86.64,69.58L86.63,69.16L86.79,69.14z"/><path style="fill:#01ff02" d="M92.55,72.57L92.50,72.82L92.27,72.85L92.16,72.70L92.18,72.37L92.30,72.33z"/><path style="fill:#01ff02" d="M42.16,95.18L42.11,95.55L41.91,95.56L41.87,95.06L42.03,95.04z"/><path style="fill:#01ff02" d="M124.01,94.95L124.29,94.94L124.29,95.35L124.05,95.32z"/><path style="fill:#01ff02" d="M113.03,136.23L113.27,136.19L113.27,136.60L113.03,136.56z"/><path style="fill:#95dce0" d="M106.81,28.39L106.01,31.25L105.50,31.33L104.47,31.34L101.43,29.56L102.13,26.67L102.92,26.52L103.55,26.52z"/><path style="fill:#95dce0" d="M151.02,53.93L150.27,56.76L149.68,56.87L148.77,56.88L145.73,55.11L145.72,54.56L146.40,52.19L146.98,52.07L147.85,52.06z"/><path style="fill:#1497e5" d="M158.50,69.41L159.33,69.99L160.39,72.93L144.91,131.08L144.40,132.57L143.62,132.70L131.44,125.65L131.19,125.31L131.20,124.40L141.98,83.98L142.10,82.78L141.98,81.71L141.51,80.42L140.71,79.35L139.52,78.55L77.77,42.93L77.06,42.68L76.32,42.80L75.62,43.16L75.02,43.85L74.60,44.84L63.79,85.24L63.43,85.93L62.64,85.94L50.47,78.89L50.34,78.67L50.34,77.65L66.05,18.71L68.58,17.50z"/><path style="fill:#ffffff" d="M65.23,26.69L65.07,26.69L65.07,26.39L65.23,26.39z"/><path style="fill:#ffffff" d="M89.15,36.36L89.13,36.54L88.98,36.53L88.96,36.25z"/><path style="fill:#ffffff" d="M90.79,37.29L90.79,37.58L90.66,37.56L90.66,37.17z"/><path style="fill:#ffffff" d="M61.72,38.96L61.84,38.94L61.84,39.33L61.70,39.20z"/><path style="fill:#ffffff" d="M72.97,42.67L72.96,43.21L72.73,43.18L72.73,42.60L72.86,42.56z"/><path style="fill:#ffffff" d="M58.56,51.59L58.56,51.87L58.44,51.85L58.44,51.46z"/><path style="fill:#ffffff" d="M106.72,58.02L106.71,58.56L106.48,58.53L106.48,57.95L106.61,57.91z"/><path style="fill:#ffffff" d="M112.35,61.31L112.29,61.81L112.11,61.80L111.98,61.68L111.98,61.24L112.22,61.18z"/><path style="fill:#ffffff" d="M133.31,62.08L133.15,62.08L133.15,61.78L133.31,61.78z"/><path style="fill:#ffffff" d="M134.80,62.71L134.94,62.71L134.96,63.12L134.82,62.98z"/><path style="fill:#ffffff" d="M55.00,64.12L55.15,64.13L55.17,64.41L55.03,64.38z"/><path style="fill:#ffffff" d="M51.80,76.61L51.87,76.96L51.73,76.96L51.75,76.55z"/><path style="fill:#ffffff" d="M157.41,79.70L157.56,79.70L157.58,80.12L157.45,80.09z"/><path style="fill:#ffffff" d="M144.22,83.94L144.17,84.30L143.98,84.30L143.86,84.17L143.86,83.73L144.08,83.70z"/><path style="fill:#ffffff" d="M61.68,83.93L61.94,83.92L61.94,84.46L61.72,84.42z"/><path style="fill:#ffffff" d="M63.12,85.51L62.96,85.51L62.96,85.22L63.12,85.22z"/><path style="fill:#ffffff" d="M154.29,92.48L154.18,92.66L154.16,92.25z"/><path style="fill:#ffffff" d="M150.90,104.90L150.90,105.19L150.78,105.17L150.78,104.78z"/><path style="fill:#ffffff" d="M147.37,117.36L147.50,117.33L147.50,117.73L147.37,117.70z"/><path style="fill:#ffffff" d="M133.21,125.19L133.15,125.55L132.93,125.58L132.79,125.18L132.97,124.95z"/><path style="fill:#ffffff" d="M131.79,124.97L131.91,124.95L131.91,125.34L131.77,125.20z"/><path style="fill:#ffffff" d="M144.22,129.97L144.21,130.28L144.06,130.28L144.10,129.85z"/><path style="stroke:#000000;stroke-width:0.088" d="M86.21,69.73L86.27,69.85L86.44,70.03L86.64,70.13L86.84,70.15L87.03,70.07L87.19,69.92L87.29,69.70L87.29,69.69L87.33,69.44L87.31,69.16L87.22,68.91L87.07,68.70L86.95,68.59L86.89,68.56L86.69,68.50L86.49,68.53L86.31,68.65L86.18,68.84L86.11,69.08L86.10,69.35L86.16,69.62L86.21,69.73"/><path style="stroke:#000000;stroke-width:0.088" d="M86.28,69.90L86.30,69.94L86.49,70.15L86.73,70.27L86.97,70.29L87.20,70.20L87.38,70.01L87.51,69.75L87.51,69.73L87.56,69.44L87.53,69.12L87.42,68.81L87.25,68.56L87.10,68.44L87.03,68.40L86.79,68.33L86.55,68.36L86.34,68.50L86.18,68.73L86.09,69.02L86.08,69.34L86.15,69.66L86.28,69.90"/><path style="stroke:#000000;stroke-width:0.088" d="M86.76,69.64L86.73,69.64L86.66,69.62L86.58,69.57L86.53,69.50L86.49,69.40L86.48,69.30L86.49,69.20L86.49,69.18L86.53,69.11L86.58,69.05L86.65,69.01L86.73,69.02L86.81,69.05L86.87,69.12L86.92,69.20L86.95,69.30L86.95,69.41L86.92,69.50L86.87,69.58L86.81,69.62L86.76,69.64"/><path style="stroke:#000000;stroke-width:0.088" d="M86.70,69.06L86.64,69.09L86.59,69.14L86.56,69.20L86.56,69.21L86.55,69.30L86.55,69.30L86.56,69.38L86.59,69.46L86.64,69.53L86.70,69.57L86.76,69.59L86.83,69.57L86.88,69.53L86.92,69.47L86.94,69.39L86.94,69.30L86.92,69.22L86.88,69.14L86.83,69.09L86.82,69.09L86.76,69.06L86.70,69.06"/><path style="stroke:#000000;stroke-width:0.088" d="M86.70,69.06L86.69,69.06"/><path style="stroke:#000000;stroke-width:0.088" d="M86.55,68.36L86.81,68.32L87.05,68.29L87.29,68.38L87.34,68.40L87.51,68.56L87.67,68.81L87.77,69.12L87.79,69.44L87.74,69.73L87.73,69.75L87.60,70.00L87.41,70.18L87.18,70.25L86.97,70.29"/><path style="stroke:#000000;stroke-width:0.088" d="M86.77,69.59L86.77,69.59"/><path style="stroke:#000000;stroke-width:0.088" d="M86.76,69.59L86.76,69.59"/><path style="stroke:#000000;stroke-width:0.088" d="M87.56,68.63L87.65,68.66L87.67,68.68L87.77,68.77L87.87,68.93L87.93,69.11L87.94,69.31L87.91,69.49L87.83,69.64L87.74,69.72"/><path style="stroke:#000000;stroke-width:0.088" d="M41.35,94.97L41.34,95.01L41.33,95.28L41.39,95.55L41.51,95.79L41.67,95.96L41.87,96.06L42.07,96.08L42.26,96.00L42.42,95.85L42.52,95.63L42.57,95.37L42.54,95.09L42.45,94.84L42.31,94.63L42.18,94.53L42.12,94.49L41.92,94.43L41.72,94.46L41.54,94.58L41.41,94.77L41.35,94.97"/><path style="stroke:#000000;stroke-width:0.088" d="M41.32,95.27L41.39,95.59L41.53,95.87L41.73,96.08L41.96,96.20L42.20,96.22L42.43,96.13L42.62,95.94L42.74,95.68L42.79,95.37L42.76,95.05L42.65,94.74L42.48,94.50L42.33,94.37L42.26,94.33L42.16,94.30L42.02,94.26L41.78,94.29L41.57,94.43L41.41,94.66L41.33,94.95L41.32,95.27"/><path style="stroke:#000000;stroke-width:0.088" d="M42.04,95.56L42.11,95.51L42.15,95.43L42.18,95.34L42.18,95.23L42.15,95.13L42.11,95.05L42.04,94.98L41.96,94.95L41.89,94.95L41.82,94.98L41.76,95.04L41.73,95.11L41.72,95.13L41.71,95.23L41.72,95.33L41.76,95.43L41.82,95.50L41.89,95.55L41.96,95.57L42.04,95.56"/><path style="stroke:#000000;stroke-width:0.088" d="M41.78,95.23L41.79,95.31L41.82,95.39L41.87,95.46L41.93,95.50L41.99,95.52L42.06,95.50L42.11,95.46L42.15,95.40L42.17,95.32L42.17,95.23L42.15,95.15L42.11,95.07L42.06,95.02L41.99,94.99L41.93,94.99L41.87,95.02L41.82,95.07L41.79,95.13L41.79,95.14L41.78,95.23L41.79,95.15"/><path style="stroke:#000000;stroke-width:0.088" d="M41.92,94.99L41.94,94.99"/><path style="stroke:#000000;stroke-width:0.088" d="M42.00,95.52L42.00,95.52"/><path style="stroke:#000000;stroke-width:0.088" d="M41.99,95.52L41.99,95.52"/><path style="stroke:#000000;stroke-width:0.088" d="M42.20,96.22L42.41,96.18L42.64,96.11L42.83,95.93L42.96,95.68L42.96,95.68L43.02,95.37L43.00,95.05L42.91,94.74L42.74,94.49L42.57,94.33L42.53,94.31L42.29,94.22L42.05,94.25L41.78,94.29"/><path style="stroke:#000000;stroke-width:0.088" d="M42.97,95.65L43.06,95.57L43.14,95.42L43.18,95.24L43.16,95.04L43.11,94.86L43.01,94.70L42.90,94.61L42.88,94.59L42.79,94.56"/><path style="stroke:#000000;stroke-width:0.088" d="M63.40,85.51L74.22,44.94L74.66,43.91L75.32,43.14L76.15,42.71L77.07,42.65L77.98,42.97L81.89,45.23L140.11,78.84L140.93,79.52L141.57,80.48L141.98,81.63L142.11,82.86L141.95,84.05L131.14,124.61L131.10,124.85L131.13,125.09L131.21,125.32L131.35,125.52L131.50,125.65L143.54,132.60L143.72,132.66L143.89,132.65L144.07,132.57L144.20,132.41L144.29,132.20L160.09,72.98L160.40,72.93L159.30,69.81L158.98,69.85L68.30,17.50L66.05,18.68L50.25,77.91L50.22,78.15L50.24,78.39L50.33,78.63L50.46,78.82L50.62,78.95L62.65,85.90L62.84,85.97L63.33,85.90L63.50,85.82L63.63,85.66L63.72,85.46L63.40,85.51L63.32,85.71L63.19,85.87L63.03,85.95"/><path style="stroke:#000000;stroke-width:0.088" d="M51.22,77.04L51.31,77.16L51.42,77.24L51.54,77.28L51.66,77.25L51.77,77.18L51.84,77.07L51.89,76.92L51.89,76.76L51.85,76.60L51.78,76.46L51.68,76.35L51.56,76.29L51.44,76.29L51.32,76.34L51.23,76.43L51.17,76.56L51.15,76.72L51.17,76.89L51.22,77.04"/><path style="stroke:#000000;stroke-width:0.088" d="M51.79,76.98L51.71,77.01L51.64,77.00L51.57,76.96L51.49,76.81L51.48,76.73L51.53,76.57L51.64,76.50L51.70,76.50L51.81,76.59L51.85,76.66L51.87,76.83L51.82,76.95L51.79,76.98L51.74,76.94L51.66,76.81L51.65,76.64L51.72,76.51"/><path style="stroke:#000000;stroke-width:0.088" d="M55.14,64.42L55.20,64.34L55.22,64.18L55.17,64.02L55.11,63.97L54.99,63.93L54.88,64.01L54.83,64.16L54.84,64.25L54.92,64.39L54.99,64.44L55.06,64.45L55.14,64.42L55.04,64.32L54.99,64.16L55.00,64.05L55.07,63.95"/><path style="stroke:#000000;stroke-width:0.088" d="M55.14,64.59L55.01,64.69L54.89,64.71L54.77,64.68L54.66,64.60L54.57,64.47L54.52,64.32L54.50,64.16L54.52,64.00L54.58,63.87L54.68,63.77L54.79,63.73L54.91,63.73L55.03,63.79L55.14,63.90L55.20,64.03L55.24,64.19L55.22,64.42L55.14,64.59"/><path style="stroke:#000000;stroke-width:0.088" d="M58.36,52.13L58.24,52.15L58.12,52.12L58.01,52.03L57.92,51.91L57.87,51.76L57.85,51.60L57.87,51.44L57.93,51.31L58.03,51.21L58.14,51.16L58.26,51.17L58.38,51.22L58.48,51.33L58.55,51.47L58.59,51.63L58.57,51.86L58.47,52.05L58.36,52.13"/><path style="stroke:#000000;stroke-width:0.088" d="M58.49,51.85L58.55,51.78L58.57,51.62L58.55,51.53L58.46,51.40L58.34,51.37L58.23,51.45L58.19,51.52L58.19,51.68L58.23,51.78L58.34,51.88L58.41,51.89L58.49,51.85L58.39,51.76L58.34,51.60L58.38,51.44L58.42,51.38"/><path style="stroke:#000000;stroke-width:0.088" d="M61.55,84.32L61.64,84.44L61.73,84.49L61.82,84.50L61.90,84.47L61.97,84.40L62.02,84.29L62.02,84.08L61.92,83.88L61.85,83.82L61.77,83.79L61.67,83.80L61.60,83.85L61.54,83.93L61.50,84.15L61.55,84.32"/><path style="stroke:#000000;stroke-width:0.088" d="M61.87,84.48L61.76,84.43L61.69,84.35L61.61,84.13L61.65,83.91L61.77,83.79"/><path style="stroke:#000000;stroke-width:0.088" d="M61.62,39.58L61.57,39.58L61.44,39.54L61.34,39.44L61.26,39.31L61.21,39.16L61.20,38.99L61.23,38.84L61.30,38.71L61.40,38.63L61.52,38.59L61.64,38.61L61.76,38.68L61.85,38.80L61.92,38.94L61.94,39.10L61.93,39.26L61.88,39.41L61.80,39.51L61.69,39.57L61.62,39.58"/><path style="stroke:#000000;stroke-width:0.088" d="M61.62,39.26L61.54,39.10L61.55,38.93L61.64,38.82L61.70,38.81L61.77,38.82L61.71,38.92L61.70,39.07L61.77,39.23L61.85,39.29L61.73,39.32L61.62,39.26"/><path style="stroke:#000000;stroke-width:0.088" d="M62.43,85.28L62.44,85.47L62.50,85.62L62.59,85.74L62.70,85.82L62.82,85.86L62.94,85.84L63.04,85.76L63.12,85.65L63.16,85.50L63.17,85.34L63.13,85.18L63.06,85.04L62.95,84.93L62.84,84.88L62.72,84.87L62.60,84.92L62.51,85.01L62.45,85.15L62.43,85.28"/><path style="stroke:#000000;stroke-width:0.088" d="M61.85,39.29L61.92,39.17L61.93,39.07L61.88,38.92L61.77,38.82"/><path style="stroke:#000000;stroke-width:0.088" d="M63.00,85.09L62.93,85.22L62.93,85.39L63.02,85.52L63.07,85.56L63.10,85.53L63.15,85.41L63.13,85.24L63.09,85.17L62.98,85.08L62.91,85.08L62.80,85.15L62.77,85.25L62.77,85.39L62.84,85.54L62.92,85.58L62.98,85.59L63.07,85.56"/><path style="stroke:#000000;stroke-width:0.088" d="M74.22,44.94L74.54,44.89L63.72,85.46"/><path style="stroke:#000000;stroke-width:0.088" d="M64.61,26.76L64.71,26.91L64.82,26.99L64.94,27.02L65.06,27.00L65.17,26.93L65.28,26.73L65.29,26.50L65.25,26.34L65.18,26.20L65.08,26.10L64.96,26.04L64.84,26.04L64.73,26.08L64.63,26.18L64.57,26.31L64.55,26.47L64.57,26.63L64.61,26.76"/><path style="stroke:#000000;stroke-width:0.088" d="M65.04,26.24L64.93,26.32L64.90,26.39L64.90,26.56L64.98,26.71L65.11,26.76L65.20,26.72L65.09,26.63L65.04,26.47L65.08,26.31L65.12,26.26"/><path style="stroke:#000000;stroke-width:0.088" d="M65.20,26.72L65.25,26.65L65.27,26.57L65.26,26.41L65.16,26.28L65.10,26.25L65.02,26.25"/><path style="stroke:#000000;stroke-width:0.088" d="M159.30,69.81L68.61,17.45L68.30,17.50"/><path style="stroke:#000000;stroke-width:0.088" d="M72.74,43.21L72.65,43.16L72.58,43.09L72.53,42.98L72.51,42.75L72.61,42.57L72.68,42.52L72.77,42.51L72.85,42.54L72.93,42.60L72.99,42.69L73.04,42.92L72.97,43.12L72.91,43.19L72.82,43.22L72.74,43.21"/><path style="stroke:#000000;stroke-width:0.088" d="M72.77,42.51L72.70,42.57L72.65,42.66L72.62,42.88L72.71,43.09L72.78,43.16L72.88,43.20"/><path style="stroke:#000000;stroke-width:0.088" d="M74.54,44.89L74.97,43.86L75.64,43.09L76.40,42.69"/><path style="stroke:#000000;stroke-width:0.088" d="M88.98,36.10L88.91,36.23L88.92,36.39L89.00,36.53L89.05,36.56L89.08,36.54L89.13,36.41L89.11,36.25L89.02,36.12L88.96,36.09L88.88,36.09L88.79,36.16L88.75,36.25L88.75,36.40L88.80,36.49L88.89,36.58L88.95,36.60L89.05,36.56"/><path style="stroke:#000000;stroke-width:0.088" d="M89.15,36.51L89.11,36.65L89.03,36.77L88.92,36.84L88.80,36.86L88.68,36.83L88.57,36.75L88.48,36.62L88.43,36.49L88.41,36.31L88.43,36.15L88.49,36.02L88.59,35.92L88.70,35.88L88.82,35.88L88.94,35.94L89.04,36.04L89.11,36.18L89.15,36.34L89.15,36.51"/><path style="stroke:#000000;stroke-width:0.088" d="M90.73,37.53L90.63,37.57L90.58,37.56L90.47,37.46L90.43,37.37L90.43,37.20L90.47,37.13L90.56,37.06L90.64,37.06L90.74,37.13L90.79,37.22L90.81,37.39L90.76,37.51L90.73,37.53L90.68,37.50L90.60,37.36L90.59,37.20L90.66,37.07"/><path style="stroke:#000000;stroke-width:0.088" d="M90.81,37.55L90.71,37.74L90.60,37.81L90.48,37.83L90.36,37.80L90.25,37.72L90.16,37.59L90.11,37.44L90.09,37.28L90.11,37.12L90.17,36.99L90.27,36.89L90.38,36.85L90.50,36.85L90.62,36.91L90.72,37.01L90.79,37.15L90.83,37.31L90.81,37.55"/><path style="stroke:#000000;stroke-width:0.088" d="M106.50,57.87L106.42,57.88L106.35,57.94L106.30,58.02L106.27,58.25L106.36,58.46L106.45,58.54L106.52,58.56L106.60,58.56L106.44,58.44L106.39,58.35L106.35,58.12L106.38,58.01L106.43,57.92L106.50,57.87L106.59,57.88L106.67,57.93L106.78,58.12L106.80,58.24L106.79,58.35L106.75,58.45L106.68,58.52L106.60,58.56L106.63,58.55"/><path style="stroke:#000000;stroke-width:0.088" d="M111.87,61.48L111.87,61.36L111.95,61.17L112.02,61.11L112.10,61.10L112.19,61.11L112.27,61.16L112.34,61.25L112.40,61.47L112.34,61.68L112.28,61.76L112.20,61.79L112.12,61.80L112.05,61.77L111.96,61.69L111.87,61.48"/><path style="stroke:#000000;stroke-width:0.088" d="M111.89,50.23L132.87,62.35L132.77,62.25L132.69,62.12L132.64,61.96L132.63,61.80L132.67,61.65L132.73,61.52L132.83,61.44L132.95,61.40L133.12,61.45L133.25,61.57L133.35,61.75L133.38,61.91L133.36,62.08L133.31,62.22L133.23,62.32L133.12,62.38L133.00,62.39L132.87,62.35L134.55,63.32L134.45,63.22L134.37,63.09L134.32,62.93L134.31,62.77L134.35,62.62L134.42,62.49L134.51,62.41L134.63,62.37L134.80,62.42L134.96,62.58L135.03,62.72L135.05,62.88L135.04,63.04L134.99,63.19L134.91,63.29L134.80,63.35L134.67,63.36L134.55,63.32"/><path style="stroke:#000000;stroke-width:0.088" d="M112.10,61.10L112.03,61.16L111.98,61.24L111.95,61.47L112.04,61.68L112.13,61.76L112.20,61.79L112.23,61.78"/><path style="stroke:#000000;stroke-width:0.088" d="M131.29,125.22L131.28,125.06L131.30,124.90L131.36,124.77L131.45,124.67L131.57,124.62L131.69,124.63L131.81,124.69L131.91,124.79L131.98,124.93L132.02,125.09L132.01,125.25L131.95,125.43L131.89,125.51L131.79,125.59L131.67,125.61L131.55,125.58L131.44,125.49L131.35,125.37L131.29,125.22"/><path style="stroke:#000000;stroke-width:0.088" d="M131.92,125.31L131.98,125.22L132.00,125.08L131.94,124.92L131.89,124.86L131.83,124.83L131.75,124.84L131.65,124.91L131.62,125.00L131.62,125.14L131.65,125.22L131.75,125.33L131.82,125.35L131.92,125.31L131.82,125.22L131.77,125.06L131.80,124.90L131.85,124.84"/><path style="stroke:#000000;stroke-width:0.088" d="M132.96,124.90L133.05,124.93L133.13,124.99L133.22,125.19L133.22,125.40L133.17,125.51L133.10,125.58L133.02,125.61L132.93,125.60L132.85,125.55L132.78,125.47L132.70,125.26L132.74,125.04L132.80,124.96L132.87,124.91L132.96,124.90L132.84,125.04L132.82,125.27L132.90,125.48L132.98,125.55L133.06,125.59"/><path style="stroke:#000000;stroke-width:0.088" d="M133.28,62.10L133.16,62.13L133.09,62.11L133.00,61.99L132.97,61.91L132.98,61.76L133.02,61.68L133.13,61.61L133.20,61.63L133.14,61.74L133.13,61.91L133.21,62.05L133.28,62.10L133.29,62.08L133.35,61.97L133.34,61.80L133.31,61.72L133.20,61.63"/><path style="stroke:#000000;stroke-width:0.088" d="M133.26,62.09L133.11,62.11"/><path style="stroke:#000000;stroke-width:0.088" d="M140.44,66.71L134.59,63.34"/><path style="stroke:#000000;stroke-width:0.088" d="M134.90,63.04L134.87,63.02L134.94,63.06L134.90,63.04"/><path style="stroke:#000000;stroke-width:0.088" d="M134.87,63.02L134.80,62.79L134.81,62.71L134.88,62.60L134.99,62.69L135.02,62.77L135.03,62.94L134.96,63.07L134.79,63.08L134.90,63.10L134.96,63.07"/><path style="stroke:#000000;stroke-width:0.088" d="M134.88,62.60L134.81,62.58L134.74,62.61L134.66,62.71L134.65,62.79L134.68,62.96L134.79,63.08"/><path style="stroke:#000000;stroke-width:0.088" d="M143.51,130.05L143.53,130.21L143.58,130.36L143.67,130.49L143.78,130.57L143.90,130.60L144.02,130.58L144.13,130.51L144.21,130.39L144.25,130.24L144.25,130.08L144.21,129.92L144.14,129.78L144.04,129.68L143.92,129.62L143.80,129.61L143.69,129.66L143.59,129.76L143.53,129.89L143.51,130.05"/><path style="stroke:#000000;stroke-width:0.088" d="M144.29,132.20L144.60,132.16L144.52,132.36L144.39,132.52L144.22,132.60L143.89,132.65"/><path style="stroke:#000000;stroke-width:0.088" d="M144.15,130.30L144.05,130.21L144.00,130.05L144.01,129.96L144.08,129.84"/><path style="stroke:#000000;stroke-width:0.088" d="M144.23,130.13L144.21,129.98L144.12,129.86L144.06,129.83L143.98,129.83L143.89,129.90L143.85,129.99L143.85,130.14L143.93,130.28L143.99,130.32L144.05,130.34L144.17,130.29L144.23,130.13"/><path style="stroke:#000000;stroke-width:0.088" d="M144.03,84.33L143.94,84.32L143.85,84.27L143.78,84.19L143.71,83.98L143.75,83.76L143.81,83.68L143.88,83.63L143.97,83.62L144.06,83.65L144.14,83.71L144.23,83.91L144.22,84.14L144.18,84.23L144.11,84.30L144.03,84.33"/><path style="stroke:#000000;stroke-width:0.088" d="M143.97,83.62L143.85,83.77L143.82,83.99L143.91,84.20L143.98,84.27L144.07,84.31"/><path style="stroke:#000000;stroke-width:0.088" d="M144.60,132.16L160.40,72.93"/><path style="stroke:#000000;stroke-width:0.088" d="M147.43,117.27L147.36,117.40L147.35,117.48L147.40,117.65L147.50,117.74"/><path style="stroke:#000000;stroke-width:0.088" d="M146.87,117.57L146.93,117.80L147.02,117.92L147.13,118.00L147.25,118.04L147.37,118.02L147.48,117.94L147.59,117.75L147.60,117.52L147.57,117.37L147.49,117.22L147.39,117.11L147.27,117.05L147.15,117.05L147.04,117.10L146.94,117.19L146.88,117.33L146.87,117.57"/><path style="stroke:#000000;stroke-width:0.088" d="M147.56,117.67L147.58,117.50L147.53,117.35L147.41,117.26L147.29,117.28L147.23,117.35L147.19,117.49L147.25,117.67L147.34,117.76L147.40,117.78L147.52,117.73L147.56,117.67"/><path style="stroke:#000000;stroke-width:0.088" d="M150.48,105.44L150.60,105.47L150.72,105.45L150.83,105.38L150.91,105.26L150.95,105.12L150.95,104.95L150.92,104.79L150.84,104.65L150.74,104.55L150.62,104.49L150.50,104.49L150.39,104.53L150.29,104.63L150.23,104.76L150.21,104.92L150.23,105.08L150.28,105.24L150.37,105.36L150.48,105.44"/><path style="stroke:#000000;stroke-width:0.088" d="M150.86,105.17L150.75,105.08L150.70,104.92L150.71,104.82L150.78,104.71"/><path style="stroke:#000000;stroke-width:0.088" d="M150.76,104.70L150.88,104.78L150.93,104.94L150.92,105.08L150.87,105.16L150.75,105.21L150.69,105.20L150.60,105.10L150.55,104.92L150.59,104.77L150.64,104.72L150.76,104.70"/><path style="stroke:#000000;stroke-width:0.088" d="M150.71,104.84L150.70,104.88"/><path style="stroke:#000000;stroke-width:0.088" d="M154.05,92.90L153.93,92.91L153.81,92.86L153.70,92.77L153.62,92.64L153.57,92.48L153.56,92.32L153.59,92.16L153.66,92.04L153.76,91.96L153.88,91.92L154.00,91.94L154.12,92.01L154.21,92.12L154.28,92.27L154.31,92.43L154.29,92.62L154.24,92.73L154.16,92.84L154.05,92.90"/><path style="stroke:#000000;stroke-width:0.088" d="M154.14,92.15L154.05,92.13L153.95,92.19L153.90,92.34L153.90,92.43L153.97,92.58L154.02,92.62L154.15,92.64L154.21,92.61L154.13,92.55L154.06,92.40L154.07,92.24L154.14,92.15L154.24,92.24L154.29,92.40L154.28,92.50L154.21,92.61"/><path style="stroke:#000000;stroke-width:0.088" d="M157.18,80.31L157.07,80.23L156.98,80.11L156.93,79.96L156.91,79.79L156.93,79.64L156.99,79.50L157.09,79.41L157.20,79.36L157.32,79.36L157.44,79.42L157.54,79.53L157.62,79.67L157.65,79.83L157.65,79.99L157.61,80.14L157.53,80.25L157.43,80.33L157.30,80.35L157.18,80.31"/><path style="stroke:#000000;stroke-width:0.088" d="M157.29,79.64L157.25,79.80L157.28,79.96L157.39,80.07L157.52,80.08L157.61,79.98L157.63,79.90L157.61,79.71L157.52,79.60L157.46,79.57L157.34,79.59L157.29,79.64"/><path style="stroke:#000000;stroke-width:0.088" d="M157.56,80.05L157.45,79.95L157.40,79.79L157.41,79.71L157.48,79.58"/><path style="stroke:#000000;stroke-width:0.088" d="M160.09,72.98L158.98,69.85"/><path style="stroke:#000000;stroke-width:0.088" d="M91.81,72.97L91.87,73.09L92.04,73.26L92.23,73.36L92.44,73.38L92.63,73.30L92.78,73.15L92.89,72.93L92.93,72.67L92.90,72.40L92.81,72.14L92.67,71.93L92.55,71.83L92.49,71.79L92.28,71.73L92.08,71.76L91.91,71.88L91.78,72.07L91.70,72.31L91.69,72.58L91.75,72.85L91.81,72.97"/><path style="stroke:#000000;stroke-width:0.088" d="M91.89,73.17L91.75,72.89L91.68,72.57L91.69,72.25L91.78,71.96L91.94,71.73L92.14,71.60L92.38,71.56L92.62,71.63L92.70,71.67L92.84,71.80L93.02,72.05L93.12,72.35L93.15,72.67L93.10,72.98L92.98,73.24L92.79,73.43L92.57,73.52L92.32,73.50L92.09,73.38L91.89,73.17"/><path style="stroke:#000000;stroke-width:0.088" d="M92.40,72.86L92.33,72.87L92.25,72.85L92.18,72.80L92.12,72.73L92.09,72.63L92.07,72.53L92.09,72.43L92.09,72.41L92.12,72.34L92.18,72.28L92.25,72.25L92.33,72.25L92.40,72.28L92.47,72.35L92.52,72.43L92.54,72.53L92.54,72.64L92.52,72.73L92.47,72.81L92.40,72.86"/><path style="stroke:#000000;stroke-width:0.088" d="M92.18,72.70L92.23,72.76L92.29,72.80L92.36,72.82L92.36,72.82L92.42,72.80L92.48,72.76L92.52,72.70L92.54,72.62L92.54,72.53L92.52,72.45L92.48,72.37L92.42,72.32L92.36,72.29L92.29,72.29L92.23,72.32L92.18,72.37L92.16,72.43L92.15,72.44L92.14,72.53L92.15,72.61L92.18,72.70"/><path style="stroke:#000000;stroke-width:0.088" d="M92.36,72.82L92.36,72.82"/><path style="stroke:#000000;stroke-width:0.088" d="M92.29,72.29L92.30,72.29"/><path style="stroke:#000000;stroke-width:0.088" d="M92.36,72.82L92.36,72.82"/><path style="stroke:#000000;stroke-width:0.088" d="M92.15,71.60L92.41,71.55L92.65,71.52L92.89,71.61L92.93,71.63L93.11,71.79L93.24,72.00L93.27,72.04L93.37,72.35L93.39,72.68L93.33,72.98L93.20,73.23L93.00,73.41L92.77,73.49L92.57,73.52"/><path style="stroke:#000000;stroke-width:0.088" d="M93.16,71.87L93.24,71.90L93.27,71.91L93.37,72.00L93.47,72.16L93.53,72.34L93.54,72.54L93.50,72.72L93.43,72.87L93.33,72.95"/><path style="stroke:#000000;stroke-width:0.088" d="M112.53,136.39L112.54,136.12L112.61,135.88L112.70,135.75L112.74,135.69L112.92,135.57L113.12,135.54L113.32,135.60L113.38,135.63L113.51,135.74L113.65,135.95L113.74,136.20L113.77,136.48L113.73,136.74L113.62,136.96L113.47,137.11L113.28,137.19L113.07,137.17L112.87,137.07L112.71,136.89L112.59,136.66L112.53,136.39"/><path style="stroke:#000000;stroke-width:0.088" d="M112.52,136.38L112.59,136.70L112.73,136.98L112.93,137.19L113.16,137.31L113.40,137.33L113.61,137.29L113.84,137.22L114.03,137.04L114.17,136.79L114.23,136.48L114.21,136.16L114.11,135.85L113.94,135.59L113.77,135.44L113.73,135.41L113.49,135.33L113.25,135.36L112.98,135.40L112.77,135.54L112.62,135.77L112.54,136.02L112.53,136.06L112.52,136.38"/><path style="stroke:#000000;stroke-width:0.088" d="M113.40,137.33L113.63,137.24L113.82,137.05L113.94,136.79L113.99,136.48L113.96,136.16L113.85,135.85L113.68,135.60L113.53,135.48L113.46,135.44L113.22,135.37L112.98,135.40"/><path style="stroke:#000000;stroke-width:0.088" d="M113.17,136.68L113.24,136.66L113.31,136.62L113.36,136.54L113.38,136.45L113.38,136.34L113.35,136.24L113.31,136.15L113.24,136.09L113.18,136.06L113.17,136.06L113.09,136.05L113.02,136.09L112.96,136.15L112.93,136.22L112.92,136.24L112.91,136.34L112.92,136.44L112.96,136.54L113.02,136.61L113.09,136.66L113.17,136.68"/><path style="stroke:#000000;stroke-width:0.088" d="M113.38,136.43L113.38,136.34L113.36,136.26L113.31,136.18L113.26,136.13L113.20,136.10L113.13,136.10L113.07,136.13L113.02,136.18L113.00,136.24L112.99,136.25L112.98,136.34L112.99,136.42L112.99,136.43L113.02,136.50L113.07,136.57L113.13,136.61L113.13,136.61L113.20,136.63L113.26,136.61L113.31,136.57L113.32,136.57L113.36,136.51L113.38,136.43"/><path style="stroke:#000000;stroke-width:0.088" d="M113.20,136.63L113.20,136.63"/><path style="stroke:#000000;stroke-width:0.088" d="M113.20,136.63L113.20,136.63"/><path style="stroke:#000000;stroke-width:0.088" d="M113.13,136.10L113.14,136.10"/><path style="stroke:#000000;stroke-width:0.088" d="M113.99,135.67L114.08,135.70L114.11,135.72L114.21,135.81L114.31,135.97L114.37,136.15L114.38,136.34L114.34,136.53L114.26,136.68L114.17,136.76"/><path style="stroke:#000000;stroke-width:0.088" d="M123.88,95.79L123.72,95.61L123.60,95.38L123.54,95.11L123.55,94.84L123.62,94.60L123.75,94.41L123.93,94.29L124.13,94.26L124.33,94.32L124.39,94.35L124.51,94.46L124.66,94.67L124.75,94.92L124.78,95.20L124.73,95.45L124.73,95.46L124.63,95.68L124.47,95.83L124.28,95.91L124.08,95.89L123.88,95.79"/><path style="stroke:#000000;stroke-width:0.088" d="M123.94,95.91L123.74,95.70L123.60,95.42L123.53,95.10L123.54,94.78L123.62,94.49L123.78,94.26L123.99,94.12L124.23,94.09L124.47,94.16L124.54,94.20L124.69,94.32L124.86,94.57L124.97,94.88L125.00,95.20L124.95,95.51L124.82,95.77L124.64,95.96L124.41,96.05L124.17,96.03L123.94,95.91"/><path style="stroke:#000000;stroke-width:0.088" d="M123.97,94.87L123.94,94.94L123.93,94.96L123.92,95.06L123.93,95.16L123.97,95.25L124.03,95.33L124.10,95.38L124.17,95.40L124.25,95.38L124.32,95.34L124.36,95.26L124.39,95.17L124.39,95.06L124.36,94.96L124.31,94.87L124.25,94.81L124.17,94.78L124.10,94.77L124.10,94.77L124.03,94.81L123.97,94.87"/><path style="stroke:#000000;stroke-width:0.088" d="M124.21,95.34L124.20,95.35L124.14,95.33L124.08,95.29L124.03,95.22L124.00,95.14L123.99,95.06L124.00,94.97L124.00,94.96L124.03,94.90L124.08,94.85L124.14,94.82L124.20,94.82L124.27,94.85L124.29,94.86L124.32,94.90L124.36,94.98L124.38,95.06L124.38,95.15L124.36,95.23L124.32,95.29L124.27,95.33L124.21,95.34L124.21,95.34"/><path style="stroke:#000000;stroke-width:0.088" d="M124.41,96.05L124.62,96.01L124.85,95.94L125.04,95.76L125.17,95.51L125.23,95.20L125.21,94.88L125.12,94.57L124.95,94.31L124.78,94.16L124.74,94.13L124.50,94.05L124.26,94.08L123.99,94.12"/><path style="stroke:#000000;stroke-width:0.088" d="M124.20,95.35L124.20,95.35"/><path style="stroke:#000000;stroke-width:0.088" d="M124.13,94.82L124.15,94.82"/><path style="stroke:#000000;stroke-width:0.088" d="M125.00,94.39L125.09,94.42L125.11,94.44L125.22,94.53L125.32,94.69L125.37,94.87L125.39,95.06L125.35,95.25L125.27,95.40L125.18,95.48"/><path style="stroke:#000000;stroke-width:0.088" d="M145.85,55.14L148.97,56.93L150.29,56.73L151.05,53.86L147.69,51.92L146.38,52.12L145.61,55.00L145.85,55.14"/><path style="stroke:#000000;stroke-width:0.088" d="M146.75,53.81L146.70,53.85L146.66,53.92L146.64,53.99L146.65,54.08L146.67,54.16L146.71,54.23L146.77,54.28L146.83,54.30L146.89,54.29L146.95,54.26L146.99,54.21L147.02,54.15L147.02,54.13L147.03,54.05L147.01,53.97L146.98,53.89L146.93,53.83L146.87,53.80L146.81,53.79L146.75,53.81"/><path style="stroke:#000000;stroke-width:0.088" d="M146.38,52.12L149.74,54.06L148.97,56.93"/><path style="stroke:#000000;stroke-width:0.088" d="M148.38,55.17L148.35,55.13L148.33,55.05L148.32,54.96L148.34,54.89L148.38,54.82L148.43,54.78L148.49,54.76L148.55,54.77L148.61,54.80L148.66,54.86L148.69,54.94L148.71,55.02L148.70,55.10L148.70,55.12L148.67,55.18L148.63,55.23L148.57,55.26L148.51,55.27L148.45,55.25L148.39,55.20L148.38,55.17"/><path style="stroke:#000000;stroke-width:0.088" d="M149.74,54.06L151.05,53.86"/><path style="stroke:#000000;stroke-width:0.088" d="M101.39,29.46L104.75,31.40L106.07,31.20L106.83,28.33L103.47,26.39L102.16,26.59L101.39,29.46"/><path style="stroke:#000000;stroke-width:0.088" d="M102.16,26.59L105.52,28.53L104.75,31.40"/><path style="stroke:#000000;stroke-width:0.088" d="M102.44,28.38L102.44,28.39L102.42,28.46L102.43,28.55L102.45,28.63L102.49,28.70L102.55,28.74L102.61,28.77L102.67,28.76L102.73,28.73L102.77,28.68L102.80,28.62L102.80,28.60L102.81,28.52L102.79,28.44L102.76,28.36L102.71,28.30L102.65,28.27L102.59,28.26L102.53,28.28L102.48,28.32L102.44,28.38"/><path style="stroke:#000000;stroke-width:0.088" d="M104.29,29.74L104.23,29.71L104.17,29.67L104.13,29.60L104.11,29.52L104.10,29.43L104.12,29.35L104.16,29.29L104.21,29.25L104.27,29.23L104.33,29.24L104.39,29.27L104.44,29.33L104.47,29.41L104.49,29.49L104.48,29.57L104.48,29.59L104.45,29.65L104.41,29.70L104.35,29.73L104.29,29.74"/><path style="stroke:#000000;stroke-width:0.088" d="M105.52,28.53L106.83,28.33"/><path style="stroke:#000000;stroke-width:0.088" d="M52.42,54.32L52.51,54.51L52.68,54.68L52.88,54.78L53.08,54.80L53.27,54.72L53.43,54.57L53.53,54.35L53.57,54.09L53.55,53.82L53.46,53.56L53.31,53.35L53.19,53.25L53.13,53.21L52.93,53.15L52.73,53.18L52.55,53.30L52.42,53.49L52.35,53.73L52.34,54.00L52.40,54.27L52.42,54.32"/><path style="stroke:#000000;stroke-width:0.088" d="M52.54,54.59L52.39,54.31L52.33,53.99L52.33,53.67L52.42,53.38L52.58,53.15L52.79,53.01L53.03,52.98L53.27,53.05L53.34,53.09L53.49,53.22L53.56,53.32L53.66,53.46L53.77,53.77L53.80,54.09L53.75,54.40L53.73,54.43L53.62,54.66L53.44,54.85L53.21,54.94L52.97,54.92L52.73,54.80L52.54,54.59"/><path style="stroke:#000000;stroke-width:0.088" d="M52.79,53.01L53.05,52.97L53.29,52.94L53.54,53.03L53.58,53.05L53.75,53.21L53.91,53.46L54.01,53.77L54.03,54.10L53.99,54.32L53.97,54.40L53.84,54.65L53.65,54.83L53.42,54.91L53.21,54.94"/><path style="stroke:#000000;stroke-width:0.088" d="M52.97,54.29L53.05,54.28L53.11,54.23L53.16,54.15L53.19,54.06L53.19,53.95L53.16,53.85L53.11,53.77L53.05,53.70L52.98,53.67L52.97,53.67L52.90,53.67L52.82,53.70L52.77,53.76L52.73,53.83L52.73,53.85L52.72,53.95L52.73,54.05L52.77,54.15L52.82,54.22L52.90,54.27L52.97,54.29"/><path style="stroke:#000000;stroke-width:0.088" d="M52.80,53.86L52.79,53.95L52.80,54.03L52.83,54.12L52.88,54.18L52.94,54.22L53.00,54.24L53.07,54.22L53.12,54.18L53.16,54.12L53.16,54.11L53.18,54.04L53.18,53.95L53.16,53.87L53.16,53.86L53.12,53.79L53.07,53.74L53.00,53.71L52.94,53.71L52.88,53.74L52.83,53.79L52.80,53.85L52.80,53.86"/><path style="stroke:#000000;stroke-width:0.088" d="M53.01,54.24L53.01,54.24"/><path style="stroke:#000000;stroke-width:0.088" d="M52.93,53.71L52.94,53.71"/><path style="stroke:#000000;stroke-width:0.088" d="M53.00,54.24L53.00,54.24"/><path style="stroke:#000000;stroke-width:0.088" d="M53.98,54.37L54.07,54.29L54.15,54.14L54.18,53.96L54.17,53.76L54.11,53.58L54.01,53.42L53.91,53.33L53.89,53.32L53.80,53.29"/><path style="fill:#ffffff" d="M171.98,67.59L198.39,67.59L198.39,61.94L171.98,61.94z"/><path style="stroke:#35414c;stroke-width:0.255" d="M171.98,67.59L198.39,67.59L198.39,61.94L171.98,61.94z"/><path style="stroke:#35404c;stroke-width:0.250;stroke-opacity:0.00" d="M171.98,67.59L198.39,67.59L198.39,61.94L171.98,61.94z"/><text xml:space="preserve" fill="#333f4b" stroke-width="0" x="172.69" y="66.00" font-size="3.49" opacity="1.00" font-family="Arial" font-weight="bold" font-style="italic">F24978829A</text><path style="fill:#ffffff" d="M171.98,77.52L198.39,77.52L198.39,71.88L171.98,71.88z"/><path style="stroke:#35414c;stroke-width:0.255" d="M171.98,77.52L198.39,77.52L198.39,71.88L171.98,71.88z"/><path style="stroke:#35404c;stroke-width:0.250;stroke-opacity:0.00" d="M171.98,77.52L198.39,77.52L198.39,71.88L171.98,71.88z"/><text xml:space="preserve" fill="#333f4b" stroke-width="0" x="172.69" y="75.94" font-size="3.49" opacity="1.00" font-family="Arial" font-weight="bold" font-style="italic">F24978830A</text><path style="fill:#ffffff" d="M171.98,87.65L198.39,87.65L198.39,82.01L171.98,82.01z"/><path style="stroke:#35414c;stroke-width:0.255" d="M171.98,87.65L198.39,87.65L198.39,82.01L171.98,82.01z"/><path style="stroke:#35404c;stroke-width:0.250;stroke-opacity:0.00" d="M171.98,87.65L198.39,87.65L198.39,82.01L171.98,82.01z"/><text xml:space="preserve" fill="#333f4b" stroke-width="0" x="172.69" y="86.06" font-size="3.51" opacity="1.00" font-family="Arial" font-weight="bold" font-style="italic">V25641321X</text><g id="paperID" visibility="hidden" opacity="0.00" transform="scale(0.000100)"><path style="stroke:#000000;stroke-width:0.500;fill:#e6e6e6;fill-rule:evenodd" d="M-2000.00,-2000.00L2210.00,-2000.00L2210.00,2150.00L-2000.00,2150.00zM0.00,0.00L210.00,0.00L210.00,150.00L0.00,150.00z"/><path style="fill:#000000;fill-opacity:0.118" d="M3.00,150.00L210.00,150.00L210.00,3.00L213.00,3.00L213.00,153.00L3.00,153.00z"/></g><g id="hotspot.0" onmouseover="ShowHotSpot(evt,'0')" onmouseout="HideHotSpot(evt,'0')" onmousemove="ShowToolTip(evt,'0',&quot;F24978829A&quot;)" opacity="0"><path style="fill:#00ff00;fill-rule:evenodd" d="M130.25,53.12L159.32,69.99L160.25,72.62L160.25,73.62L144.44,132.63L143.36,132.64L131.39,125.68L131.17,125.32L131.18,124.62L142.06,83.56L142.06,82.19L141.50,80.50L140.92,79.58L139.25,78.44L78.13,43.19L77.39,42.80L76.36,42.80L75.62,43.18L75.04,43.92L74.55,44.93L63.87,85.06L63.44,85.94L62.55,85.95L50.57,78.99L50.37,78.81L50.37,77.56L66.13,18.69L68.12,17.68L68.95,17.68zM198.67,62.33L198.69,67.62L198.46,67.78L171.86,67.76L171.85,62.16L172.00,61.94L198.30,61.95zM72.96,42.72L73.01,43.20L72.68,43.20L72.68,42.67zM106.84,58.17L106.76,58.58L106.43,58.58L106.43,58.05L106.65,57.98zM112.00,61.35L112.24,61.37L112.28,61.81L112.06,61.77zM51.65,76.73L51.86,76.76L51.90,76.98L51.69,76.94zM62.02,84.04L62.00,84.52L61.76,84.53L61.83,83.84zM144.13,84.33L143.87,84.33L143.87,83.85L144.13,83.85zM133.27,125.29L133.20,125.51L132.86,125.51L132.80,125.12L133.07,125.09z"/></g><g id="hotspot.1" onmouseover="ShowHotSpot(evt,'1')" onmouseout="HideHotSpot(evt,'1')" onmousemove="ShowToolTip(evt,'1',&quot;F24978830A&quot;)" opacity="0"><path style="fill:#00ff00;fill-rule:evenodd" d="M106.82,28.38L106.05,31.24L105.44,31.38L104.55,31.38L101.56,29.68L101.55,29.00L102.25,26.69L103.44,26.48zM150.87,53.88L150.87,54.69L150.30,56.74L149.89,56.89L148.63,56.87L145.81,55.19L145.80,54.30L146.36,52.24L147.71,52.01zM198.67,72.26L198.69,77.56L198.46,77.71L171.86,77.70L171.85,72.10L172.00,71.88L198.30,71.89z"/></g><g id="hotspot.2" onmouseover="ShowHotSpot(evt,'2')" onmouseout="HideHotSpot(evt,'2')" onmousemove="ShowToolTip(evt,'2',&quot;V25641321X&quot;)" opacity="0"><path style="fill:#00ff00;fill-rule:evenodd" d="M54.14,53.68L54.13,54.31L53.74,54.87L52.63,54.81L52.42,54.45L52.44,53.37L52.74,53.11L53.57,53.11zM87.89,69.06L87.89,69.69L87.43,70.18L86.38,70.18L86.17,69.83L86.17,68.92L86.48,68.48L87.32,68.49zM93.52,72.24L93.51,72.88L93.27,73.20L92.69,73.59L92.20,73.57L91.82,73.18L91.81,71.94L92.11,71.68L92.95,71.68zM198.67,82.39L198.69,87.69L198.46,87.84L171.86,87.82L171.85,82.22L172.00,82.00L198.30,82.01zM124.84,94.35L125.40,94.93L125.39,95.37L124.77,96.09L124.07,96.06L123.69,95.68L123.69,94.44L123.99,94.17L124.63,94.18zM43.08,94.93L43.01,95.70L42.44,96.28L41.93,96.27L41.57,96.06L41.30,95.13L41.51,94.58L41.86,94.36L42.51,94.36zM114.33,135.99L114.33,136.63L113.88,137.31L113.00,137.31L112.63,136.93L112.61,135.85L113.12,135.41L113.56,135.42z"/></g></g></svg>
