<?xml version="1.0" encoding="UTF-8" standalone="no"?>
<svg xmlns="http://www.w3.org/2000/svg" xmlns:xlink="http://www.w3.org/1999/xlink" width="210.000mm" height="150.000mm" viewBox="0.000000 0.000000 210.000000 150.000000" stroke-linejoin="round" stroke-linecap="round" fill="none" fill-rule="evenodd"><desc>Composer Export</desc><script type="text/ecmascript"><![CDATA[
if(typeof(top) != "undefined")
{
	top.ShowPaper = ShowPaper;
}
function ShowHotSpot(evt,hotspotid)
{
	var svgDocument = evt.target.ownerDocument;
	var strId = "hotspot."+hotspotid;
	var hotspot = svgDocument.getElementById(strId);
	if(hotspot)
		hotspot.setAttribute("opacity",".5");
}
function HideHotSpot(evt,hotspotid)
{
	var svgDocument = evt.target.ownerDocument;
	var strId = "hotspot."+hotspotid;
	var hotspot = svgDocument.getElementById(strId);
	if(hotspot)
		hotspot.setAttribute("opacity","0");

	var toolTip = svgDocument.getElementById('ToolTip');
	if(toolTip)
		toolTip.setAttribute("visibility","hidden");
}
function ShowToolTip(evt,hotspotid,strTooltip)
{
	if(strTooltip=="")
	return;

	// change text
	var svgDocument = evt.target.ownerDocument;
	var tiptext = svgDocument.getElementById('ToolTipText');
	if( !tiptext )
	return;
	tiptext.firstChild.nodeValue = " " + strTooltip + "  " ;

	// show tooltip before, else some refresh issue

	var toolTip = svgDocument.getElementById('ToolTip');
	if(!toolTip)
	return;

	toolTip.setAttribute("visibility","visible");
	toolTip.setAttribute("opacity",".95");

	// move tooltip
	// get viewbox

	var root = svgDocument.documentElement;
	var vbox = (root.getAttribute("viewBox")).split(' ');
	var x0 = parseFloat(vbox[0]);
	var y0 = parseFloat(vbox[1]);
	var vboxW = parseFloat(vbox[2]);
	var vboxH = parseFloat(vbox[3]);

	// get default width of svg

	var strW = root.getAttribute("width");
	var svgW = parseFloat(strW);
	if(strW.indexOf('mm') != -1)
	svgW *= 3.779;

	var strH = root.getAttribute("height");
	var svgH = parseFloat(strH);
	if(strH.indexOf('mm') != -1)
	svgH *= 3.779;  	// 96 dpi  -> 96/25.4 = 3.779

	// update the viewbox / width / height if svg is embedded in html with zoom fit all
	var realx0 = x0;
	var realy0 = y0;
	var realvboxW = vboxW;
	var realvboxH = vboxH;
	var realsvgW = svgW;
	var realsvgH = svgH;

	if ((typeof(top) == "undefined") || (typeof(top.svgctl1) != "undefined")) // embedded in html
	{
		// get window size in pxl

		svgW = window.innerWidth;
		svgH = window.innerHeight;

		// calculate real viewbox

		realsvgW = svgW;
		realsvgH = svgH;
		if((svgW / svgH) > (vboxW / vboxH))
		{
			realvboxW = (vboxH * svgW) / svgH;
			realvboxH = vboxH;
			realx0 = x0 - (realvboxW - vboxW)/2 ;
		}
		else
		{
			realvboxH = (vboxW * svgH) / svgW;
			realvboxW = vboxW;
			realy0 = y0 - (realvboxH - vboxH)/2 ;
		}
	}

	// get user zoom/pan

	var newScale = root.currentScale;
	var translation = root.currentTranslate;

	// transform pxl to user unit

	var xPos = (((evt.clientX+10- translation.x)/newScale) * realvboxW)/realsvgW  + realx0 ;
	var yPos = (((evt.clientY+5- translation.y)/newScale) * realvboxH)/ realsvgH  + realy0 ;
	var scaleForWidth = ( (1 / newScale) * realvboxH) / realsvgH;

	// move tooltip

	toolTip.setAttribute("transform", "translate(" + xPos + "," + yPos + ")" );

	// resize tooltip

	var fontsize = 12;
	tiptext.setAttribute("font-size",fontsize*scaleForWidth);
	tiptext.setAttribute("y", fontsize*scaleForWidth);
	var tipBG = svgDocument.getElementById('ToolTipBG');
	var outline = tiptext.getBBox();
	if(tipBG)
	{
		tipBG.setAttribute("stroke-width", 1*scaleForWidth);
		tipBG.setAttribute("width", Number(outline.width) );
		tipBG.setAttribute("height", Number(outline.height) + fontsize*.5*scaleForWidth );
	}
	var ToolTipShadow = svgDocument.getElementById('ToolTipShadow');
	if(ToolTipShadow)
	{
		ToolTipShadow.setAttribute("width", Number(outline.width) );
		ToolTipShadow.setAttribute("height", Number(outline.height) + fontsize*.5*scaleForWidth );
		ToolTipShadow.setAttribute("x", 3*scaleForWidth);
		ToolTipShadow.setAttribute("y", 3*scaleForWidth);
	}
}
function ShowPaper()
{
  var svgDocument = getDocument();
  var paper = svgDocument.getElementById("paperID");
  if(paper)
  {
    paper.setAttribute("transform","scale(1)");
    paper.setAttribute("opacity","1");
    paper.setAttribute("visibility","visible");
  }
  var svg = svgDocument.getRootElement();
  if(svg)
  {
    svg.setAttribute("width","220.000mm");
    svg.setAttribute("height","160.000mm");
    svg.setAttribute("viewBox","-5.000000 -5.000000 220.000000 160.000000");
  }
}
]]></script><defs/><g><path style="fill:#ffffff" d="M209.93,149.99L0.04,149.99L0.04,0.04L209.93,0.04z"/><path style="fill:#00fdff" d="M85.37,41.22L90.95,44.51L90.95,48.76L87.73,50.62L87.53,50.60L78.39,45.28L78.39,40.89L81.57,39.07z"/><path style="fill:#00fdff" d="M157.33,82.79L157.35,87.02L154.26,88.89L153.92,88.88L144.76,83.59L144.76,79.24L147.79,77.45L148.09,77.45z"/><path style="fill:#8aa7bf" d="M53.05,34.39L53.06,36.34L45.45,40.76L45.44,41.61L46.09,42.99L46.09,44.70L45.78,45.02L44.39,45.28L43.41,45.29L43.03,45.16L42.78,44.91L41.51,42.12L41.51,39.36L41.79,38.87L42.11,38.43L43.25,37.67L43.63,37.17L44.64,36.91L50.85,33.36L51.28,33.36z"/><path style="fill:#8aa7bf" d="M24.68,44.76L24.79,48.83L24.92,49.84L25.44,50.21L25.42,52.29L18.93,56.06L17.83,56.04L16.43,55.16L16.43,53.18L22.78,49.52L22.89,44.69L23.23,44.51L24.29,44.51z"/><path style="fill:#8aa7bf" d="M76.38,55.41L76.45,60.03L79.66,60.49L81.40,60.50L89.50,55.79L90.19,55.79L91.84,56.80L91.84,58.77L84.36,63.08L83.08,63.69L81.91,64.04L79.28,64.03L74.46,63.28L73.96,62.89L73.95,60.90L74.35,60.15L74.47,55.33L74.92,55.03L75.87,55.03z"/><path style="fill:#8aa7bf" d="M63.58,67.32L63.69,72.27L64.21,72.64L64.21,74.73L57.45,78.62L56.97,78.62L55.20,77.59L55.19,75.72L55.71,75.36L61.55,71.94L61.67,67.25L62.00,66.94L63.07,66.94z"/><path style="fill:#8aa7bf" d="M118.94,72.40L119.46,72.77L119.41,74.68L111.72,79.15L111.71,79.75L112.48,81.39L112.49,82.96L111.94,83.43L109.95,83.69L109.28,83.46L107.91,80.51L107.79,79.87L107.79,78.14L108.04,77.38L108.77,76.58L109.68,75.98L110.06,75.47L110.91,75.31L116.99,71.76L117.81,71.76z"/><path style="fill:#8aa7bf" d="M91.07,83.04L91.19,88.11L91.82,88.49L91.84,90.57L85.20,94.45L84.47,94.45L82.83,93.56L82.79,91.54L89.18,87.78L89.29,83.08L89.75,82.78L90.57,82.78z"/><path style="fill:#8aa7bf" d="M142.63,93.57L142.78,93.80L142.85,98.29L146.44,98.88L147.42,98.89L149.35,97.91L155.77,94.19L156.71,94.19L158.22,95.08L158.24,97.03L150.57,101.53L149.07,102.18L147.29,102.43L146.69,102.43L144.54,102.18L140.61,101.54L140.36,101.29L140.35,99.29L140.74,98.42L140.86,93.60L141.45,93.30L142.14,93.30z"/><path style="fill:#8aa7bf" d="M129.83,105.48L129.98,105.71L130.06,110.58L130.60,110.92L130.56,113.07L123.98,116.88L123.24,116.88L121.60,115.99L121.60,114.00L127.90,110.29L128.07,105.51L128.52,105.21L129.34,105.21z"/><path style="fill:#01ff02" d="M44.59,37.55L44.57,37.72L44.03,37.67L44.01,37.55L44.45,37.40z"/><path style="fill:#01ff02" d="M24.06,45.06L23.46,45.06L23.46,44.91L24.06,44.91z"/><path style="fill:#01ff02" d="M88.97,46.23L89.05,46.72L88.79,47.23L88.50,47.45L88.11,47.48L87.99,47.17L88.35,46.41L88.62,46.15z"/><path style="fill:#01ff02" d="M88.97,48.39L89.05,48.87L88.62,49.59L88.11,49.63L87.99,49.32L88.35,48.56L88.62,48.30z"/><path style="fill:#01ff02" d="M75.75,55.53L75.58,55.69L75.21,55.69L75.04,55.53L75.16,55.41L75.63,55.41z"/><path style="fill:#01ff02" d="M62.24,67.44L62.36,67.32L62.82,67.33L62.78,67.59L62.41,67.60z"/><path style="fill:#01ff02" d="M110.47,76.04L110.39,75.83L110.98,75.82L110.93,76.07L110.57,76.09z"/><path style="fill:#01ff02" d="M90.47,83.29L90.44,83.46L89.91,83.42L89.91,83.21L90.32,83.15z"/><path style="fill:#01ff02" d="M155.46,84.68L155.31,85.36L155.01,85.70L154.41,85.71L154.41,85.23L154.88,84.55L155.32,84.54z"/><path style="fill:#01ff02" d="M155.46,86.84L155.31,87.52L155.01,87.85L154.41,87.86L154.41,87.39L154.88,86.71L155.32,86.70z"/><path style="fill:#01ff02" d="M142.04,93.81L142.02,93.98L141.48,93.94L141.49,93.73L141.89,93.66z"/><path style="fill:#01ff02" d="M128.68,105.64L129.22,105.60L129.22,105.89L128.68,105.85z"/><path style="stroke:#000000;stroke-width:0.088" d="M108.52,81.75L109.30,83.44L109.30,81.82L107.94,78.89L107.94,80.50L108.52,81.75"/><path style="stroke:#000000;stroke-width:0.088" d="M107.94,80.50L107.78,79.81L107.78,78.19L107.94,78.89"/><path style="stroke:#000000;stroke-width:0.088" d="M107.78,78.19L107.94,77.50L108.40,76.86L109.14,76.30L109.74,75.96"/><path style="stroke:#000000;stroke-width:0.088" d="M109.30,83.44L110.11,83.71L110.11,82.09L109.30,81.82"/><path style="stroke:#000000;stroke-width:0.088" d="M110.11,83.71L112.03,83.41L112.11,83.33L112.50,82.94L112.50,81.32L112.03,81.79L110.11,82.09"/><path style="stroke:#000000;stroke-width:0.088" d="M110.83,75.33L116.97,71.78L117.14,71.71L117.34,71.67L117.54,71.67L117.74,71.71L117.91,71.78L119.31,72.59L119.43,72.69L119.50,72.80L119.50,72.92L119.43,73.03L119.31,73.13L111.71,77.52"/><path style="stroke:#000000;stroke-width:0.088" d="M112.50,81.32L111.71,79.64"/><path style="stroke:#000000;stroke-width:0.088" d="M111.71,79.14L119.31,74.75L119.31,73.13"/><path style="stroke:#000000;stroke-width:0.088" d="M112.03,81.79L112.03,83.41"/><path style="stroke:#000000;stroke-width:0.088" d="M113.61,74.60L113.70,74.69L113.88,74.78L114.10,74.83L114.34,74.84L114.57,74.81L114.77,74.73L114.91,74.62L114.98,74.49L114.98,74.35L114.89,74.22L114.78,74.13L114.74,74.11L114.54,74.04L114.31,74.01L114.07,74.02L113.85,74.08L113.68,74.17L113.57,74.30L113.53,74.43L113.58,74.57L113.61,74.60"/><path style="stroke:#000000;stroke-width:0.088" d="M113.81,74.75L113.85,74.73L114.07,74.67L114.31,74.65L114.54,74.68L114.72,74.75"/><path style="stroke:#000000;stroke-width:0.088" d="M114.13,74.83L114.16,74.83L114.31,74.82L114.39,74.83"/><path style="stroke:#000000;stroke-width:0.088" d="M117.12,72.25L117.09,72.38L117.13,72.52L117.25,72.64L117.43,72.73L117.65,72.78L117.89,72.79L118.08,72.76L118.12,72.75L118.32,72.68L118.46,72.57L118.53,72.43L118.53,72.30L118.45,72.17L118.33,72.08L118.30,72.06L118.09,71.99L117.86,71.95L117.62,71.97L117.41,72.03L117.23,72.12L117.12,72.25"/><path style="stroke:#000000;stroke-width:0.088" d="M117.94,72.78L117.86,72.77L117.72,72.78L117.68,72.78"/><path style="stroke:#000000;stroke-width:0.088" d="M117.37,72.70L117.41,72.67L117.62,72.62L117.86,72.60L118.09,72.63L118.27,72.70"/><path style="stroke:#000000;stroke-width:0.088" d="M119.31,74.75L119.43,74.65L119.50,74.54"/><path style="stroke:#000000;stroke-width:0.088" d="M119.50,72.80L119.50,74.49"/><path style="stroke:#000000;stroke-width:0.088" d="M129.63,105.31L129.82,105.45L129.91,105.62L129.90,105.79L129.80,105.96L129.61,106.10L129.35,106.19L129.05,106.23L128.75,106.21L128.47,106.14L128.25,106.01L128.11,105.86L128.07,105.68L128.12,105.51L128.27,105.36L128.34,105.32L128.50,105.24L128.78,105.17L129.09,105.16L129.38,105.21L129.63,105.31L129.68,105.33L129.87,105.49L129.97,105.67L129.97,105.85L129.86,106.03L129.83,106.05L129.65,106.18L129.37,106.28L129.06,106.32L128.73,106.30L128.43,106.22L128.20,106.09L128.18,106.07L128.05,105.92L128.00,105.74L128.00,110.95L128.03,111.13L128.17,111.31L128.40,111.44L128.69,111.53L129.01,111.56L129.33,111.52L129.62,111.43L129.69,111.39L129.58,111.45"/><path style="stroke:#000000;stroke-width:0.088" d="M128.00,105.74L128.06,105.55L128.22,105.39L128.29,105.34"/><path style="stroke:#000000;stroke-width:0.088" d="M128.29,105.34L128.34,105.32"/><path style="stroke:#000000;stroke-width:0.088" d="M128.40,111.44L128.44,111.46"/><path style="stroke:#000000;stroke-width:0.088" d="M128.67,105.82L128.61,105.75L128.60,105.68L128.63,105.61L128.70,105.54L128.71,105.53L128.80,105.50L128.92,105.47L129.05,105.47L129.17,105.49L129.18,105.49L129.28,105.54L129.35,105.60L129.39,105.67L129.38,105.75L129.33,105.82L129.24,105.87L129.13,105.91L129.00,105.92L128.87,105.91L128.76,105.88L128.67,105.82"/><path style="stroke:#000000;stroke-width:0.088" d="M129.23,105.88L129.27,105.85L129.32,105.79L129.32,105.73L129.29,105.67L129.23,105.62L129.14,105.58L129.04,105.56L128.93,105.56L128.83,105.58L128.76,105.61L128.75,105.62L128.69,105.67L128.66,105.74L128.67,105.80L128.72,105.86L128.76,105.88"/><path style="stroke:#000000;stroke-width:0.088" d="M129.69,111.39L129.83,111.29L129.96,111.11L129.98,110.92"/><path style="stroke:#000000;stroke-width:0.088" d="M129.32,105.73L129.32,105.73"/><path style="stroke:#000000;stroke-width:0.088" d="M129.98,110.87L129.97,105.67"/><path style="stroke:#000000;stroke-width:0.088" d="M44.98,37.15L45.16,37.29L45.17,37.31L45.25,37.46L45.25,37.63L45.14,37.80L44.95,37.93L44.69,38.03L44.39,38.07L44.09,38.05L43.81,37.97L43.59,37.85L43.45,37.70L43.41,37.52L43.47,37.35L43.62,37.20L43.68,37.15L43.84,37.08L44.13,37.01L44.43,37.00L44.72,37.05L44.98,37.15L45.02,37.17L45.22,37.32L45.32,37.50L45.31,37.69L45.20,37.87L45.17,37.89L44.99,38.02L44.72,38.12L44.40,38.16L44.07,38.14L43.78,38.06L43.54,37.93L43.52,37.91L43.39,37.76L43.34,37.58L43.35,42.79L43.38,42.98L43.52,43.15L43.74,43.28L44.03,43.37L44.35,43.40L44.68,43.36L44.96,43.27L45.04,43.23L45.18,43.13L45.30,42.95L45.32,42.76"/><path style="stroke:#000000;stroke-width:0.088" d="M43.34,37.58L43.40,37.39L43.57,37.23L43.63,37.18L43.68,37.15"/><path style="stroke:#000000;stroke-width:0.088" d="M43.74,43.28L43.78,43.30"/><path style="stroke:#000000;stroke-width:0.088" d="M44.38,37.76L44.34,37.76L44.21,37.75L44.10,37.72L44.01,37.66L43.95,37.59L43.94,37.52L43.97,37.44L44.04,37.38L44.06,37.37L44.14,37.33L44.26,37.31L44.39,37.31L44.52,37.33L44.62,37.37L44.70,37.44L44.73,37.51L44.72,37.58L44.67,37.65L44.59,37.71L44.47,37.75L44.38,37.76"/><path style="stroke:#000000;stroke-width:0.088" d="M44.58,37.71L44.62,37.69L44.66,37.63L44.66,37.57L44.64,37.51L44.57,37.45L44.49,37.42L44.38,37.40L44.38,37.40L44.27,37.40L44.17,37.42L44.10,37.45L44.09,37.46L44.03,37.51L44.01,37.57L44.02,37.64L44.06,37.69L44.10,37.72"/><path style="stroke:#000000;stroke-width:0.088" d="M45.03,43.23L44.92,43.29"/><path style="stroke:#000000;stroke-width:0.088" d="M44.66,37.57L44.66,37.57"/><path style="stroke:#000000;stroke-width:0.088" d="M45.32,42.76L45.32,37.51"/><path style="stroke:#000000;stroke-width:0.088" d="M63.48,67.16L63.58,67.34L63.58,67.36L63.58,67.53L63.46,67.70L63.26,67.85L63.22,67.86L62.98,67.95L62.66,67.99L62.34,67.97L62.04,67.89L62.01,67.88L61.81,67.76L61.66,67.60L61.61,67.41L61.61,72.62L61.64,72.81L61.78,72.98L62.00,73.11L62.29,73.20L62.62,73.23L62.94,73.19L63.22,73.10L63.30,73.06L63.44,72.96L63.56,72.79L63.58,72.60"/><path style="stroke:#000000;stroke-width:0.088" d="M63.24,66.98L63.42,67.12L63.52,67.29L63.51,67.47L63.41,67.63L63.21,67.77L62.95,67.86L62.66,67.90L62.36,67.88L62.08,67.81L61.86,67.69L61.72,67.53L61.68,67.36L61.73,67.18L61.81,67.10L61.88,67.03L61.95,66.99L62.11,66.91L62.39,66.85L62.70,66.84L62.99,66.88L63.24,66.98L63.29,67.01L63.48,67.16"/><path style="stroke:#000000;stroke-width:0.088" d="M61.61,67.41L61.67,67.22L61.83,67.06L61.90,67.01"/><path style="stroke:#000000;stroke-width:0.088" d="M62.00,73.11L62.04,73.14"/><path style="stroke:#000000;stroke-width:0.088" d="M62.48,67.59L62.36,67.55L62.27,67.50L62.22,67.43L62.20,67.35L62.23,67.28L62.30,67.22L62.32,67.21L62.40,67.17L62.53,67.14L62.66,67.14L62.78,67.16L62.89,67.21L62.96,67.27L62.99,67.34L62.99,67.42L62.94,67.49L62.85,67.55L62.74,67.58L62.61,67.60L62.48,67.59"/><path style="stroke:#000000;stroke-width:0.088" d="M62.84,67.55L62.88,67.52L62.92,67.46L62.93,67.40L62.90,67.34L62.84,67.29L62.75,67.25L62.65,67.23L62.54,67.23L62.44,67.25L62.37,67.29L62.35,67.29L62.30,67.35L62.27,67.41L62.28,67.47L62.33,67.53L62.36,67.55"/><path style="stroke:#000000;stroke-width:0.088" d="M61.90,67.02L61.95,66.99"/><path style="stroke:#000000;stroke-width:0.088" d="M63.30,73.06L63.18,73.12"/><path style="stroke:#000000;stroke-width:0.088" d="M62.93,67.40L62.93,67.40"/><path style="stroke:#000000;stroke-width:0.088" d="M63.58,72.55L63.58,67.35"/><path style="stroke:#000000;stroke-width:0.088" d="M111.71,75.83L111.72,81.09L111.69,81.28L111.57,81.45L111.43,81.56L111.35,81.60L111.07,81.69L110.75,81.72L110.43,81.70L110.14,81.61L109.91,81.47L109.77,81.30L109.74,81.11L109.74,75.90L109.78,76.09L109.91,76.24L109.93,76.26L110.17,76.39L110.47,76.47L110.79,76.49L111.11,76.44L111.39,76.34L111.56,76.22L111.59,76.20L111.70,76.02L111.71,75.83L111.61,75.65L111.41,75.50L111.37,75.47L111.55,75.62L111.64,75.78L111.64,75.96L111.53,76.12L111.34,76.26L111.08,76.35L110.79,76.39L110.48,76.38L110.21,76.30L109.99,76.18L109.85,76.02L109.80,75.85L109.86,75.68L110.01,75.52L110.07,75.48L110.24,75.41L110.52,75.34L110.82,75.33L111.12,75.38L111.37,75.47"/><path style="stroke:#000000;stroke-width:0.088" d="M110.14,81.61L110.17,81.63"/><path style="stroke:#000000;stroke-width:0.088" d="M109.74,75.90L109.80,75.72L109.96,75.55L110.03,75.51L110.07,75.48"/><path style="stroke:#000000;stroke-width:0.088" d="M110.86,76.08L110.74,76.09L110.61,76.08L110.49,76.04L110.40,75.99L110.35,75.92L110.33,75.85L110.36,75.77L110.43,75.71L110.45,75.70L110.53,75.66L110.66,75.64L110.79,75.63L110.91,75.66L111.01,75.70L111.09,75.76L111.12,75.84L111.11,75.91L111.06,75.98L110.98,76.04L110.86,76.08"/><path style="stroke:#000000;stroke-width:0.088" d="M110.97,76.04L111.01,76.02L111.05,75.96L111.06,75.89L111.03,75.83L110.97,75.78L110.88,75.74L110.78,75.73L110.67,75.73L110.57,75.75L110.49,75.78L110.48,75.79L110.42,75.84L110.40,75.90L110.41,75.96L110.46,76.02L110.49,76.04"/><path style="stroke:#000000;stroke-width:0.088" d="M111.42,81.56L111.32,81.62"/><path style="stroke:#000000;stroke-width:0.088" d="M111.06,75.89L111.06,75.90"/><path style="stroke:#000000;stroke-width:0.088" d="M142.78,99.03L142.76,99.22L142.64,99.39L142.50,99.49L142.42,99.53L142.14,99.62L141.81,99.66L141.49,99.63L141.20,99.55L141.06,99.46L140.98,99.41L140.84,99.24L140.81,99.05L140.80,93.84L140.85,94.02L140.98,94.17L141.00,94.19L141.24,94.32L141.53,94.40L141.86,94.42L142.17,94.38L142.45,94.28L142.63,94.15L142.66,94.13L142.77,93.96L142.78,93.77L142.68,93.59L142.48,93.44L142.44,93.41L142.18,93.31L141.89,93.26L141.59,93.28L141.30,93.34L141.14,93.42L141.07,93.46L140.93,93.61L140.87,93.79L140.91,93.96L141.05,94.12L141.27,94.24L141.55,94.31L141.85,94.33L142.15,94.29L142.41,94.20L142.60,94.06L142.70,93.89L142.71,93.72L142.62,93.55L142.44,93.41"/><path style="stroke:#000000;stroke-width:0.088" d="M140.80,93.84L140.86,93.65L141.02,93.49L141.09,93.45L141.14,93.42"/><path style="stroke:#000000;stroke-width:0.088" d="M141.24,99.57L141.24,99.57L141.20,99.55"/><path style="stroke:#000000;stroke-width:0.088" d="M142.38,99.56L142.11,99.64L141.81,99.68L141.51,99.65L141.24,99.57"/><path style="stroke:#000000;stroke-width:0.088" d="M141.67,94.01L141.80,94.03L141.93,94.01L142.04,93.97L142.13,93.92L142.18,93.85L142.19,93.77L142.15,93.70L142.08,93.64L141.98,93.59L141.85,93.57L141.72,93.57L141.60,93.60L141.51,93.63L141.50,93.64L141.43,93.71L141.40,93.78L141.41,93.86L141.47,93.93L141.56,93.98L141.67,94.01"/><path style="stroke:#000000;stroke-width:0.088" d="M142.04,93.98L142.08,93.95L142.12,93.89L142.12,93.83L142.09,93.77L142.03,93.72L141.95,93.68L141.84,93.66L141.73,93.66L141.63,93.68L141.56,93.72L141.55,93.72L141.49,93.78L141.46,93.84L141.48,93.90L141.52,93.96L141.56,93.98"/><path style="stroke:#000000;stroke-width:0.088" d="M142.49,99.49L142.38,99.56"/><path style="stroke:#000000;stroke-width:0.088" d="M142.12,93.83L142.12,93.83"/><path style="stroke:#000000;stroke-width:0.088" d="M142.78,99.03L142.78,93.77"/><path style="stroke:#000000;stroke-width:0.088" d="M76.04,55.08L76.22,55.22L76.32,55.39L76.31,55.57L76.21,55.73L76.01,55.87L75.76,55.96L75.46,56.00L75.28,55.99L75.16,55.98L74.88,55.91L74.66,55.79L74.52,55.63L74.48,55.46L74.53,55.29L74.68,55.13L74.75,55.09L74.91,55.02L75.19,54.95L75.50,54.94L75.79,54.98L76.04,55.08L76.09,55.11L76.28,55.26L76.38,55.44L76.38,55.63L76.26,55.81L76.24,55.82L76.06,55.95L75.78,56.05L75.46,56.09L75.14,56.08L74.84,56.00L74.61,55.87L74.59,55.84L74.46,55.70L74.41,55.51L74.41,60.72L74.45,60.91L74.58,61.08L74.63,61.11L74.81,61.22L75.10,61.30L75.42,61.33L75.74,61.30L76.03,61.20L76.10,61.16L76.24,61.06L76.37,60.89L76.39,60.70"/><path style="stroke:#000000;stroke-width:0.088" d="M74.41,55.51L74.47,55.33L74.63,55.16L74.70,55.12L74.75,55.09"/><path style="stroke:#000000;stroke-width:0.088" d="M74.84,61.24L74.85,61.24L74.81,61.22"/><path style="stroke:#000000;stroke-width:0.088" d="M74.85,61.24L75.12,61.32L75.42,61.35L75.72,61.32L75.98,61.23"/><path style="stroke:#000000;stroke-width:0.088" d="M75.07,55.60L75.02,55.53L75.01,55.45L75.03,55.38L75.10,55.32L75.12,55.31L75.21,55.27L75.33,55.24L75.46,55.24L75.58,55.27L75.69,55.31L75.76,55.37L75.80,55.45L75.79,55.52L75.74,55.59L75.65,55.65L75.54,55.68L75.41,55.70L75.28,55.69L75.16,55.65L75.07,55.60"/><path style="stroke:#000000;stroke-width:0.088" d="M75.64,55.65L75.68,55.62L75.72,55.57L75.73,55.50L75.70,55.44L75.64,55.39L75.55,55.35L75.45,55.33L75.34,55.34L75.24,55.36L75.17,55.39L75.15,55.40L75.10,55.45L75.07,55.51L75.08,55.57L75.13,55.63L75.17,55.65"/><path style="stroke:#000000;stroke-width:0.088" d="M76.10,61.17L75.99,61.23"/><path style="stroke:#000000;stroke-width:0.088" d="M75.73,55.50L75.73,55.50"/><path style="stroke:#000000;stroke-width:0.088" d="M76.39,60.70L76.38,55.44"/><path style="stroke:#000000;stroke-width:0.088" d="M24.43,44.54L24.18,44.44L23.89,44.39L23.58,44.41L23.30,44.47L23.14,44.55L23.07,44.59L22.98,44.68L22.92,44.74L22.87,44.92L22.91,45.09L23.05,45.25L23.27,45.37L23.55,45.44L23.85,45.46L24.15,45.42L24.40,45.33L24.60,45.19L24.70,45.02L24.71,44.85L24.61,44.68L24.43,44.54L24.48,44.57L24.67,44.72L24.77,44.90L24.77,45.09L24.65,45.26L24.63,45.28L24.45,45.41L24.17,45.51L23.85,45.55L23.53,45.53L23.23,45.45L23.00,45.32L22.98,45.30L22.85,45.15L22.80,44.97L22.80,50.18L22.84,50.37L22.97,50.54L23.20,50.68L23.49,50.76L23.81,50.79L24.13,50.75L24.42,50.66L24.49,50.62L24.63,50.52L24.76,50.35L24.78,50.16L24.77,44.90"/><path style="stroke:#000000;stroke-width:0.088" d="M22.80,44.97L22.86,44.78L23.02,44.62L23.09,44.57L23.14,44.55"/><path style="stroke:#000000;stroke-width:0.088" d="M23.20,50.68L23.24,50.70"/><path style="stroke:#000000;stroke-width:0.088" d="M23.67,45.14L23.55,45.11L23.46,45.05L23.41,44.99L23.40,44.91L23.43,44.84L23.49,44.77L23.51,44.76L23.60,44.73L23.72,44.70L23.85,44.70L23.97,44.72L24.08,44.77L24.15,44.83L24.19,44.90L24.18,44.98L24.13,45.05L24.04,45.10L23.93,45.14L23.80,45.15L23.67,45.14"/><path style="stroke:#000000;stroke-width:0.088" d="M24.03,45.11L24.07,45.08L24.11,45.02L24.12,44.96L24.09,44.90L24.03,44.85L23.94,44.81L23.84,44.79L23.73,44.79L23.63,44.81L23.56,44.84L23.54,44.85L23.49,44.91L23.46,44.97L23.47,45.03L23.52,45.09L23.56,45.11"/><path style="stroke:#000000;stroke-width:0.088" d="M24.49,50.62L24.38,50.68"/><path style="stroke:#000000;stroke-width:0.088" d="M24.12,44.96L24.12,44.96"/><path style="stroke:#000000;stroke-width:0.088" d="M91.17,88.49L91.15,88.67L91.03,88.85L90.89,88.95L90.81,88.99L90.53,89.08L90.20,89.12L89.88,89.09L89.59,89.00L89.55,88.98L89.37,88.87L89.23,88.70L89.20,88.51L89.19,83.30L89.24,83.48L89.37,83.63L89.39,83.65L89.63,83.78L89.92,83.86L90.25,83.88L90.56,83.84L90.84,83.74L91.02,83.61L91.05,83.59L91.16,83.41L91.17,83.22L91.07,83.04L90.87,82.89L90.83,82.87L90.57,82.77L90.28,82.72L89.98,82.73L89.69,82.80L89.53,82.88L89.47,82.92L89.32,83.07L89.26,83.24L89.30,83.42L89.44,83.57L89.66,83.69L89.94,83.77L90.24,83.79L90.54,83.75L90.80,83.65L90.99,83.52L91.09,83.35L91.10,83.18L91.01,83.01L90.83,82.87"/><path style="stroke:#000000;stroke-width:0.088" d="M89.19,83.30L89.25,83.11L89.41,82.95L89.48,82.90L89.53,82.88"/><path style="stroke:#000000;stroke-width:0.088" d="M89.63,89.03L89.59,89.00"/><path style="stroke:#000000;stroke-width:0.088" d="M90.32,83.47L90.19,83.48L90.06,83.47L89.95,83.44L89.86,83.38L89.80,83.31L89.79,83.24L89.82,83.17L89.89,83.10L89.90,83.09L89.99,83.05L90.11,83.03L90.24,83.03L90.37,83.05L90.47,83.09L90.54,83.16L90.58,83.23L90.57,83.31L90.52,83.37L90.43,83.43L90.32,83.47"/><path style="stroke:#000000;stroke-width:0.088" d="M90.43,83.43L90.47,83.41L90.51,83.35L90.51,83.29L90.48,83.23L90.42,83.18L90.34,83.14L90.23,83.12L90.12,83.12L90.02,83.14L89.95,83.17L89.94,83.18L89.88,83.23L89.85,83.30L89.87,83.36L89.91,83.41L89.95,83.44"/><path style="stroke:#000000;stroke-width:0.088" d="M90.88,88.95L90.77,89.01"/><path style="stroke:#000000;stroke-width:0.088" d="M90.51,83.29L90.51,83.29"/><path style="stroke:#000000;stroke-width:0.088" d="M91.17,83.23L91.17,88.48"/><path style="stroke:#000000;stroke-width:0.088" d="M74.49,63.28L74.34,63.26L74.34,61.64L79.42,62.42L80.62,62.51L81.81,62.42L82.93,62.16L83.89,61.73L83.89,63.35L82.93,63.78L81.81,64.04L80.62,64.13L79.42,64.04L74.49,63.28"/><path style="stroke:#000000;stroke-width:0.088" d="M74.34,63.26L73.87,62.79L73.87,61.17L74.34,61.64"/><path style="stroke:#000000;stroke-width:0.088" d="M74.41,60.05L74.38,60.06L73.87,61.17"/><path style="stroke:#000000;stroke-width:0.088" d="M83.89,61.73L91.72,57.21L91.84,57.11L91.91,57.00L91.91,56.88L91.85,56.76L91.72,56.67L90.32,55.86L90.15,55.79L89.96,55.75L89.75,55.75L89.55,55.79L89.39,55.86L81.55,60.38L81.28,60.50L80.96,60.58L80.62,60.61L80.27,60.58L76.39,59.98"/><path style="stroke:#000000;stroke-width:0.088" d="M79.42,64.04L79.42,62.42"/><path style="stroke:#000000;stroke-width:0.088" d="M83.89,63.35L91.72,58.83L91.84,58.73L91.91,58.62L91.91,57.00"/><path style="stroke:#000000;stroke-width:0.088" d="M86.92,59.17L87.16,59.19L87.39,59.17L87.60,59.10L87.76,59.00L87.85,58.87L87.87,58.73L87.80,58.60L87.67,58.48L87.47,58.40L87.25,58.36L87.01,58.36L86.78,58.41L86.63,58.48L86.60,58.49L86.47,58.61L86.42,58.73L86.42,58.75L86.44,58.88L86.54,59.01L86.71,59.11L86.92,59.17"/><path style="stroke:#000000;stroke-width:0.088" d="M87.26,59.18L87.20,59.17L87.06,59.17L87.02,59.18"/><path style="stroke:#000000;stroke-width:0.088" d="M87.60,59.10L87.47,59.05L87.25,59.01L87.01,59.01L86.78,59.06L86.69,59.10"/><path style="stroke:#000000;stroke-width:0.088" d="M90.34,56.36L90.18,56.42L90.15,56.44L90.02,56.56L89.97,56.70L89.99,56.83L90.09,56.96L90.26,57.06L90.47,57.12L90.71,57.14L90.95,57.12L91.15,57.05L91.31,56.94L91.40,56.82L91.42,56.68L91.35,56.55L91.22,56.43L91.03,56.35L90.80,56.31L90.56,56.31L90.34,56.36"/><path style="stroke:#000000;stroke-width:0.088" d="M91.15,57.05L91.03,57.00L90.80,56.95L90.56,56.96L90.34,57.00L90.24,57.05"/><path style="stroke:#000000;stroke-width:0.088" d="M90.81,57.13L90.76,57.12L90.61,57.12L90.58,57.13"/><path style="stroke:#000000;stroke-width:0.088" d="M91.72,58.83L91.72,57.21"/><path style="stroke:#000000;stroke-width:0.088" d="M145.02,81.58L144.73,81.41L144.73,79.25L154.08,84.65L154.08,86.81L145.02,81.58"/><path style="stroke:#000000;stroke-width:0.088" d="M154.08,86.81L157.35,84.92L157.35,82.76L148.00,77.36L144.73,79.25"/><path style="stroke:#000000;stroke-width:0.088" d="M147.31,78.57L147.32,78.58L147.43,78.70L147.61,78.80L147.84,78.85L148.07,78.86L148.31,78.82L148.50,78.74L148.65,78.63L148.72,78.50L148.71,78.36L148.63,78.23L148.51,78.14L148.48,78.12L148.28,78.05L148.04,78.02L147.81,78.03L147.59,78.09L147.42,78.19L147.31,78.31L147.27,78.45L147.31,78.57"/><path style="stroke:#000000;stroke-width:0.088" d="M147.55,78.76L147.59,78.74L147.81,78.68L148.04,78.67L148.28,78.70L148.45,78.76"/><path style="stroke:#000000;stroke-width:0.088" d="M148.12,78.85L148.03,78.84L147.88,78.84L147.87,78.85"/><path style="stroke:#000000;stroke-width:0.088" d="M154.44,85.79L154.55,85.92L154.71,85.98L154.90,85.95L155.10,85.84L155.29,85.66L155.46,85.42L155.57,85.16L155.62,84.91L155.61,84.68L155.54,84.51L155.40,84.41L155.22,84.40L155.03,84.47L154.83,84.62L154.65,84.83L154.50,85.08L154.42,85.34L154.40,85.54L154.40,85.59L154.44,85.79"/><path style="stroke:#000000;stroke-width:0.088" d="M154.98,84.50L155.12,84.45L155.27,84.47L155.39,84.55L155.45,84.70L155.47,84.90L155.42,85.12L155.32,85.35L155.18,85.55L155.01,85.71L154.83,85.81L154.67,85.83L154.53,85.78L154.44,85.66L154.40,85.50"/><path style="stroke:#000000;stroke-width:0.088" d="M154.08,84.65L157.35,82.76"/><path style="stroke:#000000;stroke-width:0.088" d="M155.03,84.47L155.02,84.47"/><path style="stroke:#000000;stroke-width:0.088" d="M154.87,82.54L154.79,82.63L154.75,82.77L154.80,82.90L154.92,83.02L155.09,83.11L155.32,83.17L155.55,83.18L155.79,83.14L155.98,83.06L156.13,82.95L156.20,82.82L156.19,82.68L156.11,82.55L155.99,82.46L155.96,82.44L155.76,82.37L155.53,82.34L155.29,82.35L155.07,82.41L154.90,82.51L154.87,82.54"/><path style="stroke:#000000;stroke-width:0.088" d="M155.03,83.08L155.07,83.06L155.29,83.00L155.53,82.99L155.76,83.02L155.93,83.08"/><path style="stroke:#000000;stroke-width:0.088" d="M155.61,83.17L155.51,83.15L155.36,83.16L155.34,83.17"/><path style="stroke:#000000;stroke-width:0.088" d="M78.45,45.31L78.33,45.24L78.33,43.08L87.68,48.48L87.68,50.64L78.45,45.31"/><path style="stroke:#000000;stroke-width:0.088" d="M87.68,50.64L90.96,48.75L90.96,46.59L87.68,48.48"/><path style="stroke:#000000;stroke-width:0.088" d="M88.15,49.74L88.16,49.75L88.32,49.81L88.51,49.78L88.71,49.67L88.90,49.49L89.06,49.25L89.18,49.00L89.23,48.74L89.22,48.51L89.14,48.34L89.01,48.24L88.83,48.23L88.63,48.30L88.43,48.45L88.25,48.66L88.11,48.91L88.03,49.17L88.00,49.37L88.01,49.42L88.05,49.62L88.15,49.74"/><path style="stroke:#000000;stroke-width:0.088" d="M88.01,49.33L88.05,49.49L88.14,49.61L88.28,49.66L88.44,49.64L88.62,49.54L88.75,49.41L88.78,49.38L88.93,49.18L89.03,48.95L89.07,48.73L89.06,48.53L88.99,48.38L88.88,48.30L88.72,48.29L88.59,48.34"/><path style="stroke:#000000;stroke-width:0.088" d="M88.63,48.30L88.63,48.30"/><path style="stroke:#000000;stroke-width:0.088" d="M154.08,88.97L144.73,83.57L144.73,81.41L154.08,86.81L154.08,88.97L157.35,87.08L157.35,84.92L154.08,86.81"/><path style="stroke:#000000;stroke-width:0.088" d="M154.44,87.95L154.40,87.74L154.40,87.70L154.42,87.50L154.50,87.24L154.65,86.99L154.83,86.78L155.03,86.63L155.22,86.56L155.40,86.57L155.53,86.67L155.61,86.84L155.62,87.07L155.58,87.30L155.57,87.32L155.46,87.58L155.29,87.82L155.10,88.00L154.90,88.11L154.71,88.14L154.55,88.08L154.44,87.95"/><path style="stroke:#000000;stroke-width:0.088" d="M154.98,86.66L155.12,86.61L155.27,86.63L155.39,86.71L155.45,86.86L155.47,87.06L155.42,87.28L155.32,87.51L155.18,87.71L155.01,87.87L154.83,87.97L154.67,87.99L154.53,87.94L154.44,87.82L154.40,87.66"/><path style="stroke:#000000;stroke-width:0.088" d="M155.03,86.63L155.02,86.63"/><path style="stroke:#000000;stroke-width:0.088" d="M78.45,43.15L78.33,43.08L78.33,40.92L87.68,46.32L87.68,48.48L78.45,43.15"/><path style="stroke:#000000;stroke-width:0.088" d="M78.33,40.92L81.61,39.03L90.96,44.43L90.96,46.59L87.68,48.48"/><path style="stroke:#000000;stroke-width:0.088" d="M81.47,40.52L81.49,40.52L81.63,40.51L81.73,40.52"/><path style="stroke:#000000;stroke-width:0.088" d="M81.25,40.48L81.44,40.52L81.68,40.53L81.91,40.49L82.11,40.41L82.25,40.30L82.33,40.17L82.32,40.03L82.24,39.90L82.12,39.82L82.09,39.80L81.88,39.72L81.65,39.69L81.62,39.69L81.41,39.71L81.20,39.76L81.02,39.86L80.91,39.98L80.88,40.12L80.92,40.26L81.04,40.38L81.22,40.47L81.25,40.48"/><path style="stroke:#000000;stroke-width:0.088" d="M82.06,40.43L81.88,40.37L81.65,40.34L81.41,40.35L81.20,40.41L81.16,40.43"/><path style="stroke:#000000;stroke-width:0.088" d="M87.68,46.32L90.96,44.43"/><path style="stroke:#000000;stroke-width:0.088" d="M88.32,47.65L88.51,47.62L88.71,47.51L88.90,47.33L89.06,47.10L89.18,46.84L89.23,46.58L89.22,46.35L89.14,46.18L89.01,46.08L88.83,46.07L88.63,46.14L88.43,46.29L88.25,46.50L88.11,46.75L88.03,47.01L88.00,47.21L88.01,47.26L88.05,47.46L88.16,47.60L88.32,47.65"/><path style="stroke:#000000;stroke-width:0.088" d="M88.59,46.18L88.72,46.13L88.88,46.14L88.99,46.22L89.06,46.37L89.07,46.57L89.03,46.79L88.93,47.02L88.78,47.22L88.62,47.38L88.44,47.48L88.28,47.50L88.14,47.45L88.05,47.33L88.01,47.17"/><path style="stroke:#000000;stroke-width:0.088" d="M88.63,46.14L88.63,46.14"/><path style="stroke:#000000;stroke-width:0.088" d="M88.36,44.44L88.40,44.57L88.52,44.69L88.70,44.79L88.92,44.84L89.16,44.85L89.39,44.81L89.59,44.73L89.73,44.62L89.81,44.49L89.80,44.35L89.72,44.22L89.60,44.13L89.57,44.12L89.37,44.04L89.13,44.01L88.89,44.02L88.68,44.08L88.50,44.18L88.39,44.30L88.36,44.44L88.36,44.44"/><path style="stroke:#000000;stroke-width:0.088" d="M88.64,44.75L88.68,44.73L88.89,44.67L89.13,44.66L89.37,44.69L89.54,44.75"/><path style="stroke:#000000;stroke-width:0.088" d="M88.95,44.84L88.97,44.83L89.11,44.83L89.21,44.84"/><path style="stroke:#000000;stroke-width:0.088" d="M55.35,76.98L55.35,77.70L55.23,77.60L55.16,77.49L55.17,75.87L55.23,75.98L55.35,76.08L55.35,76.98"/><path style="stroke:#000000;stroke-width:0.088" d="M55.35,77.70L56.75,78.51L56.75,76.89L55.35,76.08"/><path style="stroke:#000000;stroke-width:0.088" d="M61.61,71.93L55.35,75.54L55.23,75.64L55.17,75.75L55.17,75.87"/><path style="stroke:#000000;stroke-width:0.088" d="M56.15,76.19L56.13,76.24L56.13,76.38L56.21,76.51L56.33,76.60L56.37,76.61L56.57,76.69L56.80,76.72L57.04,76.70L57.26,76.65L57.43,76.55L57.54,76.43L57.57,76.29L57.53,76.15L57.41,76.03L57.23,75.94L57.01,75.89L56.77,75.88L56.54,75.92L56.34,75.99L56.20,76.11L56.15,76.19"/><path style="stroke:#000000;stroke-width:0.088" d="M64.23,74.63L64.23,74.73L57.69,78.51L57.52,78.58L57.32,78.62L57.12,78.62L56.92,78.58L56.75,78.51"/><path style="stroke:#000000;stroke-width:0.088" d="M56.75,76.89L56.92,76.96L57.12,77.00L57.32,77.00L57.52,76.96L57.69,76.89L57.69,78.51"/><path style="stroke:#000000;stroke-width:0.088" d="M56.98,76.71L56.96,76.70L56.82,76.69L56.72,76.71"/><path style="stroke:#000000;stroke-width:0.088" d="M57.30,76.62L57.23,76.59L57.01,76.54L56.77,76.53L56.54,76.56L56.39,76.62"/><path style="stroke:#000000;stroke-width:0.088" d="M57.69,76.89L64.23,73.11L64.23,74.73"/><path style="stroke:#000000;stroke-width:0.088" d="M60.03,74.60L60.12,74.64L60.35,74.67L60.59,74.65L60.81,74.59L60.98,74.50L61.09,74.38L61.13,74.24L61.08,74.10L60.96,73.98L60.79,73.89L60.56,73.84L60.33,73.83L60.09,73.87L59.90,73.94L59.75,74.05L59.68,74.19L59.68,74.32L59.77,74.45L59.89,74.54L59.92,74.56L60.03,74.60"/><path style="stroke:#000000;stroke-width:0.088" d="M60.85,74.57L60.78,74.54L60.56,74.49L60.32,74.48L60.09,74.51L59.95,74.57"/><path style="stroke:#000000;stroke-width:0.088" d="M60.53,74.66L60.52,74.65L60.37,74.64L60.28,74.66"/><path style="stroke:#000000;stroke-width:0.088" d="M64.23,73.11L64.23,72.57L63.58,72.20"/><path style="stroke:#000000;stroke-width:0.088" d="M64.23,72.87L64.23,72.57"/><path style="stroke:#000000;stroke-width:0.088" d="M121.74,114.41L121.74,116.03L121.62,115.93L121.56,115.82L121.56,114.20L121.62,114.31L121.74,114.41L123.15,115.22L123.31,115.29L123.51,115.33L123.72,115.33L123.91,115.29L124.08,115.22L130.63,111.44L130.63,113.06L124.08,116.84L124.08,115.22"/><path style="stroke:#000000;stroke-width:0.088" d="M121.74,116.03L123.15,116.84L123.15,115.22"/><path style="stroke:#000000;stroke-width:0.088" d="M128.00,110.26L121.74,113.87L121.62,113.97L121.56,114.08L121.56,114.20"/><path style="stroke:#000000;stroke-width:0.088" d="M122.53,114.70L122.61,114.83L122.73,114.92L122.76,114.94L122.96,115.01L123.20,115.04L123.43,115.03L123.65,114.97L123.82,114.88L123.93,114.75L123.97,114.62L123.92,114.48L123.81,114.36L123.62,114.27L123.40,114.22L123.17,114.21L122.93,114.24L122.74,114.32L122.59,114.43L122.52,114.56L122.53,114.70"/><path style="stroke:#000000;stroke-width:0.088" d="M122.79,114.95L122.93,114.89L123.17,114.86L123.40,114.86L123.63,114.92L123.69,114.95"/><path style="stroke:#000000;stroke-width:0.088" d="M123.15,116.84L123.31,116.91L123.51,116.95L123.72,116.95L123.91,116.91L124.08,116.84"/><path style="stroke:#000000;stroke-width:0.088" d="M123.37,115.03L123.36,115.03L123.21,115.02L123.12,115.03"/><path style="stroke:#000000;stroke-width:0.088" d="M126.11,112.70L126.16,112.78L126.28,112.87L126.31,112.89L126.51,112.96L126.75,112.99L126.99,112.98L127.20,112.92L127.38,112.83L127.49,112.70L127.52,112.57L127.48,112.43L127.36,112.31L127.18,112.22L126.96,112.16L126.72,112.16L126.49,112.19L126.29,112.27L126.15,112.38L126.07,112.51L126.08,112.65L126.11,112.70"/><path style="stroke:#000000;stroke-width:0.088" d="M126.34,112.90L126.49,112.84L126.72,112.80L126.96,112.81L127.18,112.87L127.24,112.90"/><path style="stroke:#000000;stroke-width:0.088" d="M126.92,112.98L126.91,112.98L126.77,112.97L126.67,112.98"/><path style="stroke:#000000;stroke-width:0.088" d="M130.63,112.96L130.63,113.06"/><path style="stroke:#000000;stroke-width:0.088" d="M130.63,111.44L130.63,111.11L130.63,111.20"/><path style="stroke:#000000;stroke-width:0.088" d="M130.63,111.11L130.63,110.90L129.98,110.52"/><path style="stroke:#000000;stroke-width:0.088" d="M25.43,51.96L25.43,52.29L18.88,56.07L18.71,56.14L18.52,56.18L18.31,56.18L18.23,56.16L18.11,56.14L17.95,56.07L16.54,55.26L16.42,55.17L16.36,55.05L16.36,53.31L16.36,53.43L16.42,53.55L16.54,53.64L16.54,55.26"/><path style="stroke:#000000;stroke-width:0.088" d="M16.54,53.64L17.95,54.45L17.95,56.07"/><path style="stroke:#000000;stroke-width:0.088" d="M16.36,53.31L16.42,53.20L16.54,53.10L22.80,49.49"/><path style="stroke:#000000;stroke-width:0.088" d="M17.27,53.97L17.24,53.96L17.05,53.88L16.91,53.77L16.85,53.63L16.86,53.49L16.96,53.37L17.11,53.26L17.32,53.19L17.51,53.17L17.56,53.17L17.80,53.19L18.01,53.25L18.17,53.35L18.27,53.48L18.30,53.62L18.24,53.75L18.12,53.87L18.09,53.89L17.93,53.95L17.71,54.00L17.47,54.00L17.27,53.97"/><path style="stroke:#000000;stroke-width:0.088" d="M18.03,53.91L18.01,53.90L17.80,53.84L17.56,53.82L17.32,53.84L17.12,53.91"/><path style="stroke:#000000;stroke-width:0.088" d="M17.95,54.45L18.11,54.52L18.31,54.56L18.52,54.56L18.71,54.52L18.88,54.45L18.88,56.07"/><path style="stroke:#000000;stroke-width:0.088" d="M17.44,54.00L17.56,53.98L17.71,54.00L17.72,54.00"/><path style="stroke:#000000;stroke-width:0.088" d="M25.43,52.29L25.43,50.67L18.88,54.45"/><path style="stroke:#000000;stroke-width:0.088" d="M20.60,51.83L20.47,51.71L20.41,51.59L20.40,51.58L20.42,51.44L20.51,51.31L20.67,51.21L20.88,51.14L21.11,51.12L21.35,51.14L21.56,51.20L21.73,51.30L21.83,51.43L21.85,51.56L21.80,51.70L21.67,51.82L21.64,51.83L21.49,51.90L21.26,51.95L21.02,51.95L20.79,51.91L20.60,51.83"/><path style="stroke:#000000;stroke-width:0.088" d="M20.99,51.95L21.12,51.93L21.26,51.95L21.27,51.95"/><path style="stroke:#000000;stroke-width:0.088" d="M21.58,51.86L21.56,51.85L21.35,51.79L21.11,51.77L20.88,51.79L20.67,51.86"/><path style="stroke:#000000;stroke-width:0.088" d="M25.43,50.67L25.43,50.13L24.78,49.76"/><path style="stroke:#000000;stroke-width:0.088" d="M25.43,50.79L25.43,51.34"/><path style="stroke:#000000;stroke-width:0.088" d="M84.34,94.40L82.94,93.59L82.82,93.49L82.75,93.38L82.75,91.64L82.75,91.76L82.82,91.87L82.94,91.97L84.34,92.78L84.34,94.40L84.51,94.47L84.71,94.51L84.91,94.51L85.11,94.47L85.28,94.40L85.28,92.78L85.11,92.85L84.91,92.89L84.71,92.89L84.51,92.85L84.34,92.78"/><path style="stroke:#000000;stroke-width:0.088" d="M82.94,91.97L82.94,93.59"/><path style="stroke:#000000;stroke-width:0.088" d="M89.19,87.82L82.94,91.43L82.82,91.53L82.75,91.64"/><path style="stroke:#000000;stroke-width:0.088" d="M83.31,92.09L83.44,92.21L83.63,92.29L83.86,92.33L84.10,92.33L84.33,92.28L84.48,92.21L84.51,92.19L84.64,92.08L84.69,91.94L84.67,91.80L84.57,91.68L84.40,91.58L84.19,91.52L83.95,91.50L83.72,91.52L83.51,91.59L83.35,91.69L83.26,91.82L83.24,91.96L83.31,92.09"/><path style="stroke:#000000;stroke-width:0.088" d="M84.42,92.24L84.40,92.23L84.19,92.16L83.95,92.14L83.72,92.17L83.51,92.24"/><path style="stroke:#000000;stroke-width:0.088" d="M84.11,92.33L84.10,92.32L83.96,92.31L83.83,92.33"/><path style="stroke:#000000;stroke-width:0.088" d="M85.28,92.78L91.82,89.00L91.82,90.62L85.28,94.40"/><path style="stroke:#000000;stroke-width:0.088" d="M86.86,90.04L86.80,89.91L86.81,89.77L86.90,89.64L87.06,89.54L87.27,89.47L87.51,89.44L87.74,89.46L87.95,89.53L88.12,89.63L88.22,89.75L88.25,89.89L88.19,90.03L88.07,90.14L88.03,90.16L87.88,90.23L87.65,90.28L87.41,90.28L87.19,90.24L86.99,90.15L86.86,90.04"/><path style="stroke:#000000;stroke-width:0.088" d="M87.97,90.19L87.95,90.18L87.74,90.11L87.50,90.09L87.27,90.12L87.06,90.18"/><path style="stroke:#000000;stroke-width:0.088" d="M87.66,90.28L87.65,90.27L87.51,90.26L87.38,90.27"/><path style="stroke:#000000;stroke-width:0.088" d="M91.82,90.48L91.82,90.29"/><path style="stroke:#000000;stroke-width:0.088" d="M91.17,88.09L91.82,88.46L91.82,89.66"/><path style="stroke:#000000;stroke-width:0.088" d="M41.86,42.86L42.91,45.11L43.72,45.38L43.72,43.76L42.91,43.49L41.55,40.56L41.39,39.87L41.39,41.48L41.55,42.18L41.86,42.86"/><path style="stroke:#000000;stroke-width:0.088" d="M41.55,42.18L41.55,40.56"/><path style="stroke:#000000;stroke-width:0.088" d="M41.39,39.87L41.55,39.17L42.01,38.53L42.75,37.98L43.34,37.63"/><path style="stroke:#000000;stroke-width:0.088" d="M42.91,45.11L42.91,43.49"/><path style="stroke:#000000;stroke-width:0.088" d="M43.72,45.38L45.64,45.08L46.10,44.62L46.10,43.00L45.64,43.46L43.72,43.76"/><path style="stroke:#000000;stroke-width:0.088" d="M44.43,37.00L50.58,33.45L50.75,33.38L50.94,33.34L51.15,33.34L51.35,33.38L51.52,33.45L52.92,34.26L53.04,34.36L53.10,34.47L53.10,34.59L53.09,34.61L53.04,34.70L52.92,34.80L45.32,39.19"/><path style="stroke:#000000;stroke-width:0.088" d="M45.64,45.08L45.64,43.46"/><path style="stroke:#000000;stroke-width:0.088" d="M46.10,43.00L45.32,41.31"/><path style="stroke:#000000;stroke-width:0.088" d="M52.92,34.80L52.92,36.42L45.32,40.81"/><path style="stroke:#000000;stroke-width:0.088" d="M47.55,35.73L47.46,35.75L47.29,35.85L47.18,35.97L47.14,36.11L47.19,36.24L47.30,36.36L47.48,36.45L47.70,36.51L47.94,36.51L48.17,36.48L48.37,36.40L48.51,36.29L48.59,36.16L48.58,36.02L48.50,35.89L48.38,35.80L48.35,35.78L48.15,35.71L47.91,35.68L47.68,35.69L47.55,35.73"/><path style="stroke:#000000;stroke-width:0.088" d="M48.32,36.42L48.15,36.36L47.91,36.33L47.68,36.34L47.46,36.40L47.42,36.42"/><path style="stroke:#000000;stroke-width:0.088" d="M47.74,36.51L47.77,36.50L47.91,36.49L47.99,36.51"/><path style="stroke:#000000;stroke-width:0.088" d="M50.72,33.97L50.69,34.05L50.74,34.19L50.86,34.31L51.04,34.40L51.26,34.45L51.50,34.46L51.73,34.43L51.93,34.35L52.07,34.24L52.14,34.11L52.14,33.97L52.05,33.84L51.94,33.75L51.90,33.73L51.70,33.66L51.47,33.63L51.23,33.64L51.01,33.70L50.84,33.79L50.73,33.92L50.72,33.97"/><path style="stroke:#000000;stroke-width:0.088" d="M51.55,34.46L51.47,34.44L51.32,34.45L51.29,34.46"/><path style="stroke:#000000;stroke-width:0.088" d="M51.88,34.37L51.70,34.31L51.47,34.27L51.23,34.29L51.01,34.35L50.97,34.37"/><path style="stroke:#000000;stroke-width:0.088" d="M53.10,36.21L53.04,36.32L52.92,36.42"/><path style="stroke:#000000;stroke-width:0.088" d="M53.10,36.16L53.10,34.47"/><path style="stroke:#000000;stroke-width:0.088" d="M140.73,101.58L140.26,101.12L140.26,99.50L140.73,99.96L140.73,101.58L145.81,102.37L145.81,100.75L140.73,99.96"/><path style="stroke:#000000;stroke-width:0.088" d="M140.26,99.50L140.77,98.39L140.80,98.38"/><path style="stroke:#000000;stroke-width:0.088" d="M142.78,98.31L146.67,98.91L147.01,98.93L147.35,98.91L147.67,98.83L147.94,98.71L155.78,94.19L155.95,94.11L156.14,94.08L156.35,94.08L156.55,94.11L156.71,94.19L158.12,95.00L158.24,95.09L158.30,95.21L158.30,95.32L158.24,95.44L158.12,95.54L150.28,100.06L150.28,101.68L149.32,102.10L148.21,102.37L147.01,102.46L145.81,102.37"/><path style="stroke:#000000;stroke-width:0.088" d="M145.81,100.75L147.01,100.84L148.21,100.75L149.32,100.48L150.28,100.06"/><path style="stroke:#000000;stroke-width:0.088" d="M150.28,101.68L158.12,97.15L158.24,97.06L158.30,96.94L158.30,95.32"/><path style="stroke:#000000;stroke-width:0.088" d="M152.94,97.34L152.93,97.34L152.83,97.21L152.81,97.07L152.86,96.94L152.99,96.82L153.02,96.80L153.18,96.74L153.40,96.69L153.64,96.68L153.87,96.73L154.06,96.81L154.19,96.92L154.26,97.06L154.24,97.20L154.15,97.32L153.99,97.43L153.78,97.49L153.55,97.52L153.31,97.50L153.10,97.44L152.94,97.34"/><path style="stroke:#000000;stroke-width:0.088" d="M153.65,97.51L153.60,97.50L153.45,97.50L153.41,97.51"/><path style="stroke:#000000;stroke-width:0.088" d="M153.99,97.43L153.87,97.37L153.64,97.33L153.40,97.34L153.18,97.38L153.08,97.43"/><path style="stroke:#000000;stroke-width:0.088" d="M156.91,95.45L156.87,95.45L156.65,95.39L156.49,95.29L156.39,95.16L156.36,95.02L156.42,94.89L156.54,94.77L156.57,94.75L156.73,94.68L156.95,94.64L157.19,94.63L157.42,94.68L157.61,94.76L157.75,94.87L157.81,95.01L157.80,95.14L157.70,95.27L157.55,95.38L157.34,95.44L157.10,95.47L156.91,95.45"/><path style="stroke:#000000;stroke-width:0.088" d="M157.54,95.38L157.42,95.32L157.19,95.28L156.95,95.28L156.73,95.33L156.64,95.38"/><path style="stroke:#000000;stroke-width:0.088" d="M157.21,95.46L157.15,95.45L157.01,95.45L156.97,95.46"/><path style="stroke:#000000;stroke-width:0.088" d="M158.12,97.15L158.12,95.54"/><path style="fill:#ffffff" d="M171.92,83.46L198.33,83.46L198.33,77.81L171.92,77.81z"/><path style="stroke:#35414c;stroke-width:0.255" d="M171.92,83.46L198.33,83.46L198.33,77.81L171.92,77.81z"/><path style="stroke:#35404c;stroke-width:0.250;stroke-opacity:0.00" d="M171.92,83.46L198.33,83.46L198.33,77.81L171.92,77.81z"/><text xml:space="preserve" fill="#333f4b" stroke-width="0" x="172.62" y="81.87" font-size="3.56" opacity="1.00" font-family="Arial" font-weight="bold" font-style="italic">F24979198X</text><path style="fill:#ffffff" d="M171.92,73.42L198.33,73.42L198.33,67.77L171.92,67.77z"/><path style="stroke:#35414c;stroke-width:0.255" d="M171.92,73.42L198.33,73.42L198.33,67.77L171.92,67.77z"/><path style="stroke:#35404c;stroke-width:0.250;stroke-opacity:0.00" d="M171.92,73.42L198.33,73.42L198.33,67.77L171.92,67.77z"/><text xml:space="preserve" fill="#333f4b" stroke-width="0" x="172.62" y="71.83" font-size="3.56" opacity="1.00" font-family="Arial" font-weight="bold" font-style="italic">F24979197X</text><path style="fill:#ffffff" d="M171.92,93.49L198.33,93.49L198.33,87.85L171.92,87.85z"/><path style="stroke:#35414c;stroke-width:0.255" d="M171.92,93.49L198.33,93.49L198.33,87.85L171.92,87.85z"/><path style="stroke:#35404c;stroke-width:0.250;stroke-opacity:0.00" d="M171.92,93.49L198.33,93.49L198.33,87.85L171.92,87.85z"/><text xml:space="preserve" fill="#333f4b" stroke-width="0" x="172.62" y="91.91" font-size="3.49" opacity="1.00" font-family="Arial" font-weight="bold" font-style="italic">F24979199A</text><path style="fill:#ffffff" d="M171.92,63.38L198.33,63.38L198.33,57.74L171.92,57.74z"/><path style="stroke:#35414c;stroke-width:0.255" d="M171.92,63.38L198.33,63.38L198.33,57.74L171.92,57.74z"/><path style="stroke:#35404c;stroke-width:0.250;stroke-opacity:0.00" d="M171.92,63.38L198.33,63.38L198.33,57.74L171.92,57.74z"/><text xml:space="preserve" fill="#333f4b" stroke-width="0" x="172.62" y="61.79" font-size="3.56" opacity="1.00" font-family="Arial" font-weight="bold" font-style="italic">F24979196X</text><g id="paperID" visibility="hidden" opacity="0.00" transform="scale(0.000100)"><path style="stroke:#000000;stroke-width:0.500;fill:#e6e6e6;fill-rule:evenodd" d="M-2000.00,-2000.00L2210.00,-2000.00L2210.00,2150.00L-2000.00,2150.00zM0.00,0.00L210.00,0.00L210.00,150.00L0.00,150.00z"/><path style="fill:#000000;fill-opacity:0.118" d="M3.00,150.00L210.00,150.00L210.00,3.00L213.00,3.00L213.00,153.00L3.00,153.00z"/></g><g id="hotspot.0" onmouseover="ShowHotSpot(evt,'0')" onmouseout="HideHotSpot(evt,'0')" onmousemove="ShowToolTip(evt,'0',&quot;F24979196X&quot;)" opacity="0"><path style="fill:#00ff00;fill-rule:evenodd" d="M45.38,37.57L45.36,42.98L45.00,43.41L43.72,43.44L43.41,43.23L43.48,37.41L45.12,37.30zM24.77,44.96L24.76,50.38L24.39,50.81L23.15,50.81L22.89,50.54L22.88,44.80L24.51,44.70zM76.28,55.53L76.25,61.19L75.93,61.41L74.90,61.41L74.58,61.19L74.57,55.29L76.02,55.27zM198.59,58.17L198.57,63.33L198.29,63.83L171.86,63.76L171.86,58.01L198.32,57.91zM63.60,67.41L63.59,72.83L63.22,73.26L61.99,73.26L61.72,72.99L61.71,67.26L63.34,67.15zM111.68,75.87L111.58,81.72L110.06,81.71L109.80,81.45L109.76,75.95L109.98,75.64L111.42,75.61zM91.08,83.26L90.97,89.12L89.44,89.12L89.44,83.11L90.81,83.00zM142.84,94.11L142.83,99.25L142.47,99.67L141.20,99.71L140.88,99.49L140.95,93.67L142.55,93.60zM129.91,105.72L129.80,111.57L128.27,111.57L128.19,105.48L129.64,105.45z"/></g><g id="hotspot.1" onmouseover="ShowHotSpot(evt,'1')" onmouseout="HideHotSpot(evt,'1')" onmousemove="ShowToolTip(evt,'1',&quot;F24979197X&quot;)" opacity="0"><path style="fill:#00ff00;fill-rule:evenodd" d="M53.00,34.43L52.92,36.54L45.61,40.88L45.38,37.57L44.46,37.08L50.53,33.62L51.70,33.62zM46.15,43.13L46.17,44.85L45.27,45.27L42.97,45.26L41.63,42.63L41.63,39.25L42.35,38.40L43.25,37.86L43.41,43.23L43.72,43.44L45.00,43.41L45.35,42.98L45.59,42.08zM91.83,56.88L91.86,58.84L87.08,61.72L82.52,64.03L78.36,64.01L74.91,63.50L74.13,63.23L74.12,60.61L74.41,60.32L74.59,61.19L74.90,61.42L75.93,61.42L76.25,61.19L76.42,60.31L79.42,60.58L81.46,60.59L89.36,56.08L90.53,56.08zM198.59,68.21L198.57,73.36L198.29,73.87L171.86,73.80L171.86,68.05L198.32,67.94zM119.31,72.73L119.31,74.93L111.91,79.18L111.68,75.87L111.04,75.38L116.83,71.93L118.00,71.93zM112.44,81.44L112.46,83.14L111.84,83.58L109.27,83.56L107.93,80.67L107.94,77.82L108.72,76.77L109.21,76.38L109.53,76.40L109.80,81.45L110.06,81.71L111.58,81.72L111.90,80.11zM158.13,95.19L158.05,97.30L152.74,100.44L149.09,102.33L144.67,102.31L141.22,101.80L140.43,101.53L140.43,99.17L140.70,98.90L141.20,99.71L142.47,99.68L143.00,98.62L145.72,98.88L148.00,98.87L155.66,94.38L156.83,94.38z"/></g><g id="hotspot.2" onmouseover="ShowHotSpot(evt,'2')" onmouseout="HideHotSpot(evt,'2')" onmousemove="ShowToolTip(evt,'2',&quot;F24979198X&quot;)" opacity="0"><path style="fill:#00ff00;fill-rule:evenodd" d="M25.28,50.22L25.30,52.50L19.12,56.10L17.62,56.07L16.47,55.38L16.56,53.27L22.63,49.76L23.15,50.81L24.39,50.81L25.04,49.98zM64.11,72.68L64.09,74.92L57.96,78.56L56.45,78.53L55.30,77.83L55.38,75.72L61.47,72.22L61.98,73.26L63.22,73.26L63.87,72.44zM198.59,78.24L198.57,83.40L198.29,83.91L171.86,83.84L171.86,78.09L198.32,77.98zM91.83,88.58L91.83,90.78L85.66,94.38L84.16,94.40L82.85,93.60L82.86,91.57L89.21,88.06L89.44,89.12L90.97,89.11L91.32,88.29zM130.66,111.03L130.66,113.23L124.25,116.86L122.99,116.86L121.60,116.14L121.69,114.03L128.05,110.51L128.27,111.58L129.80,111.57L130.15,110.74z"/></g><g id="hotspot.3" onmouseover="ShowHotSpot(evt,'3')" onmouseout="HideHotSpot(evt,'3')" onmousemove="ShowToolTip(evt,'3',&quot;F24979199A&quot;)" opacity="0"><path style="fill:#00ff00;fill-rule:evenodd" d="M90.78,44.47L90.78,49.04L88.05,50.57L87.35,50.57L78.63,45.52L78.63,40.86L81.18,39.43L82.07,39.43zM157.37,83.01L157.37,87.11L154.63,88.87L153.64,88.86L144.93,83.82L144.84,79.34L147.48,77.73L148.37,77.73zM198.59,88.28L198.57,93.44L198.29,93.95L171.86,93.88L171.86,88.12L198.32,88.02z"/></g></g></svg>
