<?xml version="1.0" encoding="UTF-8" standalone="no"?>
<svg xmlns="http://www.w3.org/2000/svg" xmlns:xlink="http://www.w3.org/1999/xlink" width="210.000mm" height="150.000mm" viewBox="0.000000 0.000000 210.000000 150.000000" stroke-linejoin="round" stroke-linecap="round" fill="none" fill-rule="evenodd"><desc>Composer Export</desc><script type="text/ecmascript"><![CDATA[
if(typeof(top) != "undefined")
{
	top.ShowPaper = ShowPaper;
}
function ShowHotSpot(evt,hotspotid)
{
	var svgDocument = evt.target.ownerDocument;
	var strId = "hotspot."+hotspotid;
	var hotspot = svgDocument.getElementById(strId);
	if(hotspot)
		hotspot.setAttribute("opacity",".5");
}
function HideHotSpot(evt,hotspotid)
{
	var svgDocument = evt.target.ownerDocument;
	var strId = "hotspot."+hotspotid;
	var hotspot = svgDocument.getElementById(strId);
	if(hotspot)
		hotspot.setAttribute("opacity","0");

	var toolTip = svgDocument.getElementById('ToolTip');
	if(toolTip)
		toolTip.setAttribute("visibility","hidden");
}
function ShowToolTip(evt,hotspotid,strTooltip)
{
	if(strTooltip=="")
	return;

	// change text
	var svgDocument = evt.target.ownerDocument;
	var tiptext = svgDocument.getElementById('ToolTipText');
	if( !tiptext )
	return;
	tiptext.firstChild.nodeValue = " " + strTooltip + "  " ;

	// show tooltip before, else some refresh issue

	var toolTip = svgDocument.getElementById('ToolTip');
	if(!toolTip)
	return;

	toolTip.setAttribute("visibility","visible");
	toolTip.setAttribute("opacity",".95");

	// move tooltip
	// get viewbox

	var root = svgDocument.documentElement;
	var vbox = (root.getAttribute("viewBox")).split(' ');
	var x0 = parseFloat(vbox[0]);
	var y0 = parseFloat(vbox[1]);
	var vboxW = parseFloat(vbox[2]);
	var vboxH = parseFloat(vbox[3]);

	// get default width of svg

	var strW = root.getAttribute("width");
	var svgW = parseFloat(strW);
	if(strW.indexOf('mm') != -1)
	svgW *= 3.779;

	var strH = root.getAttribute("height");
	var svgH = parseFloat(strH);
	if(strH.indexOf('mm') != -1)
	svgH *= 3.779;  	// 96 dpi  -> 96/25.4 = 3.779

	// update the viewbox / width / height if svg is embedded in html with zoom fit all
	var realx0 = x0;
	var realy0 = y0;
	var realvboxW = vboxW;
	var realvboxH = vboxH;
	var realsvgW = svgW;
	var realsvgH = svgH;

	if ((typeof(top) == "undefined") || (typeof(top.svgctl1) != "undefined")) // embedded in html
	{
		// get window size in pxl

		svgW = window.innerWidth;
		svgH = window.innerHeight;

		// calculate real viewbox

		realsvgW = svgW;
		realsvgH = svgH;
		if((svgW / svgH) > (vboxW / vboxH))
		{
			realvboxW = (vboxH * svgW) / svgH;
			realvboxH = vboxH;
			realx0 = x0 - (realvboxW - vboxW)/2 ;
		}
		else
		{
			realvboxH = (vboxW * svgH) / svgW;
			realvboxW = vboxW;
			realy0 = y0 - (realvboxH - vboxH)/2 ;
		}
	}

	// get user zoom/pan

	var newScale = root.currentScale;
	var translation = root.currentTranslate;

	// transform pxl to user unit

	var xPos = (((evt.clientX+10- translation.x)/newScale) * realvboxW)/realsvgW  + realx0 ;
	var yPos = (((evt.clientY+5- translation.y)/newScale) * realvboxH)/ realsvgH  + realy0 ;
	var scaleForWidth = ( (1 / newScale) * realvboxH) / realsvgH;

	// move tooltip

	toolTip.setAttribute("transform", "translate(" + xPos + "," + yPos + ")" );

	// resize tooltip

	var fontsize = 12;
	tiptext.setAttribute("font-size",fontsize*scaleForWidth);
	tiptext.setAttribute("y", fontsize*scaleForWidth);
	var tipBG = svgDocument.getElementById('ToolTipBG');
	var outline = tiptext.getBBox();
	if(tipBG)
	{
		tipBG.setAttribute("stroke-width", 1*scaleForWidth);
		tipBG.setAttribute("width", Number(outline.width) );
		tipBG.setAttribute("height", Number(outline.height) + fontsize*.5*scaleForWidth );
	}
	var ToolTipShadow = svgDocument.getElementById('ToolTipShadow');
	if(ToolTipShadow)
	{
		ToolTipShadow.setAttribute("width", Number(outline.width) );
		ToolTipShadow.setAttribute("height", Number(outline.height) + fontsize*.5*scaleForWidth );
		ToolTipShadow.setAttribute("x", 3*scaleForWidth);
		ToolTipShadow.setAttribute("y", 3*scaleForWidth);
	}
}
function ShowPaper()
{
  var svgDocument = getDocument();
  var paper = svgDocument.getElementById("paperID");
  if(paper)
  {
    paper.setAttribute("transform","scale(1)");
    paper.setAttribute("opacity","1");
    paper.setAttribute("visibility","visible");
  }
  var svg = svgDocument.getRootElement();
  if(svg)
  {
    svg.setAttribute("width","220.000mm");
    svg.setAttribute("height","160.000mm");
    svg.setAttribute("viewBox","-5.000000 -5.000000 220.000000 160.000000");
  }
}
]]></script><defs/><g><path style="fill:#ffffff" d="M209.95,149.94L0.04,149.94L0.04,0.04L209.95,0.04z"/><path style="fill:#f9e9b9" d="M57.23,29.11L149.56,82.39L153.31,84.62L154.19,85.37L155.17,86.88L155.80,88.50L155.80,119.49L155.63,119.95L155.06,120.62L154.14,121.08L153.68,121.07L152.67,120.82L56.97,65.55L56.12,64.91L55.37,64.03L54.60,62.68L54.22,61.56L54.22,30.39L54.55,29.72L55.23,29.15L55.94,28.85z"/><path style="fill:#ffffff" d="M57.46,33.87L57.98,34.72L57.97,35.65L57.47,35.48L57.11,35.22L56.72,34.61L56.55,33.73L56.69,33.47L56.85,33.46z"/><path style="fill:#ffffff" d="M64.34,43.21L65.22,43.83L65.96,45.33L65.97,46.25L65.79,46.58L65.33,46.59L64.47,46.07L64.09,45.58L63.71,44.84L63.58,44.47L63.58,43.37L63.79,43.07z"/><path style="fill:#ffffff" d="M73.08,48.32L73.82,49.45L74.08,50.33L73.91,51.20L73.31,51.21L72.46,50.69L71.82,49.70L71.53,48.46L71.69,47.86L72.33,47.82z"/><path style="fill:#ffffff" d="M80.56,52.57L81.19,53.06L81.81,53.94L82.06,54.69L82.07,55.61L81.93,55.85L81.17,55.82L80.19,54.93L79.68,53.82L79.67,52.72L79.77,52.45L80.32,52.44z"/><path style="fill:#ffffff" d="M65.10,57.55L65.71,58.43L65.96,59.18L65.97,60.11L65.84,60.35L65.20,60.31L64.60,59.92L63.96,59.18L63.58,58.32L63.57,57.09L63.67,56.94L64.34,56.93z"/><path style="fill:#ffffff" d="M88.93,57.42L89.79,58.43L90.17,59.56L90.05,60.35L89.87,60.56L89.54,60.57L88.68,60.05L88.17,59.43L87.79,58.69L87.62,57.69L87.79,57.10L88.30,57.05z"/><path style="fill:#ffffff" d="M57.35,59.55L57.98,60.55L57.97,61.48L57.47,61.30L57.11,61.05L56.72,60.31L56.54,59.56L56.70,59.30L56.97,59.29z"/><path style="fill:#ffffff" d="M72.70,61.80L73.57,62.67L74.08,64.06L73.91,64.93L73.19,64.93L72.58,64.54L72.07,63.93L71.69,63.06L71.53,62.19L71.69,61.59L72.33,61.55z"/><path style="fill:#ffffff" d="M96.78,61.93L97.40,62.43L98.15,63.92L98.16,64.84L97.98,65.17L97.52,65.18L96.66,64.67L96.04,63.79L95.77,63.06L95.77,61.96L95.98,61.66z"/><path style="fill:#ffffff" d="M80.93,66.55L81.69,67.41L82.06,68.41L82.06,69.34L81.89,69.67L81.43,69.67L80.95,69.40L80.44,69.03L79.81,67.92L79.68,67.55L79.68,66.45L79.89,66.15L80.18,66.16z"/><path style="fill:#ffffff" d="M105.27,66.91L106.01,68.04L106.27,68.92L106.10,69.79L105.50,69.80L105.03,69.53L104.27,68.78L103.88,67.92L103.72,66.92L103.96,66.40L104.52,66.41z"/><path style="fill:#ffffff" d="M88.55,70.91L89.31,71.52L90.05,72.78L90.17,73.57L89.91,74.32L89.41,74.29L88.93,74.02L88.31,73.40L87.79,72.42L87.62,71.41L87.89,70.78z"/><path style="fill:#ffffff" d="M112.75,71.16L113.38,71.65L114.00,72.53L114.25,73.28L114.26,74.20L114.12,74.44L113.49,74.41L113.01,74.15L112.25,73.28L111.87,72.42L111.86,71.18L111.96,71.04L112.51,71.03z"/><path style="fill:#ffffff" d="M97.29,76.14L97.78,76.77L98.15,77.77L98.16,78.70L98.03,78.94L97.40,78.90L96.79,78.51L96.15,77.78L95.77,76.91L95.76,75.68L95.86,75.53L96.54,75.52z"/><path style="fill:#ffffff" d="M121.12,76.01L121.98,77.02L122.36,78.15L122.24,78.94L122.06,79.15L121.73,79.16L120.87,78.64L120.36,78.02L119.98,77.28L119.81,76.28L119.98,75.69L120.49,75.64z"/><path style="fill:#ffffff" d="M105.15,80.63L105.76,81.26L106.27,82.65L106.10,83.52L105.38,83.52L104.65,83.01L104.01,82.02L103.76,81.14L103.76,80.68L103.88,80.18L104.52,80.14z"/><path style="fill:#ffffff" d="M129.22,80.64L129.59,81.02L130.34,82.51L130.35,83.43L130.17,83.76L129.71,83.77L128.85,83.26L128.23,82.38L127.96,81.65L127.96,80.55L128.17,80.25z"/><path style="fill:#ffffff" d="M113.12,85.14L113.88,86.00L114.25,87.00L114.25,87.93L114.08,88.26L113.62,88.26L112.76,87.75L112.13,86.76L111.87,86.14L111.87,85.04L112.08,84.74L112.37,84.75z"/><path style="fill:#ffffff" d="M136.96,85.13L137.59,85.62L138.33,86.87L138.46,87.66L138.20,88.42L137.69,88.39L137.22,88.12L136.46,87.37L136.07,86.52L135.91,85.51L136.15,84.99L136.71,85.00z"/><path style="fill:#ffffff" d="M152.57,88.74L153.18,89.37L153.44,90.42L153.29,90.67L152.93,90.62L152.43,90.24L152.04,89.51L152.05,88.53L152.18,88.50z"/><path style="fill:#ffffff" d="M120.74,89.50L121.62,90.23L122.11,91.12L122.34,91.99L122.24,92.67L122.10,92.91L121.60,92.88L121.12,92.61L120.25,91.61L119.98,91.01L119.81,90.01L120.08,89.37z"/><path style="fill:#ffffff" d="M144.94,89.75L145.57,90.24L146.19,91.12L146.44,91.87L146.45,92.80L146.31,93.03L145.68,93.00L145.20,92.74L144.44,91.87L144.06,91.01L144.05,89.78L144.15,89.63L144.70,89.62z"/><path style="fill:#ffffff" d="M129.48,94.73L129.97,95.36L130.34,96.36L130.34,97.16L130.21,97.52L129.59,97.49L128.98,97.10L128.34,96.37L127.96,95.50L127.95,94.27L128.06,94.12L128.73,94.11z"/><path style="fill:#ffffff" d="M137.46,99.23L137.96,99.85L138.46,101.24L138.29,102.11L137.57,102.11L136.84,101.60L136.20,100.61L135.95,99.73L135.95,99.27L136.07,98.77L136.71,98.73z"/><path style="fill:#ffffff" d="M145.31,103.73L146.07,104.60L146.44,105.59L146.44,106.52L146.27,106.85L145.81,106.85L144.95,106.34L144.32,105.35L144.06,104.73L144.06,103.63L144.27,103.34L144.69,103.34z"/><path style="fill:#ffffff" d="M152.68,114.58L153.30,115.45L153.44,116.24L153.29,116.50L152.93,116.45L152.17,115.58L152.05,115.33L152.01,114.32L152.17,114.31z"/><path style="stroke:#000000;stroke-width:0.088" d="M54.98,29.32L55.59,29.13L56.31,29.20L57.08,29.53L57.53,29.27L56.76,28.94L56.04,28.87L55.42,29.06L54.98,29.32L54.50,29.76L54.32,30.16L54.21,30.41L54.10,31.25L54.10,60.50L54.21,61.45L54.50,62.45L54.98,63.44L55.59,64.34L56.31,65.10L57.08,65.66L152.47,120.73L153.24,121.06L153.96,121.13L154.57,120.94L155.02,120.68L155.49,120.24L155.79,119.59L155.89,118.75L155.89,89.50L155.45,89.76L155.44,119.02L155.34,119.84L155.05,120.50L154.57,120.94"/><path style="stroke:#000000;stroke-width:0.088" d="M57.95,61.49L57.78,61.68L57.53,61.75L57.22,61.69L56.90,61.50L56.61,61.20L56.36,60.82L56.19,60.41L56.17,60.33L56.12,60.01L56.15,59.66L56.28,59.41L56.51,59.27L56.79,59.27L57.11,59.39L57.42,59.64L57.70,59.99L57.91,60.38L58.03,60.79L58.05,61.17L57.95,61.49L57.67,61.43L57.35,61.24L57.05,60.94L56.81,60.56L56.64,60.15L56.56,59.75L56.60,59.41L56.67,59.27"/><path style="stroke:#000000;stroke-width:0.088" d="M57.95,35.68L58.05,35.36L58.03,34.98L57.91,34.57L57.70,34.17L57.42,33.83L57.11,33.58L56.79,33.45L56.51,33.46L56.28,33.59L56.15,33.85L56.12,34.13L56.12,34.24L56.19,34.60L56.36,35.01L56.61,35.38L56.90,35.68L57.22,35.88L57.53,35.94L57.78,35.87L57.95,35.68L57.67,35.62L57.35,35.43L57.05,35.13L56.81,34.75L56.64,34.34L56.56,33.94L56.60,33.59L56.67,33.45"/><path style="stroke:#000000;stroke-width:0.088" d="M57.08,29.53L152.47,84.59L153.24,85.16L153.96,85.92L154.57,86.82L155.05,87.81L155.34,88.81L155.45,89.76"/><path style="stroke:#000000;stroke-width:0.088" d="M57.53,29.27L152.91,84.34L152.47,84.59"/><path style="stroke:#000000;stroke-width:0.088" d="M65.80,60.42L65.48,60.66L65.37,60.67L65.05,60.69L64.57,60.52L64.08,60.16L63.65,59.65L63.31,59.04L63.10,58.41L63.05,57.82L63.16,57.33L63.42,57.00L63.80,56.86L64.26,56.93L64.75,57.20L65.22,57.64L65.37,57.86L65.61,58.21L65.89,58.84L66.02,59.46L65.99,60.01L65.80,60.42L65.50,60.43L65.01,60.26L64.53,59.90L64.09,59.39L63.75,58.78L63.55,58.15L63.50,57.56L63.61,57.07L63.76,56.87"/><path style="stroke:#000000;stroke-width:0.088" d="M65.80,46.65L65.99,46.24L66.02,45.69L65.89,45.07L65.61,44.44L65.22,43.88L64.75,43.43L64.26,43.16L63.80,43.09L63.42,43.23L63.16,43.56L63.05,44.05L63.10,44.64L63.16,44.84L63.31,45.27L63.65,45.88L64.08,46.39L64.57,46.75L65.05,46.93L65.37,46.90L65.48,46.89L65.80,46.65L65.50,46.67L65.01,46.49L64.53,46.13L64.09,45.62L63.75,45.02L63.55,44.38L63.50,43.79L63.61,43.30L63.76,43.11"/><path style="stroke:#000000;stroke-width:0.088" d="M73.85,65.07L73.52,65.30L73.10,65.34L72.62,65.17L72.13,64.80L71.69,64.29L71.35,63.69L71.32,63.59L71.15,63.06L71.10,62.46L71.21,61.97L71.47,61.64L71.85,61.51L72.31,61.58L72.80,61.85L73.27,62.29L73.54,62.69L73.66,62.86L73.94,63.48L74.07,64.10L74.04,64.65L73.85,65.07L73.54,65.08L73.06,64.91L72.58,64.55L72.14,64.03L71.80,63.43L71.59,62.80L71.54,62.20L71.65,61.72L71.81,61.52"/><path style="stroke:#000000;stroke-width:0.088" d="M71.91,50.77L71.69,50.53L71.35,49.92L71.15,49.29L71.09,48.80L71.10,48.70L71.21,48.21L71.47,47.88L71.85,47.74L72.31,47.81L72.80,48.08L73.27,48.52L73.66,49.09L73.94,49.73L74.07,50.34L74.04,50.89L73.85,51.30L73.52,51.54L73.10,51.57L72.62,51.40L72.13,51.04L71.91,50.77"/><path style="stroke:#000000;stroke-width:0.088" d="M73.85,51.30L73.54,51.31L73.06,51.14L72.58,50.78L72.14,50.27L71.80,49.66L71.59,49.03L71.54,48.44L71.65,47.95L71.81,47.75"/><path style="stroke:#000000;stroke-width:0.088" d="M81.90,69.71L81.57,69.95L81.15,69.99L80.66,69.81L80.18,69.45L79.74,68.94L79.40,68.33L79.26,67.90L79.20,67.70L79.14,67.11L79.25,66.62L79.51,66.29L79.89,66.15L80.36,66.22L80.85,66.49L81.31,66.94L81.71,67.51L81.98,68.13L82.11,68.75L82.08,69.30L81.90,69.71L81.59,69.73L81.11,69.55L80.89,69.39L80.62,69.19L80.19,68.68L79.85,68.08L79.64,67.44L79.59,66.85L79.70,66.36L79.86,66.17"/><path style="stroke:#000000;stroke-width:0.088" d="M81.90,55.95L81.57,56.18L81.15,56.22L80.66,56.04L80.18,55.68L79.74,55.17L79.40,54.57L79.20,53.93L79.14,53.34L79.25,52.85L79.51,52.52L79.89,52.39L80.36,52.46L80.85,52.73L81.31,53.17L81.71,53.75L81.98,54.36L82.11,54.98L82.08,55.53L81.90,55.95L81.59,55.96L81.11,55.79L80.89,55.63L80.64,55.43L80.19,54.91L79.85,54.31L79.64,53.68L79.59,53.08L79.70,52.60L79.86,52.40"/><path style="stroke:#000000;stroke-width:0.088" d="M89.94,74.36L89.62,74.60L89.19,74.63L88.71,74.46L88.23,74.10L87.79,73.59L87.45,72.98L87.31,72.55L87.24,72.35L87.19,71.75L87.30,71.27L87.56,70.94L87.94,70.80L88.40,70.87L88.89,71.14L89.36,71.58L89.75,72.15L90.03,72.78L90.16,73.40L90.13,73.95L89.94,74.36L89.64,74.37L89.16,74.20L88.67,73.84L88.24,73.33L87.90,72.72L87.69,72.09L87.64,71.50L87.75,71.01L87.90,70.81"/><path style="stroke:#000000;stroke-width:0.088" d="M89.94,60.59L89.62,60.83L89.19,60.86L88.71,60.69L88.23,60.33L87.79,59.82L87.45,59.21L87.28,58.70L87.24,58.58L87.19,57.99L87.30,57.50L87.56,57.17L87.94,57.03L88.40,57.10L88.89,57.37L89.36,57.82L89.41,57.88L89.75,58.38L90.03,59.01L90.16,59.63L90.13,60.18L89.94,60.59L89.64,60.61L89.16,60.43L88.67,60.07L88.24,59.56L87.90,58.96L87.69,58.32L87.64,57.73L87.75,57.24L87.90,57.05"/><path style="stroke:#000000;stroke-width:0.088" d="M97.99,79.01L97.67,79.24L97.24,79.28L96.76,79.10L96.27,78.74L95.84,78.23L95.50,77.63L95.44,77.45L95.29,76.99L95.24,76.40L95.35,75.91L95.43,75.81L95.60,75.59L95.99,75.44L96.45,75.52L96.94,75.79L97.41,76.23L97.69,76.63L97.80,76.79L98.08,77.42L98.21,78.04L98.18,78.59L97.99,79.01L97.69,79.02L97.21,78.85L96.72,78.49L96.28,77.97L95.94,77.37L95.74,76.74L95.69,76.14L95.80,75.65L95.95,75.46"/><path style="stroke:#000000;stroke-width:0.088" d="M97.99,65.24L97.67,65.48L97.24,65.51L96.76,65.34L96.27,64.98L95.84,64.46L95.50,63.86L95.41,63.59L95.29,63.23L95.24,62.63L95.35,62.15L95.60,61.82L95.99,61.68L96.45,61.75L96.94,62.02L97.41,62.46L97.80,63.03L98.08,63.65L98.21,64.28L98.18,64.82L97.99,65.24L97.69,65.25L97.21,65.08L96.72,64.72L96.28,64.21L95.94,63.60L95.74,62.97L95.69,62.38L95.80,61.89L95.95,61.69"/><path style="stroke:#000000;stroke-width:0.088" d="M106.04,83.65L105.71,83.89L105.29,83.92L104.81,83.75L104.32,83.39L103.88,82.88L103.55,82.27L103.34,81.64L103.29,81.05L103.40,80.56L103.66,80.23L104.04,80.09L104.50,80.16L104.99,80.43L105.46,80.88L105.85,81.44L106.13,82.07L106.26,82.69L106.23,83.24L106.04,83.65L105.74,83.67L105.25,83.49L104.77,83.13L104.33,82.62L103.99,82.02L103.79,81.38L103.73,80.79L103.84,80.30L104.00,80.11"/><path style="stroke:#000000;stroke-width:0.088" d="M103.55,68.51L103.34,67.87L103.28,67.38L103.29,67.28L103.40,66.79L103.66,66.46L104.04,66.32L104.50,66.39L104.99,66.67L105.46,67.11L105.85,67.67L106.13,68.30L106.26,68.92L106.24,69.29L106.23,69.48L106.04,69.89L105.71,70.12L105.29,70.16L104.81,69.98L104.32,69.62L103.88,69.11L103.55,68.51"/><path style="stroke:#000000;stroke-width:0.088" d="M104.00,66.34L103.84,66.53L103.73,67.02L103.79,67.62L103.99,68.25L104.33,68.85L104.77,69.36L105.25,69.73L105.74,69.90L106.04,69.89"/><path style="stroke:#000000;stroke-width:0.088" d="M111.77,87.23L111.93,87.52L112.38,88.04L112.85,88.40L113.34,88.57L113.76,88.54L114.09,88.30L114.27,87.88L114.31,87.34L114.28,87.23L114.17,86.72L113.90,86.09L113.50,85.52L113.04,85.08L112.55,84.81L112.09,84.74L111.95,84.79L111.71,84.88L111.45,85.21L111.33,85.69L111.39,86.29L111.59,86.92L111.77,87.23"/><path style="stroke:#000000;stroke-width:0.088" d="M114.09,88.30L113.78,88.31L113.30,88.14L112.82,87.78L112.38,87.27L112.04,86.66L111.83,86.03L111.78,85.44L111.89,84.95L112.05,84.75"/><path style="stroke:#000000;stroke-width:0.088" d="M114.09,74.53L113.76,74.77L113.58,74.78L113.34,74.80L112.85,74.63L112.37,74.27L111.93,73.76L111.59,73.15L111.40,72.55L111.33,71.93L111.45,71.44L111.71,71.11L112.09,70.97L112.55,71.04L113.04,71.31L113.50,71.75L113.58,71.86L113.90,72.32L114.17,72.95L114.31,73.57L114.27,74.12L114.09,74.53L113.78,74.55L113.30,74.37L113.05,74.18L112.82,74.01L112.38,73.50L112.04,72.90L111.83,72.26L111.78,71.67L111.89,71.18L112.05,70.98"/><path style="stroke:#000000;stroke-width:0.088" d="M122.14,92.95L121.81,93.18L121.38,93.22L120.90,93.04L120.42,92.68L119.98,92.17L119.64,91.57L119.43,90.93L119.38,90.34L119.49,89.85L119.75,89.52L120.13,89.38L120.59,89.45L121.08,89.73L121.55,90.17L121.95,90.73L122.22,91.36L122.35,91.98L122.32,92.53L122.14,92.95L121.83,92.96L121.35,92.79L120.86,92.42L120.43,91.91L120.09,91.31L119.88,90.68L119.83,90.08L119.94,89.59L120.09,89.40"/><path style="stroke:#000000;stroke-width:0.088" d="M122.14,79.18L121.81,79.42L121.38,79.45L120.90,79.28L120.42,78.92L119.98,78.40L119.64,77.80L119.52,77.45L119.43,77.17L119.38,76.57L119.49,76.09L119.71,75.81L119.75,75.75L120.13,75.62L120.59,75.69L121.08,75.96L121.55,76.40L121.71,76.63L121.95,76.97L122.22,77.59L122.35,78.22L122.32,78.76L122.14,79.18L121.83,79.19L121.35,79.02L120.86,78.66L120.43,78.15L120.09,77.54L119.88,76.91L119.83,76.32L119.94,75.83L120.09,75.63"/><path style="stroke:#000000;stroke-width:0.088" d="M127.46,95.38L127.43,94.99L127.54,94.50L127.80,94.17L128.18,94.03L128.29,94.05L128.64,94.10L129.13,94.37L129.60,94.81L129.99,95.38L130.27,96.01L130.40,96.63L130.38,97.01L130.37,97.18L130.18,97.59L129.86,97.83L129.43,97.86L128.95,97.69L128.46,97.33L128.03,96.82L127.69,96.21L127.48,95.58L127.46,95.38"/><path style="stroke:#000000;stroke-width:0.088" d="M130.18,83.83L129.86,84.06L129.43,84.10L128.95,83.92L128.46,83.56L128.03,83.05L127.69,82.45L127.65,82.34L127.48,81.81L127.43,81.22L127.54,80.73L127.80,80.40L128.18,80.26L128.64,80.33L129.13,80.60L129.60,81.05L129.93,81.52L129.99,81.61L130.27,82.24L130.40,82.86L130.37,83.41L130.18,83.83L129.88,83.84L129.40,83.67L128.91,83.30L128.47,82.79L128.14,82.19L127.93,81.55L127.88,80.96L127.99,80.47L128.14,80.28"/><path style="stroke:#000000;stroke-width:0.088" d="M130.18,97.59L129.88,97.61L129.40,97.43L128.91,97.07L128.47,96.56L128.14,95.95L127.93,95.32L127.88,94.73L127.99,94.24L128.14,94.04"/><path style="stroke:#000000;stroke-width:0.088" d="M138.23,102.24L137.91,102.48L137.48,102.51L137.00,102.34L136.51,101.98L136.08,101.46L135.74,100.86L135.64,100.57L135.53,100.23L135.48,99.63L135.59,99.15L135.64,99.08L135.85,98.81L136.23,98.68L136.69,98.75L137.18,99.02L137.65,99.46L138.04,100.03L138.32,100.65L138.45,101.28L138.42,101.82L138.23,102.24L137.93,102.25L137.44,102.08L137.21,101.90L136.96,101.72L136.52,101.21L136.18,100.60L135.98,99.97L135.93,99.38L136.04,98.89L136.19,98.69"/><path style="stroke:#000000;stroke-width:0.088" d="M138.23,88.47L137.91,88.71L137.48,88.74L137.00,88.57L136.51,88.21L136.08,87.70L135.74,87.09L135.64,86.80L135.53,86.46L135.48,85.87L135.59,85.38L135.64,85.31L135.85,85.05L136.23,84.91L136.69,84.98L137.18,85.25L137.65,85.69L138.04,86.26L138.32,86.89L138.45,87.51L138.42,88.06L138.23,88.47L137.93,88.48L137.44,88.31L137.08,88.04L136.96,87.95L136.52,87.44L136.18,86.83L135.98,86.20L135.93,85.61L136.04,85.12L136.19,84.92"/><path style="stroke:#000000;stroke-width:0.088" d="M146.28,106.89L145.95,107.12L145.53,107.16L145.05,106.98L144.56,106.62L144.12,106.11L143.78,105.51L143.67,105.16L143.58,104.87L143.53,104.28L143.64,103.79L143.81,103.57L143.90,103.46L144.28,103.32L144.74,103.39L145.23,103.66L145.70,104.11L146.09,104.67L146.37,105.30L146.50,105.92L146.47,106.47L146.28,106.89L145.97,106.90L145.49,106.73L145.01,106.36L144.57,105.85L144.23,105.25L144.02,104.61L143.97,104.02L144.08,103.53L144.24,103.34"/><path style="stroke:#000000;stroke-width:0.088" d="M146.28,93.12L146.47,92.70L146.50,92.15L146.37,91.53L146.09,90.91L145.70,90.34L145.23,89.90L144.74,89.63L144.28,89.56L143.90,89.69L143.81,89.80L143.64,90.02L143.53,90.51L143.58,91.11L143.64,91.30L143.78,91.74L144.12,92.34L144.56,92.85L145.05,93.22L145.53,93.39L145.95,93.36L146.28,93.12L145.97,93.13L145.49,92.96L145.01,92.60L144.57,92.09L144.23,91.48L144.02,90.85L143.97,90.25L144.08,89.77L144.24,89.57"/><path style="stroke:#000000;stroke-width:0.088" d="M153.34,116.56L153.16,116.75L152.91,116.82L152.60,116.76L152.29,116.57L151.99,116.27L151.74,115.89L151.57,115.48L151.50,115.08L151.53,114.73L151.67,114.48L151.89,114.34L152.17,114.33L152.49,114.46L152.80,114.71L153.08,115.05L153.29,115.45L153.41,115.86L153.43,116.24L153.34,116.56L153.05,116.50L152.73,116.31L152.43,116.01L152.19,115.63L152.02,115.22L151.95,114.82L151.98,114.48L152.05,114.34"/><path style="stroke:#000000;stroke-width:0.088" d="M153.34,90.74L153.16,90.93L152.91,91.01L152.60,90.94L152.29,90.75L151.99,90.45L151.74,90.08L151.57,89.67L151.50,89.27L151.53,88.92L151.67,88.66L151.89,88.53L152.17,88.52L152.49,88.65L152.80,88.90L153.08,89.24L153.29,89.64L153.41,90.05L153.43,90.43L153.34,90.74L153.05,90.69L152.73,90.49L152.43,90.19L152.19,89.82L152.02,89.41L151.95,89.01L151.98,88.66L152.05,88.52"/><path style="stroke:#000000;stroke-width:0.088" d="M152.91,84.34L153.68,84.90L154.40,85.66L155.02,86.56L155.49,87.55L155.79,88.55L155.89,89.50"/><path style="stroke:#000000;stroke-width:0.088" d="M155.89,118.75L155.44,119.02"/><path style="fill:#ffffff" d="M172.16,78.12L198.57,78.12L198.57,72.48L172.16,72.48z"/><path style="stroke:#35414c;stroke-width:0.255" d="M172.16,78.12L198.57,78.12L198.57,72.48L172.16,72.48z"/><path style="stroke:#35404c;stroke-width:0.250;stroke-opacity:0.00" d="M172.16,78.12L198.57,78.12L198.57,72.48L172.16,72.48z"/><text xml:space="preserve" fill="#333f4b" stroke-width="0" x="172.87" y="76.54" font-size="3.56" opacity="1.00" font-family="Arial" font-weight="bold" font-style="italic">F36994003V</text><g id="paperID" visibility="hidden" opacity="0.00" transform="scale(0.000100)"><path style="stroke:#000000;stroke-width:0.500;fill:#e6e6e6;fill-rule:evenodd" d="M-2000.00,-2000.00L2210.00,-2000.00L2210.00,2150.00L-2000.00,2150.00zM0.00,0.00L210.00,0.00L210.00,150.00L0.00,150.00z"/><path style="fill:#000000;fill-opacity:0.118" d="M3.00,150.00L210.00,150.00L210.00,3.00L213.00,3.00L213.00,153.00L3.00,153.00z"/></g><g id="hotspot.0" onmouseover="ShowHotSpot(evt,'0')" onmouseout="HideHotSpot(evt,'0')" onmousemove="ShowToolTip(evt,'0',&quot;F36994003V&quot;)" opacity="0"><path style="fill:#00ff00;fill-rule:evenodd" d="M57.29,29.27L153.06,84.60L154.86,86.39L155.88,89.21L155.88,119.26L155.38,120.55L154.25,121.25L153.58,121.24L152.07,120.68L56.79,65.63L54.97,63.60L54.20,61.30L54.19,30.89L54.88,29.53L56.24,29.01zM198.68,72.79L198.66,78.55L172.23,78.49L171.93,78.28L171.98,72.87L172.19,72.56L198.42,72.53zM57.58,34.10L58.07,35.18L57.98,35.69L57.52,35.73L56.78,34.91L56.77,33.61zM65.25,44.10L66.00,45.67L65.90,46.72L65.21,46.73L64.21,45.91L63.67,44.92L63.69,43.42L64.19,43.34zM72.68,48.20L73.94,49.75L73.92,51.41L73.14,51.33L72.15,50.52L71.60,49.27L71.58,48.29L71.81,47.96L72.39,47.94zM80.85,52.84L81.65,53.83L82.13,55.16L82.05,55.93L81.08,55.94L80.34,55.39L79.80,54.39L79.82,52.64L80.33,52.56zM89.08,57.67L90.07,59.23L90.06,60.63L89.04,60.52L88.01,59.25L87.74,58.75L87.74,57.49L88.02,57.20zM64.98,57.69L66.01,59.24L66.01,60.11L65.72,60.62L65.22,60.56L64.21,59.74L63.67,58.75L63.60,57.18L64.46,57.17zM57.58,59.98L58.07,61.05L57.97,61.57L57.56,61.56L56.75,60.55L56.68,59.48L57.01,59.45zM73.20,62.28L73.94,63.58L73.84,65.16L73.19,65.13L72.41,64.60L71.89,63.84L71.50,62.31L71.81,61.79L72.38,61.77zM98.01,63.58L98.00,65.24L96.98,65.13L95.93,63.87L95.86,62.05L96.73,62.04zM81.13,66.90L81.86,67.95L82.16,69.32L81.85,69.84L81.11,69.75L79.80,68.23L79.74,66.39L80.32,66.38zM105.43,67.18L106.20,68.72L106.11,70.03L104.93,69.73L104.13,68.73L103.88,67.97L103.80,66.65L104.67,66.65zM89.59,72.01L90.06,73.07L89.98,74.37L89.05,74.35L88.00,73.09L87.64,71.53L87.94,71.01L88.26,70.99zM113.40,71.75L114.15,73.06L114.13,74.72L113.09,74.36L112.07,73.09L111.78,71.60L112.01,71.28L112.59,71.25zM97.20,76.18L98.01,77.41L97.99,79.07L97.22,78.99L96.48,78.44L95.94,77.44L95.95,75.69L96.45,75.61zM121.59,76.63L122.34,78.20L122.24,79.25L121.55,79.25L120.56,78.43L120.01,77.44L120.03,75.95L120.53,75.86zM104.91,80.50L105.46,80.98L106.20,82.55L106.12,83.59L105.15,83.60L104.68,83.30L103.87,81.80L103.89,80.30zM129.03,80.72L130.28,82.28L130.26,83.94L129.48,83.85L128.50,83.04L127.94,81.79L127.92,80.81L128.15,80.49L128.73,80.46zM137.48,85.58L138.48,87.68L138.19,88.54L137.43,88.46L136.68,87.91L136.15,86.92L136.16,85.17L136.67,85.08zM113.66,85.84L114.14,86.90L114.14,88.29L113.11,88.18L112.07,86.92L111.78,85.43L112.00,85.11L112.86,85.09zM153.34,89.97L153.32,90.85L152.83,90.76L152.31,90.22L151.92,88.92L152.31,88.68zM145.42,90.19L146.41,91.75L146.40,93.15L145.38,93.04L144.35,91.77L144.08,91.27L144.08,90.01L144.36,89.72zM121.09,89.94L122.07,91.26L122.36,92.63L122.06,93.14L121.56,93.09L120.56,92.26L120.01,91.27L119.94,89.70L120.80,89.70zM129.26,94.57L130.28,96.11L130.18,97.69L129.49,97.69L128.75,97.13L127.94,95.62L127.92,94.64L128.15,94.32L128.72,94.30zM137.95,99.96L138.47,101.51L138.19,102.37L137.45,102.27L136.14,100.75L136.08,98.91L136.66,98.91zM145.93,104.54L146.41,105.59L146.32,106.90L145.39,106.88L144.34,105.61L144.08,104.85L144.10,103.61L144.61,103.52zM153.32,115.57L153.34,116.69L152.30,116.09L151.92,114.78L152.31,114.54z"/></g></g></svg>
