<?xml version="1.0" encoding="UTF-8" standalone="no"?>
<svg xmlns="http://www.w3.org/2000/svg" xmlns:xlink="http://www.w3.org/1999/xlink" width="210.000mm" height="150.000mm" viewBox="0.000000 0.000000 210.000000 150.000000" stroke-linejoin="round" stroke-linecap="round" fill="none" fill-rule="evenodd"><desc>Composer Export</desc><script type="text/ecmascript"><![CDATA[
if(typeof(top) != "undefined")
{
	top.ShowPaper = ShowPaper;
}
function ShowHotSpot(evt,hotspotid)
{
	var svgDocument = evt.target.ownerDocument;
	var strId = "hotspot."+hotspotid;
	var hotspot = svgDocument.getElementById(strId);
	if(hotspot)
		hotspot.setAttribute("opacity",".5");
}
function HideHotSpot(evt,hotspotid)
{
	var svgDocument = evt.target.ownerDocument;
	var strId = "hotspot."+hotspotid;
	var hotspot = svgDocument.getElementById(strId);
	if(hotspot)
		hotspot.setAttribute("opacity","0");

	var toolTip = svgDocument.getElementById('ToolTip');
	if(toolTip)
		toolTip.setAttribute("visibility","hidden");
}
function ShowToolTip(evt,hotspotid,strTooltip)
{
	if(strTooltip=="")
	return;

	// change text
	var svgDocument = evt.target.ownerDocument;
	var tiptext = svgDocument.getElementById('ToolTipText');
	if( !tiptext )
	return;
	tiptext.firstChild.nodeValue = " " + strTooltip + "  " ;

	// show tooltip before, else some refresh issue

	var toolTip = svgDocument.getElementById('ToolTip');
	if(!toolTip)
	return;

	toolTip.setAttribute("visibility","visible");
	toolTip.setAttribute("opacity",".95");

	// move tooltip
	// get viewbox

	var root = svgDocument.documentElement;
	var vbox = (root.getAttribute("viewBox")).split(' ');
	var x0 = parseFloat(vbox[0]);
	var y0 = parseFloat(vbox[1]);
	var vboxW = parseFloat(vbox[2]);
	var vboxH = parseFloat(vbox[3]);

	// get default width of svg

	var strW = root.getAttribute("width");
	var svgW = parseFloat(strW);
	if(strW.indexOf('mm') != -1)
	svgW *= 3.779;

	var strH = root.getAttribute("height");
	var svgH = parseFloat(strH);
	if(strH.indexOf('mm') != -1)
	svgH *= 3.779;  	// 96 dpi  -> 96/25.4 = 3.779

	// update the viewbox / width / height if svg is embedded in html with zoom fit all
	var realx0 = x0;
	var realy0 = y0;
	var realvboxW = vboxW;
	var realvboxH = vboxH;
	var realsvgW = svgW;
	var realsvgH = svgH;

	if ((typeof(top) == "undefined") || (typeof(top.svgctl1) != "undefined")) // embedded in html
	{
		// get window size in pxl

		svgW = window.innerWidth;
		svgH = window.innerHeight;

		// calculate real viewbox

		realsvgW = svgW;
		realsvgH = svgH;
		if((svgW / svgH) > (vboxW / vboxH))
		{
			realvboxW = (vboxH * svgW) / svgH;
			realvboxH = vboxH;
			realx0 = x0 - (realvboxW - vboxW)/2 ;
		}
		else
		{
			realvboxH = (vboxW * svgH) / svgW;
			realvboxW = vboxW;
			realy0 = y0 - (realvboxH - vboxH)/2 ;
		}
	}

	// get user zoom/pan

	var newScale = root.currentScale;
	var translation = root.currentTranslate;

	// transform pxl to user unit

	var xPos = (((evt.clientX+10- translation.x)/newScale) * realvboxW)/realsvgW  + realx0 ;
	var yPos = (((evt.clientY+5- translation.y)/newScale) * realvboxH)/ realsvgH  + realy0 ;
	var scaleForWidth = ( (1 / newScale) * realvboxH) / realsvgH;

	// move tooltip

	toolTip.setAttribute("transform", "translate(" + xPos + "," + yPos + ")" );

	// resize tooltip

	var fontsize = 12;
	tiptext.setAttribute("font-size",fontsize*scaleForWidth);
	tiptext.setAttribute("y", fontsize*scaleForWidth);
	var tipBG = svgDocument.getElementById('ToolTipBG');
	var outline = tiptext.getBBox();
	if(tipBG)
	{
		tipBG.setAttribute("stroke-width", 1*scaleForWidth);
		tipBG.setAttribute("width", Number(outline.width) );
		tipBG.setAttribute("height", Number(outline.height) + fontsize*.5*scaleForWidth );
	}
	var ToolTipShadow = svgDocument.getElementById('ToolTipShadow');
	if(ToolTipShadow)
	{
		ToolTipShadow.setAttribute("width", Number(outline.width) );
		ToolTipShadow.setAttribute("height", Number(outline.height) + fontsize*.5*scaleForWidth );
		ToolTipShadow.setAttribute("x", 3*scaleForWidth);
		ToolTipShadow.setAttribute("y", 3*scaleForWidth);
	}
}
function ShowPaper()
{
  var svgDocument = getDocument();
  var paper = svgDocument.getElementById("paperID");
  if(paper)
  {
    paper.setAttribute("transform","scale(1)");
    paper.setAttribute("opacity","1");
    paper.setAttribute("visibility","visible");
  }
  var svg = svgDocument.getRootElement();
  if(svg)
  {
    svg.setAttribute("width","220.000mm");
    svg.setAttribute("height","160.000mm");
    svg.setAttribute("viewBox","-5.000000 -5.000000 220.000000 160.000000");
  }
}
]]></script><defs/><g><path style="fill:#ffffff" d="M209.95,149.95L0.03,149.95L0.03,0.03L209.95,0.03z"/><path style="fill:#898989" d="M116.79,79.60L117.74,80.53L118.75,82.23L119.10,82.19L119.56,81.94L120.78,81.83L121.47,82.06L122.53,82.77L122.94,83.19L123.24,83.58L123.94,84.64L124.47,86.24L124.52,87.61L124.30,88.67L123.78,89.32L122.49,90.03L122.52,91.56L123.00,93.55L122.89,94.65L122.31,95.36L118.43,97.34L117.57,97.66L116.78,97.54L114.91,96.36L114.33,96.12L113.23,96.12L112.30,96.60L111.63,96.59L110.47,95.53L109.88,94.71L109.64,93.43L109.05,91.09L108.23,89.57L107.06,87.81L106.90,86.64L107.06,85.27L109.98,83.74L110.45,82.10L110.89,81.59L115.34,79.36L116.09,79.37z"/><path style="fill:#8aa7bf" d="M142.93,48.54L143.98,49.13L144.57,49.83L145.26,51.13L145.50,52.07L145.50,54.10L145.13,55.15L145.14,55.46L151.95,59.44L151.60,66.41L151.47,66.63L148.98,67.89L148.54,67.89L132.50,58.62L131.33,57.57L130.50,56.28L130.26,55.82L129.91,54.53L129.91,52.92L130.02,52.33L130.62,51.53L133.89,49.76L134.91,49.49L141.59,48.44z"/><path style="fill:#01ff02" d="M145.26,60.85L145.75,61.42L146.08,62.26L146.09,62.89L145.97,63.13L145.58,63.33L145.02,63.20L144.57,62.84L144.20,62.15L144.20,61.00L144.39,60.73L145.03,60.73z"/><path style="fill:#01ff02" d="M128.27,81.13L128.87,81.70L129.21,82.41L129.33,83.27L129.10,83.87L124.47,86.24L123.94,84.64L123.24,83.58L122.94,83.19L127.29,81.00L128.04,81.00z"/><path style="fill:#8aa7bf" d="M116.09,57.33L116.67,57.58L132.84,66.93L132.37,74.13L130.58,75.05L130.26,75.05L127.65,73.55L127.77,69.99L127.57,68.82L127.44,68.57L127.30,68.57L127.22,70.62L127.11,71.10L125.42,72.00L124.99,72.00L115.62,66.59L115.22,66.59L47.55,100.16L46.48,101.09L36.18,110.24L35.18,110.88L31.33,112.18L30.42,112.18L29.72,111.95L28.91,111.35L28.43,110.77L28.07,110.20L27.96,109.72L27.96,108.46L30.02,104.31L41.32,94.29L42.28,93.48L44.02,92.41L103.90,62.77L114.80,57.38L115.15,57.23z"/><path style="fill:#0000ff" d="M112.92,88.51L113.28,88.85L113.74,89.45L114.09,90.38L114.10,91.13L113.72,91.69L112.91,91.68L112.11,90.96L111.74,90.27L111.63,89.80L111.63,89.13L111.94,88.50L112.18,88.38L112.57,88.39z"/><path style="stroke:#000000;stroke-width:0.088" d="M28.60,110.97L28.56,110.93L28.10,110.16L27.88,109.35L27.91,108.59L28.19,107.94L29.89,104.41L30.68,103.72L31.30,103.53L31.74,103.41L32.92,103.51L34.13,104.01L35.23,104.86L36.10,105.98L36.45,106.79L36.63,107.21L36.78,108.46L36.53,109.57L35.91,110.42L34.98,110.93L31.46,112.14L30.73,112.21L29.95,112.01L29.20,111.57L28.60,110.97"/><path style="stroke:#000000;stroke-width:0.088" d="M28.19,107.94L28.70,107.50L29.37,107.30L30.14,107.36L30.91,107.69L31.62,108.24L32.18,108.95L32.52,109.75L32.62,110.59L32.46,111.26L32.06,111.81L31.46,112.14"/><path style="stroke:#000000;stroke-width:0.088" d="M30.23,104.11L40.92,94.57L42.09,93.57L43.15,93.28L44.35,93.40L44.65,93.49L45.55,93.92L46.64,94.79L47.49,95.91L48.01,97.16L48.14,98.40L47.87,99.50L47.23,100.34L35.91,110.42"/><path style="stroke:#000000;stroke-width:0.088" d="M42.09,93.57L43.45,92.67L44.32,92.50L45.31,92.77L45.56,92.90L46.29,93.44L47.17,94.44L47.86,95.67L48.27,96.98L48.34,97.83L48.37,98.25L48.13,99.32L47.60,100.09L116.34,66.02L117.02,65.46L117.43,64.54L117.52,63.37L117.28,62.06L116.74,60.77L115.96,59.63L115.02,58.76L114.71,58.56L130.83,67.86L130.41,75.07L132.42,74.07L132.84,66.87L130.83,67.86"/><path style="stroke:#000000;stroke-width:0.088" d="M114.71,58.56L116.72,57.56L116.03,57.26L115.09,57.18L114.30,57.53L43.45,92.67"/><path style="stroke:#000000;stroke-width:0.088" d="M47.23,100.34L47.60,100.09"/><path style="stroke:#000000;stroke-width:0.088" d="M127.34,68.35L127.18,71.05L125.17,72.05L115.47,66.45"/><path style="stroke:#000000;stroke-width:0.088" d="M116.72,57.56L132.84,66.87"/><path style="stroke:#000000;stroke-width:0.088" d="M125.17,72.05L125.38,68.44L126.75,67.76"/><path style="stroke:#000000;stroke-width:0.088" d="M125.38,68.44L125.47,68.03L125.66,67.73L125.95,67.56L126.30,67.55L126.67,67.70L127.04,67.99L127.37,68.38L127.62,68.86L127.77,69.36L127.80,69.84L127.59,73.44L130.41,75.07"/><path style="stroke:#000000;stroke-width:0.088" d="M109.86,94.58L109.73,94.16L109.65,93.66L109.64,93.41L109.49,92.41L109.06,91.07L108.42,89.77L107.78,88.84L107.60,88.62L107.29,88.16L107.08,87.76L107.00,87.54L106.93,86.93L106.94,86.19L107.05,85.28L107.24,85.08L107.47,84.99L107.81,85.00L108.00,85.04L108.67,85.06L109.42,84.65L109.91,83.97L110.25,82.85L110.30,82.58L110.44,82.11L110.61,81.81L111.67,81.87L112.79,82.21L112.93,82.43L113.26,83.13L113.35,83.43L113.81,84.49L114.65,85.60L115.69,86.35L116.61,86.64L116.85,86.68L117.31,86.81L117.66,87.02L118.34,88.45L118.85,89.94L118.72,90.29L118.46,90.64L118.30,90.80L117.80,91.49L117.52,92.61L117.65,93.90L118.06,94.97L118.19,95.25L118.40,95.78L118.48,96.18L117.84,97.01L117.04,97.59L116.68,97.44L116.23,97.15L116.00,96.96L115.13,96.39L114.06,95.99L113.16,96.01L112.60,96.33L112.48,96.45L112.35,96.55L111.95,96.64L111.82,96.62L111.52,96.44L110.88,95.86L110.14,95.06L109.86,94.58L110.86,95.71L111.95,96.64"/><path style="stroke:#000000;stroke-width:0.088" d="M107.08,87.76L107.05,86.36L107.24,85.08L109.98,83.73"/><path style="stroke:#000000;stroke-width:0.088" d="M107.81,85.00L109.91,83.96"/><path style="stroke:#000000;stroke-width:0.088" d="M109.76,84.16L108.00,85.04"/><path style="stroke:#000000;stroke-width:0.088" d="M110.96,91.30L110.97,91.33L111.59,92.19L112.32,92.82L113.09,93.17L113.80,93.18L114.27,92.94L114.39,92.87L114.79,92.26L114.95,91.42L114.86,90.45L114.53,89.44L113.99,88.50L113.58,88.05L113.30,87.75L112.79,87.38L112.55,87.25L111.79,87.07L111.13,87.22L110.63,87.69L110.35,88.42L110.31,89.34L110.53,90.35L110.96,91.30"/><path style="stroke:#000000;stroke-width:0.088" d="M111.13,89.81L111.08,89.52L111.12,88.92L111.33,88.45L111.68,88.17L112.13,88.10L112.64,88.25L112.73,88.30L113.14,88.60L113.59,89.12L113.93,89.76L114.13,90.43L114.17,91.08L114.04,91.62L113.76,92.00L113.35,92.18L112.87,92.14L112.36,91.89L111.88,91.44L111.47,90.86L111.20,90.19L111.13,89.81"/><path style="stroke:#000000;stroke-width:0.088" d="M110.61,81.81L110.72,81.68L111.13,81.40L111.67,81.24L111.81,81.21L111.76,81.22"/><path style="stroke:#000000;stroke-width:0.088" d="M113.16,88.62L112.89,88.44L112.47,88.31L112.10,88.37L111.81,88.61L111.63,89.00L111.59,89.50L111.69,90.06L111.92,90.61L112.26,91.10L112.66,91.47L112.79,91.55L113.08,91.68L113.49,91.71L113.83,91.56L114.06,91.24L114.16,90.85"/><path style="stroke:#000000;stroke-width:0.088" d="M111.13,81.40L115.50,79.27L115.34,79.32L115.34,79.32"/><path style="stroke:#000000;stroke-width:0.088" d="M111.67,81.24L111.84,81.21L111.86,81.20L115.73,79.28L115.74,79.27L115.73,79.26L116.00,79.32L112.12,81.25L111.86,81.20"/><path style="stroke:#000000;stroke-width:0.088" d="M112.48,96.45L113.37,96.01"/><path style="stroke:#000000;stroke-width:0.088" d="M113.25,96.01L112.60,96.33"/><path style="stroke:#000000;stroke-width:0.088" d="M112.35,96.55L113.43,96.00"/><path style="stroke:#000000;stroke-width:0.088" d="M112.12,81.25L112.11,81.26L112.10,81.27L112.12,81.30L112.50,81.81L112.79,82.21"/><path style="stroke:#000000;stroke-width:0.088" d="M113.35,83.43L118.14,81.04L118.68,82.07L119.56,83.16L120.56,83.93L121.40,84.26L116.61,86.64"/><path style="stroke:#000000;stroke-width:0.088" d="M113.26,83.13L117.98,80.79L118.14,81.04"/><path style="stroke:#000000;stroke-width:0.088" d="M114.11,79.95L115.34,79.32"/><path style="stroke:#000000;stroke-width:0.088" d="M114.67,79.68L115.42,79.30"/><path style="stroke:#000000;stroke-width:0.088" d="M115.73,79.26L115.61,79.23L115.50,79.27"/><path style="stroke:#000000;stroke-width:0.088" d="M115.62,79.24L116.32,79.36L116.06,79.32L116.00,79.32"/><path style="stroke:#000000;stroke-width:0.088" d="M115.73,79.28L115.98,79.33"/><path style="stroke:#000000;stroke-width:0.088" d="M115.71,79.26L115.71,79.26"/><path style="stroke:#000000;stroke-width:0.088" d="M116.85,86.68L121.57,84.33L121.40,84.26"/><path style="stroke:#000000;stroke-width:0.088" d="M116.32,79.36L116.81,79.57L116.86,79.60L117.12,79.80L117.62,80.31L117.98,80.79"/><path style="stroke:#000000;stroke-width:0.088" d="M117.04,97.59L117.50,97.63L118.12,97.46L118.31,97.36L118.42,97.29L118.51,97.21L118.59,97.13L118.57,97.13L118.57,97.13L118.56,97.09L118.56,96.79L118.48,96.18"/><path style="stroke:#000000;stroke-width:0.088" d="M117.66,87.02L117.83,87.14L118.32,87.50L118.80,87.90L118.91,87.99L118.94,88.01L118.96,88.00L119.03,88.18L119.10,88.35L119.09,88.36L119.08,88.39L119.07,88.47L119.05,88.70L118.96,89.44L118.85,89.94"/><path style="stroke:#000000;stroke-width:0.088" d="M118.12,97.46L121.75,95.65L121.73,95.66"/><path style="stroke:#000000;stroke-width:0.088" d="M118.42,97.29L122.30,95.37L122.29,95.38L122.40,95.27"/><path style="stroke:#000000;stroke-width:0.088" d="M118.06,94.97L122.85,92.59L122.92,92.90L118.19,95.25"/><path style="stroke:#000000;stroke-width:0.088" d="M118.30,90.80L123.10,88.41L123.18,88.30L118.46,90.64"/><path style="stroke:#000000;stroke-width:0.088" d="M122.29,95.37L122.46,95.21L118.59,97.13"/><path style="stroke:#000000;stroke-width:0.088" d="M119.10,88.35L122.98,86.43L122.99,86.43L123.03,86.47L123.16,86.69L123.34,87.17L123.34,87.22L123.37,87.50L123.32,88.01L123.18,88.30"/><path style="stroke:#000000;stroke-width:0.088" d="M118.96,88.00L122.84,86.08L122.84,86.06L122.84,86.03L122.77,85.72L122.51,85.19L122.32,84.94L121.90,84.53L121.57,84.33"/><path style="stroke:#000000;stroke-width:0.088" d="M122.47,89.99L123.72,89.36L124.28,88.61L124.53,87.55L124.46,86.41L124.45,86.30L124.06,84.98L123.39,83.74L122.66,82.89L122.52,82.72L121.72,82.13L121.53,82.03L120.55,81.73L119.67,81.87L118.85,82.28"/><path style="stroke:#000000;stroke-width:0.088" d="M122.29,95.38L122.21,95.43L121.75,95.65L122.28,95.38L122.10,95.47"/><path style="stroke:#000000;stroke-width:0.088" d="M122.30,95.37L122.51,95.17L122.46,95.21"/><path style="stroke:#000000;stroke-width:0.088" d="M122.51,95.17L122.69,94.96L122.92,94.48L122.98,94.18L123.00,93.49L122.92,92.90"/><path style="stroke:#000000;stroke-width:0.088" d="M122.85,92.59L122.52,91.48L122.43,90.17L122.67,89.07L123.10,88.41"/><path style="stroke:#000000;stroke-width:0.088" d="M122.52,82.72L122.68,82.84L123.48,83.78L124.10,84.92L124.46,86.13L124.53,87.29L124.53,87.55"/><path style="stroke:#000000;stroke-width:0.088" d="M123.16,86.69L122.77,85.72"/><path style="stroke:#000000;stroke-width:0.088" d="M122.97,86.43L122.83,86.08"/><path style="stroke:#000000;stroke-width:0.088" d="M128.24,81.03L128.40,81.15L128.73,81.42L129.01,81.79L129.22,82.22L129.32,82.67L129.32,82.81L129.20,82.29L128.96,81.78L128.63,81.34L128.24,81.03L128.21,81.01L127.84,80.86L127.48,80.87L122.92,83.12"/><path style="stroke:#000000;stroke-width:0.088" d="M129.32,82.81L129.32,83.30L129.18,83.69L128.93,83.95L124.46,86.16"/><path style="stroke:#000000;stroke-width:0.088" d="M129.86,53.80L129.91,54.51L130.28,55.76L130.90,56.94L131.71,57.94L132.64,58.66L148.76,67.97L149.18,60.76L133.06,51.45L132.11,51.09L131.24,51.11L130.53,51.52L130.04,52.28L129.83,53.31L129.86,53.80"/><path style="stroke:#000000;stroke-width:0.088" d="M131.24,51.11L134.06,49.72L134.93,49.69L135.87,50.05L133.06,51.45"/><path style="stroke:#000000;stroke-width:0.088" d="M132.16,55.62L131.96,55.20L131.85,54.76L131.85,54.35L131.96,54.02L132.17,53.80L132.37,53.74L132.45,53.72L132.77,53.78L132.92,53.85L133.10,53.98L133.19,54.07L133.41,54.30L133.65,54.70L133.81,55.13L133.86,55.56L133.80,55.93L133.64,56.21L133.39,56.36L133.09,56.38L132.76,56.24L132.44,55.98L132.16,55.62"/><path style="stroke:#000000;stroke-width:0.088" d="M149.18,60.76L151.99,59.36L136.71,50.53L136.40,50.26L135.40,49.68L134.44,49.53L133.60,49.82L133.32,50.08"/><path style="stroke:#000000;stroke-width:0.088" d="M145.03,55.34L145.09,55.26L145.51,54.04L145.61,52.66L145.36,51.28L144.79,50.04L144.63,49.86L143.96,49.07L142.97,48.49L141.91,48.35L134.44,49.53"/><path style="stroke:#000000;stroke-width:0.088" d="M135.87,50.05L136.71,50.53"/><path style="stroke:#000000;stroke-width:0.088" d="M143.77,61.14L143.73,61.31L143.76,61.81L143.92,62.34L144.19,62.83L144.54,63.24L144.85,63.48L144.93,63.52L145.32,63.63L145.68,63.58L145.95,63.35L146.11,62.99L146.15,62.52L146.05,62.00L145.84,61.48L145.52,61.02L145.15,60.67L144.75,60.47L144.37,60.44L144.05,60.58L143.83,60.88L143.77,61.14"/><path style="stroke:#000000;stroke-width:0.088" d="M145.24,60.76L144.96,60.62L144.64,60.59L144.37,60.71L144.18,60.97L144.09,61.33L144.12,61.75L144.25,62.20L144.48,62.62L144.78,62.97L145.11,63.20L145.45,63.30L145.75,63.26L145.98,63.07L146.12,62.76L146.14,62.56"/><path style="stroke:#000000;stroke-width:0.088" d="M148.76,67.97L151.57,66.57L151.99,59.36"/><path style="fill:#ffffff" d="M172.17,77.15L198.58,77.15L198.58,71.51L172.17,71.51z"/><path style="stroke:#35414c;stroke-width:0.255" d="M172.17,77.15L198.58,77.15L198.58,71.51L172.17,71.51z"/><path style="stroke:#35404c;stroke-width:0.250;stroke-opacity:0.00" d="M172.17,77.15L198.58,77.15L198.58,71.51L172.17,71.51z"/><text xml:space="preserve" fill="#333f4b" stroke-width="0" x="172.88" y="75.56" font-size="3.51" opacity="1.00" font-family="Arial" font-weight="bold" font-style="italic">V25972955X</text><path style="fill:#ffffff" d="M172.17,87.28L198.58,87.28L198.58,81.63L172.17,81.63z"/><path style="stroke:#35414c;stroke-width:0.255" d="M172.17,87.28L198.58,87.28L198.58,81.63L172.17,81.63z"/><path style="stroke:#35404c;stroke-width:0.250;stroke-opacity:0.00" d="M172.17,87.28L198.58,87.28L198.58,81.63L172.17,81.63z"/><text xml:space="preserve" fill="#333f4b" stroke-width="0" x="172.88" y="85.69" font-size="3.40" opacity="1.00" font-family="Arial" font-weight="bold" font-style="italic">VM1058</text><path style="fill:#ffffff" d="M172.17,67.21L198.58,67.21L198.58,61.57L172.17,61.57z"/><path style="stroke:#35414c;stroke-width:0.255" d="M172.17,67.21L198.58,67.21L198.58,61.57L172.17,61.57z"/><path style="stroke:#35404c;stroke-width:0.250;stroke-opacity:0.00" d="M172.17,67.21L198.58,67.21L198.58,61.57L172.17,61.57z"/><text xml:space="preserve" fill="#333f4b" stroke-width="0" x="172.88" y="65.63" font-size="3.51" opacity="1.00" font-family="Arial" font-weight="bold" font-style="italic">V25641464X</text><g id="paperID" visibility="hidden" opacity="0.00" transform="scale(0.000100)"><path style="stroke:#000000;stroke-width:0.500;fill:#e6e6e6;fill-rule:evenodd" d="M-2000.00,-2000.00L2210.00,-2000.00L2210.00,2150.00L-2000.00,2150.00zM0.00,0.00L210.00,0.00L210.00,150.00L0.00,150.00z"/><path style="fill:#000000;fill-opacity:0.118" d="M3.00,150.00L210.00,150.00L210.00,3.00L213.00,3.00L213.00,153.00L3.00,153.00z"/></g><g id="hotspot.0" onmouseover="ShowHotSpot(evt,'0')" onmouseout="HideHotSpot(evt,'0')" onmousemove="ShowToolTip(evt,'0',&quot;V25641464X&quot;)" opacity="0"><path style="fill:#00ff00;fill-rule:evenodd" d="M116.75,57.63L131.94,66.44L132.70,66.99L132.50,73.25L132.31,74.19L130.81,74.94L130.25,75.08L127.62,73.55L127.82,69.82L127.43,68.68L127.06,71.18L125.56,71.94L124.99,72.09L115.63,66.61L115.37,66.61L47.56,100.25L46.44,101.19L36.98,109.55L35.56,110.75L31.58,112.20L30.30,112.20L29.39,111.80L28.25,110.50L28.05,110.13L28.05,108.30L30.03,104.28L31.27,103.27L40.81,94.81L42.33,93.52L44.69,92.13L114.62,57.43L116.19,57.43zM198.86,61.95L198.87,67.25L198.65,67.40L172.05,67.39L172.04,61.79L172.19,61.56L198.49,61.58z"/></g><g id="hotspot.1" onmouseover="ShowHotSpot(evt,'1')" onmouseout="HideHotSpot(evt,'1')" onmousemove="ShowToolTip(evt,'1',&quot;V25972955X&quot;)" opacity="0"><path style="fill:#00ff00;fill-rule:evenodd" d="M143.01,48.62L144.14,49.36L145.25,51.07L145.61,52.74L145.44,54.32L145.23,54.87L145.25,55.56L152.03,59.49L151.64,66.33L151.43,66.68L149.18,67.82L148.62,67.96L132.33,58.55L131.01,57.24L130.24,55.76L129.81,53.32L130.07,52.26L130.56,51.62L133.99,49.80L134.68,49.56L142.05,48.43zM198.86,71.89L198.87,77.19L198.65,77.34L172.05,77.32L172.04,71.72L172.19,71.50L198.49,71.51z"/></g><g id="hotspot.2" onmouseover="ShowHotSpot(evt,'2')" onmouseout="HideHotSpot(evt,'2')" onmousemove="ShowToolTip(evt,'2',&quot;VM1058&quot;)" opacity="0"><path style="fill:#00ff00;fill-rule:evenodd" d="M116.94,79.75L117.71,80.48L118.76,82.26L119.32,82.20L120.52,81.83L121.62,82.19L122.76,83.13L123.06,83.15L127.18,81.05L128.20,81.05L128.58,81.42L129.32,82.55L129.32,83.38L128.97,83.97L124.63,86.19L124.39,88.20L123.80,89.30L122.50,90.06L122.55,91.76L122.94,93.06L122.95,94.63L122.40,95.40L118.01,97.57L116.73,97.58L115.06,96.44L113.69,96.05L112.38,96.64L111.68,96.64L110.20,95.30L109.80,94.57L109.24,91.76L108.15,89.48L107.18,88.00L106.99,87.45L106.99,85.99L107.28,85.15L110.01,83.76L110.56,82.06L110.87,81.62L115.37,79.36L116.00,79.37zM198.86,82.01L198.87,87.31L198.65,87.46L172.05,87.45L172.04,81.85L172.19,81.63L198.49,81.64z"/></g></g></svg>
