<?xml version="1.0" encoding="UTF-8" standalone="no"?>
<svg xmlns="http://www.w3.org/2000/svg" xmlns:xlink="http://www.w3.org/1999/xlink" width="210.000mm" height="150.000mm" viewBox="0.000000 0.000000 210.000000 150.000000" stroke-linejoin="round" stroke-linecap="round" fill="none" fill-rule="evenodd"><desc>Composer Export</desc><script type="text/ecmascript"><![CDATA[
if(typeof(top) != "undefined")
{
	top.ShowPaper = ShowPaper;
}
function ShowHotSpot(evt,hotspotid)
{
	var svgDocument = evt.target.ownerDocument;
	var strId = "hotspot."+hotspotid;
	var hotspot = svgDocument.getElementById(strId);
	if(hotspot)
		hotspot.setAttribute("opacity",".5");
}
function HideHotSpot(evt,hotspotid)
{
	var svgDocument = evt.target.ownerDocument;
	var strId = "hotspot."+hotspotid;
	var hotspot = svgDocument.getElementById(strId);
	if(hotspot)
		hotspot.setAttribute("opacity","0");

	var toolTip = svgDocument.getElementById('ToolTip');
	if(toolTip)
		toolTip.setAttribute("visibility","hidden");
}
function ShowToolTip(evt,hotspotid,strTooltip)
{
	if(strTooltip=="")
	return;

	// change text
	var svgDocument = evt.target.ownerDocument;
	var tiptext = svgDocument.getElementById('ToolTipText');
	if( !tiptext )
	return;
	tiptext.firstChild.nodeValue = " " + strTooltip + "  " ;

	// show tooltip before, else some refresh issue

	var toolTip = svgDocument.getElementById('ToolTip');
	if(!toolTip)
	return;

	toolTip.setAttribute("visibility","visible");
	toolTip.setAttribute("opacity",".95");

	// move tooltip
	// get viewbox

	var root = svgDocument.documentElement;
	var vbox = (root.getAttribute("viewBox")).split(' ');
	var x0 = parseFloat(vbox[0]);
	var y0 = parseFloat(vbox[1]);
	var vboxW = parseFloat(vbox[2]);
	var vboxH = parseFloat(vbox[3]);

	// get default width of svg

	var strW = root.getAttribute("width");
	var svgW = parseFloat(strW);
	if(strW.indexOf('mm') != -1)
	svgW *= 3.779;

	var strH = root.getAttribute("height");
	var svgH = parseFloat(strH);
	if(strH.indexOf('mm') != -1)
	svgH *= 3.779;  	// 96 dpi  -> 96/25.4 = 3.779

	// update the viewbox / width / height if svg is embedded in html with zoom fit all
	var realx0 = x0;
	var realy0 = y0;
	var realvboxW = vboxW;
	var realvboxH = vboxH;
	var realsvgW = svgW;
	var realsvgH = svgH;

	if ((typeof(top) == "undefined") || (typeof(top.svgctl1) != "undefined")) // embedded in html
	{
		// get window size in pxl

		svgW = window.innerWidth;
		svgH = window.innerHeight;

		// calculate real viewbox

		realsvgW = svgW;
		realsvgH = svgH;
		if((svgW / svgH) > (vboxW / vboxH))
		{
			realvboxW = (vboxH * svgW) / svgH;
			realvboxH = vboxH;
			realx0 = x0 - (realvboxW - vboxW)/2 ;
		}
		else
		{
			realvboxH = (vboxW * svgH) / svgW;
			realvboxW = vboxW;
			realy0 = y0 - (realvboxH - vboxH)/2 ;
		}
	}

	// get user zoom/pan

	var newScale = root.currentScale;
	var translation = root.currentTranslate;

	// transform pxl to user unit

	var xPos = (((evt.clientX+10- translation.x)/newScale) * realvboxW)/realsvgW  + realx0 ;
	var yPos = (((evt.clientY+5- translation.y)/newScale) * realvboxH)/ realsvgH  + realy0 ;
	var scaleForWidth = ( (1 / newScale) * realvboxH) / realsvgH;

	// move tooltip

	toolTip.setAttribute("transform", "translate(" + xPos + "," + yPos + ")" );

	// resize tooltip

	var fontsize = 12;
	tiptext.setAttribute("font-size",fontsize*scaleForWidth);
	tiptext.setAttribute("y", fontsize*scaleForWidth);
	var tipBG = svgDocument.getElementById('ToolTipBG');
	var outline = tiptext.getBBox();
	if(tipBG)
	{
		tipBG.setAttribute("stroke-width", 1*scaleForWidth);
		tipBG.setAttribute("width", Number(outline.width) );
		tipBG.setAttribute("height", Number(outline.height) + fontsize*.5*scaleForWidth );
	}
	var ToolTipShadow = svgDocument.getElementById('ToolTipShadow');
	if(ToolTipShadow)
	{
		ToolTipShadow.setAttribute("width", Number(outline.width) );
		ToolTipShadow.setAttribute("height", Number(outline.height) + fontsize*.5*scaleForWidth );
		ToolTipShadow.setAttribute("x", 3*scaleForWidth);
		ToolTipShadow.setAttribute("y", 3*scaleForWidth);
	}
}
function ShowPaper()
{
  var svgDocument = getDocument();
  var paper = svgDocument.getElementById("paperID");
  if(paper)
  {
    paper.setAttribute("transform","scale(1)");
    paper.setAttribute("opacity","1");
    paper.setAttribute("visibility","visible");
  }
  var svg = svgDocument.getRootElement();
  if(svg)
  {
    svg.setAttribute("width","220.000mm");
    svg.setAttribute("height","160.000mm");
    svg.setAttribute("viewBox","-5.000000 -5.000000 220.000000 160.000000");
  }
}
]]></script><defs/><g><path style="fill:#ffffff" d="M209.93,149.99L0.04,149.99L0.04,0.04L209.93,0.04z"/><path style="fill:#8aa7bf" d="M96.43,57.56L97.02,57.83L97.15,59.09L97.27,61.54L96.77,65.22L96.63,65.59L93.81,66.69L90.40,67.84L89.66,67.84L85.49,66.44L83.89,65.76L83.61,63.10L83.58,62.31L84.18,57.95L87.92,56.53L87.94,56.89L87.73,56.93L86.72,57.57L85.95,58.45L85.81,59.68L85.86,60.49L86.13,61.24L86.64,61.74L87.76,62.39L88.91,62.64L90.90,62.64L92.46,62.18L93.55,61.62L94.32,60.74L94.62,60.15L94.56,59.05L94.49,58.20L93.98,57.44L92.71,56.69L91.90,56.50L91.89,55.89z"/><path style="fill:#95dce0" d="M92.71,56.69L93.98,57.44L94.49,58.20L94.56,59.05L94.11,60.02L93.42,60.60L92.46,61.16L90.90,61.63L88.66,61.63L87.64,61.38L86.77,60.98L85.99,60.11L85.81,59.68L85.95,58.45L86.72,57.57L87.73,56.93L87.94,56.89L88.14,58.97L88.41,59.47L89.16,59.86L90.78,59.86L91.78,59.34L92.09,58.89L92.08,57.83L91.87,56.61L91.90,56.50z"/><path style="fill:#4c4c4c" d="M118.18,94.70L119.96,95.58L120.85,96.72L121.22,99.77L121.22,104.24L120.98,105.77L120.68,106.11L119.65,106.45L119.27,103.96L119.32,103.32L118.95,100.27L118.45,99.62L118.31,99.50L118.02,99.50L116.47,100.14L116.63,100.56L116.91,100.66L117.30,101.03L117.68,104.71L117.80,107.16L117.22,107.36L116.15,107.38L113.75,106.48L112.48,106.49L111.34,105.98L111.23,105.22L110.93,105.35L109.81,105.35L108.26,104.62L108.05,102.81L108.04,100.95L108.89,97.74L109.58,96.52L110.83,95.50L112.69,94.70L114.59,94.32L116.28,94.32z"/><path style="fill:#f9840c" d="M129.85,115.47L130.60,121.94L130.99,122.44L131.23,124.73L131.35,125.37L131.62,126.12L132.11,130.44L132.25,130.81L132.51,134.16L131.83,134.74L131.07,135.00L129.96,135.00L129.21,134.61L129.08,134.49L128.95,133.98L128.65,131.08L128.70,130.56L128.45,128.03L128.45,124.98L128.32,123.72L128.31,122.48L128.45,122.25L128.32,119.66L128.07,117.13L128.07,115.52L128.53,115.22L129.47,115.22z"/><path style="fill:#8aa7bf" d="M89.04,20.82L89.79,21.34L90.19,21.95L90.56,22.72L91.83,35.02L91.83,36.32L91.70,36.84L90.95,37.60L90.26,38.06L88.75,38.57L86.24,38.57L85.12,38.17L84.22,37.43L83.96,36.92L82.70,24.50L82.70,23.27L82.82,22.50L83.68,21.33L84.69,20.70L85.96,20.32L87.77,20.31z"/><path style="fill:#8aa7bf" d="M90.56,49.08L91.20,49.58L91.24,50.28L91.07,50.52L90.14,51.12L89.50,51.24L88.65,51.24L87.78,50.98L87.33,50.56L87.40,49.76L87.98,49.21L88.87,48.83L89.93,48.83z"/><path style="fill:#8aa7bf" d="M88.41,57.31L89.16,57.58L90.27,57.58L91.02,57.32L91.65,56.93L91.87,56.61L92.08,57.83L92.09,58.89L91.78,59.34L90.78,59.86L89.16,59.86L88.41,59.47L88.14,58.97L87.94,56.89z"/><path style="fill:#ff0000" d="M118.45,99.62L118.95,100.27L119.32,103.32L119.27,103.96L119.65,106.45L119.83,109.06L119.66,109.14L119.33,109.71L121.11,128.46L120.72,128.70L120.04,128.84L118.19,110.28L117.95,109.78L117.64,109.83L117.65,109.15L117.81,109.01L117.42,108.64L117.22,107.36L117.80,107.16L117.68,104.71L117.30,101.03L116.91,100.66L116.63,100.56L116.47,100.14L118.02,99.50L118.31,99.50z"/><path style="fill:#95dce0" d="M80.29,41.99L80.31,46.22L75.69,48.95L72.43,48.96L66.99,45.79L66.23,45.53L61.67,45.40L59.89,44.38L59.77,51.54L58.39,53.96L47.17,60.49L46.84,60.50L43.30,58.46L43.29,44.56L47.48,37.35L47.60,34.55L57.31,28.92L57.74,28.93z"/><path style="fill:#95dce0" d="M112.10,54.28L112.85,54.54L118.70,61.74L118.70,65.10L117.79,66.60L105.35,69.99L104.50,69.99L102.22,69.48L99.94,66.68L96.51,67.88L96.78,70.63L96.72,71.01L99.42,97.87L99.56,98.37L100.07,103.45L99.93,104.24L99.17,104.50L99.56,108.51L99.69,110.84L99.52,111.17L99.00,111.80L94.71,113.33L93.98,113.33L92.96,113.08L91.95,112.57L91.33,112.05L90.93,111.18L90.44,106.47L88.54,104.19L88.41,104.07L87.85,98.76L88.66,98.42L88.53,95.97L86.13,72.39L85.11,71.13L84.61,66.69L83.98,65.93L83.89,65.76L85.49,66.44L89.66,67.84L90.40,67.84L93.81,66.69L96.63,65.59L96.77,65.22L97.27,61.54L97.15,59.09L97.02,57.83L96.43,57.56L110.19,53.89z"/><path style="fill:#95dce0" d="M83.89,65.76L83.71,65.69L83.59,64.54L83.61,63.10z"/><path style="fill:#01ff02" d="M87.78,50.98L88.65,51.24L89.50,51.24L90.14,51.12L91.07,50.52L91.24,50.28L91.89,55.89L91.90,56.50L91.87,56.61L91.65,56.93L91.02,57.32L90.27,57.58L89.16,57.58L88.41,57.31L87.94,56.89L87.92,56.53L87.33,50.56z"/><path style="fill:#01ff02" d="M85.99,60.11L86.77,60.98L87.64,61.38L88.66,61.63L90.90,61.63L92.46,61.16L93.42,60.60L94.11,60.02L94.56,59.05L94.62,60.15L94.32,60.74L93.55,61.62L92.46,62.18L90.90,62.64L88.91,62.64L87.76,62.39L86.64,61.74L86.13,61.24L85.86,60.49L85.81,59.68z"/><path style="fill:#01ff02" d="M86.25,68.85L86.89,70.37L87.01,71.56L86.63,71.51L86.12,70.76L85.74,69.49L85.75,68.50L85.88,68.46z"/><path style="fill:#01ff02" d="M89.67,102.05L90.18,103.44L90.31,104.51L89.93,104.46L89.41,103.70L89.03,102.43L89.00,101.40L89.28,101.41z"/><path style="fill:#ffffff" d="M118.45,98.11L118.59,98.24L118.58,98.42L116.88,99.27L115.10,99.64L113.07,99.64L112.60,99.81L112.62,101.34L112.10,101.72L111.99,101.02L110.41,100.05L110.45,99.68L111.81,98.63L113.32,97.99L114.59,97.74L116.92,97.74z"/><path style="stroke:#000000;stroke-width:0.088" d="M84.67,66.77L85.10,71.02L87.82,74.39L88.78,74.06L88.37,69.97"/><path style="stroke:#000000;stroke-width:0.088" d="M85.76,70.54L85.92,70.93L86.20,71.42L86.47,71.77L86.72,71.94L86.90,71.90L87.02,71.67L87.04,71.27L87.03,71.11L86.97,70.74L86.82,70.14L86.67,69.73L86.60,69.53L86.34,68.98L86.06,68.56L85.80,68.30L85.58,68.23L85.43,68.36L85.36,68.69L85.38,69.16L85.49,69.73L85.68,70.35L85.76,70.54"/><path style="stroke:#000000;stroke-width:0.088" d="M85.89,68.39L85.87,68.38L85.73,68.50L85.67,68.78L85.68,69.11L85.79,69.70L85.95,70.24L86.17,70.76L86.41,71.19L86.65,71.50L86.87,71.64L87.02,71.62"/><path style="stroke:#000000;stroke-width:0.088" d="M91.90,56.42L92.82,56.71L93.09,56.82L94.01,57.45L94.18,57.63L94.52,58.25L94.56,59.13L94.12,60.00L93.25,60.77L92.06,61.35L91.26,61.53L90.65,61.67L89.20,61.72L87.86,61.46L86.76,60.95L86.04,60.23L85.76,59.37L85.87,60.41"/><path style="stroke:#000000;stroke-width:0.088" d="M85.76,59.37L85.96,58.48L86.63,57.65L86.89,57.47L86.29,58.24L86.10,59.05L86.35,59.83L87.02,60.49L88.02,60.97L89.25,61.20L90.59,61.16L91.87,60.86L92.97,60.33L93.76,59.63L94.16,58.83L94.13,58.02L94.05,57.90L93.66,57.29L92.82,56.71"/><path style="stroke:#000000;stroke-width:0.088" d="M86.17,72.35L88.89,99.55L89.31,100.36L89.46,100.53L90.54,101.30L92.01,101.79L93.71,101.94L95.46,101.74L97.06,101.20L98.35,100.40L99.17,99.40L99.46,98.33L96.73,71.01"/><path style="stroke:#000000;stroke-width:0.088" d="M87.37,69.81L87.82,74.39"/><path style="stroke:#000000;stroke-width:0.088" d="M86.89,57.47L87.85,56.85L87.97,56.81"/><path style="stroke:#000000;stroke-width:0.088" d="M90.49,101.35L91.54,101.74L90.58,102.08L91.11,107.31L88.38,103.94L87.86,98.70L89.22,100.39L89.37,100.56L90.47,101.35L91.97,101.84L93.70,102.00L95.48,101.79L97.12,101.25L98.43,100.43L99.27,99.42L99.56,98.33L100.08,103.56L99.98,104.22L98.77,104.65L99.44,111.38L99.67,110.85L99.71,110.02L99.15,104.51"/><path style="stroke:#000000;stroke-width:0.088" d="M87.86,98.70L88.77,98.38"/><path style="stroke:#000000;stroke-width:0.088" d="M88.38,59.41L88.33,59.37L88.25,59.19"/><path style="stroke:#000000;stroke-width:0.088" d="M88.16,58.95L88.15,58.99L88.17,59.03"/><path style="stroke:#000000;stroke-width:0.088" d="M89.19,103.81L88.96,103.27L88.77,102.65L88.66,102.08L88.65,101.98L88.64,101.61L88.70,101.35L88.71,101.28L88.86,101.15L89.08,101.22L89.34,101.48L89.62,101.90L89.88,102.45L90.00,102.77L90.10,103.06L90.25,103.66L90.32,104.19L90.30,104.59L90.19,104.82L90.00,104.86L89.75,104.69L89.48,104.34L89.19,103.81"/><path style="stroke:#000000;stroke-width:0.088" d="M90.30,104.53L90.15,104.56L89.93,104.42L89.69,104.11L89.45,103.68L89.24,103.16L89.07,102.62L88.96,102.03L88.95,101.70L89.01,101.42L89.15,101.30L89.17,101.30"/><path style="stroke:#000000;stroke-width:0.088" d="M90.58,102.08L89.22,100.39L88.79,99.57L88.78,98.50"/><path style="stroke:#000000;stroke-width:0.088" d="M88.78,74.06L90.49,74.31L92.29,74.19L93.99,73.72L95.41,72.95L96.37,71.96L96.79,70.86L96.49,67.85"/><path style="stroke:#000000;stroke-width:0.088" d="M88.56,59.56L88.71,59.68L88.77,59.70"/><path style="stroke:#000000;stroke-width:0.088" d="M89.10,59.83L89.24,59.88L89.31,59.89"/><path style="stroke:#000000;stroke-width:0.088" d="M89.95,59.96L89.87,59.96L89.63,59.93"/><path style="stroke:#000000;stroke-width:0.088" d="M91.11,107.31L93.27,106.56L93.94,113.29L93.15,113.13L92.08,112.68L91.32,112.04L90.94,111.27L90.48,106.54"/><path style="stroke:#000000;stroke-width:0.088" d="M90.61,59.89L90.53,59.91L90.28,59.93"/><path style="stroke:#000000;stroke-width:0.088" d="M99.98,104.22L99.80,102.47L99.62,102.90L98.77,103.91L97.46,104.73L95.83,105.27L94.05,105.48L92.32,105.32L91.89,105.22L91.54,101.74"/><path style="stroke:#000000;stroke-width:0.088" d="M91.21,59.70L91.15,59.73L90.93,59.80"/><path style="stroke:#000000;stroke-width:0.088" d="M91.47,59.55L91.66,59.45L91.71,59.40"/><path style="stroke:#000000;stroke-width:0.088" d="M91.88,59.22L92.01,59.08L92.03,59.03"/><path style="stroke:#000000;stroke-width:0.088" d="M92.15,58.65L92.16,58.68L92.12,58.79"/><path style="stroke:#000000;stroke-width:0.088" d="M93.15,113.13L93.36,113.21L94.49,113.40L98.95,111.85L99.44,111.38"/><path style="stroke:#000000;stroke-width:0.088" d="M93.94,113.29L94.49,113.40"/><path style="stroke:#000000;stroke-width:0.088" d="M94.85,108.48L94.77,108.08L94.84,107.63L95.07,107.18L95.42,106.79L95.68,106.62L95.86,106.50L96.34,106.33L96.81,106.31L97.21,106.44L97.51,106.70L97.67,107.07L97.67,107.50L97.55,107.84L97.51,107.95L97.22,108.37L96.82,108.72L96.35,108.95L95.87,109.05L95.43,109.00L95.08,108.80L94.85,108.48"/><path style="stroke:#000000;stroke-width:0.088" d="M94.63,59.31L94.52,58.25"/><path style="stroke:#000000;stroke-width:0.088" d="M99.56,98.33L99.40,97.78"/><path style="stroke:#000000;stroke-width:0.088" d="M91.25,49.66L91.90,56.06L91.90,56.47L91.69,56.86L91.28,57.21L90.81,57.43L90.73,57.46L90.09,57.60L89.43,57.61L88.82,57.49L88.61,57.39L88.34,57.25L88.02,56.92L87.91,56.53L87.28,50.22L87.41,50.61L87.76,50.93L88.09,51.08L88.26,51.16L88.88,51.26L89.54,51.24L90.17,51.08L90.71,50.81L90.88,50.66L91.09,50.46L91.28,50.06L91.25,49.66L91.10,49.41L91.00,49.30L90.57,49.02L90.35,48.93L90.72,49.17L90.92,49.47L90.95,49.81L90.79,50.15L90.66,50.27L90.47,50.45L90.01,50.68L89.48,50.81L88.92,50.83L88.39,50.74L87.97,50.55L87.72,50.33L87.68,50.28L87.56,49.95L87.63,49.61L87.87,49.28L88.26,49.02L88.11,49.12L88.11,49.12"/><path style="stroke:#000000;stroke-width:0.088" d="M88.11,49.12L87.64,49.44L87.63,49.46L87.36,49.82L87.28,50.22"/><path style="stroke:#000000;stroke-width:0.088" d="M88.85,59.38L88.79,59.35L88.37,59.07L88.14,58.70L88.10,58.46L88.85,59.38L88.69,57.85L89.20,58.00L89.84,58.05L90.50,57.96L91.10,57.76L91.57,57.45L91.88,57.07L91.97,56.71L91.85,56.56"/><path style="stroke:#000000;stroke-width:0.088" d="M88.14,58.85L87.95,56.93L88.69,57.85"/><path style="stroke:#000000;stroke-width:0.088" d="M87.98,56.76L87.97,56.77L87.95,56.93"/><path style="stroke:#000000;stroke-width:0.088" d="M88.34,57.25L88.62,57.54L89.03,57.75L89.55,57.85L90.11,57.84L90.65,57.72L91.12,57.51L91.46,57.21L91.69,56.86"/><path style="stroke:#000000;stroke-width:0.088" d="M88.26,49.02L88.77,48.83L89.32,48.76L89.87,48.79L90.35,48.93"/><path style="stroke:#000000;stroke-width:0.088" d="M92.16,58.58L92.12,58.19L92.11,58.17"/><path style="stroke:#000000;stroke-width:0.088" d="M92.12,58.19L92.12,58.24L91.97,56.71"/><path style="stroke:#000000;stroke-width:0.088" d="M83.57,62.49L87.33,63.73L89.66,64.70L89.98,67.93L85.33,66.34L83.89,65.73L83.57,62.49L83.77,60.87L84.20,57.95L86.08,57.18L87.91,56.53"/><path style="stroke:#000000;stroke-width:0.088" d="M87.91,56.54L86.21,57.24L84.81,58.30L84.01,59.54L83.89,60.83L84.46,62.04L85.66,63.02L87.36,63.68L89.38,63.94L91.49,63.78L93.47,63.20L95.11,62.29L96.22,61.12L96.69,59.83L96.47,58.57L96.10,57.99L95.57,57.46L94.10,56.62L92.21,56.16L91.90,56.15"/><path style="stroke:#000000;stroke-width:0.088" d="M85.33,66.34L87.13,67.03L87.64,67.13"/><path style="stroke:#000000;stroke-width:0.088" d="M85.86,60.29L85.85,60.30L85.86,60.32"/><path style="stroke:#000000;stroke-width:0.088" d="M86.86,61.93L86.80,61.89L86.54,61.62"/><path style="stroke:#000000;stroke-width:0.088" d="M86.02,60.88L86.10,61.16L86.13,61.19"/><path style="stroke:#000000;stroke-width:0.088" d="M87.51,62.25L87.87,62.42L87.95,62.44"/><path style="stroke:#000000;stroke-width:0.088" d="M89.29,62.69L89.21,62.69L88.76,62.60"/><path style="stroke:#000000;stroke-width:0.088" d="M89.98,67.93L91.21,67.58L96.70,65.59L96.99,63.75L97.34,61.04L97.01,57.81L96.90,58.53L96.38,62.36L93.49,63.22L89.66,64.70"/><path style="stroke:#000000;stroke-width:0.088" d="M90.17,62.68L90.66,62.67L90.74,62.65"/><path style="stroke:#000000;stroke-width:0.088" d="M91.60,62.47L92.07,62.36L92.14,62.33"/><path style="stroke:#000000;stroke-width:0.088" d="M91.88,55.89L92.31,56.02L94.10,56.62"/><path style="stroke:#000000;stroke-width:0.088" d="M92.62,67.07L93.23,66.94L94.11,66.53"/><path style="stroke:#000000;stroke-width:0.088" d="M92.89,61.98L93.29,61.80L93.34,61.75"/><path style="stroke:#000000;stroke-width:0.088" d="M93.89,61.28L94.18,61.04L94.20,60.99"/><path style="stroke:#000000;stroke-width:0.088" d="M94.50,60.45L94.64,60.17L94.64,60.12"/><path style="stroke:#000000;stroke-width:0.088" d="M94.64,59.56L94.64,59.28L94.63,59.26"/><path style="stroke:#000000;stroke-width:0.088" d="M97.01,57.81L94.49,56.85"/><path style="stroke:#000000;stroke-width:0.088" d="M96.70,65.59L96.38,62.36"/><path style="stroke:#000000;stroke-width:0.088" d="M116.55,100.46L116.51,100.05L116.98,100.64"/><path style="stroke:#000000;stroke-width:0.088" d="M116.51,100.05L118.32,99.41L119.01,100.26L119.02,100.28L119.02,100.29L119.01,100.31L119.00,100.32L118.20,100.70L117.28,100.92L117.25,100.92L117.21,100.91"/><path style="stroke:#000000;stroke-width:0.088" d="M117.61,109.77L117.62,109.78L117.65,109.81L117.59,109.24L117.56,109.21L117.56,109.19L117.61,109.77L117.62,109.76"/><path style="stroke:#000000;stroke-width:0.088" d="M117.23,107.33L117.34,108.44L117.82,109.04L117.59,109.15L117.56,109.18L117.56,109.19"/><path style="stroke:#000000;stroke-width:0.088" d="M118.22,101.43L118.37,101.38L118.34,101.34L118.19,101.39L118.22,101.43L118.25,101.69L118.38,101.64L118.33,101.66L117.88,101.80L117.39,101.89"/><path style="stroke:#000000;stroke-width:0.088" d="M117.41,101.89L117.42,102.02L117.41,102.02"/><path style="stroke:#000000;stroke-width:0.088" d="M117.42,102.02L117.89,101.92L118.26,101.81L118.29,102.07L118.26,102.03L118.24,101.82"/><path style="stroke:#000000;stroke-width:0.088" d="M118.25,101.69L118.22,101.65L117.39,101.84"/><path style="stroke:#000000;stroke-width:0.088" d="M117.28,100.92L117.28,101.00"/><path style="stroke:#000000;stroke-width:0.088" d="M120.05,128.89L120.10,128.90L120.14,128.89L120.27,128.86L120.41,128.82L120.62,128.73L120.89,128.62L121.03,128.54L121.13,128.48L121.17,128.44L121.15,128.42L121.07,128.43L121.01,128.44L120.77,128.51L120.59,128.58L120.41,128.66L120.25,128.74L120.12,128.81L120.05,128.86L120.05,128.89L118.15,109.90"/><path style="stroke:#000000;stroke-width:0.088" d="M117.94,109.73L118.08,109.87L118.28,109.96L118.52,110.01L118.78,110.00L119.04,109.94L119.26,109.83L119.41,109.69L119.49,109.53L119.49,109.37L119.44,108.91"/><path style="stroke:#000000;stroke-width:0.088" d="M117.65,109.81L117.69,109.83L117.74,109.83L118.06,109.67L118.02,109.28"/><path style="stroke:#000000;stroke-width:0.088" d="M117.76,109.82L117.70,109.24L117.91,109.14"/><path style="stroke:#000000;stroke-width:0.088" d="M117.63,109.80L117.57,109.22"/><path style="stroke:#000000;stroke-width:0.088" d="M119.83,108.72L119.85,108.71L119.86,108.69L119.86,108.68L119.49,104.97L119.49,104.99L119.48,105.00L119.46,105.02L119.83,108.72L119.04,109.10L118.11,109.32L118.07,109.32L118.05,109.31L118.03,109.30L117.82,109.04"/><path style="stroke:#000000;stroke-width:0.088" d="M118.11,109.32L117.89,107.10"/><path style="stroke:#000000;stroke-width:0.088" d="M118.03,109.30L117.82,107.13"/><path style="stroke:#000000;stroke-width:0.088" d="M117.70,109.24L117.66,109.26L117.63,109.26L117.59,109.24"/><path style="stroke:#000000;stroke-width:0.088" d="M117.71,105.07L117.74,105.16L117.86,105.31L118.01,105.47L118.22,105.56L118.48,105.57L118.57,105.55L118.52,105.06L118.42,104.94L118.53,104.95L118.64,104.86L118.69,105.35L118.79,105.48L118.74,104.99L118.89,104.85L118.87,104.57L118.70,104.54L118.65,104.05L118.64,104.04"/><path style="stroke:#000000;stroke-width:0.088" d="M118.97,105.37L118.93,105.40L118.68,105.54L118.41,105.58L118.28,105.56"/><path style="stroke:#000000;stroke-width:0.088" d="M118.19,105.55L118.15,105.54L117.76,105.61"/><path style="stroke:#000000;stroke-width:0.088" d="M118.15,105.54L118.14,105.52"/><path style="stroke:#000000;stroke-width:0.088" d="M117.75,105.51L117.97,105.43"/><path style="stroke:#000000;stroke-width:0.088" d="M117.67,104.62L117.73,104.41"/><path style="stroke:#000000;stroke-width:0.088" d="M117.73,105.29L117.75,105.29L117.86,105.31L117.79,105.09L117.81,104.84L117.92,104.59L118.10,104.36L118.34,104.18L118.43,104.13L118.42,104.12L118.54,104.07L118.80,104.01L119.03,104.01L119.35,103.83L119.36,103.82L119.37,103.81L119.12,101.29L119.14,101.28L119.15,101.26L119.15,101.25L119.11,101.20"/><path style="stroke:#000000;stroke-width:0.088" d="M118.52,105.06L118.35,105.04L118.32,104.76L118.48,104.62L118.43,104.13"/><path style="stroke:#000000;stroke-width:0.088" d="M118.53,104.95L118.40,104.78L118.32,104.77"/><path style="stroke:#000000;stroke-width:0.088" d="M117.83,104.40L117.80,104.44L117.69,104.69L117.68,104.79"/><path style="stroke:#000000;stroke-width:0.088" d="M117.65,104.45L117.66,104.43"/><path style="stroke:#000000;stroke-width:0.088" d="M118.42,104.12L118.27,104.19L118.03,104.36L117.65,104.43"/><path style="stroke:#000000;stroke-width:0.088" d="M118.37,101.38L118.39,101.63L118.38,101.64L118.74,101.49L119.12,101.29"/><path style="stroke:#000000;stroke-width:0.088" d="M118.22,101.65L118.19,101.39"/><path style="stroke:#000000;stroke-width:0.088" d="M118.29,102.07L118.43,102.02L118.41,101.76"/><path style="stroke:#000000;stroke-width:0.088" d="M118.26,101.81L118.34,101.79L118.76,101.62L119.14,101.42L119.15,101.40L119.16,101.39L119.16,101.37"/><path style="stroke:#000000;stroke-width:0.088" d="M118.79,105.48L119.00,105.35L119.22,105.14L119.36,104.89L119.43,104.64L119.42,104.59L119.40,104.40L119.29,104.21L119.11,104.08L118.87,104.03L118.65,104.05"/><path style="stroke:#000000;stroke-width:0.088" d="M119.18,105.18L119.46,105.02"/><path style="stroke:#000000;stroke-width:0.088" d="M118.64,104.86L118.74,104.99"/><path style="stroke:#000000;stroke-width:0.088" d="M118.55,105.40L118.65,105.37L118.69,105.35"/><path style="stroke:#000000;stroke-width:0.088" d="M118.40,104.78L118.66,104.55L118.65,104.49"/><path style="stroke:#000000;stroke-width:0.088" d="M118.89,104.85L118.66,104.55"/><path style="stroke:#000000;stroke-width:0.088" d="M119.29,104.21L119.17,104.06L119.07,103.99"/><path style="stroke:#000000;stroke-width:0.088" d="M118.56,104.06L118.59,104.42L118.48,104.40L118.46,104.42"/><path style="stroke:#000000;stroke-width:0.088" d="M118.59,104.42L118.70,104.54"/><path style="stroke:#000000;stroke-width:0.088" d="M119.11,101.43L119.35,103.83"/><path style="stroke:#000000;stroke-width:0.088" d="M118.39,101.58L119.09,101.24L119.10,101.23L119.11,101.22L119.11,101.20"/><path style="stroke:#000000;stroke-width:0.088" d="M119.16,101.37L119.15,101.25"/><path style="stroke:#000000;stroke-width:0.088" d="M119.09,101.24L119.00,100.32"/><path style="stroke:#000000;stroke-width:0.088" d="M119.02,100.28L119.11,101.20"/><path style="stroke:#000000;stroke-width:0.088" d="M121.17,128.44L119.31,109.79"/><path style="stroke:#000000;stroke-width:0.088" d="M119.86,108.68L119.85,108.67"/><path style="stroke:#000000;stroke-width:0.088" d="M119.47,109.18L119.82,109.10L119.78,108.74"/><path style="stroke:#000000;stroke-width:0.088" d="M119.82,109.10L119.86,109.08L119.87,109.07L119.87,109.06L119.84,108.71"/><path style="stroke:#000000;stroke-width:0.088" d="M119.38,104.83L119.48,104.96L119.49,104.97"/><path style="stroke:#000000;stroke-width:0.088" d="M89.59,24.93L90.05,24.53L90.56,23.72L90.62,22.87L91.93,36.03L91.68,36.83L91.62,36.90L91.03,37.57L90.86,37.70L90.03,38.17L88.81,38.55L87.49,38.69L86.22,38.55L85.12,38.17L84.33,37.57L83.93,36.83L82.65,24.01L83.05,24.79L83.89,25.41L85.05,25.80L86.40,25.91L87.78,25.73L89.02,25.27L89.59,24.93L89.50,24.48L89.23,23.88L88.83,23.31L88.35,22.85L87.95,22.59L88.18,22.40L88.44,21.99L88.47,21.57L88.26,21.18L87.84,20.87L87.57,20.78L87.25,20.68L86.58,20.63L85.90,20.72L85.28,20.95L85.00,21.12L84.61,20.99L84.18,20.99L83.85,21.20L83.51,21.49L83.47,21.52L82.98,22.26L82.75,22.74L82.67,23.57L82.65,24.01L82.65,24.00"/><path style="stroke:#000000;stroke-width:0.088" d="M84.18,20.99L84.62,20.72L85.59,20.36L86.67,20.21L87.73,20.30L88.65,20.60L89.02,20.75L89.78,21.30L90.09,21.70L90.50,22.46L90.62,22.87"/><path style="stroke:#000000;stroke-width:0.088" d="M87.95,22.59L87.67,22.77L87.05,23.00L86.36,23.09L85.68,23.03L85.10,22.84L84.68,22.53L84.48,22.13L84.52,21.71L84.79,21.30L85.00,21.12"/><path style="stroke:#000000;stroke-width:0.088" d="M83.62,63.04L83.46,63.31L83.68,63.58"/><path style="stroke:#000000;stroke-width:0.088" d="M83.46,63.31L83.69,65.55L87.09,69.77L86.87,67.53L89.54,67.95L89.80,67.87"/><path style="stroke:#000000;stroke-width:0.088" d="M86.87,67.53L86.17,66.66"/><path style="stroke:#000000;stroke-width:0.088" d="M87.09,69.77L89.77,70.19L100.59,66.42L100.59,64.12L100.28,64.22L97.28,60.51"/><path style="stroke:#000000;stroke-width:0.088" d="M89.54,67.95L89.77,70.19"/><path style="stroke:#000000;stroke-width:0.088" d="M96.35,57.56L110.10,53.86L112.77,54.42L118.74,61.80L117.76,63.35L104.98,66.79L102.30,66.23L102.30,69.52L99.97,66.64"/><path style="stroke:#000000;stroke-width:0.088" d="M100.28,64.22L96.72,65.46"/><path style="stroke:#000000;stroke-width:0.088" d="M102.30,66.23L97.23,59.95"/><path style="stroke:#000000;stroke-width:0.088" d="M107.70,55.98L101.67,57.60L101.22,57.78L100.89,58.02L100.71,58.31L100.69,58.62L100.84,58.92L101.14,59.17L101.56,59.36L102.07,59.47L102.60,59.48L103.12,59.40L109.14,57.77L109.59,57.60L109.92,57.36L110.10,57.07L110.12,56.76L109.97,56.46L109.67,56.20L109.25,56.01L108.75,55.91L108.21,55.90L107.70,55.98L107.70,58.16"/><path style="stroke:#000000;stroke-width:0.088" d="M101.67,59.39L101.67,57.60"/><path style="stroke:#000000;stroke-width:0.088" d="M102.30,69.52L104.98,70.08L104.98,66.79"/><path style="stroke:#000000;stroke-width:0.088" d="M104.98,70.08L117.76,66.64L117.76,63.35"/><path style="stroke:#000000;stroke-width:0.088" d="M105.93,62.88L111.96,61.25L112.47,61.17L113.01,61.18L113.51,61.29L113.93,61.47L114.23,61.73L114.38,62.03L114.36,62.34L114.18,62.63L113.85,62.87L113.40,63.05L107.38,64.67L106.86,64.75L106.33,64.74L105.82,64.64L105.40,64.45L105.10,64.19L104.95,63.89L104.97,63.58L105.15,63.29L105.48,63.05L105.93,62.88L105.93,64.66"/><path style="stroke:#000000;stroke-width:0.088" d="M111.96,63.44L111.96,61.25"/><path style="stroke:#000000;stroke-width:0.088" d="M117.76,66.64L118.74,65.09L118.74,61.80"/><path style="stroke:#000000;stroke-width:0.088" d="M43.27,44.60L45.55,45.92L49.82,38.51L61.79,45.43L61.79,42.79L47.54,34.56L47.54,37.20L43.27,44.60L43.27,58.43L45.41,59.66L44.59,59.19"/><path style="stroke:#000000;stroke-width:0.088" d="M45.55,59.74L45.41,59.66L45.99,60.00L45.55,59.74L45.55,45.92"/><path style="stroke:#000000;stroke-width:0.088" d="M45.99,60.00L46.97,60.57L58.37,53.98L59.80,51.51L59.80,44.27"/><path style="stroke:#000000;stroke-width:0.088" d="M46.80,57.70L46.93,57.92L47.14,58.04L47.40,58.05L47.68,57.93L47.97,57.71L48.23,57.41L48.43,57.06L48.56,56.68L48.61,56.33L48.61,49.09L48.56,48.78L48.43,48.56L48.23,48.44L47.97,48.44L47.68,48.55L47.40,48.77L47.14,49.07L47.03,49.27L46.93,49.43L46.80,49.80L46.76,50.16L46.76,57.40L46.80,57.70"/><path style="stroke:#000000;stroke-width:0.088" d="M48.61,56.33L46.76,55.26"/><path style="stroke:#000000;stroke-width:0.088" d="M47.14,58.04L47.09,58.02"/><path style="stroke:#000000;stroke-width:0.088" d="M47.68,48.55L48.61,49.09"/><path style="stroke:#000000;stroke-width:0.088" d="M49.82,38.51L47.54,37.20"/><path style="stroke:#000000;stroke-width:0.088" d="M47.54,34.56L57.52,28.81L80.32,41.97L80.32,41.98"/><path style="stroke:#000000;stroke-width:0.088" d="M48.23,48.44L48.40,48.54"/><path style="stroke:#000000;stroke-width:0.088" d="M51.39,46.41L52.31,46.95L52.27,46.64L52.14,46.42L51.93,46.30L51.67,46.30L51.39,46.41L51.10,46.63L50.84,46.93L50.64,47.29L50.51,47.66L50.46,48.02L50.46,55.26L50.51,55.56L50.64,55.78L50.84,55.90L51.10,55.91L51.39,55.79L51.67,55.58L51.93,55.27L52.14,54.92L52.27,54.55L52.31,54.19L50.46,53.12"/><path style="stroke:#000000;stroke-width:0.088" d="M52.31,54.19L52.31,46.95"/><path style="stroke:#000000;stroke-width:0.088" d="M51.93,46.30L52.13,46.42"/><path style="stroke:#000000;stroke-width:0.088" d="M61.79,45.43L65.52,45.43L66.04,45.46L66.49,45.57L66.53,45.58L66.94,45.77L66.94,43.13L66.53,42.95L66.49,42.94L66.04,42.83L65.52,42.79L61.79,42.79"/><path style="stroke:#000000;stroke-width:0.088" d="M65.52,45.43L65.52,42.79"/><path style="stroke:#000000;stroke-width:0.088" d="M66.94,45.77L72.62,49.05L72.62,46.41L75.47,46.41L80.32,43.61L80.32,46.25L75.47,49.05L75.47,46.41"/><path style="stroke:#000000;stroke-width:0.088" d="M66.94,43.13L72.62,46.41"/><path style="stroke:#000000;stroke-width:0.088" d="M72.62,49.05L75.47,49.05"/><path style="stroke:#000000;stroke-width:0.088" d="M80.32,46.12L80.32,46.22L80.32,46.20"/><path style="stroke:#000000;stroke-width:0.088" d="M80.32,43.61L80.32,41.97"/><path style="stroke:#000000;stroke-width:0.088" d="M107.92,101.58L107.97,101.70L108.07,101.80L108.22,101.89L108.50,104.76L108.36,104.68L108.26,104.57L108.21,104.45L107.92,101.58L107.93,101.45L108.84,97.83L109.51,96.58L110.80,95.50L112.57,94.72L114.61,94.31L116.68,94.33L118.55,94.78L120.00,95.60L120.86,96.71L121.04,97.96L120.88,99.11L120.71,97.41L120.64,97.31L120.53,97.24L120.38,97.19L120.21,97.17L120.04,97.19L119.88,97.24L119.74,97.32L119.65,97.42L119.51,97.61L118.39,98.58L116.84,99.29L115.04,99.66L113.08,99.64L112.91,99.67L112.75,99.73L112.63,99.81L112.56,99.91L112.53,100.02L112.57,100.13L112.65,100.21L112.78,100.28L115.58,101.29L115.79,101.35L116.07,101.37L116.35,101.34L116.58,101.28L117.31,101.03L117.91,107.10L117.18,107.35L116.96,107.41L116.67,107.44L116.39,107.42L116.18,107.36L116.04,105.93"/><path style="stroke:#000000;stroke-width:0.088" d="M108.50,104.76L109.96,105.39L110.18,105.45L110.42,105.46L110.67,105.43L110.90,105.35L111.09,105.24L111.23,105.12"/><path style="stroke:#000000;stroke-width:0.088" d="M108.22,101.89L109.67,102.51L109.89,102.57L110.14,102.59L110.39,102.56L110.62,102.48L110.80,102.37L111.09,105.24"/><path style="stroke:#000000;stroke-width:0.088" d="M109.67,102.51L109.96,105.39"/><path style="stroke:#000000;stroke-width:0.088" d="M113.83,105.39L113.83,105.38L113.91,105.35L114.02,105.32L114.15,105.29L114.31,105.27L114.47,105.27L114.62,105.30L114.74,105.36L114.80,105.44L114.83,105.53L114.81,105.62L114.81,105.63L114.83,105.64L114.85,105.65L114.87,105.66L114.90,105.66L115.48,105.57L115.97,105.38L116.37,105.11L116.47,105.02L116.48,105.01L116.65,104.83L116.76,104.58L116.76,104.57L116.76,104.30L116.68,104.07L116.52,103.90L116.34,103.79L116.26,102.97L114.65,103.26L114.62,103.26L114.60,103.25L114.58,103.24L114.57,103.23L114.57,103.21L114.59,103.16L114.58,103.06L114.52,102.97L114.42,102.89L114.27,102.85L114.10,102.84L113.94,102.86L113.79,102.92L113.72,102.97L113.67,103.00L113.60,103.10L113.59,103.21L113.63,103.30L113.68,103.35L113.69,103.37L113.68,103.39L113.67,103.42L113.64,103.43L113.61,103.45L113.59,103.45L112.46,103.66L112.41,103.67L112.37,103.66L112.33,103.65L111.30,103.21L111.13,103.11L111.03,102.97L111.00,102.82L111.05,102.67L111.18,102.53L111.89,101.94L111.85,101.51L111.94,101.42L112.02,101.28L112.02,101.13L111.96,101.00L111.83,100.89L111.71,100.82L110.45,100.08L109.72,99.08L109.63,97.97L110.17,96.85L111.28,95.88L112.84,95.17L114.64,94.81L116.47,94.83L118.12,95.24L119.38,95.98L120.11,96.97L120.13,97.18"/><path style="stroke:#000000;stroke-width:0.088" d="M111.30,103.21L111.59,106.08L111.42,105.98L111.31,105.85L111.29,105.69L111.00,102.82"/><path style="stroke:#000000;stroke-width:0.088" d="M110.80,102.37L111.85,101.51"/><path style="stroke:#000000;stroke-width:0.088" d="M110.35,99.94L110.46,99.73L111.57,98.76L113.12,98.05L114.92,97.68L116.76,97.70L118.41,98.11L118.72,98.29"/><path style="stroke:#000000;stroke-width:0.088" d="M111.59,106.08L112.61,106.52L112.65,106.53L112.70,106.54L112.75,106.53L113.88,106.33L113.90,106.32L113.93,106.31L113.95,106.29L113.97,106.27L113.97,106.25L113.89,105.45L113.78,105.34L113.62,105.14L113.57,104.98L113.56,104.82L113.59,104.65L113.73,104.35L113.76,104.25L113.77,104.18L113.72,103.78L113.77,104.18"/><path style="stroke:#000000;stroke-width:0.088" d="M111.89,101.94L112.50,101.45L112.67,101.34"/><path style="stroke:#000000;stroke-width:0.088" d="M112.61,106.52L112.33,103.65"/><path style="stroke:#000000;stroke-width:0.088" d="M112.46,103.66L112.75,106.53"/><path style="stroke:#000000;stroke-width:0.088" d="M112.78,100.28L112.93,101.88L112.81,101.81L112.72,101.72L112.69,101.62L112.53,100.02"/><path style="stroke:#000000;stroke-width:0.088" d="M112.02,101.13L112.09,101.78"/><path style="stroke:#000000;stroke-width:0.088" d="M113.51,106.40L116.18,107.36"/><path style="stroke:#000000;stroke-width:0.088" d="M112.93,101.88L115.74,102.89L115.95,102.95L116.23,102.97L116.26,102.97"/><path style="stroke:#000000;stroke-width:0.088" d="M113.78,105.34L113.88,106.33"/><path style="stroke:#000000;stroke-width:0.088" d="M114.83,105.88L114.81,105.84L114.70,105.77L114.56,105.72L114.39,105.71L114.22,105.74L114.07,105.80L113.96,105.88L113.94,105.91"/><path style="stroke:#000000;stroke-width:0.088" d="M113.57,104.74L113.80,104.45L113.99,104.08L114.11,103.70L114.14,103.33L114.14,103.29"/><path style="stroke:#000000;stroke-width:0.088" d="M113.97,103.33L113.97,103.40L113.92,103.74L113.80,104.09L113.76,104.16"/><path style="stroke:#000000;stroke-width:0.088" d="M113.69,104.44L113.59,103.45"/><path style="stroke:#000000;stroke-width:0.088" d="M113.72,103.78L113.68,103.39L113.72,103.78"/><path style="stroke:#000000;stroke-width:0.088" d="M113.76,104.10L113.69,103.37"/><path style="stroke:#000000;stroke-width:0.088" d="M114.59,103.44L114.54,103.39L114.42,103.32L114.27,103.29L114.11,103.29L113.96,103.33L113.82,103.41L113.72,103.53L113.71,103.58"/><path style="stroke:#000000;stroke-width:0.088" d="M114.90,105.66L114.95,106.13L114.91,106.13L114.89,106.13L114.87,106.12L114.86,106.10L114.86,106.08"/><path style="stroke:#000000;stroke-width:0.088" d="M114.86,106.09L114.84,105.93"/><path style="stroke:#000000;stroke-width:0.088" d="M114.95,106.13L116.55,105.84L116.47,105.02"/><path style="stroke:#000000;stroke-width:0.088" d="M114.81,105.62L114.86,106.10L114.83,105.79"/><path style="stroke:#000000;stroke-width:0.088" d="M116.34,103.79L116.08,103.68L115.61,103.60L115.09,103.64L114.71,103.73L114.69,103.73L114.66,103.73L114.64,103.73L114.62,103.71L114.62,103.70L114.57,103.23L114.59,103.39"/><path style="stroke:#000000;stroke-width:0.088" d="M114.71,103.73L114.66,103.26"/><path style="stroke:#000000;stroke-width:0.088" d="M114.57,103.21L114.59,103.41"/><path style="stroke:#000000;stroke-width:0.088" d="M115.74,102.89L115.58,101.29"/><path style="stroke:#000000;stroke-width:0.088" d="M117.18,107.35L116.58,101.28"/><path style="stroke:#000000;stroke-width:0.088" d="M116.31,100.18L116.29,99.98L116.26,99.99L116.24,100.01L116.23,100.03L116.23,100.06L116.24,100.08L116.68,100.63L116.70,100.65L116.73,100.66L116.76,100.66L116.80,100.66L116.84,100.65L116.92,100.63L116.94,100.63L116.97,100.63L116.99,100.64L117.00,100.65L117.31,101.03"/><path style="stroke:#000000;stroke-width:0.088" d="M116.29,99.98L118.37,99.26L118.40,99.25L118.44,99.25L118.48,99.25L118.51,99.26L118.53,99.28L118.57,99.72"/><path style="stroke:#000000;stroke-width:0.088" d="M118.37,99.26L118.39,99.50"/><path style="stroke:#000000;stroke-width:0.088" d="M119.62,106.33L119.73,106.46L119.13,100.40L118.82,100.02L118.81,100.00L118.81,99.99L118.82,99.97L118.84,99.96L118.91,99.93L118.94,99.92L118.97,99.90L118.98,99.87L118.98,99.85L118.97,99.83L118.98,99.88"/><path style="stroke:#000000;stroke-width:0.088" d="M118.81,100.00L118.81,100.02"/><path style="stroke:#000000;stroke-width:0.088" d="M119.13,100.40L119.86,100.14L120.46,106.21L119.73,106.46"/><path style="stroke:#000000;stroke-width:0.088" d="M118.97,99.83L118.53,99.28"/><path style="stroke:#000000;stroke-width:0.088" d="M118.82,100.02L118.82,100.03"/><path style="stroke:#000000;stroke-width:0.088" d="M119.86,100.14L120.08,100.04L120.25,99.91L120.37,99.76L120.43,99.60L120.72,97.51"/><path style="stroke:#000000;stroke-width:0.088" d="M120.46,106.21L120.68,106.11L120.86,105.98L120.98,105.83L121.04,105.67L120.43,99.60"/><path style="stroke:#000000;stroke-width:0.088" d="M121.04,105.67L121.33,103.58L121.17,101.98L121.33,100.84L121.04,97.96"/><path style="stroke:#000000;stroke-width:0.088" d="M129.94,115.64L130.57,121.96L130.57,122.16L130.47,122.36L130.28,122.53L130.01,122.67L129.69,122.74L129.36,122.75L129.26,122.73L129.05,122.69L128.80,122.58L128.64,122.41L128.57,122.22L127.94,115.77L128.02,115.57L128.20,115.39L128.46,115.25L128.52,115.23L128.77,115.16L129.10,115.14L129.42,115.18L129.68,115.29L129.86,115.45L129.94,115.64L129.92,115.84L129.79,116.03L129.56,116.20L129.27,116.31L128.95,116.37L128.62,116.35L128.33,116.28L128.10,116.14L127.97,115.97L127.94,115.77"/><path style="stroke:#000000;stroke-width:0.088" d="M128.67,131.11L128.72,131.46L128.92,131.73L128.96,131.78L129.37,132.02L129.89,132.16L130.48,132.18L131.06,132.08L131.59,131.88L131.70,131.80L131.99,131.58L132.23,131.24L132.27,130.87L132.56,133.75L132.51,134.11L132.27,134.46L131.87,134.75L131.35,134.96L130.76,135.05L130.18,135.03L129.65,134.89L129.25,134.65L129.01,134.34L128.96,133.98L128.67,131.11L128.75,130.91"/><path style="stroke:#000000;stroke-width:0.088" d="M128.92,131.58L128.79,131.38L128.33,126.82L128.43,127.15L128.71,127.43L128.92,127.53L129.14,127.63L129.66,127.73L130.22,127.71L130.76,127.59L131.22,127.36L131.56,127.07L131.72,126.73L131.71,126.39L132.18,130.95L132.10,131.29L131.84,131.61L131.44,131.88L130.93,132.05L130.37,132.12L129.82,132.08L129.35,131.93L128.99,131.69L128.92,131.58"/><path style="stroke:#000000;stroke-width:0.088" d="M128.33,126.82L128.49,125.44L128.58,125.71L128.81,125.94L128.92,126.00L129.16,126.11L129.59,126.19L130.05,126.17L130.50,126.07L130.88,125.89L131.11,125.68L131.15,125.64L131.29,125.36L131.28,125.08L131.71,126.39"/><path style="stroke:#000000;stroke-width:0.088" d="M128.49,125.44L128.23,122.80L128.29,122.52L128.56,122.10"/><path style="stroke:#000000;stroke-width:0.088" d="M128.23,122.80L128.32,123.07L128.55,123.30L128.90,123.47L129.11,123.51L129.32,123.55L129.79,123.53L130.23,123.43L130.62,123.24L130.89,123.00L131.03,122.72L131.02,122.44L131.28,125.08"/><path style="stroke:#000000;stroke-width:0.088" d="M131.02,122.44L130.85,122.19L130.56,121.89"/><path style="stroke:#000000;stroke-width:0.088" d="M132.27,130.87L132.14,130.56"/><path style="fill:#ffffff" d="M170.86,57.83L197.27,57.83L197.27,52.19L170.86,52.19z"/><path style="stroke:#35414c;stroke-width:0.255" d="M170.86,57.83L197.27,57.83L197.27,52.19L170.86,52.19z"/><path style="stroke:#35404c;stroke-width:0.250;stroke-opacity:0.00" d="M170.86,57.83L197.27,57.83L197.27,52.19L170.86,52.19z"/><text xml:space="preserve" fill="#333f4b" stroke-width="0" x="171.57" y="56.25" font-size="3.49" opacity="1.00" font-family="Arial" font-weight="bold" font-style="italic">F24978989A</text><path style="fill:#ffffff" d="M170.86,97.72L197.27,97.72L197.27,92.08L170.86,92.08z"/><path style="stroke:#35414c;stroke-width:0.255" d="M170.86,97.72L197.27,97.72L197.27,92.08L170.86,92.08z"/><path style="stroke:#35404c;stroke-width:0.250;stroke-opacity:0.00" d="M170.86,97.72L197.27,97.72L197.27,92.08L170.86,92.08z"/><text xml:space="preserve" fill="#333f4b" stroke-width="0" x="171.57" y="96.13" font-size="3.46" opacity="1.00" font-family="Arial" font-weight="bold" font-style="italic">SE6912</text><path style="fill:#ffffff" d="M170.86,47.80L197.27,47.80L197.27,42.15L170.86,42.15z"/><path style="stroke:#35414c;stroke-width:0.255" d="M170.86,47.80L197.27,47.80L197.27,42.15L170.86,42.15z"/><path style="stroke:#35404c;stroke-width:0.250;stroke-opacity:0.00" d="M170.86,47.80L197.27,47.80L197.27,42.15L170.86,42.15z"/><text xml:space="preserve" fill="#333f4b" stroke-width="0" x="171.57" y="46.21" font-size="3.41" opacity="1.00" font-family="Arial" font-weight="bold" font-style="italic">CI3491</text><path style="fill:#ffffff" d="M170.86,77.91L197.27,77.91L197.27,72.27L170.86,72.27z"/><path style="stroke:#35414c;stroke-width:0.255" d="M170.86,77.91L197.27,77.91L197.27,72.27L170.86,72.27z"/><path style="stroke:#35404c;stroke-width:0.250;stroke-opacity:0.00" d="M170.86,77.91L197.27,77.91L197.27,72.27L170.86,72.27z"/><text xml:space="preserve" fill="#333f4b" stroke-width="0" x="171.57" y="76.32" font-size="3.49" opacity="1.00" font-family="Arial" font-weight="bold" font-style="italic">F36971379A</text><path style="fill:#ffffff" d="M170.86,87.68L197.27,87.68L197.27,82.04L170.86,82.04z"/><path style="stroke:#35414c;stroke-width:0.255" d="M170.86,87.68L197.27,87.68L197.27,82.04L170.86,82.04z"/><path style="stroke:#35404c;stroke-width:0.250;stroke-opacity:0.00" d="M170.86,87.68L197.27,87.68L197.27,82.04L170.86,82.04z"/><text xml:space="preserve" fill="#333f4b" stroke-width="0" x="171.57" y="86.10" font-size="3.45" opacity="1.00" font-family="Arial" font-weight="bold" font-style="italic">SE6004</text><path style="fill:#ffffff" d="M170.86,107.76L197.27,107.76L197.27,102.12L170.86,102.12z"/><path style="stroke:#35414c;stroke-width:0.255" d="M170.86,107.76L197.27,107.76L197.27,102.12L170.86,102.12z"/><path style="stroke:#35404c;stroke-width:0.250;stroke-opacity:0.00" d="M170.86,107.76L197.27,107.76L197.27,102.12L170.86,102.12z"/><text xml:space="preserve" fill="#333f4b" stroke-width="0" x="171.57" y="106.17" font-size="3.46" opacity="1.00" font-family="Arial" font-weight="bold" font-style="italic">SE6918</text><path style="fill:#ffffff" d="M170.86,67.87L197.27,67.87L197.27,62.23L170.86,62.23z"/><path style="stroke:#35414c;stroke-width:0.255" d="M170.86,67.87L197.27,67.87L197.27,62.23L170.86,62.23z"/><path style="stroke:#35404c;stroke-width:0.250;stroke-opacity:0.00" d="M170.86,67.87L197.27,67.87L197.27,62.23L170.86,62.23z"/><text xml:space="preserve" fill="#333f4b" stroke-width="0" x="171.57" y="66.28" font-size="3.56" opacity="1.00" font-family="Arial" font-weight="bold" font-style="italic">F31623514X</text><g id="paperID" visibility="hidden" opacity="0.00" transform="scale(0.000100)"><path style="stroke:#000000;stroke-width:0.500;fill:#e6e6e6;fill-rule:evenodd" d="M-2000.00,-2000.00L2210.00,-2000.00L2210.00,2150.00L-2000.00,2150.00zM0.00,0.00L210.00,0.00L210.00,150.00L0.00,150.00z"/><path style="fill:#000000;fill-opacity:0.118" d="M3.00,150.00L210.00,150.00L210.00,3.00L213.00,3.00L213.00,153.00L3.00,153.00z"/></g><g id="hotspot.0" onmouseover="ShowHotSpot(evt,'0')" onmouseout="HideHotSpot(evt,'0')" onmousemove="ShowToolTip(evt,'0',&quot;PX009033.1&quot;)" opacity="0"><path style="fill:#00ff00;fill-rule:evenodd" d="M197.53,42.58L197.52,47.74L197.23,48.25L170.80,48.18L170.80,42.43L197.26,42.32zM91.03,49.50L91.33,49.99L91.82,55.31L92.10,56.09L96.84,57.95L97.12,58.73L97.12,63.04L96.57,65.67L96.26,65.88L90.16,68.00L87.34,67.19L83.91,65.86L83.63,62.27L84.15,58.53L84.60,57.92L87.88,56.68L87.31,50.10L87.78,49.47L88.83,48.94L90.00,48.94zM87.08,69.82L88.40,70.09L90.45,70.11L95.73,68.21L96.31,68.23L96.61,68.75L100.02,104.25L99.13,104.70L99.49,107.86L99.51,111.40L99.13,111.81L94.94,113.43L93.67,113.43L92.11,112.87L91.02,111.58L90.53,106.80L88.38,103.92L88.14,101.26L88.06,98.89L88.69,98.47L86.29,73.25L85.52,71.65L85.24,71.40L84.97,69.56L84.97,67.42z"/></g><g id="hotspot.1" onmouseover="ShowHotSpot(evt,'1')" onmouseout="HideHotSpot(evt,'1')" onmousemove="ShowToolTip(evt,'1',&quot;F24978991A&quot;)" opacity="0"><path style="fill:#00ff00;fill-rule:evenodd" d="M80.20,42.10L80.24,46.43L75.92,48.98L72.27,48.97L66.76,45.77L61.71,45.54L59.88,44.44L59.62,51.96L58.33,54.11L47.45,60.41L46.66,60.61L43.50,58.73L43.48,44.27L47.47,37.43L47.64,34.70L57.15,29.12L57.76,29.12zM197.53,52.62L197.52,57.78L197.23,58.29L170.80,58.22L170.80,52.46L197.26,52.36z"/></g><g id="hotspot.2" onmouseover="ShowHotSpot(evt,'2')" onmouseout="HideHotSpot(evt,'2')" onmousemove="ShowToolTip(evt,'2',&quot;F31623514X&quot;)" opacity="0"><path style="fill:#00ff00;fill-rule:evenodd" d="M89.19,20.96L90.53,22.53L90.78,24.39L91.85,36.64L90.94,37.84L88.86,38.67L86.01,38.67L84.46,37.84L83.90,36.56L82.85,25.98L82.83,22.61L84.08,21.22L85.93,20.42L87.62,20.42zM197.53,62.66L197.52,67.82L197.23,68.32L170.80,68.25L170.80,62.50L197.26,62.40z"/></g><g id="hotspot.3" onmouseover="ShowHotSpot(evt,'3')" onmouseout="HideHotSpot(evt,'3')" onmousemove="ShowToolTip(evt,'3',&quot;F36971383A&quot;)" opacity="0"><path style="fill:#00ff00;fill-rule:evenodd" d="M112.73,54.48L118.79,62.15L118.79,65.17L117.89,66.64L105.49,70.10L104.52,70.10L102.14,69.56L100.03,66.89L90.45,70.11L88.40,70.09L87.08,69.82L84.15,66.34L84.09,66.10L87.34,67.19L90.16,68.00L96.26,65.88L96.57,65.67L97.12,63.04L97.13,58.73L96.52,57.67L109.18,54.24L111.38,54.24zM197.53,72.70L197.52,77.86L197.23,78.36L170.80,78.29L170.80,72.54L197.26,72.43z"/></g><g id="hotspot.4" onmouseover="ShowHotSpot(evt,'4')" onmouseout="HideHotSpot(evt,'4')" onmousemove="ShowToolTip(evt,'4',&quot;SE6004&quot;)" opacity="0"><path style="fill:#00ff00;fill-rule:evenodd" d="M197.53,82.47L197.52,87.63L197.23,88.14L170.80,88.06L170.80,82.31L197.26,82.21zM119.06,100.45L119.29,104.00L119.82,109.24L119.51,109.47L119.57,112.09L121.20,128.57L120.09,129.10L118.26,110.76L117.62,109.46L117.71,109.15L117.45,108.68L117.48,107.44L117.73,107.17L117.45,102.32L117.19,101.00L116.65,100.70L116.56,100.22L118.26,99.65z"/></g><g id="hotspot.5" onmouseover="ShowHotSpot(evt,'5')" onmouseout="HideHotSpot(evt,'5')" onmousemove="ShowToolTip(evt,'5',&quot;SE6918&quot;)" opacity="0"><path style="fill:#00ff00;fill-rule:evenodd" d="M118.52,94.91L119.87,95.68L120.91,97.02L121.16,98.88L121.16,105.31L120.87,106.08L119.83,106.65L119.29,104.00L119.06,100.45L118.26,99.65L116.56,100.22L116.65,100.70L117.19,101.00L117.72,104.96L117.65,107.35L115.60,107.35L113.52,106.56L112.43,106.57L111.39,105.99L111.14,105.51L109.78,105.50L108.73,104.97L108.18,104.46L108.20,100.54L109.18,97.29L109.70,96.50L112.16,94.99L113.41,94.66L117.46,94.66zM197.53,102.55L197.52,107.70L197.23,108.21L170.80,108.14L170.80,102.39L197.26,102.28zM118.50,98.35L118.46,98.59L116.68,99.51L112.61,99.93L112.45,101.67L112.20,101.91L111.70,100.94L110.49,100.27L110.57,99.79L112.09,98.62L113.40,98.07L114.73,97.83L116.66,97.83z"/></g><g id="hotspot.6" onmouseover="ShowHotSpot(evt,'6')" onmouseout="HideHotSpot(evt,'6')" onmousemove="ShowToolTip(evt,'6',&quot;SE6912&quot;)" opacity="0"><path style="fill:#00ff00;fill-rule:evenodd" d="M197.53,92.51L197.52,97.67L197.23,98.17L170.80,98.10L170.80,92.35L197.26,92.24zM129.90,115.76L130.69,122.11L130.94,122.38L131.44,125.84L131.73,126.61L132.53,134.10L132.27,134.65L131.39,135.08L129.85,135.09L129.08,134.54L128.82,132.43L128.26,122.74L128.56,121.88L128.00,115.62L129.12,115.27z"/></g></g></svg>
