<?xml version="1.0" encoding="UTF-8" standalone="no"?>
<svg xmlns="http://www.w3.org/2000/svg" xmlns:xlink="http://www.w3.org/1999/xlink" width="210.000mm" height="150.000mm" viewBox="0.000000 0.000000 210.000000 150.000000" stroke-linejoin="round" stroke-linecap="round" fill="none" fill-rule="evenodd"><desc>Composer Export</desc><script type="text/ecmascript"><![CDATA[
if(typeof(top) != "undefined")
{
	top.ShowPaper = ShowPaper;
}
function ShowHotSpot(evt,hotspotid)
{
	var svgDocument = evt.target.ownerDocument;
	var strId = "hotspot."+hotspotid;
	var hotspot = svgDocument.getElementById(strId);
	if(hotspot)
		hotspot.setAttribute("opacity",".5");
}
function HideHotSpot(evt,hotspotid)
{
	var svgDocument = evt.target.ownerDocument;
	var strId = "hotspot."+hotspotid;
	var hotspot = svgDocument.getElementById(strId);
	if(hotspot)
		hotspot.setAttribute("opacity","0");

	var toolTip = svgDocument.getElementById('ToolTip');
	if(toolTip)
		toolTip.setAttribute("visibility","hidden");
}
function ShowToolTip(evt,hotspotid,strTooltip)
{
	if(strTooltip=="")
	return;

	// change text
	var svgDocument = evt.target.ownerDocument;
	var tiptext = svgDocument.getElementById('ToolTipText');
	if( !tiptext )
	return;
	tiptext.firstChild.nodeValue = " " + strTooltip + "  " ;

	// show tooltip before, else some refresh issue

	var toolTip = svgDocument.getElementById('ToolTip');
	if(!toolTip)
	return;

	toolTip.setAttribute("visibility","visible");
	toolTip.setAttribute("opacity",".95");

	// move tooltip
	// get viewbox

	var root = svgDocument.documentElement;
	var vbox = (root.getAttribute("viewBox")).split(' ');
	var x0 = parseFloat(vbox[0]);
	var y0 = parseFloat(vbox[1]);
	var vboxW = parseFloat(vbox[2]);
	var vboxH = parseFloat(vbox[3]);

	// get default width of svg

	var strW = root.getAttribute("width");
	var svgW = parseFloat(strW);
	if(strW.indexOf('mm') != -1)
	svgW *= 3.779;

	var strH = root.getAttribute("height");
	var svgH = parseFloat(strH);
	if(strH.indexOf('mm') != -1)
	svgH *= 3.779;  	// 96 dpi  -> 96/25.4 = 3.779

	// update the viewbox / width / height if svg is embedded in html with zoom fit all
	var realx0 = x0;
	var realy0 = y0;
	var realvboxW = vboxW;
	var realvboxH = vboxH;
	var realsvgW = svgW;
	var realsvgH = svgH;

	if ((typeof(top) == "undefined") || (typeof(top.svgctl1) != "undefined")) // embedded in html
	{
		// get window size in pxl

		svgW = window.innerWidth;
		svgH = window.innerHeight;

		// calculate real viewbox

		realsvgW = svgW;
		realsvgH = svgH;
		if((svgW / svgH) > (vboxW / vboxH))
		{
			realvboxW = (vboxH * svgW) / svgH;
			realvboxH = vboxH;
			realx0 = x0 - (realvboxW - vboxW)/2 ;
		}
		else
		{
			realvboxH = (vboxW * svgH) / svgW;
			realvboxW = vboxW;
			realy0 = y0 - (realvboxH - vboxH)/2 ;
		}
	}

	// get user zoom/pan

	var newScale = root.currentScale;
	var translation = root.currentTranslate;

	// transform pxl to user unit

	var xPos = (((evt.clientX+10- translation.x)/newScale) * realvboxW)/realsvgW  + realx0 ;
	var yPos = (((evt.clientY+5- translation.y)/newScale) * realvboxH)/ realsvgH  + realy0 ;
	var scaleForWidth = ( (1 / newScale) * realvboxH) / realsvgH;

	// move tooltip

	toolTip.setAttribute("transform", "translate(" + xPos + "," + yPos + ")" );

	// resize tooltip

	var fontsize = 12;
	tiptext.setAttribute("font-size",fontsize*scaleForWidth);
	tiptext.setAttribute("y", fontsize*scaleForWidth);
	var tipBG = svgDocument.getElementById('ToolTipBG');
	var outline = tiptext.getBBox();
	if(tipBG)
	{
		tipBG.setAttribute("stroke-width", 1*scaleForWidth);
		tipBG.setAttribute("width", Number(outline.width) );
		tipBG.setAttribute("height", Number(outline.height) + fontsize*.5*scaleForWidth );
	}
	var ToolTipShadow = svgDocument.getElementById('ToolTipShadow');
	if(ToolTipShadow)
	{
		ToolTipShadow.setAttribute("width", Number(outline.width) );
		ToolTipShadow.setAttribute("height", Number(outline.height) + fontsize*.5*scaleForWidth );
		ToolTipShadow.setAttribute("x", 3*scaleForWidth);
		ToolTipShadow.setAttribute("y", 3*scaleForWidth);
	}
}
function ShowPaper()
{
  var svgDocument = getDocument();
  var paper = svgDocument.getElementById("paperID");
  if(paper)
  {
    paper.setAttribute("transform","scale(1)");
    paper.setAttribute("opacity","1");
    paper.setAttribute("visibility","visible");
  }
  var svg = svgDocument.getRootElement();
  if(svg)
  {
    svg.setAttribute("width","220.000mm");
    svg.setAttribute("height","160.000mm");
    svg.setAttribute("viewBox","-5.000000 -5.000000 220.000000 160.000000");
  }
}
]]></script><defs/><g><path style="fill:#ffffff" d="M209.93,149.99L0.04,149.99L0.04,0.04L209.93,0.04z"/><path style="fill:#8aa7bf" d="M90.68,68.85L91.70,69.48L92.73,70.61L93.22,71.51L93.86,73.15L93.85,74.59L93.73,75.10L93.11,75.88L92.17,76.33L91.44,76.33L90.81,76.19L90.27,76.33L89.03,76.33L88.03,75.81L87.28,74.92L86.89,74.29L86.87,71.54L87.65,70.55L87.76,69.90L88.16,69.28L89.12,68.72L90.31,68.72z"/><path style="fill:#8aa7bf" d="M90.81,91.78L91.72,92.40L92.73,93.55L93.36,94.68L93.86,96.09L93.85,97.53L93.69,98.13L93.04,98.87L92.04,99.27L91.58,99.26L90.93,99.13L88.78,99.14L87.65,98.37L86.88,97.11L86.89,94.37L87.65,93.35L87.90,92.59L88.24,92.17L89.24,91.52L90.19,91.52z"/><path style="fill:#8aa7bf" d="M108.81,108.76L109.19,109.26L109.19,109.95L108.94,110.58L108.14,111.31L107.42,111.29L98.66,106.24L98.40,105.99L98.41,104.74L99.00,103.95L99.51,103.69L99.94,103.69z"/><path style="fill:#8aa7bf" d="M108.81,119.91L109.19,120.41L109.19,121.10L108.94,121.73L108.14,122.46L107.42,122.44L98.66,117.39L98.40,117.14L98.41,115.89L99.00,115.10L99.51,114.84L99.94,114.84z"/><path style="fill:#2ac7ce" d="M136.43,17.28L136.44,22.77L136.06,23.41L128.54,27.80L127.06,28.73L126.41,29.98L126.29,81.18L121.95,83.68L121.49,83.67L115.65,80.25L115.02,79.23L115.01,22.25L116.23,20.18L128.79,12.96L128.95,12.96z"/><path style="fill:#2ac7ce" d="M52.41,54.41L52.42,78.91L51.53,80.42L51.10,81.00L37.30,89.01L36.82,89.01L34.68,87.73L34.67,73.32L44.77,55.92L49.84,53.00L50.01,53.00z"/><path style="fill:#2ac7ce" d="M131.49,100.02L131.49,124.52L130.17,126.63L116.22,134.74L116.04,134.74L113.62,133.35L113.61,119.19L123.84,101.53L128.91,98.61L129.08,98.62z"/><path style="fill:#01ff02" d="M124.91,54.02L124.90,54.58L124.65,55.08L124.36,55.30L123.75,55.30L123.75,54.69L124.11,54.04L124.48,53.76L124.64,53.75z"/><path style="fill:#01ff02" d="M119.21,55.66L119.58,56.31L119.72,56.98L119.42,57.33L118.94,57.33L118.45,56.93L118.05,56.19L118.04,55.44L118.39,55.15L118.56,55.15z"/><path style="fill:#01ff02" d="M47.99,62.51L47.99,62.93L47.86,63.32L47.43,63.78L46.84,63.79L46.83,63.18L47.19,62.53L47.56,62.25L47.73,62.24z"/><path style="fill:#01ff02" d="M44.70,64.41L44.56,65.22L44.14,65.68L43.54,65.69L43.54,64.95L44.05,64.32L44.32,64.16z"/><path style="fill:#01ff02" d="M88.93,73.27L89.30,74.05L89.30,74.35L89.05,74.31L88.53,73.54L88.35,72.78z"/><path style="fill:#01ff02" d="M124.92,76.56L124.90,77.13L124.77,77.51L124.35,77.97L123.75,77.98L123.75,77.25L124.27,76.50L124.78,76.43z"/><path style="fill:#01ff02" d="M118.84,78.21L119.32,78.73L119.72,79.79L119.40,80.26L118.81,80.13L118.57,79.99L118.05,78.99L118.05,78.39L118.26,78.08L118.69,78.09z"/><path style="fill:#01ff02" d="M88.66,95.83L89.30,96.85L89.30,97.27L88.78,96.86L88.39,96.10L88.40,95.70z"/><path style="fill:#01ff02" d="M127.07,108.12L126.93,108.93L126.50,109.40L125.91,109.40L125.90,108.67L126.40,108.03L126.94,107.98z"/><path style="fill:#01ff02" d="M108.69,109.51L108.69,110.21L108.39,110.66L107.75,110.71L107.78,110.06L108.38,109.38L108.56,109.37z"/><path style="fill:#01ff02" d="M123.69,109.97L123.77,110.45L123.21,111.30L122.61,111.31L122.61,110.57L123.11,109.93L123.63,109.90z"/><path style="fill:#01ff02" d="M108.69,121.36L108.39,121.82L107.75,121.86L107.78,121.21L108.25,120.67L108.68,120.67z"/><path style="fill:#999999" d="M109.46,59.08L110.71,60.36L111.47,61.88L111.72,62.89L111.72,64.20L111.33,65.08L109.84,65.99L109.01,66.31L108.64,66.70L107.87,66.94L107.29,67.50L106.61,67.70L106.22,68.08L105.72,68.34L105.47,68.59L104.97,68.73L103.60,68.73L102.48,68.08L101.71,67.21L100.94,66.07L100.56,64.93L100.44,64.29L100.44,63.05L100.89,62.11L105.91,59.28L106.99,58.59L107.37,58.46L108.18,58.46z"/><path style="fill:#999999" d="M108.68,81.52L109.69,82.15L110.60,83.15L111.22,84.18L111.72,85.70L111.72,87.14L111.56,87.61L111.04,88.23L110.03,88.74L109.78,88.99L109.27,89.12L108.39,89.77L107.75,89.89L107.66,90.04L107.18,90.45L106.60,90.64L106.41,90.82L105.51,91.45L104.84,91.66L103.73,91.67L102.97,91.28L102.35,90.89L101.72,90.13L100.95,88.87L100.56,87.87L100.44,87.22L100.44,85.86L101.02,84.92L102.86,83.85L103.50,83.61L104.07,83.17L104.77,82.84L105.34,82.41L105.91,82.22L106.48,81.77L107.24,81.39L108.30,81.39z"/><path style="fill:#f2f2f2" d="M78.01,75.31L78.03,111.35L69.99,115.99L69.90,117.55L68.73,118.28L68.25,118.28L58.37,112.57L58.37,89.41L59.52,86.00L60.01,83.58L61.75,77.34L62.56,76.00L63.69,74.97L70.55,71.00z"/><path style="fill:#00007f" d="M119.21,36.03L119.20,36.32L119.04,36.44L118.82,36.41L118.42,35.91L118.43,35.43L118.69,35.38z"/><path style="fill:#ffffff" d="M50.82,55.75L50.39,56.72L49.76,57.50L49.75,56.72L50.34,55.79L50.61,55.65z"/><path style="fill:#ffffff" d="M108.17,59.72L109.08,60.34L109.95,61.50L110.58,63.02L110.58,64.47L110.32,63.28L109.82,62.01L108.94,60.86L108.30,60.23L107.28,59.60L106.98,59.47L107.54,59.47z"/><path style="fill:#ffffff" d="M107.93,60.85L108.95,61.99L109.44,62.89L109.81,64.28L109.69,64.84L109.43,64.82L109.27,64.70L108.93,63.53L108.57,62.75L107.81,61.61L106.65,60.61L106.60,60.23L106.90,60.22z"/><path style="fill:#ffffff" d="M105.00,60.90L105.27,60.86L105.27,61.16L105.00,61.13z"/><path style="fill:#ffffff" d="M104.12,61.65L104.15,61.78L103.99,61.78L103.79,61.51z"/><path style="fill:#ffffff" d="M107.30,62.12L108.31,63.79L108.31,64.07L107.80,63.64L106.91,62.38L106.72,61.63z"/><path style="fill:#ffffff" d="M105.52,62.38L105.65,63.18L104.88,62.39L104.88,61.87z"/><path style="fill:#ffffff" d="M104.38,63.77L105.39,65.55L105.52,66.48L104.76,65.80L103.99,64.42L103.73,63.66L103.74,63.14z"/><path style="fill:#ffffff" d="M103.10,64.17L103.74,65.56L104.38,66.43L105.41,67.33L105.39,67.62L104.87,67.59L104.25,67.19L103.11,65.93L102.46,64.30L102.47,62.55L102.85,62.50z"/><path style="fill:#ffffff" d="M101.83,64.68L102.51,66.40L102.21,66.06L101.70,64.93L101.58,64.42L101.58,63.14z"/><path style="fill:#ffffff" d="M107.30,65.41L107.30,66.10L106.78,65.81L106.47,64.67z"/><path style="fill:#ffffff" d="M102.75,66.58L102.74,66.73L102.61,66.72L102.51,66.40z"/><path style="fill:#ffffff" d="M103.36,67.32L103.20,67.36L103.24,67.20z"/><path style="fill:#ffffff" d="M40.16,70.56L39.87,71.06L39.85,70.80L40.09,70.49z"/><path style="fill:#ffffff" d="M50.82,78.30L50.51,79.15L49.76,80.06L49.75,79.40L50.08,78.72L50.73,78.22z"/><path style="fill:#ffffff" d="M40.16,81.71L39.87,82.21L39.85,81.95L40.09,81.64z"/><path style="fill:#ffffff" d="M108.82,83.03L109.71,84.04L110.20,84.94L110.58,85.96L110.58,87.40L110.20,85.70L109.20,84.04L108.17,83.04L107.67,82.66L107.11,82.40L107.67,82.41z"/><path style="fill:#ffffff" d="M107.66,83.55L108.70,84.55L109.56,86.08L109.81,87.21L109.71,87.76L109.28,87.64L108.93,86.47L108.44,85.43L107.68,84.42L107.03,83.80L106.65,83.55L106.65,83.03z"/><path style="fill:#ffffff" d="M104.95,83.91L105.08,83.78L105.26,83.80L105.28,84.08L105.12,84.08z"/><path style="fill:#ffffff" d="M103.83,84.42L104.12,84.44L104.13,84.60L103.85,84.56z"/><path style="fill:#ffffff" d="M107.68,85.56L108.31,86.72L108.31,87.01L106.91,85.32L106.72,84.57L106.77,84.56z"/><path style="fill:#ffffff" d="M105.40,85.18L105.78,86.25L105.66,86.22L105.14,85.56L104.88,85.32L104.84,84.80L105.00,84.79z"/><path style="fill:#ffffff" d="M104.50,86.84L105.51,88.87L105.52,89.42L104.76,88.73L103.99,87.35L103.73,86.60L103.70,86.07L103.86,86.06z"/><path style="fill:#ffffff" d="M103.09,86.98L103.61,88.24L104.64,89.62L105.50,90.26L105.38,90.56L105.00,90.53L104.13,90.00L103.24,88.98L102.59,87.61L102.47,87.10L102.47,85.48L102.85,85.44z"/><path style="fill:#ffffff" d="M101.83,87.61L101.96,87.99L102.87,89.79L102.61,89.63L101.70,87.86L101.58,87.35L101.58,85.94z"/><path style="fill:#ffffff" d="M107.29,88.35L107.29,89.04L106.78,88.74L106.65,88.24L106.65,87.72z"/><path style="fill:#ffffff" d="M129.21,101.33L128.70,102.35L128.41,102.58L128.15,102.60L128.28,101.92L128.97,100.94L129.21,100.90z"/><path style="fill:#ffffff" d="M118.97,116.05L118.69,116.55L118.67,116.29L118.90,115.98z"/><path style="fill:#ffffff" d="M129.21,124.02L128.83,124.77L128.27,125.25L128.02,125.24L128.64,123.95L129.06,123.45L129.20,123.44z"/><path style="fill:#ffffff" d="M118.97,127.20L118.69,127.70L118.67,127.44L118.90,127.13z"/><path style="stroke:#000000;stroke-width:0.088" d="M115.30,79.64L114.91,78.95L114.91,22.43L122.54,26.83L122.54,83.36L121.77,83.80L115.67,80.27L115.30,79.64"/><path style="stroke:#000000;stroke-width:0.088" d="M114.91,22.43L116.18,20.22L128.89,12.88L136.52,17.29L123.81,24.63L122.54,26.83"/><path style="stroke:#000000;stroke-width:0.088" d="M116.18,20.22L123.81,24.63"/><path style="stroke:#000000;stroke-width:0.088" d="M117.71,78.83L117.82,79.26L118.02,79.69L118.29,80.06L118.56,80.31L118.62,80.35L118.95,80.52L119.26,80.55L119.51,80.44L119.68,80.20L119.69,80.13L119.74,79.86L119.69,79.45L119.54,79.02L119.29,78.61L118.99,78.27L118.72,78.07L118.66,78.04L118.40,77.96L118.33,77.94L118.05,77.98L117.84,78.16L117.72,78.45L117.71,78.83"/><path style="stroke:#000000;stroke-width:0.088" d="M117.71,55.93L117.82,56.36L118.02,56.78L118.29,57.16L118.56,57.40L118.62,57.45L118.95,57.62L119.26,57.65L119.51,57.54L119.68,57.30L119.69,57.23L119.74,56.95L119.69,56.54L119.54,56.11L119.29,55.70L118.99,55.37L118.72,55.17L118.66,55.13L118.33,55.03L118.05,55.07L117.84,55.25L117.72,55.55L117.71,55.93"/><path style="stroke:#000000;stroke-width:0.088" d="M119.72,79.75L119.68,79.97L119.54,80.18L119.34,80.27L119.07,80.24L118.78,80.10L118.51,79.85L118.27,79.53L118.10,79.17L118.02,78.81L118.02,78.48L118.12,78.23L118.30,78.08L118.54,78.05L118.79,78.12"/><path style="stroke:#000000;stroke-width:0.088" d="M119.72,56.85L119.68,57.07L119.54,57.27L119.34,57.36L119.07,57.34L118.78,57.20L118.51,56.95L118.27,56.63L118.10,56.27L118.02,55.90L118.02,55.58L118.12,55.33L118.30,55.18L118.54,55.14L118.79,55.22"/><path style="stroke:#000000;stroke-width:0.088" d="M118.56,45.58L118.47,45.50L118.23,45.23L118.05,44.92L117.93,44.58L117.89,44.27L117.89,42.50L117.93,42.23L118.05,42.03L118.23,41.93L118.47,41.93L118.72,42.03L118.98,42.22L119.21,42.49L119.39,42.81L119.51,43.14L119.55,43.46L119.55,45.22L119.51,45.49L119.39,45.69L119.21,45.80L118.98,45.80L118.72,45.70L118.56,45.58"/><path style="stroke:#000000;stroke-width:0.088" d="M117.89,44.27L119.53,43.32"/><path style="stroke:#000000;stroke-width:0.088" d="M117.89,42.50L118.72,42.03"/><path style="stroke:#000000;stroke-width:0.088" d="M118.51,36.34L118.67,36.49L118.72,36.52L118.83,36.57L118.99,36.59L119.11,36.53L119.20,36.41L119.23,36.24L119.20,36.03L119.13,35.82L119.01,35.61L118.86,35.45L118.69,35.33L118.53,35.28L118.38,35.30L118.28,35.39L118.22,35.54L118.22,35.73L118.27,35.94L118.37,36.15L118.51,36.34"/><path style="stroke:#000000;stroke-width:0.088" d="M118.75,35.37L118.65,35.34L118.53,35.36L118.44,35.43L118.40,35.55L118.39,35.71L118.44,35.89L118.52,36.06L118.65,36.24L118.77,36.34L118.90,36.41L119.03,36.42L119.14,36.37L119.20,36.28L119.22,36.18"/><path style="stroke:#000000;stroke-width:0.088" d="M119.34,45.72L119.25,45.77"/><path style="stroke:#000000;stroke-width:0.088" d="M122.55,83.35L122.54,83.36L126.35,81.15L126.32,81.17"/><path style="stroke:#000000;stroke-width:0.088" d="M123.69,77.68L123.69,77.84L123.68,77.70L123.69,77.55L123.77,77.23L123.93,76.91L124.14,76.63L124.38,76.42L124.63,76.30L124.86,76.29L125.05,76.38L125.16,76.56L125.21,76.82L125.16,77.13L125.04,77.46L124.86,77.76L124.63,78.01L124.38,78.18L124.14,78.25L123.93,78.21L123.77,78.07L123.69,77.84L123.69,77.58"/><path style="stroke:#000000;stroke-width:0.088" d="M123.69,77.69L123.76,77.88L123.89,78.00L124.07,78.03L124.26,77.98L124.33,77.95L124.49,77.83L124.68,77.62L124.84,77.36L124.94,77.09L124.97,76.84L124.94,76.60L124.84,76.44L124.68,76.37L124.49,76.38L124.35,76.44"/><path style="stroke:#000000;stroke-width:0.088" d="M123.70,54.90L123.68,55.09L123.69,55.23L123.77,55.46L123.93,55.60L124.14,55.64L124.38,55.57L124.63,55.40L124.86,55.15L125.04,54.85L125.16,54.52L125.21,54.21L125.19,54.12L125.16,53.95L125.05,53.77L124.86,53.68L124.63,53.69L124.38,53.81L124.14,54.02L123.93,54.30L123.77,54.62L123.70,54.90"/><path style="stroke:#000000;stroke-width:0.088" d="M124.35,53.83L124.49,53.77L124.68,53.76L124.84,53.83L124.94,53.99L124.98,54.21L124.94,54.48L124.84,54.75L124.68,55.01L124.49,55.22L124.27,55.36L124.07,55.42L123.89,55.39L123.76,55.27L123.69,55.08L123.68,55.03"/><path style="stroke:#000000;stroke-width:0.088" d="M126.35,81.15L126.35,30.50L126.41,30.01L126.59,29.50L126.87,29.01L127.23,28.60L127.62,28.30L136.01,23.45L136.52,22.57L136.52,17.29"/><path style="stroke:#000000;stroke-width:0.088" d="M128.57,16.52L129.85,15.78L130.14,15.66L130.49,15.59L130.85,15.59L131.20,15.66L131.50,15.78L131.71,15.95L131.83,16.15L131.83,16.36L131.71,16.57L131.50,16.74L130.23,17.47L129.93,17.59L129.58,17.66L129.22,17.66L128.87,17.59L128.57,17.47L128.36,17.30L128.25,17.10L128.25,16.89L128.36,16.69L128.57,16.52L128.57,17.47"/><path style="stroke:#000000;stroke-width:0.088" d="M129.85,15.78L129.85,17.61"/><path style="stroke:#000000;stroke-width:0.088" d="M101.29,88.65L101.75,89.50L102.42,90.32L103.17,90.91L103.94,91.23L104.64,91.22L105.06,91.01L105.11,90.97L105.35,91.31L104.80,91.69L104.06,91.74L103.33,91.50L102.47,90.93L101.68,90.08L101.02,89.05L100.60,88.03L100.39,86.93L100.44,85.96L100.74,85.25L100.69,85.37"/><path style="stroke:#000000;stroke-width:0.088" d="M100.74,85.25L100.75,85.21L101.24,84.79L101.96,84.64L102.79,84.84L103.65,85.37L104.39,86.11L105.07,87.10L105.54,88.17L105.75,89.16L105.74,89.56L105.73,89.60L105.72,89.60L105.71,89.60L105.65,90.39L105.34,91.05L105.27,91.10"/><path style="stroke:#000000;stroke-width:0.088" d="M100.70,85.35L100.70,85.34"/><path style="stroke:#000000;stroke-width:0.088" d="M100.98,87.74L100.98,87.72L101.25,88.56L101.29,88.64"/><path style="stroke:#000000;stroke-width:0.088" d="M101.25,88.56L101.24,88.55"/><path style="stroke:#000000;stroke-width:0.088" d="M101.05,87.55L101.26,88.33L101.60,89.09L102.04,89.79L102.56,90.40"/><path style="stroke:#000000;stroke-width:0.088" d="M101.06,86.22L100.99,86.83L101.05,87.56"/><path style="stroke:#000000;stroke-width:0.088" d="M100.98,87.72L100.88,86.80L101.04,86.03L101.04,86.04"/><path style="stroke:#000000;stroke-width:0.088" d="M100.88,86.80L100.88,86.79"/><path style="stroke:#000000;stroke-width:0.088" d="M101.54,86.07L101.50,86.73L101.61,87.48L101.61,87.48"/><path style="stroke:#000000;stroke-width:0.088" d="M101.46,85.49L101.51,85.46L101.42,85.50L101.04,86.03"/><path style="stroke:#000000;stroke-width:0.088" d="M101.25,85.75L101.06,86.22"/><path style="stroke:#000000;stroke-width:0.088" d="M100.89,85.09L101.13,84.85L101.22,84.81"/><path style="stroke:#000000;stroke-width:0.088" d="M101.52,85.46L101.21,85.79"/><path style="stroke:#000000;stroke-width:0.088" d="M101.88,85.31L101.51,85.46L102.00,85.26L102.65,85.32"/><path style="stroke:#000000;stroke-width:0.088" d="M106.74,88.45L106.73,88.42L106.47,87.57L106.07,86.74L105.53,85.94L104.91,85.28L104.21,84.74L103.52,84.40L103.47,84.38L102.80,84.24L102.75,84.24L102.08,84.33L102.03,84.35L101.52,84.65L101.48,84.68L101.47,84.69"/><path style="stroke:#000000;stroke-width:0.088" d="M101.38,84.73L101.66,84.60L101.72,84.58L101.77,84.57L102.41,84.55L102.46,84.55L103.14,84.74L103.18,84.76L103.87,85.15L104.56,85.73"/><path style="stroke:#000000;stroke-width:0.088" d="M101.11,84.90L101.24,84.79"/><path style="stroke:#000000;stroke-width:0.088" d="M101.62,84.64L101.24,84.79"/><path style="stroke:#000000;stroke-width:0.088" d="M101.61,87.46L101.85,88.22L102.22,88.98L102.69,89.67L103.22,90.23"/><path style="stroke:#000000;stroke-width:0.088" d="M101.75,89.50L101.76,89.50"/><path style="stroke:#000000;stroke-width:0.088" d="M101.92,85.29L101.76,86.08L101.82,87.14L101.89,87.47L102.29,88.58L102.89,89.59L103.55,90.34L104.33,90.88L104.38,90.90"/><path style="stroke:#000000;stroke-width:0.088" d="M103.90,90.71L103.65,90.53L103.62,90.50L103.03,89.89L102.51,89.14L102.09,88.29L101.80,87.41L101.75,87.16L101.65,86.29L101.71,85.56L101.54,86.08"/><path style="stroke:#000000;stroke-width:0.088" d="M101.70,85.57L101.90,85.30"/><path style="stroke:#000000;stroke-width:0.088" d="M102.09,85.27L101.97,85.27"/><path style="stroke:#000000;stroke-width:0.088" d="M103.29,91.47L102.47,90.93"/><path style="stroke:#000000;stroke-width:0.088" d="M102.55,90.39L102.55,90.38L103.06,90.82L102.52,90.38L102.57,90.42"/><path style="stroke:#000000;stroke-width:0.088" d="M102.32,90.20L102.32,90.19"/><path style="stroke:#000000;stroke-width:0.088" d="M102.45,87.03L102.48,87.17L102.73,87.97L103.10,88.73L103.56,89.40L104.08,89.95"/><path style="stroke:#000000;stroke-width:0.088" d="M102.45,87.03L102.37,86.28L102.42,85.61"/><path style="stroke:#000000;stroke-width:0.088" d="M105.55,90.13L105.14,89.92L104.38,89.21L104.17,88.95L103.57,87.96L103.19,87.01L102.99,85.90L103.02,85.50"/><path style="stroke:#000000;stroke-width:0.088" d="M102.91,86.00L102.92,86.07"/><path style="stroke:#000000;stroke-width:0.088" d="M102.92,86.07L102.91,86.01L103.08,86.89L103.12,87.02L103.46,87.90L103.93,88.72L104.47,89.42L105.11,90.00L105.53,90.26"/><path style="stroke:#000000;stroke-width:0.088" d="M102.90,85.98L102.90,85.44"/><path style="stroke:#000000;stroke-width:0.088" d="M102.42,85.62L102.51,85.33"/><path style="stroke:#000000;stroke-width:0.088" d="M102.65,85.32L103.42,85.70L104.18,86.36L104.85,87.25L105.33,88.24L105.65,89.39L105.69,89.55L105.70,89.59L105.71,89.60"/><path style="stroke:#000000;stroke-width:0.088" d="M102.38,85.30L102.84,85.42"/><path style="stroke:#000000;stroke-width:0.088" d="M102.29,84.30L102.37,84.20L102.40,84.15L102.45,84.12L102.98,83.80"/><path style="stroke:#000000;stroke-width:0.088" d="M102.94,84.27L103.02,84.22L103.26,84.18L104.10,84.26L104.88,84.61L105.75,85.29L106.51,86.19L106.71,86.50L107.20,87.52L107.43,88.40L107.44,89.30L107.18,89.97L107.05,90.11L106.70,90.27"/><path style="stroke:#000000;stroke-width:0.088" d="M102.98,83.79L103.04,83.77L103.73,83.66L103.78,83.66L104.48,83.78"/><path style="stroke:#000000;stroke-width:0.088" d="M103.53,91.06L103.07,90.82L103.06,90.82"/><path style="stroke:#000000;stroke-width:0.088" d="M103.20,90.22L103.20,90.22L103.76,90.65L104.29,90.88"/><path style="stroke:#000000;stroke-width:0.088" d="M103.70,86.41L103.94,87.20L104.31,87.97L104.76,88.65L104.88,88.80L105.39,89.32"/><path style="stroke:#000000;stroke-width:0.088" d="M103.63,85.88L103.70,86.43L103.70,86.43"/><path style="stroke:#000000;stroke-width:0.088" d="M103.79,84.44L103.82,84.39"/><path style="stroke:#000000;stroke-width:0.088" d="M103.77,84.52L103.81,84.42"/><path style="stroke:#000000;stroke-width:0.088" d="M104.25,84.46L103.65,84.37L103.66,84.37"/><path style="stroke:#000000;stroke-width:0.088" d="M103.54,84.41L103.70,84.38"/><path style="stroke:#000000;stroke-width:0.088" d="M103.95,83.21L103.90,83.24L103.43,83.67L103.39,83.71"/><path style="stroke:#000000;stroke-width:0.088" d="M103.94,91.23L103.94,91.23"/><path style="stroke:#000000;stroke-width:0.088" d="M104.27,90.88L104.73,90.95"/><path style="stroke:#000000;stroke-width:0.088" d="M103.86,91.19L104.00,91.22"/><path style="stroke:#000000;stroke-width:0.088" d="M104.06,89.94L104.60,90.34L105.08,90.54"/><path style="stroke:#000000;stroke-width:0.088" d="M104.55,86.85L104.56,86.89L104.99,87.74L105.30,88.18"/><path style="stroke:#000000;stroke-width:0.088" d="M104.97,87.49L104.57,86.88"/><path style="stroke:#000000;stroke-width:0.088" d="M104.85,91.65L105.37,91.52L105.42,91.49L105.47,91.46L105.89,91.10L105.92,91.06L106.21,90.48L106.33,89.75L106.27,88.96L106.26,88.93L106.04,88.09L105.67,87.25L105.17,86.45L104.57,85.75L104.28,85.50"/><path style="stroke:#000000;stroke-width:0.088" d="M104.25,84.46L104.24,84.76"/><path style="stroke:#000000;stroke-width:0.088" d="M104.13,84.70L104.14,84.44"/><path style="stroke:#000000;stroke-width:0.088" d="M107.32,88.24L107.12,87.52L106.79,86.77L106.34,86.07L105.79,85.43L105.20,84.93L104.84,84.71L104.21,84.44L104.21,84.44"/><path style="stroke:#000000;stroke-width:0.088" d="M107.93,89.58L108.04,89.56L108.49,89.13L108.68,88.52L108.65,87.63L108.59,87.32L108.20,86.28L107.59,85.27L106.91,84.51L106.05,83.86L105.77,83.72L104.88,83.46L104.09,83.56L103.91,83.68"/><path style="stroke:#000000;stroke-width:0.088" d="M104.46,83.77L104.46,83.76"/><path style="stroke:#000000;stroke-width:0.088" d="M105.24,84.11L104.52,83.79L104.48,83.78"/><path style="stroke:#000000;stroke-width:0.088" d="M104.56,83.71L105.09,83.67"/><path style="stroke:#000000;stroke-width:0.088" d="M104.44,83.77L104.60,83.71"/><path style="stroke:#000000;stroke-width:0.088" d="M104.44,83.77L104.44,83.77"/><path style="stroke:#000000;stroke-width:0.088" d="M103.95,83.21L104.00,83.19L104.49,83.00L104.55,82.99L105.21,82.96"/><path style="stroke:#000000;stroke-width:0.088" d="M105.35,91.31L105.33,91.22L105.28,91.11L105.21,91.04L105.11,90.97"/><path style="stroke:#000000;stroke-width:0.088" d="M105.37,90.57L105.02,90.54L105.03,90.54"/><path style="stroke:#000000;stroke-width:0.088" d="M104.68,90.96L105.08,90.85"/><path style="stroke:#000000;stroke-width:0.088" d="M105.34,90.63L105.03,90.90L105.03,90.90"/><path style="stroke:#000000;stroke-width:0.088" d="M105.33,90.65L105.33,90.65L105.53,90.26"/><path style="stroke:#000000;stroke-width:0.088" d="M105.38,89.31L105.59,89.45"/><path style="stroke:#000000;stroke-width:0.088" d="M105.18,87.93L105.35,88.29"/><path style="stroke:#000000;stroke-width:0.088" d="M104.89,87.37L105.09,87.78L105.14,87.85"/><path style="stroke:#000000;stroke-width:0.088" d="M104.84,84.71L104.86,85.24"/><path style="stroke:#000000;stroke-width:0.088" d="M105.46,84.24L105.44,84.10L105.45,83.97L105.38,83.91L105.35,83.85L105.35,83.82L105.34,83.97L105.35,84.18"/><path style="stroke:#000000;stroke-width:0.088" d="M105.25,84.11L105.57,84.31L106.27,84.90L106.89,85.61L107.34,86.29L107.74,87.12L107.99,87.94L108.00,87.97L108.08,88.74L108.00,89.40L107.99,89.46L107.72,90.02L107.69,90.07L107.56,90.22L107.51,90.25L107.08,90.51L107.02,90.53L106.97,90.54"/><path style="stroke:#000000;stroke-width:0.088" d="M105.36,83.74L105.35,83.82"/><path style="stroke:#000000;stroke-width:0.088" d="M104.93,83.97L105.07,83.68"/><path style="stroke:#000000;stroke-width:0.088" d="M104.94,83.97L104.94,83.94"/><path style="stroke:#000000;stroke-width:0.088" d="M105.66,83.81L105.06,83.67L105.07,83.67"/><path style="stroke:#000000;stroke-width:0.088" d="M109.17,88.87L109.32,88.83L109.74,88.38L109.82,88.18L109.93,87.37L109.75,86.38L109.39,85.48L108.77,84.49L108.54,84.21L107.70,83.43L106.80,82.92L106.04,82.75L105.27,82.87L105.09,82.97"/><path style="stroke:#000000;stroke-width:0.088" d="M110.15,88.65L110.18,88.61L110.43,88.09L110.45,88.04L110.46,87.99L110.54,87.33L110.46,86.56L110.45,86.52L110.22,85.76L109.84,84.93L109.32,84.15L109.08,83.85L108.41,83.19L107.70,82.68L106.98,82.37L106.93,82.35L106.23,82.24L106.18,82.24L105.49,82.36L105.44,82.38L105.39,82.41L104.91,82.70L104.86,82.74L104.82,82.78L104.67,82.98"/><path style="stroke:#000000;stroke-width:0.088" d="M107.80,89.86L108.19,89.83L108.25,89.82L108.30,89.80L108.74,89.54L108.79,89.51L108.82,89.46L109.12,89.02L109.15,88.97L109.29,88.35L109.30,88.30L109.28,87.57L109.11,86.81L108.78,85.98L108.32,85.17L108.08,84.85L107.46,84.15L106.75,83.57L106.03,83.18L105.98,83.16L105.27,82.97L105.22,82.96"/><path style="stroke:#000000;stroke-width:0.088" d="M106.30,89.43L106.33,89.44L106.44,89.46L106.50,89.46L106.61,89.44L106.71,89.41L106.79,89.36L106.84,89.29L106.84,89.23L106.81,89.94L106.80,89.99L106.60,90.56L106.58,90.61L106.54,90.65L106.19,91.04L106.14,91.07L106.09,91.10L105.74,91.23"/><path style="stroke:#000000;stroke-width:0.088" d="M105.56,89.05L105.61,89.72L105.52,90.31"/><path style="stroke:#000000;stroke-width:0.088" d="M105.52,88.92L105.56,89.07L105.56,89.06"/><path style="stroke:#000000;stroke-width:0.088" d="M107.32,88.27L107.29,88.24L107.06,88.02L106.37,87.15L105.89,86.25L105.58,85.25"/><path style="stroke:#000000;stroke-width:0.088" d="M107.33,88.37L107.00,88.07L106.44,87.38L105.99,86.60L105.97,86.57L105.61,85.70L105.49,85.18"/><path style="stroke:#000000;stroke-width:0.088" d="M106.12,84.77L106.06,84.03L106.06,84.00"/><path style="stroke:#000000;stroke-width:0.088" d="M105.98,83.96L105.89,84.00L105.78,84.03L105.66,84.03L105.55,84.01L105.45,83.97L105.49,83.77"/><path style="stroke:#000000;stroke-width:0.088" d="M105.64,83.79L105.64,83.79L106.19,84.07L106.80,84.52"/><path style="stroke:#000000;stroke-width:0.088" d="M106.16,82.95L106.76,83.05"/><path style="stroke:#000000;stroke-width:0.088" d="M106.20,82.96L105.68,83.04"/><path style="stroke:#000000;stroke-width:0.088" d="M105.65,83.07L105.74,83.03"/><path style="stroke:#000000;stroke-width:0.088" d="M106.15,83.24L106.15,83.23"/><path style="stroke:#000000;stroke-width:0.088" d="M106.15,83.24L106.27,82.97"/><path style="stroke:#000000;stroke-width:0.088" d="M106.25,81.88L106.20,81.92L105.84,82.29"/><path style="stroke:#000000;stroke-width:0.088" d="M106.97,90.54L106.60,90.57"/><path style="stroke:#000000;stroke-width:0.088" d="M107.02,89.72L106.81,89.82"/><path style="stroke:#000000;stroke-width:0.088" d="M107.13,89.59L106.83,89.44"/><path style="stroke:#000000;stroke-width:0.088" d="M106.84,89.23L106.74,88.45"/><path style="stroke:#000000;stroke-width:0.088" d="M107.05,89.69L106.82,89.60"/><path style="stroke:#000000;stroke-width:0.088" d="M106.78,88.72L106.82,88.76"/><path style="stroke:#000000;stroke-width:0.088" d="M106.81,88.76L107.33,89.05"/><path style="stroke:#000000;stroke-width:0.088" d="M106.67,84.44L106.89,85.20L107.25,85.96L107.72,86.67L108.24,87.26"/><path style="stroke:#000000;stroke-width:0.088" d="M106.79,84.51L107.37,85.11L107.86,85.79L108.24,86.53L108.49,87.26L108.55,87.50L108.54,87.50"/><path style="stroke:#000000;stroke-width:0.088" d="M106.66,84.41L106.67,84.46"/><path style="stroke:#000000;stroke-width:0.088" d="M107.97,83.75L107.35,83.31L106.72,83.03"/><path style="stroke:#000000;stroke-width:0.088" d="M106.63,83.09L106.65,83.03"/><path style="stroke:#000000;stroke-width:0.088" d="M106.60,83.49L106.63,83.08"/><path style="stroke:#000000;stroke-width:0.088" d="M109.88,84.13L109.15,83.22L108.31,82.54L107.46,82.17L106.67,82.14L106.41,82.27"/><path style="stroke:#000000;stroke-width:0.088" d="M106.26,81.88L106.86,81.64L106.92,81.63L107.56,81.63L107.61,81.63L108.29,81.85"/><path style="stroke:#000000;stroke-width:0.088" d="M109.09,81.70L109.10,81.70L108.58,81.47L108.26,81.36L107.89,81.31L107.27,81.37L107.21,81.38L107.16,81.40L106.64,81.68L106.60,81.71L106.56,81.76"/><path style="stroke:#000000;stroke-width:0.088" d="M107.21,89.49L106.97,89.79"/><path style="stroke:#000000;stroke-width:0.088" d="M107.31,89.04L107.34,89.05"/><path style="stroke:#000000;stroke-width:0.088" d="M107.20,89.53L107.34,89.06"/><path style="stroke:#000000;stroke-width:0.088" d="M107.34,89.09L107.35,88.48L107.32,88.23"/><path style="stroke:#000000;stroke-width:0.088" d="M108.45,87.13L108.41,87.10L107.69,86.33L107.08,85.36L106.98,85.39"/><path style="stroke:#000000;stroke-width:0.088" d="M107.08,85.36L106.98,85.38"/><path style="stroke:#000000;stroke-width:0.088" d="M106.98,82.37L107.00,82.35L106.96,82.36"/><path style="stroke:#000000;stroke-width:0.088" d="M107.00,82.35L107.01,82.34"/><path style="stroke:#000000;stroke-width:0.088" d="M107.46,82.34L108.02,82.51"/><path style="stroke:#000000;stroke-width:0.088" d="M107.48,82.34L106.98,82.34"/><path style="stroke:#000000;stroke-width:0.088" d="M108.06,88.88L108.26,88.99"/><path style="stroke:#000000;stroke-width:0.088" d="M108.09,89.11L108.04,89.12"/><path style="stroke:#000000;stroke-width:0.088" d="M108.33,88.93L108.06,89.13L108.07,89.13"/><path style="stroke:#000000;stroke-width:0.088" d="M108.32,88.97L108.51,88.61"/><path style="stroke:#000000;stroke-width:0.088" d="M108.08,88.77L108.38,88.85"/><path style="stroke:#000000;stroke-width:0.088" d="M108.57,88.23L108.12,87.98L107.95,87.82"/><path style="stroke:#000000;stroke-width:0.088" d="M107.99,87.97L108.31,88.21"/><path style="stroke:#000000;stroke-width:0.088" d="M108.00,87.99L108.29,88.20L108.56,88.32"/><path style="stroke:#000000;stroke-width:0.088" d="M108.23,87.24L108.54,87.49"/><path style="stroke:#000000;stroke-width:0.088" d="M107.96,83.74L108.54,84.33L109.11,85.10L109.48,85.84L109.73,86.57"/><path style="stroke:#000000;stroke-width:0.088" d="M108.60,82.85L108.61,82.86L108.00,82.50"/><path style="stroke:#000000;stroke-width:0.088" d="M108.25,81.36L108.26,81.36"/><path style="stroke:#000000;stroke-width:0.088" d="M109.03,82.28L108.34,81.86L108.30,81.85"/><path style="stroke:#000000;stroke-width:0.088" d="M109.71,89.02L109.66,89.04L109.14,89.16L109.09,89.17"/><path style="stroke:#000000;stroke-width:0.088" d="M109.02,89.17L109.09,89.17"/><path style="stroke:#000000;stroke-width:0.088" d="M108.51,88.61L108.50,88.67"/><path style="stroke:#000000;stroke-width:0.088" d="M108.54,87.47L108.59,88.12L108.53,88.52"/><path style="stroke:#000000;stroke-width:0.088" d="M110.65,86.20L110.65,86.20L110.46,85.46L110.21,84.87L110.14,84.70L109.71,83.99L109.18,83.35L108.58,82.84"/><path style="stroke:#000000;stroke-width:0.088" d="M109.04,82.28L109.71,82.88L110.30,83.59L110.79,84.39L111.15,85.24L111.36,86.10"/><path style="stroke:#000000;stroke-width:0.088" d="M110.04,82.48L109.94,82.36L109.29,81.85L109.10,81.70L109.10,81.71"/><path style="stroke:#000000;stroke-width:0.088" d="M109.71,89.01L109.76,88.98L110.15,88.65"/><path style="stroke:#000000;stroke-width:0.088" d="M109.41,88.37L109.66,88.10"/><path style="stroke:#000000;stroke-width:0.088" d="M109.64,88.14L109.78,87.77"/><path style="stroke:#000000;stroke-width:0.088" d="M109.28,88.39L109.44,88.33"/><path style="stroke:#000000;stroke-width:0.088" d="M109.28,87.64L109.77,87.78"/><path style="stroke:#000000;stroke-width:0.088" d="M109.78,87.80L109.82,87.22L109.73,86.56"/><path style="stroke:#000000;stroke-width:0.088" d="M109.29,87.92L109.32,87.94"/><path style="stroke:#000000;stroke-width:0.088" d="M109.30,87.93L109.69,88.00"/><path style="stroke:#000000;stroke-width:0.088" d="M110.43,88.10L110.45,88.07L110.75,87.38L110.77,86.48L110.74,86.23L110.43,85.17L109.88,84.13"/><path style="stroke:#000000;stroke-width:0.088" d="M110.77,88.36L110.76,88.37"/><path style="stroke:#000000;stroke-width:0.088" d="M111.36,86.10L111.40,86.90L111.27,87.61L111.25,87.66L110.96,88.18L110.93,88.22L110.45,88.59L110.39,88.61"/><path style="stroke:#000000;stroke-width:0.088" d="M110.13,88.67L110.39,88.61"/><path style="stroke:#000000;stroke-width:0.088" d="M111.36,87.96L111.35,87.97L111.30,88.00L110.97,88.26L110.77,88.37L110.73,88.37"/><path style="stroke:#000000;stroke-width:0.088" d="M110.52,87.50L110.59,87.38"/><path style="stroke:#000000;stroke-width:0.088" d="M110.69,86.86L110.59,87.39L110.59,87.38"/><path style="stroke:#000000;stroke-width:0.088" d="M110.69,86.86L110.65,86.18"/><path style="stroke:#000000;stroke-width:0.088" d="M110.71,83.26L110.05,82.48"/><path style="stroke:#000000;stroke-width:0.088" d="M110.71,83.27L111.27,84.25L111.67,85.36"/><path style="stroke:#000000;stroke-width:0.088" d="M110.91,88.26L110.91,88.26L110.86,88.27"/><path style="stroke:#000000;stroke-width:0.088" d="M111.35,87.97L111.43,87.87L111.69,87.35L111.82,86.43L111.67,85.37"/><path style="stroke:#000000;stroke-width:0.088" d="M68.47,118.39L58.29,112.52L58.29,89.95L58.43,89.08L59.59,85.83L59.59,85.75L67.17,90.12L67.17,90.19L68.33,94.79L68.47,95.82L68.47,118.39L69.99,117.51L69.99,94.94L68.47,95.82"/><path style="stroke:#000000;stroke-width:0.088" d="M67.17,90.12L67.21,89.59L67.32,89.03L59.74,84.65L59.63,85.21L59.59,85.75"/><path style="stroke:#000000;stroke-width:0.088" d="M59.74,84.65L61.48,78.14L61.85,77.14L62.41,76.20L63.10,75.41L63.87,74.83L70.52,70.99L78.10,75.36L71.45,79.20L70.68,79.78L69.99,80.58L69.43,81.52L69.06,82.51L67.32,89.03"/><path style="stroke:#000000;stroke-width:0.088" d="M61.48,78.14L69.06,82.51"/><path style="stroke:#000000;stroke-width:0.088" d="M71.45,79.20L63.87,74.83"/><path style="stroke:#000000;stroke-width:0.088" d="M67.17,90.19L68.69,89.31L69.86,93.91L68.33,94.79"/><path style="stroke:#000000;stroke-width:0.088" d="M78.10,75.36L78.10,111.33L69.99,116.02"/><path style="stroke:#000000;stroke-width:0.088" d="M69.99,94.94L69.86,93.91"/><path style="stroke:#000000;stroke-width:0.088" d="M72.75,104.68L72.70,104.32L73.78,104.95L73.45,105.08L73.14,105.07L72.91,104.94L72.75,104.68"/><path style="stroke:#000000;stroke-width:0.088" d="M72.70,104.32L72.75,103.90L72.91,103.47L73.14,103.05L73.45,102.70L73.78,102.45L75.81,101.27L76.15,101.14L76.45,101.15L76.69,101.28L76.84,101.54L76.89,101.90L76.84,102.31L76.69,102.75L76.45,103.17L76.15,103.52L75.81,103.77L73.78,104.95"/><path style="stroke:#000000;stroke-width:0.088" d="M72.78,93.56L72.75,93.52L72.70,93.16L73.78,93.79L73.45,93.92L73.14,93.92L72.91,93.78L72.78,93.56"/><path style="stroke:#000000;stroke-width:0.088" d="M72.70,93.16L72.75,92.75L72.84,92.49L72.91,92.31L73.14,91.90L73.45,91.54L73.78,91.29L75.81,90.12L76.15,89.98L76.45,89.99L76.69,90.13L76.84,90.38L76.89,90.74L76.84,91.16L76.69,91.59L76.45,92.01L76.15,92.36L75.81,92.61L73.67,91.37"/><path style="stroke:#000000;stroke-width:0.088" d="M75.81,103.77L73.67,102.53"/><path style="stroke:#000000;stroke-width:0.088" d="M75.81,92.61L73.78,93.79"/><path style="stroke:#000000;stroke-width:0.088" d="M76.64,101.26L76.45,101.15"/><path style="stroke:#000000;stroke-width:0.088" d="M76.66,90.11L76.45,89.99"/><path style="stroke:#000000;stroke-width:0.088" d="M86.82,71.61L87.25,71.32L87.83,71.28L88.47,71.53L89.12,72.03L89.70,72.73L90.13,73.52L90.13,76.00L89.70,76.30L89.12,76.33L88.47,76.08L87.83,75.58L87.25,74.88L86.82,74.09L86.82,71.61L87.33,70.84L88.86,69.96L89.44,69.76L90.14,69.88L90.88,70.31L91.58,71.00L92.16,71.87L90.64,72.75L90.37,72.30L89.72,71.51L88.98,70.94L88.25,70.66L87.60,70.70L87.33,70.84"/><path style="stroke:#000000;stroke-width:0.088" d="M88.08,74.47L87.85,74.14L87.69,73.77L87.61,73.41L87.63,73.10L87.74,72.86L87.93,72.72L88.18,72.70L88.46,72.80L88.74,73.01L88.99,73.30L89.19,73.66L89.31,74.02L89.34,74.31L89.34,74.37L89.27,74.65L89.12,74.84L88.90,74.92L88.63,74.88L88.35,74.72L88.08,74.47"/><path style="stroke:#000000;stroke-width:0.088" d="M90.76,76.12L90.93,76.22L91.85,76.41L92.62,76.19L93.16,75.59L93.42,74.66L93.36,73.52L92.99,72.28L92.35,71.08L91.52,70.04L90.57,69.29L89.62,68.90L88.76,68.92L88.09,69.33L87.69,70.11L87.62,70.67"/><path style="stroke:#000000;stroke-width:0.088" d="M89.33,74.40L89.11,74.28L88.84,74.03L88.61,73.70L88.45,73.33L88.38,72.97L88.37,72.87L88.38,72.77"/><path style="stroke:#000000;stroke-width:0.088" d="M88.76,68.92L89.27,68.62L90.13,68.61L91.08,69.00L92.03,69.75L92.86,70.78L93.50,71.98L93.87,73.22L93.93,74.37L93.67,75.29L93.13,75.90L92.62,76.19"/><path style="stroke:#000000;stroke-width:0.088" d="M92.16,71.87L92.16,75.31L90.64,76.19L90.37,76.32L89.72,76.36L89.12,76.33"/><path style="stroke:#000000;stroke-width:0.088" d="M90.13,76.00L90.64,76.19"/><path style="stroke:#000000;stroke-width:0.088" d="M90.13,73.52L90.64,72.75"/><path style="stroke:#000000;stroke-width:0.088" d="M108.36,122.32L108.65,122.09L108.91,121.78L109.10,121.41L109.21,121.03L109.23,120.69L109.15,120.41L108.99,120.22L108.75,120.16L108.47,120.21L108.18,120.39L107.91,120.67L107.68,121.01L107.52,121.39L107.46,121.75L107.46,121.82L107.49,122.07L107.54,122.17L107.61,122.31L107.81,122.44L108.07,122.44L108.36,122.32L108.24,122.39L107.91,122.53L107.61,122.52L98.68,117.37L98.45,117.21L98.33,116.93L98.30,116.68L98.31,116.55L98.39,116.13L98.58,115.70L98.85,115.32L99.17,115.01L99.06,115.08L98.78,115.34L98.55,115.68L98.38,116.05L98.30,116.42L98.30,116.53L98.30,116.68"/><path style="stroke:#000000;stroke-width:0.088" d="M99.17,115.01L99.51,114.83L99.82,114.78L100.08,114.88L108.95,119.99L108.68,119.92L108.36,119.98L108.03,120.19L107.72,120.50L107.46,120.89L107.28,121.32L107.20,121.74L107.21,121.86L107.24,122.11L107.38,122.38L107.61,122.52"/><path style="stroke:#000000;stroke-width:0.088" d="M107.72,121.57L107.72,121.69L107.79,121.84L107.91,121.93L108.06,121.94L108.24,121.88L108.41,121.75L108.57,121.56L108.70,121.34L108.77,121.11L108.79,120.90L108.75,120.72L108.66,120.60L108.52,120.55L108.35,120.58L108.34,120.58"/><path style="stroke:#000000;stroke-width:0.088" d="M107.73,121.83L107.81,122.00L107.94,122.11L108.13,122.12L108.33,122.05L108.54,121.89L108.73,121.67L108.87,121.42L108.96,121.15L108.98,120.94L108.98,120.89L108.93,120.68L108.82,120.54L108.66,120.48L108.46,120.52L108.25,120.63L108.05,120.82L107.89,121.06L107.77,121.33L107.71,121.59L107.73,121.83"/><path style="stroke:#000000;stroke-width:0.088" d="M109.21,121.03L109.24,120.64L109.23,120.53L109.14,120.20L108.95,119.99"/><path style="stroke:#000000;stroke-width:0.088" d="M108.36,111.16L108.65,110.93L108.91,110.62L109.10,110.25L109.21,109.88L109.23,109.53L109.15,109.25L108.99,109.06L108.75,109.00L108.47,109.05L108.18,109.23L107.91,109.51L107.68,109.85L107.52,110.23L107.46,110.60L107.46,110.66L107.49,110.91L107.61,111.15L107.81,111.28L108.07,111.28L108.36,111.16L108.24,111.23L107.91,111.37L107.61,111.37L98.68,106.22L98.45,106.05L98.33,105.77L98.30,105.52L98.31,105.40L98.39,104.97L98.58,104.54L98.85,104.16L99.17,103.86L99.06,103.92L98.78,104.18L98.55,104.52L98.38,104.89L98.30,105.27L98.30,105.37L98.30,105.52"/><path style="stroke:#000000;stroke-width:0.088" d="M99.17,103.86L99.51,103.67L99.82,103.62L100.08,103.72L108.95,108.84L108.68,108.76L108.36,108.83L108.04,109.02L108.03,109.03L107.72,109.34L107.46,109.74L107.28,110.17L107.21,110.57L107.20,110.59L107.24,110.95L107.38,111.22L107.61,111.37"/><path style="stroke:#000000;stroke-width:0.088" d="M108.34,109.42L108.35,109.42L108.52,109.39L108.66,109.44L108.75,109.56L108.79,109.74L108.77,109.96L108.70,110.19L108.57,110.40L108.41,110.59L108.24,110.72L108.06,110.78L107.91,110.77L107.79,110.69L107.72,110.54L107.72,110.42"/><path style="stroke:#000000;stroke-width:0.088" d="M107.78,110.78L107.81,110.85L107.94,110.95L108.13,110.96L108.33,110.89L108.54,110.73L108.73,110.52L108.87,110.26L108.96,109.99L108.98,109.78L108.98,109.73L108.93,109.53L108.82,109.38L108.66,109.33L108.46,109.36L108.25,109.47L108.05,109.66L107.89,109.90L107.77,110.17L107.71,110.43L107.73,110.67L107.78,110.78"/><path style="stroke:#000000;stroke-width:0.088" d="M109.22,109.79L109.24,109.49L109.23,109.37L109.14,109.05L108.95,108.84"/><path style="stroke:#000000;stroke-width:0.088" d="M89.12,99.23L89.72,99.27L90.37,99.23L90.64,99.09L90.13,98.90L89.70,99.20L89.12,99.23L88.47,98.99L87.83,98.49L87.25,97.79L86.82,97.00L86.82,94.52L87.33,93.74L87.60,93.61L88.25,93.57L88.98,93.85L89.72,94.41L90.37,95.20L90.64,95.65L90.13,96.43L89.70,95.64L89.12,94.94L88.47,94.44L87.83,94.19L87.25,94.22L86.82,94.52"/><path style="stroke:#000000;stroke-width:0.088" d="M90.64,99.09L92.16,98.21L92.16,94.77L91.58,93.90L90.88,93.22L90.14,92.79L89.44,92.67L88.86,92.86L87.33,93.74"/><path style="stroke:#000000;stroke-width:0.088" d="M88.34,97.62L88.08,97.37L87.85,97.04L87.69,96.68L87.61,96.32L87.63,96.00L87.69,95.88L87.74,95.76L87.93,95.62L88.18,95.60L88.46,95.70L88.74,95.91L88.99,96.21L89.19,96.56L89.31,96.93L89.34,97.21L89.34,97.27L89.30,97.42L89.27,97.55L89.12,97.75L88.90,97.83L88.63,97.79L88.35,97.63L88.34,97.62"/><path style="stroke:#000000;stroke-width:0.088" d="M87.62,93.58L87.69,93.01L88.09,92.24L88.76,91.82L89.62,91.81L90.57,92.20L91.31,92.78L91.52,92.95L92.35,93.98L92.99,95.18L93.36,96.42L93.42,97.57L93.16,98.49L92.62,99.09L91.85,99.31L90.93,99.12L90.76,99.02"/><path style="stroke:#000000;stroke-width:0.088" d="M89.33,97.31L89.11,97.19L88.84,96.93L88.61,96.60L88.45,96.24L88.38,95.88L88.37,95.77L88.38,95.68"/><path style="stroke:#000000;stroke-width:0.088" d="M88.76,91.82L89.27,91.53L90.13,91.51L91.08,91.90L92.03,92.65L92.86,93.69L93.50,94.89L93.87,96.13L93.93,97.27L93.67,98.20L93.13,98.80L92.62,99.09"/><path style="stroke:#000000;stroke-width:0.088" d="M90.13,98.90L90.13,96.43"/><path style="stroke:#000000;stroke-width:0.088" d="M90.64,95.65L92.16,94.77"/><path style="stroke:#000000;stroke-width:0.088" d="M34.58,87.67L34.87,87.84L34.55,87.65L34.55,73.56L35.82,74.29L35.82,88.39L34.56,87.66"/><path style="stroke:#000000;stroke-width:0.088" d="M34.55,73.56L44.72,55.94L45.59,56.44L45.99,56.68L35.82,74.29"/><path style="stroke:#000000;stroke-width:0.088" d="M35.65,88.29L36.42,88.74L35.82,88.39"/><path style="stroke:#000000;stroke-width:0.088" d="M37.07,89.11L36.73,88.92L37.09,89.12L51.20,80.97L52.47,78.77L52.47,54.40L52.46,54.39"/><path style="stroke:#000000;stroke-width:0.088" d="M36.73,88.92L36.42,88.74L36.73,88.92"/><path style="stroke:#000000;stroke-width:0.088" d="M36.63,88.86L36.42,88.74L36.62,88.85"/><path style="stroke:#000000;stroke-width:0.088" d="M40.16,83.53L39.90,83.45L39.72,83.23L39.64,82.91L39.66,82.50L39.80,82.07L40.02,81.66L40.32,81.30L40.65,81.05L40.98,80.92L41.27,80.93L41.50,81.09L41.63,81.36L41.66,81.73L41.58,82.16L41.40,82.58L41.13,82.98L40.82,83.28L40.48,83.48L40.16,83.53"/><path style="stroke:#000000;stroke-width:0.088" d="M39.69,82.41L39.86,82.24L40.13,81.85L40.31,81.42L40.33,81.29"/><path style="stroke:#000000;stroke-width:0.088" d="M40.16,72.38L39.90,72.29L39.72,72.07L39.64,71.75L39.66,71.35L39.80,70.91L40.02,70.50L40.32,70.14L40.65,69.89L40.98,69.76L41.27,69.78L41.50,69.93L41.63,70.21L41.66,70.57L41.58,71.00L41.40,71.43L41.13,71.82L40.82,72.13L40.48,72.32L40.16,72.38"/><path style="stroke:#000000;stroke-width:0.088" d="M40.33,70.13L40.31,70.26L40.13,70.69L39.86,71.08L39.69,71.25"/><path style="stroke:#000000;stroke-width:0.088" d="M43.50,65.79L43.64,65.96L43.83,66.03L44.07,65.99L44.32,65.85L44.56,65.63L44.76,65.34L44.90,65.02L44.91,64.95L44.97,64.70L44.97,64.60L44.95,64.42L44.86,64.20L44.69,64.08L44.47,64.07L44.22,64.15L43.98,64.34L43.75,64.60L43.58,64.91L43.47,65.23L43.45,65.54L43.50,65.79"/><path style="stroke:#000000;stroke-width:0.088" d="M44.15,64.21L44.30,64.15L44.48,64.17L44.62,64.27L44.70,64.45L44.72,64.60L44.71,64.68L44.67,64.91L44.66,64.95L44.54,65.21L44.37,65.46L44.20,65.62L44.17,65.65L43.96,65.76L43.77,65.79L43.60,65.73L43.49,65.59L43.46,65.43"/><path style="stroke:#000000;stroke-width:0.088" d="M44.72,55.94L49.93,52.93L51.20,53.66L45.99,56.68"/><path style="stroke:#000000;stroke-width:0.088" d="M46.77,63.40L46.75,63.63L46.81,63.88L46.94,64.05L47.14,64.12L47.37,64.08L47.62,63.94L47.86,63.72L48.04,63.46L48.06,63.43L48.21,63.11L48.27,62.79L48.28,62.69L48.26,62.51L48.16,62.30L48.00,62.17L47.78,62.16L47.53,62.25L47.28,62.43L47.06,62.69L46.88,63.00L46.78,63.33L46.77,63.40"/><path style="stroke:#000000;stroke-width:0.088" d="M46.76,63.52L46.80,63.68L46.91,63.82L47.07,63.88L47.27,63.85L47.48,63.74L47.50,63.71L47.68,63.55L47.85,63.31L47.96,63.04L48.02,62.77L48.01,62.54L47.93,62.36L47.79,62.26L47.61,62.25L47.46,62.30"/><path style="stroke:#000000;stroke-width:0.088" d="M50.26,80.41L50.14,80.43L49.91,80.36L49.75,80.17L49.68,79.88L49.70,79.53L49.82,79.15L50.02,78.79L50.28,78.48L50.57,78.26L50.85,78.15L51.11,78.16L51.31,78.29L51.43,78.53L51.45,78.86L51.38,79.23L51.22,79.60L50.99,79.94L50.71,80.21L50.42,80.38L50.26,80.41"/><path style="stroke:#000000;stroke-width:0.088" d="M49.74,80.12L49.93,80.08L50.22,79.91L50.50,79.63L50.72,79.29L50.88,78.91L50.95,78.54L50.92,78.22L50.88,78.15"/><path style="stroke:#000000;stroke-width:0.088" d="M50.87,78.15L50.82,78.40L50.53,79.10L50.11,79.74L49.74,80.11"/><path style="stroke:#000000;stroke-width:0.088" d="M49.75,57.56L49.91,57.75L50.14,57.82L50.42,57.77L50.71,57.60L50.99,57.33L51.22,56.99L51.38,56.62L51.45,56.25L51.43,55.92L51.31,55.68L51.11,55.55L50.85,55.54L50.57,55.65L50.28,55.87L50.02,56.18L49.87,56.44L49.82,56.54L49.70,56.92L49.68,57.27L49.75,57.56"/><path style="stroke:#000000;stroke-width:0.088" d="M50.87,55.54L50.82,55.79L50.53,56.49L50.11,57.13L49.74,57.50"/><path style="stroke:#000000;stroke-width:0.088" d="M49.74,57.51L49.93,57.47L50.22,57.30L50.50,57.02L50.72,56.68L50.88,56.30L50.95,55.93L50.92,55.61L50.88,55.54"/><path style="stroke:#000000;stroke-width:0.088" d="M49.93,52.93L49.94,52.94"/><path style="stroke:#000000;stroke-width:0.088" d="M51.20,53.66L52.47,54.40"/><path style="stroke:#000000;stroke-width:0.088" d="M101.76,66.60L101.76,66.60L102.42,67.41L103.17,68.01L103.94,68.32L104.64,68.31L105.06,68.10L105.11,68.07L105.21,68.13L105.28,68.21L105.33,68.32L105.35,68.41L104.80,68.78L104.06,68.83L103.33,68.60L102.47,68.02L101.68,67.18L101.02,66.15L100.60,65.12L100.39,64.03L100.44,63.06L100.70,62.44L100.70,62.45"/><path style="stroke:#000000;stroke-width:0.088" d="M100.70,62.44L100.74,62.35L100.69,62.46"/><path style="stroke:#000000;stroke-width:0.088" d="M101.25,65.65L101.76,66.60"/><path style="stroke:#000000;stroke-width:0.088" d="M102.56,67.50L102.04,66.89L101.60,66.19L101.26,65.42L101.05,64.64"/><path style="stroke:#000000;stroke-width:0.088" d="M101.25,65.65L100.98,64.82L100.98,64.84"/><path style="stroke:#000000;stroke-width:0.088" d="M100.98,64.82L100.88,63.89"/><path style="stroke:#000000;stroke-width:0.088" d="M101.05,64.65L100.99,63.92L101.06,63.31"/><path style="stroke:#000000;stroke-width:0.088" d="M100.88,63.90L101.04,63.13L101.42,62.60L101.51,62.56L101.46,62.58"/><path style="stroke:#000000;stroke-width:0.088" d="M101.61,64.57L101.61,64.57L101.50,63.83L101.54,63.16"/><path style="stroke:#000000;stroke-width:0.088" d="M101.52,62.56L101.22,62.89"/><path style="stroke:#000000;stroke-width:0.088" d="M101.06,63.32L101.25,62.85"/><path style="stroke:#000000;stroke-width:0.088" d="M101.04,63.13L101.04,63.13"/><path style="stroke:#000000;stroke-width:0.088" d="M100.74,62.35L100.75,62.31L101.24,61.88L101.62,61.74"/><path style="stroke:#000000;stroke-width:0.088" d="M100.89,62.19L101.13,61.94L101.22,61.90"/><path style="stroke:#000000;stroke-width:0.088" d="M101.11,61.99L101.24,61.89"/><path style="stroke:#000000;stroke-width:0.088" d="M101.24,61.88L101.96,61.73L102.79,61.94L103.65,62.47L104.39,63.20L105.07,64.19L105.54,65.26L105.75,66.26L105.74,66.66L105.73,66.69L105.72,66.70L105.71,66.70L105.65,67.48L105.34,68.14L105.27,68.20"/><path style="stroke:#000000;stroke-width:0.088" d="M101.51,62.56L101.88,62.41L101.51,62.56"/><path style="stroke:#000000;stroke-width:0.088" d="M101.47,61.79L101.48,61.78L101.52,61.75L102.03,61.45L102.08,61.42L102.75,61.33L102.80,61.34L103.47,61.48L103.54,61.51L104.21,61.83L104.89,62.36L104.91,62.37L105.53,63.04L106.07,63.83L106.47,64.67L106.73,65.51L106.74,65.54L106.84,66.32L106.84,66.39L106.84,66.39L106.79,66.45L106.78,66.46L106.71,66.51L106.61,66.54L106.50,66.55L106.45,66.55L106.33,66.53L106.30,66.52"/><path style="stroke:#000000;stroke-width:0.088" d="M104.85,68.75L105.37,68.61L105.42,68.59L105.47,68.55L105.89,68.20L105.92,68.16L106.21,67.57L106.33,66.84L106.27,66.05L106.26,66.02L106.04,65.18L105.67,64.34L105.17,63.55L104.57,62.84L103.87,62.25L103.18,61.86L103.14,61.84L102.46,61.65L102.41,61.64L101.77,61.67L101.75,61.67L101.72,61.68L101.66,61.70L101.38,61.83"/><path style="stroke:#000000;stroke-width:0.088" d="M103.90,67.80L103.65,67.62L103.62,67.60L103.03,66.98L102.51,66.23L102.09,65.39L101.80,64.50L101.75,64.25L101.65,63.38L101.71,62.66L101.54,63.18"/><path style="stroke:#000000;stroke-width:0.088" d="M101.61,64.56L101.85,65.32L102.22,66.08L102.69,66.76L103.22,67.33"/><path style="stroke:#000000;stroke-width:0.088" d="M101.92,62.39L101.76,63.18L101.82,64.23L101.89,64.56L102.29,65.68L102.89,66.69L103.55,67.44L104.32,67.97L104.33,67.98L104.38,67.99"/><path style="stroke:#000000;stroke-width:0.088" d="M101.90,62.40L101.70,62.67"/><path style="stroke:#000000;stroke-width:0.088" d="M104.97,64.59L104.57,63.98L104.18,63.45L103.42,62.79L102.65,62.42L102.00,62.36L101.88,62.41"/><path style="stroke:#000000;stroke-width:0.088" d="M102.09,62.37L101.97,62.37"/><path style="stroke:#000000;stroke-width:0.088" d="M102.50,68.04L103.04,68.41L103.29,68.57"/><path style="stroke:#000000;stroke-width:0.088" d="M102.57,67.52L102.52,67.47L103.06,67.91L102.55,67.48L102.55,67.48"/><path style="stroke:#000000;stroke-width:0.088" d="M103.06,67.91L103.07,67.92L103.53,68.15"/><path style="stroke:#000000;stroke-width:0.088" d="M102.45,64.13L102.48,64.27L102.73,65.06L103.10,65.82L103.56,66.50L104.08,67.05"/><path style="stroke:#000000;stroke-width:0.088" d="M105.53,67.36L105.11,67.10L104.47,66.52L103.93,65.81L103.46,65.00L103.12,64.12L103.08,63.98L102.91,63.11L102.92,63.17"/><path style="stroke:#000000;stroke-width:0.088" d="M102.45,64.13L102.36,63.37L102.42,62.70"/><path style="stroke:#000000;stroke-width:0.088" d="M105.55,67.22L105.14,67.01L104.38,66.31L104.17,66.04L103.57,65.06L103.19,64.10L102.99,63.00L103.02,62.60"/><path style="stroke:#000000;stroke-width:0.088" d="M102.91,63.09L102.92,63.17"/><path style="stroke:#000000;stroke-width:0.088" d="M102.90,63.08L102.90,62.54"/><path style="stroke:#000000;stroke-width:0.088" d="M102.42,62.72L102.51,62.43"/><path style="stroke:#000000;stroke-width:0.088" d="M102.65,62.42L102.65,62.42"/><path style="stroke:#000000;stroke-width:0.088" d="M102.38,62.39L102.84,62.51"/><path style="stroke:#000000;stroke-width:0.088" d="M102.94,61.37L103.02,61.32L103.26,61.27L104.10,61.35L104.88,61.70L105.75,62.38L106.51,63.29L106.71,63.59L107.20,64.62L107.43,65.50L107.44,66.39L107.18,67.06L107.05,67.21L106.70,67.37"/><path style="stroke:#000000;stroke-width:0.088" d="M102.98,60.89L102.45,61.22L102.40,61.25L102.37,61.29L102.29,61.39"/><path style="stroke:#000000;stroke-width:0.088" d="M104.48,60.87L103.78,60.76L103.73,60.75L103.03,60.87L102.98,60.89"/><path style="stroke:#000000;stroke-width:0.088" d="M103.20,67.32L103.76,67.74L104.29,67.98"/><path style="stroke:#000000;stroke-width:0.088" d="M103.63,62.98L103.70,63.52"/><path style="stroke:#000000;stroke-width:0.088" d="M105.39,66.41L104.88,65.89L104.76,65.74L104.31,65.06L103.94,64.30L103.70,63.51"/><path style="stroke:#000000;stroke-width:0.088" d="M103.79,61.53L103.82,61.49"/><path style="stroke:#000000;stroke-width:0.088" d="M103.77,61.62L103.81,61.51"/><path style="stroke:#000000;stroke-width:0.088" d="M104.25,61.55L103.65,61.47L103.66,61.47"/><path style="stroke:#000000;stroke-width:0.088" d="M103.70,61.47L103.54,61.50"/><path style="stroke:#000000;stroke-width:0.088" d="M103.39,60.81L103.43,60.76L103.90,60.34L103.95,60.31"/><path style="stroke:#000000;stroke-width:0.088" d="M103.86,68.29L104.00,68.32"/><path style="stroke:#000000;stroke-width:0.088" d="M103.94,68.32L103.94,68.32"/><path style="stroke:#000000;stroke-width:0.088" d="M104.06,67.04L104.60,67.43L105.08,67.64"/><path style="stroke:#000000;stroke-width:0.088" d="M104.27,67.98L104.73,68.04L104.68,68.05"/><path style="stroke:#000000;stroke-width:0.088" d="M104.57,63.98L104.85,64.34L105.33,65.34L105.65,66.49L105.69,66.65L105.70,66.68L105.71,66.70"/><path style="stroke:#000000;stroke-width:0.088" d="M105.30,65.28L104.99,64.83L104.56,63.99L104.55,63.95"/><path style="stroke:#000000;stroke-width:0.088" d="M104.28,62.60L104.56,62.83"/><path style="stroke:#000000;stroke-width:0.088" d="M104.24,61.86L104.25,61.55"/><path style="stroke:#000000;stroke-width:0.088" d="M104.13,61.79L104.14,61.54"/><path style="stroke:#000000;stroke-width:0.088" d="M107.32,65.34L107.12,64.61L106.79,63.87L106.34,63.16L105.79,62.53L105.20,62.03L104.84,61.80L104.21,61.54L104.21,61.54"/><path style="stroke:#000000;stroke-width:0.088" d="M106.80,61.52L106.05,60.96L105.77,60.81L104.88,60.56L104.09,60.66L103.91,60.78"/><path style="stroke:#000000;stroke-width:0.088" d="M104.46,60.87L104.46,60.85"/><path style="stroke:#000000;stroke-width:0.088" d="M105.24,61.21L104.52,60.89L104.48,60.87"/><path style="stroke:#000000;stroke-width:0.088" d="M105.09,60.77L104.56,60.81"/><path style="stroke:#000000;stroke-width:0.088" d="M104.44,60.86L104.60,60.81"/><path style="stroke:#000000;stroke-width:0.088" d="M104.44,60.86L104.44,60.86"/><path style="stroke:#000000;stroke-width:0.088" d="M105.21,60.06L104.55,60.08L104.49,60.09L104.00,60.28L103.95,60.30"/><path style="stroke:#000000;stroke-width:0.088" d="M105.11,68.07L105.12,68.08L105.35,68.41"/><path style="stroke:#000000;stroke-width:0.088" d="M105.37,67.66L105.02,67.63L105.03,67.63"/><path style="stroke:#000000;stroke-width:0.088" d="M104.73,68.04L105.08,67.95"/><path style="stroke:#000000;stroke-width:0.088" d="M105.34,67.73L105.03,67.99L105.03,67.99"/><path style="stroke:#000000;stroke-width:0.088" d="M105.53,67.35L105.33,67.75L105.33,67.74"/><path style="stroke:#000000;stroke-width:0.088" d="M105.38,66.40L105.59,66.55"/><path style="stroke:#000000;stroke-width:0.088" d="M105.18,65.03L105.35,65.39"/><path style="stroke:#000000;stroke-width:0.088" d="M105.14,64.95L105.09,64.88L104.89,64.47"/><path style="stroke:#000000;stroke-width:0.088" d="M104.86,62.33L104.84,61.80"/><path style="stroke:#000000;stroke-width:0.088" d="M105.25,61.21L105.57,61.41L106.27,62.00L106.89,62.70L107.34,63.39L107.74,64.21L107.99,65.04L108.00,65.07L108.08,65.84L108.00,66.50L107.99,66.55L107.72,67.12L107.69,67.16L107.56,67.31L107.51,67.35L107.08,67.60L107.02,67.63L106.97,67.63L106.60,67.66"/><path style="stroke:#000000;stroke-width:0.088" d="M105.35,61.27L105.34,61.06L105.35,60.92L105.35,60.95L105.38,61.01L105.45,61.07L105.44,61.20L105.46,61.34"/><path style="stroke:#000000;stroke-width:0.088" d="M105.35,60.92L105.36,60.83"/><path style="stroke:#000000;stroke-width:0.088" d="M104.93,61.07L105.07,60.77"/><path style="stroke:#000000;stroke-width:0.088" d="M104.94,61.07L104.94,61.03"/><path style="stroke:#000000;stroke-width:0.088" d="M105.66,60.90L105.06,60.76L105.07,60.76"/><path style="stroke:#000000;stroke-width:0.088" d="M109.17,65.96L109.32,65.93L109.74,65.47L109.82,65.28L109.93,64.46L109.75,63.48L109.39,62.58L108.77,61.59L108.54,61.31L107.70,60.52L106.80,60.02L106.04,59.84L105.27,59.97L105.09,60.06"/><path style="stroke:#000000;stroke-width:0.088" d="M110.15,65.74L110.18,65.70L110.43,65.18L110.45,65.14L110.46,65.09L110.54,64.42L110.46,63.65L110.45,63.62L110.22,62.85L109.84,62.02L109.32,61.24L109.08,60.95L108.41,60.28L107.70,59.78L106.98,59.46L106.93,59.45L106.23,59.34L106.18,59.33L105.49,59.45L105.43,59.47L104.91,59.80L104.86,59.83L104.82,59.88L104.67,60.08"/><path style="stroke:#000000;stroke-width:0.088" d="M107.80,66.95L108.19,66.93L108.25,66.92L108.30,66.90L108.74,66.64L108.79,66.60L108.82,66.56L109.12,66.11L109.15,66.06L109.29,65.45L109.30,65.40L109.28,64.66L109.11,63.91L108.78,63.07L108.32,62.27L108.08,61.94L107.46,61.25L106.75,60.66L106.03,60.27L105.99,60.26L105.27,60.06L105.22,60.06"/><path style="stroke:#000000;stroke-width:0.088" d="M106.84,66.32L106.81,67.04L106.80,67.09L106.60,67.65L106.58,67.70L106.54,67.75L106.19,68.14L106.14,68.17L106.09,68.19L105.74,68.33"/><path style="stroke:#000000;stroke-width:0.088" d="M105.56,66.14L105.61,66.82L105.52,67.40"/><path style="stroke:#000000;stroke-width:0.088" d="M105.47,65.82L105.56,66.16L105.56,66.16"/><path style="stroke:#000000;stroke-width:0.088" d="M107.32,65.36L107.29,65.34L107.06,65.12L106.37,64.25L105.89,63.34L105.58,62.35"/><path style="stroke:#000000;stroke-width:0.088" d="M107.33,65.46L107.00,65.17L106.44,64.47L105.97,63.66L105.61,62.80L105.49,62.27"/><path style="stroke:#000000;stroke-width:0.088" d="M106.12,61.87L106.06,61.13L106.06,61.10"/><path style="stroke:#000000;stroke-width:0.088" d="M105.49,60.86L105.45,61.07L105.55,61.11L105.67,61.13L105.78,61.13L105.89,61.10L105.98,61.06"/><path style="stroke:#000000;stroke-width:0.088" d="M105.64,60.89L105.64,60.89L106.19,61.16L106.80,61.61"/><path style="stroke:#000000;stroke-width:0.088" d="M106.15,60.34L106.15,60.33"/><path style="stroke:#000000;stroke-width:0.088" d="M106.15,60.33L106.27,60.06"/><path style="stroke:#000000;stroke-width:0.088" d="M106.16,60.05L106.76,60.15"/><path style="stroke:#000000;stroke-width:0.088" d="M106.20,60.05L105.68,60.13"/><path style="stroke:#000000;stroke-width:0.088" d="M105.65,60.17L105.74,60.12"/><path style="stroke:#000000;stroke-width:0.088" d="M105.84,59.39L106.20,59.01L106.25,58.98"/><path style="stroke:#000000;stroke-width:0.088" d="M107.13,66.68L106.83,66.54"/><path style="stroke:#000000;stroke-width:0.088" d="M107.05,66.78L106.82,66.69"/><path style="stroke:#000000;stroke-width:0.088" d="M107.02,66.82L106.81,66.92"/><path style="stroke:#000000;stroke-width:0.088" d="M106.78,65.82L106.82,65.85"/><path style="stroke:#000000;stroke-width:0.088" d="M106.81,65.85L107.33,66.15"/><path style="stroke:#000000;stroke-width:0.088" d="M106.67,61.54L106.89,62.30L107.25,63.06L107.72,63.77L108.24,64.35"/><path style="stroke:#000000;stroke-width:0.088" d="M106.80,61.52L106.91,61.61L107.59,62.37L108.20,63.37L108.59,64.42L108.65,64.72L108.68,65.62L108.49,66.23L108.04,66.66L107.93,66.68"/><path style="stroke:#000000;stroke-width:0.088" d="M108.54,64.60L108.54,64.60L108.49,64.36L108.24,63.62L107.86,62.89L107.37,62.20L106.79,61.60"/><path style="stroke:#000000;stroke-width:0.088" d="M106.66,61.51L106.67,61.55"/><path style="stroke:#000000;stroke-width:0.088" d="M106.60,60.58L106.63,60.18"/><path style="stroke:#000000;stroke-width:0.088" d="M107.97,60.85L107.35,60.41L106.72,60.13"/><path style="stroke:#000000;stroke-width:0.088" d="M106.63,60.19L106.65,60.13"/><path style="stroke:#000000;stroke-width:0.088" d="M109.74,61.05L109.15,60.32L108.31,59.64L107.46,59.26L106.67,59.23L106.41,59.36"/><path style="stroke:#000000;stroke-width:0.088" d="M106.26,58.97L106.86,58.73"/><path style="stroke:#000000;stroke-width:0.088" d="M106.56,58.85L106.60,58.81L106.64,58.78L107.16,58.50L107.21,58.48L107.27,58.47L107.89,58.40L108.26,58.46L108.58,58.57L109.10,58.80L109.09,58.80"/><path style="stroke:#000000;stroke-width:0.088" d="M106.86,58.73L106.92,58.72L107.56,58.72L107.61,58.73L108.29,58.94"/><path style="stroke:#000000;stroke-width:0.088" d="M107.21,66.59L106.97,66.89"/><path style="stroke:#000000;stroke-width:0.088" d="M107.20,66.62L107.34,66.16"/><path style="stroke:#000000;stroke-width:0.088" d="M107.31,66.14L107.34,66.15"/><path style="stroke:#000000;stroke-width:0.088" d="M107.34,66.18L107.35,65.58L107.32,65.32"/><path style="stroke:#000000;stroke-width:0.088" d="M108.45,64.23L108.41,64.20L107.69,63.43L107.08,62.45L106.98,62.49"/><path style="stroke:#000000;stroke-width:0.088" d="M106.98,62.48L107.08,62.45"/><path style="stroke:#000000;stroke-width:0.088" d="M106.98,59.47L107.00,59.44L106.96,59.46"/><path style="stroke:#000000;stroke-width:0.088" d="M107.00,59.44L107.01,59.44"/><path style="stroke:#000000;stroke-width:0.088" d="M108.02,59.60L107.46,59.43"/><path style="stroke:#000000;stroke-width:0.088" d="M106.98,59.44L107.48,59.44"/><path style="stroke:#000000;stroke-width:0.088" d="M108.08,65.87L108.38,65.95"/><path style="stroke:#000000;stroke-width:0.088" d="M108.06,65.98L108.26,66.09"/><path style="stroke:#000000;stroke-width:0.088" d="M108.09,66.21L108.04,66.21"/><path style="stroke:#000000;stroke-width:0.088" d="M108.33,66.03L108.06,66.22L108.07,66.22"/><path style="stroke:#000000;stroke-width:0.088" d="M108.32,66.06L108.51,65.70"/><path style="stroke:#000000;stroke-width:0.088" d="M107.95,64.92L108.12,65.08L108.57,65.32"/><path style="stroke:#000000;stroke-width:0.088" d="M107.99,65.06L108.31,65.31"/><path style="stroke:#000000;stroke-width:0.088" d="M108.00,65.08L108.29,65.30L108.56,65.42"/><path style="stroke:#000000;stroke-width:0.088" d="M108.23,64.34L108.54,64.58"/><path style="stroke:#000000;stroke-width:0.088" d="M107.96,60.84L108.54,61.42L109.11,62.20L109.48,62.93L109.73,63.67"/><path style="stroke:#000000;stroke-width:0.088" d="M108.00,59.60L108.61,59.95L108.60,59.94"/><path style="stroke:#000000;stroke-width:0.088" d="M109.03,59.37L108.34,58.96L108.30,58.94"/><path style="stroke:#000000;stroke-width:0.088" d="M108.25,58.46L108.26,58.46"/><path style="stroke:#000000;stroke-width:0.088" d="M109.71,66.11L109.66,66.14L109.14,66.26L109.09,66.26"/><path style="stroke:#000000;stroke-width:0.088" d="M109.02,66.26L109.09,66.26"/><path style="stroke:#000000;stroke-width:0.088" d="M108.50,65.76L108.51,65.71"/><path style="stroke:#000000;stroke-width:0.088" d="M108.54,64.57L108.59,65.21L108.53,65.62"/><path style="stroke:#000000;stroke-width:0.088" d="M110.65,63.30L110.65,63.30L110.46,62.56L110.17,61.86L110.14,61.80L109.71,61.09L109.18,60.45L108.58,59.93"/><path style="stroke:#000000;stroke-width:0.088" d="M111.36,63.20L111.15,62.33L110.79,61.49L110.30,60.69L109.71,59.97L109.04,59.38"/><path style="stroke:#000000;stroke-width:0.088" d="M110.04,59.57L109.94,59.46L109.29,58.94L109.10,58.80L109.10,58.80"/><path style="stroke:#000000;stroke-width:0.088" d="M109.71,66.11L109.76,66.08L110.15,65.75"/><path style="stroke:#000000;stroke-width:0.088" d="M109.41,65.46L109.66,65.19"/><path style="stroke:#000000;stroke-width:0.088" d="M109.78,64.86L109.64,65.24"/><path style="stroke:#000000;stroke-width:0.088" d="M109.28,65.49L109.44,65.43"/><path style="stroke:#000000;stroke-width:0.088" d="M109.29,65.02L109.32,65.03"/><path style="stroke:#000000;stroke-width:0.088" d="M109.30,65.03L109.69,65.10"/><path style="stroke:#000000;stroke-width:0.088" d="M109.28,64.74L109.77,64.88"/><path style="stroke:#000000;stroke-width:0.088" d="M109.73,63.66L109.82,64.31L109.78,64.90"/><path style="stroke:#000000;stroke-width:0.088" d="M110.43,65.19L110.45,65.17L110.75,64.48L110.77,63.58L110.74,63.32L110.43,62.27L109.88,61.22L109.74,61.05"/><path style="stroke:#000000;stroke-width:0.088" d="M110.39,65.71L110.13,65.76"/><path style="stroke:#000000;stroke-width:0.088" d="M111.36,65.05L111.35,65.06L111.30,65.10L110.97,65.36L110.77,65.46L110.76,65.46"/><path style="stroke:#000000;stroke-width:0.088" d="M110.77,65.46L110.73,65.47"/><path style="stroke:#000000;stroke-width:0.088" d="M110.39,65.71L110.45,65.68L110.92,65.32L110.96,65.27L111.25,64.76L111.27,64.71L111.40,63.99L111.36,63.20"/><path style="stroke:#000000;stroke-width:0.088" d="M110.52,64.59L110.59,64.47"/><path style="stroke:#000000;stroke-width:0.088" d="M110.59,64.48L110.59,64.48L110.69,63.96"/><path style="stroke:#000000;stroke-width:0.088" d="M110.69,63.96L110.65,63.28"/><path style="stroke:#000000;stroke-width:0.088" d="M110.05,59.58L110.71,60.36"/><path style="stroke:#000000;stroke-width:0.088" d="M110.71,60.37L111.27,61.34L111.67,62.46L111.82,63.53L111.69,64.45"/><path style="stroke:#000000;stroke-width:0.088" d="M111.35,65.06L111.43,64.96L111.69,64.45"/><path style="stroke:#000000;stroke-width:0.088" d="M110.91,65.35L110.91,65.35L110.86,65.37"/><path style="stroke:#000000;stroke-width:0.088" d="M113.61,119.20L123.78,101.58L125.05,102.32L114.88,119.94L113.61,119.20L113.61,133.30L113.91,133.47L113.64,133.32"/><path style="stroke:#000000;stroke-width:0.088" d="M113.91,133.47L114.69,133.92L114.42,133.76"/><path style="stroke:#000000;stroke-width:0.088" d="M114.88,134.03L115.46,134.37L114.69,133.92L114.88,134.03L114.88,119.94"/><path style="stroke:#000000;stroke-width:0.088" d="M116.14,134.76L115.76,134.54L116.15,134.77L130.27,126.62L131.54,124.41L131.54,100.04L129.00,98.57L123.78,101.58"/><path style="stroke:#000000;stroke-width:0.088" d="M116.14,134.76L115.46,134.37"/><path style="stroke:#000000;stroke-width:0.088" d="M119.34,126.60L119.72,126.31L120.15,126.14L120.54,126.16L120.84,126.36L121.02,126.73L121.06,127.22L120.95,127.78L120.70,128.35L120.35,128.86L119.93,129.27L119.49,129.53L119.07,129.60L118.72,129.49L118.48,129.20L118.37,128.77L118.40,128.35L118.41,128.24L118.59,127.66L118.89,127.11L119.28,126.64L119.34,126.60L119.50,126.61L119.65,126.71L119.74,126.90L119.76,127.16L119.71,127.45L119.58,127.74L119.40,128.01L119.34,128.07L119.18,128.22L118.95,128.35L118.73,128.39L118.60,128.35L118.55,128.33L118.42,128.18"/><path style="stroke:#000000;stroke-width:0.088" d="M119.13,126.82L119.10,127.03L118.99,127.33L118.81,127.60L118.60,127.83L118.52,127.88"/><path style="stroke:#000000;stroke-width:0.088" d="M118.48,118.04L118.37,117.61L118.41,117.08L118.59,116.50L118.89,115.95L119.28,115.49L119.72,115.15L120.15,114.98L120.54,115.00L120.84,115.21L121.02,115.57L121.06,116.06L120.95,116.62L120.70,117.19L120.35,117.71L119.93,118.11L119.49,118.37L119.34,118.40L119.07,118.45L118.72,118.33L118.48,118.04"/><path style="stroke:#000000;stroke-width:0.088" d="M118.42,117.03L118.55,117.18L118.73,117.23L118.95,117.20L119.18,117.06L119.34,116.91L119.40,116.85L119.58,116.58L119.71,116.29L119.76,116.00L119.74,115.74L119.65,115.55L119.50,115.45L119.34,115.44"/><path style="stroke:#000000;stroke-width:0.088" d="M118.52,116.72L118.60,116.67L118.81,116.44L118.99,116.17L119.10,115.87L119.13,115.66"/><path style="stroke:#000000;stroke-width:0.088" d="M122.55,111.34L122.57,111.43L122.70,111.60L122.90,111.67L123.13,111.63L123.38,111.49L123.62,111.27L123.82,110.98L123.97,110.66L123.98,110.57L124.03,110.34L124.02,110.06L123.92,109.85L123.76,109.72L123.54,109.71L123.29,109.80L123.04,109.98L122.82,110.24L122.64,110.55L122.54,110.88L122.51,111.13L122.51,111.18L122.55,111.34"/><path style="stroke:#000000;stroke-width:0.088" d="M123.22,109.85L123.37,109.80L123.55,109.81L123.69,109.91L123.77,110.09L123.78,110.32L123.73,110.57L123.72,110.59L123.61,110.86L123.44,111.10L123.24,111.29L123.03,111.40L122.83,111.43L122.67,111.37L122.56,111.23L122.52,111.05"/><path style="stroke:#000000;stroke-width:0.088" d="M125.05,102.32L130.27,99.31"/><path style="stroke:#000000;stroke-width:0.088" d="M125.82,109.27L125.87,109.52L126.01,109.69L126.20,109.76L126.44,109.72L126.69,109.59L126.93,109.36L127.13,109.07L127.27,108.75L127.34,108.43L127.32,108.15L127.23,107.94L127.06,107.82L126.84,107.80L126.60,107.89L126.35,108.07L126.12,108.33L125.95,108.64L125.84,108.97L125.82,109.22L125.82,109.27"/><path style="stroke:#000000;stroke-width:0.088" d="M126.52,107.94L126.67,107.89L126.85,107.90L126.99,108.00L127.07,108.18L127.08,108.42L127.03,108.68L126.91,108.95L126.74,109.19L126.54,109.38L126.33,109.49L126.14,109.52L125.98,109.47L125.87,109.32L125.82,109.15"/><path style="stroke:#000000;stroke-width:0.088" d="M128.30,126.80L128.33,126.85L128.73,127.05L129.22,127.01L129.77,126.75L130.18,126.39L130.29,126.29L130.75,125.69L131.08,125.00L131.26,124.30L131.26,123.71L131.26,123.67L131.09,123.18L130.75,122.88L130.30,122.80L129.77,122.95L129.23,123.31L128.73,123.85L128.33,124.51L128.07,125.21L127.98,125.88L128.07,126.45L128.30,126.80"/><path style="stroke:#000000;stroke-width:0.088" d="M129.19,123.36L129.25,123.60L129.22,123.95L129.10,124.33L128.91,124.69L128.65,125.00L128.36,125.22L128.07,125.33L128.05,125.33"/><path style="stroke:#000000;stroke-width:0.088" d="M128.05,125.34L128.17,125.52L128.38,125.63L128.65,125.61L128.94,125.47L129.15,125.28L129.23,125.22L129.47,124.90L129.65,124.53L129.72,124.24L129.75,124.15L129.75,123.81L129.65,123.55L129.47,123.38L129.23,123.34L129.19,123.35"/><path style="stroke:#000000;stroke-width:0.088" d="M128.33,104.24L128.07,103.84L127.98,103.27L128.07,102.60L128.33,101.90L128.63,101.39L128.73,101.24L129.23,100.70L129.77,100.34L130.30,100.19L130.75,100.27L131.09,100.57L131.26,101.06L131.26,101.29L131.26,101.69L131.08,102.39L130.75,103.08L130.29,103.68L129.77,104.14L129.41,104.31L129.22,104.40L128.73,104.44L128.33,104.24"/><path style="stroke:#000000;stroke-width:0.088" d="M128.05,102.73L128.17,102.91L128.38,103.02L128.65,103.00L128.94,102.86L129.15,102.67L129.23,102.61L129.47,102.29L129.65,101.92L129.72,101.63L129.75,101.54L129.75,101.20L129.65,100.94L129.47,100.77L129.23,100.73L129.19,100.74"/><path style="stroke:#000000;stroke-width:0.088" d="M129.19,100.74L129.25,100.99L129.22,101.34L129.10,101.72L128.91,102.08L128.65,102.39L128.36,102.61L128.07,102.72L128.05,102.72"/><path style="stroke:#000000;stroke-width:0.088" d="M131.54,100.04L131.49,100.01"/><path style="fill:#ffffff" d="M171.65,78.17L198.06,78.17L198.06,72.53L171.65,72.53z"/><path style="stroke:#35414c;stroke-width:0.255" d="M171.65,78.17L198.06,78.17L198.06,72.53L171.65,72.53z"/><path style="stroke:#35404c;stroke-width:0.250;stroke-opacity:0.00" d="M171.65,78.17L198.06,78.17L198.06,72.53L171.65,72.53z"/><text xml:space="preserve" fill="#333f4b" stroke-width="0" x="172.36" y="76.58" font-size="3.49" opacity="1.00" font-family="Arial" font-weight="bold" font-style="italic">F24978972A</text><path style="fill:#ffffff" d="M171.65,97.98L198.07,97.98L198.07,92.34L171.65,92.34z"/><path style="stroke:#35414c;stroke-width:0.255" d="M171.65,97.98L198.07,97.98L198.07,92.34L171.65,92.34z"/><path style="stroke:#35404c;stroke-width:0.250;stroke-opacity:0.00" d="M171.65,97.98L198.07,97.98L198.07,92.34L171.65,92.34z"/><text xml:space="preserve" fill="#333f4b" stroke-width="0" x="172.36" y="96.40" font-size="3.49" opacity="1.00" font-family="Arial" font-weight="bold" font-style="italic">F24978974A</text><path style="fill:#ffffff" d="M171.65,108.02L198.06,108.02L198.06,102.38L171.65,102.38z"/><path style="stroke:#35414c;stroke-width:0.255" d="M171.65,108.02L198.06,108.02L198.06,102.38L171.65,102.38z"/><path style="stroke:#35404c;stroke-width:0.250;stroke-opacity:0.00" d="M171.65,108.02L198.06,108.02L198.06,102.38L171.65,102.38z"/><text xml:space="preserve" fill="#333f4b" stroke-width="0" x="172.36" y="106.43" font-size="3.46" opacity="1.00" font-family="Arial" font-weight="bold" font-style="italic">ML2109</text><path style="fill:#ffffff" d="M171.65,48.06L198.07,48.06L198.07,42.42L171.65,42.42z"/><path style="stroke:#35414c;stroke-width:0.255" d="M171.65,48.06L198.07,48.06L198.07,42.42L171.65,42.42z"/><path style="stroke:#35404c;stroke-width:0.250;stroke-opacity:0.00" d="M171.65,48.06L198.07,48.06L198.07,42.42L171.65,42.42z"/><text xml:space="preserve" fill="#333f4b" stroke-width="0" x="172.36" y="46.47" font-size="3.56" opacity="1.00" font-family="Arial" font-weight="bold" font-style="italic">F21623153X</text><path style="fill:#ffffff" d="M171.65,58.10L198.06,58.10L198.06,52.45L171.65,52.45z"/><path style="stroke:#35414c;stroke-width:0.255" d="M171.65,58.10L198.06,58.10L198.06,52.45L171.65,52.45z"/><path style="stroke:#35404c;stroke-width:0.250;stroke-opacity:0.00" d="M171.65,58.10L198.06,58.10L198.06,52.45L171.65,52.45z"/><text xml:space="preserve" fill="#333f4b" stroke-width="0" x="172.36" y="56.51" font-size="3.56" opacity="1.00" font-family="Arial" font-weight="bold" font-style="italic">F24622344X</text><path style="fill:#ffffff" d="M171.65,68.13L198.07,68.13L198.07,62.49L171.65,62.49z"/><path style="stroke:#35414c;stroke-width:0.255" d="M171.65,68.13L198.07,68.13L198.07,62.49L171.65,62.49z"/><path style="stroke:#35404c;stroke-width:0.250;stroke-opacity:0.00" d="M171.65,68.13L198.07,68.13L198.07,62.49L171.65,62.49z"/><text xml:space="preserve" fill="#333f4b" stroke-width="0" x="172.36" y="66.55" font-size="3.56" opacity="1.00" font-family="Arial" font-weight="bold" font-style="italic">F24622345X</text><path style="fill:#ffffff" d="M171.65,87.95L198.06,87.95L198.06,82.30L171.65,82.30z"/><path style="stroke:#35414c;stroke-width:0.255" d="M171.65,87.95L198.06,87.95L198.06,82.30L171.65,82.30z"/><path style="stroke:#35404c;stroke-width:0.250;stroke-opacity:0.00" d="M171.65,87.95L198.06,87.95L198.06,82.30L171.65,82.30z"/><text xml:space="preserve" fill="#333f4b" stroke-width="0" x="172.36" y="86.36" font-size="3.49" opacity="1.00" font-family="Arial" font-weight="bold" font-style="italic">F24978973A</text><g id="paperID" visibility="hidden" opacity="0.00" transform="scale(0.000100)"><path style="stroke:#000000;stroke-width:0.500;fill:#e6e6e6;fill-rule:evenodd" d="M-2000.00,-2000.00L2210.00,-2000.00L2210.00,2150.00L-2000.00,2150.00zM0.00,0.00L210.00,0.00L210.00,150.00L0.00,150.00z"/><path style="fill:#000000;fill-opacity:0.118" d="M3.00,150.00L210.00,150.00L210.00,3.00L213.00,3.00L213.00,153.00L3.00,153.00z"/></g><g id="hotspot.0" onmouseover="ShowHotSpot(evt,'0')" onmouseout="HideHotSpot(evt,'0')" onmousemove="ShowToolTip(evt,'0',&quot;F24622344X&quot;)" opacity="0"><path style="fill:#00ff00;fill-rule:evenodd" d="M198.32,52.89L198.31,58.04L198.02,58.55L171.60,58.48L171.60,52.73L198.06,52.62zM78.13,75.61L78.13,111.41L70.09,116.05L69.91,117.72L68.87,118.30L68.33,118.46L58.55,112.88L58.54,88.91L59.62,86.03L60.38,82.31L61.90,77.22L63.30,75.45L64.90,74.40L70.08,71.39L70.97,71.39z"/></g><g id="hotspot.1" onmouseover="ShowHotSpot(evt,'1')" onmouseout="HideHotSpot(evt,'1')" onmousemove="ShowToolTip(evt,'1',&quot;F24622345X&quot;)" opacity="0"><path style="fill:#00ff00;fill-rule:evenodd" d="M198.32,62.92L198.31,68.08L198.02,68.59L171.60,68.52L171.60,62.77L198.06,62.66zM108.48,108.65L109.26,109.67L109.01,110.59L108.38,111.29L107.14,111.32L98.44,106.28L98.43,105.03L99.21,103.95L100.02,103.87zM108.75,120.00L109.26,120.77L109.01,121.69L108.42,122.42L107.14,122.40L98.44,117.37L98.42,116.12L99.41,114.96L100.02,114.96z"/></g><g id="hotspot.2" onmouseover="ShowHotSpot(evt,'2')" onmouseout="HideHotSpot(evt,'2')" onmousemove="ShowToolTip(evt,'2',&quot;F24978972A&quot;)" opacity="0"><path style="fill:#00ff00;fill-rule:evenodd" d="M136.50,17.50L136.49,22.90L135.93,23.66L127.24,28.72L126.42,30.27L126.20,81.30L122.10,83.83L121.45,83.83L115.63,80.37L115.07,79.35L115.07,22.35L116.28,20.39L128.46,13.28L129.35,13.27zM198.32,72.96L198.31,78.12L198.02,78.63L171.60,78.56L171.60,72.80L198.06,72.70z"/></g><g id="hotspot.3" onmouseover="ShowHotSpot(evt,'3')" onmouseout="HideHotSpot(evt,'3')" onmousemove="ShowToolTip(evt,'3',&quot;F24978973A&quot;)" opacity="0"><path style="fill:#00ff00;fill-rule:evenodd" d="M198.32,82.74L198.31,87.89L198.02,88.40L171.60,88.33L171.60,82.58L198.06,82.47zM131.48,100.18L131.39,124.78L130.17,126.74L116.31,134.84L115.90,134.80L113.76,133.49L113.74,119.02L123.73,101.81L128.73,98.85L129.34,98.86zM129.18,101.42L128.71,102.60L128.20,102.68L128.25,102.14L129.00,101.24zM129.10,124.60L128.28,125.40L128.26,124.87L128.98,123.67L129.10,123.71z"/></g><g id="hotspot.4" onmouseover="ShowHotSpot(evt,'4')" onmouseout="HideHotSpot(evt,'4')" onmousemove="ShowToolTip(evt,'4',&quot;F24978974A&quot;)" opacity="0"><path style="fill:#00ff00;fill-rule:evenodd" d="M52.48,54.51L52.49,78.91L51.20,81.05L37.68,88.94L36.89,89.13L34.70,87.86L34.77,73.33L44.76,56.12L49.75,53.16L50.10,53.16zM198.32,92.77L198.31,97.93L198.02,98.44L171.60,98.37L171.60,92.61L198.06,92.51zM50.66,56.43L49.83,57.52L49.81,56.69L50.54,55.80L50.66,55.84zM50.65,79.14L49.84,80.25L49.81,79.41L50.54,78.52L50.66,78.55z"/></g><g id="hotspot.5" onmouseover="ShowHotSpot(evt,'5')" onmouseout="HideHotSpot(evt,'5')" onmousemove="ShowToolTip(evt,'5',&quot;Molla_di_compressione_20x2_Compressa_3.5Spire_Lungh23&quot;)" opacity="0"><path style="fill:#00ff00;fill-rule:evenodd" d="M110.36,60.02L111.66,62.42L111.66,64.64L111.28,65.32L105.23,68.78L103.44,68.79L102.16,67.96L100.80,65.88L100.55,64.81L100.54,63.03L100.97,62.14L103.75,60.70L107.05,58.72L108.75,58.72zM109.28,81.97L110.62,83.26L111.65,85.40L111.59,87.82L110.07,88.93L108.71,89.69L104.97,91.77L103.71,91.77L102.68,91.21L101.10,89.35L100.54,87.80L100.53,85.74L101.25,84.88L106.13,82.09L107.94,81.43zM198.32,102.81L198.31,107.97L198.02,108.48L171.60,108.40L171.60,102.65L198.06,102.55zM109.03,60.56L110.06,61.90L110.43,63.12L109.03,61.08L108.14,60.02L108.44,60.02zM107.42,60.57L108.77,61.87L109.81,64.01L109.79,64.92L109.48,64.93L107.95,61.90L106.80,60.89L106.89,60.30zM107.69,62.69L108.24,64.10L107.99,64.04L106.89,62.39L106.88,61.89zM105.35,62.36L105.61,63.03L105.03,62.67L105.03,62.15zM104.28,63.68L105.34,65.61L105.34,66.20L104.53,65.57L103.97,64.56L103.99,63.46zM103.18,64.56L103.72,65.60L105.35,67.47L105.32,67.81L104.81,67.72L103.74,66.90L102.65,65.08L102.60,62.65L102.91,62.65zM110.59,64.65L110.43,63.12L110.57,63.23zM107.19,65.57L107.19,66.21L106.91,66.17L106.91,65.29zM109.01,83.29L109.82,84.33L110.59,85.93L110.59,87.63L110.34,86.19L109.30,84.32L107.78,82.67zM107.42,83.55L108.48,84.35L109.81,86.99L109.79,87.90L109.48,87.91L107.98,84.85L106.88,83.79L106.88,83.29zM105.29,84.16L104.95,84.07L105.34,83.86zM107.69,85.67L107.98,86.54L107.44,86.19L106.77,84.90zM105.60,86.02L105.02,85.66L104.95,85.12L105.27,85.12zM105.08,88.02L105.60,89.45L104.53,88.56L103.97,87.54L103.99,86.44zM103.18,87.28L103.72,88.58L105.33,90.43L104.53,90.42L103.22,89.09L102.65,87.80L102.60,85.63L102.91,85.63zM107.19,88.28L107.15,88.97L106.82,88.97L106.91,88.00z"/></g><g id="hotspot.6" onmouseover="ShowHotSpot(evt,'6')" onmouseout="HideHotSpot(evt,'6')" onmousemove="ShowToolTip(evt,'6',&quot;F21623153&quot;)" opacity="0"><path style="fill:#00ff00;fill-rule:evenodd" d="M198.32,42.85L198.31,48.01L198.02,48.51L171.60,48.44L171.60,42.69L198.06,42.58zM91.31,69.29L92.66,70.58L93.42,71.94L93.92,74.29L93.69,75.47L92.28,76.45L88.91,76.45L87.63,75.62L87.10,74.83L87.09,71.24L87.61,70.71L88.15,69.40L89.36,68.75L90.26,68.75zM91.04,92.01L92.07,92.83L93.16,94.39L93.96,97.05L93.44,98.72L92.83,99.17L88.41,99.14L87.06,97.58L87.09,94.22L87.61,93.69L88.16,92.38L89.10,91.74L90.26,91.75z"/></g></g></svg>
