<?xml version="1.0" encoding="UTF-8" standalone="no"?>
<svg xmlns="http://www.w3.org/2000/svg" xmlns:xlink="http://www.w3.org/1999/xlink" width="210.000mm" height="150.000mm" viewBox="0.000000 0.000000 210.000000 150.000000" stroke-linejoin="round" stroke-linecap="round" fill="none" fill-rule="evenodd"><desc>Composer Export</desc><script type="text/ecmascript"><![CDATA[
if(typeof(top) != "undefined")
{
	top.ShowPaper = ShowPaper;
}
function ShowHotSpot(evt,hotspotid)
{
	var svgDocument = evt.target.ownerDocument;
	var strId = "hotspot."+hotspotid;
	var hotspot = svgDocument.getElementById(strId);
	if(hotspot)
		hotspot.setAttribute("opacity",".5");
}
function HideHotSpot(evt,hotspotid)
{
	var svgDocument = evt.target.ownerDocument;
	var strId = "hotspot."+hotspotid;
	var hotspot = svgDocument.getElementById(strId);
	if(hotspot)
		hotspot.setAttribute("opacity","0");

	var toolTip = svgDocument.getElementById('ToolTip');
	if(toolTip)
		toolTip.setAttribute("visibility","hidden");
}
function ShowToolTip(evt,hotspotid,strTooltip)
{
	if(strTooltip=="")
	return;

	// change text
	var svgDocument = evt.target.ownerDocument;
	var tiptext = svgDocument.getElementById('ToolTipText');
	if( !tiptext )
	return;
	tiptext.firstChild.nodeValue = " " + strTooltip + "  " ;

	// show tooltip before, else some refresh issue

	var toolTip = svgDocument.getElementById('ToolTip');
	if(!toolTip)
	return;

	toolTip.setAttribute("visibility","visible");
	toolTip.setAttribute("opacity",".95");

	// move tooltip
	// get viewbox

	var root = svgDocument.documentElement;
	var vbox = (root.getAttribute("viewBox")).split(' ');
	var x0 = parseFloat(vbox[0]);
	var y0 = parseFloat(vbox[1]);
	var vboxW = parseFloat(vbox[2]);
	var vboxH = parseFloat(vbox[3]);

	// get default width of svg

	var strW = root.getAttribute("width");
	var svgW = parseFloat(strW);
	if(strW.indexOf('mm') != -1)
	svgW *= 3.779;

	var strH = root.getAttribute("height");
	var svgH = parseFloat(strH);
	if(strH.indexOf('mm') != -1)
	svgH *= 3.779;  	// 96 dpi  -> 96/25.4 = 3.779

	// update the viewbox / width / height if svg is embedded in html with zoom fit all
	var realx0 = x0;
	var realy0 = y0;
	var realvboxW = vboxW;
	var realvboxH = vboxH;
	var realsvgW = svgW;
	var realsvgH = svgH;

	if ((typeof(top) == "undefined") || (typeof(top.svgctl1) != "undefined")) // embedded in html
	{
		// get window size in pxl

		svgW = window.innerWidth;
		svgH = window.innerHeight;

		// calculate real viewbox

		realsvgW = svgW;
		realsvgH = svgH;
		if((svgW / svgH) > (vboxW / vboxH))
		{
			realvboxW = (vboxH * svgW) / svgH;
			realvboxH = vboxH;
			realx0 = x0 - (realvboxW - vboxW)/2 ;
		}
		else
		{
			realvboxH = (vboxW * svgH) / svgW;
			realvboxW = vboxW;
			realy0 = y0 - (realvboxH - vboxH)/2 ;
		}
	}

	// get user zoom/pan

	var newScale = root.currentScale;
	var translation = root.currentTranslate;

	// transform pxl to user unit

	var xPos = (((evt.clientX+10- translation.x)/newScale) * realvboxW)/realsvgW  + realx0 ;
	var yPos = (((evt.clientY+5- translation.y)/newScale) * realvboxH)/ realsvgH  + realy0 ;
	var scaleForWidth = ( (1 / newScale) * realvboxH) / realsvgH;

	// move tooltip

	toolTip.setAttribute("transform", "translate(" + xPos + "," + yPos + ")" );

	// resize tooltip

	var fontsize = 12;
	tiptext.setAttribute("font-size",fontsize*scaleForWidth);
	tiptext.setAttribute("y", fontsize*scaleForWidth);
	var tipBG = svgDocument.getElementById('ToolTipBG');
	var outline = tiptext.getBBox();
	if(tipBG)
	{
		tipBG.setAttribute("stroke-width", 1*scaleForWidth);
		tipBG.setAttribute("width", Number(outline.width) );
		tipBG.setAttribute("height", Number(outline.height) + fontsize*.5*scaleForWidth );
	}
	var ToolTipShadow = svgDocument.getElementById('ToolTipShadow');
	if(ToolTipShadow)
	{
		ToolTipShadow.setAttribute("width", Number(outline.width) );
		ToolTipShadow.setAttribute("height", Number(outline.height) + fontsize*.5*scaleForWidth );
		ToolTipShadow.setAttribute("x", 3*scaleForWidth);
		ToolTipShadow.setAttribute("y", 3*scaleForWidth);
	}
}
function ShowPaper()
{
  var svgDocument = getDocument();
  var paper = svgDocument.getElementById("paperID");
  if(paper)
  {
    paper.setAttribute("transform","scale(1)");
    paper.setAttribute("opacity","1");
    paper.setAttribute("visibility","visible");
  }
  var svg = svgDocument.getRootElement();
  if(svg)
  {
    svg.setAttribute("width","220.000mm");
    svg.setAttribute("height","160.000mm");
    svg.setAttribute("viewBox","-5.000000 -5.000000 220.000000 160.000000");
  }
}
]]></script><defs/><g><path style="fill:#ffffff" d="M209.96,149.94L0.04,149.94L0.04,0.04L209.96,0.04z"/><path style="fill:#baffff" d="M157.14,91.14L157.91,91.76L158.78,93.03L159.16,94.17L159.17,95.23L158.73,95.94L145.23,103.78L144.37,103.78L143.25,103.14L142.48,102.14L141.97,100.88L141.80,99.87L141.98,99.15L142.31,98.72L155.96,90.88L156.38,90.89z"/><path style="fill:#95dce0" d="M71.60,31.24L84.49,38.70L84.75,39.08L84.75,41.41L84.31,41.86L65.74,52.60L64.99,52.86L63.89,52.86L63.02,52.59L55.69,48.30L55.43,48.05L55.42,39.62L55.63,39.33L69.66,31.24L70.97,31.13z"/><path style="fill:#95dce0" d="M114.18,37.82L114.95,38.44L115.45,39.46L116.20,43.51L116.42,45.44L117.22,46.15L120.76,50.57L121.39,51.71L121.51,52.89L121.00,54.29L120.26,55.06L119.23,55.55L118.18,55.76L116.83,55.76L115.56,55.52L113.80,54.63L108.88,51.45L107.87,50.57L107.60,50.21L107.61,48.10L108.48,42.53L109.00,41.02L109.64,39.90L110.60,38.70L111.86,37.82L112.62,37.57L113.68,37.56z"/><path style="fill:#95dce0" d="M27.63,42.75L27.88,44.01L28.13,48.06L28.14,50.63L27.88,51.38L27.39,51.90L26.71,52.36L26.07,52.48L25.48,52.48L24.34,52.10L23.22,51.20L22.46,50.32L21.83,49.31L20.92,46.92L19.38,47.43L17.51,47.43L17.14,47.29L15.75,47.18L14.62,46.78L14.24,46.41L13.97,45.06L14.43,44.38L15.75,43.30L18.62,41.11L19.50,40.59z"/><path style="fill:#95dce0" d="M153.99,42.36L154.85,42.89L155.37,43.64L155.63,44.78L155.50,45.95L154.99,47.46L154.19,48.82L152.92,50.19L148.93,53.41L147.66,54.29L147.28,54.39L145.27,53.23L144.62,52.11L144.50,51.60L144.49,44.30L144.97,43.76L145.72,43.51L146.41,43.50L147.29,44.01L147.75,44.02L152.42,42.37L153.10,42.26z"/><path style="fill:#95dce0" d="M69.07,90.51L71.48,92.39L73.87,94.30L74.64,95.05L75.77,96.70L76.40,98.60L76.40,100.28L76.28,100.79L75.79,101.56L74.60,102.14L73.62,102.13L72.61,101.88L68.45,100.35L67.81,99.97L67.44,100.03L66.16,100.66L61.83,102.14L60.73,102.14L59.73,101.62L59.08,100.75L58.96,99.99L58.96,99.02L59.18,97.84L60.10,95.98L60.81,95.05L61.83,94.05L66.50,90.38L67.25,90.00L68.19,90.00z"/><path style="fill:#95dce0" d="M22.46,92.39L22.52,96.53L22.52,97.92L22.41,102.01L21.15,102.78L20.56,102.76L16.72,100.53L16.76,93.84L20.77,91.51L21.06,91.51z"/><path style="fill:#01ff02" d="M72.36,32.51L72.07,32.78L71.59,32.79L71.42,32.67L71.42,32.40L71.68,32.25L72.11,32.25z"/><path style="fill:#01ff02" d="M60.25,39.47L60.24,39.62L60.08,39.73L59.45,39.73L59.29,39.62L59.33,39.39L59.85,39.20z"/><path style="fill:#01ff02" d="M79.08,40.09L79.03,40.35L78.28,40.35L78.28,40.01L78.95,39.96z"/><path style="fill:#01ff02" d="M112.18,41.48L112.17,41.78L111.86,42.25L111.39,42.25L111.39,41.91L111.73,41.34L112.04,41.34z"/><path style="fill:#01ff02" d="M65.56,42.24L65.54,42.40L65.38,42.51L64.76,42.51L64.60,42.40L64.64,42.17L65.15,41.98z"/><path style="fill:#01ff02" d="M19.16,44.90L18.88,45.16L18.09,45.18L18.09,45.04L18.92,44.76z"/><path style="fill:#01ff02" d="M63.27,45.16L63.29,45.45L62.84,45.67L62.24,45.52L62.24,45.20L62.58,45.01L63.01,45.01z"/><path style="fill:#01ff02" d="M152.22,46.14L152.22,46.72L151.91,47.05L151.58,47.06L151.57,46.57L152.03,46.03z"/><path style="fill:#01ff02" d="M63.26,48.82L63.23,49.20L62.23,49.19L62.24,48.86L62.45,48.68L63.02,48.68z"/><path style="fill:#01ff02" d="M23.34,49.19L23.29,49.58L22.96,49.58L22.56,49.07L22.53,48.68L22.83,48.67z"/><path style="fill:#01ff02" d="M117.35,52.22L117.36,52.52L117.05,52.75L116.46,52.60L116.32,52.48L116.32,52.01L117.09,51.97z"/><path style="fill:#01ff02" d="M73.26,97.44L73.50,97.97L73.46,98.22L73.11,98.23L72.73,97.85L72.73,97.24L72.87,97.20z"/><path style="fill:#01ff02" d="M62.64,97.31L62.63,97.89L62.32,98.22L61.99,98.23L61.98,97.75L62.45,97.20z"/><path style="fill:#01ff02" d="M23.73,97.92L22.52,97.92L22.52,96.53L23.73,96.53z"/><path style="fill:#01ff02" d="M144.14,100.85L144.37,101.36L144.25,101.67L143.99,101.65L143.61,101.13L143.62,100.65L143.87,100.60z"/><path style="fill:#0000ff" d="M110.89,86.97L111.78,87.48L113.56,88.98L120.76,95.43L122.90,97.33L123.67,98.21L124.41,99.23L125.17,100.99L125.30,102.81L125.17,103.57L124.03,107.73L123.17,108.51L122.61,108.71L120.87,108.71L120.50,108.44L120.36,108.20L120.36,107.73L121.38,103.95L121.38,103.02L121.13,102.01L120.39,100.73L119.87,100.11L119.12,99.47L109.26,90.63L109.00,90.37L108.23,93.07L107.81,93.91L106.94,94.43L106.30,94.55L105.20,94.56L104.45,94.04L104.45,93.45L105.58,89.29L106.09,88.27L106.68,87.60L107.81,86.84L108.45,86.72L110.14,86.72z"/><path style="fill:#0000ff" d="M28.39,99.53L23.79,99.53L23.73,97.92L23.73,96.53L23.79,94.93L28.39,94.93z"/><path style="stroke:#000000;stroke-width:0.088" d="M147.26,54.34L147.26,44.96L147.42,44.86L147.42,54.43L147.40,54.44L147.38,54.44L147.35,54.43L147.30,54.39L147.26,54.34L145.29,53.20L145.16,53.03L144.79,52.43L144.54,51.75L144.44,51.06L144.44,44.98L144.43,44.97L144.41,44.95L144.41,44.93L144.41,51.00L144.41,51.00"/><path style="stroke:#000000;stroke-width:0.088" d="M144.44,51.06L144.42,51.05L144.41,51.02L144.46,51.55L144.62,52.09L144.71,52.30L144.98,52.81L145.28,53.23L145.28,53.22L145.29,53.20L145.29,53.21L145.30,53.24L145.32,53.26L147.35,54.43"/><path style="stroke:#000000;stroke-width:0.088" d="M144.45,51.37L144.43,51.25L144.42,51.10"/><path style="stroke:#000000;stroke-width:0.088" d="M144.41,51.00L144.41,51.02"/><path style="stroke:#000000;stroke-width:0.088" d="M144.42,44.72L144.41,44.93L144.41,44.93"/><path style="stroke:#000000;stroke-width:0.088" d="M144.44,44.98L144.45,44.81L144.58,44.29L144.87,43.95L145.29,43.82L145.28,43.80L145.28,43.76L145.28,43.75L145.29,43.72L145.30,43.71L145.32,43.68L145.14,43.71L144.97,43.77L144.83,43.86L144.70,43.98L144.53,44.25L144.53,44.27L144.47,44.45L144.42,44.68L144.41,44.94"/><path style="stroke:#000000;stroke-width:0.088" d="M145.32,53.25L145.30,53.25L145.29,53.23"/><path style="stroke:#000000;stroke-width:0.088" d="M145.28,53.23L145.29,53.23"/><path style="stroke:#000000;stroke-width:0.088" d="M145.32,51.98L145.31,51.81L145.36,51.64L145.46,51.53L145.60,51.49L145.77,51.52L145.95,51.63L146.12,51.80L146.25,52.00L146.35,52.23L146.39,52.46L146.39,52.49L146.37,52.65L146.29,52.79L146.17,52.87L146.01,52.87L145.84,52.80L145.66,52.66L145.51,52.47L145.39,52.25L145.33,52.02L145.32,51.98"/><path style="stroke:#000000;stroke-width:0.088" d="M145.31,45.18L145.32,45.07L145.38,44.91L145.49,44.82L145.64,44.79L145.81,44.84L145.99,44.96L146.15,45.14L146.28,45.35L146.36,45.58L146.39,45.80L146.36,45.99L146.27,46.12L146.14,46.18L145.98,46.16L145.80,46.08L145.63,45.93L145.48,45.73L145.37,45.50L145.32,45.28L145.31,45.18"/><path style="stroke:#000000;stroke-width:0.088" d="M145.18,43.70L145.64,43.54L146.05,43.45L146.40,43.50L146.44,43.52L147.53,44.14L147.74,44.05L147.83,44.03L147.85,44.03L148.36,44.32L147.42,44.86L145.37,43.68L145.34,43.71L145.32,43.74L145.32,43.72L145.32,43.71L145.29,43.72"/><path style="stroke:#000000;stroke-width:0.088" d="M145.32,43.74L145.30,43.79L145.29,43.82L147.26,44.96"/><path style="stroke:#000000;stroke-width:0.088" d="M145.32,43.71L145.34,43.68L145.36,43.67L145.35,43.66L145.62,43.60L145.87,43.56L146.40,43.50"/><path style="stroke:#000000;stroke-width:0.088" d="M145.30,43.68L145.35,43.66L145.32,43.68"/><path style="stroke:#000000;stroke-width:0.088" d="M145.18,43.70L145.33,43.67L145.33,43.67"/><path style="stroke:#000000;stroke-width:0.088" d="M144.86,43.84L144.91,43.80L144.94,43.79"/><path style="stroke:#000000;stroke-width:0.088" d="M145.36,43.67L145.37,43.68L145.89,43.57L146.44,43.52"/><path style="stroke:#000000;stroke-width:0.088" d="M146.27,52.04L146.23,51.97"/><path style="stroke:#000000;stroke-width:0.088" d="M146.25,45.32L146.24,45.29L146.22,45.27"/><path style="stroke:#000000;stroke-width:0.088" d="M147.42,54.43L148.38,53.88L152.94,50.22L154.01,49.14L154.87,47.78L154.90,47.69L155.43,46.32L155.63,44.91L155.43,43.73L154.99,43.08L154.87,42.92L154.01,42.56L152.94,42.70L152.45,42.42L147.88,44.03L147.85,44.03"/><path style="stroke:#000000;stroke-width:0.088" d="M147.88,44.03L148.38,44.32L148.36,44.32"/><path style="stroke:#000000;stroke-width:0.088" d="M152.94,42.70L148.38,44.32"/><path style="stroke:#000000;stroke-width:0.088" d="M152.40,42.41L153.03,42.26L153.06,42.26L154.01,42.40L154.03,42.41L153.08,42.27L152.45,42.42L152.43,42.41L152.40,42.41L147.74,44.05"/><path style="stroke:#000000;stroke-width:0.088" d="M150.91,49.39L150.91,49.39L150.49,49.01L150.27,48.40L150.27,47.61L150.49,46.73L150.91,45.87L151.48,45.11L151.98,44.68L152.14,44.54L152.82,44.21L153.45,44.17L153.95,44.41L154.27,44.92L154.38,45.63L154.27,46.48L153.94,47.36L153.44,48.18L152.82,48.85L152.14,49.31L151.48,49.50L150.91,49.39"/><path style="stroke:#000000;stroke-width:0.088" d="M150.73,49.23L151.15,49.31L151.81,49.12L152.49,48.66L153.11,47.99L153.61,47.16L153.94,46.28L154.05,45.44L153.94,44.73L153.64,44.27"/><path style="stroke:#000000;stroke-width:0.088" d="M151.64,47.25L151.54,47.15L151.49,47.00L151.49,46.81L151.55,46.60L151.65,46.39L151.79,46.21L151.95,46.08L151.98,46.06L152.11,46.00L152.26,46.00L152.38,46.06L152.45,46.19L152.48,46.36L152.45,46.56L152.37,46.77L152.24,46.97L152.09,47.13L151.93,47.23L151.77,47.28L151.64,47.25"/><path style="stroke:#000000;stroke-width:0.088" d="M151.93,46.09L152.01,46.06L152.13,46.06L152.23,46.11L152.29,46.21L152.31,46.36L152.29,46.53L152.22,46.70L152.12,46.87L151.99,47.00L151.86,47.09L151.72,47.12L151.61,47.10L151.53,47.02L151.49,46.90"/><path style="stroke:#000000;stroke-width:0.088" d="M154.03,42.41L154.87,42.92"/><path style="stroke:#000000;stroke-width:0.088" d="M59.67,101.62L60.17,101.91L59.61,101.09L59.52,100.53L59.41,99.91L59.61,98.51L60.17,97.04L61.03,95.69L62.10,94.61L61.60,94.32L61.57,94.31L61.55,94.31L61.54,94.32L60.49,95.39L59.63,96.73L59.08,98.18L58.88,99.57L58.88,99.59L59.08,100.76L59.09,100.79L59.65,101.60L59.67,101.62L59.11,100.81L58.92,99.63L59.11,98.22L59.67,96.75L60.54,95.40L61.60,94.32L66.17,90.66L66.66,90.95L67.62,90.39L67.62,99.96L67.65,99.95L67.68,99.94L67.72,99.94L67.75,99.95L67.78,99.96L67.78,90.39L68.72,90.93L69.22,90.65L69.24,90.64L69.26,90.64L69.28,90.65L69.29,90.65L69.28,90.65L69.26,90.65L69.23,90.66L73.80,94.32L73.82,94.31L73.85,94.31L73.86,94.32L69.29,90.65"/><path style="stroke:#000000;stroke-width:0.088" d="M60.17,101.91L61.03,102.27L62.10,102.12L66.66,100.51L67.62,99.96"/><path style="stroke:#000000;stroke-width:0.088" d="M60.68,100.57L60.45,100.21L60.33,99.39L60.46,98.40L60.83,97.38L61.42,96.43L62.14,95.65L62.93,95.12L63.70,94.90L64.36,95.02L64.84,95.46L65.10,96.18L65.10,97.09L64.84,98.11L64.35,99.11L63.69,99.99L63.08,100.52L62.92,100.65L62.13,101.03L61.41,101.08L60.83,100.80L60.68,100.57"/><path style="stroke:#000000;stroke-width:0.088" d="M62.66,95.30L63.23,95.14L63.80,95.24L64.22,95.62L64.44,96.24L64.44,97.03L64.22,97.90L63.80,98.76L63.22,99.52L63.08,99.65L62.56,100.10L61.88,100.42L61.26,100.46L60.76,100.22L60.44,99.71L60.35,99.18"/><path style="stroke:#000000;stroke-width:0.088" d="M62.28,98.43L62.26,98.44L62.12,98.44L62.00,98.38L61.92,98.25L61.90,98.08L61.93,97.88L62.01,97.67L62.13,97.47L62.28,97.31L62.45,97.21L62.61,97.17L62.74,97.20L62.84,97.29L62.89,97.44L62.88,97.63L62.83,97.84L62.73,98.05L62.59,98.23L62.43,98.36L62.40,98.38L62.28,98.43"/><path style="stroke:#000000;stroke-width:0.088" d="M61.91,98.04L61.92,98.13L61.98,98.24L62.08,98.29L62.20,98.28L62.31,98.24L62.34,98.22L62.47,98.11L62.59,97.96L62.67,97.79L62.72,97.61L62.72,97.45L62.68,97.33L62.60,97.25L62.49,97.23L62.37,97.25"/><path style="stroke:#000000;stroke-width:0.088" d="M61.54,94.32L66.11,90.65L66.12,90.65L66.14,90.65L66.17,90.66L67.20,90.06L67.18,90.05L67.15,90.05L67.35,89.97L67.58,89.92L67.82,89.92L68.05,89.97L68.24,90.05L69.28,90.65"/><path style="stroke:#000000;stroke-width:0.088" d="M62.10,94.61L66.66,90.95"/><path style="stroke:#000000;stroke-width:0.088" d="M66.11,90.65L66.13,90.64L66.16,90.64L66.18,90.65L66.68,90.93"/><path style="stroke:#000000;stroke-width:0.088" d="M66.13,90.64L66.65,90.34"/><path style="stroke:#000000;stroke-width:0.088" d="M67.15,90.05L67.15,90.05L66.27,90.56"/><path style="stroke:#000000;stroke-width:0.088" d="M67.78,99.96L68.73,100.51L73.30,102.12L74.36,102.27L75.23,101.91L75.79,101.09L75.98,99.91L75.79,98.51L75.34,97.34L75.23,97.04L74.36,95.69L73.30,94.61L68.73,90.95L69.23,90.66L68.20,90.06L68.22,90.05L68.24,90.05L68.44,90.16"/><path style="stroke:#000000;stroke-width:0.088" d="M67.78,90.39L67.75,90.38L67.72,90.37L67.68,90.37L67.65,90.38L67.62,90.39"/><path style="stroke:#000000;stroke-width:0.088" d="M67.20,90.06L67.38,89.98L67.59,89.94L67.81,89.94L68.02,89.98L68.20,90.06"/><path style="stroke:#000000;stroke-width:0.088" d="M68.67,90.29L69.26,90.64"/><path style="stroke:#000000;stroke-width:0.088" d="M68.72,90.93L68.73,90.95"/><path style="stroke:#000000;stroke-width:0.088" d="M71.06,99.13L71.04,99.09L70.55,98.09L70.30,97.08L70.30,96.17L70.56,95.45L71.05,95.02L71.71,94.90L72.48,95.12L73.26,95.65L73.99,96.44L74.54,97.34L74.57,97.40L74.94,98.42L75.07,99.39L74.94,100.22L74.56,100.80L74.26,100.95L73.98,101.08L73.25,101.03L72.47,100.65L71.70,99.98L71.06,99.13"/><path style="stroke:#000000;stroke-width:0.088" d="M75.05,99.18L74.96,99.72L74.63,100.22L74.13,100.46L73.51,100.42L72.83,100.09L72.17,99.51L71.60,98.75L71.18,97.89L70.96,97.02L70.96,96.23L71.18,95.61L71.60,95.24L72.17,95.14L72.74,95.30"/><path style="stroke:#000000;stroke-width:0.088" d="M72.66,98.02L72.56,97.81L72.51,97.61L72.51,97.42L72.57,97.27L72.67,97.19L72.81,97.17L72.97,97.22L73.00,97.23L73.13,97.33L73.28,97.50L73.40,97.70L73.47,97.91L73.50,98.11L73.47,98.28L73.39,98.39L73.26,98.45L73.11,98.43L72.95,98.35L72.79,98.21L72.66,98.02"/><path style="stroke:#000000;stroke-width:0.088" d="M73.49,98.05L73.47,98.15L73.41,98.25L73.30,98.29L73.18,98.28L73.04,98.21L72.91,98.09L72.80,97.94L72.72,97.77L72.67,97.59L72.67,97.52L72.68,97.44L72.72,97.32L72.81,97.24L72.93,97.23L73.04,97.26"/><path style="stroke:#000000;stroke-width:0.088" d="M73.33,98.28L73.42,98.23"/><path style="stroke:#000000;stroke-width:0.088" d="M73.30,94.61L73.80,94.32L74.86,95.40L75.72,96.75L76.29,98.22L76.48,99.63L76.33,100.53L76.29,100.81L75.72,101.62L75.75,101.60L76.31,100.79L76.32,100.76L76.51,99.59L76.51,99.57L76.32,98.18L75.77,96.73L75.14,95.74L74.91,95.39L73.86,94.32"/><path style="stroke:#000000;stroke-width:0.088" d="M75.23,101.91L75.72,101.62"/><path style="stroke:#000000;stroke-width:0.088" d="M107.79,50.49L107.76,50.46L107.67,50.33L107.60,50.18L107.55,50.02L107.54,49.91L107.52,49.90L107.51,49.88L107.52,50.00L107.57,50.17L107.65,50.34L107.76,50.49L107.85,50.59L107.85,50.57L107.85,50.55L107.79,50.49"/><path style="stroke:#000000;stroke-width:0.088" d="M107.54,49.91L107.54,48.73L107.52,48.72L107.51,48.70L107.51,49.88"/><path style="stroke:#000000;stroke-width:0.088" d="M107.51,48.67L107.51,48.68L107.51,48.67L107.51,48.68L107.52,48.70L107.55,48.72L107.54,48.73L108.04,49.02L108.04,50.05L108.05,50.09L108.06,50.12L108.08,50.15L108.10,50.18L108.96,50.94L108.84,51.43L107.85,50.55"/><path style="stroke:#000000;stroke-width:0.088" d="M107.51,48.67L108.40,42.88L108.40,42.89L108.41,42.91L108.43,42.93L107.55,48.72L108.04,49.00L108.04,49.02"/><path style="stroke:#000000;stroke-width:0.088" d="M107.51,48.70L107.51,48.68"/><path style="stroke:#000000;stroke-width:0.088" d="M107.85,50.59L108.84,51.46L108.83,51.45L108.84,51.43L108.85,51.44L108.85,51.46L108.85,51.47L108.84,51.46"/><path style="stroke:#000000;stroke-width:0.088" d="M108.10,50.18L116.39,45.40L117.26,46.18L120.79,50.60L121.41,51.74L121.50,52.91L121.06,53.96L120.12,54.78L118.82,55.26L117.29,55.34L115.71,55.03L114.28,54.36L114.15,54.84L108.85,51.44L108.98,50.96L114.28,54.36"/><path style="stroke:#000000;stroke-width:0.088" d="M108.04,50.05L116.33,45.27L116.33,45.30L116.34,45.34L116.36,45.37L116.39,45.40"/><path style="stroke:#000000;stroke-width:0.088" d="M108.04,49.00L108.93,43.22L109.34,41.76L110.08,40.33L110.19,40.19L111.06,39.11L112.18,38.24L113.30,37.82L114.29,37.90L115.03,38.47L115.44,39.46L116.32,44.22L116.33,45.27"/><path style="stroke:#000000;stroke-width:0.088" d="M108.40,42.88L108.80,41.43L109.39,40.30L109.53,40.02L110.51,38.82L111.62,37.95L111.64,37.94L112.75,37.52L112.78,37.52L113.77,37.60L113.79,37.61L112.81,37.53L111.69,37.95L110.57,38.83L109.58,40.04L108.84,41.47L108.43,42.93L108.93,43.22"/><path style="stroke:#000000;stroke-width:0.088" d="M108.85,51.47L114.15,54.87L114.15,54.86L114.15,54.84L115.58,55.51L117.16,55.83L118.69,55.74L120.00,55.26L120.93,54.44L121.37,53.39L121.50,52.91"/><path style="stroke:#000000;stroke-width:0.088" d="M108.98,50.96L108.96,50.94"/><path style="stroke:#000000;stroke-width:0.088" d="M109.84,43.88L109.98,44.45L110.41,44.96L111.04,45.17L111.79,45.03L112.57,44.58L113.32,43.85L113.95,42.93L114.38,41.92L114.58,40.92L114.51,40.05L114.20,39.39L113.66,39.03L112.97,38.99L112.19,39.29L111.41,39.89L110.71,40.72L110.17,41.70L109.86,42.72L109.79,43.67L109.84,43.88"/><path style="stroke:#000000;stroke-width:0.088" d="M109.81,43.36L109.95,43.93L110.32,44.37L110.86,44.55L111.51,44.43L112.19,44.04L112.83,43.41L113.37,42.62L113.75,41.75L113.92,40.89L113.86,40.13L113.59,39.57L113.13,39.26L112.53,39.22L112.02,39.42"/><path style="stroke:#000000;stroke-width:0.088" d="M111.76,42.49L111.61,42.52L111.48,42.47L111.39,42.36L111.36,42.20L111.35,42.16L111.37,42.00L111.44,41.79L111.55,41.59L111.70,41.42L111.86,41.30L112.02,41.24L112.17,41.25L112.27,41.33L112.34,41.47L112.35,41.65L112.30,41.86L112.21,42.07L112.08,42.26L111.92,42.40L111.76,42.49"/><path style="stroke:#000000;stroke-width:0.088" d="M111.81,41.33L111.91,41.30L112.03,41.31L112.12,41.37L112.17,41.49L112.18,41.64L112.14,41.81L112.07,41.99L111.96,42.14L111.86,42.24L111.83,42.27L111.77,42.31L111.69,42.34L111.56,42.36L111.46,42.32L111.39,42.23L111.36,42.12"/><path style="stroke:#000000;stroke-width:0.088" d="M112.10,41.36L112.01,41.30"/><path style="stroke:#000000;stroke-width:0.088" d="M114.15,54.87L115.58,55.55L116.58,55.74L117.14,55.86L118.67,55.77L119.97,55.29L120.92,54.47L120.93,54.44"/><path style="stroke:#000000;stroke-width:0.088" d="M114.02,52.77L113.64,51.97L113.64,51.86L113.62,51.16L113.95,50.44L114.61,49.88L115.52,49.54L116.58,49.46L117.67,49.65L118.69,50.09L119.51,50.73L119.75,51.06L120.06,51.50L120.26,52.32L120.11,53.09L119.60,53.74L119.24,54.00L118.81,54.20L117.81,54.41L116.72,54.35L115.65,54.03L114.72,53.49L114.02,52.77"/><path style="stroke:#000000;stroke-width:0.088" d="M115.72,54.05L114.93,53.59L114.34,52.98L114.01,52.28L113.99,51.59L114.28,50.96L114.84,50.48L115.62,50.19L116.54,50.12L117.48,50.29L118.36,50.67L119.07,51.22L119.54,51.88L119.72,52.58L119.58,53.25L119.15,53.81L118.47,54.21L117.61,54.39L116.68,54.34"/><path style="stroke:#000000;stroke-width:0.088" d="M113.79,37.61L114.29,37.90"/><path style="stroke:#000000;stroke-width:0.088" d="M116.58,52.69L116.52,52.66L116.34,52.54L116.21,52.39L116.15,52.22L116.17,52.05L116.25,51.91L116.41,51.81L116.61,51.75L116.83,51.75L117.05,51.81L117.26,51.91L117.41,52.05L117.51,52.21L117.53,52.38L117.47,52.54L117.35,52.66L117.17,52.74L116.96,52.77L116.73,52.74L116.58,52.69"/><path style="stroke:#000000;stroke-width:0.088" d="M116.55,52.68L116.40,52.57L116.29,52.44L116.24,52.30L116.26,52.17L116.33,52.05L116.46,51.96L116.62,51.92L116.81,51.92L117.00,51.96L117.16,52.05L117.29,52.16L117.37,52.30L117.39,52.44L117.35,52.57L117.25,52.67L117.10,52.74L117.05,52.75L116.92,52.77L116.73,52.74"/><path style="stroke:#000000;stroke-width:0.088" d="M14.20,46.40L14.23,46.44L14.72,46.83L14.89,46.94L15.71,47.15L15.98,47.21L17.00,47.25L17.37,47.26L18.48,47.13L18.92,47.08L19.96,46.80L18.48,47.13L17.00,47.25L15.71,47.15L14.72,46.83L14.22,46.41L14.20,46.40L14.07,45.78L14.08,45.82L14.18,46.28"/><path style="stroke:#000000;stroke-width:0.088" d="M14.37,46.56L14.37,46.56L14.25,46.47L14.23,46.44"/><path style="stroke:#000000;stroke-width:0.088" d="M14.87,46.93L14.60,46.76L14.37,46.56L14.52,46.67"/><path style="stroke:#000000;stroke-width:0.088" d="M19.51,40.59L19.54,40.58L19.56,40.58L27.56,42.72L27.54,42.72L27.51,42.73L19.51,40.59L18.47,41.18L14.76,44.05L14.32,44.46L13.94,45.16L14.09,45.79L14.73,46.27L15.81,46.56L17.19,46.62L18.72,46.44L20.23,46.05L21.05,45.73L26.47,43.33L26.62,44.02L26.43,44.05L26.24,44.12L26.24,44.15L26.24,44.18L26.23,44.19L21.17,46.43L21.18,46.41L21.18,46.36L19.96,46.80"/><path style="stroke:#000000;stroke-width:0.088" d="M14.07,45.78L13.94,45.16"/><path style="stroke:#000000;stroke-width:0.088" d="M14.81,46.88L14.93,46.97L14.95,46.98L14.95,46.97"/><path style="stroke:#000000;stroke-width:0.088" d="M14.95,46.98L15.47,47.14L16.03,47.26L16.70,47.31L17.40,47.31L18.16,47.24L18.93,47.13L19.69,46.95L20.42,46.73L21.16,46.44L21.17,46.43"/><path style="stroke:#000000;stroke-width:0.088" d="M15.45,47.11L15.45,47.11"/><path style="stroke:#000000;stroke-width:0.088" d="M15.23,47.05L15.24,47.05"/><path style="stroke:#000000;stroke-width:0.088" d="M15.93,45.48L16.46,45.72L17.23,45.83L18.13,45.80L19.08,45.63L19.57,45.47L19.97,45.34L20.70,44.97L21.20,44.54L21.41,44.11L21.31,43.73L20.91,43.44L20.26,43.26L19.41,43.22L18.47,43.32L17.54,43.55L16.72,43.89L16.09,44.30L15.73,44.73L15.67,45.14L15.93,45.48"/><path style="stroke:#000000;stroke-width:0.088" d="M15.80,45.30L15.82,45.15L16.18,44.72L16.81,44.31L17.63,43.97L18.56,43.74L19.50,43.64L20.34,43.68L21.00,43.86L21.40,44.15"/><path style="stroke:#000000;stroke-width:0.088" d="M19.60,47.39L20.16,47.20L20.32,47.06L19.80,47.27L19.19,47.42L18.55,47.49L18.01,47.49L17.49,47.42L17.17,47.31L17.56,47.46L17.69,47.48L18.23,47.56L18.87,47.54L19.51,47.43L20.04,47.24"/><path style="stroke:#000000;stroke-width:0.088" d="M18.16,47.24L18.04,47.25"/><path style="stroke:#000000;stroke-width:0.088" d="M18.05,44.89L17.95,44.99L17.94,45.09L17.99,45.17L18.12,45.23L18.30,45.26L18.51,45.25L18.74,45.22L18.96,45.15L19.10,45.08L19.13,45.06L19.26,44.96L19.31,44.85L19.29,44.76L19.20,44.69L19.05,44.64L18.85,44.63L18.62,44.66L18.40,44.71L18.20,44.79L18.05,44.89"/><path style="stroke:#000000;stroke-width:0.088" d="M18.11,45.23L18.07,45.17L18.09,45.09L18.16,45.00L18.29,44.92L18.46,44.85L18.64,44.81L18.83,44.79L19.00,44.80L19.06,44.81L19.13,44.84L19.20,44.90L19.22,44.97L19.21,45.00"/><path style="stroke:#000000;stroke-width:0.088" d="M20.19,47.17L22.05,46.28L20.92,46.83L21.42,48.30L21.48,48.48L22.10,49.77L22.98,50.96L23.91,51.80L24.98,52.37L25.96,52.50L26.77,52.18L27.01,51.96L27.44,51.10L27.54,49.94L27.24,44.76L26.15,44.47L25.92,44.43L25.70,44.43"/><path style="stroke:#000000;stroke-width:0.088" d="M20.16,47.20L20.92,46.83"/><path style="stroke:#000000;stroke-width:0.088" d="M20.60,46.66L20.32,47.06L22.49,46.01L22.53,46.00L22.71,46.05L22.95,46.19L23.23,46.41L23.05,46.66L22.89,46.78L22.73,46.82L22.57,46.79L22.49,46.60L22.32,46.40L22.11,46.29L22.04,46.28L22.17,46.24"/><path style="stroke:#000000;stroke-width:0.088" d="M25.55,52.52L25.55,52.52L25.19,52.45L24.66,52.28L24.10,51.95L23.56,51.55L23.03,51.03L22.54,50.46L22.11,49.81L21.73,49.13L21.39,48.29L21.40,48.29L21.42,48.30"/><path style="stroke:#000000;stroke-width:0.088" d="M20.90,46.84L21.39,48.29"/><path style="stroke:#000000;stroke-width:0.088" d="M21.61,46.49L21.63,46.54L22.57,46.79L23.75,49.48L23.86,49.82L23.86,50.08L23.79,50.27L23.78,50.28L23.61,50.38L23.39,50.38L23.24,50.34L22.98,50.19L22.71,49.95L22.48,49.66L22.30,49.34L22.21,49.07L22.02,48.96L21.89,48.80L21.85,48.63L21.38,46.60"/><path style="stroke:#000000;stroke-width:0.088" d="M21.35,46.62L21.55,47.60L21.75,48.21"/><path style="stroke:#000000;stroke-width:0.088" d="M21.55,47.60L21.61,47.62"/><path style="stroke:#000000;stroke-width:0.088" d="M26.24,44.12L21.18,46.36L21.05,45.73"/><path style="stroke:#000000;stroke-width:0.088" d="M21.16,46.44L25.55,44.49"/><path style="stroke:#000000;stroke-width:0.088" d="M25.07,44.71L23.23,46.41L24.52,49.35L24.64,49.89L24.61,50.36L24.44,50.69L24.16,50.85L23.77,50.85L23.35,50.69L23.07,50.50L22.90,50.36L22.55,50.02L22.12,49.41L21.89,48.80"/><path style="stroke:#000000;stroke-width:0.088" d="M21.94,48.93L21.90,48.84L21.89,48.81"/><path style="stroke:#000000;stroke-width:0.088" d="M22.21,49.07L21.63,46.54L21.56,46.52"/><path style="stroke:#000000;stroke-width:0.088" d="M21.88,48.78L21.88,48.76L21.88,48.77"/><path style="stroke:#000000;stroke-width:0.088" d="M22.82,45.71L22.49,46.01L22.22,46.20L22.05,46.28L22.12,46.24"/><path style="stroke:#000000;stroke-width:0.088" d="M22.05,46.28L22.10,46.27"/><path style="stroke:#000000;stroke-width:0.088" d="M22.11,46.29L22.10,46.29"/><path style="stroke:#000000;stroke-width:0.088" d="M26.07,44.26L26.15,44.47L27.09,49.08L27.18,50.15L26.99,51.09L26.73,51.52L26.09,51.96L25.27,52.01L24.34,51.66L23.41,50.95L22.96,50.42"/><path style="stroke:#000000;stroke-width:0.088" d="M23.10,49.63L22.96,49.57L22.82,49.46L22.69,49.32L22.59,49.16L22.52,48.99L22.50,48.85L22.53,48.73L22.60,48.66L22.70,48.64L22.77,48.65L22.83,48.67L22.97,48.75L23.11,48.88L23.16,48.94L23.23,49.03L23.32,49.20L23.36,49.36L23.36,49.49L23.31,49.59L23.22,49.64L23.10,49.63"/><path style="stroke:#000000;stroke-width:0.088" d="M23.62,51.60L23.57,51.56L23.55,51.55"/><path style="stroke:#000000;stroke-width:0.088" d="M23.35,50.69L24.07,51.10L24.81,51.39L25.47,51.37L25.98,51.03L26.28,50.42L26.35,49.62L26.28,49.07L24.52,49.35L24.16,49.45L23.85,49.49L23.75,49.48"/><path style="stroke:#000000;stroke-width:0.088" d="M24.83,52.33L24.67,52.29L24.59,52.24"/><path style="stroke:#000000;stroke-width:0.088" d="M24.33,51.24L24.07,51.10"/><path style="stroke:#000000;stroke-width:0.088" d="M24.81,51.39L24.88,51.42"/><path style="stroke:#000000;stroke-width:0.088" d="M27.09,49.08L26.77,49.03L26.41,49.05L26.28,49.07L25.36,44.58"/><path style="stroke:#000000;stroke-width:0.088" d="M27.54,49.94L27.56,49.94L27.59,49.95L27.63,49.95L27.66,49.95L27.69,49.94L27.71,49.93L27.69,50.68L27.36,51.72L26.70,52.37L25.80,52.57L25.77,52.58L25.55,52.52L25.72,52.55L26.18,52.48L26.63,52.35L26.58,52.36"/><path style="stroke:#000000;stroke-width:0.088" d="M26.35,44.16L26.35,44.16L26.23,44.19"/><path style="stroke:#000000;stroke-width:0.088" d="M26.31,44.16L26.26,44.18"/><path style="stroke:#000000;stroke-width:0.088" d="M26.24,44.18L26.59,44.09L26.57,44.11L26.58,44.10"/><path style="stroke:#000000;stroke-width:0.088" d="M26.24,44.19L26.32,44.16"/><path style="stroke:#000000;stroke-width:0.088" d="M26.35,44.16L26.50,44.12"/><path style="stroke:#000000;stroke-width:0.088" d="M26.63,52.35L26.96,52.05L27.27,51.68L27.44,51.19L27.58,50.64"/><path style="stroke:#000000;stroke-width:0.088" d="M26.70,52.37L27.20,52.08L27.86,51.43L28.19,50.39L28.21,49.64L27.71,49.93L27.41,44.75L27.38,44.57L27.33,44.41L27.29,44.44L27.26,44.46L27.21,44.46L27.18,44.45L27.22,44.45L27.28,44.44L27.32,44.42L27.33,44.40L27.33,44.39L27.15,44.18L26.89,44.03L26.63,44.01L26.62,44.02L26.61,44.06L26.59,44.09L26.61,44.07L26.61,44.09L26.60,44.10L26.57,44.11L26.46,44.12"/><path style="stroke:#000000;stroke-width:0.088" d="M26.61,44.07L26.62,44.04L26.63,44.02"/><path style="stroke:#000000;stroke-width:0.088" d="M26.47,43.33L26.49,43.32L26.63,44.01L26.62,44.06L26.61,44.09"/><path style="stroke:#000000;stroke-width:0.088" d="M27.41,44.75L27.37,44.77L27.34,44.78L27.30,44.78L27.27,44.77L27.24,44.76L27.22,44.60L27.18,44.45L27.02,44.26L26.78,44.12L26.56,44.11L26.57,44.11L26.57,44.11"/><path style="stroke:#000000;stroke-width:0.088" d="M26.78,44.12L26.80,44.13L26.77,44.12"/><path style="stroke:#000000;stroke-width:0.088" d="M26.47,44.13L26.52,44.11"/><path style="stroke:#000000;stroke-width:0.088" d="M26.49,43.32L27.51,42.73"/><path style="stroke:#000000;stroke-width:0.088" d="M27.28,44.44L27.26,44.46"/><path style="stroke:#000000;stroke-width:0.088" d="M27.26,44.44L27.30,44.42L27.33,44.39L27.88,44.08L27.62,42.79L27.61,42.76L27.59,42.73L27.56,42.72"/><path style="stroke:#000000;stroke-width:0.088" d="M27.88,44.08L27.88,44.10L27.33,44.41L27.33,44.40"/><path style="stroke:#000000;stroke-width:0.088" d="M27.88,44.10L28.21,49.64"/><path style="stroke:#000000;stroke-width:0.088" d="M145.19,103.81L144.60,103.85L143.93,103.61L143.26,103.11L142.65,102.40L142.18,101.56L141.89,100.68L141.81,100.00L141.82,99.85L141.97,99.18L142.33,98.72L142.86,98.52L143.50,98.62L144.18,99.00L144.83,99.62L145.38,100.40L145.77,101.27L145.95,102.14L145.90,102.90L145.64,103.48L145.19,103.81L158.45,96.15L158.90,95.82L159.16,95.24L159.20,94.48L159.02,93.62L158.64,92.75L158.09,91.96L157.44,91.35L156.76,90.97L156.12,90.87L155.59,91.06L142.33,98.72"/><path style="stroke:#000000;stroke-width:0.088" d="M143.50,101.33L143.57,101.46L143.71,101.63L143.88,101.76L144.04,101.83L144.18,101.83L144.30,101.76L144.37,101.62L144.38,101.48L144.38,101.45L144.35,101.24L144.26,101.03L144.13,100.84L143.98,100.68L143.81,100.59L143.66,100.55L143.53,100.59L143.44,100.69L143.39,100.85L143.40,101.04L143.46,101.26L143.50,101.33"/><path style="stroke:#000000;stroke-width:0.088" d="M144.38,101.43L144.37,101.51L144.31,101.61L144.22,101.67L144.10,101.68L143.96,101.62L143.83,101.51L143.71,101.37L143.62,101.20L143.57,101.02L143.56,100.86L143.59,100.73L143.67,100.64L143.78,100.61L143.90,100.64"/><path style="stroke:#000000;stroke-width:0.088" d="M104.41,93.60L104.39,93.75L104.43,93.97L104.57,94.18L104.78,94.37L105.04,94.51L105.34,94.59L105.53,94.61L106.18,94.61L107.00,94.43L107.66,94.05L108.10,93.53L108.25,93.06L108.97,90.40"/><path style="stroke:#000000;stroke-width:0.088" d="M104.40,93.61L105.46,89.67L105.44,89.81L105.49,90.03L105.62,90.25L105.72,90.35L105.83,90.43L106.10,90.58L106.39,90.66L106.57,90.67L105.53,94.61"/><path style="stroke:#000000;stroke-width:0.088" d="M121.36,104.05L121.36,104.06L121.43,103.44L121.30,102.53L120.94,101.58L120.38,100.70L119.86,100.14L119.78,100.04L119.77,99.88L119.79,99.78L119.82,99.68L119.94,99.44L120.10,99.20L120.23,99.06L109.37,89.34L109.86,88.84L110.54,88.29L111.20,87.91L111.78,87.75L112.12,87.78L111.19,87.11L110.26,86.77L109.59,86.64L108.55,86.73L107.87,86.85L107.26,87.19L106.45,87.83L106.01,88.34L105.61,89.20L105.46,89.67L105.89,88.82L106.60,88.35L107.52,88.32L108.45,88.67L109.37,89.34L109.25,89.49L109.08,89.73L108.96,89.96L108.93,90.07L108.91,90.17L108.92,90.33L109.00,90.43L108.44,90.02L107.72,89.75"/><path style="stroke:#000000;stroke-width:0.088" d="M108.64,90.16L108.06,90.49L107.24,90.67L106.57,90.67L106.77,90.23L107.20,89.87L107.74,89.79L108.16,89.91"/><path style="stroke:#000000;stroke-width:0.088" d="M107.82,89.96L107.82,89.96L108.20,89.93"/><path style="stroke:#000000;stroke-width:0.088" d="M109.00,90.43L119.86,100.14"/><path style="stroke:#000000;stroke-width:0.088" d="M111.27,87.17L111.79,87.53L111.27,87.17"/><path style="stroke:#000000;stroke-width:0.088" d="M111.79,87.53L112.14,87.77L111.38,87.20L111.19,87.11"/><path style="stroke:#000000;stroke-width:0.088" d="M112.16,87.78L112.14,87.77L112.19,87.80L112.12,87.78L122.97,97.49L122.63,97.46L122.06,97.63L121.39,98.00L120.71,98.56L120.23,99.06L121.09,99.98L121.81,101.11L122.36,102.46L122.59,103.78L122.48,104.92L121.45,108.86L122.09,108.85L122.91,108.67L123.57,108.30L124.01,107.78L124.17,107.30L125.23,103.37L125.28,102.93L125.23,103.37L125.07,103.84L124.63,104.37L123.97,104.74L123.15,104.92L122.48,104.92L122.31,104.90L122.01,104.82L121.75,104.68L121.64,104.59L121.54,104.49L121.41,104.28L121.36,104.06"/><path style="stroke:#000000;stroke-width:0.088" d="M112.19,87.80L123.05,97.52L122.97,97.49L123.75,98.33L123.05,97.52L123.81,98.33L124.63,99.61L125.16,101.00L125.35,102.33L125.28,102.93L125.33,102.45L125.14,101.07L124.59,99.65L123.75,98.33"/><path style="stroke:#000000;stroke-width:0.088" d="M121.45,108.86L121.25,108.84L120.96,108.75L120.69,108.61L120.49,108.43L120.35,108.21L120.31,107.99L120.32,107.85L121.38,103.92"/><path style="stroke:#000000;stroke-width:0.088" d="M123.05,97.52L123.59,98.14"/><path style="stroke:#000000;stroke-width:0.088" d="M20.87,102.93L16.73,100.54L16.73,93.84L20.87,91.45L22.53,92.41L22.53,101.97L20.87,102.93L20.87,96.23L16.73,93.84"/><path style="stroke:#000000;stroke-width:0.088" d="M21.39,101.98L21.19,101.94L21.04,101.79L20.96,101.57L20.97,101.28L21.05,100.97L21.21,100.66L21.42,100.39L21.66,100.18L21.70,100.16L21.90,100.07L22.12,100.06L22.30,100.16L22.41,100.34L22.45,100.60L22.40,100.91L22.28,101.23L22.10,101.52L21.87,101.76L21.63,101.92L21.39,101.98"/><path style="stroke:#000000;stroke-width:0.088" d="M21.36,100.46L21.29,100.65L21.10,100.95L21.04,101.01"/><path style="stroke:#000000;stroke-width:0.088" d="M21.39,98.15L21.19,98.11L21.04,97.97L20.96,97.74L20.97,97.45L21.05,97.14L21.21,96.83L21.42,96.56L21.66,96.36L21.70,96.33L21.90,96.25L22.12,96.24L22.30,96.33L22.41,96.52L22.45,96.78L22.40,97.08L22.30,97.34L22.28,97.40L22.10,97.69L21.87,97.93L21.63,98.09L21.39,98.15"/><path style="stroke:#000000;stroke-width:0.088" d="M21.36,96.63L21.29,96.83L21.10,97.12L21.04,97.18"/><path style="stroke:#000000;stroke-width:0.088" d="M20.87,96.23L22.53,95.28L22.53,96.65"/><path style="stroke:#000000;stroke-width:0.088" d="M22.53,99.73L22.53,98.94"/><path style="stroke:#000000;stroke-width:0.088" d="M22.53,97.76L22.53,98.14L22.53,97.60L22.53,98.14L22.53,97.87L22.53,97.88"/><path style="stroke:#000000;stroke-width:0.088" d="M22.53,97.63L22.53,97.66"/><path style="stroke:#000000;stroke-width:0.088" d="M22.53,97.60L22.53,97.34L22.53,97.50"/><path style="stroke:#000000;stroke-width:0.088" d="M22.53,97.87L22.53,97.86"/><path style="stroke:#000000;stroke-width:0.088" d="M22.53,97.81L22.53,97.80"/><path style="stroke:#000000;stroke-width:0.088" d="M22.53,97.43L22.53,97.39"/><path style="stroke:#000000;stroke-width:0.088" d="M22.53,97.16L22.53,97.26"/><path style="stroke:#000000;stroke-width:0.088" d="M22.53,96.94L22.53,96.97L22.53,96.54L22.53,97.34L22.53,96.54L22.53,97.20"/><path style="stroke:#000000;stroke-width:0.088" d="M22.53,96.82L22.53,96.54L22.53,96.61L22.53,96.59"/><path style="stroke:#000000;stroke-width:0.088" d="M22.53,96.97L22.53,97.04"/><path style="stroke:#000000;stroke-width:0.088" d="M22.53,96.77L22.53,96.74"/><path style="stroke:#000000;stroke-width:0.088" d="M22.53,96.49L22.53,95.74"/><path style="stroke:#000000;stroke-width:0.088" d="M22.53,96.51L22.53,96.51"/><path style="stroke:#000000;stroke-width:0.088" d="M22.53,95.28L22.53,94.95"/><path style="stroke:#000000;stroke-width:0.088" d="M23.70,97.89L22.53,97.89"/><path style="stroke:#000000;stroke-width:0.088" d="M22.53,96.49L23.70,96.49"/><path style="stroke:#000000;stroke-width:0.088" d="M28.39,99.35L28.39,94.86L23.70,94.86L23.70,99.53L28.39,99.53L28.39,98.94L28.39,99.53L28.39,98.94L28.39,99.45"/><path style="stroke:#000000;stroke-width:0.088" d="M28.39,98.60L28.39,98.94L28.39,98.14L28.39,98.60"/><path style="stroke:#000000;stroke-width:0.088" d="M28.39,97.92L28.39,98.14L28.39,97.34L28.39,97.92"/><path style="stroke:#000000;stroke-width:0.088" d="M28.39,97.15L28.39,97.34L28.39,95.84L28.39,97.15"/><path style="stroke:#000000;stroke-width:0.088" d="M28.39,97.34L28.39,96.54"/><path style="stroke:#000000;stroke-width:0.088" d="M28.39,95.84L28.39,95.74L28.39,96.54L28.39,96.40"/><path style="stroke:#000000;stroke-width:0.088" d="M28.39,95.21L28.39,94.95L28.39,95.74L28.39,95.06"/><path style="stroke:#000000;stroke-width:0.088" d="M28.39,94.86L28.39,94.95"/><path style="stroke:#000000;stroke-width:0.088" d="M55.30,47.59L55.30,47.07L55.30,47.68L55.36,47.96L55.55,48.22L55.85,48.45L55.85,46.53L63.09,50.71L63.09,52.63L63.56,52.83L64.12,52.93L64.70,52.93L65.26,52.83L65.74,52.63L65.74,50.71L84.21,40.05L84.21,41.96L84.56,41.68L84.74,41.36L84.74,39.45L84.56,39.77L84.21,40.05"/><path style="stroke:#000000;stroke-width:0.088" d="M55.85,48.45L63.09,52.63"/><path style="stroke:#000000;stroke-width:0.088" d="M55.30,47.07L55.30,46.28L55.30,47.07"/><path style="stroke:#000000;stroke-width:0.088" d="M55.85,46.53L55.55,46.31L55.36,46.05L55.30,45.77L55.30,46.28L55.30,45.48L55.30,45.77"/><path style="stroke:#000000;stroke-width:0.088" d="M55.30,45.48L55.30,44.68L55.30,46.28L55.30,45.91"/><path style="stroke:#000000;stroke-width:0.088" d="M55.30,44.68L55.30,41.49L55.30,42.29"/><path style="stroke:#000000;stroke-width:0.088" d="M55.30,41.49L55.30,39.97L55.30,40.69"/><path style="stroke:#000000;stroke-width:0.088" d="M55.30,39.97L55.36,39.69L55.55,39.43L55.85,39.20L69.30,31.44L69.77,31.24L70.33,31.13L70.92,31.13L71.48,31.24L71.95,31.44L84.21,38.51L84.56,38.79L84.74,39.11L84.74,39.45"/><path style="stroke:#000000;stroke-width:0.088" d="M59.74,39.24L59.58,39.26L59.45,39.31L59.34,39.38L59.29,39.47L59.29,39.56L59.33,39.65L59.43,39.72L59.57,39.78L59.72,39.80L59.89,39.80L60.03,39.76L60.15,39.70L60.23,39.62L60.26,39.53L60.24,39.43L60.17,39.35L60.05,39.28L59.90,39.25L59.74,39.24"/><path style="stroke:#000000;stroke-width:0.088" d="M62.25,48.82L62.18,48.93L62.17,49.04L62.23,49.15L62.28,49.18L62.35,49.23L62.51,49.30L62.69,49.33L62.89,49.32L63.07,49.28L63.21,49.20L63.31,49.11L63.34,49.00L63.31,48.89L63.22,48.79L63.09,48.71L62.91,48.66L62.72,48.65L62.53,48.68L62.37,48.74L62.25,48.82"/><path style="stroke:#000000;stroke-width:0.088" d="M62.23,45.51L62.17,45.40L62.18,45.29L62.25,45.19L62.37,45.10L62.53,45.04L62.72,45.02L62.91,45.03L63.09,45.08L63.22,45.15L63.31,45.25L63.34,45.36L63.31,45.47L63.21,45.57L63.07,45.64L62.89,45.68L62.69,45.69L62.51,45.66L62.35,45.60L62.23,45.51"/><path style="stroke:#000000;stroke-width:0.088" d="M65.74,50.71L65.26,50.91L64.71,51.02L64.12,51.02L63.56,50.91L63.09,50.71"/><path style="stroke:#000000;stroke-width:0.088" d="M63.88,50.31L63.68,50.25L63.51,50.14L63.41,50.00L63.39,49.85L63.46,49.71L63.60,49.59L63.81,49.50L64.00,49.47L64.05,49.46L64.31,49.46L64.55,49.51L64.71,49.58L64.74,49.60L64.88,49.73L64.94,49.87L64.91,50.02L64.80,50.15L64.63,50.26L64.40,50.32L64.15,50.35L63.90,50.32L63.88,50.31"/><path style="stroke:#000000;stroke-width:0.088" d="M64.55,50.28L64.31,50.23L64.05,50.22L63.81,50.27L63.78,50.28"/><path style="stroke:#000000;stroke-width:0.088" d="M64.59,42.29L64.59,42.34L64.64,42.42L64.73,42.50L64.87,42.55L65.02,42.58L65.19,42.57L65.34,42.53L65.46,42.47L65.48,42.45L65.54,42.39L65.57,42.30L65.54,42.21L65.47,42.12L65.35,42.06L65.21,42.02L65.04,42.01L64.89,42.03L64.73,42.09L64.65,42.15L64.59,42.24L64.59,42.29"/><path style="stroke:#000000;stroke-width:0.088" d="M65.74,52.63L84.21,41.96"/><path style="stroke:#000000;stroke-width:0.088" d="M69.62,46.41L69.61,46.27L69.68,46.12L69.82,46.00L70.02,45.92L70.27,45.87L70.52,45.87L70.76,45.92L70.92,46.00L70.96,46.02L71.09,46.14L71.15,46.28L71.12,46.43L71.06,46.50L71.02,46.56L70.84,46.67L70.61,46.74L70.36,46.76L70.11,46.73L69.89,46.66L69.72,46.55L69.62,46.41"/><path style="stroke:#000000;stroke-width:0.088" d="M70.77,46.69L70.52,46.64L70.27,46.64L70.02,46.68L69.99,46.69"/><path style="stroke:#000000;stroke-width:0.088" d="M71.82,32.82L71.66,32.79L71.53,32.74L71.43,32.67L71.38,32.58L71.38,32.48L71.44,32.40L71.54,32.32L71.68,32.27L71.84,32.25L72.00,32.26L72.15,32.30L72.26,32.37L72.34,32.45L72.36,32.54L72.33,32.63L72.25,32.71L72.13,32.78L71.98,32.81L71.82,32.82"/><path style="stroke:#000000;stroke-width:0.088" d="M75.86,42.61L75.82,42.68L75.84,42.83L75.94,42.96L76.10,43.07L76.33,43.14L76.58,43.17L76.83,43.15L77.05,43.08L77.23,42.98L77.34,42.84L77.36,42.70L77.31,42.55L77.17,42.43L77.14,42.41L76.97,42.34L76.73,42.29L76.48,42.28L76.24,42.33L76.03,42.42L75.89,42.54L75.86,42.61"/><path style="stroke:#000000;stroke-width:0.088" d="M76.21,43.11L76.24,43.09L76.48,43.05L76.73,43.05L76.98,43.10"/><path style="stroke:#000000;stroke-width:0.088" d="M78.23,40.05L78.18,40.14L78.18,40.23L78.22,40.32L78.32,40.39L78.46,40.45L78.61,40.47L78.77,40.47L78.92,40.43L79.05,40.36L79.12,40.29L79.15,40.19L79.13,40.10L79.06,40.02L78.94,39.95L78.79,39.92L78.63,39.91L78.47,39.93L78.34,39.98L78.23,40.05"/><path style="stroke:#000000;stroke-width:0.088" d="M82.04,39.10L82.05,39.24L82.15,39.37L82.32,39.48L82.54,39.56L82.79,39.58L83.04,39.56L83.27,39.49L83.44,39.39L83.55,39.26L83.58,39.11L83.52,38.97L83.38,38.84L83.35,38.82L83.19,38.75L82.95,38.70L82.69,38.69L82.45,38.74L82.24,38.83L82.10,38.95L82.04,39.10"/><path style="stroke:#000000;stroke-width:0.088" d="M82.42,39.52L82.45,39.51L82.69,39.46L82.95,39.46L83.19,39.52"/><path style="fill:#ffffff" d="M172.28,83.41L198.69,83.41L198.69,77.77L172.28,77.77z"/><path style="stroke:#35414c;stroke-width:0.255" d="M172.28,83.41L198.69,83.41L198.69,77.77L172.28,77.77z"/><path style="stroke:#35404c;stroke-width:0.250;stroke-opacity:0.00" d="M172.28,83.41L198.69,83.41L198.69,77.77L172.28,77.77z"/><text xml:space="preserve" fill="#333f4b" stroke-width="0" x="172.99" y="81.83" font-size="3.56" opacity="1.00" font-family="Arial" font-weight="bold" font-style="italic">H90955113V</text><path style="fill:#ffffff" d="M172.28,43.51L198.69,43.51L198.69,37.87L172.28,37.87z"/><path style="stroke:#35414c;stroke-width:0.255" d="M172.28,43.51L198.69,43.51L198.69,37.87L172.28,37.87z"/><path style="stroke:#35404c;stroke-width:0.250;stroke-opacity:0.00" d="M172.28,43.51L198.69,43.51L198.69,37.87L172.28,37.87z"/><text xml:space="preserve" fill="#333f4b" stroke-width="0" x="172.99" y="41.93" font-size="3.49" opacity="1.00" font-family="Arial" font-weight="bold" font-style="italic">F24955684A</text><path style="fill:#ffffff" d="M172.28,93.39L198.69,93.39L198.69,87.74L172.28,87.74z"/><path style="stroke:#35414c;stroke-width:0.255" d="M172.28,93.39L198.69,93.39L198.69,87.74L172.28,87.74z"/><path style="stroke:#35404c;stroke-width:0.250;stroke-opacity:0.00" d="M172.28,93.39L198.69,93.39L198.69,87.74L172.28,87.74z"/><text xml:space="preserve" fill="#333f4b" stroke-width="0" x="172.99" y="91.80" font-size="3.56" opacity="1.00" font-family="Arial" font-weight="bold" font-style="italic">H90955114V</text><path style="fill:#ffffff" d="M172.28,113.34L198.69,113.34L198.69,107.69L172.28,107.69z"/><path style="stroke:#35414c;stroke-width:0.255" d="M172.28,113.34L198.69,113.34L198.69,107.69L172.28,107.69z"/><path style="stroke:#35404c;stroke-width:0.250;stroke-opacity:0.00" d="M172.28,113.34L198.69,113.34L198.69,107.69L172.28,107.69z"/><text xml:space="preserve" fill="#333f4b" stroke-width="0" x="172.99" y="111.75" font-size="3.39" opacity="1.00" font-family="Arial" font-weight="bold" font-style="italic">VM1874</text><path style="fill:#ffffff" d="M172.28,103.36L198.69,103.36L198.69,97.72L172.28,97.72z"/><path style="stroke:#35414c;stroke-width:0.255" d="M172.28,103.36L198.69,103.36L198.69,97.72L172.28,97.72z"/><path style="stroke:#35404c;stroke-width:0.250;stroke-opacity:0.00" d="M172.28,103.36L198.69,103.36L198.69,97.72L172.28,97.72z"/><text xml:space="preserve" fill="#333f4b" stroke-width="0" x="172.99" y="101.78" font-size="3.56" opacity="1.00" font-family="Arial" font-weight="bold" font-style="italic">H90955127V</text><path style="fill:#ffffff" d="M172.28,53.49L198.69,53.49L198.69,47.84L172.28,47.84z"/><path style="stroke:#35414c;stroke-width:0.255" d="M172.28,53.49L198.69,53.49L198.69,47.84L172.28,47.84z"/><path style="stroke:#35404c;stroke-width:0.250;stroke-opacity:0.00" d="M172.28,53.49L198.69,53.49L198.69,47.84L172.28,47.84z"/><text xml:space="preserve" fill="#333f4b" stroke-width="0" x="172.99" y="51.90" font-size="3.49" opacity="1.00" font-family="Arial" font-weight="bold" font-style="italic">F24955685A</text><path style="fill:#ffffff" d="M172.28,63.46L198.70,63.46L198.70,57.82L172.28,57.82z"/><path style="stroke:#35414c;stroke-width:0.255" d="M172.28,63.46L198.70,63.46L198.70,57.82L172.28,57.82z"/><path style="stroke:#35404c;stroke-width:0.250;stroke-opacity:0.00" d="M172.28,63.46L198.70,63.46L198.70,57.82L172.28,57.82z"/><text xml:space="preserve" fill="#333f4b" stroke-width="0" x="172.99" y="61.87" font-size="3.55" opacity="1.00" font-family="Arial" font-weight="bold" font-style="italic">H01953812X</text><path style="fill:#ffffff" d="M172.28,73.44L198.70,73.44L198.70,67.79L172.28,67.79z"/><path style="stroke:#35414c;stroke-width:0.255" d="M172.28,73.44L198.70,73.44L198.70,67.79L172.28,67.79z"/><path style="stroke:#35404c;stroke-width:0.250;stroke-opacity:0.00" d="M172.28,73.44L198.70,73.44L198.70,67.79L172.28,67.79z"/><text xml:space="preserve" fill="#333f4b" stroke-width="0" x="172.99" y="71.85" font-size="3.56" opacity="1.00" font-family="Arial" font-weight="bold" font-style="italic">H90955112V</text><g id="paperID" visibility="hidden" opacity="0.00" transform="scale(0.000100)"><path style="stroke:#000000;stroke-width:0.500;fill:#e6e6e6;fill-rule:evenodd" d="M-2000.00,-2000.00L2210.00,-2000.00L2210.00,2150.00L-2000.00,2150.00zM0.00,0.00L210.00,0.00L210.00,150.00L0.00,150.00z"/><path style="fill:#000000;fill-opacity:0.118" d="M3.00,150.00L210.00,150.00L210.00,3.00L213.00,3.00L213.00,153.00L3.00,153.00z"/></g><g id="hotspot.0" onmouseover="ShowHotSpot(evt,'0')" onmouseout="HideHotSpot(evt,'0')" onmousemove="ShowToolTip(evt,'0',&quot;F24955684A&quot;)" opacity="0"><path style="fill:#00ff00;fill-rule:evenodd" d="M198.92,38.12L198.91,43.24L198.62,43.75L172.34,43.70L172.03,43.48L172.10,37.96L198.66,37.86zM157.98,91.66L158.99,93.53L159.00,95.48L158.63,95.89L145.53,103.53L143.77,103.51L142.45,101.94L141.91,100.64L141.91,99.38L142.63,98.53L155.74,90.89L156.63,90.89z"/></g><g id="hotspot.1" onmouseover="ShowHotSpot(evt,'1')" onmouseout="HideHotSpot(evt,'1')" onmousemove="ShowToolTip(evt,'1',&quot;F24955685A&quot;)" opacity="0"><path style="fill:#00ff00;fill-rule:evenodd" d="M71.84,31.33L82.86,37.63L84.72,38.92L84.61,41.56L65.73,52.61L63.16,52.60L55.56,48.13L55.56,39.29L69.39,31.33L70.18,31.05L71.05,31.05zM198.92,48.09L198.91,53.22L198.62,53.72L172.34,53.67L172.03,53.46L172.10,47.94L198.66,47.83z"/></g><g id="hotspot.2" onmouseover="ShowHotSpot(evt,'2')" onmouseout="HideHotSpot(evt,'2')" onmousemove="ShowToolTip(evt,'2',&quot;H01954321&quot;)" opacity="0"><path style="fill:#00ff00;fill-rule:evenodd" d="M198.92,58.07L198.91,63.19L198.62,63.70L172.34,63.65L172.03,63.43L172.10,57.91L198.66,57.81zM21.43,91.69L22.50,92.47L22.66,96.26L23.54,96.27L23.70,94.84L28.27,94.84L28.27,99.41L23.70,99.41L23.54,97.98L22.66,97.99L22.50,101.78L21.43,102.56L20.65,102.75L16.98,100.62L16.98,93.63L20.94,91.44z"/></g><g id="hotspot.3" onmouseover="ShowHotSpot(evt,'3')" onmouseout="HideHotSpot(evt,'3')" onmousemove="ShowToolTip(evt,'3',&quot;H90955112V&quot;)" opacity="0"><path style="fill:#00ff00;fill-rule:evenodd" d="M155.32,43.39L155.57,45.59L154.78,47.95L153.10,49.94L147.86,54.15L146.93,54.16L145.59,53.39L145.06,52.86L144.54,51.81L144.53,44.25L144.98,43.66L146.39,43.37L147.20,43.93L147.88,43.96L152.33,42.35L154.01,42.34zM198.92,68.04L198.91,73.17L198.62,73.67L172.34,73.62L172.03,73.41L172.10,67.89L198.66,67.78z"/></g><g id="hotspot.4" onmouseover="ShowHotSpot(evt,'4')" onmouseout="HideHotSpot(evt,'4')" onmousemove="ShowToolTip(evt,'4',&quot;H90955113V&quot;)" opacity="0"><path style="fill:#00ff00;fill-rule:evenodd" d="M27.46,42.62L27.76,43.12L28.00,45.50L28.02,51.12L26.62,52.34L25.09,52.34L23.56,51.52L22.25,49.93L21.16,47.61L20.92,46.83L19.53,47.35L17.50,47.34L15.65,47.09L14.36,46.54L14.06,45.77L14.06,44.79L14.79,43.93L19.47,40.52zM198.92,78.02L198.91,83.14L198.62,83.65L172.34,83.60L172.03,83.38L172.10,77.86L198.66,77.76z"/></g><g id="hotspot.5" onmouseover="ShowHotSpot(evt,'5')" onmouseout="HideHotSpot(evt,'5')" onmousemove="ShowToolTip(evt,'5',&quot;H90955114V&quot;)" opacity="0"><path style="fill:#00ff00;fill-rule:evenodd" d="M114.37,37.88L115.43,39.19L116.46,45.50L117.22,46.05L119.89,49.42L121.46,51.79L121.46,53.21L121.10,53.90L119.88,55.30L117.41,55.75L115.66,55.49L113.57,54.43L108.34,51.00L107.80,50.48L107.80,46.90L108.57,42.16L109.79,39.70L110.86,38.41L112.16,37.61L113.85,37.61zM198.92,87.99L198.91,93.12L198.62,93.62L172.34,93.57L172.03,93.36L172.10,87.84L198.66,87.73z"/></g><g id="hotspot.6" onmouseover="ShowHotSpot(evt,'6')" onmouseout="HideHotSpot(evt,'6')" onmousemove="ShowToolTip(evt,'6',&quot;H90955127V&quot;)" opacity="0"><path style="fill:#00ff00;fill-rule:evenodd" d="M68.95,90.39L73.97,94.29L75.28,95.87L76.31,97.99L76.31,100.72L75.97,101.17L74.91,101.95L72.87,101.95L68.69,100.36L68.17,100.08L67.28,100.08L66.76,100.36L62.32,101.96L60.27,101.96L59.51,101.40L58.95,99.83L59.15,98.00L60.47,95.38L62.04,93.80L66.50,90.39L67.90,89.84zM198.92,97.97L198.91,103.09L198.62,103.60L172.34,103.55L172.03,103.33L172.10,97.81L198.66,97.71z"/></g><g id="hotspot.7" onmouseover="ShowHotSpot(evt,'7')" onmouseout="HideHotSpot(evt,'7')" onmousemove="ShowToolTip(evt,'7',&quot;VM1874&quot;)" opacity="0"><path style="fill:#00ff00;fill-rule:evenodd" d="M111.47,87.24L114.62,89.86L123.58,97.97L124.86,100.10L125.36,102.18L125.13,103.87L124.07,107.53L123.23,108.53L120.66,108.50L120.38,108.22L120.37,107.54L121.46,103.26L120.70,101.11L119.35,99.58L109.92,91.15L109.37,90.62L108.85,90.71L108.07,93.37L107.17,94.31L104.88,94.36L104.57,94.15L104.64,92.83L105.69,88.89L106.74,87.58L107.45,86.97L108.23,86.71L110.44,86.70zM198.92,107.94L198.91,113.07L198.62,113.57L172.34,113.52L172.03,113.31L172.10,107.79L198.66,107.68z"/></g></g></svg>
