<?xml version="1.0" encoding="UTF-8" standalone="no"?>
<svg xmlns="http://www.w3.org/2000/svg" xmlns:xlink="http://www.w3.org/1999/xlink" width="210.000mm" height="150.000mm" viewBox="0.000000 0.000000 210.000000 150.000000" stroke-linejoin="round" stroke-linecap="round" fill="none" fill-rule="evenodd"><desc>Composer Export</desc><script type="text/ecmascript"><![CDATA[
if(typeof(top) != "undefined")
{
	top.ShowPaper = ShowPaper;
}
function ShowHotSpot(evt,hotspotid)
{
	var svgDocument = evt.target.ownerDocument;
	var strId = "hotspot."+hotspotid;
	var hotspot = svgDocument.getElementById(strId);
	if(hotspot)
		hotspot.setAttribute("opacity",".5");
}
function HideHotSpot(evt,hotspotid)
{
	var svgDocument = evt.target.ownerDocument;
	var strId = "hotspot."+hotspotid;
	var hotspot = svgDocument.getElementById(strId);
	if(hotspot)
		hotspot.setAttribute("opacity","0");

	var toolTip = svgDocument.getElementById('ToolTip');
	if(toolTip)
		toolTip.setAttribute("visibility","hidden");
}
function ShowToolTip(evt,hotspotid,strTooltip)
{
	if(strTooltip=="")
	return;

	// change text
	var svgDocument = evt.target.ownerDocument;
	var tiptext = svgDocument.getElementById('ToolTipText');
	if( !tiptext )
	return;
	tiptext.firstChild.nodeValue = " " + strTooltip + "  " ;

	// show tooltip before, else some refresh issue

	var toolTip = svgDocument.getElementById('ToolTip');
	if(!toolTip)
	return;

	toolTip.setAttribute("visibility","visible");
	toolTip.setAttribute("opacity",".95");

	// move tooltip
	// get viewbox

	var root = svgDocument.documentElement;
	var vbox = (root.getAttribute("viewBox")).split(' ');
	var x0 = parseFloat(vbox[0]);
	var y0 = parseFloat(vbox[1]);
	var vboxW = parseFloat(vbox[2]);
	var vboxH = parseFloat(vbox[3]);

	// get default width of svg

	var strW = root.getAttribute("width");
	var svgW = parseFloat(strW);
	if(strW.indexOf('mm') != -1)
	svgW *= 3.779;

	var strH = root.getAttribute("height");
	var svgH = parseFloat(strH);
	if(strH.indexOf('mm') != -1)
	svgH *= 3.779;  	// 96 dpi  -> 96/25.4 = 3.779

	// update the viewbox / width / height if svg is embedded in html with zoom fit all
	var realx0 = x0;
	var realy0 = y0;
	var realvboxW = vboxW;
	var realvboxH = vboxH;
	var realsvgW = svgW;
	var realsvgH = svgH;

	if ((typeof(top) == "undefined") || (typeof(top.svgctl1) != "undefined")) // embedded in html
	{
		// get window size in pxl

		svgW = window.innerWidth;
		svgH = window.innerHeight;

		// calculate real viewbox

		realsvgW = svgW;
		realsvgH = svgH;
		if((svgW / svgH) > (vboxW / vboxH))
		{
			realvboxW = (vboxH * svgW) / svgH;
			realvboxH = vboxH;
			realx0 = x0 - (realvboxW - vboxW)/2 ;
		}
		else
		{
			realvboxH = (vboxW * svgH) / svgW;
			realvboxW = vboxW;
			realy0 = y0 - (realvboxH - vboxH)/2 ;
		}
	}

	// get user zoom/pan

	var newScale = root.currentScale;
	var translation = root.currentTranslate;

	// transform pxl to user unit

	var xPos = (((evt.clientX+10- translation.x)/newScale) * realvboxW)/realsvgW  + realx0 ;
	var yPos = (((evt.clientY+5- translation.y)/newScale) * realvboxH)/ realsvgH  + realy0 ;
	var scaleForWidth = ( (1 / newScale) * realvboxH) / realsvgH;

	// move tooltip

	toolTip.setAttribute("transform", "translate(" + xPos + "," + yPos + ")" );

	// resize tooltip

	var fontsize = 12;
	tiptext.setAttribute("font-size",fontsize*scaleForWidth);
	tiptext.setAttribute("y", fontsize*scaleForWidth);
	var tipBG = svgDocument.getElementById('ToolTipBG');
	var outline = tiptext.getBBox();
	if(tipBG)
	{
		tipBG.setAttribute("stroke-width", 1*scaleForWidth);
		tipBG.setAttribute("width", Number(outline.width) );
		tipBG.setAttribute("height", Number(outline.height) + fontsize*.5*scaleForWidth );
	}
	var ToolTipShadow = svgDocument.getElementById('ToolTipShadow');
	if(ToolTipShadow)
	{
		ToolTipShadow.setAttribute("width", Number(outline.width) );
		ToolTipShadow.setAttribute("height", Number(outline.height) + fontsize*.5*scaleForWidth );
		ToolTipShadow.setAttribute("x", 3*scaleForWidth);
		ToolTipShadow.setAttribute("y", 3*scaleForWidth);
	}
}
function ShowPaper()
{
  var svgDocument = getDocument();
  var paper = svgDocument.getElementById("paperID");
  if(paper)
  {
    paper.setAttribute("transform","scale(1)");
    paper.setAttribute("opacity","1");
    paper.setAttribute("visibility","visible");
  }
  var svg = svgDocument.getRootElement();
  if(svg)
  {
    svg.setAttribute("width","220.000mm");
    svg.setAttribute("height","160.000mm");
    svg.setAttribute("viewBox","-5.000000 -5.000000 220.000000 160.000000");
  }
}
]]></script><defs/><g><path style="fill:#ffffff" d="M209.93,149.99L0.04,149.99L0.04,0.04L209.93,0.04z"/><path style="fill:#2ac7ce" d="M132.77,35.39L132.88,35.90L134.66,36.92L135.04,37.42L135.04,38.49L134.73,38.94L55.55,84.69L54.81,84.70L53.56,83.93L53.01,83.79L51.39,84.61L51.35,84.85L52.42,85.45L52.94,85.83L52.89,86.21L38.70,94.46L37.84,94.45L34.68,92.67L34.68,89.80L36.20,88.78L130.69,34.24L130.85,34.24z"/><path style="fill:#4c4c4c" d="M134.15,45.40L134.55,45.64L135.04,46.16L135.04,47.99L134.91,48.24L134.36,48.70L133.60,48.96L131.99,48.96L131.23,48.70L130.74,48.31L130.59,48.08L130.59,46.20L131.06,45.66L131.95,45.28L133.64,45.28z"/><path style="fill:#4c4c4c" d="M156.58,58.46L157.21,58.71L157.85,59.34L157.85,61.04L157.54,61.49L156.80,62.01L156.16,62.13L154.93,62.14L153.80,61.74L153.40,61.26L153.40,59.25L153.75,58.84L154.63,58.46L155.94,58.33z"/><path style="fill:#898989" d="M24.68,63.28L24.69,63.43L24.55,63.58L24.54,64.17L24.79,65.05L25.57,66.93L26.70,68.09L26.75,68.39L26.19,68.37L26.15,68.88L26.36,69.05L26.29,69.10L25.43,69.12L23.74,68.13L23.22,63.52L23.74,62.88L24.03,62.88z"/><path style="fill:#898989" d="M13.65,69.62L13.66,69.77L13.53,69.91L13.51,70.51L13.76,71.39L14.54,73.27L15.68,74.42L15.70,74.75L15.26,74.67L15.14,74.83L15.17,75.30L15.33,75.43L14.40,75.45L12.76,74.55L12.59,73.66L12.50,72.40L12.19,69.86L12.58,69.35L13.01,69.22z"/><path style="fill:#898989" d="M28.11,69.66L27.97,69.80L27.58,69.70L27.91,69.17L28.10,69.23z"/><path style="fill:#898989" d="M17.08,76.00L16.94,76.14L16.57,76.04L16.88,75.51L17.07,75.56z"/><path style="fill:#898989" d="M110.21,112.68L110.03,114.59L109.85,116.32L109.27,116.10L108.93,116.42L108.92,116.74L109.36,117.06L109.29,117.13L108.54,117.14L107.28,116.38L107.02,116.00L106.78,115.86L106.69,115.34L107.07,114.82L107.25,114.71L108.18,114.85L108.50,114.85L108.94,114.01L108.94,113.32L108.76,112.93L109.20,112.50L109.58,112.31z"/><path style="fill:#898989" d="M99.19,119.02L99.18,119.96L99.01,121.06L98.82,122.66L98.24,122.44L97.86,122.95L98.34,123.45L97.78,123.60L96.25,122.71L95.99,122.34L95.76,122.19L95.67,121.80L96.05,121.15L96.23,121.05L97.15,121.19L97.48,121.19L97.87,120.43L97.92,119.65L97.74,119.27L98.37,118.77L98.80,118.77z"/><path style="fill:#95dce0" d="M56.35,58.59L56.35,59.90L55.93,60.24L55.80,63.02L53.65,64.30L53.18,64.30L52.76,64.07L52.76,59.22L55.04,57.94L55.21,57.94z"/><path style="fill:#95dce0" d="M113.38,91.52L113.38,96.27L111.04,97.63L110.85,97.61L110.29,97.27L110.21,93.93L109.82,93.69L109.82,92.21L112.19,90.88L112.35,90.89z"/><path style="fill:#1497e5" d="M48.48,96.10L49.26,97.48L49.25,98.92L48.19,99.53L47.87,99.51L45.70,98.25L45.59,97.73L42.37,95.88L42.37,93.94L43.51,93.29L43.68,93.29z"/><path style="fill:#1497e5" d="M57.48,101.29L57.48,103.23L56.60,103.74L56.22,103.84L53.56,102.29L52.92,102.44L50.60,101.08L50.64,99.68L52.69,98.50z"/><path style="fill:#8aa7bf" d="M69.65,60.74L69.66,61.17L65.80,67.19L46.93,78.11L46.33,78.10L46.21,77.97L46.20,76.86L46.80,76.20L63.91,63.53L68.97,60.60L69.40,60.60z"/><path style="fill:#8aa7bf" d="M31.88,70.50L32.03,70.74L32.02,71.30L31.64,72.06L31.22,72.41L30.61,72.41L30.37,72.27L30.36,71.16L31.08,70.36L31.65,70.36z"/><path style="fill:#8aa7bf" d="M42.66,75.44L43.18,75.81L43.16,78.39L40.22,80.14L39.74,80.14L33.41,76.45L33.41,73.71L36.41,72.00L36.71,72.00z"/><path style="fill:#8aa7bf" d="M20.86,76.84L21.00,77.08L21.00,77.77L20.74,78.27L20.20,78.74L19.59,78.74L19.35,78.60L19.34,77.63L19.86,76.88L20.06,76.70L20.62,76.70z"/><path style="fill:#8aa7bf" d="M32.16,82.14L32.16,84.74L29.19,86.47L28.72,86.47L22.39,82.79L22.35,80.13L25.39,78.34L25.68,78.34z"/><path style="fill:#8aa7bf" d="M110.47,84.30L110.46,84.73L106.60,90.76L87.74,101.67L87.13,101.67L87.14,100.19L90.01,98.00L105.09,86.84L109.77,84.18L110.34,84.17z"/><path style="fill:#8aa7bf" d="M93.35,104.71L98.94,107.99L98.93,110.47L95.83,112.31L95.50,112.33L89.00,108.55L89.04,105.89L92.22,104.08z"/><path style="fill:#8aa7bf" d="M87.91,114.33L87.91,116.80L84.82,118.67L84.48,118.66L77.98,114.88L78.01,112.23L81.01,110.53L81.44,110.53z"/><path style="fill:#8aa7bf" d="M102.99,111.81L102.99,112.10L102.72,112.73L102.17,113.32L101.46,113.33L101.19,112.96L101.20,112.35L101.72,111.47L102.04,111.29L102.61,111.29z"/><path style="fill:#8aa7bf" d="M91.96,118.01L91.95,118.57L91.57,119.32L91.16,119.67L90.43,119.66L90.16,119.28L90.26,118.52L90.88,117.74L91.02,117.63L91.58,117.63z"/><path style="fill:#01ff02" d="M133.03,37.84L132.57,37.84L132.57,37.68L133.03,37.68z"/><path style="fill:#01ff02" d="M55.16,60.12L54.90,60.15L54.94,59.90L55.22,59.73z"/><path style="fill:#01ff02" d="M55.48,62.18L55.27,62.30L55.30,62.00L55.46,61.99z"/><path style="fill:#01ff02" d="M53.98,62.96L53.82,63.20L53.82,62.93L53.95,62.89z"/><path style="fill:#01ff02" d="M26.75,68.39L27.91,69.17L27.58,69.70L26.36,69.05L26.15,68.88L26.19,68.37z"/><path style="fill:#01ff02" d="M15.70,74.75L16.88,75.51L16.57,76.04L15.33,75.43L15.17,75.30L15.14,74.83L15.26,74.67z"/><path style="fill:#01ff02" d="M42.62,77.23L42.36,77.26L42.38,76.99L42.51,76.82L42.66,76.82z"/><path style="fill:#01ff02" d="M20.38,77.89L20.23,78.05L20.04,77.93L20.29,77.58L20.37,77.59z"/><path style="fill:#01ff02" d="M40.80,78.04L40.50,78.41L40.51,78.00L40.77,77.97z"/><path style="fill:#01ff02" d="M31.59,83.56L31.34,83.60L31.37,83.34L31.65,83.17z"/><path style="fill:#01ff02" d="M29.69,84.70L29.44,84.74L29.48,84.33L29.74,84.30z"/><path style="fill:#01ff02" d="M112.37,92.96L112.10,93.23L112.06,92.80L112.37,92.68z"/><path style="fill:#01ff02" d="M112.98,95.51L112.82,95.52L112.86,95.23L113.01,95.21z"/><path style="fill:#01ff02" d="M111.61,96.27L111.41,96.38L111.43,96.09L111.59,96.08z"/><path style="fill:#01ff02" d="M57.11,102.14L56.97,102.47L56.68,102.43L56.93,102.04z"/><path style="fill:#01ff02" d="M97.44,109.47L97.15,109.83L97.15,109.42L97.41,109.39z"/><path style="fill:#01ff02" d="M107.07,114.82L106.69,115.34L105.34,114.63L105.38,114.26L105.60,114.07L105.76,114.07z"/><path style="fill:#01ff02" d="M86.42,115.80L86.12,116.17L86.12,115.76L86.38,115.73z"/><path style="fill:#01ff02" d="M91.35,118.58L91.17,118.95L91.02,118.91L91.28,118.51z"/><path style="fill:#01ff02" d="M96.05,121.15L95.67,121.80L94.31,120.96L94.44,120.54L94.57,120.40L94.74,120.41z"/><path style="fill:#597ea0" d="M59.89,61.75L60.41,62.13L60.41,62.55L60.27,62.94L59.85,63.40L59.25,63.41L58.75,63.01L58.74,62.55L59.10,61.89L59.65,61.63z"/><path style="fill:#597ea0" d="M109.32,90.26L109.58,90.64L109.58,90.94L109.02,91.78L108.43,91.78L107.92,91.41L107.91,90.81L108.31,90.19L108.81,90.00z"/><path style="fill:#2ac7ce" d="M156.70,49.72L157.72,49.70L159.24,50.60L159.25,51.54L61.67,107.92L61.28,108.02L58.08,106.14L58.12,105.26L72.27,97.09L72.56,97.09L73.45,97.63L73.79,97.63L75.48,96.60L74.96,96.23L74.96,95.61L75.86,94.99L154.38,49.71L154.89,49.59L156.20,49.59z"/><path style="fill:#0000ff" d="M109.85,116.32L109.79,116.76L109.36,117.06L108.92,116.74L108.93,116.42L109.27,116.10z"/><path style="fill:#0000ff" d="M98.82,122.66L98.75,123.21L98.34,123.45L97.86,122.95L98.24,122.44z"/><path style="fill:#ffffff" d="M63.48,64.61L63.32,64.85L63.32,64.57L63.46,64.54z"/><path style="fill:#ffffff" d="M20.04,77.93L20.10,77.62L20.29,77.58z"/><path style="fill:#ffffff" d="M50.81,81.59L50.65,81.83L50.65,81.55L50.79,81.52z"/><path style="fill:#ffffff" d="M48.90,82.60L48.62,83.09L48.60,82.83L48.83,82.52z"/><path style="fill:#ffffff" d="M46.50,84.13L46.34,84.36L46.34,84.09L46.48,84.06z"/><path style="fill:#ffffff" d="M44.83,85.25L44.69,85.38L44.69,84.96L44.83,84.94z"/><path style="fill:#ffffff" d="M39.70,88.25L39.45,88.24L39.70,87.84L39.76,87.86z"/><path style="fill:#ffffff" d="M37.88,89.06L37.59,89.43L37.59,89.17L37.86,89.00z"/><path style="fill:#ffffff" d="M102.08,112.48L101.92,112.44L102.11,112.19z"/><path style="stroke:#000000;stroke-width:0.088" d="M46.42,77.93L46.42,77.21L46.44,77.07L46.49,76.92L46.56,76.77L46.66,76.64L46.77,76.54L64.09,63.69L64.15,63.65L63.90,63.51L69.04,60.54L69.28,60.68L69.42,60.63L69.54,60.64L69.63,60.72L69.68,60.84L69.68,61.00L69.63,61.19L69.54,61.36L65.86,67.07L65.78,67.17L65.69,67.26L65.60,67.33L46.83,78.17L46.70,78.22L46.59,78.22L46.50,78.16L46.44,78.07L46.42,77.93L46.18,77.79L46.20,77.92L46.26,78.02L46.50,78.16"/><path style="stroke:#000000;stroke-width:0.088" d="M46.18,77.79L46.18,77.07L46.42,77.21"/><path style="stroke:#000000;stroke-width:0.088" d="M46.18,77.07L46.19,76.93L46.24,76.78L46.32,76.63L46.42,76.50L46.53,76.40L46.77,76.54"/><path style="stroke:#000000;stroke-width:0.088" d="M63.90,63.51L63.84,63.54L46.53,76.40"/><path style="stroke:#000000;stroke-width:0.088" d="M63.47,65.10L63.38,65.13L63.31,65.13L63.25,65.09L63.21,65.02L63.20,64.93L63.22,64.82L63.27,64.71L63.33,64.60L63.42,64.52L63.50,64.47L63.59,64.45L63.66,64.47L63.71,64.53L63.73,64.61L63.72,64.71L63.69,64.83L63.63,64.94L63.56,65.03L63.47,65.10"/><path style="stroke:#000000;stroke-width:0.088" d="M63.48,64.48L63.48,64.57L63.45,64.69L63.39,64.79L63.31,64.89L63.23,64.96L63.20,64.97"/><path style="stroke:#000000;stroke-width:0.088" d="M64.15,63.65L69.28,60.68"/><path style="stroke:#000000;stroke-width:0.088" d="M64.09,63.69L63.84,63.54"/><path style="stroke:#000000;stroke-width:0.088" d="M69.04,60.54L69.17,60.49L69.30,60.50L69.54,60.64"/><path style="stroke:#000000;stroke-width:0.088" d="M14.74,75.41L14.71,75.43L14.51,75.47L14.35,75.42L12.79,74.52L12.68,74.38L12.63,74.18L12.63,74.06L12.66,73.66L12.64,73.44L12.61,73.34L12.59,73.13L13.58,73.70L13.63,73.80L13.85,74.24L13.90,74.33L13.92,74.35L13.91,74.38L12.66,73.66"/><path style="stroke:#000000;stroke-width:0.088" d="M12.63,74.06L13.82,74.75L13.83,74.66L13.84,74.61L13.85,74.56L13.88,74.47L13.89,74.42L13.91,74.38"/><path style="stroke:#000000;stroke-width:0.088" d="M12.65,73.53L12.61,73.65L12.60,73.77L12.63,73.88L12.64,73.89"/><path style="stroke:#000000;stroke-width:0.088" d="M12.63,74.07L13.82,74.76L13.82,74.75"/><path style="stroke:#000000;stroke-width:0.088" d="M12.65,73.50L12.64,73.50L12.60,73.63L12.59,73.76L12.59,73.76L12.62,73.86L12.62,73.87L12.64,73.89"/><path style="stroke:#000000;stroke-width:0.088" d="M12.59,73.13L12.37,71.60L12.21,70.02L12.70,70.30L12.61,70.42L12.56,70.59L12.57,70.80L13.47,70.28L13.48,70.33L13.13,70.47L13.28,71.03L13.59,72.00L13.97,72.97L13.81,73.07L13.81,73.07L13.55,73.30L13.44,73.41L13.04,72.37L12.92,72.05L12.64,71.10L12.57,70.84L12.58,70.85L12.57,70.80"/><path style="stroke:#000000;stroke-width:0.088" d="M12.58,70.85L12.90,70.61L13.19,71.56L13.56,72.53L13.81,73.07"/><path style="stroke:#000000;stroke-width:0.088" d="M12.70,70.30L12.71,70.30L12.78,70.28L12.79,70.28L12.80,70.27L12.82,70.25L12.83,70.22L12.85,70.11L12.88,69.93L12.90,69.72L12.92,69.48L12.92,69.44L12.92,69.43L12.91,69.42L12.71,69.31L12.70,69.31L12.63,69.32L12.55,69.37L12.85,69.19L12.77,69.25L12.76,69.27L12.76,69.27L12.77,69.28L12.71,69.31"/><path style="stroke:#000000;stroke-width:0.088" d="M12.21,70.02L12.21,69.91L12.22,69.88L12.28,69.68L12.38,69.50L12.47,69.41L12.49,69.40L12.47,69.41"/><path style="stroke:#000000;stroke-width:0.088" d="M12.70,70.31L12.71,70.30"/><path style="stroke:#000000;stroke-width:0.088" d="M12.55,69.37L12.49,69.40L12.79,69.22"/><path style="stroke:#000000;stroke-width:0.088" d="M12.49,69.40L12.49,69.40"/><path style="stroke:#000000;stroke-width:0.088" d="M13.44,73.41L13.58,73.70"/><path style="stroke:#000000;stroke-width:0.088" d="M12.83,70.21L13.69,69.72L13.69,69.72L13.70,69.74L13.69,69.76L13.68,69.77"/><path style="stroke:#000000;stroke-width:0.088" d="M13.47,70.28L13.46,70.07L13.50,69.90L13.56,69.84"/><path style="stroke:#000000;stroke-width:0.088" d="M13.47,70.33L13.74,71.30L14.11,72.32L14.34,72.89L14.47,73.18L14.71,73.50L14.80,73.58L14.93,73.69L14.86,73.65L14.82,73.64L14.78,73.63L14.73,73.63L14.68,73.63L14.59,73.65L14.51,73.68L14.30,73.52L14.13,73.30L14.00,73.03L13.98,72.97L14.24,72.89L14.34,72.89"/><path style="stroke:#000000;stroke-width:0.088" d="M12.83,70.22L13.69,69.72"/><path style="stroke:#000000;stroke-width:0.088" d="M12.80,70.27L13.68,69.77"/><path style="stroke:#000000;stroke-width:0.088" d="M13.69,69.72L13.64,69.63L13.54,69.54L13.35,69.45L13.08,69.40L13.00,69.40L12.98,69.40L12.97,69.39L12.77,69.28"/><path style="stroke:#000000;stroke-width:0.088" d="M13.43,69.49L12.92,69.19L12.91,69.18L12.85,69.19"/><path style="stroke:#000000;stroke-width:0.088" d="M12.91,69.42L12.97,69.39"/><path style="stroke:#000000;stroke-width:0.088" d="M13.15,69.33L13.54,69.54"/><path style="stroke:#000000;stroke-width:0.088" d="M14.35,75.42L14.23,75.28L14.18,75.08L14.20,74.83L14.28,74.56L14.42,74.30L14.61,74.08L14.81,73.92L15.02,73.85L15.20,73.85L15.34,73.95L15.42,74.12L15.43,74.21"/><path style="stroke:#000000;stroke-width:0.088" d="M14.51,73.68L14.48,73.70L14.46,73.69L14.45,73.69L14.43,73.69L14.42,73.70L14.41,73.70L14.41,73.71L14.41,73.72L14.41,73.73L14.42,73.74L14.33,73.80L14.25,73.87L14.20,73.92L14.15,73.98L14.10,74.03L14.06,74.09L13.92,74.35L13.89,74.42L13.87,74.49L13.85,74.55L13.84,74.62L13.82,74.76"/><path style="stroke:#000000;stroke-width:0.088" d="M13.81,73.07L13.96,73.33L14.14,73.55L14.35,73.72L14.39,73.75L14.31,73.82L14.22,73.90L14.17,73.95L14.13,74.00L14.08,74.06L14.04,74.13L13.92,74.35"/><path style="stroke:#000000;stroke-width:0.088" d="M13.98,72.97L13.97,72.97"/><path style="stroke:#000000;stroke-width:0.088" d="M14.99,75.54L15.04,75.54L15.09,75.52L15.02,75.51L14.99,75.54L14.92,75.50"/><path style="stroke:#000000;stroke-width:0.088" d="M15.09,75.52L15.17,75.51L15.24,75.48L15.32,75.43L15.39,75.39"/><path style="stroke:#000000;stroke-width:0.088" d="M15.02,75.51L14.96,75.49L14.91,75.45L14.86,75.47L14.52,75.27L14.55,75.30L14.90,75.50L14.96,75.49"/><path style="stroke:#000000;stroke-width:0.088" d="M14.46,75.05L14.47,75.10L14.84,75.32L14.87,75.39L14.91,75.45L14.81,75.39"/><path style="stroke:#000000;stroke-width:0.088" d="M14.86,75.47L14.90,75.50"/><path style="stroke:#000000;stroke-width:0.088" d="M15.54,74.44L15.52,74.43L15.41,74.43L15.28,74.47L15.16,74.57L15.04,74.71L14.96,74.87L14.91,75.04L14.89,75.19L14.93,75.32L15.00,75.40L15.01,75.41L14.94,75.32L14.91,75.20L14.92,75.04L14.97,74.88L15.06,74.72L15.17,74.58L15.30,74.48L15.43,74.44L15.54,74.44L15.63,74.50L15.68,74.61L15.69,74.75L15.69,74.76"/><path style="stroke:#000000;stroke-width:0.088" d="M15.01,75.41L15.11,75.44L15.24,75.42L15.34,75.36"/><path style="stroke:#000000;stroke-width:0.088" d="M14.43,74.95L14.43,74.85L14.44,74.82L14.46,74.75L14.81,74.94L14.87,74.94L14.49,74.73L14.53,74.62L14.91,74.84L14.96,74.74L14.90,74.73L14.86,74.80L14.91,74.84L14.87,74.94L14.84,75.05L14.83,75.15L14.77,75.16L14.42,74.96L14.45,74.93L14.83,75.15L14.83,75.24L14.77,75.23L14.77,75.16"/><path style="stroke:#000000;stroke-width:0.088" d="M14.53,74.62L14.52,74.60L14.86,74.80"/><path style="stroke:#000000;stroke-width:0.088" d="M14.52,74.60L14.55,74.53L14.58,74.52L14.96,74.74L15.02,74.64L14.65,74.43L14.64,74.39L14.99,74.59L15.04,74.53L15.09,74.56L15.02,74.64L14.99,74.59"/><path style="stroke:#000000;stroke-width:0.088" d="M14.46,74.75L14.49,74.73"/><path style="stroke:#000000;stroke-width:0.088" d="M14.87,75.39L14.81,75.39L14.46,75.19L14.44,75.14L14.47,75.10"/><path style="stroke:#000000;stroke-width:0.088" d="M14.44,75.14L14.79,75.34L14.84,75.32L14.83,75.24"/><path style="stroke:#000000;stroke-width:0.088" d="M14.53,75.24L14.52,75.27"/><path style="stroke:#000000;stroke-width:0.088" d="M14.84,75.05L14.79,75.02L14.44,74.82"/><path style="stroke:#000000;stroke-width:0.088" d="M15.26,74.12L15.21,74.09L15.11,74.03L14.97,74.03L14.81,74.09L14.65,74.21L14.51,74.38L14.40,74.58L14.40,74.60L14.34,74.79L14.32,74.98L14.36,75.14L14.45,75.24L14.55,75.30L14.55,75.30"/><path style="stroke:#000000;stroke-width:0.088" d="M14.42,74.96L14.42,75.04L14.45,75.14"/><path style="stroke:#000000;stroke-width:0.088" d="M14.52,75.27L14.46,75.20L14.46,75.19"/><path style="stroke:#000000;stroke-width:0.088" d="M14.55,75.30L14.55,75.30"/><path style="stroke:#000000;stroke-width:0.088" d="M14.52,74.60L14.50,74.64L14.47,74.74"/><path style="stroke:#000000;stroke-width:0.088" d="M14.79,75.34L14.81,75.39"/><path style="stroke:#000000;stroke-width:0.088" d="M14.81,74.94L14.79,75.02"/><path style="stroke:#000000;stroke-width:0.088" d="M14.90,74.73L14.55,74.53"/><path style="stroke:#000000;stroke-width:0.088" d="M16.72,76.15L16.67,76.10L16.65,76.02L16.66,75.92L16.69,75.82L16.73,75.74L16.74,75.72L16.82,75.64L16.89,75.57L16.97,75.54L17.05,75.55L15.50,74.65L15.44,74.62L15.37,74.63L15.30,74.65L15.29,74.66L15.21,74.73L15.14,74.82L15.09,74.92L15.06,75.02L15.06,75.12L15.08,75.19L15.13,75.24L16.72,76.15L16.78,76.17L16.86,76.16L16.90,76.13L16.83,76.15L16.78,76.13L16.74,76.08L16.72,76.02L16.73,75.94L16.76,75.85L16.80,75.76L16.86,75.69L16.93,75.64L17.00,75.61L17.06,75.61L17.11,75.65L17.13,75.70L17.14,75.78L17.12,75.86L17.09,75.95L17.03,76.03L16.97,76.10L16.90,76.13"/><path style="stroke:#000000;stroke-width:0.088" d="M14.42,75.03L14.77,75.23"/><path style="stroke:#000000;stroke-width:0.088" d="M14.45,74.93L14.47,74.83"/><path style="stroke:#000000;stroke-width:0.088" d="M15.10,74.12L15.48,74.33L15.47,74.28L15.13,74.08L15.10,74.12L15.07,74.12"/><path style="stroke:#000000;stroke-width:0.088" d="M14.97,74.12L15.31,74.32L15.37,74.30L15.02,74.10L14.97,74.12L14.95,74.16L14.88,74.20"/><path style="stroke:#000000;stroke-width:0.088" d="M14.95,74.16L15.32,74.37L15.24,74.42L15.17,74.48L15.14,74.43L15.20,74.38L14.85,74.18L14.80,74.23L14.79,74.27L14.72,74.34L15.09,74.56L15.17,74.48L14.79,74.27"/><path style="stroke:#000000;stroke-width:0.088" d="M14.58,74.52L14.65,74.43"/><path style="stroke:#000000;stroke-width:0.088" d="M15.12,74.09L15.07,74.08L15.03,74.10"/><path style="stroke:#000000;stroke-width:0.088" d="M14.86,74.18L14.91,74.15L14.96,74.12"/><path style="stroke:#000000;stroke-width:0.088" d="M14.69,74.33L14.75,74.27L14.80,74.23"/><path style="stroke:#000000;stroke-width:0.088" d="M14.56,74.53L14.61,74.44L14.64,74.40"/><path style="stroke:#000000;stroke-width:0.088" d="M15.04,74.53L14.69,74.33L14.64,74.39"/><path style="stroke:#000000;stroke-width:0.088" d="M14.72,74.34L14.69,74.33"/><path style="stroke:#000000;stroke-width:0.088" d="M14.80,74.23L15.14,74.43"/><path style="stroke:#000000;stroke-width:0.088" d="M14.93,73.69L14.93,73.69"/><path style="stroke:#000000;stroke-width:0.088" d="M14.48,73.70L14.66,73.64L14.75,73.63L14.80,73.64L14.84,73.65L14.88,73.66L15.20,73.85"/><path style="stroke:#000000;stroke-width:0.088" d="M14.39,73.75L14.42,73.74"/><path style="stroke:#000000;stroke-width:0.088" d="M15.12,75.52L15.14,75.53L15.17,75.51"/><path style="stroke:#000000;stroke-width:0.088" d="M15.14,75.53L15.20,75.50L15.24,75.48"/><path style="stroke:#000000;stroke-width:0.088" d="M15.74,74.66L15.74,74.71L15.74,74.60L15.74,74.66"/><path style="stroke:#000000;stroke-width:0.088" d="M15.74,74.71L15.73,74.79"/><path style="stroke:#000000;stroke-width:0.088" d="M15.74,74.62L15.73,74.53L15.72,74.48L15.70,74.43L15.70,74.46L15.66,74.40L15.61,74.36L15.54,74.32"/><path style="stroke:#000000;stroke-width:0.088" d="M15.74,74.60L15.74,74.59L15.74,74.59"/><path style="stroke:#000000;stroke-width:0.088" d="M15.37,74.30L15.40,74.35L15.48,74.33L15.55,74.34L15.61,74.36L15.61,74.32L15.27,74.12L15.26,74.13"/><path style="stroke:#000000;stroke-width:0.088" d="M15.13,74.08L15.18,74.08L15.52,74.28L15.47,74.28"/><path style="stroke:#000000;stroke-width:0.088" d="M15.70,74.43L15.66,74.40"/><path style="stroke:#000000;stroke-width:0.088" d="M15.19,74.09L15.21,74.09"/><path style="stroke:#000000;stroke-width:0.088" d="M15.40,74.35L15.32,74.37L15.31,74.32"/><path style="stroke:#000000;stroke-width:0.088" d="M15.66,74.40L15.65,74.35L15.61,74.32"/><path style="stroke:#000000;stroke-width:0.088" d="M15.70,74.46L15.73,74.53"/><path style="stroke:#000000;stroke-width:0.088" d="M15.55,74.34L15.52,74.28"/><path style="stroke:#000000;stroke-width:0.088" d="M15.20,74.38L15.24,74.42"/><path style="stroke:#000000;stroke-width:0.088" d="M17.14,75.78L17.14,75.74L17.13,75.65L17.10,75.58L17.05,75.55"/><path style="stroke:#000000;stroke-width:0.088" d="M19.49,78.57L19.62,78.76L19.82,78.84L20.07,78.81L20.34,78.67L20.60,78.44L20.82,78.13L20.97,77.79L21.05,77.45L21.04,77.14L21.03,77.09L20.95,76.91L20.78,76.77L20.55,76.74L20.28,76.83L20.02,77.02L19.77,77.29L19.58,77.62L19.46,77.97L19.43,78.29L19.48,78.57L19.49,78.57"/><path style="stroke:#000000;stroke-width:0.088" d="M19.62,78.76L19.42,78.64L19.28,78.45L19.23,78.18L19.26,77.85L19.38,77.50L19.57,77.17L19.74,76.98L19.81,76.90L20.08,76.71L20.34,76.62L20.57,76.65L20.78,76.77"/><path style="stroke:#000000;stroke-width:0.088" d="M20.00,77.90L20.01,77.95L20.04,78.00L20.08,78.03L20.14,78.04L20.21,78.01L20.28,77.96L20.34,77.88L20.38,77.80L20.40,77.75L20.41,77.71L20.41,77.63L20.40,77.56L20.36,77.52L20.30,77.50L20.24,77.51"/><path style="stroke:#000000;stroke-width:0.088" d="M20.45,77.82L20.40,77.92L20.33,78.01L20.25,78.07L20.17,78.10L20.10,78.10L20.04,78.07L20.01,78.00L20.00,77.91L20.02,77.81L20.06,77.71L20.13,77.61L20.20,77.54L20.28,77.49L20.36,77.48L20.42,77.49L20.47,77.55L20.49,77.62L20.48,77.72L20.45,77.82"/><path style="stroke:#000000;stroke-width:0.088" d="M20.28,77.56L20.27,77.65L20.22,77.76L20.16,77.85L20.08,77.93L20.04,77.95"/><path style="stroke:#000000;stroke-width:0.088" d="M20.01,77.96L20.05,77.95L20.11,77.91L20.18,77.85L20.23,77.76L20.27,77.68L20.28,77.59L20.28,77.52L20.27,77.51"/><path style="stroke:#000000;stroke-width:0.088" d="M102.71,111.36L102.48,111.33L102.22,111.42L101.95,111.61L101.71,111.88L101.52,112.21L101.40,112.56L101.36,112.88L101.42,113.16L101.55,113.35L101.76,113.43L102.01,113.40L102.28,113.26L102.53,113.03L102.75,112.72L102.91,112.38L102.99,112.04L102.98,111.73L102.97,111.68L102.88,111.50L102.71,111.36L102.51,111.24L102.28,111.21L102.01,111.30L101.75,111.49L101.51,111.76L101.42,111.90L101.32,112.09L101.20,112.44L101.16,112.77L101.21,113.04L101.35,113.23L101.55,113.35"/><path style="stroke:#000000;stroke-width:0.088" d="M101.94,112.49L101.94,112.54L101.97,112.59L102.02,112.62L102.08,112.63L102.15,112.60L102.21,112.55L102.27,112.47L102.32,112.39L102.35,112.30L102.35,112.22L102.33,112.15L102.29,112.11L102.24,112.09L102.18,112.10"/><path style="stroke:#000000;stroke-width:0.088" d="M102.42,112.21L102.42,112.31L102.39,112.41L102.33,112.51L102.26,112.60L102.18,112.66L102.10,112.69L102.03,112.69L101.98,112.66L101.94,112.59L101.94,112.50L101.95,112.40L102.00,112.30L102.06,112.20L102.14,112.13L102.22,112.08L102.29,112.07L102.36,112.08L102.40,112.14L102.42,112.21"/><path style="stroke:#000000;stroke-width:0.088" d="M101.98,112.54L102.02,112.52L102.10,112.44L102.16,112.35L102.20,112.24L102.22,112.15"/><path style="stroke:#000000;stroke-width:0.088" d="M102.21,112.10L102.21,112.11L102.22,112.18L102.20,112.27L102.17,112.36L102.11,112.44L102.05,112.50L101.98,112.54L101.95,112.55"/><path style="stroke:#000000;stroke-width:0.088" d="M30.50,72.22L30.63,72.40L30.83,72.48L31.08,72.45L31.35,72.31L31.45,72.22L31.61,72.08L31.83,71.77L31.98,71.43L32.06,71.09L32.05,70.79L32.04,70.74L31.96,70.55L31.78,70.41L31.55,70.39L31.29,70.47L31.02,70.66L30.78,70.94L30.59,71.26L30.47,71.61L30.44,71.94L30.49,72.21L30.50,72.22"/><path style="stroke:#000000;stroke-width:0.088" d="M30.63,72.40L30.42,72.28L30.29,72.09L30.23,71.82L30.27,71.49L30.39,71.15L30.58,70.82L30.74,70.63L30.82,70.54L31.09,70.35L31.35,70.27L31.58,70.30L31.78,70.41"/><path style="stroke:#000000;stroke-width:0.088" d="M31.01,71.54L31.01,71.59L31.04,71.65L31.09,71.68L31.15,71.68L31.22,71.65L31.29,71.60L31.35,71.53L31.39,71.44L31.41,71.39L31.42,71.35L31.42,71.27L31.41,71.21L31.37,71.16L31.31,71.15L31.25,71.16"/><path style="stroke:#000000;stroke-width:0.088" d="M31.02,71.66L31.02,71.64L31.01,71.56L31.03,71.45L31.07,71.35L31.13,71.26L31.21,71.18L31.29,71.13L31.37,71.12L31.43,71.14L31.48,71.19L31.50,71.27L31.49,71.36L31.46,71.47L31.41,71.57L31.33,71.65L31.26,71.72L31.18,71.75L31.10,71.75L31.05,71.71L31.02,71.66"/><path style="stroke:#000000;stroke-width:0.088" d="M31.02,71.60L31.05,71.59L31.12,71.55L31.19,71.49L31.24,71.41L31.28,71.32L31.29,71.23L31.29,71.16L31.28,71.15"/><path style="stroke:#000000;stroke-width:0.088" d="M31.05,71.59L31.09,71.57L31.17,71.49L31.23,71.40L31.27,71.30L31.29,71.21"/><path style="stroke:#000000;stroke-width:0.088" d="M90.38,119.05L90.36,119.24L90.41,119.51L90.55,119.70L90.75,119.79L91.00,119.76L91.27,119.62L91.53,119.38L91.74,119.08L91.90,118.73L91.98,118.39L91.97,118.09L91.96,118.04L91.88,117.85L91.70,117.72L91.47,117.69L91.21,117.77L90.94,117.96L90.70,118.24L90.51,118.57L90.39,118.91L90.38,119.05"/><path style="stroke:#000000;stroke-width:0.088" d="M91.70,117.72L91.50,117.60L91.27,117.57L91.01,117.66L90.74,117.85L90.50,118.12L90.31,118.45L90.19,118.80L90.15,119.12L90.21,119.40L90.34,119.59L90.55,119.70"/><path style="stroke:#000000;stroke-width:0.088" d="M91.10,119.05L91.10,119.05L91.02,119.05L90.97,119.01L90.94,118.95L90.93,118.86L90.95,118.76L90.99,118.65L91.05,118.56L91.13,118.48L91.21,118.44L91.29,118.42L91.35,118.44L91.39,118.49L91.42,118.57L91.41,118.67L91.38,118.77L91.32,118.87L91.25,118.96L91.18,119.02L91.10,119.05"/><path style="stroke:#000000;stroke-width:0.088" d="M90.93,118.85L90.93,118.89L90.96,118.95L91.01,118.98L91.07,118.98L91.14,118.95L91.21,118.90L91.27,118.83L91.31,118.74L91.34,118.66L91.34,118.57L91.32,118.51L91.29,118.46L91.23,118.45L91.17,118.46"/><path style="stroke:#000000;stroke-width:0.088" d="M91.21,118.51L91.19,118.60L91.15,118.70L91.09,118.80L91.01,118.87L90.97,118.90"/><path style="stroke:#000000;stroke-width:0.088" d="M90.94,118.90L90.97,118.90L91.04,118.86L91.11,118.79L91.16,118.71L91.20,118.62L91.21,118.54L91.21,118.46L91.20,118.45"/><path style="stroke:#000000;stroke-width:0.088" d="M104.97,87.22L104.92,87.26L104.67,87.11L104.73,87.08L104.97,87.22L110.11,84.25L110.25,84.20L110.37,84.21L110.46,84.28L110.51,84.41L110.51,84.57L110.46,84.76L110.37,84.93L106.69,90.64L106.61,90.74L106.52,90.83L106.43,90.90L87.66,101.74L87.53,101.79L87.42,101.79L87.33,101.73L87.27,101.64L87.25,101.50L87.01,101.36L87.03,101.49L87.08,101.59L87.33,101.73"/><path style="stroke:#000000;stroke-width:0.088" d="M87.25,101.50L87.25,100.78L87.27,100.64L87.31,100.49L87.39,100.34L87.49,100.21L87.60,100.11L87.36,99.97L87.24,100.07L87.15,100.20L87.07,100.35L87.02,100.50L87.01,100.64L87.25,100.78"/><path style="stroke:#000000;stroke-width:0.088" d="M87.01,101.36L87.01,100.64"/><path style="stroke:#000000;stroke-width:0.088" d="M87.36,99.97L104.67,87.11"/><path style="stroke:#000000;stroke-width:0.088" d="M87.60,100.11L104.92,87.26"/><path style="stroke:#000000;stroke-width:0.088" d="M104.20,88.70L104.13,88.70L104.07,88.66L104.04,88.59L104.03,88.50L104.05,88.39L104.09,88.28L104.16,88.17L104.24,88.09L104.33,88.04L104.41,88.02L104.48,88.04L104.53,88.10L104.56,88.18L104.55,88.28L104.52,88.40L104.46,88.51L104.38,88.60L104.30,88.67L104.20,88.70"/><path style="stroke:#000000;stroke-width:0.088" d="M104.31,88.05L104.31,88.14L104.27,88.25L104.22,88.36L104.14,88.46L104.05,88.53L104.03,88.54"/><path style="stroke:#000000;stroke-width:0.088" d="M104.73,87.08L109.86,84.11L110.11,84.25"/><path style="stroke:#000000;stroke-width:0.088" d="M110.37,84.21L110.12,84.07L110.00,84.06L109.86,84.11"/><path style="stroke:#000000;stroke-width:0.088" d="M53.41,64.40L52.67,63.98L52.67,59.27L53.90,59.98L53.90,61.39L53.41,61.11L53.41,64.40L55.85,62.99L55.85,60.26"/><path style="stroke:#000000;stroke-width:0.088" d="M52.67,59.27L55.12,57.86L56.34,58.56L56.34,59.98L53.90,61.39"/><path style="stroke:#000000;stroke-width:0.088" d="M53.94,62.78L53.99,62.78L54.02,62.80L54.05,62.84L54.06,62.90L54.05,62.96L54.02,63.03L53.98,63.10L53.94,63.15L53.88,63.19L53.83,63.20L53.79,63.19L53.75,63.16L53.73,63.11L53.73,63.08L53.74,63.05L53.75,62.98L53.79,62.91L53.83,62.86L53.88,62.81L53.94,62.78"/><path style="stroke:#000000;stroke-width:0.088" d="M53.73,63.07L53.73,63.08L53.75,63.12L53.78,63.15L53.82,63.15L53.86,63.14L53.91,63.11L53.95,63.07L53.98,63.01L54.00,62.95L54.01,62.90L54.00,62.85L53.98,62.81L53.95,62.80L53.91,62.80L53.88,62.81"/><path style="stroke:#000000;stroke-width:0.088" d="M53.90,59.98L56.34,58.56"/><path style="stroke:#000000;stroke-width:0.088" d="M54.87,60.12L54.88,60.07L54.90,59.97L54.95,59.86L55.02,59.77L55.10,59.71L55.18,59.67L55.25,59.66L55.31,59.69L55.35,59.75L55.36,59.84L55.35,59.94L55.31,60.04L55.25,60.14L55.18,60.22L55.10,60.27L55.02,60.29L54.95,60.28L54.90,60.24L54.88,60.16L54.87,60.12"/><path style="stroke:#000000;stroke-width:0.088" d="M55.09,59.71L55.13,59.69L55.20,59.69L55.25,59.71L55.28,59.76L55.29,59.84L55.29,59.84L55.28,59.92L55.25,60.01L55.20,60.09L55.13,60.16L55.07,60.20L55.00,60.22L54.94,60.21L54.90,60.18L54.88,60.11L54.88,60.10"/><path style="stroke:#000000;stroke-width:0.088" d="M55.25,62.34L55.30,62.35L55.35,62.34L55.40,62.30L55.45,62.25L55.49,62.18L55.52,62.11L55.53,62.05L55.52,61.99L55.49,61.95L55.45,61.93L55.40,61.94L55.35,61.96L55.30,62.01L55.25,62.07L55.22,62.14L55.20,62.20L55.20,62.24L55.20,62.27L55.22,62.31L55.25,62.34"/><path style="stroke:#000000;stroke-width:0.088" d="M55.35,61.97L55.37,61.95L55.42,61.95L55.45,61.97L55.47,62.00L55.48,62.05L55.48,62.05L55.47,62.10L55.45,62.16L55.41,62.22L55.37,62.26L55.33,62.29L55.28,62.31L55.25,62.30L55.22,62.27L55.20,62.23L55.20,62.22"/><path style="stroke:#000000;stroke-width:0.088" d="M55.22,62.27L55.22,62.27"/><path style="stroke:#000000;stroke-width:0.088" d="M157.90,59.77L157.85,59.33L157.56,58.92L157.06,58.60L156.40,58.38L155.65,58.30L154.90,58.36L154.22,58.56L153.70,58.88L153.38,59.28L153.30,59.71L153.47,60.14L153.88,60.51L153.97,60.57L154.47,60.79L155.18,60.94L155.94,60.95L156.66,60.81L157.27,60.55L157.70,60.19L157.90,59.77L157.90,60.99L157.70,61.41L157.27,61.78L156.66,62.04L155.94,62.17L155.91,62.17L155.18,62.16L154.47,62.01L153.97,61.80L153.88,61.74L153.47,61.36L153.30,60.94L153.30,59.71"/><path style="stroke:#000000;stroke-width:0.088" d="M155.87,59.78L155.78,59.82L155.66,59.84L155.53,59.84L155.42,59.82L155.34,59.78L155.32,59.77L155.26,59.71L155.23,59.64L155.24,59.57L155.29,59.51L155.38,59.46L155.49,59.42L155.61,59.41L155.73,59.43L155.84,59.46L155.92,59.52L155.93,59.52L155.97,59.58L155.98,59.65L155.94,59.72L155.87,59.78"/><path style="stroke:#000000;stroke-width:0.088" d="M135.13,46.62L134.93,47.05L134.50,47.41L133.89,47.67L133.17,47.80L132.41,47.79L132.05,47.72L131.70,47.64L131.20,47.43L131.11,47.37L130.70,47.00L130.53,46.57L130.61,46.13L130.93,45.74L131.45,45.42L132.13,45.22L132.88,45.15L133.63,45.24L134.29,45.45L134.79,45.78L135.08,46.18L135.13,46.62L135.13,47.85L134.93,48.27L134.50,48.63L134.43,48.66L133.89,48.89L133.17,49.03L132.41,49.02L131.70,48.87L131.20,48.65L131.11,48.59L130.70,48.22L130.53,47.79L130.53,46.57"/><path style="stroke:#000000;stroke-width:0.088" d="M132.57,46.64L132.65,46.67L132.77,46.70L132.89,46.70L133.01,46.68L133.11,46.64L133.17,46.58L133.21,46.51L133.20,46.44L133.15,46.37L133.07,46.32L132.96,46.28L132.84,46.27L132.72,46.28L132.61,46.31L132.52,46.36L132.47,46.43L132.46,46.50L132.49,46.57L132.55,46.63L132.57,46.64"/><path style="stroke:#000000;stroke-width:0.088" d="M28.97,86.59L22.28,82.73L22.28,80.14L28.97,84.00L28.97,86.59L32.23,84.71L32.23,82.12L28.97,84.00"/><path style="stroke:#000000;stroke-width:0.088" d="M22.28,80.14L25.54,78.26L32.23,82.12"/><path style="stroke:#000000;stroke-width:0.088" d="M29.41,84.79L29.38,84.73L29.37,84.64L29.39,84.54L29.43,84.45L29.44,84.43L29.50,84.34L29.58,84.27L29.62,84.24L29.66,84.22L29.74,84.21L29.80,84.23L29.84,84.28L29.86,84.36L29.86,84.45L29.82,84.56L29.77,84.66L29.70,84.74L29.62,84.80L29.54,84.83L29.47,84.83L29.41,84.79"/><path style="stroke:#000000;stroke-width:0.088" d="M29.38,84.63L29.38,84.67L29.41,84.72L29.45,84.76L29.51,84.76L29.58,84.73L29.64,84.68L29.70,84.61L29.75,84.53L29.78,84.44L29.78,84.36L29.76,84.30L29.73,84.25L29.68,84.23L29.61,84.25L29.60,84.25"/><path style="stroke:#000000;stroke-width:0.088" d="M31.78,83.43L31.73,83.53L31.65,83.61L31.58,83.67L31.50,83.70L31.43,83.70L31.37,83.66L31.34,83.60L31.33,83.51L31.35,83.41L31.40,83.30L31.46,83.21L31.54,83.14L31.58,83.11L31.62,83.09L31.69,83.08L31.76,83.10L31.80,83.15L31.82,83.23L31.81,83.32L31.78,83.43"/><path style="stroke:#000000;stroke-width:0.088" d="M31.33,83.50L31.34,83.54L31.36,83.59L31.41,83.63L31.47,83.63L31.53,83.60L31.60,83.55L31.66,83.48L31.71,83.40L31.73,83.31L31.74,83.23L31.72,83.16L31.69,83.12L31.63,83.10L31.57,83.12L31.56,83.12"/><path style="stroke:#000000;stroke-width:0.088" d="M77.96,112.29L77.96,114.88L84.65,118.74L87.91,116.86L87.91,114.27L84.65,116.15L77.96,112.29L81.22,110.40L87.91,114.27"/><path style="stroke:#000000;stroke-width:0.088" d="M84.65,118.74L84.65,116.15"/><path style="stroke:#000000;stroke-width:0.088" d="M86.07,115.90L86.04,116.00L86.04,116.09L86.06,116.17L86.11,116.22L86.18,116.23L86.25,116.21L86.33,116.16L86.41,116.08L86.47,115.98L86.51,115.88L86.52,115.78L86.51,115.69L86.48,115.63L86.42,115.60L86.34,115.60L86.28,115.63L86.26,115.64L86.19,115.71L86.12,115.80L86.07,115.90"/><path style="stroke:#000000;stroke-width:0.088" d="M86.26,115.65L86.29,115.63L86.35,115.63L86.40,115.65L86.43,115.71L86.44,115.78L86.43,115.86L86.40,115.95L86.35,116.03L86.28,116.09L86.22,116.14L86.15,116.15L86.10,116.14L86.06,116.10L86.04,116.04"/><path style="stroke:#000000;stroke-width:0.088" d="M110.28,97.23L110.28,93.94L109.79,93.66L109.79,92.24L111.02,92.95L111.02,97.66L110.28,97.23"/><path style="stroke:#000000;stroke-width:0.088" d="M109.79,92.24L112.24,90.83L113.46,91.54L113.46,96.25L111.02,97.66"/><path style="stroke:#000000;stroke-width:0.088" d="M111.36,96.42L111.36,96.42L111.34,96.37L111.34,96.31L111.36,96.24L111.39,96.17L111.44,96.11L111.49,96.07L111.55,96.04L111.56,96.04L111.59,96.04L111.63,96.06L111.66,96.10L111.67,96.15L111.66,96.22L111.63,96.29L111.59,96.35L111.54,96.41L111.49,96.44L111.44,96.46L111.39,96.45L111.36,96.42"/><path style="stroke:#000000;stroke-width:0.088" d="M111.34,96.34L111.36,96.38L111.39,96.40L111.42,96.41L111.47,96.40L111.51,96.37L111.56,96.32L111.59,96.27L111.61,96.21L111.62,96.15L111.61,96.10L111.59,96.07L111.56,96.05L111.51,96.06L111.49,96.07"/><path style="stroke:#000000;stroke-width:0.088" d="M111.02,92.95L113.46,91.54"/><path style="stroke:#000000;stroke-width:0.088" d="M112.14,93.27L112.07,93.25L112.02,93.21L112.02,93.19L112.00,93.14L112.00,93.04L112.02,92.94L112.07,92.84L112.14,92.75L112.22,92.68L112.30,92.64L112.37,92.64L112.43,92.67L112.47,92.72L112.48,92.81L112.47,92.91L112.43,93.01L112.37,93.11L112.30,93.19L112.22,93.24L112.14,93.27"/><path style="stroke:#000000;stroke-width:0.088" d="M112.00,93.09L112.02,93.15L112.06,93.19L112.12,93.20L112.18,93.18L112.20,93.17L112.25,93.13L112.32,93.06L112.37,92.98L112.40,92.89L112.41,92.85L112.41,92.81L112.40,92.74L112.37,92.69L112.32,92.66L112.25,92.67L112.21,92.69"/><path style="stroke:#000000;stroke-width:0.088" d="M112.95,95.22L112.96,95.22L113.01,95.19L113.06,95.19L113.10,95.21L113.13,95.25L113.14,95.30L113.13,95.37L113.10,95.44L113.06,95.50L113.01,95.56L112.96,95.59L112.91,95.61L112.86,95.60L112.83,95.57L112.81,95.52L112.81,95.46L112.83,95.39L112.86,95.32L112.91,95.26L112.95,95.22L112.98,95.21L113.02,95.21L113.06,95.22L113.08,95.26L113.09,95.30L113.08,95.36L113.06,95.42L113.02,95.47L112.98,95.52L112.95,95.54L112.94,95.55L112.89,95.56L112.85,95.56L112.83,95.53L112.81,95.49"/><path style="stroke:#000000;stroke-width:0.088" d="M33.41,76.45L33.29,76.38L33.29,73.79L39.97,77.65L39.97,80.24L33.41,76.45"/><path style="stroke:#000000;stroke-width:0.088" d="M33.29,73.79L36.55,71.90L43.24,75.76L39.97,77.65"/><path style="stroke:#000000;stroke-width:0.088" d="M39.97,80.24L43.24,78.35L43.24,75.76"/><path style="stroke:#000000;stroke-width:0.088" d="M40.57,78.47L40.55,78.48L40.48,78.47L40.42,78.44L40.39,78.37L40.38,78.28L40.40,78.18L40.45,78.08L40.51,77.98L40.59,77.91L40.63,77.88L40.67,77.86L40.74,77.85L40.81,77.87L40.85,77.92L40.87,78.00L40.86,78.10L40.83,78.20L40.78,78.30L40.71,78.39L40.63,78.45L40.57,78.47"/><path style="stroke:#000000;stroke-width:0.088" d="M40.61,77.90L40.62,77.89L40.68,77.88L40.74,77.90L40.77,77.94L40.79,78.00L40.78,78.09L40.76,78.17L40.71,78.26L40.65,78.33L40.59,78.38L40.52,78.40L40.46,78.40L40.42,78.37L40.39,78.31L40.39,78.27"/><path style="stroke:#000000;stroke-width:0.088" d="M42.79,77.07L42.73,77.17L42.66,77.26L42.58,77.32L42.50,77.35L42.43,77.34L42.38,77.31L42.35,77.24L42.34,77.15L42.36,77.05L42.40,76.95L42.47,76.85L42.54,76.78L42.58,76.75L42.62,76.73L42.70,76.72L42.76,76.74L42.81,76.79L42.83,76.87L42.82,76.97L42.79,77.07"/><path style="stroke:#000000;stroke-width:0.088" d="M42.34,77.14L42.35,77.18L42.37,77.24L42.42,77.27L42.48,77.27L42.54,77.25L42.61,77.20L42.67,77.13L42.71,77.04L42.74,76.96L42.75,76.87L42.73,76.81L42.69,76.77L42.64,76.75L42.58,76.76L42.56,76.77"/><path style="stroke:#000000;stroke-width:0.088" d="M88.97,105.93L88.97,108.52L95.66,112.38L98.92,110.50L98.92,107.91L95.66,109.79L88.97,105.93L92.23,104.05L98.92,107.91"/><path style="stroke:#000000;stroke-width:0.088" d="M95.66,112.38L95.66,109.79"/><path style="stroke:#000000;stroke-width:0.088" d="M97.05,109.74L97.05,109.64L97.07,109.54L97.13,109.44L97.19,109.35L97.27,109.28L97.29,109.27L97.35,109.25L97.43,109.24L97.48,109.27L97.52,109.34L97.53,109.42L97.52,109.52L97.48,109.62L97.42,109.72L97.34,109.80L97.26,109.85L97.18,109.87L97.12,109.86L97.07,109.81L97.05,109.74"/><path style="stroke:#000000;stroke-width:0.088" d="M97.26,109.29L97.30,109.27L97.36,109.27L97.41,109.30L97.44,109.35L97.45,109.42L97.44,109.50L97.40,109.59L97.35,109.67L97.29,109.74L97.23,109.78L97.16,109.80L97.11,109.78L97.07,109.75L97.05,109.69"/><path style="stroke:#000000;stroke-width:0.088" d="M94.58,120.42L94.50,120.48L94.43,120.57L94.37,120.67L94.34,120.77L94.33,120.87L94.33,120.82L94.34,120.74L94.36,120.65L94.41,120.57L94.47,120.49L94.54,120.44L94.58,120.42L94.65,120.39L94.73,120.39L96.08,121.18"/><path style="stroke:#000000;stroke-width:0.088" d="M95.74,121.77L94.39,121.00L94.35,120.95L94.33,120.87"/><path style="stroke:#000000;stroke-width:0.088" d="M96.04,122.20L95.74,122.03L95.75,122.08L96.03,122.25"/><path style="stroke:#000000;stroke-width:0.088" d="M95.81,122.16L95.82,122.21L95.86,122.24L96.03,122.34"/><path style="stroke:#000000;stroke-width:0.088" d="M97.60,122.99L97.58,123.23L97.64,123.43L97.75,123.57L96.19,122.67L96.08,122.53L96.03,122.33L96.05,122.08L96.13,121.81L96.25,121.59L96.27,121.55L96.45,121.33L96.66,121.18L96.86,121.10L97.05,121.11L97.40,121.31"/><path style="stroke:#000000;stroke-width:0.088" d="M96.03,122.29L95.77,122.13L95.75,122.08"/><path style="stroke:#000000;stroke-width:0.088" d="M95.82,122.21L96.03,122.33"/><path style="stroke:#000000;stroke-width:0.088" d="M96.05,122.08L95.73,121.90L95.73,121.97L96.04,122.15"/><path style="stroke:#000000;stroke-width:0.088" d="M96.17,121.74L96.17,121.74L96.20,121.67L96.21,121.66"/><path style="stroke:#000000;stroke-width:0.088" d="M96.17,121.74L95.82,121.54L95.86,121.47L95.86,121.44L96.22,121.65"/><path style="stroke:#000000;stroke-width:0.088" d="M95.77,121.68L95.77,121.65L95.74,121.75L95.75,121.76L95.77,121.68L96.11,121.88"/><path style="stroke:#000000;stroke-width:0.088" d="M95.74,121.75L95.73,121.85L96.06,122.04"/><path style="stroke:#000000;stroke-width:0.088" d="M95.75,121.76L96.09,121.95"/><path style="stroke:#000000;stroke-width:0.088" d="M96.29,121.53L95.95,121.33L96.00,121.27L95.99,121.26L96.34,121.47"/><path style="stroke:#000000;stroke-width:0.088" d="M96.20,121.67L95.86,121.47"/><path style="stroke:#000000;stroke-width:0.088" d="M95.82,121.54L95.81,121.55L96.16,121.75"/><path style="stroke:#000000;stroke-width:0.088" d="M96.12,121.85L95.77,121.65L95.81,121.55L95.86,121.44L95.92,121.35L96.27,121.55"/><path style="stroke:#000000;stroke-width:0.088" d="M95.74,122.03L95.73,121.97"/><path style="stroke:#000000;stroke-width:0.088" d="M95.73,121.85L95.73,121.90"/><path style="stroke:#000000;stroke-width:0.088" d="M96.00,121.27L96.34,121.47"/><path style="stroke:#000000;stroke-width:0.088" d="M95.95,121.33L95.92,121.35L95.99,121.26L96.07,121.19L96.10,121.17L96.16,121.12L96.15,121.13L96.23,121.08L96.54,121.26"/><path style="stroke:#000000;stroke-width:0.088" d="M96.16,121.12L96.49,121.31"/><path style="stroke:#000000;stroke-width:0.088" d="M96.15,121.13L96.07,121.19L96.41,121.39"/><path style="stroke:#000000;stroke-width:0.088" d="M96.23,121.08L96.27,121.06L96.58,121.24"/><path style="stroke:#000000;stroke-width:0.088" d="M96.10,121.17L96.43,121.36"/><path style="stroke:#000000;stroke-width:0.088" d="M98.84,122.38L98.84,122.50L98.83,122.28L98.84,122.38L98.84,122.37L98.82,122.23L98.81,122.14L98.83,122.08L98.86,122.05L97.93,122.59L97.79,122.70L97.73,122.77L96.48,122.05L96.49,122.02L96.52,121.95L96.52,121.96"/><path style="stroke:#000000;stroke-width:0.088" d="M97.58,123.11L96.39,122.43L96.39,122.41L97.58,123.10L97.59,123.03L97.58,123.10L97.58,123.11L97.58,123.06"/><path style="stroke:#000000;stroke-width:0.088" d="M96.39,122.41L96.39,122.37L96.40,122.32L96.41,122.28L96.42,122.23L96.48,122.05"/><path style="stroke:#000000;stroke-width:0.088" d="M97.93,122.59L97.98,122.43L97.00,121.86L97.13,121.72L97.36,121.42L97.73,120.82L98.00,120.16L97.99,120.16L98.00,120.12L98.01,119.92L97.97,119.70L97.87,119.47L98.36,119.76L98.39,119.62L98.45,119.43L98.55,119.25L98.56,119.23L98.62,119.12L98.70,118.98L98.71,118.96L98.71,118.95L98.70,118.95L98.50,118.84L98.49,118.83L98.47,118.83L98.39,118.84L98.12,118.91L98.57,118.65L98.57,118.65L98.18,118.88"/><path style="stroke:#000000;stroke-width:0.088" d="M97.30,121.50L97.17,121.50L96.96,121.42L96.88,121.48L96.79,121.56L96.74,121.62L96.70,121.67L96.65,121.73L96.61,121.79L96.55,121.90L96.52,121.95"/><path style="stroke:#000000;stroke-width:0.088" d="M96.49,122.02L96.50,122.02L96.53,122.02L96.76,121.97L97.00,121.86"/><path style="stroke:#000000;stroke-width:0.088" d="M96.62,121.20L96.33,121.03L96.27,121.06"/><path style="stroke:#000000;stroke-width:0.088" d="M96.96,121.42L96.99,121.40L96.99,121.41L97.01,121.41L97.02,121.41L97.04,121.41L97.05,121.40L97.06,121.40L97.06,121.39L97.06,121.38L97.06,121.37L97.05,121.37L97.08,121.35L97.12,121.38L97.33,121.44L97.35,121.43"/><path style="stroke:#000000;stroke-width:0.088" d="M96.35,121.04L96.38,121.04L96.43,121.02L96.69,121.16"/><path style="stroke:#000000;stroke-width:0.088" d="M96.43,121.02L96.48,121.02L96.71,121.15"/><path style="stroke:#000000;stroke-width:0.088" d="M96.73,121.15L96.57,121.06L96.55,121.06"/><path style="stroke:#000000;stroke-width:0.088" d="M96.38,121.04L96.64,121.19"/><path style="stroke:#000000;stroke-width:0.088" d="M97.59,123.03L97.61,122.96L97.73,122.77"/><path style="stroke:#000000;stroke-width:0.088" d="M97.60,123.00L97.59,123.05"/><path style="stroke:#000000;stroke-width:0.088" d="M97.75,123.57L97.91,123.62L98.11,123.58L98.32,123.46L98.38,123.40"/><path style="stroke:#000000;stroke-width:0.088" d="M97.60,122.99L97.94,122.79L98.01,122.68L98.12,122.57L98.22,122.49L98.32,122.44L98.40,122.41L98.46,122.43L98.62,122.53"/><path style="stroke:#000000;stroke-width:0.088" d="M97.61,122.96L97.59,123.02"/><path style="stroke:#000000;stroke-width:0.088" d="M97.08,121.35L97.16,121.32L97.25,121.30L97.30,121.30L97.34,121.30L97.39,121.31L97.42,121.32"/><path style="stroke:#000000;stroke-width:0.088" d="M97.05,121.37L97.05,121.37"/><path style="stroke:#000000;stroke-width:0.088" d="M97.87,119.47L97.82,119.39L97.80,119.37L97.79,119.34L97.78,119.32L97.77,119.29L97.78,119.26L97.78,119.25L97.83,119.14L97.93,119.02L98.12,118.91L98.56,118.71L98.55,118.76L98.55,118.79L98.55,118.80L98.56,118.80L98.76,118.92L98.77,118.92L98.84,118.92L99.00,118.92L99.09,118.93L99.19,119.00L99.25,119.12L99.26,119.15L99.26,119.24L99.10,120.63L98.88,121.91L98.86,122.05"/><path style="stroke:#000000;stroke-width:0.088" d="M98.44,122.42L98.75,122.60L98.65,122.59L98.55,122.63L98.45,122.71L98.36,122.82L98.29,122.95L98.25,123.09L98.24,123.19L98.24,123.21L98.26,123.31L98.32,123.38L97.97,123.18L97.92,123.10L97.90,122.99L97.91,122.87L97.94,122.79"/><path style="stroke:#000000;stroke-width:0.088" d="M98.32,123.38L98.41,123.41L98.42,123.41L98.51,123.39L98.62,123.33L98.72,123.24L98.80,123.12L98.85,122.99L98.88,122.86L98.87,122.74L98.82,122.65L98.82,122.65L98.75,122.60"/><path style="stroke:#000000;stroke-width:0.088" d="M98.64,123.30L98.62,123.32L98.53,123.37L98.44,123.39L98.36,123.36L98.31,123.30L98.28,123.21L98.29,123.09L98.33,122.97L98.40,122.85L98.48,122.75L98.58,122.67L98.67,122.64L98.75,122.64L98.82,122.69L98.86,122.77L98.87,122.87L98.84,122.99L98.79,123.12L98.71,123.23L98.64,123.30"/><path style="stroke:#000000;stroke-width:0.088" d="M97.98,122.43L98.20,121.15L98.36,119.76"/><path style="stroke:#000000;stroke-width:0.088" d="M98.83,122.28L98.51,122.46"/><path style="stroke:#000000;stroke-width:0.088" d="M98.55,119.25L99.09,118.93"/><path style="stroke:#000000;stroke-width:0.088" d="M98.38,119.65L99.26,119.15"/><path style="stroke:#000000;stroke-width:0.088" d="M98.50,118.84L98.56,118.80"/><path style="stroke:#000000;stroke-width:0.088" d="M98.57,118.65L98.56,118.71"/><path style="stroke:#000000;stroke-width:0.088" d="M98.57,118.65L98.59,118.64L98.95,118.86"/><path style="stroke:#000000;stroke-width:0.088" d="M98.58,118.65L99.09,118.93"/><path style="stroke:#000000;stroke-width:0.088" d="M98.84,122.50L98.82,122.65"/><path style="stroke:#000000;stroke-width:0.088" d="M98.70,118.95L98.76,118.92"/><path style="stroke:#000000;stroke-width:0.088" d="M50.62,101.07L53.07,102.48L53.07,102.01L56.33,103.89L56.33,102.01L51.43,99.19L50.62,99.66L50.62,101.07"/><path style="stroke:#000000;stroke-width:0.088" d="M50.91,99.49L51.70,99.03L51.43,99.19"/><path style="stroke:#000000;stroke-width:0.088" d="M51.70,99.03L52.50,98.57L51.70,99.03"/><path style="stroke:#000000;stroke-width:0.088" d="M53.47,102.25L53.07,102.48"/><path style="stroke:#000000;stroke-width:0.088" d="M52.62,98.50L52.50,98.57L52.66,98.48L57.55,101.31L57.55,103.19L56.33,103.89"/><path style="stroke:#000000;stroke-width:0.088" d="M56.33,102.01L57.55,101.31"/><path style="stroke:#000000;stroke-width:0.088" d="M56.71,102.53L56.71,102.56L56.76,102.61L56.82,102.63L56.89,102.62L56.97,102.58L57.05,102.50L57.12,102.41L57.16,102.31L57.18,102.21L57.18,102.12L57.15,102.05L57.09,102.01L57.02,102.00L56.94,102.03L56.86,102.09L56.79,102.18L56.74,102.27L56.70,102.38L56.69,102.46L56.69,102.48L56.71,102.53"/><path style="stroke:#000000;stroke-width:0.088" d="M56.92,102.05L56.97,102.03L57.03,102.04L57.07,102.07L57.10,102.13L57.10,102.20L57.08,102.29L57.05,102.37L56.99,102.45L56.93,102.51L56.86,102.55L56.80,102.56L56.75,102.54L56.71,102.49L56.70,102.44"/><path style="stroke:#000000;stroke-width:0.088" d="M42.95,96.17L42.36,95.83L42.36,93.95L47.25,96.77L48.06,98.18L48.06,99.60L45.62,98.18L45.62,97.71L42.95,96.17"/><path style="stroke:#000000;stroke-width:0.088" d="M42.36,93.95L43.58,93.24L48.47,96.06L47.25,96.77"/><path style="stroke:#000000;stroke-width:0.088" d="M48.06,99.60L49.29,98.89L49.29,97.48L48.06,98.18"/><path style="stroke:#000000;stroke-width:0.088" d="M48.47,96.06L49.29,97.48"/><path style="stroke:#000000;stroke-width:0.088" d="M26.44,67.86L26.43,67.76L26.35,67.59L26.21,67.50L26.02,67.49L25.82,67.57L25.61,67.73L25.43,67.95L25.29,68.20L25.21,68.47L25.19,68.72L25.24,68.92L25.35,69.06L23.80,68.16L23.69,68.03L23.63,67.82L23.64,67.70L24.83,68.39L24.83,68.40L23.64,67.71"/><path style="stroke:#000000;stroke-width:0.088" d="M23.64,67.70L23.67,67.30L23.65,67.08L23.62,66.98L23.60,66.78L23.38,65.25L23.22,63.66L23.71,63.95L23.72,63.94L23.78,63.93L23.79,63.92L23.81,63.91L23.83,63.90L23.84,63.87L23.86,63.75L23.88,63.57L23.91,63.37L23.93,63.12L23.93,63.08L23.93,63.07L23.92,63.07L23.72,62.95L23.72,62.95L23.71,62.95L23.64,62.97L23.55,63.01L23.86,62.83L23.78,62.90L23.77,62.91L23.77,62.92L23.78,62.92L23.72,62.95"/><path style="stroke:#000000;stroke-width:0.088" d="M23.66,67.17L23.62,67.29L23.61,67.42L23.64,67.52L23.65,67.54"/><path style="stroke:#000000;stroke-width:0.088" d="M23.66,67.14L23.65,67.15L23.61,67.28L23.60,67.40L23.60,67.41L23.63,67.51L23.63,67.51L23.65,67.54"/><path style="stroke:#000000;stroke-width:0.088" d="M23.60,66.78L24.58,67.34L24.64,67.44L24.86,67.88L24.91,67.97L24.93,67.99L24.92,68.02L23.67,67.30"/><path style="stroke:#000000;stroke-width:0.088" d="M23.59,64.49L23.58,64.48L23.64,64.75L23.93,65.69L24.04,66.01L24.45,67.05L24.55,66.94L24.82,66.72L24.82,66.71L24.98,66.62L24.60,65.65L24.28,64.67L24.14,64.12L24.49,63.97L24.47,63.92L23.58,64.44L23.59,64.49L23.91,64.25L24.20,65.21L24.57,66.17L24.82,66.71"/><path style="stroke:#000000;stroke-width:0.088" d="M23.58,64.44L23.57,64.23L23.61,64.06L23.71,63.95"/><path style="stroke:#000000;stroke-width:0.088" d="M23.47,63.05L23.49,63.04L23.47,63.05L23.39,63.14L23.29,63.33L23.22,63.52L23.22,63.55L23.22,63.66"/><path style="stroke:#000000;stroke-width:0.088" d="M24.69,63.41L24.70,63.40L24.70,63.39L24.70,63.36L23.84,63.86"/><path style="stroke:#000000;stroke-width:0.088" d="M23.71,63.95L23.72,63.94"/><path style="stroke:#000000;stroke-width:0.088" d="M23.84,63.87L24.70,63.37"/><path style="stroke:#000000;stroke-width:0.088" d="M23.81,63.91L24.69,63.41"/><path style="stroke:#000000;stroke-width:0.088" d="M23.78,62.92L23.98,63.04L23.99,63.04L24.01,63.04L24.09,63.05L24.35,63.10L24.55,63.18L24.65,63.27L24.70,63.36"/><path style="stroke:#000000;stroke-width:0.088" d="M24.44,63.13L23.93,62.83L23.92,62.83L23.86,62.83"/><path style="stroke:#000000;stroke-width:0.088" d="M23.55,63.01L23.49,63.04L23.80,62.87"/><path style="stroke:#000000;stroke-width:0.088" d="M23.49,63.04L23.50,63.04"/><path style="stroke:#000000;stroke-width:0.088" d="M24.58,67.34L24.45,67.05"/><path style="stroke:#000000;stroke-width:0.088" d="M24.48,63.98L24.75,64.94L25.12,65.96L25.35,66.53L25.25,66.54L24.99,66.62L25.00,66.67L25.13,66.94L25.31,67.17L25.51,67.33L25.60,67.29L25.69,67.27L25.74,67.27L25.78,67.27L25.83,67.28L25.87,67.30L25.93,67.33L25.80,67.22L25.72,67.14L25.48,66.82L25.35,66.53"/><path style="stroke:#000000;stroke-width:0.088" d="M24.47,63.92L24.47,63.71L24.51,63.55L24.57,63.48"/><path style="stroke:#000000;stroke-width:0.088" d="M24.55,63.18L24.16,62.97"/><path style="stroke:#000000;stroke-width:0.088" d="M23.97,63.03L23.92,63.07"/><path style="stroke:#000000;stroke-width:0.088" d="M25.35,69.06L25.52,69.11L25.72,69.08L25.75,69.06"/><path style="stroke:#000000;stroke-width:0.088" d="M25.45,68.78L25.43,68.68L25.43,68.60L25.46,68.57L25.83,68.79L25.83,68.88L25.85,68.96L25.88,69.04L25.92,69.09L25.87,69.12L25.53,68.92L25.54,68.88"/><path style="stroke:#000000;stroke-width:0.088" d="M25.43,68.67L25.77,68.87L25.77,68.80L25.43,68.60"/><path style="stroke:#000000;stroke-width:0.088" d="M24.83,68.40L24.85,68.26L24.86,68.20L24.88,68.13L24.90,68.06L24.93,68.00L25.07,67.74L25.11,67.68L25.16,67.62L25.20,67.57L25.25,67.52L25.34,67.44L25.43,67.38L25.42,67.37L25.41,67.36L25.41,67.35L25.42,67.35L25.43,67.34L25.44,67.34L25.46,67.33L25.47,67.33L25.48,67.34L25.49,67.34L25.51,67.33"/><path style="stroke:#000000;stroke-width:0.088" d="M24.83,68.39L24.84,68.30L24.85,68.25L24.86,68.21L24.88,68.12L24.90,68.07L24.92,68.02"/><path style="stroke:#000000;stroke-width:0.088" d="M25.55,68.94L25.56,68.94L25.46,68.89L25.37,68.78L25.33,68.63L25.35,68.43L25.41,68.22L25.52,68.03L25.66,67.85L25.82,67.73L25.98,67.67L26.12,67.68L26.22,67.73L26.20,67.73"/><path style="stroke:#000000;stroke-width:0.088" d="M25.77,68.80L25.83,68.79L25.85,68.69L25.88,68.59L25.50,68.37L25.47,68.39L25.45,68.46L25.44,68.49L25.43,68.60"/><path style="stroke:#000000;stroke-width:0.088" d="M25.45,68.46L25.79,68.66L25.85,68.69"/><path style="stroke:#000000;stroke-width:0.088" d="M25.47,68.75L25.85,68.96L25.79,68.99L25.45,68.79L25.47,68.75L25.46,68.69"/><path style="stroke:#000000;stroke-width:0.088" d="M25.45,68.79L25.47,68.84L25.81,69.04L25.88,69.04"/><path style="stroke:#000000;stroke-width:0.088" d="M24.93,67.99L25.05,67.77L25.09,67.71L25.13,67.65L25.18,67.59L25.23,67.54L25.31,67.46L25.40,67.39L25.36,67.37L25.15,67.20L24.96,66.97L24.82,66.72"/><path style="stroke:#000000;stroke-width:0.088" d="M25.40,67.39L25.43,67.38"/><path style="stroke:#000000;stroke-width:0.088" d="M24.98,66.62L24.99,66.62"/><path style="stroke:#000000;stroke-width:0.088" d="M26.15,69.17L26.21,69.15L26.25,69.12L26.17,69.15L26.15,69.17L26.13,69.16"/><path style="stroke:#000000;stroke-width:0.088" d="M25.93,69.14L25.99,69.18L26.03,69.16L26.10,69.16L26.17,69.15"/><path style="stroke:#000000;stroke-width:0.088" d="M26.03,69.16L25.97,69.13L25.92,69.09L25.82,69.04"/><path style="stroke:#000000;stroke-width:0.088" d="M26.10,69.16L26.04,69.19L25.99,69.18"/><path style="stroke:#000000;stroke-width:0.088" d="M25.53,68.92L25.56,68.95L25.91,69.15L25.97,69.13"/><path style="stroke:#000000;stroke-width:0.088" d="M25.87,69.12L25.91,69.15"/><path style="stroke:#000000;stroke-width:0.088" d="M26.02,69.05L26.00,69.04L25.93,68.96L25.90,68.83L25.91,68.68L25.96,68.51L26.05,68.35L26.17,68.22L26.29,68.12L26.42,68.07L26.53,68.08L26.55,68.08L26.44,68.08L26.31,68.13L26.18,68.23L26.07,68.36L25.98,68.52L25.93,68.69L25.92,68.84L25.95,68.97L26.02,69.05L26.12,69.09L26.24,69.06L26.35,69.00"/><path style="stroke:#000000;stroke-width:0.088" d="M26.25,69.12L26.33,69.08L26.39,69.03"/><path style="stroke:#000000;stroke-width:0.088" d="M25.50,68.37L25.54,68.27L25.92,68.48L25.97,68.38L25.91,68.37L25.56,68.17L25.59,68.17L25.65,68.07L26.03,68.29L25.97,68.38L25.59,68.17"/><path style="stroke:#000000;stroke-width:0.088" d="M25.54,68.27L25.53,68.24L25.87,68.44L25.92,68.48L25.88,68.59L25.81,68.59L25.47,68.39"/><path style="stroke:#000000;stroke-width:0.088" d="M25.83,68.88L25.77,68.87"/><path style="stroke:#000000;stroke-width:0.088" d="M25.53,68.91L25.47,68.84L25.47,68.83"/><path style="stroke:#000000;stroke-width:0.088" d="M25.56,68.94L25.56,68.94"/><path style="stroke:#000000;stroke-width:0.088" d="M25.53,68.25L25.51,68.28L25.47,68.39"/><path style="stroke:#000000;stroke-width:0.088" d="M25.79,68.99L25.81,69.04"/><path style="stroke:#000000;stroke-width:0.088" d="M25.79,68.66L25.81,68.59"/><path style="stroke:#000000;stroke-width:0.088" d="M25.91,68.37L25.87,68.44"/><path style="stroke:#000000;stroke-width:0.088" d="M25.99,68.24L26.04,68.18L26.10,68.20L26.03,68.29L25.99,68.24L25.65,68.04L25.65,68.07"/><path style="stroke:#000000;stroke-width:0.088" d="M27.91,69.78L27.86,69.80L27.79,69.82L27.72,69.80L26.14,68.88L26.09,68.84L26.07,68.76L26.07,68.67L26.10,68.56L26.15,68.46L26.22,68.37L26.29,68.31L26.31,68.30L26.37,68.27L26.45,68.27L26.51,68.30L28.05,69.19L28.11,69.23L28.14,69.29L28.15,69.38L28.15,69.42L28.14,69.35L28.11,69.29L28.07,69.26L28.01,69.26L27.94,69.28L27.87,69.33L27.81,69.41L27.77,69.49L27.74,69.58L27.73,69.66L27.75,69.73L27.79,69.77L27.84,69.79L27.91,69.78L27.97,69.74L28.04,69.68L28.09,69.60L28.13,69.51L28.15,69.42"/><path style="stroke:#000000;stroke-width:0.088" d="M25.46,68.57L25.47,68.48"/><path style="stroke:#000000;stroke-width:0.088" d="M25.65,68.04L25.70,67.98L25.72,67.99L25.80,67.91L26.17,68.13L26.25,68.06L26.33,68.02L26.41,67.99L26.49,67.98L26.48,67.92L26.14,67.72L26.11,67.76L26.08,67.77"/><path style="stroke:#000000;stroke-width:0.088" d="M26.14,67.72L26.19,67.73L26.53,67.93L26.48,67.92"/><path style="stroke:#000000;stroke-width:0.088" d="M26.13,67.73L26.08,67.73L26.04,67.74"/><path style="stroke:#000000;stroke-width:0.088" d="M26.11,67.76L26.49,67.98L26.56,67.98L26.62,68.01L26.55,67.97"/><path style="stroke:#000000;stroke-width:0.088" d="M25.96,67.80L26.33,68.02L26.32,67.96L25.97,67.76L25.96,67.80L25.89,67.84"/><path style="stroke:#000000;stroke-width:0.088" d="M26.15,68.07L26.21,68.02L25.86,67.83L25.80,67.87L26.15,68.07L26.17,68.13L26.10,68.20L25.72,67.99"/><path style="stroke:#000000;stroke-width:0.088" d="M25.80,67.87L25.80,67.91"/><path style="stroke:#000000;stroke-width:0.088" d="M25.53,68.24L25.56,68.17"/><path style="stroke:#000000;stroke-width:0.088" d="M26.22,67.73L26.27,67.77"/><path style="stroke:#000000;stroke-width:0.088" d="M25.87,67.83L25.92,67.79L25.97,67.77"/><path style="stroke:#000000;stroke-width:0.088" d="M25.70,67.98L25.76,67.91L25.80,67.88"/><path style="stroke:#000000;stroke-width:0.088" d="M25.57,68.17L25.62,68.08L25.65,68.04"/><path style="stroke:#000000;stroke-width:0.088" d="M26.04,68.18L25.70,67.98"/><path style="stroke:#000000;stroke-width:0.088" d="M26.21,68.02L26.25,68.06"/><path style="stroke:#000000;stroke-width:0.088" d="M25.97,67.76L26.03,67.74L26.38,67.94L26.32,67.96"/><path style="stroke:#000000;stroke-width:0.088" d="M26.21,67.50L25.89,67.31L25.85,67.29L25.80,67.28L25.76,67.27L25.66,67.28L25.49,67.34"/><path style="stroke:#000000;stroke-width:0.088" d="M25.93,67.33L25.94,67.34"/><path style="stroke:#000000;stroke-width:0.088" d="M26.75,68.35L26.75,68.25L26.75,68.26L26.75,68.35L26.74,68.43"/><path style="stroke:#000000;stroke-width:0.088" d="M26.75,68.26L26.74,68.18L26.73,68.12L26.71,68.07L26.67,68.04"/><path style="stroke:#000000;stroke-width:0.088" d="M26.70,68.41L26.70,68.39L26.69,68.25L26.64,68.14L26.55,68.08"/><path style="stroke:#000000;stroke-width:0.088" d="M26.75,68.25L26.75,68.24L26.75,68.24"/><path style="stroke:#000000;stroke-width:0.088" d="M26.62,67.96L26.66,67.99L26.67,68.05L26.62,68.01L26.62,67.96L26.27,67.76L26.26,67.77"/><path style="stroke:#000000;stroke-width:0.088" d="M26.71,68.07L26.71,68.11L26.67,68.05"/><path style="stroke:#000000;stroke-width:0.088" d="M26.41,67.99L26.38,67.94"/><path style="stroke:#000000;stroke-width:0.088" d="M26.71,68.11L26.74,68.18"/><path style="stroke:#000000;stroke-width:0.088" d="M26.56,67.98L26.53,67.93"/><path style="stroke:#000000;stroke-width:0.088" d="M27.72,69.80L27.68,69.74L27.66,69.66L27.67,69.57L27.70,69.46L27.75,69.36L27.82,69.28L27.90,69.22L27.97,69.19L27.98,69.19L28.05,69.19"/><path style="stroke:#000000;stroke-width:0.088" d="M105.34,114.46L105.34,114.51L105.35,114.41L105.35,114.39L105.38,114.31L105.43,114.21L105.51,114.12L105.58,114.06L105.55,114.08L105.48,114.14L105.42,114.21L105.37,114.29L105.35,114.38L105.34,114.46"/><path style="stroke:#000000;stroke-width:0.088" d="M105.34,114.51L105.36,114.59L105.40,114.64L106.75,115.42"/><path style="stroke:#000000;stroke-width:0.088" d="M105.58,114.06L105.66,114.03L105.74,114.04L107.09,114.82"/><path style="stroke:#000000;stroke-width:0.088" d="M107.04,115.89L106.76,115.72L106.75,115.67L107.05,115.84"/><path style="stroke:#000000;stroke-width:0.088" d="M106.82,115.80L106.83,115.86L106.87,115.89L107.04,115.99"/><path style="stroke:#000000;stroke-width:0.088" d="M108.61,116.63L108.59,116.87L108.65,117.07L108.76,117.21L107.20,116.31L107.09,116.18L107.04,115.97L107.06,115.72L107.14,115.46L107.20,115.34L107.28,115.20L107.46,114.98L107.67,114.82L107.87,114.74L108.06,114.75L108.41,114.95"/><path style="stroke:#000000;stroke-width:0.088" d="M107.04,115.98L106.83,115.86"/><path style="stroke:#000000;stroke-width:0.088" d="M106.76,115.72L106.78,115.78L107.04,115.93"/><path style="stroke:#000000;stroke-width:0.088" d="M107.06,115.73L106.74,115.54L106.74,115.61L107.05,115.79"/><path style="stroke:#000000;stroke-width:0.088" d="M107.18,115.38L107.18,115.38L107.21,115.31L107.22,115.31"/><path style="stroke:#000000;stroke-width:0.088" d="M107.21,115.31L106.87,115.11L106.87,115.09L107.23,115.29"/><path style="stroke:#000000;stroke-width:0.088" d="M107.12,115.52L106.78,115.33L106.78,115.29L106.82,115.19L107.17,115.39"/><path style="stroke:#000000;stroke-width:0.088" d="M107.30,115.17L106.96,114.98L107.01,114.91L107.35,115.11"/><path style="stroke:#000000;stroke-width:0.088" d="M107.18,115.38L106.83,115.18L106.82,115.19L106.87,115.09L106.93,114.99L107.28,115.20"/><path style="stroke:#000000;stroke-width:0.088" d="M107.07,115.68L106.74,115.49L106.75,115.39L106.76,115.40L106.78,115.33"/><path style="stroke:#000000;stroke-width:0.088" d="M106.87,115.11L106.83,115.18"/><path style="stroke:#000000;stroke-width:0.088" d="M107.35,115.11L107.00,114.91L107.01,114.91"/><path style="stroke:#000000;stroke-width:0.088" d="M107.13,115.49L106.78,115.29L106.75,115.39"/><path style="stroke:#000000;stroke-width:0.088" d="M106.75,115.67L106.74,115.61"/><path style="stroke:#000000;stroke-width:0.088" d="M106.76,115.40L107.10,115.60"/><path style="stroke:#000000;stroke-width:0.088" d="M106.74,115.49L106.74,115.54"/><path style="stroke:#000000;stroke-width:0.088" d="M106.96,114.98L106.93,114.99L107.00,114.91L107.08,114.83L107.11,114.81L107.17,114.76L107.16,114.77L107.24,114.72L107.28,114.70L107.34,114.68L107.63,114.85"/><path style="stroke:#000000;stroke-width:0.088" d="M107.24,114.72L107.55,114.91"/><path style="stroke:#000000;stroke-width:0.088" d="M107.11,114.81L107.44,115.00"/><path style="stroke:#000000;stroke-width:0.088" d="M107.28,114.70L107.59,114.88"/><path style="stroke:#000000;stroke-width:0.088" d="M107.16,114.77L107.08,114.83L107.42,115.03"/><path style="stroke:#000000;stroke-width:0.088" d="M107.17,114.76L107.50,114.95"/><path style="stroke:#000000;stroke-width:0.088" d="M107.36,114.69L107.39,114.68L107.44,114.66L107.70,114.81"/><path style="stroke:#000000;stroke-width:0.088" d="M109.85,116.03L109.85,116.14L109.84,115.92L109.85,116.03L109.85,116.02L109.83,115.88L109.82,115.79L109.84,115.72L109.87,115.70L108.94,116.24L108.80,116.35L108.74,116.41L107.49,115.69L107.50,115.66L107.55,115.55L107.62,115.44L107.66,115.38L107.70,115.32L107.75,115.26L107.80,115.21L107.89,115.13L107.97,115.06L108.18,115.14L108.31,115.14"/><path style="stroke:#000000;stroke-width:0.088" d="M107.45,116.08L108.59,116.74L108.59,116.76L107.40,116.07L107.40,116.06L107.45,116.08"/><path style="stroke:#000000;stroke-width:0.088" d="M107.40,116.06L107.40,116.01L107.41,115.97L107.42,115.92L107.43,115.88L107.49,115.69"/><path style="stroke:#000000;stroke-width:0.088" d="M108.94,116.24L108.99,116.07L108.01,115.50L108.14,115.36L108.37,115.06L108.74,114.46L109.01,113.81L109.00,113.80L109.01,113.76L109.02,113.56L108.98,113.34L108.88,113.12L109.37,113.40L109.40,113.27L109.46,113.07L109.56,112.89L109.57,112.87L109.63,112.77L109.71,112.62L109.72,112.60L109.72,112.60L109.71,112.59L109.51,112.48L109.50,112.47L109.48,112.47L109.40,112.48L109.13,112.55L109.57,112.35L109.56,112.40L109.56,112.43L109.56,112.44L109.57,112.45L109.77,112.56L109.78,112.56L109.85,112.56L110.01,112.56L110.10,112.58L109.59,112.29L109.58,112.29L109.57,112.35L109.13,112.55L109.13,112.55"/><path style="stroke:#000000;stroke-width:0.088" d="M107.50,115.66L107.51,115.66L107.54,115.67L107.77,115.61L108.01,115.50"/><path style="stroke:#000000;stroke-width:0.088" d="M107.53,115.59L107.53,115.60"/><path style="stroke:#000000;stroke-width:0.088" d="M108.36,115.08L108.34,115.08L108.13,115.02L108.09,115.00L108.17,114.96L108.26,114.94L108.31,114.94L108.35,114.94L108.40,114.95L108.43,114.96"/><path style="stroke:#000000;stroke-width:0.088" d="M107.97,115.06L108.00,115.05L108.00,115.05L108.02,115.05L108.03,115.05L108.05,115.05L108.06,115.05L108.07,115.04L108.07,115.03L108.07,115.02L108.07,115.02L108.06,115.01L108.06,115.01"/><path style="stroke:#000000;stroke-width:0.088" d="M107.72,114.80L107.49,114.67L107.44,114.66"/><path style="stroke:#000000;stroke-width:0.088" d="M107.56,114.70L107.58,114.70L107.74,114.79"/><path style="stroke:#000000;stroke-width:0.088" d="M107.39,114.68L107.65,114.83"/><path style="stroke:#000000;stroke-width:0.088" d="M108.06,115.01L108.09,115.00"/><path style="stroke:#000000;stroke-width:0.088" d="M108.76,117.21L108.92,117.26L109.12,117.23L109.33,117.11L109.39,117.04"/><path style="stroke:#000000;stroke-width:0.088" d="M108.59,116.74L108.60,116.67L108.59,116.74"/><path style="stroke:#000000;stroke-width:0.088" d="M108.59,116.76L108.59,116.71"/><path style="stroke:#000000;stroke-width:0.088" d="M108.61,116.64L108.60,116.69"/><path style="stroke:#000000;stroke-width:0.088" d="M108.94,116.44L109.02,116.32L109.13,116.21L109.23,116.13L109.33,116.08L109.41,116.06L109.45,116.07L109.75,116.24L109.66,116.24L109.56,116.28L109.46,116.36L109.37,116.47L109.30,116.59L109.25,116.73L109.25,116.83L109.25,116.85L109.27,116.96L109.33,117.02L108.98,116.82L108.93,116.74L108.91,116.64L108.92,116.51L108.94,116.44L108.61,116.63"/><path style="stroke:#000000;stroke-width:0.088" d="M108.60,116.67L108.62,116.60L108.74,116.41"/><path style="stroke:#000000;stroke-width:0.088" d="M108.62,116.60L108.60,116.67"/><path style="stroke:#000000;stroke-width:0.088" d="M108.88,113.12L108.83,113.03L108.81,113.01L108.80,112.99L108.79,112.96L108.78,112.93L108.79,112.91L108.79,112.90L108.84,112.78L108.94,112.67L109.13,112.55"/><path style="stroke:#000000;stroke-width:0.088" d="M109.33,117.02L109.42,117.05L109.43,117.05L109.52,117.03L109.53,117.03L109.63,116.97L109.73,116.88L109.81,116.76L109.86,116.63L109.89,116.51L109.88,116.39L109.83,116.29L109.83,116.29L109.75,116.24"/><path style="stroke:#000000;stroke-width:0.088" d="M109.72,116.87L109.63,116.96L109.54,117.02L109.45,117.03L109.37,117.01L109.32,116.95L109.29,116.85L109.30,116.74L109.34,116.61L109.41,116.49L109.49,116.39L109.59,116.32L109.68,116.28L109.76,116.29L109.77,116.29L109.83,116.33L109.87,116.41L109.88,116.51L109.85,116.64L109.80,116.76L109.72,116.87"/><path style="stroke:#000000;stroke-width:0.088" d="M108.99,116.07L109.21,114.80L109.37,113.40"/><path style="stroke:#000000;stroke-width:0.088" d="M109.52,116.10L109.84,115.92"/><path style="stroke:#000000;stroke-width:0.088" d="M109.45,116.07L109.47,116.07L109.63,116.17"/><path style="stroke:#000000;stroke-width:0.088" d="M109.56,112.89L110.10,112.58"/><path style="stroke:#000000;stroke-width:0.088" d="M109.39,113.30L110.27,112.79L110.27,112.88L110.11,114.28L109.89,115.55L109.87,115.70"/><path style="stroke:#000000;stroke-width:0.088" d="M109.51,112.48L109.57,112.45"/><path style="stroke:#000000;stroke-width:0.088" d="M109.71,112.59L109.77,112.56"/><path style="stroke:#000000;stroke-width:0.088" d="M109.59,112.29L109.60,112.28L109.96,112.50"/><path style="stroke:#000000;stroke-width:0.088" d="M109.13,112.55L109.58,112.30"/><path style="stroke:#000000;stroke-width:0.088" d="M109.58,112.29L109.19,112.52"/><path style="stroke:#000000;stroke-width:0.088" d="M109.85,116.14L109.83,116.29"/><path style="stroke:#000000;stroke-width:0.088" d="M110.27,112.79L110.26,112.76L110.20,112.64L110.10,112.58"/><path style="stroke:#000000;stroke-width:0.088" d="M108.49,91.78L108.00,91.49L107.91,91.34L107.88,91.13L107.92,90.88L108.02,90.62L108.17,90.38L108.35,90.18L108.55,90.05L108.75,90.00L108.91,90.03L109.40,90.32L109.24,90.28L109.04,90.33L108.84,90.46L108.66,90.66L108.51,90.90L108.41,91.16L108.40,91.18L108.37,91.41L108.40,91.62L108.49,91.78L108.64,91.85L108.82,91.85L108.98,91.78L109.02,91.75L109.21,91.59L109.39,91.37L109.51,91.11L109.58,90.85L109.59,90.62L109.52,90.43L109.40,90.32"/><path style="stroke:#000000;stroke-width:0.088" d="M108.77,91.38L108.83,91.41L108.91,91.41L108.98,91.38L109.00,91.37L109.08,91.29L109.16,91.20L109.21,91.09L109.24,90.98L109.24,90.87L109.22,90.79L109.16,90.74L109.09,90.73L109.01,90.75L108.92,90.81L108.84,90.89L108.77,91.00L108.73,91.11L108.72,91.22L108.73,91.31L108.77,91.38"/><path style="stroke:#000000;stroke-width:0.088" d="M58.73,62.89L58.80,63.07L58.93,63.17L59.42,63.46L59.29,63.35L59.22,63.17L59.22,62.94L59.28,62.68L59.40,62.43L59.57,62.20L59.76,62.03L59.96,61.93L60.15,61.91L60.30,61.97L59.81,61.69L59.66,61.62L59.47,61.64L59.27,61.74L59.08,61.92L58.91,62.15L58.79,62.40L58.73,62.66L58.73,62.89"/><path style="stroke:#000000;stroke-width:0.088" d="M59.65,63.02L59.59,62.98L59.56,62.90L59.56,62.80L59.59,62.69L59.64,62.58L59.71,62.48L59.80,62.40L59.88,62.36L59.97,62.35L60.03,62.38L60.07,62.44L60.09,62.53L60.08,62.64L60.04,62.75L59.97,62.86L59.90,62.95L59.83,63.00L59.81,63.01L59.72,63.03L59.65,63.02"/><path style="stroke:#000000;stroke-width:0.088" d="M60.30,61.97L60.40,62.12L60.44,62.32L60.41,62.57L60.32,62.83L60.17,63.08L59.99,63.28L59.83,63.40L59.79,63.42L59.59,63.48L59.42,63.46"/><path style="stroke:#000000;stroke-width:0.088" d="M58.16,105.70L61.01,107.35L61.01,105.47L61.03,105.31L61.09,105.15L61.18,104.99L61.29,104.86L61.42,104.76L62.05,104.40L71.59,98.89L102.65,80.95L103.38,80.54L103.49,80.59L103.62,80.61L103.76,80.61L103.90,80.59L104.03,80.53L157.56,49.62L159.27,50.61L159.27,51.55L61.42,108.06L58.16,106.17L58.16,105.70L58.05,105.62L57.99,105.52L57.99,105.42L58.05,105.32L58.15,105.23L72.34,97.04L72.43,97.00L72.49,97.03"/><path style="stroke:#000000;stroke-width:0.088" d="M58.16,106.17L58.05,106.09L57.99,105.99L57.99,105.56L57.99,105.91"/><path style="stroke:#000000;stroke-width:0.088" d="M57.99,105.52L57.99,105.56L57.99,105.49"/><path style="stroke:#000000;stroke-width:0.088" d="M61.42,108.06L61.42,105.70L61.01,105.47"/><path style="stroke:#000000;stroke-width:0.088" d="M61.42,105.70L61.44,105.56L61.50,105.38L61.59,105.22L61.70,105.09L61.82,105.00L61.42,104.76"/><path style="stroke:#000000;stroke-width:0.088" d="M62.27,106.17L63.17,105.64L63.30,105.45L63.34,105.35L63.35,105.24L63.34,105.16L63.30,105.09L63.24,105.06L63.17,105.06L63.09,105.09L62.19,105.62L62.06,105.81L62.01,106.02L62.02,106.11L62.05,106.15L62.12,106.21L62.19,106.21L62.27,106.17L62.01,106.02"/><path style="stroke:#000000;stroke-width:0.088" d="M61.82,105.00L157.64,49.67L157.56,49.62L157.77,49.74"/><path style="stroke:#000000;stroke-width:0.088" d="M62.90,105.20L62.84,105.32L62.68,105.47L62.05,105.83"/><path style="stroke:#000000;stroke-width:0.088" d="M62.68,105.47L63.09,105.70"/><path style="stroke:#000000;stroke-width:0.088" d="M64.38,104.97L64.26,104.98L64.20,104.94L64.16,104.87L64.15,104.76L64.17,104.65L64.22,104.53L64.29,104.41L64.38,104.33L64.48,104.27L64.56,104.25L64.64,104.27L64.69,104.33L64.72,104.42L64.71,104.53L64.68,104.65L64.61,104.77L64.53,104.87L64.38,104.97"/><path style="stroke:#000000;stroke-width:0.088" d="M64.28,104.85L64.43,104.71L64.50,104.60L64.54,104.48L64.56,104.36L64.54,104.26L64.45,104.52L64.32,104.73L64.17,104.89L64.28,104.85"/><path style="stroke:#000000;stroke-width:0.088" d="M66.20,103.67L66.27,103.60L66.40,103.39L66.50,103.13L66.51,103.23L66.50,103.35L66.45,103.47L66.38,103.58L66.30,103.67L66.21,103.74L66.13,103.76L66.20,103.67"/><path style="stroke:#000000;stroke-width:0.088" d="M66.65,103.20L66.68,103.32L66.63,103.52L66.57,103.64L66.49,103.74L66.40,103.82L66.30,103.85L66.22,103.85L66.16,103.81L66.12,103.74L66.11,103.63L66.13,103.52L66.18,103.40L66.25,103.28L66.34,103.20L66.43,103.14L66.52,103.12L66.60,103.14L66.65,103.20"/><path style="stroke:#000000;stroke-width:0.088" d="M71.24,100.80L71.29,100.87L71.37,100.89L71.45,100.88L71.54,100.82L71.62,100.74L71.69,100.64L71.74,100.52L71.76,100.41L71.75,100.31L71.71,100.24L71.65,100.20L71.59,100.20L71.48,100.49L71.35,100.70L71.24,100.80L71.22,100.73L71.23,100.63L71.26,100.51L71.32,100.40L71.40,100.31L71.48,100.24L71.59,100.20L71.62,100.33L71.60,100.44L71.55,100.56L71.48,100.66L71.40,100.74L71.24,100.82"/><path style="stroke:#000000;stroke-width:0.088" d="M72.92,99.85L72.89,99.77L72.90,99.66L72.93,99.55L72.99,99.44L73.07,99.34L73.15,99.27L73.24,99.24L73.32,99.24L73.38,99.28L73.42,99.35L73.43,99.45L73.41,99.56L73.36,99.67L73.29,99.77L73.21,99.86L73.12,99.91L73.04,99.93L72.97,99.91L72.92,99.85L73.07,99.78L73.15,99.69L73.22,99.59L73.27,99.48L73.29,99.37L73.26,99.24L73.16,99.52L73.02,99.73L72.91,99.84"/><path style="stroke:#000000;stroke-width:0.088" d="M72.43,97.00L73.65,97.70"/><path style="stroke:#000000;stroke-width:0.088" d="M75.45,98.59L75.36,98.63L75.27,98.63L75.21,98.59L75.17,98.51L75.16,98.41L75.18,98.29L75.23,98.17L75.30,98.06L75.39,97.97L75.48,97.91L75.57,97.89L75.65,97.92L75.70,97.97L75.73,98.07L75.72,98.18L75.69,98.30L75.62,98.41L75.54,98.52L75.45,98.59"/><path style="stroke:#000000;stroke-width:0.088" d="M75.18,98.53L75.33,98.37L75.45,98.16L75.55,97.91L75.57,98.00L75.55,98.12L75.51,98.24L75.44,98.35L75.35,98.45L75.26,98.51L75.18,98.53"/><path style="stroke:#000000;stroke-width:0.088" d="M75.52,96.62L75.12,96.38L75.01,96.30L74.95,96.20L74.95,96.03L74.95,96.12"/><path style="stroke:#000000;stroke-width:0.088" d="M75.12,96.38L75.12,95.91L75.93,96.38"/><path style="stroke:#000000;stroke-width:0.088" d="M157.14,49.86L156.65,49.66L155.96,49.53L155.24,49.53L154.56,49.66L153.97,49.90L75.12,95.44L75.01,95.52L74.95,95.62L74.95,95.73L75.01,95.82L75.12,95.91"/><path style="stroke:#000000;stroke-width:0.088" d="M74.95,95.73L74.95,96.03L74.95,95.69"/><path style="stroke:#000000;stroke-width:0.088" d="M74.95,95.71L74.95,95.77"/><path style="stroke:#000000;stroke-width:0.088" d="M77.14,97.16L77.12,97.28L77.13,97.38L77.16,97.46L77.23,97.50L77.31,97.50L77.41,97.46L77.50,97.39L77.58,97.28L77.64,97.17L77.69,96.97L77.66,96.84L77.61,96.79L77.53,96.76L77.44,96.78L77.35,96.84L77.26,96.93L77.19,97.04L77.14,97.16"/><path style="stroke:#000000;stroke-width:0.088" d="M77.14,97.40L77.28,97.24L77.41,97.03L77.51,96.78L77.52,96.87L77.51,96.95L77.46,97.11L77.39,97.22L77.31,97.32L77.21,97.38L77.14,97.40"/><path style="stroke:#000000;stroke-width:0.088" d="M155.29,50.93L155.26,50.85L155.27,50.79L155.33,50.73L155.41,50.68L155.51,50.65L155.63,50.65L155.75,50.67"/><path style="stroke:#000000;stroke-width:0.088" d="M155.32,50.92L155.33,50.85L155.37,50.80L155.43,50.76L155.52,50.74L155.64,50.73"/><path style="stroke:#000000;stroke-width:0.088" d="M158.22,50.00L157.64,49.67"/><path style="stroke:#000000;stroke-width:0.088" d="M158.90,50.39L158.80,50.34"/><path style="stroke:#000000;stroke-width:0.088" d="M77.34,66.91L132.42,35.11L132.83,35.35L132.84,35.82L34.98,92.32L34.98,90.44L35.00,90.28L35.06,90.12L35.15,89.96L35.26,89.83L35.39,89.73L77.33,65.51L77.34,66.91L77.34,66.90"/><path style="stroke:#000000;stroke-width:0.088" d="M34.98,92.32L37.83,93.97L37.84,94.44L37.98,94.50L38.18,94.54L38.33,94.54L38.50,94.50L38.64,94.44L38.65,93.97L38.50,94.03L38.33,94.06L38.15,94.06L37.98,94.03L37.83,93.97"/><path style="stroke:#000000;stroke-width:0.088" d="M37.84,94.44L34.57,92.56L34.57,90.20L34.98,90.44"/><path style="stroke:#000000;stroke-width:0.088" d="M34.57,90.20L34.59,90.05L34.65,89.88L34.74,89.73L34.85,89.59L34.98,89.50L35.39,89.73"/><path style="stroke:#000000;stroke-width:0.088" d="M77.34,66.67L77.34,65.13L130.88,34.22L130.80,34.17L34.98,89.50"/><path style="stroke:#000000;stroke-width:0.088" d="M35.83,90.91L36.73,90.38L36.86,90.19L36.90,90.08L36.91,89.98L36.90,89.89L36.86,89.83L36.81,89.80L36.73,89.80L36.65,89.83L35.75,90.36L35.62,90.55L35.57,90.76L35.58,90.85L35.62,90.91L35.68,90.94L35.75,90.94L35.83,90.91L35.57,90.76"/><path style="stroke:#000000;stroke-width:0.088" d="M35.68,90.94L35.66,90.93"/><path style="stroke:#000000;stroke-width:0.088" d="M35.61,90.57L36.24,90.20L36.40,90.06L36.46,89.94"/><path style="stroke:#000000;stroke-width:0.088" d="M36.65,90.44L36.24,90.20"/><path style="stroke:#000000;stroke-width:0.088" d="M38.16,89.85L37.98,89.98L37.81,90.04L37.66,90.03L37.55,89.94L37.48,89.79L37.47,89.60L37.51,89.38L37.61,89.15L37.75,88.95L37.92,88.80L38.09,88.70L38.26,88.67L38.39,88.72L38.48,88.84L38.52,89.05L38.51,89.22L38.43,89.45L38.31,89.67L38.16,89.85"/><path style="stroke:#000000;stroke-width:0.088" d="M37.61,89.44L37.70,89.36L37.78,89.25L37.84,89.13L37.87,89.01L37.85,88.86L37.89,88.85L37.96,88.87L38.01,88.94L38.04,89.03L38.03,89.11L37.99,89.27L37.92,89.38L37.84,89.48L37.74,89.55L37.65,89.58L37.57,89.58L37.51,89.53L37.49,89.49L37.61,89.44"/><path style="stroke:#000000;stroke-width:0.088" d="M38.65,93.97L52.84,85.78L52.84,86.25L38.64,94.44"/><path style="stroke:#000000;stroke-width:0.088" d="M39.77,88.91L39.62,88.90L39.50,88.81L39.44,88.66L39.42,88.47L39.47,88.25L39.54,88.10L39.71,87.82L39.88,87.67L40.05,87.57L40.21,87.54L40.35,87.59L40.44,87.71L40.48,87.88L40.46,88.10L40.39,88.32L40.27,88.54L40.11,88.72L39.94,88.85L39.77,88.91"/><path style="stroke:#000000;stroke-width:0.088" d="M39.57,88.31L39.66,88.23L39.74,88.12L39.80,88.00L39.83,87.88L39.81,87.73L39.85,87.72L39.92,87.74L39.97,87.81L39.99,87.90L39.96,88.10L39.88,88.25L39.79,88.35L39.70,88.42L39.61,88.45L39.53,88.45L39.47,88.40L39.45,88.36L39.57,88.31"/><path style="stroke:#000000;stroke-width:0.088" d="M44.52,85.49L44.58,85.26L44.68,85.04L44.83,84.84L45.00,84.69L45.18,84.61L45.34,84.59L45.47,84.66L45.56,84.79L45.59,84.97L45.56,85.19L45.47,85.42L45.34,85.64L45.18,85.81L45.00,85.93L44.83,85.98L44.68,85.95L44.58,85.85L44.52,85.69L44.52,85.49"/><path style="stroke:#000000;stroke-width:0.088" d="M44.90,84.80L44.91,84.89L44.90,85.00L44.85,85.12L44.79,85.22L44.71,85.31L44.54,85.40L44.60,85.46L44.67,85.48L44.76,85.45L44.85,85.39L44.93,85.30L44.99,85.20L45.03,85.08L45.05,84.97L45.03,84.88L44.99,84.82L44.89,84.79"/><path style="stroke:#000000;stroke-width:0.088" d="M46.36,84.99L46.50,85.01L46.68,84.96L46.85,84.85L47.01,84.67L47.15,84.46L47.23,84.23L47.26,84.01L47.23,83.82L47.15,83.69L47.02,83.63L46.85,83.64L46.68,83.72L46.50,83.87L46.36,84.07L46.25,84.30L46.19,84.52L46.18,84.63L46.19,84.73L46.25,84.89L46.36,84.99"/><path style="stroke:#000000;stroke-width:0.088" d="M46.21,84.43L46.29,84.41L46.38,84.35L46.46,84.26L46.53,84.15L46.57,84.04L46.58,83.93L46.57,83.84"/><path style="stroke:#000000;stroke-width:0.088" d="M46.21,84.45L46.27,84.50L46.34,84.51L46.43,84.49L46.52,84.43L46.60,84.34L46.66,84.23L46.70,84.13L46.72,84.01L46.71,83.92L46.66,83.85L46.57,83.82"/><path style="stroke:#000000;stroke-width:0.088" d="M48.49,83.44L48.48,83.24L48.52,83.02L48.62,82.80L48.76,82.60L48.93,82.44L49.10,82.34L49.27,82.32L49.40,82.37L49.49,82.48L49.53,82.66L49.51,82.87L49.44,83.09L49.32,83.31L49.17,83.49L48.99,83.62L48.82,83.68L48.67,83.67L48.55,83.58L48.49,83.44"/><path style="stroke:#000000;stroke-width:0.088" d="M48.50,83.13L48.62,83.08L48.71,83.00L48.79,82.90L48.85,82.78L48.88,82.66L48.86,82.50L48.90,82.49L48.97,82.52L49.02,82.58L49.04,82.67L49.03,82.79L48.99,82.91L48.93,83.03L48.78,83.17L48.66,83.23L48.58,83.22L48.52,83.18L48.50,83.13"/><path style="stroke:#000000;stroke-width:0.088" d="M50.88,84.55L50.80,84.51L52.67,83.42L52.82,83.36L52.99,83.33L53.17,83.33L53.34,83.36L53.49,83.42L53.49,83.89L54.79,84.65L54.79,84.18L53.49,83.42"/><path style="stroke:#000000;stroke-width:0.088" d="M50.80,84.51L52.68,85.59"/><path style="stroke:#000000;stroke-width:0.088" d="M50.64,82.54L50.78,82.55L50.95,82.49L51.12,82.36L51.28,82.18L51.40,81.96L51.47,81.75L51.49,81.53L51.45,81.35L51.36,81.24L51.22,81.19L51.06,81.21L50.88,81.31L50.72,81.47L50.58,81.67L50.48,81.89L50.43,82.18L50.44,82.31L50.51,82.45L50.64,82.54"/><path style="stroke:#000000;stroke-width:0.088" d="M50.54,81.97L50.67,81.87L50.75,81.77L50.80,81.65L50.83,81.53L50.82,81.37L50.86,81.36L50.93,81.39L50.98,81.45L51.00,81.54L50.99,81.62L50.95,81.78L50.89,81.89L50.74,82.04L50.62,82.10L50.54,82.09L50.47,82.04L50.46,82.00L50.54,81.97"/><path style="stroke:#000000;stroke-width:0.088" d="M51.21,84.74L52.67,83.89L52.67,83.42"/><path style="stroke:#000000;stroke-width:0.088" d="M50.91,84.57L51.24,84.76"/><path style="stroke:#000000;stroke-width:0.088" d="M52.84,85.78L52.92,85.73L53.00,85.78L53.00,86.07L52.94,86.16L52.84,86.25"/><path style="stroke:#000000;stroke-width:0.088" d="M52.92,85.73L52.50,85.49"/><path style="stroke:#000000;stroke-width:0.088" d="M52.67,83.89L52.82,83.83L52.99,83.80L53.17,83.80L53.34,83.83L53.49,83.89"/><path style="stroke:#000000;stroke-width:0.088" d="M54.79,84.18L54.94,84.24L55.11,84.27L55.29,84.27L55.46,84.24L55.61,84.18L134.47,38.64L134.47,39.11L134.89,38.78L135.11,38.38L135.11,37.91L134.89,38.31L134.47,38.64"/><path style="stroke:#000000;stroke-width:0.088" d="M54.79,84.65L54.94,84.71L55.11,84.74L55.29,84.74L55.46,84.71L55.61,84.65L55.61,84.18"/><path style="stroke:#000000;stroke-width:0.088" d="M55.61,84.65L134.47,39.11"/><path style="stroke:#000000;stroke-width:0.088" d="M77.33,65.87L77.34,66.01"/><path style="stroke:#000000;stroke-width:0.088" d="M77.33,65.51L77.25,65.44L77.21,65.35L77.22,65.26L77.26,65.19L77.34,65.13"/><path style="stroke:#000000;stroke-width:0.088" d="M130.80,34.17L131.25,34.43L130.88,34.22"/><path style="stroke:#000000;stroke-width:0.088" d="M131.25,34.43L132.42,35.11"/><path style="stroke:#000000;stroke-width:0.088" d="M132.84,37.50L132.66,37.53L132.57,37.57L132.51,37.63L132.49,37.69L132.50,37.76L132.55,37.82L132.63,37.86L132.84,37.90L132.96,37.89L133.12,37.81L133.17,37.74L133.18,37.68L133.15,37.61L133.08,37.56L132.99,37.52L132.84,37.50"/><path style="stroke:#000000;stroke-width:0.088" d="M132.61,37.85L132.56,37.80L132.55,37.74L132.57,37.69L132.69,37.61L132.87,37.58L133.04,37.63L133.09,37.68L133.12,37.73L133.12,37.78L133.05,37.86"/><path style="stroke:#000000;stroke-width:0.088" d="M132.05,34.90L132.07,34.91"/><path style="stroke:#000000;stroke-width:0.088" d="M135.11,37.91L135.11,37.49L134.89,37.10L134.47,36.76L132.84,35.82"/><path style="stroke:#000000;stroke-width:0.088" d="M135.11,37.49L135.11,37.51"/><path style="fill:#ffffff" d="M171.65,63.38L198.06,63.38L198.06,57.74L171.65,57.74z"/><path style="stroke:#35414c;stroke-width:0.255" d="M171.65,63.38L198.06,63.38L198.06,57.74L171.65,57.74z"/><path style="stroke:#35404c;stroke-width:0.250;stroke-opacity:0.00" d="M171.65,63.38L198.06,63.38L198.06,57.74L171.65,57.74z"/><text xml:space="preserve" fill="#333f4b" stroke-width="0" x="172.36" y="61.79" font-size="3.56" opacity="1.00" font-family="Arial" font-weight="bold" font-style="italic">F24978976X</text><path style="fill:#ffffff" d="M171.65,33.27L198.06,33.27L198.06,27.62L171.65,27.62z"/><path style="stroke:#35414c;stroke-width:0.255" d="M171.65,33.27L198.06,33.27L198.06,27.62L171.65,27.62z"/><path style="stroke:#35404c;stroke-width:0.250;stroke-opacity:0.00" d="M171.65,33.27L198.06,33.27L198.06,27.62L171.65,27.62z"/><text xml:space="preserve" fill="#333f4b" stroke-width="0" x="172.36" y="31.68" font-size="3.49" opacity="1.00" font-family="Arial" font-weight="bold" font-style="italic">F24973476A</text><path style="fill:#ffffff" d="M171.65,103.27L198.06,103.27L198.06,97.62L171.65,97.62z"/><path style="stroke:#35414c;stroke-width:0.255" d="M171.65,103.27L198.06,103.27L198.06,97.62L171.65,97.62z"/><path style="stroke:#35404c;stroke-width:0.250;stroke-opacity:0.00" d="M171.65,103.27L198.06,103.27L198.06,97.62L171.65,97.62z"/><text xml:space="preserve" fill="#333f4b" stroke-width="0" x="172.36" y="101.68" font-size="3.49" opacity="1.00" font-family="Arial" font-weight="bold" font-style="italic">F24978982A</text><path style="fill:#ffffff" d="M171.65,53.34L198.06,53.34L198.06,47.70L171.65,47.70z"/><path style="stroke:#35414c;stroke-width:0.255" d="M171.65,53.34L198.06,53.34L198.06,47.70L171.65,47.70z"/><path style="stroke:#35404c;stroke-width:0.250;stroke-opacity:0.00" d="M171.65,53.34L198.06,53.34L198.06,47.70L171.65,47.70z"/><text xml:space="preserve" fill="#333f4b" stroke-width="0" x="172.36" y="51.75" font-size="3.56" opacity="1.00" font-family="Arial" font-weight="bold" font-style="italic">F24975506X</text><path style="fill:#ffffff" d="M171.65,123.34L198.07,123.34L198.07,117.70L171.65,117.70z"/><path style="stroke:#35414c;stroke-width:0.255" d="M171.65,123.34L198.07,123.34L198.07,117.70L171.65,117.70z"/><path style="stroke:#35404c;stroke-width:0.250;stroke-opacity:0.00" d="M171.65,123.34L198.07,123.34L198.07,117.70L171.65,117.70z"/><text xml:space="preserve" fill="#333f4b" stroke-width="0" x="172.36" y="121.75" font-size="3.40" opacity="1.00" font-family="Arial" font-weight="bold" font-style="italic">VM1570</text><path style="fill:#ffffff" d="M171.65,43.30L198.07,43.30L198.07,37.66L171.65,37.66z"/><path style="stroke:#35414c;stroke-width:0.255" d="M171.65,43.30L198.07,43.30L198.07,37.66L171.65,37.66z"/><path style="stroke:#35404c;stroke-width:0.250;stroke-opacity:0.00" d="M171.65,43.30L198.07,43.30L198.07,37.66L171.65,37.66z"/><text xml:space="preserve" fill="#333f4b" stroke-width="0" x="172.36" y="41.72" font-size="3.56" opacity="1.00" font-family="Arial" font-weight="bold" font-style="italic">F24973942X</text><path style="fill:#ffffff" d="M171.65,83.19L198.06,83.19L198.06,77.55L171.65,77.55z"/><path style="stroke:#35414c;stroke-width:0.255" d="M171.65,83.19L198.06,83.19L198.06,77.55L171.65,77.55z"/><path style="stroke:#35404c;stroke-width:0.250;stroke-opacity:0.00" d="M171.65,83.19L198.06,83.19L198.06,77.55L171.65,77.55z"/><text xml:space="preserve" fill="#333f4b" stroke-width="0" x="172.36" y="81.60" font-size="3.56" opacity="1.00" font-family="Arial" font-weight="bold" font-style="italic">F24978978X</text><path style="fill:#ffffff" d="M171.65,93.23L198.06,93.23L198.06,87.59L171.65,87.59z"/><path style="stroke:#35414c;stroke-width:0.255" d="M171.65,93.23L198.06,93.23L198.06,87.59L171.65,87.59z"/><path style="stroke:#35404c;stroke-width:0.250;stroke-opacity:0.00" d="M171.65,93.23L198.06,93.23L198.06,87.59L171.65,87.59z"/><text xml:space="preserve" fill="#333f4b" stroke-width="0" x="172.36" y="91.64" font-size="3.49" opacity="1.00" font-family="Arial" font-weight="bold" font-style="italic">F24978981A</text><path style="fill:#ffffff" d="M171.65,113.30L198.06,113.30L198.06,107.66L171.65,107.66z"/><path style="stroke:#35414c;stroke-width:0.255" d="M171.65,113.30L198.06,113.30L198.06,107.66L171.65,107.66z"/><path style="stroke:#35404c;stroke-width:0.250;stroke-opacity:0.00" d="M171.65,113.30L198.06,113.30L198.06,107.66L171.65,107.66z"/><text xml:space="preserve" fill="#333f4b" stroke-width="0" x="172.36" y="111.72" font-size="3.56" opacity="1.00" font-family="Arial" font-weight="bold" font-style="italic">F31975413X</text><path style="fill:#ffffff" d="M171.65,73.15L198.06,73.15L198.06,67.51L171.65,67.51z"/><path style="stroke:#35414c;stroke-width:0.255" d="M171.65,73.15L198.06,73.15L198.06,67.51L171.65,67.51z"/><path style="stroke:#35404c;stroke-width:0.250;stroke-opacity:0.00" d="M171.65,73.15L198.06,73.15L198.06,67.51L171.65,67.51z"/><text xml:space="preserve" fill="#333f4b" stroke-width="0" x="172.36" y="71.57" font-size="3.49" opacity="1.00" font-family="Arial" font-weight="bold" font-style="italic">F24978977A</text><g id="paperID" visibility="hidden" opacity="0.00" transform="scale(0.000100)"><path style="stroke:#000000;stroke-width:0.500;fill:#e6e6e6;fill-rule:evenodd" d="M-2000.00,-2000.00L2210.00,-2000.00L2210.00,2150.00L-2000.00,2150.00zM0.00,0.00L210.00,0.00L210.00,150.00L0.00,150.00z"/><path style="fill:#000000;fill-opacity:0.118" d="M3.00,150.00L210.00,150.00L210.00,3.00L213.00,3.00L213.00,153.00L3.00,153.00z"/></g><g id="hotspot.0" onmouseover="ShowHotSpot(evt,'0')" onmouseout="HideHotSpot(evt,'0')" onmousemove="ShowToolTip(evt,'0',&quot;F24973476&quot;)" opacity="0"><path style="fill:#00ff00;fill-rule:evenodd" d="M198.32,28.06L198.31,33.21L198.02,33.72L171.60,33.65L171.60,27.90L198.06,27.79zM56.20,58.70L56.19,60.15L55.93,60.42L55.65,63.31L53.95,64.27L52.98,64.32L52.66,64.10L52.74,59.35L54.77,58.17L55.38,58.17zM113.49,91.76L113.52,96.35L111.54,97.55L110.56,97.60L110.24,97.38L109.98,92.28L111.82,91.20L112.71,91.21z"/></g><g id="hotspot.1" onmouseover="ShowHotSpot(evt,'1')" onmouseout="HideHotSpot(evt,'1')" onmousemove="ShowToolTip(evt,'1',&quot;F24973942&quot;)" opacity="0"><path style="fill:#00ff00;fill-rule:evenodd" d="M198.32,38.09L198.31,43.25L198.02,43.76L171.60,43.69L171.60,37.94L198.06,37.83zM30.20,71.92L30.81,70.70L31.88,70.60L31.89,71.78L31.27,72.51L30.56,72.47zM21.09,77.20L21.07,77.84L20.42,78.81L19.45,78.83L19.44,77.55L19.88,76.93L20.81,76.92zM102.98,111.81L102.96,112.44L102.31,113.42L101.34,113.43L101.33,112.16L101.77,111.53L102.69,111.52zM90.23,118.77L90.94,117.88L91.84,117.88L91.85,119.06L91.21,119.75L90.24,119.76z"/></g><g id="hotspot.2" onmouseover="ShowHotSpot(evt,'2')" onmouseout="HideHotSpot(evt,'2')" onmousemove="ShowToolTip(evt,'2',&quot;F24975506X&quot;)" opacity="0"><path style="fill:#00ff00;fill-rule:evenodd" d="M198.32,48.13L198.31,53.29L198.02,53.80L171.60,53.72L171.60,47.97L198.06,47.87zM46.32,76.70L64.54,63.22L68.76,60.82L69.66,60.84L69.70,61.18L67.00,65.42L65.58,67.43L46.84,78.31L46.40,78.30zM87.06,100.53L87.52,99.93L105.49,86.73L109.72,84.32L110.33,84.33L110.34,85.24L106.67,90.82L87.79,101.81L87.08,101.82z"/></g><g id="hotspot.3" onmouseover="ShowHotSpot(evt,'3')" onmouseout="HideHotSpot(evt,'3')" onmousemove="ShowToolTip(evt,'3',&quot;F24978976X&quot;)" opacity="0"><path style="fill:#00ff00;fill-rule:evenodd" d="M134.65,45.77L135.16,46.84L135.10,48.19L134.03,48.97L131.44,48.98L130.65,48.18L130.66,46.14L131.62,45.51L134.11,45.51zM198.32,58.17L198.31,63.33L198.02,63.83L171.60,63.76L171.60,58.01L198.06,57.91zM157.09,58.72L157.89,59.51L157.89,61.21L156.75,62.18L154.69,62.18L153.66,61.63L153.39,61.37L153.36,59.59L154.08,58.72L156.01,58.46z"/></g><g id="hotspot.4" onmouseover="ShowHotSpot(evt,'4')" onmouseout="HideHotSpot(evt,'4')" onmousemove="ShowToolTip(evt,'4',&quot;F24978977A&quot;)" opacity="0"><path style="fill:#00ff00;fill-rule:evenodd" d="M198.32,67.94L198.31,73.10L198.02,73.61L171.60,73.54L171.60,67.78L198.06,67.68zM48.50,96.25L49.32,97.55L49.33,98.99L48.71,99.43L47.44,99.43L45.81,98.42L45.59,97.85L42.44,95.98L42.36,94.14L43.14,93.58L44.03,93.58zM57.52,101.50L57.51,103.21L56.96,103.73L56.17,103.93L53.81,102.56L52.46,102.34L50.81,101.34L50.81,99.67L52.77,98.62z"/></g><g id="hotspot.5" onmouseover="ShowHotSpot(evt,'5')" onmouseout="HideHotSpot(evt,'5')" onmousemove="ShowToolTip(evt,'5',&quot;F24978978X&quot;)" opacity="0"><path style="fill:#00ff00;fill-rule:evenodd" d="M43.23,75.90L43.26,78.39L40.48,80.12L39.53,80.15L33.46,76.69L33.46,73.87L36.28,72.17L36.89,72.18zM198.32,77.98L198.31,83.14L198.02,83.65L171.60,83.57L171.60,77.82L198.06,77.72zM32.13,82.25L32.14,84.97L29.42,86.49L28.43,86.49L22.29,82.85L22.37,80.21L25.45,78.52L25.80,78.51zM96.85,106.81L98.72,108.11L98.62,110.77L95.98,112.39L95.30,112.35L89.12,108.73L89.12,106.02L91.74,104.41L92.64,104.41zM87.90,114.44L87.90,116.96L84.88,118.72L84.20,118.69L78.01,115.08L78.02,112.35L80.92,110.74L81.53,110.74z"/></g><g id="hotspot.6" onmouseover="ShowHotSpot(evt,'6')" onmouseout="HideHotSpot(evt,'6')" onmousemove="ShowToolTip(evt,'6',&quot;F24978981A&quot;)" opacity="0"><path style="fill:#00ff00;fill-rule:evenodd" d="M159.22,50.78L159.23,51.71L61.60,108.13L61.23,108.13L58.20,106.36L58.29,105.31L72.20,97.27L73.07,97.58L74.06,97.58L75.43,96.79L75.15,96.58L75.20,95.53L154.60,49.74L157.64,49.76zM198.32,88.02L198.31,93.18L198.02,93.68L171.60,93.61L171.60,87.86L198.06,87.75z"/></g><g id="hotspot.7" onmouseover="ShowHotSpot(evt,'7')" onmouseout="HideHotSpot(evt,'7')" onmousemove="ShowToolTip(evt,'7',&quot;F24978982A&quot;)" opacity="0"><path style="fill:#00ff00;fill-rule:evenodd" d="M132.29,35.18L133.29,36.30L133.84,36.54L134.91,37.31L134.91,38.76L134.53,39.17L55.84,84.63L54.58,84.63L53.54,84.07L52.65,84.07L51.31,84.85L53.03,85.97L53.03,86.25L38.93,94.40L37.40,94.41L34.78,92.80L34.78,89.72L130.58,34.40L130.93,34.40zM198.32,98.06L198.31,103.21L198.02,103.72L171.60,103.65L171.60,97.90L198.06,97.79z"/></g><g id="hotspot.8" onmouseover="ShowHotSpot(evt,'8')" onmouseout="HideHotSpot(evt,'8')" onmousemove="ShowToolTip(evt,'8',&quot;F31975413X&quot;)" opacity="0"><path style="fill:#00ff00;fill-rule:evenodd" d="M60.43,62.42L60.04,63.49L59.09,63.49L58.80,63.21L58.78,62.51L59.25,61.86L59.87,61.87zM109.58,90.68L109.57,91.31L109.18,91.76L108.21,91.75L107.86,91.20L108.62,90.16zM198.32,108.09L198.31,113.25L198.02,113.76L171.60,113.69L171.60,107.94L198.06,107.83z"/></g><g id="hotspot.9" onmouseover="ShowHotSpot(evt,'9')" onmouseout="HideHotSpot(evt,'9')" onmousemove="ShowToolTip(evt,'9',&quot;VM1570&quot;)" opacity="0"><path style="fill:#00ff00;fill-rule:evenodd" d="M24.71,63.47L24.73,65.09L25.54,67.18L26.31,67.73L26.58,68.25L28.20,69.53L28.11,69.84L27.41,69.83L26.61,69.28L24.98,69.05L24.19,68.53L23.66,67.71L23.32,63.47L23.96,62.95zM13.66,69.77L13.63,71.16L14.43,73.26L15.72,74.62L17.09,75.89L17.01,76.17L16.56,76.20L15.51,75.62L13.92,75.36L12.77,74.67L12.20,69.80L12.48,69.52L13.43,69.54zM110.10,112.85L110.06,114.82L109.73,117.12L108.23,117.09L106.14,115.22L105.48,114.79L105.56,114.28L105.85,114.19L106.61,114.75L108.50,115.06L109.03,114.03L108.99,112.69L109.82,112.57zM198.32,118.13L198.31,123.29L198.02,123.80L171.60,123.72L171.60,117.97L198.06,117.87zM99.28,119.20L98.73,123.29L98.09,123.75L97.67,123.71L95.82,122.37L95.29,121.58L94.37,121.14L94.45,120.62L94.76,120.53L95.55,121.06L97.54,121.34L97.93,120.63L97.81,119.24L98.35,118.92L98.99,118.91z"/></g></g></svg>
