<?xml version="1.0" encoding="UTF-8" standalone="no"?>
<svg xmlns="http://www.w3.org/2000/svg" xmlns:xlink="http://www.w3.org/1999/xlink" width="210.000mm" height="150.000mm" viewBox="0.000000 0.000000 210.000000 150.000000" stroke-linejoin="round" stroke-linecap="round" fill="none" fill-rule="evenodd"><desc>Composer Export</desc><script type="text/ecmascript"><![CDATA[
if(typeof(top) != "undefined")
{
	top.ShowPaper = ShowPaper;
}
function ShowHotSpot(evt,hotspotid)
{
	var svgDocument = evt.target.ownerDocument;
	var strId = "hotspot."+hotspotid;
	var hotspot = svgDocument.getElementById(strId);
	if(hotspot)
		hotspot.setAttribute("opacity",".5");
}
function HideHotSpot(evt,hotspotid)
{
	var svgDocument = evt.target.ownerDocument;
	var strId = "hotspot."+hotspotid;
	var hotspot = svgDocument.getElementById(strId);
	if(hotspot)
		hotspot.setAttribute("opacity","0");

	var toolTip = svgDocument.getElementById('ToolTip');
	if(toolTip)
		toolTip.setAttribute("visibility","hidden");
}
function ShowToolTip(evt,hotspotid,strTooltip)
{
	if(strTooltip=="")
	return;

	// change text
	var svgDocument = evt.target.ownerDocument;
	var tiptext = svgDocument.getElementById('ToolTipText');
	if( !tiptext )
	return;
	tiptext.firstChild.nodeValue = " " + strTooltip + "  " ;

	// show tooltip before, else some refresh issue

	var toolTip = svgDocument.getElementById('ToolTip');
	if(!toolTip)
	return;

	toolTip.setAttribute("visibility","visible");
	toolTip.setAttribute("opacity",".95");

	// move tooltip
	// get viewbox

	var root = svgDocument.documentElement;
	var vbox = (root.getAttribute("viewBox")).split(' ');
	var x0 = parseFloat(vbox[0]);
	var y0 = parseFloat(vbox[1]);
	var vboxW = parseFloat(vbox[2]);
	var vboxH = parseFloat(vbox[3]);

	// get default width of svg

	var strW = root.getAttribute("width");
	var svgW = parseFloat(strW);
	if(strW.indexOf('mm') != -1)
	svgW *= 3.779;

	var strH = root.getAttribute("height");
	var svgH = parseFloat(strH);
	if(strH.indexOf('mm') != -1)
	svgH *= 3.779;  	// 96 dpi  -> 96/25.4 = 3.779

	// update the viewbox / width / height if svg is embedded in html with zoom fit all
	var realx0 = x0;
	var realy0 = y0;
	var realvboxW = vboxW;
	var realvboxH = vboxH;
	var realsvgW = svgW;
	var realsvgH = svgH;

	if ((typeof(top) == "undefined") || (typeof(top.svgctl1) != "undefined")) // embedded in html
	{
		// get window size in pxl

		svgW = window.innerWidth;
		svgH = window.innerHeight;

		// calculate real viewbox

		realsvgW = svgW;
		realsvgH = svgH;
		if((svgW / svgH) > (vboxW / vboxH))
		{
			realvboxW = (vboxH * svgW) / svgH;
			realvboxH = vboxH;
			realx0 = x0 - (realvboxW - vboxW)/2 ;
		}
		else
		{
			realvboxH = (vboxW * svgH) / svgW;
			realvboxW = vboxW;
			realy0 = y0 - (realvboxH - vboxH)/2 ;
		}
	}

	// get user zoom/pan

	var newScale = root.currentScale;
	var translation = root.currentTranslate;

	// transform pxl to user unit

	var xPos = (((evt.clientX+10- translation.x)/newScale) * realvboxW)/realsvgW  + realx0 ;
	var yPos = (((evt.clientY+5- translation.y)/newScale) * realvboxH)/ realsvgH  + realy0 ;
	var scaleForWidth = ( (1 / newScale) * realvboxH) / realsvgH;

	// move tooltip

	toolTip.setAttribute("transform", "translate(" + xPos + "," + yPos + ")" );

	// resize tooltip

	var fontsize = 12;
	tiptext.setAttribute("font-size",fontsize*scaleForWidth);
	tiptext.setAttribute("y", fontsize*scaleForWidth);
	var tipBG = svgDocument.getElementById('ToolTipBG');
	var outline = tiptext.getBBox();
	if(tipBG)
	{
		tipBG.setAttribute("stroke-width", 1*scaleForWidth);
		tipBG.setAttribute("width", Number(outline.width) );
		tipBG.setAttribute("height", Number(outline.height) + fontsize*.5*scaleForWidth );
	}
	var ToolTipShadow = svgDocument.getElementById('ToolTipShadow');
	if(ToolTipShadow)
	{
		ToolTipShadow.setAttribute("width", Number(outline.width) );
		ToolTipShadow.setAttribute("height", Number(outline.height) + fontsize*.5*scaleForWidth );
		ToolTipShadow.setAttribute("x", 3*scaleForWidth);
		ToolTipShadow.setAttribute("y", 3*scaleForWidth);
	}
}
function ShowPaper()
{
  var svgDocument = getDocument();
  var paper = svgDocument.getElementById("paperID");
  if(paper)
  {
    paper.setAttribute("transform","scale(1)");
    paper.setAttribute("opacity","1");
    paper.setAttribute("visibility","visible");
  }
  var svg = svgDocument.getRootElement();
  if(svg)
  {
    svg.setAttribute("width","220.000mm");
    svg.setAttribute("height","160.000mm");
    svg.setAttribute("viewBox","-5.000000 -5.000000 220.000000 160.000000");
  }
}
]]></script><defs/><g><path style="fill:#ffffff" d="M209.96,149.94L0.04,149.94L0.04,0.04L209.96,0.04z"/><path style="fill:#e2f8e0" d="M115.24,35.27L115.19,35.85L114.52,35.66L113.63,36.18L113.57,47.38L84.91,30.80L84.99,29.74L84.61,28.35L83.62,26.94L82.59,26.32L82.21,26.20L81.41,26.19L80.94,26.36L80.49,26.76L80.25,26.79L80.32,15.75L80.65,15.57L81.08,15.57z"/><path style="fill:#e2f8e0" d="M81.32,32.78L82.30,32.77L82.89,32.56L111.92,49.31L113.56,50.17L113.57,115.86L84.90,99.29L84.99,98.22L84.61,96.83L83.74,95.55L82.72,94.80L82.21,94.68L81.28,94.67L80.95,94.85L80.49,95.25L80.25,95.27L80.25,32.22z"/><path style="fill:#a9bca5" d="M82.59,26.32L83.62,26.94L84.61,28.35L84.99,29.74L84.91,30.80L83.61,30.11L83.49,29.95L83.48,29.47L82.73,28.21L82.34,27.71L81.46,27.08L80.49,26.76L80.94,26.36L81.41,26.19L82.21,26.20z"/><path style="fill:#a9bca5" d="M82.72,94.80L83.74,95.55L84.61,96.83L84.99,98.22L84.90,99.29L83.65,98.52L82.97,96.95L82.21,96.07L80.98,95.25L81.47,95.18L81.34,95.04L81.03,95.06L80.98,95.25L80.49,95.25L80.95,94.85L81.28,94.67L82.21,94.68z"/><path style="fill:#a3a3a3" d="M81.46,27.08L82.34,27.71L82.73,28.21L83.48,29.47L83.49,29.95L83.22,29.86L82.68,30.00L81.95,29.87L79.80,28.58L79.65,28.58L79.64,30.66L82.89,32.56L82.30,32.77L81.32,32.78L80.25,32.22L79.32,31.11L79.08,30.60L78.68,30.37L78.67,27.75L78.93,27.26L79.26,26.94L80.03,26.97L80.25,26.79L80.49,26.76z"/><path style="fill:#a3a3a3" d="M82.21,96.07L82.97,96.95L83.65,98.52L83.22,98.33L81.97,98.34L79.80,97.06L79.64,97.07L79.64,99.14L82.78,100.96L82.30,101.26L81.45,101.25L80.94,101.13L80.25,100.71L79.32,99.60L79.07,99.08L78.68,98.72L78.66,96.10L79.26,95.42L80.03,95.46L80.25,95.27L80.49,95.25L80.98,95.25z"/><path style="fill:#a6b1a5" d="M81.34,26.74L81.02,26.74L81.02,26.58L81.34,26.58z"/><path style="fill:#a6b1a5" d="M83.87,28.71L83.87,29.02L83.71,28.87L83.73,28.58z"/><path style="fill:#a6b1a5" d="M81.47,95.18L80.98,95.25L81.03,95.06L81.34,95.04z"/><path style="fill:#2ac7ce" d="M81.95,29.87L82.68,30.00L83.22,29.86L83.49,29.95L83.61,30.11L84.91,30.80L113.57,47.38L113.56,50.17L111.92,49.31L82.89,32.56L79.64,30.66L79.65,28.58L79.80,28.58z"/><path style="fill:#2ac7ce" d="M81.97,98.34L83.22,98.33L83.65,98.52L84.90,99.29L113.57,115.86L113.56,118.65L111.29,117.41L82.78,100.96L79.64,99.14L79.64,97.07L79.80,97.06z"/><path style="fill:#95dce0" d="M117.72,34.41L117.98,34.78L117.98,136.17L117.29,137.00L115.54,138.03L114.93,138.02L113.64,137.30L113.56,135.96L113.56,118.65L113.57,115.86L113.56,50.17L113.57,47.38L113.63,36.18L114.52,35.66L115.19,35.85L115.24,35.27L115.95,35.30L116.59,35.54L117.22,35.59L117.34,34.15z"/><path style="fill:#e2f8e0" d="M80.94,101.13L81.45,101.25L82.30,101.26L82.78,100.96L111.29,117.41L113.56,118.65L113.56,135.96L80.32,116.79L80.25,100.71z"/><path style="stroke:#000000;stroke-width:0.088;stroke-opacity:0.20" d="M113.56,136.01L80.27,116.79L80.87,116.45L80.87,101.06"/><path style="stroke:#000000;stroke-width:0.088;stroke-opacity:0.20" d="M80.27,116.79L80.27,100.68"/><path style="stroke:#000000;stroke-width:0.088;stroke-opacity:0.20" d="M80.27,95.32L80.27,32.21"/><path style="stroke:#000000;stroke-width:0.088;stroke-opacity:0.20" d="M80.87,26.86L80.87,15.46L80.27,15.80L80.27,26.85"/><path style="stroke:#000000;stroke-width:0.088;stroke-opacity:0.20" d="M80.87,15.46L116.32,35.93L115.73,36.27L80.27,15.80"/><path style="stroke:#000000;stroke-width:0.088;stroke-opacity:0.20" d="M80.87,116.45L113.56,135.32"/><path style="stroke:#000000;stroke-width:0.088;stroke-opacity:0.20" d="M80.87,32.59L80.87,95.33"/><path style="stroke:#000000;stroke-width:0.088;stroke-opacity:0.20" d="M116.32,36.50L116.32,35.93"/><path style="stroke:#000000;stroke-width:0.088" d="M82.76,32.58L82.23,32.81L82.09,32.86L81.90,32.86L81.26,32.79L80.58,32.45L80.47,32.39L79.84,31.83L79.30,31.11L79.20,30.90L79.24,31.00L79.25,31.02"/><path style="stroke:#000000;stroke-width:0.088" d="M79.16,30.71L79.15,30.61L79.16,30.73L79.19,30.88L79.20,30.90L79.19,30.89L79.16,30.58L79.40,31.03L79.87,31.65L80.41,32.13L80.96,32.41L81.48,32.46L81.90,32.28L81.96,32.22L81.99,32.24L82.23,32.34L82.33,32.36L82.46,32.38L82.61,32.38"/><path style="stroke:#000000;stroke-width:0.088" d="M79.56,30.83L79.56,30.82L79.56,30.81L79.57,30.80L79.57,30.80L79.58,30.79L79.57,30.78L79.57,30.78L79.56,30.77L79.56,30.76L79.56,30.75L79.55,30.75L79.54,30.75L79.53,30.75L79.52,30.75L79.51,30.75L79.51,30.77L79.52,30.79L79.53,30.81L79.54,30.82L79.56,30.83L81.96,32.22L81.96,32.21L81.97,32.20L81.97,32.19L81.98,32.19L81.99,32.18L79.58,30.79L79.72,30.71"/><path style="stroke:#000000;stroke-width:0.088" d="M79.26,31.02L79.24,31.00L79.20,30.91"/><path style="stroke:#000000;stroke-width:0.088" d="M79.19,30.89L79.19,30.88"/><path style="stroke:#000000;stroke-width:0.088" d="M79.15,29.45L79.15,29.40L79.15,30.57L79.15,30.57L79.16,30.58L79.16,28.26L79.40,28.09L79.87,28.00L80.41,28.15L80.96,28.52L81.48,29.06L81.90,29.72L81.96,29.85L82.20,29.95L82.44,29.99L82.67,29.99L82.88,29.95L83.03,29.89L83.08,29.86L83.15,29.84L83.22,29.84L83.30,29.88L83.36,29.95"/><path style="stroke:#000000;stroke-width:0.088" d="M79.15,30.57L79.15,30.61L79.15,30.57"/><path style="stroke:#000000;stroke-width:0.088" d="M79.51,30.75L79.51,28.49L79.52,28.50L79.53,28.50L79.54,28.50L79.55,28.50L79.56,28.49L79.57,28.49"/><path style="stroke:#000000;stroke-width:0.088" d="M79.67,30.68L79.56,30.75L79.56,28.49L79.56,28.49L79.56,28.48L79.59,28.49"/><path style="stroke:#000000;stroke-width:0.088" d="M79.15,30.62L79.15,30.61"/><path style="stroke:#000000;stroke-width:0.088" d="M79.15,28.24L79.15,29.77"/><path style="stroke:#000000;stroke-width:0.088" d="M79.32,27.53L79.28,27.61L79.24,27.70L79.21,27.80L79.19,27.89L79.16,28.07L79.15,28.25L79.15,28.64L79.15,28.37"/><path style="stroke:#000000;stroke-width:0.088" d="M79.15,28.25L79.15,28.25L79.16,28.26L79.16,28.26L79.16,28.12L79.22,27.77L79.32,27.52L79.32,27.51L79.42,27.40L79.44,27.38"/><path style="stroke:#000000;stroke-width:0.088" d="M79.51,28.49L79.51,28.48L79.52,28.47L79.53,28.46L79.54,28.46L79.56,28.47L81.96,29.85L81.96,29.86L81.97,29.87L79.56,28.48L79.56,28.47L79.56,28.47"/><path style="stroke:#000000;stroke-width:0.088" d="M79.56,28.48L79.56,28.48L79.56,28.48"/><path style="stroke:#000000;stroke-width:0.088" d="M79.57,28.48L79.56,28.48"/><path style="stroke:#000000;stroke-width:0.088" d="M79.17,28.09L79.17,28.08L79.16,28.26"/><path style="stroke:#000000;stroke-width:0.088" d="M79.32,27.51L79.32,27.52L79.32,27.52L79.44,27.37L79.59,27.24"/><path style="stroke:#000000;stroke-width:0.088" d="M79.59,27.24L79.62,27.21L79.78,27.11L80.16,27.08L80.85,27.27L81.57,27.74L82.23,28.44L82.77,29.29L83.03,29.89L83.03,29.90L83.03,29.91L83.03,29.91L83.03,29.92L83.02,29.92"/><path style="stroke:#000000;stroke-width:0.088" d="M79.42,27.40L79.44,27.37"/><path style="stroke:#000000;stroke-width:0.088" d="M79.24,27.71L79.21,27.81"/><path style="stroke:#000000;stroke-width:0.088" d="M79.64,27.20L79.64,27.20L79.62,27.21"/><path style="stroke:#000000;stroke-width:0.088" d="M79.45,27.37L79.52,27.29L79.60,27.23"/><path style="stroke:#000000;stroke-width:0.088" d="M83.62,30.10L83.49,29.58L83.04,28.65L82.42,27.84L81.71,27.22L80.98,26.87L80.31,26.83L80.20,26.89L80.21,26.88L79.89,27.06L79.78,27.11L79.65,27.19L79.64,27.20"/><path style="stroke:#000000;stroke-width:0.088" d="M79.32,27.52L79.28,27.61L79.30,27.58"/><path style="stroke:#000000;stroke-width:0.088" d="M79.78,27.11L79.78,27.11"/><path style="stroke:#000000;stroke-width:0.088" d="M80.21,26.88L80.31,26.83L80.32,26.82L80.99,26.87L81.73,27.22L82.44,27.83L83.05,28.65L83.50,29.57L83.64,30.11"/><path style="stroke:#000000;stroke-width:0.088" d="M80.32,26.82L80.31,26.83L80.30,26.83"/><path style="stroke:#000000;stroke-width:0.088" d="M80.16,26.91L80.21,26.89L79.93,27.04"/><path style="stroke:#000000;stroke-width:0.088" d="M80.20,26.89L80.14,26.92"/><path style="stroke:#000000;stroke-width:0.088" d="M79.81,27.10L79.90,27.05"/><path style="stroke:#000000;stroke-width:0.088" d="M81.99,32.18L82.22,32.28L82.45,32.32L82.51,32.33"/><path style="stroke:#000000;stroke-width:0.088" d="M81.97,29.87L82.05,29.91L82.15,29.95"/><path style="stroke:#000000;stroke-width:0.088" d="M82.83,32.51L82.77,32.58L82.76,32.58"/><path style="stroke:#000000;stroke-width:0.088" d="M82.86,32.53L82.78,32.57"/><path style="stroke:#000000;stroke-width:0.088" d="M82.77,32.58L82.83,32.51"/><path style="stroke:#000000;stroke-width:0.088" d="M82.46,32.38L82.45,32.38"/><path style="stroke:#000000;stroke-width:0.088" d="M82.13,29.95L82.15,29.95L82.23,29.98L82.33,30.00L82.42,30.01L82.52,30.02L82.68,30.02"/><path style="stroke:#000000;stroke-width:0.088" d="M82.51,30.02L82.57,30.02"/><path style="stroke:#000000;stroke-width:0.088" d="M82.61,30.02L82.68,30.02L82.82,30.00L82.90,29.97L82.96,29.95L83.02,29.92L83.06,29.90"/><path style="stroke:#000000;stroke-width:0.088" d="M83.08,29.86L83.08,29.87L83.08,29.88L83.08,29.89L83.08,29.89"/><path style="stroke:#000000;stroke-width:0.088" d="M83.08,29.89L83.03,29.92L83.05,29.90"/><path style="stroke:#000000;stroke-width:0.088" d="M83.07,29.89L83.12,29.87"/><path style="stroke:#000000;stroke-width:0.088" d="M83.30,29.92L83.27,29.87L83.28,29.89"/><path style="stroke:#000000;stroke-width:0.088" d="M83.30,29.92L83.27,29.88"/><path style="stroke:#000000;stroke-width:0.088" d="M83.16,29.87L83.11,29.87"/><path style="stroke:#000000;stroke-width:0.088" d="M83.17,29.87L83.15,29.87"/><path style="stroke:#000000;stroke-width:0.088" d="M79.15,30.50L79.15,30.49L79.11,30.25L78.57,29.93L78.56,29.93L78.56,29.92L78.59,30.16L78.60,30.17L78.70,30.35L78.70,30.35L78.60,30.17L78.57,29.93L78.57,28.22L78.60,27.94L78.70,27.65L78.86,27.37L79.06,27.13L79.06,27.13L79.05,27.12L79.05,27.13L79.18,27.02L79.19,27.02L79.32,26.96L79.45,26.96L79.46,26.96L79.34,26.96L79.20,27.02L79.06,27.13L79.46,27.36"/><path style="stroke:#000000;stroke-width:0.088" d="M78.70,30.35L78.86,30.45L79.15,30.62"/><path style="stroke:#000000;stroke-width:0.088" d="M78.56,29.92L78.56,28.21L78.56,28.22L78.57,28.22L79.11,28.54L79.15,28.26L79.15,28.24"/><path style="stroke:#000000;stroke-width:0.088" d="M78.56,28.21L78.56,28.21L78.59,27.93L78.69,27.64L78.85,27.36L79.05,27.13"/><path style="stroke:#000000;stroke-width:0.088" d="M79.15,28.54L79.14,28.54L79.13,28.54L79.12,28.54L79.11,28.54L79.11,30.25L79.12,30.25L79.13,30.25L79.14,30.25L79.15,30.25"/><path style="stroke:#000000;stroke-width:0.088" d="M79.46,26.96L79.56,27.01L79.76,27.12"/><path style="stroke:#000000;stroke-width:0.088" d="M84.42,30.57L84.29,29.62L83.91,28.63L83.32,27.72L82.59,26.99L81.82,26.54L81.10,26.43L80.50,26.65L80.49,26.66L80.37,26.83"/><path style="stroke:#000000;stroke-width:0.088" d="M80.43,26.83L80.49,26.74L81.07,26.52L81.78,26.63L82.53,27.07L83.24,27.78L83.82,28.67L84.19,29.64L84.31,30.50"/><path style="stroke:#000000;stroke-width:0.088" d="M80.50,26.65L80.64,26.57"/><path style="stroke:#000000;stroke-width:0.088" d="M84.71,30.73L84.77,30.41L84.66,29.51L84.32,28.57L83.79,27.68L83.12,26.95L82.39,26.44L81.68,26.23L81.19,26.27L81.12,26.31L81.04,26.35L80.81,26.47L80.68,26.54L80.81,26.47"/><path style="stroke:#000000;stroke-width:0.088" d="M80.68,26.54L80.55,26.63"/><path style="stroke:#000000;stroke-width:0.088" d="M84.14,30.40L84.03,29.62L83.68,28.72L83.15,27.90L82.50,27.25L81.80,26.85L81.15,26.74L80.98,26.77L80.99,26.77L81.02,26.78L81.04,26.78L81.05,26.78"/><path style="stroke:#000000;stroke-width:0.088" d="M81.06,26.78L81.06,26.78L81.05,26.79L81.05,26.79L81.05,26.80L81.06,26.81L81.13,26.77"/><path style="stroke:#000000;stroke-width:0.088" d="M81.04,26.89L80.98,26.77L80.99,26.78L81.02,26.81L81.04,26.81L81.05,26.82L81.05,26.82L81.06,26.81L81.10,26.92"/><path style="stroke:#000000;stroke-width:0.088" d="M81.17,26.76L81.05,26.78L81.17,26.76L81.82,26.86"/><path style="stroke:#000000;stroke-width:0.088" d="M81.05,26.78L81.18,26.76"/><path style="stroke:#000000;stroke-width:0.088" d="M81.19,26.27L81.25,26.24L81.29,26.23L81.29,26.23L81.85,26.17L82.06,26.17L82.74,26.37L82.90,26.46L83.54,26.91L84.13,27.56L84.60,28.35L84.90,29.19L85.00,29.98L85.00,30.15L84.88,30.83"/><path style="stroke:#000000;stroke-width:0.088" d="M81.18,26.28L81.07,26.34"/><path style="stroke:#000000;stroke-width:0.088" d="M82.12,27.56L82.23,27.50L81.99,26.97"/><path style="stroke:#000000;stroke-width:0.088" d="M81.81,26.86L82.50,27.26L83.15,27.91L83.68,28.72L84.02,29.61L84.11,30.26L83.80,30.11L83.80,30.10L83.81,30.09L83.81,30.08L83.82,30.07L83.83,30.07L84.10,30.20"/><path style="stroke:#000000;stroke-width:0.088" d="M83.12,28.79L83.17,28.76L83.22,28.66L83.24,28.53L83.21,28.37L83.14,28.21L83.04,28.06L82.92,27.94L82.79,27.87L82.67,27.86L82.52,27.95"/><path style="stroke:#000000;stroke-width:0.088" d="M82.69,27.81L82.60,27.81L82.51,27.76L82.42,27.69L82.34,27.59L82.28,27.48L82.25,27.49L82.23,27.50L82.30,27.62L82.39,27.73L82.48,27.81L82.58,27.85L82.67,27.86L82.68,27.85L82.69,27.85L82.69,27.84L82.69,27.82L82.69,27.81L82.81,27.83L82.83,27.84L82.95,27.90L83.08,28.03L83.18,28.18L83.26,28.36L83.29,28.53L83.27,28.67L83.21,28.78L83.13,28.82"/><path style="stroke:#000000;stroke-width:0.088" d="M82.07,27.01L82.28,27.48"/><path style="stroke:#000000;stroke-width:0.088" d="M83.92,29.35L83.19,28.93"/><path style="stroke:#000000;stroke-width:0.088" d="M83.89,29.28L83.15,28.85"/><path style="stroke:#000000;stroke-width:0.088" d="M84.11,30.26L84.13,30.40"/><path style="stroke:#000000;stroke-width:0.088" d="M84.13,30.40L84.13,30.37"/><path style="stroke:#000000;stroke-width:0.088" d="M84.07,29.93L83.82,30.07L83.83,30.07L84.07,29.93"/><path style="stroke:#000000;stroke-width:0.088" d="M83.80,30.11L83.61,30.00"/><path style="stroke:#000000;stroke-width:0.088" d="M83.80,30.11L83.80,30.10L83.80,30.09L83.81,30.08L83.82,30.07L83.82,30.07L83.59,29.93"/><path style="stroke:#000000;stroke-width:0.088" d="M79.19,99.35L79.19,99.36L79.16,99.05L79.40,99.50L79.87,100.12L80.41,100.60L80.96,100.87L81.48,100.93L81.90,100.75L81.96,100.69L81.99,100.70L82.23,100.81L82.33,100.83L82.46,100.85L82.61,100.85"/><path style="stroke:#000000;stroke-width:0.088" d="M82.83,100.98L82.77,101.05L82.23,101.28L82.09,101.33L81.90,101.32L81.26,101.26L80.58,100.92L80.47,100.85L79.84,100.30L79.30,99.58L79.19,99.36"/><path style="stroke:#000000;stroke-width:0.088" d="M79.15,98.24L79.15,97.99L79.15,99.04L79.15,99.04L79.16,99.05L79.16,96.73L79.40,96.56L79.87,96.47L80.41,96.62L80.96,96.98L81.48,97.53L81.90,98.19L81.96,98.32L82.20,98.42L82.44,98.46L82.67,98.46L82.88,98.42L83.03,98.36L83.08,98.33L83.15,98.30L83.22,98.31L83.30,98.35L83.36,98.42"/><path style="stroke:#000000;stroke-width:0.088" d="M79.15,99.04L79.16,99.18"/><path style="stroke:#000000;stroke-width:0.088" d="M79.57,96.95L79.56,96.96L79.55,96.97L79.54,96.97L79.53,96.97L79.52,96.97L79.51,96.96L79.51,99.22L79.51,99.23L79.52,99.25L79.53,99.27L79.54,99.29L79.56,99.30L81.96,100.69L81.96,100.68L81.97,100.67L81.97,100.66L81.98,100.65L81.99,100.65L82.22,100.75L82.45,100.79L82.51,100.79"/><path style="stroke:#000000;stroke-width:0.088" d="M79.51,99.22L79.52,99.22L79.53,99.22L79.54,99.22L79.55,99.22L79.56,99.22L79.56,99.22L79.56,99.23L79.57,99.24L79.57,99.25L79.58,99.26L79.72,99.18"/><path style="stroke:#000000;stroke-width:0.088" d="M81.99,100.65L79.58,99.26L79.57,99.26L79.57,99.27L79.56,99.28L79.56,99.29L79.56,99.30"/><path style="stroke:#000000;stroke-width:0.088" d="M79.56,96.95L79.56,96.95L79.56,96.95L79.56,96.95L79.56,96.96L79.56,99.22L79.67,99.15"/><path style="stroke:#000000;stroke-width:0.088" d="M79.15,99.04L79.15,99.09"/><path style="stroke:#000000;stroke-width:0.088" d="M79.15,99.07L79.16,99.20L79.19,99.35L79.24,99.47L79.25,99.49"/><path style="stroke:#000000;stroke-width:0.088" d="M79.26,99.49L79.24,99.47L79.20,99.38"/><path style="stroke:#000000;stroke-width:0.088" d="M79.15,97.92L79.15,97.24L79.15,97.99"/><path style="stroke:#000000;stroke-width:0.088" d="M79.15,96.71L79.15,96.72L79.16,96.73L79.16,96.73L79.16,96.59L79.22,96.24L79.32,95.99L79.32,95.98L79.32,95.98L79.32,95.99L79.44,95.84L79.62,95.68L79.78,95.58L80.16,95.55L80.85,95.74L81.57,96.21L82.23,96.91L82.77,97.76L83.03,98.36L83.03,98.36L83.03,98.37L83.03,98.38L83.03,98.38L83.08,98.36L83.08,98.35L83.08,98.35L83.08,98.34L83.08,98.33"/><path style="stroke:#000000;stroke-width:0.088" d="M79.15,96.72L79.15,97.24L79.15,96.84"/><path style="stroke:#000000;stroke-width:0.088" d="M79.16,96.73L79.17,96.55L79.17,96.55"/><path style="stroke:#000000;stroke-width:0.088" d="M79.51,96.96L79.51,96.95L79.52,96.93L79.53,96.93L79.54,96.93L79.56,96.93L81.96,98.32L81.96,98.33L81.97,98.34L82.05,98.38L82.15,98.42"/><path style="stroke:#000000;stroke-width:0.088" d="M79.56,96.95L79.57,96.95"/><path style="stroke:#000000;stroke-width:0.088" d="M79.56,96.93L79.56,96.94L79.56,96.95L79.56,96.95"/><path style="stroke:#000000;stroke-width:0.088" d="M79.32,95.99L79.28,96.08L79.24,96.17L79.21,96.27L79.19,96.36L79.16,96.54L79.15,96.71L79.15,97.24"/><path style="stroke:#000000;stroke-width:0.088" d="M79.56,96.95L81.97,98.34"/><path style="stroke:#000000;stroke-width:0.088" d="M79.32,95.98L79.28,96.08L79.29,96.04"/><path style="stroke:#000000;stroke-width:0.088" d="M79.42,95.87L79.44,95.84"/><path style="stroke:#000000;stroke-width:0.088" d="M79.24,96.18L79.21,96.27"/><path style="stroke:#000000;stroke-width:0.088" d="M79.45,95.84L79.52,95.76L79.60,95.70"/><path style="stroke:#000000;stroke-width:0.088" d="M79.32,95.98L79.42,95.87L79.44,95.85"/><path style="stroke:#000000;stroke-width:0.088" d="M79.59,95.71L79.59,95.71"/><path style="stroke:#000000;stroke-width:0.088" d="M79.62,95.68L79.64,95.66L79.64,95.67"/><path style="stroke:#000000;stroke-width:0.088" d="M83.62,98.57L83.49,98.05L83.04,97.12L82.42,96.30L81.71,95.69L80.98,95.34L80.31,95.30L80.20,95.36L80.21,95.35L79.89,95.53L79.78,95.58"/><path style="stroke:#000000;stroke-width:0.088" d="M79.78,95.58L79.65,95.66L79.64,95.67"/><path style="stroke:#000000;stroke-width:0.088" d="M79.64,95.66L79.64,95.67"/><path style="stroke:#000000;stroke-width:0.088" d="M80.21,95.35L80.31,95.30L80.32,95.29L80.99,95.34L81.73,95.69L82.44,96.30L83.05,97.11L83.50,98.04L83.64,98.58"/><path style="stroke:#000000;stroke-width:0.088" d="M80.32,95.29L80.31,95.30L80.30,95.30"/><path style="stroke:#000000;stroke-width:0.088" d="M80.16,95.38L80.21,95.35L79.93,95.50"/><path style="stroke:#000000;stroke-width:0.088" d="M80.20,95.36L80.14,95.39"/><path style="stroke:#000000;stroke-width:0.088" d="M79.81,95.56L79.90,95.52"/><path style="stroke:#000000;stroke-width:0.088" d="M82.77,101.05L82.84,100.98"/><path style="stroke:#000000;stroke-width:0.088" d="M82.78,101.04L82.86,101.00"/><path style="stroke:#000000;stroke-width:0.088" d="M82.76,101.05L82.76,101.05"/><path style="stroke:#000000;stroke-width:0.088" d="M82.46,100.85L82.45,100.85"/><path style="stroke:#000000;stroke-width:0.088" d="M82.13,98.41L82.15,98.42L82.23,98.45L82.33,98.47L82.42,98.48L82.52,98.49L82.68,98.49"/><path style="stroke:#000000;stroke-width:0.088" d="M82.51,98.49L82.57,98.49"/><path style="stroke:#000000;stroke-width:0.088" d="M82.61,98.49L82.68,98.49L82.82,98.46L82.90,98.44L82.96,98.42L83.02,98.39L83.05,98.37"/><path style="stroke:#000000;stroke-width:0.088" d="M83.02,98.39L83.06,98.36"/><path style="stroke:#000000;stroke-width:0.088" d="M83.08,98.36L83.08,98.36"/><path style="stroke:#000000;stroke-width:0.088" d="M83.07,98.36L83.12,98.34"/><path style="stroke:#000000;stroke-width:0.088" d="M83.30,98.39L83.27,98.34L83.28,98.36"/><path style="stroke:#000000;stroke-width:0.088" d="M83.30,98.38L83.27,98.35"/><path style="stroke:#000000;stroke-width:0.088" d="M83.16,98.34L83.11,98.34"/><path style="stroke:#000000;stroke-width:0.088" d="M83.17,98.34L83.15,98.34"/><path style="stroke:#000000;stroke-width:0.088" d="M79.46,95.82L79.06,95.60L79.20,95.49L79.34,95.43L79.46,95.43L79.45,95.42L79.32,95.43L79.19,95.49L79.18,95.49L79.05,95.59L79.05,95.59L79.06,95.59L79.06,95.60L78.86,95.84L78.70,96.12L78.60,96.41L78.57,96.69L78.56,96.69L78.56,96.68L78.56,98.39L78.56,98.40L78.57,98.40L78.60,98.64L78.70,98.82L78.86,98.92L79.15,99.08"/><path style="stroke:#000000;stroke-width:0.088" d="M78.70,98.82L78.70,98.81L78.60,98.64L78.59,98.63L78.56,98.39"/><path style="stroke:#000000;stroke-width:0.088" d="M79.15,98.96L79.15,98.96L79.11,98.72L78.57,98.40L78.57,96.69L79.11,97.00L79.15,96.72L79.15,96.71"/><path style="stroke:#000000;stroke-width:0.088" d="M79.05,95.59L78.85,95.83L78.69,96.11L78.59,96.40L78.56,96.67L78.56,96.68"/><path style="stroke:#000000;stroke-width:0.088" d="M79.15,97.01L79.14,97.01L79.13,97.01L79.12,97.01L79.11,97.00L79.11,98.72L79.12,98.72L79.13,98.72L79.14,98.72L79.15,98.72"/><path style="stroke:#000000;stroke-width:0.088" d="M79.46,95.43L79.56,95.48L79.76,95.59"/><path style="stroke:#000000;stroke-width:0.088" d="M84.71,99.20L84.77,98.88L84.66,97.98L84.32,97.04L83.79,96.15L83.12,95.41L82.39,94.91L81.68,94.70L81.19,94.74L81.12,94.78L81.04,94.82L80.81,94.94L80.68,95.01L80.55,95.10L80.50,95.12L80.49,95.13L80.37,95.30"/><path style="stroke:#000000;stroke-width:0.088" d="M84.31,98.97L84.19,98.11L83.82,97.14L83.24,96.25L82.53,95.54L81.78,95.10L81.07,94.99L80.49,95.21L80.43,95.30"/><path style="stroke:#000000;stroke-width:0.088" d="M80.50,95.12L80.64,95.04"/><path style="stroke:#000000;stroke-width:0.088" d="M84.14,98.87L84.03,98.08L83.68,97.19L83.15,96.37L82.50,95.71L81.80,95.31L81.15,95.21L80.98,95.24L80.99,95.24L81.02,95.25L81.04,95.25L81.05,95.25L81.17,95.23L81.82,95.33"/><path style="stroke:#000000;stroke-width:0.088" d="M81.04,95.36L80.98,95.24L80.99,95.25L81.02,95.27L81.04,95.28L81.05,95.28L81.05,95.28L81.06,95.28L81.13,95.24"/><path style="stroke:#000000;stroke-width:0.088" d="M81.10,95.39L81.06,95.28L81.05,95.27L81.05,95.26L81.05,95.26L81.06,95.25L81.06,95.25"/><path style="stroke:#000000;stroke-width:0.088" d="M80.81,94.94L80.68,95.01"/><path style="stroke:#000000;stroke-width:0.088" d="M80.55,95.10L81.10,94.89L81.82,95.01L82.59,95.46L83.32,96.18L83.91,97.10L84.29,98.09L84.42,99.03"/><path style="stroke:#000000;stroke-width:0.088" d="M81.17,95.23L81.05,95.25L81.18,95.23"/><path style="stroke:#000000;stroke-width:0.088" d="M81.05,95.25L81.05,95.25"/><path style="stroke:#000000;stroke-width:0.088" d="M84.88,99.30L85.00,98.62L85.00,98.45L84.90,97.65L84.60,96.82L84.13,96.03L83.54,95.38L82.90,94.93L82.74,94.84L82.06,94.64L81.85,94.63L81.29,94.70L81.29,94.70L81.25,94.71L81.19,94.74"/><path style="stroke:#000000;stroke-width:0.088" d="M81.07,94.81L81.18,94.75"/><path style="stroke:#000000;stroke-width:0.088" d="M81.99,95.43L82.23,95.97L82.12,96.03"/><path style="stroke:#000000;stroke-width:0.088" d="M81.81,95.33L82.50,95.73L83.15,96.37L83.68,97.19L84.02,98.08L84.11,98.73L83.80,98.58L83.80,98.57L83.81,98.56L83.81,98.55L83.82,98.54L83.83,98.53L84.10,98.67"/><path style="stroke:#000000;stroke-width:0.088" d="M83.12,97.26L83.17,97.23L83.22,97.13L83.24,96.99L83.21,96.84L83.14,96.67L83.04,96.53L82.92,96.41L82.79,96.34L82.67,96.33L82.52,96.42"/><path style="stroke:#000000;stroke-width:0.088" d="M82.69,96.28L82.60,96.27L82.51,96.23L82.42,96.16L82.34,96.06L82.28,95.95L82.25,95.96L82.23,95.97L82.30,96.09L82.39,96.19L82.48,96.27L82.58,96.32L82.67,96.33L82.68,96.32L82.69,96.31L82.69,96.30L82.69,96.29L82.69,96.28L82.81,96.30L82.95,96.37L83.08,96.49L83.18,96.65L83.26,96.82L83.29,96.99L83.27,97.14L83.21,97.24L83.13,97.29"/><path style="stroke:#000000;stroke-width:0.088" d="M82.28,95.95L82.07,95.48"/><path style="stroke:#000000;stroke-width:0.088" d="M83.92,97.82L83.19,97.40"/><path style="stroke:#000000;stroke-width:0.088" d="M83.89,97.75L83.15,97.32"/><path style="stroke:#000000;stroke-width:0.088" d="M84.13,98.86L84.13,98.83"/><path style="stroke:#000000;stroke-width:0.088" d="M84.11,98.73L84.13,98.87"/><path style="stroke:#000000;stroke-width:0.088" d="M84.07,98.39L83.82,98.53L83.83,98.53L84.07,98.40"/><path style="stroke:#000000;stroke-width:0.088" d="M83.80,98.58L83.61,98.47"/><path style="stroke:#000000;stroke-width:0.088" d="M83.80,98.58L83.80,98.57L83.80,98.56L83.81,98.55L83.82,98.54L83.82,98.53L83.59,98.40"/><path style="stroke:#000000;stroke-width:0.088" d="M113.56,118.63L79.59,99.01L79.60,99.08L79.62,99.13L79.59,99.07L79.58,99.00L79.58,98.74L79.58,99.00L79.59,99.01L79.59,97.19L79.60,97.11L79.62,97.03L79.64,97.00"/><path style="stroke:#000000;stroke-width:0.088" d="M79.62,99.13L79.78,99.22L79.64,99.14"/><path style="stroke:#000000;stroke-width:0.088" d="M79.58,98.74L79.58,97.18L79.59,97.19L113.56,116.80"/><path style="stroke:#000000;stroke-width:0.088" d="M79.58,97.24L79.58,97.17L79.58,97.18"/><path style="stroke:#000000;stroke-width:0.088" d="M79.58,97.17L79.58,97.10L79.61,97.02L79.63,96.99"/><path style="stroke:#000000;stroke-width:0.088" d="M82.52,100.80L82.30,100.67L82.80,100.96L79.78,99.22"/><path style="stroke:#000000;stroke-width:0.088" d="M80.54,99.39L80.51,99.36L80.48,99.30L80.45,99.23L80.44,99.17L80.45,99.11L80.47,99.07L80.51,99.05L80.56,99.05L80.61,99.08L80.66,99.12L80.70,99.18L80.74,99.24L80.76,99.31L80.76,99.37L80.74,99.42L80.71,99.45L80.67,99.46L80.62,99.45L80.56,99.42L80.54,99.39"/><path style="stroke:#000000;stroke-width:0.088" d="M80.75,99.39L80.61,99.31L80.57,99.24L80.55,99.18L80.54,99.11L80.54,99.05"/><path style="stroke:#000000;stroke-width:0.088" d="M80.51,98.22L80.47,98.16L80.45,98.09L80.44,98.03L80.45,97.97L80.47,97.93L80.51,97.91L80.56,97.91L80.61,97.93L80.66,97.98L80.70,98.04L80.74,98.10L80.76,98.17L80.76,98.23L80.74,98.28L80.72,98.30L80.71,98.31L80.67,98.32L80.60,98.30L80.56,98.27L80.51,98.22"/><path style="stroke:#000000;stroke-width:0.088" d="M80.75,98.25L80.61,98.17L80.57,98.10L80.55,98.03L80.54,97.97L80.54,97.91"/><path style="stroke:#000000;stroke-width:0.088" d="M80.61,99.31L80.64,99.34L80.72,99.37L80.75,99.40"/><path style="stroke:#000000;stroke-width:0.088" d="M80.75,98.25L80.72,98.23L80.64,98.19L80.61,98.17"/><path style="stroke:#000000;stroke-width:0.088" d="M82.80,100.96L113.56,118.72L112.91,118.34"/><path style="stroke:#000000;stroke-width:0.088" d="M82.04,100.52L82.30,100.67L82.04,100.52"/><path style="stroke:#000000;stroke-width:0.088" d="M113.56,116.35L82.63,98.49"/><path style="stroke:#000000;stroke-width:0.088" d="M113.56,115.95L83.09,98.35"/><path style="stroke:#000000;stroke-width:0.088" d="M83.26,98.36L83.55,98.53L83.33,98.40"/><path style="stroke:#000000;stroke-width:0.088" d="M94.98,105.13L83.27,98.37"/><path style="stroke:#000000;stroke-width:0.088" d="M94.84,105.05L113.56,115.86"/><path style="stroke:#000000;stroke-width:0.088" d="M95.59,105.48L95.61,105.49"/><path style="stroke:#000000;stroke-width:0.088" d="M114.22,118.80L114.30,118.75L114.20,118.70"/><path style="stroke:#000000;stroke-width:0.088" d="M114.30,118.75L114.22,118.72L114.20,118.70"/><path style="stroke:#000000;stroke-width:0.088" d="M114.43,118.97L114.27,118.88"/><path style="stroke:#000000;stroke-width:0.088" d="M114.20,117.56L114.30,117.61L114.22,117.66"/><path style="stroke:#000000;stroke-width:0.088" d="M114.30,117.61L114.22,117.58L114.20,117.56"/><path style="stroke:#000000;stroke-width:0.088" d="M114.43,117.83L114.27,117.74"/><path style="stroke:#000000;stroke-width:0.088" d="M79.58,30.53L79.59,30.55L79.60,30.61L79.62,30.66L79.59,30.60L79.58,30.53L79.58,30.15L79.58,30.53"/><path style="stroke:#000000;stroke-width:0.088" d="M79.64,28.53L79.62,28.56L79.60,28.64L79.59,28.72L79.59,30.55L113.56,50.16"/><path style="stroke:#000000;stroke-width:0.088" d="M79.62,30.66L96.34,40.31L96.01,40.12"/><path style="stroke:#000000;stroke-width:0.088" d="M79.63,28.52L79.61,28.55L79.58,28.63L79.58,28.70L79.58,30.15"/><path style="stroke:#000000;stroke-width:0.088" d="M79.58,29.40L79.58,28.70"/><path style="stroke:#000000;stroke-width:0.088" d="M113.56,48.34L79.59,28.72L79.58,28.71"/><path style="stroke:#000000;stroke-width:0.088" d="M80.52,30.90L80.48,30.84L80.46,30.81L80.45,30.76L80.44,30.70L80.45,30.64L80.47,30.60L80.51,30.58L80.56,30.58L80.61,30.61L80.66,30.65L80.70,30.71L80.74,30.78L80.76,30.84L80.76,30.91L80.74,30.95L80.71,30.99L80.67,30.99L80.62,30.98L80.56,30.95L80.52,30.90"/><path style="stroke:#000000;stroke-width:0.088" d="M80.75,30.92L80.61,30.84L80.57,30.78L80.55,30.71L80.54,30.64L80.55,30.58"/><path style="stroke:#000000;stroke-width:0.088" d="M80.54,29.78L80.51,29.75L80.47,29.69L80.45,29.62L80.44,29.56L80.45,29.50L80.47,29.46L80.51,29.44L80.56,29.44L80.61,29.47L80.66,29.51L80.70,29.57L80.74,29.64L80.76,29.70L80.76,29.76L80.74,29.81L80.71,29.84L80.67,29.85L80.62,29.84L80.56,29.81L80.54,29.78"/><path style="stroke:#000000;stroke-width:0.088" d="M80.75,29.78L80.61,29.70L80.57,29.63L80.55,29.57L80.54,29.50L80.55,29.44"/><path style="stroke:#000000;stroke-width:0.088" d="M80.73,30.90L80.75,30.93"/><path style="stroke:#000000;stroke-width:0.088" d="M80.72,30.90L80.64,30.87L80.61,30.84"/><path style="stroke:#000000;stroke-width:0.088" d="M80.75,29.79L80.72,29.76L80.64,29.73L80.61,29.70"/><path style="stroke:#000000;stroke-width:0.088" d="M113.56,47.88L82.63,30.02"/><path style="stroke:#000000;stroke-width:0.088" d="M113.56,47.48L83.09,29.88"/><path style="stroke:#000000;stroke-width:0.088" d="M83.27,29.90L83.55,30.06L83.25,29.89"/><path style="stroke:#000000;stroke-width:0.088" d="M83.55,30.06L113.56,47.39"/><path style="stroke:#000000;stroke-width:0.088" d="M96.30,40.28L113.56,50.25L112.90,49.87"/><path style="stroke:#000000;stroke-width:0.088" d="M114.22,50.33L114.30,50.29L114.20,50.23"/><path style="stroke:#000000;stroke-width:0.088" d="M114.30,50.29L114.22,50.25L114.20,50.24"/><path style="stroke:#000000;stroke-width:0.088" d="M114.43,50.50L114.27,50.41"/><path style="stroke:#000000;stroke-width:0.088" d="M114.22,49.19L114.30,49.15L114.20,49.09"/><path style="stroke:#000000;stroke-width:0.088" d="M114.20,49.10L114.22,49.11L114.30,49.15"/><path style="stroke:#000000;stroke-width:0.088" d="M114.43,49.36L114.27,49.27"/><path style="stroke:#000000;stroke-width:0.088" d="M114.24,36.68L114.24,49.03L114.25,49.03L114.26,49.03L114.27,36.68L114.24,36.68L113.59,36.30L113.59,137.29L113.56,137.26L113.56,137.19L113.56,137.26"/><path style="stroke:#000000;stroke-width:0.088" d="M113.56,137.19L113.56,117.82L113.56,118.34"/><path style="stroke:#000000;stroke-width:0.088" d="M113.59,137.29L114.24,137.67L114.27,137.67L114.27,119.04L114.24,119.04L114.16,118.96L114.09,118.81L114.09,118.74L114.10,118.69L114.12,118.65L114.17,118.63L114.24,118.64L114.24,117.90L114.27,117.90L114.26,118.64L114.38,118.77L114.43,118.92L114.41,119.03L114.37,119.06L114.28,119.06L114.28,137.69L114.27,137.67"/><path style="stroke:#000000;stroke-width:0.088" d="M113.56,118.48L113.56,119.10"/><path style="stroke:#000000;stroke-width:0.088" d="M113.56,118.71L113.56,118.60"/><path style="stroke:#000000;stroke-width:0.088" d="M113.56,117.82L113.56,116.08L113.56,116.83"/><path style="stroke:#000000;stroke-width:0.088" d="M113.56,117.59L113.56,117.34L113.56,117.47"/><path style="stroke:#000000;stroke-width:0.088" d="M113.56,116.08L113.56,49.55L113.56,49.75"/><path style="stroke:#000000;stroke-width:0.088" d="M113.56,50.50L113.56,50.01"/><path style="stroke:#000000;stroke-width:0.088" d="M113.56,49.55L113.56,48.41L113.56,48.82"/><path style="stroke:#000000;stroke-width:0.088" d="M113.56,48.99L113.56,48.87"/><path style="stroke:#000000;stroke-width:0.088" d="M113.56,48.41L113.56,47.49L113.56,48.24"/><path style="stroke:#000000;stroke-width:0.088" d="M113.56,47.49L113.56,36.27L113.59,36.30"/><path style="stroke:#000000;stroke-width:0.088" d="M113.56,36.27L113.59,36.22L114.01,35.99L114.03,35.99L114.04,35.97L114.57,35.65L114.66,35.67L114.77,35.72L115.25,35.99L115.25,35.27L115.96,35.68L115.99,35.69L116.00,35.71L116.22,35.83L116.41,35.74L116.55,35.74L116.55,36.37"/><path style="stroke:#000000;stroke-width:0.088" d="M114.28,137.69L114.75,137.96L114.75,36.97L114.93,37.05L115.14,37.09L115.36,37.09L115.56,37.05L115.74,36.97L116.90,36.30L117.35,35.97L117.35,136.96L116.90,137.29L115.74,137.96L115.74,36.97"/><path style="stroke:#000000;stroke-width:0.088" d="M114.24,137.67L114.24,119.04"/><path style="stroke:#000000;stroke-width:0.088" d="M114.27,137.68L114.28,137.19"/><path style="stroke:#000000;stroke-width:0.088" d="M114.24,118.64L114.26,118.64"/><path style="stroke:#000000;stroke-width:0.088" d="M114.28,119.10L114.27,119.05L114.28,119.06"/><path style="stroke:#000000;stroke-width:0.088" d="M114.28,118.66L114.28,118.44L114.27,118.65"/><path style="stroke:#000000;stroke-width:0.088" d="M114.28,118.44L114.28,117.92L114.37,117.92L114.41,117.89L114.43,117.78L114.38,117.63L114.27,117.50L114.28,116.83L114.27,117.44L114.27,117.39"/><path style="stroke:#000000;stroke-width:0.088" d="M114.27,119.04L114.27,119.05"/><path style="stroke:#000000;stroke-width:0.088" d="M114.21,118.63L114.21,118.75L114.23,118.82L114.33,118.95L114.42,119.00"/><path style="stroke:#000000;stroke-width:0.088" d="M114.24,117.90L114.16,117.82L114.12,117.75L114.09,117.60L114.10,117.54L114.12,117.50L114.17,117.49L114.26,117.50L114.26,50.66L114.27,50.57L114.28,50.59L114.32,50.60L114.37,50.60L114.41,50.57L114.43,50.52L114.43,50.45L114.38,50.31L114.28,50.19L114.28,49.45L114.37,49.46L114.41,49.43L114.43,49.31L114.38,49.16L114.26,49.03"/><path style="stroke:#000000;stroke-width:0.088" d="M114.28,118.34L114.27,117.91L114.28,117.92"/><path style="stroke:#000000;stroke-width:0.088" d="M114.27,117.90L114.27,117.91"/><path style="stroke:#000000;stroke-width:0.088" d="M114.21,117.49L114.21,117.61L114.23,117.68L114.33,117.81L114.42,117.86"/><path style="stroke:#000000;stroke-width:0.088" d="M114.24,49.03L114.17,49.02L114.12,49.04L114.10,49.08L114.09,49.14L114.12,49.28L114.16,49.35L114.24,49.43L114.24,50.17L114.17,50.16L114.12,50.18L114.10,50.22L114.09,50.28L114.12,50.42L114.16,50.49L114.24,50.57L114.24,117.50"/><path style="stroke:#000000;stroke-width:0.088" d="M114.28,117.52L114.27,117.44"/><path style="stroke:#000000;stroke-width:0.088" d="M114.28,116.83L114.28,97.24L114.28,97.99"/><path style="stroke:#000000;stroke-width:0.088" d="M114.26,117.50L114.27,117.51"/><path style="stroke:#000000;stroke-width:0.088" d="M114.28,97.24L114.28,76.88L114.28,77.64"/><path style="stroke:#000000;stroke-width:0.088" d="M114.28,76.88L114.28,56.53L114.28,57.29"/><path style="stroke:#000000;stroke-width:0.088" d="M114.28,56.53L114.28,50.59"/><path style="stroke:#000000;stroke-width:0.088" d="M114.27,50.58L114.28,51.26"/><path style="stroke:#000000;stroke-width:0.088" d="M114.27,50.57L114.24,50.57"/><path style="stroke:#000000;stroke-width:0.088" d="M114.21,50.16L114.21,50.28L114.23,50.35L114.33,50.48L114.42,50.53"/><path style="stroke:#000000;stroke-width:0.088" d="M114.28,49.97L114.28,50.19"/><path style="stroke:#000000;stroke-width:0.088" d="M114.24,50.17L114.26,50.17L114.27,49.43L114.24,49.43"/><path style="stroke:#000000;stroke-width:0.088" d="M114.26,50.17L114.27,50.17"/><path style="stroke:#000000;stroke-width:0.088" d="M114.27,49.04L114.28,48.99L114.28,49.05"/><path style="stroke:#000000;stroke-width:0.088" d="M114.28,49.45L114.27,49.43"/><path style="stroke:#000000;stroke-width:0.088" d="M114.28,49.75L114.27,49.44"/><path style="stroke:#000000;stroke-width:0.088" d="M114.42,49.39L114.33,49.34L114.23,49.21L114.21,49.14L114.21,49.02"/><path style="stroke:#000000;stroke-width:0.088" d="M114.28,48.68L114.28,48.99L114.28,48.24L114.28,48.68"/><path style="stroke:#000000;stroke-width:0.088" d="M114.27,48.93L114.27,48.97"/><path style="stroke:#000000;stroke-width:0.088" d="M114.28,48.24L114.28,36.70L114.75,36.97"/><path style="stroke:#000000;stroke-width:0.088" d="M114.28,36.70L114.27,36.68"/><path style="stroke:#000000;stroke-width:0.088" d="M115.15,36.98L115.15,36.19L115.42,36.35L115.80,36.45L116.09,36.62L116.09,36.63L115.62,36.90L115.48,36.96L115.33,36.99L115.16,36.99L115.01,36.96L114.88,36.90L113.77,36.27L114.53,35.83L114.53,36.70"/><path style="stroke:#000000;stroke-width:0.088" d="M114.28,36.93L114.27,36.69"/><path style="stroke:#000000;stroke-width:0.088" d="M115.74,137.96L115.56,138.04L115.36,138.08L115.16,138.08L114.93,138.04L114.75,137.96"/><path style="stroke:#000000;stroke-width:0.088" d="M115.11,36.98L115.11,36.17L114.53,35.83"/><path style="stroke:#000000;stroke-width:0.088" d="M115.11,36.18L115.14,36.18L115.14,36.98"/><path style="stroke:#000000;stroke-width:0.088" d="M115.15,36.19L115.14,36.18"/><path style="stroke:#000000;stroke-width:0.088" d="M115.15,36.93L115.16,36.20"/><path style="stroke:#000000;stroke-width:0.088" d="M115.42,36.97L115.42,36.35"/><path style="stroke:#000000;stroke-width:0.088" d="M115.80,36.45L115.80,36.80"/><path style="stroke:#000000;stroke-width:0.088" d="M115.25,35.99L116.21,36.55L116.23,36.54L116.23,35.83"/><path style="stroke:#000000;stroke-width:0.088" d="M117.20,35.69L117.20,34.23L117.40,34.36L117.70,34.60L117.85,34.89L117.83,35.18L117.65,35.46L117.45,35.64L117.35,35.67L117.24,35.69L117.06,35.68L116.88,35.66L116.75,35.62L116.42,35.43L116.25,35.36L116.02,35.32L115.60,35.31L115.39,35.27L115.27,35.26L115.25,35.27"/><path style="stroke:#000000;stroke-width:0.088" d="M116.22,36.55L116.22,35.83"/><path style="stroke:#000000;stroke-width:0.088" d="M116.37,36.46L116.37,35.75"/><path style="stroke:#000000;stroke-width:0.088" d="M116.00,36.43L116.00,35.71"/><path style="stroke:#000000;stroke-width:0.088" d="M115.96,36.40L115.96,35.68"/><path style="stroke:#000000;stroke-width:0.088" d="M115.98,35.68L115.98,36.42"/><path style="stroke:#000000;stroke-width:0.088" d="M116.23,36.54L116.78,36.23L117.16,35.94L117.15,35.89L117.09,35.85L116.79,35.81L116.55,35.74"/><path style="stroke:#000000;stroke-width:0.088" d="M116.00,36.18L115.99,35.70"/><path style="stroke:#000000;stroke-width:0.088" d="M116.90,36.30L116.90,137.29"/><path style="stroke:#000000;stroke-width:0.088" d="M117.35,136.96L117.80,136.50L117.80,35.51L117.35,35.97"/><path style="stroke:#000000;stroke-width:0.088" d="M117.05,35.85L117.05,36.04"/><path style="stroke:#000000;stroke-width:0.088" d="M117.40,35.66L117.40,34.36"/><path style="stroke:#000000;stroke-width:0.088" d="M117.22,34.26L117.22,35.69"/><path style="stroke:#000000;stroke-width:0.088" d="M117.20,34.23L117.22,34.19L117.30,34.18L117.52,34.29L117.86,34.56L118.02,34.88L118.00,35.20L117.80,35.51"/><path style="stroke:#000000;stroke-width:0.088" d="M117.80,136.50L118.00,136.19L118.02,135.86L118.02,34.88"/><path style="fill:#ffffff" d="M171.76,63.20L198.17,63.20L198.17,57.56L171.76,57.56z"/><path style="stroke:#35414c;stroke-width:0.255" d="M171.76,63.20L198.17,63.20L198.17,57.56L171.76,57.56z"/><path style="stroke:#35404c;stroke-width:0.250;stroke-opacity:0.00" d="M171.76,63.20L198.17,63.20L198.17,57.56L171.76,57.56z"/><text xml:space="preserve" fill="#333f4b" stroke-width="0" x="172.46" y="61.61" font-size="3.56" opacity="1.00" font-family="Arial" font-weight="bold" font-style="italic">F24955127X</text><path style="fill:#ffffff" d="M171.76,73.17L198.17,73.17L198.17,67.53L171.76,67.53z"/><path style="stroke:#35414c;stroke-width:0.255" d="M171.76,73.17L198.17,73.17L198.17,67.53L171.76,67.53z"/><path style="stroke:#35404c;stroke-width:0.250;stroke-opacity:0.00" d="M171.76,73.17L198.17,73.17L198.17,67.53L171.76,67.53z"/><text xml:space="preserve" fill="#333f4b" stroke-width="0" x="172.46" y="71.59" font-size="3.56" opacity="1.00" font-family="Arial" font-weight="bold" font-style="italic">F24955128V</text><path style="fill:#ffffff" d="M171.76,93.12L198.17,93.12L198.17,87.48L171.76,87.48z"/><path style="stroke:#35414c;stroke-width:0.255" d="M171.76,93.12L198.17,93.12L198.17,87.48L171.76,87.48z"/><path style="stroke:#35404c;stroke-width:0.250;stroke-opacity:0.00" d="M171.76,93.12L198.17,93.12L198.17,87.48L171.76,87.48z"/><text xml:space="preserve" fill="#333f4b" stroke-width="0" x="172.46" y="91.54" font-size="3.55" opacity="1.00" font-family="Arial" font-weight="bold" font-style="italic">H90955077X</text><path style="fill:#ffffff" d="M171.76,83.15L198.17,83.15L198.17,77.51L171.76,77.51z"/><path style="stroke:#35414c;stroke-width:0.255" d="M171.76,83.15L198.17,83.15L198.17,77.51L171.76,77.51z"/><path style="stroke:#35404c;stroke-width:0.250;stroke-opacity:0.00" d="M171.76,83.15L198.17,83.15L198.17,77.51L171.76,77.51z"/><text xml:space="preserve" fill="#333f4b" stroke-width="0" x="172.46" y="81.56" font-size="3.56" opacity="1.00" font-family="Arial" font-weight="bold" font-style="italic">K99955129V</text><g id="paperID" visibility="hidden" opacity="0.00" transform="scale(0.000100)"><path style="stroke:#000000;stroke-width:0.500;fill:#e6e6e6;fill-rule:evenodd" d="M-2000.00,-2000.00L2210.00,-2000.00L2210.00,2150.00L-2000.00,2150.00zM0.00,0.00L210.00,0.00L210.00,150.00L0.00,150.00z"/><path style="fill:#000000;fill-opacity:0.118" d="M3.00,150.00L210.00,150.00L210.00,3.00L213.00,3.00L213.00,153.00L3.00,153.00z"/></g><g id="hotspot.0" onmouseover="ShowHotSpot(evt,'0')" onmouseout="HideHotSpot(evt,'0')" onmousemove="ShowToolTip(evt,'0',&quot;F24955127X&quot;)" opacity="0"><path style="fill:#00ff00;fill-rule:evenodd" d="M116.21,35.82L116.25,36.37L114.89,35.76L114.27,35.75L113.75,36.05L113.57,47.18L113.05,47.12L83.66,30.01L82.89,28.41L82.08,27.38L80.42,26.68L80.50,15.63L81.02,15.55zM81.00,32.65L83.12,32.61L113.57,50.23L113.60,115.67L108.09,112.67L83.66,98.52L82.89,96.92L81.82,95.63L80.41,95.20L80.50,32.35zM198.39,57.81L198.38,62.93L198.10,63.43L171.81,63.39L171.50,63.17L171.57,57.65L198.13,57.54zM81.01,101.16L83.13,101.13L113.60,118.71L113.60,135.88L80.50,116.90L80.50,100.86z"/></g><g id="hotspot.1" onmouseover="ShowHotSpot(evt,'1')" onmouseout="HideHotSpot(evt,'1')" onmousemove="ShowToolTip(evt,'1',&quot;F24955128V&quot;)" opacity="0"><path style="fill:#00ff00;fill-rule:evenodd" d="M81.79,29.77L83.66,30.00L113.57,47.34L113.57,50.08L113.08,49.97L79.63,30.62L79.63,28.68L79.95,28.65zM198.39,67.78L198.38,72.91L198.10,73.41L171.81,73.36L171.50,73.15L171.57,67.62L198.13,67.52zM81.82,98.25L83.16,98.27L113.60,115.82L113.60,118.56L110.45,116.87L79.63,99.13L79.71,96.93z"/></g><g id="hotspot.2" onmouseover="ShowHotSpot(evt,'2')" onmouseout="HideHotSpot(evt,'2')" onmousemove="ShowToolTip(evt,'2',&quot;H90955079V&quot;)" opacity="0"><path style="fill:#00ff00;fill-rule:evenodd" d="M82.86,26.34L84.21,27.62L84.97,29.22L84.88,30.56L84.43,30.58L83.66,30.00L81.79,29.77L79.95,28.65L79.63,28.68L79.63,30.62L82.62,32.35L82.55,32.63L81.00,32.66L79.46,31.31L79.16,30.56L78.67,30.27L78.64,27.72L79.33,26.87L80.16,26.90L81.73,26.06zM198.39,87.73L198.38,92.86L198.10,93.36L171.81,93.31L171.50,93.10L171.57,87.57L198.13,87.47zM82.86,94.86L83.92,95.63L84.97,97.73L84.87,99.08L84.47,99.05L83.16,98.27L81.82,98.25L79.71,96.93L79.63,99.13L82.86,100.90L82.28,101.17L81.00,101.17L79.46,99.83L79.16,99.07L78.67,98.78L78.64,96.23L79.33,95.39L80.12,95.38L81.47,94.56z"/></g><g id="hotspot.3" onmouseover="ShowHotSpot(evt,'3')" onmouseout="HideHotSpot(evt,'3')" onmousemove="ShowToolTip(evt,'3',&quot;K99955129V&quot;)" opacity="0"><path style="fill:#00ff00;fill-rule:evenodd" d="M118.06,34.72L118.05,136.17L117.81,136.45L115.84,137.89L114.64,137.88L113.84,137.37L113.75,36.05L114.27,35.75L115.16,35.84L115.34,35.27L116.21,35.24L117.01,35.61L117.17,34.18L117.49,34.16zM198.39,77.76L198.38,82.88L198.10,83.38L171.81,83.34L171.50,83.12L171.57,77.60L198.13,77.49z"/></g></g></svg>
