<?xml version="1.0" encoding="UTF-8" standalone="no"?>
<svg xmlns="http://www.w3.org/2000/svg" xmlns:xlink="http://www.w3.org/1999/xlink" width="210.000mm" height="150.000mm" viewBox="0.000000 0.000000 210.000000 150.000000" stroke-linejoin="round" stroke-linecap="round" fill="none" fill-rule="evenodd"><desc>Composer Export</desc><script type="text/ecmascript"><![CDATA[
if(typeof(top) != "undefined")
{
	top.ShowPaper = ShowPaper;
}
function ShowHotSpot(evt,hotspotid)
{
	var svgDocument = evt.target.ownerDocument;
	var strId = "hotspot."+hotspotid;
	var hotspot = svgDocument.getElementById(strId);
	if(hotspot)
		hotspot.setAttribute("opacity",".5");
}
function HideHotSpot(evt,hotspotid)
{
	var svgDocument = evt.target.ownerDocument;
	var strId = "hotspot."+hotspotid;
	var hotspot = svgDocument.getElementById(strId);
	if(hotspot)
		hotspot.setAttribute("opacity","0");

	var toolTip = svgDocument.getElementById('ToolTip');
	if(toolTip)
		toolTip.setAttribute("visibility","hidden");
}
function ShowToolTip(evt,hotspotid,strTooltip)
{
	if(strTooltip=="")
	return;

	// change text
	var svgDocument = evt.target.ownerDocument;
	var tiptext = svgDocument.getElementById('ToolTipText');
	if( !tiptext )
	return;
	tiptext.firstChild.nodeValue = " " + strTooltip + "  " ;

	// show tooltip before, else some refresh issue

	var toolTip = svgDocument.getElementById('ToolTip');
	if(!toolTip)
	return;

	toolTip.setAttribute("visibility","visible");
	toolTip.setAttribute("opacity",".95");

	// move tooltip
	// get viewbox

	var root = svgDocument.documentElement;
	var vbox = (root.getAttribute("viewBox")).split(' ');
	var x0 = parseFloat(vbox[0]);
	var y0 = parseFloat(vbox[1]);
	var vboxW = parseFloat(vbox[2]);
	var vboxH = parseFloat(vbox[3]);

	// get default width of svg

	var strW = root.getAttribute("width");
	var svgW = parseFloat(strW);
	if(strW.indexOf('mm') != -1)
	svgW *= 3.779;

	var strH = root.getAttribute("height");
	var svgH = parseFloat(strH);
	if(strH.indexOf('mm') != -1)
	svgH *= 3.779;  	// 96 dpi  -> 96/25.4 = 3.779

	// update the viewbox / width / height if svg is embedded in html with zoom fit all
	var realx0 = x0;
	var realy0 = y0;
	var realvboxW = vboxW;
	var realvboxH = vboxH;
	var realsvgW = svgW;
	var realsvgH = svgH;

	if ((typeof(top) == "undefined") || (typeof(top.svgctl1) != "undefined")) // embedded in html
	{
		// get window size in pxl

		svgW = window.innerWidth;
		svgH = window.innerHeight;

		// calculate real viewbox

		realsvgW = svgW;
		realsvgH = svgH;
		if((svgW / svgH) > (vboxW / vboxH))
		{
			realvboxW = (vboxH * svgW) / svgH;
			realvboxH = vboxH;
			realx0 = x0 - (realvboxW - vboxW)/2 ;
		}
		else
		{
			realvboxH = (vboxW * svgH) / svgW;
			realvboxW = vboxW;
			realy0 = y0 - (realvboxH - vboxH)/2 ;
		}
	}

	// get user zoom/pan

	var newScale = root.currentScale;
	var translation = root.currentTranslate;

	// transform pxl to user unit

	var xPos = (((evt.clientX+10- translation.x)/newScale) * realvboxW)/realsvgW  + realx0 ;
	var yPos = (((evt.clientY+5- translation.y)/newScale) * realvboxH)/ realsvgH  + realy0 ;
	var scaleForWidth = ( (1 / newScale) * realvboxH) / realsvgH;

	// move tooltip

	toolTip.setAttribute("transform", "translate(" + xPos + "," + yPos + ")" );

	// resize tooltip

	var fontsize = 12;
	tiptext.setAttribute("font-size",fontsize*scaleForWidth);
	tiptext.setAttribute("y", fontsize*scaleForWidth);
	var tipBG = svgDocument.getElementById('ToolTipBG');
	var outline = tiptext.getBBox();
	if(tipBG)
	{
		tipBG.setAttribute("stroke-width", 1*scaleForWidth);
		tipBG.setAttribute("width", Number(outline.width) );
		tipBG.setAttribute("height", Number(outline.height) + fontsize*.5*scaleForWidth );
	}
	var ToolTipShadow = svgDocument.getElementById('ToolTipShadow');
	if(ToolTipShadow)
	{
		ToolTipShadow.setAttribute("width", Number(outline.width) );
		ToolTipShadow.setAttribute("height", Number(outline.height) + fontsize*.5*scaleForWidth );
		ToolTipShadow.setAttribute("x", 3*scaleForWidth);
		ToolTipShadow.setAttribute("y", 3*scaleForWidth);
	}
}
function ShowPaper()
{
  var svgDocument = getDocument();
  var paper = svgDocument.getElementById("paperID");
  if(paper)
  {
    paper.setAttribute("transform","scale(1)");
    paper.setAttribute("opacity","1");
    paper.setAttribute("visibility","visible");
  }
  var svg = svgDocument.getRootElement();
  if(svg)
  {
    svg.setAttribute("width","220.000mm");
    svg.setAttribute("height","160.000mm");
    svg.setAttribute("viewBox","-5.000000 -5.000000 220.000000 160.000000");
  }
}
]]></script><defs/><g><path style="fill:#ffffff" d="M209.93,149.99L0.04,149.99L0.04,0.04L209.93,0.04z"/><path style="fill:#8aa7bf" d="M84.78,51.06L84.41,51.23L84.87,51.23L84.78,51.06L86.51,51.99L87.40,52.62L87.40,53.06L86.97,53.64L86.26,53.64L85.92,53.36L86.13,53.31L86.14,52.99L86.01,52.86L85.92,53.36L85.38,53.12L81.94,51.11L81.94,50.51L82.27,49.96L82.70,49.83z"/><path style="fill:#8aa7bf" d="M78.45,56.25L78.07,56.42L78.54,56.43L78.45,56.25L78.65,56.30L80.42,57.32L81.07,57.82L81.06,58.25L80.63,58.84L80.03,58.84L75.99,56.55L75.90,56.40L76.12,56.34L76.13,56.04L76.00,55.91L75.80,56.03L75.90,56.40L75.60,56.31L75.60,55.58L75.94,55.16L76.20,55.02L76.49,55.02z"/><path style="fill:#baffff" d="M96.01,62.64L96.15,63.70L86.47,71.65L86.01,71.63L83.68,70.28L83.41,69.23L92.46,61.79L93.29,61.12z"/><path style="fill:#baffff" d="M104.89,94.94L104.88,96.52L104.31,96.48L101.66,97.99L101.46,98.42L98.38,100.29L98.04,100.29L94.23,98.12L94.20,96.48L100.78,92.66L100.95,92.66z"/><path style="fill:#95dce0" d="M71.81,25.51L72.20,26.02L71.68,34.80L71.68,36.21L77.71,33.24L78.65,33.10L79.92,33.85L75.61,50.14L75.31,50.73L67.96,51.86L67.99,51.98L69.14,52.64L69.28,52.88L72.56,68.85L72.69,72.27L73.45,75.95L73.58,77.26L73.22,77.91L67.37,81.31L67.24,82.20L63.95,84.10L61.25,85.46L60.49,85.58L58.88,85.58L58.12,85.32L55.97,84.05L55.20,82.92L54.69,81.40L45.83,38.31L45.82,37.46L46.35,36.71L58.01,30.96L59.64,31.85L59.64,34.30L59.51,36.45L59.52,37.98L59.85,37.79L60.28,37.80L61.05,38.22L61.66,29.60L61.93,29.11L62.51,28.68L70.11,24.87L70.67,24.87z"/><path style="fill:#95dce0" d="M138.09,63.90L137.57,74.35L143.86,71.25L144.80,71.25L145.83,71.89L145.81,72.18L141.37,88.78L135.12,89.76L133.98,90.01L134.01,90.12L135.15,90.78L135.29,91.15L139.85,113.33L140.24,115.65L139.74,116.43L128.91,122.70L127.40,123.47L126.12,123.72L125.28,123.72L124.39,123.60L121.86,122.06L121.09,120.94L120.71,119.80L111.69,75.81L112.04,75.04L112.82,74.55L123.71,69.09L124.14,69.09L125.02,69.61L125.67,70.11L125.36,75.99L126.06,75.82L127.06,76.37L127.55,67.87L127.88,67.19L128.53,66.69L136.26,62.88L136.56,62.88z"/><path style="fill:#01ff02" d="M48.75,49.07L48.58,49.12L48.63,48.95z"/><path style="fill:#01ff02" d="M82.48,50.98L82.46,51.16L82.19,51.12L82.15,50.85L82.32,50.83z"/><path style="fill:#01ff02" d="M84.87,51.23L84.41,51.23L84.78,51.06z"/><path style="fill:#01ff02" d="M86.14,52.99L86.13,53.31L85.92,53.36L86.01,52.86z"/><path style="fill:#01ff02" d="M76.13,56.04L76.12,56.34L75.90,56.40L75.80,56.03L76.00,55.91z"/><path style="fill:#01ff02" d="M78.54,56.43L78.07,56.42L78.45,56.25z"/><path style="fill:#01ff02" d="M79.81,58.19L79.81,58.50L79.53,58.33L79.53,58.11L79.67,58.06z"/><path style="fill:#01ff02" d="M95.10,64.09L94.95,64.09L94.99,63.82L95.24,63.76z"/><path style="fill:#01ff02" d="M52.05,65.04L52.05,65.22L51.92,65.18L51.92,64.91z"/><path style="fill:#01ff02" d="M93.18,65.69L92.91,65.69L93.07,65.42L93.22,65.42z"/><path style="fill:#01ff02" d="M89.15,69.03L88.99,69.03L89.03,68.76L89.28,68.70z"/><path style="fill:#01ff02" d="M87.28,70.55L87.14,70.69L87.14,70.26L87.28,70.24z"/><path style="fill:#01ff02" d="M55.35,81.01L55.35,81.18L55.21,81.15L55.21,80.87z"/><path style="fill:#01ff02" d="M114.77,87.23L114.51,87.22L114.50,86.96z"/><path style="fill:#01ff02" d="M103.12,96.66L102.98,96.79L102.98,96.37L103.12,96.35z"/><path style="fill:#01ff02" d="M99.04,99.06L98.88,99.07L98.92,98.78L99.07,98.76z"/><path style="fill:#01ff02" d="M118.06,103.19L117.80,103.19L117.80,102.93z"/><path style="fill:#01ff02" d="M121.36,119.16L121.10,119.16L121.09,118.89z"/><path style="fill:#8aa7bf" d="M79.79,66.70L80.30,67.32L87.14,100.54L87.11,100.78L86.63,100.79L81.82,97.99L81.56,97.24L74.85,64.67L74.84,64.07L75.23,64.02z"/><path style="fill:#8aa7bf" d="M100.70,71.13L101.08,71.64L104.50,87.99L104.47,88.24L103.98,88.25L99.18,85.44L98.91,84.82L95.62,68.51L96.01,68.46z"/><path style="fill:#ffffff" d="M62.93,52.38L62.84,52.55L61.66,52.65L61.28,52.13L61.29,51.35z"/><path style="fill:#ffffff" d="M127.94,89.89L129.21,90.53L128.41,90.64L127.43,90.64L127.17,90.14L127.18,89.37z"/><path style="stroke:#000000;stroke-width:0.088" d="M81.93,50.52L82.24,50.70L82.18,50.71L82.13,50.75L82.10,50.81L82.10,50.89L82.11,50.98L82.15,51.06L82.20,51.14L82.21,51.15L81.90,50.97L81.93,50.52L82.01,50.32L82.12,50.14L82.26,49.99L82.64,49.80L84.80,51.05L84.88,51.09L84.95,51.14L87.12,52.39L86.75,52.57L84.58,51.32L84.54,51.31L84.47,51.28L84.43,51.24L82.26,49.99"/><path style="stroke:#000000;stroke-width:0.088" d="M82.21,51.15L82.27,51.19L82.33,51.23L82.36,51.24L82.39,51.24L82.45,51.21L82.48,51.16L82.50,51.09L82.50,51.06L82.49,51.12L82.46,51.16L82.41,51.18L82.36,51.18L82.30,51.15L82.25,51.10L82.20,51.03L82.17,50.96L82.16,50.89L82.16,50.82L82.19,50.77L82.23,50.74L82.28,50.73L82.33,50.74"/><path style="stroke:#000000;stroke-width:0.088" d="M81.90,50.97L81.96,51.09L82.06,51.17L86.55,53.76L86.44,53.68L86.38,53.56L86.07,53.38L86.10,53.38L86.15,53.35L86.19,53.30L86.21,53.23L86.20,53.15L86.18,53.06L86.13,52.98L86.09,52.93L86.24,53.01L86.41,53.11L86.38,53.56"/><path style="stroke:#000000;stroke-width:0.088" d="M82.24,50.70L82.31,50.72L82.39,50.79L85.90,52.82L85.94,52.84L86.01,52.86L86.09,52.93"/><path style="stroke:#000000;stroke-width:0.088" d="M82.36,51.24L85.92,53.29L85.91,53.28L85.86,53.20L85.82,53.12L85.80,53.03L85.81,52.95L85.84,52.89L85.88,52.85L85.94,52.84"/><path style="stroke:#000000;stroke-width:0.088" d="M82.50,51.06L82.50,51.01L82.47,50.92L82.43,50.84L82.39,50.79"/><path style="stroke:#000000;stroke-width:0.088" d="M82.64,49.80L82.77,49.82L87.25,52.41L87.12,52.39"/><path style="stroke:#000000;stroke-width:0.088" d="M84.58,51.32L84.63,51.33L84.72,51.34L84.81,51.33L84.89,51.31L84.95,51.27L84.97,51.22L84.97,51.17L84.95,51.14"/><path style="stroke:#000000;stroke-width:0.088" d="M84.80,51.05L84.71,51.03L84.62,51.04L84.53,51.05L84.46,51.09L84.42,51.13L84.41,51.18L84.42,51.23L84.43,51.24"/><path style="stroke:#000000;stroke-width:0.088" d="M84.88,51.31L84.91,51.29L84.93,51.25L84.93,51.21L84.90,51.17L84.85,51.13L84.78,51.11L84.70,51.09L84.63,51.09L84.56,51.11L84.55,51.11L84.50,51.14L84.46,51.17L84.45,51.22L84.46,51.26L84.49,51.28"/><path style="stroke:#000000;stroke-width:0.088" d="M86.07,53.38L86.04,53.37L85.98,53.33L85.92,53.29"/><path style="stroke:#000000;stroke-width:0.088" d="M86.21,53.20L86.19,53.26L86.16,53.30L86.12,53.32L86.06,53.32L86.01,53.29L85.95,53.24L85.91,53.17L85.88,53.10L85.86,53.03L85.87,52.96L85.89,52.91L85.93,52.87L85.98,52.87L86.04,52.88"/><path style="stroke:#000000;stroke-width:0.088" d="M86.55,53.76L86.68,53.78L87.05,53.59L87.19,53.44L87.31,53.25L87.39,53.06L87.41,52.61L87.35,52.48L87.25,52.41"/><path style="stroke:#000000;stroke-width:0.088" d="M86.41,53.11L86.49,52.91L86.61,52.73L86.75,52.57"/><path style="stroke:#000000;stroke-width:0.088" d="M80.04,58.73L80.07,58.29L79.75,58.11L79.79,58.15L79.84,58.24L79.86,58.32L79.87,58.41L79.85,58.48L79.81,58.53L79.76,58.55L79.73,58.55L80.04,58.73L80.10,58.86L80.21,58.93L75.72,56.35L75.62,56.27L75.56,56.15L75.87,56.33L75.86,56.32L75.81,56.24L75.77,56.15L75.76,56.07L75.76,55.99L75.79,55.93L75.84,55.89L75.90,55.88L75.59,55.70L75.67,55.50L75.78,55.32L75.92,55.16L78.09,56.41L78.13,56.45L78.20,56.49L78.24,56.50L78.29,56.51L78.38,56.52L78.47,56.51L78.55,56.48L78.61,56.44L78.63,56.40L78.63,56.35L78.61,56.31L80.78,57.56L80.41,57.75L78.24,56.50"/><path style="stroke:#000000;stroke-width:0.088" d="M75.59,55.70L75.56,56.15"/><path style="stroke:#000000;stroke-width:0.088" d="M75.99,55.92L75.94,55.90L75.89,55.91L75.85,55.94L75.82,56.00L75.82,56.06L75.83,56.14L75.86,56.21L75.91,56.27L75.96,56.32L76.02,56.35L76.07,56.36L76.12,56.34L76.15,56.29L76.16,56.24"/><path style="stroke:#000000;stroke-width:0.088" d="M75.90,55.88L75.97,55.90L76.05,55.97L79.60,58.02L79.54,58.03L79.50,58.07L79.47,58.13L79.46,58.20L79.48,58.29L79.52,58.38L79.57,58.46L79.58,58.47L76.02,56.41L75.99,56.40L75.93,56.37L75.87,56.33"/><path style="stroke:#000000;stroke-width:0.088" d="M76.02,56.41L76.05,56.41L76.11,56.39L76.14,56.34L76.16,56.27L76.16,56.18L76.13,56.10L76.09,56.01L76.05,55.97"/><path style="stroke:#000000;stroke-width:0.088" d="M75.92,55.16L76.30,54.98L78.46,56.23L78.54,56.26L78.61,56.31"/><path style="stroke:#000000;stroke-width:0.088" d="M76.30,54.98L76.43,55.00L80.91,57.58L80.78,57.56"/><path style="stroke:#000000;stroke-width:0.088" d="M78.09,56.41L78.08,56.40L78.07,56.35L78.08,56.30L78.12,56.26L78.19,56.23L78.28,56.21L78.37,56.21L78.46,56.23"/><path style="stroke:#000000;stroke-width:0.088" d="M78.54,56.48L78.57,56.47L78.59,56.43L78.59,56.38L78.56,56.34L78.51,56.31L78.44,56.28L78.36,56.27L78.29,56.27L78.25,56.28L78.21,56.29L78.16,56.31L78.12,56.35L78.11,56.39L78.12,56.43L78.15,56.46"/><path style="stroke:#000000;stroke-width:0.088" d="M79.73,58.55L79.70,58.54L79.64,58.51L79.58,58.47"/><path style="stroke:#000000;stroke-width:0.088" d="M79.87,58.38L79.85,58.43L79.82,58.48L79.78,58.50L79.72,58.49L79.67,58.46L79.61,58.41L79.57,58.35L79.54,58.28L79.52,58.20L79.53,58.14L79.55,58.08L79.59,58.05L79.64,58.04L79.70,58.06"/><path style="stroke:#000000;stroke-width:0.088" d="M79.60,58.02L79.67,58.04L79.75,58.11"/><path style="stroke:#000000;stroke-width:0.088" d="M80.07,58.29L80.15,58.09L80.27,57.90L80.41,57.75"/><path style="stroke:#000000;stroke-width:0.088" d="M80.91,57.58L81.01,57.66L81.07,57.79L81.05,58.23L80.97,58.43L80.85,58.61L80.71,58.77L80.33,58.95L80.21,58.93"/><path style="stroke:#000000;stroke-width:0.088" d="M94.15,96.48L94.15,98.04L98.19,100.37L101.46,98.48L101.46,98.10L104.69,96.23L104.69,96.62L104.93,96.48L104.93,94.92L98.19,98.82L94.15,96.48L100.89,92.59L104.93,94.92"/><path style="stroke:#000000;stroke-width:0.088" d="M98.19,100.37L98.19,98.82"/><path style="stroke:#000000;stroke-width:0.088" d="M98.21,94.80L98.21,94.80L98.21,94.90L98.27,95.00L98.36,95.06L98.38,95.07L98.53,95.13L98.70,95.15L98.87,95.14L99.02,95.10L99.15,95.03L99.23,94.94L99.25,94.84L99.22,94.74L99.14,94.66L99.01,94.59L98.85,94.55L98.68,94.55L98.51,94.57L98.37,94.63L98.26,94.71L98.21,94.80"/><path style="stroke:#000000;stroke-width:0.088" d="M98.21,94.80L98.21,94.81"/><path style="stroke:#000000;stroke-width:0.088" d="M99.01,99.15L98.99,99.16L98.93,99.17L98.88,99.15L98.85,99.11L98.83,99.04L98.84,98.96L98.87,98.87L98.91,98.79L98.97,98.72L99.04,98.68L99.10,98.65L99.16,98.66L99.21,98.69L99.23,98.75L99.23,98.82L99.23,98.84L99.22,98.91L99.18,98.99L99.12,99.07L99.06,99.13L99.01,99.15"/><path style="stroke:#000000;stroke-width:0.088" d="M99.02,98.69L99.06,98.68L99.11,98.68L99.14,98.71L99.16,98.76L99.17,98.82L99.16,98.83L99.15,98.89L99.12,98.96L99.07,99.02L99.02,99.07L98.97,99.10L98.91,99.11L98.87,99.09L98.84,99.06L98.83,99.01"/><path style="stroke:#000000;stroke-width:0.088" d="M100.57,96.16L100.62,96.07L100.73,95.99L100.87,95.93L101.03,95.91L101.21,95.91L101.37,95.95L101.50,96.02L101.58,96.10L101.61,96.20L101.59,96.30L101.51,96.39L101.38,96.46L101.23,96.50L101.06,96.51L100.89,96.49L100.74,96.44L100.72,96.42L100.63,96.36L100.57,96.26L100.57,96.16L100.57,96.17"/><path style="stroke:#000000;stroke-width:0.088" d="M100.57,93.54L100.63,93.63L100.72,93.70L100.74,93.71L100.89,93.76L101.06,93.79L101.23,93.78L101.38,93.74L101.51,93.67L101.59,93.58L101.61,93.48L101.58,93.38L101.50,93.29L101.37,93.23L101.21,93.19L101.03,93.18L100.87,93.21L100.73,93.27L100.62,93.35L100.57,93.44L100.57,93.54"/><path style="stroke:#000000;stroke-width:0.088" d="M103.00,96.83L102.97,96.84L102.92,96.82L102.89,96.77L102.87,96.71L102.88,96.63L102.91,96.54L102.96,96.46L103.02,96.39L103.08,96.34L103.15,96.32L103.20,96.32L103.25,96.36L103.27,96.41L103.28,96.49L103.27,96.50L103.26,96.57L103.22,96.66L103.17,96.73L103.10,96.79L103.04,96.83L103.00,96.83"/><path style="stroke:#000000;stroke-width:0.088" d="M103.06,96.36L103.10,96.34L103.15,96.35L103.19,96.37L103.21,96.42L103.21,96.48L103.21,96.50L103.19,96.55L103.16,96.63L103.12,96.69L103.06,96.74L103.01,96.77L102.96,96.78L102.91,96.76L102.89,96.72L102.88,96.68"/><path style="stroke:#000000;stroke-width:0.088" d="M102.99,95.00L102.93,94.90L102.93,94.80L102.98,94.71L103.08,94.63L103.23,94.57L103.39,94.55L103.56,94.55L103.72,94.59L103.85,94.66L103.94,94.74L103.97,94.84L103.95,94.94L103.87,95.03L103.74,95.10L103.59,95.14L103.41,95.15L103.25,95.13L103.10,95.07L103.08,95.06L102.99,95.00"/><path style="stroke:#000000;stroke-width:0.088" d="M102.93,94.80L102.93,94.80"/><path style="stroke:#000000;stroke-width:0.088" d="M104.69,96.62L104.36,96.42"/><path style="stroke:#000000;stroke-width:0.088" d="M83.42,69.19L83.63,70.21L86.32,71.77L86.11,70.75L96.00,62.61L93.31,61.06L83.42,69.19L86.11,70.75"/><path style="stroke:#000000;stroke-width:0.088" d="M86.32,71.77L96.21,63.63L96.00,62.61"/><path style="stroke:#000000;stroke-width:0.088" d="M87.02,70.63L87.01,70.56L87.02,70.47L87.05,70.39L87.10,70.31L87.16,70.24L87.23,70.20L87.29,70.18L87.35,70.20L87.39,70.23L87.41,70.30L87.41,70.37L87.38,70.46L87.34,70.54L87.29,70.62L87.22,70.67L87.16,70.70L87.09,70.70L87.05,70.68L87.02,70.63"/><path style="stroke:#000000;stroke-width:0.088" d="M87.20,70.22L87.25,70.21L87.29,70.22L87.32,70.25L87.34,70.30L87.34,70.37L87.32,70.44L87.29,70.51L87.24,70.57L87.22,70.59L87.19,70.61L87.15,70.63L87.13,70.64L87.08,70.64L87.04,70.62L87.01,70.58L87.01,70.54"/><path style="stroke:#000000;stroke-width:0.088" d="M87.30,70.23L87.28,70.21"/><path style="stroke:#000000;stroke-width:0.088" d="M89.39,68.67L89.38,68.75L89.36,68.83L89.32,68.92L89.26,68.99L89.20,69.04L89.13,69.07L89.07,69.08L89.02,69.05L88.99,69.00L88.98,68.93L89.00,68.85L89.03,68.76L89.08,68.68L89.14,68.62L89.21,68.57L89.27,68.56L89.33,68.57L89.37,68.61L89.39,68.67"/><path style="stroke:#000000;stroke-width:0.088" d="M88.99,68.91L88.99,68.95L89.02,68.99L89.06,69.01L89.11,69.01L89.12,69.01L89.16,68.99L89.22,68.94L89.26,68.88L89.30,68.81L89.32,68.74L89.32,68.67L89.30,68.62L89.28,68.60L89.25,68.59"/><path style="stroke:#000000;stroke-width:0.088" d="M89.28,68.60L89.27,68.59L89.22,68.58L89.18,68.59"/><path style="stroke:#000000;stroke-width:0.088" d="M92.94,65.68L92.95,65.75L92.98,65.80L93.03,65.82L93.09,65.82L93.15,65.79L93.22,65.73L93.27,65.66L93.32,65.58L93.34,65.49L93.34,65.41L93.32,65.35L93.28,65.31L93.23,65.30L93.16,65.32L93.09,65.36L93.03,65.43L92.98,65.51L92.95,65.59L92.94,65.68"/><path style="stroke:#000000;stroke-width:0.088" d="M92.94,65.66L92.95,65.70L92.97,65.74L93.01,65.76L93.06,65.76L93.12,65.73L93.17,65.69L93.22,65.63L93.25,65.56L93.26,65.51L93.27,65.48L93.27,65.42L93.26,65.37L93.22,65.34L93.18,65.33L93.13,65.34"/><path style="stroke:#000000;stroke-width:0.088" d="M93.00,65.75L92.97,65.74"/><path style="stroke:#000000;stroke-width:0.088" d="M94.92,64.05L94.93,63.97L94.96,63.88L95.01,63.80L95.07,63.74L95.14,63.69L95.20,63.68L95.26,63.69L95.30,63.73L95.32,63.79L95.32,63.86L95.29,63.95L95.25,64.03L95.20,64.11L95.13,64.16L95.06,64.19L95.00,64.20L94.96,64.17L94.93,64.12L94.92,64.05"/><path style="stroke:#000000;stroke-width:0.088" d="M95.11,63.71L95.15,63.70L95.20,63.71L95.23,63.74L95.25,63.79L95.25,63.86L95.23,63.93L95.20,64.00L95.15,64.06L95.09,64.11L95.04,64.13L94.99,64.13L94.95,64.11L94.92,64.07L94.92,64.03"/><path style="stroke:#000000;stroke-width:0.088" d="M94.95,64.11L94.97,64.12"/><path style="stroke:#000000;stroke-width:0.088" d="M127.06,76.35L127.55,67.98L128.90,68.76L127.78,87.92L127.88,89.11L128.00,89.36L128.32,90.00L129.04,90.50L127.70,89.73L127.11,89.32"/><path style="stroke:#000000;stroke-width:0.088" d="M127.78,87.92L127.15,87.55"/><path style="stroke:#000000;stroke-width:0.088" d="M127.51,71.10L127.53,71.26L127.59,71.42L127.68,71.57L127.79,71.68L127.91,71.76L128.03,71.78L128.13,71.75L128.21,71.67L128.25,71.55L128.25,71.50L128.25,71.40L128.21,71.24L128.14,71.08L128.03,70.95L127.92,70.85L127.79,70.80L127.68,70.81L127.59,70.86L127.53,70.96L127.51,71.10"/><path style="stroke:#000000;stroke-width:0.088" d="M127.76,69.41L127.71,69.33L127.65,69.17L127.63,69.01L127.65,68.88L127.71,68.77L127.76,68.75L127.80,68.72L127.92,68.71L128.04,68.76L128.16,68.86L128.26,68.99L128.33,69.15L128.37,69.31L128.37,69.41L128.37,69.46L128.33,69.58L128.25,69.66L128.15,69.69L128.03,69.67L127.91,69.59L127.80,69.48L127.76,69.41"/><path style="stroke:#000000;stroke-width:0.088" d="M127.55,67.98L127.60,67.72L127.71,67.45L127.76,67.37L127.87,67.20L128.06,66.99L128.27,66.85L136.17,62.92L136.38,62.86L136.56,62.88L137.90,63.66L137.72,63.64L137.52,63.70L136.17,62.92"/><path style="stroke:#000000;stroke-width:0.088" d="M128.51,86.32L128.51,86.46L128.54,86.58L128.61,86.65L128.71,86.67L128.81,86.65L128.83,86.64L128.95,86.57L129.07,86.45L129.16,86.30L129.22,86.15L129.24,85.99L129.23,85.86L129.17,85.77L129.09,85.72L128.98,85.72L128.85,85.78L128.74,85.88L128.63,86.01L128.55,86.16L128.51,86.32"/><path style="stroke:#000000;stroke-width:0.088" d="M128.83,85.79L128.82,85.91L128.75,86.07L128.66,86.21L128.55,86.33L128.51,86.36"/><path style="stroke:#000000;stroke-width:0.088" d="M128.27,66.85L129.62,67.62L129.41,67.77L129.22,67.97L129.06,68.23L128.95,68.50L128.90,68.76"/><path style="stroke:#000000;stroke-width:0.088" d="M137.55,74.33L143.68,71.28L144.55,71.15L144.68,71.18L145.89,71.88L145.90,71.92L141.40,88.78L129.99,90.57L129.04,90.50"/><path style="stroke:#000000;stroke-width:0.088" d="M128.66,85.97L128.64,86.03L128.57,86.13"/><path style="stroke:#000000;stroke-width:0.088" d="M129.62,67.62L137.52,63.70"/><path style="stroke:#000000;stroke-width:0.088" d="M130.69,85.05L130.79,85.03L130.81,85.02L130.93,84.94L131.04,84.82L131.14,84.68L131.20,84.52L131.22,84.37L131.21,84.24L131.15,84.14L131.06,84.09L130.95,84.10L130.83,84.15L130.71,84.25L130.61,84.38L130.53,84.54L130.49,84.69L130.48,84.84L130.52,84.95L130.59,85.02L130.69,85.05"/><path style="stroke:#000000;stroke-width:0.088" d="M130.81,84.17L130.79,84.29L130.73,84.44L130.64,84.59L130.53,84.71L130.49,84.73"/><path style="stroke:#000000;stroke-width:0.088" d="M130.55,84.50L130.62,84.40L130.64,84.34"/><path style="stroke:#000000;stroke-width:0.088" d="M137.52,75.13L138.14,75.48L137.93,75.55L137.75,75.53L137.61,75.43L137.53,75.25L137.51,75.02L138.14,64.17L138.13,63.94L138.04,63.76L137.90,63.66"/><path style="stroke:#000000;stroke-width:0.088" d="M138.14,75.48L145.03,72.06L143.68,71.28"/><path style="stroke:#000000;stroke-width:0.088" d="M138.11,74.20L138.02,74.25L137.96,74.33L137.95,74.43L138.00,74.52L138.10,74.60L138.24,74.66L138.41,74.69L138.58,74.69L138.74,74.67L138.87,74.61L138.96,74.54L139.00,74.45L138.98,74.35L138.90,74.27L138.78,74.20L138.62,74.15L138.45,74.13L138.28,74.14L138.14,74.18L138.11,74.20"/><path style="stroke:#000000;stroke-width:0.088" d="M138.20,74.64L138.26,74.63L138.42,74.61L138.60,74.63L138.72,74.67"/><path style="stroke:#000000;stroke-width:0.088" d="M145.03,72.06L145.90,71.92"/><path style="stroke:#000000;stroke-width:0.088" d="M54.76,81.66L56.11,82.43L56.59,83.83L57.39,84.87L58.29,85.41L57.11,84.73L56.04,84.09L55.24,83.05L54.76,81.66L45.76,37.98L45.75,37.75L45.80,37.48L45.91,37.22L46.07,36.97L46.26,36.77L46.47,36.63L47.82,37.41L47.61,37.55L47.42,37.75L47.26,38.00L47.15,38.26L47.11,38.47L47.10,38.52L47.11,38.76L45.76,37.98"/><path style="stroke:#000000;stroke-width:0.088" d="M47.11,41.25L47.06,41.21L46.94,41.09L46.84,40.95L46.77,40.80L46.74,40.67L46.74,40.56L46.79,40.50L46.87,40.48L46.98,40.51L47.10,40.58L47.25,40.72L47.34,40.83L47.42,40.97L47.48,41.14L47.49,41.23L47.46,41.32L47.40,41.36L47.30,41.36L47.18,41.31L47.11,41.25"/><path style="stroke:#000000;stroke-width:0.088" d="M46.46,39.10L46.56,39.25L46.68,39.37L46.81,39.47L46.92,39.52L47.02,39.52L47.08,39.48L47.11,39.40L47.10,39.27L47.05,39.13L46.96,38.99L46.85,38.85L46.72,38.74L46.60,38.67L46.49,38.64L46.41,38.66L46.36,38.72L46.36,38.83L46.39,38.96L46.46,39.10"/><path style="stroke:#000000;stroke-width:0.088" d="M46.47,36.63L57.77,31.02L57.98,30.95L58.16,30.97L59.51,31.75L59.33,31.73L59.12,31.80L47.82,37.41"/><path style="stroke:#000000;stroke-width:0.088" d="M56.11,82.43L47.11,38.76"/><path style="stroke:#000000;stroke-width:0.088" d="M48.71,49.27L48.63,49.22L48.56,49.16L48.50,49.08L48.46,49.01L48.44,48.93L48.43,48.88L48.46,48.84L48.50,48.82L48.55,48.83L48.62,48.86L48.69,48.92L48.75,48.99L48.80,49.07L48.83,49.14L48.85,49.21L48.84,49.26L48.80,49.29L48.76,49.29L48.71,49.27"/><path style="stroke:#000000;stroke-width:0.088" d="M48.84,49.18L48.84,49.20L48.81,49.22L48.77,49.22L48.71,49.20L48.61,49.11L48.52,48.99L48.50,48.93L48.50,48.88L48.52,48.85L48.56,48.83"/><path style="stroke:#000000;stroke-width:0.088" d="M49.51,40.89L49.35,40.97L49.18,41.00L49.05,40.94L48.95,40.82L48.93,40.69L48.92,40.65L48.94,40.43L49.01,40.20L49.14,39.98L49.29,39.80L49.47,39.67L49.64,39.61L49.80,39.62L49.91,39.71L49.98,39.86L49.99,40.10L49.94,40.29L49.84,40.51L49.70,40.72L49.51,40.89"/><path style="stroke:#000000;stroke-width:0.088" d="M51.85,64.82L51.79,64.81L51.75,64.82L51.73,64.86L51.73,64.92L51.75,64.99L51.79,65.07L51.85,65.14L51.97,65.24L52.05,65.27L52.10,65.27L52.13,65.24L52.14,65.19L52.13,65.13L52.09,65.05L52.04,64.97L51.98,64.90L51.91,64.85L51.85,64.82"/><path style="stroke:#000000;stroke-width:0.088" d="M52.13,65.16L52.13,65.18L52.10,65.20L52.06,65.21L52.00,65.18L51.90,65.10L51.85,65.04L51.81,64.97L51.80,64.91L51.79,64.86L51.81,64.83L51.85,64.82"/><path style="stroke:#000000;stroke-width:0.088" d="M55.10,80.79L55.04,80.81L55.02,80.85L55.02,80.90L55.04,80.98L55.09,81.05L55.14,81.13L55.27,81.23L55.34,81.26L55.39,81.26L55.42,81.23L55.43,81.18L55.42,81.11L55.38,81.04L55.33,80.96L55.27,80.89L55.20,80.83L55.14,80.80L55.10,80.79"/><path style="stroke:#000000;stroke-width:0.088" d="M55.42,81.15L55.42,81.17L55.39,81.19L55.35,81.19L55.29,81.17L55.19,81.08L55.11,80.96L55.09,80.90L55.09,80.85L55.10,80.82L55.14,80.80"/><path style="stroke:#000000;stroke-width:0.088" d="M55.29,35.65L55.26,35.47L55.28,35.25L55.35,35.02L55.48,34.81L55.64,34.62L55.81,34.49L55.99,34.43L56.14,34.45L56.25,34.54L56.32,34.69L56.33,34.93L56.28,35.11L56.18,35.34L56.04,35.54L55.87,35.70L55.69,35.80L55.52,35.82L55.39,35.77L55.29,35.65"/><path style="stroke:#000000;stroke-width:0.088" d="M57.02,53.22L56.95,53.27L56.88,53.28L56.82,53.26L56.78,53.22L56.76,53.15L56.77,53.06L56.79,52.96L56.84,52.87L56.91,52.79L56.98,52.74L57.05,52.71L57.12,52.71L57.17,52.74L57.20,52.80L57.20,52.88L57.19,52.98L57.15,53.07L57.09,53.16L57.02,53.22"/><path style="stroke:#000000;stroke-width:0.088" d="M58.29,85.41L58.46,85.51L59.75,85.71L61.18,85.47L62.70,84.79L67.29,82.14L67.29,75.92L67.32,75.66L67.42,75.39L67.57,75.13L67.76,74.91L67.96,74.75L71.00,73.00L71.00,78.06L71.67,78.45L71.67,73.39L71.64,73.17L71.54,73.01L71.39,72.92L71.20,72.92L71.00,73.00L71.67,73.39"/><path style="stroke:#000000;stroke-width:0.088" d="M59.12,31.80L57.77,31.02"/><path style="stroke:#000000;stroke-width:0.088" d="M58.92,51.64L58.86,51.65L58.80,51.64L58.76,51.59L58.74,51.52L58.74,51.43L58.77,51.34L58.82,51.25L58.88,51.17L58.96,51.11L59.03,51.08L59.09,51.08L59.14,51.12L59.17,51.18L59.18,51.26L59.16,51.35L59.12,51.44L59.07,51.53L59.00,51.60L58.92,51.64"/><path style="stroke:#000000;stroke-width:0.088" d="M59.51,31.75L59.65,31.86L59.73,32.03L59.75,32.27L59.37,38.69L59.39,38.92L59.47,39.10L59.61,39.20L59.79,39.23L60.00,39.16L61.17,38.58L61.38,38.51L61.56,38.53L60.21,37.76L60.03,37.74L59.83,37.80L59.41,38.00"/><path style="stroke:#000000;stroke-width:0.088" d="M59.38,38.81L60.00,39.16"/><path style="stroke:#000000;stroke-width:0.088" d="M59.83,37.80L61.17,38.58"/><path style="stroke:#000000;stroke-width:0.088" d="M61.56,38.53L61.70,38.64L61.78,38.81L61.80,39.05L61.11,50.78L61.21,51.96L61.65,52.86L62.38,53.36L63.32,53.43L61.97,52.65L63.31,52.44"/><path style="stroke:#000000;stroke-width:0.088" d="M61.97,52.65L61.53,52.62"/><path style="stroke:#000000;stroke-width:0.088" d="M63.32,53.43L68.86,52.56L67.74,51.91"/><path style="stroke:#000000;stroke-width:0.088" d="M72.68,72.22L73.62,76.77L73.63,76.99L73.58,77.24L73.48,77.50L73.34,77.74L73.16,77.94L72.96,78.09L67.29,81.36"/><path style="stroke:#000000;stroke-width:0.088" d="M67.29,80.62L67.32,80.56L67.39,80.48L67.46,80.43L67.53,80.40L67.60,80.40L67.64,80.44L67.67,80.50L67.68,80.58L67.66,80.67L67.62,80.76L67.56,80.85L67.49,80.92L67.42,80.96L67.35,80.97L67.29,80.95"/><path style="stroke:#000000;stroke-width:0.088" d="M67.29,80.69L67.35,80.61L67.39,80.51L67.40,80.47"/><path style="stroke:#000000;stroke-width:0.088" d="M67.87,51.89L69.06,52.57L69.21,52.68L69.29,52.88L72.68,69.33L72.68,77.86L71.67,78.45"/><path style="stroke:#000000;stroke-width:0.088" d="M68.86,52.56L69.06,52.57"/><path style="stroke:#000000;stroke-width:0.088" d="M71.35,78.26L71.32,78.31L71.29,78.41L71.28,78.50L71.30,78.57L71.34,78.62L71.39,78.64L71.46,78.62L71.54,78.58L71.61,78.51L71.66,78.44"/><path style="stroke:#000000;stroke-width:0.088" d="M71.29,78.41L71.34,78.36L71.39,78.28"/><path style="stroke:#000000;stroke-width:0.088" d="M87.02,100.70L87.03,100.79L87.00,100.86L86.94,100.89L86.86,100.89L86.76,100.84L82.04,98.12L81.93,98.04L81.83,97.94L81.74,97.82L81.67,97.70L81.63,97.58L74.77,64.25L74.76,64.16L74.79,64.09L74.85,64.06L74.93,64.07L75.03,64.11L79.75,66.83L79.86,66.91L79.96,67.01L80.05,67.13L80.12,67.25L80.16,67.37L80.29,67.26L87.15,100.59L87.02,100.70L80.16,67.37"/><path style="stroke:#000000;stroke-width:0.088" d="M74.79,64.09L74.92,63.98L74.98,63.95L75.06,63.96L75.17,64.00L75.03,64.11"/><path style="stroke:#000000;stroke-width:0.088" d="M75.80,65.45L75.75,65.43L75.68,65.38L75.61,65.31L75.55,65.22L75.51,65.14L75.49,65.08"/><path style="stroke:#000000;stroke-width:0.088" d="M75.62,65.54L75.69,65.57L75.75,65.58L75.79,65.55L75.80,65.50L75.80,65.45L75.77,65.36L75.71,65.27L75.65,65.19L75.58,65.13L75.50,65.09L75.44,65.07L75.39,65.08L75.36,65.12L75.36,65.18L75.38,65.25L75.42,65.33L75.48,65.42L75.55,65.49L75.62,65.54"/><path style="stroke:#000000;stroke-width:0.088" d="M75.17,64.00L79.88,66.72L79.99,66.80L80.09,66.90L80.18,67.02L80.25,67.14L80.29,67.26"/><path style="stroke:#000000;stroke-width:0.088" d="M78.79,81.07L78.80,81.13L78.84,81.21L78.90,81.29L78.97,81.36L79.05,81.42L79.09,81.44"/><path style="stroke:#000000;stroke-width:0.088" d="M78.77,81.40L78.84,81.47L78.91,81.53L78.98,81.56L79.04,81.56L79.08,81.54L79.10,81.49L79.09,81.42L79.06,81.34L79.01,81.26L78.94,81.18L78.87,81.11L78.80,81.07L78.73,81.05L78.68,81.06L78.65,81.10L78.65,81.16L78.67,81.24L78.71,81.32L78.77,81.40"/><path style="stroke:#000000;stroke-width:0.088" d="M79.73,67.91L79.79,67.91L79.83,67.89L79.85,67.84L79.84,67.77L79.81,67.69L79.76,67.61L79.69,67.53L79.62,67.46L79.58,67.44L79.55,67.42L79.48,67.40L79.43,67.41L79.41,67.45L79.40,67.51L79.42,67.58L79.46,67.67L79.52,67.75L79.59,67.82L79.66,67.88L79.73,67.91"/><path style="stroke:#000000;stroke-width:0.088" d="M79.54,67.42L79.55,67.48L79.59,67.56L79.65,67.64L79.72,67.71L79.80,67.77L79.84,67.79"/><path style="stroke:#000000;stroke-width:0.088" d="M79.75,66.83L79.88,66.72"/><path style="stroke:#000000;stroke-width:0.088" d="M82.24,97.53L82.21,97.51L82.13,97.46L82.06,97.39L82.00,97.30L81.96,97.22L81.94,97.14L81.95,97.09L81.98,97.05L82.02,97.04L82.09,97.06L82.16,97.10L82.23,97.16L82.30,97.24L82.35,97.33L82.38,97.42L82.39,97.47L82.37,97.52L82.33,97.55L82.28,97.54L82.24,97.53"/><path style="stroke:#000000;stroke-width:0.088" d="M82.38,97.42L82.34,97.40L82.26,97.35L82.19,97.28L82.14,97.19L82.09,97.11L82.08,97.05"/><path style="stroke:#000000;stroke-width:0.088" d="M83.14,83.78L83.10,83.68L83.05,83.59L82.98,83.51L82.91,83.45L82.84,83.41L82.78,83.39L82.73,83.40L82.70,83.44L82.69,83.49L82.71,83.57L82.75,83.65L82.81,83.73L82.88,83.81L82.96,83.86L83.03,83.89L83.08,83.90L83.12,83.87L83.14,83.82L83.14,83.78L83.09,83.75L83.02,83.70L82.94,83.63L82.89,83.54L82.84,83.46L82.83,83.40"/><path style="stroke:#000000;stroke-width:0.088" d="M86.18,99.79L86.11,99.72L86.05,99.64L86.01,99.55L85.99,99.48L85.99,99.42L86.02,99.38L86.07,99.37L86.13,99.39L86.20,99.43L86.28,99.50L86.34,99.58L86.39,99.66L86.42,99.74L86.43,99.81L86.41,99.86L86.38,99.88L86.32,99.88L86.25,99.85L86.18,99.79"/><path style="stroke:#000000;stroke-width:0.088" d="M86.43,99.76L86.38,99.74L86.31,99.68L86.24,99.61L86.18,99.53L86.14,99.45L86.12,99.39"/><path style="stroke:#000000;stroke-width:0.088" d="M87.15,100.59L87.16,100.68L87.13,100.75L87.00,100.86"/><path style="stroke:#000000;stroke-width:0.088" d="M104.35,88.29L104.48,88.18L104.51,88.11L104.50,88.02L104.37,88.13L104.38,88.22L104.35,88.29L104.29,88.32L104.20,88.32L104.10,88.27L99.39,85.55L99.28,85.47L99.18,85.37L99.09,85.25L99.02,85.13L98.98,85.01L95.62,68.69L95.61,68.59L95.64,68.53L95.70,68.49L95.78,68.50L95.88,68.54L96.02,68.44L95.92,68.39L95.83,68.39L95.77,68.42L95.64,68.53"/><path style="stroke:#000000;stroke-width:0.088" d="M96.61,70.66L96.54,70.60L96.47,70.53L96.41,70.45L96.37,70.36L96.35,70.29L96.35,70.23L96.38,70.19L96.43,70.18L96.50,70.20L96.57,70.24L96.64,70.31L96.71,70.39L96.76,70.47L96.79,70.56L96.79,70.62L96.78,70.67L96.74,70.69L96.68,70.69L96.61,70.66"/><path style="stroke:#000000;stroke-width:0.088" d="M96.79,70.57L96.74,70.55L96.67,70.49L96.60,70.42L96.54,70.34L96.50,70.26L96.49,70.20"/><path style="stroke:#000000;stroke-width:0.088" d="M95.88,68.54L100.60,71.27L100.71,71.34L100.81,71.45L100.90,71.56L100.97,71.69L101.01,71.81L104.37,88.13"/><path style="stroke:#000000;stroke-width:0.088" d="M96.02,68.44L100.73,71.16L100.84,71.24L100.94,71.34L101.03,71.46L101.10,71.58L101.14,71.69L101.01,71.80"/><path style="stroke:#000000;stroke-width:0.088" d="M99.29,83.80L99.30,83.86L99.34,83.94L99.40,84.03L99.47,84.10L99.55,84.15L99.59,84.17"/><path style="stroke:#000000;stroke-width:0.088" d="M99.48,84.29L99.41,84.26L99.34,84.21L99.27,84.13L99.21,84.05L99.17,83.97L99.15,83.89L99.16,83.83L99.18,83.80L99.23,83.79L99.30,83.81L99.37,83.85L99.44,83.91L99.51,83.99L99.56,84.07L99.59,84.16L99.60,84.22L99.58,84.27L99.54,84.30L99.48,84.29"/><path style="stroke:#000000;stroke-width:0.088" d="M100.53,72.53L100.54,72.59L100.58,72.67L100.64,72.76L100.71,72.83L100.79,72.88L100.83,72.90"/><path style="stroke:#000000;stroke-width:0.088" d="M100.58,72.94L100.51,72.86L100.45,72.78L100.41,72.70L100.39,72.62L100.40,72.57L100.43,72.53L100.47,72.52L100.54,72.54L100.61,72.58L100.68,72.64L100.75,72.72L100.80,72.81L100.83,72.89L100.84,72.95L100.82,73.00L100.78,73.03L100.72,73.02L100.66,72.99L100.58,72.94"/><path style="stroke:#000000;stroke-width:0.088" d="M100.60,71.27L100.73,71.16"/><path style="stroke:#000000;stroke-width:0.088" d="M104.50,88.02L101.14,71.69"/><path style="stroke:#000000;stroke-width:0.088" d="M103.33,86.14L103.35,86.19L103.39,86.28L103.45,86.36L103.52,86.43L103.59,86.49L103.64,86.51"/><path style="stroke:#000000;stroke-width:0.088" d="M103.21,86.30L103.19,86.23L103.20,86.17L103.23,86.13L103.28,86.12L103.34,86.14L103.41,86.18L103.49,86.25L103.55,86.33L103.60,86.41L103.64,86.50L103.64,86.56L103.62,86.61L103.58,86.63L103.53,86.63L103.46,86.60L103.38,86.54L103.31,86.47L103.26,86.39L103.21,86.30"/><path style="stroke:#000000;stroke-width:0.088" d="M61.19,49.47L61.82,49.84L61.92,51.02L62.35,51.92L63.08,52.42L61.74,51.64L61.15,51.24"/><path style="stroke:#000000;stroke-width:0.088" d="M61.82,49.84L62.94,30.68L61.59,29.90L61.10,38.27"/><path style="stroke:#000000;stroke-width:0.088" d="M62.20,33.82L62.09,33.72L61.99,33.58L61.92,33.42L61.89,33.26L61.89,33.19L61.90,33.12L61.95,33.00L62.03,32.93L62.13,32.91L62.26,32.94L62.28,32.96L62.38,33.03L62.48,33.15L62.57,33.30L62.62,33.46L62.63,33.62L62.60,33.75L62.53,33.84L62.44,33.89L62.32,33.88L62.20,33.82"/><path style="stroke:#000000;stroke-width:0.088" d="M62.28,31.70L62.21,31.63L62.11,31.49L62.04,31.33L62.01,31.17L62.01,31.10L62.02,31.03L62.07,30.91L62.15,30.84L62.26,30.82L62.38,30.85L62.50,30.94L62.61,31.06L62.69,31.21L62.74,31.37L62.75,31.53L62.72,31.66L62.66,31.75L62.56,31.80L62.45,31.79L62.32,31.73L62.28,31.70"/><path style="stroke:#000000;stroke-width:0.088" d="M62.94,30.68L62.99,30.41L63.10,30.14L63.26,29.89L63.45,29.68L63.66,29.54L62.31,28.76L62.10,28.91L61.91,29.11L61.75,29.37L61.64,29.64L61.59,29.90"/><path style="stroke:#000000;stroke-width:0.088" d="M63.08,48.18L63.07,48.21L63.01,48.29L62.93,48.36L62.87,48.39L62.79,48.40L62.74,48.37L62.70,48.32L62.69,48.24L62.70,48.15L62.74,48.06L62.79,47.97L62.86,47.90L62.93,47.85L63.00,47.83L63.06,47.84L63.11,47.88L63.13,47.94L63.13,48.02L63.11,48.12L63.08,48.18"/><path style="stroke:#000000;stroke-width:0.088" d="M62.96,42.84L62.83,42.91L62.70,42.93L62.60,42.89L62.53,42.80L62.52,42.74L62.50,42.67L62.52,42.51L62.58,42.33L62.67,42.17L62.78,42.03L62.92,41.94L63.05,41.89L63.16,41.90L63.25,41.97L63.30,42.08L63.31,42.23L63.30,42.26L63.27,42.40L63.19,42.57L63.09,42.72L62.96,42.84"/><path style="stroke:#000000;stroke-width:0.088" d="M62.31,28.76L70.21,24.84L71.56,25.62L63.66,29.54"/><path style="stroke:#000000;stroke-width:0.088" d="M71.56,25.62L71.76,25.56L71.94,25.58L72.08,25.68L72.17,25.86L72.18,26.09L71.55,36.93L71.57,37.17L71.65,37.34L71.79,37.45L71.97,37.47L72.17,37.40L79.07,33.98L79.94,33.84L75.44,50.70L64.03,52.49L63.08,52.42"/><path style="stroke:#000000;stroke-width:0.088" d="M64.68,46.67L64.67,46.62L64.68,46.53L64.71,46.43L64.77,46.34L64.83,46.27L64.91,46.22L64.98,46.20L65.04,46.21L65.09,46.25L65.11,46.31L65.11,46.40L65.09,46.49L65.04,46.58L64.98,46.67L64.91,46.73L64.85,46.76L64.77,46.77L64.72,46.75L64.68,46.69L64.68,46.67"/><path style="stroke:#000000;stroke-width:0.088" d="M64.06,33.51L64.17,33.55L64.34,33.53L64.52,33.43L64.69,33.27L64.83,33.07L64.93,32.84L64.98,32.66L64.98,32.62L64.97,32.42L64.90,32.27L64.79,32.18L64.64,32.17L64.46,32.23L64.29,32.36L64.13,32.54L64.00,32.76L63.93,32.99L63.91,33.20L63.94,33.38L64.04,33.50L64.06,33.51"/><path style="stroke:#000000;stroke-width:0.088" d="M70.25,28.02L70.27,27.81L70.34,27.58L70.47,27.36L70.63,27.18L70.80,27.05L70.98,26.99L71.13,27.00L71.24,27.09L71.31,27.24L71.32,27.44L71.32,27.48L71.27,27.67L71.17,27.89L71.03,28.10L70.86,28.26L70.68,28.35L70.51,28.38L70.38,28.32L70.28,28.20L70.25,28.02"/><path style="stroke:#000000;stroke-width:0.088" d="M71.94,25.58L70.60,24.80L70.42,24.78L70.21,24.84"/><path style="stroke:#000000;stroke-width:0.088" d="M70.68,49.79L70.58,49.80L70.49,49.80L70.42,49.75L70.37,49.67L70.36,49.55L70.38,49.42L70.72,48.12L70.78,47.99L70.85,47.86L70.95,47.75L71.05,47.68L71.16,47.64L75.27,47.00L75.36,47.00L75.44,47.05L75.48,47.13L75.49,47.25L75.47,47.38L75.13,48.67L75.08,48.81L75.00,48.94L74.90,49.04L74.80,49.12L74.70,49.16L70.68,49.79"/><path style="stroke:#000000;stroke-width:0.088" d="M70.58,49.80L70.39,49.69"/><path style="stroke:#000000;stroke-width:0.088" d="M70.44,49.18L73.82,48.65L74.70,49.16"/><path style="stroke:#000000;stroke-width:0.088" d="M76.19,43.54L72.08,44.19L71.99,44.18L71.91,44.13L71.87,44.05L71.86,43.93L71.88,43.80L72.22,42.51L72.27,42.37L72.35,42.24L72.45,42.14L72.55,42.06L72.65,42.02L73.62,41.87L76.77,41.38L76.86,41.38L76.93,41.43L76.98,41.52L76.99,41.63L76.97,41.76L76.63,43.06L76.58,43.19L76.50,43.32L76.40,43.43L76.30,43.50L76.19,43.54L75.32,43.03L71.94,43.56"/><path style="stroke:#000000;stroke-width:0.088" d="M71.56,37.05L72.17,37.40"/><path style="stroke:#000000;stroke-width:0.088" d="M71.59,36.25L77.72,33.20L79.07,33.98"/><path style="stroke:#000000;stroke-width:0.088" d="M72.08,44.19L71.88,44.07"/><path style="stroke:#000000;stroke-width:0.088" d="M72.64,41.00L72.73,41.12L72.87,41.18L73.04,41.15L73.21,41.06L73.38,40.90L73.53,40.69L73.63,40.47L73.67,40.28L73.68,40.24L73.67,40.04L73.60,39.89L73.49,39.80L73.33,39.79L73.16,39.85L72.98,39.98L72.82,40.16L72.70,40.38L72.62,40.61L72.60,40.82L72.64,41.00"/><path style="stroke:#000000;stroke-width:0.088" d="M72.47,36.70L72.50,36.72L72.65,36.78L72.82,36.81L72.99,36.80L73.15,36.77L73.27,36.71L73.35,36.63L73.37,36.54L73.34,36.45L73.26,36.37L73.13,36.30L72.97,36.26L72.80,36.24L72.63,36.26L72.49,36.31L72.38,36.38L72.33,36.46L72.34,36.56L72.39,36.65L72.47,36.70"/><path style="stroke:#000000;stroke-width:0.088" d="M73.10,36.78L72.94,36.74L72.77,36.73L72.60,36.74L72.58,36.75"/><path style="stroke:#000000;stroke-width:0.088" d="M73.82,48.65L73.92,48.61L74.03,48.54L74.12,48.43L74.20,48.30L74.25,48.17L74.53,47.11"/><path style="stroke:#000000;stroke-width:0.088" d="M74.25,48.17L75.13,48.67"/><path style="stroke:#000000;stroke-width:0.088" d="M74.84,48.09L74.77,48.04L74.72,47.96L74.68,47.87L74.67,47.77L74.68,47.67L74.71,47.59L74.77,47.52L74.83,47.49L74.91,47.49L74.98,47.52L75.05,47.58L75.10,47.67L75.12,47.76L75.13,47.87L75.10,47.96L75.06,48.03L74.99,48.08L74.92,48.10L74.84,48.09"/><path style="stroke:#000000;stroke-width:0.088" d="M75.47,47.38L74.91,47.05"/><path style="stroke:#000000;stroke-width:0.088" d="M74.33,38.31L74.53,38.42L77.69,37.92L77.80,37.88L77.90,37.81L78.00,37.70L78.07,37.58L78.12,37.44L78.47,36.14L77.91,35.82"/><path style="stroke:#000000;stroke-width:0.088" d="M74.53,38.42L74.43,38.41L74.36,38.37L74.33,38.30L74.32,38.28L74.30,38.17L74.33,38.04L74.67,36.74L74.72,36.60L74.80,36.48L74.89,36.37L75.00,36.29L75.10,36.26L78.27,35.76L78.36,35.77L78.43,35.81L78.48,35.90L78.49,36.01L78.47,36.14"/><path style="stroke:#000000;stroke-width:0.088" d="M77.69,37.92L76.82,37.42L74.39,37.80"/><path style="stroke:#000000;stroke-width:0.088" d="M75.32,43.03L75.42,43.00L75.53,42.92L75.62,42.81L75.70,42.69L75.75,42.55L76.03,41.49"/><path style="stroke:#000000;stroke-width:0.088" d="M75.75,42.55L76.63,43.06"/><path style="stroke:#000000;stroke-width:0.088" d="M76.56,42.42L76.49,42.47L76.42,42.48L76.34,42.47L76.27,42.42L76.22,42.35L76.18,42.25L76.16,42.15L76.17,42.06L76.21,41.97L76.26,41.91L76.33,41.87L76.41,41.87L76.48,41.90L76.55,41.96L76.60,42.05L76.62,42.15L76.62,42.25L76.60,42.34L76.56,42.42"/><path style="stroke:#000000;stroke-width:0.088" d="M76.97,41.76L76.41,41.44"/><path style="stroke:#000000;stroke-width:0.088" d="M76.82,37.42L76.92,37.38L77.02,37.30L77.12,37.20L77.20,37.07L77.25,36.93L77.53,35.88"/><path style="stroke:#000000;stroke-width:0.088" d="M77.25,36.93L78.12,37.44"/><path style="stroke:#000000;stroke-width:0.088" d="M77.84,36.85L77.77,36.80L77.71,36.73L77.68,36.64L77.66,36.54L77.67,36.44L77.71,36.35L77.76,36.29L77.83,36.25L77.91,36.25L77.98,36.29L78.05,36.35L78.09,36.43L78.12,36.53L78.12,36.63L78.10,36.72L78.05,36.80L77.99,36.85L77.92,36.87L77.84,36.85"/><path style="stroke:#000000;stroke-width:0.088" d="M79.94,33.84L79.93,33.79L78.72,33.09L78.59,33.06L77.72,33.20"/><path style="stroke:#000000;stroke-width:0.088" d="M111.72,76.06L120.72,119.74L121.20,121.13L122.00,122.17L123.07,122.81L124.42,123.59L123.35,122.95L122.55,121.91L122.07,120.52L113.07,76.84L111.72,76.06L111.71,75.83L111.76,75.57L111.87,75.30L112.03,75.05L112.22,74.85L112.43,74.71L113.78,75.49L125.08,69.88L123.73,69.10L112.43,74.71"/><path style="stroke:#000000;stroke-width:0.088" d="M112.59,79.00L112.49,78.88L112.41,78.73L112.37,78.60L112.36,78.48L112.39,78.40L112.47,78.37L112.57,78.38L112.69,78.44L112.81,78.54L112.93,78.67L113.02,78.81L113.09,78.96L113.11,79.09L113.10,79.18L113.04,79.24L112.96,79.25L112.84,79.21L112.72,79.13L112.59,79.00"/><path style="stroke:#000000;stroke-width:0.088" d="M112.59,77.41L112.47,77.37L112.34,77.29L112.22,77.18L112.11,77.04L112.03,76.89L111.99,76.76L111.98,76.64L112.02,76.56L112.09,76.53L112.19,76.54L112.30,76.60L112.43,76.70L112.55,76.83L112.65,76.97L112.71,77.12L112.74,77.25L112.72,77.34L112.67,77.40L112.59,77.41"/><path style="stroke:#000000;stroke-width:0.088" d="M113.07,76.84L113.06,76.60L113.11,76.34L113.22,76.08L113.38,75.83L113.57,75.63L113.78,75.49"/><path style="stroke:#000000;stroke-width:0.088" d="M114.81,87.30L114.79,87.35L114.76,87.37L114.70,87.37L114.64,87.34L114.57,87.29L114.51,87.22L114.45,87.15L114.41,87.07L114.39,87.00L114.40,86.97L114.40,86.95L114.42,86.91L114.47,86.90L114.53,86.92L114.59,86.96L114.66,87.02L114.72,87.09L114.77,87.17L114.80,87.24L114.81,87.30"/><path style="stroke:#000000;stroke-width:0.088" d="M114.52,86.92L114.49,86.92L114.46,86.95L114.46,87.00L114.48,87.06L114.56,87.18L114.61,87.24L114.67,87.28L114.72,87.30L114.76,87.30L114.79,87.29L114.80,87.26"/><path style="stroke:#000000;stroke-width:0.088" d="M117.93,103.33L118.00,103.35L118.05,103.36L118.08,103.33L118.10,103.27L118.09,103.22L118.06,103.15L118.01,103.07L117.95,103.00L117.89,102.94L117.82,102.90L117.76,102.89L117.72,102.90L117.69,102.93L117.69,102.99L117.71,103.06L117.74,103.13L117.80,103.21L117.86,103.28L117.93,103.33"/><path style="stroke:#000000;stroke-width:0.088" d="M118.09,103.24L118.08,103.27L118.05,103.29L118.01,103.29L117.96,103.27L117.90,103.22L117.85,103.17L117.80,103.11L117.77,103.04L117.75,102.98L117.76,102.94L117.78,102.91L117.81,102.90"/><path style="stroke:#000000;stroke-width:0.088" d="M120.72,119.74L122.07,120.52"/><path style="stroke:#000000;stroke-width:0.088" d="M121.18,118.93L121.25,118.99L121.31,119.06L121.37,119.17L121.39,119.27L121.38,119.32L121.34,119.34L121.29,119.34L121.22,119.31L121.16,119.26L121.09,119.19L121.04,119.12L121.00,119.04L120.98,118.97L120.98,118.92L121.01,118.88L121.05,118.87L121.11,118.89L121.18,118.93"/><path style="stroke:#000000;stroke-width:0.088" d="M121.38,119.23L121.38,119.26L121.35,119.27L121.30,119.27L121.25,119.25L121.19,119.21L121.14,119.15L121.09,119.09L121.06,119.03L121.05,118.97L121.05,118.92L121.07,118.89L121.10,118.89"/><path style="stroke:#000000;stroke-width:0.088" d="M122.58,91.21L122.58,91.35L122.61,91.46L122.69,91.53L122.79,91.55L122.91,91.52L123.03,91.44L123.14,91.32L123.23,91.18L123.29,91.02L123.31,90.87L123.29,90.74L123.24,90.65L123.15,90.60L123.04,90.61L122.92,90.66L122.80,90.76L122.69,90.90L122.62,91.05L122.58,91.21"/><path style="stroke:#000000;stroke-width:0.088" d="M122.90,90.68L122.89,90.78L122.83,90.94L122.74,91.09L122.62,91.21L122.58,91.24"/><path style="stroke:#000000;stroke-width:0.088" d="M122.64,91.01L122.71,90.90L122.73,90.85"/><path style="stroke:#000000;stroke-width:0.088" d="M123.73,69.10L123.94,69.04L124.12,69.06L125.47,69.84L125.29,69.81L125.08,69.88"/><path style="stroke:#000000;stroke-width:0.088" d="M124.42,123.59L125.71,123.79L127.14,123.55L128.66,122.87L128.66,122.87"/><path style="stroke:#000000;stroke-width:0.088" d="M124.71,89.23L124.69,89.28L124.63,89.36L124.67,89.27L124.77,89.14L124.89,89.04L125.01,88.98L125.13,88.97L125.21,89.02L125.27,89.11L125.29,89.24L125.27,89.39L125.21,89.55L125.12,89.69L125.01,89.81L124.88,89.89L124.77,89.93L124.66,89.91L124.59,89.84L124.55,89.72L124.55,89.58L124.60,89.43L124.63,89.36L124.62,89.38"/><path style="stroke:#000000;stroke-width:0.088" d="M124.88,89.05L124.86,89.16L124.80,89.31L124.71,89.46L124.60,89.58L124.55,89.61"/><path style="stroke:#000000;stroke-width:0.088" d="M125.34,76.89L125.96,77.24L125.75,77.31L125.57,77.29L125.43,77.18L125.35,77.01L125.33,76.77L125.71,70.35L125.69,70.12L125.61,69.94L125.47,69.84"/><path style="stroke:#000000;stroke-width:0.088" d="M125.96,77.24L127.13,76.66L127.34,76.60L127.52,76.62L127.66,76.72L127.74,76.90L127.76,77.13L127.07,88.86L127.17,90.05L127.61,90.94L128.34,91.44L129.28,91.51L127.93,90.73L127.49,90.70"/><path style="stroke:#000000;stroke-width:0.088" d="M127.52,76.62L126.17,75.84L125.99,75.82L125.79,75.88L125.37,76.09"/><path style="stroke:#000000;stroke-width:0.088" d="M125.79,75.88L127.13,76.66"/><path style="stroke:#000000;stroke-width:0.088" d="M127.93,90.73L129.27,90.52"/><path style="stroke:#000000;stroke-width:0.088" d="M128.66,122.87L139.59,116.56L139.79,116.41L139.97,116.21L140.12,115.97L140.22,115.71L140.26,115.46L140.25,115.24L135.25,90.96L135.17,90.77L135.02,90.65L134.82,90.64L129.28,91.51"/><path style="stroke:#000000;stroke-width:0.088" d="M133.73,119.28L133.77,119.12L133.85,118.97L133.95,118.84L134.07,118.74L134.19,118.68L134.30,118.68L134.39,118.73L134.45,118.82L134.46,118.95L134.44,119.11L134.38,119.26L134.29,119.41L134.17,119.53L134.03,119.61L133.93,119.63L133.83,119.61L133.76,119.54L133.72,119.42L133.73,119.28"/><path style="stroke:#000000;stroke-width:0.088" d="M134.05,118.75L134.03,118.87L133.97,119.03L133.88,119.17L133.77,119.29L133.73,119.32"/><path style="stroke:#000000;stroke-width:0.088" d="M133.88,118.93L133.86,118.99L133.79,119.09"/><path style="stroke:#000000;stroke-width:0.088" d="M134.82,90.64L133.70,89.99"/><path style="stroke:#000000;stroke-width:0.088" d="M133.83,89.97L135.02,90.65"/><path style="stroke:#000000;stroke-width:0.088" d="M137.93,117.29L137.98,117.30L138.07,117.28L138.22,117.19L138.33,117.07L138.42,116.93L138.48,116.77L138.51,116.62L138.49,116.49L138.43,116.39L138.35,116.35L138.24,116.35L138.12,116.40L138.01,116.49L137.89,116.64L137.81,116.79L137.77,116.95L137.77,117.09L137.80,117.20L137.88,117.28L137.93,117.29"/><path style="stroke:#000000;stroke-width:0.088" d="M138.10,116.42L138.08,116.54L138.02,116.69L137.92,116.84L137.81,116.96L137.77,116.98"/><path style="stroke:#000000;stroke-width:0.088" d="M137.92,116.60L137.90,116.65L137.83,116.75"/><path style="fill:#ffffff" d="M170.86,87.42L197.27,87.42L197.27,81.77L170.86,81.77z"/><path style="stroke:#35414c;stroke-width:0.255" d="M170.86,87.42L197.27,87.42L197.27,81.77L170.86,81.77z"/><path style="stroke:#35404c;stroke-width:0.250;stroke-opacity:0.00" d="M170.86,87.42L197.27,87.42L197.27,81.77L170.86,81.77z"/><text xml:space="preserve" fill="#333f4b" stroke-width="0" x="171.57" y="85.83" font-size="3.49" opacity="1.00" font-family="Arial" font-weight="bold" font-style="italic">F24978870A</text><path style="fill:#ffffff" d="M170.86,67.34L197.27,67.34L197.27,61.70L170.86,61.70z"/><path style="stroke:#35414c;stroke-width:0.255" d="M170.86,67.34L197.27,67.34L197.27,61.70L170.86,61.70z"/><path style="stroke:#35404c;stroke-width:0.250;stroke-opacity:0.00" d="M170.86,67.34L197.27,67.34L197.27,61.70L170.86,61.70z"/><text xml:space="preserve" fill="#333f4b" stroke-width="0" x="171.57" y="65.75" font-size="3.49" opacity="1.00" font-family="Arial" font-weight="bold" font-style="italic">F24978868A</text><path style="fill:#ffffff" d="M170.86,97.46L197.27,97.46L197.27,91.81L170.86,91.81z"/><path style="stroke:#35414c;stroke-width:0.255" d="M170.86,97.46L197.27,97.46L197.27,91.81L170.86,91.81z"/><path style="stroke:#35404c;stroke-width:0.250;stroke-opacity:0.00" d="M170.86,97.46L197.27,97.46L197.27,91.81L170.86,91.81z"/><text xml:space="preserve" fill="#333f4b" stroke-width="0" x="171.57" y="95.87" font-size="3.49" opacity="1.00" font-family="Arial" font-weight="bold" font-style="italic">F24978871A</text><path style="fill:#ffffff" d="M170.86,117.27L197.27,117.27L197.27,111.62L170.86,111.62z"/><path style="stroke:#35414c;stroke-width:0.255" d="M170.86,117.27L197.27,117.27L197.27,111.62L170.86,111.62z"/><path style="stroke:#35404c;stroke-width:0.250;stroke-opacity:0.00" d="M170.86,117.27L197.27,117.27L197.27,111.62L170.86,111.62z"/><text xml:space="preserve" fill="#333f4b" stroke-width="0" x="171.57" y="115.68" font-size="3.56" opacity="1.00" font-family="Arial" font-weight="bold" font-style="italic">F24978873X</text><path style="fill:#ffffff" d="M170.86,77.38L197.27,77.38L197.27,71.74L170.86,71.74z"/><path style="stroke:#35414c;stroke-width:0.255" d="M170.86,77.38L197.27,77.38L197.27,71.74L170.86,71.74z"/><path style="stroke:#35404c;stroke-width:0.250;stroke-opacity:0.00" d="M170.86,77.38L197.27,77.38L197.27,71.74L170.86,71.74z"/><text xml:space="preserve" fill="#333f4b" stroke-width="0" x="171.57" y="75.79" font-size="3.49" opacity="1.00" font-family="Arial" font-weight="bold" font-style="italic">F24978869A</text><path style="fill:#ffffff" d="M170.86,47.27L197.27,47.27L197.27,41.62L170.86,41.62z"/><path style="stroke:#35414c;stroke-width:0.255" d="M170.86,47.27L197.27,47.27L197.27,41.62L170.86,41.62z"/><path style="stroke:#35404c;stroke-width:0.250;stroke-opacity:0.00" d="M170.86,47.27L197.27,47.27L197.27,41.62L170.86,41.62z"/><text xml:space="preserve" fill="#333f4b" stroke-width="0" x="171.57" y="45.68" font-size="3.56" opacity="1.00" font-family="Arial" font-weight="bold" font-style="italic">F24978866X</text><path style="fill:#ffffff" d="M170.86,37.23L197.27,37.23L197.27,31.59L170.86,31.59z"/><path style="stroke:#35414c;stroke-width:0.255" d="M170.86,37.23L197.27,37.23L197.27,31.59L170.86,31.59z"/><path style="stroke:#35404c;stroke-width:0.250;stroke-opacity:0.00" d="M170.86,37.23L197.27,37.23L197.27,31.59L170.86,31.59z"/><text xml:space="preserve" fill="#333f4b" stroke-width="0" x="171.57" y="35.64" font-size="3.56" opacity="1.00" font-family="Arial" font-weight="bold" font-style="italic">F24002021X</text><path style="fill:#ffffff" d="M170.86,57.30L197.27,57.30L197.27,51.66L170.86,51.66z"/><path style="stroke:#35414c;stroke-width:0.255" d="M170.86,57.30L197.27,57.30L197.27,51.66L170.86,51.66z"/><path style="stroke:#35404c;stroke-width:0.250;stroke-opacity:0.00" d="M170.86,57.30L197.27,57.30L197.27,51.66L170.86,51.66z"/><text xml:space="preserve" fill="#333f4b" stroke-width="0" x="171.57" y="55.72" font-size="3.49" opacity="1.00" font-family="Arial" font-weight="bold" font-style="italic">F24978867A</text><path style="fill:#ffffff" d="M170.86,107.23L197.27,107.23L197.27,101.59L170.86,101.59z"/><path style="stroke:#35414c;stroke-width:0.255" d="M170.86,107.23L197.27,107.23L197.27,101.59L170.86,101.59z"/><path style="stroke:#35404c;stroke-width:0.250;stroke-opacity:0.00" d="M170.86,107.23L197.27,107.23L197.27,101.59L170.86,101.59z"/><text xml:space="preserve" fill="#333f4b" stroke-width="0" x="171.57" y="105.64" font-size="3.49" opacity="1.00" font-family="Arial" font-weight="bold" font-style="italic">F24978872A</text><g id="paperID" visibility="hidden" opacity="0.00" transform="scale(0.000100)"><path style="stroke:#000000;stroke-width:0.500;fill:#e6e6e6;fill-rule:evenodd" d="M-2000.00,-2000.00L2210.00,-2000.00L2210.00,2150.00L-2000.00,2150.00zM0.00,0.00L210.00,0.00L210.00,150.00L0.00,150.00z"/><path style="fill:#000000;fill-opacity:0.118" d="M3.00,150.00L210.00,150.00L210.00,3.00L213.00,3.00L213.00,153.00L3.00,153.00z"/></g><g id="hotspot.0" onmouseover="ShowHotSpot(evt,'0')" onmouseout="HideHotSpot(evt,'0')" onmousemove="ShowToolTip(evt,'0',&quot;F24002021&quot;)" opacity="0"><path style="fill:#00ff00;fill-rule:evenodd" d="M197.53,32.02L197.52,37.18L197.23,37.68L170.80,37.61L170.80,31.86L197.26,31.75zM87.35,52.68L87.39,53.26L86.98,53.73L86.29,53.74L82.06,51.33L82.06,50.37L82.50,49.98L82.85,49.98zM81.05,57.93L81.04,58.55L80.64,59.01L79.98,59.00L75.63,56.42L75.68,55.62L75.91,55.29L76.78,55.28z"/></g><g id="hotspot.1" onmouseover="ShowHotSpot(evt,'1')" onmouseout="HideHotSpot(evt,'1')" onmousemove="ShowToolTip(evt,'1',&quot;F24978868A&quot;)" opacity="0"><path style="fill:#00ff00;fill-rule:evenodd" d="M70.96,25.17L72.04,25.96L71.76,34.25L71.76,36.39L77.74,33.36L78.90,33.36L79.92,33.88L75.46,50.90L65.33,52.39L62.77,52.40L61.12,51.41L61.75,38.89L61.11,38.46L61.73,29.50L63.31,28.44L70.47,24.92zM197.53,62.13L197.52,67.29L197.23,67.80L170.80,67.72L170.80,61.97L197.26,61.87z"/></g><g id="hotspot.2" onmouseover="ShowHotSpot(evt,'2')" onmouseout="HideHotSpot(evt,'2')" onmousemove="ShowToolTip(evt,'2',&quot;F24978869A&quot;)" opacity="0"><path style="fill:#00ff00;fill-rule:evenodd" d="M96.09,62.94L96.08,63.85L86.72,71.68L85.78,71.67L83.65,70.35L83.65,69.12L93.07,61.34L93.68,61.35zM197.53,72.17L197.52,77.33L197.23,77.83L170.80,77.76L170.80,72.01L197.26,71.91z"/></g><g id="hotspot.3" onmouseover="ShowHotSpot(evt,'3')" onmouseout="HideHotSpot(evt,'3')" onmousemove="ShowToolTip(evt,'3',&quot;F24978870A&quot;)" opacity="0"><path style="fill:#00ff00;fill-rule:evenodd" d="M197.53,82.21L197.52,87.36L197.23,87.87L170.80,87.80L170.80,82.05L197.26,81.94zM102.93,93.86L104.79,95.16L104.77,96.59L101.78,98.08L101.32,98.68L98.87,100.19L97.63,100.21L94.13,98.18L94.22,96.59L100.73,92.77L101.08,92.78z"/></g><g id="hotspot.4" onmouseover="ShowHotSpot(evt,'4')" onmouseout="HideHotSpot(evt,'4')" onmousemove="ShowToolTip(evt,'4',&quot;F24978871A&quot;)" opacity="0"><path style="fill:#00ff00;fill-rule:evenodd" d="M59.64,32.03L59.53,37.97L60.17,37.87L61.75,38.89L61.37,45.79L61.19,51.61L61.44,52.67L65.16,52.48L68.07,52.11L68.60,52.39L69.40,53.43L72.55,68.77L72.82,73.00L73.64,77.31L73.24,78.00L67.46,81.46L67.26,82.32L62.16,85.14L60.59,85.68L58.80,85.69L56.20,84.33L55.38,83.30L54.58,80.93L45.86,38.66L45.84,37.39L47.72,36.10L57.68,31.23L58.29,31.23zM197.53,92.24L197.52,97.40L197.23,97.91L170.80,97.84L170.80,92.09L197.26,91.98z"/></g><g id="hotspot.5" onmouseover="ShowHotSpot(evt,'5')" onmouseout="HideHotSpot(evt,'5')" onmousemove="ShowToolTip(evt,'5',&quot;F24978872A&quot;)" opacity="0"><path style="fill:#00ff00;fill-rule:evenodd" d="M125.65,70.09L125.56,75.99L126.45,76.16L127.79,76.94L127.23,86.82L127.20,90.46L127.41,90.78L133.05,90.24L133.83,90.13L135.17,90.95L139.38,111.04L140.20,115.88L139.92,116.42L131.99,121.16L126.90,123.73L124.31,123.73L122.20,122.41L121.14,121.08L119.83,115.53L111.91,76.96L111.88,75.43L113.41,74.31L123.71,69.27L124.32,69.27zM197.53,102.02L197.52,107.18L197.23,107.68L170.80,107.61L170.80,101.86L197.26,101.75z"/></g><g id="hotspot.6" onmouseover="ShowHotSpot(evt,'6')" onmouseout="HideHotSpot(evt,'6')" onmousemove="ShowToolTip(evt,'6',&quot;F24978873X&quot;)" opacity="0"><path style="fill:#00ff00;fill-rule:evenodd" d="M100.03,70.88L101.09,71.66L104.44,88.33L103.99,88.35L99.24,85.66L98.44,82.51L95.70,68.76L96.32,68.73zM197.53,112.06L197.52,117.21L197.23,117.72L170.80,117.65L170.80,111.90L197.26,111.79z"/></g><g id="hotspot.7" onmouseover="ShowHotSpot(evt,'7')" onmouseout="HideHotSpot(evt,'7')" onmousemove="ShowToolTip(evt,'7',&quot;F24978866X&quot;)" opacity="0"><path style="fill:#00ff00;fill-rule:evenodd" d="M197.53,42.06L197.52,47.21L197.23,47.72L170.80,47.65L170.80,41.90L197.26,41.79zM80.23,67.16L87.09,100.83L86.27,100.76L81.80,98.09L76.51,72.73L74.83,64.27L75.45,64.24z"/></g><g id="hotspot.8" onmouseover="ShowHotSpot(evt,'8')" onmouseout="HideHotSpot(evt,'8')" onmousemove="ShowToolTip(evt,'8',&quot;F24978867A&quot;)" opacity="0"><path style="fill:#00ff00;fill-rule:evenodd" d="M197.53,52.09L197.52,57.25L197.23,57.76L170.80,57.69L170.80,51.94L197.26,51.83zM138.09,63.99L137.80,70.97L137.80,74.43L143.77,71.40L144.94,71.40L145.72,71.95L145.73,72.81L141.42,88.86L131.64,90.43L128.57,90.41L127.23,89.63L127.23,86.82L127.80,76.94L127.15,76.51L127.66,67.70L128.99,66.65L135.86,63.20L136.75,63.20z"/></g></g></svg>
