<?xml version="1.0" encoding="UTF-8" standalone="no"?>
<svg xmlns="http://www.w3.org/2000/svg" xmlns:xlink="http://www.w3.org/1999/xlink" width="210.000mm" height="150.000mm" viewBox="0.000000 0.000000 210.000000 150.000000" stroke-linejoin="round" stroke-linecap="round" fill="none" fill-rule="evenodd"><desc>Composer Export</desc><script type="text/ecmascript"><![CDATA[
if(typeof(top) != "undefined")
{
	top.ShowPaper = ShowPaper;
}
function ShowHotSpot(evt,hotspotid)
{
	var svgDocument = evt.target.ownerDocument;
	var strId = "hotspot."+hotspotid;
	var hotspot = svgDocument.getElementById(strId);
	if(hotspot)
		hotspot.setAttribute("opacity",".5");
}
function HideHotSpot(evt,hotspotid)
{
	var svgDocument = evt.target.ownerDocument;
	var strId = "hotspot."+hotspotid;
	var hotspot = svgDocument.getElementById(strId);
	if(hotspot)
		hotspot.setAttribute("opacity","0");

	var toolTip = svgDocument.getElementById('ToolTip');
	if(toolTip)
		toolTip.setAttribute("visibility","hidden");
}
function ShowToolTip(evt,hotspotid,strTooltip)
{
	if(strTooltip=="")
	return;

	// change text
	var svgDocument = evt.target.ownerDocument;
	var tiptext = svgDocument.getElementById('ToolTipText');
	if( !tiptext )
	return;
	tiptext.firstChild.nodeValue = " " + strTooltip + "  " ;

	// show tooltip before, else some refresh issue

	var toolTip = svgDocument.getElementById('ToolTip');
	if(!toolTip)
	return;

	toolTip.setAttribute("visibility","visible");
	toolTip.setAttribute("opacity",".95");

	// move tooltip
	// get viewbox

	var root = svgDocument.documentElement;
	var vbox = (root.getAttribute("viewBox")).split(' ');
	var x0 = parseFloat(vbox[0]);
	var y0 = parseFloat(vbox[1]);
	var vboxW = parseFloat(vbox[2]);
	var vboxH = parseFloat(vbox[3]);

	// get default width of svg

	var strW = root.getAttribute("width");
	var svgW = parseFloat(strW);
	if(strW.indexOf('mm') != -1)
	svgW *= 3.779;

	var strH = root.getAttribute("height");
	var svgH = parseFloat(strH);
	if(strH.indexOf('mm') != -1)
	svgH *= 3.779;  	// 96 dpi  -> 96/25.4 = 3.779

	// update the viewbox / width / height if svg is embedded in html with zoom fit all
	var realx0 = x0;
	var realy0 = y0;
	var realvboxW = vboxW;
	var realvboxH = vboxH;
	var realsvgW = svgW;
	var realsvgH = svgH;

	if ((typeof(top) == "undefined") || (typeof(top.svgctl1) != "undefined")) // embedded in html
	{
		// get window size in pxl

		svgW = window.innerWidth;
		svgH = window.innerHeight;

		// calculate real viewbox

		realsvgW = svgW;
		realsvgH = svgH;
		if((svgW / svgH) > (vboxW / vboxH))
		{
			realvboxW = (vboxH * svgW) / svgH;
			realvboxH = vboxH;
			realx0 = x0 - (realvboxW - vboxW)/2 ;
		}
		else
		{
			realvboxH = (vboxW * svgH) / svgW;
			realvboxW = vboxW;
			realy0 = y0 - (realvboxH - vboxH)/2 ;
		}
	}

	// get user zoom/pan

	var newScale = root.currentScale;
	var translation = root.currentTranslate;

	// transform pxl to user unit

	var xPos = (((evt.clientX+10- translation.x)/newScale) * realvboxW)/realsvgW  + realx0 ;
	var yPos = (((evt.clientY+5- translation.y)/newScale) * realvboxH)/ realsvgH  + realy0 ;
	var scaleForWidth = ( (1 / newScale) * realvboxH) / realsvgH;

	// move tooltip

	toolTip.setAttribute("transform", "translate(" + xPos + "," + yPos + ")" );

	// resize tooltip

	var fontsize = 12;
	tiptext.setAttribute("font-size",fontsize*scaleForWidth);
	tiptext.setAttribute("y", fontsize*scaleForWidth);
	var tipBG = svgDocument.getElementById('ToolTipBG');
	var outline = tiptext.getBBox();
	if(tipBG)
	{
		tipBG.setAttribute("stroke-width", 1*scaleForWidth);
		tipBG.setAttribute("width", Number(outline.width) );
		tipBG.setAttribute("height", Number(outline.height) + fontsize*.5*scaleForWidth );
	}
	var ToolTipShadow = svgDocument.getElementById('ToolTipShadow');
	if(ToolTipShadow)
	{
		ToolTipShadow.setAttribute("width", Number(outline.width) );
		ToolTipShadow.setAttribute("height", Number(outline.height) + fontsize*.5*scaleForWidth );
		ToolTipShadow.setAttribute("x", 3*scaleForWidth);
		ToolTipShadow.setAttribute("y", 3*scaleForWidth);
	}
}
function ShowPaper()
{
  var svgDocument = getDocument();
  var paper = svgDocument.getElementById("paperID");
  if(paper)
  {
    paper.setAttribute("transform","scale(1)");
    paper.setAttribute("opacity","1");
    paper.setAttribute("visibility","visible");
  }
  var svg = svgDocument.getRootElement();
  if(svg)
  {
    svg.setAttribute("width","220.000mm");
    svg.setAttribute("height","160.000mm");
    svg.setAttribute("viewBox","-5.000000 -5.000000 220.000000 160.000000");
  }
}
]]></script><defs/><g><path style="fill:#ffffff" d="M209.93,149.99L0.04,149.99L0.04,0.04L209.93,0.04z"/><path style="fill:#4c4c4c" d="M102.73,93.30L102.93,94.49L104.36,94.44L106.52,94.57L108.05,94.95L109.57,95.84L110.47,96.83L110.71,97.36L110.96,99.26L110.96,101.46L110.58,102.47L109.77,103.43L109.12,103.90L108.95,100.37L109.58,99.68L109.46,99.37L108.93,98.88L107.80,98.24L106.27,97.87L103.82,97.87L103.10,98.03L103.11,99.14L102.97,99.55L101.84,100.06L100.77,100.77L101.59,101.28L102.97,101.67L105.85,101.67L106.42,101.63L106.52,102.81L106.54,104.92L106.27,105.00L100.02,105.85L99.55,105.86L98.81,105.46L97.91,104.71L97.79,103.94L96.64,103.82L95.88,103.19L95.75,102.43L95.75,99.93L95.84,99.51L96.39,99.40L96.10,99.30L96.13,98.66L96.38,97.73L96.40,95.89L96.72,95.44L97.28,95.58L97.66,95.88L97.66,94.11L98.12,93.56L98.37,93.42L102.34,93.04z"/><path style="fill:#8aa7bf" d="M78.27,53.39L80.05,54.27L80.17,54.78L80.17,58.37L79.66,62.17L76.49,63.32L73.29,64.29L72.56,64.29L69.53,63.15L66.98,62.01L66.72,61.77L66.63,60.19L66.61,58.50L67.07,54.61L67.20,53.90L71.06,52.47L71.17,52.97L70.88,53.00L69.86,53.64L69.15,54.45L68.83,55.62L68.86,56.08L68.93,56.14L69.01,56.94L69.15,57.44L69.90,58.21L71.04,58.85L72.18,59.10L74.05,59.09L75.32,58.85L76.70,58.07L77.35,57.45L77.77,56.61L77.68,55.85L77.64,54.65L77.14,53.89L76.24,53.13L75.16,52.72L75.17,52.08z"/><path style="fill:#ffffff" d="M107.80,98.24L108.93,98.88L109.46,99.37L109.58,99.68L108.95,100.37L108.81,99.76L108.17,98.99L107.88,99.00L106.36,99.52L106.42,101.63L105.85,101.67L102.97,101.67L101.59,101.28L100.77,100.77L101.84,100.06L102.97,99.55L103.11,99.14L103.10,98.03L103.82,97.87L106.27,97.87z"/><path style="fill:#ff0000" d="M108.81,99.76L108.95,100.37L109.12,103.90L109.18,108.42L108.90,108.52L108.80,108.93L108.81,111.81L109.31,122.45L109.44,127.31L108.38,127.70L107.54,109.91L107.42,109.14L106.99,109.06L107.05,108.43L107.16,108.25L106.77,107.76L106.65,105.47L106.54,104.92L106.52,102.81L106.42,101.63L106.36,99.52L107.88,99.00L108.17,98.99z"/><path style="fill:#95dce0" d="M126.43,43.62L126.42,65.35L125.05,67.64L113.82,74.17L113.38,74.17L109.95,72.14L109.94,58.11L114.13,50.78L111.72,49.33L102.22,43.89L102.10,41.47L101.58,40.85L95.88,37.55L95.88,33.16L100.52,30.45L103.74,30.45z"/><path style="fill:#95dce0" d="M88.40,46.30L89.30,47.81L89.30,51.29L82.53,59.60L81.89,59.59L79.29,63.20L79.27,67.25L80.55,93.56L80.67,94.57L80.81,99.57L79.88,100.01L80.04,102.81L80.05,106.28L79.43,107.05L75.19,108.52L74.46,108.51L73.45,108.26L72.33,107.61L71.68,107.11L71.29,105.98L71.05,101.66L69.15,99.13L69.02,97.61L68.83,93.92L69.79,93.49L68.64,68.98L68.52,68.21L67.61,66.96L67.38,64.53L66.48,63.03L66.36,61.88L66.36,60.53L66.63,60.19L66.72,61.77L66.98,62.01L69.53,63.15L72.56,64.29L73.29,64.29L76.49,63.32L79.66,62.17L80.17,58.37L80.17,54.78L80.05,54.27L78.27,53.39L75.17,52.08L74.86,46.89L74.85,46.29L74.34,45.66L73.33,45.28L72.52,45.28L71.77,45.54L71.00,46.17L70.85,46.88L71.06,52.47L67.20,53.90L67.07,54.61L66.87,54.27L66.87,50.78L72.82,43.42L75.60,42.87z"/><path style="fill:#95dce0" d="M76.24,53.13L77.14,53.89L77.64,54.65L77.68,55.85L77.35,56.44L76.51,57.25L75.31,57.83L74.30,58.08L71.93,58.08L70.91,57.83L69.79,57.18L69.15,56.55L68.93,56.14L68.88,55.67L68.83,55.62L69.15,54.45L69.86,53.64L70.88,53.00L71.17,52.97L71.24,53.35L71.29,55.30L71.43,55.66L71.93,56.05L72.69,56.31L73.79,56.31L74.55,56.05L75.10,55.59L75.23,55.34L75.22,53.13L75.14,53.06L75.16,52.72z"/><path style="fill:#f9840c" d="M120.60,122.19L120.84,127.14L120.97,128.40L121.11,128.52L121.35,129.17L121.47,131.58L121.73,132.46L121.98,136.26L122.11,137.15L122.24,140.11L121.68,140.81L120.93,141.08L119.70,141.08L118.95,140.69L118.68,140.33L118.56,138.67L118.44,133.85L118.44,132.63L118.56,131.87L118.55,128.82L118.82,128.45L118.64,122.06L119.15,121.68L120.22,121.68z"/><path style="fill:#01ff02" d="M71.44,47.55L72.18,47.82L73.41,47.82L74.17,47.56L74.72,47.09L74.86,46.89L75.17,52.08L75.16,52.72L75.14,53.06L74.97,53.30L74.43,53.77L73.67,54.03L72.56,54.03L71.80,53.77L71.24,53.35L71.17,52.97L71.06,52.47L70.85,46.88z"/><path style="fill:#01ff02" d="M68.93,56.14L68.86,56.08L68.83,55.62L68.88,55.67z"/><path style="fill:#01ff02" d="M69.15,56.55L69.79,57.18L70.91,57.83L71.93,58.08L74.30,58.08L75.31,57.83L76.51,57.25L77.35,56.44L77.68,55.85L77.77,56.61L77.35,57.45L76.70,58.07L75.32,58.85L74.05,59.09L72.18,59.10L71.04,58.85L69.90,58.21L69.15,57.44L69.01,56.94L68.93,56.14z"/><path style="fill:#01ff02" d="M69.02,65.17L69.52,66.57L69.52,67.64L69.28,67.59L68.77,66.94L68.38,65.81L68.34,64.91L68.77,64.91z"/><path style="fill:#01ff02" d="M70.79,97.74L71.18,99.39L71.04,99.82L70.80,99.78L70.28,99.01L69.90,97.87L69.91,96.62L70.15,96.60z"/><path style="fill:#8aa7bf" d="M72.83,16.51L73.83,16.90L74.85,17.65L75.61,19.17L76.11,29.44L76.12,32.66L75.73,33.28L74.98,33.93L73.80,34.52L73.03,34.64L70.91,34.64L69.66,34.25L68.78,33.61L68.38,33.12L68.25,32.74L68.13,31.85L67.58,19.56L67.74,18.70L68.71,17.39L69.48,16.90L70.49,16.51L71.93,16.39z"/><path style="fill:#8aa7bf" d="M74.34,45.66L74.85,46.29L74.86,46.89L74.72,47.09L74.17,47.56L73.41,47.82L72.18,47.82L71.44,47.55L70.85,46.88L71.00,46.17L71.77,45.54L72.52,45.28L73.33,45.28z"/><path style="fill:#8aa7bf" d="M71.80,53.77L72.56,54.03L73.67,54.03L74.43,53.77L74.97,53.30L75.14,53.06L75.22,53.13L75.23,55.34L75.10,55.59L74.55,56.05L73.79,56.31L72.69,56.31L71.93,56.05L71.43,55.66L71.29,55.30L71.24,53.35z"/><path style="fill:#ffffff" d="M83.98,51.28L82.97,52.56L82.45,53.05L81.78,53.27L81.25,53.26L82.78,51.49L83.42,51.23z"/><path style="stroke:#000000;stroke-width:0.088" d="M72.73,61.25L70.39,60.15L66.58,58.68L66.73,61.84L68.18,62.54L72.89,64.40L74.12,64.07L79.66,62.16L79.94,60.21L80.29,57.36L80.14,54.21L80.02,54.97L79.51,59.01L76.61,59.83L72.73,61.25L72.89,64.40"/><path style="stroke:#000000;stroke-width:0.088" d="M66.58,58.68L66.78,56.98L67.20,53.88L69.10,53.15L71.08,52.48L71.14,52.47"/><path style="stroke:#000000;stroke-width:0.088" d="M71.08,52.48L69.23,53.22L67.83,54.29L67.02,55.58L66.90,56.95L67.48,58.25L68.70,59.34L70.42,60.10L72.16,60.40L72.46,60.45L74.59,60.35L76.59,59.82L78.24,58.90L79.36,57.70L79.83,56.36L79.84,56.43"/><path style="stroke:#000000;stroke-width:0.088" d="M68.18,62.54L70.00,63.33L70.47,63.44"/><path style="stroke:#000000;stroke-width:0.088" d="M68.89,56.42L68.89,56.45L68.90,56.49"/><path style="stroke:#000000;stroke-width:0.088" d="M69.91,58.21L69.84,58.18L69.61,57.91"/><path style="stroke:#000000;stroke-width:0.088" d="M69.05,57.07L69.14,57.37L69.17,57.41"/><path style="stroke:#000000;stroke-width:0.088" d="M70.54,58.57L70.93,58.78L71.01,58.80"/><path style="stroke:#000000;stroke-width:0.088" d="M71.84,59.01L72.28,59.12L72.36,59.12"/><path style="stroke:#000000;stroke-width:0.088" d="M73.83,59.13L73.75,59.15L73.28,59.14"/><path style="stroke:#000000;stroke-width:0.088" d="M74.72,58.96L75.17,58.87L75.24,58.84"/><path style="stroke:#000000;stroke-width:0.088" d="M79.83,56.36L79.59,55.00L79.22,54.37L78.68,53.79L77.19,52.85L75.38,52.14L75.16,52.06"/><path style="stroke:#000000;stroke-width:0.088" d="M77.19,52.85L75.29,52.29L75.17,52.28"/><path style="stroke:#000000;stroke-width:0.088" d="M76.94,63.10L76.16,63.46L75.59,63.57"/><path style="stroke:#000000;stroke-width:0.088" d="M76.01,58.49L76.39,58.32L76.44,58.27"/><path style="stroke:#000000;stroke-width:0.088" d="M77.02,57.78L77.29,57.54L77.32,57.49"/><path style="stroke:#000000;stroke-width:0.088" d="M77.62,56.91L77.76,56.64L77.76,56.59"/><path style="stroke:#000000;stroke-width:0.088" d="M77.74,55.68L77.75,55.70L77.75,56.04"/><path style="stroke:#000000;stroke-width:0.088" d="M77.56,53.09L80.14,54.21"/><path style="stroke:#000000;stroke-width:0.088" d="M79.66,62.16L79.51,59.01"/><path style="stroke:#000000;stroke-width:0.088" d="M72.00,55.73L71.25,54.73L71.28,54.99L71.52,55.38L71.94,55.70L72.00,55.73L71.93,54.24L71.17,53.24L71.19,53.07L71.21,53.04"/><path style="stroke:#000000;stroke-width:0.088" d="M71.17,53.24L71.26,55.11"/><path style="stroke:#000000;stroke-width:0.088" d="M71.87,45.48L71.47,45.75L71.22,46.08L71.16,46.44L71.28,46.79L71.32,46.85L71.57,47.09L72.00,47.31L72.53,47.43L72.97,47.42L73.10,47.42L73.64,47.30L74.10,47.08L74.42,46.77L74.58,46.42L74.55,46.06L74.34,45.73L73.97,45.46L73.49,45.29L72.93,45.24L72.37,45.30L71.87,45.48L71.69,45.56L71.23,45.88L70.94,46.27L70.86,46.70L70.87,47.03L71.15,52.84L71.27,53.26L71.59,53.63L71.87,53.78L72.08,53.90L72.70,54.05L73.36,54.07L74.01,53.94L74.56,53.69L74.97,53.34L74.72,53.67L74.37,53.96L73.90,54.18L73.35,54.28L72.79,54.27L72.27,54.14L71.85,53.91L71.59,53.63"/><path style="stroke:#000000;stroke-width:0.088" d="M73.97,45.46L74.18,45.54L74.62,45.86L74.72,45.97L74.87,46.25L74.90,46.67L74.71,47.09L74.50,47.29L74.33,47.45L73.79,47.71L73.15,47.86L72.48,47.86L71.86,47.73L71.35,47.47L71.00,47.11L70.86,46.70"/><path style="stroke:#000000;stroke-width:0.088" d="M71.93,54.24L72.44,54.42L73.09,54.49L73.75,54.43L74.36,54.23L74.83,53.92L75.14,53.53L75.23,53.15L75.13,53.02"/><path style="stroke:#000000;stroke-width:0.088" d="M75.23,53.15L75.30,54.64L75.30,54.59L75.30,54.59"/><path style="stroke:#000000;stroke-width:0.088" d="M75.32,54.97L75.30,54.59"/><path style="stroke:#000000;stroke-width:0.088" d="M75.18,52.69L75.03,49.46L75.18,52.50L75.18,52.93L74.97,53.34"/><path style="stroke:#000000;stroke-width:0.088" d="M75.14,51.89L75.07,50.27"/><path style="stroke:#000000;stroke-width:0.088" d="M74.90,46.67L75.03,49.46L75.01,49.05"/><path style="stroke:#000000;stroke-width:0.088" d="M70.29,65.32L70.05,65.39L70.30,70.51L67.53,66.82L67.42,64.55"/><path style="stroke:#000000;stroke-width:0.088" d="M67.96,64.69L67.95,65.09L68.04,65.65L68.21,66.27L68.44,66.87L68.71,67.39L68.98,67.77L69.24,67.97L69.45,67.97L69.58,67.76L69.63,67.38L69.63,67.23L69.59,66.86L69.46,66.26L69.26,65.64L69.01,65.07L68.94,64.95"/><path style="stroke:#000000;stroke-width:0.088" d="M71.48,96.74L72.56,97.20L71.59,97.52L71.84,102.63L69.07,98.95L68.82,93.84L70.20,95.68L70.36,95.87L71.48,96.74L72.99,97.33L74.74,97.55L76.54,97.40L77.84,96.99L78.18,96.88L79.50,96.06L80.35,95.02L80.64,93.87L80.51,93.42"/><path style="stroke:#000000;stroke-width:0.088" d="M68.82,93.84L69.79,93.52L69.80,93.49"/><path style="stroke:#000000;stroke-width:0.088" d="M71.04,65.52L71.26,70.19L72.98,70.51L74.81,70.46L76.52,70.02L77.95,69.25L78.92,68.24L79.26,67.30L80.54,93.87L80.25,95.00L79.42,96.02L78.13,96.83L76.51,97.34L74.75,97.49L73.03,97.27L71.55,96.69L70.45,95.83L70.30,95.65L69.87,94.78L68.59,68.24"/><path style="stroke:#000000;stroke-width:0.088" d="M68.27,64.77L68.26,65.05L68.27,65.14L68.34,65.64L68.49,66.18L68.69,66.71L68.93,67.17L69.17,67.50L69.40,67.68L69.58,67.67L69.60,67.65"/><path style="stroke:#000000;stroke-width:0.088" d="M75.18,52.72L76.24,53.11L77.17,53.81L77.34,54.02L77.68,54.68L77.72,55.62L77.29,56.53L76.42,57.31L75.21,57.88L74.41,58.05L73.79,58.18L72.33,58.17L70.97,57.85L69.86,57.26L69.13,56.47L68.85,55.55L68.90,56.57"/><path style="stroke:#000000;stroke-width:0.088" d="M68.85,55.55L69.05,54.62L69.71,53.76L70.76,53.07L70.96,52.98L70.00,53.60L69.39,54.39L69.20,55.25L69.46,56.09L70.13,56.82L71.15,57.35L72.40,57.64L72.97,57.65L73.74,57.65L75.04,57.38L76.14,56.86L76.26,56.76L76.94,56.14L77.34,55.31L77.30,54.45L76.83,53.65L75.98,53.01"/><path style="stroke:#000000;stroke-width:0.088" d="M69.67,98.11L69.58,97.78L69.50,97.21L69.49,97.12L69.50,96.75L69.60,96.46L69.77,96.35L70.01,96.45L70.28,96.74L70.55,97.20L70.80,97.76L70.92,98.11L71.01,98.38L71.13,98.98L71.17,99.51L71.12,99.89L70.99,100.09L70.78,100.09L70.52,99.90L70.25,99.52L69.98,99.00L69.75,98.40L69.67,98.11"/><path style="stroke:#000000;stroke-width:0.088" d="M70.06,96.51L70.05,96.50L69.90,96.60L69.81,96.86L69.80,97.18L69.81,97.26L69.88,97.76L70.03,98.31L70.23,98.84L70.47,99.29L70.71,99.63L70.94,99.80L71.12,99.80L71.14,99.78"/><path style="stroke:#000000;stroke-width:0.088" d="M71.59,97.52L70.21,95.68L69.77,94.80L69.76,93.64L69.79,93.52"/><path style="stroke:#000000;stroke-width:0.088" d="M69.76,93.64L69.81,93.54"/><path style="stroke:#000000;stroke-width:0.088" d="M70.30,70.51L71.26,70.19"/><path style="stroke:#000000;stroke-width:0.088" d="M70.05,65.39L69.92,65.22"/><path style="stroke:#000000;stroke-width:0.088" d="M71.07,101.61L71.30,106.22L71.69,107.06L72.46,107.76L73.54,108.28L74.33,108.48L74.02,101.91L71.84,102.63"/><path style="stroke:#000000;stroke-width:0.088" d="M71.28,55.22L71.28,55.26L71.30,55.31"/><path style="stroke:#000000;stroke-width:0.088" d="M71.17,52.91L70.96,52.98"/><path style="stroke:#000000;stroke-width:0.088" d="M71.90,56.04L71.84,56.01L71.69,55.88"/><path style="stroke:#000000;stroke-width:0.088" d="M71.51,55.71L71.46,55.67L71.39,55.52"/><path style="stroke:#000000;stroke-width:0.088" d="M72.56,97.20L72.72,100.60L73.15,100.72L74.90,100.95L76.70,100.80L78.35,100.28L79.66,99.46L80.51,98.41L80.70,97.96L80.78,99.68L79.56,100.08L79.87,106.65L80.11,106.11L80.14,105.22L79.90,99.97"/><path style="stroke:#000000;stroke-width:0.088" d="M72.45,56.26L72.37,56.25L72.23,56.19"/><path style="stroke:#000000;stroke-width:0.088" d="M72.77,56.32L73.01,56.36L73.10,56.35"/><path style="stroke:#000000;stroke-width:0.088" d="M73.54,108.28L73.73,108.35L74.59,108.53L74.33,108.48"/><path style="stroke:#000000;stroke-width:0.088" d="M73.78,56.30L73.68,56.33L73.43,56.34"/><path style="stroke:#000000;stroke-width:0.088" d="M74.36,56.13L74.30,56.16L74.08,56.22"/><path style="stroke:#000000;stroke-width:0.088" d="M79.87,106.65L79.37,107.11L74.87,108.59L74.59,108.53"/><path style="stroke:#000000;stroke-width:0.088" d="M74.86,55.83L74.82,55.87L74.59,56.00"/><path style="stroke:#000000;stroke-width:0.088" d="M75.19,55.45L75.17,55.50L75.04,55.64"/><path style="stroke:#000000;stroke-width:0.088" d="M75.28,55.19L75.32,55.08L75.31,55.05"/><path style="stroke:#000000;stroke-width:0.088" d="M76.22,104.33L76.03,104.30L75.69,104.11L75.48,103.80L75.42,103.40L75.52,102.96L75.77,102.53L76.14,102.15L76.59,101.87L77.07,101.71L77.53,101.69L77.93,101.82L78.21,102.08L78.34,102.44L78.32,102.86L78.15,103.30L77.83,103.71L77.42,104.04L76.95,104.27L76.47,104.36L76.22,104.33"/><path style="stroke:#000000;stroke-width:0.088" d="M77.74,55.72L77.68,54.68"/><path style="stroke:#000000;stroke-width:0.088" d="M79.26,67.28L79.26,67.30L79.33,67.09L79.15,63.38"/><path style="stroke:#000000;stroke-width:0.088" d="M80.64,93.87L80.88,98.98L80.78,99.68"/><path style="stroke:#000000;stroke-width:0.088" d="M67.57,20.14L68.14,32.19L68.32,33.03L68.93,33.78L69.73,34.25L69.89,34.35L71.10,34.67L72.42,34.73L73.73,34.50L74.59,34.14L74.86,34.02L75.71,33.34L76.17,32.52L76.21,31.67L75.62,19.26L75.54,20.16L74.99,21.00L74.57,21.36L74.00,21.70L72.75,22.14L71.36,22.28L70.00,22.11L68.83,21.66L67.99,20.97L67.57,20.13L67.63,19.24L67.68,18.83L67.95,18.38L68.43,17.62L68.85,17.25L69.19,17.08L69.64,17.11L70.03,17.28L69.80,17.48L69.54,17.90L69.51,18.35L69.72,18.77L70.14,19.11L70.54,19.27L70.73,19.34L71.40,19.42L72.10,19.35L72.72,19.13L73.01,18.96L73.40,19.24L73.87,19.73L74.23,20.27L74.25,20.31L74.49,20.92L74.57,21.36"/><path style="stroke:#000000;stroke-width:0.088" d="M68.85,17.25L69.37,16.94L69.64,16.81L70.63,16.47L71.73,16.36L72.81,16.49"/><path style="stroke:#000000;stroke-width:0.088" d="M70.03,17.28L70.32,17.11L70.95,16.89L71.65,16.82L72.33,16.91L72.91,17.14L73.33,17.49L73.53,17.91L73.49,18.36L73.22,18.78L73.01,18.96"/><path style="stroke:#000000;stroke-width:0.088" d="M75.62,19.26L75.53,18.86L75.14,18.02L74.85,17.63L74.09,17.00L72.81,16.49"/><path style="stroke:#000000;stroke-width:0.088" d="M106.96,108.49L106.99,109.05L106.99,109.07L107.03,109.10L107.00,108.54L106.97,108.51L106.96,108.49L106.97,108.48L106.98,108.46L107.00,108.45L107.23,108.34"/><path style="stroke:#000000;stroke-width:0.088" d="M107.03,109.10L107.07,109.12L107.12,109.12L107.44,108.97L107.42,108.59"/><path style="stroke:#000000;stroke-width:0.088" d="M107.00,109.08L106.98,108.52"/><path style="stroke:#000000;stroke-width:0.088" d="M109.29,108.04L109.29,108.06L109.28,108.08L109.27,108.09L108.47,108.46L107.54,108.66L107.36,105.05L107.31,105.04L107.29,105.03L107.28,105.02L107.45,108.63L106.75,107.71L106.36,99.51L108.20,98.90L108.89,99.83L108.90,99.85L108.90,99.87L108.89,99.88L108.88,99.89L108.07,100.27L107.14,100.47L107.09,100.46L107.07,100.45L107.06,100.44L107.10,101.34L107.15,101.40L107.17,101.41L107.22,101.42L107.70,101.34L108.15,101.21L108.57,101.05L108.95,100.84L108.97,100.83L108.98,100.81L108.98,100.80L108.94,100.74"/><path style="stroke:#000000;stroke-width:0.088" d="M107.00,108.54L107.02,108.55L107.04,108.56L107.09,108.56L107.32,108.45"/><path style="stroke:#000000;stroke-width:0.088" d="M106.93,104.65L106.95,105.04L107.27,105.47L107.25,104.98L107.28,105.02"/><path style="stroke:#000000;stroke-width:0.088" d="M106.95,105.04L107.57,104.84"/><path style="stroke:#000000;stroke-width:0.088" d="M106.98,103.66L106.81,103.43L106.67,103.75L106.63,104.06L106.70,104.34L106.89,104.59L106.87,104.57L106.81,104.29L106.84,103.98L106.98,103.66L106.99,103.65L107.01,103.64L106.84,103.41L106.87,103.40L107.04,103.63L107.01,103.64"/><path style="stroke:#000000;stroke-width:0.088" d="M106.89,104.59L107.04,104.79L107.05,104.79L107.07,104.79L107.30,104.71L107.37,104.70L107.47,104.72"/><path style="stroke:#000000;stroke-width:0.088" d="M106.84,103.41L106.83,103.41L106.81,103.43"/><path style="stroke:#000000;stroke-width:0.088" d="M106.36,99.51L107.06,100.44"/><path style="stroke:#000000;stroke-width:0.088" d="M108.39,127.70L108.43,127.70L108.54,127.67L108.74,127.61L108.96,127.53L109.24,127.43L109.39,127.37L109.49,127.32L109.54,127.29L109.53,127.28L109.40,127.31L109.25,127.35L108.98,127.45L108.62,127.58L108.49,127.64L108.41,127.68L108.39,127.70L107.50,109.19"/><path style="stroke:#000000;stroke-width:0.088" d="M107.54,108.66L107.49,108.66L107.45,108.63"/><path style="stroke:#000000;stroke-width:0.088" d="M107.32,109.02L107.44,109.16L107.65,109.26L107.89,109.32L108.16,109.32L108.42,109.27L108.64,109.17L108.80,109.02L108.87,108.86L108.85,108.28"/><path style="stroke:#000000;stroke-width:0.088" d="M107.11,108.55L107.14,109.11"/><path style="stroke:#000000;stroke-width:0.088" d="M108.34,103.53L108.34,103.54L108.37,104.02L108.53,104.04L108.55,104.31L108.39,104.45L108.41,104.93L108.31,104.79L108.28,104.31L108.18,104.40L108.06,104.38L108.17,104.52L108.19,105.00L108.10,105.02L107.84,105.01L107.64,104.92L107.50,104.76L107.38,104.59L107.32,104.38L107.35,104.14L107.47,103.89L107.50,103.86"/><path style="stroke:#000000;stroke-width:0.088" d="M107.81,104.99L107.77,104.98L107.36,105.05"/><path style="stroke:#000000;stroke-width:0.088" d="M107.77,104.98L107.76,104.97"/><path style="stroke:#000000;stroke-width:0.088" d="M107.25,104.98L107.59,104.86"/><path style="stroke:#000000;stroke-width:0.088" d="M107.50,104.76L107.44,104.54L107.47,104.30L107.59,104.06L107.79,103.83L108.03,103.66L108.12,103.61L108.12,103.60L108.23,103.55L108.49,103.49L108.72,103.50L109.04,103.32L108.93,100.99"/><path style="stroke:#000000;stroke-width:0.088" d="M107.33,104.31L107.31,104.27L107.31,104.21L107.32,104.07L107.39,103.88"/><path style="stroke:#000000;stroke-width:0.088" d="M107.30,103.89L107.29,103.93L107.26,104.15L107.31,104.33L107.32,104.36"/><path style="stroke:#000000;stroke-width:0.088" d="M107.20,101.54L107.31,103.89L107.26,103.89L107.24,103.88L107.22,103.87L107.11,101.46L107.15,101.51L107.14,101.39"/><path style="stroke:#000000;stroke-width:0.088" d="M107.22,103.87L107.04,103.63"/><path style="stroke:#000000;stroke-width:0.088" d="M107.31,103.89L107.72,103.83L107.96,103.67L108.12,103.60"/><path style="stroke:#000000;stroke-width:0.088" d="M107.14,100.47L107.19,101.37L107.14,101.36L107.12,101.35L107.10,101.34"/><path style="stroke:#000000;stroke-width:0.088" d="M107.15,101.51L107.16,101.53L107.18,101.54L107.23,101.54L107.70,101.46L108.10,101.35"/><path style="stroke:#000000;stroke-width:0.088" d="M107.23,101.54L107.22,101.42"/><path style="stroke:#000000;stroke-width:0.088" d="M107.19,101.37L108.04,101.19L108.08,101.23L108.22,101.18L108.21,100.93L108.06,100.98L108.08,101.23"/><path style="stroke:#000000;stroke-width:0.088" d="M108.41,104.93L108.63,104.80L108.85,104.60L109.01,104.36L109.09,104.12L109.07,103.89L108.98,103.70L108.80,103.57L108.57,103.52L108.34,103.54"/><path style="stroke:#000000;stroke-width:0.088" d="M108.31,104.79L108.18,104.83"/><path style="stroke:#000000;stroke-width:0.088" d="M108.59,104.82L108.56,104.86L108.30,104.99L108.03,105.03L107.91,105.01"/><path style="stroke:#000000;stroke-width:0.088" d="M108.17,104.52L108.00,104.50L107.98,104.23L108.15,104.09L108.12,103.61"/><path style="stroke:#000000;stroke-width:0.088" d="M108.37,104.02L108.26,103.88L108.15,103.86L108.14,103.87"/><path style="stroke:#000000;stroke-width:0.088" d="M108.26,103.88L108.25,103.55"/><path style="stroke:#000000;stroke-width:0.088" d="M108.55,104.31L108.31,103.99L108.04,104.22L108.18,104.40"/><path style="stroke:#000000;stroke-width:0.088" d="M108.39,104.45L108.28,104.31"/><path style="stroke:#000000;stroke-width:0.088" d="M108.04,104.22L108.00,104.21"/><path style="stroke:#000000;stroke-width:0.088" d="M108.30,103.93L108.31,103.99"/><path style="stroke:#000000;stroke-width:0.088" d="M108.23,101.31L108.24,101.56L108.09,101.61L108.06,101.56L108.05,101.37"/><path style="stroke:#000000;stroke-width:0.088" d="M108.95,100.84L108.96,100.97L108.58,101.17L108.16,101.34L108.08,101.36L108.09,101.61"/><path style="stroke:#000000;stroke-width:0.088" d="M108.22,101.13L108.92,100.80L108.94,100.78L108.94,100.77L108.90,99.85"/><path style="stroke:#000000;stroke-width:0.088" d="M108.06,100.98L108.03,100.94L108.18,100.89L108.21,100.93"/><path style="stroke:#000000;stroke-width:0.088" d="M108.03,100.94L108.04,101.19"/><path style="stroke:#000000;stroke-width:0.088" d="M109.54,127.29L108.67,109.13"/><path style="stroke:#000000;stroke-width:0.088" d="M109.27,108.09L109.10,104.47L109.11,104.46L109.12,104.45L109.12,104.43L109.29,108.04"/><path style="stroke:#000000;stroke-width:0.088" d="M109.19,108.12L109.21,108.43L109.25,108.41L109.26,108.40L109.27,108.38L109.25,108.10"/><path style="stroke:#000000;stroke-width:0.088" d="M109.21,108.43L108.86,108.50"/><path style="stroke:#000000;stroke-width:0.088" d="M108.82,104.63L109.10,104.47"/><path style="stroke:#000000;stroke-width:0.088" d="M109.12,104.43L109.11,104.41L109.03,104.30"/><path style="stroke:#000000;stroke-width:0.088" d="M109.06,103.17L109.11,103.23L109.17,103.51L109.13,103.82L109.08,103.95"/><path style="stroke:#000000;stroke-width:0.088" d="M108.77,103.47L108.85,103.54L108.98,103.70"/><path style="stroke:#000000;stroke-width:0.088" d="M109.06,103.27L109.06,103.29L109.06,103.31L109.04,103.32"/><path style="stroke:#000000;stroke-width:0.088" d="M109.07,103.28L108.95,100.97"/><path style="stroke:#000000;stroke-width:0.088" d="M108.88,99.89L108.92,100.80"/><path style="stroke:#000000;stroke-width:0.088" d="M108.96,100.97L108.98,100.95L108.99,100.94L108.99,100.92"/><path style="stroke:#000000;stroke-width:0.088" d="M108.94,100.75L108.94,100.75"/><path style="stroke:#000000;stroke-width:0.088" d="M108.98,100.80L108.99,100.92"/><path style="stroke:#000000;stroke-width:0.088" d="M97.77,103.83L97.58,103.91L97.33,103.95L97.08,103.94L96.84,103.88L96.66,103.78L95.81,103.14L95.79,103.12L95.78,103.09L95.64,100.28L95.65,100.25L95.87,99.52L95.87,99.50L95.89,99.48L95.92,99.46L95.95,99.45L95.99,99.45L96.03,99.45L96.11,99.48L96.28,99.50L96.45,99.49L96.49,99.48L96.50,99.30"/><path style="stroke:#000000;stroke-width:0.088" d="M95.64,100.28L95.66,100.31L95.68,100.34L96.52,100.98L96.71,101.08L96.94,101.14L97.19,101.15L97.44,101.11L97.66,101.02L97.69,101.58"/><path style="stroke:#000000;stroke-width:0.088" d="M95.81,103.14L95.68,100.34"/><path style="stroke:#000000;stroke-width:0.088" d="M96.10,99.25L96.09,99.14"/><path style="stroke:#000000;stroke-width:0.088" d="M96.70,99.38L96.65,99.35L96.51,99.30L96.36,99.29L96.20,99.33L96.18,98.87L96.13,98.87L96.11,98.87L96.09,98.86L96.08,98.84L96.07,98.83L96.10,99.28L96.10,99.27"/><path style="stroke:#000000;stroke-width:0.088" d="M96.20,99.33L96.17,99.33L96.15,99.33L96.13,99.33L96.11,99.32L96.10,99.30L96.10,99.28"/><path style="stroke:#000000;stroke-width:0.088" d="M96.07,98.83L96.39,97.77L96.39,97.80L96.46,97.97L96.57,98.11L98.55,99.86L98.67,99.94L98.83,99.99L99.01,100.00L99.18,99.98L99.34,99.93L99.47,99.84L99.55,99.74L99.58,99.63L99.51,98.07L99.48,98.18L99.39,98.29L99.27,98.37L99.11,98.42L98.93,98.44L98.76,98.43L98.60,98.38L98.48,98.30L98.55,99.86"/><path style="stroke:#000000;stroke-width:0.088" d="M96.18,98.87L96.25,98.86L96.42,98.86L96.58,98.89L96.71,98.96L96.80,99.05L96.83,99.15L96.81,99.26L96.73,99.36L96.60,99.44L96.49,99.48"/><path style="stroke:#000000;stroke-width:0.088" d="M96.39,97.77L96.31,96.24L96.38,96.42L96.49,96.55L96.57,98.11"/><path style="stroke:#000000;stroke-width:0.088" d="M96.31,96.24L96.33,96.05L96.40,95.90L96.75,95.42L97.41,95.60L97.43,95.61L97.45,95.62L97.45,95.64L97.46,95.65L97.45,95.67L97.42,95.70L97.41,95.73L97.41,95.75L97.43,95.78L97.42,95.70"/><path style="stroke:#000000;stroke-width:0.088" d="M96.52,100.98L96.66,103.78"/><path style="stroke:#000000;stroke-width:0.088" d="M96.49,96.55L98.48,98.30"/><path style="stroke:#000000;stroke-width:0.088" d="M97.85,101.99L97.72,101.85L97.67,101.69L97.80,104.50L97.86,104.66L97.98,104.79L97.85,101.99L99.04,102.89L99.18,105.70L99.33,105.79L99.52,105.85L99.72,105.87L99.93,105.86L105.83,105.09L105.69,102.29L106.49,102.09"/><path style="stroke:#000000;stroke-width:0.088" d="M97.98,104.79L99.18,105.70"/><path style="stroke:#000000;stroke-width:0.088" d="M106.46,101.55L105.39,101.79L103.52,101.78L101.80,101.37L100.43,100.59L100.31,100.52L100.11,100.44L99.88,100.41L99.65,100.42L99.42,100.47L99.28,100.54L97.97,101.25L97.80,101.38L97.70,101.53L97.67,101.69"/><path style="stroke:#000000;stroke-width:0.088" d="M99.65,100.42L99.61,99.70L99.58,99.86L99.47,100.00L99.31,100.11L97.66,101.02"/><path style="stroke:#000000;stroke-width:0.088" d="M97.43,95.78L97.45,95.79L97.48,95.81L98.44,96.06L98.48,96.07L98.51,96.07L98.55,96.06L98.58,96.04L98.60,96.02L99.57,94.65L99.58,94.63L99.58,94.60L99.57,94.58L99.55,94.56L99.51,94.55L98.56,94.29L98.52,94.29L98.48,94.29L98.45,94.30L98.42,94.31L98.40,94.33L98.37,94.37L98.36,94.38L98.34,94.39L98.31,94.40L98.29,94.40L98.26,94.40L97.60,94.22L97.68,95.86"/><path style="stroke:#000000;stroke-width:0.088" d="M97.45,95.80L97.45,95.67"/><path style="stroke:#000000;stroke-width:0.088" d="M97.46,95.65L97.46,95.80"/><path style="stroke:#000000;stroke-width:0.088" d="M97.60,94.22L97.94,93.74L98.09,93.59L98.28,93.47L98.52,93.39L98.77,93.34L102.21,93.05L102.39,93.05L102.55,93.09L102.69,93.16L102.78,93.25L102.83,93.36L102.81,93.47L102.75,93.58L102.64,93.67L102.49,93.74L102.56,95.29L104.05,94.99L105.91,95.00L107.63,95.41L109.00,96.19L109.85,97.23L110.09,98.41L109.67,99.59L108.93,100.35"/><path style="stroke:#000000;stroke-width:0.088" d="M98.37,94.37L98.45,96.07"/><path style="stroke:#000000;stroke-width:0.088" d="M98.40,94.33L98.48,96.07"/><path style="stroke:#000000;stroke-width:0.088" d="M98.64,95.97L98.56,94.29"/><path style="stroke:#000000;stroke-width:0.088" d="M98.34,96.04L98.26,94.40"/><path style="stroke:#000000;stroke-width:0.088" d="M105.69,102.29L99.80,103.06L99.59,103.07L99.38,103.04L99.19,102.98L99.04,102.89"/><path style="stroke:#000000;stroke-width:0.088" d="M99.31,100.11L99.33,100.51"/><path style="stroke:#000000;stroke-width:0.088" d="M99.61,99.70L99.58,99.57"/><path style="stroke:#000000;stroke-width:0.088" d="M99.51,98.07L99.49,97.96L99.27,96.81L99.69,95.63L100.70,94.60L102.19,93.84L102.49,93.74"/><path style="stroke:#000000;stroke-width:0.088" d="M99.51,94.55L99.52,94.72"/><path style="stroke:#000000;stroke-width:0.088" d="M99.93,105.86L99.80,103.06"/><path style="stroke:#000000;stroke-width:0.088" d="M101.11,104.91L100.85,104.76L100.75,104.67L100.68,104.56L100.64,104.44L100.63,104.31L100.65,104.18L100.70,104.06L100.78,103.93L100.89,103.82L101.17,103.62L101.52,103.49L101.89,103.43L102.25,103.47L102.55,103.58L102.77,103.76L102.84,103.87L102.89,104.06L102.87,104.24L102.82,104.37L102.74,104.49L102.51,104.71L102.19,104.88L101.82,104.97L101.45,104.98L101.11,104.91"/><path style="stroke:#000000;stroke-width:0.088" d="M101.17,103.62L101.17,103.63L100.98,103.86L100.76,104.04L100.70,104.07"/><path style="stroke:#000000;stroke-width:0.088" d="M100.66,104.17L100.73,104.14L100.97,103.96L101.19,103.71L101.26,103.59"/><path style="stroke:#000000;stroke-width:0.088" d="M100.74,100.77L100.98,100.52L102.47,99.76L102.77,99.66L102.92,99.59L103.03,99.50L103.10,99.39L103.11,99.28L103.05,98.03"/><path style="stroke:#000000;stroke-width:0.088" d="M102.77,99.66L102.70,98.10L104.18,97.80L106.04,97.80L107.77,98.22L109.14,98.99L109.65,99.61"/><path style="stroke:#000000;stroke-width:0.088" d="M102.56,95.29L102.71,95.23L102.82,95.14L102.89,95.03L102.90,94.92L102.83,93.36"/><path style="stroke:#000000;stroke-width:0.088" d="M102.88,94.56L104.17,94.45L106.27,94.50L108.19,95.00L109.71,95.89L110.65,97.07L110.91,98.40L110.46,99.73L109.34,100.91L108.96,101.11"/><path style="stroke:#000000;stroke-width:0.088" d="M105.83,105.09L106.62,104.90"/><path style="stroke:#000000;stroke-width:0.088" d="M109.09,103.92L109.48,103.71L110.59,102.54L111.05,101.21L110.91,98.40"/><path style="stroke:#000000;stroke-width:0.088" d="M118.67,140.27L118.80,140.55L119.15,140.86L119.64,141.07L120.22,141.16L120.82,141.13L121.38,140.97L121.84,140.71L122.10,140.44L122.14,140.37L122.27,139.99L122.13,137.19L122.01,137.57L121.97,137.63L121.70,137.91L121.24,138.17L120.68,138.32L120.08,138.36L119.51,138.26L119.02,138.05L118.67,137.75L118.50,137.38L118.63,140.19L118.67,140.27"/><path style="stroke:#000000;stroke-width:0.088" d="M119.02,137.96L118.72,137.66L118.59,137.30L118.39,132.84L118.43,133.20L118.64,133.53L119.00,133.78L119.02,133.79L119.51,133.96L120.07,134.01L120.63,133.94L120.88,133.85L121.14,133.76L121.53,133.49L121.67,133.33L121.77,133.15L121.82,132.79L122.02,137.26L121.87,137.61L121.55,137.92L121.10,138.15L120.56,138.27L119.99,138.28L119.46,138.17L119.02,137.96"/><path style="stroke:#000000;stroke-width:0.088" d="M118.57,136.92L118.52,137.00L118.50,137.38"/><path style="stroke:#000000;stroke-width:0.088" d="M118.39,132.84L118.63,131.53L118.66,131.82L118.84,132.10L118.99,132.20L119.15,132.31L119.55,132.45L120.01,132.49L120.47,132.43L120.89,132.29L121.05,132.17L121.21,132.06L121.33,131.93L121.41,131.78L121.46,131.48L121.33,128.91L121.29,129.21L121.20,129.35L121.09,129.48L120.77,129.71L120.35,129.86L119.89,129.91L119.43,129.87L119.02,129.74L118.87,129.63L118.71,129.52L118.53,129.25L118.51,128.95L118.63,128.66L118.88,128.34"/><path style="stroke:#000000;stroke-width:0.088" d="M118.63,131.53L118.51,128.95"/><path style="stroke:#000000;stroke-width:0.088" d="M120.61,122.23L120.90,128.39L120.87,128.61L120.81,128.71L120.73,128.81L120.50,128.97L120.20,129.07L119.87,129.11L119.54,129.08L119.25,128.99L119.03,128.83L118.90,128.64L118.88,128.43L118.59,122.34L118.60,122.13L118.72,121.92L118.94,121.75L119.23,121.64L119.55,121.58L119.88,121.60L120.18,121.69L120.42,121.83L120.57,122.02L120.61,122.23L120.54,122.44L120.51,122.48L120.37,122.63L120.11,122.78L119.80,122.86L119.47,122.88L119.15,122.83L118.88,122.71L118.68,122.54L118.59,122.34"/><path style="stroke:#000000;stroke-width:0.088" d="M121.46,131.48L121.82,132.79"/><path style="stroke:#000000;stroke-width:0.088" d="M121.33,128.91L121.23,128.62L120.90,128.26"/><path style="stroke:#000000;stroke-width:0.088" d="M122.13,137.19L122.06,136.81L122.00,136.73"/><path style="stroke:#000000;stroke-width:0.088" d="M114.19,50.73L109.88,58.18L109.88,72.10L112.18,73.43L112.18,59.51L116.48,52.05L102.13,43.77L102.13,41.35L102.13,41.60L102.06,41.30L101.86,41.02L101.54,40.78L95.82,37.47L95.82,37.30L95.82,37.40"/><path style="stroke:#000000;stroke-width:0.088" d="M95.82,37.30L95.82,35.68L95.82,36.49"/><path style="stroke:#000000;stroke-width:0.088" d="M95.82,35.68L95.82,34.05L95.82,34.87"/><path style="stroke:#000000;stroke-width:0.088" d="M95.82,34.82L101.54,38.13L101.86,38.37L102.06,38.65L102.13,38.95L102.13,41.35L102.13,40.54"/><path style="stroke:#000000;stroke-width:0.088" d="M95.82,34.05L95.82,33.17L100.70,30.35L103.57,30.35L126.53,43.60L116.48,49.40L116.48,52.05"/><path style="stroke:#000000;stroke-width:0.088" d="M102.13,41.60L102.13,42.16"/><path style="stroke:#000000;stroke-width:0.088" d="M102.13,41.12L116.48,49.40"/><path style="stroke:#000000;stroke-width:0.088" d="M101.54,40.78L101.54,38.13"/><path style="stroke:#000000;stroke-width:0.088" d="M110.27,72.33L110.01,72.18"/><path style="stroke:#000000;stroke-width:0.088" d="M112.18,59.51L109.88,58.18"/><path style="stroke:#000000;stroke-width:0.088" d="M111.08,72.79L111.39,72.97"/><path style="stroke:#000000;stroke-width:0.088" d="M111.89,73.26L112.70,73.73L112.18,73.43"/><path style="stroke:#000000;stroke-width:0.088" d="M126.53,43.60L126.53,65.14L125.09,67.63L113.61,74.26L112.70,73.73"/><path style="stroke:#000000;stroke-width:0.088" d="M113.44,71.37L113.58,71.60L113.78,71.72L114.04,71.72L114.33,71.61L114.62,71.39L114.88,71.08L115.08,70.73L115.22,70.35L115.26,69.99L115.26,62.70L114.33,62.16L114.04,62.38L113.78,62.68L113.58,63.04L113.44,63.42L113.40,63.78L113.40,71.07L113.44,71.37"/><path style="stroke:#000000;stroke-width:0.088" d="M115.26,69.99L113.40,68.91"/><path style="stroke:#000000;stroke-width:0.088" d="M113.78,71.72L113.73,71.69"/><path style="stroke:#000000;stroke-width:0.088" d="M114.33,62.16L114.62,62.05L114.88,62.05L115.08,62.17L115.22,62.39L115.26,62.70"/><path style="stroke:#000000;stroke-width:0.088" d="M117.17,69.22L117.31,69.44L117.51,69.56L117.77,69.57L118.06,69.45L118.35,69.23L118.61,68.93L118.82,68.57L118.95,68.20L118.99,67.84L118.99,60.55L118.06,60.01L117.77,60.23L117.51,60.53L117.35,60.81L117.31,60.89L117.17,61.26L117.13,61.62L117.13,68.91L117.17,69.22"/><path style="stroke:#000000;stroke-width:0.088" d="M118.99,67.84L117.13,66.76"/><path style="stroke:#000000;stroke-width:0.088" d="M118.06,60.01L118.35,59.89L118.61,59.90L118.82,60.02L118.95,60.24L118.99,60.55"/><path style="stroke:#000000;stroke-width:0.088" d="M77.94,62.76L77.32,63.63L77.43,65.81L74.74,66.51L67.38,64.53L66.39,62.84L66.29,60.66L66.71,61.38"/><path style="stroke:#000000;stroke-width:0.088" d="M66.29,60.66L66.65,60.15"/><path style="stroke:#000000;stroke-width:0.088" d="M67.38,64.53L67.27,62.35L67.07,62.00"/><path style="stroke:#000000;stroke-width:0.088" d="M67.27,62.35L68.55,62.70"/><path style="stroke:#000000;stroke-width:0.088" d="M67.11,54.59L66.82,54.13L66.82,50.82L67.80,52.38L67.80,53.65"/><path style="stroke:#000000;stroke-width:0.088" d="M66.82,50.82L72.82,43.39L75.52,42.82L88.39,46.29L89.37,47.84L82.51,56.34L82.36,56.53L79.98,59.89"/><path style="stroke:#000000;stroke-width:0.088" d="M67.80,52.38L69.79,52.91"/><path style="stroke:#000000;stroke-width:0.088" d="M71.05,50.63L70.91,50.57L70.57,50.33L70.39,50.04L70.37,49.72L70.52,49.42L70.52,50.24"/><path style="stroke:#000000;stroke-width:0.088" d="M70.52,49.42L70.96,48.87"/><path style="stroke:#000000;stroke-width:0.088" d="M74.74,66.51L74.63,64.33L73.89,64.13"/><path style="stroke:#000000;stroke-width:0.088" d="M74.99,48.60L76.48,46.76L76.62,46.46L76.60,46.15L76.42,45.86L76.09,45.61L75.64,45.44L75.12,45.35L74.58,45.36L74.08,45.47L74.04,45.49"/><path style="stroke:#000000;stroke-width:0.088" d="M74.63,64.33L77.32,63.63"/><path style="stroke:#000000;stroke-width:0.088" d="M77.43,65.81L82.51,58.66L82.51,59.65L89.37,51.16L89.37,47.84"/><path style="stroke:#000000;stroke-width:0.088" d="M82.36,56.53L80.22,55.96"/><path style="stroke:#000000;stroke-width:0.088" d="M80.21,55.72L82.51,56.34"/><path style="stroke:#000000;stroke-width:0.088" d="M79.72,51.90L79.57,52.20L79.59,52.51L79.77,52.80L80.10,53.05L80.55,53.22L81.07,53.31L81.61,53.30L82.11,53.19L82.54,53.00L82.84,52.74L85.67,49.24L85.82,48.94L85.80,48.63L85.62,48.33L85.28,48.09L84.84,47.91L84.37,47.84L84.32,47.83L83.78,47.84L83.27,47.95L82.85,48.14L82.54,48.40L79.72,51.90L79.72,52.72"/><path style="stroke:#000000;stroke-width:0.088" d="M81.26,53.31L82.54,51.71L82.54,48.40"/><path style="stroke:#000000;stroke-width:0.088" d="M82.51,59.65L81.92,59.49"/><path style="stroke:#000000;stroke-width:0.088" d="M82.54,51.71L82.85,51.45L83.27,51.26L83.78,51.15L84.13,51.15"/><path style="fill:#ffffff" d="M171.39,58.62L197.80,58.62L197.80,52.98L171.39,52.98z"/><path style="stroke:#35414c;stroke-width:0.255" d="M171.39,58.62L197.80,58.62L197.80,52.98L171.39,52.98z"/><path style="stroke:#35404c;stroke-width:0.250;stroke-opacity:0.00" d="M171.39,58.62L197.80,58.62L197.80,52.98L171.39,52.98z"/><text xml:space="preserve" fill="#333f4b" stroke-width="0" x="172.10" y="57.04" font-size="3.49" opacity="1.00" font-family="Arial" font-weight="bold" font-style="italic">F24978991A</text><path style="fill:#ffffff" d="M171.39,78.70L197.80,78.70L197.80,73.06L171.39,73.06z"/><path style="stroke:#35414c;stroke-width:0.255" d="M171.39,78.70L197.80,78.70L197.80,73.06L171.39,73.06z"/><path style="stroke:#35404c;stroke-width:0.250;stroke-opacity:0.00" d="M171.39,78.70L197.80,78.70L197.80,73.06L171.39,73.06z"/><text xml:space="preserve" fill="#333f4b" stroke-width="0" x="172.10" y="77.11" font-size="3.49" opacity="1.00" font-family="Arial" font-weight="bold" font-style="italic">F36971383A</text><path style="fill:#ffffff" d="M171.39,98.51L197.80,98.51L197.80,92.87L171.39,92.87z"/><path style="stroke:#35414c;stroke-width:0.255" d="M171.39,98.51L197.80,98.51L197.80,92.87L171.39,92.87z"/><path style="stroke:#35404c;stroke-width:0.250;stroke-opacity:0.00" d="M171.39,98.51L197.80,98.51L197.80,92.87L171.39,92.87z"/><text xml:space="preserve" fill="#333f4b" stroke-width="0" x="172.10" y="96.92" font-size="3.46" opacity="1.00" font-family="Arial" font-weight="bold" font-style="italic">SE6912</text><path style="fill:#ffffff" d="M171.39,48.59L197.80,48.59L197.80,42.94L171.39,42.94z"/><path style="stroke:#35414c;stroke-width:0.255" d="M171.39,48.59L197.80,48.59L197.80,42.94L171.39,42.94z"/><path style="stroke:#35404c;stroke-width:0.250;stroke-opacity:0.00" d="M171.39,48.59L197.80,48.59L197.80,42.94L171.39,42.94z"/><text xml:space="preserve" fill="#333f4b" stroke-width="0" x="172.10" y="47.00" font-size="3.41" opacity="1.00" font-family="Arial" font-weight="bold" font-style="italic">CI3491</text><path style="fill:#ffffff" d="M171.39,88.47L197.80,88.47L197.80,82.83L171.39,82.83z"/><path style="stroke:#35414c;stroke-width:0.255" d="M171.39,88.47L197.80,88.47L197.80,82.83L171.39,82.83z"/><path style="stroke:#35404c;stroke-width:0.250;stroke-opacity:0.00" d="M171.39,88.47L197.80,88.47L197.80,82.83L171.39,82.83z"/><text xml:space="preserve" fill="#333f4b" stroke-width="0" x="172.10" y="86.89" font-size="3.45" opacity="1.00" font-family="Arial" font-weight="bold" font-style="italic">SE6004</text><path style="fill:#ffffff" d="M171.39,108.55L197.80,108.55L197.80,102.91L171.39,102.91z"/><path style="stroke:#35414c;stroke-width:0.255" d="M171.39,108.55L197.80,108.55L197.80,102.91L171.39,102.91z"/><path style="stroke:#35404c;stroke-width:0.250;stroke-opacity:0.00" d="M171.39,108.55L197.80,108.55L197.80,102.91L171.39,102.91z"/><text xml:space="preserve" fill="#333f4b" stroke-width="0" x="172.10" y="106.96" font-size="3.46" opacity="1.00" font-family="Arial" font-weight="bold" font-style="italic">SE6918</text><path style="fill:#ffffff" d="M171.39,68.66L197.80,68.66L197.80,63.02L171.39,63.02z"/><path style="stroke:#35414c;stroke-width:0.255" d="M171.39,68.66L197.80,68.66L197.80,63.02L171.39,63.02z"/><path style="stroke:#35404c;stroke-width:0.250;stroke-opacity:0.00" d="M171.39,68.66L197.80,68.66L197.80,63.02L171.39,63.02z"/><text xml:space="preserve" fill="#333f4b" stroke-width="0" x="172.10" y="67.07" font-size="3.56" opacity="1.00" font-family="Arial" font-weight="bold" font-style="italic">F31623514X</text><g id="paperID" visibility="hidden" opacity="0.00" transform="scale(0.000100)"><path style="stroke:#000000;stroke-width:0.500;fill:#e6e6e6;fill-rule:evenodd" d="M-2000.00,-2000.00L2210.00,-2000.00L2210.00,2150.00L-2000.00,2150.00zM0.00,0.00L210.00,0.00L210.00,150.00L0.00,150.00z"/><path style="fill:#000000;fill-opacity:0.118" d="M3.00,150.00L210.00,150.00L210.00,3.00L213.00,3.00L213.00,153.00L3.00,153.00z"/></g><g id="hotspot.0" onmouseover="ShowHotSpot(evt,'0')" onmouseout="HideHotSpot(evt,'0')" onmousemove="ShowToolTip(evt,'0',&quot;PX009034.1&quot;)" opacity="0"><path style="fill:#00ff00;fill-rule:evenodd" d="M198.06,43.38L198.04,48.53L197.76,49.04L171.33,48.97L171.33,43.22L197.79,43.11zM74.42,45.77L74.93,46.84L75.20,52.13L79.93,54.26L80.22,55.03L80.21,58.29L79.69,62.25L73.81,64.29L72.27,64.29L67.02,62.15L66.73,61.39L66.74,57.76L67.27,54.06L71.00,52.51L70.94,46.37L72.19,45.51L73.89,45.51zM73.86,66.40L75.65,66.40L77.62,65.73L79.06,63.71L80.48,92.01L80.74,95.45L80.73,99.75L80.22,100.03L79.97,106.65L79.58,107.06L75.11,108.68L73.33,108.41L71.78,107.31L71.48,106.83L70.98,101.77L69.10,99.17L69.13,93.96L69.64,93.68L69.38,84.09L68.60,68.49L67.80,67.44L67.54,66.13L67.45,64.78z"/></g><g id="hotspot.1" onmouseover="ShowHotSpot(evt,'1')" onmouseout="HideHotSpot(evt,'1')" onmousemove="ShowToolTip(evt,'1',&quot;F24978991A&quot;)" opacity="0"><path style="fill:#00ff00;fill-rule:evenodd" d="M126.44,43.67L126.45,65.43L125.11,67.79L114.22,74.06L112.95,74.07L109.98,72.28L110.05,58.01L114.07,51.14L114.03,50.83L102.32,44.02L102.15,41.54L100.82,40.50L95.98,37.68L96.06,33.20L100.72,30.45L103.47,30.45zM198.06,53.41L198.04,58.57L197.76,59.08L171.33,59.01L171.33,53.26L197.79,53.15z"/></g><g id="hotspot.2" onmouseover="ShowHotSpot(evt,'2')" onmouseout="HideHotSpot(evt,'2')" onmousemove="ShowToolTip(evt,'2',&quot;F31623514X&quot;)" opacity="0"><path style="fill:#00ff00;fill-rule:evenodd" d="M73.10,16.72L74.43,17.49L75.47,18.83L75.72,20.69L76.23,31.76L75.74,33.47L74.66,34.25L73.27,34.70L70.70,34.70L69.66,34.41L68.61,33.62L68.31,33.13L68.06,29.94L67.80,24.13L67.81,18.68L69.03,17.25L70.35,16.73L71.78,16.49zM198.06,63.45L198.04,68.61L197.76,69.12L171.33,69.05L171.33,63.29L197.79,63.19z"/></g><g id="hotspot.3" onmouseover="ShowHotSpot(evt,'3')" onmouseout="HideHotSpot(evt,'3')" onmousemove="ShowToolTip(evt,'3',&quot;F36971383A&quot;)" opacity="0"><path style="fill:#00ff00;fill-rule:evenodd" d="M88.15,46.30L89.20,47.63L89.21,51.43L83.02,59.25L81.81,59.89L77.62,65.73L75.65,66.40L73.86,66.40L67.78,64.83L67.29,64.52L66.49,63.21L66.46,60.57L67.02,62.15L72.27,64.29L73.81,64.29L79.69,62.25L80.21,58.29L80.22,55.03L79.93,54.26L75.20,52.13L74.93,46.84L74.42,45.77L73.89,45.51L72.19,45.51L71.06,45.97L71.37,45.22L72.72,43.66L74.58,43.15L76.25,43.15zM70.96,46.39L71.00,52.51L67.98,53.71L67.00,54.35L67.01,50.63L70.88,46.05L71.06,45.97zM198.06,73.49L198.04,78.65L197.76,79.15L171.33,79.08L171.33,73.33L197.79,73.23zM83.87,51.58L82.50,53.18L81.42,53.18L82.75,51.59L83.89,51.30z"/></g><g id="hotspot.4" onmouseover="ShowHotSpot(evt,'4')" onmouseout="HideHotSpot(evt,'4')" onmousemove="ShowToolTip(evt,'4',&quot;SE6004&quot;)" opacity="0"><path style="fill:#00ff00;fill-rule:evenodd" d="M198.06,83.26L198.04,88.42L197.76,88.93L171.33,88.86L171.33,83.11L197.79,83.00zM108.49,99.38L109.00,101.00L109.25,108.45L108.70,109.26L109.53,127.49L108.39,127.78L107.40,109.47L107.08,109.23L107.15,108.36L106.93,108.12L106.63,104.43L106.54,99.67L108.23,99.11z"/></g><g id="hotspot.5" onmouseover="ShowHotSpot(evt,'5')" onmouseout="HideHotSpot(evt,'5')" onmousemove="ShowToolTip(evt,'5',&quot;SE6918&quot;)" opacity="0"><path style="fill:#00ff00;fill-rule:evenodd" d="M108.21,95.18L110.09,96.47L110.86,98.08L110.86,101.88L110.59,102.67L109.27,104.02L108.99,100.31L109.54,99.65L108.22,98.61L106.63,98.09L103.18,98.16L102.93,99.76L101.06,100.58L100.98,101.06L101.32,101.27L102.92,101.79L106.36,101.76L106.65,105.03L101.79,105.75L98.97,105.74L97.92,104.95L97.64,104.17L96.60,103.89L96.30,103.66L95.77,102.87L95.78,100.01L96.08,99.51L96.58,95.77L97.68,95.79L97.91,93.95L98.34,93.58L100.20,93.34L102.68,93.32L102.92,94.75L106.36,94.66zM198.06,103.34L198.04,108.50L197.76,109.00L171.33,108.93L171.33,103.18L197.79,103.08z"/></g><g id="hotspot.6" onmouseover="ShowHotSpot(evt,'6')" onmouseout="HideHotSpot(evt,'6')" onmousemove="ShowToolTip(evt,'6',&quot;SE6912&quot;)" opacity="0"><path style="fill:#00ff00;fill-rule:evenodd" d="M198.06,93.30L198.04,98.46L197.76,98.97L171.33,98.89L171.33,93.14L197.79,93.04zM120.64,122.37L120.89,127.41L121.68,132.43L122.23,140.46L121.35,141.16L119.55,141.16L118.78,140.62L118.43,132.69L118.78,128.55L118.76,121.94L120.12,121.85z"/></g></g></svg>
