<?xml version="1.0" encoding="UTF-8" standalone="no"?>
<svg xmlns="http://www.w3.org/2000/svg" xmlns:xlink="http://www.w3.org/1999/xlink" width="210.000mm" height="150.000mm" viewBox="0.000000 0.000000 210.000000 150.000000" stroke-linejoin="round" stroke-linecap="round" fill="none" fill-rule="evenodd"><desc>Composer Export</desc><script type="text/ecmascript"><![CDATA[
if(typeof(top) != "undefined")
{
	top.ShowPaper = ShowPaper;
}
function ShowHotSpot(evt,hotspotid)
{
	var svgDocument = evt.target.ownerDocument;
	var strId = "hotspot."+hotspotid;
	var hotspot = svgDocument.getElementById(strId);
	if(hotspot)
		hotspot.setAttribute("opacity",".5");
}
function HideHotSpot(evt,hotspotid)
{
	var svgDocument = evt.target.ownerDocument;
	var strId = "hotspot."+hotspotid;
	var hotspot = svgDocument.getElementById(strId);
	if(hotspot)
		hotspot.setAttribute("opacity","0");

	var toolTip = svgDocument.getElementById('ToolTip');
	if(toolTip)
		toolTip.setAttribute("visibility","hidden");
}
function ShowToolTip(evt,hotspotid,strTooltip)
{
	if(strTooltip=="")
	return;

	// change text
	var svgDocument = evt.target.ownerDocument;
	var tiptext = svgDocument.getElementById('ToolTipText');
	if( !tiptext )
	return;
	tiptext.firstChild.nodeValue = " " + strTooltip + "  " ;

	// show tooltip before, else some refresh issue

	var toolTip = svgDocument.getElementById('ToolTip');
	if(!toolTip)
	return;

	toolTip.setAttribute("visibility","visible");
	toolTip.setAttribute("opacity",".95");

	// move tooltip
	// get viewbox

	var root = svgDocument.documentElement;
	var vbox = (root.getAttribute("viewBox")).split(' ');
	var x0 = parseFloat(vbox[0]);
	var y0 = parseFloat(vbox[1]);
	var vboxW = parseFloat(vbox[2]);
	var vboxH = parseFloat(vbox[3]);

	// get default width of svg

	var strW = root.getAttribute("width");
	var svgW = parseFloat(strW);
	if(strW.indexOf('mm') != -1)
	svgW *= 3.779;

	var strH = root.getAttribute("height");
	var svgH = parseFloat(strH);
	if(strH.indexOf('mm') != -1)
	svgH *= 3.779;  	// 96 dpi  -> 96/25.4 = 3.779

	// update the viewbox / width / height if svg is embedded in html with zoom fit all
	var realx0 = x0;
	var realy0 = y0;
	var realvboxW = vboxW;
	var realvboxH = vboxH;
	var realsvgW = svgW;
	var realsvgH = svgH;

	if ((typeof(top) == "undefined") || (typeof(top.svgctl1) != "undefined")) // embedded in html
	{
		// get window size in pxl

		svgW = window.innerWidth;
		svgH = window.innerHeight;

		// calculate real viewbox

		realsvgW = svgW;
		realsvgH = svgH;
		if((svgW / svgH) > (vboxW / vboxH))
		{
			realvboxW = (vboxH * svgW) / svgH;
			realvboxH = vboxH;
			realx0 = x0 - (realvboxW - vboxW)/2 ;
		}
		else
		{
			realvboxH = (vboxW * svgH) / svgW;
			realvboxW = vboxW;
			realy0 = y0 - (realvboxH - vboxH)/2 ;
		}
	}

	// get user zoom/pan

	var newScale = root.currentScale;
	var translation = root.currentTranslate;

	// transform pxl to user unit

	var xPos = (((evt.clientX+10- translation.x)/newScale) * realvboxW)/realsvgW  + realx0 ;
	var yPos = (((evt.clientY+5- translation.y)/newScale) * realvboxH)/ realsvgH  + realy0 ;
	var scaleForWidth = ( (1 / newScale) * realvboxH) / realsvgH;

	// move tooltip

	toolTip.setAttribute("transform", "translate(" + xPos + "," + yPos + ")" );

	// resize tooltip

	var fontsize = 12;
	tiptext.setAttribute("font-size",fontsize*scaleForWidth);
	tiptext.setAttribute("y", fontsize*scaleForWidth);
	var tipBG = svgDocument.getElementById('ToolTipBG');
	var outline = tiptext.getBBox();
	if(tipBG)
	{
		tipBG.setAttribute("stroke-width", 1*scaleForWidth);
		tipBG.setAttribute("width", Number(outline.width) );
		tipBG.setAttribute("height", Number(outline.height) + fontsize*.5*scaleForWidth );
	}
	var ToolTipShadow = svgDocument.getElementById('ToolTipShadow');
	if(ToolTipShadow)
	{
		ToolTipShadow.setAttribute("width", Number(outline.width) );
		ToolTipShadow.setAttribute("height", Number(outline.height) + fontsize*.5*scaleForWidth );
		ToolTipShadow.setAttribute("x", 3*scaleForWidth);
		ToolTipShadow.setAttribute("y", 3*scaleForWidth);
	}
}
function ShowPaper()
{
  var svgDocument = getDocument();
  var paper = svgDocument.getElementById("paperID");
  if(paper)
  {
    paper.setAttribute("transform","scale(1)");
    paper.setAttribute("opacity","1");
    paper.setAttribute("visibility","visible");
  }
  var svg = svgDocument.getRootElement();
  if(svg)
  {
    svg.setAttribute("width","220.000mm");
    svg.setAttribute("height","160.000mm");
    svg.setAttribute("viewBox","-5.000000 -5.000000 220.000000 160.000000");
  }
}
]]></script><defs/><g><path style="fill:#ffffff" d="M209.95,149.94L0.04,149.94L0.04,0.04L209.95,0.04z"/><path style="fill:#889da5" d="M102.02,14.76L102.76,15.02L105.52,15.26L109.13,16.39L112.50,18.26L115.25,20.37L116.61,21.13L116.75,21.37L116.87,22.13L117.00,23.43L116.56,23.73L116.72,23.88L117.11,24.00L117.12,24.54L116.70,24.75L116.73,24.86L117.26,25.11L117.26,25.55L116.81,25.85L116.97,26.00L117.37,26.12L117.38,26.54L116.94,26.85L117.37,27.12L117.37,27.66L116.95,27.86L117.51,28.23L117.49,28.65L117.08,28.86L117.10,28.98L117.51,29.23L117.49,29.65L117.23,29.79L117.19,30.01L117.49,30.28L117.20,30.76L117.20,31.00L117.36,31.12L117.38,31.53L117.07,31.85L117.25,32.10L117.25,32.53L116.94,32.85L117.23,33.10L117.10,33.51L116.82,33.71L116.99,33.97L116.99,34.52L116.75,35.78L116.61,36.01L106.21,41.35L106.21,41.49L108.27,42.45L108.27,44.14L91.37,52.83L91.04,52.83L88.55,51.69L88.30,51.32L87.43,50.95L83.26,52.71L82.93,52.71L68.83,46.58L68.40,44.21L68.60,44.00L68.59,43.72L68.33,43.58L68.28,43.21L68.47,43.00L68.46,42.73L68.19,42.47L68.17,42.11L68.33,41.99L68.35,41.72L68.22,41.58L68.20,40.61L68.05,40.49L68.09,40.02L68.22,39.88L68.20,39.61L68.05,39.50L68.09,39.02L68.22,38.88L68.20,38.61L68.05,38.50L68.09,38.02L68.22,37.88L68.20,37.62L68.05,37.50L68.09,37.02L68.22,36.89L68.16,36.10L68.35,35.89L68.35,35.73L68.21,35.59L68.19,35.27L68.48,34.89L68.30,34.63L68.33,34.28L68.58,33.84L68.42,33.60L68.83,31.78L71.45,30.02L74.28,28.48L74.69,28.53L75.03,28.11L101.35,14.63L101.77,14.63z"/><path style="fill:#4c4c4c" d="M121.36,131.06L121.73,130.97L123.12,130.30L124.76,131.04L119.95,133.55L119.91,137.47L115.99,135.79L115.99,131.71L117.70,130.80L118.10,130.70L118.21,130.57L119.36,130.17z"/><path style="fill:#95dce0" d="M55.35,62.43L55.94,62.56L60.62,60.14L60.67,60.77L60.61,65.72L56.07,68.05L55.47,68.05L54.19,67.46L54.17,61.89z"/><path style="fill:#95dce0" d="M123.98,92.14L124.31,92.14L128.99,89.71L129.04,90.34L128.97,95.28L124.44,97.62L123.85,97.62L122.60,97.12L122.54,91.46z"/><path style="fill:#2ac7ce" d="M71.34,14.75L71.96,15.25L72.46,15.88L72.57,16.89L72.95,17.14L73.33,17.63L73.34,19.93L72.95,20.17L72.69,21.91L72.54,22.01L72.32,23.41L72.07,24.29L71.78,24.61L70.92,25.13L70.29,25.25L68.45,25.25L67.59,24.99L67.20,24.75L66.71,24.24L65.97,20.12L65.58,19.64L65.46,19.05L65.58,15.92L65.91,15.25L66.66,14.63L67.21,14.64L67.58,14.78L68.46,14.68L70.33,14.64z"/><path style="fill:#2ac7ce" d="M135.21,42.46L135.58,42.59L136.08,42.96L136.59,43.58L136.79,44.74L137.08,44.84L137.46,45.33L137.57,46.95L137.45,47.74L137.08,47.99L136.84,49.62L136.71,49.75L136.33,51.86L136.03,52.31L135.08,52.86L133.92,53.07L133.46,53.07L131.96,52.83L130.97,52.19L130.71,51.33L130.47,49.32L130.34,49.08L130.09,47.83L129.71,47.34L129.71,43.74L130.22,42.76L130.93,42.33L131.58,42.47L132.30,42.46L132.92,42.34L134.08,42.34z"/><path style="fill:#2ac7ce" d="M129.34,133.05L129.36,137.09L124.93,139.40L124.34,139.42L119.91,137.47L119.95,133.55L124.76,131.04z"/><path style="fill:#1497e5" d="M139.08,111.09L139.09,112.76L136.80,113.96L136.20,113.96L60.97,81.39L60.97,79.69L63.29,78.52L63.85,78.52z"/><path style="fill:#1497e5" d="M125.35,118.07L125.35,119.86L123.10,120.99L122.73,121.08L47.33,88.42L47.37,86.67L49.57,85.50L50.12,85.50z"/><path style="fill:#01ff02" d="M72.83,18.26L72.70,18.80L72.41,19.13L71.91,19.18L71.96,18.31L72.41,17.87L72.58,17.87z"/><path style="fill:#01ff02" d="M84.68,27.12L84.26,27.25L82.76,27.25L83.26,26.99L84.44,26.98z"/><path style="fill:#01ff02" d="M136.97,45.82L136.83,46.62L136.53,46.95L136.08,46.96L136.07,46.11L136.41,45.70L136.84,45.69z"/><path style="fill:#01ff02" d="M67.04,81.26L67.59,81.26L67.56,81.38L67.06,81.38z"/><path style="fill:#01ff02" d="M78.05,85.87L77.50,85.92L77.50,85.77L78.07,85.75z"/><path style="fill:#01ff02" d="M53.88,88.41L53.42,88.41L53.42,88.26L53.88,88.26z"/><path style="fill:#01ff02" d="M64.36,92.90L63.78,92.90L63.78,92.76L64.36,92.76z"/><path style="fill:#01ff02" d="M95.05,93.28L94.60,93.28L94.60,93.13L95.05,93.13z"/><path style="fill:#01ff02" d="M105.54,97.77L104.95,97.77L104.95,97.62L105.54,97.62z"/><path style="fill:#01ff02" d="M81.46,100.22L80.87,100.26L80.87,100.11L81.33,100.10z"/><path style="fill:#01ff02" d="M91.81,104.71L91.23,104.71L91.35,104.59L91.68,104.59z"/><path style="fill:#01ff02" d="M122.63,105.09L122.04,105.13L122.05,104.98L122.51,104.96z"/><path style="fill:#01ff02" d="M132.98,109.58L132.40,109.58L132.53,109.45L132.86,109.45z"/><path style="fill:#01ff02" d="M108.90,112.07L108.32,112.07L108.45,111.95L108.78,111.95z"/><path style="fill:#01ff02" d="M119.23,116.57L119.21,116.70L118.84,116.72L118.70,116.57L119.01,116.45z"/><path style="fill:#444444" d="M60.59,55.19L60.66,59.64L60.62,60.14L55.94,62.56L55.35,62.43L54.17,61.89L54.23,59.72L55.62,58.99L55.69,56.32L56.36,55.86L56.45,55.55L56.74,55.73L58.93,54.55z"/><path style="fill:#444444" d="M128.98,84.87L129.03,89.21L128.99,89.71L124.31,92.14L123.98,92.14L122.54,91.46L122.61,89.29L123.99,88.56L124.10,85.80L124.73,85.43L124.83,85.12L125.11,85.30L127.18,84.12L127.47,84.12z"/><path style="fill:#8aa7bf" d="M61.37,59.53L61.60,60.06L61.43,60.55L60.67,60.77L60.62,60.14L60.66,59.64L60.93,59.42L61.22,59.42z"/><path style="fill:#8aa7bf" d="M129.85,89.24L129.81,90.13L129.04,90.34L128.99,89.71L129.03,89.21L129.30,88.99L129.59,88.99z"/><path style="fill:#000000" d="M72.96,37.59L73.45,37.85L73.72,38.10L73.69,38.38L73.55,38.47L73.70,38.96L73.95,39.11L73.96,39.38L73.78,39.60L73.66,40.08L72.04,40.97L70.88,41.16L71.08,40.76L71.08,39.97L70.72,39.20L70.08,38.59L69.51,38.44L69.91,37.97L70.91,37.35L71.65,36.97L72.21,36.97z"/><path style="fill:#000000" d="M106.15,42.32L106.15,42.89L105.73,43.09L104.76,43.09L104.39,42.97L104.39,42.25L104.85,42.09L105.64,42.09z"/><path style="fill:#000000" d="M92.41,49.33L92.42,49.88L92.13,50.08L90.91,50.08L90.67,49.95L90.66,49.37L91.25,49.07L91.92,49.07z"/><path style="fill:#ffffff" d="M70.08,38.59L70.72,39.20L71.08,39.97L71.08,40.76L70.88,41.16L70.78,41.22L69.94,41.22L69.34,40.71L68.95,39.85L68.95,39.13L69.21,38.65L69.51,38.44z"/><path style="stroke:#000000;stroke-width:0.088" d="M120.27,131.72L117.94,130.72L115.86,131.78L115.86,133.74L118.19,134.75L118.22,134.78L119.96,135.54"/><path style="stroke:#000000;stroke-width:0.088" d="M115.86,131.78L118.19,132.79L118.22,132.77L123.04,130.31L124.78,131.06L119.96,133.53L118.22,132.77"/><path style="stroke:#000000;stroke-width:0.088" d="M118.27,133.77L118.28,133.80L118.21,133.66L118.16,133.52L118.16,133.37L118.19,133.26L118.25,133.17L118.34,133.13L118.45,133.13L118.57,133.19L118.68,133.28L118.77,133.40L118.83,133.55L118.85,133.69L118.85,133.72L118.84,133.83L118.79,133.93L118.71,133.99L118.61,134.01L118.50,133.98L118.38,133.91L118.28,133.80L118.37,133.90L118.35,133.87"/><path style="stroke:#000000;stroke-width:0.088" d="M118.22,133.69L118.28,133.78"/><path style="stroke:#000000;stroke-width:0.088" d="M118.19,132.79L118.17,133.31"/><path style="stroke:#000000;stroke-width:0.088" d="M121.49,131.10L119.27,130.14L118.05,130.76"/><path style="stroke:#000000;stroke-width:0.088" d="M118.16,130.71L118.06,130.67L118.06,130.61L118.21,130.68"/><path style="stroke:#000000;stroke-width:0.088" d="M118.06,130.61L118.27,130.50L118.43,130.57"/><path style="stroke:#000000;stroke-width:0.088" d="M118.73,133.63L118.72,133.70L118.69,133.75L118.65,133.78L118.59,133.78L118.53,133.76L118.47,133.72L118.42,133.65L118.38,133.58L118.36,133.50L118.36,133.43L118.38,133.37L118.42,133.33L118.47,133.31L118.53,133.32L118.59,133.35"/><path style="stroke:#000000;stroke-width:0.088" d="M118.49,133.98L118.48,133.98L118.45,133.95"/><path style="stroke:#000000;stroke-width:0.088" d="M118.60,134.01L118.59,134.01L118.56,134.00"/><path style="stroke:#000000;stroke-width:0.088" d="M118.25,133.17L118.29,133.15L118.39,133.11L118.50,133.11L118.61,133.17L118.71,133.26L118.80,133.39L118.85,133.54L118.86,133.68L118.86,133.71L118.84,133.85L118.79,133.93L118.78,133.95L118.71,133.99L118.70,134.00L118.61,134.01L118.59,134.01L118.50,133.98L118.48,133.98L118.38,133.91L118.37,133.90L118.37,133.90"/><path style="stroke:#000000;stroke-width:0.088" d="M118.33,133.68L118.34,133.70L118.41,133.78L118.48,133.84L118.56,133.86L118.63,133.86L118.68,133.82L118.72,133.76L118.74,133.67L118.72,133.58L118.69,133.48L118.63,133.39L118.56,133.33L118.49,133.28L118.41,133.27L118.38,133.29L118.35,133.29L118.30,133.35L118.28,133.42L118.27,133.51L118.30,133.61L118.33,133.68"/><path style="stroke:#000000;stroke-width:0.088" d="M120.55,136.86L120.65,136.98L120.56,136.87L120.54,136.85L120.42,136.77L120.31,136.74L120.29,136.74L120.28,136.74L120.18,136.78L120.12,136.83L120.10,136.86L120.07,136.98L120.07,137.12L120.11,137.27L120.19,137.41L120.30,137.53L120.41,137.60L120.53,137.63L120.63,137.61L120.71,137.53L120.76,137.42L120.76,137.28L120.72,137.12L120.65,136.98L120.72,137.12L120.76,137.27L120.77,137.40L120.75,137.50L120.69,137.58L120.63,137.61"/><path style="stroke:#000000;stroke-width:0.088" d="M122.22,138.52L119.96,137.55L119.90,136.57L119.96,135.54L122.22,136.51"/><path style="stroke:#000000;stroke-width:0.088" d="M120.07,136.98L120.08,136.93L120.10,136.86L120.18,136.78L120.20,136.76L120.29,136.74"/><path style="stroke:#000000;stroke-width:0.088" d="M120.55,137.47L120.48,137.48L120.41,137.46L120.33,137.41L120.27,137.34L120.22,137.25L120.19,137.15L120.18,137.09L120.18,137.06L120.20,136.98L120.25,136.92L120.31,136.89L120.38,136.90L120.46,136.93L120.53,136.99L120.59,137.08L120.63,137.17L120.64,137.27L120.64,137.36L120.60,137.43L120.55,137.47"/><path style="stroke:#000000;stroke-width:0.088" d="M120.49,136.96L120.43,136.93L120.37,136.93L120.32,136.95L120.29,137.00L120.27,137.06L120.27,137.08L120.27,137.14L120.30,137.21L120.34,137.29L120.39,137.35L120.45,137.39L120.51,137.40L120.57,137.39L120.61,137.36L120.64,137.30L120.64,137.24"/><path style="stroke:#000000;stroke-width:0.088" d="M120.18,136.78L120.19,136.77"/><path style="stroke:#000000;stroke-width:0.088" d="M120.20,136.76L120.28,136.74"/><path style="stroke:#000000;stroke-width:0.088" d="M121.71,137.80L121.71,137.77L121.71,137.80L121.87,138.13L122.08,138.41L122.33,138.62L122.60,138.73L122.85,138.74L122.97,138.70L123.06,138.64L122.85,138.74"/><path style="stroke:#000000;stroke-width:0.088" d="M121.63,137.46L121.64,137.52L121.71,137.77L121.63,137.46L121.63,137.32L121.64,137.15L121.74,136.87L121.68,137.02L121.64,137.15"/><path style="stroke:#000000;stroke-width:0.088" d="M122.08,138.08L121.94,137.85L121.92,137.76L121.87,137.59L121.85,137.42L121.85,137.34L121.91,137.13L122.02,136.98L122.18,136.91L122.37,136.92L122.58,137.01L122.77,137.18L122.92,137.40L123.03,137.65L123.07,137.90L123.05,138.13L122.97,138.31L122.83,138.43L122.65,138.46L122.45,138.41L122.25,138.28L122.08,138.08"/><path style="stroke:#000000;stroke-width:0.088" d="M123.06,137.83L123.05,137.99L122.98,138.13L122.87,138.22L122.72,138.25L122.56,138.21L122.41,138.10L122.27,137.95L122.16,137.76L122.10,137.55L122.08,137.41L122.09,137.35L122.13,137.18L122.22,137.06L122.35,137.01L122.50,137.01L122.66,137.08"/><path style="stroke:#000000;stroke-width:0.088" d="M122.64,136.72L122.84,136.87L123.05,137.15L123.20,137.49L123.29,137.84L123.30,138.04L123.29,137.85L123.18,137.48L122.99,137.14L122.74,136.86L122.46,136.68L122.17,136.61L121.92,136.68L121.82,136.77L121.74,136.87L121.92,136.68L122.04,136.62L122.31,136.59L122.31,136.59"/><path style="stroke:#000000;stroke-width:0.088" d="M122.71,136.72L124.62,137.55L124.56,138.59L124.62,139.56L122.71,138.73"/><path style="stroke:#000000;stroke-width:0.088" d="M123.06,138.64L123.21,138.45L123.29,138.18L123.26,138.34L123.21,138.45L123.15,138.57L123.06,138.64"/><path style="stroke:#000000;stroke-width:0.088" d="M123.29,138.18L123.30,138.04"/><path style="stroke:#000000;stroke-width:0.088" d="M124.62,139.56L129.44,137.10L129.44,135.09L124.62,137.55"/><path style="stroke:#000000;stroke-width:0.088" d="M115.92,133.76L115.86,133.79L115.86,135.75L118.19,136.76L118.22,136.79L119.96,137.55"/><path style="stroke:#000000;stroke-width:0.088" d="M115.86,133.79L118.19,134.80L118.22,134.78L119.96,135.54"/><path style="stroke:#000000;stroke-width:0.088" d="M118.25,135.18L118.19,135.27L118.16,135.38L118.16,135.53L118.21,135.67L118.28,135.81L118.38,135.92L118.50,135.99L118.61,136.02L118.71,136.00L118.79,135.94L118.84,135.86L118.86,135.72L118.86,135.69L118.85,135.55L118.80,135.40L118.71,135.27L118.71,135.27L118.61,135.18L118.50,135.12L118.39,135.12L118.29,135.16L118.25,135.18L118.34,135.14L118.45,135.14L118.57,135.20L118.68,135.29L118.77,135.41L118.83,135.56L118.85,135.70L118.85,135.73L118.84,135.84L118.79,135.94L118.78,135.96L118.71,136.00L118.70,136.01L118.61,136.02L118.59,136.02L118.60,136.02"/><path style="stroke:#000000;stroke-width:0.088" d="M118.19,134.80L118.17,135.32"/><path style="stroke:#000000;stroke-width:0.088" d="M118.49,135.99L118.48,135.99L118.50,135.99L118.59,136.02L118.56,136.01"/><path style="stroke:#000000;stroke-width:0.088" d="M118.59,135.36L118.53,135.33L118.47,135.32L118.42,135.34L118.38,135.38L118.36,135.44L118.36,135.51L118.38,135.59L118.42,135.66L118.47,135.73L118.48,135.74L118.53,135.77L118.59,135.79L118.65,135.79L118.69,135.76L118.72,135.71L118.73,135.64"/><path style="stroke:#000000;stroke-width:0.088" d="M118.28,135.79L118.27,135.78"/><path style="stroke:#000000;stroke-width:0.088" d="M118.35,135.88L118.37,135.91L118.37,135.91"/><path style="stroke:#000000;stroke-width:0.088" d="M118.22,135.70L118.28,135.81L118.37,135.91L118.38,135.92L118.48,135.99L118.45,135.96"/><path style="stroke:#000000;stroke-width:0.088" d="M118.28,135.43L118.27,135.52L118.30,135.62L118.34,135.71L118.41,135.79L118.48,135.85L118.56,135.87L118.63,135.87L118.68,135.83L118.72,135.77L118.74,135.68L118.72,135.59L118.69,135.49L118.63,135.40L118.56,135.34L118.49,135.29L118.41,135.28L118.38,135.30L118.35,135.30L118.30,135.36L118.28,135.43"/><path style="stroke:#000000;stroke-width:0.088" d="M120.55,134.85L120.65,134.97L120.56,134.86L120.54,134.84L120.42,134.76L120.31,134.73L120.29,134.73L120.28,134.73L120.18,134.77L120.10,134.85L120.07,134.97L120.07,135.11L120.11,135.26L120.19,135.40L120.30,135.52L120.41,135.60L120.53,135.62L120.63,135.60L120.71,135.52L120.76,135.41L120.76,135.27L120.72,135.11L120.65,134.97L120.72,135.11L120.76,135.26L120.77,135.39L120.75,135.49L120.69,135.57L120.63,135.60"/><path style="stroke:#000000;stroke-width:0.088" d="M122.22,136.51L119.96,135.54L119.90,134.56L119.96,133.53L124.62,135.54L124.56,136.58L124.62,137.55L122.71,136.72"/><path style="stroke:#000000;stroke-width:0.088" d="M120.55,135.46L120.48,135.47L120.41,135.45L120.33,135.40L120.27,135.33L120.22,135.24L120.19,135.14L120.18,135.08L120.18,135.05L120.20,134.97L120.25,134.91L120.31,134.88L120.38,134.89L120.46,134.92L120.53,134.98L120.59,135.07L120.63,135.16L120.64,135.23L120.64,135.26L120.64,135.35L120.60,135.42L120.55,135.46"/><path style="stroke:#000000;stroke-width:0.088" d="M120.49,134.95L120.43,134.92L120.37,134.92L120.32,134.94L120.29,134.99L120.27,135.05L120.27,135.07L120.27,135.13L120.30,135.20L120.34,135.28L120.39,135.34L120.45,135.38L120.51,135.39L120.57,135.38L120.61,135.35L120.64,135.29L120.64,135.23"/><path style="stroke:#000000;stroke-width:0.088" d="M120.18,134.77L120.19,134.76"/><path style="stroke:#000000;stroke-width:0.088" d="M120.07,134.97L120.10,134.85L120.12,134.82L120.18,134.77L120.20,134.75L120.29,134.73"/><path style="stroke:#000000;stroke-width:0.088" d="M120.28,134.73L120.20,134.75"/><path style="stroke:#000000;stroke-width:0.088" d="M119.96,133.53L124.78,131.06L129.44,133.08L124.62,135.54"/><path style="stroke:#000000;stroke-width:0.088" d="M121.71,135.79L121.64,135.51L121.63,135.45L121.71,135.79L121.87,136.12L122.08,136.40L122.32,136.60L122.33,136.61L122.60,136.72L122.85,136.73L123.06,136.63L123.21,136.44L123.26,136.33L123.29,136.17L123.21,136.44L123.15,136.56L123.06,136.63L122.97,136.69L122.85,136.73"/><path style="stroke:#000000;stroke-width:0.088" d="M122.08,136.07L121.94,135.84L121.87,135.58L121.85,135.41L121.85,135.33L121.91,135.12L122.02,134.97L122.18,134.90L122.37,134.91L122.58,135.00L122.77,135.17L122.92,135.39L123.03,135.64L123.07,135.89L123.05,136.12L122.97,136.30L122.89,136.37L122.83,136.42L122.65,136.45L122.45,136.40L122.25,136.27L122.08,136.07"/><path style="stroke:#000000;stroke-width:0.088" d="M123.29,136.17L123.30,136.03L123.29,135.83L123.20,135.48L123.05,135.14L122.84,134.86L122.58,134.66L122.31,134.58L122.04,134.61L121.92,134.67L121.74,134.86L121.64,135.14L121.63,135.31L121.63,135.45"/><path style="stroke:#000000;stroke-width:0.088" d="M123.06,135.82L123.05,135.98L122.98,136.12L122.87,136.21L122.72,136.24L122.56,136.20L122.41,136.09L122.27,135.94L122.16,135.75L122.10,135.54L122.08,135.40L122.09,135.34L122.13,135.18L122.22,135.05L122.35,135.00L122.50,135.00L122.66,135.07"/><path style="stroke:#000000;stroke-width:0.088" d="M123.30,136.01L123.29,135.84L123.18,135.47L122.99,135.13L122.74,134.85L122.46,134.67L122.17,134.60L121.92,134.67L121.82,134.76L121.74,134.86L121.68,135.01L121.64,135.14"/><path style="stroke:#000000;stroke-width:0.088" d="M124.22,134.79L124.23,134.83L124.22,134.87L124.17,134.91L124.10,134.94L124.02,134.95L123.93,134.96L123.84,134.95L123.76,134.92L123.71,134.89L123.68,134.85L123.68,134.80L123.71,134.76L123.75,134.74L123.77,134.73L123.85,134.71L123.94,134.70L124.03,134.70L124.11,134.72L124.18,134.75L124.22,134.79"/><path style="stroke:#000000;stroke-width:0.088" d="M124.62,137.55L129.44,135.09L129.44,133.08"/><path style="stroke:#000000;stroke-width:0.088" d="M126.71,132.35L126.67,132.36L126.65,132.38L126.61,132.42L126.60,132.46L126.62,132.50L126.67,132.54L126.74,132.57L126.83,132.58L126.92,132.58L127.01,132.57L127.08,132.54L127.13,132.51L127.15,132.46L127.15,132.42L127.11,132.38L127.05,132.35L126.97,132.33L126.88,132.32L126.79,132.33L126.71,132.35"/><path style="stroke:#000000;stroke-width:0.088" d="M124.79,85.48L124.01,85.88L124.01,88.67L124.02,88.71L125.37,89.30L125.37,86.51L125.46,86.51L126.79,85.83L126.89,85.87L128.97,84.80L128.97,87.60L124.15,90.06L124.17,90.10L124.17,92.19L122.50,91.47L122.50,89.38L122.52,89.36L124.01,88.59"/><path style="stroke:#000000;stroke-width:0.088" d="M126.89,85.87L126.89,88.66L124.15,90.06L122.52,89.36"/><path style="stroke:#000000;stroke-width:0.088" d="M124.17,92.19L128.99,89.73L128.99,87.64L124.17,90.10"/><path style="stroke:#000000;stroke-width:0.088" d="M124.15,90.06L124.15,90.06"/><path style="stroke:#000000;stroke-width:0.088" d="M124.02,88.71L124.02,85.92L124.01,85.88"/><path style="stroke:#000000;stroke-width:0.088" d="M124.02,85.92L125.37,86.51"/><path style="stroke:#000000;stroke-width:0.088" d="M125.64,85.68L125.64,85.89L125.61,85.93L125.56,85.96L125.49,85.98L125.41,85.99L125.32,85.98L125.25,85.97L125.22,85.96L125.19,85.94L125.15,85.90L125.14,85.87L125.14,85.70L125.15,85.66L125.19,85.63L125.22,85.61L125.25,85.60L125.33,85.59L125.41,85.58L125.49,85.59L125.56,85.61L125.61,85.65L125.64,85.68L125.64,85.72L125.61,85.76L125.56,85.79L125.49,85.81L125.41,85.82L125.32,85.82L125.25,85.80L125.22,85.79L125.19,85.77L125.15,85.74L125.14,85.70"/><path style="stroke:#000000;stroke-width:0.088" d="M124.84,85.49L124.84,85.73L125.05,85.62L125.05,85.06L124.84,85.17L124.84,85.49"/><path style="stroke:#000000;stroke-width:0.088" d="M124.84,85.73L124.79,85.71L124.79,85.15L124.84,85.17"/><path style="stroke:#000000;stroke-width:0.088" d="M124.79,85.15L125.01,85.04L125.05,85.06"/><path style="stroke:#000000;stroke-width:0.088" d="M125.05,85.35L125.34,85.20L125.26,85.16L125.26,85.24"/><path style="stroke:#000000;stroke-width:0.088" d="M125.46,86.51L125.46,89.30L125.37,89.30"/><path style="stroke:#000000;stroke-width:0.088" d="M125.46,89.30L126.79,88.62L126.89,88.66"/><path style="stroke:#000000;stroke-width:0.088" d="M125.64,85.85L125.64,85.85"/><path style="stroke:#000000;stroke-width:0.088" d="M125.72,85.67L125.64,85.63L125.64,85.07L125.87,85.17L125.91,85.15L125.91,85.46"/><path style="stroke:#000000;stroke-width:0.088" d="M125.77,86.13L125.77,85.58L125.72,85.56L125.72,86.11L125.77,86.13L125.99,86.02L125.99,85.47L125.94,85.45L125.72,85.56"/><path style="stroke:#000000;stroke-width:0.088" d="M125.77,85.58L125.99,85.47"/><path style="stroke:#000000;stroke-width:0.088" d="M125.23,85.70L125.24,85.68L125.27,85.65L125.31,85.64L125.35,85.63L125.41,85.63L125.46,85.63L125.50,85.65L125.53,85.67L125.54,85.69L125.54,85.72L125.52,85.74L125.52,85.74L125.49,85.76L125.45,85.77L125.40,85.77L125.35,85.77L125.30,85.76L125.28,85.76L125.26,85.74L125.24,85.72L125.23,85.70"/><path style="stroke:#000000;stroke-width:0.088" d="M125.51,85.75L125.51,85.74L125.51,85.72L125.50,85.70L125.47,85.68L125.44,85.67L125.40,85.67L125.36,85.67L125.32,85.68L125.29,85.69L125.27,85.71L125.26,85.73L125.27,85.75L125.27,85.75"/><path style="stroke:#000000;stroke-width:0.088" d="M125.91,85.15L125.68,85.05L125.64,85.07"/><path style="stroke:#000000;stroke-width:0.088" d="M125.26,85.16L127.34,84.10L128.97,84.80"/><path style="stroke:#000000;stroke-width:0.088" d="M125.87,85.17L125.87,85.48"/><path style="stroke:#000000;stroke-width:0.088" d="M126.79,88.62L126.79,85.83"/><path style="stroke:#000000;stroke-width:0.088" d="M128.99,87.64L128.97,87.60"/><path style="stroke:#000000;stroke-width:0.088" d="M128.99,89.29L129.16,89.20L129.27,89.18L129.39,89.20L129.51,89.28L129.62,89.39L129.71,89.53L129.76,89.69L129.77,89.84L129.74,89.97L129.68,90.07L129.58,90.12L128.99,90.42"/><path style="stroke:#000000;stroke-width:0.088" d="M129.69,90.18L129.78,90.14L129.86,90.07L129.92,89.97L129.93,89.84L129.93,89.62L129.85,89.66L129.85,89.88L129.83,90.01L129.78,90.12L129.69,90.18L129.59,90.20L129.48,90.17"/><path style="stroke:#000000;stroke-width:0.088" d="M129.85,89.88L129.93,89.84"/><path style="stroke:#000000;stroke-width:0.088" d="M129.93,89.62L129.92,89.47L129.86,89.32L129.78,89.19L129.68,89.08L129.56,89.01L129.45,88.98L129.34,89.00L129.26,89.04L129.36,89.03L129.48,89.05L129.59,89.13L129.69,89.23L129.78,89.37L129.78,89.38L129.83,89.52L129.85,89.66"/><path style="stroke:#000000;stroke-width:0.088" d="M129.74,89.64L129.74,89.62L129.69,89.50L129.63,89.40L129.62,89.39"/><path style="stroke:#000000;stroke-width:0.088" d="M129.12,89.23L129.12,89.21L129.17,89.11L129.26,89.04"/><path style="stroke:#000000;stroke-width:0.088" d="M122.72,97.15L122.50,97.05L122.50,91.47L124.17,92.19L124.17,97.78L122.72,97.15"/><path style="stroke:#000000;stroke-width:0.088" d="M122.89,96.37L122.79,96.18L122.73,95.92L122.73,95.68L122.80,95.48L122.93,95.35L123.10,95.30L123.30,95.33L123.33,95.34L123.50,95.44L123.68,95.62L123.82,95.85L123.92,96.10L123.95,96.36L123.91,96.58L123.81,96.74L123.66,96.84L123.47,96.85L123.27,96.78L123.08,96.63L122.91,96.42L122.89,96.37"/><path style="stroke:#000000;stroke-width:0.088" d="M122.89,94.09L122.79,93.89L122.73,93.63L122.73,93.39L122.80,93.19L122.93,93.06L123.10,93.01L123.30,93.04L123.50,93.15L123.67,93.32L123.68,93.33L123.82,93.56L123.92,93.82L123.94,94.04L123.95,94.07L123.91,94.29L123.81,94.45L123.67,94.54L123.66,94.55L123.47,94.56L123.33,94.52L123.27,94.49L123.08,94.34L122.91,94.13L122.89,94.09"/><path style="stroke:#000000;stroke-width:0.088" d="M123.93,96.25L123.91,96.42L123.83,96.55L123.70,96.63L123.56,96.64L123.39,96.58L123.24,96.46L123.11,96.30L123.01,96.10L122.96,95.89L122.96,95.70L123.02,95.54L123.12,95.44L123.26,95.39L123.42,95.42L123.45,95.43L123.55,95.49"/><path style="stroke:#000000;stroke-width:0.088" d="M123.55,93.21L123.42,93.13L123.26,93.11L123.12,93.15L123.02,93.25L122.96,93.41L122.96,93.60L123.01,93.81L123.11,94.01L123.24,94.17L123.39,94.29L123.45,94.32L123.56,94.35L123.70,94.34L123.83,94.26L123.91,94.13L123.93,93.97"/><path style="stroke:#000000;stroke-width:0.088" d="M124.17,97.78L128.99,95.31L128.99,89.73L124.17,92.19"/><path style="stroke:#000000;stroke-width:0.088" d="M124.87,95.04L124.87,94.96L124.86,94.88L124.83,94.83L124.79,94.80L124.73,94.80L124.67,94.82L124.61,94.88L124.56,94.95L124.52,95.03L124.50,95.12L124.50,95.20L124.52,95.26L124.56,95.31L124.61,95.32L124.67,95.31L124.69,95.30L124.74,95.27L124.79,95.21L124.84,95.13L124.87,95.04"/><path style="stroke:#000000;stroke-width:0.088" d="M128.41,94.09L128.46,94.02L128.52,93.97L128.54,93.96L128.58,93.94L128.64,93.94L128.69,93.97L128.72,94.03L128.73,94.10L128.72,94.19L128.69,94.27L128.65,94.35L128.59,94.41L128.53,94.45L128.47,94.47L128.42,94.45L128.38,94.41L128.35,94.34L128.35,94.26L128.37,94.18L128.41,94.09"/><path style="stroke:#000000;stroke-width:0.088" d="M128.99,92.38L129.00,92.40L129.05,92.75L129.01,93.06L128.99,93.09"/><path style="stroke:#000000;stroke-width:0.088" d="M55.82,62.63L54.14,61.90L54.14,59.81L54.17,59.79L54.30,59.84L55.80,60.49L55.82,60.53L60.64,58.07L60.64,60.16L55.82,62.63L55.82,60.53"/><path style="stroke:#000000;stroke-width:0.088" d="M54.17,59.79L55.66,59.02"/><path style="stroke:#000000;stroke-width:0.088" d="M55.80,60.49L60.62,58.03L60.62,55.23L58.54,56.30L58.44,56.26L57.11,56.94L57.02,56.94L57.02,59.73L55.67,59.14L55.67,56.35L57.02,56.94"/><path style="stroke:#000000;stroke-width:0.088" d="M55.80,60.49L58.54,59.09L58.54,56.30"/><path style="stroke:#000000;stroke-width:0.088" d="M55.67,56.35L55.66,56.31L55.66,59.10L55.67,59.14"/><path style="stroke:#000000;stroke-width:0.088" d="M55.66,56.31L56.44,55.91"/><path style="stroke:#000000;stroke-width:0.088" d="M56.70,55.49L56.70,56.05L56.49,56.16L56.44,56.14L56.44,55.58L56.66,55.47L56.70,55.49L56.49,55.60L56.49,56.16"/><path style="stroke:#000000;stroke-width:0.088" d="M56.70,55.78L56.99,55.63L56.91,55.59L56.91,55.67"/><path style="stroke:#000000;stroke-width:0.088" d="M56.49,55.60L56.44,55.58"/><path style="stroke:#000000;stroke-width:0.088" d="M57.11,56.94L57.11,59.73L57.02,59.73"/><path style="stroke:#000000;stroke-width:0.088" d="M57.11,59.73L58.44,59.05L58.44,56.26"/><path style="stroke:#000000;stroke-width:0.088" d="M57.29,56.11L57.29,56.32L57.26,56.36L57.21,56.39L57.14,56.41L57.06,56.42L56.97,56.41L56.90,56.40L56.87,56.39L56.84,56.37L56.80,56.34L56.78,56.30L56.78,56.13L56.80,56.09L56.84,56.06L56.90,56.03L56.98,56.02L57.06,56.01L57.14,56.02L57.21,56.04L57.26,56.08L57.29,56.11L57.29,56.15L57.26,56.19L57.21,56.22L57.14,56.24L57.06,56.25L56.97,56.25L56.90,56.23L56.87,56.22L56.84,56.20L56.80,56.17L56.78,56.13"/><path style="stroke:#000000;stroke-width:0.088" d="M57.29,56.28L57.29,56.28"/><path style="stroke:#000000;stroke-width:0.088" d="M57.37,56.10L57.29,56.06L57.29,55.50L57.33,55.48L57.56,55.58L57.52,55.60L57.52,55.91"/><path style="stroke:#000000;stroke-width:0.088" d="M57.63,55.90L57.63,56.45L57.42,56.56L57.42,56.01L57.63,55.90L57.59,55.88L57.37,55.99L57.42,56.01"/><path style="stroke:#000000;stroke-width:0.088" d="M57.42,56.56L57.37,56.54L57.37,55.99"/><path style="stroke:#000000;stroke-width:0.088" d="M56.88,56.13L56.89,56.11L56.92,56.08L56.96,56.07L57.00,56.06L57.06,56.06L57.10,56.06L57.15,56.08L57.18,56.10L57.19,56.12L57.19,56.15L57.17,56.17L57.14,56.19L57.10,56.20L57.05,56.21L56.99,56.20L56.95,56.19L56.93,56.19L56.91,56.17L56.89,56.15L56.88,56.13"/><path style="stroke:#000000;stroke-width:0.088" d="M57.15,56.18L57.16,56.17L57.16,56.15L57.15,56.13L57.12,56.11L57.09,56.10L57.05,56.10L57.01,56.10L56.97,56.11L56.94,56.12L56.92,56.14L56.91,56.16L56.92,56.18L56.92,56.18"/><path style="stroke:#000000;stroke-width:0.088" d="M56.91,55.59L58.99,54.53L60.62,55.23"/><path style="stroke:#000000;stroke-width:0.088" d="M57.52,55.60L57.29,55.50"/><path style="stroke:#000000;stroke-width:0.088" d="M57.56,55.58L57.56,55.89"/><path style="stroke:#000000;stroke-width:0.088" d="M58.54,59.09L58.44,59.05"/><path style="stroke:#000000;stroke-width:0.088" d="M60.64,58.07L60.62,58.03"/><path style="stroke:#000000;stroke-width:0.088" d="M60.64,59.72L60.81,59.63L60.92,59.61L61.04,59.63L61.16,59.71L61.27,59.82L61.35,59.96L61.41,60.12L61.42,60.27L61.39,60.40L61.33,60.50L61.23,60.55L60.64,60.85"/><path style="stroke:#000000;stroke-width:0.088" d="M61.13,60.60L61.24,60.63L61.34,60.61L61.43,60.55L61.48,60.45L61.50,60.32L61.58,60.27L61.56,60.40L61.51,60.50L61.43,60.57L61.34,60.61"/><path style="stroke:#000000;stroke-width:0.088" d="M61.50,60.32L61.50,60.09L61.48,59.95L61.43,59.80L61.34,59.66L61.24,59.56L61.12,59.48L61.01,59.46L60.90,59.47L60.99,59.43L61.09,59.41L61.21,59.44L61.32,59.51L61.43,59.62L61.51,59.75L61.56,59.90L61.58,60.05L61.58,60.27"/><path style="stroke:#000000;stroke-width:0.088" d="M61.39,60.07L61.39,60.05L61.34,59.93L61.28,59.83L61.27,59.82"/><path style="stroke:#000000;stroke-width:0.088" d="M60.90,59.47L60.82,59.54L60.77,59.64L60.77,59.66"/><path style="stroke:#000000;stroke-width:0.088" d="M61.50,60.09L61.58,60.05"/><path style="stroke:#000000;stroke-width:0.088" d="M54.14,67.48L55.82,68.21L55.82,62.63L54.14,61.90L54.14,67.48"/><path style="stroke:#000000;stroke-width:0.088" d="M54.38,66.11L54.38,66.35L54.44,66.61L54.56,66.85L54.72,67.06L54.92,67.21L55.12,67.28L55.31,67.27L55.46,67.17L55.56,67.01L55.59,66.79L55.56,66.53L55.47,66.28L55.33,66.05L55.14,65.87L54.98,65.77L54.94,65.76L54.75,65.73L54.58,65.78L54.45,65.91L54.38,66.11"/><path style="stroke:#000000;stroke-width:0.088" d="M54.44,64.32L54.56,64.56L54.72,64.77L54.92,64.92L54.98,64.95L55.12,64.99L55.31,64.98L55.46,64.88L55.56,64.72L55.59,64.50L55.56,64.25L55.47,63.99L55.33,63.76L55.14,63.58L54.94,63.47L54.75,63.44L54.58,63.49L54.45,63.62L54.38,63.82L54.38,64.06L54.44,64.32"/><path style="stroke:#000000;stroke-width:0.088" d="M55.58,66.68L55.55,66.85L55.47,66.98L55.35,67.06L55.20,67.07L55.04,67.01L54.89,66.89L54.75,66.73L54.66,66.53L54.61,66.32L54.61,66.13L54.67,65.97L54.77,65.87L54.91,65.82L55.06,65.85L55.09,65.86L55.20,65.92"/><path style="stroke:#000000;stroke-width:0.088" d="M55.20,63.64L55.06,63.56L54.91,63.54L54.77,63.58L54.67,63.68L54.61,63.84L54.61,64.03L54.66,64.24L54.75,64.44L54.89,64.60L55.04,64.72L55.09,64.75L55.20,64.78L55.35,64.77L55.47,64.69L55.55,64.56L55.58,64.40"/><path style="stroke:#000000;stroke-width:0.088" d="M55.82,68.21L60.64,65.74L60.64,60.16L55.82,62.63"/><path style="stroke:#000000;stroke-width:0.088" d="M56.51,65.47L56.52,65.39L56.51,65.31L56.48,65.26L56.43,65.23L56.38,65.23L56.31,65.25L56.25,65.31L56.20,65.38L56.17,65.46L56.15,65.55L56.15,65.63L56.17,65.69L56.21,65.74L56.26,65.75L56.32,65.74L56.33,65.73L56.38,65.70L56.44,65.64L56.49,65.56L56.51,65.47"/><path style="stroke:#000000;stroke-width:0.088" d="M60.06,64.52L60.02,64.61L60.00,64.69L60.00,64.77L60.02,64.84L60.06,64.88L60.12,64.90L60.18,64.88L60.24,64.84L60.29,64.78L60.34,64.70L60.37,64.62L60.38,64.53L60.37,64.46L60.33,64.40L60.29,64.37L60.23,64.37L60.19,64.39L60.17,64.40L60.11,64.45L60.06,64.52"/><path style="stroke:#000000;stroke-width:0.088" d="M60.64,62.81L60.65,62.83L60.70,63.18L60.66,63.49L60.64,63.53"/><path style="stroke:#000000;stroke-width:0.088" d="M83.11,52.77L68.82,46.59L68.41,44.21L68.62,44.06L83.83,50.64L83.53,50.76L83.11,52.77L85.99,51.61L88.69,50.33L89.09,48.37L87.04,49.35L84.62,50.34L84.71,49.82L84.72,49.81"/><path style="stroke:#000000;stroke-width:0.088" d="M68.27,43.17L68.33,43.63L83.61,50.24L83.67,49.83L68.27,43.17L68.49,43.02L83.97,49.72L83.67,49.83"/><path style="stroke:#000000;stroke-width:0.088" d="M68.41,44.21L83.53,50.76"/><path style="stroke:#000000;stroke-width:0.088" d="M68.35,41.66L68.38,41.98L68.16,42.13L68.21,42.59L83.73,49.31L83.78,48.89L68.16,42.13"/><path style="stroke:#000000;stroke-width:0.088" d="M68.38,41.98L84.08,48.78L83.78,48.89"/><path style="stroke:#000000;stroke-width:0.088" d="M68.08,41.10L68.11,41.56L83.83,48.35L83.86,47.93L68.08,41.10L68.30,40.96L68.28,40.63"/><path style="stroke:#000000;stroke-width:0.088" d="M68.30,40.96L84.16,47.82L83.86,47.93"/><path style="stroke:#000000;stroke-width:0.088" d="M69.00,38.95L68.01,38.52L68.01,38.08L69.24,38.61L69.55,38.50L69.90,38.54L70.27,38.72L70.61,39.04L70.88,39.45L70.96,39.64L71.07,39.91L71.14,40.38L71.08,40.79L70.91,41.11L70.65,41.30L70.78,41.27L83.91,46.96L83.89,47.39L68.05,40.53L68.03,40.09L68.25,39.94L68.24,39.62"/><path style="stroke:#000000;stroke-width:0.088" d="M68.98,39.94L68.01,39.52L68.01,39.08L68.91,39.47"/><path style="stroke:#000000;stroke-width:0.088" d="M68.25,39.94L69.13,40.32"/><path style="stroke:#000000;stroke-width:0.088" d="M68.03,40.09L69.30,40.64"/><path style="stroke:#000000;stroke-width:0.088" d="M68.01,39.08L68.22,38.93L68.22,38.61"/><path style="stroke:#000000;stroke-width:0.088" d="M68.22,38.93L68.92,39.23"/><path style="stroke:#000000;stroke-width:0.088" d="M68.01,38.08L68.23,37.93L68.24,37.62"/><path style="stroke:#000000;stroke-width:0.088" d="M70.18,37.78L68.27,36.95L68.05,37.10L68.03,37.53L69.66,38.24"/><path style="stroke:#000000;stroke-width:0.088" d="M68.23,37.93L69.43,38.45"/><path style="stroke:#000000;stroke-width:0.088" d="M68.05,37.10L69.99,37.94"/><path style="stroke:#000000;stroke-width:0.088" d="M70.44,37.58L68.08,36.56L68.11,36.13L68.33,35.98L68.36,35.68"/><path style="stroke:#000000;stroke-width:0.088" d="M68.27,36.95L68.28,36.65"/><path style="stroke:#000000;stroke-width:0.088" d="M68.11,36.13L70.91,37.34"/><path style="stroke:#000000;stroke-width:0.088" d="M68.33,35.98L71.17,37.21"/><path style="stroke:#000000;stroke-width:0.088" d="M68.46,34.74L68.42,35.03L68.21,35.18L83.73,41.90L83.78,42.35L73.15,37.76L73.06,37.64L72.61,37.21L72.12,36.95L71.65,36.89L71.33,36.97L68.16,35.60L68.21,35.18"/><path style="stroke:#000000;stroke-width:0.088" d="M68.42,35.03L84.03,41.78L83.96,41.20L83.67,41.32L83.61,40.86L83.91,40.74L68.55,34.10L68.33,34.25L68.27,34.66L83.67,41.32"/><path style="stroke:#000000;stroke-width:0.088" d="M68.33,34.25L83.61,40.86"/><path style="stroke:#000000;stroke-width:0.088" d="M83.91,40.74L83.83,40.16L83.53,40.27L68.41,33.73L68.83,31.72L83.11,37.90L85.98,36.74L88.68,35.46L89.09,37.77L86.80,38.88L84.64,39.84L84.73,40.42L87.14,39.34L89.17,38.35L89.23,38.82L86.94,39.93L84.79,40.88L84.85,41.46L87.27,40.39L89.29,39.40L89.34,39.87L87.05,40.98L84.90,41.92L84.95,42.49L87.36,41.43L89.39,40.45L89.42,40.91L87.14,42.02L84.98,42.95L85.01,43.52L87.43,42.47L89.45,41.48L89.47,41.94L87.19,43.04L85.04,43.96L85.05,44.53L87.47,43.49L89.49,42.51L89.50,42.96L86.73,44.27L85.06,44.97L85.06,45.53L86.73,44.83L89.50,43.52L89.49,43.97L87.21,45.07L85.05,45.97L85.03,46.52L87.45,45.50L89.47,44.52L89.45,44.97L87.17,46.06L85.01,46.96L84.97,47.50L87.39,46.49L89.42,45.51L89.39,45.95L87.10,47.03L84.94,47.93L84.89,48.46L87.30,47.46L89.34,46.48L89.29,46.91L87.01,47.99L84.84,48.88L84.77,49.41L87.19,48.41L89.23,47.43L89.17,47.86L90.03,47.42L90.09,47.00L89.23,47.43"/><path style="stroke:#000000;stroke-width:0.088" d="M68.58,43.74L68.62,44.06"/><path style="stroke:#000000;stroke-width:0.088" d="M68.49,43.02L68.45,42.69"/><path style="stroke:#000000;stroke-width:0.088" d="M70.65,41.30L70.31,41.34L70.02,41.26L69.95,41.23L69.59,40.97L69.28,40.61L69.04,40.16L68.92,39.69L68.91,39.25L69.02,38.88L69.24,38.61L70.33,37.64L70.71,37.49L71.16,37.53L71.30,37.59L71.62,37.77L72.04,38.16L72.39,38.68L72.61,39.25L72.70,39.83L72.63,40.35L72.42,40.75L72.09,40.99L71.15,41.19L84.21,46.84L84.22,46.29L83.92,46.40L83.93,45.97L72.24,40.91"/><path style="stroke:#000000;stroke-width:0.088" d="M68.55,34.10L68.59,33.81"/><path style="stroke:#000000;stroke-width:0.088" d="M68.83,31.72L71.05,30.28L73.53,28.90L74.39,28.46L75.77,29.06L78.82,29.40L80.39,29.83L81.97,30.43L82.44,30.66L82.36,30.62"/><path style="stroke:#000000;stroke-width:0.088" d="M70.33,37.64L71.58,37.01L71.80,36.91"/><path style="stroke:#000000;stroke-width:0.088" d="M70.78,41.27L71.15,41.19"/><path style="stroke:#000000;stroke-width:0.088" d="M71.23,37.18L71.45,36.94"/><path style="stroke:#000000;stroke-width:0.088" d="M71.52,36.92L71.32,37.14"/><path style="stroke:#000000;stroke-width:0.088" d="M71.63,41.09L83.92,46.40"/><path style="stroke:#000000;stroke-width:0.088" d="M72.09,40.99L73.42,40.31L73.74,40.05L73.76,40.01"/><path style="stroke:#000000;stroke-width:0.088" d="M72.95,40.66L73.06,40.63L73.40,40.41L83.92,44.97L83.93,45.41L72.95,40.66L73.21,40.53L72.98,40.54"/><path style="stroke:#000000;stroke-width:0.088" d="M83.93,45.97L84.23,45.85L72.50,40.78"/><path style="stroke:#000000;stroke-width:0.088" d="M73.08,40.48L73.32,40.46"/><path style="stroke:#000000;stroke-width:0.088" d="M73.40,40.41L73.65,40.28L73.68,40.26L73.80,40.03"/><path style="stroke:#000000;stroke-width:0.088" d="M84.19,43.84L83.89,43.95L83.91,44.40L73.65,39.97L73.73,39.56L73.99,39.43L84.19,43.84L84.15,43.27L83.86,43.38L83.82,42.93L73.55,38.48L73.81,38.35L73.77,38.27"/><path style="stroke:#000000;stroke-width:0.088" d="M83.91,44.40L84.21,44.29L84.22,44.85L73.65,40.28"/><path style="stroke:#000000;stroke-width:0.088" d="M83.89,43.95L73.73,39.56"/><path style="stroke:#000000;stroke-width:0.088" d="M83.86,43.38L73.69,38.99L73.65,38.81L73.55,38.48"/><path style="stroke:#000000;stroke-width:0.088" d="M83.82,42.93L84.12,42.82L73.81,38.35L73.68,38.06L73.61,37.96"/><path style="stroke:#000000;stroke-width:0.088" d="M73.98,39.21L73.96,39.44"/><path style="stroke:#000000;stroke-width:0.088" d="M73.97,39.11L73.99,39.30L73.99,39.43"/><path style="stroke:#000000;stroke-width:0.088" d="M82.48,30.68L82.44,30.66L83.54,31.19L85.11,32.12L88.16,34.42L86.41,34.77L84.40,34.94L82.36,34.89L80.41,34.63L78.63,34.16L78.56,34.13L77.13,33.51L75.98,32.71L75.25,31.82L74.98,30.87L75.17,29.91L75.77,29.06"/><path style="stroke:#000000;stroke-width:0.088" d="M74.74,28.62L74.82,28.25L101.54,14.57L102.60,15.03L75.87,28.70L74.82,28.25"/><path style="stroke:#000000;stroke-width:0.088" d="M102.60,15.03L105.47,15.26L109.12,16.40L112.76,18.42L115.64,20.67L88.91,34.34L86.04,32.09L82.39,30.07L78.75,28.94L75.87,28.70"/><path style="stroke:#000000;stroke-width:0.088" d="M82.44,27.23L82.12,27.11L81.95,26.92L82.00,26.72L82.23,26.50L82.62,26.29L83.13,26.11L83.72,25.97L84.35,25.90L84.92,25.91L85.37,26.02L85.66,26.20L85.74,26.44L85.63,26.68L85.34,26.91L85.24,26.97L84.76,27.16L84.17,27.28L83.55,27.34L82.97,27.32L82.44,27.23"/><path style="stroke:#000000;stroke-width:0.088" d="M85.39,26.87L85.24,26.76L84.75,26.58L84.16,26.49L83.53,26.49L82.94,26.58L82.45,26.76L82.11,27.01L82.08,27.06"/><path style="stroke:#000000;stroke-width:0.088" d="M83.11,37.90L83.53,40.27"/><path style="stroke:#000000;stroke-width:0.088" d="M82.54,27.25L82.69,27.06L82.97,26.90L83.34,26.79L83.76,26.74L84.20,26.77L84.59,26.85L84.91,26.99L84.99,27.07"/><path style="stroke:#000000;stroke-width:0.088" d="M82.77,27.29L82.82,27.22L83.06,27.08L83.39,26.98L83.77,26.94L84.16,26.96L84.51,27.04L84.76,27.15"/><path style="stroke:#000000;stroke-width:0.088" d="M83.61,50.24L83.91,50.13L83.83,50.64"/><path style="stroke:#000000;stroke-width:0.088" d="M83.97,49.72L84.03,49.19L83.73,49.31"/><path style="stroke:#000000;stroke-width:0.088" d="M84.08,48.78L84.12,48.24L83.83,48.35"/><path style="stroke:#000000;stroke-width:0.088" d="M83.91,46.96L84.21,46.84"/><path style="stroke:#000000;stroke-width:0.088" d="M83.89,47.39L84.19,47.27L84.16,47.82"/><path style="stroke:#000000;stroke-width:0.088" d="M84.23,45.85L84.23,45.30L83.93,45.41"/><path style="stroke:#000000;stroke-width:0.088" d="M83.92,44.97L84.22,44.85"/><path style="stroke:#000000;stroke-width:0.088" d="M83.78,42.35L84.07,42.24L84.12,42.82"/><path style="stroke:#000000;stroke-width:0.088" d="M83.73,41.90L84.03,41.78"/><path style="stroke:#000000;stroke-width:0.088" d="M84.71,49.82L86.88,48.94L89.17,47.86"/><path style="stroke:#000000;stroke-width:0.088" d="M84.62,50.34L89.67,47.75L89.70,47.59"/><path style="stroke:#000000;stroke-width:0.088" d="M84.78,49.40L89.81,46.83L90.09,47.00"/><path style="stroke:#000000;stroke-width:0.088" d="M84.84,48.88L84.87,48.86"/><path style="stroke:#000000;stroke-width:0.088" d="M89.34,46.48L90.20,46.04L89.92,45.89L84.89,48.46"/><path style="stroke:#000000;stroke-width:0.088" d="M90.01,44.68L90.00,44.93L84.97,47.50"/><path style="stroke:#000000;stroke-width:0.088" d="M84.97,47.91L84.94,47.93"/><path style="stroke:#000000;stroke-width:0.088" d="M85.01,46.96L85.02,46.95"/><path style="stroke:#000000;stroke-width:0.088" d="M85.03,46.52L90.05,43.95L90.06,43.68"/><path style="stroke:#000000;stroke-width:0.088" d="M85.06,45.53L90.07,42.96L90.07,42.67"/><path style="stroke:#000000;stroke-width:0.088" d="M85.05,44.53L90.07,41.96L90.35,42.07L90.35,42.53L89.50,42.96"/><path style="stroke:#000000;stroke-width:0.088" d="M85.01,43.52L90.03,40.95L90.01,40.61"/><path style="stroke:#000000;stroke-width:0.088" d="M84.95,42.49L89.97,39.93L90.24,40.01L90.28,40.48L89.42,40.91"/><path style="stroke:#000000;stroke-width:0.088" d="M84.85,41.46L89.87,38.89L90.15,38.97L90.20,39.43L89.34,39.87"/><path style="stroke:#000000;stroke-width:0.088" d="M84.78,40.40L89.75,37.85L90.02,37.91L89.17,38.35"/><path style="stroke:#000000;stroke-width:0.088" d="M84.89,31.99L85.67,32.41L88.38,34.52"/><path style="stroke:#000000;stroke-width:0.088" d="M87.38,50.95L88.44,51.41L88.44,51.69L91.23,52.90L108.36,44.13L108.36,42.46L91.23,51.22L88.91,50.22"/><path style="stroke:#000000;stroke-width:0.088" d="M88.16,34.42L89.54,35.02L89.94,37.33L89.09,37.77"/><path style="stroke:#000000;stroke-width:0.088" d="M88.69,50.33L89.55,49.89L89.95,47.93L89.67,47.75"/><path style="stroke:#000000;stroke-width:0.088" d="M89.09,48.37L89.95,47.93"/><path style="stroke:#000000;stroke-width:0.088" d="M89.29,46.91L89.84,46.63L89.81,46.83"/><path style="stroke:#000000;stroke-width:0.088" d="M89.39,45.95L90.25,45.51L90.28,45.08L90.00,44.93"/><path style="stroke:#000000;stroke-width:0.088" d="M89.42,45.51L90.28,45.08"/><path style="stroke:#000000;stroke-width:0.088" d="M89.39,40.45L90.24,40.01"/><path style="stroke:#000000;stroke-width:0.088" d="M89.29,39.40L90.15,38.97"/><path style="stroke:#000000;stroke-width:0.088" d="M89.23,38.82L90.08,38.39L90.02,37.91"/><path style="stroke:#000000;stroke-width:0.088" d="M88.68,35.46L89.54,35.02"/><path style="stroke:#000000;stroke-width:0.088" d="M88.91,34.34L89.97,34.80L90.37,37.11L90.10,37.05L90.18,37.63L90.45,37.69L90.51,38.17L90.24,38.09L90.30,38.67L90.58,38.75L90.62,39.22L90.35,39.13L90.40,39.71L90.67,39.79L90.71,40.26L90.43,40.16L90.46,40.73L90.74,40.83L90.76,41.29L90.48,41.18L90.50,41.74L90.77,41.85L90.78,42.31L90.50,42.19L90.51,42.75L90.78,42.86L90.77,43.32L90.50,43.18L90.49,43.52L90.49,43.74L90.76,43.87L90.74,44.31L90.46,44.17L90.43,44.71L90.71,44.85L90.67,45.29L90.40,45.13L90.35,45.67L90.63,45.82L90.58,46.25L90.30,46.09L90.24,46.61L90.51,46.78L90.46,47.20L90.18,47.02L90.10,47.53L116.67,33.94L116.57,33.99L116.59,33.83"/><path style="stroke:#000000;stroke-width:0.088" d="M89.55,49.89L89.97,49.67L89.62,49.52"/><path style="stroke:#000000;stroke-width:0.088" d="M90.37,47.71L117.10,34.04L116.70,36.00L89.97,49.67L90.37,47.71L90.10,47.53"/><path style="stroke:#000000;stroke-width:0.088" d="M89.82,47.52L89.78,47.82"/><path style="stroke:#000000;stroke-width:0.088" d="M89.91,46.89L89.96,46.57"/><path style="stroke:#000000;stroke-width:0.088" d="M89.92,45.89L89.94,45.67"/><path style="stroke:#000000;stroke-width:0.088" d="M89.84,46.63L90.15,46.47L90.20,46.04"/><path style="stroke:#000000;stroke-width:0.088" d="M90.05,45.96L90.10,45.58"/><path style="stroke:#000000;stroke-width:0.088" d="M90.24,44.57L90.24,44.66L90.19,45.02"/><path style="stroke:#000000;stroke-width:0.088" d="M89.47,44.52L90.33,44.09L90.31,44.53L89.45,44.97"/><path style="stroke:#000000;stroke-width:0.088" d="M89.49,43.97L90.35,43.54L90.35,43.08L89.50,43.52"/><path style="stroke:#000000;stroke-width:0.088" d="M90.05,43.95L90.33,44.09"/><path style="stroke:#000000;stroke-width:0.088" d="M90.07,42.96L90.35,43.08"/><path style="stroke:#000000;stroke-width:0.088" d="M89.49,42.51L90.35,42.07"/><path style="stroke:#000000;stroke-width:0.088" d="M90.07,41.96L90.06,41.64"/><path style="stroke:#000000;stroke-width:0.088" d="M89.45,41.48L90.31,41.05L90.33,41.51L89.47,41.94"/><path style="stroke:#000000;stroke-width:0.088" d="M90.03,40.95L90.31,41.05"/><path style="stroke:#000000;stroke-width:0.088" d="M89.94,39.57L89.97,39.93"/><path style="stroke:#000000;stroke-width:0.088" d="M90.23,40.01L90.16,39.45"/><path style="stroke:#000000;stroke-width:0.088" d="M89.87,38.89L89.83,38.51"/><path style="stroke:#000000;stroke-width:0.088" d="M90.10,38.95L90.03,38.42"/><path style="stroke:#000000;stroke-width:0.088" d="M89.89,37.36L89.96,37.90"/><path style="stroke:#000000;stroke-width:0.088" d="M89.70,37.46L89.75,37.85"/><path style="stroke:#000000;stroke-width:0.088" d="M90.18,37.63L116.64,24.09L116.59,23.70"/><path style="stroke:#000000;stroke-width:0.088" d="M89.71,36.00L89.61,35.20L89.57,35.19"/><path style="stroke:#000000;stroke-width:0.088" d="M89.61,35.20L89.58,35.22"/><path style="stroke:#000000;stroke-width:0.088" d="M89.97,34.80L116.69,21.13L117.10,23.44L90.37,37.11"/><path style="stroke:#000000;stroke-width:0.088" d="M90.60,49.53L90.60,49.75L90.66,49.90L90.81,50.02L91.05,50.12L91.34,50.18L91.65,50.19L91.95,50.15L92.21,50.06L92.39,49.95L92.49,49.81L92.49,49.58L92.39,49.72L92.25,49.82L91.95,49.92L91.65,49.96L91.34,49.95L91.05,49.90L90.81,49.80L90.66,49.67L90.60,49.53L90.65,49.38L90.78,49.26"/><path style="stroke:#000000;stroke-width:0.088" d="M90.86,49.22L91.01,49.15L91.30,49.09L91.61,49.07L91.91,49.11L92.18,49.18L92.37,49.30L92.48,49.43L92.49,49.58"/><path style="stroke:#000000;stroke-width:0.088" d="M90.46,47.20L117.18,33.53L117.24,33.10L90.51,46.78"/><path style="stroke:#000000;stroke-width:0.088" d="M90.24,46.61L116.96,32.94L116.98,32.74"/><path style="stroke:#000000;stroke-width:0.088" d="M90.58,46.25L117.30,32.58L117.35,32.15L90.63,45.82"/><path style="stroke:#000000;stroke-width:0.088" d="M90.67,45.29L117.40,31.62L117.43,31.18L90.71,44.85"/><path style="stroke:#000000;stroke-width:0.088" d="M90.35,45.67L117.07,32.00L117.35,32.15"/><path style="stroke:#000000;stroke-width:0.088" d="M90.43,44.71L117.05,31.09L116.89,31.17L116.91,30.92"/><path style="stroke:#000000;stroke-width:0.088" d="M90.74,44.31L117.46,30.64L117.48,30.19L90.76,43.87"/><path style="stroke:#000000;stroke-width:0.088" d="M90.24,43.59L90.24,44.04"/><path style="stroke:#000000;stroke-width:0.088" d="M90.49,43.74L117.20,30.06L116.95,30.19L116.95,29.92"/><path style="stroke:#000000;stroke-width:0.088" d="M90.24,43.03L90.24,42.58"/><path style="stroke:#000000;stroke-width:0.088" d="M90.77,43.32L117.50,29.64L117.50,29.19L116.97,28.96"/><path style="stroke:#000000;stroke-width:0.088" d="M90.51,42.75L116.97,29.20L116.97,28.91"/><path style="stroke:#000000;stroke-width:0.088" d="M117.50,29.19L90.78,42.86"/><path style="stroke:#000000;stroke-width:0.088" d="M90.24,41.55L90.24,42.03"/><path style="stroke:#000000;stroke-width:0.088" d="M90.78,42.31L117.50,28.63L117.50,28.18L117.22,28.07L90.50,41.74"/><path style="stroke:#000000;stroke-width:0.088" d="M90.76,41.29L117.48,27.61L117.46,27.15L90.74,40.83"/><path style="stroke:#000000;stroke-width:0.088" d="M117.50,28.18L90.77,41.85"/><path style="stroke:#000000;stroke-width:0.088" d="M90.24,40.50L90.24,41.02"/><path style="stroke:#000000;stroke-width:0.088" d="M90.46,40.73L117.18,27.06L116.91,26.94"/><path style="stroke:#000000;stroke-width:0.088" d="M90.71,40.26L117.43,26.58L117.40,26.12L90.67,39.79"/><path style="stroke:#000000;stroke-width:0.088" d="M117.40,26.12L117.12,26.03L90.40,39.71"/><path style="stroke:#000000;stroke-width:0.088" d="M90.62,39.22L117.35,25.54L117.30,25.07L90.58,38.75"/><path style="stroke:#000000;stroke-width:0.088" d="M90.30,38.67L116.77,25.13L116.73,24.75"/><path style="stroke:#000000;stroke-width:0.088" d="M116.64,24.09L116.90,23.96L117.18,24.02L117.24,24.49L90.51,38.17"/><path style="stroke:#000000;stroke-width:0.088" d="M90.45,37.69L117.18,24.02"/><path style="stroke:#000000;stroke-width:0.088" d="M91.23,52.90L91.23,51.22"/><path style="stroke:#000000;stroke-width:0.088" d="M91.63,49.72L91.49,49.72L91.35,49.70L91.23,49.66L91.15,49.61L91.11,49.54L91.12,49.47L91.17,49.41L91.27,49.36L91.40,49.32L91.54,49.31L91.68,49.32L91.81,49.35L91.92,49.40L91.98,49.46L91.99,49.53L91.96,49.60L91.88,49.66L91.78,49.70L91.63,49.72"/><path style="stroke:#000000;stroke-width:0.088" d="M104.31,42.52L104.31,42.74L104.36,42.88L104.52,43.01L104.75,43.11L105.04,43.16L105.35,43.17L105.65,43.13L105.91,43.05L106.10,42.93L106.19,42.79L106.19,42.57L106.10,42.71L105.95,42.81L105.65,42.91L105.35,42.95L105.04,42.94L104.75,42.89L104.52,42.79L104.36,42.66L104.31,42.52L104.35,42.37L104.48,42.25"/><path style="stroke:#000000;stroke-width:0.088" d="M105.00,42.34L104.88,42.40L104.82,42.46L104.81,42.53L104.85,42.59L104.93,42.65L105.05,42.69L105.19,42.71L105.34,42.71L105.47,42.69L105.59,42.64L105.66,42.59L105.70,42.52L105.68,42.45L105.62,42.39L105.52,42.34L105.39,42.31L105.24,42.30L105.10,42.31L105.00,42.34"/><path style="stroke:#000000;stroke-width:0.088" d="M104.56,42.21L104.72,42.14L105.00,42.08L105.31,42.06L105.62,42.09L105.88,42.17L106.08,42.29L106.19,42.42L106.19,42.57"/><path style="stroke:#000000;stroke-width:0.088" d="M106.04,41.45L108.36,42.46"/><path style="stroke:#000000;stroke-width:0.088" d="M115.64,20.67L116.69,21.13"/><path style="stroke:#000000;stroke-width:0.088" d="M116.67,33.94L116.82,33.86L117.10,34.04"/><path style="stroke:#000000;stroke-width:0.088" d="M116.61,23.83L116.90,23.96"/><path style="stroke:#000000;stroke-width:0.088" d="M116.82,33.86L116.85,33.70"/><path style="stroke:#000000;stroke-width:0.088" d="M116.73,32.87L116.70,33.07L116.96,32.94L117.24,33.10"/><path style="stroke:#000000;stroke-width:0.088" d="M117.09,31.77L117.07,32.00L116.81,32.12L116.83,31.91"/><path style="stroke:#000000;stroke-width:0.088" d="M117.05,31.09L117.15,31.04L117.43,31.18"/><path style="stroke:#000000;stroke-width:0.088" d="M117.15,31.04L117.17,30.79"/><path style="stroke:#000000;stroke-width:0.088" d="M117.48,30.19L117.20,30.06L117.21,29.79"/><path style="stroke:#000000;stroke-width:0.088" d="M116.96,28.20L116.95,27.88"/><path style="stroke:#000000;stroke-width:0.088" d="M116.96,27.96L117.22,28.07"/><path style="stroke:#000000;stroke-width:0.088" d="M117.18,27.06L117.46,27.15"/><path style="stroke:#000000;stroke-width:0.088" d="M116.93,27.19L116.91,26.85"/><path style="stroke:#000000;stroke-width:0.088" d="M117.12,26.03L116.84,25.91"/><path style="stroke:#000000;stroke-width:0.088" d="M116.86,26.17L116.83,25.81"/><path style="stroke:#000000;stroke-width:0.088" d="M117.30,25.07L117.03,25.00L116.74,24.88"/><path style="stroke:#000000;stroke-width:0.088" d="M117.03,25.00L116.77,25.13"/><path style="stroke:#000000;stroke-width:0.088" d="M66.11,20.22L65.64,19.81L65.44,19.19L65.50,18.57L65.70,19.17L65.99,19.43L66.31,19.71L67.26,20.13L68.45,20.38L69.74,20.43L71.00,20.28L71.05,20.93L69.81,21.08L68.48,21.04L67.26,20.79L66.27,20.37L66.11,20.22"/><path style="stroke:#000000;stroke-width:0.088" d="M66.07,20.19L66.08,20.20L66.14,20.25"/><path style="stroke:#000000;stroke-width:0.088" d="M66.25,21.35L66.21,21.34L66.06,20.18"/><path style="stroke:#000000;stroke-width:0.088" d="M66.21,21.34L66.16,21.28L66.02,20.14"/><path style="stroke:#000000;stroke-width:0.088" d="M66.09,20.21L66.61,23.97L66.92,24.39L67.49,24.74L68.29,24.98L69.20,25.09L70.13,25.05L70.99,24.87L71.68,24.57L72.12,24.18L72.27,23.75L72.51,21.98"/><path style="stroke:#000000;stroke-width:0.088" d="M65.50,18.57L65.51,18.52L65.73,17.94L65.73,17.93L65.76,17.91L65.77,17.90L65.81,17.89L65.86,17.91L65.69,18.42L65.88,18.99L66.46,19.51L67.37,19.90L68.49,20.14L69.73,20.19L70.84,20.06L70.90,20.10L70.95,20.15L70.98,20.21L71.00,20.27L71.00,20.28"/><path style="stroke:#000000;stroke-width:0.088" d="M65.51,18.53L65.49,18.52L65.47,18.50L65.47,18.49L65.47,16.59L65.47,16.61L65.49,16.63L65.51,16.64L65.51,18.53"/><path style="stroke:#000000;stroke-width:0.088" d="M65.86,17.91L66.18,18.04L66.21,18.05"/><path style="stroke:#000000;stroke-width:0.088" d="M66.18,18.04L66.08,18.51L66.29,18.98L66.79,19.41L67.55,19.74L68.49,19.95L69.51,20.01L70.53,19.92L70.50,19.91L70.48,19.89L70.46,19.86L70.45,19.83L70.44,19.80L69.51,19.88L68.51,19.82L67.61,19.62L66.87,19.30L66.38,18.88L66.18,18.42L66.36,15.94L66.37,16.40L66.69,16.85L67.31,17.22L68.14,17.48L69.11,17.61L70.12,17.58L71.02,17.41L71.06,17.37L71.21,17.20L71.32,17.03L71.34,16.98L71.34,16.96L71.33,16.95L71.32,16.95L70.92,17.09L70.06,17.25L69.14,17.28L68.25,17.17L67.82,17.05L67.61,17.03L67.43,16.98L67.29,16.89L67.21,16.79L66.91,16.58L66.62,16.17L66.61,15.73L66.90,15.32L67.15,15.14L67.13,15.14L67.12,15.14L67.08,15.14L66.99,15.17L66.79,15.31L66.72,15.37L66.41,15.81L66.37,15.87L66.36,15.93L66.36,15.94"/><path style="stroke:#000000;stroke-width:0.088" d="M65.47,16.59L65.49,16.32L65.62,15.83L65.85,15.36L66.16,14.97L66.53,14.69L66.89,14.59L66.92,14.58L67.26,14.66L66.94,14.59L66.62,14.69L66.57,14.70L66.21,14.97L65.89,15.38L65.65,15.87L65.53,16.39L65.51,16.64L66.29,16.97"/><path style="stroke:#000000;stroke-width:0.088" d="M66.61,23.97L66.66,24.13L67.05,24.65L67.17,24.73L67.69,25.04L68.40,25.26L69.22,25.36L70.06,25.32L70.78,25.17L70.83,25.16L71.46,24.89L71.56,24.82L71.99,24.45L72.08,24.33L72.23,23.90L72.27,23.75"/><path style="stroke:#000000;stroke-width:0.088" d="M66.33,20.39L66.71,20.68L66.98,20.81L67.16,22.78L67.31,22.79L67.12,20.86"/><path style="stroke:#000000;stroke-width:0.088" d="M67.43,14.85L67.42,14.84L67.41,14.83L67.37,14.82L67.34,14.82L67.12,14.84L67.13,14.84L67.14,14.85L67.14,14.86L67.14,14.87L67.12,15.00L66.71,14.68L66.71,14.75L67.12,15.08L67.14,14.94L67.43,14.93L67.43,14.85L67.14,14.87L67.14,14.94"/><path style="stroke:#000000;stroke-width:0.088" d="M67.12,15.08L67.12,15.00L67.12,14.98L67.10,14.94L66.78,14.69L67.34,14.82"/><path style="stroke:#000000;stroke-width:0.088" d="M66.71,14.68L66.72,14.68L66.73,14.68L66.76,14.68L66.78,14.69"/><path style="stroke:#000000;stroke-width:0.088" d="M66.76,14.68L67.37,14.82"/><path style="stroke:#000000;stroke-width:0.088" d="M67.22,20.89L67.40,22.74L67.31,22.79"/><path style="stroke:#000000;stroke-width:0.088" d="M66.98,20.81L67.64,21.03L68.76,21.23L69.95,21.24L70.51,21.18L70.43,23.12L70.52,23.07L70.60,21.16"/><path style="stroke:#000000;stroke-width:0.088" d="M67.21,16.79L67.19,16.71L67.19,16.63L67.21,16.67L67.23,16.74L67.29,16.79L67.35,16.84L67.43,16.89L67.52,16.92L67.75,16.97L67.86,16.97L67.99,16.98L68.22,16.95L68.42,16.89L68.57,16.80L68.65,16.69L68.66,16.62L68.65,16.58L68.61,16.49L68.49,16.38L68.32,16.31L68.10,16.27L67.87,16.26L67.65,16.28L67.45,16.34L67.31,16.43L67.29,16.44L67.22,16.54L67.21,16.56L67.19,16.63"/><path style="stroke:#000000;stroke-width:0.088" d="M67.34,16.43L67.48,16.34L67.66,16.29L67.87,16.26L68.09,16.27L68.30,16.31L68.38,16.35L68.46,16.38L68.56,16.48L68.60,16.58L68.56,16.68L68.45,16.77L68.29,16.84L68.09,16.88L67.87,16.89L67.67,16.87L67.66,16.87L67.47,16.81L67.34,16.73L67.27,16.63L67.27,16.52L67.34,16.43"/><path style="stroke:#000000;stroke-width:0.088" d="M67.67,16.45L67.63,16.47L67.57,16.52L67.55,16.58L67.57,16.63L67.63,16.69L67.67,16.71L67.72,16.73L67.83,16.75L67.96,16.76L68.08,16.74L68.18,16.71L68.26,16.66L68.30,16.61L68.30,16.55L68.26,16.49L68.19,16.45L68.08,16.41L67.96,16.40L67.84,16.40L67.72,16.43L67.67,16.45"/><path style="stroke:#000000;stroke-width:0.088" d="M68.22,16.68L68.25,16.65L68.25,16.60L68.22,16.55L68.15,16.51L68.06,16.48L67.96,16.47L67.85,16.47L67.75,16.49L67.67,16.53L67.62,16.57L67.60,16.62L67.62,16.67L67.64,16.69"/><path style="stroke:#000000;stroke-width:0.088" d="M67.15,15.14L67.74,15.33L68.05,15.42L68.21,15.46L68.29,15.48L68.34,15.48L68.37,15.48L68.39,15.48L68.40,15.47L68.40,15.47L68.40,15.46L68.37,15.42L68.24,15.33L67.53,14.95L67.93,14.80L68.79,14.64L69.71,14.61L70.60,14.72L70.68,14.75"/><path style="stroke:#000000;stroke-width:0.088" d="M67.53,14.95L67.52,14.94L67.51,14.93L67.51,14.92L67.53,14.90L67.90,14.79"/><path style="stroke:#000000;stroke-width:0.088" d="M67.12,14.84L67.10,14.94"/><path style="stroke:#000000;stroke-width:0.088" d="M70.76,14.73L70.66,14.70L69.72,14.58L68.75,14.61L67.86,14.79L67.62,14.87"/><path style="stroke:#000000;stroke-width:0.088" d="M67.69,14.85L67.26,14.66"/><path style="stroke:#000000;stroke-width:0.088" d="M68.65,16.69L68.65,16.75L68.57,16.87L68.42,16.96L68.22,17.02L67.99,17.05L67.82,17.05"/><path style="stroke:#000000;stroke-width:0.088" d="M70.33,21.20L70.25,23.04L70.43,23.12"/><path style="stroke:#000000;stroke-width:0.088" d="M70.51,21.18L71.08,21.07L71.25,21.01"/><path style="stroke:#000000;stroke-width:0.088" d="M70.53,19.92L70.84,20.06"/><path style="stroke:#000000;stroke-width:0.088" d="M70.44,19.80L70.38,18.74L70.40,18.47L70.47,18.22L70.58,17.98L70.91,17.53L71.02,17.41"/><path style="stroke:#000000;stroke-width:0.088" d="M70.38,18.74L71.19,19.10L71.23,19.11L71.27,19.11L71.31,19.11L71.34,19.10L71.37,19.09L71.42,18.67L71.56,18.24L71.78,17.85L72.05,17.52L72.36,17.30L72.66,17.21L72.94,17.25L73.16,17.43L73.30,17.71L73.34,18.08L73.37,18.07L73.38,18.05L73.37,18.03"/><path style="stroke:#000000;stroke-width:0.088" d="M71.32,16.95L70.85,16.68L70.63,16.54L70.52,16.47L70.48,16.43L70.45,16.39L70.50,16.36L70.61,16.38L70.72,16.41L70.92,16.47L71.71,16.75L71.76,16.76L72.04,16.77L72.19,16.80L72.21,16.80L72.49,16.39L72.48,15.91L72.47,15.86L72.43,15.80L72.11,15.35L72.06,15.32L71.65,15.07"/><path style="stroke:#000000;stroke-width:0.088" d="M71.64,15.14L71.65,15.21L71.59,15.32L71.45,15.41L71.26,15.47L71.03,15.51L70.79,15.50L70.56,15.46L70.37,15.39L70.24,15.29L70.19,15.18L70.19,15.10L70.23,15.21L70.34,15.31L70.42,15.36L70.52,15.39L70.74,15.44L70.98,15.45L71.21,15.42L71.42,15.36L71.57,15.27L71.64,15.16L71.65,15.05L71.64,15.03L71.63,15.01L71.56,14.91L71.54,14.90L71.40,14.81L71.21,14.75L70.98,14.72L70.75,14.73L70.54,14.78L70.36,14.85L70.24,14.96L70.23,14.97L70.19,15.09L70.19,15.10"/><path style="stroke:#000000;stroke-width:0.088" d="M70.71,15.19L70.82,15.22L70.95,15.22L71.07,15.21L71.18,15.18L71.25,15.13L71.29,15.08L71.30,15.02L71.26,14.96L71.18,14.92L71.08,14.88L70.96,14.87L70.83,14.87L70.72,14.90L70.62,14.93L70.56,14.99L70.54,15.04L70.56,15.10L70.62,15.15L70.66,15.18L70.71,15.19"/><path style="stroke:#000000;stroke-width:0.088" d="M70.63,14.77L70.56,14.78L70.39,14.85L70.29,14.94L70.25,15.04L70.29,15.15L70.39,15.24L70.55,15.31L70.75,15.35L70.97,15.36L71.19,15.34L71.37,15.28L71.51,15.20L71.58,15.10L71.58,15.00L71.51,14.90L71.38,14.81L71.19,14.76L70.98,14.73L70.76,14.74L70.63,14.77"/><path style="stroke:#000000;stroke-width:0.088" d="M71.22,15.15L71.24,15.12L71.25,15.07L71.21,15.02L71.14,14.98L71.06,14.95L70.95,14.94L70.84,14.94L70.82,14.94L70.74,14.96L70.66,14.99L70.61,15.04L70.59,15.09L70.61,15.14L70.63,15.16"/><path style="stroke:#000000;stroke-width:0.088" d="M73.37,18.03L73.32,17.63L73.17,17.33L73.16,17.30L72.92,17.12L72.89,17.10L72.60,17.05L72.27,17.15L71.93,17.39L71.64,17.74L71.40,18.17L71.25,18.64L71.19,19.10L71.19,20.99L71.23,21.00L71.27,21.01L71.31,21.01L71.34,21.00L71.37,20.99L71.37,19.09"/><path style="stroke:#000000;stroke-width:0.088" d="M71.19,20.99L71.05,20.93"/><path style="stroke:#000000;stroke-width:0.088" d="M71.37,20.99L73.34,19.98L73.37,19.97L73.38,19.95L73.38,18.05"/><path style="stroke:#000000;stroke-width:0.088" d="M72.48,20.42L72.04,20.73L71.54,20.90"/><path style="stroke:#000000;stroke-width:0.088" d="M71.82,18.80L71.83,19.03L71.91,19.20L72.03,19.31L72.18,19.34L72.33,19.30L72.36,19.29L72.53,19.17L72.69,18.98L72.81,18.74L72.88,18.50L72.90,18.26L72.85,18.06L72.76,17.91L72.62,17.84L72.45,17.85L72.36,17.88L72.27,17.94L72.10,18.10L71.96,18.31L71.87,18.56L71.82,18.80"/><path style="stroke:#000000;stroke-width:0.088" d="M72.26,17.95L72.32,17.91L72.41,17.88L72.56,17.87L72.69,17.94L72.78,18.07L72.82,18.26L72.81,18.49L72.74,18.72L72.63,18.94L72.48,19.11L72.32,19.23L72.16,19.28L72.01,19.25L71.90,19.15L71.83,18.99"/><path style="stroke:#000000;stroke-width:0.088" d="M72.29,16.95L72.28,16.94L72.27,16.94L72.23,16.92L72.21,16.92L71.64,16.79L71.96,17.05L71.98,17.09L71.98,17.11L71.58,16.79L71.58,16.85L71.98,17.19L72.00,17.04L72.29,17.03L72.29,16.95L72.00,16.97L71.98,17.11L71.98,17.19"/><path style="stroke:#000000;stroke-width:0.088" d="M71.64,15.11L71.93,15.31L72.23,15.72L72.24,16.16L71.95,16.57L71.70,16.75"/><path style="stroke:#000000;stroke-width:0.088" d="M72.21,16.80L72.89,17.10"/><path style="stroke:#000000;stroke-width:0.088" d="M72.00,17.04L72.00,16.97L72.00,16.95L71.98,16.94L72.21,16.92"/><path style="stroke:#000000;stroke-width:0.088" d="M71.58,16.79L71.58,16.78L71.59,16.78L71.62,16.78L71.64,16.79"/><path style="stroke:#000000;stroke-width:0.088" d="M72.23,16.92L71.62,16.78"/><path style="stroke:#000000;stroke-width:0.088" d="M71.98,16.94L71.96,17.05"/><path style="stroke:#000000;stroke-width:0.088" d="M72.68,20.32L72.46,21.99L72.68,21.96L72.92,20.20"/><path style="stroke:#000000;stroke-width:0.088" d="M72.49,16.39L72.44,16.90"/><path style="stroke:#000000;stroke-width:0.088" d="M72.48,15.91L72.56,16.95"/><path style="stroke:#000000;stroke-width:0.088" d="M73.34,19.98L73.34,18.08"/><path style="stroke:#000000;stroke-width:0.088" d="M73.38,19.33L73.41,19.24L73.38,18.89"/><path style="stroke:#000000;stroke-width:0.088" d="M135.21,48.69L133.97,48.84L132.64,48.80L131.41,48.55L130.43,48.12L129.80,47.57L129.60,46.95L129.66,46.33L129.86,46.93L129.89,46.95L130.47,47.47L131.42,47.89L132.61,48.13L133.90,48.18L135.16,48.04L135.16,48.02L135.14,47.96L135.10,47.90L135.06,47.85L135.00,47.82L134.69,47.68L134.66,47.67L134.64,47.64L134.62,47.62L134.61,47.59L134.60,47.56L134.54,46.50L135.35,46.85L135.35,48.75L135.21,48.69L135.16,48.04"/><path style="stroke:#000000;stroke-width:0.088" d="M129.67,46.28L129.67,44.39L129.65,44.38L129.63,44.36L129.63,44.34L129.68,43.90L129.83,43.45L130.06,43.03L130.35,42.69L130.69,42.45L131.01,42.35L131.04,42.34L131.34,42.39L131.37,42.40L131.07,42.35L131.03,42.36L131.05,42.38L131.37,42.63L130.80,42.50L130.78,42.50L130.74,42.51L130.72,42.51L130.72,42.52L131.43,42.68L131.43,42.75L130.72,42.60L130.72,42.52"/><path style="stroke:#000000;stroke-width:0.088" d="M129.67,46.29L129.65,46.28L129.63,46.26L129.63,46.24L129.63,44.34"/><path style="stroke:#000000;stroke-width:0.088" d="M129.66,46.33L129.67,46.28L129.89,45.70L129.89,45.69L129.92,45.66L129.93,45.66L129.97,45.65L130.02,45.66L129.85,46.17L130.04,46.75L130.62,47.26L131.53,47.66L132.65,47.89L133.89,47.94L135.00,47.82"/><path style="stroke:#000000;stroke-width:0.088" d="M130.45,44.73L129.67,44.39L129.72,43.94L129.88,43.47L130.11,43.04L130.41,42.69L130.74,42.45L131.00,42.37L131.03,42.36L131.03,42.36L131.03,42.36L131.03,42.36"/><path style="stroke:#000000;stroke-width:0.088" d="M130.73,51.51L130.29,48.00"/><path style="stroke:#000000;stroke-width:0.088" d="M130.22,47.94L130.37,49.10L130.32,49.03L130.18,47.90"/><path style="stroke:#000000;stroke-width:0.088" d="M130.37,49.10L130.43,49.10"/><path style="stroke:#000000;stroke-width:0.088" d="M131.28,48.62L131.47,50.54L131.32,50.53L131.14,48.56L130.51,48.21L130.44,48.12"/><path style="stroke:#000000;stroke-width:0.088" d="M134.69,47.68L133.67,47.77L132.65,47.70L131.71,47.50L130.95,47.17L130.45,46.74L130.24,46.26L130.34,45.80L130.37,45.81"/><path style="stroke:#000000;stroke-width:0.088" d="M130.52,43.70L130.52,43.68L130.53,43.63L130.57,43.56L130.88,43.12L130.97,43.05L131.17,42.92L131.25,42.90L131.28,42.89L131.29,42.89L131.31,42.90L131.06,43.08L130.77,43.49L130.77,43.92L131.07,44.34L131.37,44.55L131.45,44.65L131.59,44.74L131.77,44.79L131.98,44.81L132.41,44.92L133.30,45.04L134.22,45.01L135.08,44.84L135.47,44.71L135.48,44.70L135.49,44.71L135.50,44.72L135.50,44.74L135.47,44.80L135.34,44.99L135.18,45.16L134.28,45.33L133.27,45.36L132.30,45.24L131.47,44.98L130.85,44.60L130.53,44.16L130.52,43.70L130.34,46.18L130.54,46.64L131.03,47.05L131.77,47.37L132.67,47.57L133.67,47.63L134.60,47.56"/><path style="stroke:#000000;stroke-width:0.088" d="M130.34,45.80L130.02,45.66"/><path style="stroke:#000000;stroke-width:0.088" d="M131.34,52.33L130.89,51.94L130.73,51.51L130.78,51.67L130.94,52.09L131.03,52.22L131.45,52.58L131.56,52.65L132.18,52.92L132.96,53.08L133.80,53.11L134.56,53.02L134.62,53.01L135.33,52.79L135.85,52.48L135.97,52.40L136.35,51.88L136.40,51.72L136.09,52.14L135.52,52.49L134.73,52.73L134.56,52.75L133.83,52.84L132.89,52.81L132.03,52.63L131.34,52.33"/><path style="stroke:#000000;stroke-width:0.088" d="M131.47,50.54L131.55,50.50L131.38,48.65"/><path style="stroke:#000000;stroke-width:0.088" d="M131.14,48.56L131.30,48.63L132.34,48.91L133.51,49.01L134.67,48.93L134.59,50.87L134.68,50.82L134.76,48.91"/><path style="stroke:#000000;stroke-width:0.088" d="M131.37,44.55L131.36,44.43L131.37,44.33"/><path style="stroke:#000000;stroke-width:0.088" d="M131.37,44.51L131.37,44.52L131.36,44.45L131.44,44.55L131.59,44.64L131.79,44.71L132.02,44.73L132.26,44.72L132.49,44.68L132.66,44.60L132.78,44.50L132.82,44.39L132.82,44.43L132.79,44.55L132.69,44.65L132.53,44.74L132.31,44.79L132.07,44.81L131.98,44.81"/><path style="stroke:#000000;stroke-width:0.088" d="M131.43,44.30L131.43,44.38L131.50,44.48L131.63,44.56L131.82,44.62L132.03,44.65L132.25,44.64L132.45,44.60L132.61,44.53L132.72,44.44L132.76,44.34L132.72,44.23L132.62,44.14L132.46,44.07L132.25,44.03L132.03,44.02L131.82,44.04L131.64,44.10L131.50,44.18L131.43,44.28L131.43,44.30"/><path style="stroke:#000000;stroke-width:0.088" d="M131.36,44.45L131.36,44.33L131.37,44.32L131.38,44.30L131.45,44.19L131.47,44.18L131.61,44.10L131.81,44.04L132.03,44.01L132.26,44.02L132.48,44.07L132.65,44.14L132.77,44.25L132.78,44.26L132.82,44.38L132.82,44.39"/><path style="stroke:#000000;stroke-width:0.088" d="M131.31,42.90L132.09,43.15L132.29,43.20L132.40,43.22L132.51,43.24L132.56,43.21L132.53,43.18L132.48,43.14L132.38,43.07L132.16,42.95L131.69,42.70L132.09,42.56L132.95,42.40L133.87,42.37L134.76,42.48L134.84,42.50"/><path style="stroke:#000000;stroke-width:0.088" d="M131.37,42.40L131.85,42.60"/><path style="stroke:#000000;stroke-width:0.088" d="M131.04,42.36L131.04,42.37L131.03,42.36"/><path style="stroke:#000000;stroke-width:0.088" d="M131.03,42.36L131.01,42.47L131.03,42.36"/><path style="stroke:#000000;stroke-width:0.088" d="M130.80,42.50L131.03,42.48L131.02,42.48L131.01,42.48L131.01,42.47"/><path style="stroke:#000000;stroke-width:0.088" d="M130.78,42.50L130.90,42.49"/><path style="stroke:#000000;stroke-width:0.088" d="M131.43,42.68L131.43,42.67L131.42,42.66L131.39,42.64L131.37,42.63"/><path style="stroke:#000000;stroke-width:0.088" d="M131.42,42.66L131.42,42.66L131.42,42.66"/><path style="stroke:#000000;stroke-width:0.088" d="M131.03,42.36L131.01,42.46"/><path style="stroke:#000000;stroke-width:0.088" d="M130.78,42.50L130.78,42.50L131.01,42.48L131.02,42.37L131.01,42.45"/><path style="stroke:#000000;stroke-width:0.088" d="M131.03,42.48L131.05,42.38"/><path style="stroke:#000000;stroke-width:0.088" d="M131.42,42.66L131.04,42.37"/><path style="stroke:#000000;stroke-width:0.088" d="M131.71,44.30L131.71,44.36L131.75,44.42L131.76,44.42L131.83,44.46L131.93,44.50L132.05,44.51L132.18,44.51L132.29,44.48L132.38,44.44L132.45,44.39L132.47,44.34L132.45,44.28L132.39,44.23L132.34,44.20L132.30,44.19L132.18,44.16L132.06,44.16L131.94,44.17L131.83,44.20L131.76,44.25L131.71,44.30"/><path style="stroke:#000000;stroke-width:0.088" d="M132.38,44.45L132.40,44.43L132.42,44.38L132.40,44.33L132.35,44.28L132.27,44.25L132.22,44.24L132.17,44.23L132.06,44.22L131.96,44.24L131.87,44.26L131.80,44.30L131.76,44.35L131.76,44.40L131.79,44.44"/><path style="stroke:#000000;stroke-width:0.088" d="M131.69,42.70L131.68,42.70L131.67,42.69L131.67,42.68L131.69,42.66L132.06,42.54L132.03,42.55"/><path style="stroke:#000000;stroke-width:0.088" d="M134.92,42.49L134.82,42.46L133.88,42.34L132.91,42.37L132.02,42.54L131.75,42.64"/><path style="stroke:#000000;stroke-width:0.088" d="M134.49,48.94L134.41,50.80L134.59,50.87"/><path style="stroke:#000000;stroke-width:0.088" d="M134.54,46.50L134.56,46.23L134.63,45.98L134.74,45.73L135.07,45.28L135.18,45.16"/><path style="stroke:#000000;stroke-width:0.088" d="M134.56,43.15L134.43,43.08L134.36,42.97L134.36,42.91L134.43,43.02L134.58,43.11L134.78,43.17L135.02,43.20L135.26,43.19L135.48,43.15L135.50,43.14L135.66,43.07L135.77,42.97L135.80,42.90L135.81,42.86L135.81,42.94L135.77,43.05L135.66,43.14L135.48,43.21L135.25,43.26L135.02,43.26L134.78,43.23L134.58,43.17L134.56,43.15"/><path style="stroke:#000000;stroke-width:0.088" d="M134.43,42.75L134.41,42.80L134.45,42.90L134.55,42.99L134.63,43.03L134.71,43.07L134.91,43.11L135.13,43.12L135.35,43.09L135.53,43.04L135.67,42.95L135.74,42.86L135.74,42.75L135.67,42.65L135.54,42.57L135.35,42.51L135.14,42.49L134.92,42.50L134.72,42.54L134.55,42.61L134.45,42.70L134.43,42.75"/><path style="stroke:#000000;stroke-width:0.088" d="M134.36,42.91L134.35,42.84L134.36,42.80L134.39,42.73L134.40,42.71L134.51,42.62L134.52,42.61L134.70,42.53L134.91,42.49L135.14,42.48L135.33,42.50L135.37,42.51L135.56,42.57L135.70,42.66L135.72,42.67L135.79,42.77L135.80,42.79L135.81,42.86"/><path style="stroke:#000000;stroke-width:0.088" d="M135.53,46.85L135.55,46.60L135.67,46.12L135.89,45.68L136.18,45.31L136.52,45.06L136.85,44.97L137.15,45.03L137.37,45.26L137.49,45.61L137.50,45.84L137.52,45.83L137.54,45.81L137.51,45.54L137.39,45.16L137.37,45.14L137.13,44.89L137.12,44.89L136.80,44.81L136.43,44.90L136.07,45.17L135.75,45.57L135.50,46.06L135.37,46.58L135.35,46.85L135.38,46.86L135.43,46.87L135.47,46.87L135.51,46.86L135.53,46.85L135.53,48.75L135.50,48.76L135.47,48.77L135.43,48.77L135.39,48.76L134.69,48.93L134.67,48.93"/><path style="stroke:#000000;stroke-width:0.088" d="M135.48,44.70L134.76,44.28L134.64,44.18L134.61,44.15L134.61,44.14L134.61,44.13L134.62,44.12L134.64,44.12L134.67,44.12L134.72,44.13L134.80,44.15L134.96,44.19L135.27,44.29L135.88,44.51"/><path style="stroke:#000000;stroke-width:0.088" d="M135.29,42.95L135.17,42.98L135.05,42.98L134.92,42.96L134.82,42.93L134.75,42.89L134.71,42.83L134.71,42.77L134.75,42.72L134.83,42.67L134.93,42.64L135.05,42.62L135.18,42.63L135.29,42.65L135.34,42.67L135.38,42.69L135.44,42.75L135.46,42.80L135.44,42.86L135.38,42.91L135.29,42.95"/><path style="stroke:#000000;stroke-width:0.088" d="M135.37,42.92L135.39,42.90L135.41,42.85L135.39,42.80L135.34,42.75L135.26,42.72L135.16,42.70L135.06,42.69L134.95,42.70L134.93,42.71L134.86,42.73L134.79,42.77L134.76,42.82L134.76,42.87L134.78,42.91"/><path style="stroke:#000000;stroke-width:0.088" d="M135.53,48.75L137.50,47.74L137.53,47.72L137.54,47.71L137.54,45.81"/><path style="stroke:#000000;stroke-width:0.088" d="M135.61,48.71L135.75,48.67L136.57,48.27L136.68,48.16"/><path style="stroke:#000000;stroke-width:0.088" d="M135.35,48.75L135.39,48.76"/><path style="stroke:#000000;stroke-width:0.088" d="M136.48,46.99L136.61,46.90L136.76,46.73L136.88,46.53L136.96,46.30L136.99,46.07L136.96,45.87L136.88,45.72L136.76,45.64L136.62,45.62L136.48,45.67L136.52,45.64L136.34,45.77L136.19,45.96L136.07,46.19L136.00,46.44L135.98,46.67L136.02,46.88L136.12,47.02L136.20,47.08L136.35,47.10L136.52,47.05L136.48,46.99L136.34,47.03L136.20,47.02L136.08,46.93L136.00,46.79"/><path style="stroke:#000000;stroke-width:0.088" d="M136.00,46.77L135.98,46.64"/><path style="stroke:#000000;stroke-width:0.088" d="M135.81,42.82L136.22,43.07L136.27,43.11L136.59,43.55L136.63,43.62L136.64,43.67L136.65,44.14L136.37,44.56L136.22,44.53L135.97,44.52"/><path style="stroke:#000000;stroke-width:0.088" d="M135.86,44.51L135.88,44.49"/><path style="stroke:#000000;stroke-width:0.088" d="M135.81,42.87L136.09,43.07L136.39,43.48L136.40,43.91L136.10,44.33L135.91,44.47"/><path style="stroke:#000000;stroke-width:0.088" d="M135.58,44.70L136.29,44.85L136.29,44.79L135.58,44.62L135.58,44.70"/><path style="stroke:#000000;stroke-width:0.088" d="M135.89,44.59L135.91,44.48L135.89,44.46L135.89,44.46L135.87,44.59L135.64,44.60L135.66,44.61L135.89,44.59L135.88,44.59L135.87,44.59L135.89,44.46L135.87,44.59"/><path style="stroke:#000000;stroke-width:0.088" d="M135.66,44.61L136.23,44.73L135.91,44.48"/><path style="stroke:#000000;stroke-width:0.088" d="M135.69,44.60L135.60,44.61L135.59,44.61L135.58,44.62"/><path style="stroke:#000000;stroke-width:0.088" d="M135.89,44.46L135.87,44.56"/><path style="stroke:#000000;stroke-width:0.088" d="M135.90,44.47L136.11,44.63L135.89,44.46"/><path style="stroke:#000000;stroke-width:0.088" d="M136.40,51.72L136.66,49.74"/><path style="stroke:#000000;stroke-width:0.088" d="M137.08,47.96L136.84,49.72L136.62,49.75L136.84,48.08"/><path style="stroke:#000000;stroke-width:0.088" d="M136.52,47.05L136.69,46.92L136.85,46.73L136.89,46.65L136.97,46.50L137.04,46.25L137.06,46.02L137.01,45.81L136.92,45.67L136.84,45.62L136.69,45.59L136.52,45.64"/><path style="stroke:#000000;stroke-width:0.088" d="M136.82,45.68L136.72,45.63"/><path style="stroke:#000000;stroke-width:0.088" d="M136.48,45.67L136.45,45.69"/><path style="stroke:#000000;stroke-width:0.088" d="M136.35,45.76L136.33,45.78"/><path style="stroke:#000000;stroke-width:0.088" d="M136.23,44.73L136.25,44.74L136.28,44.77L136.29,44.77L136.29,44.79"/><path style="stroke:#000000;stroke-width:0.088" d="M136.65,44.14L136.60,44.66"/><path style="stroke:#000000;stroke-width:0.088" d="M137.12,44.89L136.37,44.56"/><path style="stroke:#000000;stroke-width:0.088" d="M136.64,43.67L136.72,44.71"/><path style="stroke:#000000;stroke-width:0.088" d="M136.28,44.77L136.11,44.63L136.28,44.77"/><path style="stroke:#000000;stroke-width:0.088" d="M137.50,47.74L137.50,45.84"/><path style="stroke:#000000;stroke-width:0.088" d="M137.54,46.65L137.57,47.00L137.54,47.09"/><path style="stroke:#000000;stroke-width:0.088" d="M61.44,81.61L60.94,81.39L60.94,79.72L63.51,78.40L139.14,111.12L139.14,112.80L136.57,114.11L61.44,81.61"/><path style="stroke:#000000;stroke-width:0.088" d="M60.94,79.72L136.57,112.44L139.14,111.12"/><path style="stroke:#000000;stroke-width:0.088" d="M63.52,79.28L64.45,79.68L64.45,80.05L64.35,80.09L64.19,80.11L64.02,80.12L63.86,80.10L63.72,80.05L62.79,79.65L62.68,79.59L62.62,79.51L62.62,79.43L62.66,79.36L62.76,79.29L62.89,79.24L63.05,79.22L63.26,79.22L63.38,79.23L63.52,79.28L63.52,79.96"/><path style="stroke:#000000;stroke-width:0.088" d="M64.45,80.05L64.57,79.97L64.62,79.90L64.61,79.82L64.59,79.79L64.56,79.75L64.45,79.68"/><path style="stroke:#000000;stroke-width:0.088" d="M67.00,81.35L66.96,81.27L66.99,81.22L67.05,81.16L67.14,81.13L67.26,81.10L67.38,81.10L67.50,81.11L67.61,81.15L67.68,81.19L67.72,81.25L67.72,81.31L67.67,81.37L67.59,81.41L67.49,81.44L67.37,81.45L67.24,81.45L67.13,81.42L67.04,81.38L67.00,81.35"/><path style="stroke:#000000;stroke-width:0.088" d="M67.62,81.40L67.65,81.37L67.66,81.32L67.63,81.27L67.57,81.23L67.49,81.20L67.38,81.18L67.27,81.19L67.18,81.21L67.10,81.24L67.05,81.28L67.03,81.33L67.04,81.38L67.06,81.39"/><path style="stroke:#000000;stroke-width:0.088" d="M78.06,85.91L78.11,85.88L78.15,85.82L78.15,85.76L78.11,85.71L78.04,85.66L77.94,85.63L77.81,85.61L77.69,85.62L77.57,85.64L77.48,85.68L77.42,85.73L77.40,85.79L77.41,85.84L77.47,85.90L77.46,85.84L77.48,85.79L77.53,85.75L77.62,85.72L77.81,85.70L77.92,85.71L78.00,85.74L78.06,85.78L78.09,85.83L78.08,85.88L78.06,85.91L77.92,85.95L77.80,85.97L77.68,85.96L77.56,85.94L77.47,85.90L77.49,85.90"/><path style="stroke:#000000;stroke-width:0.088" d="M77.47,85.90L77.48,85.90"/><path style="stroke:#000000;stroke-width:0.088" d="M94.61,93.31L94.72,93.34L94.85,93.34L94.97,93.33L95.07,93.30L95.15,93.25L95.19,93.20L95.20,93.14L95.16,93.08L95.08,93.04L94.98,93.00L94.86,92.99L94.74,92.99L94.62,93.01L94.53,93.05L94.47,93.10L94.44,93.16L94.46,93.22L94.52,93.28L94.61,93.31"/><path style="stroke:#000000;stroke-width:0.088" d="M94.54,93.28L94.51,93.22L94.52,93.17L94.58,93.13L94.65,93.09L94.75,93.08L94.85,93.07L94.97,93.09L95.05,93.12L95.11,93.16L95.13,93.20L95.13,93.25L95.10,93.29"/><path style="stroke:#000000;stroke-width:0.088" d="M94.51,93.26L94.51,93.25"/><path style="stroke:#000000;stroke-width:0.088" d="M105.53,97.80L105.58,97.77L105.63,97.71L105.63,97.65L105.59,97.60L105.52,97.55L105.41,97.52L105.29,97.50L105.17,97.50L105.05,97.53L104.96,97.56L104.90,97.62L104.87,97.67L104.89,97.73L104.96,97.79L105.04,97.82L105.15,97.85L105.28,97.86L105.40,97.84L105.53,97.80L105.56,97.77L105.57,97.72L105.54,97.67L105.48,97.63L105.40,97.60L105.29,97.59L105.18,97.59L105.09,97.61L105.01,97.64L104.96,97.68L104.94,97.73L104.97,97.79"/><path style="stroke:#000000;stroke-width:0.088" d="M122.58,105.17L122.63,105.14L122.67,105.08L122.68,105.03L122.64,104.97L122.56,104.92L122.46,104.89L122.34,104.87L122.21,104.88L122.10,104.90L122.01,104.94L121.94,104.99L121.92,105.05L121.94,105.11L122.00,105.16L122.09,105.20L122.20,105.22L122.32,105.23L122.45,105.22L122.58,105.17L122.61,105.14L122.61,105.09L122.59,105.05L122.53,105.00L122.44,104.98L122.33,104.96L122.13,104.98L122.05,105.01L122.00,105.06L121.98,105.10L122.01,105.17"/><path style="stroke:#000000;stroke-width:0.088" d="M133.01,109.69L133.06,109.65L133.11,109.60L133.11,109.54L133.07,109.48L133.00,109.44L132.89,109.40L132.77,109.39L132.65,109.39L132.53,109.41L132.44,109.45L132.38,109.50L132.35,109.56L132.37,109.62L132.44,109.68L132.52,109.71L132.63,109.74L132.76,109.74L132.88,109.73L133.01,109.69L133.04,109.65L133.05,109.61L133.02,109.56L132.96,109.52L132.88,109.49L132.77,109.47L132.58,109.49L132.49,109.53L132.44,109.57L132.42,109.62L132.45,109.68"/><path style="stroke:#000000;stroke-width:0.088" d="M136.36,110.79L136.22,110.75L136.05,110.72L135.89,110.73L135.73,110.75L135.60,110.80L135.50,110.87L135.46,110.95L135.47,111.03L135.52,111.10L135.63,111.16L136.56,111.56L136.70,111.61L136.89,111.63L137.03,111.63L137.19,111.60L137.32,111.55L137.41,111.48L137.46,111.41L137.45,111.33L137.43,111.31L137.39,111.25L137.29,111.19L136.36,110.79L136.36,111.48"/><path style="stroke:#000000;stroke-width:0.088" d="M136.57,114.11L136.57,112.44"/><path style="stroke:#000000;stroke-width:0.088" d="M137.29,111.19L137.29,111.56"/><path style="stroke:#000000;stroke-width:0.088" d="M47.44,88.50L47.23,88.40L47.23,86.73L122.87,119.45L125.44,118.14L125.44,119.81L122.87,121.13L47.44,88.50"/><path style="stroke:#000000;stroke-width:0.088" d="M47.23,86.73L49.80,85.41L125.44,118.14"/><path style="stroke:#000000;stroke-width:0.088" d="M50.74,87.06L50.74,86.69L50.85,86.75L50.91,86.83L50.91,86.91L50.87,86.98L50.77,87.05L50.64,87.10L50.48,87.13L50.32,87.13L50.15,87.11L50.01,87.06L49.08,86.66L48.98,86.60L48.92,86.52L48.91,86.45L48.96,86.37L49.05,86.30L49.14,86.27L49.34,86.23L49.51,86.22L49.67,86.24L49.81,86.29L49.81,86.98"/><path style="stroke:#000000;stroke-width:0.088" d="M49.81,86.29L50.74,86.69"/><path style="stroke:#000000;stroke-width:0.088" d="M53.26,88.28L53.28,88.34L53.33,88.40L53.42,88.44L53.54,88.46L53.67,88.47L53.78,88.45L53.92,88.41L53.97,88.38L54.01,88.32L54.01,88.26L53.98,88.21L53.90,88.16L53.80,88.13L53.68,88.11L53.55,88.11L53.44,88.14L53.34,88.18L53.28,88.23L53.26,88.28"/><path style="stroke:#000000;stroke-width:0.088" d="M53.92,88.41L53.95,88.38L53.95,88.33L53.92,88.28L53.87,88.24L53.78,88.21L53.67,88.20L53.47,88.22L53.39,88.25L53.34,88.29L53.32,88.34L53.33,88.40L53.35,88.40"/><path style="stroke:#000000;stroke-width:0.088" d="M64.35,92.92L64.40,92.89L64.44,92.83L64.45,92.78L64.41,92.72L64.33,92.67L64.23,92.64L64.11,92.62L63.99,92.63L63.87,92.65L63.78,92.69L63.71,92.74L63.69,92.80L63.71,92.86L63.78,92.92L63.75,92.85L63.77,92.81L63.83,92.76L63.92,92.73L64.10,92.71L64.21,92.73L64.30,92.75L64.36,92.79L64.38,92.84L64.38,92.89L64.35,92.92L64.22,92.97L64.09,92.98L63.97,92.97L63.86,92.95L63.78,92.92"/><path style="stroke:#000000;stroke-width:0.088" d="M80.79,100.26L80.82,100.29L80.90,100.32L81.02,100.35L81.14,100.35L81.26,100.34L81.37,100.31L81.45,100.26L81.49,100.21L81.49,100.15L81.45,100.09L81.38,100.05L81.28,100.01L81.16,100.00L81.03,100.00L80.92,100.02L80.82,100.06L80.76,100.11L80.74,100.17L80.76,100.23L80.79,100.26"/><path style="stroke:#000000;stroke-width:0.088" d="M80.83,100.29L80.80,100.23L80.82,100.18L80.87,100.14L80.95,100.11L81.15,100.08L81.26,100.10L81.34,100.13L81.40,100.17L81.43,100.22L81.42,100.26L81.40,100.30"/><path style="stroke:#000000;stroke-width:0.088" d="M91.83,104.81L91.88,104.78L91.92,104.72L91.93,104.66L91.89,104.61L91.78,104.55L91.59,104.51L91.46,104.51L91.35,104.54L91.25,104.58L91.19,104.63L91.17,104.69L91.19,104.74L91.25,104.80L91.34,104.84L91.45,104.86L91.57,104.87L91.69,104.85L91.83,104.81L91.86,104.78L91.86,104.73L91.83,104.68L91.77,104.64L91.68,104.61L91.58,104.60L91.38,104.62L91.30,104.65L91.25,104.69L91.23,104.74L91.26,104.80"/><path style="stroke:#000000;stroke-width:0.088" d="M108.89,111.95L108.76,111.90L108.63,111.89L108.51,111.89L108.39,111.91L108.30,111.95L108.24,112.00L108.22,112.06L108.23,112.12L108.26,112.14L108.30,112.18L108.38,112.21L108.49,112.24L108.62,112.24L108.74,112.23L108.88,112.18L108.93,112.15L108.97,112.10L108.97,112.04L108.93,111.98L108.89,111.95"/><path style="stroke:#000000;stroke-width:0.088" d="M108.89,112.18L108.91,112.10L108.88,112.06L108.82,112.02L108.74,111.99L108.63,111.97L108.43,111.99L108.35,112.03L108.30,112.07L108.28,112.12L108.31,112.18"/><path style="stroke:#000000;stroke-width:0.088" d="M119.00,116.75L118.81,116.72L118.73,116.69L118.67,116.63L118.65,116.58L118.67,116.52L118.73,116.46L118.83,116.43L118.94,116.40L119.07,116.40L119.19,116.41L119.29,116.45L119.37,116.49L119.40,116.55L119.40,116.61L119.36,116.66L119.31,116.70L119.17,116.74L119.00,116.75"/><path style="stroke:#000000;stroke-width:0.088" d="M118.74,116.69L118.71,116.63L118.73,116.58L118.78,116.54L118.86,116.51L119.06,116.48L119.17,116.50L119.25,116.53L119.31,116.57L119.34,116.62L119.33,116.67L119.31,116.70"/><path style="stroke:#000000;stroke-width:0.088" d="M122.65,118.49L122.65,117.80L122.51,117.76L122.35,117.74L122.18,117.74L122.02,117.77L121.89,117.82L121.80,117.88L121.75,117.96L121.76,118.04L121.82,118.11L121.92,118.17L122.86,118.58L123.00,118.62L123.16,118.64L123.33,118.64L123.48,118.61L123.62,118.56L123.71,118.50L123.75,118.42L123.75,118.34L123.69,118.27L123.58,118.20L123.58,118.57"/><path style="stroke:#000000;stroke-width:0.088" d="M122.87,121.13L122.87,119.45"/><path style="stroke:#000000;stroke-width:0.088" d="M122.65,117.80L123.58,118.20"/><path style="fill:#ffffff" d="M171.14,87.86L197.55,87.86L197.55,82.21L171.14,82.21z"/><path style="stroke:#35414c;stroke-width:0.255" d="M171.14,87.86L197.55,87.86L197.55,82.21L171.14,82.21z"/><path style="stroke:#35404c;stroke-width:0.250;stroke-opacity:0.00" d="M171.14,87.86L197.55,87.86L197.55,82.21L171.14,82.21z"/><text xml:space="preserve" fill="#333f4b" stroke-width="0" x="171.84" y="86.27" font-size="3.41" opacity="1.00" font-family="Arial" font-weight="bold" font-style="italic">VA3048</text><path style="fill:#ffffff" d="M171.14,57.89L197.55,57.89L197.55,52.25L171.14,52.25z"/><path style="stroke:#35414c;stroke-width:0.255" d="M171.14,57.89L197.55,57.89L197.55,52.25L171.14,52.25z"/><path style="stroke:#35404c;stroke-width:0.250;stroke-opacity:0.00" d="M171.14,57.89L197.55,57.89L197.55,52.25L171.14,52.25z"/><text xml:space="preserve" fill="#333f4b" stroke-width="0" x="171.84" y="56.30" font-size="3.49" opacity="1.00" font-family="Arial" font-weight="bold" font-style="italic">F24992282A</text><path style="fill:#ffffff" d="M171.14,77.87L197.55,77.87L197.55,72.22L171.14,72.22z"/><path style="stroke:#35414c;stroke-width:0.255" d="M171.14,77.87L197.55,77.87L197.55,72.22L171.14,72.22z"/><path style="stroke:#35404c;stroke-width:0.250;stroke-opacity:0.00" d="M171.14,77.87L197.55,77.87L197.55,72.22L171.14,72.22z"/><text xml:space="preserve" fill="#333f4b" stroke-width="0" x="171.84" y="76.28" font-size="3.47" opacity="1.00" font-family="Arial" font-weight="bold" font-style="italic">PO5803</text><path style="fill:#ffffff" d="M171.14,67.88L197.55,67.88L197.55,62.24L171.14,62.24z"/><path style="stroke:#35414c;stroke-width:0.255" d="M171.14,67.88L197.55,67.88L197.55,62.24L171.14,62.24z"/><path style="stroke:#35404c;stroke-width:0.250;stroke-opacity:0.00" d="M171.14,67.88L197.55,67.88L197.55,62.24L171.14,62.24z"/><text xml:space="preserve" fill="#333f4b" stroke-width="0" x="171.84" y="66.29" font-size="3.47" opacity="1.00" font-family="Arial" font-weight="bold" font-style="italic">PO5001</text><path style="fill:#ffffff" d="M171.14,97.84L197.55,97.84L197.55,92.20L171.14,92.20z"/><path style="stroke:#35414c;stroke-width:0.255" d="M171.14,97.84L197.55,97.84L197.55,92.20L171.14,92.20z"/><path style="stroke:#35404c;stroke-width:0.250;stroke-opacity:0.00" d="M171.14,97.84L197.55,97.84L197.55,92.20L171.14,92.20z"/><text xml:space="preserve" fill="#333f4b" stroke-width="0" x="171.84" y="96.26" font-size="3.40" opacity="1.00" font-family="Arial" font-weight="bold" font-style="italic">VA3094</text><g id="paperID" visibility="hidden" opacity="0.00" transform="scale(0.000100)"><path style="stroke:#000000;stroke-width:0.500;fill:#e6e6e6;fill-rule:evenodd" d="M-2000.00,-2000.00L2210.00,-2000.00L2210.00,2150.00L-2000.00,2150.00zM0.00,0.00L210.00,0.00L210.00,150.00L0.00,150.00z"/><path style="fill:#000000;fill-opacity:0.118" d="M3.00,150.00L210.00,150.00L210.00,3.00L213.00,3.00L213.00,153.00L3.00,153.00z"/></g><g id="hotspot.0" onmouseover="ShowHotSpot(evt,'0')" onmouseout="HideHotSpot(evt,'0')" onmousemove="ShowToolTip(evt,'0',&quot;PX018885_PRODUCT_NAM&quot;)" opacity="0"><path style="fill:#00ff00;fill-rule:evenodd" d="M60.61,55.40L60.79,59.57L61.37,59.77L61.38,60.60L60.87,60.87L60.53,65.90L56.17,68.24L55.49,68.23L54.20,67.70L54.12,60.01L55.49,59.33L55.67,56.44L58.73,54.87L59.59,54.87zM129.01,85.09L129.25,89.29L129.53,89.22L129.78,89.42L129.75,90.30L129.17,90.50L128.99,95.44L124.82,97.67L123.59,97.67L122.50,97.23L122.58,89.55L123.86,88.78L124.13,85.97L124.92,85.40L126.60,84.60L127.44,84.32zM197.65,92.51L197.63,98.27L171.21,98.21L170.91,98.00L170.95,92.59L171.16,92.28L197.40,92.25z"/></g><g id="hotspot.1" onmouseover="ShowHotSpot(evt,'1')" onmouseout="HideHotSpot(evt,'1')" onmousemove="ShowToolTip(evt,'1',&quot;F24992282A&quot;)" opacity="0"><path style="fill:#00ff00;fill-rule:evenodd" d="M197.65,52.55L197.63,58.31L171.21,58.25L170.91,58.05L170.95,52.64L171.16,52.33L197.40,52.30zM138.97,111.23L138.97,113.11L137.10,114.07L136.15,114.07L61.04,81.61L61.12,79.82L63.34,78.68L63.94,78.68zM125.43,118.37L125.40,120.02L123.54,120.98L122.06,120.98L47.21,88.52L47.21,86.90L49.87,85.63z"/></g><g id="hotspot.2" onmouseover="ShowHotSpot(evt,'2')" onmouseout="HideHotSpot(evt,'2')" onmousemove="ShowToolTip(evt,'2',&quot;PO5001&quot;)" opacity="0"><path style="fill:#00ff00;fill-rule:evenodd" d="M105.69,15.45L109.02,16.47L112.59,18.53L114.92,20.30L116.69,21.34L116.94,22.62L116.91,23.73L116.62,23.93L117.21,24.18L117.25,24.48L116.86,24.91L117.19,25.21L117.19,25.76L116.89,25.96L117.19,26.23L117.19,26.78L116.89,27.00L117.52,27.49L117.15,28.01L117.50,28.52L117.16,29.03L117.43,29.30L117.47,30.64L117.13,31.06L117.41,31.32L117.19,31.92L117.18,33.70L116.92,33.88L116.93,34.13L116.71,36.04L106.12,41.57L108.24,42.60L108.27,44.24L91.77,52.86L90.82,52.86L89.03,52.08L87.77,51.28L86.90,51.29L84.43,52.42L82.89,52.86L69.30,46.96L68.78,46.47L68.47,44.39L68.56,43.89L68.22,42.34L68.27,35.26L68.78,32.16L69.23,31.58L74.10,28.77L101.24,14.92zM197.65,62.54L197.63,68.30L171.21,68.24L170.91,68.03L170.95,62.62L171.16,62.32L197.40,62.29z"/></g><g id="hotspot.3" onmouseover="ShowHotSpot(evt,'3')" onmouseout="HideHotSpot(evt,'3')" onmousemove="ShowToolTip(evt,'3',&quot;PO5803&quot;)" opacity="0"><path style="fill:#00ff00;fill-rule:evenodd" d="M72.41,15.95L72.57,17.07L73.17,17.49L73.42,18.27L73.40,20.13L72.87,20.63L71.90,24.78L70.28,25.45L68.79,25.45L67.29,24.91L66.76,24.41L66.00,20.31L65.75,20.04L65.71,15.77L66.40,14.92L71.38,14.92zM135.65,42.85L136.69,43.86L136.85,44.98L137.47,45.39L137.45,47.82L137.20,48.08L136.94,49.61L136.66,50.10L136.42,51.91L135.88,52.65L134.81,53.11L132.30,53.11L131.30,52.58L130.76,51.84L130.28,48.48L129.74,47.48L129.74,43.95L130.28,42.95L130.69,42.58L134.88,42.59zM197.65,72.53L197.63,78.29L171.21,78.23L170.91,78.02L170.95,72.61L171.16,72.31L197.40,72.27z"/></g><g id="hotspot.4" onmouseover="ShowHotSpot(evt,'4')" onmouseout="HideHotSpot(evt,'4')" onmousemove="ShowToolTip(evt,'4',&quot;PX018923_PRODUCT_NAME_1&quot;)" opacity="0"><path style="fill:#00ff00;fill-rule:evenodd" d="M197.65,82.52L197.63,88.28L171.21,88.22L170.91,88.01L170.95,82.60L171.16,82.30L197.40,82.26zM129.27,133.23L129.27,137.21L125.14,139.49L124.38,139.69L115.84,135.90L115.84,131.98L118.93,130.42L119.50,130.42L120.78,130.96L122.00,130.97L123.12,130.44z"/></g></g></svg>
