<?xml version="1.0" encoding="UTF-8" standalone="no"?>
<svg xmlns="http://www.w3.org/2000/svg" xmlns:xlink="http://www.w3.org/1999/xlink" width="210.000mm" height="150.000mm" viewBox="0.000000 0.000000 210.000000 150.000000" stroke-linejoin="round" stroke-linecap="round" fill="none" fill-rule="evenodd"><desc>Composer Export</desc><script type="text/ecmascript"><![CDATA[
if(typeof(top) != "undefined")
{
	top.ShowPaper = ShowPaper;
}
function ShowHotSpot(evt,hotspotid)
{
	var svgDocument = evt.target.ownerDocument;
	var strId = "hotspot."+hotspotid;
	var hotspot = svgDocument.getElementById(strId);
	if(hotspot)
		hotspot.setAttribute("opacity",".5");
}
function HideHotSpot(evt,hotspotid)
{
	var svgDocument = evt.target.ownerDocument;
	var strId = "hotspot."+hotspotid;
	var hotspot = svgDocument.getElementById(strId);
	if(hotspot)
		hotspot.setAttribute("opacity","0");

	var toolTip = svgDocument.getElementById('ToolTip');
	if(toolTip)
		toolTip.setAttribute("visibility","hidden");
}
function ShowToolTip(evt,hotspotid,strTooltip)
{
	if(strTooltip=="")
	return;

	// change text
	var svgDocument = evt.target.ownerDocument;
	var tiptext = svgDocument.getElementById('ToolTipText');
	if( !tiptext )
	return;
	tiptext.firstChild.nodeValue = " " + strTooltip + "  " ;

	// show tooltip before, else some refresh issue

	var toolTip = svgDocument.getElementById('ToolTip');
	if(!toolTip)
	return;

	toolTip.setAttribute("visibility","visible");
	toolTip.setAttribute("opacity",".95");

	// move tooltip
	// get viewbox

	var root = svgDocument.documentElement;
	var vbox = (root.getAttribute("viewBox")).split(' ');
	var x0 = parseFloat(vbox[0]);
	var y0 = parseFloat(vbox[1]);
	var vboxW = parseFloat(vbox[2]);
	var vboxH = parseFloat(vbox[3]);

	// get default width of svg

	var strW = root.getAttribute("width");
	var svgW = parseFloat(strW);
	if(strW.indexOf('mm') != -1)
	svgW *= 3.779;

	var strH = root.getAttribute("height");
	var svgH = parseFloat(strH);
	if(strH.indexOf('mm') != -1)
	svgH *= 3.779;  	// 96 dpi  -> 96/25.4 = 3.779

	// update the viewbox / width / height if svg is embedded in html with zoom fit all
	var realx0 = x0;
	var realy0 = y0;
	var realvboxW = vboxW;
	var realvboxH = vboxH;
	var realsvgW = svgW;
	var realsvgH = svgH;

	if ((typeof(top) == "undefined") || (typeof(top.svgctl1) != "undefined")) // embedded in html
	{
		// get window size in pxl

		svgW = window.innerWidth;
		svgH = window.innerHeight;

		// calculate real viewbox

		realsvgW = svgW;
		realsvgH = svgH;
		if((svgW / svgH) > (vboxW / vboxH))
		{
			realvboxW = (vboxH * svgW) / svgH;
			realvboxH = vboxH;
			realx0 = x0 - (realvboxW - vboxW)/2 ;
		}
		else
		{
			realvboxH = (vboxW * svgH) / svgW;
			realvboxW = vboxW;
			realy0 = y0 - (realvboxH - vboxH)/2 ;
		}
	}

	// get user zoom/pan

	var newScale = root.currentScale;
	var translation = root.currentTranslate;

	// transform pxl to user unit

	var xPos = (((evt.clientX+10- translation.x)/newScale) * realvboxW)/realsvgW  + realx0 ;
	var yPos = (((evt.clientY+5- translation.y)/newScale) * realvboxH)/ realsvgH  + realy0 ;
	var scaleForWidth = ( (1 / newScale) * realvboxH) / realsvgH;

	// move tooltip

	toolTip.setAttribute("transform", "translate(" + xPos + "," + yPos + ")" );

	// resize tooltip

	var fontsize = 12;
	tiptext.setAttribute("font-size",fontsize*scaleForWidth);
	tiptext.setAttribute("y", fontsize*scaleForWidth);
	var tipBG = svgDocument.getElementById('ToolTipBG');
	var outline = tiptext.getBBox();
	if(tipBG)
	{
		tipBG.setAttribute("stroke-width", 1*scaleForWidth);
		tipBG.setAttribute("width", Number(outline.width) );
		tipBG.setAttribute("height", Number(outline.height) + fontsize*.5*scaleForWidth );
	}
	var ToolTipShadow = svgDocument.getElementById('ToolTipShadow');
	if(ToolTipShadow)
	{
		ToolTipShadow.setAttribute("width", Number(outline.width) );
		ToolTipShadow.setAttribute("height", Number(outline.height) + fontsize*.5*scaleForWidth );
		ToolTipShadow.setAttribute("x", 3*scaleForWidth);
		ToolTipShadow.setAttribute("y", 3*scaleForWidth);
	}
}
function ShowPaper()
{
  var svgDocument = getDocument();
  var paper = svgDocument.getElementById("paperID");
  if(paper)
  {
    paper.setAttribute("transform","scale(1)");
    paper.setAttribute("opacity","1");
    paper.setAttribute("visibility","visible");
  }
  var svg = svgDocument.getRootElement();
  if(svg)
  {
    svg.setAttribute("width","220.000mm");
    svg.setAttribute("height","160.000mm");
    svg.setAttribute("viewBox","-5.000000 -5.000000 220.000000 160.000000");
  }
}
]]></script><defs/><g><path style="fill:#ffffff" d="M209.93,149.99L0.04,149.99L0.04,0.04L209.93,0.04z"/><path style="fill:#2ac7ce" d="M31.65,24.74L31.63,54.06L31.51,54.70L31.00,55.84L30.13,56.74L26.28,58.97L25.16,58.98L22.52,57.44L22.27,57.06L22.22,27.16L28.80,23.35L29.23,23.35z"/><path style="fill:#2ac7ce" d="M54.19,35.40L55.09,36.02L55.07,38.98L50.89,41.38L50.63,41.76L49.19,42.62L48.81,42.63L44.89,44.89L44.31,44.89L38.86,41.73L38.86,37.97L48.19,32.60L49.26,32.60z"/><path style="fill:#2ac7ce" d="M53.30,52.25L54.20,52.87L54.15,54.78L48.95,57.82L48.37,57.82L39.62,52.76L39.62,50.64L41.22,49.71L41.98,49.46L43.03,48.86L43.38,48.44L44.90,47.55L45.07,47.55z"/><path style="fill:#2ac7ce" d="M54.20,65.80L54.19,67.75L52.49,68.72L52.18,68.74L51.23,69.23L50.52,69.78L48.96,70.76L48.35,70.76L39.62,65.68L39.62,63.57L45.08,60.49z"/><path style="fill:#2ac7ce" d="M55.09,77.20L55.09,80.18L44.91,86.09L44.30,86.09L38.86,82.91L38.82,79.24L42.48,77.08L42.78,76.74L44.13,75.94L44.77,75.81L48.19,73.79L49.26,73.78z"/><path style="fill:#01ff02" d="M29.63,24.75L29.58,25.01L28.55,25.05L28.55,24.63L28.80,24.49L29.23,24.49z"/><path style="fill:#01ff02" d="M25.31,27.17L25.31,27.44L25.15,27.56L24.28,27.54L24.11,27.27L24.36,27.03L25.06,27.02z"/><path style="fill:#01ff02" d="M41.78,41.60L41.73,42.13L41.40,42.12L41.15,41.85L40.99,41.26L41.10,41.10L41.39,41.08z"/><path style="fill:#01ff02" d="M46.85,51.63L46.85,51.90L46.69,52.02L46.20,52.01L45.95,51.86L45.95,51.67L46.30,51.48L46.59,51.47z"/><path style="fill:#01ff02" d="M52.40,54.57L52.75,54.01L53.18,54.02L53.18,54.58L52.88,54.91L52.41,54.91z"/><path style="fill:#01ff02" d="M50.28,55.79L50.28,56.09L49.85,56.70L49.50,56.69L49.49,56.22L49.88,55.69L50.15,55.65z"/><path style="fill:#01ff02" d="M46.87,64.41L46.85,64.71L45.94,64.66L45.91,64.42L46.16,64.28L46.73,64.27z"/><path style="fill:#01ff02" d="M52.40,67.50L52.75,66.93L53.18,66.94L53.18,67.51L52.88,67.83L52.41,67.84z"/><path style="fill:#01ff02" d="M50.28,68.71L50.23,69.24L49.85,69.63L49.50,69.62L49.49,69.14L49.97,68.58L50.14,68.57z"/><path style="fill:#01ff02" d="M41.78,82.78L41.73,83.31L41.40,83.30L41.15,83.04L40.99,82.44L41.10,82.28L41.39,82.26z"/><path style="fill:#2ac7ce" d="M133.39,43.63L133.90,44.00L133.90,66.37L133.47,66.71L133.27,66.69L130.31,64.96L130.35,42.41L130.56,42.23L130.99,42.23z"/><path style="fill:#2ac7ce" d="M88.02,53.77L100.07,60.74L100.71,61.36L101.21,62.38L101.21,99.30L101.04,99.77L100.33,100.71L92.68,105.10L92.20,105.10L91.45,104.58L91.31,104.21L91.20,67.58L90.70,66.93L78.27,59.73L78.27,58.37L86.50,53.68L87.65,53.64z"/><path style="fill:#2ac7ce" d="M61.79,85.45L61.79,108.04L61.55,108.20L61.29,108.27L58.37,106.61L58.37,83.97L58.58,83.79L58.88,83.79z"/><path style="fill:#f2f2f2" d="M117.55,47.44L122.13,52.74L123.13,54.27L123.13,88.79L120.96,88.75L118.82,87.47L118.70,88.79L117.30,88.74L115.77,88.62L106.28,83.16L105.88,82.41L105.86,78.24L106.01,78.13L106.01,75.45L105.86,75.34L105.90,60.28L106.02,60.15L106.02,57.57L105.90,57.43L105.85,44.77L109.45,42.75z"/><path style="fill:#f2f2f2" d="M76.26,68.71L79.29,72.26L80.17,73.54L80.55,74.68L80.67,78.23L80.63,113.34L80.44,113.33L67.25,105.72L66.86,104.97L66.86,101.58L67.24,101.33L67.24,79.37L66.82,79.15L66.86,67.24L70.24,65.29L70.41,65.29z"/><path style="fill:#f2f2f2" d="M141.12,85.70L141.64,86.32L142.13,87.22L143.65,93.05L143.65,123.25L143.40,124.26L142.59,125.23L135.13,129.55L134.54,129.54L131.10,127.53L130.84,127.28L130.72,126.89L130.73,90.56L140.06,85.18L140.36,85.18z"/><path style="fill:#ffffff" d="M132.25,45.41L132.39,46.08L132.20,46.30L132.01,46.30L131.61,45.79L131.35,45.28L131.35,44.93L131.61,44.88z"/><path style="fill:#ffffff" d="M88.40,56.95L88.54,57.26L88.12,57.45L87.39,57.45L86.96,57.35L87.01,56.98L87.34,56.81L88.16,56.80z"/><path style="fill:#ffffff" d="M84.10,59.48L84.10,59.90L82.69,59.85L82.70,59.52L82.91,59.34L83.85,59.34z"/><path style="fill:#ffffff" d="M92.21,60.35L93.10,60.86L93.35,61.23L93.05,61.75L92.05,62.27L90.05,62.26L89.54,62.14L88.92,61.74L88.77,61.51L88.78,61.04L89.50,60.49L90.39,60.23L91.57,60.23z"/><path style="fill:#ffffff" d="M132.00,63.02L132.38,63.78L132.24,64.21L131.87,64.16L131.34,63.15L131.35,62.93L131.74,62.88z"/><path style="fill:#ffffff" d="M98.63,69.09L98.93,68.52L99.14,68.32L99.43,68.34L99.45,68.63L99.00,69.37L98.76,69.40z"/><path style="fill:#ffffff" d="M94.37,71.36L93.80,72.41L93.60,72.41L93.59,71.67L93.98,71.28L94.25,71.24z"/><path style="fill:#ffffff" d="M98.05,79.87L97.90,80.42L97.50,80.90L97.01,80.89L97.11,80.38L97.61,79.60L97.90,79.61z"/><path style="fill:#ffffff" d="M95.00,81.37L95.00,82.08L94.70,82.53L94.05,82.58L94.37,81.70L94.89,81.25z"/><path style="fill:#ffffff" d="M98.63,83.03L98.93,82.46L99.14,82.26L99.43,82.28L99.45,82.57L99.00,83.31L98.76,83.34z"/><path style="fill:#ffffff" d="M94.37,85.30L93.80,86.35L93.56,86.39L93.59,85.61L93.98,85.22L94.25,85.18z"/><path style="fill:#ffffff" d="M60.80,87.23L60.79,87.52L60.15,87.47L59.90,87.09L59.89,86.24L60.15,86.19z"/><path style="fill:#ffffff" d="M97.96,92.61L98.05,93.09L97.61,93.81L96.97,93.85L97.29,92.98L97.74,92.52z"/><path style="fill:#ffffff" d="M95.00,94.30L95.00,95.00L94.87,95.25L94.45,95.60L94.10,95.59L94.09,95.25L94.43,94.56L94.89,94.18z"/><path style="fill:#ffffff" d="M98.63,100.14L98.93,99.56L99.14,99.37L99.43,99.38L99.44,99.81L98.99,100.41L98.76,100.45z"/><path style="fill:#ffffff" d="M94.34,102.55L93.80,103.45L93.56,103.50L93.60,102.73L93.93,102.42L94.35,102.41z"/><path style="fill:#ffffff" d="M60.30,104.31L60.79,105.22L60.75,105.47L60.28,105.47L59.88,104.97L59.86,104.19L60.15,104.18z"/><path style="stroke:#000000;stroke-width:0.088" d="M38.77,41.64L38.75,41.63L38.75,38.04L48.24,32.56L49.27,32.56L55.14,35.95L44.61,42.03L44.61,45.02L38.77,41.64"/><path style="stroke:#000000;stroke-width:0.088" d="M38.75,38.64L44.61,42.03"/><path style="stroke:#000000;stroke-width:0.088" d="M41.19,42.11L41.08,42.00L40.95,41.80L40.86,41.58L40.82,41.37L40.82,41.33L40.84,41.18L40.91,41.04L41.03,40.97L41.18,40.97L41.35,41.04L41.51,41.17L41.66,41.35L41.77,41.57L41.84,41.79L41.85,41.99L41.82,42.11L41.80,42.15L41.71,42.26L41.57,42.30L41.41,42.26L41.24,42.16L41.19,42.11"/><path style="stroke:#000000;stroke-width:0.088" d="M41.38,41.07L41.29,41.03L41.16,41.03L41.06,41.09L41.00,41.21L40.99,41.33L40.99,41.36L41.02,41.54L41.10,41.72L41.21,41.89L41.34,42.02L41.48,42.11L41.62,42.14L41.73,42.10L41.81,42.01L41.84,41.90"/><path style="stroke:#000000;stroke-width:0.088" d="M44.61,45.02L49.01,42.48L49.01,42.67L48.84,42.58"/><path style="stroke:#000000;stroke-width:0.088" d="M46.21,36.32L46.04,36.25L45.84,36.21L45.63,36.21L45.43,36.25L45.26,36.32L45.14,36.42L45.07,36.54L45.07,36.66L45.14,36.77L45.26,36.87L46.64,37.67L46.81,37.74L47.01,37.78L47.22,37.78L47.42,37.74L47.59,37.67L47.59,37.12L46.21,36.32L46.21,37.42"/><path style="stroke:#000000;stroke-width:0.088" d="M45.07,36.54L45.07,36.59"/><path style="stroke:#000000;stroke-width:0.088" d="M47.59,37.12L47.71,37.22L47.78,37.33L47.78,37.46L47.71,37.57L47.59,37.67"/><path style="stroke:#000000;stroke-width:0.088" d="M49.01,42.67L50.74,41.68L50.74,41.48L55.14,38.94L55.14,35.95"/><path style="stroke:#000000;stroke-width:0.088" d="M38.75,82.85L38.75,79.86L44.61,83.24L44.61,86.23L38.75,82.85"/><path style="stroke:#000000;stroke-width:0.088" d="M38.75,79.86L38.75,79.26L42.63,77.02L42.63,76.82L44.35,75.82L50.74,79.51L49.01,80.50L42.63,76.82"/><path style="stroke:#000000;stroke-width:0.088" d="M41.16,83.30L41.01,83.12L40.98,83.06L40.89,82.91L40.83,82.69L40.82,82.49L40.86,82.32L40.96,82.22L41.10,82.18L41.26,82.21L41.43,82.31L41.59,82.47L41.72,82.67L41.81,82.89L41.85,83.11L41.85,83.14L41.83,83.29L41.76,83.43L41.64,83.50L41.49,83.51L41.32,83.44L41.16,83.30"/><path style="stroke:#000000;stroke-width:0.088" d="M41.85,83.08L41.84,83.17L41.78,83.28L41.68,83.34L41.55,83.35L41.41,83.29L41.27,83.18L41.15,83.03L41.05,82.85L41.00,82.67L40.99,82.50L41.03,82.36L41.11,82.27L41.22,82.24L41.35,82.27"/><path style="stroke:#000000;stroke-width:0.088" d="M41.85,83.14L41.85,83.14"/><path style="stroke:#000000;stroke-width:0.088" d="M42.63,77.02L49.01,80.70L49.01,80.50"/><path style="stroke:#000000;stroke-width:0.088" d="M44.61,86.23L55.14,80.15L55.14,77.17L50.74,79.71L50.74,79.51"/><path style="stroke:#000000;stroke-width:0.088" d="M49.01,80.70L44.61,83.24"/><path style="stroke:#000000;stroke-width:0.088" d="M45.14,77.79L45.07,77.67L45.07,77.55L45.14,77.44L45.26,77.34L45.43,77.27L45.63,77.23L45.84,77.23L46.04,77.27L46.21,77.34L47.59,78.14L47.59,78.69L47.42,78.76L47.22,78.79L47.01,78.79L46.81,78.76L46.64,78.69L45.26,77.89L45.14,77.79"/><path style="stroke:#000000;stroke-width:0.088" d="M55.14,77.17L49.27,73.78L48.24,73.78L44.53,75.92"/><path style="stroke:#000000;stroke-width:0.088" d="M46.21,78.44L46.21,77.34"/><path style="stroke:#000000;stroke-width:0.088" d="M47.59,78.69L47.71,78.59L47.78,78.47L47.78,78.35L47.71,78.24L47.59,78.14"/><path style="stroke:#000000;stroke-width:0.088" d="M39.52,65.62L39.52,63.63L48.67,68.91L48.67,70.90L39.52,65.62"/><path style="stroke:#000000;stroke-width:0.088" d="M39.52,63.63L45.05,60.44L54.19,65.72L48.67,68.91"/><path style="stroke:#000000;stroke-width:0.088" d="M45.95,64.65L46.10,64.72L46.29,64.77L46.49,64.77L46.68,64.74L46.85,64.68L46.97,64.58L47.03,64.47L47.03,64.36L46.96,64.25L46.86,64.17L46.83,64.16L46.66,64.10L46.46,64.07L46.26,64.08L46.08,64.13L45.94,64.21L45.84,64.32L45.82,64.43L45.85,64.55L45.95,64.65"/><path style="stroke:#000000;stroke-width:0.088" d="M46.02,64.68L45.94,64.60L45.91,64.51L45.94,64.41L46.02,64.33L46.14,64.26L46.29,64.22L46.46,64.21L46.62,64.23L46.77,64.28L46.79,64.29L46.87,64.36L46.93,64.45L46.93,64.55L46.88,64.64L46.81,64.69"/><path style="stroke:#000000;stroke-width:0.088" d="M45.91,64.51L45.91,64.51"/><path style="stroke:#000000;stroke-width:0.088" d="M48.67,70.90L50.57,69.80L50.57,69.60L52.29,68.61L52.29,68.81L52.12,68.71"/><path style="stroke:#000000;stroke-width:0.088" d="M49.45,69.49L49.49,69.66L49.58,69.78L49.71,69.82L49.87,69.80L50.04,69.70L50.20,69.55L50.34,69.35L50.43,69.14L50.48,68.92L50.47,68.73L50.40,68.59L50.29,68.50L50.14,68.49L49.98,68.55L49.81,68.68L49.65,68.85L49.54,69.06L49.47,69.29L49.45,69.45L49.45,69.49"/><path style="stroke:#000000;stroke-width:0.088" d="M49.92,68.59L50.03,68.55L50.15,68.56L50.24,68.63L50.30,68.75L50.31,68.91L50.27,69.09L50.19,69.27L50.07,69.43L49.94,69.56L49.80,69.64L49.66,69.66L49.55,69.62L49.48,69.53L49.45,69.40"/><path style="stroke:#000000;stroke-width:0.088" d="M49.97,68.55L49.98,68.55"/><path style="stroke:#000000;stroke-width:0.088" d="M52.29,68.81L54.19,67.71L54.19,65.72"/><path style="stroke:#000000;stroke-width:0.088" d="M52.41,67.92L52.42,67.97L52.51,68.08L52.64,68.13L52.80,68.10L52.97,68.01L53.13,67.86L53.27,67.66L53.37,67.44L53.41,67.23L53.40,67.04L53.34,66.89L53.22,66.81L53.08,66.80L52.91,66.86L52.74,66.98L52.59,67.16L52.47,67.37L52.40,67.59L52.38,67.74L52.38,67.76L52.38,67.80L52.41,67.92"/><path style="stroke:#000000;stroke-width:0.088" d="M52.86,66.89L52.96,66.86L53.08,66.87L53.18,66.94L53.23,67.06L53.24,67.22L53.20,67.40L53.12,67.58L53.01,67.74L52.87,67.87L52.73,67.95L52.60,67.97L52.49,67.93L52.41,67.83L52.39,67.71"/><path style="stroke:#000000;stroke-width:0.088" d="M39.52,52.42L39.52,52.67L48.67,57.95L54.19,54.76L54.19,52.77L52.29,53.86L52.29,54.06L50.57,55.06L50.57,54.86L48.67,55.96L39.52,50.68L39.52,52.42"/><path style="stroke:#000000;stroke-width:0.088" d="M39.52,50.68L41.42,49.58L50.57,54.86"/><path style="stroke:#000000;stroke-width:0.088" d="M41.59,49.68L43.15,48.78L43.15,48.58L45.04,47.49L54.19,52.77"/><path style="stroke:#000000;stroke-width:0.088" d="M43.15,48.78L52.29,54.06"/><path style="stroke:#000000;stroke-width:0.088" d="M43.15,48.58L52.29,53.86"/><path style="stroke:#000000;stroke-width:0.088" d="M45.99,51.92L46.10,51.97L46.29,52.01L46.49,52.02L46.68,51.99L46.85,51.93L46.97,51.83L47.03,51.72L47.02,51.61L46.96,51.50L46.83,51.41L46.66,51.35L46.46,51.32L46.26,51.33L46.08,51.38L45.94,51.46L45.84,51.56L45.82,51.68L45.85,51.79L45.95,51.89L45.99,51.92"/><path style="stroke:#000000;stroke-width:0.088" d="M46.82,51.94L46.88,51.89L46.93,51.79L46.93,51.70L46.87,51.61L46.79,51.54L46.76,51.53L46.62,51.48L46.46,51.46L46.29,51.47L46.27,51.47L46.14,51.51L46.01,51.57L45.94,51.66L45.91,51.76L45.94,51.85L46.02,51.93"/><path style="stroke:#000000;stroke-width:0.088" d="M46.02,51.93L45.95,51.89L46.01,51.93"/><path style="stroke:#000000;stroke-width:0.088" d="M48.67,55.96L48.67,57.95"/><path style="stroke:#000000;stroke-width:0.088" d="M49.64,56.86L49.52,56.77L49.46,56.63L49.45,56.44L49.49,56.22L49.59,56.01L49.73,55.81L49.89,55.66L50.06,55.56L50.22,55.54L50.35,55.58L50.44,55.70L50.48,55.87L50.48,55.91L50.46,56.08L50.39,56.30L50.27,56.51L50.12,56.68L49.95,56.81L49.79,56.87L49.64,56.86"/><path style="stroke:#000000;stroke-width:0.088" d="M49.89,55.66L49.96,55.62L50.09,55.60L50.20,55.64L50.28,55.73L50.31,55.88L50.31,55.91L50.29,56.05L50.23,56.23L50.14,56.41L50.01,56.55L49.87,56.66L49.73,56.71L49.61,56.70L49.51,56.63L49.46,56.51L49.45,56.42"/><path style="stroke:#000000;stroke-width:0.088" d="M49.45,56.44L49.45,56.44"/><path style="stroke:#000000;stroke-width:0.088" d="M50.20,55.64L50.20,55.64"/><path style="stroke:#000000;stroke-width:0.088" d="M52.39,54.94L52.46,55.08L52.57,55.16L52.72,55.17L52.89,55.11L53.05,54.99L53.21,54.81L53.32,54.60L53.40,54.38L53.41,54.21L53.41,54.18L53.38,54.01L53.28,53.89L53.15,53.84L52.99,53.87L52.82,53.96L52.66,54.12L52.52,54.31L52.43,54.53L52.38,54.75L52.39,54.94"/><path style="stroke:#000000;stroke-width:0.088" d="M52.82,53.96L52.82,53.96L52.89,53.93L53.02,53.91L53.13,53.95L53.21,54.04L53.24,54.18L53.24,54.21L53.23,54.35L53.17,54.54L53.07,54.71L52.94,54.86L52.80,54.96L52.66,55.01L52.54,55.01L52.44,54.94L52.39,54.82L52.39,54.73"/><path style="stroke:#000000;stroke-width:0.088" d="M80.56,113.36L80.73,113.26L80.73,104.03L80.73,79.75L80.70,79.42L80.59,79.16L80.56,79.11L80.56,113.36L67.27,105.69L66.75,104.80L66.75,101.61L70.55,103.80L70.71,103.86L70.85,103.86L70.97,103.80L71.04,103.67L71.07,103.50L70.55,103.80"/><path style="stroke:#000000;stroke-width:0.088" d="M66.75,101.61L67.27,101.31L71.07,103.50L71.07,82.18L71.04,81.98L70.97,81.77L70.85,81.57L70.71,81.41L70.55,81.28L66.75,79.09L66.75,67.34L70.38,65.24L76.24,68.63L74.95,72.07L66.75,67.34"/><path style="stroke:#000000;stroke-width:0.088" d="M67.27,101.31L67.27,79.39"/><path style="stroke:#000000;stroke-width:0.088" d="M68.65,100.43L68.49,100.24L68.36,100.01L68.28,99.77L68.26,99.59L68.26,99.55L68.30,99.37L68.40,99.24L68.55,99.19L68.72,99.22L68.90,99.32L69.08,99.49L69.23,99.70L69.33,99.94L69.38,100.17L69.37,100.38L69.30,100.53L69.18,100.62L69.02,100.63L68.84,100.57L68.65,100.43"/><path style="stroke:#000000;stroke-width:0.088" d="M68.46,82.26L68.63,82.48L68.81,82.62L68.99,82.70L69.16,82.69L69.29,82.61L69.36,82.47L69.38,82.30L69.38,82.26L69.34,82.03L69.24,81.80L69.10,81.58L68.93,81.40L68.74,81.29L68.57,81.26L68.42,81.30L68.32,81.41L68.27,81.59L68.28,81.81L68.35,82.05L68.46,82.26"/><path style="stroke:#000000;stroke-width:0.088" d="M74.95,72.07L79.50,77.39L80.16,78.30L80.56,79.11"/><path style="stroke:#000000;stroke-width:0.088" d="M80.63,77.95L80.63,76.80L80.59,76.42L80.48,76.01L80.30,75.57L80.05,75.11L79.39,74.20L79.32,72.23L76.24,68.63"/><path style="stroke:#000000;stroke-width:0.088" d="M79.26,75.58L79.26,74.05L78.14,74.27L79.45,75.79L79.50,77.39"/><path style="stroke:#000000;stroke-width:0.088" d="M80.73,79.74L80.68,78.39L80.65,78.02L80.53,77.61L80.35,77.16L80.11,76.70L79.45,75.79"/><path style="stroke:#000000;stroke-width:0.088" d="M79.39,74.20L79.26,74.05"/><path style="stroke:#000000;stroke-width:0.088" d="M79.32,72.23L79.98,73.14L80.23,73.60L80.41,74.04L80.52,74.46L80.56,74.83L80.63,76.80"/><path style="stroke:#000000;stroke-width:0.088" d="M22.15,56.39L24.74,57.88L24.74,28.69L22.15,27.20L22.15,56.39L22.24,56.96L22.49,57.37"/><path style="stroke:#000000;stroke-width:0.088" d="M22.48,57.37L25.45,59.08L25.93,59.09L26.47,58.88L29.92,56.89L30.45,56.48L30.93,55.92L31.31,55.26L31.56,54.56L31.64,53.90L31.64,24.71L24.74,28.69"/><path style="stroke:#000000;stroke-width:0.088" d="M22.15,27.20L29.05,23.21L31.64,24.71"/><path style="stroke:#000000;stroke-width:0.088" d="M24.17,27.46L24.35,27.55L24.58,27.61L24.82,27.62L25.05,27.58L25.25,27.50L25.39,27.39L25.46,27.26L25.46,27.12L25.38,26.99L25.26,26.90L25.22,26.88L25.02,26.81L24.79,26.77L24.55,26.79L24.33,26.85L24.15,26.94L24.04,27.07L24.01,27.20L24.05,27.34L24.18,27.47"/><path style="stroke:#000000;stroke-width:0.088" d="M24.25,27.50L24.17,27.42L24.13,27.30L24.16,27.19L24.25,27.09L24.40,27.01L24.58,26.96L24.78,26.94L24.97,26.97L25.14,27.03L25.17,27.05L25.27,27.12L25.34,27.23L25.34,27.35L25.28,27.46L25.20,27.52"/><path style="stroke:#000000;stroke-width:0.088" d="M24.74,57.88L24.82,58.45L25.07,58.86"/><path style="stroke:#000000;stroke-width:0.088" d="M26.55,57.05L26.72,56.99L26.90,56.85L27.05,56.67L27.18,56.46L27.26,56.23L27.28,56.01L27.29,54.82L27.26,54.63L27.18,54.50L27.05,54.43L26.90,54.43L26.72,54.50L26.55,54.63L26.39,54.81L26.27,55.02L26.19,55.25L26.16,55.47L26.16,55.65L26.16,56.66L26.19,56.85L26.27,56.98L26.39,57.05L26.55,57.05"/><path style="stroke:#000000;stroke-width:0.088" d="M27.28,56.01L26.17,55.37"/><path style="stroke:#000000;stroke-width:0.088" d="M26.72,41.54L26.55,41.67L26.39,41.86L26.27,42.07L26.19,42.30L26.16,42.51L26.16,43.71L26.19,43.89L26.27,44.03L26.39,44.10L26.55,44.10L26.72,44.03L26.90,43.90L27.05,43.72L27.18,43.50L27.26,43.28L27.28,43.06L27.29,41.87L27.26,41.68L27.18,41.55L27.05,41.48L26.90,41.47L26.72,41.54L27.29,41.87"/><path style="stroke:#000000;stroke-width:0.088" d="M26.18,42.42L27.28,43.06"/><path style="stroke:#000000;stroke-width:0.088" d="M27.29,54.82L26.72,54.50"/><path style="stroke:#000000;stroke-width:0.088" d="M27.18,54.50L27.14,54.48"/><path style="stroke:#000000;stroke-width:0.088" d="M27.18,41.55L27.15,41.53"/><path style="stroke:#000000;stroke-width:0.088" d="M28.66,25.06L28.49,24.97L28.37,24.85L28.32,24.71L28.36,24.58L28.47,24.45L28.64,24.36L28.86,24.30L29.08,24.28L29.33,24.31L29.54,24.39L29.57,24.41L29.69,24.50L29.77,24.63L29.78,24.77L29.70,24.90L29.56,25.01L29.36,25.09L29.13,25.13L28.89,25.12L28.66,25.06"/><path style="stroke:#000000;stroke-width:0.088" d="M28.57,25.01L28.48,24.93L28.44,24.81L28.47,24.70L28.56,24.59L28.71,24.51L28.89,24.46L29.09,24.45L29.29,24.48L29.46,24.54L29.48,24.56L29.58,24.63L29.65,24.74L29.66,24.86L29.60,24.97L29.52,25.03"/><path style="stroke:#000000;stroke-width:0.088" d="M30.22,54.32L30.22,53.12L30.19,52.94L30.11,52.81L29.99,52.73L29.83,52.73L29.66,52.80L29.48,52.93L29.33,53.12L29.20,53.33L29.12,53.56L29.10,53.77L29.10,54.97L29.12,55.15L29.20,55.29L29.33,55.36L29.48,55.36L29.66,55.29L29.83,55.16L29.99,54.98L30.11,54.76L30.19,54.54L30.22,54.32L29.11,53.68"/><path style="stroke:#000000;stroke-width:0.088" d="M29.66,52.80L30.22,53.12"/><path style="stroke:#000000;stroke-width:0.088" d="M30.22,41.37L30.22,40.17L30.19,39.99L30.11,39.85L29.99,39.78L29.83,39.78L29.66,39.85L29.48,39.98L29.33,40.16L29.20,40.38L29.12,40.60L29.10,40.82L29.10,42.02L29.12,42.20L29.20,42.33L29.33,42.41L29.48,42.41L29.66,42.34L29.83,42.21L29.99,42.03L30.11,41.81L30.19,41.58L30.22,41.37L29.11,40.73"/><path style="stroke:#000000;stroke-width:0.088" d="M29.66,39.85L30.22,40.17"/><path style="stroke:#000000;stroke-width:0.088" d="M132.95,128.58L133.27,128.76L130.95,127.43L130.78,127.14L130.72,126.74L130.72,90.57L131.21,90.85L140.70,85.37L141.23,85.77L141.70,86.33L142.09,86.99L142.33,87.68L132.84,93.16L134.17,98.54L134.17,128.73L130.72,126.74"/><path style="stroke:#000000;stroke-width:0.088" d="M130.72,90.57L140.21,85.09L140.70,85.37"/><path style="stroke:#000000;stroke-width:0.088" d="M131.21,90.85L131.73,91.25L132.21,91.81L132.60,92.47L132.84,93.16"/><path style="stroke:#000000;stroke-width:0.088" d="M133.27,128.76L134.41,129.42L134.23,129.13L134.17,128.73"/><path style="stroke:#000000;stroke-width:0.088" d="M142.33,87.68L143.67,93.06L143.67,123.25L143.61,123.72L143.43,124.21L143.17,124.67L142.83,125.06L142.46,125.34L135.38,129.43L135.01,129.58L134.67,129.57L134.08,129.23"/><path style="stroke:#000000;stroke-width:0.088" d="M143.67,93.06L134.17,98.54"/><path style="stroke:#000000;stroke-width:0.088" d="M58.26,106.51L61.37,108.31L61.37,85.79L58.26,84.00L58.26,106.51"/><path style="stroke:#000000;stroke-width:0.088" d="M58.85,105.14L58.74,104.68L58.75,104.28L58.87,103.96L59.10,103.77L59.40,103.73L59.75,103.84L59.81,103.87L60.10,104.08L60.42,104.44L60.68,104.87L60.84,105.33L60.89,105.77L60.82,106.13L60.65,106.39L60.38,106.51L60.05,106.47L59.70,106.29L59.36,105.99L59.11,105.65L59.06,105.59L58.85,105.14"/><path style="stroke:#000000;stroke-width:0.088" d="M58.83,87.10L58.85,87.20L59.06,87.65L59.36,88.05L59.70,88.36L60.05,88.54L60.38,88.57L60.65,88.45L60.82,88.20L60.89,87.83L60.84,87.40L60.68,86.94L60.42,86.51L60.10,86.15L59.81,85.94L59.75,85.91L59.40,85.80L59.10,85.84L58.87,86.03L58.75,86.34L58.74,86.75L58.83,87.10"/><path style="stroke:#000000;stroke-width:0.088" d="M61.37,108.31L61.88,108.01L61.88,85.49L58.78,83.70L58.26,84.00"/><path style="stroke:#000000;stroke-width:0.088" d="M60.11,104.10L59.96,104.12L59.84,104.22L59.78,104.38L59.77,104.59L59.83,104.83L59.94,105.06L60.09,105.27L60.27,105.43L60.46,105.52L60.63,105.54L60.76,105.48L60.84,105.37"/><path style="stroke:#000000;stroke-width:0.088" d="M60.11,86.17L59.96,86.19L59.84,86.29L59.78,86.45L59.77,86.66L59.83,86.89L59.94,87.13L60.09,87.34L60.27,87.50L60.46,87.59L60.63,87.61L60.76,87.55L60.84,87.43"/><path style="stroke:#000000;stroke-width:0.088" d="M61.37,85.79L61.88,85.49"/><path style="stroke:#000000;stroke-width:0.088" d="M133.91,43.90L130.81,42.11L130.29,42.41L130.29,64.93L133.39,66.72L133.91,66.42L133.91,43.90L133.39,44.20L133.39,66.72"/><path style="stroke:#000000;stroke-width:0.088" d="M133.39,44.20L130.29,42.41"/><path style="stroke:#000000;stroke-width:0.088" d="M131.54,63.91L131.41,63.69L131.31,63.45L131.28,63.22L131.31,63.02L131.39,62.88L131.52,62.81L131.69,62.82L131.84,62.88L131.87,62.90L132.05,63.06L132.21,63.26L132.33,63.49L132.39,63.73L132.40,63.94L132.34,64.12L132.23,64.22L132.08,64.25L131.90,64.21L131.71,64.09L131.54,63.91"/><path style="stroke:#000000;stroke-width:0.088" d="M132.06,64.25L131.79,63.96L131.52,63.54L131.35,63.08L131.33,62.98"/><path style="stroke:#000000;stroke-width:0.088" d="M131.54,45.98L131.41,45.75L131.31,45.52L131.28,45.29L131.31,45.09L131.39,44.95L131.52,44.88L131.69,44.89L131.84,44.95L131.87,44.97L132.05,45.12L132.21,45.33L132.33,45.56L132.39,45.80L132.40,46.01L132.34,46.18L132.23,46.29L132.08,46.32L131.90,46.28L131.71,46.16L131.54,45.98"/><path style="stroke:#000000;stroke-width:0.088" d="M131.33,45.05L131.35,45.14L131.52,45.60L131.79,46.03L132.06,46.32"/><path style="stroke:#000000;stroke-width:0.088" d="M78.16,59.40L78.16,58.85L78.28,59.05L78.51,59.23L78.51,59.83L78.28,59.65L78.16,59.44L78.16,58.87L78.16,59.43"/><path style="stroke:#000000;stroke-width:0.088" d="M78.16,58.87L78.16,58.62L78.16,58.85"/><path style="stroke:#000000;stroke-width:0.088" d="M78.16,58.62L78.28,58.41L78.51,58.24L86.27,53.75L86.58,53.62L86.94,53.56L87.32,53.56L87.69,53.62L88.00,53.75L100.08,60.73L90.59,66.21L90.96,66.49L91.30,66.88L91.56,67.35L91.74,67.83L91.79,68.30L91.79,104.27L91.28,103.97L91.28,68.00L91.24,67.73L91.14,67.46L90.99,67.19L90.80,66.97L90.59,66.80L78.51,59.83"/><path style="stroke:#000000;stroke-width:0.088" d="M78.51,59.23L90.59,66.21"/><path style="stroke:#000000;stroke-width:0.088" d="M82.38,59.72L82.32,59.69L82.04,59.45L81.91,59.17L81.94,58.88L82.13,58.62L82.46,58.40L82.90,58.26L83.39,58.20L83.89,58.24L84.34,58.38L84.68,58.59L84.89,58.85L84.95,59.14L84.83,59.42L84.57,59.67L84.50,59.71L84.18,59.85L83.71,59.95L83.20,59.95L82.73,59.87L82.38,59.72"/><path style="stroke:#000000;stroke-width:0.088" d="M84.16,59.85L84.22,59.71L84.19,59.56L84.08,59.42L83.90,59.31L83.67,59.25L83.41,59.22L83.15,59.25L82.92,59.33L82.75,59.44L82.65,59.58L82.64,59.73L82.69,59.85"/><path style="stroke:#000000;stroke-width:0.088" d="M86.25,56.45L86.22,56.68L86.35,56.96L86.64,57.20L87.04,57.38L87.52,57.46L88.02,57.46L88.49,57.36L88.82,57.22L88.88,57.18L89.15,56.93L89.26,56.65L89.21,56.36L89.00,56.10L88.85,56.00L88.65,55.89L88.20,55.75L87.71,55.71L87.21,55.77L86.78,55.91L86.44,56.13L86.25,56.39L86.25,56.45"/><path style="stroke:#000000;stroke-width:0.088" d="M88.47,57.36L88.53,57.22L88.50,57.07L88.39,56.93L88.21,56.82L87.98,56.75L87.72,56.73L87.47,56.76L87.24,56.83L87.07,56.95L86.97,57.09L86.95,57.24L87.01,57.36"/><path style="stroke:#000000;stroke-width:0.088" d="M88.66,61.30L88.76,61.03L89.19,60.64L89.29,60.58L89.81,60.35L90.57,60.19L91.37,60.18L92.14,60.32L92.78,60.60L93.23,60.98L93.39,61.31"/><path style="stroke:#000000;stroke-width:0.088" d="M88.65,61.29L88.66,61.35L89.00,61.77L89.56,62.11L90.27,62.32L91.07,62.38L91.86,62.30L92.56,62.07L93.09,61.72L93.39,61.29L93.45,60.83L93.23,60.38L92.78,60.00L92.14,59.72L91.37,59.58L90.57,59.59L89.81,59.75L89.29,59.98L89.19,60.04L88.76,60.44L88.58,60.89L88.65,61.29"/><path style="stroke:#000000;stroke-width:0.088" d="M91.79,104.27L91.85,104.66L92.03,104.95L91.51,104.65L91.34,104.36L91.28,103.97"/><path style="stroke:#000000;stroke-width:0.088" d="M92.03,104.95L92.08,104.98L91.51,104.65"/><path style="stroke:#000000;stroke-width:0.088" d="M91.79,68.30L101.29,62.82L101.23,62.35L101.05,61.87L100.79,61.40L100.69,61.29L100.45,61.01L100.08,60.73"/><path style="stroke:#000000;stroke-width:0.088" d="M101.29,62.82L101.29,98.79L101.23,99.25L101.05,99.74L100.79,100.20L100.45,100.59L100.08,100.88L93.00,104.96L92.63,105.11L92.29,105.11L92.08,104.98"/><path style="stroke:#000000;stroke-width:0.088" d="M93.73,103.53L93.87,103.51L94.03,103.42L94.18,103.27L94.21,103.23L94.30,103.09L94.39,102.89L94.42,102.69L94.41,102.52L94.35,102.39L94.24,102.32L94.11,102.31L93.95,102.37L93.89,102.42L93.80,102.49L93.66,102.66L93.55,102.85L93.49,103.05L93.48,103.24L93.52,103.39L93.60,103.49L93.73,103.53L93.91,103.36L94.16,102.98L94.34,102.56L94.37,102.43"/><path style="stroke:#000000;stroke-width:0.088" d="M93.60,86.36L93.52,86.26L93.48,86.10L93.49,85.92L93.55,85.71L93.66,85.52L93.80,85.36L93.95,85.24L94.11,85.18L94.24,85.18L94.35,85.26L94.41,85.38L94.42,85.56L94.39,85.75L94.30,85.95L94.18,86.14L94.03,86.28L93.87,86.37L93.73,86.40L93.60,86.36"/><path style="stroke:#000000;stroke-width:0.088" d="M93.74,72.44L93.84,72.43L93.95,72.38L94.00,72.35L94.15,72.22L94.28,72.04L94.37,71.84L94.42,71.64L94.42,71.47L94.36,71.33L94.27,71.24L94.13,71.22L93.98,71.27L93.83,71.38L93.69,71.53L93.57,71.73L93.50,71.93L93.48,72.12L93.51,72.28L93.58,72.39L93.70,72.45L93.74,72.44L93.85,72.34L94.12,71.97L94.32,71.55L94.37,71.34"/><path style="stroke:#000000;stroke-width:0.088" d="M94.41,96.56L94.17,96.40L94.03,96.11L94.00,95.72L94.09,95.27L94.28,94.81L94.56,94.40L94.90,94.07L95.25,93.87L95.59,93.81L95.87,93.90L96.06,94.13L96.15,94.48L96.12,94.90L95.98,95.36L95.73,95.80L95.42,96.18L95.31,96.26L95.07,96.45L94.72,96.58L94.41,96.56"/><path style="stroke:#000000;stroke-width:0.088" d="M94.05,95.45L94.09,95.53L94.21,95.61L94.37,95.62L94.56,95.55L94.74,95.41L94.90,95.21L95.02,94.98L95.10,94.75L95.11,94.53L95.07,94.34L94.97,94.22L94.82,94.18L94.78,94.18"/><path style="stroke:#000000;stroke-width:0.088" d="M93.73,86.40L93.91,86.22L94.16,85.84L94.34,85.42L94.37,85.29"/><path style="stroke:#000000;stroke-width:0.088" d="M94.02,83.06L94.05,83.22L94.21,83.49L94.46,83.63L94.79,83.61L95.07,83.49L95.14,83.45L95.49,83.16L95.79,82.77L96.01,82.32L96.13,81.87L96.14,81.45L96.12,81.38L96.03,81.12L95.82,80.92L95.53,80.86L95.19,80.94L94.83,81.17L94.50,81.52L94.24,81.95L94.06,82.40L93.99,82.84L94.02,83.06"/><path style="stroke:#000000;stroke-width:0.088" d="M94.78,81.23L94.94,81.26L95.05,81.36L95.11,81.53L95.11,81.75L95.04,81.99L94.93,82.22L94.77,82.42L94.59,82.58L94.41,82.66L94.24,82.67L94.11,82.60L94.05,82.50"/><path style="stroke:#000000;stroke-width:0.088" d="M97.73,94.86L97.66,94.89L97.34,94.87L97.10,94.71L96.96,94.41L96.93,94.02L97.02,93.57L97.21,93.12L97.49,92.71L97.83,92.38L98.01,92.26L98.19,92.17L98.52,92.11L98.80,92.20L98.99,92.44L99.08,92.78L99.05,93.21L98.91,93.67L98.67,94.11L98.36,94.48L98.01,94.75L97.73,94.86"/><path style="stroke:#000000;stroke-width:0.088" d="M97.72,92.49L97.76,92.48L97.90,92.53L98.00,92.65L98.05,92.83L98.03,93.05L97.96,93.29L97.83,93.52L97.67,93.71L97.49,93.85L97.31,93.92L97.14,93.92L97.02,93.83L96.98,93.76"/><path style="stroke:#000000;stroke-width:0.088" d="M97.66,81.93L97.34,81.92L97.10,81.76L96.96,81.46L96.93,81.07L97.02,80.62L97.21,80.17L97.49,79.75L97.79,79.46L97.83,79.43L98.19,79.22L98.52,79.16L98.80,79.25L98.99,79.48L99.08,79.83L99.05,80.26L98.91,80.71L98.67,81.16L98.36,81.53L98.01,81.80L97.66,81.93"/><path style="stroke:#000000;stroke-width:0.088" d="M96.98,80.81L97.02,80.88L97.14,80.96L97.31,80.97L97.49,80.90L97.67,80.76L97.83,80.57L97.96,80.34L98.03,80.10L98.05,79.88L98.00,79.70L97.90,79.58L97.76,79.53L97.72,79.54"/><path style="stroke:#000000;stroke-width:0.088" d="M98.90,100.54L99.05,100.52L99.21,100.43L99.35,100.28L99.48,100.10L99.56,99.90L99.60,99.70L99.59,99.53L99.53,99.40L99.42,99.33L99.28,99.32L99.13,99.38L98.97,99.50L98.84,99.67L98.73,99.86L98.67,100.06L98.66,100.25L98.69,100.40L98.78,100.51L98.90,100.54L99.08,100.37L99.34,99.99L99.52,99.57L99.54,99.44"/><path style="stroke:#000000;stroke-width:0.088" d="M99.54,82.30L99.52,82.43L99.34,82.85L99.08,83.23L98.90,83.41L98.78,83.37L98.69,83.27L98.66,83.11L98.67,82.93L98.73,82.73L98.84,82.53L98.97,82.37L99.13,82.25L99.28,82.19L99.42,82.19L99.53,82.27L99.59,82.39L99.60,82.57L99.56,82.76L99.48,82.96L99.35,83.15L99.21,83.29L99.05,83.38L98.90,83.41"/><path style="stroke:#000000;stroke-width:0.088" d="M98.91,69.45L99.03,69.35L99.30,68.98L99.49,68.56L99.54,68.35"/><path style="stroke:#000000;stroke-width:0.088" d="M99.19,69.35L99.13,69.39L99.02,69.44L98.88,69.46L98.76,69.41L98.68,69.29L98.65,69.13L98.68,68.94L98.75,68.74L98.86,68.55L99.00,68.39L99.16,68.28L99.31,68.24L99.44,68.25L99.54,68.34L99.59,68.48L99.60,68.65L99.55,68.85L99.46,69.05L99.33,69.23L99.19,69.35"/><path style="stroke:#000000;stroke-width:0.088" d="M111.32,81.46L111.48,81.52L111.62,81.52L111.74,81.45L111.81,81.33L111.84,81.16L111.84,79.37L111.81,79.17L111.74,78.96L111.62,78.76L111.48,78.59L111.32,78.47L105.80,75.28L105.80,60.34L111.32,63.52L111.48,63.59L111.62,63.59L111.74,63.52L111.81,63.40L111.84,63.23L111.84,61.43L111.81,61.23L111.74,61.02L111.62,60.82L111.48,60.66L111.32,60.53L105.80,57.35L105.80,44.79L111.67,48.18L114.74,51.78L115.40,52.69L115.65,53.15L115.83,53.59L115.94,54.01L115.98,54.38L115.98,88.73L106.32,83.15L105.80,82.26L105.80,78.27L106.06,78.12L111.58,81.31L111.32,81.46L105.80,78.27"/><path style="stroke:#000000;stroke-width:0.088" d="M105.80,60.34L106.06,60.19L111.58,63.37L111.32,63.52"/><path style="stroke:#000000;stroke-width:0.088" d="M105.80,44.79L109.42,42.70L117.62,47.43L111.67,48.18"/><path style="stroke:#000000;stroke-width:0.088" d="M106.06,78.12L106.06,75.43"/><path style="stroke:#000000;stroke-width:0.088" d="M106.06,60.19L106.06,57.50"/><path style="stroke:#000000;stroke-width:0.088" d="M107.30,77.89L107.17,77.66L107.08,77.43L107.05,77.20L107.08,77.01L107.17,76.87L107.30,76.80L107.47,76.82L107.66,76.90L107.83,77.06L107.99,77.27L108.10,77.50L108.16,77.74L108.17,77.85L108.16,77.95L108.10,78.12L107.99,78.22L107.83,78.25L107.65,78.19L107.47,78.07L107.30,77.89"/><path style="stroke:#000000;stroke-width:0.088" d="M107.23,59.85L107.12,59.61L107.06,59.38L107.06,59.16L107.12,59.00L107.23,58.89L107.38,58.87L107.56,58.92L107.75,59.04L107.92,59.22L108.05,59.45L108.14,59.68L108.17,59.91L108.14,60.10L108.05,60.24L107.92,60.31L107.75,60.30L107.56,60.21L107.38,60.05L107.23,59.85"/><path style="stroke:#000000;stroke-width:0.088" d="M111.58,81.31L111.74,81.37L111.79,81.37"/><path style="stroke:#000000;stroke-width:0.088" d="M111.58,63.37L111.74,63.44L111.79,63.44"/><path style="stroke:#000000;stroke-width:0.088" d="M114.74,51.78L117.57,52.15L118.23,53.06L118.48,53.52L118.66,53.96L118.77,54.38L118.81,54.75L115.98,54.38"/><path style="stroke:#000000;stroke-width:0.088" d="M115.98,88.73L118.81,88.77L118.81,54.75"/><path style="stroke:#000000;stroke-width:0.088" d="M117.57,52.15L117.45,52.00L118.57,50.93L118.57,53.74"/><path style="stroke:#000000;stroke-width:0.088" d="M123.23,54.48L123.23,88.73L123.05,88.83L123.05,55.31L123.09,54.95L123.20,54.56L123.23,54.48L122.83,53.67L122.17,52.76L117.62,47.43"/><path style="stroke:#000000;stroke-width:0.088" d="M118.57,50.93L119.87,52.46L120.53,53.36L120.78,53.82L120.96,54.27L121.07,54.68L121.11,55.06L123.05,55.31"/><path style="stroke:#000000;stroke-width:0.088" d="M118.81,87.48L121.11,88.80L121.11,55.06"/><path style="stroke:#000000;stroke-width:0.088" d="M119.87,52.46L122.17,52.76"/><path style="stroke:#000000;stroke-width:0.088" d="M121.11,88.80L123.05,88.83"/><path style="fill:#ffffff" d="M172.18,62.85L198.59,62.85L198.59,57.21L172.18,57.21z"/><path style="stroke:#35414c;stroke-width:0.255" d="M172.18,62.85L198.59,62.85L198.59,57.21L172.18,57.21z"/><path style="stroke:#35404c;stroke-width:0.250;stroke-opacity:0.00" d="M172.18,62.85L198.59,62.85L198.59,57.21L172.18,57.21z"/><text xml:space="preserve" fill="#333f4b" stroke-width="0" x="172.89" y="61.26" font-size="3.49" opacity="1.00" font-family="Arial" font-weight="bold" font-style="italic">F24978957A</text><path style="fill:#ffffff" d="M172.18,72.89L198.59,72.89L198.59,67.25L172.18,67.25z"/><path style="stroke:#35414c;stroke-width:0.255" d="M172.18,72.89L198.59,72.89L198.59,67.25L172.18,67.25z"/><path style="stroke:#35404c;stroke-width:0.250;stroke-opacity:0.00" d="M172.18,72.89L198.59,72.89L198.59,67.25L172.18,67.25z"/><text xml:space="preserve" fill="#333f4b" stroke-width="0" x="172.89" y="71.30" font-size="3.49" opacity="1.00" font-family="Arial" font-weight="bold" font-style="italic">F24978959A</text><path style="fill:#ffffff" d="M172.18,102.74L198.59,102.74L198.59,97.09L172.18,97.09z"/><path style="stroke:#35414c;stroke-width:0.255" d="M172.18,102.74L198.59,102.74L198.59,97.09L172.18,97.09z"/><path style="stroke:#35404c;stroke-width:0.250;stroke-opacity:0.00" d="M172.18,102.74L198.59,102.74L198.59,97.09L172.18,97.09z"/><text xml:space="preserve" fill="#333f4b" stroke-width="0" x="172.89" y="101.15" font-size="3.49" opacity="1.00" font-family="Arial" font-weight="bold" font-style="italic">F24978962A</text><path style="fill:#ffffff" d="M172.18,52.81L198.59,52.81L198.59,47.17L172.18,47.17z"/><path style="stroke:#35414c;stroke-width:0.255" d="M172.18,52.81L198.59,52.81L198.59,47.17L172.18,47.17z"/><path style="stroke:#35404c;stroke-width:0.250;stroke-opacity:0.00" d="M172.18,52.81L198.59,52.81L198.59,47.17L172.18,47.17z"/><text xml:space="preserve" fill="#333f4b" stroke-width="0" x="172.89" y="51.23" font-size="3.56" opacity="1.00" font-family="Arial" font-weight="bold" font-style="italic">F24978956X</text><path style="fill:#ffffff" d="M172.18,82.66L198.59,82.66L198.59,77.02L172.18,77.02z"/><path style="stroke:#35414c;stroke-width:0.255" d="M172.18,82.66L198.59,82.66L198.59,77.02L172.18,77.02z"/><path style="stroke:#35404c;stroke-width:0.250;stroke-opacity:0.00" d="M172.18,82.66L198.59,82.66L198.59,77.02L172.18,77.02z"/><text xml:space="preserve" fill="#333f4b" stroke-width="0" x="172.89" y="81.08" font-size="3.49" opacity="1.00" font-family="Arial" font-weight="bold" font-style="italic">F24978960A</text><path style="fill:#ffffff" d="M172.18,92.70L198.59,92.70L198.59,87.06L172.18,87.06z"/><path style="stroke:#35414c;stroke-width:0.255" d="M172.18,92.70L198.59,92.70L198.59,87.06L172.18,87.06z"/><path style="stroke:#35404c;stroke-width:0.250;stroke-opacity:0.00" d="M172.18,92.70L198.59,92.70L198.59,87.06L172.18,87.06z"/><text xml:space="preserve" fill="#333f4b" stroke-width="0" x="172.89" y="91.11" font-size="3.49" opacity="1.00" font-family="Arial" font-weight="bold" font-style="italic">F24978961A</text><path style="fill:#ffffff" d="M172.18,42.78L198.59,42.78L198.59,37.13L172.18,37.13z"/><path style="stroke:#35414c;stroke-width:0.255" d="M172.18,42.78L198.59,42.78L198.59,37.13L172.18,37.13z"/><path style="stroke:#35404c;stroke-width:0.250;stroke-opacity:0.00" d="M172.18,42.78L198.59,42.78L198.59,37.13L172.18,37.13z"/><text xml:space="preserve" fill="#333f4b" stroke-width="0" x="172.89" y="41.19" font-size="3.56" opacity="1.00" font-family="Arial" font-weight="bold" font-style="italic">F24978953X</text><path style="fill:#ffffff" d="M172.18,112.78L198.59,112.78L198.59,107.13L172.18,107.13z"/><path style="stroke:#35414c;stroke-width:0.255" d="M172.18,112.78L198.59,112.78L198.59,107.13L172.18,107.13z"/><path style="stroke:#35404c;stroke-width:0.250;stroke-opacity:0.00" d="M172.18,112.78L198.59,112.78L198.59,107.13L172.18,107.13z"/><text xml:space="preserve" fill="#333f4b" stroke-width="0" x="172.89" y="111.19" font-size="3.56" opacity="1.00" font-family="Arial" font-weight="bold" font-style="italic">F24978963X</text><g id="paperID" visibility="hidden" opacity="0.00" transform="scale(0.000100)"><path style="stroke:#000000;stroke-width:0.500;fill:#e6e6e6;fill-rule:evenodd" d="M-2000.00,-2000.00L2210.00,-2000.00L2210.00,2150.00L-2000.00,2150.00zM0.00,0.00L210.00,0.00L210.00,150.00L0.00,150.00z"/><path style="fill:#000000;fill-opacity:0.118" d="M3.00,150.00L210.00,150.00L210.00,3.00L213.00,3.00L213.00,153.00L3.00,153.00z"/></g><g id="hotspot.0" onmouseover="ShowHotSpot(evt,'0')" onmouseout="HideHotSpot(evt,'0')" onmousemove="ShowToolTip(evt,'0',&quot;F24978953X&quot;)" opacity="0"><path style="fill:#00ff00;fill-rule:evenodd" d="M198.85,37.57L198.84,42.72L198.55,43.23L172.12,43.16L172.12,37.41L198.59,37.30zM76.27,68.75L78.92,71.91L80.49,74.30L80.74,79.07L80.74,113.26L79.94,113.16L67.28,105.74L67.01,105.48L67.03,101.63L67.28,101.36L67.28,79.59L67.03,79.31L67.01,67.27L70.09,65.57L70.70,65.57z"/></g><g id="hotspot.1" onmouseover="ShowHotSpot(evt,'1')" onmouseout="HideHotSpot(evt,'1')" onmousemove="ShowToolTip(evt,'1',&quot;F24978956X&quot;)" opacity="0"><path style="fill:#00ff00;fill-rule:evenodd" d="M117.70,47.66L121.71,52.37L123.02,54.22L123.02,88.94L120.87,88.86L119.04,87.76L118.79,88.94L116.12,88.86L106.38,83.28L106.11,83.03L106.10,44.82L109.56,42.89zM198.85,47.60L198.84,52.76L198.55,53.27L172.12,53.20L172.12,47.44L198.59,47.34z"/></g><g id="hotspot.2" onmouseover="ShowHotSpot(evt,'2')" onmouseout="HideHotSpot(evt,'2')" onmousemove="ShowToolTip(evt,'2',&quot;F24978957A&quot;)" opacity="0"><path style="fill:#00ff00;fill-rule:evenodd" d="M31.64,24.89L31.61,54.60L31.34,55.38L30.45,56.60L26.52,59.01L24.98,59.01L22.36,57.41L22.29,27.30L28.61,23.58L29.50,23.58zM198.85,57.64L198.84,62.80L198.55,63.31L172.12,63.23L172.12,57.48L198.59,57.38z"/></g><g id="hotspot.3" onmouseover="ShowHotSpot(evt,'3')" onmouseout="HideHotSpot(evt,'3')" onmousemove="ShowToolTip(evt,'3',&quot;F24978959A&quot;)" opacity="0"><path style="fill:#00ff00;fill-rule:evenodd" d="M54.09,52.89L54.09,54.88L48.96,57.97L48.28,57.94L39.80,52.92L39.80,50.63L42.08,49.49L45.10,47.63zM54.09,65.84L54.09,67.82L50.38,69.93L48.95,70.91L48.28,70.88L39.80,65.86L39.80,63.57L45.10,60.58zM198.85,67.68L198.84,72.84L198.55,73.34L172.12,73.27L172.12,67.52L198.59,67.41z"/></g><g id="hotspot.4" onmouseover="ShowHotSpot(evt,'4')" onmouseout="HideHotSpot(evt,'4')" onmousemove="ShowToolTip(evt,'4',&quot;F24978960A&quot;)" opacity="0"><path style="fill:#00ff00;fill-rule:evenodd" d="M100.03,60.84L101.10,62.15L101.10,99.77L100.45,100.72L93.36,104.98L91.80,104.99L91.49,104.78L91.31,68.24L90.83,67.13L78.28,59.87L78.37,58.55L86.72,53.69L87.62,53.69zM198.85,77.45L198.84,82.61L198.55,83.12L172.12,83.05L172.12,77.29L198.59,77.19zM88.43,57.18L88.44,57.48L86.95,57.48L86.96,57.18L87.88,56.85zM84.21,59.75L83.86,60.09L83.09,60.10L82.74,59.84L82.73,59.54L83.97,59.51zM92.37,60.57L93.20,61.10L93.20,61.73L91.77,62.44L90.23,62.44L88.93,61.89L88.93,60.94L90.71,60.30zM98.97,69.42L98.84,68.76L99.16,68.45L99.47,68.46zM94.25,72.01L93.68,72.58L93.68,71.76L94.25,71.42zM98.01,80.02L97.62,81.03L97.03,81.03L97.07,80.48L97.57,79.80zM94.93,82.53L94.11,82.60L94.20,82.10L94.70,81.42L94.99,81.41zM98.97,83.42L98.84,82.76L99.16,82.45L99.47,82.46zM94.28,85.54L93.70,86.59L93.69,85.46L94.22,85.39zM98.01,92.96L97.62,93.97L97.03,93.97L97.07,93.42L97.57,92.75zM94.93,95.47L94.11,95.54L94.20,95.04L94.70,94.36L94.99,94.36zM98.98,100.59L98.89,99.65L99.47,99.62zM94.28,102.71L93.91,103.49L93.60,103.48L93.69,102.63L94.22,102.56z"/></g><g id="hotspot.5" onmouseover="ShowHotSpot(evt,'5')" onmouseout="HideHotSpot(evt,'5')" onmousemove="ShowToolTip(evt,'5',&quot;F24978961A&quot;)" opacity="0"><path style="fill:#00ff00;fill-rule:evenodd" d="M131.99,42.88L133.85,44.18L133.75,66.68L133.04,66.68L130.32,65.15L130.40,42.41L130.93,42.32zM61.75,85.65L61.73,108.23L60.68,108.11L58.55,106.81L58.56,83.88L58.83,83.81zM198.85,87.49L198.84,92.65L198.55,93.15L172.12,93.08L172.12,87.33L198.59,87.23zM132.27,45.51L132.27,46.40L131.74,46.04L131.37,45.19L131.73,44.99zM132.27,63.47L132.27,64.36L131.74,64.00L131.37,63.16L131.73,62.95zM60.71,87.00L60.67,87.62L60.16,87.55L59.86,87.25L59.78,86.45L60.12,86.41zM60.71,104.96L60.67,105.59L60.16,105.51L59.83,104.95L59.78,104.41L60.11,104.38z"/></g><g id="hotspot.6" onmouseover="ShowHotSpot(evt,'6')" onmouseout="HideHotSpot(evt,'6')" onmousemove="ShowToolTip(evt,'6',&quot;F24978962A&quot;)" opacity="0"><path style="fill:#00ff00;fill-rule:evenodd" d="M53.27,34.96L55.14,36.26L55.14,39.03L52.65,40.50L50.60,41.88L44.97,45.00L44.28,45.03L38.92,41.91L38.93,38.14L47.89,32.83L49.58,32.83zM54.06,76.69L55.14,77.47L55.14,80.24L45.00,86.24L44.28,86.24L38.92,83.12L38.93,79.34L42.41,77.28L43.94,76.17L48.15,74.04L49.58,74.04zM198.85,97.53L198.84,102.69L198.55,103.19L172.12,103.12L172.12,97.37L198.59,97.26z"/></g><g id="hotspot.7" onmouseover="ShowHotSpot(evt,'7')" onmouseout="HideHotSpot(evt,'7')" onmousemove="ShowToolTip(evt,'7',&quot;F24978963X&quot;)" opacity="0"><path style="fill:#00ff00;fill-rule:evenodd" d="M141.26,85.91L142.02,87.00L143.61,92.81L143.61,123.80L143.35,124.59L142.71,125.28L135.58,129.51L134.35,129.53L130.85,127.49L130.85,90.70L139.83,85.38L140.44,85.38zM198.85,107.57L198.84,112.72L198.55,113.23L172.12,113.16L172.12,107.41L198.59,107.30z"/></g></g></svg>
