<?xml version="1.0" encoding="UTF-8" standalone="no"?>
<svg xmlns="http://www.w3.org/2000/svg" xmlns:xlink="http://www.w3.org/1999/xlink" width="210.000mm" height="150.000mm" viewBox="0.000000 0.000000 210.000000 150.000000" stroke-linejoin="round" stroke-linecap="round" fill="none" fill-rule="evenodd"><desc>Composer Export</desc><script type="text/ecmascript"><![CDATA[
if(typeof(top) != "undefined")
{
	top.ShowPaper = ShowPaper;
}
function ShowHotSpot(evt,hotspotid)
{
	var svgDocument = evt.target.ownerDocument;
	var strId = "hotspot."+hotspotid;
	var hotspot = svgDocument.getElementById(strId);
	if(hotspot)
		hotspot.setAttribute("opacity",".5");
}
function HideHotSpot(evt,hotspotid)
{
	var svgDocument = evt.target.ownerDocument;
	var strId = "hotspot."+hotspotid;
	var hotspot = svgDocument.getElementById(strId);
	if(hotspot)
		hotspot.setAttribute("opacity","0");

	var toolTip = svgDocument.getElementById('ToolTip');
	if(toolTip)
		toolTip.setAttribute("visibility","hidden");
}
function ShowToolTip(evt,hotspotid,strTooltip)
{
	if(strTooltip=="")
	return;

	// change text
	var svgDocument = evt.target.ownerDocument;
	var tiptext = svgDocument.getElementById('ToolTipText');
	if( !tiptext )
	return;
	tiptext.firstChild.nodeValue = " " + strTooltip + "  " ;

	// show tooltip before, else some refresh issue

	var toolTip = svgDocument.getElementById('ToolTip');
	if(!toolTip)
	return;

	toolTip.setAttribute("visibility","visible");
	toolTip.setAttribute("opacity",".95");

	// move tooltip
	// get viewbox

	var root = svgDocument.documentElement;
	var vbox = (root.getAttribute("viewBox")).split(' ');
	var x0 = parseFloat(vbox[0]);
	var y0 = parseFloat(vbox[1]);
	var vboxW = parseFloat(vbox[2]);
	var vboxH = parseFloat(vbox[3]);

	// get default width of svg

	var strW = root.getAttribute("width");
	var svgW = parseFloat(strW);
	if(strW.indexOf('mm') != -1)
	svgW *= 3.779;

	var strH = root.getAttribute("height");
	var svgH = parseFloat(strH);
	if(strH.indexOf('mm') != -1)
	svgH *= 3.779;  	// 96 dpi  -> 96/25.4 = 3.779

	// update the viewbox / width / height if svg is embedded in html with zoom fit all
	var realx0 = x0;
	var realy0 = y0;
	var realvboxW = vboxW;
	var realvboxH = vboxH;
	var realsvgW = svgW;
	var realsvgH = svgH;

	if ((typeof(top) == "undefined") || (typeof(top.svgctl1) != "undefined")) // embedded in html
	{
		// get window size in pxl

		svgW = window.innerWidth;
		svgH = window.innerHeight;

		// calculate real viewbox

		realsvgW = svgW;
		realsvgH = svgH;
		if((svgW / svgH) > (vboxW / vboxH))
		{
			realvboxW = (vboxH * svgW) / svgH;
			realvboxH = vboxH;
			realx0 = x0 - (realvboxW - vboxW)/2 ;
		}
		else
		{
			realvboxH = (vboxW * svgH) / svgW;
			realvboxW = vboxW;
			realy0 = y0 - (realvboxH - vboxH)/2 ;
		}
	}

	// get user zoom/pan

	var newScale = root.currentScale;
	var translation = root.currentTranslate;

	// transform pxl to user unit

	var xPos = (((evt.clientX+10- translation.x)/newScale) * realvboxW)/realsvgW  + realx0 ;
	var yPos = (((evt.clientY+5- translation.y)/newScale) * realvboxH)/ realsvgH  + realy0 ;
	var scaleForWidth = ( (1 / newScale) * realvboxH) / realsvgH;

	// move tooltip

	toolTip.setAttribute("transform", "translate(" + xPos + "," + yPos + ")" );

	// resize tooltip

	var fontsize = 12;
	tiptext.setAttribute("font-size",fontsize*scaleForWidth);
	tiptext.setAttribute("y", fontsize*scaleForWidth);
	var tipBG = svgDocument.getElementById('ToolTipBG');
	var outline = tiptext.getBBox();
	if(tipBG)
	{
		tipBG.setAttribute("stroke-width", 1*scaleForWidth);
		tipBG.setAttribute("width", Number(outline.width) );
		tipBG.setAttribute("height", Number(outline.height) + fontsize*.5*scaleForWidth );
	}
	var ToolTipShadow = svgDocument.getElementById('ToolTipShadow');
	if(ToolTipShadow)
	{
		ToolTipShadow.setAttribute("width", Number(outline.width) );
		ToolTipShadow.setAttribute("height", Number(outline.height) + fontsize*.5*scaleForWidth );
		ToolTipShadow.setAttribute("x", 3*scaleForWidth);
		ToolTipShadow.setAttribute("y", 3*scaleForWidth);
	}
}
function ShowPaper()
{
  var svgDocument = getDocument();
  var paper = svgDocument.getElementById("paperID");
  if(paper)
  {
    paper.setAttribute("transform","scale(1)");
    paper.setAttribute("opacity","1");
    paper.setAttribute("visibility","visible");
  }
  var svg = svgDocument.getRootElement();
  if(svg)
  {
    svg.setAttribute("width","220.000mm");
    svg.setAttribute("height","160.000mm");
    svg.setAttribute("viewBox","-5.000000 -5.000000 220.000000 160.000000");
  }
}
]]></script><defs/><g><path style="fill:#ffffff" d="M209.95,149.95L0.03,149.95L0.03,0.03L209.95,0.03z"/><path style="fill:#2ac7ce" d="M62.31,36.12L63.16,36.23L63.20,54.92L65.23,56.05L65.29,58.24L65.24,58.68L64.10,59.38L63.71,59.21L63.31,59.21L62.77,59.49L62.67,60.23L60.75,61.33L60.06,61.33L55.62,58.75L55.50,58.27L55.36,58.25L55.15,58.43L55.16,70.78L53.63,69.99L53.12,69.99L51.17,71.09L51.17,71.75L52.92,72.81L53.83,72.81L55.17,72.07L55.15,77.96L55.51,78.31L56.45,78.90L56.64,78.92L57.00,78.65L57.14,78.65L57.26,79.37L57.85,79.71L58.30,79.75L58.41,79.60L58.66,79.59L58.75,80.23L60.07,80.90L60.86,80.90L63.47,79.41L63.49,78.98L63.49,77.81L63.49,63.97L63.59,62.53L63.82,61.83L64.37,61.22L64.59,61.04L65.62,60.67L66.17,60.73L67.22,61.22L67.65,61.22L68.70,60.74L69.45,60.74L69.92,60.85L70.75,61.43L71.21,62.14L71.32,62.85L71.39,80.39L71.42,81.05L71.54,81.13L71.42,81.24L71.41,82.47L71.55,82.47L71.67,81.87L72.02,81.63L72.02,80.54L71.59,80.36L71.67,78.59L72.02,78.35L72.14,57.49L72.44,56.74L73.20,56.09L73.86,55.81L74.84,55.81L76.01,56.40L76.60,56.98L76.68,79.51L76.82,79.61L76.83,83.75L76.72,83.87L76.59,85.73L72.92,87.82L72.62,87.81L71.67,87.20L71.52,87.21L71.45,88.68L67.66,90.86L67.11,90.85L63.47,88.74L63.36,87.10L62.64,87.00L49.30,79.23L49.19,79.14L48.24,79.65L47.89,79.73L44.10,77.53L44.02,75.74L43.99,71.53L44.13,71.43L44.26,48.83L44.56,48.43L45.97,47.72L47.07,47.73L47.54,47.96L48.35,48.56L48.71,49.61L48.82,70.00L49.18,70.46L49.21,72.27L48.79,72.46L48.79,73.55L49.18,73.74L49.25,75.20L49.73,75.16L51.60,74.10L51.64,73.50L51.05,73.04L49.88,72.33L49.33,72.27L49.53,48.35L49.88,46.95L50.53,45.73L51.63,44.48L53.12,43.51L53.63,43.51L55.15,44.45L56.22,45.73L57.02,47.38L57.26,48.44L57.38,55.05L57.61,54.92L57.61,35.19L55.58,34.06L55.54,32.25z"/><path style="fill:#2ac7ce" d="M135.34,78.30L135.42,96.59L137.06,97.53L137.54,97.88L137.59,99.95L137.54,100.39L136.38,101.12L135.88,100.92L135.62,100.92L134.95,101.32L134.85,101.95L133.03,103.03L132.37,103.04L127.80,100.46L127.70,100.00L127.42,100.11L127.35,112.49L125.93,111.70L125.33,111.74L123.47,112.80L123.47,113.47L123.59,113.58L125.11,114.52L126.13,114.53L127.35,113.89L127.44,119.69L127.58,119.90L128.74,120.63L128.93,120.62L129.18,120.36L129.32,120.37L129.40,121.01L130.14,121.45L130.56,121.43L130.70,121.30L130.96,121.31L131.05,121.94L132.36,122.62L133.16,122.62L135.74,121.09L135.79,120.82L135.79,119.52L135.79,105.69L135.88,103.89L136.31,103.26L136.75,102.86L137.60,102.46L137.91,102.39L138.47,102.45L139.41,102.91L139.94,102.91L141.00,102.45L141.75,102.45L142.10,102.57L143.04,103.15L143.51,103.97L143.62,104.80L143.69,122.10L143.72,124.25L143.85,125.00L143.97,123.58L144.32,123.35L144.34,122.36L143.88,122.08L143.93,120.26L144.32,120.07L144.44,98.97L144.87,98.23L145.81,97.65L146.16,97.53L147.03,97.53L148.07,98.00L148.78,98.58L148.86,121.24L149.14,121.42L149.13,125.46L149.02,125.59L148.86,127.41L145.22,129.53L144.91,129.54L143.86,128.92L143.73,130.38L139.96,132.57L139.39,132.58L135.62,130.38L135.54,128.81L134.94,128.71L121.47,120.96L121.20,120.96L120.38,121.45L120.08,121.44L116.44,119.33L116.31,117.46L116.17,117.36L116.21,113.28L116.43,113.15L116.54,90.53L116.87,90.15L118.27,89.44L119.25,89.44L119.60,89.56L120.43,90.14L120.90,90.85L121.01,91.56L121.11,111.84L121.25,112.06L121.48,112.22L121.56,110.20L121.70,110.10L121.82,89.83L122.26,88.39L123.36,86.68L124.37,85.81L125.18,85.34L126.17,85.34L127.22,86.05L127.81,86.62L128.64,87.68L129.21,88.86L129.56,90.50L129.68,96.76L129.92,96.52L129.92,77.01L127.80,75.74L127.75,73.94L127.92,73.97z"/><path style="fill:#8aa7bf" d="M57.98,23.46L57.97,24.81L57.75,25.17L55.81,26.29L56.30,26.30L59.80,24.29L60.42,24.17L68.64,28.97L68.63,30.55L68.53,30.68L66.11,32.14L66.49,32.16L69.41,30.51L70.03,30.38L70.51,30.73L70.50,32.18L63.82,36.05L63.16,36.23L62.31,36.12L55.54,32.25L52.81,30.62L50.35,29.22L50.35,27.15L57.22,23.11L57.38,23.11z"/><path style="fill:#8aa7bf" d="M132.27,66.35L132.26,67.81L132.16,67.94L130.21,69.17L130.58,69.18L134.09,67.18L134.62,67.07L142.93,71.86L142.93,73.44L142.76,73.62L140.45,74.96L140.45,75.16L140.64,75.15L143.70,73.39L144.32,73.27L144.81,73.62L144.79,75.07L137.96,79.02L136.60,79.01L135.34,78.30L127.92,73.97L127.75,73.94L124.64,72.10L124.64,70.03L131.62,66.01z"/><path style="fill:#1497e5" d="M55.62,58.75L60.06,61.33L60.75,61.33L62.67,60.23L62.67,60.55L62.19,60.90L61.71,61.59L61.72,62.38L61.96,62.60L62.03,63.12L63.49,63.97L63.49,77.81L63.35,78.11L63.36,78.90L63.49,78.98L63.47,79.41L60.86,80.90L60.07,80.90L58.75,80.23L58.66,79.59L58.41,79.60L58.30,79.75L57.85,79.71L57.26,79.37L57.14,78.65L57.00,78.65L56.64,78.92L56.45,78.90L55.51,78.31L55.15,77.96L55.17,72.07L55.16,70.78L55.15,58.43L55.36,58.25L55.50,58.27z"/><path style="fill:#1497e5" d="M127.80,100.46L132.37,103.04L133.03,103.03L134.85,101.95L134.83,102.37L134.68,102.46L134.00,103.19L133.98,104.13L134.26,104.32L134.36,104.91L135.79,105.69L135.79,119.52L135.65,119.70L135.66,120.74L135.79,120.82L135.74,121.09L133.16,122.62L132.36,122.62L131.05,121.94L130.96,121.31L130.70,121.30L130.56,121.43L130.14,121.45L129.40,121.01L129.32,120.37L129.18,120.36L128.93,120.62L128.74,120.63L127.58,119.90L127.44,119.69L127.35,113.89L127.35,112.49L127.42,100.11L127.70,100.00z"/><path style="fill:#01ff02" d="M60.06,27.85L60.67,27.82L60.67,28.08L60.06,28.04z"/><path style="fill:#01ff02" d="M64.66,30.14L64.62,30.27L63.93,30.27L63.93,30.08L64.55,30.03z"/><path style="fill:#01ff02" d="M56.19,30.08L56.81,30.04L56.81,30.30L56.19,30.27z"/><path style="fill:#01ff02" d="M60.79,32.37L60.75,32.50L60.06,32.50L60.06,32.30L60.68,32.26z"/><path style="fill:#01ff02" d="M132.99,69.64L132.97,69.79L132.32,69.79L132.36,69.57L132.86,69.51z"/><path style="fill:#01ff02" d="M136.86,71.87L136.84,72.02L136.19,72.02L136.22,71.79L136.72,71.74z"/><path style="fill:#01ff02" d="M129.12,71.87L129.10,72.02L128.45,72.02L128.49,71.79L128.99,71.74z"/><path style="fill:#01ff02" d="M132.99,74.10L132.97,74.25L132.32,74.25L132.36,74.02L132.86,73.96z"/><path style="fill:#9daff7" d="M55.16,70.78L55.17,72.07L53.83,72.81L52.92,72.81L51.17,71.75L51.17,71.09L53.12,69.99L53.63,69.99z"/><path style="fill:#9daff7" d="M51.05,73.04L51.64,73.50L51.60,74.10L49.73,75.16L49.25,75.20L49.18,73.74L48.79,73.55L48.79,72.46L49.21,72.27L49.33,72.27L49.88,72.33z"/><path style="fill:#9daff7" d="M72.02,80.54L72.02,81.63L71.67,81.87L71.55,82.47L71.41,82.47L71.42,81.24L71.54,81.13L71.42,81.05L71.39,80.39L71.59,80.36z"/><path style="fill:#9daff7" d="M127.35,112.49L127.35,113.89L126.13,114.53L125.11,114.52L123.59,113.58L123.47,113.47L123.47,112.80L125.33,111.74L125.93,111.70z"/><path style="fill:#9daff7" d="M123.83,115.10L123.81,115.85L122.03,116.87L121.55,116.91L121.49,115.57L121.12,115.34L121.09,114.17L121.31,114.05L122.07,114.05z"/><path style="fill:#9daff7" d="M144.34,122.36L144.32,123.35L143.97,123.58L143.85,125.00L143.72,124.25L143.69,122.10L143.88,122.08z"/><path style="fill:#515151" d="M64.10,59.38L64.30,59.56L64.40,60.63L64.59,61.04L64.37,61.22L63.82,61.83L63.59,62.53L63.49,63.97L62.03,63.12L61.96,62.60L61.72,62.38L61.71,61.59L62.19,60.90L62.67,60.55L62.67,60.23L62.77,59.49L63.31,59.21L63.71,59.21z"/><path style="fill:#515151" d="M63.35,78.11L63.49,77.81L63.49,78.98L63.36,78.90z"/><path style="fill:#515151" d="M136.38,101.12L136.60,101.39L136.75,102.86L136.31,103.26L135.88,103.89L135.79,105.69L134.36,104.91L134.26,104.32L133.98,104.13L134.00,103.19L134.68,102.46L134.83,102.37L134.85,101.95L134.95,101.32L135.62,100.92L135.88,100.92z"/><path style="fill:#515151" d="M135.65,119.70L135.79,119.52L135.79,120.82L135.66,120.74z"/><path style="fill:#1497e5" d="M65.59,58.50L65.62,60.67L64.59,61.04L64.40,60.63L64.30,59.56L64.10,59.38L65.24,58.68L65.29,58.24z"/><path style="fill:#1497e5" d="M137.89,100.34L137.91,102.39L137.60,102.46L136.75,102.86L136.60,101.39L136.38,101.12L137.54,100.39L137.59,99.95z"/><path style="stroke:#000000;stroke-width:0.088" d="M121.48,116.50L121.57,116.52L121.79,116.52L122.01,116.48L122.19,116.40L122.19,116.75L122.01,116.83L121.79,116.87L121.57,116.87L121.48,116.85"/><path style="stroke:#000000;stroke-width:0.088" d="M121.48,116.10L121.49,116.11L121.60,116.13L121.62,116.13L121.72,116.14L121.83,116.12L121.93,116.08L122.00,116.03L122.04,115.96L122.03,115.89L121.99,115.83L121.94,115.78L121.92,115.78L121.82,115.74L121.70,115.72L121.59,115.73L121.48,115.76"/><path style="stroke:#000000;stroke-width:0.088" d="M121.49,116.11L121.59,116.08L121.70,116.08L121.73,116.08L121.82,116.09L121.86,116.11"/><path style="stroke:#000000;stroke-width:0.088" d="M121.86,114.70L121.82,114.68L121.70,114.67L121.59,114.67L121.49,114.70"/><path style="stroke:#000000;stroke-width:0.088" d="M121.60,114.72L121.49,114.70L121.40,114.65L121.34,114.59L121.34,114.57L121.32,114.53L121.34,114.46L121.39,114.40L121.48,114.35L121.59,114.32L121.70,114.31L121.82,114.33L121.92,114.37L121.94,114.37L121.99,114.42L122.03,114.48L122.04,114.55L122.00,114.62L121.93,114.67L121.83,114.71L121.72,114.73L121.62,114.72L121.60,114.72"/><path style="stroke:#000000;stroke-width:0.088" d="M121.02,114.14L121.17,114.05L121.35,113.97L121.57,113.93L121.79,113.93L122.01,113.97L122.19,114.05L123.72,114.93L123.85,115.04L123.92,115.16L123.92,115.29L123.85,115.41L123.72,115.52L122.19,116.40"/><path style="stroke:#000000;stroke-width:0.088" d="M122.19,116.75L123.72,115.87L123.85,115.77L123.92,115.64L123.92,115.33L123.92,115.63"/><path style="stroke:#000000;stroke-width:0.088" d="M123.72,115.52L123.72,115.87"/><path style="stroke:#000000;stroke-width:0.088" d="M123.92,115.51L123.92,115.34"/><path style="stroke:#000000;stroke-width:0.088" d="M123.92,115.29L123.92,115.33L123.92,115.16"/><path style="stroke:#000000;stroke-width:0.088" d="M143.77,124.63L143.78,124.63L143.87,124.61"/><path style="stroke:#000000;stroke-width:0.088" d="M143.87,124.96L143.78,124.98L143.77,124.98"/><path style="stroke:#000000;stroke-width:0.088" d="M143.85,124.22L143.80,124.20L143.69,124.19L143.62,124.19"/><path style="stroke:#000000;stroke-width:0.088" d="M143.61,123.84L143.69,123.83L143.80,123.85L143.87,123.87"/><path style="stroke:#000000;stroke-width:0.088" d="M143.65,124.25L143.70,124.25L143.82,124.23L143.87,124.21"/><path style="stroke:#000000;stroke-width:0.088" d="M143.85,122.81L143.80,122.79L143.69,122.78L143.61,122.78"/><path style="stroke:#000000;stroke-width:0.088" d="M144.33,122.25L144.18,122.16L143.99,122.08L143.78,122.04L143.61,122.04"/><path style="stroke:#000000;stroke-width:0.088" d="M143.62,122.83L143.70,122.84L143.82,122.82L143.92,122.78L143.99,122.73L144.02,122.66L144.02,122.59L143.98,122.53L143.92,122.48L143.90,122.48L143.80,122.44L143.69,122.42L143.61,122.43"/><path style="stroke:#000000;stroke-width:0.088" d="M123.41,113.35L123.41,113.00L123.45,113.07L123.48,113.12L123.61,113.23L123.61,113.58"/><path style="stroke:#000000;stroke-width:0.088" d="M123.61,113.23L125.14,114.11L125.32,114.19L125.54,114.23L125.76,114.23L125.98,114.19L126.16,114.11L126.16,114.46"/><path style="stroke:#000000;stroke-width:0.088" d="M123.41,113.00L123.41,112.87L123.41,112.89"/><path style="stroke:#000000;stroke-width:0.088" d="M127.43,112.49L126.16,111.76L126.15,111.76L125.98,111.68L125.76,111.64L125.54,111.64L125.32,111.68L125.14,111.76L123.61,112.64L123.48,112.75L123.41,112.87L123.41,112.90"/><path style="stroke:#000000;stroke-width:0.088" d="M124.24,113.11L124.25,113.11L124.36,113.08L124.48,113.08L124.59,113.10L124.61,113.11"/><path style="stroke:#000000;stroke-width:0.088" d="M124.21,113.10L124.32,113.13L124.44,113.14L124.55,113.13L124.66,113.10L124.73,113.05L124.78,112.98L124.79,112.91L124.76,112.85L124.69,112.79L124.59,112.75L124.48,112.73L124.36,112.73L124.25,112.75L124.17,112.79L124.16,112.80L124.10,112.86L124.07,112.92L124.08,112.99L124.13,113.05L124.21,113.10"/><path style="stroke:#000000;stroke-width:0.088" d="M125.14,114.11L125.14,114.46"/><path style="stroke:#000000;stroke-width:0.088" d="M126.16,114.11L127.43,113.38"/><path style="stroke:#000000;stroke-width:0.088" d="M126.69,113.11L126.69,113.11L126.81,113.08L126.92,113.08L127.04,113.10L127.06,113.11"/><path style="stroke:#000000;stroke-width:0.088" d="M126.60,113.07L126.66,113.10L126.76,113.13L126.88,113.14L127.00,113.13L127.10,113.10L127.18,113.05L127.22,112.98L127.23,112.91L127.20,112.85L127.13,112.79L127.04,112.75L126.92,112.73L126.81,112.73L126.69,112.75L126.62,112.79L126.60,112.80L126.54,112.86L126.51,112.92L126.53,112.99L126.58,113.05L126.60,113.07"/><path style="stroke:#000000;stroke-width:0.088" d="M55.13,77.78L55.13,77.81L55.13,76.13L55.13,77.78"/><path style="stroke:#000000;stroke-width:0.088" d="M55.13,77.81L55.34,78.12L55.70,78.39L55.70,76.63L56.54,77.12L56.54,78.88L56.58,78.89L56.61,78.89L56.78,78.79L56.78,78.39L56.78,78.79"/><path style="stroke:#000000;stroke-width:0.088" d="M55.13,76.04L55.13,76.13L55.13,76.02L55.13,76.04L55.34,76.36L55.70,76.63"/><path style="stroke:#000000;stroke-width:0.088" d="M55.16,75.97L55.14,75.99L55.13,76.02"/><path style="stroke:#000000;stroke-width:0.088" d="M55.13,60.18L55.13,59.55L55.13,60.18L55.34,60.49L55.70,60.77L55.70,59.00L55.34,58.73L55.13,58.42L55.13,59.55"/><path style="stroke:#000000;stroke-width:0.088" d="M55.13,58.79L55.13,58.39L55.14,58.36L55.17,58.34L55.52,58.14"/><path style="stroke:#000000;stroke-width:0.088" d="M55.13,58.42L55.13,58.39"/><path style="stroke:#000000;stroke-width:0.088" d="M55.70,78.39L56.54,78.88"/><path style="stroke:#000000;stroke-width:0.088" d="M55.17,60.23L55.17,76.05L55.38,76.36L55.72,76.62L56.57,77.10L56.60,77.11L56.62,77.11L56.65,77.10L56.62,77.12L56.62,78.88"/><path style="stroke:#000000;stroke-width:0.088" d="M55.72,76.62L55.72,60.78"/><path style="stroke:#000000;stroke-width:0.088" d="M55.17,76.05L55.16,76.03L55.16,60.23"/><path style="stroke:#000000;stroke-width:0.088" d="M55.70,60.77L56.54,61.25L56.57,61.26L56.61,61.26L56.62,61.25L56.62,59.49L56.59,59.50L56.57,59.50L56.54,59.49L55.70,59.00"/><path style="stroke:#000000;stroke-width:0.088" d="M56.15,59.00L56.13,58.99L55.89,58.89L55.70,58.74"/><path style="stroke:#000000;stroke-width:0.088" d="M55.93,58.91L55.77,58.79L55.77,58.78"/><path style="stroke:#000000;stroke-width:0.088" d="M56.62,77.12L56.59,77.13L56.58,77.13L56.54,77.12"/><path style="stroke:#000000;stroke-width:0.088" d="M56.65,77.10L56.65,61.24L56.62,61.25"/><path style="stroke:#000000;stroke-width:0.088" d="M56.57,77.10L56.57,61.26"/><path style="stroke:#000000;stroke-width:0.088" d="M56.54,61.25L56.54,59.49"/><path style="stroke:#000000;stroke-width:0.088" d="M56.62,59.49L56.77,59.41L56.77,78.80"/><path style="stroke:#000000;stroke-width:0.088" d="M57.17,79.25L57.16,79.23L57.16,77.46L57.16,77.48L57.17,77.48L57.17,79.25L58.09,79.78L58.11,79.78L58.14,79.78L58.17,79.78L58.32,79.69L58.33,79.68L58.33,79.15L58.33,79.68"/><path style="stroke:#000000;stroke-width:0.088" d="M57.16,78.60L57.09,78.56L57.08,78.56L57.04,78.56L56.78,78.71"/><path style="stroke:#000000;stroke-width:0.088" d="M57.11,78.57L57.11,59.55"/><path style="stroke:#000000;stroke-width:0.088" d="M57.03,78.57L57.03,59.50"/><path style="stroke:#000000;stroke-width:0.088" d="M56.78,78.39L56.78,59.55L56.78,60.30"/><path style="stroke:#000000;stroke-width:0.088" d="M57.20,61.63L57.20,77.47L58.12,78.00L58.13,78.00L58.17,78.01L58.20,78.00L58.17,78.01L58.17,79.78"/><path style="stroke:#000000;stroke-width:0.088" d="M57.17,77.48L58.09,78.01L58.09,79.78"/><path style="stroke:#000000;stroke-width:0.088" d="M57.16,77.46L57.16,77.45L57.16,77.45L57.18,77.43"/><path style="stroke:#000000;stroke-width:0.088" d="M57.20,77.47L57.18,77.45L57.18,76.89L57.18,77.45"/><path style="stroke:#000000;stroke-width:0.088" d="M57.18,76.89L57.18,61.62"/><path style="stroke:#000000;stroke-width:0.088" d="M57.16,61.61L57.17,61.62L57.17,59.85L57.16,59.84L57.16,61.60L57.16,61.61"/><path style="stroke:#000000;stroke-width:0.088" d="M57.17,61.62L58.09,62.15L58.09,60.38L57.17,59.85"/><path style="stroke:#000000;stroke-width:0.088" d="M57.16,59.84L57.16,59.83L57.17,59.81L57.33,59.72L57.35,59.72L57.40,59.74L57.42,59.74L57.43,59.74"/><path style="stroke:#000000;stroke-width:0.088" d="M56.78,59.55L56.78,59.40L56.77,59.41"/><path style="stroke:#000000;stroke-width:0.088" d="M56.78,59.40L56.78,59.39L56.74,59.36L56.73,59.35L56.74,59.34L56.74,59.36"/><path style="stroke:#000000;stroke-width:0.088" d="M58.09,78.01L58.12,78.02L58.14,78.02L58.17,78.01"/><path style="stroke:#000000;stroke-width:0.088" d="M58.12,78.00L58.12,62.15"/><path style="stroke:#000000;stroke-width:0.088" d="M58.20,78.00L58.20,62.13L58.17,62.15L58.14,62.16L58.10,62.15L58.09,62.15"/><path style="stroke:#000000;stroke-width:0.088" d="M58.09,60.38L58.12,60.39L58.14,60.39L58.17,60.38L58.17,62.15"/><path style="stroke:#000000;stroke-width:0.088" d="M58.71,78.36L58.71,78.37L58.72,78.38L59.57,78.86L60.04,79.07L60.58,79.19L60.58,80.95L60.04,80.83L59.63,80.65L59.57,80.63L58.71,80.13L58.71,80.12L58.71,78.35L58.71,78.34L58.73,78.32"/><path style="stroke:#000000;stroke-width:0.088" d="M58.72,80.14L58.72,78.38"/><path style="stroke:#000000;stroke-width:0.088" d="M58.33,79.60L58.59,79.45L58.61,79.45L58.64,79.45L58.71,79.49"/><path style="stroke:#000000;stroke-width:0.088" d="M58.65,60.45L58.66,79.46"/><path style="stroke:#000000;stroke-width:0.088" d="M58.57,79.46L58.57,60.40"/><path style="stroke:#000000;stroke-width:0.088" d="M58.32,79.69L58.32,60.30L58.17,60.38"/><path style="stroke:#000000;stroke-width:0.088" d="M59.59,63.01L59.59,78.85L58.75,78.36L58.74,78.35L58.73,78.34"/><path style="stroke:#000000;stroke-width:0.088" d="M58.33,79.15L58.33,70.46"/><path style="stroke:#000000;stroke-width:0.088" d="M58.75,78.36L58.75,62.53"/><path style="stroke:#000000;stroke-width:0.088" d="M58.73,78.34L58.73,68.59L58.73,68.82"/><path style="stroke:#000000;stroke-width:0.088" d="M58.33,70.86L58.33,60.29L58.32,60.30"/><path style="stroke:#000000;stroke-width:0.088" d="M58.73,68.59L58.73,62.52"/><path style="stroke:#000000;stroke-width:0.088" d="M62.02,62.55L60.72,63.30L60.68,63.32L60.63,63.33L60.58,63.33L60.03,63.20L59.57,63.00L58.72,62.51L58.71,62.50L58.71,62.49L58.70,60.73L58.72,60.75L58.72,62.51"/><path style="stroke:#000000;stroke-width:0.088" d="M58.70,60.73L58.71,60.71L58.72,60.70L58.88,60.61L58.90,60.61L58.95,60.64L58.97,60.64L58.98,60.63"/><path style="stroke:#000000;stroke-width:0.088" d="M58.72,60.75L59.57,61.24L59.57,63.00"/><path style="stroke:#000000;stroke-width:0.088" d="M58.33,60.29L58.32,60.28L58.29,60.26L58.29,60.23L58.28,60.24L58.28,60.25L58.29,60.26"/><path style="stroke:#000000;stroke-width:0.088" d="M59.57,80.63L59.57,78.86"/><path style="stroke:#000000;stroke-width:0.088" d="M59.59,78.85L60.05,79.05L60.56,79.17L60.61,79.17L60.66,79.17L60.70,79.15L63.51,77.53"/><path style="stroke:#000000;stroke-width:0.088" d="M60.58,63.33L60.58,61.56L60.03,61.44L59.57,61.24"/><path style="stroke:#000000;stroke-width:0.088" d="M60.58,80.95L60.63,80.96L60.68,80.95L60.72,80.93L63.51,79.32"/><path style="stroke:#000000;stroke-width:0.088" d="M60.72,80.93L60.72,79.17L60.68,79.19L60.63,79.19L60.58,79.19"/><path style="stroke:#000000;stroke-width:0.088" d="M60.70,79.15L60.70,63.31"/><path style="stroke:#000000;stroke-width:0.088" d="M60.56,79.17L60.56,63.32"/><path style="stroke:#000000;stroke-width:0.088" d="M60.72,79.17L63.51,77.56"/><path style="stroke:#000000;stroke-width:0.088" d="M60.72,63.30L60.72,61.54L60.68,61.56L60.63,61.56L60.58,61.56"/><path style="stroke:#000000;stroke-width:0.088" d="M62.65,60.43L60.72,61.54"/><path style="stroke:#000000;stroke-width:0.088" d="M65.29,58.17L65.47,58.30L65.68,58.62L65.68,58.65L65.67,58.67L65.64,58.70L64.27,59.49"/><path style="stroke:#000000;stroke-width:0.088" d="M64.85,58.92L64.75,58.97"/><path style="stroke:#000000;stroke-width:0.088" d="M65.05,58.77L64.91,58.89"/><path style="stroke:#000000;stroke-width:0.088" d="M65.08,58.75L65.01,58.84L64.79,58.96L64.68,58.99"/><path style="stroke:#000000;stroke-width:0.088" d="M65.68,58.65L65.68,60.41L65.67,60.44L65.64,60.46L65.11,60.77"/><path style="stroke:#000000;stroke-width:0.088" d="M65.61,60.64L65.61,60.48"/><path style="stroke:#000000;stroke-width:0.088" d="M65.65,60.64L65.65,60.46"/><path style="stroke:#000000;stroke-width:0.088" d="M65.64,60.46L65.64,58.70"/><path style="stroke:#000000;stroke-width:0.088" d="M50.61,29.30L50.28,29.10L50.28,27.69L62.49,34.75L62.49,36.16L50.61,29.30"/><path style="stroke:#000000;stroke-width:0.088" d="M50.28,29.06L50.28,29.10"/><path style="stroke:#000000;stroke-width:0.088" d="M62.49,34.75L63.51,34.75L70.59,30.66L69.96,30.30L69.26,30.48L66.21,32.25L64.78,31.43L68.40,29.34L68.72,28.94L60.34,24.10L59.64,24.28L56.03,26.37L54.60,25.55L57.66,23.79L57.98,23.38L57.35,23.02L50.28,27.11L50.28,27.75"/><path style="stroke:#000000;stroke-width:0.088" d="M52.85,27.46L52.76,27.42L52.70,27.36L52.67,27.30L52.68,27.23L52.73,27.17L52.81,27.12L52.92,27.08L53.03,27.07L53.15,27.09L53.25,27.12L53.33,27.17L53.38,27.23L53.39,27.30L53.35,27.37L53.29,27.43L53.19,27.47L53.08,27.49L52.96,27.49L52.85,27.46"/><path style="stroke:#000000;stroke-width:0.088" d="M55.16,30.51L56.23,29.90L56.32,29.86L56.46,29.83L56.60,29.83L56.73,29.85L56.85,29.90L56.93,29.97L56.97,30.05L56.96,30.13L56.90,30.21L56.81,30.27L56.68,30.31L56.55,30.32L56.41,30.31L56.28,30.28L56.18,30.22L56.12,30.14L56.11,30.06L56.14,29.98L56.22,29.91"/><path style="stroke:#000000;stroke-width:0.088" d="M55.83,26.25L57.66,25.20L57.66,23.79"/><path style="stroke:#000000;stroke-width:0.088" d="M56.80,30.27L56.84,30.24L56.89,30.18L56.89,30.11L56.86,30.05L56.80,29.99L56.70,29.95L56.59,29.93L56.47,29.93L56.36,29.95L56.27,30.00L56.20,30.05L56.18,30.12L56.19,30.19L56.24,30.25L56.28,30.28"/><path style="stroke:#000000;stroke-width:0.088" d="M56.54,29.72L56.23,29.90"/><path style="stroke:#000000;stroke-width:0.088" d="M57.66,25.20L57.98,24.79L57.98,23.38"/><path style="stroke:#000000;stroke-width:0.088" d="M59.03,32.75L60.40,31.96"/><path style="stroke:#000000;stroke-width:0.088" d="M60.08,32.14L60.01,32.21L59.97,32.29L59.99,32.37L60.05,32.45L60.15,32.51L60.11,32.48L60.06,32.42L60.04,32.35L60.07,32.29L60.13,32.23L60.23,32.19L60.34,32.16L60.46,32.16L60.57,32.18L60.66,32.22L60.73,32.28L60.76,32.35L60.76,32.41L60.71,32.48L60.67,32.50"/><path style="stroke:#000000;stroke-width:0.088" d="M60.15,32.51L60.27,32.55L60.41,32.56L60.55,32.54L60.68,32.50L60.77,32.44L60.83,32.36L60.83,32.28L60.80,32.20L60.72,32.14L60.60,32.09L60.47,32.06L60.32,32.06L60.19,32.09L60.10,32.13"/><path style="stroke:#000000;stroke-width:0.088" d="M60.27,28.08L60.41,28.09L60.55,28.08L60.68,28.04L60.77,27.97L60.83,27.90L60.83,27.82L60.80,27.74L60.72,27.67L60.60,27.62L60.47,27.60L60.32,27.60L60.19,27.63L60.10,27.67L60.08,27.68L60.01,27.75L59.97,27.83L59.99,27.91L60.05,27.98L60.15,28.04L60.27,28.08"/><path style="stroke:#000000;stroke-width:0.088" d="M60.67,28.04L60.71,28.01L60.76,27.95L60.76,27.88L60.73,27.81L60.66,27.76L60.57,27.72L60.46,27.69L60.34,27.70L60.23,27.72L60.13,27.76L60.07,27.82L60.05,27.89L60.06,27.96L60.11,28.02"/><path style="stroke:#000000;stroke-width:0.088" d="M62.49,36.16L63.51,36.16L70.59,32.07L70.59,30.66"/><path style="stroke:#000000;stroke-width:0.088" d="M62.95,33.31L63.03,33.34L63.14,33.36L63.26,33.36L63.37,33.34L63.47,33.30L63.53,33.25L63.56,33.18L63.56,33.11L63.51,33.05L63.43,33.00L63.33,32.96L63.21,32.95L63.10,32.96L62.99,32.99L62.91,33.04L62.86,33.10L62.85,33.17L62.87,33.24L62.94,33.30L62.95,33.31"/><path style="stroke:#000000;stroke-width:0.088" d="M63.51,36.16L63.51,34.75"/><path style="stroke:#000000;stroke-width:0.088" d="M64.14,30.31L64.02,30.28L63.92,30.22L63.86,30.14L63.84,30.06L63.87,29.98L63.95,29.91L63.97,29.90L64.06,29.86L64.19,29.83L64.34,29.83L64.47,29.85L64.58,29.90L64.66,29.97L64.70,30.05L64.69,30.13L64.64,30.21L64.54,30.27L64.42,30.31L64.28,30.32L64.14,30.31"/><path style="stroke:#000000;stroke-width:0.088" d="M64.53,30.27L64.58,30.24L64.62,30.18L64.63,30.11L64.60,30.05L64.53,29.99L64.44,29.95L64.32,29.93L64.21,29.93L64.09,29.95L64.00,30.00L63.94,30.05L63.91,30.12L63.93,30.19L63.98,30.25L64.02,30.28"/><path style="stroke:#000000;stroke-width:0.088" d="M66.00,32.13L68.40,30.75L68.72,30.35L68.72,28.94"/><path style="stroke:#000000;stroke-width:0.088" d="M68.40,30.75L68.40,29.34"/><path style="stroke:#000000;stroke-width:0.088" d="M63.36,85.20L49.21,77.03"/><path style="stroke:#000000;stroke-width:0.088" d="M63.36,83.43L49.21,75.26"/><path style="stroke:#000000;stroke-width:0.088" d="M49.59,72.22L51.15,71.33"/><path style="stroke:#000000;stroke-width:0.088" d="M71.60,85.14L71.50,85.20"/><path style="stroke:#000000;stroke-width:0.088" d="M71.60,83.37L71.50,83.43"/><path style="stroke:#000000;stroke-width:0.088" d="M63.36,86.31L63.27,86.32L63.04,86.32L62.83,86.28L62.65,86.21L62.65,86.91L49.31,79.21L49.31,78.51L49.18,78.40L49.17,78.39L49.11,78.28L49.11,78.15L49.18,78.03L49.31,77.92L50.03,77.50"/><path style="stroke:#000000;stroke-width:0.088" d="M49.31,79.21L49.18,79.11L49.11,78.98L49.11,78.28"/><path style="stroke:#000000;stroke-width:0.088" d="M49.31,78.51L62.65,86.21"/><path style="stroke:#000000;stroke-width:0.088" d="M62.65,86.91L62.83,86.99L63.04,87.03L63.27,87.03L63.36,87.01"/><path style="stroke:#000000;stroke-width:0.088" d="M60.20,61.34L60.61,61.34L60.61,58.99L60.20,58.99L60.20,61.34L55.52,58.63L55.52,58.04L55.52,58.63"/><path style="stroke:#000000;stroke-width:0.088" d="M55.52,58.04L55.52,56.05L57.68,54.80"/><path style="stroke:#000000;stroke-width:0.088" d="M55.52,56.53L55.52,56.05"/><path style="stroke:#000000;stroke-width:0.088" d="M55.52,57.29L55.52,56.89"/><path style="stroke:#000000;stroke-width:0.088" d="M55.52,56.28L60.20,58.99"/><path style="stroke:#000000;stroke-width:0.088" d="M60.20,34.83L60.20,36.66L55.52,33.95L55.52,33.17L55.52,33.85"/><path style="stroke:#000000;stroke-width:0.088" d="M55.52,32.13L55.52,33.21"/><path style="stroke:#000000;stroke-width:0.088" d="M56.55,56.42L56.68,56.40L56.81,56.36L56.90,56.30L56.96,56.22L56.97,56.14L56.93,56.06L56.85,55.99L56.73,55.94L56.60,55.92L56.46,55.92L56.32,55.95L56.23,55.99L56.21,56.00L56.14,56.07L56.11,56.15L56.12,56.23L56.18,56.31L56.28,56.37L56.40,56.40L56.55,56.42"/><path style="stroke:#000000;stroke-width:0.088" d="M57.68,55.42L57.64,55.46L57.43,55.86L57.39,56.28L57.52,56.69L57.82,57.07L58.27,57.40L58.85,57.66L59.52,57.83L60.23,57.91L60.96,57.88L61.66,57.75L62.28,57.54L62.79,57.24L63.17,56.88L63.38,56.47L63.42,56.05L63.29,55.64L63.13,55.45"/><path style="stroke:#000000;stroke-width:0.088" d="M57.70,39.86L57.70,39.20L57.67,56.03L57.80,56.41L58.07,56.75L58.47,57.05L59.00,57.29L59.60,57.44L60.25,57.51L60.91,57.48L61.54,57.37L61.94,57.23L62.10,57.17L62.56,56.90L62.90,56.57L63.10,56.21L63.13,55.83L63.14,55.89"/><path style="stroke:#000000;stroke-width:0.088" d="M57.70,39.20L57.71,35.22"/><path style="stroke:#000000;stroke-width:0.088" d="M57.70,38.44L57.70,35.21"/><path style="stroke:#000000;stroke-width:0.088" d="M60.27,58.64L60.15,58.60L60.05,58.54L59.99,58.47L59.97,58.38L60.01,58.30L60.08,58.23L60.19,58.18L60.32,58.15L60.47,58.15L60.60,58.18L60.72,58.23L60.80,58.29L60.83,58.37L60.83,58.46L60.77,58.53L60.68,58.59L60.55,58.63L60.41,58.65L60.27,58.64"/><path style="stroke:#000000;stroke-width:0.088" d="M60.20,36.66L60.61,36.66L61.98,35.86"/><path style="stroke:#000000;stroke-width:0.088" d="M60.61,61.34L62.65,60.16"/><path style="stroke:#000000;stroke-width:0.088" d="M60.61,58.99L65.29,56.28L65.29,56.05L63.13,54.80"/><path style="stroke:#000000;stroke-width:0.088" d="M60.61,36.66L60.61,35.07"/><path style="stroke:#000000;stroke-width:0.088" d="M63.13,55.83L63.13,52.01L63.13,55.90"/><path style="stroke:#000000;stroke-width:0.088" d="M63.13,52.01L63.14,36.16"/><path style="stroke:#000000;stroke-width:0.088" d="M63.13,51.26L63.13,50.66"/><path style="stroke:#000000;stroke-width:0.088" d="M64.07,59.34L65.29,58.63L65.29,58.04L65.29,58.43"/><path style="stroke:#000000;stroke-width:0.088" d="M64.21,55.92L64.06,55.95L63.97,55.99L63.95,56.00L63.87,56.07L63.84,56.15L63.86,56.23L63.92,56.31L64.01,56.37L64.14,56.40L64.28,56.42L64.42,56.40L64.54,56.36L64.64,56.30L64.69,56.22L64.70,56.14L64.66,56.06L64.58,55.99L64.47,55.94L64.34,55.92L64.21,55.92"/><path style="stroke:#000000;stroke-width:0.088" d="M65.29,58.04L65.29,56.53L65.29,57.13"/><path style="stroke:#000000;stroke-width:0.088" d="M65.29,56.05L65.29,56.53L65.29,56.28"/><path style="stroke:#000000;stroke-width:0.088" d="M129.04,120.52L129.05,120.51L129.05,101.12L129.04,101.13L129.04,120.52L128.88,120.61L128.84,120.62L128.81,120.61L127.97,120.12L127.61,119.85L127.40,119.53L127.40,119.10L127.40,119.53"/><path style="stroke:#000000;stroke-width:0.088" d="M127.40,119.10L127.40,117.77L127.61,118.09L127.97,118.36L127.97,120.12"/><path style="stroke:#000000;stroke-width:0.088" d="M127.43,101.95L127.43,117.75L127.43,117.78L127.43,101.96"/><path style="stroke:#000000;stroke-width:0.088" d="M127.43,117.78L127.65,118.08L127.99,118.34L128.84,118.83L128.87,118.84L128.90,118.84L128.92,118.83L128.89,118.84L128.89,120.61"/><path style="stroke:#000000;stroke-width:0.088" d="M127.40,118.34L127.40,117.74L127.40,117.77"/><path style="stroke:#000000;stroke-width:0.088" d="M127.43,117.70L127.41,117.72L127.40,117.74"/><path style="stroke:#000000;stroke-width:0.088" d="M128.92,118.83L128.92,102.96L128.88,102.98L128.86,102.99L128.84,102.99L128.81,102.98L127.97,102.49L127.61,102.22L127.40,101.90L127.40,101.88L127.40,100.11L127.41,100.09L127.44,100.06L127.79,99.86"/><path style="stroke:#000000;stroke-width:0.088" d="M127.40,101.90L127.40,100.14L127.40,100.11"/><path style="stroke:#000000;stroke-width:0.088" d="M127.97,102.49L127.97,100.73L127.61,100.46L127.40,100.14"/><path style="stroke:#000000;stroke-width:0.088" d="M127.97,118.36L128.81,118.84L128.81,120.61"/><path style="stroke:#000000;stroke-width:0.088" d="M127.99,118.34L127.99,102.51"/><path style="stroke:#000000;stroke-width:0.088" d="M127.97,100.73L128.81,101.22L128.81,102.98"/><path style="stroke:#000000;stroke-width:0.088" d="M128.42,100.72L128.39,100.72L128.15,100.62L127.97,100.47"/><path style="stroke:#000000;stroke-width:0.088" d="M128.03,100.50L128.04,100.51L128.20,100.64"/><path style="stroke:#000000;stroke-width:0.088" d="M129.43,120.32L129.36,120.29L129.34,120.28L129.31,120.29L129.05,120.43"/><path style="stroke:#000000;stroke-width:0.088" d="M129.05,120.51L129.05,119.85"/><path style="stroke:#000000;stroke-width:0.088" d="M128.89,118.84L128.86,118.85L128.84,118.85L128.81,118.84"/><path style="stroke:#000000;stroke-width:0.088" d="M128.84,118.83L128.84,102.99"/><path style="stroke:#000000;stroke-width:0.088" d="M128.89,102.98L128.89,101.22L129.04,101.13"/><path style="stroke:#000000;stroke-width:0.088" d="M129.05,101.12L129.05,101.12L129.04,101.11L129.01,101.09L129.01,101.07L129.00,101.07L129.00,101.08L129.01,101.09"/><path style="stroke:#000000;stroke-width:0.088" d="M128.89,101.22L128.86,101.23L128.84,101.22L128.81,101.22"/><path style="stroke:#000000;stroke-width:0.088" d="M129.43,120.17L129.43,120.95L129.43,120.96L129.44,120.97L129.44,119.21L129.43,119.19L129.43,120.95"/><path style="stroke:#000000;stroke-width:0.088" d="M129.44,120.97L130.37,121.51L130.41,121.51L130.44,121.50L130.59,121.42L130.60,121.41L130.60,121.36L130.60,121.41"/><path style="stroke:#000000;stroke-width:0.088" d="M129.43,120.60L129.43,120.45"/><path style="stroke:#000000;stroke-width:0.088" d="M129.38,120.29L129.38,101.28"/><path style="stroke:#000000;stroke-width:0.088" d="M129.29,120.29L129.29,101.23"/><path style="stroke:#000000;stroke-width:0.088" d="M129.47,103.36L129.47,119.19L129.45,119.18L129.45,103.35"/><path style="stroke:#000000;stroke-width:0.088" d="M129.44,119.21L130.36,119.74L130.36,121.50"/><path style="stroke:#000000;stroke-width:0.088" d="M129.43,119.19L129.43,119.17L129.45,119.16"/><path style="stroke:#000000;stroke-width:0.088" d="M129.47,119.19L130.38,119.72L130.41,119.73L130.43,119.73L130.47,119.72L130.44,119.74L130.44,121.50"/><path style="stroke:#000000;stroke-width:0.088" d="M129.44,103.34L129.43,103.32L129.43,101.56L129.44,101.58L129.44,103.34L130.36,103.87L130.36,102.11L129.44,101.58"/><path style="stroke:#000000;stroke-width:0.088" d="M129.43,101.56L129.42,101.55L129.43,101.54L129.59,101.45L129.60,101.44L129.62,101.44L129.68,101.47L129.70,101.46"/><path style="stroke:#000000;stroke-width:0.088" d="M130.59,121.42L130.59,102.02L130.44,102.11L130.44,103.87L130.41,103.88L130.39,103.88L130.36,103.87"/><path style="stroke:#000000;stroke-width:0.088" d="M130.92,102.17L130.92,121.19L130.89,121.18L130.86,121.18L130.59,121.33"/><path style="stroke:#000000;stroke-width:0.088" d="M130.60,121.36L130.59,112.19"/><path style="stroke:#000000;stroke-width:0.088" d="M130.47,119.72L130.46,103.86L130.44,103.87"/><path style="stroke:#000000;stroke-width:0.088" d="M130.36,119.74L130.39,119.75L130.41,119.75L130.44,119.74"/><path style="stroke:#000000;stroke-width:0.088" d="M130.38,119.72L130.38,103.88"/><path style="stroke:#000000;stroke-width:0.088" d="M130.59,112.31L130.59,102.01L130.59,102.02"/><path style="stroke:#000000;stroke-width:0.088" d="M130.44,102.11L130.41,102.12L130.39,102.12L130.36,102.11"/><path style="stroke:#000000;stroke-width:0.088" d="M130.59,102.01L130.59,102.01L130.59,102.00L130.56,101.98L130.56,101.96L130.55,101.97L130.55,101.97L130.56,101.98"/><path style="stroke:#000000;stroke-width:0.088" d="M135.78,121.04L132.98,122.66L132.94,122.67L132.90,122.68L132.85,122.68L132.85,120.92L132.30,120.79L131.83,120.59L131.83,122.35L130.99,121.86L130.99,120.10L130.97,120.08L130.98,120.06L131.00,120.05"/><path style="stroke:#000000;stroke-width:0.088" d="M130.99,121.86L130.97,121.85L130.97,120.08"/><path style="stroke:#000000;stroke-width:0.088" d="M130.92,121.19L130.97,121.21"/><path style="stroke:#000000;stroke-width:0.088" d="M130.84,121.19L130.84,102.12"/><path style="stroke:#000000;stroke-width:0.088" d="M135.78,119.25L132.97,120.87L132.93,120.89L132.88,120.90L132.83,120.90L132.31,120.77L131.86,120.57L131.01,120.09L131.00,120.08L131.00,120.07"/><path style="stroke:#000000;stroke-width:0.088" d="M131.01,120.09L131.01,104.25"/><path style="stroke:#000000;stroke-width:0.088" d="M130.99,120.10L131.83,120.59"/><path style="stroke:#000000;stroke-width:0.088" d="M131.00,120.07L131.00,104.24"/><path style="stroke:#000000;stroke-width:0.088" d="M130.97,104.22L130.97,102.45L130.99,102.47L130.99,104.24L130.97,104.22"/><path style="stroke:#000000;stroke-width:0.088" d="M130.99,104.24L131.83,104.72L132.30,104.93L132.85,105.05L132.90,105.05L132.94,105.04L132.98,105.03L132.98,103.27L132.94,103.28L132.90,103.29L132.85,103.29L132.85,105.05"/><path style="stroke:#000000;stroke-width:0.088" d="M131.83,104.72L131.83,102.96L130.99,102.47"/><path style="stroke:#000000;stroke-width:0.088" d="M131.25,102.36L131.22,102.36L131.17,102.34L131.14,102.34L130.99,102.43L130.97,102.44L130.97,102.45"/><path style="stroke:#000000;stroke-width:0.088" d="M131.83,122.35L132.30,122.56L132.85,122.68"/><path style="stroke:#000000;stroke-width:0.088" d="M131.86,120.57L131.86,104.74"/><path style="stroke:#000000;stroke-width:0.088" d="M131.83,102.96L132.30,103.17L132.85,103.29"/><path style="stroke:#000000;stroke-width:0.088" d="M132.85,120.92L132.90,120.92L132.94,120.91L132.98,120.89L135.78,119.28"/><path style="stroke:#000000;stroke-width:0.088" d="M132.83,105.05L132.83,120.90"/><path style="stroke:#000000;stroke-width:0.088" d="M132.98,122.66L132.98,120.89"/><path style="stroke:#000000;stroke-width:0.088" d="M132.97,120.87L132.97,105.04"/><path style="stroke:#000000;stroke-width:0.088" d="M132.98,105.03L134.29,104.28"/><path style="stroke:#000000;stroke-width:0.088" d="M132.98,103.27L134.91,102.15"/><path style="stroke:#000000;stroke-width:0.088" d="M137.56,99.89L137.73,100.03L137.95,100.34L137.95,100.37L137.94,100.40L137.91,100.42L136.54,101.22"/><path style="stroke:#000000;stroke-width:0.088" d="M137.91,100.42L137.91,102.19L137.38,102.49"/><path style="stroke:#000000;stroke-width:0.088" d="M136.95,100.71L137.06,100.68L137.28,100.56L137.35,100.48"/><path style="stroke:#000000;stroke-width:0.088" d="M137.02,100.69L137.12,100.65"/><path style="stroke:#000000;stroke-width:0.088" d="M137.32,100.50L137.17,100.62"/><path style="stroke:#000000;stroke-width:0.088" d="M137.91,102.19L137.94,102.16L137.95,102.14L137.95,100.37"/><path style="stroke:#000000;stroke-width:0.088" d="M137.87,102.36L137.87,102.21"/><path style="stroke:#000000;stroke-width:0.088" d="M137.91,102.37L137.91,102.18"/><path style="stroke:#000000;stroke-width:0.088" d="M135.78,105.64L135.78,105.64L134.30,104.79L134.30,103.09L134.73,102.84"/><path style="stroke:#000000;stroke-width:0.088" d="M134.30,104.28L134.17,104.21"/><path style="stroke:#000000;stroke-width:0.088" d="M134.30,103.09L135.04,103.51L135.22,103.60L135.54,103.67L135.88,103.69L136.00,103.67"/><path style="stroke:#000000;stroke-width:0.088" d="M135.78,105.64L135.78,103.94L135.04,103.51L134.97,103.47L134.80,103.29L134.73,103.10L134.73,102.63L134.80,102.82L134.97,103.00L135.22,103.13L135.54,103.20L135.88,103.22L135.97,103.20L136.21,103.16L136.40,103.09"/><path style="stroke:#000000;stroke-width:0.088" d="M134.91,101.47L134.98,101.63L135.11,101.75L135.13,101.77L135.35,101.87L135.62,101.93L135.90,101.93L136.17,101.88L136.37,101.80L136.40,101.79L136.56,101.65L136.63,101.49L136.63,101.76L136.63,102.69L136.54,102.84L136.37,102.98L136.14,103.07L135.86,103.11L135.58,103.10L135.32,103.04L135.22,102.99L135.11,102.93L134.96,102.79L134.91,102.63L134.91,102.51L134.91,101.76L134.91,101.47L134.94,101.31L135.06,101.16L135.21,101.07L135.26,101.04L135.26,101.04"/><path style="stroke:#000000;stroke-width:0.088" d="M134.73,102.63L134.78,102.43L134.91,102.29"/><path style="stroke:#000000;stroke-width:0.088" d="M135.20,101.23L135.22,101.12L135.30,101.02L135.43,100.94L135.60,100.89L135.79,100.87L135.97,100.89L136.14,100.95L136.18,100.97L136.26,101.03L136.34,101.13L136.35,101.24L136.30,101.35L136.19,101.44L136.04,101.50L135.86,101.53L135.67,101.53L135.49,101.50L135.34,101.43L135.24,101.33L135.20,101.23"/><path style="stroke:#000000;stroke-width:0.088" d="M135.78,104.79L135.78,104.79L135.78,104.79"/><path style="stroke:#000000;stroke-width:0.088" d="M135.78,103.94L135.91,103.86"/><path style="stroke:#000000;stroke-width:0.088" d="M135.26,101.04L135.43,100.94"/><path style="stroke:#000000;stroke-width:0.088" d="M136.63,102.28L136.68,102.32L136.80,102.50L136.81,102.70L136.75,102.81"/><path style="stroke:#000000;stroke-width:0.088" d="M136.63,101.49L136.62,101.35L136.62,101.33L136.51,101.18L136.39,101.09L136.18,100.97"/><path style="stroke:#000000;stroke-width:0.088" d="M136.81,102.70L136.81,102.78"/><path style="stroke:#000000;stroke-width:0.088" d="M135.63,128.74L135.53,128.75L135.31,128.75L135.10,128.71L134.91,128.64L121.58,120.94L121.45,120.83L121.38,120.71L121.38,119.87L121.45,119.75L121.58,119.65L122.30,119.23"/><path style="stroke:#000000;stroke-width:0.088" d="M121.38,120.00L121.45,120.13L121.58,120.23L121.58,120.94"/><path style="stroke:#000000;stroke-width:0.088" d="M121.58,120.23L134.91,127.93L134.91,128.64"/><path style="stroke:#000000;stroke-width:0.088" d="M134.91,127.93L135.09,128.01L135.31,128.05L135.53,128.05L135.63,128.03"/><path style="stroke:#000000;stroke-width:0.088" d="M134.91,101.89L132.88,103.06L132.47,103.06L127.79,100.36L127.79,99.50L127.79,100.25"/><path style="stroke:#000000;stroke-width:0.088" d="M132.47,103.06L132.47,100.71L127.79,98.01L127.79,97.99L127.79,99.50"/><path style="stroke:#000000;stroke-width:0.088" d="M127.79,98.62L127.79,98.74L127.79,98.01"/><path style="stroke:#000000;stroke-width:0.088" d="M127.79,97.99L127.79,97.77L129.94,96.53"/><path style="stroke:#000000;stroke-width:0.088" d="M128.40,97.80L128.37,97.88L128.39,97.96L128.45,98.03L128.55,98.09L128.67,98.13L128.81,98.14L128.95,98.13L129.08,98.08L129.17,98.02L129.22,97.95L129.23,97.87L129.20,97.79L129.12,97.72L129.00,97.67L128.87,97.64L128.72,97.65L128.59,97.67L128.50,97.71L128.48,97.73L128.40,97.80"/><path style="stroke:#000000;stroke-width:0.088" d="M134.25,77.59L132.87,78.38L132.47,78.38L127.79,75.68L127.79,75.38L127.79,75.58"/><path style="stroke:#000000;stroke-width:0.088" d="M127.79,75.38L127.79,74.62L127.79,74.94"/><path style="stroke:#000000;stroke-width:0.088" d="M127.79,74.62L127.79,73.85"/><path style="stroke:#000000;stroke-width:0.088" d="M129.94,97.15L129.91,97.18L129.70,97.58L129.66,98.00L129.79,98.42L130.09,98.80L130.54,99.13L131.12,99.39L131.78,99.56L132.50,99.63L133.23,99.61L133.92,99.48L134.55,99.26L135.06,98.96L135.43,98.60L135.65,98.20L135.69,97.78L135.55,97.37L135.40,97.17"/><path style="stroke:#000000;stroke-width:0.088" d="M135.41,97.62L135.40,97.55L135.36,97.93L135.17,98.30L134.83,98.63L134.37,98.90L133.81,99.09L133.18,99.21L132.52,99.23L131.87,99.17L131.27,99.01L130.75,98.78L130.68,98.73L130.34,98.48L130.06,98.13L129.94,97.76L129.97,81.41L129.97,81.58"/><path style="stroke:#000000;stroke-width:0.088" d="M129.97,81.41L129.97,76.94"/><path style="stroke:#000000;stroke-width:0.088" d="M129.97,80.65L129.97,76.94"/><path style="stroke:#000000;stroke-width:0.088" d="M132.88,103.06L132.88,100.71L132.47,100.71"/><path style="stroke:#000000;stroke-width:0.088" d="M132.94,100.32L132.82,100.36L132.68,100.37L132.54,100.36L132.41,100.32L132.32,100.26L132.26,100.19L132.24,100.11L132.27,100.03L132.35,99.96L132.46,99.91L132.59,99.88L132.73,99.88L132.87,99.90L132.98,99.95L133.06,100.02L133.10,100.10L133.09,100.18L133.04,100.26L132.94,100.32"/><path style="stroke:#000000;stroke-width:0.088" d="M132.88,100.71L137.56,98.01L137.56,100.16"/><path style="stroke:#000000;stroke-width:0.088" d="M132.87,78.38L132.87,76.79"/><path style="stroke:#000000;stroke-width:0.088" d="M132.47,78.38L132.47,76.56"/><path style="stroke:#000000;stroke-width:0.088" d="M135.40,97.55L135.40,94.22L135.39,97.62"/><path style="stroke:#000000;stroke-width:0.088" d="M137.56,98.86L137.56,97.77L135.40,96.53"/><path style="stroke:#000000;stroke-width:0.088" d="M135.40,94.22L135.40,78.25"/><path style="stroke:#000000;stroke-width:0.088" d="M135.40,92.71L135.40,92.39"/><path style="stroke:#000000;stroke-width:0.088" d="M136.34,101.06L137.56,100.36L137.56,99.50"/><path style="stroke:#000000;stroke-width:0.088" d="M136.28,98.09L136.41,98.13L136.55,98.14L136.69,98.13L136.81,98.08L136.91,98.02L136.96,97.95L136.97,97.87L136.93,97.79L136.85,97.72L136.74,97.67L136.60,97.64L136.46,97.65L136.33,97.67L136.22,97.73L136.14,97.80L136.11,97.88L136.12,97.96L136.18,98.03L136.28,98.09"/><path style="stroke:#000000;stroke-width:0.088" d="M137.56,98.01L137.56,97.99"/><path style="stroke:#000000;stroke-width:0.088" d="M62.03,62.56L61.90,62.48"/><path style="stroke:#000000;stroke-width:0.088" d="M63.73,61.94L63.62,61.96L63.27,61.95L62.96,61.87L62.77,61.79L63.51,62.21L63.51,63.92L62.03,63.07L62.03,61.36L62.47,61.11"/><path style="stroke:#000000;stroke-width:0.088" d="M62.03,61.36L62.77,61.79L62.70,61.74L62.70,61.74L62.53,61.57L62.47,61.37L62.47,60.90L62.51,60.71L62.65,60.56"/><path style="stroke:#000000;stroke-width:0.088" d="M64.13,61.37L63.95,61.44L63.62,61.49L63.27,61.48L62.96,61.40L62.70,61.27L62.70,61.27L62.53,61.10L62.47,60.90"/><path style="stroke:#000000;stroke-width:0.088" d="M62.65,59.75L62.71,59.91L62.86,60.05L63.08,60.15L63.35,60.21L63.45,60.21L63.63,60.21L63.90,60.16L64.13,60.06L64.29,59.93L64.29,59.93L64.36,59.79L64.37,59.77L64.37,60.30L64.36,60.96L64.31,61.06L64.28,61.12L64.11,61.25L63.87,61.34L63.60,61.39L63.31,61.38L63.05,61.31L62.84,61.21L62.70,61.06L62.65,60.90L62.65,59.75L62.68,59.58L62.80,59.44L63.00,59.32"/><path style="stroke:#000000;stroke-width:0.088" d="M62.98,59.61L63.08,59.70L63.22,59.77L63.40,59.81L63.59,59.81L63.77,59.78L63.92,59.71L64.03,59.62L64.08,59.52L64.07,59.41L64.00,59.31L63.92,59.25L63.87,59.22L63.71,59.17L63.52,59.15L63.33,59.16L63.16,59.21L63.03,59.29L62.95,59.39L62.93,59.50L62.98,59.61"/><path style="stroke:#000000;stroke-width:0.088" d="M62.99,59.32L63.16,59.21"/><path style="stroke:#000000;stroke-width:0.088" d="M63.51,62.21L63.64,62.14"/><path style="stroke:#000000;stroke-width:0.088" d="M64.37,59.77L64.35,59.60L64.24,59.45L64.21,59.43L64.12,59.36"/><path style="stroke:#000000;stroke-width:0.088" d="M64.12,59.36L63.92,59.25"/><path style="stroke:#000000;stroke-width:0.088" d="M64.48,61.09L64.54,60.98L64.54,61.05"/><path style="stroke:#000000;stroke-width:0.088" d="M64.36,60.55L64.42,60.59L64.53,60.78L64.54,60.98"/><path style="stroke:#000000;stroke-width:0.088" d="M72.82,86.08L72.82,81.96L76.90,79.61L76.90,83.73L72.82,86.08L71.60,85.37L71.60,81.85L71.74,81.90L71.87,81.90L71.97,81.84L72.04,81.73L72.06,81.58L71.60,81.85"/><path style="stroke:#000000;stroke-width:0.088" d="M72.06,78.29L71.60,78.55L71.60,80.34"/><path style="stroke:#000000;stroke-width:0.088" d="M71.60,78.55L72.06,78.82"/><path style="stroke:#000000;stroke-width:0.088" d="M71.97,81.84L71.96,81.85"/><path style="stroke:#000000;stroke-width:0.088" d="M72.06,81.58L72.06,61.90L72.16,60.99L72.44,60.03L72.89,59.09L73.48,58.22L74.17,57.50L74.91,56.96L75.37,56.69L74.91,56.43L74.17,56.12L73.48,56.05L72.89,56.23L72.44,56.65L72.16,57.28L72.06,58.08L72.06,61.89"/><path style="stroke:#000000;stroke-width:0.088" d="M72.06,61.90L72.67,62.25L72.67,81.70L76.59,79.44L76.90,79.61"/><path style="stroke:#000000;stroke-width:0.088" d="M72.67,81.70L72.82,81.96"/><path style="stroke:#000000;stroke-width:0.088" d="M72.67,62.25L72.77,61.34L73.05,60.38L73.51,59.44L74.10,58.58L74.78,57.85L75.52,57.31L76.28,56.87L76.59,56.94L76.59,79.44L76.74,79.52"/><path style="stroke:#000000;stroke-width:0.088" d="M72.89,56.23L73.50,55.88L74.10,55.70L74.78,55.76L75.52,56.08L74.91,56.43"/><path style="stroke:#000000;stroke-width:0.088" d="M75.52,57.31L74.91,56.96"/><path style="stroke:#000000;stroke-width:0.088" d="M75.52,56.08L76.28,56.52L76.28,56.87"/><path style="stroke:#000000;stroke-width:0.088" d="M76.28,56.52L76.59,56.94"/><path style="stroke:#000000;stroke-width:0.088" d="M47.99,73.85L47.99,77.97L43.92,75.62L43.92,71.50L44.22,71.33L43.92,71.50L47.99,73.85L48.14,73.59L44.22,71.33L44.22,48.84L44.53,48.41L44.53,48.76L44.22,48.84"/><path style="stroke:#000000;stroke-width:0.088" d="M44.53,48.76L45.29,49.20L45.90,48.85L46.64,49.39L47.33,50.11L47.92,50.98L48.37,51.92L48.65,52.88L48.75,53.79L48.75,74.00L49.21,73.74L49.21,77.26L47.99,77.97"/><path style="stroke:#000000;stroke-width:0.088" d="M44.53,48.41L45.29,47.97L46.03,47.65L46.72,47.59L47.31,47.77L47.92,48.12L48.37,48.54L48.65,49.17L48.75,49.97L48.75,69.65L48.77,69.83L48.84,70.01L48.94,70.19L49.07,70.34L49.21,70.45L48.75,70.71"/><path style="stroke:#000000;stroke-width:0.088" d="M45.29,49.20L46.03,49.74L46.72,50.47L46.83,50.64L47.31,51.33L47.76,52.27L48.04,53.23L48.14,54.14L48.14,73.59"/><path style="stroke:#000000;stroke-width:0.088" d="M45.29,47.97L45.90,48.32L45.44,48.59L45.90,48.85"/><path style="stroke:#000000;stroke-width:0.088" d="M45.90,48.32L46.64,48.01L47.33,47.94L47.92,48.12"/><path style="stroke:#000000;stroke-width:0.088" d="M48.14,54.14L48.75,53.79"/><path style="stroke:#000000;stroke-width:0.088" d="M48.75,73.47L49.21,73.74"/><path style="stroke:#000000;stroke-width:0.088" d="M49.21,70.45L49.21,72.23"/><path style="stroke:#000000;stroke-width:0.088" d="M124.58,71.96L124.58,72.01L136.80,79.06L136.80,77.65L131.91,74.83L132.95,74.23L132.94,74.23L132.98,74.20L133.02,74.14L133.03,74.07L133.00,74.01L132.93,73.95L132.84,73.91L132.72,73.89L132.61,73.89L132.49,73.91L132.40,73.96L132.34,74.01L132.31,74.08L132.32,74.15L132.37,74.21L132.42,74.23L132.54,74.27L132.68,74.28L132.82,74.27L132.94,74.23"/><path style="stroke:#000000;stroke-width:0.088" d="M124.58,72.01L124.58,70.59L131.91,74.83"/><path style="stroke:#000000;stroke-width:0.088" d="M130.13,69.15L131.96,68.10L132.29,67.70L132.29,66.29L131.66,65.92L124.58,70.01L124.58,70.64"/><path style="stroke:#000000;stroke-width:0.088" d="M127.43,70.38L127.53,70.36L127.62,70.31L127.67,70.25L127.69,70.18L127.67,70.11L127.61,70.05L127.52,70.01L127.41,69.98L127.29,69.98L127.18,70.00L127.08,70.03L127.01,70.09L126.97,70.15L126.98,70.22L127.02,70.29L127.08,70.33L127.09,70.34L127.19,70.38L127.31,70.39L127.43,70.38"/><path style="stroke:#000000;stroke-width:0.088" d="M128.04,72.59L129.41,71.80"/><path style="stroke:#000000;stroke-width:0.088" d="M128.39,71.87L128.37,71.79L128.40,71.71L128.48,71.64L128.59,71.58L128.72,71.56L128.87,71.55L129.00,71.58L129.07,71.61L129.12,71.63L129.20,71.70L129.23,71.78L129.22,71.86L129.17,71.93L129.11,71.98L129.08,71.99L128.95,72.04L128.81,72.05L128.67,72.04L128.55,72.00L128.45,71.94L128.39,71.87"/><path style="stroke:#000000;stroke-width:0.088" d="M128.55,72.00L128.51,71.98L128.46,71.92L128.44,71.85L128.47,71.78L128.53,71.72L128.55,71.72L128.63,71.68L128.74,71.66L128.86,71.65L128.97,71.68L129.06,71.72L129.13,71.77L129.16,71.84L129.15,71.91L129.11,71.97L129.08,71.99"/><path style="stroke:#000000;stroke-width:0.088" d="M136.80,79.06L137.81,79.06L144.89,74.97L144.89,73.56L144.26,73.20L143.57,73.39L140.51,75.15L139.09,74.33L142.70,72.24L143.02,71.84L134.64,67.00L133.95,67.19L130.33,69.27L128.91,68.45L131.96,66.69L131.96,68.10"/><path style="stroke:#000000;stroke-width:0.088" d="M131.96,66.69L132.29,66.29"/><path style="stroke:#000000;stroke-width:0.088" d="M132.42,74.23L132.31,74.18L132.26,74.10L132.24,74.02L132.27,73.94L132.35,73.87L132.46,73.82L132.59,73.79L132.73,73.79L132.87,73.81L132.98,73.86L133.06,73.93L133.10,74.01L133.09,74.09L133.04,74.17L132.95,74.23"/><path style="stroke:#000000;stroke-width:0.088" d="M132.94,69.76L132.82,69.80L132.68,69.82L132.54,69.81L132.42,69.77L132.31,69.71L132.26,69.63L132.24,69.55L132.27,69.47L132.35,69.40L132.46,69.35L132.59,69.32L132.73,69.32L132.87,69.35L132.98,69.40L133.06,69.46L133.10,69.54L133.09,69.62L133.04,69.70L132.98,69.74L132.94,69.76"/><path style="stroke:#000000;stroke-width:0.088" d="M132.42,69.77L132.37,69.74L132.32,69.68L132.31,69.61L132.34,69.55L132.40,69.49L132.41,69.48L132.49,69.45L132.61,69.42L132.72,69.42L132.84,69.44L132.93,69.48L133.00,69.54L133.03,69.61L133.02,69.67L132.98,69.74L132.95,69.76"/><path style="stroke:#000000;stroke-width:0.088" d="M132.98,74.21L133.28,74.03"/><path style="stroke:#000000;stroke-width:0.088" d="M136.55,72.05L136.41,72.04L136.28,72.00L136.18,71.94L136.12,71.87L136.11,71.79L136.14,71.71L136.22,71.64L136.33,71.58L136.46,71.56L136.60,71.55L136.74,71.58L136.85,71.63L136.93,71.70L136.97,71.78L136.96,71.86L136.91,71.93L136.85,71.98L136.81,71.99L136.73,72.02L136.69,72.03L136.55,72.05"/><path style="stroke:#000000;stroke-width:0.088" d="M136.80,72.00L136.84,71.97L136.89,71.91L136.90,71.84L136.87,71.77L136.80,71.72L136.73,71.68L136.70,71.68L136.59,71.65L136.47,71.66L136.36,71.68L136.27,71.72L136.21,71.78L136.18,71.85L136.19,71.92L136.25,71.98"/><path style="stroke:#000000;stroke-width:0.088" d="M136.80,77.65L137.81,77.65L137.81,79.06"/><path style="stroke:#000000;stroke-width:0.088" d="M137.18,76.13L137.20,76.16L137.25,76.21L137.27,76.22L137.37,76.25L137.49,76.27L137.60,76.26L137.71,76.23L137.80,76.18L137.85,76.12L137.87,76.06L137.85,75.99L137.79,75.93L137.70,75.88L137.59,75.86L137.47,75.85L137.36,75.87L137.26,75.91L137.19,75.97L137.15,76.03L137.16,76.10L137.18,76.13"/><path style="stroke:#000000;stroke-width:0.088" d="M137.81,77.65L144.89,73.56"/><path style="stroke:#000000;stroke-width:0.088" d="M142.70,72.24L142.70,73.65L140.31,75.03"/><path style="stroke:#000000;stroke-width:0.088" d="M142.70,73.65L143.02,73.25L143.02,71.84"/><path style="stroke:#000000;stroke-width:0.088" d="M135.63,126.92L121.48,118.75"/><path style="stroke:#000000;stroke-width:0.088" d="M135.63,125.16L121.48,116.99"/><path style="stroke:#000000;stroke-width:0.088" d="M121.86,113.95L123.41,113.05"/><path style="stroke:#000000;stroke-width:0.088" d="M143.77,126.92L143.87,126.86"/><path style="stroke:#000000;stroke-width:0.088" d="M143.87,125.10L143.77,125.16"/><path style="stroke:#000000;stroke-width:0.088" d="M144.28,127.33L143.87,127.10L143.87,123.57L144.33,123.31L144.33,103.62L144.94,103.97L144.94,123.42L145.09,123.69L145.09,127.80L144.28,127.33"/><path style="stroke:#000000;stroke-width:0.088" d="M143.87,123.57L144.01,123.63L144.14,123.63L144.24,123.57L144.22,123.58"/><path style="stroke:#000000;stroke-width:0.088" d="M144.24,123.57L144.31,123.46L144.33,123.31"/><path style="stroke:#000000;stroke-width:0.088" d="M144.33,120.02L143.87,120.28L143.87,122.06"/><path style="stroke:#000000;stroke-width:0.088" d="M143.87,120.28L144.33,120.54"/><path style="stroke:#000000;stroke-width:0.088" d="M144.94,123.42L148.86,121.16L149.00,121.25"/><path style="stroke:#000000;stroke-width:0.088" d="M144.94,103.97L145.04,103.07L145.32,102.11L145.77,101.17L146.36,100.30L147.05,99.58L147.79,99.04L148.55,98.60L148.86,98.67L148.86,121.16L149.16,121.34L149.16,125.45L145.09,127.80"/><path style="stroke:#000000;stroke-width:0.088" d="M144.33,103.62L144.42,102.71L144.71,101.76L145.16,100.81L145.75,99.95L146.44,99.22L147.18,98.68L147.79,99.04"/><path style="stroke:#000000;stroke-width:0.088" d="M148.55,98.60L148.55,98.24L147.79,97.80L147.18,98.16L146.44,97.84L145.75,97.77L145.16,97.96L144.71,98.38L144.42,99.01L144.33,99.80L144.33,103.62"/><path style="stroke:#000000;stroke-width:0.088" d="M145.09,123.69L149.16,121.34"/><path style="stroke:#000000;stroke-width:0.088" d="M145.16,97.96L145.77,97.60L146.36,97.42L147.05,97.49L147.79,97.80"/><path style="stroke:#000000;stroke-width:0.088" d="M147.18,98.16L147.64,98.42L147.18,98.68"/><path style="stroke:#000000;stroke-width:0.088" d="M148.55,98.24L148.86,98.67"/><path style="stroke:#000000;stroke-width:0.088" d="M121.68,110.05L121.69,110.05L121.58,110.11L121.58,113.93"/><path style="stroke:#000000;stroke-width:0.088" d="M122.34,90.93L122.44,90.02L122.72,89.06L123.18,88.12L123.77,87.25L124.45,86.53L125.19,85.99L125.65,85.73L126.11,85.99L126.72,85.64L125.95,85.20L125.34,85.20L124.58,85.64L123.84,86.18L123.15,86.90L122.56,87.76L122.37,88.16L122.11,88.71L121.83,89.67L121.73,90.57L122.34,90.93L122.34,111.14L125.19,109.50L125.65,109.76L125.65,111.64"/><path style="stroke:#000000;stroke-width:0.088" d="M122.34,111.14L122.80,111.41L122.80,113.40"/><path style="stroke:#000000;stroke-width:0.088" d="M121.69,110.05L121.73,110.03L121.73,90.57"/><path style="stroke:#000000;stroke-width:0.088" d="M122.80,111.41L125.65,109.76L127.43,110.79"/><path style="stroke:#000000;stroke-width:0.088" d="M124.58,85.64L125.19,85.99"/><path style="stroke:#000000;stroke-width:0.088" d="M125.19,109.50L125.33,109.39L125.46,109.24L125.56,109.06L125.63,108.88L125.65,108.70L125.65,85.73"/><path style="stroke:#000000;stroke-width:0.088" d="M125.65,108.70L127.43,109.73"/><path style="stroke:#000000;stroke-width:0.088" d="M126.11,85.99L126.84,86.53L127.53,87.25L127.66,87.44L128.12,88.12L128.58,89.06L128.86,90.02L128.96,90.93L128.96,97.10"/><path style="stroke:#000000;stroke-width:0.088" d="M126.72,85.64L127.46,86.18L128.14,86.90L128.42,87.30L128.73,87.77L129.19,88.71L129.47,89.67L129.57,90.57L129.57,96.75"/><path style="stroke:#000000;stroke-width:0.088" d="M128.96,90.93L129.57,90.57"/><path style="stroke:#000000;stroke-width:0.088" d="M120.41,115.32L120.26,115.58L120.26,119.69L116.19,117.34L116.18,113.23L116.49,113.05L120.41,115.32L120.41,95.86L120.31,94.96L120.03,94.00L119.57,93.06L118.98,92.19L118.29,91.47L117.56,90.93L116.79,90.49L116.79,90.14L117.56,89.69L118.17,90.05L118.91,89.73L119.35,89.69L119.59,89.67L120.18,89.85L120.64,90.27L120.92,90.90L121.02,91.69L121.02,111.38L121.04,111.55L121.11,111.74L121.21,111.91L121.34,112.06L121.48,112.17L121.02,112.44"/><path style="stroke:#000000;stroke-width:0.088" d="M116.18,113.23L120.26,115.58"/><path style="stroke:#000000;stroke-width:0.088" d="M116.49,113.05L116.49,90.56L116.79,90.14"/><path style="stroke:#000000;stroke-width:0.088" d="M116.79,90.49L116.49,90.56"/><path style="stroke:#000000;stroke-width:0.088" d="M117.56,90.93L118.17,90.58L118.91,91.11L119.59,91.84L120.18,92.70L120.64,93.65L120.92,94.60L121.02,95.51L121.02,115.73L121.48,115.46L121.48,118.99L120.26,119.69"/><path style="stroke:#000000;stroke-width:0.088" d="M118.17,90.05L117.71,90.31L118.17,90.58"/><path style="stroke:#000000;stroke-width:0.088" d="M117.56,89.69L118.29,89.38L118.98,89.31L119.57,89.49L120.18,89.85"/><path style="stroke:#000000;stroke-width:0.088" d="M121.02,95.51L120.41,95.86"/><path style="stroke:#000000;stroke-width:0.088" d="M121.48,115.46L121.02,115.20"/><path style="stroke:#000000;stroke-width:0.088" d="M121.48,113.95L121.48,112.17"/><path style="stroke:#000000;stroke-width:0.088" d="M121.42,120.78L120.26,121.46L116.39,119.22L116.39,119.10L116.39,119.22"/><path style="stroke:#000000;stroke-width:0.088" d="M121.68,118.87L120.26,119.69L116.39,117.46L116.39,119.10L116.39,118.52L116.39,118.99L116.39,119.10L116.39,119.11"/><path style="stroke:#000000;stroke-width:0.088" d="M116.39,117.46L116.39,117.46L116.39,117.47"/><path style="stroke:#000000;stroke-width:0.088" d="M120.26,121.46L120.26,119.69"/><path style="stroke:#000000;stroke-width:0.088" d="M148.96,127.33L148.96,126.63L148.96,127.33L145.09,129.56L143.77,128.80"/><path style="stroke:#000000;stroke-width:0.088" d="M148.96,126.63L148.96,125.57L147.73,126.28L147.30,126.53L145.81,127.39L145.09,127.80L145.04,127.77L143.77,127.04"/><path style="stroke:#000000;stroke-width:0.088" d="M145.09,129.56L145.09,127.80"/><path style="stroke:#000000;stroke-width:0.088" d="M148.96,127.21L148.96,126.12"/><path style="stroke:#000000;stroke-width:0.088" d="M148.96,126.63L148.96,125.70"/><path style="stroke:#000000;stroke-width:0.088" d="M148.96,125.57L148.96,125.57"/><path style="stroke:#000000;stroke-width:0.088" d="M148.96,125.88L148.96,125.64"/><path style="stroke:#000000;stroke-width:0.088" d="M135.63,128.57L135.63,130.33L139.49,132.56L139.90,132.56L139.90,130.80L143.77,128.57L143.77,130.33L139.90,132.56"/><path style="stroke:#000000;stroke-width:0.088" d="M136.19,128.89L136.11,128.85"/><path style="stroke:#000000;stroke-width:0.088" d="M138.99,130.51L138.24,130.07"/><path style="stroke:#000000;stroke-width:0.088" d="M139.49,132.56L139.49,130.80"/><path style="stroke:#000000;stroke-width:0.088" d="M139.70,130.92L135.63,128.57L135.63,124.45L135.78,124.19L135.78,104.74L135.87,103.94L136.16,103.31L136.61,102.89L137.20,102.71L137.89,102.78L138.63,103.09L139.39,103.53L139.70,103.96L139.70,130.92L143.77,128.57L143.77,124.45L139.70,126.80L135.63,124.45"/><path style="stroke:#000000;stroke-width:0.088" d="M135.78,124.19L139.70,126.45L143.62,124.19L143.61,104.74L143.52,103.94L143.23,103.31L142.78,102.89L142.19,102.71L141.50,102.78L140.76,103.09L140.00,103.53L139.70,103.96"/><path style="stroke:#000000;stroke-width:0.088" d="M136.61,102.89L137.22,102.54L137.81,102.36L138.50,102.43L139.24,102.74L139.70,103.00L140.15,102.74L140.89,102.43L141.58,102.36L142.17,102.54L142.77,102.89"/><path style="stroke:#000000;stroke-width:0.088" d="M138.63,103.09L139.24,102.74"/><path style="stroke:#000000;stroke-width:0.088" d="M139.39,103.53L140.00,103.53"/><path style="stroke:#000000;stroke-width:0.088" d="M140.15,102.74L140.76,103.09"/><path style="stroke:#000000;stroke-width:0.088" d="M143.77,124.45L143.62,124.19"/><path style="stroke:#000000;stroke-width:0.088" d="M49.41,68.33L49.46,68.30L49.31,68.39L49.31,72.21"/><path style="stroke:#000000;stroke-width:0.088" d="M49.42,68.33L49.46,68.30L49.46,48.85L49.56,47.94L49.84,46.98L50.30,46.04L50.89,45.18L51.58,44.45L52.31,43.91L53.08,43.47L53.69,43.47L54.45,43.91L53.84,44.26L54.58,44.80L55.26,45.53L55.86,46.39L56.31,47.34L56.35,47.49L56.59,48.29L56.69,49.20L57.30,48.85L57.30,55.02"/><path style="stroke:#000000;stroke-width:0.088" d="M50.53,71.68L50.53,69.68L50.08,69.42L50.07,49.20L49.46,48.85"/><path style="stroke:#000000;stroke-width:0.088" d="M50.08,69.42L52.92,67.77L53.38,68.04L53.38,69.92"/><path style="stroke:#000000;stroke-width:0.088" d="M50.53,69.68L53.38,68.04L55.16,69.06"/><path style="stroke:#000000;stroke-width:0.088" d="M50.07,49.20L50.17,48.29L50.19,48.24L50.46,47.34L50.91,46.39L51.50,45.53L52.19,44.80L52.92,44.26L52.31,43.91"/><path style="stroke:#000000;stroke-width:0.088" d="M52.92,67.77L53.07,67.66L53.19,67.51L53.30,67.34L53.36,67.15L53.38,66.98L55.16,68.01"/><path style="stroke:#000000;stroke-width:0.088" d="M53.38,66.98L53.38,44.00L52.92,44.26"/><path style="stroke:#000000;stroke-width:0.088" d="M53.38,44.00L53.84,44.26"/><path style="stroke:#000000;stroke-width:0.088" d="M54.45,43.91L55.19,44.45L55.88,45.18L56.47,46.04L56.92,46.98L57.07,47.49L57.20,47.94L57.30,48.85"/><path style="stroke:#000000;stroke-width:0.088" d="M56.69,55.37L56.69,49.20"/><path style="stroke:#000000;stroke-width:0.088" d="M63.36,86.84L63.36,88.60L67.23,90.84L67.23,89.07"/><path style="stroke:#000000;stroke-width:0.088" d="M67.23,90.84L67.63,90.84L67.63,89.07L71.50,86.84L71.50,88.60L67.63,90.84"/><path style="stroke:#000000;stroke-width:0.088" d="M49.15,79.06L49.10,79.09L49.00,79.15L47.99,79.73L44.12,77.50L44.12,76.89L44.12,77.50L44.12,77.50"/><path style="stroke:#000000;stroke-width:0.088" d="M47.99,79.73L47.99,77.97L44.12,75.73L44.12,76.89L44.12,76.79L44.12,77.38"/><path style="stroke:#000000;stroke-width:0.088" d="M44.12,76.89L44.12,76.79"/><path style="stroke:#000000;stroke-width:0.088" d="M44.12,75.73L44.12,75.73"/><path style="stroke:#000000;stroke-width:0.088" d="M47.99,77.97L47.99,77.97"/><path style="stroke:#000000;stroke-width:0.088" d="M49.41,77.14L47.99,77.97"/><path style="stroke:#000000;stroke-width:0.088" d="M76.69,85.61L76.69,84.42L76.69,85.18L76.69,85.49L76.69,85.18L76.69,85.61L72.82,87.84L71.50,87.08"/><path style="stroke:#000000;stroke-width:0.088" d="M71.50,85.31L72.82,86.08L76.69,83.84L76.69,84.42L76.69,83.92"/><path style="stroke:#000000;stroke-width:0.088" d="M72.82,87.84L72.82,86.08"/><path style="stroke:#000000;stroke-width:0.088" d="M76.69,83.98L76.69,84.42L76.69,84.40"/><path style="stroke:#000000;stroke-width:0.088" d="M76.69,83.85L76.69,83.84"/><path style="stroke:#000000;stroke-width:0.088" d="M63.45,86.90L63.36,86.84L63.36,82.73L67.43,85.08L67.43,89.19L63.45,86.90"/><path style="stroke:#000000;stroke-width:0.088" d="M63.36,82.73L63.51,82.46L63.51,63.01L63.61,62.22L63.89,61.59L64.34,61.17L64.93,60.99L65.62,61.05L66.36,61.37L67.12,61.81L67.43,62.23L67.43,84.73L63.51,82.46"/><path style="stroke:#000000;stroke-width:0.088" d="M64.34,61.17L64.95,60.81L65.54,60.63L66.23,60.70L66.97,61.01L67.43,61.28L67.88,61.01L68.50,61.37L67.73,61.81L67.43,62.23"/><path style="stroke:#000000;stroke-width:0.088" d="M66.36,61.37L66.97,61.01"/><path style="stroke:#000000;stroke-width:0.088" d="M67.12,61.81L67.73,61.81"/><path style="stroke:#000000;stroke-width:0.088" d="M67.43,89.19L71.50,86.84L71.50,82.73L71.35,82.46L67.43,84.73L67.43,85.08L71.50,82.73"/><path style="stroke:#000000;stroke-width:0.088" d="M67.88,61.01L68.62,60.70L69.31,60.63L69.90,60.81L70.51,61.17L69.92,60.99L69.23,61.05L68.50,61.37"/><path style="stroke:#000000;stroke-width:0.088" d="M70.51,61.17L70.96,61.59L71.06,61.81L71.25,62.22L71.35,63.01L71.35,82.46"/><path style="stroke:#000000;stroke-width:0.088" d="M55.16,72.00L53.89,72.74L53.71,72.81L53.50,72.85L53.27,72.85L53.06,72.81L52.88,72.74L51.35,71.86L51.35,71.50L51.22,71.40L51.15,71.27L51.15,71.14L51.15,71.17"/><path style="stroke:#000000;stroke-width:0.088" d="M51.35,71.86L51.21,71.75L51.15,71.63L51.15,71.27"/><path style="stroke:#000000;stroke-width:0.088" d="M51.35,71.50L52.87,72.38L52.87,72.74"/><path style="stroke:#000000;stroke-width:0.088" d="M55.16,70.77L53.89,70.03L53.71,69.96L53.50,69.92L53.27,69.92L53.06,69.96L52.87,70.03L51.35,70.92L51.22,71.02L51.15,71.14L51.15,71.17"/><path style="stroke:#000000;stroke-width:0.088" d="M51.98,71.39L51.98,71.38L52.10,71.36L52.21,71.36L52.33,71.38L52.35,71.39"/><path style="stroke:#000000;stroke-width:0.088" d="M52.10,71.00L51.98,71.03L51.91,71.06L51.89,71.07L51.83,71.13L51.80,71.20L51.81,71.26L51.86,71.33L51.95,71.38L52.05,71.41L52.17,71.42L52.29,71.40L52.39,71.37L52.47,71.32L52.51,71.26L52.52,71.19L52.49,71.12L52.42,71.07L52.33,71.02L52.21,71.00L52.10,71.00"/><path style="stroke:#000000;stroke-width:0.088" d="M52.87,72.38L53.06,72.46L53.27,72.50L53.50,72.50L53.71,72.46L53.89,72.38L53.89,72.74"/><path style="stroke:#000000;stroke-width:0.088" d="M53.89,72.38L55.16,71.65"/><path style="stroke:#000000;stroke-width:0.088" d="M54.39,71.05L54.35,71.06L54.33,71.07L54.27,71.13L54.24,71.20L54.26,71.26L54.31,71.33L54.39,71.38L54.49,71.41L54.61,71.42L54.73,71.40L54.83,71.37L54.91,71.32L54.95,71.26L54.96,71.19L54.93,71.12L54.86,71.07L54.77,71.02L54.66,71.00L54.54,71.00L54.43,71.03L54.39,71.05"/><path style="stroke:#000000;stroke-width:0.088" d="M54.79,71.38L54.77,71.38L54.66,71.36L54.54,71.36L54.43,71.38L54.42,71.38"/><path style="stroke:#000000;stroke-width:0.088" d="M71.60,83.24L71.51,83.26L71.50,83.26"/><path style="stroke:#000000;stroke-width:0.088" d="M71.58,82.49L71.54,82.48L71.42,82.46L71.35,82.47"/><path style="stroke:#000000;stroke-width:0.088" d="M71.60,82.89L71.51,82.90L71.50,82.90"/><path style="stroke:#000000;stroke-width:0.088" d="M71.38,82.52L71.44,82.52L71.55,82.51L71.60,82.48"/><path style="stroke:#000000;stroke-width:0.088" d="M71.35,82.11L71.42,82.11L71.54,82.12L71.60,82.15"/><path style="stroke:#000000;stroke-width:0.088" d="M71.58,81.08L71.54,81.07L71.42,81.05L71.35,81.06"/><path style="stroke:#000000;stroke-width:0.088" d="M71.35,81.11L71.44,81.11L71.55,81.10L71.65,81.06L71.72,81.00L71.76,80.94L71.75,80.87L71.71,80.80L71.65,80.76L71.64,80.75L71.54,80.71L71.42,80.70L71.35,80.70"/><path style="stroke:#000000;stroke-width:0.088" d="M71.35,80.32L71.51,80.32L71.73,80.36L71.91,80.44L72.06,80.52"/><path style="stroke:#000000;stroke-width:0.088" d="M49.21,75.13L49.30,75.15L49.53,75.15L49.74,75.11L49.92,75.03L49.92,74.68L51.45,73.79L51.58,73.69L51.65,73.57L51.65,73.44L51.58,73.31L51.45,73.21L49.92,72.33L49.74,72.25L49.53,72.21L49.30,72.21L49.09,72.25L48.90,72.33L48.75,72.41"/><path style="stroke:#000000;stroke-width:0.088" d="M49.10,72.70L49.07,72.73L49.05,72.80L49.08,72.87L49.13,72.93L49.22,72.97L49.33,73.00L49.45,73.00L49.56,72.98L49.66,72.95L49.73,72.89L49.77,72.83L49.77,72.76L49.73,72.69L49.67,72.65L49.65,72.64L49.55,72.60L49.44,72.59L49.32,72.60L49.21,72.62L49.13,72.67L49.10,72.70"/><path style="stroke:#000000;stroke-width:0.088" d="M49.21,74.78L49.30,74.79L49.53,74.79L49.74,74.75L49.92,74.68"/><path style="stroke:#000000;stroke-width:0.088" d="M49.23,74.38L49.32,74.36L49.44,74.35L49.55,74.37L49.60,74.38"/><path style="stroke:#000000;stroke-width:0.088" d="M49.21,74.38L49.22,74.38L49.33,74.41L49.45,74.41L49.56,74.40L49.66,74.36L49.73,74.30L49.77,74.24L49.77,74.17L49.73,74.10L49.67,74.06L49.65,74.05L49.55,74.01L49.44,74.00L49.32,74.01L49.21,74.03"/><path style="stroke:#000000;stroke-width:0.088" d="M49.60,72.97L49.55,72.96L49.44,72.94L49.32,72.95L49.23,72.97"/><path style="stroke:#000000;stroke-width:0.088" d="M49.92,75.03L51.45,74.15L51.58,74.04L51.65,73.92L51.65,73.87L51.65,73.91"/><path style="stroke:#000000;stroke-width:0.088" d="M51.45,74.15L51.45,73.79"/><path style="stroke:#000000;stroke-width:0.088" d="M51.65,73.57L51.65,73.87L51.65,73.61"/><path style="stroke:#000000;stroke-width:0.088" d="M51.65,73.79L51.65,73.44"/><path style="fill:#ffffff" d="M171.61,73.02L198.02,73.02L198.02,67.38L171.61,67.38z"/><path style="stroke:#35414c;stroke-width:0.255" d="M171.61,73.02L198.02,73.02L198.02,67.38L171.61,67.38z"/><path style="stroke:#35404c;stroke-width:0.250;stroke-opacity:0.00" d="M171.61,73.02L198.02,73.02L198.02,67.38L171.61,67.38z"/><text xml:space="preserve" fill="#333f4b" stroke-width="0" x="172.31" y="71.44" font-size="3.56" opacity="1.00" font-family="Arial" font-weight="bold" font-style="italic">F24978826X</text><path style="fill:#ffffff" d="M171.61,82.96L198.02,82.96L198.02,77.32L171.61,77.32z"/><path style="stroke:#35414c;stroke-width:0.255" d="M171.61,82.96L198.02,82.96L198.02,77.32L171.61,77.32z"/><path style="stroke:#35404c;stroke-width:0.250;stroke-opacity:0.00" d="M171.61,82.96L198.02,82.96L198.02,77.32L171.61,77.32z"/><text xml:space="preserve" fill="#333f4b" stroke-width="0" x="172.31" y="81.37" font-size="3.56" opacity="1.00" font-family="Arial" font-weight="bold" font-style="italic">F24978828X</text><g id="paperID" visibility="hidden" opacity="0.00" transform="scale(0.000100)"><path style="stroke:#000000;stroke-width:0.500;fill:#e6e6e6;fill-rule:evenodd" d="M-2000.00,-2000.00L2210.00,-2000.00L2210.00,2150.00L-2000.00,2150.00zM0.00,0.00L210.00,0.00L210.00,150.00L0.00,150.00z"/><path style="fill:#000000;fill-opacity:0.118" d="M3.00,150.00L210.00,150.00L210.00,3.00L213.00,3.00L213.00,153.00L3.00,153.00z"/></g><g id="hotspot.0" onmouseover="ShowHotSpot(evt,'0')" onmouseout="HideHotSpot(evt,'0')" onmousemove="ShowToolTip(evt,'0',&quot;stelo&quot;)" opacity="0"><path style="fill:#00ff00;fill-rule:evenodd" d="M57.90,23.48L57.89,25.08L57.23,25.56L57.62,25.59L59.93,24.30L60.50,24.23L68.77,29.11L68.76,30.32L68.49,30.82L68.86,30.83L70.07,30.42L70.44,30.63L70.46,32.21L65.75,35.00L63.25,36.25L63.31,55.00L65.21,56.11L65.39,58.36L65.57,58.56L65.69,60.69L66.32,60.81L67.06,61.20L67.76,61.20L68.49,60.80L69.70,60.80L70.44,61.19L71.00,61.75L71.37,63.07L71.56,80.39L71.70,78.64L71.92,78.48L72.12,57.87L72.46,56.71L73.55,55.93L74.94,55.93L75.50,56.13L76.45,56.86L76.64,79.55L76.82,79.74L76.81,83.75L76.56,85.75L73.25,87.69L72.69,87.83L71.56,87.23L71.37,88.81L67.93,90.80L67.05,90.82L63.50,88.75L63.31,87.25L61.43,86.32L49.44,79.36L48.81,79.36L48.45,79.57L47.55,79.57L44.19,77.69L44.00,75.81L44.01,71.58L44.19,71.38L44.37,48.69L45.62,47.87L46.80,47.67L48.15,48.41L48.70,49.37L48.89,70.17L49.07,70.37L49.25,72.33L49.44,68.37L49.62,47.93L50.00,46.81L51.14,44.95L52.75,43.75L53.12,43.55L53.75,43.55L54.69,44.12L55.84,45.23L56.93,47.13L57.31,48.81L57.45,54.91L57.67,54.91L57.68,35.32L55.57,34.06L55.45,32.30L54.12,31.38L50.32,29.18L50.38,27.13L57.06,23.30L57.71,23.29zM198.30,67.76L198.31,73.06L198.09,73.21L171.49,73.20L171.47,67.60L171.63,67.38L197.92,67.39zM56.70,26.12L56.29,26.12L56.50,25.91L56.75,25.91zM67.95,31.37L67.54,31.37L67.75,31.16L68.00,31.16zM67.08,31.81L66.62,32.15L66.23,32.13L66.84,31.73z"/></g><g id="hotspot.1" onmouseover="ShowHotSpot(evt,'1')" onmouseout="HideHotSpot(evt,'1')" onmousemove="ShowToolTip(evt,'1',&quot;F24976682X&quot;)" opacity="0"><path style="fill:#00ff00;fill-rule:evenodd" d="M132.33,66.42L132.32,67.82L131.48,68.50L131.87,68.53L133.75,67.38L134.75,67.17L143.00,71.88L143.00,73.45L142.74,73.76L143.12,73.77L143.88,73.36L144.31,73.36L144.89,73.73L144.81,75.06L138.07,79.01L136.45,78.99L135.50,78.42L135.44,96.69L137.58,97.92L137.76,100.17L137.94,100.37L138.06,102.50L138.69,102.63L139.46,103.00L139.91,103.00L140.69,102.63L141.52,102.45L143.03,103.16L143.57,104.12L143.75,122.02L143.94,120.32L144.31,120.12L144.49,98.92L145.37,97.93L146.12,97.55L146.94,97.56L147.88,97.94L148.82,98.68L149.01,121.36L149.19,121.56L149.17,125.55L148.95,125.70L148.83,127.46L145.55,129.43L144.67,129.45L144.11,129.03L143.88,129.04L143.75,130.44L140.33,132.45L139.07,132.43L135.63,130.44L135.50,128.87L134.76,128.68L121.44,120.98L121.19,120.98L120.61,121.37L119.93,121.39L116.51,119.37L116.37,117.63L116.57,90.50L117.69,89.75L118.18,89.49L119.38,89.49L120.13,89.87L120.88,90.80L121.05,111.64L121.44,112.07L121.62,110.19L121.81,90.12L122.18,88.62L123.32,86.76L124.57,85.76L125.12,85.37L126.14,85.37L127.27,86.10L128.75,87.81L129.50,89.88L129.64,96.72L129.86,96.72L129.87,76.94L127.94,75.87L127.81,73.94L124.56,72.12L124.63,70.06L131.50,66.05L131.74,66.04zM198.30,77.70L198.31,83.00L198.09,83.15L171.49,83.14L171.47,77.54L171.63,77.31L197.92,77.33zM131.02,68.94L130.56,69.28L130.17,69.25L130.78,68.85zM142.20,74.31L141.79,74.31L142.00,74.10L142.25,74.10zM141.33,74.75L140.87,75.09L140.48,75.06L141.09,74.66z"/></g></g></svg>
