<?xml version="1.0" encoding="UTF-8" standalone="no"?>
<svg xmlns="http://www.w3.org/2000/svg" xmlns:xlink="http://www.w3.org/1999/xlink" width="210.000mm" height="150.000mm" viewBox="0.000000 0.000000 210.000000 150.000000" stroke-linejoin="round" stroke-linecap="round" fill="none" fill-rule="evenodd"><desc>Composer Export</desc><script type="text/ecmascript"><![CDATA[
if(typeof(top) != "undefined")
{
	top.ShowPaper = ShowPaper;
}
function ShowHotSpot(evt,hotspotid)
{
	var svgDocument = evt.target.ownerDocument;
	var strId = "hotspot."+hotspotid;
	var hotspot = svgDocument.getElementById(strId);
	if(hotspot)
		hotspot.setAttribute("opacity",".5");
}
function HideHotSpot(evt,hotspotid)
{
	var svgDocument = evt.target.ownerDocument;
	var strId = "hotspot."+hotspotid;
	var hotspot = svgDocument.getElementById(strId);
	if(hotspot)
		hotspot.setAttribute("opacity","0");

	var toolTip = svgDocument.getElementById('ToolTip');
	if(toolTip)
		toolTip.setAttribute("visibility","hidden");
}
function ShowToolTip(evt,hotspotid,strTooltip)
{
	if(strTooltip=="")
	return;

	// change text
	var svgDocument = evt.target.ownerDocument;
	var tiptext = svgDocument.getElementById('ToolTipText');
	if( !tiptext )
	return;
	tiptext.firstChild.nodeValue = " " + strTooltip + "  " ;

	// show tooltip before, else some refresh issue

	var toolTip = svgDocument.getElementById('ToolTip');
	if(!toolTip)
	return;

	toolTip.setAttribute("visibility","visible");
	toolTip.setAttribute("opacity",".95");

	// move tooltip
	// get viewbox

	var root = svgDocument.documentElement;
	var vbox = (root.getAttribute("viewBox")).split(' ');
	var x0 = parseFloat(vbox[0]);
	var y0 = parseFloat(vbox[1]);
	var vboxW = parseFloat(vbox[2]);
	var vboxH = parseFloat(vbox[3]);

	// get default width of svg

	var strW = root.getAttribute("width");
	var svgW = parseFloat(strW);
	if(strW.indexOf('mm') != -1)
	svgW *= 3.779;

	var strH = root.getAttribute("height");
	var svgH = parseFloat(strH);
	if(strH.indexOf('mm') != -1)
	svgH *= 3.779;  	// 96 dpi  -> 96/25.4 = 3.779

	// update the viewbox / width / height if svg is embedded in html with zoom fit all
	var realx0 = x0;
	var realy0 = y0;
	var realvboxW = vboxW;
	var realvboxH = vboxH;
	var realsvgW = svgW;
	var realsvgH = svgH;

	if ((typeof(top) == "undefined") || (typeof(top.svgctl1) != "undefined")) // embedded in html
	{
		// get window size in pxl

		svgW = window.innerWidth;
		svgH = window.innerHeight;

		// calculate real viewbox

		realsvgW = svgW;
		realsvgH = svgH;
		if((svgW / svgH) > (vboxW / vboxH))
		{
			realvboxW = (vboxH * svgW) / svgH;
			realvboxH = vboxH;
			realx0 = x0 - (realvboxW - vboxW)/2 ;
		}
		else
		{
			realvboxH = (vboxW * svgH) / svgW;
			realvboxW = vboxW;
			realy0 = y0 - (realvboxH - vboxH)/2 ;
		}
	}

	// get user zoom/pan

	var newScale = root.currentScale;
	var translation = root.currentTranslate;

	// transform pxl to user unit

	var xPos = (((evt.clientX+10- translation.x)/newScale) * realvboxW)/realsvgW  + realx0 ;
	var yPos = (((evt.clientY+5- translation.y)/newScale) * realvboxH)/ realsvgH  + realy0 ;
	var scaleForWidth = ( (1 / newScale) * realvboxH) / realsvgH;

	// move tooltip

	toolTip.setAttribute("transform", "translate(" + xPos + "," + yPos + ")" );

	// resize tooltip

	var fontsize = 12;
	tiptext.setAttribute("font-size",fontsize*scaleForWidth);
	tiptext.setAttribute("y", fontsize*scaleForWidth);
	var tipBG = svgDocument.getElementById('ToolTipBG');
	var outline = tiptext.getBBox();
	if(tipBG)
	{
		tipBG.setAttribute("stroke-width", 1*scaleForWidth);
		tipBG.setAttribute("width", Number(outline.width) );
		tipBG.setAttribute("height", Number(outline.height) + fontsize*.5*scaleForWidth );
	}
	var ToolTipShadow = svgDocument.getElementById('ToolTipShadow');
	if(ToolTipShadow)
	{
		ToolTipShadow.setAttribute("width", Number(outline.width) );
		ToolTipShadow.setAttribute("height", Number(outline.height) + fontsize*.5*scaleForWidth );
		ToolTipShadow.setAttribute("x", 3*scaleForWidth);
		ToolTipShadow.setAttribute("y", 3*scaleForWidth);
	}
}
function ShowPaper()
{
  var svgDocument = getDocument();
  var paper = svgDocument.getElementById("paperID");
  if(paper)
  {
    paper.setAttribute("transform","scale(1)");
    paper.setAttribute("opacity","1");
    paper.setAttribute("visibility","visible");
  }
  var svg = svgDocument.getRootElement();
  if(svg)
  {
    svg.setAttribute("width","220.000mm");
    svg.setAttribute("height","160.000mm");
    svg.setAttribute("viewBox","-5.000000 -5.000000 220.000000 160.000000");
  }
}
]]></script><defs/><g><path style="fill:#ffffff" d="M209.93,149.99L0.04,149.99L0.04,0.04L209.93,0.04z"/><path style="fill:#2ac7ce" d="M61.16,70.75L61.16,71.30L58.59,72.79L57.62,72.77L55.96,71.76L55.96,71.30L58.84,69.60L59.13,69.60z"/><path style="fill:#2ac7ce" d="M83.10,76.03L83.20,78.11L83.46,78.36L84.21,78.74L84.95,78.74L85.25,78.53L85.30,76.54L87.39,77.47L108.42,89.63L108.52,90.04L115.90,94.33L116.54,94.31L137.19,106.23L138.95,107.51L139.85,108.77L140.10,109.78L140.10,111.72L139.85,112.73L139.09,113.88L137.90,114.84L108.26,131.95L106.36,132.84L104.75,133.26L103.32,133.47L100.06,133.47L99.04,133.35L97.02,132.84L95.12,131.95L94.36,131.57L94.23,130.81L90.70,128.79L90.32,128.98L90.06,129.05L76.74,121.31L73.58,119.53L63.57,113.71L62.57,113.19L50.35,106.15L50.28,105.46L46.84,103.43L46.55,103.43L46.41,103.56L45.95,103.58L44.70,102.80L43.56,101.91L42.78,100.79L42.53,99.77L42.53,97.91L42.79,96.78L43.76,95.46L45.95,93.98L56.17,88.10L57.06,87.98L62.82,84.61L62.90,84.19L69.66,80.33L69.77,82.54L69.91,82.78L70.66,83.18L71.65,83.18L71.80,83.08L71.93,79.53L72.19,78.79L72.35,78.67L72.71,78.54L74.45,77.49L74.48,77.42L78.31,76.13L81.43,75.95z"/><path style="fill:#2ac7ce" d="M92.85,135.24L92.85,135.68L90.15,137.28L89.41,137.28L87.65,136.26L87.65,135.67L90.38,134.10L90.94,134.10z"/><path style="fill:#95dce0" d="M123.75,13.35L123.76,13.90L115.73,16.90L105.52,22.79L105.26,22.87L103.23,21.71L103.19,20.82L113.83,14.74L120.92,12.07L121.61,12.07z"/><path style="fill:#0000ff" d="M84.37,73.01L85.00,73.90L85.24,74.55L85.30,76.54L85.25,78.53L84.95,78.74L84.21,78.74L83.46,78.36L83.20,78.11L83.10,76.03L83.09,74.67L82.53,74.68L78.31,76.13L74.48,77.42L73.41,77.72L72.57,78.27L72.35,78.67L72.19,78.79L71.93,79.53L71.80,83.08L71.65,83.18L70.66,83.18L69.91,82.78L69.77,82.54L69.66,80.33L69.77,78.13L70.35,76.94L71.38,75.94L72.91,75.32L81.77,72.40L83.21,72.40z"/><path style="fill:#0000ff" d="M86.76,114.47L93.60,118.39L94.99,119.28L95.51,119.91L96.18,120.92L96.39,121.69L96.39,125.79L96.09,126.24L94.96,126.63L94.22,126.64L93.98,126.50L93.86,122.70L93.24,121.42L92.75,120.99L92.21,120.55L85.62,116.74L85.55,118.74L85.50,119.33L85.31,119.65L84.57,120.18L83.93,120.30L83.21,120.30L83.08,120.17L82.98,117.21L83.08,116.02L83.55,115.10L84.09,114.63L84.94,114.21L86.00,114.21z"/><path style="fill:#8aa7bf" d="M126.31,24.75L126.16,25.42L118.78,28.17L109.13,33.73L110.84,34.76L111.73,35.39L111.73,36.08L108.76,37.80L107.87,38.43L104.74,47.97L104.64,50.91L104.08,51.25L103.74,51.25L100.45,49.33L100.02,49.33L99.94,63.70L99.52,64.04L98.92,64.04L95.00,61.75L94.61,61.13L94.49,46.55L94.00,45.64L90.42,43.51L89.92,42.88L89.92,39.36L92.97,30.12L93.35,29.49L97.23,27.28L97.79,27.28L100.56,28.81L101.30,28.82L110.67,23.36L118.14,20.57L119.20,20.56z"/><path style="fill:#8aa7bf" d="M83.46,43.12L84.87,44.00L88.03,49.96L87.99,52.77L87.61,53.15L86.87,53.15L83.58,51.21L83.42,51.22L83.34,65.34L83.21,65.72L82.79,66.07L82.32,66.07L78.40,63.77L78.01,63.28L77.88,62.90L77.77,48.31L77.14,47.54L74.61,46.04L72.31,47.35L70.63,48.20L69.39,48.20L67.64,47.29L63.07,44.64L62.93,44.40L62.94,43.42L64.08,42.66L68.63,40.00L68.38,39.70L66.35,38.57L66.09,38.33L66.11,37.59L69.73,35.52L70.29,35.52z"/><path style="fill:#01ff02" d="M113.38,26.57L113.06,26.57L113.06,26.40L113.38,26.40z"/><path style="fill:#01ff02" d="M105.79,31.00L105.32,31.00L105.32,30.84L105.79,30.84z"/><path style="fill:#01ff02" d="M59.19,70.10L58.81,70.07L58.82,70.00L59.28,69.98z"/><path style="fill:#01ff02" d="M58.30,72.38L57.93,72.35L57.94,72.28L58.39,72.26z"/><path style="fill:#01ff02" d="M68.90,83.68L68.87,83.92L68.24,83.92L68.21,83.68L68.64,83.53z"/><path style="fill:#01ff02" d="M66.74,84.95L66.71,85.19L66.09,85.19L66.05,84.95L66.49,84.80z"/><path style="fill:#01ff02" d="M53.42,92.21L54.08,92.17L54.08,92.45L53.42,92.42z"/><path style="fill:#01ff02" d="M51.94,93.56L51.93,93.72L51.22,93.72L51.26,93.48L51.80,93.42z"/><path style="fill:#01ff02" d="M127.07,117.27L127.06,117.41L126.90,117.53L126.53,117.53L126.37,117.41L126.41,117.17L126.80,117.11z"/><path style="fill:#01ff02" d="M124.80,118.51L124.74,118.78L124.25,118.78L124.25,118.43L124.66,118.37z"/><path style="fill:#01ff02" d="M112.24,125.86L112.20,126.00L111.58,125.99L111.54,125.75L112.12,125.74z"/><path style="fill:#01ff02" d="M110.09,127.12L110.05,127.26L109.38,127.30L109.38,127.02L109.97,127.00z"/><path style="fill:#01ff02" d="M90.83,134.52L90.37,134.48L90.50,134.34L90.83,134.36z"/><path style="fill:#01ff02" d="M89.94,136.80L89.48,136.76L89.61,136.62L89.94,136.64z"/><path style="fill:#2ac7ce" d="M61.92,74.81L61.88,78.61L57.70,81.02L57.24,81.01L54.28,79.28L54.32,78.52L58.64,76.07L59.26,76.47L59.51,76.51L59.63,75.72L60.10,75.18L61.25,74.54z"/><path style="fill:#2ac7ce" d="M47.11,83.41L47.11,87.15L42.92,89.57L42.66,89.65L39.49,87.86L39.49,87.14L43.76,84.68L43.93,84.68L44.70,85.11L44.81,84.34L45.19,83.84L46.60,83.04z"/><path style="fill:#2ac7ce" d="M140.23,120.05L140.32,123.25L142.89,124.73L142.90,125.42L138.67,127.91L138.47,127.90L135.42,126.12L135.38,122.20L136.77,121.42L136.94,121.42L137.58,121.80L137.83,122.25L137.96,120.98L138.29,120.55L139.56,119.78L139.85,119.78z"/><path style="fill:#2ac7ce" d="M125.41,128.53L125.53,131.83L128.19,133.35L128.21,133.91L123.97,136.40L123.63,136.40L120.55,134.66L120.59,130.73L121.81,130.04L122.24,130.04L122.86,130.44L123.00,130.87L123.12,129.58L123.59,129.04L124.91,128.28z"/><path style="fill:#ffffff" d="M108.07,28.04L108.02,28.30L107.26,28.31L107.11,28.16L107.36,27.91L107.94,27.91z"/><path style="fill:#ffffff" d="M111.37,29.95L111.35,30.11L110.40,30.11L110.44,29.87L111.23,29.81z"/><path style="fill:#ffffff" d="M92.60,42.87L92.59,43.17L92.21,43.13L92.07,42.88L92.04,42.36L92.20,42.34z"/><path style="fill:#ffffff" d="M67.38,43.90L67.39,44.18L66.47,44.14L66.47,43.94L66.69,43.75L67.12,43.75z"/><path style="fill:#ffffff" d="M70.69,45.78L70.67,45.95L70.52,46.05L69.89,46.05L69.73,45.95L69.76,45.71L70.56,45.65z"/><path style="fill:#ffffff" d="M102.74,48.70L102.73,49.00L102.35,48.96L102.20,48.71L102.22,48.22L102.35,48.19z"/><path style="fill:#ffffff" d="M85.62,50.46L85.88,50.99L85.83,51.24L85.62,51.25L85.19,50.45L85.37,50.35z"/><path style="fill:#ffffff" d="M58.83,70.15L58.81,70.07L59.19,70.10z"/><path style="fill:#ffffff" d="M59.79,70.98L59.91,71.30L59.53,71.70L58.97,71.89L58.11,71.90L57.50,71.63L57.19,71.25L57.70,70.75L58.08,70.62L59.01,70.62z"/><path style="fill:#ffffff" d="M57.94,72.44L57.93,72.35L58.30,72.38z"/><path style="fill:#ffffff" d="M83.10,76.03L81.43,75.95L78.31,76.13L82.53,74.68L83.09,74.67z"/><path style="fill:#ffffff" d="M74.45,77.49L72.71,78.54L72.35,78.67L72.57,78.27L73.41,77.72L74.48,77.42z"/><path style="fill:#ffffff" d="M56.86,79.11L56.61,79.13L56.08,78.84L56.05,78.72L56.20,78.72z"/><path style="fill:#ffffff" d="M42.16,87.73L41.91,87.74L41.38,87.46L41.35,87.34L41.50,87.33z"/><path style="fill:#ffffff" d="M89.80,88.36L90.93,89.00L93.10,89.50L95.25,90.39L98.54,92.29L99.81,92.93L102.99,94.81L109.31,98.50L112.87,100.52L116.15,102.43L118.56,104.08L119.97,105.98L119.70,107.28L118.83,108.57L117.44,109.71L112.16,112.80L111.98,113.25L106.47,116.50L105.85,116.48L101.80,118.78L99.01,120.17L96.18,120.92L95.51,119.91L94.99,119.28L93.60,118.39L86.76,114.47L86.00,114.21L84.94,114.21L84.09,114.63L83.55,115.10L83.08,116.02L82.98,117.21L79.92,115.47L79.28,115.49L71.90,111.21L71.80,110.80L64.85,106.72L63.32,105.59L62.44,104.32L62.13,102.94L62.51,101.67L63.64,100.26L65.43,99.01L66.31,98.49L66.74,98.49L66.99,98.64L67.37,98.54L78.35,92.17L78.52,91.45L81.77,89.63L83.68,88.87L85.83,88.36L87.48,88.24L89.29,88.24z"/><path style="fill:#ffffff" d="M92.21,120.55L92.75,120.99L90.43,120.68L88.15,120.05L85.55,118.74L85.62,116.74z"/><path style="fill:#ffffff" d="M141.25,125.25L140.86,125.25L140.07,124.72L140.35,124.72z"/><path style="fill:#ffffff" d="M138.98,126.51L138.72,126.52L137.94,126.10L137.91,125.99L138.06,125.98z"/><path style="fill:#ffffff" d="M125.67,133.34L125.83,133.56L125.11,133.21L125.40,133.21z"/><path style="fill:#ffffff" d="M126.30,133.74L125.91,133.73L125.83,133.56z"/><path style="fill:#ffffff" d="M123.42,134.70L123.10,134.62L122.96,134.47L123.25,134.47z"/><path style="fill:#ffffff" d="M124.14,135.00L123.75,135.01L123.42,134.70z"/><path style="fill:#ffffff" d="M91.46,135.49L91.46,135.93L90.90,136.27L89.41,136.27L88.91,135.87L88.91,135.55L89.25,135.25L89.63,135.12L90.82,135.11z"/><path style="stroke:#000000;stroke-width:0.088" d="M42.72,100.53L42.77,100.76L43.67,102.01L45.10,103.08L45.10,101.82L43.67,100.74L43.52,100.53L42.77,99.49L42.46,98.14L42.46,99.41L42.72,100.53"/><path style="stroke:#000000;stroke-width:0.088" d="M42.46,98.14L42.77,96.80L43.53,95.74L43.67,95.55L45.10,94.47L56.23,88.04L56.89,88.04L62.92,84.56L76.14,92.19L76.14,92.57L74.26,93.66L70.11,96.05L70.11,95.67L65.01,98.62L63.41,99.82L62.40,101.23L62.06,102.74L62.10,102.93L62.40,104.24L63.41,105.65L65.01,106.85L71.89,110.83L71.89,111.21L66.30,114.44L66.30,114.06L45.10,101.82"/><path style="stroke:#000000;stroke-width:0.088" d="M73.73,119.55L73.68,119.58L66.77,115.59L66.77,115.53L64.28,114.10L63.47,113.63L63.47,113.69L50.31,106.09L50.31,105.46L46.14,103.05L46.14,103.69L45.10,103.08"/><path style="stroke:#000000;stroke-width:0.088" d="M45.51,100.43L45.50,100.45L45.54,100.64L45.68,100.82L45.91,100.96L46.21,101.05L46.55,101.08L46.88,101.04L47.11,100.97L47.17,100.95L47.39,100.80L47.52,100.62L47.54,100.43L47.45,100.24L47.26,100.08L46.99,99.96L46.67,99.90L46.34,99.91L46.02,99.97L45.80,100.07L45.58,100.26L45.51,100.43"/><path style="stroke:#000000;stroke-width:0.088" d="M46.14,103.69L46.69,103.37"/><path style="stroke:#000000;stroke-width:0.088" d="M46.05,101.00L46.01,100.89L46.05,100.79L46.14,100.71L46.27,100.65L46.43,100.62L46.60,100.61L46.76,100.64L46.90,100.70L46.99,100.78L47.03,100.88L47.02,100.97L47.00,101.00"/><path style="stroke:#000000;stroke-width:0.088" d="M51.90,93.71L51.96,93.67L52.02,93.58L52.03,93.49L51.99,93.41L51.91,93.34L51.78,93.28L51.64,93.26L51.48,93.26L51.34,93.29L51.24,93.33L51.14,93.42L51.11,93.50L51.12,93.59L51.19,93.67L51.29,93.74L51.43,93.78L51.58,93.79L51.73,93.77L51.85,93.73L51.90,93.71L51.95,93.64L51.96,93.56L51.92,93.49L51.85,93.43L51.72,93.38L51.50,93.36L51.30,93.43L51.21,93.50L51.18,93.57L51.20,93.64L51.29,93.74"/><path style="stroke:#000000;stroke-width:0.088" d="M53.38,92.41L53.32,92.33L53.30,92.24L53.33,92.15L53.44,92.06L53.53,92.02L53.68,91.99L53.83,91.99L53.98,92.02L54.10,92.07L54.19,92.14L54.23,92.23L54.22,92.32L54.15,92.40L54.05,92.47L53.92,92.51L53.77,92.52L53.62,92.51L53.49,92.47L53.38,92.41"/><path style="stroke:#000000;stroke-width:0.088" d="M54.05,92.47L54.09,92.44L54.14,92.37L54.15,92.30L54.12,92.22L54.04,92.16L53.94,92.12L53.82,92.10L53.69,92.10L53.49,92.16L53.41,92.23L53.38,92.30L53.39,92.38L53.44,92.44L53.50,92.47"/><path style="stroke:#000000;stroke-width:0.088" d="M56.89,88.04L70.11,95.67"/><path style="stroke:#000000;stroke-width:0.088" d="M65.01,98.62L65.01,99.25L63.41,100.46L62.40,101.86L62.13,103.05"/><path style="stroke:#000000;stroke-width:0.088" d="M76.14,92.57L62.92,84.94L62.92,84.18L69.65,80.29"/><path style="stroke:#000000;stroke-width:0.088" d="M63.53,113.66L63.47,113.69"/><path style="stroke:#000000;stroke-width:0.088" d="M65.01,99.25L67.09,98.05L67.09,98.68L78.39,92.16L78.39,91.53L81.24,89.88L81.24,89.25L83.33,88.32L85.76,87.74L88.37,87.54L90.98,87.74L93.42,88.32L95.50,89.25L95.50,90.51L93.42,89.59L90.89,88.99L89.64,88.27"/><path style="stroke:#000000;stroke-width:0.088" d="M66.66,85.18L66.76,85.12L66.83,85.03L66.84,84.94L66.80,84.86L66.71,84.79L66.59,84.73L66.45,84.71L66.27,84.71L66.15,84.74L66.03,84.79L65.95,84.87L65.91,84.95L65.93,85.04L65.99,85.12L66.10,85.19L66.00,85.09L65.99,85.02L66.02,84.95L66.09,84.89L66.19,84.84L66.31,84.81L66.43,84.81L66.56,84.84L66.66,84.88L66.73,84.94L66.76,85.01L66.76,85.09L66.71,85.15L66.66,85.18L66.54,85.22L66.39,85.24L66.24,85.23L66.10,85.19"/><path style="stroke:#000000;stroke-width:0.088" d="M66.30,114.44L74.14,118.96L74.14,118.58L95.34,130.82L95.34,132.09L97.21,132.91L99.38,133.43L101.70,133.61L104.03,133.43L106.20,132.91L108.07,132.09L108.07,130.82L119.20,124.39L119.20,124.01L105.98,116.38L100.88,119.33L98.79,120.25L96.36,120.83L96.12,120.85"/><path style="stroke:#000000;stroke-width:0.088" d="M66.30,114.06L71.89,110.83"/><path style="stroke:#000000;stroke-width:0.088" d="M66.88,111.70L66.87,111.74L66.90,111.93L67.04,112.11L67.28,112.25L67.58,112.34L67.91,112.37L68.24,112.33L68.53,112.23L68.76,112.09L68.89,111.91L68.91,111.71L68.82,111.53L68.63,111.37L68.36,111.25L68.04,111.19L67.70,111.19L67.38,111.26L67.17,111.36L66.94,111.55L66.88,111.70"/><path style="stroke:#000000;stroke-width:0.088" d="M66.54,98.37L67.09,98.68"/><path style="stroke:#000000;stroke-width:0.088" d="M68.37,112.29L68.39,112.26L68.40,112.16L68.35,112.07L68.26,111.99L68.12,111.93L67.96,111.90L67.79,111.90L67.64,111.94L67.51,112.00L67.42,112.08L67.38,112.18L67.41,112.29"/><path style="stroke:#000000;stroke-width:0.088" d="M68.85,83.92L68.96,83.85L69.02,83.78L69.03,83.68L68.99,83.59L68.91,83.52L68.78,83.47L68.64,83.44L68.49,83.44L68.34,83.47L68.22,83.53L68.14,83.60L68.11,83.69L68.12,83.78L68.19,83.86L68.29,83.92L68.43,83.96L68.58,83.97L68.73,83.96L68.85,83.92L68.90,83.89L68.95,83.82L68.96,83.75L68.92,83.67L68.85,83.61L68.72,83.56L68.50,83.55L68.30,83.61L68.21,83.68L68.18,83.75L68.20,83.83L68.29,83.92"/><path style="stroke:#000000;stroke-width:0.088" d="M70.14,93.76L70.01,93.70L69.86,93.68L69.70,93.68L69.55,93.70L69.42,93.76L69.33,93.83L69.28,93.92L69.28,94.01L69.33,94.10L69.42,94.17L70.52,94.80L70.65,94.86L70.80,94.88L70.96,94.88L71.11,94.86L71.23,94.80L71.23,94.39L70.14,93.76L70.14,94.58"/><path style="stroke:#000000;stroke-width:0.088" d="M71.37,113.75L71.50,113.70L71.65,113.67L71.81,113.67L71.96,113.70L72.09,113.75L72.18,113.83L72.23,113.91L72.23,114.01L72.17,114.10L72.09,114.17L70.99,114.80L70.86,114.85L70.71,114.88L70.55,114.88L70.40,114.85L70.28,114.80L70.18,114.73L70.13,114.64L70.13,114.55L70.18,114.46L70.27,114.40L71.37,113.75L71.37,114.58"/><path style="stroke:#000000;stroke-width:0.088" d="M70.27,114.40L70.28,114.80"/><path style="stroke:#000000;stroke-width:0.088" d="M70.13,114.59L70.13,114.64"/><path style="stroke:#000000;stroke-width:0.088" d="M71.23,94.80L71.33,94.73L71.37,94.64L71.37,94.55L71.33,94.47L71.23,94.39"/><path style="stroke:#000000;stroke-width:0.088" d="M71.89,111.21L79.41,115.54"/><path style="stroke:#000000;stroke-width:0.088" d="M73.97,93.22L74.07,93.15L74.12,93.06L74.12,92.97L74.07,92.88L73.97,92.81L73.97,93.22L73.85,93.27L73.70,93.30L73.54,93.30L73.39,93.27L73.26,93.22L72.17,92.59L72.07,92.51L72.02,92.43L72.02,92.34L72.07,92.25L72.16,92.17L72.29,92.12L72.44,92.09L72.60,92.09L72.75,92.12L72.88,92.17L72.88,93.00"/><path style="stroke:#000000;stroke-width:0.088" d="M72.16,78.85L74.60,77.43L75.63,76.98"/><path style="stroke:#000000;stroke-width:0.088" d="M73.37,116.49L73.42,116.59L73.51,116.67L73.64,116.72L73.79,116.75L73.95,116.75L74.10,116.72L74.22,116.67L75.32,116.03L75.41,115.96L75.46,115.87L75.46,115.78L75.41,115.70L75.32,115.62L75.19,115.57L75.04,115.54L74.89,115.54L74.74,115.57L74.61,115.62L73.51,116.26L73.42,116.33L73.37,116.42L73.37,116.49"/><path style="stroke:#000000;stroke-width:0.088" d="M72.88,92.17L73.97,92.81"/><path style="stroke:#000000;stroke-width:0.088" d="M73.46,80.02L73.43,80.05L73.38,80.18L73.40,80.31L73.50,80.44L73.66,80.53L73.87,80.59L74.10,80.61L74.33,80.59L74.53,80.52L74.68,80.42L74.77,80.30L74.79,80.16L74.72,80.03L74.59,79.92L74.41,79.84L74.19,79.80L73.95,79.80L73.73,79.85L73.55,79.94L73.46,80.02"/><path style="stroke:#000000;stroke-width:0.088" d="M95.34,132.09L94.30,131.49L94.30,130.85L91.03,128.96L90.13,128.46L90.13,129.08L76.97,121.48L76.97,121.42L73.68,119.52L73.68,119.58"/><path style="stroke:#000000;stroke-width:0.088" d="M82.95,117.21L79.74,115.35L74.14,118.58"/><path style="stroke:#000000;stroke-width:0.088" d="M73.51,116.67L73.51,116.26"/><path style="stroke:#000000;stroke-width:0.088" d="M73.75,80.56L73.73,80.48L73.76,80.42L73.82,80.36L73.99,80.30L74.13,80.30L74.24,80.32L74.34,80.36L74.40,80.41L74.43,80.48L74.41,80.56"/><path style="stroke:#000000;stroke-width:0.088" d="M73.52,78.99L73.50,79.03L73.53,79.22L73.68,79.40L73.91,79.54L74.21,79.63L74.54,79.66L74.87,79.62L75.17,79.52L75.39,79.38L75.52,79.20L75.54,79.00L75.45,78.82L75.26,78.66L74.99,78.54L74.67,78.48L74.33,78.48L74.02,78.55L73.80,78.65L73.58,78.84L73.52,78.99"/><path style="stroke:#000000;stroke-width:0.088" d="M74.04,79.58L74.01,79.47L74.05,79.37L74.14,79.29L74.26,79.23L74.43,79.19L74.60,79.19L74.76,79.22L74.89,79.28L74.99,79.36L75.03,79.45L75.02,79.55L75.00,79.58"/><path style="stroke:#000000;stroke-width:0.088" d="M74.26,77.91L74.31,77.77L74.43,77.66L74.61,77.57L74.83,77.52L75.06,77.52L75.28,77.56L75.47,77.64L75.60,77.75L75.66,77.88L75.65,78.02L75.56,78.14L75.48,78.19L75.41,78.24L75.20,78.31L74.97,78.33L74.75,78.31L74.54,78.25L74.38,78.16L74.28,78.03L74.26,77.91"/><path style="stroke:#000000;stroke-width:0.088" d="M74.61,115.62L74.61,116.45"/><path style="stroke:#000000;stroke-width:0.088" d="M74.63,78.28L74.61,78.20L74.64,78.14L74.70,78.08L74.79,78.04L74.90,78.02L75.01,78.02L75.19,78.07L75.28,78.13L75.31,78.20L75.29,78.28"/><path style="stroke:#000000;stroke-width:0.088" d="M76.14,92.19L81.24,89.25"/><path style="stroke:#000000;stroke-width:0.088" d="M77.45,118.12L77.25,118.00L77.10,117.82L77.07,117.63L77.15,117.44L77.32,117.27L77.59,117.15L77.90,117.08L78.24,117.08L78.56,117.14L78.83,117.26L79.02,117.42L79.11,117.60L79.09,117.80L78.96,117.98L78.74,118.12L78.44,118.22L78.11,118.26L77.78,118.23L77.45,118.12"/><path style="stroke:#000000;stroke-width:0.088" d="M83.09,76.07L80.97,75.91L78.64,76.09L77.44,76.38"/><path style="stroke:#000000;stroke-width:0.088" d="M77.61,118.18L77.58,118.06L77.62,117.97L77.71,117.89L77.84,117.83L78.00,117.79L78.17,117.79L78.33,117.82L78.46,117.88L78.56,117.96L78.60,118.05L78.59,118.15L78.57,118.18"/><path style="stroke:#000000;stroke-width:0.088" d="M81.24,89.88L83.33,88.95L85.76,88.37L88.37,88.17L90.89,88.36L90.89,88.99"/><path style="stroke:#000000;stroke-width:0.088" d="M85.31,76.57L85.46,76.61L87.33,77.43L108.53,89.67L108.53,90.05L116.04,94.39"/><path style="stroke:#000000;stroke-width:0.088" d="M92.80,120.96L91.14,120.83L88.71,120.25L86.62,119.33L85.52,118.69"/><path style="stroke:#000000;stroke-width:0.088" d="M90.13,129.08L90.68,128.76"/><path style="stroke:#000000;stroke-width:0.088" d="M108.07,130.82L106.19,131.65L104.03,132.17L101.70,132.34L99.38,132.17L97.21,131.65L96.23,131.27L95.34,130.82"/><path style="stroke:#000000;stroke-width:0.088" d="M95.50,90.51L99.56,92.85L99.56,92.79L101.41,93.86L102.85,94.69L102.85,94.75L109.76,98.74L109.76,98.68L113.05,100.58L113.05,100.64L117.11,102.99L117.11,101.72L118.71,102.93L119.72,104.33L120.07,105.84L119.72,107.34L118.72,108.75L117.11,109.95L112.01,112.90L125.23,120.53L125.23,120.91L112.01,113.28L106.31,116.57"/><path style="stroke:#000000;stroke-width:0.088" d="M95.50,89.25L102.39,93.22L102.39,93.60L107.00,96.26L110.23,98.13L110.23,97.75L117.11,101.72"/><path style="stroke:#000000;stroke-width:0.088" d="M96.53,131.25L96.50,131.11L96.55,130.98L96.70,130.85L96.86,130.78L97.08,130.74L97.31,130.73L97.53,130.78L97.72,130.86L97.85,130.97L97.91,131.10L97.89,131.23L97.80,131.35L97.65,131.45L97.41,131.52L97.22,131.55L96.99,131.53L96.78,131.46L96.62,131.37L96.53,131.25"/><path style="stroke:#000000;stroke-width:0.088" d="M96.88,131.49L96.86,131.42L96.88,131.35L96.94,131.30L97.03,131.25L97.26,131.23L97.37,131.25L97.46,131.29L97.52,131.34L97.55,131.41L97.53,131.49"/><path style="stroke:#000000;stroke-width:0.088" d="M97.41,130.57L97.33,130.56L97.04,130.47L96.80,130.33L96.66,130.15L96.62,129.96L96.70,129.77L96.88,129.61L97.14,129.48L97.41,129.43L97.79,129.41L98.11,129.47L98.37,129.58L98.57,129.75L98.66,129.94L98.64,130.13L98.51,130.31L98.29,130.46L98.00,130.55L97.67,130.59L97.41,130.57"/><path style="stroke:#000000;stroke-width:0.088" d="M98.12,130.51L98.14,130.48L98.15,130.39L98.11,130.29L97.98,130.20L97.88,130.15L97.72,130.12L97.51,130.13L97.39,130.16L97.26,130.22L97.17,130.30L97.13,130.40L97.16,130.51"/><path style="stroke:#000000;stroke-width:0.088" d="M97.40,128.97L97.38,128.83L97.43,128.70L97.55,128.59L97.74,128.50L97.95,128.46L98.20,128.46L98.41,128.50L98.59,128.58L98.72,128.69L98.79,128.82L98.77,128.95L98.68,129.07L98.53,129.17L98.33,129.24L98.19,129.26L98.10,129.27L97.87,129.25L97.66,129.18L97.50,129.09L97.40,128.97"/><path style="stroke:#000000;stroke-width:0.088" d="M97.75,129.21L97.74,129.14L97.76,129.07L97.82,129.02L97.99,128.96L98.13,128.95L98.24,128.97L98.34,129.01L98.40,129.06L98.43,129.13L98.41,129.21"/><path style="stroke:#000000;stroke-width:0.088" d="M99.56,92.85L99.62,92.82"/><path style="stroke:#000000;stroke-width:0.088" d="M102.39,93.60L108.53,90.05"/><path style="stroke:#000000;stroke-width:0.088" d="M102.39,93.22L108.53,89.67"/><path style="stroke:#000000;stroke-width:0.088" d="M103.80,91.48L103.72,91.47L103.42,91.38L103.19,91.24L103.04,91.06L103.01,90.87L103.08,90.68L103.26,90.52L103.52,90.39L103.84,90.33L104.18,90.32L104.50,90.38L104.60,90.43L104.77,90.50L104.96,90.66L105.05,90.85L105.04,90.96L105.03,91.04L104.90,91.22L104.68,91.37L104.38,91.46L104.05,91.50L103.80,91.48"/><path style="stroke:#000000;stroke-width:0.088" d="M103.55,91.42L103.52,91.31L103.56,91.21L103.65,91.13L103.80,91.06L103.94,91.03L104.10,91.03L104.26,91.06L104.37,91.11L104.49,91.20L104.54,91.29L104.53,91.39L104.51,91.42"/><path style="stroke:#000000;stroke-width:0.088" d="M106.80,93.30L107.73,92.76L107.86,92.71L108.01,92.68L108.17,92.68L108.32,92.71L108.45,92.76L108.54,92.83L108.59,92.92L108.59,93.01L108.54,93.10L108.45,93.17L107.51,93.71L107.39,93.76L107.24,93.79L107.08,93.79L106.93,93.76L106.80,93.71L106.80,93.30L106.71,93.37L106.66,93.46L106.66,93.55L106.71,93.64L106.80,93.71"/><path style="stroke:#000000;stroke-width:0.088" d="M107.73,93.58L107.73,92.76"/><path style="stroke:#000000;stroke-width:0.088" d="M108.07,132.09L137.57,115.05L137.57,113.78L125.89,120.53L125.89,120.91L125.23,120.91"/><path style="stroke:#000000;stroke-width:0.088" d="M109.96,117.16L110.05,117.08L110.10,117.00L110.10,116.91L110.05,116.82L109.96,116.75L109.96,117.16L109.83,117.21L109.68,117.24L109.52,117.24L109.37,117.21L109.24,117.16L108.15,116.52L108.05,116.45L108.00,116.36L108.00,116.27L108.05,116.19L108.15,116.11L108.27,116.06L108.42,116.03L108.59,116.03L108.73,116.06L108.86,116.11L108.86,116.94"/><path style="stroke:#000000;stroke-width:0.088" d="M109.31,127.22L109.25,127.14L109.25,127.05L109.29,126.97L109.38,126.89L109.46,126.86L109.65,126.82L109.81,126.82L109.95,126.85L110.07,126.91L110.14,126.99L110.18,127.07L110.16,127.16L110.09,127.24L109.98,127.30L109.84,127.34L109.69,127.35L109.54,127.33L109.41,127.29L109.31,127.22"/><path style="stroke:#000000;stroke-width:0.088" d="M110.01,127.29L110.08,127.22L110.10,127.14L110.07,127.07L110.01,127.01L109.92,126.96L109.80,126.93L109.66,126.93L109.54,126.95L109.44,126.99L109.36,127.05L109.33,127.12L109.33,127.19L109.38,127.26L109.42,127.29"/><path style="stroke:#000000;stroke-width:0.088" d="M108.86,116.11L109.96,116.75"/><path style="stroke:#000000;stroke-width:0.088" d="M109.76,98.74L109.82,98.71"/><path style="stroke:#000000;stroke-width:0.088" d="M110.04,95.58L109.94,95.50L109.89,95.42L109.89,95.33L109.94,95.24L110.04,95.17L110.04,95.58L110.16,95.63L110.31,95.66L110.47,95.66L110.62,95.63L110.75,95.58L111.68,95.04L111.77,94.97L111.82,94.88L111.82,94.79L111.77,94.70L111.68,94.63L111.55,94.57L111.40,94.55L111.25,94.55L111.10,94.57L110.97,94.63L110.97,95.45"/><path style="stroke:#000000;stroke-width:0.088" d="M110.04,95.17L110.97,94.63"/><path style="stroke:#000000;stroke-width:0.088" d="M109.89,95.39L109.89,95.42L109.89,95.37"/><path style="stroke:#000000;stroke-width:0.088" d="M111.60,114.53L112.70,115.16L112.70,115.57L112.57,115.63L112.42,115.66L112.26,115.66L112.11,115.63L111.99,115.57L110.89,114.94L110.80,114.87L110.75,114.78L110.75,114.69L110.80,114.60L110.89,114.53L111.02,114.48L111.17,114.45L111.32,114.45L111.47,114.48L111.60,114.53L111.60,115.35"/><path style="stroke:#000000;stroke-width:0.088" d="M110.23,97.75L116.37,94.20L137.57,106.44L139.00,107.51L139.90,108.77L140.21,110.11L139.90,111.46L139.72,111.70L139.00,112.71L137.57,113.78"/><path style="stroke:#000000;stroke-width:0.088" d="M111.73,126.07L111.88,126.09L112.04,126.08L112.23,126.01L112.35,125.89L112.37,125.81L112.34,125.72L112.26,125.64L112.14,125.59L112.00,125.55L111.79,125.56L111.70,125.58L111.58,125.63L111.49,125.70L111.44,125.78L111.45,125.87L111.50,125.95L111.60,126.02L111.73,126.07"/><path style="stroke:#000000;stroke-width:0.088" d="M112.20,126.02L112.27,125.95L112.29,125.88L112.27,125.80L112.20,125.74L112.11,125.69L111.99,125.66L111.86,125.66L111.73,125.68L111.63,125.72L111.56,125.78L111.52,125.85L111.52,125.93L111.57,126.00L111.62,126.03"/><path style="stroke:#000000;stroke-width:0.088" d="M112.01,112.90L112.01,113.28"/><path style="stroke:#000000;stroke-width:0.088" d="M111.82,94.79L111.82,94.87"/><path style="stroke:#000000;stroke-width:0.088" d="M112.70,115.16L112.79,115.24L112.84,115.32L112.84,115.41L112.79,115.50L112.70,115.57"/><path style="stroke:#000000;stroke-width:0.088" d="M113.24,96.95L113.21,96.76L113.29,96.57L113.32,96.54L113.51,96.38L113.73,96.28L114.04,96.22L114.38,96.21L114.70,96.27L114.98,96.40L115.16,96.55L115.25,96.74L115.23,96.93L115.10,97.11L114.88,97.26L114.58,97.35L114.25,97.39L113.86,97.34L113.62,97.27L113.39,97.13L113.24,96.95"/><path style="stroke:#000000;stroke-width:0.088" d="M114.71,97.31L114.73,97.28L114.74,97.18L114.70,97.09L114.60,97.01L114.47,96.95L114.31,96.92L114.14,96.92L113.98,96.96L113.85,97.02L113.76,97.10L113.72,97.20L113.75,97.31"/><path style="stroke:#000000;stroke-width:0.088" d="M117.11,102.99L118.71,104.19L119.74,105.65L119.90,105.74"/><path style="stroke:#000000;stroke-width:0.088" d="M119.20,124.39L119.20,124.77L125.89,120.91"/><path style="stroke:#000000;stroke-width:0.088" d="M119.99,106.15L119.75,105.01L119.74,105.65"/><path style="stroke:#000000;stroke-width:0.088" d="M124.50,118.80L124.65,118.79L124.79,118.75L124.90,118.69L124.96,118.61L124.98,118.52L124.95,118.44L124.87,118.36L124.76,118.30L124.56,118.27L124.46,118.27L124.31,118.29L124.19,118.34L124.10,118.42L124.06,118.50L124.06,118.59L124.12,118.67L124.22,118.74L124.35,118.78L124.50,118.80"/><path style="stroke:#000000;stroke-width:0.088" d="M124.23,118.74L124.18,118.71L124.14,118.64L124.13,118.57L124.17,118.50L124.24,118.44L124.35,118.40L124.47,118.38L124.60,118.38L124.72,118.41L124.82,118.46L124.88,118.52L124.90,118.59L124.89,118.67L124.82,118.74"/><path style="stroke:#000000;stroke-width:0.088" d="M125.23,120.53L125.89,120.53"/><path style="stroke:#000000;stroke-width:0.088" d="M126.26,117.32L126.31,117.41L126.41,117.47L126.54,117.52L126.69,117.54L126.84,117.53L127.04,117.46L127.16,117.34L127.18,117.26L127.14,117.17L127.07,117.09L126.96,117.04L126.81,117.00L126.65,117.00L126.51,117.03L126.38,117.08L126.29,117.15L126.25,117.23L126.26,117.32"/><path style="stroke:#000000;stroke-width:0.088" d="M127.01,117.47L127.08,117.40L127.10,117.33L127.07,117.25L127.01,117.19L126.92,117.14L126.79,117.11L126.66,117.11L126.54,117.13L126.44,117.17L126.36,117.23L126.33,117.30L126.33,117.38L126.38,117.45L126.43,117.48"/><path style="stroke:#000000;stroke-width:0.088" d="M133.85,114.10L133.90,114.16L134.13,114.31L134.43,114.39L134.77,114.42L135.10,114.39L135.39,114.29L135.61,114.14L135.74,113.97L135.76,113.77L135.68,113.58L135.49,113.42L135.22,113.31L134.89,113.25L134.56,113.25L134.24,113.32L134.02,113.41L133.80,113.61L133.72,113.79L133.76,113.99L133.85,114.10"/><path style="stroke:#000000;stroke-width:0.088" d="M134.27,114.34L134.24,114.23L134.27,114.14L134.36,114.05L134.49,113.99L134.65,113.96L134.82,113.96L134.98,113.99L135.12,114.05L135.21,114.13L135.26,114.22L135.24,114.32L135.22,114.35"/><path style="stroke:#000000;stroke-width:0.088" d="M137.57,115.05L139.00,113.97L139.90,112.72L140.21,111.38L140.21,110.11"/><path style="stroke:#000000;stroke-width:0.088" d="M61.23,71.08L61.23,71.16L61.18,71.24L61.10,71.31L58.47,72.83L58.47,72.58L58.35,72.63L58.29,72.64L58.21,72.65L58.06,72.65L57.93,72.63L57.81,72.58L56.05,71.57L55.97,71.50L55.92,71.42L55.92,71.33L55.92,71.61"/><path style="stroke:#000000;stroke-width:0.088" d="M58.47,72.83L58.35,72.88L58.21,72.91L58.06,72.91L57.93,72.88L57.81,72.83L56.05,71.82L55.97,71.75L55.92,71.67"/><path style="stroke:#000000;stroke-width:0.088" d="M56.05,71.82L56.05,71.57"/><path style="stroke:#000000;stroke-width:0.088" d="M58.47,72.58L61.10,71.06L61.18,70.99L61.23,70.91L61.23,70.83L61.18,70.75L61.10,70.68L59.34,69.67L59.22,69.62L59.09,69.59L58.94,69.59L58.80,69.62L58.68,69.67L58.29,69.89L56.05,71.19L55.97,71.25L55.92,71.33"/><path style="stroke:#000000;stroke-width:0.088" d="M59.94,71.25L59.93,71.19L59.76,70.95L59.45,70.75L59.06,70.62L58.60,70.57L58.15,70.61L57.74,70.73L57.42,70.92L57.23,71.16L57.21,71.25"/><path style="stroke:#000000;stroke-width:0.088" d="M57.18,71.17L57.23,70.91L57.42,70.67L57.74,70.48L58.15,70.35L58.60,70.32L59.06,70.37L59.45,70.50L59.76,70.69L59.94,70.94L59.96,71.20L59.84,71.46L59.58,71.68L59.21,71.84L58.78,71.92L58.32,71.91L57.89,71.82L57.59,71.69L57.53,71.66L57.29,71.43L57.18,71.17L57.18,71.17"/><path style="stroke:#000000;stroke-width:0.088" d="M57.81,72.83L57.81,72.58"/><path style="stroke:#000000;stroke-width:0.088" d="M57.90,72.38L57.90,72.37L57.92,72.39L57.97,72.41L58.07,72.44L58.17,72.44L58.27,72.42L58.35,72.39L58.41,72.34L58.44,72.29L58.44,72.23L58.41,72.17L58.34,72.13L58.26,72.10L58.16,72.08L58.05,72.09L57.96,72.11L57.89,72.16L57.84,72.21L57.83,72.27L57.85,72.32L57.90,72.37L57.93,72.39"/><path style="stroke:#000000;stroke-width:0.088" d="M57.95,72.37L58.04,72.34L58.14,72.34L58.24,72.35L58.32,72.37"/><path style="stroke:#000000;stroke-width:0.088" d="M58.35,72.39L58.30,72.36L58.22,72.33L58.14,72.32L58.06,72.33L57.98,72.35L57.97,72.36"/><path style="stroke:#000000;stroke-width:0.088" d="M57.93,72.39L57.98,72.35"/><path style="stroke:#000000;stroke-width:0.088" d="M57.94,72.40L57.90,72.36L57.88,72.31L57.89,72.26L57.93,72.22L57.93,72.22L57.99,72.18L58.07,72.16L58.15,72.16L58.23,72.17L58.30,72.19L58.31,72.20L58.32,72.20L58.36,72.23L58.39,72.28L58.39,72.33L58.36,72.37L58.33,72.40"/><path style="stroke:#000000;stroke-width:0.088" d="M57.92,72.39L57.92,72.39"/><path style="stroke:#000000;stroke-width:0.088" d="M58.30,72.36L58.30,72.36"/><path style="stroke:#000000;stroke-width:0.088" d="M58.79,70.11L58.77,70.09L58.72,70.04L58.70,69.99L58.72,69.93L58.76,69.87L58.84,69.83L58.93,69.81L59.03,69.80L59.13,69.82L59.22,69.85L59.28,69.89L59.32,69.95L59.32,70.01L59.29,70.06L59.23,70.11L59.14,70.14L59.05,70.16L58.94,70.16L58.85,70.13L58.79,70.11L58.80,70.11"/><path style="stroke:#000000;stroke-width:0.088" d="M59.20,70.09L59.12,70.07L59.02,70.06L58.92,70.07L58.83,70.09"/><path style="stroke:#000000;stroke-width:0.088" d="M58.80,70.11L58.86,70.07L58.94,70.05L59.02,70.04L59.10,70.05L59.18,70.08L59.22,70.11"/><path style="stroke:#000000;stroke-width:0.088" d="M59.21,70.12L59.24,70.09L59.27,70.05L59.27,70.00L59.24,69.95L59.19,69.92L59.18,69.92L59.11,69.89L59.03,69.88L58.95,69.88L58.87,69.90L58.81,69.94L58.77,69.98L58.76,70.03L58.77,70.08L58.81,70.12"/><path style="stroke:#000000;stroke-width:0.088" d="M58.81,70.11L58.77,70.09L58.81,70.12"/><path style="stroke:#000000;stroke-width:0.088" d="M58.76,70.03L58.76,70.03"/><path style="stroke:#000000;stroke-width:0.088" d="M61.10,71.06L61.10,71.31"/><path style="stroke:#000000;stroke-width:0.088" d="M61.23,71.16L61.23,70.91"/><path style="stroke:#000000;stroke-width:0.088" d="M87.68,136.03L89.43,137.04L89.55,137.09L89.69,137.11L89.84,137.11L89.97,137.09L90.09,137.04L92.72,135.52L92.81,135.45L92.86,135.37L92.86,135.29L92.81,135.21L92.72,135.14L90.97,134.13L90.85,134.08L90.71,134.05L90.57,134.05L90.43,134.08L90.31,134.13L87.68,135.65L87.59,135.71L87.55,135.79L87.55,135.88L87.59,135.96L87.68,136.03L87.68,136.28L87.59,136.21L87.55,136.13"/><path style="stroke:#000000;stroke-width:0.088" d="M87.55,135.79L87.55,136.07"/><path style="stroke:#000000;stroke-width:0.088" d="M87.68,136.28L89.43,137.29L89.55,137.34L89.69,137.37L89.84,137.37L89.97,137.34L90.09,137.29L90.09,137.04"/><path style="stroke:#000000;stroke-width:0.088" d="M89.43,136.25L89.21,136.15L89.16,136.12L88.91,135.89L88.81,135.63L88.86,135.37L89.05,135.13L89.37,134.94L89.78,134.81L90.23,134.78L90.68,134.82L91.08,134.96L91.39,135.15L91.56,135.40L91.59,135.66L91.47,135.92L91.21,136.14L90.84,136.30L90.40,136.38L89.94,136.37L89.51,136.28L89.43,136.25"/><path style="stroke:#000000;stroke-width:0.088" d="M91.57,135.71L91.56,135.65L91.39,135.41L91.08,135.21L90.68,135.08L90.23,135.03L89.78,135.07L89.37,135.19L89.05,135.38L88.86,135.62L88.84,135.71"/><path style="stroke:#000000;stroke-width:0.088" d="M88.81,135.63L88.81,135.63"/><path style="stroke:#000000;stroke-width:0.088" d="M90.09,137.29L92.72,135.77L92.81,135.70L92.86,135.62L92.86,135.54"/><path style="stroke:#000000;stroke-width:0.088" d="M89.43,137.29L89.43,137.04"/><path style="stroke:#000000;stroke-width:0.088" d="M89.53,136.84L89.52,136.83L89.54,136.85L89.60,136.87L89.69,136.90L89.79,136.90L89.89,136.88L89.98,136.85L90.04,136.80L90.07,136.75L90.07,136.69L90.03,136.63L89.97,136.59L89.88,136.56L89.78,136.54L89.68,136.55L89.59,136.57L89.51,136.61L89.47,136.67L89.45,136.73L89.47,136.78L89.52,136.83L89.56,136.85"/><path style="stroke:#000000;stroke-width:0.088" d="M89.58,136.83L89.67,136.80L89.77,136.80L89.87,136.81L89.95,136.83"/><path style="stroke:#000000;stroke-width:0.088" d="M89.55,136.85L89.61,136.81L89.68,136.79L89.77,136.78L89.85,136.79L89.92,136.82L89.97,136.85"/><path style="stroke:#000000;stroke-width:0.088" d="M89.61,136.81L89.59,136.82"/><path style="stroke:#000000;stroke-width:0.088" d="M89.56,136.86L89.52,136.82L89.51,136.77L89.52,136.72L89.55,136.68L89.56,136.68L89.62,136.64L89.70,136.62L89.78,136.62L89.86,136.63L89.92,136.65L89.93,136.66L89.94,136.66L89.99,136.69L90.01,136.74L90.02,136.79L89.99,136.83L89.96,136.86"/><path style="stroke:#000000;stroke-width:0.088" d="M89.54,136.85L89.55,136.85"/><path style="stroke:#000000;stroke-width:0.088" d="M90.42,134.57L90.48,134.59L90.57,134.62L90.67,134.62L90.77,134.60L90.85,134.57L90.92,134.52L90.95,134.47L90.94,134.41L90.91,134.35L90.85,134.31L90.76,134.28L90.66,134.26L90.56,134.27L90.47,134.29L90.39,134.33L90.34,134.39L90.33,134.45L90.35,134.50L90.40,134.55L90.42,134.57"/><path style="stroke:#000000;stroke-width:0.088" d="M90.46,134.55L90.55,134.52L90.65,134.52L90.75,134.53L90.83,134.55"/><path style="stroke:#000000;stroke-width:0.088" d="M90.43,134.57L90.49,134.53L90.56,134.51L90.65,134.50L90.73,134.51L90.80,134.54L90.85,134.57"/><path style="stroke:#000000;stroke-width:0.088" d="M90.84,134.58L90.87,134.55L90.89,134.51L90.89,134.46L90.86,134.41L90.82,134.38L90.81,134.38L90.74,134.35L90.66,134.34L90.65,134.34L90.57,134.34L90.50,134.36L90.43,134.40L90.40,134.44L90.38,134.49"/><path style="stroke:#000000;stroke-width:0.088" d="M90.38,134.49L90.40,134.54L90.44,134.58"/><path style="stroke:#000000;stroke-width:0.088" d="M90.43,134.57L90.40,134.55L90.43,134.57"/><path style="stroke:#000000;stroke-width:0.088" d="M92.72,135.77L92.72,135.52"/><path style="stroke:#000000;stroke-width:0.088" d="M92.86,135.37L92.86,135.62"/><path style="stroke:#000000;stroke-width:0.088" d="M103.15,21.61L105.35,22.88L105.35,22.12L103.15,20.85L103.15,21.61"/><path style="stroke:#000000;stroke-width:0.088" d="M103.15,20.85L113.47,14.89L113.72,14.77L115.91,16.04L123.39,13.25L123.55,13.22L123.69,13.26L121.49,11.99L121.36,11.95L121.19,11.98L123.39,13.25"/><path style="stroke:#000000;stroke-width:0.088" d="M105.35,22.88L115.64,16.93L115.78,16.87L123.81,13.86L123.83,13.72L123.84,13.52L123.79,13.36L123.69,13.26"/><path style="stroke:#000000;stroke-width:0.088" d="M105.35,22.12L115.66,16.16L113.47,14.89"/><path style="stroke:#000000;stroke-width:0.088" d="M105.30,21.10L105.52,21.13L105.75,21.12L105.96,21.06L106.13,20.97L106.24,20.85L106.27,20.72L106.23,20.58L106.11,20.47L105.94,20.38L105.73,20.33L105.49,20.32L105.27,20.35L105.08,20.43L104.94,20.54L104.87,20.66L104.87,20.80L104.95,20.92L105.07,21.01L105.10,21.03L105.30,21.10"/><path style="stroke:#000000;stroke-width:0.088" d="M105.90,21.08L105.91,21.01L105.89,20.95L105.84,20.89L105.75,20.84L105.64,20.82L105.53,20.81L105.42,20.83L105.40,20.84L105.32,20.87L105.26,20.92L105.22,20.99L105.22,21.05L105.24,21.08"/><path style="stroke:#000000;stroke-width:0.088" d="M112.59,16.42L112.55,16.37L112.55,16.23L112.62,16.10L112.76,16.00L112.85,15.96L112.95,15.92L113.17,15.88L113.40,15.89L113.62,15.94L113.79,16.03L113.91,16.15L113.95,16.28L113.92,16.41L113.81,16.53L113.64,16.63L113.43,16.68L113.20,16.70L112.97,16.67L112.78,16.60L112.74,16.58L112.63,16.49L112.59,16.42"/><path style="stroke:#000000;stroke-width:0.088" d="M112.74,16.58L112.75,16.58"/><path style="stroke:#000000;stroke-width:0.088" d="M112.92,16.65L112.90,16.62L112.90,16.55L112.93,16.49L113.00,16.44L113.10,16.40L113.21,16.38L113.32,16.39L113.38,16.40L113.43,16.41L113.51,16.45L113.57,16.51L113.59,16.58L113.58,16.64"/><path style="stroke:#000000;stroke-width:0.088" d="M113.72,14.77L121.19,11.98"/><path style="stroke:#000000;stroke-width:0.088" d="M115.66,16.16L115.91,16.04"/><path style="stroke:#000000;stroke-width:0.088" d="M135.88,125.73L138.62,127.31L138.62,127.95L135.33,126.05L135.33,122.25L135.88,122.56L135.88,125.73L140.27,123.20L140.27,120.03L139.72,119.71L138.21,120.58L137.88,121.15L138.43,121.47L138.43,122.36L138.42,122.49L138.36,122.64L138.29,122.77L138.19,122.89L138.08,122.97L137.97,123.02L137.87,123.02L137.79,122.97L137.74,122.89L137.72,122.77L137.72,121.88L136.84,121.38L135.33,122.25"/><path style="stroke:#000000;stroke-width:0.088" d="M135.88,122.56L137.39,121.69"/><path style="stroke:#000000;stroke-width:0.088" d="M139.42,126.51L139.42,126.09L139.51,126.17L139.56,126.25L139.56,126.34L139.51,126.43L139.42,126.51L139.29,126.56L139.14,126.59L138.98,126.59L138.83,126.56L138.71,126.50L137.39,125.75L137.30,125.67L137.25,125.58L137.25,125.49L137.30,125.41L137.39,125.33L137.52,125.28L137.67,125.25L137.83,125.25L137.98,125.28L138.10,125.33L138.10,125.97L137.98,125.91L137.83,125.89L137.67,125.89L137.64,125.89"/><path style="stroke:#000000;stroke-width:0.088" d="M138.10,125.97L139.17,126.58"/><path style="stroke:#000000;stroke-width:0.088" d="M138.10,125.33L139.42,126.09"/><path style="stroke:#000000;stroke-width:0.088" d="M137.72,122.48L137.74,122.46L137.82,122.32L137.87,122.18L137.88,122.04L138.43,122.36"/><path style="stroke:#000000;stroke-width:0.088" d="M137.88,122.04L137.88,121.15"/><path style="stroke:#000000;stroke-width:0.088" d="M138.62,127.95L143.01,125.41L143.01,124.78L138.62,127.31"/><path style="stroke:#000000;stroke-width:0.088" d="M138.43,121.47L138.76,120.90L138.21,120.58"/><path style="stroke:#000000;stroke-width:0.088" d="M138.76,120.90L140.27,120.03"/><path style="stroke:#000000;stroke-width:0.088" d="M139.56,126.25L139.56,126.32"/><path style="stroke:#000000;stroke-width:0.088" d="M140.30,124.07L140.17,124.01L140.02,123.99L139.86,123.99L139.71,124.01L139.58,124.07L139.49,124.14L139.44,124.23L139.44,124.32L139.49,124.40L139.58,124.48L140.90,125.24L141.03,125.29L141.18,125.32L141.34,125.32L141.49,125.29L141.61,125.24L141.71,125.16L141.76,125.08L141.76,124.99L141.71,124.90L141.61,124.83L140.30,124.07L140.30,124.70L141.36,125.31"/><path style="stroke:#000000;stroke-width:0.088" d="M140.30,124.70L140.17,124.65L140.02,124.62L139.86,124.62L139.84,124.62"/><path style="stroke:#000000;stroke-width:0.088" d="M140.27,123.20L143.01,124.78"/><path style="stroke:#000000;stroke-width:0.088" d="M141.61,124.83L141.61,125.24"/><path style="stroke:#000000;stroke-width:0.088" d="M39.43,87.78L42.72,89.68L42.72,85.88L42.17,85.56L42.17,88.73L39.43,87.14L39.43,87.78"/><path style="stroke:#000000;stroke-width:0.088" d="M39.43,87.14L43.81,84.61L44.72,85.13"/><path style="stroke:#000000;stroke-width:0.088" d="M42.17,87.87L42.14,87.86L40.83,87.10L40.73,87.02L40.72,87.00L40.68,86.94L40.68,86.84L40.73,86.76L40.83,86.68L40.95,86.63L41.10,86.60L41.26,86.60L41.41,86.63L41.54,86.68L42.17,87.05"/><path style="stroke:#000000;stroke-width:0.088" d="M41.54,86.68L41.54,87.32L41.41,87.26L41.26,87.24L41.10,87.24L41.08,87.24"/><path style="stroke:#000000;stroke-width:0.088" d="M41.54,87.32L42.17,87.68"/><path style="stroke:#000000;stroke-width:0.088" d="M42.72,85.88L44.23,85.01L43.68,84.69L42.17,85.56"/><path style="stroke:#000000;stroke-width:0.088" d="M42.72,89.68L47.10,87.14L47.10,83.34L46.56,83.03L45.05,83.90L44.72,84.47L45.27,84.78L45.27,85.67L45.25,85.81L45.20,85.95L45.12,86.09L45.02,86.20L44.91,86.29L44.80,86.33L44.70,86.33L44.62,86.29L44.57,86.20L44.55,86.08L44.55,85.20L44.23,85.01"/><path style="stroke:#000000;stroke-width:0.088" d="M44.55,85.79L44.57,85.77L44.65,85.64L44.70,85.49L44.72,85.35L45.27,85.67"/><path style="stroke:#000000;stroke-width:0.088" d="M44.72,85.35L44.72,84.47"/><path style="stroke:#000000;stroke-width:0.088" d="M45.27,84.78L45.60,84.21L47.10,83.34"/><path style="stroke:#000000;stroke-width:0.088" d="M45.05,83.90L45.60,84.21"/><path style="stroke:#000000;stroke-width:0.088" d="M54.23,78.99L54.23,79.23L57.52,81.13L57.52,77.33L56.98,77.01L56.98,80.18L54.23,78.59L54.23,78.99"/><path style="stroke:#000000;stroke-width:0.088" d="M54.23,78.59L58.62,76.06L59.53,76.58"/><path style="stroke:#000000;stroke-width:0.088" d="M56.98,78.50L56.34,78.13L56.22,78.08L56.07,78.05L55.91,78.05L55.76,78.08L55.63,78.13L55.56,78.19L55.54,78.21L55.49,78.29L55.49,78.39L55.54,78.47L55.63,78.55L56.95,79.31L56.98,79.32"/><path style="stroke:#000000;stroke-width:0.088" d="M55.88,78.69L55.91,78.69L56.07,78.69L56.22,78.71L56.34,78.77L56.98,79.13"/><path style="stroke:#000000;stroke-width:0.088" d="M56.34,78.77L56.34,78.13"/><path style="stroke:#000000;stroke-width:0.088" d="M56.98,77.01L58.48,76.14L59.03,76.46L57.52,77.33"/><path style="stroke:#000000;stroke-width:0.088" d="M57.52,81.13L61.91,78.59L61.91,74.79L61.36,74.48L59.85,75.35L60.40,75.66L60.07,76.23L60.07,77.12L59.53,76.80L59.51,76.94L59.46,77.09L59.38,77.22L59.36,77.24"/><path style="stroke:#000000;stroke-width:0.088" d="M59.03,76.46L59.36,76.65L59.36,77.53L59.38,77.65L59.43,77.74L59.51,77.78L59.61,77.78L59.72,77.74L59.83,77.65L59.93,77.54L60.01,77.40L60.06,77.26L60.07,77.12"/><path style="stroke:#000000;stroke-width:0.088" d="M59.53,76.80L59.53,75.92L59.85,75.35"/><path style="stroke:#000000;stroke-width:0.088" d="M59.53,75.92L60.07,76.23"/><path style="stroke:#000000;stroke-width:0.088" d="M60.40,75.66L61.91,74.79"/><path style="stroke:#000000;stroke-width:0.088" d="M121.08,134.28L123.82,135.86L128.21,133.33L128.21,133.96L123.82,136.50L120.53,134.60L120.53,130.80L122.04,129.92L122.58,130.24L121.08,131.11L121.08,134.28L125.46,131.75L125.46,128.58L124.91,128.26L123.41,129.13L123.08,129.70L123.63,130.02L123.63,130.91L123.61,131.04L123.56,131.19L123.48,131.32L123.38,131.44L123.27,131.52L123.16,131.57L123.06,131.57L122.98,131.52L122.93,131.43L122.91,131.32L122.91,130.43L122.58,130.24"/><path style="stroke:#000000;stroke-width:0.088" d="M120.53,130.80L121.08,131.11"/><path style="stroke:#000000;stroke-width:0.088" d="M124.75,134.87L124.75,134.84L124.76,134.89L124.71,134.98L124.61,135.05L124.49,135.11L124.34,135.14L124.18,135.14L124.03,135.11L123.90,135.05L122.58,134.29L122.49,134.22L122.44,134.13L122.44,134.04L122.49,133.96L122.58,133.88L122.71,133.83L122.86,133.80L123.02,133.80L123.17,133.83L123.30,133.88L123.30,134.52L123.17,134.46L123.02,134.43L122.86,134.43L122.84,134.44"/><path style="stroke:#000000;stroke-width:0.088" d="M123.63,130.91L123.08,130.59L123.06,130.73L123.01,130.87L122.93,131.01L122.91,131.03"/><path style="stroke:#000000;stroke-width:0.088" d="M123.30,134.52L124.36,135.13"/><path style="stroke:#000000;stroke-width:0.088" d="M123.30,133.88L124.61,134.64L124.71,134.72L124.75,134.80L124.75,134.84"/><path style="stroke:#000000;stroke-width:0.088" d="M123.08,130.59L123.08,129.70"/><path style="stroke:#000000;stroke-width:0.088" d="M123.63,130.02L123.96,129.45L123.41,129.13"/><path style="stroke:#000000;stroke-width:0.088" d="M123.82,136.50L123.82,135.86"/><path style="stroke:#000000;stroke-width:0.088" d="M123.96,129.45L125.46,128.58"/><path style="stroke:#000000;stroke-width:0.088" d="M124.61,135.05L124.61,134.64"/><path style="stroke:#000000;stroke-width:0.088" d="M125.49,132.62L126.81,133.38L126.81,133.79L126.68,133.84L126.53,133.87L126.37,133.87L126.22,133.84L126.09,133.79L124.78,133.03L124.69,132.95L124.64,132.87L124.64,132.78L124.68,132.69L124.78,132.62L124.91,132.56L125.06,132.53L125.21,132.53L125.36,132.56L125.49,132.62L125.49,133.25L125.36,133.20L125.21,133.17L125.06,133.17L125.03,133.17"/><path style="stroke:#000000;stroke-width:0.088" d="M125.49,133.25L126.56,133.86"/><path style="stroke:#000000;stroke-width:0.088" d="M125.46,131.75L128.21,133.33"/><path style="stroke:#000000;stroke-width:0.088" d="M126.81,133.38L126.90,133.45L126.95,133.54L126.95,133.63L126.90,133.71L126.81,133.79"/><path style="stroke:#000000;stroke-width:0.088" d="M83.32,117.19L83.52,117.23L83.73,117.23L83.73,120.34L83.52,120.34L83.32,120.31L83.14,120.23L83.02,120.13L82.95,120.02L82.95,116.90L83.02,117.02L83.14,117.12L83.32,117.19L83.52,117.23L83.73,117.23L83.80,116.78L83.99,116.46L84.29,116.28L84.67,116.28L85.08,116.44"/><path style="stroke:#000000;stroke-width:0.088" d="M82.96,116.78L82.95,116.90"/><path style="stroke:#000000;stroke-width:0.088" d="M82.95,116.90L82.96,116.78L83.06,116.08L83.36,115.57L83.83,115.30L84.43,115.29L85.09,115.55L92.57,119.87L92.46,120.05L92.39,120.25L92.37,120.43L92.39,120.59L92.46,120.70L84.98,116.38L84.91,116.27L84.98,116.38L85.04,116.42"/><path style="stroke:#000000;stroke-width:0.088" d="M83.73,120.34L84.39,120.24L84.95,120.01L85.35,119.69L85.52,119.31L85.53,119.18L85.52,119.18"/><path style="stroke:#000000;stroke-width:0.088" d="M83.73,117.23L84.39,117.12L83.84,117.21"/><path style="stroke:#000000;stroke-width:0.088" d="M83.06,116.08L83.25,115.62L83.59,115.05L84.00,114.68L84.54,114.36L85.07,114.19L85.73,114.19L86.22,114.25L86.88,114.51"/><path style="stroke:#000000;stroke-width:0.088" d="M84.39,117.12L84.95,116.90L84.66,117.02"/><path style="stroke:#000000;stroke-width:0.088" d="M84.95,116.90L85.33,116.59L84.95,116.89"/><path style="stroke:#000000;stroke-width:0.088" d="M84.91,115.93L84.98,115.73L84.91,115.93L84.89,116.11L84.91,116.27L84.89,116.15"/><path style="stroke:#000000;stroke-width:0.088" d="M84.98,115.73L85.09,115.55L85.00,115.69"/><path style="stroke:#000000;stroke-width:0.088" d="M85.09,115.55L85.51,115.03L85.44,115.11"/><path style="stroke:#000000;stroke-width:0.088" d="M85.53,119.18L85.53,116.70"/><path style="stroke:#000000;stroke-width:0.088" d="M85.52,119.31L85.52,116.70"/><path style="stroke:#000000;stroke-width:0.088" d="M85.51,115.03L85.98,114.66L86.24,114.56L85.99,114.66L85.68,114.89"/><path style="stroke:#000000;stroke-width:0.088" d="M86.99,114.58L86.94,114.55"/><path style="stroke:#000000;stroke-width:0.088" d="M94.22,118.82L94.36,118.83L86.88,114.51L87.03,114.60L94.47,118.89L94.47,118.89L94.36,118.83L95.02,119.33L95.61,120.03L95.88,120.48L96.09,120.84L96.39,121.70L96.49,122.52L96.32,122.91L95.92,123.23L95.36,123.46L94.70,123.56L94.59,122.74L94.36,122.07L94.29,121.88L93.82,121.06L93.23,120.37L92.57,119.87L92.99,119.35L93.46,118.97L93.94,118.80L94.22,118.82L93.94,118.79L93.46,118.97"/><path style="stroke:#000000;stroke-width:0.088" d="M86.88,114.51L86.46,114.48L86.24,114.56L86.46,114.48"/><path style="stroke:#000000;stroke-width:0.088" d="M92.46,120.70L92.91,121.05L93.32,121.52L93.64,122.08L93.85,122.67L93.92,123.23L93.99,123.35L94.11,123.45L94.28,123.52L94.22,123.50"/><path style="stroke:#000000;stroke-width:0.088" d="M94.49,123.56L94.28,123.52L94.49,123.56L94.70,123.56L94.70,126.67L94.49,126.68L94.28,126.64L94.11,126.57L93.99,126.47L93.92,126.35L93.92,123.23L93.99,123.35"/><path style="stroke:#000000;stroke-width:0.088" d="M96.49,125.51L96.50,125.52L96.49,125.64L96.32,126.02L95.92,126.34L95.36,126.57L94.70,126.67"/><path style="stroke:#000000;stroke-width:0.088" d="M96.50,125.52L96.50,122.40L96.40,121.62L96.11,120.80L95.66,120.03L95.09,119.37L94.47,118.89"/><path style="stroke:#000000;stroke-width:0.088" d="M94.46,118.88L94.36,118.83"/><path style="stroke:#000000;stroke-width:0.088" d="M96.50,125.27L96.49,125.64"/><path style="stroke:#000000;stroke-width:0.088" d="M96.50,122.87L96.49,122.40"/><path style="stroke:#000000;stroke-width:0.088" d="M70.27,79.87L69.89,79.61L70.33,79.92L70.93,80.11L70.93,83.23L70.33,83.03L69.89,82.73L69.66,82.36L69.66,81.96"/><path style="stroke:#000000;stroke-width:0.088" d="M69.66,81.96L69.66,78.99L69.66,79.24L69.89,79.61"/><path style="stroke:#000000;stroke-width:0.088" d="M69.66,78.99L69.66,78.84"/><path style="stroke:#000000;stroke-width:0.088" d="M69.66,78.85L69.79,78.04L70.16,77.23L70.73,76.50L71.46,75.90L71.43,75.93L70.73,76.49L70.16,77.23"/><path style="stroke:#000000;stroke-width:0.088" d="M70.93,83.23L71.13,83.26L71.34,83.26L71.54,83.21L71.71,83.14L71.82,83.03L71.88,82.91L71.88,79.80L71.82,79.91"/><path style="stroke:#000000;stroke-width:0.088" d="M73.03,77.92L73.54,77.68L73.61,77.63L73.66,77.53L73.68,77.37L73.66,77.19L73.61,76.98L73.54,76.78L72.73,77.17L72.66,77.23L72.00,77.77L71.43,78.50L71.06,79.31L70.93,80.11L71.13,80.15L71.35,80.14L71.13,80.15"/><path style="stroke:#000000;stroke-width:0.088" d="M72.19,78.78L71.96,79.29L71.88,79.80L71.82,79.92L71.71,80.02L71.54,80.10L71.35,80.14"/><path style="stroke:#000000;stroke-width:0.088" d="M71.46,75.90L72.27,75.52L72.57,75.53L72.90,75.77L72.92,75.80L73.24,76.21L73.54,76.78L82.70,73.73L82.78,73.93L82.82,74.13L82.84,74.32L82.82,74.47L82.77,74.58L82.70,74.62L73.54,77.68L73.60,77.64"/><path style="stroke:#000000;stroke-width:0.088" d="M72.17,78.81L72.56,78.31L73.06,77.90"/><path style="stroke:#000000;stroke-width:0.088" d="M72.26,75.52L72.27,75.52L72.66,75.38L81.43,72.46L81.72,72.48"/><path style="stroke:#000000;stroke-width:0.088" d="M73.24,76.21L73.44,76.60"/><path style="stroke:#000000;stroke-width:0.088" d="M73.66,77.19L73.61,76.98L73.54,76.78"/><path style="stroke:#000000;stroke-width:0.088" d="M85.31,74.92L85.31,74.92L85.16,74.13L84.92,73.73L84.50,73.08L83.83,72.67L83.43,72.43L82.62,72.31L82.24,72.31L81.44,72.46"/><path style="stroke:#000000;stroke-width:0.088" d="M81.44,72.46L81.73,72.48L82.06,72.72L82.24,72.95L82.06,72.72"/><path style="stroke:#000000;stroke-width:0.088" d="M82.53,73.40L82.40,73.15L82.24,72.95L82.40,73.16L82.70,73.73L82.77,73.93L82.82,74.13"/><path style="stroke:#000000;stroke-width:0.088" d="M82.82,74.47L82.84,74.32"/><path style="stroke:#000000;stroke-width:0.088" d="M82.70,74.62L83.21,74.53L83.67,74.60L84.04,74.82L84.28,75.18L84.36,75.64L83.77,75.44L83.33,75.14L83.24,75.00L83.33,75.13"/><path style="stroke:#000000;stroke-width:0.088" d="M82.70,73.73L83.50,73.58L84.23,73.69L84.81,74.04L85.18,74.60L85.31,75.32L85.25,75.44L85.14,75.54L84.98,75.62L84.78,75.66L84.57,75.67L84.36,75.64L84.36,78.75L84.56,78.78L84.78,78.78L84.98,78.73L85.14,78.66L85.26,78.55L85.31,78.44L85.31,75.32L85.25,75.44"/><path style="stroke:#000000;stroke-width:0.088" d="M83.09,77.48L83.09,77.88L83.33,78.25L83.77,78.55L84.36,78.75"/><path style="stroke:#000000;stroke-width:0.088" d="M83.09,77.48L83.09,74.76L83.24,75.00L83.09,74.77"/><path style="stroke:#000000;stroke-width:0.088" d="M83.77,75.44L83.84,75.46"/><path style="stroke:#000000;stroke-width:0.088" d="M83.77,75.44L83.33,75.13"/><path style="stroke:#000000;stroke-width:0.088" d="M83.09,74.76L83.06,74.56"/><path style="stroke:#000000;stroke-width:0.088" d="M83.04,74.56L83.20,74.58"/><path style="stroke:#000000;stroke-width:0.088" d="M83.26,74.79L83.12,74.57"/><path style="stroke:#000000;stroke-width:0.088" d="M84.36,75.64L84.56,75.67L84.64,75.67"/><path style="stroke:#000000;stroke-width:0.088" d="M85.31,75.32L85.31,74.92"/><path style="stroke:#000000;stroke-width:0.088" d="M99.53,64.00L99.86,63.81L99.96,63.62L100.00,63.37L99.67,63.56L99.64,63.81L99.53,64.00L99.36,64.10L99.14,64.10L98.91,64.01L95.29,61.92L95.05,61.74L94.83,61.49L94.66,61.19L94.56,60.88L94.52,60.59L94.52,46.78L94.48,46.48L94.37,46.17L94.22,45.91L94.20,45.88L93.99,45.63L93.75,45.45L90.57,43.61L90.33,43.43L90.12,43.18L89.95,42.89L89.84,42.58L89.80,42.29L89.80,39.94L89.82,39.74L89.87,39.53L92.89,30.25L107.47,38.67L104.46,47.95L104.41,48.17L104.39,48.37L104.39,50.71L104.35,50.96L104.24,51.14L104.57,50.95L104.68,50.77L104.72,50.52L104.39,50.71"/><path style="stroke:#000000;stroke-width:0.088" d="M89.80,39.94L104.39,48.37"/><path style="stroke:#000000;stroke-width:0.088" d="M89.87,39.53L104.46,47.95"/><path style="stroke:#000000;stroke-width:0.088" d="M92.65,43.08L92.65,43.09L92.60,42.91L92.47,42.62L92.28,42.36L92.07,42.17L91.84,42.06L91.63,42.04L91.46,42.11L91.35,42.27L91.35,42.29L91.31,42.50L91.34,42.78L91.44,43.07L91.61,43.35L91.81,43.57L92.04,43.73L92.26,43.80L92.45,43.77L92.59,43.65L92.67,43.45L92.67,43.19L92.65,43.09L92.63,43.11L92.56,43.17L92.46,43.19L92.32,43.14L92.23,43.07L92.12,42.95L92.04,42.81L91.98,42.66L91.97,42.51L91.99,42.39L92.05,42.31L92.13,42.27L92.18,42.27"/><path style="stroke:#000000;stroke-width:0.088" d="M109.08,33.34L108.99,33.41L108.95,33.49L108.95,33.57L108.99,33.65L109.08,33.72L109.08,33.34L118.47,27.91L118.61,27.85L110.76,23.32L110.63,23.39L101.24,28.81L101.12,28.86L100.98,28.88L100.83,28.88L100.70,28.86L100.58,28.81L98.08,27.37L97.89,27.29L97.65,27.24L97.41,27.24L97.18,27.29L96.98,27.37L93.58,29.33L93.37,29.49L93.17,29.71L93.00,29.97L92.89,30.25"/><path style="stroke:#000000;stroke-width:0.088" d="M107.47,38.67L107.59,38.39L107.76,38.13L107.96,37.92L108.17,37.76L93.58,29.33"/><path style="stroke:#000000;stroke-width:0.088" d="M99.67,63.56L99.67,49.76L99.71,49.50L99.82,49.32L99.99,49.22L100.20,49.22L100.44,49.31L103.62,51.15L103.86,51.24L104.07,51.24L104.24,51.14"/><path style="stroke:#000000;stroke-width:0.088" d="M99.67,49.76L100.00,49.57L100.00,63.37"/><path style="stroke:#000000;stroke-width:0.088" d="M100.00,49.57L100.04,49.31L100.10,49.22"/><path style="stroke:#000000;stroke-width:0.088" d="M102.20,49.60L101.97,49.43L101.77,49.19L101.62,48.91L101.53,48.62L101.51,48.35L101.57,48.12L101.69,47.98L101.87,47.92L102.08,47.96L102.20,48.01L102.31,48.09L102.52,48.30L102.70,48.56L102.82,48.85L102.88,49.14L102.86,49.38L102.77,49.57L102.62,49.67L102.42,49.68L102.20,49.60"/><path style="stroke:#000000;stroke-width:0.088" d="M102.85,48.97L102.82,49.01L102.74,49.07L102.64,49.07L102.52,49.03L102.41,48.94L102.31,48.81L102.23,48.67L102.21,48.60L102.18,48.52L102.17,48.38L102.20,48.26L102.26,48.19L102.36,48.16L102.38,48.16"/><path style="stroke:#000000;stroke-width:0.088" d="M104.72,50.52L104.72,48.18L104.73,48.06L104.76,47.94L107.77,38.66L107.84,38.50L107.94,38.35L107.98,38.30L108.05,38.23L108.17,38.14L111.57,36.17L111.57,35.79L108.17,37.76"/><path style="stroke:#000000;stroke-width:0.088" d="M105.26,30.81L105.29,30.75L105.35,30.71L105.44,30.67L105.54,30.66L105.64,30.66L105.73,30.68L105.81,30.72L105.86,30.77L105.88,30.83L105.86,30.89L105.82,30.94L105.74,30.98L105.65,31.01L105.55,31.01L105.45,31.00L105.35,30.96L105.30,30.92L105.26,30.87L105.26,30.81"/><path style="stroke:#000000;stroke-width:0.088" d="M105.37,30.97L105.35,30.95L105.32,30.91L105.32,30.86L105.34,30.81L105.39,30.77L105.46,30.75L105.54,30.73L105.63,30.74L105.70,30.75L105.77,30.79L105.81,30.83L105.82,30.88L105.81,30.93L105.78,30.97"/><path style="stroke:#000000;stroke-width:0.088" d="M107.00,28.18L106.80,28.04L106.69,27.87L106.69,27.68L106.78,27.51L106.98,27.36L107.24,27.25L107.55,27.20L107.79,27.21L107.87,27.21L108.17,27.29L108.41,27.41L108.57,27.57L108.63,27.75L108.58,27.94L108.44,28.10L108.20,28.23L107.91,28.31L107.59,28.33L107.28,28.29L107.00,28.18"/><path style="stroke:#000000;stroke-width:0.088" d="M108.12,28.25L108.14,28.23L108.16,28.14L108.13,28.04L108.05,27.96L107.92,27.89L107.77,27.86L107.60,27.85L107.44,27.88L107.30,27.93L107.20,28.01L107.15,28.10L107.15,28.20L107.18,28.25"/><path style="stroke:#000000;stroke-width:0.088" d="M111.57,35.79L111.72,35.68L111.79,35.54L111.79,35.40L111.72,35.27L111.57,35.16L109.08,33.72L118.47,28.29L118.55,28.26L126.04,25.46L126.10,25.05L118.61,27.85"/><path style="stroke:#000000;stroke-width:0.088" d="M110.04,29.91L109.93,29.74L109.92,29.55L110.02,29.37L110.21,29.22L110.48,29.12L110.79,29.07L111.11,29.08L111.41,29.15L111.65,29.28L111.81,29.44L111.87,29.62L111.82,29.80L111.67,29.97L111.44,30.10L111.15,30.18L110.83,30.20L110.51,30.15L110.24,30.05L110.20,30.03L110.04,29.91"/><path style="stroke:#000000;stroke-width:0.088" d="M111.36,30.12L111.38,30.10L111.40,30.01L111.37,29.91L111.29,29.83L111.16,29.76L111.00,29.72L110.84,29.72L110.67,29.74L110.53,29.80L110.43,29.88L110.38,29.97L110.39,30.07L110.42,30.12"/><path style="stroke:#000000;stroke-width:0.088" d="M110.76,23.32L118.26,20.52L118.45,20.47L118.68,20.46L118.92,20.49L119.15,20.55L119.35,20.64L126.09,24.53L126.24,24.64L126.31,24.75L126.31,24.87L126.24,24.97L126.10,25.05"/><path style="stroke:#000000;stroke-width:0.088" d="M110.63,23.39L118.47,27.91"/><path style="stroke:#000000;stroke-width:0.088" d="M111.79,35.90L111.79,35.54L111.79,35.92L111.72,36.06L111.57,36.17"/><path style="stroke:#000000;stroke-width:0.088" d="M111.79,35.78L111.79,35.40"/><path style="stroke:#000000;stroke-width:0.088" d="M112.94,26.38L112.94,26.44L112.98,26.49L113.03,26.53L113.13,26.57L113.23,26.58L113.33,26.58L113.42,26.55L113.50,26.51L113.54,26.46L113.56,26.40L113.54,26.34L113.49,26.29L113.41,26.25L113.32,26.23L113.21,26.22L113.12,26.24L113.03,26.27L112.97,26.32L112.94,26.38"/><path style="stroke:#000000;stroke-width:0.088" d="M113.05,26.54L113.02,26.52L112.99,26.47L112.99,26.43L113.02,26.38L113.10,26.33L113.14,26.31L113.22,26.30L113.30,26.30L113.38,26.32L113.45,26.35L113.49,26.40L113.50,26.44L113.49,26.49L113.45,26.53"/><path style="stroke:#000000;stroke-width:0.088" d="M126.04,25.46L126.18,25.38L126.26,25.28L126.31,24.87"/><path style="stroke:#000000;stroke-width:0.088" d="M63.29,44.74L68.94,48.00L69.33,48.17L69.79,48.25L70.27,48.25L70.74,48.17L71.13,48.00L71.13,47.62L70.74,47.79L70.27,47.87L69.79,47.87L69.33,47.79L68.94,47.62L63.29,44.36L63.29,44.74L63.00,44.51L62.85,44.25L62.85,43.59L63.00,43.32L63.29,43.09L68.77,39.93L68.86,39.86L68.90,39.78L68.90,39.69L68.86,39.61L68.77,39.55L66.27,38.11L66.13,37.99L66.06,37.86L66.06,37.72L66.13,37.59L66.27,37.47L69.68,35.51L69.89,35.42L70.09,35.41L70.26,35.48L84.85,43.90L84.68,43.83L84.48,43.84L84.27,43.93L69.68,35.51"/><path style="stroke:#000000;stroke-width:0.088" d="M63.29,44.36L63.00,44.13L62.85,43.87"/><path style="stroke:#000000;stroke-width:0.088" d="M66.10,43.88L66.20,43.99L66.44,44.11L66.74,44.18L67.06,44.19L67.37,44.14L67.64,44.04L67.83,43.89L67.93,43.71L67.92,43.53L67.81,43.35L67.65,43.23L67.61,43.21L67.33,43.11L67.07,43.08L67.02,43.07L66.70,43.09L66.41,43.17L66.18,43.29L66.03,43.46L65.98,43.64L66.04,43.83L66.10,43.88"/><path style="stroke:#000000;stroke-width:0.088" d="M66.27,38.11L66.27,38.49L66.13,38.37L66.06,38.24L66.06,38.23"/><path style="stroke:#000000;stroke-width:0.088" d="M66.06,38.20L66.06,38.24L66.06,37.86"/><path style="stroke:#000000;stroke-width:0.088" d="M66.49,44.12L66.48,44.11L66.45,44.02L66.47,43.92L66.55,43.84L66.67,43.77L66.82,43.73L66.99,43.72L67.16,43.74L67.30,43.79L67.41,43.87L67.46,43.96L67.47,44.05L67.43,44.12"/><path style="stroke:#000000;stroke-width:0.088" d="M66.27,38.49L68.77,39.93L68.77,39.55"/><path style="stroke:#000000;stroke-width:0.088" d="M68.94,48.00L68.94,47.62"/><path style="stroke:#000000;stroke-width:0.088" d="M69.22,45.51L69.28,45.69L69.44,45.86L69.68,45.98L69.98,46.05L70.30,46.06L70.61,46.01L70.87,45.91L71.06,45.76L71.16,45.58L71.16,45.40L71.05,45.22L70.89,45.10L70.84,45.08L70.57,44.98L70.26,44.94L69.94,44.96L69.65,45.03L69.41,45.16L69.27,45.33L69.22,45.51"/><path style="stroke:#000000;stroke-width:0.088" d="M69.72,45.99L69.72,45.98L69.68,45.89L69.71,45.79L69.79,45.70L69.91,45.64L70.06,45.59L70.23,45.58L70.39,45.61L70.54,45.66L70.64,45.73L70.70,45.83L70.70,45.92L70.67,45.99"/><path style="stroke:#000000;stroke-width:0.088" d="M71.13,48.00L76.61,44.83L76.61,44.45L71.13,47.62"/><path style="stroke:#000000;stroke-width:0.088" d="M87.57,53.14L87.83,52.99L87.41,53.23L87.90,52.95L88.01,52.77L88.05,52.51L87.72,52.70L87.68,52.96L87.57,53.14L87.40,53.24L87.19,53.24L86.95,53.15L83.77,51.31L83.53,51.22L83.32,51.22L83.15,51.32L83.04,51.50L83.00,51.75L83.00,65.56L82.96,65.81L82.86,66.00L82.69,66.09L83.04,65.89L82.69,66.09L82.47,66.10L82.23,66.00L78.61,63.91L78.38,63.73L78.25,63.59L78.16,63.48L77.99,63.19L77.88,62.88L77.85,62.58L77.85,48.78L77.81,48.48L77.70,48.17L77.53,47.88L77.32,47.63L77.08,47.45L74.58,46.01"/><path style="stroke:#000000;stroke-width:0.088" d="M76.61,44.83L76.73,44.79L76.87,44.76L77.02,44.76L77.15,44.79L77.27,44.83L79.77,46.28L79.77,45.90L77.27,44.45L77.27,44.83"/><path style="stroke:#000000;stroke-width:0.088" d="M76.61,44.45L76.73,44.41L76.87,44.38L77.02,44.38L77.15,44.41L77.27,44.45"/><path style="stroke:#000000;stroke-width:0.088" d="M79.77,45.90L79.96,45.98L80.19,46.02L80.44,46.02L80.67,45.98L80.86,45.90L84.27,43.93"/><path style="stroke:#000000;stroke-width:0.088" d="M79.77,46.28L79.96,46.36L80.19,46.40L80.44,46.40L80.67,46.36L80.86,46.28L80.86,45.90"/><path style="stroke:#000000;stroke-width:0.088" d="M80.86,46.28L84.27,44.31L84.39,44.26L84.50,44.25L84.60,44.29L84.66,44.37L87.68,50.18L80.89,46.26"/><path style="stroke:#000000;stroke-width:0.088" d="M87.72,52.70L87.72,50.36L80.73,46.33"/><path style="stroke:#000000;stroke-width:0.088" d="M83.00,65.56L83.33,65.37L83.29,65.62L83.18,65.81L82.86,66.00"/><path style="stroke:#000000;stroke-width:0.088" d="M83.00,51.75L83.33,51.56L83.33,65.37"/><path style="stroke:#000000;stroke-width:0.088" d="M83.42,51.22L83.37,51.31L83.33,51.56"/><path style="stroke:#000000;stroke-width:0.088" d="M84.46,44.26L84.66,44.37"/><path style="stroke:#000000;stroke-width:0.088" d="M85.36,51.06L85.39,51.10L85.53,51.21L85.62,51.25L85.73,51.26L85.81,51.21L85.86,51.12L85.88,51.00L85.86,50.85L85.80,50.70L85.71,50.56L85.61,50.45L85.49,50.37L85.38,50.34L85.28,50.36L85.21,50.43L85.17,50.54L85.17,50.68L85.22,50.83L85.29,50.98L85.36,51.06"/><path style="stroke:#000000;stroke-width:0.088" d="M85.67,51.26L85.59,51.19L85.40,50.95L85.26,50.66L85.20,50.45"/><path style="stroke:#000000;stroke-width:0.088" d="M88.05,52.51L88.05,50.17L88.03,49.99L87.98,49.84L84.96,44.04L84.85,43.90"/><path style="stroke:#000000;stroke-width:0.088" d="M87.72,50.36L87.71,50.26L87.68,50.18"/><path style="fill:#ffffff" d="M171.65,77.91L198.06,77.91L198.06,72.27L171.65,72.27z"/><path style="stroke:#35414c;stroke-width:0.255" d="M171.65,77.91L198.06,77.91L198.06,72.27L171.65,72.27z"/><path style="stroke:#35404c;stroke-width:0.250;stroke-opacity:0.00" d="M171.65,77.91L198.06,77.91L198.06,72.27L171.65,72.27z"/><text xml:space="preserve" fill="#333f4b" stroke-width="0" x="172.36" y="76.32" font-size="3.49" opacity="1.00" font-family="Arial" font-weight="bold" font-style="italic">F24978993A</text><path style="fill:#ffffff" d="M171.65,87.68L198.07,87.68L198.07,82.04L171.65,82.04z"/><path style="stroke:#35414c;stroke-width:0.255" d="M171.65,87.68L198.07,87.68L198.07,82.04L171.65,82.04z"/><path style="stroke:#35404c;stroke-width:0.250;stroke-opacity:0.00" d="M171.65,87.68L198.07,87.68L198.07,82.04L171.65,82.04z"/><text xml:space="preserve" fill="#333f4b" stroke-width="0" x="172.36" y="86.09" font-size="3.49" opacity="1.00" font-family="Arial" font-weight="bold" font-style="italic">F24978994A</text><path style="fill:#ffffff" d="M171.65,97.72L198.06,97.72L198.06,92.08L171.65,92.08z"/><path style="stroke:#35414c;stroke-width:0.255" d="M171.65,97.72L198.06,97.72L198.06,92.08L171.65,92.08z"/><path style="stroke:#35404c;stroke-width:0.250;stroke-opacity:0.00" d="M171.65,97.72L198.06,97.72L198.06,92.08L171.65,92.08z"/><text xml:space="preserve" fill="#333f4b" stroke-width="0" x="172.36" y="96.13" font-size="3.49" opacity="1.00" font-family="Arial" font-weight="bold" font-style="italic">F31976658A</text><path style="fill:#ffffff" d="M171.65,67.87L198.06,67.87L198.06,62.23L171.65,62.23z"/><path style="stroke:#35414c;stroke-width:0.255" d="M171.65,67.87L198.06,67.87L198.06,62.23L171.65,62.23z"/><path style="stroke:#35404c;stroke-width:0.250;stroke-opacity:0.00" d="M171.65,67.87L198.06,67.87L198.06,62.23L171.65,62.23z"/><text xml:space="preserve" fill="#333f4b" stroke-width="0" x="172.36" y="66.28" font-size="3.56" opacity="1.00" font-family="Arial" font-weight="bold" font-style="italic">F24978969X</text><path style="fill:#ffffff" d="M171.65,107.76L198.07,107.76L198.07,102.11L171.65,102.11z"/><path style="stroke:#35414c;stroke-width:0.255" d="M171.65,107.76L198.07,107.76L198.07,102.11L171.65,102.11z"/><path style="stroke:#35404c;stroke-width:0.250;stroke-opacity:0.00" d="M171.65,107.76L198.07,107.76L198.07,102.11L171.65,102.11z"/><text xml:space="preserve" fill="#333f4b" stroke-width="0" x="172.36" y="106.17" font-size="3.39" opacity="1.00" font-family="Arial" font-weight="bold" font-style="italic">VM1874</text><path style="fill:#ffffff" d="M171.65,47.79L198.06,47.80L198.06,42.15L171.65,42.15z"/><path style="stroke:#35414c;stroke-width:0.255" d="M171.65,47.79L198.06,47.80L198.06,42.15L171.65,42.15z"/><path style="stroke:#35404c;stroke-width:0.250;stroke-opacity:0.00" d="M171.65,47.79L198.06,47.80L198.06,42.15L171.65,42.15z"/><text xml:space="preserve" fill="#333f4b" stroke-width="0" x="172.36" y="46.21" font-size="3.49" opacity="1.00" font-family="Arial" font-weight="bold" font-style="italic">F24978967A</text><path style="fill:#ffffff" d="M171.65,57.83L198.06,57.83L198.06,52.19L171.65,52.19z"/><path style="stroke:#35414c;stroke-width:0.255" d="M171.65,57.83L198.06,57.83L198.06,52.19L171.65,52.19z"/><path style="stroke:#35404c;stroke-width:0.250;stroke-opacity:0.00" d="M171.65,57.83L198.06,57.83L198.06,52.19L171.65,52.19z"/><text xml:space="preserve" fill="#333f4b" stroke-width="0" x="172.36" y="56.25" font-size="3.56" opacity="1.00" font-family="Arial" font-weight="bold" font-style="italic">F24978968X</text><g id="paperID" visibility="hidden" opacity="0.00" transform="scale(0.000100)"><path style="stroke:#000000;stroke-width:0.500;fill:#e6e6e6;fill-rule:evenodd" d="M-2000.00,-2000.00L2210.00,-2000.00L2210.00,2150.00L-2000.00,2150.00zM0.00,0.00L210.00,0.00L210.00,150.00L0.00,150.00z"/><path style="fill:#000000;fill-opacity:0.118" d="M3.00,150.00L210.00,150.00L210.00,3.00L213.00,3.00L213.00,153.00L3.00,153.00z"/></g><g id="hotspot.0" onmouseover="ShowHotSpot(evt,'0')" onmouseout="HideHotSpot(evt,'0')" onmousemove="ShowToolTip(evt,'0',&quot;F24978993A&quot;)" opacity="0"><path style="fill:#00ff00;fill-rule:evenodd" d="M61.21,70.90L61.13,71.39L58.47,73.03L57.75,73.03L56.08,72.01L56.17,71.24L58.73,69.80L59.35,69.80zM198.32,72.70L198.31,77.86L198.02,78.36L171.60,78.29L171.60,72.54L198.06,72.43zM92.37,135.06L92.91,135.72L90.14,137.45L89.46,137.48L87.59,136.37L87.59,135.97L90.43,134.25L91.04,134.25zM59.89,71.39L59.28,71.96L57.72,71.97L57.40,71.74L57.48,70.96L59.36,70.86zM91.59,135.85L90.98,136.41L89.44,136.41L88.83,135.85L89.36,135.32L91.06,135.32z"/></g><g id="hotspot.1" onmouseover="ShowHotSpot(evt,'1')" onmouseout="HideHotSpot(evt,'1')" onmousemove="ShowToolTip(evt,'1',&quot;F24978994A&quot;)" opacity="0"><path style="fill:#00ff00;fill-rule:evenodd" d="M83.15,76.40L83.38,78.55L84.17,78.83L85.15,78.83L85.41,76.93L86.02,76.92L108.23,89.62L108.99,90.45L115.35,94.12L116.29,94.42L116.42,94.41L135.69,105.48L138.59,107.34L139.68,108.62L140.17,109.98L140.17,111.65L139.92,112.71L139.13,114.03L138.09,114.84L111.15,130.43L106.89,132.78L104.44,133.49L98.96,133.49L96.84,132.97L94.41,131.71L93.96,130.83L90.78,128.97L89.72,129.03L50.37,106.27L50.08,105.50L46.93,103.61L45.87,103.67L43.51,102.04L42.69,100.48L42.69,97.37L43.77,95.55L47.20,93.42L56.08,88.31L57.50,87.87L62.78,84.70L64.28,83.56L69.32,80.61L69.65,80.63L69.83,82.85L70.70,83.31L71.68,83.32L72.00,79.40L72.45,78.79L75.98,77.03L79.07,76.17L82.89,76.13zM198.32,82.47L198.31,87.63L198.02,88.14L171.60,88.06L171.60,82.31L198.06,82.21zM90.00,88.57L90.76,89.13L92.10,89.37L94.48,90.17L114.82,101.78L118.52,104.16L119.85,106.00L119.85,107.17L119.04,108.47L117.61,109.68L112.35,112.87L111.89,113.48L107.42,116.14L106.13,116.61L99.50,120.10L96.23,121.09L96.35,126.20L95.73,126.64L94.11,126.71L93.95,123.45L93.43,121.86L92.64,121.05L90.51,120.81L88.39,120.29L85.77,118.94L85.50,119.56L84.64,120.30L83.02,120.37L82.88,117.35L79.57,115.55L78.62,115.26L72.27,111.57L70.70,110.24L64.65,106.79L63.32,105.74L62.52,104.69L62.14,102.85L62.93,101.23L64.92,99.53L66.39,98.59L67.45,98.65L78.35,92.35L78.90,91.32L81.45,89.90L84.36,88.85L85.41,88.58L88.65,88.30z"/></g><g id="hotspot.2" onmouseover="ShowHotSpot(evt,'2')" onmouseout="HideHotSpot(evt,'2')" onmousemove="ShowToolTip(evt,'2',&quot;F31976658A&quot;)" opacity="0"><path style="fill:#00ff00;fill-rule:evenodd" d="M59.37,76.49L60.04,75.36L61.12,74.81L61.72,74.82L61.72,78.89L57.67,81.22L57.26,81.18L54.23,79.40L54.32,78.64L58.19,76.40zM46.96,83.52L46.96,87.37L43.12,89.64L42.44,89.67L39.53,88.04L39.43,87.27L43.67,84.85L44.54,84.98L45.33,83.90L46.32,83.26L46.69,83.25zM198.32,92.51L198.31,97.67L198.02,98.17L171.60,98.10L171.60,92.35L198.06,92.24zM140.20,120.24L140.44,123.44L142.82,124.78L142.81,125.63L139.00,127.94L138.32,127.97L135.34,126.17L135.34,122.39L136.65,121.58L137.01,121.56L137.52,121.89L137.80,122.49L138.06,120.89L139.56,119.98L139.93,119.97zM125.41,128.69L125.56,131.99L128.06,133.47L128.07,134.11L124.25,136.41L123.29,136.38L120.63,134.80L120.63,130.93L121.59,130.30L122.50,130.28L123.02,130.94L123.24,129.58L124.77,128.44L125.13,128.41z"/></g><g id="hotspot.3" onmouseover="ShowHotSpot(evt,'3')" onmouseout="HideHotSpot(evt,'3')" onmousemove="ShowToolTip(evt,'3',&quot;VM1874&quot;)" opacity="0"><path style="fill:#00ff00;fill-rule:evenodd" d="M84.48,73.22L85.25,74.57L85.15,78.83L84.17,78.83L83.38,78.55L83.11,74.82L82.52,74.82L72.72,78.26L72.01,79.41L71.68,83.32L70.70,83.31L69.83,82.85L69.89,77.82L71.67,75.89L81.98,72.46L82.85,72.45zM198.32,102.55L198.31,107.70L198.02,108.21L171.60,108.14L171.60,102.39L198.06,102.28zM87.08,114.74L93.95,118.69L95.53,120.02L96.33,121.59L96.35,126.20L95.73,126.64L94.11,126.71L93.95,123.45L93.43,121.86L91.87,120.51L86.00,117.06L85.68,117.08L85.51,119.59L84.64,120.30L83.02,120.37L83.11,116.12L83.93,114.83L84.60,114.45L86.29,114.46z"/></g><g id="hotspot.4" onmouseover="ShowHotSpot(evt,'4')" onmouseout="HideHotSpot(evt,'4')" onmousemove="ShowToolTip(evt,'4',&quot;F24978967A&quot;)" opacity="0"><path style="fill:#00ff00;fill-rule:evenodd" d="M123.84,13.55L123.73,14.08L115.79,16.99L105.76,22.84L105.04,22.83L103.46,22.01L103.46,20.78L114.28,14.70L120.80,12.22L121.69,12.22zM198.32,42.58L198.31,47.74L198.02,48.25L171.60,48.18L171.60,42.43L198.06,42.32z"/></g><g id="hotspot.5" onmouseover="ShowHotSpot(evt,'5')" onmouseout="HideHotSpot(evt,'5')" onmousemove="ShowToolTip(evt,'5',&quot;F24978968X&quot;)" opacity="0"><path style="fill:#00ff00;fill-rule:evenodd" d="M84.72,43.92L87.89,49.74L87.79,53.20L86.81,53.20L83.91,51.57L83.38,51.66L83.04,66.15L82.08,66.12L78.61,64.03L78.07,63.51L77.85,48.68L76.78,47.37L74.93,46.29L74.32,46.28L71.17,48.19L68.87,48.15L63.05,44.73L63.04,43.49L68.61,40.09L66.21,38.65L66.21,37.69L69.55,35.73L70.45,35.73zM198.32,52.62L198.31,57.78L198.02,58.29L171.60,58.22L171.60,52.46L198.06,52.36zM67.30,44.29L66.63,44.29L66.63,43.94L67.30,43.94zM70.75,46.03L69.78,46.12L69.79,45.79L70.47,45.75zM85.79,50.78L85.79,51.42L85.51,51.38L85.51,50.50z"/></g><g id="hotspot.6" onmouseover="ShowHotSpot(evt,'6')" onmouseout="HideHotSpot(evt,'6')" onmousemove="ShowToolTip(evt,'6',&quot;F24978969X&quot;)" opacity="0"><path style="fill:#00ff00;fill-rule:evenodd" d="M124.32,23.60L126.21,24.92L126.19,25.52L118.69,28.35L109.16,33.87L111.69,35.47L111.57,36.27L108.92,37.87L107.86,38.65L104.76,47.97L104.51,51.16L104.19,51.38L103.19,51.07L100.53,49.44L100.21,49.46L100.04,63.59L99.67,64.02L98.70,64.03L95.02,61.88L94.72,61.39L94.49,46.57L93.69,45.52L90.53,43.65L89.99,43.14L89.97,39.25L93.29,29.63L97.02,27.55L98.19,27.55L100.55,28.91L101.26,28.91L111.03,23.34L118.17,20.68L119.05,20.67zM198.32,62.66L198.31,67.82L198.02,68.32L171.60,68.25L171.60,62.50L198.06,62.40zM107.98,28.44L107.31,28.44L107.31,28.09L107.98,28.09zM111.43,30.18L110.46,30.27L110.47,29.94L111.15,29.90zM92.65,43.15L92.09,43.15L92.01,42.59L92.33,42.59zM102.71,48.68L102.66,49.08L102.33,49.06L102.28,48.43z"/></g></g></svg>
