<?xml version="1.0" encoding="UTF-8" standalone="no"?>
<svg xmlns="http://www.w3.org/2000/svg" xmlns:xlink="http://www.w3.org/1999/xlink" width="210.000mm" height="150.000mm" viewBox="0.000000 0.000000 210.000000 150.000000" stroke-linejoin="round" stroke-linecap="round" fill="none" fill-rule="evenodd"><desc>Composer Export</desc><script type="text/ecmascript"><![CDATA[
if(typeof(top) != "undefined")
{
	top.ShowPaper = ShowPaper;
}
function ShowHotSpot(evt,hotspotid)
{
	var svgDocument = evt.target.ownerDocument;
	var strId = "hotspot."+hotspotid;
	var hotspot = svgDocument.getElementById(strId);
	if(hotspot)
		hotspot.setAttribute("opacity",".5");
}
function HideHotSpot(evt,hotspotid)
{
	var svgDocument = evt.target.ownerDocument;
	var strId = "hotspot."+hotspotid;
	var hotspot = svgDocument.getElementById(strId);
	if(hotspot)
		hotspot.setAttribute("opacity","0");

	var toolTip = svgDocument.getElementById('ToolTip');
	if(toolTip)
		toolTip.setAttribute("visibility","hidden");
}
function ShowToolTip(evt,hotspotid,strTooltip)
{
	if(strTooltip=="")
	return;

	// change text
	var svgDocument = evt.target.ownerDocument;
	var tiptext = svgDocument.getElementById('ToolTipText');
	if( !tiptext )
	return;
	tiptext.firstChild.nodeValue = " " + strTooltip + "  " ;

	// show tooltip before, else some refresh issue

	var toolTip = svgDocument.getElementById('ToolTip');
	if(!toolTip)
	return;

	toolTip.setAttribute("visibility","visible");
	toolTip.setAttribute("opacity",".95");

	// move tooltip
	// get viewbox

	var root = svgDocument.documentElement;
	var vbox = (root.getAttribute("viewBox")).split(' ');
	var x0 = parseFloat(vbox[0]);
	var y0 = parseFloat(vbox[1]);
	var vboxW = parseFloat(vbox[2]);
	var vboxH = parseFloat(vbox[3]);

	// get default width of svg

	var strW = root.getAttribute("width");
	var svgW = parseFloat(strW);
	if(strW.indexOf('mm') != -1)
	svgW *= 3.779;

	var strH = root.getAttribute("height");
	var svgH = parseFloat(strH);
	if(strH.indexOf('mm') != -1)
	svgH *= 3.779;  	// 96 dpi  -> 96/25.4 = 3.779

	// update the viewbox / width / height if svg is embedded in html with zoom fit all
	var realx0 = x0;
	var realy0 = y0;
	var realvboxW = vboxW;
	var realvboxH = vboxH;
	var realsvgW = svgW;
	var realsvgH = svgH;

	if ((typeof(top) == "undefined") || (typeof(top.svgctl1) != "undefined")) // embedded in html
	{
		// get window size in pxl

		svgW = window.innerWidth;
		svgH = window.innerHeight;

		// calculate real viewbox

		realsvgW = svgW;
		realsvgH = svgH;
		if((svgW / svgH) > (vboxW / vboxH))
		{
			realvboxW = (vboxH * svgW) / svgH;
			realvboxH = vboxH;
			realx0 = x0 - (realvboxW - vboxW)/2 ;
		}
		else
		{
			realvboxH = (vboxW * svgH) / svgW;
			realvboxW = vboxW;
			realy0 = y0 - (realvboxH - vboxH)/2 ;
		}
	}

	// get user zoom/pan

	var newScale = root.currentScale;
	var translation = root.currentTranslate;

	// transform pxl to user unit

	var xPos = (((evt.clientX+10- translation.x)/newScale) * realvboxW)/realsvgW  + realx0 ;
	var yPos = (((evt.clientY+5- translation.y)/newScale) * realvboxH)/ realsvgH  + realy0 ;
	var scaleForWidth = ( (1 / newScale) * realvboxH) / realsvgH;

	// move tooltip

	toolTip.setAttribute("transform", "translate(" + xPos + "," + yPos + ")" );

	// resize tooltip

	var fontsize = 12;
	tiptext.setAttribute("font-size",fontsize*scaleForWidth);
	tiptext.setAttribute("y", fontsize*scaleForWidth);
	var tipBG = svgDocument.getElementById('ToolTipBG');
	var outline = tiptext.getBBox();
	if(tipBG)
	{
		tipBG.setAttribute("stroke-width", 1*scaleForWidth);
		tipBG.setAttribute("width", Number(outline.width) );
		tipBG.setAttribute("height", Number(outline.height) + fontsize*.5*scaleForWidth );
	}
	var ToolTipShadow = svgDocument.getElementById('ToolTipShadow');
	if(ToolTipShadow)
	{
		ToolTipShadow.setAttribute("width", Number(outline.width) );
		ToolTipShadow.setAttribute("height", Number(outline.height) + fontsize*.5*scaleForWidth );
		ToolTipShadow.setAttribute("x", 3*scaleForWidth);
		ToolTipShadow.setAttribute("y", 3*scaleForWidth);
	}
}
function ShowPaper()
{
  var svgDocument = getDocument();
  var paper = svgDocument.getElementById("paperID");
  if(paper)
  {
    paper.setAttribute("transform","scale(1)");
    paper.setAttribute("opacity","1");
    paper.setAttribute("visibility","visible");
  }
  var svg = svgDocument.getRootElement();
  if(svg)
  {
    svg.setAttribute("width","220.000mm");
    svg.setAttribute("height","160.000mm");
    svg.setAttribute("viewBox","-5.000000 -5.000000 220.000000 160.000000");
  }
}
]]></script><defs/><g><path style="fill:#ffffff" d="M209.96,149.94L0.04,149.94L0.04,0.04L209.96,0.04z"/><path style="fill:#1497e5" d="M100.29,31.62L100.28,32.55L98.09,34.29L98.09,38.63L98.51,38.49L99.27,38.31L100.29,38.95L100.29,39.77L93.42,43.77L90.26,44.39L89.67,44.38L88.74,43.80L88.78,38.24L89.74,37.43L92.15,35.04L99.22,31.00z"/><path style="fill:#1497e5" d="M124.41,53.36L124.84,53.68L117.54,57.90L116.14,58.63L113.93,57.28L101.25,49.99L101.29,47.97L108.25,44.01z"/><path style="fill:#1497e5" d="M136.21,60.12L141.47,63.22L141.43,65.11L134.72,69.03L134.26,69.04L127.49,65.09L128.60,64.41L128.67,63.85L135.49,59.92L135.78,59.92z"/><path style="fill:#1497e5" d="M157.40,64.60L157.39,65.40L155.12,67.18L155.08,71.48L155.74,71.34L156.27,71.18L157.40,71.93L157.40,72.62L150.44,76.65L147.62,77.24L146.64,77.25L145.77,76.74L145.77,71.22L146.78,70.33L149.26,67.89L156.09,63.96L156.38,63.96z"/><path style="fill:#f2f2f2" d="M86.39,116.53L86.38,118.73L77.25,124.01L76.90,124.01L60.82,114.68L60.86,112.41L69.92,107.17L70.21,107.17z"/><path style="fill:#95dce0" d="M138.94,56.27L138.96,58.47L136.21,60.12L135.78,59.92L135.49,59.92L128.67,63.85L128.60,64.41L127.49,65.09L34.03,119.08L33.71,119.07L32.18,118.18L32.05,117.30L27.01,114.39L26.45,114.66L26.11,114.66L24.60,113.76L24.60,111.53L116.09,58.72L116.14,58.63L117.54,57.90L124.84,53.68L129.55,50.95L129.72,50.95z"/><path style="fill:#95dce0" d="M61.24,119.19L61.23,122.01L55.64,125.27L55.31,125.26L49.70,122.01L49.74,119.23L55.25,116.02L55.68,116.02z"/><path style="fill:#95dce0" d="M43.81,129.41L43.76,132.08L38.24,135.28L37.86,135.38L32.14,132.12L32.18,129.34L38.00,126.02z"/><path style="fill:#01ff02" d="M140.09,64.59L140.09,65.16L139.79,65.62L139.18,65.62L139.18,65.28L139.46,64.78L139.79,64.46L139.96,64.46z"/><path style="fill:#01ff02" d="M136.55,66.61L136.55,67.31L136.25,67.64L135.74,67.69L135.78,67.04L136.25,66.49L136.42,66.48z"/><path style="fill:#01ff02" d="M56.18,118.94L56.58,119.32L56.53,119.70L56.02,119.96L54.91,119.96L54.55,119.82L54.36,119.32L54.75,118.94L55.13,118.81L55.81,118.81z"/><path style="fill:#01ff02" d="M39.01,129.29L39.01,129.73L38.59,130.07L37.35,130.07L36.98,129.81L36.98,129.22L37.69,128.92L38.24,128.92z"/><path style="fill:#ffffff" d="M94.88,39.02L94.59,39.52L94.58,39.26L94.81,38.95z"/><path style="fill:#ffffff" d="M91.47,40.91L91.18,41.41L91.16,41.15L91.40,40.84z"/><path style="fill:#ffffff" d="M151.48,71.74L151.20,72.24L151.18,71.98L151.41,71.67z"/><path style="fill:#ffffff" d="M60.48,97.37L42.93,107.50L34.42,112.38L33.01,112.37L33.69,111.91L58.92,97.33L59.43,97.21L60.10,97.20z"/><path style="stroke:#000000;stroke-width:0.088" d="M77.09,124.09L60.74,114.65L60.74,112.49L77.09,121.93L77.09,124.09L86.43,118.69L86.43,116.54L70.08,107.10L60.74,112.49"/><path style="stroke:#000000;stroke-width:0.088" d="M69.95,116.09L70.05,115.96L70.22,115.86L70.44,115.79L70.68,115.77L70.92,115.80L71.13,115.87L71.30,115.97L71.39,116.10L71.41,116.24L71.34,116.38L71.20,116.50L71.02,116.58L70.77,116.62L70.53,116.62L70.30,116.57L70.14,116.50L70.11,116.48L69.98,116.36L69.92,116.23L69.95,116.09"/><path style="stroke:#000000;stroke-width:0.088" d="M75.98,113.13L75.95,113.11L75.82,112.99L75.76,112.85L75.79,112.71L75.89,112.59L76.06,112.48L76.28,112.42L76.52,112.40L76.76,112.42L76.97,112.49L77.14,112.60L77.23,112.73L77.24,112.87L77.18,113.01L77.04,113.12L76.85,113.21L76.61,113.25L76.37,113.25L76.14,113.20L75.98,113.13"/><path style="stroke:#000000;stroke-width:0.088" d="M77.09,121.93L86.43,116.54"/><path style="stroke:#000000;stroke-width:0.088" d="M88.70,38.41L88.70,43.80L89.86,44.48L89.86,39.08L88.70,38.41L92.20,35.04L99.21,30.99L100.38,31.67L93.37,35.71L89.86,39.08"/><path style="stroke:#000000;stroke-width:0.088" d="M89.86,44.48L93.37,43.80L100.38,39.76L100.38,38.95L98.04,39.76L98.04,35.05L98.04,34.36L100.38,32.48L100.38,31.67"/><path style="stroke:#000000;stroke-width:0.088" d="M91.54,40.76L91.71,40.66L91.91,40.62L92.08,40.66L92.20,40.80L92.26,41.00L92.24,41.25L92.16,41.52L92.02,41.79L91.84,42.01L91.63,42.18L91.42,42.26L91.23,42.26L91.09,42.17L91.00,42.00L90.97,41.82L90.98,41.77L91.02,41.50L91.13,41.23L91.30,40.98L91.50,40.78L91.54,40.76L91.49,40.92L91.22,41.42L90.98,41.71"/><path style="stroke:#000000;stroke-width:0.088" d="M91.67,40.68L91.66,40.91L91.58,41.19L91.44,41.45L91.25,41.68L91.05,41.84L90.98,41.87"/><path style="stroke:#000000;stroke-width:0.088" d="M93.37,35.71L92.20,35.04"/><path style="stroke:#000000;stroke-width:0.088" d="M94.79,40.24L94.74,40.24L94.59,40.15L94.50,39.98L94.48,39.79L94.48,39.75L94.53,39.48L94.64,39.21L94.80,38.96L95.00,38.76L95.21,38.63L95.41,38.59L95.58,38.64L95.70,38.77L95.76,38.98L95.75,39.23L95.67,39.50L95.53,39.76L95.34,39.99L95.13,40.16L94.92,40.24L94.79,40.24"/><path style="stroke:#000000;stroke-width:0.088" d="M94.74,40.24L94.73,40.24"/><path style="stroke:#000000;stroke-width:0.088" d="M95.04,38.74L94.99,38.90L94.73,39.40L94.49,39.69"/><path style="stroke:#000000;stroke-width:0.088" d="M95.17,38.66L95.16,38.89L95.08,39.16L94.94,39.43L94.76,39.65L94.55,39.82L94.48,39.84"/><path style="stroke:#000000;stroke-width:0.088" d="M100.38,38.95L99.21,38.28L98.04,38.68"/><path style="stroke:#000000;stroke-width:0.088" d="M145.72,76.73L145.72,71.33L149.22,67.96L156.23,63.91L157.40,64.59L157.40,65.40L155.06,67.29L155.06,71.74L155.06,72.68L157.40,71.87L157.40,72.68L150.39,76.73L146.89,77.40L145.72,76.73"/><path style="stroke:#000000;stroke-width:0.088" d="M145.72,71.33L146.89,72.01L146.89,77.40"/><path style="stroke:#000000;stroke-width:0.088" d="M146.89,72.01L150.39,68.63L149.22,67.96"/><path style="stroke:#000000;stroke-width:0.088" d="M147.86,75.91L147.60,75.72L147.44,75.37L147.42,75.00L147.42,74.92L147.53,74.41L147.75,73.90L148.08,73.43L148.46,73.07L148.87,72.84L149.24,72.79L149.56,72.90L149.77,73.17L149.86,73.57L149.86,73.66L149.82,74.06L149.65,74.58L149.41,75.00L149.37,75.08L149.01,75.50L148.61,75.80L148.22,75.94L147.86,75.91"/><path style="stroke:#000000;stroke-width:0.088" d="M147.54,74.38L147.67,74.29L147.85,74.06L148.00,73.80L148.09,73.53L148.10,73.41"/><path style="stroke:#000000;stroke-width:0.088" d="M148.31,73.21L148.37,73.20L148.54,73.26L148.65,73.40L148.70,73.61L148.70,73.66L148.67,73.87L148.58,74.14L148.44,74.40L148.25,74.62L148.04,74.78L147.83,74.85L147.65,74.84L147.51,74.74L147.47,74.66"/><path style="stroke:#000000;stroke-width:0.088" d="M151.17,73.74L151.10,73.69L150.95,73.35L150.92,72.90L151.03,72.39L151.26,71.87L151.58,71.41L151.97,71.04L151.98,71.03L152.37,70.82L152.75,70.76L153.06,70.88L153.28,71.15L153.37,71.55L153.37,71.63L153.32,72.04L153.15,72.56L152.87,73.06L152.52,73.48L152.12,73.77L151.72,73.92L151.37,73.89L151.17,73.74"/><path style="stroke:#000000;stroke-width:0.088" d="M151.81,71.19L151.88,71.18L152.04,71.24L152.15,71.38L152.20,71.59L152.20,71.63L152.18,71.85L152.09,72.12L151.94,72.38L151.75,72.60L151.54,72.76L151.34,72.83L151.15,72.82L151.01,72.71L150.98,72.64"/><path style="stroke:#000000;stroke-width:0.088" d="M151.61,71.38L151.59,71.51L151.50,71.78L151.36,72.04L151.17,72.26L151.04,72.36"/><path style="stroke:#000000;stroke-width:0.088" d="M150.39,68.63L157.40,64.59"/><path style="stroke:#000000;stroke-width:0.088" d="M157.40,71.87L156.23,71.20L155.06,71.60"/><path style="stroke:#000000;stroke-width:0.088" d="M116.26,58.64L101.20,49.94L101.20,48.06L108.21,44.01L124.91,53.65"/><path style="stroke:#000000;stroke-width:0.088" d="M117.90,57.70L101.20,48.06"/><path style="stroke:#000000;stroke-width:0.088" d="M134.48,69.16L134.48,67.27L141.49,63.23L141.49,65.12L134.48,69.16L127.48,65.12"/><path style="stroke:#000000;stroke-width:0.088" d="M141.49,63.23L135.65,59.86L128.64,63.90L128.64,64.44"/><path style="stroke:#000000;stroke-width:0.088" d="M128.64,63.90L134.48,67.27"/><path style="stroke:#000000;stroke-width:0.088" d="M136.41,67.75L136.22,67.89L136.04,67.96L135.87,67.94L135.74,67.85L135.67,67.69L135.66,67.47L135.71,67.23L135.82,66.98L135.97,66.76L136.15,66.59L136.34,66.48L136.53,66.45L136.67,66.51L136.78,66.64L136.82,66.83L136.82,66.87L136.80,67.06L136.72,67.31L136.59,67.55L136.41,67.75"/><path style="stroke:#000000;stroke-width:0.088" d="M135.66,67.45L135.67,67.56L135.73,67.70L135.84,67.78L135.98,67.79L136.14,67.73L136.23,67.66L136.30,67.61L136.45,67.44L136.56,67.24L136.63,67.03L136.64,66.83L136.61,66.67L136.52,66.56L136.39,66.52L136.24,66.54L136.15,66.59"/><path style="stroke:#000000;stroke-width:0.088" d="M139.37,65.92L139.54,65.93L139.73,65.86L139.92,65.72L140.09,65.52L140.22,65.29L140.30,65.04L140.32,64.85L140.32,64.81L140.28,64.61L140.18,64.48L140.03,64.43L139.85,64.46L139.66,64.56L139.47,64.74L139.32,64.96L139.21,65.20L139.16,65.45L139.17,65.66L139.24,65.83L139.37,65.92"/><path style="stroke:#000000;stroke-width:0.088" d="M139.16,65.43L139.17,65.54L139.23,65.68L139.34,65.76L139.48,65.77L139.64,65.71L139.80,65.59L139.95,65.42L140.06,65.22L140.13,65.01L140.15,64.81L140.11,64.65L140.03,64.54L139.90,64.49L139.74,64.52L139.73,64.53"/><path style="stroke:#000000;stroke-width:0.088" d="M49.84,122.10L49.64,121.98L49.64,119.28L55.48,115.91L61.32,119.28L55.48,122.65L55.48,125.35L49.84,122.10"/><path style="stroke:#000000;stroke-width:0.088" d="M55.48,122.65L49.64,119.28"/><path style="stroke:#000000;stroke-width:0.088" d="M56.32,119.87L56.44,119.78L56.58,119.58L56.60,119.37L56.50,119.16L56.28,118.99L56.11,118.92L55.98,118.86L55.63,118.80L55.26,118.81L54.92,118.88L54.63,119.02L54.44,119.20L54.36,119.41L54.40,119.62L54.56,119.82L54.70,119.89"/><path style="stroke:#000000;stroke-width:0.088" d="M54.71,119.90L54.55,119.82L54.40,119.72L54.21,119.49L54.16,119.24L54.26,119.00L54.48,118.78L54.82,118.62L55.22,118.53L55.66,118.53L56.07,118.60L56.42,118.75L56.67,118.95L56.80,119.19L56.77,119.44L56.61,119.68L56.33,119.87L55.95,120.00L55.53,120.04L55.10,120.01L54.71,119.90"/><path style="stroke:#000000;stroke-width:0.088" d="M55.48,125.35L61.32,121.98L61.32,119.28"/><path style="stroke:#000000;stroke-width:0.088" d="M37.96,132.77L37.96,135.47L32.12,132.09L32.12,129.40L37.96,132.77L43.80,129.40L37.96,126.03L32.12,129.40"/><path style="stroke:#000000;stroke-width:0.088" d="M36.74,129.11L36.64,129.36L36.69,129.61L36.88,129.84L37.03,129.94L37.19,130.01L37.58,130.13L38.01,130.16L38.43,130.11L38.81,129.98L39.09,129.79L39.25,129.56L39.28,129.31L39.15,129.07L38.90,128.86L38.55,128.71L38.40,128.69L38.14,128.64L37.70,128.65L37.30,128.74L36.96,128.90L36.74,129.11"/><path style="stroke:#000000;stroke-width:0.088" d="M37.18,130.01L37.04,129.93L36.88,129.74L36.84,129.53L36.92,129.32L37.11,129.14L37.40,129.00L37.74,128.92L38.11,128.92L38.46,128.98L38.59,129.03L38.76,129.10L38.98,129.28L39.08,129.48L39.06,129.70L38.92,129.90L38.80,129.99"/><path style="stroke:#000000;stroke-width:0.088" d="M43.80,129.40L43.80,132.09L37.96,135.47"/><path style="stroke:#000000;stroke-width:0.088" d="M26.28,114.77L24.53,113.76L24.53,111.60L33.88,117.00L33.88,119.16L32.12,118.14L32.12,117.34L26.28,113.96L26.28,114.77L26.99,114.37"/><path style="stroke:#000000;stroke-width:0.088" d="M24.53,111.60L129.65,50.91L138.99,56.31L33.88,117.00"/><path style="stroke:#000000;stroke-width:0.088" d="M32.71,112.28L32.45,112.07L32.31,111.83L32.31,111.58L32.45,111.34L32.71,111.13L32.71,112.28L33.06,112.43L33.48,112.51L33.92,112.51L34.34,112.43L34.69,112.28L60.74,97.24L61.00,97.03L61.13,96.79L61.13,96.54L61.00,96.30L60.74,96.09L60.38,95.94L59.97,95.87L59.53,95.87L59.11,95.94L58.75,96.09L32.71,111.13"/><path style="stroke:#000000;stroke-width:0.088" d="M32.91,112.36L58.75,97.44L59.11,97.29L59.53,97.22L59.97,97.22L60.38,97.29L60.54,97.36"/><path style="stroke:#000000;stroke-width:0.088" d="M33.88,119.16L128.64,64.44"/><path style="stroke:#000000;stroke-width:0.088" d="M58.75,96.09L58.75,97.44"/><path style="stroke:#000000;stroke-width:0.088" d="M138.99,56.31L138.99,58.47L136.12,60.13"/><path style="fill:#ffffff" d="M172.02,62.67L198.43,62.67L198.43,57.03L172.02,57.03z"/><path style="stroke:#35414c;stroke-width:0.255" d="M172.02,62.67L198.43,62.67L198.43,57.03L172.02,57.03z"/><path style="stroke:#35404c;stroke-width:0.250;stroke-opacity:0.00" d="M172.02,62.67L198.43,62.67L198.43,57.03L172.02,57.03z"/><text xml:space="preserve" fill="#333f4b" stroke-width="0" x="172.73" y="61.09" font-size="3.49" opacity="1.00" font-family="Arial" font-weight="bold" font-style="italic">F24976019A</text><path style="fill:#ffffff" d="M172.02,92.60L198.43,92.60L198.43,86.96L172.02,86.96z"/><path style="stroke:#35414c;stroke-width:0.255" d="M172.02,92.60L198.43,92.60L198.43,86.96L172.02,86.96z"/><path style="stroke:#35404c;stroke-width:0.250;stroke-opacity:0.00" d="M172.02,92.60L198.43,92.60L198.43,86.96L172.02,86.96z"/><text xml:space="preserve" fill="#333f4b" stroke-width="0" x="172.73" y="91.01" font-size="3.49" opacity="1.00" font-family="Arial" font-weight="bold" font-style="italic">F24978881A</text><path style="fill:#ffffff" d="M172.02,72.65L198.43,72.65L198.43,67.01L172.02,67.01z"/><path style="stroke:#35414c;stroke-width:0.255" d="M172.02,72.65L198.43,72.65L198.43,67.01L172.02,67.01z"/><path style="stroke:#35404c;stroke-width:0.250;stroke-opacity:0.00" d="M172.02,72.65L198.43,72.65L198.43,67.01L172.02,67.01z"/><text xml:space="preserve" fill="#333f4b" stroke-width="0" x="172.73" y="71.06" font-size="3.49" opacity="1.00" font-family="Arial" font-weight="bold" font-style="italic">F24976021A</text><path style="fill:#ffffff" d="M172.02,82.62L198.43,82.62L198.43,76.98L172.02,76.98z"/><path style="stroke:#35414c;stroke-width:0.255" d="M172.02,82.62L198.43,82.62L198.43,76.98L172.02,76.98z"/><path style="stroke:#35404c;stroke-width:0.250;stroke-opacity:0.00" d="M172.02,82.62L198.43,82.62L198.43,76.98L172.02,76.98z"/><text xml:space="preserve" fill="#333f4b" stroke-width="0" x="172.73" y="81.04" font-size="3.56" opacity="1.00" font-family="Arial" font-weight="bold" font-style="italic">F24978877X</text><path style="fill:#ffffff" d="M172.02,102.57L198.43,102.57L198.43,96.93L172.02,96.93z"/><path style="stroke:#35414c;stroke-width:0.255" d="M172.02,102.57L198.43,102.57L198.43,96.93L172.02,96.93z"/><path style="stroke:#35404c;stroke-width:0.250;stroke-opacity:0.00" d="M172.02,102.57L198.43,102.57L198.43,96.93L172.02,96.93z"/><text xml:space="preserve" fill="#333f4b" stroke-width="0" x="172.73" y="100.99" font-size="3.49" opacity="1.00" font-family="Arial" font-weight="bold" font-style="italic">F31971109A</text><path style="fill:#ffffff" d="M172.02,52.70L198.43,52.70L198.43,47.06L172.02,47.06z"/><path style="stroke:#35414c;stroke-width:0.255" d="M172.02,52.70L198.43,52.70L198.43,47.06L172.02,47.06z"/><path style="stroke:#35404c;stroke-width:0.250;stroke-opacity:0.00" d="M172.02,52.70L198.43,52.70L198.43,47.06L172.02,47.06z"/><text xml:space="preserve" fill="#333f4b" stroke-width="0" x="172.73" y="51.11" font-size="3.49" opacity="1.00" font-family="Arial" font-weight="bold" font-style="italic">F24975269A</text><g id="paperID" visibility="hidden" opacity="0.00" transform="scale(0.000100)"><path style="stroke:#000000;stroke-width:0.500;fill:#e6e6e6;fill-rule:evenodd" d="M-2000.00,-2000.00L2210.00,-2000.00L2210.00,2150.00L-2000.00,2150.00zM0.00,0.00L210.00,0.00L210.00,150.00L0.00,150.00z"/><path style="fill:#000000;fill-opacity:0.118" d="M3.00,150.00L210.00,150.00L210.00,3.00L213.00,3.00L213.00,153.00L3.00,153.00z"/></g><g id="hotspot.0" onmouseover="ShowHotSpot(evt,'0')" onmouseout="HideHotSpot(evt,'0')" onmousemove="ShowToolTip(evt,'0',&quot;F24975269&quot;)" opacity="0"><path style="fill:#00ff00;fill-rule:evenodd" d="M198.66,47.31L198.64,52.43L198.36,52.93L172.08,52.89L171.77,52.67L171.84,47.15L198.39,47.04zM138.80,56.24L138.80,58.47L136.33,59.96L135.54,59.92L128.95,63.59L128.52,64.47L34.49,118.75L33.24,118.75L32.20,118.21L31.93,117.17L27.48,114.52L25.93,114.54L24.59,113.75L24.59,111.48L129.50,50.99L129.85,50.99zM60.23,97.44L34.75,112.19L33.16,112.20L59.13,97.20L60.30,97.20z"/></g><g id="hotspot.1" onmouseover="ShowHotSpot(evt,'1')" onmouseout="HideHotSpot(evt,'1')" onmousemove="ShowToolTip(evt,'1',&quot;F24976019A&quot;)" opacity="0"><path style="fill:#00ff00;fill-rule:evenodd" d="M100.22,31.57L100.21,32.47L98.09,34.30L98.00,38.52L99.68,38.40L100.21,38.93L100.19,39.80L93.56,43.69L90.92,44.19L89.40,44.21L88.90,43.92L88.90,38.24L92.23,35.00L99.05,31.04L99.40,31.04zM198.66,57.28L198.64,62.41L198.36,62.91L172.08,62.86L171.77,62.65L171.84,57.12L198.39,57.02z"/></g><g id="hotspot.2" onmouseover="ShowHotSpot(evt,'2')" onmouseout="HideHotSpot(evt,'2')" onmousemove="ShowToolTip(evt,'2',&quot;F24976021A&quot;)" opacity="0"><path style="fill:#00ff00;fill-rule:evenodd" d="M157.45,64.65L157.44,65.28L155.23,67.03L155.23,71.34L156.37,71.20L157.45,72.02L157.43,72.61L153.10,75.13L149.99,76.76L146.68,77.26L145.86,76.73L145.87,71.05L148.49,68.69L150.58,67.11L156.39,63.88zM198.66,67.26L198.64,72.38L198.36,72.88L172.08,72.84L171.77,72.62L171.84,67.10L198.39,66.99z"/></g><g id="hotspot.3" onmouseover="ShowHotSpot(evt,'3')" onmouseout="HideHotSpot(evt,'3')" onmousemove="ShowToolTip(evt,'3',&quot;F24978877X&quot;)" opacity="0"><path style="fill:#00ff00;fill-rule:evenodd" d="M198.66,77.23L198.64,82.36L198.36,82.86L172.08,82.81L171.77,82.60L171.84,77.07L198.39,76.97zM86.27,116.38L86.19,118.74L77.53,123.75L76.56,123.75L60.73,114.62L60.73,112.44L69.91,107.16L70.26,107.16z"/></g><g id="hotspot.4" onmouseover="ShowHotSpot(evt,'4')" onmouseout="HideHotSpot(evt,'4')" onmousemove="ShowToolTip(evt,'4',&quot;F24978881A&quot;)" opacity="0"><path style="fill:#00ff00;fill-rule:evenodd" d="M124.62,53.40L124.65,53.72L116.64,58.39L115.94,58.39L101.42,50.05L101.41,47.86L107.71,44.17L108.59,44.17zM141.40,63.09L141.43,65.04L134.99,68.86L134.03,68.89L127.72,65.16L127.67,64.92L128.52,64.47L128.95,63.59L135.54,59.91L135.89,59.91zM198.66,87.21L198.64,92.33L198.36,92.83L172.08,92.79L171.77,92.57L171.84,87.05L198.39,86.94z"/></g><g id="hotspot.5" onmouseover="ShowHotSpot(evt,'5')" onmouseout="HideHotSpot(evt,'5')" onmousemove="ShowToolTip(evt,'5',&quot;F31971109&quot;)" opacity="0"><path style="fill:#00ff00;fill-rule:evenodd" d="M198.66,97.18L198.64,102.31L198.36,102.81L172.08,102.76L171.77,102.55L171.84,97.02L198.39,96.92zM61.33,119.27L61.33,121.97L56.01,125.07L55.03,125.06L49.70,121.97L49.79,119.09L55.59,115.86zM41.91,128.19L43.77,129.48L43.78,131.98L38.49,135.11L37.70,135.31L32.20,132.12L32.20,129.32L37.89,126.06L38.24,126.06z"/></g></g></svg>
