<?xml version="1.0" encoding="UTF-8" standalone="no"?>
<svg xmlns="http://www.w3.org/2000/svg" xmlns:xlink="http://www.w3.org/1999/xlink" width="210.000mm" height="150.000mm" viewBox="0.000000 0.000000 210.000000 150.000000" stroke-linejoin="round" stroke-linecap="round" fill="none" fill-rule="evenodd"><desc>Composer Export</desc><script type="text/ecmascript"><![CDATA[
if(typeof(top) != "undefined")
{
	top.ShowPaper = ShowPaper;
}
function ShowHotSpot(evt,hotspotid)
{
	var svgDocument = evt.target.ownerDocument;
	var strId = "hotspot."+hotspotid;
	var hotspot = svgDocument.getElementById(strId);
	if(hotspot)
		hotspot.setAttribute("opacity",".5");
}
function HideHotSpot(evt,hotspotid)
{
	var svgDocument = evt.target.ownerDocument;
	var strId = "hotspot."+hotspotid;
	var hotspot = svgDocument.getElementById(strId);
	if(hotspot)
		hotspot.setAttribute("opacity","0");

	var toolTip = svgDocument.getElementById('ToolTip');
	if(toolTip)
		toolTip.setAttribute("visibility","hidden");
}
function ShowToolTip(evt,hotspotid,strTooltip)
{
	if(strTooltip=="")
	return;

	// change text
	var svgDocument = evt.target.ownerDocument;
	var tiptext = svgDocument.getElementById('ToolTipText');
	if( !tiptext )
	return;
	tiptext.firstChild.nodeValue = " " + strTooltip + "  " ;

	// show tooltip before, else some refresh issue

	var toolTip = svgDocument.getElementById('ToolTip');
	if(!toolTip)
	return;

	toolTip.setAttribute("visibility","visible");
	toolTip.setAttribute("opacity",".95");

	// move tooltip
	// get viewbox

	var root = svgDocument.documentElement;
	var vbox = (root.getAttribute("viewBox")).split(' ');
	var x0 = parseFloat(vbox[0]);
	var y0 = parseFloat(vbox[1]);
	var vboxW = parseFloat(vbox[2]);
	var vboxH = parseFloat(vbox[3]);

	// get default width of svg

	var strW = root.getAttribute("width");
	var svgW = parseFloat(strW);
	if(strW.indexOf('mm') != -1)
	svgW *= 3.779;

	var strH = root.getAttribute("height");
	var svgH = parseFloat(strH);
	if(strH.indexOf('mm') != -1)
	svgH *= 3.779;  	// 96 dpi  -> 96/25.4 = 3.779

	// update the viewbox / width / height if svg is embedded in html with zoom fit all
	var realx0 = x0;
	var realy0 = y0;
	var realvboxW = vboxW;
	var realvboxH = vboxH;
	var realsvgW = svgW;
	var realsvgH = svgH;

	if ((typeof(top) == "undefined") || (typeof(top.svgctl1) != "undefined")) // embedded in html
	{
		// get window size in pxl

		svgW = window.innerWidth;
		svgH = window.innerHeight;

		// calculate real viewbox

		realsvgW = svgW;
		realsvgH = svgH;
		if((svgW / svgH) > (vboxW / vboxH))
		{
			realvboxW = (vboxH * svgW) / svgH;
			realvboxH = vboxH;
			realx0 = x0 - (realvboxW - vboxW)/2 ;
		}
		else
		{
			realvboxH = (vboxW * svgH) / svgW;
			realvboxW = vboxW;
			realy0 = y0 - (realvboxH - vboxH)/2 ;
		}
	}

	// get user zoom/pan

	var newScale = root.currentScale;
	var translation = root.currentTranslate;

	// transform pxl to user unit

	var xPos = (((evt.clientX+10- translation.x)/newScale) * realvboxW)/realsvgW  + realx0 ;
	var yPos = (((evt.clientY+5- translation.y)/newScale) * realvboxH)/ realsvgH  + realy0 ;
	var scaleForWidth = ( (1 / newScale) * realvboxH) / realsvgH;

	// move tooltip

	toolTip.setAttribute("transform", "translate(" + xPos + "," + yPos + ")" );

	// resize tooltip

	var fontsize = 12;
	tiptext.setAttribute("font-size",fontsize*scaleForWidth);
	tiptext.setAttribute("y", fontsize*scaleForWidth);
	var tipBG = svgDocument.getElementById('ToolTipBG');
	var outline = tiptext.getBBox();
	if(tipBG)
	{
		tipBG.setAttribute("stroke-width", 1*scaleForWidth);
		tipBG.setAttribute("width", Number(outline.width) );
		tipBG.setAttribute("height", Number(outline.height) + fontsize*.5*scaleForWidth );
	}
	var ToolTipShadow = svgDocument.getElementById('ToolTipShadow');
	if(ToolTipShadow)
	{
		ToolTipShadow.setAttribute("width", Number(outline.width) );
		ToolTipShadow.setAttribute("height", Number(outline.height) + fontsize*.5*scaleForWidth );
		ToolTipShadow.setAttribute("x", 3*scaleForWidth);
		ToolTipShadow.setAttribute("y", 3*scaleForWidth);
	}
}
function ShowPaper()
{
  var svgDocument = getDocument();
  var paper = svgDocument.getElementById("paperID");
  if(paper)
  {
    paper.setAttribute("transform","scale(1)");
    paper.setAttribute("opacity","1");
    paper.setAttribute("visibility","visible");
  }
  var svg = svgDocument.getRootElement();
  if(svg)
  {
    svg.setAttribute("width","220.000mm");
    svg.setAttribute("height","160.000mm");
    svg.setAttribute("viewBox","-5.000000 -5.000000 220.000000 160.000000");
  }
}
]]></script><defs/><g><path style="fill:#ffffff" d="M209.93,149.99L0.04,149.99L0.04,0.04L209.93,0.04z"/><path style="fill:#95dce0" d="M42.28,26.78L44.43,28.05L44.57,28.29L44.56,30.88L43.80,43.80L43.80,45.21L53.51,40.33L55.08,40.07L57.12,41.21L57.10,41.77L51.02,64.58L49.88,68.64L32.35,71.38L29.86,71.39L27.09,69.72L26.57,69.35L25.93,68.10L25.81,67.08L25.81,64.45L27.57,34.67L27.96,33.79L28.30,33.37L37.08,28.97L41.85,26.66z"/><path style="fill:#95dce0" d="M111.84,67.97L111.98,68.34L115.64,70.51L116.42,70.62L118.44,71.76L118.94,72.12L117.16,78.77L117.16,79.75L117.29,80.13L117.81,80.75L121.10,82.66L121.61,83.29L121.60,83.84L119.07,93.35L118.78,93.81L117.38,94.07L116.15,94.07L113.74,92.66L113.46,92.66L111.85,98.79L111.60,99.31L109.56,99.66L109.18,99.38L109.09,98.99L107.55,98.11L107.41,97.87L106.78,97.73L100.95,94.31L100.32,94.33L100.31,93.72L107.47,67.05L107.62,66.94L109.69,66.69z"/><path style="fill:#95dce0" d="M142.40,84.67L142.64,85.20L141.71,101.72L142.13,101.58L151.59,96.85L153.29,96.72L155.18,97.84L147.97,125.04L147.84,125.16L129.80,128.03L128.70,128.03L127.69,127.89L125.04,126.24L124.53,125.86L123.88,124.61L123.76,123.34L123.76,121.35L125.53,91.32L125.75,90.64L126.43,89.81L139.55,83.29L140.11,83.29z"/><path style="fill:#8aa7bf" d="M90.68,57.83L91.33,58.32L91.33,59.14L91.01,59.72L90.27,60.24L89.68,60.09L82.70,56.06L82.43,55.81L82.57,54.69L83.17,54.02L83.84,53.88z"/><path style="fill:#8aa7bf" d="M79.54,65.68L81.06,66.69L81.06,67.50L80.75,68.08L80.00,68.61L79.66,68.61L72.43,64.42L72.16,64.17L72.32,63.07L72.77,62.51L73.28,62.25L73.58,62.25z"/><path style="fill:#8aa7bf" d="M64.59,74.29L64.85,74.68L64.58,75.48L64.04,75.96L63.69,75.96L56.47,71.76L56.46,70.78L56.93,70.24L57.49,70.24z"/><path style="fill:#8aa7bf" d="M93.99,78.22L94.16,78.44L93.46,78.52L93.46,78.73L94.11,78.78L94.16,78.44L94.37,78.47L95.13,78.98L95.13,80.05L95.00,80.30L94.33,80.90L93.59,80.90L86.38,76.70L86.37,75.60L86.84,74.92L87.35,74.67L87.77,74.67z"/><path style="fill:#01ff02" d="M83.26,55.48L83.34,55.97L82.95,55.93L82.92,55.40z"/><path style="fill:#01ff02" d="M87.28,56.07L87.28,56.21L86.57,56.21L86.57,56.07L87.01,55.91z"/><path style="fill:#01ff02" d="M89.31,58.95L89.29,59.53L89.05,59.48L88.90,59.22L88.86,58.83L89.17,58.81z"/><path style="fill:#01ff02" d="M73.09,64.03L73.03,64.43L72.83,64.42L72.70,64.29L72.65,63.77L72.93,63.77z"/><path style="fill:#01ff02" d="M77.01,64.42L76.97,64.67L76.48,64.68L76.31,64.57L76.31,64.43L76.75,64.27z"/><path style="fill:#01ff02" d="M79.04,67.31L79.02,67.89L78.79,67.85L78.64,67.71L78.65,67.23L78.91,67.18z"/><path style="fill:#01ff02" d="M113.50,69.75L113.10,69.73L113.07,69.60z"/><path style="fill:#01ff02" d="M108.80,72.25L108.67,72.70L108.40,72.70L108.24,72.27L108.56,72.01z"/><path style="fill:#01ff02" d="M88.16,75.07L88.17,75.21L88.00,75.33L87.63,75.33L87.46,75.21L87.47,75.07L87.78,74.94z"/><path style="fill:#01ff02" d="M114.52,75.56L114.47,75.95L114.00,75.95L114.00,75.34L114.25,75.30z"/><path style="fill:#01ff02" d="M90.19,78.09L90.18,78.53L89.94,78.49L89.79,78.35L89.80,77.88L89.93,77.84z"/><path style="fill:#01ff02" d="M93.46,78.52L94.16,78.44L94.11,78.78L93.46,78.73z"/><path style="fill:#01ff02" d="M106.28,81.25L106.27,81.83L105.99,81.82L105.84,81.39L105.99,81.13L106.15,81.11z"/><path style="fill:#01ff02" d="M112.11,84.69L111.97,85.12L111.59,85.08L111.60,84.46L111.85,84.42z"/><path style="fill:#01ff02" d="M103.48,90.30L103.86,90.25L103.82,90.92L103.58,90.95L103.47,90.79z"/><path style="fill:#01ff02" d="M109.18,93.59L109.56,93.55L109.52,94.21L109.19,94.21z"/><path style="fill:#597ea0" d="M76.76,81.00L77.14,81.38L77.09,82.67L76.74,82.68L75.87,82.15L75.68,82.26L75.10,92.33L75.06,95.51L93.98,92.53L98.18,94.95L98.30,95.13L98.00,95.34L78.61,98.37L77.25,98.37L76.48,98.26L71.94,95.58L71.30,95.07L70.66,93.82L70.54,92.80L70.54,90.56L71.16,79.91L71.68,78.91L72.14,78.60L72.57,78.60z"/><path style="fill:#ffffff" d="M111.09,79.11L111.35,79.49L111.34,80.29L109.32,87.90L107.55,86.84L107.40,86.60L107.41,85.87L109.44,78.25L109.57,78.22z"/><path style="stroke:#000000;stroke-width:0.088" d="M79.43,68.28L79.47,67.55L78.96,67.26L79.02,67.34L79.10,67.47L79.14,67.61L79.15,67.75L79.12,67.86L79.06,67.94L78.97,67.98L78.92,67.98L79.43,68.28L79.53,68.48L79.69,68.60L72.44,64.41L72.27,64.29L72.17,64.09L72.68,64.38L72.66,64.36L72.58,64.24L72.52,64.10L72.49,63.96L72.50,63.83L72.55,63.73L72.62,63.67L72.72,63.65L72.21,63.36L72.35,63.04L72.53,62.74L72.76,62.49L73.37,62.19L73.58,62.23L80.83,66.42L80.62,66.38L80.02,66.68L76.51,64.66L76.45,64.64L76.34,64.58L76.27,64.52L72.76,62.49"/><path style="stroke:#000000;stroke-width:0.088" d="M72.17,64.09L72.21,63.36"/><path style="stroke:#000000;stroke-width:0.088" d="M72.68,64.38L72.77,64.44L72.87,64.50L72.92,64.52L72.97,64.52L73.06,64.48L73.12,64.40L73.15,64.28L73.14,64.15L73.09,64.00L73.02,63.87L72.96,63.79L72.83,63.69L72.72,63.65"/><path style="stroke:#000000;stroke-width:0.088" d="M72.92,64.52L78.68,67.84L78.66,67.83L78.58,67.70L78.52,67.56L78.49,67.42L78.50,67.29L78.55,67.19L78.62,67.13L78.72,67.12L72.96,63.79"/><path style="stroke:#000000;stroke-width:0.088" d="M72.87,63.72L72.78,63.69L72.70,63.71L72.64,63.76L72.60,63.84L72.59,63.95L72.61,64.07L72.66,64.19L72.73,64.30L72.82,64.38L72.91,64.42L73.00,64.43L73.07,64.40L73.12,64.33L73.14,64.24"/><path style="stroke:#000000;stroke-width:0.088" d="M73.37,62.19L76.87,64.22L76.99,64.28L77.12,64.36L80.62,66.38"/><path style="stroke:#000000;stroke-width:0.088" d="M76.27,64.52L76.26,64.51L76.23,64.42L76.25,64.34L76.32,64.27L76.43,64.22L76.57,64.19L76.72,64.19L76.87,64.22"/><path style="stroke:#000000;stroke-width:0.088" d="M77.00,64.63L77.04,64.61L77.08,64.54L77.08,64.47L77.03,64.41L76.95,64.35L76.84,64.31L76.71,64.29L76.58,64.29L76.48,64.31L76.47,64.31L76.37,64.36L76.31,64.42L76.30,64.48L76.32,64.55L76.36,64.60"/><path style="stroke:#000000;stroke-width:0.088" d="M76.51,64.66L76.59,64.68L76.74,64.69L76.89,64.67L77.01,64.63L77.10,64.57L77.15,64.49L77.15,64.41L77.12,64.36"/><path style="stroke:#000000;stroke-width:0.088" d="M78.92,67.98L78.87,67.97L78.77,67.91L78.68,67.84"/><path style="stroke:#000000;stroke-width:0.088" d="M79.14,67.70L79.12,67.79L79.07,67.86L79.00,67.89L78.91,67.89L78.82,67.84L78.73,67.76L78.66,67.65L78.61,67.54L78.59,67.42L78.60,67.31L78.64,67.22L78.70,67.17L78.78,67.16L78.87,67.18"/><path style="stroke:#000000;stroke-width:0.088" d="M78.72,67.12L78.83,67.15L78.96,67.26"/><path style="stroke:#000000;stroke-width:0.088" d="M79.47,67.55L79.60,67.23L79.66,67.15L79.79,66.93L80.02,66.68"/><path style="stroke:#000000;stroke-width:0.088" d="M80.83,66.42L81.00,66.54L81.10,66.74L81.06,67.46L80.92,67.78L80.74,68.08L80.51,68.33L79.90,68.63L79.69,68.60"/><path style="stroke:#000000;stroke-width:0.088" d="M93.56,80.65L93.67,80.85L93.83,80.98L86.57,76.79L86.41,76.67L86.31,76.46L89.81,78.49L89.91,78.55L90.01,78.61L90.06,78.63L93.56,80.65L93.61,79.93L90.10,77.90L89.97,77.80L89.86,77.76L86.35,75.74L86.31,76.46"/><path style="stroke:#000000;stroke-width:0.088" d="M86.35,75.74L86.48,75.42L86.67,75.12L86.90,74.87L87.50,74.57L88.01,74.86L87.86,74.84L87.71,74.84L87.57,74.87L87.46,74.92L87.39,74.99L87.37,75.07L87.39,75.15L87.40,75.16L87.48,75.23L87.59,75.29L87.65,75.30L93.41,78.63L93.40,78.61L93.37,78.53L93.39,78.45L93.46,78.38L93.57,78.33L93.71,78.30L93.86,78.30L94.01,78.33L88.25,75.00L88.28,75.05L88.29,75.14L88.24,75.21L88.15,75.27L88.02,75.32L87.88,75.33L87.72,75.32L87.65,75.30"/><path style="stroke:#000000;stroke-width:0.088" d="M87.40,75.16L86.90,74.87"/><path style="stroke:#000000;stroke-width:0.088" d="M88.13,75.28L88.17,75.25L88.21,75.19L88.21,75.12L88.17,75.05L88.10,75.00L88.09,74.99L87.98,74.95L87.85,74.93L87.72,74.93L87.60,74.96L87.51,75.00L87.45,75.06L87.43,75.13L87.46,75.20L87.50,75.24"/><path style="stroke:#000000;stroke-width:0.088" d="M87.50,74.57L87.71,74.60L94.97,78.79L94.76,78.76L94.26,78.47L94.28,78.52L94.29,78.60L94.24,78.68L94.15,78.74L94.03,78.78L93.88,78.80L93.73,78.78L93.65,78.77L94.15,79.06L94.76,78.76"/><path style="stroke:#000000;stroke-width:0.088" d="M88.25,75.00L88.13,74.92L88.01,74.86"/><path style="stroke:#000000;stroke-width:0.088" d="M89.81,78.49L89.80,78.47L89.71,78.35L89.65,78.21L89.63,78.06L89.64,77.94L89.68,77.84L89.76,77.78L89.86,77.76"/><path style="stroke:#000000;stroke-width:0.088" d="M90.06,78.63L90.11,78.63L90.20,78.59L90.26,78.51L90.28,78.39L90.27,78.26L90.23,78.11L90.16,77.98L90.10,77.90"/><path style="stroke:#000000;stroke-width:0.088" d="M90.28,78.35L90.26,78.44L90.21,78.51L90.14,78.54L90.05,78.53L89.96,78.48L89.87,78.40L89.80,78.30L89.75,78.18L89.73,78.06L89.74,77.95L89.77,77.87L89.84,77.82L89.92,77.80L90.00,77.83"/><path style="stroke:#000000;stroke-width:0.088" d="M90.15,78.53L90.21,78.50"/><path style="stroke:#000000;stroke-width:0.088" d="M93.83,80.98L94.04,81.01L94.65,80.71L94.87,80.46L95.06,80.16L95.20,79.84L95.24,79.12L95.13,78.92L94.97,78.79"/><path style="stroke:#000000;stroke-width:0.088" d="M93.61,79.93L93.74,79.61L93.93,79.31L94.15,79.06"/><path style="stroke:#000000;stroke-width:0.088" d="M94.26,78.47L94.13,78.38L94.01,78.33"/><path style="stroke:#000000;stroke-width:0.088" d="M93.41,78.63L93.48,78.69L93.59,78.75L93.65,78.77"/><path style="stroke:#000000;stroke-width:0.088" d="M94.14,78.74L94.18,78.72L94.22,78.65L94.21,78.58L94.17,78.52L94.10,78.47L94.09,78.46L93.98,78.42L93.85,78.40L93.72,78.40L93.60,78.42L93.51,78.47L93.45,78.53L93.43,78.59L93.46,78.66L93.50,78.70"/><path style="stroke:#000000;stroke-width:0.088" d="M89.19,59.60L89.69,59.89L89.80,60.10L89.96,60.22L82.70,56.03L82.54,55.91L82.44,55.70L82.48,54.98L82.98,55.27L82.89,55.29L82.81,55.35L82.77,55.45L82.76,55.57L82.78,55.71L82.84,55.85L82.93,55.98L82.94,56.00L83.04,56.06L83.14,56.12L83.19,56.14L83.24,56.13L83.32,56.10L83.38,56.02L83.41,55.90L83.40,55.76L83.36,55.62L83.29,55.49L83.23,55.41L88.98,58.74L89.10,58.77L89.23,58.88L89.29,58.95L89.36,59.09L89.41,59.23L89.41,59.37L89.39,59.48L89.33,59.56L89.24,59.60L89.19,59.60L89.14,59.58L89.04,59.53L88.94,59.46L83.19,56.14"/><path style="stroke:#000000;stroke-width:0.088" d="M82.44,55.70L82.94,56.00"/><path style="stroke:#000000;stroke-width:0.088" d="M83.41,55.86L83.39,55.94L83.34,56.01L83.26,56.05L83.18,56.04L83.09,55.99L83.00,55.91L82.93,55.81L82.88,55.69L82.87,55.67L82.86,55.57L82.86,55.46L82.90,55.38L82.96,55.32L83.05,55.31L83.13,55.34"/><path style="stroke:#000000;stroke-width:0.088" d="M82.48,54.98L82.61,54.66L82.80,54.36L83.03,54.11L83.63,53.81L87.14,55.83L87.26,55.89L87.38,55.98L90.89,58.00L90.28,58.30L86.78,56.28L86.72,56.26L86.61,56.20L86.53,56.14L83.03,54.11"/><path style="stroke:#000000;stroke-width:0.088" d="M83.23,55.41L83.09,55.31L82.98,55.27"/><path style="stroke:#000000;stroke-width:0.088" d="M83.63,53.81L83.84,53.84L91.10,58.03L90.89,58.00"/><path style="stroke:#000000;stroke-width:0.088" d="M86.53,56.14L86.53,56.12L86.50,56.04L86.52,55.96L86.59,55.89L86.70,55.84L86.84,55.81L86.99,55.81L87.14,55.83"/><path style="stroke:#000000;stroke-width:0.088" d="M87.26,56.25L87.31,56.22L87.34,56.16L87.34,56.09L87.30,56.02L87.22,55.97L87.11,55.92L86.98,55.90L86.85,55.91L86.73,55.93L86.64,55.97L86.58,56.03L86.56,56.10L86.59,56.17L86.63,56.21"/><path style="stroke:#000000;stroke-width:0.088" d="M86.78,56.28L86.86,56.29L87.01,56.30L87.15,56.29L87.28,56.25L87.37,56.19L87.42,56.11L87.41,56.03L87.38,55.98"/><path style="stroke:#000000;stroke-width:0.088" d="M88.94,59.46L88.93,59.44L88.84,59.32L88.78,59.18L88.76,59.04L88.77,58.91L88.81,58.81L88.89,58.75L88.99,58.74"/><path style="stroke:#000000;stroke-width:0.088" d="M89.41,59.32L89.39,59.41L89.34,59.48L89.27,59.51L89.18,59.50L89.09,59.46L89.00,59.38L88.93,59.27L88.88,59.15L88.86,59.03L88.87,58.92L88.90,58.84L88.97,58.79L89.05,58.78L89.13,58.80"/><path style="stroke:#000000;stroke-width:0.088" d="M89.23,58.88L89.74,59.17L89.69,59.89"/><path style="stroke:#000000;stroke-width:0.088" d="M89.96,60.22L90.17,60.25L90.78,59.95L91.00,59.70L91.19,59.40L91.33,59.08L91.37,58.36L91.26,58.16L91.10,58.03"/><path style="stroke:#000000;stroke-width:0.088" d="M89.74,59.17L89.87,58.85L90.06,58.55L90.28,58.30"/><path style="stroke:#000000;stroke-width:0.088" d="M57.13,72.12L56.49,71.76L56.38,71.61L56.33,71.39L56.36,71.13L56.45,70.85L56.60,70.59L56.79,70.37L57.01,70.21L57.22,70.14L57.41,70.15L64.61,74.31L64.42,74.29L64.21,74.37L64.00,74.52L63.80,74.75L63.66,75.00L63.65,75.01L63.56,75.29L63.54,75.55L63.58,75.77L63.69,75.92L57.13,72.12"/><path style="stroke:#000000;stroke-width:0.088" d="M63.69,75.92L63.86,75.98L64.06,75.95L64.28,75.83L64.48,75.64L64.66,75.39L64.78,75.12L64.83,74.89L64.84,74.84L64.83,74.60L64.75,74.42L64.61,74.31"/><path style="stroke:#000000;stroke-width:0.088" d="M100.31,94.27L100.28,94.25L100.25,94.21L100.24,94.16L100.23,94.12L100.24,94.07L107.44,67.06L107.46,67.02L107.48,66.99L107.52,66.97L107.55,66.97L107.59,66.98L107.70,67.05L100.42,94.34L100.31,94.27"/><path style="stroke:#000000;stroke-width:0.088" d="M100.42,94.34L100.93,94.26L108.21,66.97L110.39,68.23L110.32,68.51L111.86,68.26L111.93,67.98L109.64,66.66L109.60,66.65L107.52,66.97"/><path style="stroke:#000000;stroke-width:0.088" d="M102.69,95.27L100.93,94.26"/><path style="stroke:#000000;stroke-width:0.088" d="M107.64,95.60L108.15,95.52L109.05,92.16L108.53,92.24L107.64,95.60L107.31,95.41L107.16,95.35L106.95,95.34L106.76,95.43L106.61,95.60L106.51,95.83L106.47,96.10L106.51,96.37L106.60,96.63L106.76,96.84L106.90,96.95L107.41,96.87L107.74,97.06L107.55,97.76L107.04,97.84L102.68,95.32L102.86,94.62L103.38,94.54L103.59,94.66L103.08,94.74L102.86,94.62"/><path style="stroke:#000000;stroke-width:0.088" d="M103.08,94.74L103.22,94.80L103.43,94.81L103.62,94.73L103.78,94.56L103.88,94.34L103.92,94.07L103.89,93.79L103.80,93.53L103.64,93.32L103.49,93.20L103.27,93.08L104.17,89.72L104.39,89.84L104.53,89.90L104.74,89.91L104.93,89.83L105.09,89.67L105.19,89.44L105.23,89.17L105.20,88.89L105.10,88.64L104.95,88.43L104.80,88.31L104.58,88.18L107.90,75.72L108.12,75.85L108.26,75.91L108.47,75.92L108.66,75.83L108.82,75.67L108.92,75.44L108.96,75.18L108.93,74.90L108.83,74.64L108.68,74.43L108.53,74.31L108.31,74.18L109.21,70.83L109.43,70.95L109.57,71.01L109.78,71.02L109.97,70.94L110.12,70.77L110.23,70.54L110.27,70.28L110.25,70.16L110.24,70.00L110.14,69.74L109.99,69.53L109.84,69.41L109.62,69.29L109.81,68.59L114.17,71.11L113.98,71.81L113.66,71.62L113.46,71.55L113.26,71.56L113.07,71.67L112.93,71.85L112.84,72.09L112.82,72.36L112.86,72.64L112.98,72.88L113.14,73.08L113.25,73.16L113.57,73.35L112.68,76.70L112.35,76.52L112.16,76.45L111.95,76.46L111.77,76.56L111.62,76.75L111.53,76.99L111.51,77.26L111.56,77.53L111.67,77.78L111.83,77.98L111.94,78.06L112.27,78.24L109.43,88.88L108.95,90.70L108.62,90.51L108.43,90.44L108.22,90.46L108.03,90.56L107.89,90.74L107.80,90.98L107.78,91.25L107.83,91.53L107.94,91.78L108.10,91.97L108.21,92.05L108.53,92.24"/><path style="stroke:#000000;stroke-width:0.088" d="M103.59,94.66L103.53,94.62L103.36,94.44L103.24,94.21L103.17,93.94L103.18,93.66L103.25,93.41L103.38,93.21L103.44,93.17"/><path style="stroke:#000000;stroke-width:0.088" d="M103.90,94.21L103.85,94.11L103.79,93.84L103.79,93.56L103.80,93.54"/><path style="stroke:#000000;stroke-width:0.088" d="M103.98,90.43L103.96,90.38L103.89,90.26L103.79,90.17L103.68,90.13L103.56,90.14L103.46,90.20L103.39,90.30L103.34,90.43L103.33,90.58L103.36,90.73L103.42,90.87L103.51,90.97L103.56,91.01L103.61,91.03L103.73,91.05L103.82,91.02"/><path style="stroke:#000000;stroke-width:0.088" d="M103.98,90.44L103.97,90.41L103.90,90.30L103.82,90.23L103.73,90.19L103.63,90.20L103.54,90.25L103.47,90.34L103.44,90.45L103.43,90.57L103.45,90.70L103.50,90.82L103.58,90.91L103.67,90.96L103.77,90.97L103.84,90.95"/><path style="stroke:#000000;stroke-width:0.088" d="M104.39,89.84L104.90,89.76L104.84,89.72L104.67,89.55L104.54,89.31L104.48,89.04L104.48,88.76L104.55,88.51L104.69,88.31L104.74,88.27"/><path style="stroke:#000000;stroke-width:0.088" d="M104.90,89.76L104.68,89.64L104.17,89.72"/><path style="stroke:#000000;stroke-width:0.088" d="M105.10,88.64L105.10,88.67L105.09,88.94L105.16,89.21L105.21,89.31"/><path style="stroke:#000000;stroke-width:0.088" d="M108.43,88.87L105.70,87.29L105.54,87.16L105.41,86.97L105.33,86.75L105.31,86.51L105.34,86.28L107.58,77.88L107.66,77.68L107.79,77.53L107.96,77.44L108.13,77.43L108.31,77.49L111.04,79.07L111.20,79.20L111.32,79.39L111.40,79.61L111.43,79.85L111.40,80.08L109.16,88.48L109.07,88.68L108.95,88.83L108.78,88.92L108.62,88.93L108.60,88.93L108.43,88.87L108.99,88.78"/><path style="stroke:#000000;stroke-width:0.088" d="M105.34,86.28L107.39,85.95L109.47,78.16"/><path style="stroke:#000000;stroke-width:0.088" d="M105.70,87.29L107.75,86.97L107.59,86.84L107.46,86.65L107.38,86.43L107.36,86.19L107.39,85.95"/><path style="stroke:#000000;stroke-width:0.088" d="M106.41,81.33L106.39,81.28L106.31,81.16L106.21,81.08L106.10,81.04L105.99,81.04L105.89,81.10L105.81,81.20L105.76,81.33L105.75,81.48L105.78,81.63L105.84,81.77L105.93,81.87L105.99,81.91L106.04,81.94L106.15,81.95L106.25,81.92"/><path style="stroke:#000000;stroke-width:0.088" d="M106.40,81.34L106.39,81.31L106.33,81.21L106.25,81.13L106.15,81.10L106.06,81.10L105.97,81.15L105.90,81.24L105.86,81.35L105.85,81.48L105.87,81.61L105.93,81.72L106.00,81.81L106.05,81.84L106.09,81.86L106.19,81.88L106.27,81.85"/><path style="stroke:#000000;stroke-width:0.088" d="M106.90,96.95L107.23,97.14L107.04,97.84"/><path style="stroke:#000000;stroke-width:0.088" d="M107.55,97.76L107.48,98.04L109.24,99.05"/><path style="stroke:#000000;stroke-width:0.088" d="M107.23,97.14L107.74,97.06"/><path style="stroke:#000000;stroke-width:0.088" d="M107.41,96.87L107.46,96.89L107.67,96.94L107.87,96.90L108.05,96.77L108.18,96.57L108.24,96.32L108.24,96.04L108.18,95.77L108.05,95.53"/><path style="stroke:#000000;stroke-width:0.088" d="M108.05,96.77L107.89,96.66L107.73,96.45L107.63,96.20L107.60,95.92L107.63,95.65L107.66,95.59"/><path style="stroke:#000000;stroke-width:0.088" d="M107.75,86.97L109.32,87.88"/><path style="stroke:#000000;stroke-width:0.088" d="M108.68,77.71L107.58,77.88"/><path style="stroke:#000000;stroke-width:0.088" d="M107.70,67.05L108.21,66.97"/><path style="stroke:#000000;stroke-width:0.088" d="M107.59,66.98L109.64,66.66"/><path style="stroke:#000000;stroke-width:0.088" d="M108.06,95.55L108.01,95.58L107.92,95.68L107.87,95.82L107.86,95.99L107.89,96.15L107.95,96.30L108.05,96.41L108.17,96.48L108.20,96.49"/><path style="stroke:#000000;stroke-width:0.088" d="M109.05,92.16L108.72,91.97L108.21,92.05"/><path style="stroke:#000000;stroke-width:0.088" d="M108.12,75.85L108.63,75.77L108.57,75.73L108.40,75.55L108.27,75.31L108.21,75.04L108.21,74.77L108.29,74.52L108.42,74.32L108.47,74.28"/><path style="stroke:#000000;stroke-width:0.088" d="M107.90,75.72L108.41,75.64L108.62,75.76"/><path style="stroke:#000000;stroke-width:0.088" d="M108.83,72.24L108.82,72.19L108.74,72.06L108.64,71.98L108.53,71.94L108.42,71.95L108.32,72.01L108.24,72.11L108.19,72.24L108.18,72.39L108.21,72.54L108.27,72.67L108.36,72.78L108.41,72.82L108.46,72.84L108.58,72.86L108.67,72.83"/><path style="stroke:#000000;stroke-width:0.088" d="M108.83,72.25L108.82,72.21L108.76,72.11L108.67,72.04L108.58,72.00L108.48,72.01L108.40,72.06L108.33,72.14L108.29,72.25L108.28,72.38L108.30,72.51L108.35,72.62L108.43,72.71L108.52,72.77L108.62,72.78L108.69,72.76"/><path style="stroke:#000000;stroke-width:0.088" d="M114.17,71.11L114.68,71.03L114.76,70.75L116.94,72.01L116.43,72.09L109.15,99.38L109.64,99.66L111.43,92.94L113.48,92.62L111.69,99.34L109.64,99.66"/><path style="stroke:#000000;stroke-width:0.088" d="M109.43,94.32L109.40,94.33L109.29,94.31L109.24,94.29L109.18,94.25L109.09,94.14L109.03,94.01L109.00,93.86L109.01,93.71L109.06,93.58L109.14,93.48L109.24,93.42L109.35,93.41L109.46,93.45L109.56,93.53L109.64,93.65L109.68,93.80L109.69,93.95L109.66,94.09L109.60,94.21L109.51,94.29L109.43,94.32"/><path style="stroke:#000000;stroke-width:0.088" d="M109.30,94.22L109.25,94.18L109.18,94.09L109.12,93.98L109.10,93.85L109.11,93.72L109.15,93.61L109.22,93.52L109.30,93.48L109.40,93.47L109.49,93.51L109.54,93.55L109.58,93.58L109.64,93.68L109.68,93.80L109.69,93.93L109.66,94.05L109.61,94.15L109.53,94.22L109.44,94.25L109.34,94.24L109.30,94.22"/><path style="stroke:#000000;stroke-width:0.088" d="M108.72,91.97L108.81,92.01L109.02,92.04L109.22,91.98L109.38,91.84L109.50,91.62L109.56,91.36L109.54,91.09L109.46,90.82L109.35,90.64"/><path style="stroke:#000000;stroke-width:0.088" d="M109.35,91.87L109.23,91.79L109.07,91.60L108.95,91.35L108.91,91.08L108.93,90.80L108.94,90.76L108.96,90.70"/><path style="stroke:#000000;stroke-width:0.088" d="M109.36,90.65L109.32,90.68L109.23,90.78L109.18,90.93L109.17,91.09L109.19,91.25L109.26,91.40L109.36,91.51L109.47,91.58L109.51,91.59"/><path style="stroke:#000000;stroke-width:0.088" d="M111.94,78.06L112.45,77.97L112.78,78.16L109.46,90.62L108.95,90.70"/><path style="stroke:#000000;stroke-width:0.088" d="M108.84,74.65L108.83,74.67L108.83,74.95L108.89,75.22L108.94,75.31"/><path style="stroke:#000000;stroke-width:0.088" d="M109.21,70.83L109.72,70.75L109.94,70.87L109.88,70.83L109.71,70.65L109.58,70.42L109.52,70.15L109.52,69.87L109.59,69.62L109.72,69.42L109.78,69.38"/><path style="stroke:#000000;stroke-width:0.088" d="M109.94,70.87L109.43,70.95"/><path style="stroke:#000000;stroke-width:0.088" d="M110.25,70.42L110.20,70.32L110.13,70.05L110.14,69.77L110.14,69.75"/><path style="stroke:#000000;stroke-width:0.088" d="M109.81,68.59L110.32,68.51"/><path style="stroke:#000000;stroke-width:0.088" d="M110.39,68.23L111.93,67.98"/><path style="stroke:#000000;stroke-width:0.088" d="M111.43,92.94L111.60,92.54L111.86,92.24L112.18,92.07L112.54,92.05L112.90,92.17L116.28,94.13L116.46,94.19L116.64,94.18L116.80,94.09L116.93,93.94L117.01,93.74L119.59,84.08L119.62,83.85L119.59,83.61L119.51,83.39L119.39,83.20L119.23,83.07L115.84,81.12L115.53,80.85L115.27,80.48L115.12,80.03L115.06,79.55L115.13,79.09L117.18,78.77L117.12,79.23L117.17,79.71L117.25,79.96L117.33,80.16L117.58,80.53L117.90,80.80L115.84,81.12"/><path style="stroke:#000000;stroke-width:0.088" d="M111.66,85.19L111.71,85.21L111.83,85.23L111.93,85.19L112.03,85.11L112.09,85.00L112.12,84.85L112.11,84.70L112.06,84.56L111.99,84.44L111.89,84.35L111.78,84.31L111.66,84.32L111.56,84.38L111.49,84.48L111.44,84.61L111.43,84.76L111.46,84.91L111.52,85.04L111.61,85.15L111.66,85.19"/><path style="stroke:#000000;stroke-width:0.088" d="M111.55,84.88L111.60,85.00L111.68,85.09L111.72,85.12L111.77,85.14L111.87,85.15L111.96,85.12L112.03,85.06L112.09,84.96L112.11,84.84L112.11,84.71L112.07,84.59L112.00,84.48L111.92,84.41L111.83,84.37L111.73,84.38L111.64,84.43L111.57,84.52L111.54,84.63L111.53,84.75L111.55,84.88"/><path style="stroke:#000000;stroke-width:0.088" d="M112.27,78.24L112.78,78.16"/><path style="stroke:#000000;stroke-width:0.088" d="M112.45,77.97L112.54,78.02L112.75,78.05L112.95,77.99L113.12,77.84L113.23,77.63L113.29,77.37L113.28,77.09L113.20,76.83L113.08,76.64"/><path style="stroke:#000000;stroke-width:0.088" d="M113.08,77.87L112.96,77.80L112.80,77.61L112.69,77.36L112.64,77.08L112.66,76.81L112.67,76.76L112.70,76.70"/><path style="stroke:#000000;stroke-width:0.088" d="M115.86,70.57L111.86,68.26"/><path style="stroke:#000000;stroke-width:0.088" d="M113.24,77.59L113.20,77.59L113.09,77.52L112.99,77.40L112.93,77.26L112.90,77.09L112.91,76.93L112.96,76.79L113.05,76.68L113.09,76.66"/><path style="stroke:#000000;stroke-width:0.088" d="M113.57,73.35L114.09,73.27L113.19,76.62L112.68,76.70"/><path style="stroke:#000000;stroke-width:0.088" d="M113.25,73.16L113.76,73.08L114.09,73.27"/><path style="stroke:#000000;stroke-width:0.088" d="M113.45,69.60L113.40,69.58L113.30,69.54L113.20,69.52L113.11,69.52L113.04,69.52L112.99,69.54L112.97,69.57L112.98,69.61L113.03,69.65L113.10,69.70L113.19,69.73L113.29,69.76L113.38,69.77L113.47,69.77L113.53,69.76L113.56,69.73L113.57,69.70L113.54,69.66L113.48,69.62L113.45,69.60"/><path style="stroke:#000000;stroke-width:0.088" d="M113.51,69.77L113.51,69.73L113.49,69.70L113.44,69.66L113.37,69.63L113.29,69.60L113.20,69.58L113.13,69.58L113.06,69.58L113.02,69.60L113.00,69.63L113.01,69.63"/><path style="stroke:#000000;stroke-width:0.088" d="M113.00,69.63L113.00,69.63"/><path style="stroke:#000000;stroke-width:0.088" d="M113.52,92.53L113.48,92.62"/><path style="stroke:#000000;stroke-width:0.088" d="M114.14,76.12L114.09,76.09L114.03,76.05L113.94,75.95L113.88,75.81L113.85,75.66L113.86,75.51L113.91,75.38L113.99,75.28L114.09,75.22L114.20,75.21L114.31,75.25L114.41,75.34L114.49,75.46L114.54,75.61L114.54,75.76L114.51,75.90L114.45,76.02L114.36,76.10L114.25,76.13L114.14,76.12"/><path style="stroke:#000000;stroke-width:0.088" d="M114.10,75.99L114.19,76.04L114.25,76.05L114.29,76.06L114.38,76.03L114.46,75.96L114.51,75.86L114.52,75.83L114.54,75.74L114.53,75.61L114.49,75.49L114.43,75.39L114.35,75.31L114.25,75.28L114.16,75.28L114.07,75.33L114.00,75.42L113.96,75.53L113.95,75.66L113.97,75.78L114.03,75.90L114.10,75.99"/><path style="stroke:#000000;stroke-width:0.088" d="M113.76,73.08L113.85,73.12L114.06,73.15L114.25,73.09L114.42,72.94L114.54,72.73L114.59,72.47L114.58,72.19L114.50,71.93L114.39,71.74"/><path style="stroke:#000000;stroke-width:0.088" d="M114.39,72.98L114.27,72.90L114.10,72.71L113.99,72.46L113.95,72.18L113.97,71.91L113.98,71.86L114.00,71.80"/><path style="stroke:#000000;stroke-width:0.088" d="M114.40,71.76L114.35,71.78L114.27,71.89L114.22,72.03L114.20,72.19L114.23,72.36L114.30,72.50L114.39,72.62L114.51,72.69L114.55,72.70"/><path style="stroke:#000000;stroke-width:0.088" d="M113.98,71.81L114.50,71.73L114.68,71.03"/><path style="stroke:#000000;stroke-width:0.088" d="M114.76,70.75L116.30,70.50L118.97,72.05L117.18,78.77"/><path style="stroke:#000000;stroke-width:0.088" d="M115.23,89.70L115.34,89.87L115.48,89.99L115.64,90.05L115.80,90.04L115.94,89.96L116.05,89.82L116.11,89.67L116.12,89.63L116.14,89.42L116.10,89.21L116.02,89.02L115.89,88.87L115.74,88.78L115.58,88.75L115.43,88.80L115.30,88.91L115.20,89.07L115.16,89.28L115.17,89.49L115.23,89.70"/><path style="stroke:#000000;stroke-width:0.088" d="M115.13,79.09L116.92,72.37L118.97,72.05"/><path style="stroke:#000000;stroke-width:0.088" d="M117.01,93.74L119.06,93.42L118.98,93.62L118.85,93.77L118.69,93.86L116.64,94.18"/><path style="stroke:#000000;stroke-width:0.088" d="M116.67,86.55L116.57,86.55L116.41,86.49L116.27,86.37L116.17,86.20L116.11,85.99L116.10,85.78L116.14,85.58L116.23,85.41L116.36,85.30L116.51,85.25L116.67,85.28L116.82,85.37L116.95,85.52L117.04,85.71L117.07,85.92L117.06,86.13L117.05,86.17L116.99,86.32L116.88,86.46L116.73,86.54L116.67,86.55"/><path style="stroke:#000000;stroke-width:0.088" d="M116.43,72.09L116.92,72.37"/><path style="stroke:#000000;stroke-width:0.088" d="M117.90,80.80L121.28,82.75L119.23,83.07"/><path style="stroke:#000000;stroke-width:0.088" d="M119.06,93.42L121.64,83.76L121.67,83.53L121.64,83.29L121.56,83.07L121.44,82.88L121.28,82.75"/><path style="stroke:#000000;stroke-width:0.088" d="M119.59,84.08L121.64,83.76"/><path style="stroke:#000000;stroke-width:0.088" d="M27.52,34.94L29.70,36.20L27.89,67.22L28.05,69.14L28.76,70.59L29.94,71.41L27.75,70.15L26.57,69.33L25.87,67.88L25.71,65.96L27.52,34.94L27.60,34.51L27.77,34.07L28.03,33.66L28.35,33.33L28.69,33.10L41.48,26.74L41.81,26.64L42.10,26.67L44.28,27.93L43.99,27.90L43.66,28.00L41.48,26.74"/><path style="stroke:#000000;stroke-width:0.088" d="M25.71,65.96L27.89,67.22"/><path style="stroke:#000000;stroke-width:0.088" d="M28.00,40.32L28.00,40.38L28.05,40.64L28.16,40.89L28.32,41.12L28.51,41.29L28.71,41.38L28.89,41.39L29.05,41.32L29.15,41.16L29.20,40.95L29.18,40.70L29.10,40.44L28.97,40.20L28.79,40.00L28.60,39.86L28.40,39.81L28.23,39.84L28.09,39.96L28.02,40.14L28.00,40.26L28.00,40.32"/><path style="stroke:#000000;stroke-width:0.088" d="M28.71,37.90L28.90,38.00L29.09,38.01L29.25,37.93L29.35,37.78L29.40,37.57L29.38,37.32L29.30,37.06L29.16,36.81L28.99,36.61L28.79,36.48L28.60,36.43L28.42,36.46L28.29,36.57L28.21,36.76L28.20,36.87L28.20,36.99L28.25,37.25L28.36,37.51L28.52,37.73L28.71,37.90"/><path style="stroke:#000000;stroke-width:0.088" d="M29.70,36.20L29.78,35.77L29.96,35.33L30.21,34.92L30.53,34.59L30.87,34.36L28.69,33.10"/><path style="stroke:#000000;stroke-width:0.088" d="M29.77,55.85L29.73,55.89L29.52,56.01L29.32,56.03L29.15,55.97L29.04,55.82L29.02,55.73L28.99,55.61L29.02,55.35L29.11,55.07L29.24,54.84L29.26,54.80L29.45,54.58L29.67,54.42L29.88,54.35L30.06,54.37L30.20,54.47L30.28,54.66L30.30,54.90L30.29,54.95L30.24,55.17L30.11,55.45L29.94,55.70L29.77,55.85"/><path style="stroke:#000000;stroke-width:0.088" d="M29.94,71.41L31.47,71.51L49.95,68.61L57.23,41.32L55.83,41.54L53.64,40.28L43.71,45.21"/><path style="stroke:#000000;stroke-width:0.088" d="M31.33,40.57L31.48,40.76L31.70,40.85L31.97,40.81L32.26,40.65L32.53,40.40L32.76,40.07L32.93,39.70L33.00,39.40L33.01,39.34L32.99,39.01L32.89,38.77L32.70,38.63L32.45,38.60L32.17,38.70L31.88,38.91L31.63,39.21L31.42,39.56L31.30,39.93L31.27,40.28L31.33,40.57"/><path style="stroke:#000000;stroke-width:0.088" d="M43.66,28.00L30.87,34.36"/><path style="stroke:#000000;stroke-width:0.088" d="M42.08,67.16L48.74,66.12L48.91,66.06L49.08,65.94L49.23,65.76L49.36,65.56L49.44,65.34L50.00,63.24L50.03,63.03L50.01,62.84L49.94,62.70L49.82,62.63L49.67,62.62L43.01,63.67L42.84,63.72L42.67,63.85L42.52,64.02L42.39,64.23L42.31,64.45L41.75,66.54L41.72,66.76L41.74,66.94L41.81,67.08L41.93,67.15L42.08,67.16L41.76,66.98"/><path style="stroke:#000000;stroke-width:0.088" d="M41.75,32.38L41.60,32.19L41.54,31.90L41.57,31.55L41.69,31.18L41.89,30.82L42.15,30.53L42.43,30.32L42.64,30.25L42.72,30.22L42.96,30.24L43.15,30.39L43.26,30.63L43.27,30.95L43.27,31.02L43.20,31.32L43.03,31.69L42.80,32.02L42.52,32.27L42.24,32.43L41.97,32.47L41.75,32.38"/><path style="stroke:#000000;stroke-width:0.088" d="M41.85,66.16L47.32,65.30L48.74,66.12"/><path style="stroke:#000000;stroke-width:0.088" d="M44.18,57.45L44.74,55.35L44.82,55.13L44.94,54.92L45.10,54.75L45.27,54.63L45.43,54.57L52.10,53.52L52.25,53.53L52.37,53.61L52.44,53.75L52.46,53.93L52.43,54.14L51.87,56.24L51.78,56.46L51.66,56.67L51.50,56.84L51.33,56.96L51.17,57.02L44.50,58.07L44.35,58.06L44.24,57.98L44.16,57.84L44.14,57.66L44.18,57.45"/><path style="stroke:#000000;stroke-width:0.088" d="M44.50,58.07L44.19,57.88"/><path style="stroke:#000000;stroke-width:0.088" d="M44.28,27.93L44.51,28.10L44.64,28.39L44.67,28.76L43.64,46.33L43.67,46.70L43.81,46.99L44.03,47.16L44.25,47.18L44.32,47.19L44.66,47.09L43.66,46.51"/><path style="stroke:#000000;stroke-width:0.088" d="M44.28,57.06L49.75,56.20L51.17,57.02"/><path style="stroke:#000000;stroke-width:0.088" d="M44.66,47.09L55.83,41.54"/><path style="stroke:#000000;stroke-width:0.088" d="M45.01,45.86L44.92,45.71L44.91,45.56L45.00,45.42L45.16,45.31L45.39,45.24L45.66,45.21L45.94,45.23L46.20,45.30L46.41,45.40L46.55,45.54L46.60,45.69L46.56,45.84L46.43,45.96L46.23,46.06L45.98,46.11L45.70,46.12L45.43,46.07L45.19,45.98L45.01,45.86"/><path style="stroke:#000000;stroke-width:0.088" d="M45.78,53.19L45.56,53.11L45.41,52.91L45.35,52.63L45.38,52.28L45.51,51.91L45.71,51.55L45.96,51.26L46.25,51.05L46.53,50.95L46.78,50.97L46.97,51.11L47.08,51.36L47.09,51.68L47.08,51.75L47.01,52.05L46.84,52.42L46.61,52.74L46.34,53.00L46.05,53.16L45.78,53.19"/><path style="stroke:#000000;stroke-width:0.088" d="M45.31,46.03L45.35,46.02L45.62,45.99L45.90,46.01L46.15,46.08"/><path style="stroke:#000000;stroke-width:0.088" d="M47.32,65.30L47.49,65.24L47.66,65.12L47.81,64.94L47.94,64.74L48.02,64.52L48.48,62.81"/><path style="stroke:#000000;stroke-width:0.088" d="M48.02,64.52L49.44,65.34"/><path style="stroke:#000000;stroke-width:0.088" d="M54.29,47.14L54.21,47.36L54.08,47.58L53.93,47.74L53.76,47.86L53.59,47.92L48.47,48.73L48.32,48.72L48.20,48.64L48.13,48.51L48.11,48.32L48.14,48.11L48.70,46.01L48.78,45.79L48.91,45.58L49.06,45.41L49.23,45.29L49.40,45.23L54.53,44.43L54.68,44.43L54.79,44.51L54.86,44.65L54.88,44.83L54.85,45.04L54.29,47.14L52.87,46.32L53.33,44.61"/><path style="stroke:#000000;stroke-width:0.088" d="M48.47,48.73L48.15,48.55"/><path style="stroke:#000000;stroke-width:0.088" d="M52.87,46.32L52.79,46.54L52.67,46.75L52.51,46.92L52.34,47.05L52.17,47.10L48.24,47.72"/><path style="stroke:#000000;stroke-width:0.088" d="M48.69,63.87L48.71,63.71L48.76,63.58L48.85,63.47L48.97,63.42L49.09,63.42L49.19,63.45L49.31,63.57L49.39,63.70L49.43,63.86L49.44,64.03L49.40,64.18L49.33,64.30L49.22,64.38L49.10,64.41L48.98,64.38L48.87,64.31L48.77,64.19L48.71,64.04L48.69,63.87"/><path style="stroke:#000000;stroke-width:0.088" d="M50.00,63.24L49.09,62.71"/><path style="stroke:#000000;stroke-width:0.088" d="M49.75,56.20L49.92,56.14L50.09,56.02L50.24,55.85L50.36,55.65L50.45,55.42L51.87,56.24"/><path style="stroke:#000000;stroke-width:0.088" d="M50.45,55.42L50.90,53.71"/><path style="stroke:#000000;stroke-width:0.088" d="M51.14,54.94L51.20,55.09L51.29,55.21L51.41,55.29L51.53,55.31L51.65,55.28L51.75,55.20L51.82,55.08L51.86,54.93L51.86,54.77L51.82,54.61L51.74,54.47L51.63,54.37L51.51,54.32L51.39,54.32L51.28,54.38L51.19,54.48L51.13,54.62L51.12,54.78L51.14,54.94"/><path style="stroke:#000000;stroke-width:0.088" d="M52.43,54.14L51.51,53.61"/><path style="stroke:#000000;stroke-width:0.088" d="M52.17,47.10L53.59,47.92"/><path style="stroke:#000000;stroke-width:0.088" d="M53.62,45.97L53.63,45.99L53.72,46.11L53.83,46.19L53.96,46.21L54.08,46.19L54.18,46.11L54.25,45.98L54.29,45.83L54.29,45.67L54.24,45.51L54.16,45.37L54.04,45.26L53.94,45.22L53.82,45.22L53.71,45.28L53.62,45.38L53.56,45.52L53.54,45.68L53.57,45.84L53.62,45.97"/><path style="stroke:#000000;stroke-width:0.088" d="M53.64,40.28L55.05,40.06L55.26,40.11L57.22,41.24L57.23,41.32"/><path style="stroke:#000000;stroke-width:0.088" d="M54.85,45.04L53.94,44.52"/><path style="stroke:#000000;stroke-width:0.088" d="M127.92,127.98L126.74,127.16L126.47,126.61L126.04,125.71L125.88,123.79L127.69,92.77L127.77,92.34L127.94,91.90L128.20,91.49L128.51,91.16L128.86,90.93L126.67,89.67L126.33,89.90L126.02,90.23L125.76,90.64L125.58,91.08L125.51,91.51L123.69,122.53L123.85,124.45L124.51,125.81L124.56,125.90L125.74,126.72L127.92,127.98L129.45,128.08L147.94,125.18L155.21,97.89L153.81,98.11L151.63,96.85L141.70,101.79"/><path style="stroke:#000000;stroke-width:0.088" d="M125.88,123.79L123.69,122.53"/><path style="stroke:#000000;stroke-width:0.088" d="M125.52,96.94L125.47,96.81L125.44,96.56L125.47,96.34L125.57,96.17L125.72,96.08L125.90,96.07L126.10,96.15L126.29,96.31L126.32,96.35L126.45,96.52L126.57,96.78L126.64,97.04L126.64,97.21L126.63,97.28L126.57,97.48L126.44,97.61L126.28,97.65L126.09,97.62L125.89,97.50L125.71,97.31L125.56,97.07L125.52,96.94"/><path style="stroke:#000000;stroke-width:0.088" d="M125.51,91.51L127.69,92.77"/><path style="stroke:#000000;stroke-width:0.088" d="M125.71,93.55L125.76,93.69L125.91,93.93L126.09,94.12L126.28,94.24L126.48,94.27L126.64,94.22L126.77,94.09L126.83,93.90L126.84,93.82L126.83,93.65L126.77,93.39L126.65,93.14L126.49,92.93L126.29,92.77L126.10,92.69L125.91,92.70L125.77,92.79L125.67,92.95L125.64,93.18L125.67,93.43L125.71,93.55"/><path style="stroke:#000000;stroke-width:0.088" d="M126.67,89.67L139.46,83.32L141.65,84.58L128.86,90.93"/><path style="stroke:#000000;stroke-width:0.088" d="M153.81,98.11L142.64,103.66L142.31,103.76L142.02,103.73L141.79,103.56L141.66,103.27L141.63,102.90L142.66,85.34L142.63,84.96L142.50,84.68L142.27,84.51L140.09,83.25L139.80,83.21L139.46,83.32"/><path style="stroke:#000000;stroke-width:0.088" d="M142.64,103.66L141.64,103.08"/><path style="stroke:#000000;stroke-width:0.088" d="M142.41,101.72L142.36,101.79L142.35,101.94L142.43,102.09L142.59,102.22L142.82,102.31L143.08,102.37L143.36,102.37L143.62,102.33L143.84,102.24L143.98,102.12L144.04,101.98L144.00,101.83L143.88,101.69L143.69,101.57L143.43,101.50L143.16,101.46L142.88,101.48L142.64,101.55L142.46,101.66L142.41,101.72"/><path style="stroke:#000000;stroke-width:0.088" d="M141.65,84.58L141.98,84.47L142.27,84.51"/><path style="stroke:#000000;stroke-width:0.088" d="M143.59,102.34L143.39,102.28L143.11,102.25L142.84,102.26L142.76,102.29"/><path style="stroke:#000000;stroke-width:0.088" d="M155.21,97.89L155.21,97.81L153.24,96.68L153.03,96.63L151.63,96.85"/><path style="stroke:#000000;stroke-width:0.088" d="M71.28,95.07L70.61,93.68L70.45,91.83L74.76,94.32L74.92,96.17L75.59,97.56L76.73,98.34L72.42,95.85L71.29,95.07"/><path style="stroke:#000000;stroke-width:0.088" d="M70.45,91.83L71.14,80.08L71.20,79.74L71.34,79.39L71.55,79.06L71.58,79.03L71.80,78.80L72.07,78.61L72.34,78.53L72.57,78.56L76.88,81.04L76.65,81.02L76.38,81.10L76.11,81.28L75.86,81.55L75.65,81.88L75.51,82.23L75.45,82.57L71.14,80.08"/><path style="stroke:#000000;stroke-width:0.088" d="M74.76,94.32L75.45,82.57"/><path style="stroke:#000000;stroke-width:0.088" d="M75.77,82.06L76.92,82.73L76.97,81.82L76.96,81.59L76.88,81.42L76.74,81.32L76.57,81.30L76.37,81.36L76.16,81.50L75.97,81.70L75.82,81.94L75.71,82.21L75.67,82.46L74.98,94.21L75.13,95.98L75.78,97.31L76.86,98.07L78.27,98.16L75.38,96.49"/><path style="stroke:#000000;stroke-width:0.088" d="M75.09,95.50L94.03,92.52L98.34,95.01L78.27,98.16"/><path style="stroke:#000000;stroke-width:0.088" d="M76.97,81.82L76.28,81.42"/><path style="stroke:#000000;stroke-width:0.088" d="M76.73,98.34L78.20,98.44L98.26,95.29L98.34,95.01"/><path style="stroke:#000000;stroke-width:0.088" d="M76.92,82.73L77.14,82.62L77.19,81.71L77.17,81.41L77.06,81.18L76.88,81.04"/><path style="stroke:#000000;stroke-width:0.088" d="M95.64,94.03L95.44,93.96L95.23,93.91L95.15,93.91"/><path style="stroke:#000000;stroke-width:0.088" d="M95.66,93.86L95.57,93.82L95.46,93.78L95.35,93.75L95.25,93.74L95.16,93.75L95.10,93.77L95.08,93.80L95.09,93.84L95.13,93.89L95.21,93.94L95.31,93.98L95.42,94.01L95.53,94.03L95.62,94.03L95.70,94.02L95.74,93.99L95.75,93.95L95.72,93.91L95.66,93.86"/><path style="stroke:#000000;stroke-width:0.088" d="M95.72,93.91L95.72,93.91"/><path style="fill:#ffffff" d="M171.65,92.70L198.06,92.70L198.06,87.06L171.65,87.06z"/><path style="stroke:#35414c;stroke-width:0.255" d="M171.65,92.70L198.06,92.70L198.06,87.06L171.65,87.06z"/><path style="stroke:#35404c;stroke-width:0.250;stroke-opacity:0.00" d="M171.65,92.70L198.06,92.70L198.06,87.06L171.65,87.06z"/><text xml:space="preserve" fill="#333f4b" stroke-width="0" x="172.36" y="91.11" font-size="3.49" opacity="1.00" font-family="Arial" font-weight="bold" font-style="italic">F31204065A</text><path style="fill:#ffffff" d="M171.65,72.62L198.06,72.62L198.06,66.98L171.65,66.98z"/><path style="stroke:#35414c;stroke-width:0.255" d="M171.65,72.62L198.06,72.62L198.06,66.98L171.65,66.98z"/><path style="stroke:#35404c;stroke-width:0.250;stroke-opacity:0.00" d="M171.65,72.62L198.06,72.62L198.06,66.98L171.65,66.98z"/><text xml:space="preserve" fill="#333f4b" stroke-width="0" x="172.36" y="71.04" font-size="3.49" opacity="1.00" font-family="Arial" font-weight="bold" font-style="italic">F31204007A</text><path style="fill:#ffffff" d="M171.65,102.74L198.06,102.74L198.06,97.09L171.65,97.09z"/><path style="stroke:#35414c;stroke-width:0.255" d="M171.65,102.74L198.06,102.74L198.06,97.09L171.65,97.09z"/><path style="stroke:#35404c;stroke-width:0.250;stroke-opacity:0.00" d="M171.65,102.74L198.06,102.74L198.06,97.09L171.65,97.09z"/><text xml:space="preserve" fill="#333f4b" stroke-width="0" x="172.36" y="101.15" font-size="3.56" opacity="1.00" font-family="Arial" font-weight="bold" font-style="italic">F31204066X</text><path style="fill:#ffffff" d="M171.65,62.59L198.06,62.59L198.06,56.94L171.65,56.94z"/><path style="stroke:#35414c;stroke-width:0.255" d="M171.65,62.59L198.06,62.59L198.06,56.94L171.65,56.94z"/><path style="stroke:#35404c;stroke-width:0.250;stroke-opacity:0.00" d="M171.65,62.59L198.06,62.59L198.06,56.94L171.65,56.94z"/><text xml:space="preserve" fill="#333f4b" stroke-width="0" x="172.36" y="61.00" font-size="3.56" opacity="1.00" font-family="Arial" font-weight="bold" font-style="italic">F24002054X</text><path style="fill:#ffffff" d="M171.65,52.55L198.06,52.55L198.06,46.91L171.65,46.91z"/><path style="stroke:#35414c;stroke-width:0.255" d="M171.65,52.55L198.06,52.55L198.06,46.91L171.65,46.91z"/><path style="stroke:#35404c;stroke-width:0.250;stroke-opacity:0.00" d="M171.65,52.55L198.06,52.55L198.06,46.91L171.65,46.91z"/><text xml:space="preserve" fill="#333f4b" stroke-width="0" x="172.36" y="50.96" font-size="3.56" opacity="1.00" font-family="Arial" font-weight="bold" font-style="italic">F24002021X</text><path style="fill:#ffffff" d="M171.65,82.66L198.06,82.66L198.06,77.02L171.65,77.02z"/><path style="stroke:#35414c;stroke-width:0.255" d="M171.65,82.66L198.06,82.66L198.06,77.02L171.65,77.02z"/><path style="stroke:#35404c;stroke-width:0.250;stroke-opacity:0.00" d="M171.65,82.66L198.06,82.66L198.06,77.02L171.65,77.02z"/><text xml:space="preserve" fill="#333f4b" stroke-width="0" x="172.36" y="81.08" font-size="3.49" opacity="1.00" font-family="Arial" font-weight="bold" font-style="italic">F31204064A</text><g id="paperID" visibility="hidden" opacity="0.00" transform="scale(0.000100)"><path style="stroke:#000000;stroke-width:0.500;fill:#e6e6e6;fill-rule:evenodd" d="M-2000.00,-2000.00L2210.00,-2000.00L2210.00,2150.00L-2000.00,2150.00zM0.00,0.00L210.00,0.00L210.00,150.00L0.00,150.00z"/><path style="fill:#000000;fill-opacity:0.118" d="M3.00,150.00L210.00,150.00L210.00,3.00L213.00,3.00L213.00,153.00L3.00,153.00z"/></g><g id="hotspot.0" onmouseover="ShowHotSpot(evt,'0')" onmouseout="HideHotSpot(evt,'0')" onmousemove="ShowToolTip(evt,'0',&quot;F24002021.01&quot;)" opacity="0"><path style="fill:#00ff00;fill-rule:evenodd" d="M198.32,47.34L198.31,52.50L198.02,53.00L171.60,52.93L171.60,47.18L198.06,47.08zM90.25,57.67L91.33,58.46L91.24,59.54L90.43,60.35L89.75,60.32L82.59,56.09L82.57,54.83L83.38,54.03L83.91,53.95zM81.00,66.66L81.02,67.82L80.39,68.50L79.17,68.49L72.29,64.54L72.27,63.29L73.08,62.48L73.61,62.40zM92.89,77.75L95.26,79.29L95.01,80.49L94.66,80.92L93.40,80.94L86.56,76.96L86.56,75.46L87.26,74.81L87.87,74.81z"/></g><g id="hotspot.1" onmouseover="ShowHotSpot(evt,'1')" onmouseout="HideHotSpot(evt,'1')" onmousemove="ShowToolTip(evt,'1',&quot;F24002054&quot;)" opacity="0"><path style="fill:#00ff00;fill-rule:evenodd" d="M198.32,57.38L198.31,62.53L198.02,63.04L171.60,62.97L171.60,57.22L198.06,57.11zM64.66,74.56L64.65,75.47L64.27,75.91L63.33,75.89L56.44,71.93L56.44,70.98L57.14,70.33L57.49,70.32z"/></g><g id="hotspot.2" onmouseover="ShowHotSpot(evt,'2')" onmouseout="HideHotSpot(evt,'2')" onmousemove="ShowToolTip(evt,'2',&quot;F31204007A&quot;)" opacity="0"><path style="fill:#00ff00;fill-rule:evenodd" d="M110.85,67.45L112.42,68.78L115.59,70.64L116.67,70.87L118.81,72.18L118.79,73.08L117.10,79.35L117.47,80.65L121.17,82.75L121.71,83.56L118.97,93.88L117.64,94.13L115.89,94.11L113.77,92.79L113.50,92.87L111.64,99.49L110.23,99.68L109.28,99.68L108.76,98.87L100.83,94.42L100.55,94.48L100.55,93.14L107.41,67.26L108.66,66.92L109.81,66.91zM198.32,67.41L198.31,72.57L198.02,73.08L171.60,73.01L171.60,67.26L198.06,67.15zM111.41,79.59L111.39,80.48L109.28,87.86L107.70,86.98L107.35,86.19L109.47,78.53L109.78,78.49z"/></g><g id="hotspot.3" onmouseover="ShowHotSpot(evt,'3')" onmouseout="HideHotSpot(evt,'3')" onmousemove="ShowToolTip(evt,'3',&quot;F31204064A&quot;)" opacity="0"><path style="fill:#00ff00;fill-rule:evenodd" d="M198.32,77.45L198.31,82.61L198.02,83.12L171.60,83.05L171.60,77.29L198.06,77.19zM142.58,84.86L142.02,96.85L141.94,101.63L142.82,101.34L151.43,97.02L153.16,96.77L155.24,98.04L150.47,115.86L147.84,125.38L131.11,127.94L127.51,127.92L124.60,126.08L124.05,125.05L123.80,123.45L123.80,121.42L125.63,91.02L126.61,89.90L139.28,83.55L140.45,83.55z"/></g><g id="hotspot.4" onmouseover="ShowHotSpot(evt,'4')" onmouseout="HideHotSpot(evt,'4')" onmousemove="ShowToolTip(evt,'4',&quot;F31204065A&quot;)" opacity="0"><path style="fill:#00ff00;fill-rule:evenodd" d="M44.58,28.33L44.20,36.28L43.94,45.10L44.82,44.82L53.43,40.49L55.12,40.21L55.65,40.50L57.23,41.52L50.11,68.34L49.75,68.77L32.84,71.41L29.75,71.42L26.61,69.54L26.05,68.52L25.71,65.34L27.63,34.50L28.88,33.10L41.94,26.77zM198.32,87.49L198.31,92.65L198.02,93.15L171.60,93.08L171.60,87.33L198.06,87.23z"/></g><g id="hotspot.5" onmouseover="ShowHotSpot(evt,'5')" onmouseout="HideHotSpot(evt,'5')" onmousemove="ShowToolTip(evt,'5',&quot;F31204066X&quot;)" opacity="0"><path style="fill:#00ff00;fill-rule:evenodd" d="M75.99,80.65L77.06,81.43L77.07,82.85L76.25,82.47L75.72,82.56L75.37,87.00L75.10,95.55L93.07,92.81L94.23,92.79L98.20,95.16L98.12,95.44L79.60,98.35L76.50,98.37L71.24,95.17L70.69,94.14L70.70,88.40L71.21,79.93L71.76,78.89L72.82,78.79zM198.32,97.53L198.31,102.69L198.02,103.19L171.60,103.12L171.60,97.37L198.06,97.26z"/></g></g></svg>
