<?xml version="1.0" encoding="UTF-8" standalone="no"?>
<svg xmlns="http://www.w3.org/2000/svg" xmlns:xlink="http://www.w3.org/1999/xlink" width="210.000mm" height="150.000mm" viewBox="0.000000 0.000000 210.000000 150.000000" stroke-linejoin="round" stroke-linecap="round" fill="none" fill-rule="evenodd"><desc>Composer Export</desc><script type="text/ecmascript"><![CDATA[
if(typeof(top) != "undefined")
{
	top.ShowPaper = ShowPaper;
}
function ShowHotSpot(evt,hotspotid)
{
	var svgDocument = evt.target.ownerDocument;
	var strId = "hotspot."+hotspotid;
	var hotspot = svgDocument.getElementById(strId);
	if(hotspot)
		hotspot.setAttribute("opacity",".5");
}
function HideHotSpot(evt,hotspotid)
{
	var svgDocument = evt.target.ownerDocument;
	var strId = "hotspot."+hotspotid;
	var hotspot = svgDocument.getElementById(strId);
	if(hotspot)
		hotspot.setAttribute("opacity","0");

	var toolTip = svgDocument.getElementById('ToolTip');
	if(toolTip)
		toolTip.setAttribute("visibility","hidden");
}
function ShowToolTip(evt,hotspotid,strTooltip)
{
	if(strTooltip=="")
	return;

	// change text
	var svgDocument = evt.target.ownerDocument;
	var tiptext = svgDocument.getElementById('ToolTipText');
	if( !tiptext )
	return;
	tiptext.firstChild.nodeValue = " " + strTooltip + "  " ;

	// show tooltip before, else some refresh issue

	var toolTip = svgDocument.getElementById('ToolTip');
	if(!toolTip)
	return;

	toolTip.setAttribute("visibility","visible");
	toolTip.setAttribute("opacity",".95");

	// move tooltip
	// get viewbox

	var root = svgDocument.documentElement;
	var vbox = (root.getAttribute("viewBox")).split(' ');
	var x0 = parseFloat(vbox[0]);
	var y0 = parseFloat(vbox[1]);
	var vboxW = parseFloat(vbox[2]);
	var vboxH = parseFloat(vbox[3]);

	// get default width of svg

	var strW = root.getAttribute("width");
	var svgW = parseFloat(strW);
	if(strW.indexOf('mm') != -1)
	svgW *= 3.779;

	var strH = root.getAttribute("height");
	var svgH = parseFloat(strH);
	if(strH.indexOf('mm') != -1)
	svgH *= 3.779;  	// 96 dpi  -> 96/25.4 = 3.779

	// update the viewbox / width / height if svg is embedded in html with zoom fit all
	var realx0 = x0;
	var realy0 = y0;
	var realvboxW = vboxW;
	var realvboxH = vboxH;
	var realsvgW = svgW;
	var realsvgH = svgH;

	if ((typeof(top) == "undefined") || (typeof(top.svgctl1) != "undefined")) // embedded in html
	{
		// get window size in pxl

		svgW = window.innerWidth;
		svgH = window.innerHeight;

		// calculate real viewbox

		realsvgW = svgW;
		realsvgH = svgH;
		if((svgW / svgH) > (vboxW / vboxH))
		{
			realvboxW = (vboxH * svgW) / svgH;
			realvboxH = vboxH;
			realx0 = x0 - (realvboxW - vboxW)/2 ;
		}
		else
		{
			realvboxH = (vboxW * svgH) / svgW;
			realvboxW = vboxW;
			realy0 = y0 - (realvboxH - vboxH)/2 ;
		}
	}

	// get user zoom/pan

	var newScale = root.currentScale;
	var translation = root.currentTranslate;

	// transform pxl to user unit

	var xPos = (((evt.clientX+10- translation.x)/newScale) * realvboxW)/realsvgW  + realx0 ;
	var yPos = (((evt.clientY+5- translation.y)/newScale) * realvboxH)/ realsvgH  + realy0 ;
	var scaleForWidth = ( (1 / newScale) * realvboxH) / realsvgH;

	// move tooltip

	toolTip.setAttribute("transform", "translate(" + xPos + "," + yPos + ")" );

	// resize tooltip

	var fontsize = 12;
	tiptext.setAttribute("font-size",fontsize*scaleForWidth);
	tiptext.setAttribute("y", fontsize*scaleForWidth);
	var tipBG = svgDocument.getElementById('ToolTipBG');
	var outline = tiptext.getBBox();
	if(tipBG)
	{
		tipBG.setAttribute("stroke-width", 1*scaleForWidth);
		tipBG.setAttribute("width", Number(outline.width) );
		tipBG.setAttribute("height", Number(outline.height) + fontsize*.5*scaleForWidth );
	}
	var ToolTipShadow = svgDocument.getElementById('ToolTipShadow');
	if(ToolTipShadow)
	{
		ToolTipShadow.setAttribute("width", Number(outline.width) );
		ToolTipShadow.setAttribute("height", Number(outline.height) + fontsize*.5*scaleForWidth );
		ToolTipShadow.setAttribute("x", 3*scaleForWidth);
		ToolTipShadow.setAttribute("y", 3*scaleForWidth);
	}
}
function ShowPaper()
{
  var svgDocument = getDocument();
  var paper = svgDocument.getElementById("paperID");
  if(paper)
  {
    paper.setAttribute("transform","scale(1)");
    paper.setAttribute("opacity","1");
    paper.setAttribute("visibility","visible");
  }
  var svg = svgDocument.getRootElement();
  if(svg)
  {
    svg.setAttribute("width","220.000mm");
    svg.setAttribute("height","160.000mm");
    svg.setAttribute("viewBox","-5.000000 -5.000000 220.000000 160.000000");
  }
}
]]></script><defs/><g><path style="fill:#ffffff" d="M209.96,149.95L0.04,149.95L0.04,0.04L209.96,0.04z"/><path style="fill:#bcba68" d="M90.17,126.84L91.06,127.46L91.18,130.23L91.56,130.46L91.56,131.78L89.04,133.28L88.67,133.38L86.04,131.86L86.04,130.40L86.29,130.27L86.38,127.98L89.13,126.33L89.29,126.33z"/><path style="fill:#bcba68" d="M105.22,135.60L105.33,138.37L105.71,138.63L105.72,139.93L103.20,141.42L102.83,141.52L100.20,140.00L100.20,138.54L100.44,138.41L100.54,136.12L103.34,134.48z"/><path style="fill:#d1ce96" d="M112.10,114.82L112.11,117.25L98.15,125.36L97.82,125.35L96.94,124.84L96.81,123.71L95.94,123.20L95.65,123.20L95.00,123.59L94.70,123.59L82.78,116.69L82.65,115.57L81.78,115.05L81.49,115.05L80.91,115.38L80.65,115.46L79.61,114.86L79.65,112.35L93.64,104.28L93.81,104.28z"/><path style="fill:#898989" d="M79.65,11.95L81.15,12.82L84.16,14.95L87.18,17.45L88.84,19.02L88.25,19.08L87.65,19.49L87.67,20.96L87.80,21.09L88.29,21.35L89.26,21.35L89.75,21.09L89.93,20.76L89.99,19.67L90.56,19.95L91.06,20.58L91.05,25.40L90.81,25.90L90.68,27.15L90.50,27.60L89.69,28.19L89.26,28.24L88.29,28.24L87.86,28.19L87.05,27.60L86.91,27.24L86.80,25.97L86.53,25.61L86.41,23.85L86.04,22.85L85.67,22.21L83.79,19.96L82.04,17.95L79.40,15.33L78.27,14.82L77.40,14.83L77.26,14.59L77.27,12.36L78.22,11.81L79.27,11.82z"/><path style="fill:#898989" d="M104.46,27.98L104.96,28.36L108.34,29.24L111.85,30.62L114.24,31.86L114.49,32.24L114.48,33.78L112.82,34.76L111.85,34.75L111.10,33.74L109.98,32.99L107.84,32.62L105.29,32.61L105.21,33.54L105.08,33.91L104.84,34.17L104.66,35.75L103.84,36.33L103.54,36.38L102.32,36.38L101.89,36.34L101.19,35.76L101.07,35.51L100.95,34.12L100.69,33.76L100.69,28.64L101.28,27.98L101.72,27.82L101.81,29.12L102.32,29.49L103.05,29.49L103.86,29.18L103.96,29.04L104.03,27.81z"/><path style="fill:#8aa7bf" d="M123.63,104.29L123.59,108.68L120.19,110.68L119.75,110.68L115.86,108.42L115.73,107.05L113.60,105.78L113.31,105.78L112.60,106.21L112.23,106.31L108.18,103.95L108.18,102.16L110.86,100.58L110.93,98.03L111.86,97.52z"/><path style="fill:#0000ff" d="M89.55,19.21L89.99,19.67L89.93,20.76L89.75,21.09L89.26,21.35L88.29,21.35L87.80,21.09L87.67,20.96L87.65,19.49L88.25,19.08L88.84,19.02z"/><path style="fill:#0000ff" d="M103.85,27.46L104.03,27.81L103.96,29.04L103.86,29.18L103.05,29.49L102.32,29.49L101.81,29.12L101.72,27.82L102.07,27.39L102.41,27.23L103.46,27.23z"/><path style="fill:#008e01" d="M94.19,106.79L94.19,107.21L93.65,107.43L93.05,107.43L92.55,107.17L92.55,106.72L92.88,106.54L93.94,106.54z"/><path style="fill:#008e01" d="M108.36,114.94L108.30,115.32L107.81,115.58L107.21,115.57L106.67,115.36L106.71,114.86L107.04,114.68L107.97,114.68z"/><path style="fill:#fe00ff" d="M90.17,43.14L90.68,43.64L90.68,44.32L90.38,44.77L89.26,45.15L88.16,45.15L87.41,44.90L86.92,44.52L86.92,43.56L87.62,43.02L88.13,42.89L89.42,42.89z"/><path style="fill:#fe00ff" d="M104.46,51.41L104.84,51.91L104.84,52.46L104.71,52.72L104.21,53.08L103.54,53.30L102.32,53.30L101.57,53.05L101.08,52.66L100.90,52.04L101.46,51.34L102.29,51.04L103.45,51.04z"/><path style="fill:#1e1e1e" d="M124.65,71.82L125.13,72.84L125.07,73.68L121.59,75.73L119.73,75.73L119.50,75.59L119.25,75.21L119.23,74.38L119.44,74.09L119.66,74.02L119.87,74.10L120.46,74.76L120.84,74.74L121.00,74.63L121.01,74.35L120.50,73.83L119.69,73.92L119.73,73.50L119.95,73.21L123.54,71.13L123.88,71.21z"/><path style="fill:#01ff02" d="M89.26,28.24L89.69,28.19L89.63,37.25L88.88,37.52L88.04,37.38L87.92,37.26L87.86,28.19L88.29,28.24z"/><path style="fill:#01ff02" d="M103.54,36.38L103.84,36.33L103.84,45.32L103.73,45.47L103.17,45.65L102.57,45.66L102.08,45.40L101.95,45.27L101.89,36.34L102.32,36.38z"/><path style="fill:#01ff02" d="M92.71,58.05L93.04,58.19L93.65,58.19L93.98,58.04L94.36,57.92L94.32,60.11L93.86,60.43L92.83,60.44L92.56,60.30L92.42,60.07L92.37,57.77z"/><path style="fill:#01ff02" d="M107.12,66.31L107.94,66.33L108.14,66.18L108.51,66.06L108.47,68.25L108.02,68.58L107.02,68.67L106.59,68.33L106.52,66.04z"/><path style="fill:#01ff02" d="M121.01,74.35L121.00,74.63L120.84,74.74L120.46,74.76L119.87,74.10L119.66,74.02L119.69,73.92L120.50,73.83z"/><path style="fill:#01ff02" d="M115.50,105.53L115.74,106.05L115.71,106.29L115.11,106.30L114.85,105.93L114.86,105.19L115.11,105.15z"/><path style="fill:#01ff02" d="M85.22,116.51L85.30,117.11L84.91,116.94L84.87,116.43z"/><path style="fill:#01ff02" d="M92.81,120.95L92.81,121.38L92.43,121.34L92.26,120.80L92.37,120.69L92.55,120.69z"/><path style="fill:#01ff02" d="M89.55,127.60L89.56,128.03L89.14,128.23L88.41,128.23L88.04,128.10L88.00,127.60L88.50,127.34L89.05,127.34z"/><path style="fill:#01ff02" d="M103.45,135.61L103.72,135.86L103.73,136.17L103.30,136.37L102.44,136.38L102.20,136.24L102.16,135.74L102.66,135.48L103.08,135.48z"/><path style="fill:#ff0000" d="M94.68,52.42L95.21,52.77L95.44,53.29L95.44,53.84L95.26,54.16L94.68,54.59L94.45,55.63L93.90,55.93L92.80,55.93L92.24,55.64L92.18,54.67L91.43,54.17L91.42,52.95L91.63,52.67L92.39,52.29L93.01,52.17L93.81,52.17z"/><path style="fill:#ff0000" d="M92.71,58.05L93.98,58.04L93.65,58.19L93.04,58.19z"/><path style="fill:#ff0000" d="M108.34,60.43L109.22,60.81L109.60,61.44L109.60,61.85L109.42,62.31L108.84,62.73L108.60,63.78L108.06,64.08L106.95,64.08L106.41,63.78L106.21,62.82L105.59,62.31L105.45,62.07L105.47,61.24L105.79,60.81L106.54,60.43L107.58,60.30z"/><path style="fill:#ff0000" d="M93.86,60.43L93.81,60.85L93.66,60.95L93.05,60.94L92.93,60.81L92.83,60.44z"/><path style="fill:#ff0000" d="M107.94,66.33L107.12,66.31L107.29,66.20L108.14,66.18z"/><path style="fill:#ff0000" d="M107.11,69.06L107.02,68.67L108.02,68.58L107.96,68.99L107.82,69.10L107.20,69.10z"/><path style="fill:#ff0000" d="M115.62,75.21L115.70,84.90L115.86,85.01L115.83,85.36L115.97,85.50L116.00,89.93L115.70,90.14L115.11,90.12L114.82,89.92L114.87,85.55L115.11,84.91L115.19,74.96L115.35,74.95z"/><path style="fill:#0473f2" d="M124.76,70.96L125.40,71.57L125.76,72.34L125.77,73.14L125.62,73.37L125.07,73.68L125.13,72.84L124.65,71.82L123.88,71.21L123.54,71.13L124.08,70.83L124.51,70.83z"/><path style="fill:#b2b2b2" d="M106.21,69.46L106.72,69.82L106.85,72.20L106.97,72.33L106.95,83.02L106.81,83.13L106.71,85.54L103.91,87.13L103.95,87.36L106.58,88.88L106.55,91.39L91.88,99.90L91.18,99.90L85.16,96.40L85.16,93.81L87.80,92.29L87.80,92.15L84.87,90.42L84.78,88.00L84.78,77.14L84.91,74.76L90.88,71.33L91.05,71.32L91.67,71.73L92.13,71.71L93.94,70.64L94.06,69.50L100.03,66.06L100.32,66.06z"/><path style="fill:#000000" d="M92.80,55.93L93.90,55.93L94.45,55.63L94.52,56.09L94.82,56.29L94.81,56.97L94.36,57.92L93.98,58.04L92.71,58.05L92.37,57.77L92.05,57.55L92.04,56.46L92.24,55.64z"/><path style="fill:#000000" d="M106.95,64.08L108.06,64.08L108.60,63.78L108.72,64.32L108.96,64.45L108.97,65.12L108.51,66.06L108.14,66.18L107.29,66.20L107.12,66.31L106.52,66.04L106.20,65.71L106.05,65.61L106.08,64.85L106.34,64.24L106.41,63.78z"/><path style="fill:#ffffff" d="M89.67,43.65L89.63,44.15L89.14,44.41L88.41,44.40L87.92,44.14L87.75,43.89L88.37,43.39L89.18,43.39z"/><path style="fill:#ffffff" d="M103.58,51.66L103.85,51.92L103.85,52.21L103.42,52.55L102.45,52.55L101.94,52.28L101.93,51.95L102.28,51.66L102.66,51.54L103.21,51.54z"/><path style="fill:#ffffff" d="M124.27,72.02L123.34,72.60L122.98,72.61L122.83,72.45L123.50,72.01L123.84,71.82L124.14,71.82z"/><path style="fill:#ffffff" d="M124.78,72.83L124.78,73.01L123.84,73.61L123.58,73.64L123.58,73.22L124.46,72.70L124.64,72.70z"/><path style="fill:#ffffff" d="M122.76,72.90L121.84,73.48L121.36,73.47L121.36,73.27L122.33,72.70L122.64,72.70z"/><path style="fill:#ffffff" d="M121.99,74.14L122.97,73.57L123.13,73.58L123.13,74.01L122.32,74.47L121.99,74.48z"/><path style="stroke:#000000;stroke-width:0.088" d="M91.67,91.91L91.67,94.27L91.39,94.27L84.88,90.52L84.88,88.15L91.43,91.93L91.63,91.93L91.63,81.32L97.90,77.70L97.91,77.69L97.92,77.67L97.92,83.01"/><path style="stroke:#000000;stroke-width:0.088" d="M91.43,91.93L91.43,81.32L84.70,77.44L84.70,88.05L84.88,88.15"/><path style="stroke:#000000;stroke-width:0.088" d="M85.03,85.94L85.03,86.03L85.07,86.21L85.16,86.38L85.27,86.54L85.41,86.66L85.55,86.73L85.68,86.74L85.78,86.69L85.85,86.59L85.87,86.44L85.85,86.27L85.79,86.09L85.69,85.94L85.56,85.78L85.42,85.69L85.28,85.65L85.17,85.67L85.08,85.74L85.03,85.87L85.03,85.94"/><path style="stroke:#000000;stroke-width:0.088" d="M85.04,82.81L85.07,82.94L85.16,83.12L85.27,83.28L85.41,83.40L85.55,83.46L85.68,83.48L85.78,83.43L85.85,83.33L85.87,83.18L85.85,83.01L85.78,82.81L85.69,82.66L85.56,82.52L85.42,82.43L85.30,82.39L85.28,82.38L85.17,82.40L85.08,82.48L85.03,82.60L85.03,82.76L85.04,82.81"/><path style="stroke:#000000;stroke-width:0.088" d="M84.70,77.44L84.70,77.32L84.88,77.22"/><path style="stroke:#000000;stroke-width:0.088" d="M84.88,75.02L91.39,78.77L91.67,78.77L91.67,81.22L91.39,81.22L84.88,77.46L84.88,74.85L90.89,71.38L90.91,71.38L90.96,71.37L91.00,71.38L91.84,71.87L91.88,71.88L91.93,71.87L94.83,70.20L94.83,70.14L94.86,70.16L94.86,70.18L94.83,70.20"/><path style="stroke:#000000;stroke-width:0.088" d="M85.48,85.73L85.39,85.70L85.29,85.72L85.22,85.78L85.18,85.88L85.18,86.01L85.21,86.13L85.22,86.16L85.29,86.31L85.38,86.43L85.49,86.53L85.61,86.59L85.71,86.60L85.80,86.56L85.85,86.47L85.87,86.39"/><path style="stroke:#000000;stroke-width:0.088" d="M85.78,86.57L85.80,86.55"/><path style="stroke:#000000;stroke-width:0.088" d="M85.87,83.13L85.85,83.21L85.80,83.29L85.71,83.33L85.61,83.32L85.49,83.27L85.38,83.17L85.29,83.04L85.22,82.90L85.18,82.75L85.18,82.62L85.22,82.52L85.29,82.45L85.39,82.44L85.48,82.47"/><path style="stroke:#000000;stroke-width:0.088" d="M85.80,83.29L85.78,83.30"/><path style="stroke:#000000;stroke-width:0.088" d="M87.70,86.90L87.68,86.90L87.66,86.91"/><path style="stroke:#000000;stroke-width:0.088" d="M87.84,86.89L87.86,86.89L87.88,86.90"/><path style="stroke:#000000;stroke-width:0.088" d="M88.09,86.99L88.07,86.97L88.04,86.96"/><path style="stroke:#000000;stroke-width:0.088" d="M88.09,83.72L88.07,83.71L88.04,83.70"/><path style="stroke:#000000;stroke-width:0.088" d="M87.88,83.64L87.86,83.63L87.84,83.63"/><path style="stroke:#000000;stroke-width:0.088" d="M87.66,83.65L87.68,83.63L87.70,83.63"/><path style="stroke:#000000;stroke-width:0.088" d="M88.02,73.48L87.86,73.54L87.74,73.63L87.68,73.74L87.69,73.85L87.75,73.96L87.88,74.05L88.05,74.11L88.24,74.14L88.44,74.12L88.61,74.08L88.76,74.00L88.85,73.90L88.88,73.78L88.84,73.67L88.74,73.57L88.70,73.55L88.59,73.50L88.41,73.45L88.22,73.45L88.02,73.48"/><path style="stroke:#000000;stroke-width:0.088" d="M87.91,74.06L87.85,74.02L87.79,73.93L87.79,73.84L87.84,73.75L87.94,73.67L88.07,73.62L88.23,73.60L88.39,73.60L88.49,73.63L88.54,73.64L88.63,73.68L88.66,73.70L88.74,73.78L88.77,73.87L88.74,73.97L88.68,74.04"/><path style="stroke:#000000;stroke-width:0.088" d="M88.63,88.35L88.65,88.34L88.65,88.31"/><path style="stroke:#000000;stroke-width:0.088" d="M88.51,88.48L88.53,88.47L88.54,88.46"/><path style="stroke:#000000;stroke-width:0.088" d="M88.58,87.58L88.61,87.64"/><path style="stroke:#000000;stroke-width:0.088" d="M88.68,87.91L88.67,87.85"/><path style="stroke:#000000;stroke-width:0.088" d="M88.69,88.16L88.70,88.13L88.70,88.10"/><path style="stroke:#000000;stroke-width:0.088" d="M88.29,87.16L88.25,87.11"/><path style="stroke:#000000;stroke-width:0.088" d="M88.47,87.38L88.44,87.33"/><path style="stroke:#000000;stroke-width:0.088" d="M88.54,85.19L88.53,85.21L88.51,85.21"/><path style="stroke:#000000;stroke-width:0.088" d="M88.65,85.05L88.65,85.07L88.63,85.09"/><path style="stroke:#000000;stroke-width:0.088" d="M88.69,84.89L88.70,84.87L88.70,84.84"/><path style="stroke:#000000;stroke-width:0.088" d="M88.68,84.65L88.67,84.59"/><path style="stroke:#000000;stroke-width:0.088" d="M88.61,84.38L88.58,84.32"/><path style="stroke:#000000;stroke-width:0.088" d="M88.47,84.12L88.44,84.06"/><path style="stroke:#000000;stroke-width:0.088" d="M88.29,83.89L88.25,83.85"/><path style="stroke:#000000;stroke-width:0.088" d="M88.90,76.09L88.53,75.88L88.30,75.60L88.23,75.30L88.34,75.00L88.61,74.74L89.02,74.55L89.51,74.44L90.03,74.43L90.54,74.51L90.96,74.69L91.27,74.94L91.42,75.23L91.40,75.53L91.20,75.82L90.86,76.05L90.41,76.20L89.89,76.26L89.78,76.26L89.37,76.23L88.90,76.09"/><path style="stroke:#000000;stroke-width:0.088" d="M90.56,89.61L90.50,89.56L90.39,89.40L90.30,89.23L90.26,89.05L90.26,88.89L90.31,88.76L90.40,88.69L90.51,88.67L90.65,88.71L90.79,88.80L90.92,88.94L91.02,89.11L91.08,89.29L91.10,89.46L91.08,89.61L91.01,89.71L90.91,89.76L90.78,89.75L90.64,89.68L90.56,89.61"/><path style="stroke:#000000;stroke-width:0.088" d="M90.71,88.75L90.62,88.72L90.52,88.74L90.45,88.80L90.41,88.90L90.41,89.00L90.41,89.03L90.45,89.18L90.52,89.32L90.56,89.38L90.61,89.45L90.72,89.55L90.84,89.61L90.94,89.62L91.03,89.57"/><path style="stroke:#000000;stroke-width:0.088" d="M90.39,86.14L90.50,86.30L90.64,86.41L90.78,86.48L90.91,86.49L91.01,86.45L91.08,86.35L91.10,86.20L91.08,86.03L91.02,85.85L90.92,85.68L90.79,85.54L90.65,85.44L90.51,85.40L90.40,85.42L90.31,85.50L90.26,85.62L90.26,85.78L90.30,85.96L90.39,86.14"/><path style="stroke:#000000;stroke-width:0.088" d="M91.10,86.15L91.08,86.23L91.03,86.31L90.94,86.35L90.84,86.34L90.72,86.29L90.61,86.19L90.52,86.06L90.45,85.92L90.41,85.77L90.41,85.64L90.45,85.54L90.52,85.47L90.62,85.46L90.71,85.48"/><path style="stroke:#000000;stroke-width:0.088" d="M91.10,89.41L91.08,89.49L91.03,89.58L91.01,89.59"/><path style="stroke:#000000;stroke-width:0.088" d="M91.01,86.32L91.03,86.31"/><path style="stroke:#000000;stroke-width:0.088" d="M91.39,91.91L91.39,94.27"/><path style="stroke:#000000;stroke-width:0.088" d="M91.67,94.27L93.29,93.34L93.29,90.97"/><path style="stroke:#000000;stroke-width:0.088" d="M91.63,91.93L97.90,88.31L97.91,88.30L97.92,88.27"/><path style="stroke:#000000;stroke-width:0.088" d="M91.63,81.32L91.43,81.32"/><path style="stroke:#000000;stroke-width:0.088" d="M91.67,81.22L93.65,80.07L93.65,77.63L91.67,78.77"/><path style="stroke:#000000;stroke-width:0.088" d="M91.39,81.22L91.39,78.77"/><path style="stroke:#000000;stroke-width:0.088" d="M93.65,78.79L93.72,78.79L93.99,78.84L94.21,78.93L94.92,79.34L94.92,76.89L94.21,76.48L93.99,76.39L93.72,76.34L93.44,76.34L93.17,76.39L92.94,76.48L92.78,76.62L92.69,76.77L92.69,76.93L92.78,77.09L92.94,77.22L93.65,77.63"/><path style="stroke:#000000;stroke-width:0.088" d="M92.69,76.82L92.69,76.77L92.69,76.82"/><path style="stroke:#000000;stroke-width:0.088" d="M94.57,90.23L94.57,91.79L94.21,91.64L93.80,91.56L93.36,91.56L93.29,91.57"/><path style="stroke:#000000;stroke-width:0.088" d="M93.65,78.83L93.81,78.85L94.05,78.91L94.16,78.96L94.24,79.02L94.36,79.16L94.40,79.32L94.34,79.47L94.20,79.60L94.00,79.70L93.75,79.76L93.65,79.76"/><path style="stroke:#000000;stroke-width:0.088" d="M94.21,78.93L94.21,76.48"/><path style="stroke:#000000;stroke-width:0.088" d="M93.98,70.69L93.98,69.63L94.00,69.65L94.83,70.14"/><path style="stroke:#000000;stroke-width:0.088" d="M94.00,70.68L94.00,69.65"/><path style="stroke:#000000;stroke-width:0.088" d="M93.98,69.63L93.98,69.61L94.00,69.59L100.01,66.12L100.29,66.12L106.79,69.87L106.79,70.04L100.79,73.51L100.79,75.95L100.74,75.97L100.72,75.97L100.67,75.95L100.67,73.51L100.71,73.52L100.74,73.52L100.79,73.51"/><path style="stroke:#000000;stroke-width:0.088" d="M94.57,91.79L95.27,92.19L95.27,89.83"/><path style="stroke:#000000;stroke-width:0.088" d="M94.92,79.34L97.69,77.74L97.70,77.72L97.70,75.28L97.68,75.30L97.68,77.75"/><path style="stroke:#000000;stroke-width:0.088" d="M94.92,76.89L97.68,75.30"/><path style="stroke:#000000;stroke-width:0.088" d="M95.27,92.19L97.68,90.81L97.68,88.44"/><path style="stroke:#000000;stroke-width:0.088" d="M96.02,87.95L95.89,87.97L95.69,87.91L95.55,87.74L95.49,87.49L95.51,87.18L95.61,86.85L95.79,86.53L96.02,86.26L96.27,86.07L96.52,85.98L96.74,85.99L96.91,86.11L97.02,86.32L97.04,86.60L96.97,86.92L96.83,87.25L96.63,87.55L96.39,87.78L96.13,87.93L96.02,87.95"/><path style="stroke:#000000;stroke-width:0.088" d="M95.52,87.13L95.67,86.99L95.87,86.70L96.01,86.37L96.04,86.25"/><path style="stroke:#000000;stroke-width:0.088" d="M95.55,84.48L95.69,84.64L95.89,84.71L96.13,84.67L96.39,84.52L96.63,84.29L96.83,83.99L96.97,83.66L97.04,83.34L97.02,83.05L96.91,82.84L96.74,82.72L96.52,82.71L96.27,82.81L96.01,83.00L95.79,83.27L95.61,83.59L95.51,83.92L95.49,84.22L95.55,84.48"/><path style="stroke:#000000;stroke-width:0.088" d="M95.52,83.87L95.67,83.73L95.87,83.43L96.01,83.10L96.04,82.98"/><path style="stroke:#000000;stroke-width:0.088" d="M96.83,74.74L96.84,74.75L96.84,74.69L96.82,74.71L96.82,74.73L96.83,74.74"/><path style="stroke:#000000;stroke-width:0.088" d="M96.84,74.69L99.73,73.02L99.75,73.02L99.79,73.01L99.84,73.02L99.84,75.47L99.79,75.46L99.75,75.46L99.73,75.47L97.70,76.64"/><path style="stroke:#000000;stroke-width:0.088" d="M96.84,74.75L97.68,75.24L97.69,75.25L97.70,75.26L97.70,75.28"/><path style="stroke:#000000;stroke-width:0.088" d="M97.68,90.81L97.70,90.78L97.70,88.43"/><path style="stroke:#000000;stroke-width:0.088" d="M97.70,89.70L99.73,88.53L99.73,86.16L99.75,86.15L99.79,86.15L99.84,86.16L99.84,88.53L99.79,88.52L99.75,88.52L99.73,88.53"/><path style="stroke:#000000;stroke-width:0.088" d="M97.90,77.70L97.90,88.31"/><path style="stroke:#000000;stroke-width:0.088" d="M98.36,87.65L98.23,87.58L98.22,87.57L98.22,76.96L98.23,76.97L98.40,77.07L98.40,87.68L98.36,87.65"/><path style="stroke:#000000;stroke-width:0.088" d="M97.92,88.28L97.92,82.81"/><path style="stroke:#000000;stroke-width:0.088" d="M98.23,87.58L98.23,76.97"/><path style="stroke:#000000;stroke-width:0.088" d="M98.22,87.47L97.92,87.29"/><path style="stroke:#000000;stroke-width:0.088" d="M97.90,77.63L97.90,76.67L97.86,76.66L97.83,76.66L97.79,76.67L97.79,77.56L97.91,77.64L97.92,77.65L97.92,77.67"/><path style="stroke:#000000;stroke-width:0.088" d="M97.79,77.56L97.70,77.51"/><path style="stroke:#000000;stroke-width:0.088" d="M97.90,76.67L98.27,76.88L98.28,76.90L98.27,76.92L98.27,76.88"/><path style="stroke:#000000;stroke-width:0.088" d="M98.22,76.96L98.23,76.94L98.27,76.92"/><path style="stroke:#000000;stroke-width:0.088" d="M97.79,76.67L97.70,76.72"/><path style="stroke:#000000;stroke-width:0.088" d="M98.40,77.07L98.45,77.08L98.50,77.08L98.52,77.07L98.52,87.68L98.50,87.68L98.45,87.69L98.40,87.68"/><path style="stroke:#000000;stroke-width:0.088" d="M98.52,87.68L99.62,87.04L99.63,87.02L99.63,86.72L99.63,87.02"/><path style="stroke:#000000;stroke-width:0.088" d="M98.52,77.07L99.61,76.44L99.61,87.05"/><path style="stroke:#000000;stroke-width:0.088" d="M98.92,76.08L98.92,76.02L98.90,76.03L98.90,76.04L98.90,76.06L98.92,76.08L99.30,76.30L99.33,76.30L99.40,76.27L99.44,76.28L99.62,76.39L99.63,76.40L99.63,76.41L99.61,76.44"/><path style="stroke:#000000;stroke-width:0.088" d="M98.92,76.02L99.73,75.55L99.73,86.16L99.63,86.22"/><path style="stroke:#000000;stroke-width:0.088" d="M99.84,88.53L100.67,89.01L100.71,89.02L100.74,89.02L100.79,89.01L106.79,85.54L106.79,83.18"/><path style="stroke:#000000;stroke-width:0.088" d="M99.63,86.72L99.63,81.30"/><path style="stroke:#000000;stroke-width:0.088" d="M99.73,75.55L99.75,75.55L99.79,75.54L99.84,75.55L99.84,86.16L100.16,86.35"/><path style="stroke:#000000;stroke-width:0.088" d="M99.63,82.03L99.63,76.41"/><path style="stroke:#000000;stroke-width:0.088" d="M99.63,76.56L99.63,76.40"/><path style="stroke:#000000;stroke-width:0.088" d="M99.84,75.47L100.67,75.95"/><path style="stroke:#000000;stroke-width:0.088" d="M99.84,75.55L100.21,75.77L100.21,75.80L100.17,75.82L100.16,75.83L100.17,75.85L100.17,86.46L100.16,86.45L100.16,75.84"/><path style="stroke:#000000;stroke-width:0.088" d="M99.73,75.47L99.73,73.02"/><path style="stroke:#000000;stroke-width:0.088" d="M99.84,73.02L100.67,73.51"/><path style="stroke:#000000;stroke-width:0.088" d="M99.93,69.73L99.55,69.51L99.32,69.24L99.26,68.94L99.37,68.64L99.64,68.38L100.04,68.18L100.53,68.07L101.06,68.06L101.56,68.15L101.99,68.33L102.27,68.55L102.29,68.57L102.44,68.86L102.42,69.17L102.23,69.45L101.89,69.68L101.43,69.84L100.92,69.90L100.40,69.86L99.93,69.73"/><path style="stroke:#000000;stroke-width:0.088" d="M100.67,89.01L100.67,86.70"/><path style="stroke:#000000;stroke-width:0.088" d="M100.71,86.69L100.71,76.08L100.65,76.10L100.59,76.09L100.57,76.08L100.57,86.69L100.59,86.70L100.65,86.71L100.71,86.69L106.98,83.07L106.98,72.35L106.79,72.24"/><path style="stroke:#000000;stroke-width:0.088" d="M100.57,86.69L100.17,86.46"/><path style="stroke:#000000;stroke-width:0.088" d="M100.17,75.85L100.57,76.08"/><path style="stroke:#000000;stroke-width:0.088" d="M100.21,75.80L100.22,75.78L100.21,75.77"/><path style="stroke:#000000;stroke-width:0.088" d="M100.79,89.01L100.79,86.64"/><path style="stroke:#000000;stroke-width:0.088" d="M100.71,76.08L106.98,72.46"/><path style="stroke:#000000;stroke-width:0.088" d="M100.79,75.95L106.79,72.49L106.79,70.04"/><path style="stroke:#000000;stroke-width:0.088" d="M102.27,87.55L102.10,87.61L101.91,87.59L101.76,87.48L101.67,87.29L101.66,87.04L101.72,86.75L101.84,86.46L102.03,86.20L102.24,86.00L102.47,85.87L102.68,85.84L102.86,85.90L102.98,86.06L103.03,86.28L103.03,86.33L103.00,86.55L102.91,86.85L102.75,87.13L102.55,87.36L102.33,87.53L102.27,87.55"/><path style="stroke:#000000;stroke-width:0.088" d="M102.35,85.94L102.37,85.93L102.56,85.90L102.71,85.95L102.82,86.09L102.86,86.29L102.86,86.33L102.84,86.53L102.76,86.78L102.62,87.03L102.44,87.24L102.25,87.38L102.05,87.45L101.88,87.44L101.74,87.34L101.67,87.18L101.66,87.02"/><path style="stroke:#000000;stroke-width:0.088" d="M101.97,84.46L102.21,84.42L102.34,84.36L102.47,84.28L102.71,84.04L102.91,83.74L103.05,83.41L103.11,83.09L103.09,82.81L102.99,82.60L102.82,82.48L102.60,82.47L102.34,82.56L102.27,82.62L102.09,82.76L101.87,83.03L101.69,83.34L101.59,83.67L101.57,83.98L101.63,84.23L101.77,84.40L101.97,84.46"/><path style="stroke:#000000;stroke-width:0.088" d="M102.11,82.74L102.09,82.86L101.95,83.19L101.75,83.49L101.60,83.63"/><path style="stroke:#000000;stroke-width:0.088" d="M102.27,81.12L102.21,81.16L101.97,81.20L101.77,81.13L101.63,80.97L101.57,80.72L101.59,80.41L101.69,80.08L101.87,79.76L102.09,79.49L102.34,79.30L102.60,79.20L102.82,79.21L102.99,79.33L103.09,79.54L103.11,79.83L103.05,80.15L102.91,80.48L102.71,80.78L102.47,81.01L102.27,81.12"/><path style="stroke:#000000;stroke-width:0.088" d="M102.11,79.47L102.09,79.60L101.95,79.92L101.75,80.22L101.60,80.36"/><path style="stroke:#000000;stroke-width:0.088" d="M102.10,74.88L101.91,74.86L101.76,74.75L101.67,74.56L101.66,74.31L101.72,74.02L101.84,73.73L102.03,73.47L102.24,73.27L102.47,73.14L102.68,73.11L102.86,73.17L102.98,73.32L103.03,73.55L103.03,73.60L103.00,73.82L102.91,74.12L102.75,74.39L102.55,74.63L102.33,74.80L102.10,74.88"/><path style="stroke:#000000;stroke-width:0.088" d="M102.27,73.25L102.37,73.20L102.56,73.17L102.71,73.22L102.82,73.36L102.86,73.56L102.86,73.60L102.84,73.80L102.76,74.05L102.62,74.30L102.44,74.51L102.25,74.65L102.05,74.72L101.88,74.71L101.74,74.61L101.67,74.45L101.66,74.29"/><path style="stroke:#000000;stroke-width:0.088" d="M102.81,71.09L102.81,71.16L102.88,71.27L103.00,71.36L103.17,71.42L103.36,71.44L103.56,71.43L103.74,71.38L103.88,71.31L103.97,71.20L104.00,71.09L103.96,70.98L103.87,70.88L103.82,70.85L103.72,70.80L103.54,70.76L103.34,70.75L103.15,70.78L102.99,70.85L102.87,70.94L102.81,71.05L102.81,71.09"/><path style="stroke:#000000;stroke-width:0.088" d="M103.03,71.37L102.97,71.33L102.92,71.24L102.91,71.15L102.96,71.06L103.06,70.98L103.19,70.93L103.35,70.90L103.51,70.91L103.62,70.94L103.66,70.95L103.75,70.99L103.78,71.01L103.86,71.09L103.89,71.18L103.87,71.27L103.80,71.35"/><path style="stroke:#000000;stroke-width:0.088" d="M87.92,92.27L85.03,93.95L85.03,96.40L91.39,100.07L91.67,100.07L106.65,91.42L106.65,89.13L91.67,97.78L91.39,97.78L91.39,100.07"/><path style="stroke:#000000;stroke-width:0.088" d="M85.03,94.11L91.39,97.78"/><path style="stroke:#000000;stroke-width:0.088" d="M91.43,94.27L91.43,94.47L91.32,94.77L91.05,95.03L90.65,95.23L90.16,95.34L89.64,95.35L89.13,95.27L88.70,95.09L88.40,94.85L88.24,94.55L88.25,92.46"/><path style="stroke:#000000;stroke-width:0.088" d="M91.67,100.07L91.67,97.78"/><path style="stroke:#000000;stroke-width:0.088" d="M93.26,97.80L93.23,97.98L93.24,98.14L93.29,98.25L93.38,98.32L93.51,98.33L93.64,98.28L93.78,98.17L93.90,98.02L94.00,97.85L94.06,97.67L94.07,97.50L94.04,97.37L93.96,97.27L93.85,97.24L93.72,97.26L93.58,97.34L93.45,97.46L93.34,97.63L93.26,97.80"/><path style="stroke:#000000;stroke-width:0.088" d="M93.63,97.31L93.74,97.29L93.83,97.32L93.89,97.40L93.91,97.50L93.92,97.51L93.91,97.65L93.86,97.80L93.78,97.94L93.68,98.06L93.57,98.14L93.45,98.18L93.35,98.18L93.28,98.12L93.23,98.03L93.23,97.97"/><path style="stroke:#000000;stroke-width:0.088" d="M94.43,94.44L94.39,94.33L94.42,94.21L94.46,94.16L94.51,94.11L94.65,94.03L94.83,93.98L95.02,93.97L95.21,93.99L95.38,94.05L95.51,94.14L95.58,94.25L95.58,94.36L95.53,94.47L95.41,94.56L95.25,94.63L95.06,94.66L94.86,94.65L94.68,94.61L94.53,94.54L94.43,94.44"/><path style="stroke:#000000;stroke-width:0.088" d="M94.12,91.62L94.20,91.79L94.45,92.28L94.45,91.74"/><path style="stroke:#000000;stroke-width:0.088" d="M94.45,92.28L95.40,92.49L96.35,92.58L96.35,91.88L95.96,91.79"/><path style="stroke:#000000;stroke-width:0.088" d="M95.37,94.58L95.43,94.53L95.48,94.44L95.47,94.35L95.42,94.26L95.31,94.19L95.24,94.16L95.17,94.14L95.02,94.12L94.86,94.13L94.74,94.16L94.71,94.17L94.59,94.24L94.52,94.32L94.50,94.41L94.53,94.50L94.60,94.57"/><path style="stroke:#000000;stroke-width:0.088" d="M94.50,94.39L94.50,94.43"/><path style="stroke:#000000;stroke-width:0.088" d="M97.63,90.83L97.73,91.08L97.73,91.78L97.04,92.23L96.35,92.58"/><path style="stroke:#000000;stroke-width:0.088" d="M96.35,91.88L97.04,91.42L96.69,91.57L96.28,91.67L96.16,91.68"/><path style="stroke:#000000;stroke-width:0.088" d="M97.49,90.91L97.48,90.98L97.31,91.22L97.04,91.42L97.73,91.08"/><path style="stroke:#000000;stroke-width:0.088" d="M99.58,88.61L99.73,88.73L100.16,88.90L100.62,88.98"/><path style="stroke:#000000;stroke-width:0.088" d="M100.33,91.35L100.51,91.39L100.71,91.39L100.90,91.36L101.06,91.30L101.18,91.21L101.24,91.10L101.23,90.98L101.16,90.88L101.04,90.79L100.87,90.73L100.68,90.71L100.48,90.72L100.30,90.77L100.16,90.85L100.07,90.95L100.04,91.06L100.08,91.17L100.18,91.27L100.33,91.35"/><path style="stroke:#000000;stroke-width:0.088" d="M100.16,91.16L100.16,91.13L100.17,91.06L100.25,90.97L100.36,90.91L100.51,90.87L100.55,90.86L100.67,90.86L100.83,90.88L100.97,90.92L100.99,90.94L101.07,91.00L101.13,91.08L101.13,91.18L101.08,91.27L101.02,91.31"/><path style="stroke:#000000;stroke-width:0.088" d="M100.25,91.31L100.18,91.24L100.15,91.15L100.16,91.13"/><path style="stroke:#000000;stroke-width:0.088" d="M100.83,88.98L101.19,88.98L101.68,88.86L102.08,88.67L102.35,88.41L102.45,88.11L102.45,88.05"/><path style="stroke:#000000;stroke-width:0.088" d="M103.75,87.30L106.65,88.97L106.65,89.13"/><path style="stroke:#000000;stroke-width:0.088" d="M104.25,91.62L104.26,91.77L104.31,91.89L104.41,91.95L104.53,91.96L104.67,91.91L104.81,91.81L104.93,91.66L105.02,91.49L105.08,91.31L105.10,91.14L105.06,91.00L104.99,90.91L104.88,90.87L104.75,90.89L104.61,90.97L104.48,91.10L104.36,91.26L104.29,91.44L104.25,91.62"/><path style="stroke:#000000;stroke-width:0.088" d="M104.25,91.61L104.26,91.66L104.30,91.76L104.38,91.81L104.48,91.82L104.59,91.78L104.61,91.76L104.71,91.69L104.81,91.57L104.88,91.43L104.92,91.32L104.93,91.28L104.94,91.15L104.92,91.03L104.85,90.96L104.77,90.93L104.66,90.94"/><path style="stroke:#000000;stroke-width:0.088" d="M87.23,84.05L87.20,84.25L87.20,84.26L87.23,84.50L87.33,84.75L87.43,84.92L87.47,84.99L87.65,85.18L87.85,85.31L88.04,85.36L88.13,85.38L88.30,85.34L88.43,85.22L88.49,85.03L88.49,84.79L88.42,84.52L88.30,84.26L88.12,84.03L88.07,83.98L87.92,83.85L87.71,83.75L87.52,83.74L87.36,83.82L87.26,83.97L87.23,84.05L87.32,83.90L87.47,83.83L87.65,83.84L87.84,83.94L88.03,84.10L88.20,84.32L88.32,84.57L88.38,84.82L88.38,85.04L88.32,85.22L88.20,85.33L88.04,85.36"/><path style="stroke:#000000;stroke-width:0.088" d="M87.35,84.38L87.38,84.57L87.47,84.76L87.58,84.93L87.72,85.07L87.87,85.15L87.88,85.16L88.01,85.18L88.13,85.14L88.21,85.04L88.25,84.90L88.23,84.72L88.17,84.52L88.07,84.34L87.94,84.18L87.80,84.07L87.79,84.07L87.65,84.02L87.52,84.02L87.42,84.09L87.36,84.22L87.35,84.38"/><path style="stroke:#000000;stroke-width:0.088" d="M87.36,83.82L87.60,83.68"/><path style="stroke:#000000;stroke-width:0.088" d="M88.22,84.68L88.15,84.61L88.03,84.43L87.95,84.24L87.94,84.18"/><path style="stroke:#000000;stroke-width:0.088" d="M88.33,85.31L88.55,85.19"/><path style="stroke:#000000;stroke-width:0.088" d="M88.30,85.34L88.51,85.21"/><path style="stroke:#000000;stroke-width:0.088" d="M88.54,85.20L88.51,85.21"/><path style="stroke:#000000;stroke-width:0.088" d="M87.20,87.50L87.20,87.52L87.20,87.52L87.23,87.76L87.33,88.02L87.47,88.25L87.65,88.44L87.85,88.57L88.04,88.63L88.20,88.60L88.32,88.49L88.38,88.31L88.38,88.28L88.38,88.08L88.32,87.83L88.20,87.58L88.03,87.37L87.84,87.20L87.65,87.11L87.47,87.10L87.32,87.17L87.23,87.31L87.20,87.50"/><path style="stroke:#000000;stroke-width:0.088" d="M87.36,87.50L87.35,87.65L87.38,87.83L87.47,88.02L87.58,88.20L87.72,88.33L87.87,88.42L88.01,88.44L88.13,88.40L88.21,88.31L88.25,88.16L88.23,87.98L88.17,87.79L88.07,87.60L87.94,87.45L87.80,87.34L87.79,87.34L87.65,87.28L87.52,87.29L87.42,87.36L87.36,87.48L87.36,87.50"/><path style="stroke:#000000;stroke-width:0.088" d="M87.23,87.31L87.26,87.24L87.36,87.08L87.52,87.00L87.71,87.02L87.92,87.12L88.12,87.29L88.30,87.52L88.42,87.79L88.49,88.06L88.49,88.30L88.43,88.49L88.30,88.61L88.13,88.64L88.04,88.63"/><path style="stroke:#000000;stroke-width:0.088" d="M87.36,87.08L87.60,86.94"/><path style="stroke:#000000;stroke-width:0.088" d="M88.22,87.94L88.15,87.87L88.03,87.70L87.95,87.51L87.94,87.44"/><path style="stroke:#000000;stroke-width:0.088" d="M88.30,88.61L88.51,88.48"/><path style="stroke:#000000;stroke-width:0.088" d="M88.51,88.48L88.54,88.46"/><path style="stroke:#000000;stroke-width:0.088" d="M88.33,88.58L88.55,88.46"/><path style="stroke:#000000;stroke-width:0.088" d="M102.46,137.30L105.29,135.67L103.35,134.55L100.52,136.19L102.46,137.30L102.46,140.08L102.91,140.34L102.91,141.64L100.08,140.01L100.08,138.70L100.52,138.45"/><path style="stroke:#000000;stroke-width:0.088" d="M100.08,138.70L100.52,138.96L100.52,136.19"/><path style="stroke:#000000;stroke-width:0.088" d="M102.06,136.22L101.97,136.14L101.91,135.95L101.95,135.76L102.10,135.59L102.20,135.52L102.33,135.46L102.63,135.38L102.95,135.35L103.27,135.39L103.56,135.49L103.77,135.64L103.88,135.81L103.90,136.00L103.80,136.19L103.61,136.34L103.34,136.45L103.02,136.50L102.69,136.49L102.39,136.42L102.14,136.30L102.06,136.22"/><path style="stroke:#000000;stroke-width:0.088" d="M103.55,136.36L103.67,136.27L103.75,136.12L103.74,135.95L103.64,135.80L103.46,135.68L103.32,135.63L103.22,135.60L102.95,135.56L102.67,135.58L102.42,135.65L102.22,135.76L102.09,135.91L102.06,136.07L102.11,136.23L102.23,136.35"/><path style="stroke:#000000;stroke-width:0.088" d="M102.46,140.08L105.29,138.45L105.73,138.70L105.73,140.01L102.91,141.64"/><path style="stroke:#000000;stroke-width:0.088" d="M102.91,140.34L105.73,138.70"/><path style="stroke:#000000;stroke-width:0.088" d="M105.29,138.45L105.29,135.67"/><path style="stroke:#000000;stroke-width:0.088" d="M88.77,133.48L91.60,131.85L91.60,130.54L88.77,132.18L88.77,133.48L85.94,131.85L85.94,130.54L86.39,130.29"/><path style="stroke:#000000;stroke-width:0.088" d="M88.77,132.18L88.33,131.92L88.33,129.14L86.39,128.03L86.39,130.80L85.94,130.54"/><path style="stroke:#000000;stroke-width:0.088" d="M86.39,128.03L89.22,126.39L91.15,127.51L88.33,129.14"/><path style="stroke:#000000;stroke-width:0.088" d="M87.99,128.13L88.00,128.14L88.25,128.26L88.56,128.33L88.89,128.34L89.20,128.29L89.47,128.18L89.67,128.03L89.76,127.84L89.75,127.65L89.63,127.48L89.42,127.33L89.14,127.23L88.82,127.19L88.49,127.22L88.20,127.30L88.06,127.36L87.96,127.43L87.81,127.60L87.77,127.79L87.84,127.98L87.99,128.13"/><path style="stroke:#000000;stroke-width:0.088" d="M89.41,128.20L89.53,128.11L89.61,127.96L89.60,127.79L89.50,127.64L89.32,127.52L89.08,127.44L88.81,127.40L88.53,127.42L88.28,127.49L88.08,127.60L87.96,127.75L87.92,127.91L87.98,128.07L88.10,128.19"/><path style="stroke:#000000;stroke-width:0.088" d="M88.33,131.92L91.15,130.29L91.60,130.54"/><path style="stroke:#000000;stroke-width:0.088" d="M91.15,130.29L91.15,127.51"/><path style="stroke:#000000;stroke-width:0.088" d="M119.44,75.57L119.40,75.53L119.26,75.29L119.17,75.04L119.13,74.81L119.16,74.60L119.26,74.46L119.40,74.39L119.57,74.40L119.77,74.49L119.95,74.65L120.11,74.87L120.23,75.11L120.30,75.36L120.31,75.48L120.30,75.58L120.24,75.76L120.12,75.87L119.96,75.90L119.77,75.85L119.58,75.72L119.44,75.57"/><path style="stroke:#000000;stroke-width:0.088" d="M119.34,75.31L119.25,75.09L119.21,74.88L119.23,74.70L119.30,74.57L119.42,74.49L119.56,74.49L119.73,74.56L119.89,74.69L120.04,74.87L120.11,75.00L120.15,75.08L120.22,75.30L120.23,75.43L120.23,75.49L120.18,75.65L120.09,75.76L119.95,75.80L119.79,75.76L119.63,75.66L119.47,75.51L119.34,75.31"/><path style="stroke:#000000;stroke-width:0.088" d="M119.75,74.58L119.64,74.53L119.51,74.53L119.40,74.60L119.34,74.72L119.32,74.88L119.36,75.07L119.44,75.26L119.55,75.43L119.69,75.57L119.84,75.66L119.98,75.69L120.10,75.66L120.19,75.57L120.23,75.42L120.23,75.41"/><path style="stroke:#000000;stroke-width:0.088" d="M120.11,75.87L120.18,75.89L120.38,75.88L120.54,75.76L120.45,75.54L120.45,75.27L120.54,74.95L120.38,74.66L120.18,74.40L119.98,74.25L119.94,74.22L119.71,74.13L119.50,74.15L119.35,74.27L119.31,74.43"/><path style="stroke:#000000;stroke-width:0.088" d="M120.45,75.27L120.38,75.01L120.25,74.75L120.07,74.52L119.86,74.36L119.65,74.28L119.47,74.30L119.34,74.41L119.33,74.41"/><path style="stroke:#000000;stroke-width:0.088" d="M120.12,75.87L120.26,75.79L120.38,75.68L120.44,75.50L120.45,75.40L120.44,75.28L120.38,75.03L120.26,74.79L120.09,74.57L119.91,74.41L119.71,74.32L119.54,74.31L119.40,74.38L119.26,74.46"/><path style="stroke:#000000;stroke-width:0.088" d="M120.45,75.54L120.38,75.71L120.25,75.82L120.19,75.82"/><path style="stroke:#000000;stroke-width:0.088" d="M119.44,74.57L119.51,74.53"/><path style="stroke:#000000;stroke-width:0.088" d="M120.92,75.71L121.17,75.70L121.36,75.57L121.48,75.33L121.50,75.02L121.43,74.66L121.27,74.30L121.05,73.97L121.00,73.93L120.78,73.71L120.64,73.62L120.49,73.55L120.22,73.50L120.00,73.57L119.85,73.76L119.84,73.80"/><path style="stroke:#000000;stroke-width:0.088" d="M119.70,74.04L119.69,73.98L119.77,73.67L119.94,73.47L120.18,73.39L120.48,73.44L120.64,73.52L120.79,73.62L121.09,73.91L121.33,74.27L121.50,74.67L121.58,75.06L121.56,75.41L121.43,75.66L121.22,75.81L120.95,75.82L120.66,75.71"/><path style="stroke:#000000;stroke-width:0.088" d="M120.38,75.88L120.94,75.56L121.09,75.44L121.09,74.63L120.94,74.34L120.73,74.08L120.50,73.90L120.26,73.81L120.06,73.83L119.50,74.15"/><path style="stroke:#000000;stroke-width:0.088" d="M119.73,74.02L119.75,73.91L119.89,73.73L120.10,73.65L120.35,73.69L120.61,73.84L120.87,74.08L121.08,74.38L121.23,74.72L121.30,75.06L121.30,75.16L121.28,75.35L121.18,75.58L121.01,75.71L120.77,75.73L120.69,75.70"/><path style="stroke:#000000;stroke-width:0.088" d="M120.00,73.66L119.99,73.67L120.20,73.60L120.45,73.65L120.71,73.80L120.96,74.04L121.17,74.35L121.32,74.69L121.38,75.03L121.39,75.11L121.36,75.32L121.26,75.54L121.08,75.66"/><path style="stroke:#000000;stroke-width:0.088" d="M119.66,74.06L119.65,73.92L119.65,73.89L119.73,73.56L119.75,73.52L119.94,73.29L119.97,73.27L120.24,73.18L120.57,73.24L120.92,73.44L121.25,73.76L121.53,74.16L121.61,74.35L121.72,74.61L121.81,75.05L121.78,75.44L121.64,75.72L121.46,75.85L123.12,74.91L124.77,73.96L124.98,73.76L125.09,73.45L125.10,73.26L125.09,73.04L124.98,72.60L124.76,72.15L124.47,71.77L124.13,71.47L124.13,71.47L123.78,71.31L123.46,71.28L123.21,71.41L121.56,72.36L119.97,73.27"/><path style="stroke:#000000;stroke-width:0.088" d="M119.99,73.67L119.89,73.73"/><path style="stroke:#000000;stroke-width:0.088" d="M120.18,73.20L120.57,72.96L120.53,72.98L120.51,73.00L120.51,73.02L120.53,73.03L120.57,73.04L120.57,72.96L121.70,72.31L121.73,72.29L121.79,72.27L121.85,72.24L121.92,72.23L121.98,72.22L122.14,72.25L122.18,72.26L122.21,72.28L122.23,72.31L122.24,72.34L122.22,72.37L122.18,72.40L122.18,72.26"/><path style="stroke:#000000;stroke-width:0.088" d="M120.62,75.74L120.66,75.77L120.69,75.79L121.03,75.91L121.06,75.92L121.37,75.90L121.41,75.89L121.46,75.85"/><path style="stroke:#000000;stroke-width:0.088" d="M120.54,75.76L121.09,75.44"/><path style="stroke:#000000;stroke-width:0.088" d="M120.54,74.95L121.09,74.63"/><path style="stroke:#000000;stroke-width:0.088" d="M120.57,73.04L120.73,73.07L120.77,73.08L120.82,73.09L120.88,73.10L120.95,73.09L121.01,73.07L121.05,73.06L122.18,72.40"/><path style="stroke:#000000;stroke-width:0.088" d="M120.57,72.96L121.82,72.24L121.92,72.23"/><path style="stroke:#000000;stroke-width:0.088" d="M120.85,73.09L121.70,72.61L121.70,72.31"/><path style="stroke:#000000;stroke-width:0.088" d="M120.51,73.01L120.51,73.02"/><path style="stroke:#000000;stroke-width:0.088" d="M120.51,73.01L120.51,73.02"/><path style="stroke:#000000;stroke-width:0.088" d="M121.01,75.71L121.08,75.66L121.10,75.66"/><path style="stroke:#000000;stroke-width:0.088" d="M121.67,73.63L121.70,73.62L122.83,72.96L122.86,72.93L122.88,72.89L122.89,72.84L122.87,72.78L122.83,72.72L122.63,72.53L122.58,72.49L122.51,72.47L122.45,72.47L122.39,72.48L122.35,72.50L121.22,73.15L121.18,73.19L121.16,73.23L121.16,73.24L121.16,73.27L121.19,73.31L121.22,73.34L121.42,73.53L121.47,73.58L121.54,73.62L121.61,73.63L121.67,73.63"/><path style="stroke:#000000;stroke-width:0.088" d="M121.22,73.15L121.22,73.34"/><path style="stroke:#000000;stroke-width:0.088" d="M121.25,73.37L122.35,72.74L122.40,72.72L122.46,72.71L122.52,72.72L122.58,72.74L122.63,72.77L122.63,72.53"/><path style="stroke:#000000;stroke-width:0.088" d="M121.70,72.61L121.78,72.56L121.85,72.53L121.92,72.50L121.98,72.49L121.98,72.22"/><path style="stroke:#000000;stroke-width:0.088" d="M123.32,74.38L122.19,75.03L122.14,75.07L122.10,75.12L122.06,75.17L122.04,75.22L122.03,75.27L121.96,75.46L121.95,75.50L121.95,75.52L121.97,75.52L122.00,75.51L122.03,75.50L123.16,74.84L123.20,74.82L123.25,74.78L123.30,74.74L123.34,74.69L123.38,74.64L123.44,74.45L123.32,74.38L123.36,74.37L123.40,74.36L123.43,74.37L123.44,74.40L123.44,74.45"/><path style="stroke:#000000;stroke-width:0.088" d="M122.03,75.50L121.96,75.46"/><path style="stroke:#000000;stroke-width:0.088" d="M121.97,75.52L121.95,75.51"/><path style="stroke:#000000;stroke-width:0.088" d="M122.06,75.18L122.91,74.70L123.16,74.84"/><path style="stroke:#000000;stroke-width:0.088" d="M122.03,74.74L122.19,74.84L122.15,74.85L122.11,74.85L122.07,74.84L122.05,74.80L122.03,74.74L121.96,74.47L121.95,74.40L121.95,74.33L121.97,74.26L121.99,74.22L122.03,74.19L123.16,73.54L123.19,73.52L123.24,73.52L123.30,73.55L123.34,73.60L123.38,73.66L123.44,73.93L123.23,73.81L123.19,73.65L123.15,73.54"/><path style="stroke:#000000;stroke-width:0.088" d="M122.19,74.84L123.32,74.18L123.37,74.15L123.41,74.10L123.43,74.04L123.44,73.98L123.44,73.93"/><path style="stroke:#000000;stroke-width:0.088" d="M122.02,74.70L123.11,74.07L123.15,74.04L123.19,73.99L123.22,73.94L123.23,73.87L123.23,73.81"/><path style="stroke:#000000;stroke-width:0.088" d="M122.35,72.74L122.35,72.50"/><path style="stroke:#000000;stroke-width:0.088" d="M123.71,71.38L123.71,71.52L123.74,71.49L123.76,71.46L123.76,71.43L123.74,71.40L123.71,71.38L123.67,71.37L123.51,71.34L123.45,71.35L123.38,71.36L123.31,71.39L123.26,71.41L123.23,71.43L122.09,72.08L122.06,72.10L122.04,72.12L122.04,72.14L122.05,72.15L122.09,72.16L122.09,72.08"/><path style="stroke:#000000;stroke-width:0.088" d="M123.71,71.52L122.57,72.17L122.54,72.19L122.48,72.21L122.41,72.21L122.35,72.21L122.29,72.20L122.26,72.19L122.09,72.16"/><path style="stroke:#000000;stroke-width:0.088" d="M122.23,72.31L122.23,72.34"/><path style="stroke:#000000;stroke-width:0.088" d="M121.98,72.49L122.03,72.49"/><path style="stroke:#000000;stroke-width:0.088" d="M123.51,71.34L123.51,71.61L123.44,71.62L123.37,71.65L123.31,71.68L123.26,71.70L122.38,72.21"/><path style="stroke:#000000;stroke-width:0.088" d="M122.04,72.14L122.04,72.13L122.04,72.14"/><path style="stroke:#000000;stroke-width:0.088" d="M122.91,74.70L122.95,74.67L123.00,74.64L123.06,74.60L123.12,74.55L123.15,74.51L123.38,74.64"/><path style="stroke:#000000;stroke-width:0.088" d="M123.15,74.51L123.17,74.47"/><path style="stroke:#000000;stroke-width:0.088" d="M123.32,74.18L123.11,74.07"/><path style="stroke:#000000;stroke-width:0.088" d="M123.38,73.66L123.16,73.54"/><path style="stroke:#000000;stroke-width:0.088" d="M122.83,72.71L122.83,72.96"/><path style="stroke:#000000;stroke-width:0.088" d="M122.74,72.27L123.88,71.62L123.91,71.60L123.97,71.59L124.04,71.59L124.10,71.61L124.16,71.64L124.36,71.84L124.40,71.90L124.41,71.96L124.41,72.01L124.39,72.05L124.36,72.08L123.23,72.73L123.19,72.75L123.14,72.75L123.07,72.74L123.00,72.70L122.94,72.65L122.74,72.46L122.74,72.27L122.71,72.31L122.69,72.34L122.69,72.39L122.71,72.43L122.74,72.46"/><path style="stroke:#000000;stroke-width:0.088" d="M122.63,72.77L122.75,72.88L122.82,72.97"/><path style="stroke:#000000;stroke-width:0.088" d="M124.35,72.09L124.27,72.00L124.16,71.89L124.11,71.85L124.05,71.83L123.99,71.83L123.93,71.84L123.88,71.86L122.78,72.49"/><path style="stroke:#000000;stroke-width:0.088" d="M123.23,71.43L123.23,71.72"/><path style="stroke:#000000;stroke-width:0.088" d="M123.89,70.98L124.13,70.90L123.89,70.98L123.24,71.37L123.21,71.41"/><path style="stroke:#000000;stroke-width:0.088" d="M123.24,71.37L123.50,71.24L123.82,71.26L124.17,71.43L124.52,71.73L124.81,72.12L125.03,72.57L125.15,73.02L125.15,73.43L125.03,73.75L124.82,73.95L124.76,73.96"/><path style="stroke:#000000;stroke-width:0.088" d="M123.56,74.61L124.69,73.96L124.73,73.93L124.77,73.90L124.82,73.86L124.87,73.81L124.90,73.76L124.97,73.57L124.97,73.52L124.95,73.49L124.92,73.48L124.88,73.48L124.85,73.50L123.72,74.15L123.67,74.19L123.63,74.24L123.59,74.29L123.57,74.34L123.55,74.38L123.49,74.58L123.48,74.62L123.48,74.64L123.50,74.64L123.53,74.63L123.56,74.61L123.49,74.58"/><path style="stroke:#000000;stroke-width:0.088" d="M123.49,74.64L123.48,74.63"/><path style="stroke:#000000;stroke-width:0.088" d="M123.58,74.30L124.43,73.81L124.69,73.96"/><path style="stroke:#000000;stroke-width:0.088" d="M123.72,73.96L124.85,73.30L124.89,73.27L124.93,73.22L124.96,73.16L124.96,73.16L124.97,73.09L124.97,73.05L124.90,72.78L124.69,72.66L124.69,72.66L123.56,73.31L123.52,73.34L123.50,73.38L123.48,73.45L123.48,73.52L123.49,73.59L123.55,73.86L123.72,73.96L123.68,73.97L123.64,73.97L123.60,73.96L123.57,73.92L123.55,73.86"/><path style="stroke:#000000;stroke-width:0.088" d="M123.54,73.82L124.64,73.18L124.85,73.30"/><path style="stroke:#000000;stroke-width:0.088" d="M123.88,71.62L123.88,71.86"/><path style="stroke:#000000;stroke-width:0.088" d="M123.51,71.61L123.56,71.61"/><path style="stroke:#000000;stroke-width:0.088" d="M123.76,71.43L123.76,71.46"/><path style="stroke:#000000;stroke-width:0.088" d="M124.90,73.76L124.67,73.63L124.70,73.58"/><path style="stroke:#000000;stroke-width:0.088" d="M124.85,73.50L124.97,73.57"/><path style="stroke:#000000;stroke-width:0.088" d="M124.67,73.63L124.64,73.66L124.59,73.71L124.53,73.76L124.48,73.79L124.43,73.81"/><path style="stroke:#000000;stroke-width:0.088" d="M124.82,73.95L125.34,73.64L125.58,73.47L125.72,73.18L125.75,72.79L125.66,72.34L125.47,71.89L125.46,71.88L125.19,71.48L124.85,71.15L124.50,70.95L124.17,70.89L124.13,70.90L124.20,70.88L124.24,70.88L124.57,70.94L124.94,71.15L125.26,71.46L125.53,71.85L125.71,72.28L125.80,72.71L125.80,72.74L125.77,73.12L125.61,73.45L125.58,73.47"/><path style="stroke:#000000;stroke-width:0.088" d="M124.90,72.78L124.87,72.71L124.82,72.67L124.77,72.64L124.72,72.64L124.69,72.66"/><path style="stroke:#000000;stroke-width:0.088" d="M124.64,73.18L124.68,73.16L124.72,73.11L124.74,73.06L124.76,72.99L124.76,72.92L124.97,73.05"/><path style="stroke:#000000;stroke-width:0.088" d="M124.68,72.66L124.72,72.77L124.76,72.92"/><path style="stroke:#000000;stroke-width:0.088" d="M124.36,71.83L124.36,72.08"/><path style="stroke:#000000;stroke-width:0.088" d="M124.16,71.89L124.16,71.64"/><path style="stroke:#000000;stroke-width:0.088" d="M97.96,123.07L97.96,125.52L112.09,117.36L112.09,114.91L97.96,123.07L79.58,112.46L79.58,114.91L80.71,115.57L80.71,114.50L82.69,115.65L82.69,116.71L94.85,123.73L95.77,123.20"/><path style="stroke:#000000;stroke-width:0.088" d="M79.58,112.46L93.72,104.30L112.09,114.91"/><path style="stroke:#000000;stroke-width:0.088" d="M80.71,115.57L81.63,115.03"/><path style="stroke:#000000;stroke-width:0.088" d="M85.02,117.23L84.90,117.14L84.80,117.02L84.73,116.87L84.68,116.72L84.67,116.58L84.70,116.47L84.77,116.40L84.86,116.37L84.98,116.40L85.09,116.47L85.20,116.58L85.29,116.71L85.35,116.86L85.38,117.01L85.37,117.14L85.32,117.23L85.24,117.28L85.13,117.28L85.02,117.23"/><path style="stroke:#000000;stroke-width:0.088" d="M85.03,116.43L84.95,116.41L84.87,116.44L84.81,116.50L84.79,116.59L84.79,116.71L84.80,116.74L84.83,116.83L84.89,116.96L84.98,117.06L85.00,117.08L85.08,117.14L85.17,117.18L85.26,117.17L85.33,117.13L85.37,117.05L85.38,116.99"/><path style="stroke:#000000;stroke-width:0.088" d="M87.73,109.52L87.74,109.72L87.86,109.91L88.03,110.04L88.08,110.06L88.37,110.17L88.71,110.21L89.05,110.19L89.36,110.11L89.61,109.97L89.77,109.79L89.82,109.60L89.76,109.40L89.59,109.23L89.33,109.09L89.01,109.02L88.66,109.01L88.33,109.06L88.04,109.17L87.84,109.33L87.73,109.52"/><path style="stroke:#000000;stroke-width:0.088" d="M90.14,114.16L90.26,114.27L90.42,114.35L90.63,114.39L90.85,114.39L91.05,114.35L91.23,114.28L91.34,114.18L91.35,114.17L91.41,114.05L91.39,113.93L91.31,113.81L91.17,113.72L90.98,113.66L90.76,113.63L90.55,113.65L90.36,113.71L90.20,113.80L90.11,113.91L90.09,114.04L90.14,114.16"/><path style="stroke:#000000;stroke-width:0.088" d="M92.80,121.09L92.84,121.19L92.87,121.36L92.86,121.46L92.81,121.55L92.73,121.60L92.62,121.61L92.51,121.56L92.39,121.47L92.29,121.34L92.22,121.20L92.17,121.05L92.17,120.91L92.20,120.80L92.26,120.73L92.29,120.72L92.36,120.70L92.47,120.72L92.58,120.79L92.69,120.90L92.78,121.04L92.80,121.09"/><path style="stroke:#000000;stroke-width:0.088" d="M92.87,121.32L92.86,121.38L92.82,121.46L92.75,121.50L92.66,121.50L92.57,121.46L92.47,121.39L92.39,121.28L92.32,121.16L92.30,121.09L92.28,121.03L92.28,120.92L92.30,120.82L92.36,120.76L92.44,120.74L92.52,120.76"/><path style="stroke:#000000;stroke-width:0.088" d="M92.46,107.20L92.37,107.01L92.39,106.83L92.52,106.65L92.73,106.51L93.02,106.41L93.34,106.38L93.67,106.41L93.96,106.49L94.19,106.63L94.33,106.80L94.36,106.99L94.29,107.18L94.11,107.34L94.07,107.36L93.86,107.46L93.55,107.52L93.22,107.53L92.91,107.47L92.64,107.36L92.46,107.20"/><path style="stroke:#000000;stroke-width:0.088" d="M94.05,107.38L94.20,107.24L94.26,107.07L94.23,106.90L94.11,106.74L93.90,106.62L93.64,106.54L93.35,106.52L93.06,106.55L92.90,106.60L92.80,106.63L92.60,106.76L92.49,106.92L92.47,107.09L92.55,107.26L92.69,107.38"/><path style="stroke:#000000;stroke-width:0.088" d="M94.46,116.68L94.38,116.61L94.33,116.49L94.35,116.36L94.45,116.25L94.60,116.16L94.79,116.10L95.00,116.08L95.22,116.11L95.24,116.11L95.41,116.17L95.55,116.26L95.63,116.38L95.65,116.50L95.59,116.62L95.47,116.73L95.29,116.80L95.09,116.84L94.87,116.84L94.66,116.79L94.52,116.73L94.46,116.68"/><path style="stroke:#000000;stroke-width:0.088" d="M94.85,123.73L94.85,122.66L96.83,123.81L96.83,124.87L97.96,125.52"/><path style="stroke:#000000;stroke-width:0.088" d="M95.84,110.94L95.91,111.00L95.94,111.02L96.08,111.08L96.28,111.12L96.50,111.13L96.71,111.09L96.88,111.01L97.00,110.91L97.06,110.79L97.05,110.66L96.96,110.55L96.82,110.45L96.63,110.39L96.42,110.37L96.20,110.39L96.01,110.45L95.86,110.54L95.77,110.65L95.75,110.77L95.79,110.90L95.84,110.94"/><path style="stroke:#000000;stroke-width:0.088" d="M100.03,113.34L100.15,113.45L100.32,113.53L100.52,113.57L100.74,113.58L100.95,113.54L101.12,113.46L101.24,113.36L101.30,113.24L101.29,113.11L101.20,113.00L101.06,112.90L100.87,112.84L100.71,112.82L100.66,112.82L100.44,112.84L100.25,112.89L100.10,112.98L100.01,113.10L99.99,113.22L100.03,113.34"/><path style="stroke:#000000;stroke-width:0.088" d="M101.93,117.97L102.02,118.09L102.24,118.24L102.54,118.34L102.88,118.37L103.23,118.35L103.53,118.25L103.77,118.11L103.92,117.93L103.95,117.73L103.87,117.54L103.69,117.37L103.65,117.34L103.42,117.24L103.10,117.17L102.75,117.17L102.42,117.23L102.15,117.35L101.95,117.51L101.86,117.71L101.88,117.91L101.93,117.97"/><path style="stroke:#000000;stroke-width:0.088" d="M106.60,115.36L106.50,115.18L106.53,114.99L106.65,114.81L106.87,114.67L107.16,114.57L107.48,114.54L107.80,114.57L108.10,114.65L108.32,114.79L108.37,114.84L108.46,114.96L108.50,115.15L108.42,115.34L108.25,115.50L108.21,115.52L107.99,115.62L107.68,115.68L107.35,115.69L107.04,115.63L106.78,115.52L106.60,115.36"/><path style="stroke:#000000;stroke-width:0.088" d="M108.18,115.54L108.33,115.40L108.40,115.23L108.37,115.06L108.24,114.91L108.04,114.78L107.77,114.70L107.48,114.68L107.19,114.71L106.93,114.79L106.74,114.92L106.62,115.08L106.60,115.25L106.68,115.42L106.82,115.54"/><path style="stroke:#000000;stroke-width:0.088" d="M115.17,88.44L115.17,88.44L115.03,88.36L115.17,88.44L115.11,88.33L115.09,88.19L115.11,88.02L115.17,87.84L115.18,87.84L115.19,87.83L115.34,87.91L115.34,86.02L114.77,85.69L114.77,89.98L115.34,90.31L115.36,90.32L115.38,90.32L115.38,89.86"/><path style="stroke:#000000;stroke-width:0.088" d="M115.34,90.31L115.34,89.84L115.38,89.86L115.40,89.86L115.41,89.86L115.62,89.79L115.77,89.71L115.77,89.84L115.74,89.83L115.74,89.73"/><path style="stroke:#000000;stroke-width:0.088" d="M115.37,89.86L115.37,89.79L115.34,89.78L115.36,89.78L115.38,89.78L115.38,88.52L115.37,88.52L115.35,88.52L115.31,88.50L115.31,88.76L115.05,88.61L115.05,88.37"/><path style="stroke:#000000;stroke-width:0.088" d="M115.38,90.32L115.77,90.15L116.05,89.93L116.06,89.92L116.06,89.50L116.08,89.48L116.09,89.47L116.09,89.40L116.09,89.40L116.08,89.41L115.95,89.53L115.80,89.63L115.77,89.65L115.74,89.63L115.38,89.78"/><path style="stroke:#000000;stroke-width:0.088" d="M115.41,89.86L115.41,89.80L115.39,89.80L115.37,89.79"/><path style="stroke:#000000;stroke-width:0.088" d="M115.34,89.78L115.34,88.52"/><path style="stroke:#000000;stroke-width:0.088" d="M115.34,89.84L115.34,89.84"/><path style="stroke:#000000;stroke-width:0.088" d="M115.41,89.80L115.62,89.72L115.77,89.65L115.82,89.62L115.82,89.49L115.77,89.52L115.77,89.65"/><path style="stroke:#000000;stroke-width:0.088" d="M115.34,86.02L115.36,86.03L115.38,86.02L115.38,87.92L115.37,87.92L115.35,87.92L115.32,87.98L115.30,88.09L115.31,88.19L115.35,88.27L115.37,88.28L115.39,88.34L115.46,88.40L115.56,88.45L115.49,88.40L115.46,88.30L115.46,88.18L115.49,88.05L115.55,87.91L115.64,87.80L115.73,87.72L115.73,87.71"/><path style="stroke:#000000;stroke-width:0.088" d="M115.37,88.28L115.36,88.24L115.36,88.12L115.39,87.99L115.43,87.90"/><path style="stroke:#000000;stroke-width:0.088" d="M115.05,88.61L115.44,88.38L115.42,88.39L115.29,88.38L115.27,88.39L115.18,88.44L115.17,88.44"/><path style="stroke:#000000;stroke-width:0.088" d="M115.03,88.36L114.97,88.25L114.95,88.11L114.97,87.94L115.03,87.77L115.04,87.75L115.18,87.84"/><path style="stroke:#000000;stroke-width:0.088" d="M115.38,88.52L115.56,88.46L115.66,88.47L115.77,88.43L115.87,88.35L115.88,88.34"/><path style="stroke:#000000;stroke-width:0.088" d="M115.56,88.46L115.47,88.41L115.31,88.50"/><path style="stroke:#000000;stroke-width:0.088" d="M115.47,88.41L115.48,88.41"/><path style="stroke:#000000;stroke-width:0.088" d="M115.37,88.29L115.35,88.28L115.30,88.23L115.27,88.14L115.26,88.04L115.29,87.92L115.31,87.89"/><path style="stroke:#000000;stroke-width:0.088" d="M115.35,87.92L115.34,87.91"/><path style="stroke:#000000;stroke-width:0.088" d="M115.17,87.85L115.03,87.77"/><path style="stroke:#000000;stroke-width:0.088" d="M115.04,87.75L115.05,87.75L115.19,87.83"/><path style="stroke:#000000;stroke-width:0.088" d="M115.38,87.92L115.56,87.86L115.66,87.76L115.72,87.71L115.73,87.72L115.73,87.97L115.66,88.05L115.66,88.19L115.73,88.19L115.73,88.10L115.69,88.15L115.66,88.14"/><path style="stroke:#000000;stroke-width:0.088" d="M115.38,86.02L115.77,85.86L116.05,85.64L116.05,87.53L116.06,87.53L116.06,85.62L116.05,85.62L116.04,85.61L115.81,85.47"/><path style="stroke:#000000;stroke-width:0.088" d="M114.77,85.69L115.01,85.55"/><path style="stroke:#000000;stroke-width:0.088" d="M115.01,85.67L115.01,85.66L115.01,85.17L115.04,85.25L115.10,85.31L115.20,85.36L115.32,85.39L115.46,85.39L115.58,85.37L115.69,85.33L115.77,85.27L115.81,85.19L115.81,85.68L115.77,85.76L115.69,85.82L115.58,85.86L115.46,85.88L115.32,85.88L115.20,85.85L115.13,85.82"/><path style="stroke:#000000;stroke-width:0.088" d="M115.01,85.17L115.03,85.10L115.09,85.03L115.12,85.01"/><path style="stroke:#000000;stroke-width:0.088" d="M115.12,75.25L115.12,85.18L115.15,85.23L115.20,85.28L115.28,85.31L115.37,85.33L115.46,85.33L115.55,85.31L115.63,85.27L115.68,85.23L115.70,85.17L115.70,75.57L115.69,75.62L115.68,75.66L115.66,75.70L115.63,75.73L115.59,75.74L115.55,75.75L115.51,75.75L115.46,75.74L115.37,75.69L115.28,75.60L115.20,75.49L115.15,75.37L115.12,75.25L115.13,75.14L115.14,75.10L115.16,75.06L115.21,75.02L115.23,75.01L115.27,75.01L115.31,75.01L115.36,75.02L115.40,75.04L115.50,75.11L115.58,75.21L115.65,75.33L115.69,75.45L115.70,75.57"/><path style="stroke:#000000;stroke-width:0.088" d="M115.10,85.84L115.20,85.75L115.20,85.46L115.10,85.54L115.10,85.84L115.08,85.85L115.06,85.85L115.05,85.84L115.05,85.55L115.07,85.55L115.09,85.55L115.10,85.54"/><path style="stroke:#000000;stroke-width:0.088" d="M115.05,85.55L115.02,85.54L115.02,85.53L115.01,85.53L115.02,85.52L115.13,85.43L115.20,85.46"/><path style="stroke:#000000;stroke-width:0.088" d="M115.01,85.53L115.01,85.82L115.02,85.83L115.03,85.84L115.03,85.54"/><path style="stroke:#000000;stroke-width:0.088" d="M115.03,85.84L115.05,85.84"/><path style="stroke:#000000;stroke-width:0.088" d="M116.05,89.50L116.05,89.93"/><path style="stroke:#000000;stroke-width:0.088" d="M115.74,89.63L115.74,89.50L115.80,89.47L115.82,89.49"/><path style="stroke:#000000;stroke-width:0.088" d="M115.82,89.58L116.05,89.39L116.05,88.14L116.06,88.13L116.06,88.12L116.05,88.12L116.03,88.10"/><path style="stroke:#000000;stroke-width:0.088" d="M116.06,89.37L116.07,89.38L116.08,89.39L116.09,89.40"/><path style="stroke:#000000;stroke-width:0.088" d="M116.05,89.39L116.06,89.39L116.06,88.12"/><path style="stroke:#000000;stroke-width:0.088" d="M115.77,89.71L115.80,89.70L115.95,89.59L116.06,89.50"/><path style="stroke:#000000;stroke-width:0.088" d="M115.77,89.84L115.82,89.81L115.82,89.68"/><path style="stroke:#000000;stroke-width:0.088" d="M116.08,89.41L116.08,89.48"/><path style="stroke:#000000;stroke-width:0.088" d="M115.77,89.52L115.74,89.50"/><path style="stroke:#000000;stroke-width:0.088" d="M115.81,87.67L115.81,87.67L115.85,87.66L115.94,87.65L116.02,87.69L116.07,87.76L116.09,87.87L116.07,88.00L116.06,88.04L116.02,88.13L115.95,88.26L115.85,88.37L115.81,88.40L115.73,88.35"/><path style="stroke:#000000;stroke-width:0.088" d="M115.66,88.16L115.73,88.19L115.73,88.45L115.65,88.47L115.56,88.45"/><path style="stroke:#000000;stroke-width:0.088" d="M115.81,88.40L115.81,88.15L115.88,88.07L115.72,87.98"/><path style="stroke:#000000;stroke-width:0.088" d="M115.99,87.59L116.00,87.66L116.00,87.67"/><path style="stroke:#000000;stroke-width:0.088" d="M115.88,88.07L115.88,87.93L115.81,87.92L115.73,87.87"/><path style="stroke:#000000;stroke-width:0.088" d="M116.02,87.69L115.93,87.63"/><path style="stroke:#000000;stroke-width:0.088" d="M115.81,87.67L115.81,87.92"/><path style="stroke:#000000;stroke-width:0.088" d="M115.69,88.15L115.66,88.15"/><path style="stroke:#000000;stroke-width:0.088" d="M115.81,88.15L115.73,88.10"/><path style="stroke:#000000;stroke-width:0.088" d="M116.05,88.14L115.98,88.20"/><path style="stroke:#000000;stroke-width:0.088" d="M116.05,87.53L115.95,87.63L115.86,87.64L115.77,87.68L115.72,87.71"/><path style="stroke:#000000;stroke-width:0.088" d="M116.05,85.64L116.06,85.63L116.06,85.62"/><path style="stroke:#000000;stroke-width:0.088" d="M115.90,85.38L115.90,85.08L115.91,85.08L115.91,85.07L115.92,85.07L115.92,85.36L115.91,85.37L115.91,85.37L115.90,85.38L115.81,85.42"/><path style="stroke:#000000;stroke-width:0.088" d="M115.81,85.19L115.80,85.12L115.76,85.05L115.70,85.01"/><path style="stroke:#000000;stroke-width:0.088" d="M115.77,85.07L115.84,85.04L115.87,85.03L115.88,85.04L115.90,85.04L115.92,85.06L115.92,85.07"/><path style="stroke:#000000;stroke-width:0.088" d="M115.90,85.08L115.80,85.12"/><path style="stroke:#000000;stroke-width:0.088" d="M112.34,106.45L108.10,104.00L108.10,102.28L112.34,104.73L112.34,106.45L113.47,105.79L115.73,107.10"/><path style="stroke:#000000;stroke-width:0.088" d="M108.10,102.28L110.86,100.69L122.73,107.55L119.97,109.14L119.97,110.85L115.73,108.40L115.73,106.69L116.86,106.04L113.47,104.08L112.34,104.73"/><path style="stroke:#000000;stroke-width:0.088" d="M122.73,107.55L122.73,105.02L123.72,104.45L111.85,97.59L110.86,98.16L110.86,100.69"/><path style="stroke:#000000;stroke-width:0.088" d="M122.73,105.02L110.86,98.16"/><path style="stroke:#000000;stroke-width:0.088" d="M112.91,101.08L112.77,100.92L112.67,100.73L112.60,100.54L112.59,100.39L112.59,100.35L112.62,100.20L112.70,100.10L112.82,100.06L112.96,100.08L113.11,100.17L113.26,100.30L113.38,100.48L113.46,100.67L113.50,100.86L113.49,101.03L113.44,101.16L113.34,101.23L113.20,101.24L113.20,101.24L113.06,101.19L112.91,101.08"/><path style="stroke:#000000;stroke-width:0.088" d="M113.47,105.79L113.47,104.08"/><path style="stroke:#000000;stroke-width:0.088" d="M114.76,106.12L114.69,105.98L114.62,105.74L114.60,105.52L114.65,105.34L114.76,105.23L114.91,105.19L115.09,105.22L115.27,105.33L115.41,105.47L115.45,105.51L115.59,105.73L115.69,105.97L115.73,106.20L115.73,106.24L115.71,106.40L115.63,106.55L115.54,106.61L115.50,106.63L115.34,106.64L115.15,106.56L114.97,106.42L114.81,106.22L114.76,106.12"/><path style="stroke:#000000;stroke-width:0.088" d="M115.16,105.27L115.01,105.24L114.88,105.27L114.79,105.38L114.75,105.53L114.76,105.73L114.82,105.93L114.93,106.14L115.07,106.31L115.23,106.44L115.39,106.51L115.53,106.50L115.65,106.43L115.71,106.30L115.73,106.19"/><path style="stroke:#000000;stroke-width:0.088" d="M115.73,106.69L119.97,109.14"/><path style="stroke:#000000;stroke-width:0.088" d="M119.97,110.85L123.72,108.69L123.72,104.45"/><path style="stroke:#000000;stroke-width:0.088" d="M120.16,105.06L120.09,104.86L120.08,104.71L120.08,104.68L120.11,104.53L120.19,104.43L120.22,104.42L120.31,104.39L120.45,104.41L120.60,104.49L120.75,104.63L120.87,104.80L120.95,104.99L120.99,105.19L120.99,105.35L120.93,105.48L120.83,105.56L120.70,105.57L120.55,105.51L120.40,105.40L120.26,105.24L120.16,105.06"/><path style="stroke:#000000;stroke-width:0.088" d="M101.78,27.86L101.57,27.92L101.03,28.23L100.70,28.62L100.61,29.06L100.61,33.62L100.77,34.05L101.15,34.42L101.73,34.70L102.44,34.86L103.19,34.88L103.92,34.75L104.53,34.50L104.80,34.28L104.80,35.44L104.76,35.48"/><path style="stroke:#000000;stroke-width:0.088" d="M100.61,29.06L100.77,29.49L101.15,29.86L101.68,30.12L102.54,29.63L102.89,29.62L103.24,29.53L103.56,29.40L103.81,29.26L103.98,29.13L104.05,28.99L104.04,28.58"/><path style="stroke:#000000;stroke-width:0.088" d="M101.42,34.63L101.42,36.06L101.30,35.98L101.30,34.54L101.32,34.54"/><path style="stroke:#000000;stroke-width:0.088" d="M101.30,35.98L101.23,35.91L101.23,34.47L101.30,34.54"/><path style="stroke:#000000;stroke-width:0.088" d="M101.42,36.06L101.51,36.13"/><path style="stroke:#000000;stroke-width:0.088" d="M101.05,34.33L101.05,35.64L101.09,35.72L101.22,35.82L101.22,34.45"/><path style="stroke:#000000;stroke-width:0.088" d="M101.05,35.48L101.01,35.44L101.01,34.28"/><path style="stroke:#000000;stroke-width:0.088" d="M101.23,35.84L101.22,35.82"/><path style="stroke:#000000;stroke-width:0.088" d="M101.09,35.72L101.09,34.36"/><path style="stroke:#000000;stroke-width:0.088" d="M102.12,34.93L102.12,36.41L101.91,36.35L101.90,36.32L102.02,36.37L102.12,36.41L102.33,36.46L102.56,36.50L102.48,36.47L102.48,35.03L102.35,35.00L102.34,34.99L101.84,34.86L101.38,34.61L101.27,34.48"/><path style="stroke:#000000;stroke-width:0.088" d="M101.24,34.46L101.23,34.47"/><path style="stroke:#000000;stroke-width:0.088" d="M101.40,30.02L101.40,33.42L101.38,33.40L101.38,30.00L101.40,30.02L101.56,30.09L101.63,30.11L101.74,30.14L101.68,30.12L101.38,30.00"/><path style="stroke:#000000;stroke-width:0.088" d="M101.40,33.42L101.73,33.55L102.39,33.71L102.46,33.72L102.47,33.68L102.54,33.57L102.94,33.17L103.32,32.87L103.50,32.77L103.50,29.92L104.96,30.27L107.37,31.07L109.82,32.12L111.84,33.17L114.10,31.87L112.08,30.81L109.63,29.76L107.22,28.97L105.76,28.61L105.45,28.52L105.39,28.49L103.02,29.86L102.75,30.01L102.39,30.12L102.11,30.16L101.74,30.14"/><path style="stroke:#000000;stroke-width:0.088" d="M102.14,45.56L102.39,45.69L102.69,45.76L103.02,45.77L103.34,45.71L103.61,45.60L103.50,45.66L103.61,45.60L103.50,45.66L103.27,45.76L103.01,45.80L102.73,45.79L102.47,45.73L102.25,45.63L102.14,45.56L101.97,45.40L101.91,45.21L101.91,36.34"/><path style="stroke:#000000;stroke-width:0.088" d="M102.02,36.37L102.02,34.93L102.04,34.91"/><path style="stroke:#000000;stroke-width:0.088" d="M101.64,34.75L101.61,34.76L101.51,34.70L101.51,36.14L101.73,36.26L101.91,36.35"/><path style="stroke:#000000;stroke-width:0.088" d="M101.61,36.20L101.61,34.76"/><path style="stroke:#000000;stroke-width:0.088" d="M101.73,36.26L101.73,34.80"/><path style="stroke:#000000;stroke-width:0.088" d="M101.90,34.88L101.90,34.88L101.90,36.32"/><path style="stroke:#000000;stroke-width:0.088" d="M101.90,34.88L102.02,34.93"/><path style="stroke:#000000;stroke-width:0.088" d="M101.51,34.70L101.52,34.69"/><path style="stroke:#000000;stroke-width:0.088" d="M101.68,30.12L101.63,30.11"/><path style="stroke:#000000;stroke-width:0.088" d="M104.04,29.01L104.05,28.01L103.94,28.22L103.72,28.40L103.42,28.52L103.05,28.59L102.68,28.58L102.32,28.50L102.03,28.36L101.84,28.17L101.76,27.96L101.76,29.03L101.84,29.24L102.03,29.43L102.32,29.57L102.54,29.63"/><path style="stroke:#000000;stroke-width:0.088" d="M102.27,28.33L102.10,28.25L101.92,28.07L101.85,27.88L101.89,27.68L102.04,27.50L102.16,27.42L102.29,27.36L102.60,27.27L102.94,27.24L103.28,27.28L103.58,27.38L103.81,27.54L103.94,27.72L103.95,27.92L103.86,28.12L103.66,28.28L103.37,28.40L103.04,28.46L102.69,28.45L102.37,28.38L102.27,28.33"/><path style="stroke:#000000;stroke-width:0.088" d="M104.03,27.78L104.03,27.79L104.03,27.77L103.87,27.55L103.62,27.37L103.30,27.27L103.05,27.24L102.95,27.22L102.58,27.25L102.26,27.35L101.98,27.51L101.81,27.72L101.76,27.96"/><path style="stroke:#000000;stroke-width:0.088" d="M104.57,34.47L104.56,34.49L104.16,34.77L103.63,34.97L103.47,34.99L103.47,35.00L103.47,36.44L103.33,36.47L103.25,36.50L103.02,36.52L102.98,36.49L102.98,35.05L102.98,35.04L102.83,35.04L102.83,35.05L102.98,35.05"/><path style="stroke:#000000;stroke-width:0.088" d="M102.98,36.49L102.83,36.49L102.83,35.05"/><path style="stroke:#000000;stroke-width:0.088" d="M102.98,35.04L103.02,35.05L103.02,36.52L102.79,36.52L102.56,36.50L102.56,35.02"/><path style="stroke:#000000;stroke-width:0.088" d="M102.35,35.00L102.35,36.44L102.48,36.47"/><path style="stroke:#000000;stroke-width:0.088" d="M102.35,36.44L102.33,36.46L102.33,34.99"/><path style="stroke:#000000;stroke-width:0.088" d="M102.79,35.03L102.79,36.52L102.83,36.49"/><path style="stroke:#000000;stroke-width:0.088" d="M102.48,35.03L102.50,35.02"/><path style="stroke:#000000;stroke-width:0.088" d="M102.34,34.99L102.40,35.01L102.83,35.04"/><path style="stroke:#000000;stroke-width:0.088" d="M103.02,35.05L103.47,34.99"/><path style="stroke:#000000;stroke-width:0.088" d="M102.46,33.72L102.92,33.74L103.21,33.73L103.49,33.70L103.77,33.64L103.90,33.61L104.03,33.57L104.23,33.50L104.41,33.42L104.43,33.11L104.53,32.77L104.61,32.63L103.81,32.68L103.50,32.77"/><path style="stroke:#000000;stroke-width:0.088" d="M102.39,30.12L102.39,33.71L102.44,33.71"/><path style="stroke:#000000;stroke-width:0.088" d="M103.02,29.86L103.43,29.90L103.50,29.92"/><path style="stroke:#000000;stroke-width:0.088" d="M103.61,45.60L103.80,45.45L103.90,45.27L103.90,36.35L103.92,36.32L103.79,36.37L103.70,36.41L103.48,36.46L103.47,36.44"/><path style="stroke:#000000;stroke-width:0.088" d="M103.25,35.02L103.25,36.50L103.48,36.46L103.48,34.99"/><path style="stroke:#000000;stroke-width:0.088" d="M103.33,36.47L103.33,35.03L103.47,35.00"/><path style="stroke:#000000;stroke-width:0.088" d="M103.70,34.94L103.70,36.41L103.90,36.35L104.08,36.26L104.20,36.20L104.20,34.76L104.30,34.70L104.29,34.69"/><path style="stroke:#000000;stroke-width:0.088" d="M103.79,36.37L103.79,34.93L103.92,34.88L103.91,34.87"/><path style="stroke:#000000;stroke-width:0.088" d="M103.79,34.93L103.77,34.92"/><path style="stroke:#000000;stroke-width:0.088" d="M103.33,35.03L103.31,35.01"/><path style="stroke:#000000;stroke-width:0.088" d="M104.58,34.46L104.58,34.47L104.51,34.54L104.51,35.98L104.39,36.06L104.39,34.61"/><path style="stroke:#000000;stroke-width:0.088" d="M104.51,35.98L104.58,35.91L104.58,34.47"/><path style="stroke:#000000;stroke-width:0.088" d="M104.08,36.26L104.08,34.80"/><path style="stroke:#000000;stroke-width:0.088" d="M103.92,36.32L103.92,34.88"/><path style="stroke:#000000;stroke-width:0.088" d="M104.20,36.20L104.30,36.14L104.30,34.70"/><path style="stroke:#000000;stroke-width:0.088" d="M104.39,36.06L104.30,36.13"/><path style="stroke:#000000;stroke-width:0.088" d="M104.58,35.84L104.60,35.82L104.60,34.45"/><path style="stroke:#000000;stroke-width:0.088" d="M104.76,34.32L104.76,35.64L104.72,35.72L104.60,35.82"/><path style="stroke:#000000;stroke-width:0.088" d="M104.51,34.54L104.50,34.54"/><path style="stroke:#000000;stroke-width:0.088" d="M104.20,34.76L104.19,34.76"/><path style="stroke:#000000;stroke-width:0.088" d="M104.20,33.51L104.06,33.56"/><path style="stroke:#000000;stroke-width:0.088" d="M104.45,33.40L104.46,33.39L104.41,33.42"/><path style="stroke:#000000;stroke-width:0.088" d="M105.05,32.89L105.10,32.81L105.04,32.91L104.98,32.99L104.91,33.06L104.65,33.28L104.60,33.31L104.60,33.29L104.59,33.27L104.58,33.27L104.56,33.26L104.53,33.27L104.51,33.28L104.49,33.31L104.48,33.33L104.47,33.36L104.46,33.39"/><path style="stroke:#000000;stroke-width:0.088" d="M104.04,27.87L104.39,27.99L104.85,28.29L104.05,28.76"/><path style="stroke:#000000;stroke-width:0.088" d="M104.05,28.01L104.03,27.79"/><path style="stroke:#000000;stroke-width:0.088" d="M104.39,27.99L104.62,28.13L104.69,28.18"/><path style="stroke:#000000;stroke-width:0.088" d="M104.72,35.72L104.72,34.35"/><path style="stroke:#000000;stroke-width:0.088" d="M104.80,34.28L104.97,34.14L105.19,33.73L105.20,32.59"/><path style="stroke:#000000;stroke-width:0.088" d="M104.65,33.28L104.69,32.88L104.79,32.62"/><path style="stroke:#000000;stroke-width:0.088" d="M105.11,32.79L105.10,32.81L105.13,32.75L105.19,32.60"/><path style="stroke:#000000;stroke-width:0.088" d="M104.61,32.63L105.26,32.59L106.31,32.59L107.51,32.66L108.72,32.82L109.98,33.08L109.98,33.10L110.05,33.12L110.62,33.43L111.17,33.90L111.66,34.50L111.80,34.73L111.81,34.75L111.81,33.16"/><path style="stroke:#000000;stroke-width:0.088" d="M105.39,28.49L105.25,28.56L105.15,28.52L105.00,28.41L104.78,28.24"/><path style="stroke:#000000;stroke-width:0.088" d="M104.85,28.29L104.71,28.19L104.62,28.13L104.67,28.16"/><path style="stroke:#000000;stroke-width:0.088" d="M111.81,34.75L111.87,34.81L111.93,34.85L112.10,34.91L112.39,34.93L112.77,34.84L113.13,34.66L113.53,34.33L113.89,33.90L114.00,33.73L114.01,33.70L114.02,33.67L114.13,33.61L114.14,33.64L114.23,33.71L114.41,33.80L114.52,33.84L114.54,33.84L114.13,34.07"/><path style="stroke:#000000;stroke-width:0.088" d="M111.84,33.17L112.14,33.30L112.64,33.41L113.17,33.42L113.45,33.41L113.99,33.43L114.01,33.44L114.02,33.45L114.02,33.67"/><path style="stroke:#000000;stroke-width:0.088" d="M113.13,34.66L114.52,33.84L114.53,32.63L114.51,32.70L114.39,32.97L114.13,33.37L114.13,33.38L114.13,33.61"/><path style="stroke:#000000;stroke-width:0.088" d="M113.17,33.42L114.53,32.63L114.51,32.32L114.32,32.03L114.10,31.87"/><path style="stroke:#000000;stroke-width:0.088" d="M114.54,33.84L114.52,33.03"/><path style="stroke:#000000;stroke-width:0.088" d="M114.52,33.84L114.31,33.96"/><path style="stroke:#000000;stroke-width:0.088" d="M114.02,33.45L114.13,33.38"/><path style="stroke:#000000;stroke-width:0.088" d="M78.51,11.84L78.22,11.91L77.29,12.44L77.17,12.57L77.15,12.62L78.51,11.84L79.04,11.85L79.54,11.95L79.84,12.08L77.58,13.39L77.60,13.41L77.60,15.00L77.55,15.00L77.47,14.95L77.29,14.75L77.19,14.50L77.14,14.16L77.17,12.93L77.15,12.62L77.15,13.43"/><path style="stroke:#000000;stroke-width:0.088" d="M77.17,12.93L77.36,13.22L77.58,13.39"/><path style="stroke:#000000;stroke-width:0.088" d="M85.91,22.62L86.18,23.16L86.37,23.75L86.50,24.39L86.51,24.51L86.53,24.55L86.53,20.96L86.43,20.62L86.28,20.20L86.23,20.12L85.91,19.76L85.91,22.62L85.78,22.41L85.46,21.99L84.61,20.95L83.27,19.38L81.97,17.95L80.72,16.66L79.44,15.45L79.44,15.47L79.36,15.40L78.80,15.06L78.25,14.90L77.75,14.92L77.62,15.00L77.60,15.00"/><path style="stroke:#000000;stroke-width:0.088" d="M77.60,13.41L79.59,14.67L82.04,16.44L84.46,18.43L85.91,19.76"/><path style="stroke:#000000;stroke-width:0.088" d="M78.00,12.04L78.00,12.04"/><path style="stroke:#000000;stroke-width:0.088" d="M79.44,15.47L79.45,15.46"/><path style="stroke:#000000;stroke-width:0.088" d="M79.84,12.08L81.86,13.36L84.30,15.14L86.72,17.13L88.25,18.52L88.66,18.83L86.28,20.20"/><path style="stroke:#000000;stroke-width:0.088" d="M90.62,27.32L90.67,27.28L90.67,26.14L90.64,26.17L90.11,26.48L89.43,26.67L88.68,26.73L87.94,26.64L87.29,26.42L86.80,26.08L86.52,25.68L86.49,25.24L86.48,24.36"/><path style="stroke:#000000;stroke-width:0.088" d="M86.51,24.51L86.48,24.38L86.40,23.89"/><path style="stroke:#000000;stroke-width:0.088" d="M86.53,24.55L86.72,24.85L86.79,24.92L86.86,24.99L86.94,25.06L87.05,25.13L87.05,21.73L87.03,21.72L87.03,25.12L86.94,25.06"/><path style="stroke:#000000;stroke-width:0.088" d="M86.49,24.42L86.49,24.41"/><path style="stroke:#000000;stroke-width:0.088" d="M87.03,21.72L86.94,21.66L86.86,21.58L86.78,21.50L86.67,21.33L86.53,20.96"/><path style="stroke:#000000;stroke-width:0.088" d="M87.38,27.97L87.29,27.90L87.16,27.82L87.16,26.38L87.19,26.38"/><path style="stroke:#000000;stroke-width:0.088" d="M87.16,27.82L87.09,27.75L87.09,26.31L87.16,26.38"/><path style="stroke:#000000;stroke-width:0.088" d="M86.96,26.19L86.96,27.56L87.08,27.66L87.09,27.68"/><path style="stroke:#000000;stroke-width:0.088" d="M87.08,27.66L87.08,26.29"/><path style="stroke:#000000;stroke-width:0.088" d="M87.29,27.90L87.29,26.45"/><path style="stroke:#000000;stroke-width:0.088" d="M86.92,26.17L86.92,27.48L86.96,27.56"/><path style="stroke:#000000;stroke-width:0.088" d="M87.38,27.98L87.38,26.54L87.48,26.60L87.48,28.04L87.38,27.98"/><path style="stroke:#000000;stroke-width:0.088" d="M86.87,27.28L86.87,26.56L86.87,27.28L86.92,27.32"/><path style="stroke:#000000;stroke-width:0.088" d="M87.10,26.31L87.09,26.31"/><path style="stroke:#000000;stroke-width:0.088" d="M87.38,26.54L87.39,26.53"/><path style="stroke:#000000;stroke-width:0.088" d="M87.07,26.27L87.08,26.29L87.46,26.58L87.97,26.79L88.21,26.82L88.21,26.84L88.22,26.84L88.35,26.86L88.37,26.85"/><path style="stroke:#000000;stroke-width:0.088" d="M86.87,26.56L86.87,26.13"/><path style="stroke:#000000;stroke-width:0.088" d="M86.92,25.04L86.87,25.00"/><path style="stroke:#000000;stroke-width:0.088" d="M86.80,24.93L86.86,24.99"/><path style="stroke:#000000;stroke-width:0.088" d="M87.05,21.73L86.93,21.65L86.83,21.55L87.68,21.05L87.64,20.96L87.63,20.72L87.65,19.91L87.79,20.11L88.03,20.28L88.36,20.39L88.73,20.43L89.00,20.41L89.10,20.40L89.44,20.31L89.71,20.15L89.87,19.95L89.92,19.74L89.91,19.71L89.84,19.50L89.82,19.48L89.63,19.30L89.62,19.29L89.34,19.15L89.00,19.08L88.63,19.07L88.28,19.13L87.98,19.25L87.75,19.44L87.63,19.66L87.63,19.69L87.65,19.91"/><path style="stroke:#000000;stroke-width:0.088" d="M86.83,21.55L87.29,21.86L87.94,22.08L88.68,22.17L89.43,22.11L90.11,21.92L90.64,21.61L90.98,21.22L91.07,20.78L90.91,20.36L90.52,19.98L90.00,19.72L89.92,19.76"/><path style="stroke:#000000;stroke-width:0.088" d="M88.21,37.50L88.40,37.57L88.72,37.61L89.05,37.59L89.36,37.50L89.26,37.55L89.01,37.62L88.73,37.64L88.46,37.61L88.22,37.53L88.12,37.47L88.21,37.50"/><path style="stroke:#000000;stroke-width:0.088" d="M88.12,37.47L87.91,37.32L87.79,37.15L87.78,36.96L87.78,28.19L87.98,28.25L88.20,28.30L88.21,28.28L88.35,28.30L88.42,28.34L88.65,28.36L88.89,28.36L89.12,28.34L89.12,26.86"/><path style="stroke:#000000;stroke-width:0.088" d="M87.98,26.79L87.98,28.25L87.88,28.20L87.88,26.77L87.90,26.76"/><path style="stroke:#000000;stroke-width:0.088" d="M87.88,28.20L87.76,28.16L87.76,26.72L87.88,26.77"/><path style="stroke:#000000;stroke-width:0.088" d="M87.59,26.64L87.59,28.10L87.78,28.19L87.76,28.16"/><path style="stroke:#000000;stroke-width:0.088" d="M88.42,26.86L88.42,28.34L88.20,28.30L88.20,26.82"/><path style="stroke:#000000;stroke-width:0.088" d="M88.21,28.28L88.21,26.84"/><path style="stroke:#000000;stroke-width:0.088" d="M87.59,28.10L87.48,28.04"/><path style="stroke:#000000;stroke-width:0.088" d="M87.48,26.60L87.49,26.60"/><path style="stroke:#000000;stroke-width:0.088" d="M88.21,26.82L88.58,26.88L88.69,26.88L88.70,26.89L88.84,26.89L88.86,26.87L89.20,26.86L89.33,26.83L89.33,26.84L89.19,26.86L89.19,26.86"/><path style="stroke:#000000;stroke-width:0.088" d="M87.77,26.71L87.76,26.72"/><path style="stroke:#000000;stroke-width:0.088" d="M87.68,21.05L87.79,21.18L88.03,21.35L88.36,21.46L88.73,21.50L89.10,21.48L89.44,21.38L89.71,21.22L89.87,21.03L89.92,20.81L89.92,19.74"/><path style="stroke:#000000;stroke-width:0.088" d="M87.63,20.41L87.63,19.69"/><path style="stroke:#000000;stroke-width:0.088" d="M88.09,20.16L87.87,20.00L87.74,19.82L87.72,19.62L87.82,19.43L88.02,19.26L88.30,19.14L88.64,19.09L88.98,19.09L89.31,19.17L89.57,19.29L89.75,19.47L89.83,19.66L89.78,19.86L89.63,20.04L89.52,20.12L89.39,20.18L89.08,20.27L88.73,20.30L88.39,20.26L88.09,20.16"/><path style="stroke:#000000;stroke-width:0.088" d="M88.70,26.89L88.70,28.33L88.84,28.33L88.89,28.36L88.89,26.87"/><path style="stroke:#000000;stroke-width:0.088" d="M88.84,28.33L88.84,26.89"/><path style="stroke:#000000;stroke-width:0.088" d="M88.35,28.30L88.35,26.86"/><path style="stroke:#000000;stroke-width:0.088" d="M88.65,26.88L88.65,28.36L88.70,28.33"/><path style="stroke:#000000;stroke-width:0.088" d="M88.86,26.87L88.69,26.88"/><path style="stroke:#000000;stroke-width:0.088" d="M88.66,18.83L88.88,19.07"/><path style="stroke:#000000;stroke-width:0.088" d="M89.77,28.18L89.77,37.01L89.73,37.20L89.58,37.37L89.36,37.50L89.46,37.44"/><path style="stroke:#000000;stroke-width:0.088" d="M89.46,37.44L89.58,37.37"/><path style="stroke:#000000;stroke-width:0.088" d="M89.66,26.77L89.66,28.20L89.78,28.16L89.78,26.72L89.66,26.77L89.64,26.76"/><path style="stroke:#000000;stroke-width:0.088" d="M89.66,28.20L89.56,28.25L89.56,26.77"/><path style="stroke:#000000;stroke-width:0.088" d="M89.95,26.64L89.95,28.10L89.76,28.19L89.57,28.25L89.34,28.30L89.33,28.28L89.33,26.84"/><path style="stroke:#000000;stroke-width:0.088" d="M89.76,28.19L89.78,28.16"/><path style="stroke:#000000;stroke-width:0.088" d="M89.33,28.28L89.19,28.30L89.12,28.34L89.34,28.30L89.34,26.83"/><path style="stroke:#000000;stroke-width:0.088" d="M89.19,28.30L89.19,26.86"/><path style="stroke:#000000;stroke-width:0.088" d="M89.33,26.83L89.78,26.72L90.10,26.57L90.25,26.48L90.43,26.29L90.45,26.31L90.38,26.38L90.38,27.82L90.26,27.90L90.16,27.97"/><path style="stroke:#000000;stroke-width:0.088" d="M90.05,26.60L90.06,26.60L90.16,26.54L90.16,27.98L89.95,28.10"/><path style="stroke:#000000;stroke-width:0.088" d="M90.45,27.68L90.46,27.66L90.59,27.56L90.59,26.21"/><path style="stroke:#000000;stroke-width:0.088" d="M90.26,27.90L90.26,26.47"/><path style="stroke:#000000;stroke-width:0.088" d="M90.46,27.66L90.46,26.28"/><path style="stroke:#000000;stroke-width:0.088" d="M90.38,27.82L90.45,27.75L90.45,26.31"/><path style="stroke:#000000;stroke-width:0.088" d="M90.06,28.04L90.06,26.60"/><path style="stroke:#000000;stroke-width:0.088" d="M89.78,26.72L89.78,26.72"/><path style="stroke:#000000;stroke-width:0.088" d="M90.38,26.38L90.35,26.38"/><path style="stroke:#000000;stroke-width:0.088" d="M90.16,26.54L90.16,26.54"/><path style="stroke:#000000;stroke-width:0.088" d="M90.00,19.72L90.30,19.86L89.90,19.67"/><path style="stroke:#000000;stroke-width:0.088" d="M90.52,19.98L90.30,19.86"/><path style="stroke:#000000;stroke-width:0.088" d="M90.59,27.56L90.62,27.48L90.62,26.18"/><path style="stroke:#000000;stroke-width:0.088" d="M90.67,27.28L90.67,26.56"/><path style="stroke:#000000;stroke-width:0.088" d="M90.67,26.14L90.98,25.78L91.07,25.35L91.07,20.78"/><path style="stroke:#000000;stroke-width:0.088" d="M87.43,44.89L87.17,44.74L86.87,44.40L86.77,44.03L86.89,43.65L87.22,43.32L87.71,43.07L88.32,42.92L88.98,42.90L89.61,43.00L90.15,43.22L90.20,43.25L90.55,43.52L90.75,43.88L90.74,44.26L90.51,44.62L90.18,44.86L90.09,44.91L89.54,45.11L88.90,45.20L88.24,45.16L87.64,45.00L87.43,44.89"/><path style="stroke:#000000;stroke-width:0.088" d="M86.77,44.03L86.77,44.11L86.87,44.48L87.17,44.82L87.64,45.08L88.24,45.24L88.90,45.28L89.54,45.20L90.09,45.00L90.51,44.70L90.74,44.34L90.75,43.96L90.75,43.88"/><path style="stroke:#000000;stroke-width:0.088" d="M88.22,44.43L88.20,44.43L87.95,44.30L87.80,44.12L87.75,43.93L87.81,43.74L87.83,43.72L87.98,43.57L88.23,43.44L88.54,43.37L88.88,43.36L89.20,43.41L89.48,43.52L89.68,43.67L89.78,43.86L89.77,44.05L89.66,44.23L89.49,44.36L89.45,44.38L89.16,44.49L88.83,44.53L88.50,44.51L88.22,44.43"/><path style="stroke:#000000;stroke-width:0.088" d="M89.78,43.94L89.68,43.76L89.48,43.60L89.20,43.49L88.88,43.44L88.54,43.45L88.23,43.53L87.98,43.65L87.81,43.82L87.76,43.98"/><path style="stroke:#000000;stroke-width:0.088" d="M104.88,52.04L104.87,52.42L104.64,52.78L104.32,53.03L104.23,53.07L103.67,53.28L103.03,53.36L102.38,53.32L101.78,53.16L101.30,52.90L101.00,52.56L100.91,52.19L100.91,52.27L101.00,52.64L101.30,52.98L101.78,53.24L102.38,53.40L103.03,53.44L103.67,53.36L104.23,53.16L104.64,52.86L104.87,52.50L104.88,52.12L104.88,52.04L104.68,51.68L104.29,51.38L103.75,51.16L103.11,51.06L102.45,51.09L101.92,51.21L101.85,51.23L101.35,51.48L101.03,51.81L100.91,52.19"/><path style="stroke:#000000;stroke-width:0.088" d="M102.09,52.46L101.93,52.28L101.89,52.09L101.89,52.07L101.95,51.90L102.11,51.73L102.37,51.60L102.68,51.53L103.01,51.52L103.33,51.57L103.61,51.68L103.81,51.83L103.91,52.02L103.91,52.21L103.79,52.39L103.63,52.52L103.58,52.54L103.30,52.65L102.97,52.69L102.64,52.67L102.33,52.59L102.09,52.46"/><path style="stroke:#000000;stroke-width:0.088" d="M103.91,52.10L103.81,51.92L103.61,51.76L103.33,51.65L103.01,51.60L102.68,51.61L102.37,51.69L102.11,51.82L101.95,51.98L101.90,52.14"/><path style="stroke:#000000;stroke-width:0.088" d="M106.17,65.77L106.05,65.69L106.05,64.97L106.43,65.15L107.11,65.58L107.11,66.30L106.64,66.07L106.17,65.77"/><path style="stroke:#000000;stroke-width:0.088" d="M106.41,64.19L106.28,64.43L106.05,64.97"/><path style="stroke:#000000;stroke-width:0.088" d="M106.13,62.50L106.04,62.47L106.02,62.45L105.63,62.15L105.42,61.77L105.44,62.14L105.67,62.52L106.02,62.78L106.11,62.83L106.70,63.04L107.37,63.13L108.06,63.09L108.68,62.92L109.18,62.65L109.50,62.29L109.60,61.90L109.60,61.62L109.47,62.01L109.13,62.36L108.61,62.62L107.97,62.78L107.28,62.80L106.61,62.69L106.13,62.50"/><path style="stroke:#000000;stroke-width:0.088" d="M105.42,61.77L105.44,61.37L105.68,60.99L106.11,60.68L106.62,60.50L106.70,60.47L107.38,60.38L108.06,60.43L108.69,60.60L109.19,60.87L109.29,60.99L109.50,61.23L109.60,61.62"/><path style="stroke:#000000;stroke-width:0.088" d="M108.30,68.51L108.06,68.64L107.80,68.71L107.76,68.72L107.44,68.74L107.12,68.70L106.84,68.60L106.79,68.57L106.94,68.65L107.17,68.74L107.45,68.78L107.72,68.76L107.98,68.69L108.18,68.58L108.30,68.51L108.45,68.34L108.50,68.15L108.49,66.09"/><path style="stroke:#000000;stroke-width:0.088" d="M106.51,68.10L106.51,68.08L106.51,67.97L106.51,68.10L106.52,68.27L106.63,68.45L106.79,68.57"/><path style="stroke:#000000;stroke-width:0.088" d="M106.51,68.08L106.51,68.08"/><path style="stroke:#000000;stroke-width:0.088" d="M106.50,65.98L106.51,67.97L106.51,67.96"/><path style="stroke:#000000;stroke-width:0.088" d="M108.40,66.11L108.36,66.17L108.15,66.32L107.87,66.41L107.55,66.45L107.22,66.43L106.92,66.35L106.69,66.22L106.54,66.05L106.53,66.00"/><path style="stroke:#000000;stroke-width:0.088" d="M108.60,64.32L108.65,64.37L108.77,64.60L108.76,64.84L108.61,65.07L108.33,65.26L107.97,65.38L107.56,65.44L107.14,65.41L106.76,65.30L106.59,65.22L106.46,65.13L106.27,64.91L106.22,64.67L106.30,64.43L106.41,64.33"/><path style="stroke:#000000;stroke-width:0.088" d="M106.41,63.81L106.41,64.63L106.43,64.84L106.43,64.84L106.57,65.03L106.72,65.14L106.81,65.19L107.12,65.29L107.48,65.33L107.84,65.30L108.16,65.20L108.41,65.05L108.56,64.86L108.60,64.66L108.60,63.81"/><path style="stroke:#000000;stroke-width:0.088" d="M108.70,62.91L108.70,63.51L108.66,63.74L108.49,63.94L108.22,64.11L107.87,64.21L107.48,64.25L107.09,64.20L106.95,64.16L106.74,64.09L106.65,64.04L106.48,63.92L106.33,63.71L106.31,63.48L106.31,62.90"/><path style="stroke:#000000;stroke-width:0.088" d="M107.00,68.68L107.00,68.90L107.01,69.00L107.07,69.08L107.15,69.14L107.17,69.16L107.31,69.21L107.47,69.23L107.64,69.22L107.60,69.22L107.48,69.23L107.37,69.22L107.31,69.21"/><path style="stroke:#000000;stroke-width:0.088" d="M107.64,69.22L107.79,69.18L107.90,69.11L107.98,69.02L108.00,68.93L108.00,68.68"/><path style="stroke:#000000;stroke-width:0.088" d="M107.11,66.30L107.84,66.23L108.56,66.08L108.74,65.74L108.95,65.24L108.95,64.52L108.66,65.11L108.56,65.36L107.56,65.47L107.11,65.58"/><path style="stroke:#000000;stroke-width:0.088" d="M108.49,66.09L108.49,66.38"/><path style="stroke:#000000;stroke-width:0.088" d="M108.56,66.08L108.56,65.36"/><path style="stroke:#000000;stroke-width:0.088" d="M108.95,64.52L108.60,64.29"/><path style="stroke:#000000;stroke-width:0.088" d="M95.46,53.46L95.46,53.74L95.36,54.13L95.05,54.49L94.55,54.76L93.92,54.93L93.23,54.97L92.56,54.88L91.98,54.67L91.88,54.62L91.54,54.36L91.30,53.98L91.29,53.61L91.50,53.99L91.88,54.29L91.91,54.31L92.48,54.53L93.14,54.64L93.83,54.62L93.92,54.60L94.47,54.46L94.99,54.20L95.33,53.85L95.46,53.46L95.38,53.12L95.37,53.07L95.05,52.71L94.55,52.44L93.93,52.27L93.24,52.22L92.57,52.31L91.98,52.52L91.54,52.83L91.30,53.21L91.29,53.61"/><path style="stroke:#000000;stroke-width:0.088" d="M91.92,57.53L92.50,57.91L92.98,58.14L92.98,57.42L92.30,56.99L91.92,56.81L91.92,57.53"/><path style="stroke:#000000;stroke-width:0.088" d="M94.46,56.16L94.52,56.21L94.64,56.44L94.62,56.68L94.47,56.91L94.20,57.10L93.84,57.22L93.42,57.28L93.00,57.25L92.62,57.14L92.46,57.06L92.32,56.97L92.14,56.75L92.08,56.51L92.17,56.27L92.27,56.17"/><path style="stroke:#000000;stroke-width:0.088" d="M91.92,56.81L92.15,56.27L92.27,56.03"/><path style="stroke:#000000;stroke-width:0.088" d="M92.87,60.52L92.87,60.74L92.88,60.83L92.93,60.92L93.01,60.98L93.04,61.00L93.18,61.05L93.34,61.07L93.50,61.06L93.65,61.01L93.77,60.95L93.84,60.86L93.86,60.77L93.86,60.52"/><path style="stroke:#000000;stroke-width:0.088" d="M94.17,60.35L93.93,60.48L93.68,60.55L93.63,60.56L93.30,60.58L92.98,60.54L92.70,60.44L92.66,60.41L92.80,60.49L93.04,60.58L93.31,60.61L93.59,60.60L93.84,60.53L94.05,60.42L94.17,60.35L94.32,60.18L94.36,59.99L94.36,57.93"/><path style="stroke:#000000;stroke-width:0.088" d="M92.37,57.82L92.38,59.94L92.38,60.11L92.50,60.29L92.66,60.41"/><path style="stroke:#000000;stroke-width:0.088" d="M92.38,59.94L92.38,59.80"/><path style="stroke:#000000;stroke-width:0.088" d="M94.27,57.95L94.23,58.01L94.02,58.16L93.73,58.25L93.41,58.29L93.09,58.27L92.79,58.19L92.56,58.06L92.41,57.89L92.40,57.84"/><path style="stroke:#000000;stroke-width:0.088" d="M94.46,55.65L94.46,56.50L94.43,56.70L94.27,56.89L94.02,57.04L93.70,57.14L93.34,57.17L92.99,57.13L92.67,57.03L92.59,56.98L92.43,56.87L92.29,56.68L92.27,56.47L92.27,55.65"/><path style="stroke:#000000;stroke-width:0.088" d="M92.17,54.74L92.17,55.32L92.20,55.55L92.35,55.76L92.52,55.88L92.61,55.93L92.95,56.04L93.34,56.08L93.73,56.05L94.08,55.95L94.36,55.78L94.52,55.58L94.56,55.35L94.56,54.75"/><path style="stroke:#000000;stroke-width:0.088" d="M93.18,61.05L93.23,61.06L93.35,61.07L93.46,61.06L93.50,61.06"/><path style="stroke:#000000;stroke-width:0.088" d="M92.98,58.14L93.71,58.07L94.43,57.92L94.60,57.58L94.81,57.08L94.81,56.36L94.53,56.94L94.43,57.19L93.43,57.31L92.98,57.42"/><path style="stroke:#000000;stroke-width:0.088" d="M94.43,57.19L94.43,57.92"/><path style="stroke:#000000;stroke-width:0.088" d="M94.36,57.93L94.36,58.22"/><path style="stroke:#000000;stroke-width:0.088" d="M94.81,56.36L94.46,56.13"/><path style="fill:#ffffff" d="M171.45,68.06L197.86,68.06L197.86,62.42L171.45,62.42z"/><path style="stroke:#35414c;stroke-width:0.255" d="M171.45,68.06L197.86,68.06L197.86,62.42L171.45,62.42z"/><path style="stroke:#35404c;stroke-width:0.250;stroke-opacity:0.00" d="M171.45,68.06L197.86,68.06L197.86,62.42L171.45,62.42z"/><text xml:space="preserve" fill="#333f4b" stroke-width="0" x="172.16" y="66.48" font-size="3.56" opacity="1.00" font-family="Arial" font-weight="bold" font-style="italic">F24167067X</text><path style="fill:#ffffff" d="M171.45,57.99L197.87,57.99L197.87,52.35L171.45,52.35z"/><path style="stroke:#35414c;stroke-width:0.255" d="M171.45,57.99L197.87,57.99L197.87,52.35L171.45,52.35z"/><path style="stroke:#35404c;stroke-width:0.250;stroke-opacity:0.00" d="M171.45,57.99L197.87,57.99L197.87,52.35L171.45,52.35z"/><text xml:space="preserve" fill="#333f4b" stroke-width="0" x="172.16" y="56.40" font-size="3.52" opacity="1.00" font-family="Arial" font-weight="bold" font-style="italic">F19152190Z</text><path style="fill:#ffffff" d="M171.45,108.10L197.87,108.10L197.87,102.46L171.45,102.46z"/><path style="stroke:#35414c;stroke-width:0.255" d="M171.45,108.10L197.87,108.10L197.87,102.46L171.45,102.46z"/><path style="stroke:#35404c;stroke-width:0.250;stroke-opacity:0.00" d="M171.45,108.10L197.87,108.10L197.87,102.46L171.45,102.46z"/><text xml:space="preserve" fill="#333f4b" stroke-width="0" x="172.16" y="106.51" font-size="3.40" opacity="1.00" font-family="Arial" font-weight="bold" font-style="italic">VA3024</text><path style="fill:#ffffff" d="M171.45,78.14L197.86,78.14L197.86,72.49L171.45,72.49z"/><path style="stroke:#35414c;stroke-width:0.255" d="M171.45,78.14L197.86,78.14L197.86,72.49L171.45,72.49z"/><path style="stroke:#35404c;stroke-width:0.250;stroke-opacity:0.00" d="M171.45,78.14L197.86,78.14L197.86,72.49L171.45,72.49z"/><text xml:space="preserve" fill="#333f4b" stroke-width="0" x="172.16" y="76.55" font-size="3.56" opacity="1.00" font-family="Arial" font-weight="bold" font-style="italic">F31682121X</text><path style="fill:#ffffff" d="M171.45,38.10L197.86,38.10L197.86,32.46L171.45,32.46z"/><path style="stroke:#35414c;stroke-width:0.255" d="M171.45,38.10L197.86,38.10L197.86,32.46L171.45,32.46z"/><path style="stroke:#35404c;stroke-width:0.250;stroke-opacity:0.00" d="M171.45,38.10L197.86,38.10L197.86,32.46L171.45,32.46z"/><text xml:space="preserve" fill="#333f4b" stroke-width="0" x="172.16" y="36.51" font-size="3.42" opacity="1.00" font-family="Arial" font-weight="bold" font-style="italic">CI4528</text><path style="fill:#ffffff" d="M171.45,48.17L197.87,48.17L197.87,42.53L171.45,42.53z"/><path style="stroke:#35414c;stroke-width:0.255" d="M171.45,48.17L197.87,48.17L197.87,42.53L171.45,42.53z"/><path style="stroke:#35404c;stroke-width:0.250;stroke-opacity:0.00" d="M171.45,48.17L197.87,48.17L197.87,42.53L171.45,42.53z"/><text xml:space="preserve" fill="#333f4b" stroke-width="0" x="172.16" y="46.59" font-size="3.48" opacity="1.00" font-family="Arial" font-weight="bold" font-style="italic">EP1900</text><path style="fill:#ffffff" d="M171.45,88.21L197.86,88.21L197.86,82.57L171.45,82.57z"/><path style="stroke:#35414c;stroke-width:0.255" d="M171.45,88.21L197.86,88.21L197.86,82.57L171.45,82.57z"/><path style="stroke:#35404c;stroke-width:0.250;stroke-opacity:0.00" d="M171.45,88.21L197.86,88.21L197.86,82.57L171.45,82.57z"/><text xml:space="preserve" fill="#333f4b" stroke-width="0" x="172.16" y="86.62" font-size="3.46" opacity="1.00" font-family="Arial" font-weight="bold" font-style="italic">ML2601</text><path style="fill:#ffffff" d="M171.45,98.03L197.86,98.03L197.86,92.38L171.45,92.38z"/><path style="stroke:#35414c;stroke-width:0.255" d="M171.45,98.03L197.86,98.03L197.86,92.38L171.45,92.38z"/><path style="stroke:#35404c;stroke-width:0.250;stroke-opacity:0.00" d="M171.45,98.03L197.86,98.03L197.86,92.38L171.45,92.38z"/><text xml:space="preserve" fill="#333f4b" stroke-width="0" x="172.16" y="96.44" font-size="3.45" opacity="1.00" font-family="Arial" font-weight="bold" font-style="italic">SE6004</text><path style="fill:#ffffff" d="M171.45,118.17L197.86,118.17L197.86,112.53L171.45,112.53z"/><path style="stroke:#35414c;stroke-width:0.255" d="M171.45,118.17L197.86,118.17L197.86,112.53L171.45,112.53z"/><path style="stroke:#35404c;stroke-width:0.250;stroke-opacity:0.00" d="M171.45,118.17L197.86,118.17L197.86,112.53L171.45,112.53z"/><text xml:space="preserve" fill="#333f4b" stroke-width="0" x="172.16" y="116.59" font-size="3.41" opacity="1.00" font-family="Arial" font-weight="bold" font-style="italic">VM1595</text><g id="paperID" visibility="hidden" opacity="0.00" transform="scale(0.000100)"><path style="stroke:#000000;stroke-width:0.500;fill:#e6e6e6;fill-rule:evenodd" d="M-2000.00,-2000.00L2210.00,-2000.00L2210.00,2150.00L-2000.00,2150.00zM0.00,0.00L210.00,0.00L210.00,150.00L0.00,150.00z"/><path style="fill:#000000;fill-opacity:0.118" d="M3.00,150.00L210.00,150.00L210.00,3.00L213.00,3.00L213.00,153.00L3.00,153.00z"/></g><g id="hotspot.0" onmouseover="ShowHotSpot(evt,'0')" onmouseout="HideHotSpot(evt,'0')" onmousemove="ShowToolTip(evt,'0',&quot;NAUO1&quot;)" opacity="0"><path style="fill:#00ff00;fill-rule:evenodd" d="M198.06,32.60L197.96,38.33L171.41,38.33L171.33,32.36L197.80,32.34zM106.58,69.84L106.85,72.41L106.85,83.09L106.58,85.66L105.30,86.45L103.91,87.37L106.59,88.94L106.62,91.38L92.12,99.88L91.35,100.07L85.07,96.52L85.16,93.94L87.76,92.27L85.15,90.75L84.89,88.17L84.89,77.14L85.07,74.74L90.49,71.62L92.31,71.66L93.96,70.72L94.12,69.58L100.05,66.19L100.40,66.19z"/></g><g id="hotspot.1" onmouseover="ShowHotSpot(evt,'1')" onmouseout="HideHotSpot(evt,'1')" onmousemove="ShowToolTip(evt,'1',&quot;EP1900&quot;)" opacity="0"><path style="fill:#00ff00;fill-rule:evenodd" d="M198.06,42.67L197.96,48.40L171.41,48.40L171.33,42.44L197.80,42.42zM94.71,52.52L95.23,53.03L95.51,53.90L94.72,54.68L94.73,57.26L94.44,57.76L94.18,60.34L93.56,61.06L93.19,61.06L92.58,60.34L92.40,57.94L92.15,57.67L92.15,54.82L91.32,54.10L91.35,53.14L92.03,52.51L93.93,52.25zM109.45,61.29L109.46,62.45L108.85,62.87L108.64,63.72L108.66,64.37L108.94,64.67L108.64,66.02L108.41,68.37L107.87,69.14L107.04,69.14L106.61,68.52L106.25,64.41L106.35,63.10L105.56,62.33L105.56,61.13L106.49,60.52L108.41,60.52z"/></g><g id="hotspot.2" onmouseover="ShowHotSpot(evt,'2')" onmouseout="HideHotSpot(evt,'2')" onmousemove="ShowToolTip(evt,'2',&quot;F19152190&quot;)" opacity="0"><path style="fill:#00ff00;fill-rule:evenodd" d="M198.06,52.49L197.96,58.22L171.41,58.22L171.33,52.25L197.80,52.23zM91.11,127.67L91.29,130.33L91.59,130.55L91.61,131.91L89.28,133.20L88.51,133.40L86.19,132.08L86.19,130.35L86.45,128.03L88.94,126.63L89.54,126.63zM105.30,135.70L105.56,140.17L103.41,141.40L102.45,141.40L100.14,140.09L100.07,138.82L100.37,138.60L100.57,136.22L103.15,134.64L103.49,134.63z"/></g><g id="hotspot.3" onmouseover="ShowHotSpot(evt,'3')" onmouseout="HideHotSpot(evt,'3')" onmousemove="ShowToolTip(evt,'3',&quot;F24167067X&quot;)" opacity="0"><path style="fill:#00ff00;fill-rule:evenodd" d="M198.06,62.56L197.96,68.29L171.41,68.29L171.33,62.33L197.80,62.31zM123.63,104.45L123.67,108.68L120.47,110.67L119.49,110.67L115.89,108.57L115.63,107.02L113.82,105.97L113.23,105.96L112.70,106.28L112.02,106.28L108.06,104.01L108.07,102.38L110.64,100.83L110.98,98.07L112.02,97.70z"/></g><g id="hotspot.4" onmouseover="ShowHotSpot(evt,'4')" onmouseout="HideHotSpot(evt,'4')" onmousemove="ShowToolTip(evt,'4',&quot;F31682121X&quot;)" opacity="0"><path style="fill:#00ff00;fill-rule:evenodd" d="M198.06,72.64L197.96,78.37L171.41,78.37L171.33,72.40L197.80,72.38zM112.04,115.01L112.02,117.44L98.24,125.39L97.55,125.40L97.03,125.10L96.78,123.82L95.77,123.30L95.15,123.58L94.45,123.59L82.83,116.84L82.57,115.55L82.07,115.27L81.18,115.28L80.90,115.55L80.54,115.55L79.73,115.03L79.65,112.45L93.59,104.42L93.94,104.41z"/></g><g id="hotspot.5" onmouseover="ShowHotSpot(evt,'5')" onmouseout="HideHotSpot(evt,'5')" onmousemove="ShowToolTip(evt,'5',&quot;ML2601&quot;)" opacity="0"><path style="fill:#00ff00;fill-rule:evenodd" d="M90.06,43.22L90.60,43.73L90.61,44.62L89.99,45.05L87.46,45.05L86.96,44.77L86.96,43.56L88.16,42.96L89.29,42.96zM104.82,52.00L104.82,52.61L103.94,53.32L101.92,53.32L101.17,52.78L101.17,51.58L101.85,51.22L103.76,51.22zM198.06,82.71L197.96,88.44L171.41,88.44L171.33,82.47L197.80,82.45zM89.58,43.74L89.83,44.11L88.95,44.54L87.89,44.31L87.89,43.77L88.42,43.45L89.02,43.45zM103.80,51.99L103.69,52.52L102.17,52.52L102.17,51.83L103.53,51.72z"/></g><g id="hotspot.6" onmouseover="ShowHotSpot(evt,'6')" onmouseout="HideHotSpot(evt,'6')" onmousemove="ShowToolTip(evt,'6',&quot;SE6004&quot;)" opacity="0"><path style="fill:#00ff00;fill-rule:evenodd" d="M115.88,90.07L115.57,90.28L114.78,90.07L114.84,85.65L115.12,84.90L115.31,75.21L115.61,75.21zM198.06,92.53L197.96,98.25L171.41,98.25L171.33,92.29L197.80,92.27z"/></g><g id="hotspot.7" onmouseover="ShowHotSpot(evt,'7')" onmouseout="HideHotSpot(evt,'7')" onmousemove="ShowToolTip(evt,'7',&quot;VA3024&quot;)" opacity="0"><path style="fill:#00ff00;fill-rule:evenodd" d="M125.73,72.40L125.62,73.45L121.73,75.76L119.51,75.77L119.14,74.74L120.04,73.29L123.80,71.11L124.96,71.09zM198.06,102.60L197.96,108.33L171.41,108.33L171.33,102.36L197.80,102.34z"/></g><g id="hotspot.8" onmouseover="ShowHotSpot(evt,'8')" onmouseout="HideHotSpot(evt,'8')" onmousemove="ShowToolTip(evt,'8',&quot;VM1595&quot;)" opacity="0"><path style="fill:#00ff00;fill-rule:evenodd" d="M83.86,14.81L87.50,17.89L89.29,19.20L91.11,20.74L91.11,25.50L90.82,25.99L90.60,27.57L90.06,28.07L89.82,37.12L89.46,37.54L88.22,37.57L87.91,37.36L87.73,28.25L86.94,27.49L86.19,23.07L84.14,20.48L82.08,18.15L79.22,15.32L78.71,15.05L77.31,14.91L77.33,12.49L78.08,11.96L79.49,11.96zM105.06,28.49L109.69,29.79L114.37,32.09L114.34,34.01L113.21,34.68L111.76,34.69L110.47,33.40L108.92,32.89L105.20,32.62L104.73,35.76L104.02,36.34L103.68,45.56L102.10,45.64L101.97,36.48L101.17,35.99L100.92,34.17L100.64,33.68L100.64,29.09L101.07,28.23L102.10,27.45L103.77,27.45zM198.06,112.68L197.96,118.40L171.41,118.40L171.33,112.44L197.80,112.42z"/></g></g></svg>
