<?xml version="1.0" encoding="UTF-8" standalone="no"?>
<svg xmlns="http://www.w3.org/2000/svg" xmlns:xlink="http://www.w3.org/1999/xlink" width="210.000mm" height="150.000mm" viewBox="0.000000 0.000000 210.000000 150.000000" stroke-linejoin="round" stroke-linecap="round" fill="none" fill-rule="evenodd"><desc>Composer Export</desc><script type="text/ecmascript"><![CDATA[
if(typeof(top) != "undefined")
{
	top.ShowPaper = ShowPaper;
}
function ShowHotSpot(evt,hotspotid)
{
	var svgDocument = evt.target.ownerDocument;
	var strId = "hotspot."+hotspotid;
	var hotspot = svgDocument.getElementById(strId);
	if(hotspot)
		hotspot.setAttribute("opacity",".5");
}
function HideHotSpot(evt,hotspotid)
{
	var svgDocument = evt.target.ownerDocument;
	var strId = "hotspot."+hotspotid;
	var hotspot = svgDocument.getElementById(strId);
	if(hotspot)
		hotspot.setAttribute("opacity","0");

	var toolTip = svgDocument.getElementById('ToolTip');
	if(toolTip)
		toolTip.setAttribute("visibility","hidden");
}
function ShowToolTip(evt,hotspotid,strTooltip)
{
	if(strTooltip=="")
	return;

	// change text
	var svgDocument = evt.target.ownerDocument;
	var tiptext = svgDocument.getElementById('ToolTipText');
	if( !tiptext )
	return;
	tiptext.firstChild.nodeValue = " " + strTooltip + "  " ;

	// show tooltip before, else some refresh issue

	var toolTip = svgDocument.getElementById('ToolTip');
	if(!toolTip)
	return;

	toolTip.setAttribute("visibility","visible");
	toolTip.setAttribute("opacity",".95");

	// move tooltip
	// get viewbox

	var root = svgDocument.documentElement;
	var vbox = (root.getAttribute("viewBox")).split(' ');
	var x0 = parseFloat(vbox[0]);
	var y0 = parseFloat(vbox[1]);
	var vboxW = parseFloat(vbox[2]);
	var vboxH = parseFloat(vbox[3]);

	// get default width of svg

	var strW = root.getAttribute("width");
	var svgW = parseFloat(strW);
	if(strW.indexOf('mm') != -1)
	svgW *= 3.779;

	var strH = root.getAttribute("height");
	var svgH = parseFloat(strH);
	if(strH.indexOf('mm') != -1)
	svgH *= 3.779;  	// 96 dpi  -> 96/25.4 = 3.779

	// update the viewbox / width / height if svg is embedded in html with zoom fit all
	var realx0 = x0;
	var realy0 = y0;
	var realvboxW = vboxW;
	var realvboxH = vboxH;
	var realsvgW = svgW;
	var realsvgH = svgH;

	if ((typeof(top) == "undefined") || (typeof(top.svgctl1) != "undefined")) // embedded in html
	{
		// get window size in pxl

		svgW = window.innerWidth;
		svgH = window.innerHeight;

		// calculate real viewbox

		realsvgW = svgW;
		realsvgH = svgH;
		if((svgW / svgH) > (vboxW / vboxH))
		{
			realvboxW = (vboxH * svgW) / svgH;
			realvboxH = vboxH;
			realx0 = x0 - (realvboxW - vboxW)/2 ;
		}
		else
		{
			realvboxH = (vboxW * svgH) / svgW;
			realvboxW = vboxW;
			realy0 = y0 - (realvboxH - vboxH)/2 ;
		}
	}

	// get user zoom/pan

	var newScale = root.currentScale;
	var translation = root.currentTranslate;

	// transform pxl to user unit

	var xPos = (((evt.clientX+10- translation.x)/newScale) * realvboxW)/realsvgW  + realx0 ;
	var yPos = (((evt.clientY+5- translation.y)/newScale) * realvboxH)/ realsvgH  + realy0 ;
	var scaleForWidth = ( (1 / newScale) * realvboxH) / realsvgH;

	// move tooltip

	toolTip.setAttribute("transform", "translate(" + xPos + "," + yPos + ")" );

	// resize tooltip

	var fontsize = 12;
	tiptext.setAttribute("font-size",fontsize*scaleForWidth);
	tiptext.setAttribute("y", fontsize*scaleForWidth);
	var tipBG = svgDocument.getElementById('ToolTipBG');
	var outline = tiptext.getBBox();
	if(tipBG)
	{
		tipBG.setAttribute("stroke-width", 1*scaleForWidth);
		tipBG.setAttribute("width", Number(outline.width) );
		tipBG.setAttribute("height", Number(outline.height) + fontsize*.5*scaleForWidth );
	}
	var ToolTipShadow = svgDocument.getElementById('ToolTipShadow');
	if(ToolTipShadow)
	{
		ToolTipShadow.setAttribute("width", Number(outline.width) );
		ToolTipShadow.setAttribute("height", Number(outline.height) + fontsize*.5*scaleForWidth );
		ToolTipShadow.setAttribute("x", 3*scaleForWidth);
		ToolTipShadow.setAttribute("y", 3*scaleForWidth);
	}
}
function ShowPaper()
{
  var svgDocument = getDocument();
  var paper = svgDocument.getElementById("paperID");
  if(paper)
  {
    paper.setAttribute("transform","scale(1)");
    paper.setAttribute("opacity","1");
    paper.setAttribute("visibility","visible");
  }
  var svg = svgDocument.getRootElement();
  if(svg)
  {
    svg.setAttribute("width","220.000mm");
    svg.setAttribute("height","160.000mm");
    svg.setAttribute("viewBox","-5.000000 -5.000000 220.000000 160.000000");
  }
}
]]></script><defs/><g><path style="fill:#ffffff" d="M209.93,149.99L0.04,149.99L0.04,0.04L209.93,0.04z"/><path style="fill:#1497e5" d="M108.43,49.08L108.69,49.46L108.81,56.48L114.85,53.00L115.14,53.00L127.19,59.97L127.18,107.41L114.35,114.86L113.87,114.86L112.99,114.33L112.69,114.33L106.73,117.78L106.54,117.76L95.76,111.54L95.62,111.31L95.50,104.19L95.34,104.18L89.49,107.62L89.03,107.63L84.86,105.20L84.69,105.20L63.06,117.68L62.68,117.78L56.73,114.33L56.56,114.33L55.66,114.84L55.20,114.86L53.90,114.13L53.94,66.61L96.09,42.23L96.52,42.23z"/><path style="fill:#01ff02" d="M110.34,71.24L110.33,72.07L110.07,72.57L109.53,73.04L109.06,73.03L108.93,72.90L108.93,72.30L109.45,71.31L109.77,71.12L110.21,71.11z"/><path style="fill:#01ff02" d="M60.16,71.49L60.66,72.53L60.48,73.03L60.02,73.04L59.51,72.66L59.12,71.89L59.12,71.42L59.34,71.12L59.77,71.12z"/><path style="fill:#01ff02" d="M110.34,74.79L110.33,75.74L110.20,75.99L109.53,76.59L109.06,76.58L108.93,76.45L108.93,75.85L109.26,75.17L109.77,74.67L110.21,74.66z"/><path style="fill:#01ff02" d="M60.16,75.04L60.66,76.08L60.48,76.58L59.90,76.57L59.52,76.32L59.13,75.57L59.12,74.96L59.34,74.66L59.77,74.67z"/><path style="fill:#01ff02" d="M110.33,78.47L110.33,79.29L109.65,80.12L109.06,80.13L108.93,80.00L108.93,79.40L109.26,78.72L109.78,78.21L110.07,78.21z"/><path style="fill:#01ff02" d="M60.04,78.46L60.40,78.99L60.65,79.74L60.48,80.13L59.88,80.14L59.52,79.87L59.13,79.12L59.12,78.51L59.34,78.21L59.64,78.21z"/><path style="fill:#01ff02" d="M110.34,104.44L110.33,105.26L109.90,105.97L109.40,106.25L109.07,106.24L108.93,106.10L108.93,105.38L109.51,104.44L109.64,104.32L110.22,104.31z"/><path style="fill:#01ff02" d="M60.40,104.96L60.67,105.90L60.37,106.25L60.02,106.25L59.40,105.71L59.12,105.09L59.12,104.62L59.34,104.31L59.77,104.32z"/><path style="fill:#01ff02" d="M110.34,107.99L110.33,108.81L110.07,109.31L109.53,109.79L109.06,109.78L108.93,109.65L108.93,108.93L109.52,108.00L109.77,107.87L110.21,107.86z"/><path style="fill:#01ff02" d="M60.29,108.37L60.66,109.27L60.48,109.78L60.01,109.79L59.40,109.26L59.12,108.64L59.12,108.17L59.34,107.86L59.77,107.87z"/><path style="fill:#01ff02" d="M110.34,111.54L110.33,112.36L110.20,112.73L109.53,113.34L109.06,113.33L108.93,113.20L108.93,112.60L109.30,111.84L109.78,111.42L110.21,111.41z"/><path style="fill:#01ff02" d="M60.16,111.79L60.66,112.82L60.48,113.33L59.90,113.32L59.40,112.81L59.12,112.19L59.12,111.71L59.34,111.41L59.77,111.42z"/><path style="fill:#b79500" d="M37.72,16.01L46.08,20.82L47.11,21.69L47.61,22.84L47.74,23.87L47.60,25.17L47.35,26.19L46.59,27.96L45.45,29.61L43.94,31.02L42.50,31.73L41.61,31.85L40.88,31.85L35.70,28.92L31.40,26.39L30.76,25.88L30.24,24.76L30.24,22.51L30.62,20.99L31.58,19.04L32.61,17.66L33.92,16.56L35.52,15.75L36.70,15.61z"/><path style="fill:#b79500" d="M37.84,51.74L45.95,56.43L47.21,57.46L47.47,58.21L47.74,59.61L47.60,60.78L47.23,62.30L46.42,63.91L45.07,65.72L44.13,66.56L42.37,67.46L40.75,67.46L31.51,62.14L30.75,61.62L30.24,60.49L30.24,58.25L30.62,56.60L31.60,54.66L32.66,53.32L33.79,52.29L35.26,51.48L35.90,51.36L36.83,51.36z"/><path style="fill:#b79500" d="M145.17,78.10L154.05,83.17L154.82,83.91L155.31,85.19L155.31,87.14L154.93,88.66L154.17,90.31L152.91,91.96L151.65,93.11L150.08,93.95L148.46,93.95L145.44,92.28L138.72,88.35L138.33,87.86L137.94,86.98L137.82,86.08L137.82,85.11L138.20,83.33L139.03,81.51L140.18,79.99L141.50,78.77L142.97,77.97L143.61,77.85L144.42,77.84z"/><path style="fill:#b79500" d="M145.05,113.71L153.66,118.65L154.81,119.53L155.31,120.80L155.31,122.87L154.93,124.26L154.25,125.74L153.03,127.56L151.84,128.65L150.21,129.55L149.31,129.67L148.59,129.68L144.68,127.50L139.23,124.34L138.47,123.83L137.94,122.71L137.82,121.82L137.82,120.71L138.20,118.94L139.16,116.99L140.24,115.53L141.12,114.76L142.26,114.00L143.23,113.58L144.28,113.44z"/><path style="fill:#00fdff" d="M98.29,44.65L98.68,45.02L98.54,45.44L98.00,45.67L97.14,45.67L96.76,45.54L96.49,45.29L96.51,44.95L96.85,44.65L97.23,44.52L97.91,44.52z"/><path style="fill:#00fdff" d="M86.90,51.74L86.88,52.16L86.58,52.37L85.10,52.39L84.86,52.25L84.82,51.62L85.19,51.36L86.38,51.36z"/><path style="fill:#00fdff" d="M74.40,64.99L74.48,65.47L74.22,66.11L73.80,66.45L73.33,66.44L73.16,66.05L73.57,65.21L73.91,64.91z"/><path style="fill:#00fdff" d="M98.43,66.68L98.80,67.46L98.66,67.88L98.15,67.84L97.79,67.57L97.48,66.69L97.74,66.29L98.04,66.30z"/><path style="fill:#00fdff" d="M71.31,66.81L71.30,67.50L70.75,68.21L70.25,68.26L70.14,68.10L70.15,67.62L70.54,66.87L70.74,66.68L71.18,66.68z"/><path style="fill:#00fdff" d="M101.34,68.21L101.84,68.97L101.80,69.62L101.19,69.62L100.69,68.99L100.69,68.12L101.08,68.08z"/><path style="fill:#00fdff" d="M87.54,68.96L87.77,69.48L87.73,70.13L87.26,70.13L86.89,69.86L86.63,69.36L86.62,68.63L87.14,68.59z"/><path style="fill:#00fdff" d="M99.67,75.83L99.94,76.20L100.20,77.00L100.02,77.22L99.55,77.22L99.18,76.95L98.87,76.08L99.01,75.69L99.44,75.68z"/><path style="fill:#00fdff" d="M74.48,77.08L74.43,77.60L73.92,78.35L73.28,78.39L73.15,77.98L73.52,77.20L73.92,76.82L74.21,76.82z"/><path style="fill:#00fdff" d="M98.55,78.73L98.81,79.54L98.51,79.89L98.28,79.89L97.79,79.48L97.48,78.61L97.74,78.21L98.04,78.21z"/><path style="fill:#00fdff" d="M71.31,78.72L71.30,79.42L71.05,79.92L70.76,80.14L70.15,80.13L70.15,79.53L70.62,78.73L70.88,78.59L71.18,78.58z"/><path style="fill:#00fdff" d="M101.60,80.49L101.84,81.01L101.85,81.44L101.66,81.66L101.33,81.66L100.96,81.39L100.69,80.89L100.66,80.13L101.08,79.99z"/><path style="fill:#00fdff" d="M87.28,95.44L87.78,96.21L87.74,96.86L87.14,96.85L86.76,96.47L86.62,96.10L86.62,95.37L87.14,95.32z"/><path style="fill:#00fdff" d="M74.40,96.92L74.47,97.40L74.09,98.16L73.80,98.39L73.33,98.38L73.16,97.98L73.70,96.90L74.34,96.85z"/><path style="fill:#00fdff" d="M98.43,98.61L98.80,99.39L98.66,99.81L98.15,99.78L97.79,99.51L97.52,98.75L97.62,98.25L98.04,98.24z"/><path style="fill:#00fdff" d="M71.31,98.74L71.30,99.44L70.75,100.14L70.25,100.19L70.14,100.03L70.15,99.55L70.54,98.80L70.74,98.62L71.18,98.61z"/><path style="fill:#00fdff" d="M101.35,100.13L101.84,100.90L101.80,101.55L101.19,101.56L100.69,100.92L100.69,100.06L101.21,100.01z"/><path style="fill:#00fdff" d="M99.82,102.79L100.20,103.57L100.06,103.99L99.43,103.95L99.04,103.45L98.87,102.81L99.13,102.41L99.43,102.41z"/><path style="fill:#00fdff" d="M74.48,109.01L74.43,109.53L73.92,110.28L73.32,110.29L73.19,110.15L73.18,109.82L73.52,109.13L73.91,108.75L74.34,108.76z"/><path style="fill:#00fdff" d="M98.43,110.52L98.80,111.30L98.67,111.72L98.04,111.68L97.65,111.18L97.48,110.54L97.74,110.14L98.04,110.14z"/><path style="fill:#00fdff" d="M71.31,110.65L71.30,111.35L71.05,111.85L70.76,112.07L70.15,112.07L70.15,111.46L70.62,110.66L70.88,110.53L71.18,110.52z"/><path style="fill:#00fdff" d="M101.44,112.20L101.84,112.95L101.80,113.46L101.08,113.45L100.69,112.83L100.66,112.06L101.08,111.92z"/><path style="stroke:#000000;stroke-width:0.088" d="M53.87,113.90L53.87,114.07L55.41,114.96L55.41,67.51L53.87,66.62L53.87,113.90"/><path style="stroke:#000000;stroke-width:0.088" d="M53.87,66.62L96.35,42.10L108.55,49.14L89.24,60.29L89.40,60.56L89.40,72.15L95.58,75.72L95.58,64.12L96.18,63.77L95.58,64.12"/><path style="stroke:#000000;stroke-width:0.088" d="M55.41,114.96L56.65,114.25L56.65,66.80L62.83,70.37L62.83,117.81L56.65,114.25"/><path style="stroke:#000000;stroke-width:0.088" d="M55.41,67.51L56.65,66.80"/><path style="stroke:#000000;stroke-width:0.088" d="M59.27,113.10L59.17,112.98L58.96,112.60L58.84,112.21L58.81,111.84L58.89,111.54L59.06,111.34L59.30,111.27L59.59,111.32L59.74,111.39L59.89,111.50L60.18,111.78L60.42,112.13L60.59,112.53L60.66,112.91L60.64,113.25L60.51,113.50L60.31,113.64L60.04,113.65L59.74,113.53L59.44,113.30L59.27,113.10"/><path style="stroke:#000000;stroke-width:0.088" d="M60.65,112.87L60.64,113.05L60.53,113.27L60.36,113.38L60.13,113.39L59.88,113.29L59.63,113.10L59.39,112.82L59.22,112.50L59.11,112.16L59.09,111.85L59.16,111.60L59.30,111.43L59.50,111.37L59.75,111.41L59.81,111.44"/><path style="stroke:#000000;stroke-width:0.088" d="M59.31,109.59L59.17,109.41L58.96,109.03L58.84,108.64L58.81,108.27L58.89,107.98L59.06,107.78L59.30,107.70L59.59,107.75L59.74,107.83L59.89,107.93L60.18,108.21L60.42,108.57L60.59,108.96L60.66,109.34L60.64,109.68L60.51,109.93L60.31,110.07L60.04,110.08L59.74,109.97L59.44,109.73L59.31,109.59"/><path style="stroke:#000000;stroke-width:0.088" d="M60.65,109.30L60.64,109.48L60.53,109.70L60.36,109.81L60.13,109.82L59.88,109.73L59.62,109.53L59.39,109.25L59.22,108.93L59.11,108.60L59.09,108.29L59.16,108.03L59.30,107.86L59.50,107.80L59.75,107.84L59.81,107.87"/><path style="stroke:#000000;stroke-width:0.088" d="M59.20,105.88L58.96,105.47L58.84,105.08L58.81,104.71L58.89,104.41L59.06,104.21L59.30,104.13L59.59,104.19L59.74,104.26L59.89,104.36L60.18,104.64L60.42,105.00L60.59,105.39L60.66,105.77L60.64,106.11L60.51,106.36L60.31,106.50L60.04,106.51L59.74,106.40L59.44,106.17L59.20,105.88"/><path style="stroke:#000000;stroke-width:0.088" d="M60.64,105.91L60.65,105.74L60.65,105.88L60.53,106.13L60.36,106.25L60.13,106.26L59.88,106.16L59.62,105.96L59.39,105.69L59.22,105.36L59.11,105.03L59.10,104.70L59.16,104.47L59.30,104.30L59.16,104.47"/><path style="stroke:#000000;stroke-width:0.088" d="M59.30,104.30L59.50,104.23L59.75,104.28L59.81,104.30"/><path style="stroke:#000000;stroke-width:0.088" d="M58.96,79.41L59.17,79.80L59.44,80.12L59.74,80.36L60.04,80.47L60.31,80.46L60.51,80.32L60.64,80.07L60.66,79.73L60.59,79.35L60.42,78.96L60.19,78.61L60.11,78.54L59.89,78.32L59.74,78.22L59.59,78.14L59.30,78.09L59.06,78.17L58.89,78.37L58.81,78.66L58.84,79.03L58.96,79.41"/><path style="stroke:#000000;stroke-width:0.088" d="M60.65,79.69L60.64,79.87L60.53,80.09L60.36,80.20L60.14,80.21L59.88,80.12L59.62,79.92L59.39,79.64L59.22,79.32L59.11,78.99L59.09,78.68L59.16,78.42L59.30,78.26L59.50,78.19L59.75,78.23L59.81,78.26"/><path style="stroke:#000000;stroke-width:0.088" d="M59.31,76.41L59.17,76.23L58.96,75.86L58.84,75.46L58.81,75.10L58.89,74.80L59.06,74.60L59.30,74.52L59.59,74.58L59.74,74.65L59.89,74.75L60.18,75.03L60.42,75.39L60.59,75.78L60.66,76.17L60.64,76.50L60.51,76.75L60.31,76.89L60.04,76.91L59.74,76.79L59.44,76.56L59.31,76.41"/><path style="stroke:#000000;stroke-width:0.088" d="M59.80,74.69L59.75,74.67L59.50,74.62L59.30,74.69L59.16,74.86L59.09,75.11L59.11,75.42L59.22,75.75L59.39,76.08L59.62,76.35L59.86,76.54L60.13,76.65L60.36,76.64L60.53,76.53L60.64,76.30L60.65,76.13"/><path style="stroke:#000000;stroke-width:0.088" d="M59.17,72.67L58.96,72.29L58.84,71.89L58.81,71.53L58.89,71.23L59.06,71.03L59.30,70.96L59.59,71.01L59.74,71.08L59.89,71.19L60.18,71.47L60.42,71.82L60.59,72.21L60.66,72.60L60.64,72.93L60.51,73.19L60.31,73.33L60.04,73.34L59.74,73.22L59.44,72.99L59.17,72.67"/><path style="stroke:#000000;stroke-width:0.088" d="M60.65,72.56L60.64,72.74L60.53,72.96L60.36,73.07L60.13,73.08L59.86,72.97L59.62,72.78L59.39,72.51L59.22,72.19L59.11,71.85L59.09,71.54L59.16,71.29L59.30,71.12L59.50,71.05L59.75,71.10L59.81,71.13"/><path style="stroke:#000000;stroke-width:0.088" d="M62.83,117.81L84.76,105.15L89.24,107.74L89.40,107.65L89.40,96.05L95.58,99.62L95.58,111.22L95.73,111.48L106.70,117.81L106.70,70.37L95.73,64.04"/><path style="stroke:#000000;stroke-width:0.088" d="M62.83,70.37L84.76,57.70L84.76,105.15"/><path style="stroke:#000000;stroke-width:0.088" d="M70.34,112.35L70.55,112.39L70.80,112.32L71.05,112.15L71.28,111.90L71.47,111.59L71.59,111.26L71.63,110.95L71.59,110.68L71.47,110.49L71.28,110.40L71.05,110.42L70.80,110.54L70.55,110.76L70.34,111.04L70.18,111.36L70.10,111.69L70.09,111.84L70.10,111.98L70.18,112.21L70.34,112.35"/><path style="stroke:#000000;stroke-width:0.088" d="M70.09,111.77L70.10,111.82L70.17,112.02L70.30,112.14L70.48,112.17L70.69,112.11L70.90,111.97L71.10,111.76L71.26,111.50L71.36,111.22L71.40,110.95L71.37,110.72L71.26,110.56L71.11,110.49L70.91,110.50L70.77,110.56"/><path style="stroke:#000000;stroke-width:0.088" d="M70.19,100.27L70.34,100.40L70.55,100.44L70.80,100.37L71.05,100.20L71.28,99.95L71.47,99.64L71.59,99.31L71.63,99.00L71.59,98.73L71.47,98.54L71.28,98.45L71.05,98.47L70.80,98.59L70.55,98.80L70.34,99.09L70.18,99.41L70.10,99.73L70.09,99.89L70.10,100.03L70.19,100.27"/><path style="stroke:#000000;stroke-width:0.088" d="M70.77,98.61L70.91,98.55L71.11,98.54L71.26,98.61L71.37,98.77L71.40,99.01L71.36,99.26L71.26,99.54L71.10,99.80L70.90,100.02L70.69,100.16L70.48,100.22L70.30,100.19L70.17,100.07L70.10,99.87L70.09,99.82"/><path style="stroke:#000000;stroke-width:0.088" d="M70.34,80.42L70.18,80.28L70.10,80.05L70.09,79.91L70.10,79.76L70.18,79.43L70.34,79.11L70.55,78.83L70.80,78.61L71.05,78.49L71.28,78.47L71.47,78.57L71.59,78.75L71.63,79.02L71.59,79.33L71.47,79.66L71.28,79.97L71.05,80.22L70.80,80.39L70.55,80.46L70.34,80.42"/><path style="stroke:#000000;stroke-width:0.088" d="M70.09,79.84L70.10,79.90L70.17,80.09L70.30,80.21L70.48,80.24L70.69,80.18L70.90,80.04L71.10,79.83L71.26,79.57L71.36,79.29L71.40,79.02L71.37,78.79L71.26,78.63L71.11,78.56L70.91,78.57L70.77,78.63"/><path style="stroke:#000000;stroke-width:0.088" d="M70.53,68.51L70.34,68.47L70.18,68.33L70.10,68.10L70.09,67.96L70.10,67.81L70.18,67.48L70.34,67.16L70.55,66.88L70.80,66.66L71.05,66.54L71.28,66.52L71.47,66.61L71.59,66.80L71.63,67.07L71.59,67.38L71.47,67.71L71.28,68.02L71.05,68.27L70.80,68.44L70.53,68.51"/><path style="stroke:#000000;stroke-width:0.088" d="M70.09,67.89L70.10,67.95L70.17,68.14L70.30,68.26L70.48,68.29L70.69,68.23L70.90,68.09L71.10,67.88L71.26,67.61L71.37,67.34L71.40,67.07L71.37,66.84L71.26,66.68L71.11,66.61L70.91,66.62L70.77,66.68"/><path style="stroke:#000000;stroke-width:0.088" d="M73.18,110.06L73.19,110.20L73.27,110.43L73.43,110.57L73.64,110.61L73.89,110.54L74.14,110.37L74.37,110.11L74.56,109.81L74.68,109.48L74.72,109.17L74.68,108.90L74.56,108.71L74.37,108.62L74.14,108.63L73.89,108.76L73.64,108.97L73.43,109.25L73.27,109.58L73.19,109.90L73.18,110.06"/><path style="stroke:#000000;stroke-width:0.088" d="M73.19,110.03L73.19,110.20L73.19,109.93"/><path style="stroke:#000000;stroke-width:0.088" d="M73.19,110.04L73.26,110.24L73.39,110.36L73.57,110.39L73.78,110.33L73.99,110.19L74.19,109.97L74.35,109.71L74.45,109.43L74.49,109.16L74.45,108.94L74.35,108.78L74.20,108.71L74.00,108.71L73.86,108.78"/><path style="stroke:#000000;stroke-width:0.088" d="M73.19,98.07L73.19,98.24L73.18,98.10L73.19,97.95L73.27,97.63L73.43,97.30L73.64,97.02L73.89,96.81L74.14,96.68L74.37,96.67L74.56,96.76L74.68,96.95L74.72,97.21L74.68,97.53L74.56,97.86L74.37,98.16L74.14,98.41L73.89,98.58L73.64,98.65L73.43,98.62L73.27,98.47L73.19,98.24L73.19,97.98"/><path style="stroke:#000000;stroke-width:0.088" d="M73.86,96.83L74.00,96.76L74.20,96.75L74.35,96.83L74.45,96.99L74.49,97.21L74.45,97.48L74.35,97.76L74.19,98.02L73.99,98.23L73.77,98.38L73.57,98.44L73.39,98.41L73.26,98.29L73.19,98.09"/><path style="stroke:#000000;stroke-width:0.088" d="M73.74,78.65L73.64,78.68L73.43,78.64L73.27,78.50L73.19,78.27L73.18,78.13L73.19,77.97L73.27,77.65L73.43,77.33L73.64,77.04L73.89,76.83L74.14,76.71L74.37,76.69L74.56,76.78L74.68,76.97L74.72,77.24L74.68,77.55L74.56,77.88L74.37,78.19L74.14,78.44L73.88,78.61L73.74,78.65"/><path style="stroke:#000000;stroke-width:0.088" d="M73.18,78.06L73.19,78.11L73.26,78.31L73.39,78.43L73.57,78.46L73.78,78.40L73.99,78.26L74.19,78.04L74.35,77.78L74.45,77.50L74.49,77.24L74.46,77.01L74.35,76.85L74.20,76.78L74.00,76.79L73.86,76.85"/><path style="stroke:#000000;stroke-width:0.088" d="M73.74,66.70L73.64,66.73L73.43,66.69L73.27,66.55L73.19,66.32L73.18,66.18L73.19,66.02L73.27,65.70L73.43,65.37L73.64,65.09L73.89,64.88L74.14,64.76L74.37,64.74L74.56,64.83L74.68,65.02L74.72,65.29L74.68,65.60L74.56,65.93L74.37,66.23L74.14,66.49L73.89,66.66L73.74,66.70"/><path style="stroke:#000000;stroke-width:0.088" d="M73.18,66.11L73.19,66.16L73.26,66.36L73.39,66.48L73.57,66.51L73.78,66.45L73.99,66.31L74.19,66.09L74.35,65.83L74.45,65.55L74.49,65.29L74.45,65.06L74.35,64.90L74.20,64.83L74.00,64.84L73.86,64.90"/><path style="stroke:#000000;stroke-width:0.088" d="M89.24,60.29L84.76,57.70"/><path style="stroke:#000000;stroke-width:0.088" d="M84.92,52.26L84.67,52.06L84.54,51.82L84.56,51.57L84.72,51.34L85.00,51.15L85.37,51.02L85.79,50.97L86.22,51.00L86.61,51.11L86.77,51.19L86.91,51.29L87.10,51.51L87.15,51.76L87.07,52.00L86.84,52.22L86.51,52.38L86.11,52.47L85.68,52.48L85.27,52.41L84.92,52.26"/><path style="stroke:#000000;stroke-width:0.088" d="M86.72,52.28L86.88,52.12L86.96,51.92L86.91,51.71L86.76,51.53L86.63,51.43L86.49,51.37L86.16,51.27L85.80,51.25L85.44,51.29L85.14,51.39L84.89,51.56L84.75,51.76L84.74,51.97L84.84,52.17L85.00,52.30"/><path style="stroke:#000000;stroke-width:0.088" d="M86.44,96.26L86.46,96.32L86.64,96.63L86.87,96.88L87.13,97.06L87.37,97.14L87.59,97.11L87.75,96.97L87.84,96.75L87.84,96.46L87.77,96.13L87.61,95.81L87.41,95.52L87.16,95.30L86.91,95.17L86.67,95.15L86.48,95.23L86.35,95.42L86.31,95.68L86.34,95.99L86.44,96.26"/><path style="stroke:#000000;stroke-width:0.088" d="M87.18,95.32L87.05,95.25L86.85,95.23L86.69,95.30L86.58,95.46L86.54,95.68L86.56,95.90L86.67,96.22L86.83,96.49L87.02,96.71L87.24,96.86L87.45,96.92L87.63,96.90L87.77,96.78L87.84,96.58"/><path style="stroke:#000000;stroke-width:0.088" d="M86.46,69.56L86.34,69.23L86.31,68.92L86.35,68.66L86.48,68.48L86.67,68.39L86.91,68.42L87.16,68.55L87.41,68.77L87.61,69.05L87.77,69.38L87.84,69.70L87.84,69.99L87.75,70.22L87.59,70.35L87.37,70.38L87.13,70.30L86.87,70.13L86.64,69.87L86.46,69.56"/><path style="stroke:#000000;stroke-width:0.088" d="M87.84,69.82L87.77,70.02L87.63,70.14L87.45,70.17L87.24,70.10L87.02,69.95L86.83,69.73L86.67,69.47L86.57,69.19L86.54,68.92L86.58,68.70L86.69,68.55L86.85,68.48L87.05,68.50L87.18,68.56"/><path style="stroke:#000000;stroke-width:0.088" d="M89.40,107.65L95.58,104.08"/><path style="stroke:#000000;stroke-width:0.088" d="M89.40,72.15L95.58,68.58"/><path style="stroke:#000000;stroke-width:0.088" d="M89.40,60.56L108.71,49.41L108.71,56.54"/><path style="stroke:#000000;stroke-width:0.088" d="M96.18,63.77L114.95,52.94L114.62,53.13"/><path style="stroke:#000000;stroke-width:0.088" d="M96.46,45.32L96.41,45.28L96.28,45.04L96.30,44.79L96.46,44.56L96.74,44.37L97.11,44.24L97.53,44.19L97.96,44.22L98.35,44.33L98.51,44.41L98.65,44.51L98.84,44.73L98.89,44.98L98.80,45.23L98.58,45.44L98.25,45.60L97.85,45.69L97.42,45.70L97.01,45.63L96.66,45.48L96.46,45.32"/><path style="stroke:#000000;stroke-width:0.088" d="M96.74,45.52L96.58,45.39L96.48,45.19L96.49,44.98L96.63,44.78L96.80,44.66L96.88,44.61L97.18,44.51L97.54,44.47L97.92,44.50L98.23,44.59L98.49,44.74L98.65,44.93L98.70,45.14L98.62,45.35L98.46,45.50"/><path style="stroke:#000000;stroke-width:0.088" d="M97.61,111.52L97.43,111.21L97.31,110.88L97.28,110.57L97.32,110.31L97.45,110.13L97.64,110.04L97.87,110.07L97.97,110.12L98.13,110.20L98.37,110.42L98.58,110.70L98.73,111.03L98.81,111.35L98.81,111.64L98.72,111.87L98.56,112.00L98.34,112.03L98.05,111.93L97.84,111.78L97.61,111.52"/><path style="stroke:#000000;stroke-width:0.088" d="M98.81,111.47L98.73,111.67L98.59,111.79L98.41,111.82L98.20,111.75L97.99,111.60L97.79,111.38L97.64,111.12L97.54,110.84L97.51,110.57L97.55,110.35L97.65,110.20L97.82,110.13L98.02,110.15L98.14,110.21"/><path style="stroke:#000000;stroke-width:0.088" d="M97.61,99.57L97.43,99.26L97.31,98.93L97.28,98.62L97.32,98.36L97.45,98.18L97.64,98.09L97.87,98.12L98.13,98.25L98.37,98.46L98.58,98.75L98.73,99.07L98.81,99.40L98.81,99.69L98.72,99.91L98.56,100.05L98.34,100.08L98.05,99.98L97.84,99.83L97.61,99.57"/><path style="stroke:#000000;stroke-width:0.088" d="M98.81,99.52L98.73,99.72L98.59,99.84L98.41,99.86L98.20,99.80L97.99,99.65L97.79,99.43L97.64,99.17L97.54,98.89L97.51,98.62L97.55,98.40L97.65,98.25L97.82,98.18L98.02,98.19L98.14,98.26"/><path style="stroke:#000000;stroke-width:0.088" d="M97.79,79.79L97.61,79.59L97.43,79.28L97.31,78.96L97.28,78.64L97.32,78.38L97.45,78.20L97.64,78.12L97.87,78.14L98.13,78.27L98.37,78.49L98.58,78.77L98.73,79.10L98.81,79.42L98.81,79.71L98.72,79.94L98.56,80.07L98.34,80.10L98.10,80.03L97.84,79.85L97.79,79.79"/><path style="stroke:#000000;stroke-width:0.088" d="M98.81,79.54L98.73,79.75L98.59,79.86L98.41,79.89L98.20,79.82L97.99,79.67L97.79,79.45L97.64,79.19L97.54,78.91L97.51,78.65L97.55,78.42L97.65,78.27L97.82,78.20L98.02,78.22L98.15,78.28"/><path style="stroke:#000000;stroke-width:0.088" d="M97.61,67.64L97.84,67.90L98.05,68.05L98.34,68.15L98.56,68.12L98.72,67.99L98.81,67.76L98.81,67.47L98.73,67.15L98.58,66.82L98.40,66.58L98.13,66.32L97.87,66.19L97.64,66.16L97.45,66.25L97.32,66.43L97.28,66.69L97.31,67.00L97.43,67.33L97.61,67.64"/><path style="stroke:#000000;stroke-width:0.088" d="M98.15,66.33L98.02,66.27L97.82,66.25L97.65,66.32L97.55,66.47L97.51,66.70L97.54,66.96L97.64,67.24L97.79,67.50L97.99,67.72L98.20,67.87L98.41,67.94L98.59,67.91L98.73,67.79L98.81,67.59"/><path style="stroke:#000000;stroke-width:0.088" d="M104.42,59.02L104.63,58.27L104.65,56.84L104.28,55.72L103.55,55.01L102.54,54.79L101.37,55.10L100.15,55.89L99.02,57.08L98.11,58.54L97.50,60.11L97.28,61.63L97.45,62.92L97.51,63.01"/><path style="stroke:#000000;stroke-width:0.088" d="M97.37,62.29L97.89,62.07L98.12,61.93L99.31,60.93L100.35,59.59L101.12,58.05L101.54,56.48L101.56,55.05"/><path style="stroke:#000000;stroke-width:0.088" d="M98.59,99.84L98.60,99.84"/><path style="stroke:#000000;stroke-width:0.088" d="M98.59,79.86L98.60,79.86"/><path style="stroke:#000000;stroke-width:0.088" d="M98.83,103.48L99.00,103.76L99.23,104.02L99.49,104.20L99.73,104.27L99.95,104.24L100.11,104.11L100.20,103.88L100.20,103.59L100.12,103.27L99.97,102.94L99.76,102.66L99.52,102.44L99.26,102.31L99.03,102.28L98.84,102.37L98.71,102.55L98.67,102.81L98.70,103.12L98.83,103.48"/><path style="stroke:#000000;stroke-width:0.088" d="M100.20,103.71L100.12,103.92L99.99,104.03L99.80,104.06L99.59,103.99L99.39,103.85L99.18,103.62L99.03,103.36L98.93,103.08L98.91,102.88L98.90,102.82L98.94,102.59L99.04,102.44L99.21,102.37L99.41,102.39L99.53,102.45"/><path style="stroke:#000000;stroke-width:0.088" d="M99.39,77.38L99.23,77.26L99.00,77.01L98.82,76.70L98.70,76.37L98.67,76.06L98.71,75.80L98.84,75.61L99.03,75.53L99.26,75.55L99.52,75.68L99.76,75.90L99.97,76.19L100.12,76.51L100.20,76.84L100.20,77.13L100.11,77.35L99.95,77.49L99.73,77.52L99.49,77.44L99.39,77.38"/><path style="stroke:#000000;stroke-width:0.088" d="M100.20,76.84L100.20,76.97L100.12,77.16L99.99,77.27L99.80,77.30L99.59,77.23L99.39,77.09L99.18,76.87L99.03,76.60L98.93,76.32L98.90,76.06L98.94,75.84L99.04,75.68L99.21,75.61L99.41,75.63L99.54,75.70"/><path style="stroke:#000000;stroke-width:0.088" d="M100.93,113.56L100.70,113.30L100.52,113.00L100.40,112.67L100.36,112.36L100.41,112.09L100.54,111.91L100.73,111.83L100.96,111.85L101.22,111.98L101.46,112.20L101.67,112.49L101.82,112.81L101.90,113.13L101.90,113.42L101.81,113.65L101.65,113.78L101.43,113.82L101.18,113.74L100.93,113.56"/><path style="stroke:#000000;stroke-width:0.088" d="M101.23,111.99L101.11,111.93L100.91,111.91L100.74,111.98L100.64,112.14L100.60,112.36L100.63,112.62L100.73,112.90L100.88,113.17L101.08,113.38L101.29,113.53L101.50,113.60L101.69,113.57L101.82,113.46L101.90,113.27L101.90,113.13"/><path style="stroke:#000000;stroke-width:0.088" d="M100.93,101.61L100.70,101.35L100.52,101.04L100.40,100.72L100.36,100.40L100.41,100.14L100.54,99.96L100.73,99.88L100.96,99.90L101.22,100.03L101.46,100.25L101.67,100.54L101.82,100.86L101.90,101.18L101.90,101.47L101.81,101.70L101.65,101.83L101.43,101.86L101.18,101.79L100.93,101.61"/><path style="stroke:#000000;stroke-width:0.088" d="M101.90,101.31L101.82,101.51L101.69,101.62L101.50,101.65L101.29,101.58L101.08,101.43L100.88,101.21L100.73,100.95L100.63,100.67L100.60,100.41L100.64,100.19L100.74,100.03L100.91,99.96L101.11,99.98L101.23,100.04"/><path style="stroke:#000000;stroke-width:0.088" d="M100.99,81.68L100.93,81.63L100.70,81.38L100.52,81.07L100.40,80.74L100.36,80.43L100.41,80.17L100.54,79.98L100.73,79.90L100.96,79.92L101.22,80.05L101.46,80.27L101.67,80.56L101.79,80.82L101.82,80.88L101.90,81.21L101.90,81.50L101.81,81.72L101.65,81.86L101.43,81.89L101.18,81.81L100.99,81.68"/><path style="stroke:#000000;stroke-width:0.088" d="M101.90,81.33L101.82,81.53L101.69,81.64L101.50,81.67L101.29,81.61L101.08,81.45L100.88,81.24L100.73,80.97L100.63,80.70L100.60,80.43L100.64,80.21L100.74,80.05L100.91,79.98L101.11,80.00L101.23,80.07"/><path style="stroke:#000000;stroke-width:0.088" d="M100.52,69.12L100.70,69.42L100.93,69.68L101.18,69.86L101.43,69.94L101.65,69.90L101.81,69.77L101.90,69.54L101.90,69.25L101.82,68.93L101.67,68.61L101.46,68.32L101.22,68.10L100.96,67.97L100.73,67.95L100.54,68.03L100.41,68.21L100.36,68.48L100.40,68.79L100.52,69.12"/><path style="stroke:#000000;stroke-width:0.088" d="M101.23,68.12L101.11,68.05L100.91,68.03L100.74,68.10L100.64,68.26L100.60,68.48L100.63,68.74L100.73,69.02L100.88,69.29L101.08,69.50L101.29,69.65L101.50,69.72L101.69,69.69L101.82,69.58L101.90,69.39L101.90,69.25"/><path style="stroke:#000000;stroke-width:0.088" d="M101.90,113.27L101.90,113.42L101.90,113.21"/><path style="stroke:#000000;stroke-width:0.088" d="M101.90,69.39L101.90,69.54L101.90,69.33"/><path style="stroke:#000000;stroke-width:0.088" d="M106.70,117.81L112.88,114.25L112.88,66.80L106.70,70.37"/><path style="stroke:#000000;stroke-width:0.088" d="M108.88,113.23L109.01,113.49L109.20,113.63L109.47,113.65L109.77,113.54L110.07,113.32L110.34,113.00L110.55,112.63L110.68,112.23L110.71,111.86L110.64,111.56L110.48,111.35L110.25,111.27L109.96,111.31L109.65,111.48L109.36,111.76L109.12,112.11L108.95,112.50L108.87,112.88L108.88,113.23"/><path style="stroke:#000000;stroke-width:0.088" d="M109.65,111.48L109.79,111.41L110.04,111.37L110.24,111.44L110.38,111.62L110.44,111.87L110.41,112.19L110.30,112.52L110.12,112.84L109.89,113.11L109.63,113.30L109.38,113.39L109.15,113.38L108.98,113.25L108.88,113.03L108.87,112.86"/><path style="stroke:#000000;stroke-width:0.088" d="M108.87,109.29L108.88,109.46L108.98,109.68L109.15,109.81L109.38,109.83L109.63,109.74L109.89,109.54L110.12,109.27L110.30,108.95L110.41,108.62L110.44,108.31L110.38,108.05L110.24,107.87L110.04,107.80L109.81,107.84L109.96,107.75L110.25,107.70L110.48,107.79L110.64,107.99L110.71,108.30L110.68,108.66L110.55,109.06L110.34,109.44L110.07,109.75L109.77,109.98L109.47,110.09L109.20,110.06L109.01,109.92L108.99,109.89L108.88,109.66L108.87,109.32L108.95,108.93L109.12,108.54L109.36,108.19L109.65,107.92L109.81,107.84L109.65,107.92"/><path style="stroke:#000000;stroke-width:0.088" d="M108.88,106.09L109.01,106.35L109.20,106.50L109.47,106.52L109.77,106.41L110.07,106.19L110.34,105.87L110.55,105.49L110.68,105.10L110.71,104.73L110.64,104.43L110.48,104.22L110.25,104.13L109.96,104.18L109.65,104.35L109.36,104.62L109.12,104.97L108.95,105.36L108.87,105.75L108.88,106.09"/><path style="stroke:#000000;stroke-width:0.088" d="M109.78,104.28L110.04,104.23L110.24,104.31L110.38,104.48L110.44,104.74L110.41,105.05L110.30,105.39L110.12,105.71L109.89,105.98L109.63,106.17L109.38,106.26L109.15,106.24L108.98,106.12L108.88,105.90L108.87,105.72"/><path style="stroke:#000000;stroke-width:0.088" d="M108.87,79.68L108.88,79.85L108.98,80.07L109.15,80.20L109.38,80.22L109.63,80.13L109.89,79.93L110.12,79.66L110.30,79.34L110.41,79.01L110.44,78.70L110.38,78.44L110.24,78.26L110.04,78.19L109.81,78.23L109.96,78.14L110.25,78.09L110.48,78.18L110.64,78.38L110.71,78.69L110.68,79.05L110.55,79.45L110.34,79.83L110.07,80.14L109.81,80.34L109.77,80.37L109.47,80.48L109.20,80.45L109.01,80.31L108.96,80.21L108.88,80.05L108.87,79.71L108.95,79.32L109.12,78.93L109.36,78.58L109.65,78.31L109.81,78.23L109.65,78.31"/><path style="stroke:#000000;stroke-width:0.088" d="M109.65,74.74L109.96,74.57L110.25,74.52L110.48,74.61L110.64,74.82L110.71,75.12L110.68,75.49L110.55,75.88L110.34,76.26L110.07,76.58L109.77,76.80L109.47,76.91L109.20,76.89L109.01,76.74L108.88,76.48L108.88,76.20L108.88,76.29L108.98,76.51L109.15,76.63L109.38,76.65L109.63,76.56L109.89,76.37L110.12,76.10L110.30,75.78L110.41,75.44L110.44,75.13L110.38,74.87L110.24,74.70L110.04,74.62L109.81,74.66L109.65,74.74L109.36,75.01L109.12,75.36L108.95,75.75L108.87,76.14L108.88,76.20L108.87,76.11"/><path style="stroke:#000000;stroke-width:0.088" d="M108.92,72.99L109.01,73.18L109.20,73.32L109.47,73.34L109.77,73.23L110.07,73.01L110.34,72.69L110.55,72.31L110.68,71.92L110.71,71.62L110.71,71.55L110.64,71.25L110.48,71.04L110.25,70.96L109.96,71.00L109.65,71.17L109.36,71.44L109.12,71.80L108.95,72.19L108.87,72.57L108.88,72.91L108.92,72.99"/><path style="stroke:#000000;stroke-width:0.088" d="M109.65,71.17L109.80,71.09L110.04,71.06L110.24,71.13L110.38,71.30L110.44,71.56L110.41,71.88L110.30,72.21L110.12,72.53L109.89,72.80L109.63,72.99L109.38,73.08L109.15,73.06L108.98,72.94L108.88,72.72L108.87,72.55"/><path style="stroke:#000000;stroke-width:0.088" d="M108.71,49.41L108.55,49.14"/><path style="stroke:#000000;stroke-width:0.088" d="M112.88,114.25L114.11,114.96L127.24,107.38L127.24,59.93L115.13,52.94L115.03,52.89L114.95,52.94"/><path style="stroke:#000000;stroke-width:0.088" d="M112.88,66.80L114.11,67.51L114.11,114.96"/><path style="stroke:#000000;stroke-width:0.088" d="M114.11,67.51L127.24,59.93"/><path style="stroke:#000000;stroke-width:0.088" d="M119.43,100.90L120.35,100.39L121.73,100.18L122.88,100.59L123.66,101.59L123.99,103.05L123.84,104.84L123.22,106.74L122.20,108.56L120.88,110.09L120.23,110.58L119.42,111.18L117.98,111.70L116.69,111.60L115.72,110.88L115.15,109.64L115.04,108.54L115.06,107.99L115.46,106.12L116.29,104.24L117.47,102.54L118.87,101.21L119.12,101.07L120.17,100.49L121.50,100.29L122.61,100.69L123.36,101.65L123.68,103.06L123.53,104.78L123.01,106.39L122.93,106.62L121.95,108.38L120.68,109.86L119.27,110.91L117.87,111.41L116.64,111.31L115.69,110.63L115.15,109.42L115.05,108.42"/><path style="stroke:#000000;stroke-width:0.088" d="M119.89,64.97L120.35,64.72L121.73,64.50L122.88,64.92L123.66,65.91L123.99,67.38L123.84,69.16L123.22,71.06L122.20,72.88L120.88,74.42L119.42,75.50L117.98,76.03L116.69,75.92L115.72,75.21L115.15,73.96L115.04,72.86L115.06,72.32L115.46,70.45L116.29,68.56L117.47,66.86L118.87,65.53L120.17,64.82L121.50,64.61L122.61,65.01L123.36,65.97L123.68,67.39L123.53,69.11L123.05,70.59L122.93,70.95L121.95,72.70L120.68,74.19L119.45,75.10L119.27,75.24L117.87,75.74L116.64,75.64L115.69,74.95L115.15,73.75L115.05,72.74"/><path style="stroke:#000000;stroke-width:0.088" d="M34.84,64.06L31.72,62.29L30.77,61.60L30.23,60.39L30.12,59.33L30.14,58.80L30.52,57.00L31.32,55.18L32.47,53.53L33.66,52.40L33.82,52.25L35.25,51.46L36.58,51.26L37.69,51.66L46.33,56.64L47.21,57.43L47.67,58.72L47.67,58.93L47.73,59.69L47.67,60.51L47.23,62.27L46.38,64.01L45.23,65.54L43.90,66.70L42.53,67.36L41.28,67.45L40.27,66.96L39.61,65.94L39.39,64.51L39.61,62.81L40.27,61.04L41.28,59.38L42.53,58.02L43.90,57.10L45.23,56.72L46.38,56.92L47.23,57.69L47.67,58.93"/><path style="stroke:#000000;stroke-width:0.088" d="M30.12,59.33L30.14,58.64L30.51,56.90L31.28,55.15L32.38,53.56L33.69,52.33L33.82,52.25"/><path style="stroke:#000000;stroke-width:0.088" d="M46.33,56.64L45.14,56.43L43.76,56.82L42.34,57.78L41.04,59.19L40.45,60.16L39.99,60.91L39.31,62.75L39.08,64.51L39.31,65.99L39.99,67.05L31.54,62.16"/><path style="stroke:#000000;stroke-width:0.088" d="M39.99,67.05L41.04,67.55L42.34,67.46L43.76,66.78L43.90,66.70"/><path style="stroke:#000000;stroke-width:0.088" d="M40.38,64.39L40.39,64.55L40.78,65.41L41.45,65.90L42.34,65.97L43.34,65.61L44.08,65.06L44.34,64.86L45.25,63.80L45.95,62.55L46.38,61.24L46.49,60.01L46.26,59.00L45.72,58.31L44.93,58.03L43.98,58.17L43.09,58.66L42.07,59.62L41.22,60.85L40.62,62.22L40.33,63.57L40.40,64.76L40.80,65.67L41.51,66.19L42.44,66.26L43.49,65.88L44.55,65.09L45.50,63.98L46.24,62.67L46.68,61.29L46.80,60.22L46.80,60.00L46.56,58.93L45.99,58.21L45.16,57.92L44.16,58.07L43.09,58.66"/><path style="stroke:#000000;stroke-width:0.088" d="M142.52,90.56L139.40,88.78L138.46,88.09L137.91,86.89L137.80,85.83L137.82,85.30L138.20,83.49L139.01,81.67L140.15,80.03L141.51,78.75L141.37,78.82L140.07,80.06L138.96,81.64L138.19,83.40L137.82,85.14L137.80,85.83"/><path style="stroke:#000000;stroke-width:0.088" d="M139.22,88.65L147.67,93.54L147.00,92.49L146.76,91.00L147.00,89.25L147.67,87.41L148.20,86.55L148.72,85.69L150.02,84.28L151.44,83.32L152.82,82.93L154.02,83.14L145.37,78.15L144.27,77.75L142.93,77.96L141.51,78.75"/><path style="stroke:#000000;stroke-width:0.088" d="M155.35,85.42L154.91,84.18L154.07,83.42L152.92,83.22L151.58,83.59L150.22,84.52L148.96,85.88L148.01,87.43L147.95,87.54L147.30,89.31L147.07,91.00L147.30,92.43L147.95,93.45L148.96,93.94L150.22,93.85L151.59,93.19L152.92,92.04L154.07,90.50L154.91,88.77L155.35,87.01L155.41,86.18L155.35,85.42L155.35,85.22L154.89,83.93L154.02,83.14"/><path style="stroke:#000000;stroke-width:0.088" d="M147.67,93.54L148.72,94.05L150.02,93.96L151.44,93.27L151.59,93.19"/><path style="stroke:#000000;stroke-width:0.088" d="M148.06,90.88L148.08,91.04L148.46,91.90L149.14,92.40L150.02,92.47L151.02,92.11L152.03,91.36L152.93,90.30L153.64,89.04L154.06,87.73L154.17,86.50L153.94,85.49L153.40,84.81L152.61,84.52L151.66,84.67L151.49,84.76L151.84,84.56L152.84,84.41L153.67,84.71L154.24,85.43L154.48,86.49L154.48,86.72L154.37,87.78L153.92,89.16L153.18,90.48L152.23,91.59L151.17,92.38L150.12,92.75L149.19,92.68L148.49,92.16L148.08,91.26L148.01,90.07L148.30,88.71L148.90,87.35L149.76,86.12L150.77,85.16L151.49,84.76L150.77,85.16"/><path style="stroke:#000000;stroke-width:0.088" d="M142.52,126.23L139.40,124.46L138.46,123.77L137.91,122.56L137.80,121.50L137.82,120.97L138.20,119.17L139.01,117.35L140.15,115.70L141.07,114.83L141.51,114.42L142.93,113.63L144.27,113.43L145.37,113.83L154.02,118.81L154.89,119.60L155.35,120.89L155.35,121.10L155.41,121.86L155.35,122.68L154.91,124.44L154.07,126.18L152.92,127.71L151.59,128.87L150.22,129.53L148.96,129.62L147.95,129.13L147.30,128.11L147.07,126.68L147.28,125.13L147.30,124.98L147.95,123.21L148.96,121.55L150.22,120.19L151.58,119.27L152.92,118.89L154.07,119.09L154.91,119.86L155.35,121.10"/><path style="stroke:#000000;stroke-width:0.088" d="M137.80,121.50L137.82,120.81L138.19,119.07L138.96,117.32L140.07,115.73L141.37,114.50L141.51,114.42"/><path style="stroke:#000000;stroke-width:0.088" d="M151.59,128.87L151.44,128.95L150.02,129.63L148.72,129.72L147.67,129.22L139.23,124.33"/><path style="stroke:#000000;stroke-width:0.088" d="M147.67,129.22L147.00,128.16L146.76,126.68L147.00,124.92L147.67,123.08L147.89,122.73L148.72,121.36L150.02,119.95L151.44,118.99L152.82,118.60L154.02,118.81"/><path style="stroke:#000000;stroke-width:0.088" d="M148.08,126.93L148.49,127.84L149.19,128.36L150.12,128.43L150.69,128.23L151.17,128.05L152.23,127.26L153.18,126.15L153.89,124.88L153.92,124.84L154.37,123.46L154.48,122.39L154.48,122.17L154.24,121.10L153.67,120.38L152.84,120.09L151.84,120.24L150.77,120.83L149.76,121.79L148.90,123.02L148.30,124.39L148.01,125.74L148.08,126.93"/><path style="stroke:#000000;stroke-width:0.088" d="M150.77,120.83L151.66,120.34L152.61,120.20L153.40,120.48L153.94,121.17L154.17,122.18L154.06,123.41L153.64,124.72L152.93,125.97L152.03,127.03L151.02,127.78L150.02,128.14L149.14,128.07L148.46,127.58L148.08,126.72L148.06,126.56"/><path style="stroke:#000000;stroke-width:0.088" d="M34.84,28.39L31.72,26.61L30.77,25.92L30.23,24.72L30.12,23.66L30.14,23.13L30.52,21.32L31.32,19.50L32.47,17.86L33.66,16.73L33.82,16.58L35.25,15.79L36.58,15.58L37.69,15.98L46.33,20.97L47.21,21.76L47.67,23.05L47.67,23.25L47.73,24.01L47.67,24.84L47.23,26.60L46.38,28.33L45.23,29.87L43.90,31.02L42.53,31.68L41.28,31.77L40.27,31.28L39.61,30.26L39.39,28.83L39.61,27.14L40.27,25.37L41.28,23.71L41.69,23.26L42.53,22.35L43.90,21.42L45.23,21.05L46.38,21.25L47.23,22.01L47.67,23.25"/><path style="stroke:#000000;stroke-width:0.088" d="M30.12,23.66L30.14,22.97L30.51,21.23L31.28,19.47L32.38,17.89L33.69,16.65L33.82,16.58"/><path style="stroke:#000000;stroke-width:0.088" d="M31.54,26.48L39.99,31.37L39.31,30.32L39.08,28.83L39.31,27.08L39.99,25.24L40.51,24.38L41.04,23.52L42.34,22.11L43.76,21.15L45.14,20.76L46.33,20.97"/><path style="stroke:#000000;stroke-width:0.088" d="M39.99,31.37L41.04,31.88L42.34,31.79L43.76,31.10L43.90,31.02"/><path style="stroke:#000000;stroke-width:0.088" d="M40.38,28.71L40.39,28.87L40.78,29.73L41.45,30.23L42.34,30.30L43.34,29.94L44.08,29.38L44.34,29.19L45.25,28.13L45.95,26.88L46.38,25.56L46.49,24.33L46.26,23.32L45.72,22.64L44.93,22.35L43.98,22.50L43.28,22.88L44.16,22.39L45.16,22.24L45.99,22.54L46.56,23.26L46.80,24.32L46.80,24.55L46.68,25.61L46.24,26.99L45.50,28.31L44.89,29.02L44.55,29.42L43.49,30.21L42.44,30.58L41.51,30.51L40.80,29.99L40.40,29.09L40.33,27.90L40.62,26.54L41.22,25.18L42.07,23.95L43.09,22.99L43.28,22.88L43.09,22.99"/><path style="fill:#ffffff" d="M172.18,72.89L198.59,72.89L198.59,67.25L172.18,67.25z"/><path style="stroke:#35414c;stroke-width:0.255" d="M172.18,72.89L198.59,72.89L198.59,67.25L172.18,67.25z"/><path style="stroke:#35404c;stroke-width:0.250;stroke-opacity:0.00" d="M172.18,72.89L198.59,72.89L198.59,67.25L172.18,67.25z"/><text xml:space="preserve" fill="#333f4b" stroke-width="0" x="172.89" y="71.30" font-size="3.47" opacity="1.00" font-family="Arial" font-weight="bold" font-style="italic">BA1043</text><path style="fill:#ffffff" d="M172.18,82.93L198.59,82.93L198.59,77.28L172.18,77.28z"/><path style="stroke:#35414c;stroke-width:0.255" d="M172.18,82.93L198.59,82.93L198.59,77.28L172.18,77.28z"/><path style="stroke:#35404c;stroke-width:0.250;stroke-opacity:0.00" d="M172.18,82.93L198.59,82.93L198.59,77.28L172.18,77.28z"/><text xml:space="preserve" fill="#333f4b" stroke-width="0" x="172.89" y="81.34" font-size="3.51" opacity="1.00" font-family="Arial" font-weight="bold" font-style="italic">F24623297</text><g id="paperID" visibility="hidden" opacity="0.00" transform="scale(0.000100)"><path style="stroke:#000000;stroke-width:0.500;fill:#e6e6e6;fill-rule:evenodd" d="M-2000.00,-2000.00L2210.00,-2000.00L2210.00,2150.00L-2000.00,2150.00zM0.00,0.00L210.00,0.00L210.00,150.00L0.00,150.00z"/><path style="fill:#000000;fill-opacity:0.118" d="M3.00,150.00L210.00,150.00L210.00,3.00L213.00,3.00L213.00,153.00L3.00,153.00z"/></g><g id="hotspot.0" onmouseover="ShowHotSpot(evt,'0')" onmouseout="HideHotSpot(evt,'0')" onmousemove="ShowToolTip(evt,'0',&quot;BA1043&quot;)" opacity="0"><path style="fill:#00ff00;fill-rule:evenodd" d="M46.43,21.19L47.47,22.53L47.72,24.74L47.20,26.86L46.29,28.59L44.45,30.71L42.63,31.80L40.58,31.80L31.37,26.48L30.75,26.04L30.28,24.93L30.29,22.63L30.54,21.29L31.60,19.19L32.84,17.52L35.21,15.92L37.17,15.92zM46.43,56.85L47.47,58.20L47.72,60.40L47.20,62.52L46.29,64.25L44.45,66.37L42.63,67.46L40.58,67.46L31.37,62.14L30.53,61.39L30.27,60.59L30.29,58.29L30.54,56.95L31.60,54.85L32.57,53.44L35.21,51.58L37.17,51.58zM198.85,67.68L198.84,72.84L198.55,73.34L172.12,73.27L172.12,67.52L198.59,67.41zM153.94,83.26L155.25,84.87L155.23,87.61L154.97,88.66L153.94,90.81L152.09,92.92L150.49,93.96L148.63,94.16L138.87,88.56L138.34,88.04L138.05,87.28L138.05,84.17L138.59,82.59L140.34,79.85L142.20,78.54L143.24,78.00L144.68,78.00zM153.65,118.69L154.74,119.71L155.24,120.80L155.23,123.27L154.97,124.32L153.94,126.47L152.09,128.58L150.49,129.62L148.63,129.82L138.87,124.22L138.34,123.70L138.05,122.94L138.05,119.82L139.15,117.22L140.43,115.60L142.20,114.20L143.52,113.67L144.68,113.66z"/></g><g id="hotspot.1" onmouseover="ShowHotSpot(evt,'1')" onmouseout="HideHotSpot(evt,'1')" onmousemove="ShowToolTip(evt,'1',&quot;F24623297&quot;)" opacity="0"><path style="fill:#00ff00;fill-rule:evenodd" d="M108.46,49.23L108.76,49.73L109.01,56.46L114.74,53.16L115.34,53.16L127.23,60.05L127.26,107.45L114.74,114.74L113.48,114.74L112.85,114.47L107.35,117.66L106.08,117.66L95.71,111.65L95.53,104.40L95.21,104.38L89.64,107.62L88.65,107.63L84.96,105.46L84.36,105.46L63.47,117.62L62.23,117.66L56.73,114.47L55.55,115.03L55.15,114.99L53.98,114.29L53.98,66.66L96.25,42.32L96.59,42.33zM198.85,77.72L198.84,82.87L198.55,83.38L172.12,83.31L172.12,77.56L198.59,77.45z"/></g></g></svg>
