<?xml version="1.0" encoding="UTF-8" standalone="no"?>
<svg xmlns="http://www.w3.org/2000/svg" xmlns:xlink="http://www.w3.org/1999/xlink" width="210.000mm" height="150.000mm" viewBox="0.000000 0.000000 210.000000 150.000000" stroke-linejoin="round" stroke-linecap="round" fill="none" fill-rule="evenodd"><desc>Composer Export</desc><script type="text/ecmascript"><![CDATA[
if(typeof(top) != "undefined")
{
	top.ShowPaper = ShowPaper;
}
function ShowHotSpot(evt,hotspotid)
{
	var svgDocument = evt.target.ownerDocument;
	var strId = "hotspot."+hotspotid;
	var hotspot = svgDocument.getElementById(strId);
	if(hotspot)
		hotspot.setAttribute("opacity",".5");
}
function HideHotSpot(evt,hotspotid)
{
	var svgDocument = evt.target.ownerDocument;
	var strId = "hotspot."+hotspotid;
	var hotspot = svgDocument.getElementById(strId);
	if(hotspot)
		hotspot.setAttribute("opacity","0");

	var toolTip = svgDocument.getElementById('ToolTip');
	if(toolTip)
		toolTip.setAttribute("visibility","hidden");
}
function ShowToolTip(evt,hotspotid,strTooltip)
{
	if(strTooltip=="")
	return;

	// change text
	var svgDocument = evt.target.ownerDocument;
	var tiptext = svgDocument.getElementById('ToolTipText');
	if( !tiptext )
	return;
	tiptext.firstChild.nodeValue = " " + strTooltip + "  " ;

	// show tooltip before, else some refresh issue

	var toolTip = svgDocument.getElementById('ToolTip');
	if(!toolTip)
	return;

	toolTip.setAttribute("visibility","visible");
	toolTip.setAttribute("opacity",".95");

	// move tooltip
	// get viewbox

	var root = svgDocument.documentElement;
	var vbox = (root.getAttribute("viewBox")).split(' ');
	var x0 = parseFloat(vbox[0]);
	var y0 = parseFloat(vbox[1]);
	var vboxW = parseFloat(vbox[2]);
	var vboxH = parseFloat(vbox[3]);

	// get default width of svg

	var strW = root.getAttribute("width");
	var svgW = parseFloat(strW);
	if(strW.indexOf('mm') != -1)
	svgW *= 3.779;

	var strH = root.getAttribute("height");
	var svgH = parseFloat(strH);
	if(strH.indexOf('mm') != -1)
	svgH *= 3.779;  	// 96 dpi  -> 96/25.4 = 3.779

	// update the viewbox / width / height if svg is embedded in html with zoom fit all
	var realx0 = x0;
	var realy0 = y0;
	var realvboxW = vboxW;
	var realvboxH = vboxH;
	var realsvgW = svgW;
	var realsvgH = svgH;

	if ((typeof(top) == "undefined") || (typeof(top.svgctl1) != "undefined")) // embedded in html
	{
		// get window size in pxl

		svgW = window.innerWidth;
		svgH = window.innerHeight;

		// calculate real viewbox

		realsvgW = svgW;
		realsvgH = svgH;
		if((svgW / svgH) > (vboxW / vboxH))
		{
			realvboxW = (vboxH * svgW) / svgH;
			realvboxH = vboxH;
			realx0 = x0 - (realvboxW - vboxW)/2 ;
		}
		else
		{
			realvboxH = (vboxW * svgH) / svgW;
			realvboxW = vboxW;
			realy0 = y0 - (realvboxH - vboxH)/2 ;
		}
	}

	// get user zoom/pan

	var newScale = root.currentScale;
	var translation = root.currentTranslate;

	// transform pxl to user unit

	var xPos = (((evt.clientX+10- translation.x)/newScale) * realvboxW)/realsvgW  + realx0 ;
	var yPos = (((evt.clientY+5- translation.y)/newScale) * realvboxH)/ realsvgH  + realy0 ;
	var scaleForWidth = ( (1 / newScale) * realvboxH) / realsvgH;

	// move tooltip

	toolTip.setAttribute("transform", "translate(" + xPos + "," + yPos + ")" );

	// resize tooltip

	var fontsize = 12;
	tiptext.setAttribute("font-size",fontsize*scaleForWidth);
	tiptext.setAttribute("y", fontsize*scaleForWidth);
	var tipBG = svgDocument.getElementById('ToolTipBG');
	var outline = tiptext.getBBox();
	if(tipBG)
	{
		tipBG.setAttribute("stroke-width", 1*scaleForWidth);
		tipBG.setAttribute("width", Number(outline.width) );
		tipBG.setAttribute("height", Number(outline.height) + fontsize*.5*scaleForWidth );
	}
	var ToolTipShadow = svgDocument.getElementById('ToolTipShadow');
	if(ToolTipShadow)
	{
		ToolTipShadow.setAttribute("width", Number(outline.width) );
		ToolTipShadow.setAttribute("height", Number(outline.height) + fontsize*.5*scaleForWidth );
		ToolTipShadow.setAttribute("x", 3*scaleForWidth);
		ToolTipShadow.setAttribute("y", 3*scaleForWidth);
	}
}
function ShowPaper()
{
  var svgDocument = getDocument();
  var paper = svgDocument.getElementById("paperID");
  if(paper)
  {
    paper.setAttribute("transform","scale(1)");
    paper.setAttribute("opacity","1");
    paper.setAttribute("visibility","visible");
  }
  var svg = svgDocument.getRootElement();
  if(svg)
  {
    svg.setAttribute("width","220.000mm");
    svg.setAttribute("height","160.000mm");
    svg.setAttribute("viewBox","-5.000000 -5.000000 220.000000 160.000000");
  }
}
]]></script><defs/><g><path style="fill:#ffffff" d="M45.16,93.34L41.97,93.34L39.42,93.71L36.79,94.47L34.46,95.65L33.12,96.62L32.39,97.45L31.71,98.47L31.34,99.56L31.23,103.81L29.41,105.27L28.40,106.19L27.82,106.82L27.83,112.73L31.22,114.67L31.34,128.97L31.46,129.46L32.12,130.72L31.89,130.89L31.19,131.76L30.49,133.12L29.64,134.94L28.71,135.49L28.56,130.78L28.08,130.05L27.34,129.45L26.14,128.96L25.53,128.85L23.19,128.85L22.58,128.96L21.53,129.37L20.63,130.05L20.19,130.70L20.19,142.18L20.43,143.03L21.06,144.07L21.08,149.99L0.04,149.97L0.04,0.04L209.95,0.04L209.95,149.97L129.41,149.99L129.49,142.10L130.84,141.26L130.83,136.23L130.35,135.50L129.25,134.78L125.62,132.71L125.21,132.71L123.43,133.73L122.71,134.22L122.71,139.39L123.79,140.36L123.84,149.99L115.11,149.99L115.08,139.74L114.59,139.39L97.63,129.56L97.22,129.57L95.77,129.94L93.95,130.66L92.01,131.76L89.10,133.94L87.97,135.07L86.78,135.71L86.84,117.38L88.17,116.65L88.17,111.64L87.82,110.90L86.72,110.18L82.97,107.99L82.55,107.99L80.05,109.50L80.06,114.79L81.15,115.75L81.15,125.62L81.02,125.98L78.07,130.53L69.16,135.68L63.01,139.20L62.97,136.00L56.19,132.11L55.35,131.02L55.02,130.73L55.66,129.46L55.94,128.28L55.94,100.01L55.58,98.68L54.75,97.32L54.62,97.21L53.96,97.22L52.27,97.71L49.52,98.84L49.40,94.19L48.31,93.83L46.37,93.47z"/><path style="fill:#bfbfbf" d="M55.35,131.02L56.19,132.11L62.97,136.00L63.01,139.20L60.87,140.49L60.90,140.71L60.14,141.21L60.63,141.21L61.36,141.09L66.57,138.04L66.85,138.04L73.45,141.89L73.11,142.30L72.17,144.14L66.81,147.26L66.77,149.99L45.93,149.99L46.13,149.83L46.14,149.70L45.72,149.56L44.96,149.99L21.08,149.99L21.06,144.07L21.16,139.91L28.71,135.49L29.64,134.94L30.49,133.12L31.19,131.76L31.89,130.89L32.12,130.72L32.93,131.63L33.03,135.28L33.40,136.12L34.02,137.08L35.23,138.17L36.91,139.15L39.45,140.00L41.76,140.36L45.48,140.36L48.06,139.91L50.45,139.02L52.26,137.92L53.36,136.73L53.88,135.91L54.13,135.32L54.24,134.46L54.37,131.43L55.02,130.73z"/><path style="fill:#f9840c" d="M86.36,23.30L86.73,23.66L86.83,43.55L87.09,43.90L87.20,47.67L87.69,49.23L87.81,57.15L87.69,57.52L87.34,57.89L86.44,58.33L84.89,58.33L83.94,57.83L83.56,57.24L83.57,53.52L83.68,49.27L84.18,47.70L84.30,43.83L84.55,43.59L84.66,23.59L85.47,23.18z"/><path style="fill:#f9840c" d="M129.26,48.14L129.50,48.50L129.49,68.26L129.74,68.49L129.85,72.27L130.34,73.83L130.47,82.00L130.23,82.48L129.87,82.74L128.97,83.05L127.67,83.05L126.82,82.68L126.59,82.55L126.21,81.84L126.22,78.48L126.33,74.11L126.83,72.54L126.94,68.78L127.19,68.30L127.43,48.19L128.12,47.90L128.65,47.90z"/><path style="fill:#afafaf" d="M26.14,128.96L27.34,129.45L28.08,130.05L28.56,130.78L28.71,135.49L21.16,139.91L21.06,144.07L20.43,143.03L20.19,142.18L20.19,130.70L20.63,130.05L21.53,129.37L22.58,128.96L23.19,128.85L25.53,128.85z"/><path style="fill:#494949" d="M105.51,145.19L105.54,149.99L66.77,149.99L66.81,147.26L72.17,144.14L73.11,142.30L73.45,141.89L74.80,140.72L76.50,139.75L78.68,138.90L80.74,138.42L82.56,138.18L86.78,135.71L87.97,135.07L88.17,135.15z"/><path style="fill:#4c4c4c" d="M95.92,66.94L96.50,66.94L97.94,66.07L98.35,66.07L99.55,66.82L99.81,67.29L99.93,69.23L99.94,75.57L98.91,75.53L98.96,85.35L99.44,85.59L99.93,85.94L99.94,93.03L85.82,101.22L85.38,101.23L79.45,97.83L79.45,90.22L79.57,90.19L79.70,90.30L80.01,90.33L80.07,89.09L79.41,88.65L79.46,88.06L79.57,87.94L79.57,87.04L79.46,86.91L79.45,74.73L80.49,73.34L84.05,71.33L84.30,70.61L85.22,70.20L86.20,70.08L93.81,65.72z"/><path style="fill:#4c4c4c" d="M138.70,91.66L139.15,91.66L140.89,90.68L142.09,91.40L142.46,91.88L142.58,93.95L142.58,100.17L141.56,100.24L141.57,109.98L142.58,110.55L142.59,117.75L128.47,125.93L128.03,125.95L122.06,122.46L122.10,117.13L122.22,114.90L122.46,115.05L122.67,115.04L122.71,113.70L122.22,113.46L122.23,99.33L123.26,98.05L126.69,96.04L127.07,95.33L127.79,94.95L128.85,94.80L136.53,90.44z"/><path style="fill:#bfbfbf" d="M114.59,139.39L115.08,139.74L115.11,149.99L105.54,149.99L105.51,145.19L88.17,135.15L87.97,135.07L89.10,133.94L92.01,131.76L93.95,130.66L95.77,129.94L97.22,129.57L97.63,129.56z"/><path style="fill:#bfbfbf" d="M79.69,141.45L80.19,141.80L80.07,141.98L79.17,142.30L78.11,142.30L77.58,142.09L77.63,141.73L78.56,141.33L79.21,141.33z"/><path style="fill:#1c1c1c" d="M46.37,93.47L48.31,93.83L49.40,94.19L49.52,98.84L52.27,97.71L53.96,97.22L54.62,97.21L54.75,97.32L55.58,98.68L55.94,100.01L55.94,128.28L55.66,129.46L55.02,130.73L54.37,131.43L54.24,134.46L54.13,135.32L53.88,135.91L53.36,136.73L52.26,137.92L50.45,139.02L48.06,139.91L45.48,140.36L41.76,140.36L39.45,140.00L36.91,139.15L35.23,138.17L34.02,137.08L33.40,136.12L33.03,135.28L32.93,131.63L32.12,130.72L31.46,129.46L31.34,128.97L31.22,114.67L27.83,112.73L27.82,106.82L28.40,106.19L29.41,105.27L31.23,103.81L31.34,99.56L31.71,98.47L32.39,97.45L33.12,96.62L34.46,95.65L36.79,94.47L39.42,93.71L41.97,93.34L45.16,93.34z"/><path style="fill:#1c1c1c" d="M86.72,110.18L87.82,110.90L88.17,111.64L88.17,116.65L86.84,117.38L86.78,135.71L82.56,138.18L80.74,138.42L78.68,138.90L76.50,139.75L74.80,140.72L73.45,141.89L66.85,138.04L66.57,138.04L61.36,141.09L60.63,141.21L60.14,141.21L60.90,140.71L60.87,140.49L63.01,139.20L69.16,135.68L78.07,130.53L81.02,125.98L81.15,125.62L81.15,115.75L80.06,114.79L80.05,109.50L82.55,107.99L82.97,107.99z"/><path style="fill:#1c1c1c" d="M129.25,134.78L130.35,135.50L130.83,136.23L130.84,141.26L129.49,142.10L129.41,149.99L123.84,149.99L123.79,140.36L122.71,139.39L122.71,134.22L123.43,133.73L125.21,132.71L125.62,132.71z"/><path style="fill:#1c1c1c" d="M46.14,149.70L46.13,149.83L45.93,149.99L44.96,149.99L45.72,149.56z"/><path style="stroke:#000000;stroke-width:0.088" d="M73.49,141.89L66.73,137.98L61.24,141.15L60.14,141.27L59.07,141.44L58.03,141.68L57.34,141.88L57.03,141.96L56.09,142.30L55.20,142.69L54.37,143.12L53.62,143.60L52.95,144.11L52.36,144.66L51.86,145.24L51.46,145.84L51.15,146.45L50.94,147.09L45.89,150.00"/><path style="stroke:#000000;stroke-width:0.088" d="M72.51,143.34L71.97,143.10L70.95,142.74L69.88,142.44L68.77,142.19L67.62,142.01L66.45,141.89L65.26,141.84L64.07,141.85L62.88,141.92L61.71,142.06L60.57,142.26L59.47,142.52L58.41,142.83L57.42,143.21L56.48,143.64L55.62,144.11L54.84,144.63L54.15,145.19L53.55,145.79L53.05,146.41L52.66,147.06L52.37,147.73L52.19,148.41L52.12,149.10L52.17,149.79L52.22,150.00"/><path style="stroke:#000000;stroke-width:0.088" d="M58.45,150.00L58.26,149.75L58.06,149.39L57.91,149.02L57.82,148.64L57.80,148.26L57.80,148.23"/><path style="stroke:#000000;stroke-width:0.088" d="M58.61,150.00L58.35,149.69L58.13,149.33L57.96,148.96L57.85,148.59L57.80,148.21L57.80,148.26"/><path style="stroke:#000000;stroke-width:0.088" d="M57.80,148.21L57.82,147.82L57.89,147.45L58.03,147.07L58.23,146.71L58.48,146.36L58.79,146.02L59.16,145.71L59.57,145.41L60.03,145.14L60.53,144.89L61.07,144.67L61.65,144.48L62.25,144.33L62.87,144.20L63.51,144.11L64.17,144.06L64.83,144.04L65.48,144.06L66.14,144.11L66.78,144.20L67.40,144.32L68.01,144.48L68.58,144.67L69.12,144.89L69.62,145.13L69.81,145.24L70.06,145.39"/><path style="stroke:#000000;stroke-width:0.088" d="M60.96,150.00L60.81,149.90L60.54,149.68L60.30,149.44L60.11,149.19L59.95,148.92L59.84,148.66L59.77,148.38L59.75,148.11L59.77,147.83L59.84,147.56L59.95,147.29L60.10,147.03L60.30,146.78L60.53,146.54L60.80,146.32L61.11,146.11L61.45,145.91L61.82,145.74L62.22,145.59L62.64,145.46L63.08,145.35L63.53,145.27L64.00,145.21L64.47,145.18L64.95,145.17L65.42,145.19L65.89,145.24L66.35,145.31L66.80,145.40L67.23,145.52L67.64,145.66L68.03,145.82L68.38,146.01L68.67,146.19"/><path style="stroke:#000000;stroke-width:0.088" d="M61.06,150.00L61.01,149.96L60.80,149.75L60.63,149.53L60.49,149.29L60.39,149.06L60.33,148.81L60.31,148.57L60.33,148.32L60.39,148.08L60.49,147.84L60.63,147.61L60.80,147.39L61.01,147.18L61.25,146.98L61.52,146.79L61.83,146.62L62.16,146.46L62.51,146.33L62.88,146.21L63.27,146.12L63.68,146.04L64.09,145.99L64.51,145.96L64.93,145.96L65.36,145.97L65.78,146.01L66.18,146.08L66.58,146.16L66.97,146.27L67.33,146.39L67.67,146.54L67.88,146.64"/><path style="stroke:#000000;stroke-width:0.088" d="M87.25,57.77L87.10,57.86L86.94,57.93L86.78,58.00L86.60,58.05L86.42,58.10L86.22,58.13L86.03,58.15L85.83,58.17L85.63,58.17L85.43,58.16L85.23,58.14L85.04,58.11L84.85,58.07L84.67,58.02L84.50,57.97L84.34,57.90L84.15,57.80L84.01,57.71L83.93,57.65L83.78,57.52L83.69,57.42L83.61,57.31L83.59,57.25L83.55,57.19L83.52,57.08L83.50,56.96L83.50,53.92L83.50,53.95L83.52,54.07L83.56,54.18L83.62,54.29L83.70,54.40L83.80,54.51L83.91,54.61L84.04,54.70L84.18,54.78L84.34,54.86L84.50,54.93L84.68,54.99L84.87,55.04L85.06,55.08L85.26,55.11L85.46,55.12L85.66,55.13L85.87,55.13L86.07,55.11L86.27,55.08L86.47,55.05L86.65,55.00L86.83,54.94L87.00,54.87L87.22,54.76L87.30,54.71L87.43,54.62L87.55,54.52L87.64,54.42L87.72,54.31L87.79,54.20L87.83,54.08L87.86,53.97L87.86,53.85L87.86,56.90L87.85,57.02L87.82,57.13L87.78,57.25L87.71,57.36L87.63,57.47L87.53,57.57L87.41,57.67L87.28,57.76L87.13,57.84L86.97,57.91L86.80,57.98L86.62,58.04L86.49,58.07L86.24,58.12L86.04,58.14L85.83,58.16L85.63,58.16L85.49,58.15L85.22,58.13L85.02,58.10L84.83,58.06L84.65,58.01L84.47,57.95L84.28,57.87L84.17,57.81"/><path style="stroke:#000000;stroke-width:0.088" d="M83.50,53.92L83.50,53.83L83.50,53.92"/><path style="stroke:#000000;stroke-width:0.088" d="M83.62,53.45L83.55,53.60L83.51,53.71L83.50,53.83"/><path style="stroke:#000000;stroke-width:0.088" d="M84.26,58.07L84.12,57.99L84.00,57.90L83.90,57.81L83.81,57.71L83.73,57.60L83.68,57.49L83.64,57.37L83.67,57.48L83.73,57.58L83.80,57.69L83.89,57.79L83.99,57.88L84.11,57.97L84.24,58.05L84.39,58.13L84.55,58.19L84.66,58.23L84.89,58.30L85.07,58.33L85.26,58.36L85.45,58.38L85.64,58.39L85.83,58.38L86.03,58.37L86.21,58.34L86.40,58.31L86.58,58.27L86.75,58.21L86.91,58.15L87.06,58.08L87.19,58.00L87.32,57.92L87.43,57.82L87.52,57.73L87.60,57.63L87.66,57.52L87.71,57.41L87.71,57.37L87.70,57.42L87.66,57.53L87.60,57.64L87.52,57.75L87.42,57.85L87.31,57.94L87.18,58.02L87.05,58.10L86.90,58.17L86.74,58.24L86.57,58.29L86.39,58.33L86.21,58.37L86.02,58.39L85.83,58.40L85.64,58.41L85.45,58.40L85.26,58.38L85.07,58.35L84.97,58.33L84.72,58.27L84.56,58.21L84.40,58.15L84.26,58.07"/><path style="stroke:#000000;stroke-width:0.088" d="M84.19,57.82L84.15,57.80"/><path style="stroke:#000000;stroke-width:0.088" d="M83.63,57.33L83.64,57.37L83.63,57.33"/><path style="stroke:#000000;stroke-width:0.088" d="M83.62,49.53L83.62,53.84L83.64,53.96L83.68,54.06L83.74,54.17L83.81,54.27L83.90,54.37L84.01,54.47L84.13,54.55L84.22,54.61L84.41,54.71L84.57,54.77L84.74,54.83L84.91,54.87L85.09,54.91L85.28,54.94L85.47,54.95L85.69,54.96L85.86,54.96L86.05,54.94L86.24,54.92L86.45,54.87L86.60,54.84L86.77,54.78L86.93,54.72L87.09,54.64L87.21,54.57L87.33,54.48L87.44,54.39L87.53,54.29L87.61,54.19L87.68,54.07L87.71,53.97L87.74,53.86L87.74,53.71L87.74,49.53L87.74,49.64L87.72,49.75L87.68,49.85L87.62,49.97L87.54,50.07L87.45,50.17L87.34,50.26L87.22,50.35L87.09,50.43L86.94,50.50L86.79,50.56L86.61,50.62L86.43,50.67L86.25,50.70L86.06,50.73L85.87,50.74L85.68,50.75L85.49,50.74L85.29,50.73L85.11,50.70L84.92,50.66L84.75,50.62L84.58,50.56L84.42,50.50L84.22,50.40L84.14,50.35L84.02,50.26L83.91,50.17L83.82,50.07L83.74,49.97L83.69,49.86L83.65,49.75L83.62,49.64L83.62,49.53L83.63,49.42L83.67,49.29"/><path style="stroke:#000000;stroke-width:0.088" d="M84.07,53.15L84.05,53.07L84.02,52.91L84.01,52.76L84.01,52.59L84.02,52.43L84.05,52.25L84.07,52.18L84.10,52.14L84.12,52.12L84.15,52.11L84.18,52.11L84.22,52.12L84.26,52.15L84.30,52.19L84.33,52.25L84.39,52.38L84.43,52.49L84.44,52.57L84.46,52.68L84.47,52.83L84.46,53.02L84.45,53.15L84.41,53.29L84.38,53.36L84.35,53.40L84.31,53.42L84.26,53.43L84.22,53.41L84.18,53.37L84.14,53.33L84.11,53.27L84.08,53.20L84.05,53.09"/><path style="stroke:#000000;stroke-width:0.088" d="M83.62,53.71L83.62,53.73"/><path style="stroke:#000000;stroke-width:0.088" d="M84.02,52.40L84.02,52.41"/><path style="stroke:#000000;stroke-width:0.088" d="M84.03,52.31L84.03,52.37"/><path style="stroke:#000000;stroke-width:0.088" d="M83.67,49.30L84.23,47.50"/><path style="stroke:#000000;stroke-width:0.088" d="M84.23,47.53L84.23,47.63L84.25,47.71L84.28,47.79L84.32,47.86L84.37,47.93L84.43,48.00L84.51,48.07L84.65,48.17L84.79,48.24L84.90,48.28L85.02,48.32L85.15,48.35L85.28,48.38L85.41,48.40L85.54,48.41L85.68,48.41L85.82,48.41L85.95,48.40L86.08,48.38L86.21,48.36L86.34,48.32L86.46,48.28L86.57,48.24L86.67,48.19L86.77,48.13L86.86,48.07L86.93,48.01L87.00,47.94L87.05,47.86L87.09,47.79L87.12,47.71L87.13,47.63L87.14,47.54"/><path style="stroke:#000000;stroke-width:0.088" d="M84.23,47.55L84.23,44.07L84.25,43.99L84.28,43.91L84.32,43.84L84.39,43.74"/><path style="stroke:#000000;stroke-width:0.088" d="M84.23,44.15L84.24,44.23L84.26,44.30L84.30,44.38L84.34,44.45L84.40,44.52L84.47,44.59L84.55,44.65L84.64,44.71L84.74,44.77L84.85,44.81L84.96,44.86L85.09,44.89L85.21,44.92L85.34,44.94L85.48,44.96L85.61,44.97L85.75,44.97L85.89,44.96L86.02,44.94L86.15,44.92L86.28,44.89L86.40,44.86L86.52,44.82L86.62,44.77L86.73,44.71L86.82,44.65L86.90,44.59L86.97,44.53L87.03,44.45L87.07,44.38L87.11,44.31L87.13,44.23L87.14,44.15L87.14,47.59"/><path style="stroke:#000000;stroke-width:0.088" d="M86.79,23.83L86.79,23.77L86.77,23.71L86.75,23.65L86.72,23.59L86.68,23.54L86.63,23.49L86.58,23.44L86.44,23.35L86.28,23.28L86.10,23.22L85.90,23.19L85.70,23.18L85.49,23.19L85.30,23.22L85.11,23.28L84.95,23.35L84.82,23.44L84.76,23.49L84.71,23.54L84.67,23.59L84.64,23.65L84.62,23.71L84.61,23.77L84.61,23.83L84.61,23.89L84.63,23.94L84.66,24.00L84.69,24.06L84.74,24.11L84.83,24.19L84.92,24.25L85.07,24.33L85.25,24.39L85.45,24.42L85.65,24.44L85.85,24.44L85.95,24.42L86.15,24.39L86.32,24.33L86.48,24.25L86.55,24.21L86.61,24.16L86.66,24.11L86.70,24.06L86.74,24.00L86.77,23.94L86.78,23.88L86.79,23.83L86.78,43.63L86.77,43.69L86.75,43.75L86.73,43.80L86.69,43.86L86.65,43.91L86.60,43.96L86.54,44.01L86.39,44.09L86.23,44.16L86.04,44.21L85.84,44.24L85.63,44.24L85.43,44.22L85.24,44.19L85.06,44.13L84.91,44.05L84.84,44.01L84.78,43.96L84.72,43.91L84.68,43.86L84.64,43.80L84.62,43.74L84.60,43.69L84.59,43.62"/><path style="stroke:#000000;stroke-width:0.088" d="M84.59,43.63L84.61,23.83"/><path style="stroke:#000000;stroke-width:0.088" d="M84.59,43.48L84.37,43.76"/><path style="stroke:#000000;stroke-width:0.088" d="M86.78,43.48L87.00,43.77L86.98,43.74"/><path style="stroke:#000000;stroke-width:0.088" d="M87.00,43.77L87.05,43.84L87.09,43.91L87.12,43.99L87.14,44.07L87.14,44.15"/><path style="stroke:#000000;stroke-width:0.088" d="M87.28,57.76L87.24,57.78"/><path style="stroke:#000000;stroke-width:0.088" d="M87.72,57.34L87.71,57.37"/><path style="stroke:#000000;stroke-width:0.088" d="M87.74,49.53L87.73,49.42L87.69,49.29"/><path style="stroke:#000000;stroke-width:0.088" d="M87.70,49.31L87.14,47.50"/><path style="stroke:#000000;stroke-width:0.088" d="M87.14,47.55L87.14,47.51"/><path style="stroke:#000000;stroke-width:0.088" d="M87.86,53.85L87.85,53.73L87.82,53.61L87.77,53.50L87.74,53.46"/><path style="stroke:#000000;stroke-width:0.088" d="M21.09,150.00L21.10,139.93L22.30,141.41L23.72,142.81L25.34,144.15L27.15,145.39L29.14,146.55L31.30,147.60L33.60,148.53L36.04,149.36L38.40,150.00"/><path style="stroke:#000000;stroke-width:0.088" d="M21.10,139.93L29.68,134.98L29.89,134.35L30.19,133.73L30.38,133.45"/><path style="stroke:#000000;stroke-width:0.088" d="M27.80,112.71L27.81,106.91L27.81,106.86L27.84,106.78L27.92,106.66L29.19,105.47L30.49,104.38L31.80,103.39L33.13,102.52L37.93,105.30L36.60,106.17L35.29,107.16L33.99,108.25L32.72,109.44L32.65,109.54L32.62,109.62L32.61,109.69L32.61,115.49L27.80,112.71"/><path style="stroke:#000000;stroke-width:0.088" d="M32.61,109.69L27.81,106.91"/><path style="stroke:#000000;stroke-width:0.088" d="M27.92,106.66L32.72,109.44"/><path style="stroke:#000000;stroke-width:0.088" d="M31.21,128.02L31.27,128.70L31.45,129.37L31.73,130.02L32.11,130.65L32.60,131.26L33.18,131.84L33.85,132.38L34.61,132.89L35.45,133.35L36.36,133.77L37.33,134.13L38.36,134.44L39.44,134.70L40.55,134.89L41.68,135.03L42.84,135.10L43.99,135.11L45.15,135.05L46.29,134.94L47.41,134.76L48.50,134.52L49.54,134.23L50.53,133.88L51.47,133.47L52.31,133.03L53.09,132.53L53.79,132.00L54.40,131.43L54.92,130.83L55.33,130.20L55.64,129.56L55.84,128.90L55.94,128.23L55.94,127.88L55.94,128.23"/><path style="stroke:#000000;stroke-width:0.088" d="M31.20,128.03L31.21,127.88L31.21,128.05"/><path style="stroke:#000000;stroke-width:0.088" d="M31.21,127.88L31.22,114.69"/><path style="stroke:#000000;stroke-width:0.088" d="M31.23,103.82L31.23,100.74L31.33,101.39L31.53,102.04L31.84,102.67L32.16,103.16"/><path style="stroke:#000000;stroke-width:0.088" d="M49.38,98.94L49.38,94.13L48.53,93.89L47.47,93.65L46.37,93.48L45.25,93.36L44.12,93.30L42.98,93.30L41.85,93.36L40.73,93.49L39.64,93.67L38.58,93.90L37.56,94.20L36.60,94.54L35.69,94.94L34.85,95.38L34.08,95.87L33.39,96.39L32.79,96.95L32.29,97.54L31.87,98.15L31.56,98.78L31.35,99.42L31.24,100.08L31.23,100.74"/><path style="stroke:#000000;stroke-width:0.088" d="M32.90,131.56L32.90,134.14"/><path style="stroke:#000000;stroke-width:0.088" d="M32.61,115.49L37.57,112.63L37.80,112.70L37.80,106.76L38.66,106.99L39.72,107.23L40.81,107.41L41.93,107.52L43.07,107.58L44.20,107.58L45.34,107.52L46.28,107.42L46.45,107.40L47.55,107.22L48.61,106.98L49.62,106.69L50.56,106.35L51.50,105.94L52.34,105.50L53.11,105.02L53.79,104.49L54.39,103.93L54.90,103.35L54.94,103.29L55.31,102.73L55.63,102.10L55.84,101.46L55.95,100.80L55.95,100.23L55.94,127.88"/><path style="stroke:#000000;stroke-width:0.088" d="M33.13,102.52L39.99,98.56L44.79,101.34L46.12,100.68L46.63,100.47"/><path style="stroke:#000000;stroke-width:0.088" d="M33.29,113.91L36.72,111.93L36.73,108.14L36.38,107.94L33.58,110.12L33.49,110.21L33.39,110.36L33.32,110.52L33.29,110.68L33.29,113.91"/><path style="stroke:#000000;stroke-width:0.088" d="M33.59,110.11L36.72,111.93"/><path style="stroke:#000000;stroke-width:0.088" d="M34.61,132.89L34.96,133.09L34.89,133.04"/><path style="stroke:#000000;stroke-width:0.088" d="M34.96,133.09L35.77,133.54L36.64,133.94L37.58,134.29L38.57,134.59L39.60,134.83L40.66,135.02L41.45,135.11L41.76,135.15L42.86,135.22L43.98,135.22L45.09,135.17L46.19,135.06L47.26,134.89L48.30,134.66L49.30,134.38L50.25,134.04L51.15,133.66L51.97,133.23L52.31,133.03"/><path style="stroke:#000000;stroke-width:0.088" d="M36.73,108.14L36.70,108.01L36.66,107.94L36.62,107.91L36.57,107.90L36.51,107.90L36.38,107.94"/><path style="stroke:#000000;stroke-width:0.088" d="M36.50,100.57L37.46,99.89L38.75,99.07L38.79,98.85L38.87,98.60L39.00,98.35L39.16,98.11L39.36,97.88L39.59,97.66L39.86,97.46L40.16,97.27L40.49,97.10L40.85,96.94L41.23,96.80L41.63,96.69L42.04,96.60L42.47,96.53L42.91,96.48L43.29,96.46L38.75,99.07"/><path style="stroke:#000000;stroke-width:0.088" d="M37.57,112.63L37.80,112.50"/><path style="stroke:#000000;stroke-width:0.088" d="M37.80,106.76L38.99,105.65L40.47,104.41L42.06,103.23L43.90,102.05L44.28,102.03L44.72,101.98L45.14,101.91L45.56,101.82L45.96,101.70L46.34,101.57L46.69,101.41L47.02,101.24L47.32,101.05L47.59,100.84L47.83,100.62L48.03,100.39L48.19,100.15L48.31,99.90L48.40,99.65L48.44,99.43L49.73,98.75L51.57,97.94L53.09,97.43L54.53,97.11L54.94,97.60L55.35,98.21L55.65,98.85L55.85,99.49L55.95,100.15L55.95,100.23L55.95,100.15"/><path style="stroke:#000000;stroke-width:0.088" d="M37.93,105.30L44.79,101.34"/><path style="stroke:#000000;stroke-width:0.088" d="M38.68,150.00L47.17,145.10L47.17,148.27L44.17,150.00"/><path style="stroke:#000000;stroke-width:0.088" d="M39.99,98.56L41.32,97.90L42.63,97.37L43.93,96.97L45.20,96.69L49.22,99.02"/><path style="stroke:#000000;stroke-width:0.088" d="M43.29,96.46L45.13,95.52L46.72,94.86L48.20,94.39L49.38,94.13"/><path style="stroke:#000000;stroke-width:0.088" d="M43.90,102.05L48.44,99.43"/><path style="stroke:#000000;stroke-width:0.088" d="M46.28,149.78L45.79,149.50L44.92,150.00"/><path style="stroke:#000000;stroke-width:0.088" d="M49.24,99.01L45.26,96.70L45.28,96.72"/><path style="stroke:#000000;stroke-width:0.088" d="M45.26,96.70L45.20,96.69"/><path style="stroke:#000000;stroke-width:0.088" d="M47.17,148.27L48.26,148.15L49.45,147.95"/><path style="stroke:#000000;stroke-width:0.088" d="M47.17,145.10L48.26,144.98L49.33,144.81L50.37,144.57L51.37,144.28L52.32,143.95L53.21,143.56L54.03,143.12L54.78,142.65L55.45,142.14L56.04,141.59L56.54,141.01L56.95,140.41L57.26,139.79L57.46,139.16L62.95,135.99L56.14,132.05"/><path style="stroke:#000000;stroke-width:0.088" d="M54.24,131.58L54.24,134.17"/><path style="stroke:#000000;stroke-width:0.088" d="M55.95,101.61L55.95,100.70"/><path style="stroke:#000000;stroke-width:0.088" d="M57.46,141.84L57.46,139.16"/><path style="stroke:#000000;stroke-width:0.088" d="M58.95,141.47L62.95,139.16L62.95,135.99"/><path style="stroke:#000000;stroke-width:0.088" d="M60.03,141.28L61.00,140.73L60.69,140.55L63.02,139.20L63.02,139.24"/><path style="stroke:#000000;stroke-width:0.088" d="M62.95,139.16L63.02,139.20"/><path style="stroke:#000000;stroke-width:0.088" d="M66.72,150.00L66.72,147.31L72.21,144.14L72.42,143.51L72.73,142.89L73.14,142.29L73.63,141.72L74.22,141.17L74.90,140.66L75.65,140.18L76.47,139.75L77.36,139.36L78.31,139.02L79.30,138.73L80.34,138.50L81.41,138.32L82.51,138.20L88.00,135.03L87.97,135.01L87.97,135.05"/><path style="stroke:#000000;stroke-width:0.088" d="M66.72,147.31L71.37,150.00"/><path style="stroke:#000000;stroke-width:0.088" d="M97.01,150.00L97.21,149.81L97.73,149.21L98.16,148.57L98.48,147.93L98.70,147.26L98.81,146.58L98.81,145.90L98.71,145.30L98.70,145.23L98.48,144.56L98.16,143.91L97.74,143.27L97.21,142.67L96.60,142.09L95.89,141.55L95.10,141.05L94.23,140.59L93.29,140.18L92.30,139.82L91.25,139.52L90.15,139.27L89.02,139.09L87.87,138.96L87.74,138.95L86.70,138.90L85.52,138.90L84.36,138.96L83.20,139.08L82.20,139.25L82.07,139.27L80.98,139.51L79.93,139.81L78.93,140.17L78.06,140.55L77.12,141.03L76.33,141.54L75.99,141.80L75.62,142.08L75.00,142.65L74.48,143.26L74.06,143.89L73.73,144.54L73.52,145.21L73.41,145.89L73.41,146.56L73.52,147.24L73.73,147.91L74.05,148.56L74.48,149.19L75.00,149.80L75.21,150.00"/><path style="stroke:#000000;stroke-width:0.088" d="M77.71,142.17L77.69,142.05L77.70,141.98L77.72,141.92L77.79,141.79L77.84,141.73L77.96,141.63L78.12,141.53L78.21,141.49L78.31,141.46L78.51,141.40L78.73,141.37L78.85,141.37L79.07,141.37L79.19,141.38L79.40,141.43L79.57,141.48L78.13,142.32"/><path style="stroke:#000000;stroke-width:0.088" d="M77.47,141.71L77.45,141.76L77.45,141.83L77.46,141.88L77.48,141.94L77.51,142.00L77.61,142.11L77.76,142.20L77.94,142.27L78.18,142.32L78.38,142.35L78.51,142.36L78.77,142.35L79.10,142.31L79.40,142.25L79.73,142.13L79.93,142.03L80.11,141.91L80.24,141.79L80.32,141.66L80.35,141.60L80.36,141.54L80.36,141.48L80.35,141.42L80.33,141.36L80.29,141.30L80.25,141.25L80.13,141.15L79.96,141.07L79.76,141.01L79.54,140.97L79.29,140.95L79.03,140.96L78.78,140.98L78.51,141.04L78.28,141.10L78.06,141.19L77.96,141.23L77.78,141.34L77.63,141.45L77.53,141.58L77.49,141.64L77.47,141.71"/><path style="stroke:#000000;stroke-width:0.088" d="M79.57,141.48L79.64,141.46L79.68,141.46L79.46,141.39L79.22,141.34L79.09,141.33L78.84,141.32L78.71,141.33L78.46,141.36L78.23,141.42L78.13,141.46L77.91,141.57L77.73,141.70L77.65,141.77L77.59,141.85L77.51,141.99L77.53,141.94"/><path style="stroke:#000000;stroke-width:0.088" d="M80.09,141.92L80.06,141.86L80.02,141.79L79.92,141.68L79.83,141.63L79.73,141.59L78.41,142.35"/><path style="stroke:#000000;stroke-width:0.088" d="M78.75,142.35L79.92,141.68L79.99,141.66L80.03,141.66L80.07,141.69"/><path style="stroke:#000000;stroke-width:0.088" d="M80.05,141.67L80.14,141.76L80.20,141.83"/><path style="stroke:#000000;stroke-width:0.088" d="M79.68,141.46L79.58,141.43L79.71,141.48L79.73,141.51L79.73,141.59"/><path style="stroke:#000000;stroke-width:0.088" d="M80.01,141.66L79.92,141.60L79.73,141.51"/><path style="stroke:#000000;stroke-width:0.088" d="M87.97,135.01L88.81,134.22L90.06,133.16L91.34,132.21L92.63,131.39L93.92,130.70L95.20,130.15L96.07,129.85L96.24,129.95L96.24,129.80L113.80,139.96L113.79,150.00"/><path style="stroke:#000000;stroke-width:0.088" d="M88.00,135.03L105.53,145.17L105.52,150.00"/><path style="stroke:#000000;stroke-width:0.088" d="M96.24,129.95L113.63,140.01L113.62,150.00"/><path style="stroke:#000000;stroke-width:0.088" d="M96.24,129.80L97.51,129.51L115.07,139.67L113.80,139.96"/><path style="stroke:#000000;stroke-width:0.088" d="M99.20,150.00L99.48,149.57L99.79,148.96L100.00,148.32L105.49,145.16L105.49,150.00"/><path style="stroke:#000000;stroke-width:0.088" d="M100.00,150.00L100.00,148.32"/><path style="stroke:#000000;stroke-width:0.088" d="M105.53,145.17L106.37,144.38L107.62,143.32L108.90,142.37L110.19,141.55L111.48,140.86L112.76,140.31L113.63,140.01"/><path style="stroke:#000000;stroke-width:0.088" d="M113.70,150.00L113.71,140.35L113.63,140.40"/><path style="stroke:#000000;stroke-width:0.088" d="M113.63,140.30L113.71,140.35"/><path style="stroke:#000000;stroke-width:0.088" d="M115.06,150.00L115.07,139.67"/><path style="stroke:#000000;stroke-width:0.088" d="M21.58,139.66L21.52,139.67L21.49,139.67L21.44,139.69L21.40,139.71L21.41,139.75"/><path style="stroke:#000000;stroke-width:0.088" d="M21.40,139.72L21.40,139.76"/><path style="stroke:#000000;stroke-width:0.088" d="M21.41,139.70L29.69,134.93"/><path style="stroke:#000000;stroke-width:0.088" d="M126.41,82.26L126.37,82.18L126.34,82.07L126.33,82.04L126.34,82.08L126.38,82.20L126.43,82.31L126.51,82.41L126.60,82.51L126.70,82.61L126.82,82.70L126.95,82.78L127.10,82.85L127.25,82.92L127.42,82.97L127.59,83.02L127.80,83.06L127.96,83.09L128.15,83.10L128.34,83.11L128.53,83.11L128.72,83.09L128.91,83.07L129.09,83.04L129.27,82.99L129.44,82.94L129.60,82.88L129.74,82.81L129.88,82.73L130.01,82.64L130.12,82.55L130.21,82.45L130.29,82.35L130.36,82.24L130.40,82.13L130.42,82.04L130.40,82.12L130.36,82.22L130.30,82.33L130.22,82.43L130.13,82.53L130.02,82.62L129.89,82.71L129.76,82.79L129.61,82.86L129.45,82.92L129.28,82.97L129.10,83.02L128.91,83.05L128.72,83.07L128.53,83.09L128.34,83.09L128.15,83.08L127.96,83.07L127.77,83.04L127.59,83.00L127.41,82.95L127.25,82.90L127.09,82.83L126.94,82.76L126.81,82.67L126.69,82.59L126.59,82.49L126.50,82.39L126.43,82.29L126.41,82.26"/><path style="stroke:#000000;stroke-width:0.088" d="M126.86,82.51L127.04,82.60L127.20,82.67L127.37,82.73L127.55,82.78L127.74,82.82L127.93,82.85L128.13,82.87L128.33,82.88L128.53,82.87L128.73,82.86L128.92,82.83L129.11,82.80L129.30,82.75L129.47,82.70L129.64,82.64L129.80,82.56L129.87,82.52L129.67,82.62L129.50,82.68L129.32,82.74L129.13,82.79L128.94,82.82L128.74,82.85L128.53,82.86L128.33,82.86L128.12,82.86L127.92,82.84L127.72,82.81L127.53,82.77L127.35,82.71L127.17,82.65L127.01,82.58L126.85,82.51L126.71,82.42L126.63,82.35L126.48,82.23L126.39,82.12L126.31,82.01L126.27,81.93L126.25,81.90L126.21,81.78L126.20,81.66L126.20,78.53L126.20,78.65L126.22,78.77L126.23,78.80L126.26,78.89L126.32,79.00L126.40,79.11L126.50,79.21L126.61,79.31L126.74,79.40L126.90,79.50L127.03,79.57L127.20,79.63L127.38,79.69L127.56,79.74L127.76,79.78L127.96,79.81L128.16,79.83L128.36,79.83L128.57,79.83L128.77,79.81L128.97,79.79L129.16,79.75L129.35,79.70L129.55,79.64L129.70,79.58L129.92,79.47L130.00,79.42L130.13,79.33L130.24,79.23L130.34,79.12L130.42,79.02L130.49,78.90L130.53,78.79L130.55,78.67L130.56,78.55L130.55,78.43L130.52,78.32L130.47,78.20L130.44,78.16"/><path style="stroke:#000000;stroke-width:0.088" d="M126.32,78.41L126.32,78.55L126.34,78.66L126.38,78.77L126.44,78.88L126.51,78.98L126.60,79.08L126.71,79.17L126.83,79.26L126.92,79.32L127.11,79.41L127.27,79.48L127.43,79.53L127.61,79.58L127.79,79.62L127.98,79.64L128.17,79.66L128.36,79.67L128.56,79.66L128.75,79.65L128.94,79.62L129.12,79.59L129.30,79.54L129.47,79.49L129.63,79.42L129.79,79.34L129.91,79.27L130.03,79.19L130.14,79.09L130.23,79.00L130.31,78.89L130.37,78.79L130.41,78.68L130.43,78.57L130.44,78.45L130.44,74.24L130.44,74.35L130.41,74.46L130.37,74.57L130.32,74.67L130.25,74.77L130.15,74.88L130.04,74.97L129.92,75.06L129.78,75.14L129.64,75.21L129.49,75.27L129.31,75.33L129.13,75.37L128.95,75.41L128.76,75.43L128.57,75.45L128.38,75.45L128.18,75.45L127.99,75.43L127.80,75.41L127.62,75.37L127.45,75.32L127.28,75.27L127.12,75.20L126.92,75.10L126.84,75.05L126.72,74.96L126.61,74.87L126.52,74.77L126.45,74.68L126.39,74.56L126.35,74.45L126.32,74.34L126.32,74.23L126.33,74.12L126.37,73.99"/><path style="stroke:#000000;stroke-width:0.088" d="M126.20,78.53L126.21,78.42L126.25,78.30L126.32,78.16"/><path style="stroke:#000000;stroke-width:0.088" d="M126.32,78.44L126.32,74.23"/><path style="stroke:#000000;stroke-width:0.088" d="M126.37,74.01L126.93,72.20"/><path style="stroke:#000000;stroke-width:0.088" d="M126.89,82.52L126.85,82.51"/><path style="stroke:#000000;stroke-width:0.088" d="M127.04,78.11L127.01,78.13L126.99,78.13L126.94,78.13L126.90,78.10L126.84,78.03L126.81,77.97L126.77,77.86L126.75,77.78L126.72,77.61L126.71,77.47L126.71,77.29L126.72,77.13L126.73,77.02L126.75,76.95L126.77,76.88L126.81,76.83L126.85,76.81L126.88,76.82L126.93,76.83L126.97,76.87L127.02,76.93L127.06,77.00L127.09,77.08L127.13,77.20L127.14,77.28L127.16,77.38L127.17,77.54L127.16,77.72L127.15,77.85L127.11,78.00L127.08,78.06L127.04,78.11"/><path style="stroke:#000000;stroke-width:0.088" d="M126.77,77.86L126.75,77.80"/><path style="stroke:#000000;stroke-width:0.088" d="M126.73,77.02L126.72,77.08"/><path style="stroke:#000000;stroke-width:0.088" d="M126.72,77.11L126.72,77.10"/><path style="stroke:#000000;stroke-width:0.088" d="M126.93,72.23L126.93,72.33L126.95,72.41L126.97,72.49L127.01,72.56L127.07,72.64L127.13,72.71L127.21,72.77L127.34,72.86L127.49,72.94L127.60,72.99L127.72,73.03L127.85,73.06L127.98,73.08L128.11,73.10L128.24,73.11L128.38,73.12L128.52,73.11L128.65,73.10L128.78,73.08L128.91,73.06L129.10,73.01L129.27,72.94L129.37,72.89L129.47,72.84L129.55,72.78L129.63,72.71L129.69,72.64L129.75,72.57L129.79,72.49L129.82,72.42L129.83,72.34L129.84,72.25"/><path style="stroke:#000000;stroke-width:0.088" d="M126.93,72.25L126.93,68.77L126.95,68.69L126.98,68.62L127.02,68.54L127.09,68.45"/><path style="stroke:#000000;stroke-width:0.088" d="M126.93,68.85L126.94,68.93L126.96,69.01L127.00,69.08L127.02,69.12L127.10,69.23L127.17,69.29L127.25,69.36L127.34,69.42L127.44,69.47L127.55,69.52L127.66,69.56L127.79,69.60L127.91,69.63L128.04,69.65L128.18,69.66L128.32,69.67L128.45,69.67L128.59,69.66L128.72,69.65L128.85,69.63L128.98,69.60L129.10,69.56L129.22,69.52L129.32,69.47L129.43,69.42L129.52,69.36L129.60,69.30L129.67,69.23L129.72,69.16L129.77,69.09L129.81,69.01L129.83,68.93L129.84,68.86L129.84,68.77L129.82,68.70L129.79,68.62L129.75,68.54L129.68,68.45"/><path style="stroke:#000000;stroke-width:0.088" d="M127.07,68.47L127.29,68.18"/><path style="stroke:#000000;stroke-width:0.088" d="M127.29,68.33L127.31,48.53L127.31,48.59L127.33,48.65L127.36,48.71L127.39,48.76L127.44,48.81L127.49,48.86L127.55,48.91L127.62,48.96L127.77,49.03L127.86,49.06L128.05,49.11L128.25,49.14L128.45,49.15L128.65,49.13L128.85,49.09L129.02,49.03L129.18,48.96L129.25,48.91L129.31,48.86L129.36,48.81L129.40,48.76L129.44,48.70L129.46,48.65L129.48,48.59L129.49,48.53L129.48,68.33L129.47,68.39L129.45,68.45L129.43,68.51L129.39,68.56L129.35,68.61L129.29,68.66L129.23,68.71L129.09,68.80L128.92,68.86L128.74,68.91L128.54,68.94L128.33,68.95L128.13,68.93L127.94,68.89L127.76,68.83L127.60,68.76L127.54,68.71L127.48,68.67L127.42,68.61L127.38,68.56L127.34,68.51L127.32,68.45L127.30,68.39L127.29,68.32"/><path style="stroke:#000000;stroke-width:0.088" d="M129.49,48.53L129.49,48.47L129.47,48.41L129.45,48.35L129.42,48.30L129.38,48.24L129.33,48.19L129.28,48.14L129.14,48.05L128.98,47.98L128.80,47.93L128.60,47.90L128.40,47.88L128.19,47.90L128.00,47.93L127.81,47.98L127.73,48.02L127.58,48.10L127.52,48.14L127.46,48.19L127.41,48.24L127.37,48.30L127.34,48.36L127.32,48.41L127.31,48.47L127.31,48.53"/><path style="stroke:#000000;stroke-width:0.088" d="M129.94,82.48L129.98,82.46L129.87,82.52L129.94,82.48"/><path style="stroke:#000000;stroke-width:0.088" d="M129.84,72.26L129.84,68.86"/><path style="stroke:#000000;stroke-width:0.088" d="M129.84,72.22L129.84,72.30"/><path style="stroke:#000000;stroke-width:0.088" d="M130.39,74.00L130.40,74.02L129.84,72.20"/><path style="stroke:#000000;stroke-width:0.088" d="M129.70,68.47L129.48,68.18"/><path style="stroke:#000000;stroke-width:0.088" d="M129.98,82.46L130.11,82.37L130.22,82.27L130.33,82.17L130.39,82.08L130.47,81.95L130.52,81.84L130.55,81.72L130.56,81.60L130.56,78.55"/><path style="stroke:#000000;stroke-width:0.088" d="M130.40,74.02L130.43,74.13L130.44,74.24"/><path style="stroke:#000000;stroke-width:0.088" d="M21.09,144.12L21.00,144.01L20.87,143.82L20.74,143.63L20.62,143.42L20.51,143.21L20.46,143.09L20.42,143.00L20.34,142.78L20.27,142.57L20.22,142.35L20.15,141.96L20.12,141.74L20.11,141.51"/><path style="stroke:#000000;stroke-width:0.088" d="M28.58,131.97L28.60,132.07L28.60,132.30L28.56,132.53L28.49,132.75L28.38,132.97L28.24,133.19L28.06,133.39L27.84,133.59L27.60,133.77L27.33,133.94L27.03,134.09L26.71,134.23L26.37,134.34L26.01,134.44L25.64,134.52L25.25,134.58L24.86,134.62L24.47,134.64L24.07,134.63L23.67,134.60L23.28,134.56L22.90,134.49L22.80,134.46L22.54,134.40L22.19,134.29L21.85,134.16L21.54,134.02L21.26,133.86L21.00,133.68L20.77,133.49L20.58,133.29L20.41,133.08L20.28,132.87L20.19,132.64L20.13,132.42L20.11,132.19L20.11,141.52L20.15,141.74L20.22,141.96L20.33,142.18L20.47,142.39L20.64,142.60L20.85,142.79L21.09,142.97"/><path style="stroke:#000000;stroke-width:0.088" d="M28.60,131.28L28.60,131.86L28.56,132.09L28.49,132.32L28.38,132.54L28.24,132.75L28.06,132.96L27.84,133.15L27.60,133.34L27.33,133.50L27.03,133.66L26.71,133.79L26.37,133.91L26.25,133.95L26.01,134.01L25.64,134.09L25.25,134.15L24.86,134.19L24.47,134.20L24.07,134.20L23.67,134.17L23.28,134.12L22.90,134.05L22.54,133.96L22.19,133.86L21.85,133.73L21.54,133.58L21.26,133.42L21.00,133.25L20.77,133.06L20.58,132.86L20.41,132.65L20.28,132.43L20.19,132.21L20.13,131.98L20.11,131.75L20.12,131.26L20.14,131.49L20.21,131.72L20.31,131.94L20.44,132.16L20.62,132.37L20.82,132.56L21.05,132.75L21.26,132.88L21.32,132.92L21.61,133.08L21.92,133.22L22.26,133.34L22.61,133.45L22.80,133.49L22.98,133.53L23.37,133.60L23.76,133.64L24.15,133.66L24.55,133.66L24.95,133.64L25.34,133.60L25.72,133.54L26.01,133.47L26.09,133.45L26.45,133.35L26.78,133.23L27.10,133.09L27.36,132.95L27.66,132.76L27.89,132.57L28.10,132.38L28.27,132.17L28.41,131.95L28.51,131.73L28.58,131.51L28.60,131.28L28.60,131.10L28.60,131.05L28.55,130.82L28.47,130.59L28.35,130.37L28.20,130.16L28.05,130.00L28.01,129.96L27.79,129.77L27.54,129.59L27.26,129.42L26.96,129.27L26.63,129.14L26.29,129.03L25.92,128.93L25.55,128.86L25.16,128.80L24.77,128.77L24.45,128.76L24.37,128.76L23.97,128.77L23.58,128.80L23.27,128.84L23.19,128.85L22.81,128.93L22.45,129.02L22.10,129.13L21.78,129.27L21.47,129.41L21.19,129.58L20.94,129.76L20.77,129.91L20.72,129.95L20.53,130.15L20.38,130.36L20.26,130.58L20.17,130.80L20.13,131.03L20.12,131.26"/><path style="stroke:#000000;stroke-width:0.088" d="M20.11,132.19L20.13,131.96"/><path style="stroke:#000000;stroke-width:0.088" d="M21.40,130.90L21.39,131.06L21.41,131.23L21.45,131.38L21.52,131.54L21.62,131.69L21.74,131.84L21.88,131.97L22.05,132.10L22.11,132.14L22.23,132.23L22.43,132.34L22.65,132.43L22.89,132.52L23.14,132.59L23.40,132.65L23.66,132.70L23.94,132.73L24.22,132.74L24.49,132.74L24.77,132.73L25.05,132.70L25.31,132.66L25.57,132.60L25.82,132.52L26.06,132.44L26.28,132.34L26.46,132.24L26.67,132.11L26.83,131.98L26.98,131.84L27.10,131.70L27.19,131.55L27.27,131.39L27.31,131.23L27.33,131.07L27.33,130.91L27.29,130.75L27.24,130.60L27.15,130.44L27.04,130.29L26.91,130.15L26.76,130.02L26.59,129.89L26.39,129.78L26.18,129.67L25.95,129.58L25.71,129.50L25.56,129.46L25.46,129.43L25.19,129.38L24.92,129.34L24.64,129.32L24.37,129.31L24.09,129.32L23.81,129.34L23.54,129.38L23.28,129.43L23.02,129.50L22.78,129.57L22.55,129.67L22.34,129.77L22.14,129.88L21.97,130.01L21.81,130.14L21.68,130.28L21.57,130.43L21.49,130.59L21.43,130.74L21.40,130.90"/><path style="stroke:#000000;stroke-width:0.088" d="M22.07,131.49L22.01,131.36L21.96,131.23L21.94,131.10L21.94,130.97L21.96,130.84L22.00,130.71L22.06,130.59L22.14,130.46L22.24,130.35L22.36,130.23L22.50,130.13L22.65,130.03L22.82,129.94L23.00,129.87L23.20,129.80L23.40,129.74L23.62,129.69L23.84,129.66L24.06,129.64L24.29,129.63L24.51,129.63L24.74,129.64L24.87,129.66L24.96,129.67L25.18,129.71L25.39,129.76L25.59,129.82L25.78,129.89L25.96,129.98L26.12,130.07L26.27,130.17L26.40,130.27L26.52,130.39L26.61,130.51L26.69,130.63L26.74,130.76L26.77,130.89L26.79,131.02L26.78,131.15L26.75,131.28L26.70,131.41L26.62,131.53L26.53,131.65L26.42,131.77L26.29,131.88L26.15,131.98L26.08,132.02L25.99,132.07L25.81,132.15L25.62,132.23L25.42,132.29L25.21,132.34L25.00,132.38L24.77,132.41L24.55,132.43L24.32,132.43L24.09,132.42L23.87,132.40L23.65,132.37L23.44,132.32L23.23,132.27L23.03,132.20L22.85,132.12L22.68,132.04L22.52,131.94L22.38,131.84L22.26,131.73L22.16,131.61L22.07,131.49"/><path style="stroke:#000000;stroke-width:0.088" d="M28.60,135.56L28.60,134.10L28.60,135.56"/><path style="stroke:#000000;stroke-width:0.088" d="M28.60,134.10L28.60,132.30"/><path style="stroke:#000000;stroke-width:0.088" d="M28.60,133.41L28.60,132.77"/><path style="stroke:#000000;stroke-width:0.088" d="M44.89,150.00L45.78,149.49L46.28,149.78"/><path style="stroke:#000000;stroke-width:0.088" d="M127.24,150.00L127.24,142.38L127.74,142.54L128.44,142.69L128.45,137.89L130.85,136.51L130.85,136.43L130.84,136.36L130.82,136.28L130.80,136.19L130.78,136.11L130.75,136.03L130.71,135.95L130.67,135.87L130.63,135.79L130.58,135.72L130.53,135.65L130.47,135.58L130.41,135.52L130.35,135.46L130.29,135.41L130.23,135.36L130.16,135.32L125.71,132.74L123.30,134.13L123.24,134.09L123.18,134.07L123.12,134.05L123.06,134.04L123.00,134.03L122.94,134.03L122.89,134.05L122.84,134.07L122.80,134.09L122.76,134.12L122.72,134.16L122.69,134.21L122.66,134.26L122.64,134.32L122.63,134.38L122.62,134.45L122.62,134.52L122.61,139.32L123.32,139.98L123.81,140.40L123.81,150.00"/><path style="stroke:#000000;stroke-width:0.088" d="M125.71,132.74L125.64,132.71L125.58,132.68L125.52,132.66L125.46,132.65L125.40,132.65L125.35,132.65L125.29,132.66L125.24,132.68L122.80,134.09"/><path style="stroke:#000000;stroke-width:0.088" d="M126.87,138.23L124.76,139.44L124.65,139.38L124.55,139.30L124.45,139.21L124.35,139.12L124.25,139.01L124.16,138.90L124.08,138.79L124.00,138.66L123.92,138.53L123.86,138.40L123.80,138.27L123.75,138.13L123.70,138.00L123.67,137.86L123.65,137.76L123.63,137.61L123.63,137.48L123.63,137.36L123.65,137.25L123.67,137.15L123.70,137.05L123.75,136.97L123.80,136.89L123.86,136.83L123.92,136.77L124.00,136.73L124.08,136.70L124.16,136.68L124.26,136.68L124.35,136.68L124.45,136.70L124.55,136.73L124.66,136.77L124.76,136.83L126.30,137.72L126.41,137.79L126.51,137.87L126.61,137.95L126.71,138.05L126.81,138.15L126.90,138.26L126.99,138.38L127.07,138.51L127.14,138.63L127.21,138.76L127.27,138.90L127.32,139.03L127.36,139.17L127.39,139.30L127.42,139.43L127.43,139.56L127.43,139.68L126.30,140.34L126.41,140.39L126.51,140.43L126.61,140.47L126.71,140.49L126.81,140.49L126.90,140.49L126.98,140.47L127.06,140.44L127.14,140.39L127.21,140.34L127.26,140.27L127.32,140.20L127.36,140.11L127.39,140.02L127.42,139.91L127.43,139.80L127.43,139.68"/><path style="stroke:#000000;stroke-width:0.088" d="M123.30,134.13L127.76,136.70L127.83,136.75L127.89,136.79L127.95,136.84L128.01,136.90L128.07,136.96L128.12,137.03L128.18,137.10L128.22,137.18L128.27,137.26L128.31,137.34L128.35,137.42L128.38,137.50L128.40,137.58L128.42,137.66L128.44,137.74L128.44,137.82L128.45,137.89"/><path style="stroke:#000000;stroke-width:0.088" d="M124.76,139.44L126.30,140.34"/><path style="stroke:#000000;stroke-width:0.088" d="M127.76,136.70L130.16,135.32"/><path style="stroke:#000000;stroke-width:0.088" d="M128.44,142.69L130.85,141.30L130.85,136.51"/><path style="stroke:#000000;stroke-width:0.088" d="M129.47,150.00L129.47,142.10"/><path style="stroke:#000000;stroke-width:0.088" d="M79.38,97.77L79.39,90.24L85.56,93.81L85.56,101.34L79.38,97.77"/><path style="stroke:#000000;stroke-width:0.088" d="M79.39,90.24L79.50,90.18L85.67,93.75L85.56,93.81"/><path style="stroke:#000000;stroke-width:0.088" d="M85.67,93.75L85.90,94.01L86.25,93.81L86.25,91.44L85.91,91.64L85.67,92.16L85.56,92.23L79.39,88.66L79.39,88.18L85.56,91.75L85.73,91.55L79.56,87.98L79.39,88.18"/><path style="stroke:#000000;stroke-width:0.088" d="M84.05,71.32L80.43,73.41L79.40,74.81L79.39,86.85L85.56,90.42L85.74,90.43L85.73,91.55"/><path style="stroke:#000000;stroke-width:0.088" d="M79.40,74.81L80.08,75.20L80.08,76.58L81.46,75.79L81.46,73.61L81.11,73.81L80.08,75.20"/><path style="stroke:#000000;stroke-width:0.088" d="M80.12,94.20L80.04,94.10L79.97,93.98L79.92,93.86L79.90,93.74L79.91,93.63L79.94,93.55L79.98,93.50L80.00,93.49L80.02,93.48L80.07,93.46L80.16,93.47L80.24,93.51L80.32,93.56L80.41,93.66L80.49,93.77L80.53,93.85L80.57,93.97L80.59,94.09L80.58,94.20L80.54,94.28L80.52,94.30L80.48,94.33L80.43,94.35L80.34,94.34L80.28,94.32L80.21,94.28L80.12,94.20"/><path style="stroke:#000000;stroke-width:0.088" d="M86.25,93.81L80.07,90.24L79.84,90.38"/><path style="stroke:#000000;stroke-width:0.088" d="M80.07,90.24L80.08,89.05"/><path style="stroke:#000000;stroke-width:0.088" d="M79.56,87.98L79.56,86.95"/><path style="stroke:#000000;stroke-width:0.088" d="M80.08,76.58L84.88,79.36L84.89,77.98L85.92,76.59L86.26,76.39L81.46,73.61"/><path style="stroke:#000000;stroke-width:0.088" d="M80.43,73.41L81.11,73.81"/><path style="stroke:#000000;stroke-width:0.088" d="M82.63,94.11L82.74,94.19L82.86,94.30L82.98,94.41L83.10,94.54L83.21,94.68L83.32,94.83L83.41,94.98L83.50,95.14L83.58,95.30L83.65,95.47L83.71,95.63L83.76,95.80L83.80,95.96L83.84,96.20L83.84,96.43L83.83,96.57L83.81,96.71L83.78,96.83L83.73,96.94L83.68,97.04L83.61,97.13L83.53,97.21L83.45,97.27L83.35,97.31L83.25,97.35L83.14,97.36L83.03,97.36L82.91,97.35L82.78,97.31L82.66,97.27L82.53,97.21L82.40,97.13L82.27,97.04L82.15,96.94L81.97,96.77L81.79,96.57L81.68,96.43L81.58,96.28L81.49,96.12L81.40,95.96L81.33,95.80L81.26,95.63L81.21,95.47L81.16,95.30L81.13,95.14L81.11,94.98L81.10,94.83L81.10,94.68L81.12,94.54L81.15,94.41L81.19,94.29L81.24,94.19L81.30,94.09L81.37,94.01L81.45,93.94L81.54,93.89L81.64,93.85L81.75,93.83L81.86,93.82L81.98,93.83L82.10,93.85L82.22,93.89L82.35,93.94L82.48,94.01L82.63,94.11L82.07,94.43L82.13,94.40L82.19,94.39L82.26,94.38L82.34,94.39L82.49,94.43L82.65,94.50L82.72,94.55L82.89,94.69L83.03,94.83L83.10,94.91L83.17,95.02L83.28,95.19L83.33,95.29L83.41,95.49L83.44,95.60L83.48,95.78L83.41,95.81L82.96,96.07L83.14,96.17L83.11,96.25L83.09,96.30L83.06,96.35L82.98,96.42L82.89,96.46L82.78,96.48L82.66,96.46L82.54,96.42L82.41,96.34L82.35,96.30L82.22,96.19L82.11,96.06L82.01,95.91L81.93,95.75L81.86,95.59L81.81,95.41L81.77,95.38L81.74,95.34L81.73,95.29L81.75,95.26L81.76,95.24L81.80,95.21L81.98,95.11"/><path style="stroke:#000000;stroke-width:0.088" d="M81.46,75.79L84.99,77.83"/><path style="stroke:#000000;stroke-width:0.088" d="M83.14,96.17L83.23,96.21L83.31,96.22L83.41,96.21L83.48,96.18L83.44,96.31L83.41,96.38L83.37,96.44L83.33,96.48L83.28,96.53L83.21,96.57L83.13,96.60L83.04,96.61L82.96,96.62L82.85,96.61L82.77,96.60L82.69,96.57L82.60,96.54L82.52,96.49L82.37,96.39L82.29,96.32L82.16,96.18L82.03,96.02L81.92,95.85L81.84,95.66L81.77,95.47L81.74,95.32"/><path style="stroke:#000000;stroke-width:0.088" d="M81.81,95.41L81.99,95.51L82.64,95.13"/><path style="stroke:#000000;stroke-width:0.088" d="M81.99,95.51L82.02,95.61L82.07,95.73L82.18,95.91L82.31,96.06L82.40,96.14L82.45,96.17L82.50,96.20L82.59,96.24L82.69,96.26L82.77,96.25L82.84,96.22L82.87,96.19L82.93,96.13L82.96,96.07"/><path style="stroke:#000000;stroke-width:0.088" d="M82.42,94.97L82.52,95.03L82.42,94.97L82.33,94.94L82.24,94.93L82.15,94.94L82.12,94.96L82.05,95.00L82.03,95.03L81.99,95.11L81.77,94.98L81.75,94.95L81.74,94.93L81.73,94.90L81.74,94.88"/><path style="stroke:#000000;stroke-width:0.088" d="M81.81,95.01L81.83,94.93L81.89,94.84L81.97,94.76L82.06,94.72L82.11,94.71L82.23,94.71L82.35,94.74L82.47,94.80L82.60,94.89L82.72,95.00L82.83,95.13L82.89,95.20L82.98,95.35L83.06,95.51L83.11,95.67L83.14,95.78L82.96,95.67L82.94,95.60L82.83,95.46L82.76,95.34L82.70,95.19"/><path style="stroke:#000000;stroke-width:0.088" d="M81.99,95.11L82.30,94.93"/><path style="stroke:#000000;stroke-width:0.088" d="M81.73,94.91L81.75,94.87"/><path style="stroke:#000000;stroke-width:0.088" d="M81.74,94.89L81.75,94.82L81.79,94.73L81.82,94.67L81.86,94.60L81.95,94.51L82.00,94.47L82.07,94.43"/><path style="stroke:#000000;stroke-width:0.088" d="M82.13,94.40L82.63,94.11"/><path style="stroke:#000000;stroke-width:0.088" d="M82.20,94.35L82.00,94.47"/><path style="stroke:#000000;stroke-width:0.088" d="M82.52,95.03L82.56,95.06L82.66,95.14L82.78,95.30L82.89,95.47L82.94,95.60"/><path style="stroke:#000000;stroke-width:0.088" d="M82.47,94.01L82.48,94.19"/><path style="stroke:#000000;stroke-width:0.088" d="M82.65,79.65L82.83,79.55L82.76,79.53L82.71,79.54L82.67,79.57L82.66,79.63L82.65,80.86L82.68,80.96L82.71,81.02L82.75,81.07L82.83,81.14L84.90,82.34L84.96,82.35L84.99,82.35L85.01,82.34L85.04,82.29L85.05,82.23L84.88,82.33"/><path style="stroke:#000000;stroke-width:0.088" d="M85.05,82.03L83.17,80.94L82.83,81.14"/><path style="stroke:#000000;stroke-width:0.088" d="M82.65,80.84L83.00,80.64L83.01,80.74L83.05,80.82L83.11,80.89L83.17,80.94"/><path style="stroke:#000000;stroke-width:0.088" d="M82.83,79.55L84.88,80.74L84.96,80.81L85.00,80.86L85.03,80.92L85.05,81.02L85.05,82.23"/><path style="stroke:#000000;stroke-width:0.088" d="M83.81,95.99L83.48,96.18"/><path style="stroke:#000000;stroke-width:0.088" d="M83.22,96.56L83.84,96.20"/><path style="stroke:#000000;stroke-width:0.088" d="M83.33,95.85L83.23,95.83L83.16,95.79"/><path style="stroke:#000000;stroke-width:0.088" d="M83.14,95.78L83.19,95.80L83.27,95.82L83.33,95.82L83.41,95.81"/><path style="stroke:#000000;stroke-width:0.088" d="M83.48,95.78L83.72,95.65"/><path style="stroke:#000000;stroke-width:0.088" d="M83.51,79.95L83.51,80.35L83.17,80.54L83.17,80.60L83.19,80.66L83.22,80.72L83.26,80.78L83.34,80.84L85.05,81.83"/><path style="stroke:#000000;stroke-width:0.088" d="M83.00,80.64L83.00,79.65"/><path style="stroke:#000000;stroke-width:0.088" d="M83.17,80.54L83.17,79.75"/><path style="stroke:#000000;stroke-width:0.088" d="M83.51,80.35L83.52,80.42L83.56,80.50L83.62,80.59L83.68,80.64L83.34,80.84"/><path style="stroke:#000000;stroke-width:0.088" d="M83.84,96.38L83.69,96.29"/><path style="stroke:#000000;stroke-width:0.088" d="M83.74,95.74L83.65,95.68"/><path style="stroke:#000000;stroke-width:0.088" d="M85.05,81.44L83.68,80.64"/><path style="stroke:#000000;stroke-width:0.088" d="M87.13,73.94L87.12,74.05L87.10,74.12L87.07,74.20L87.02,74.28L86.96,74.35L86.89,74.41L86.81,74.48L86.72,74.54L86.62,74.59L86.51,74.64L86.35,74.69L86.15,74.75L85.88,74.78L85.61,74.79L85.34,74.77L85.08,74.72L84.96,74.68L84.85,74.64L84.74,74.59L84.64,74.54L84.55,74.48L84.47,74.41L84.40,74.35L84.34,74.28L84.29,74.20L84.25,74.13L84.23,74.05L84.22,73.94"/><path style="stroke:#000000;stroke-width:0.088" d="M84.43,74.06L84.58,74.14L84.71,74.20L84.84,74.25L84.98,74.29L85.13,74.32L85.29,74.35L85.44,74.37L85.60,74.37L85.76,74.37L85.92,74.37L86.07,74.35L86.23,74.32L86.38,74.29L86.52,74.25L86.65,74.20L86.78,74.14L87.04,74.00L86.93,74.05L86.79,74.12L86.64,74.17L86.47,74.22L86.31,74.26L86.13,74.29L85.95,74.31L85.77,74.32L85.59,74.32L85.41,74.31L85.23,74.29L85.06,74.26L84.88,74.22L84.72,74.17L84.57,74.12L84.42,74.05L84.29,73.98L84.17,73.90L84.06,73.82L83.97,73.73L83.89,73.63L83.83,73.53L83.78,73.43L83.75,73.33L83.74,73.22L83.74,72.40L83.75,72.51L83.77,72.61L83.81,72.71L83.87,72.81L83.94,72.91L84.03,73.00L84.17,73.11L84.26,73.17L84.39,73.24L84.53,73.31L84.68,73.37L84.89,73.43L85.01,73.46L85.18,73.49L85.36,73.51L85.54,73.52L85.72,73.53L85.90,73.52L86.08,73.50L86.26,73.48L86.43,73.44L86.64,73.38L86.75,73.34L86.90,73.28L87.03,73.21L87.16,73.13L87.27,73.05L87.39,72.93L87.45,72.87L87.51,72.77L87.56,72.67L87.60,72.54L87.62,72.46L87.62,72.36L87.60,72.25L87.57,72.15L87.52,72.05L87.45,71.95L87.33,71.82"/><path style="stroke:#000000;stroke-width:0.088" d="M84.85,72.57L84.72,72.52L84.86,72.57L84.99,72.61L85.13,72.64L85.27,72.67L85.41,72.69L85.66,72.70L85.86,72.69L86.16,72.66L86.30,72.63L86.43,72.59L86.56,72.55L86.69,72.49L86.80,72.44L86.92,72.37L87.02,72.29L87.10,72.21L87.18,72.12L87.24,72.03L87.30,71.92L87.33,71.98L87.36,72.07L87.37,72.17L87.37,72.26L87.36,72.35L87.33,72.44L87.28,72.53L87.23,72.61L87.15,72.69L87.07,72.77L86.97,72.84L86.86,72.91L86.74,72.97L86.61,73.03L86.48,73.07L86.33,73.11L86.18,73.14L86.03,73.17L85.87,73.18L85.71,73.19L85.56,73.19L85.40,73.17L85.24,73.15L85.09,73.13L84.94,73.09L84.80,73.05L84.67,73.00L84.48,72.90L84.33,72.80L84.24,72.73L84.16,72.65L84.10,72.56L84.05,72.48L84.01,72.39L83.99,72.30L83.98,72.20L83.99,72.11L84.01,72.02L84.06,71.91"/><path style="stroke:#000000;stroke-width:0.088" d="M84.02,71.51L84.01,71.63L84.01,71.72L84.04,71.81L84.07,71.90L84.12,71.98L84.19,72.07L84.26,72.15L84.35,72.22L84.45,72.29L84.57,72.35L84.69,72.41L84.82,72.46L84.96,72.50L85.10,72.54L85.25,72.57L85.40,72.59L85.56,72.60L85.79,72.60L86.03,72.58L86.18,72.56L86.32,72.52L86.47,72.49L86.60,72.44L86.78,72.36L86.95,72.26L87.05,72.19L87.13,72.11L87.20,72.03L87.26,71.95L87.30,71.86L87.33,71.77L87.35,71.68L87.35,71.59L87.35,71.73L87.33,71.82L87.30,71.92"/><path style="stroke:#000000;stroke-width:0.088" d="M87.13,72.18L87.13,72.26L87.12,72.34L87.09,72.42L87.05,72.49L86.99,72.57L86.93,72.64L86.86,72.70L86.77,72.76L86.68,72.82L86.57,72.87L86.34,72.96L86.09,73.01L85.96,73.03L85.68,73.05L85.41,73.03L85.15,72.99L84.91,72.92L84.80,72.88L84.65,72.80L84.51,72.71L84.43,72.64L84.37,72.57L84.31,72.50L84.27,72.42L84.24,72.35L84.23,72.27L84.22,72.18"/><path style="stroke:#000000;stroke-width:0.088" d="M84.03,71.82L83.95,71.90L83.87,71.99L83.81,72.09L83.76,72.22L83.75,72.30L83.74,72.40"/><path style="stroke:#000000;stroke-width:0.088" d="M87.26,71.03L87.28,71.12L87.28,71.20L87.26,71.29L87.23,71.38L87.19,71.46L87.14,71.54L87.10,71.58L86.99,71.69L86.90,71.76L86.79,71.82L86.68,71.88L86.56,71.93L86.43,71.97L86.30,72.01L86.15,72.04L86.01,72.06L85.71,72.08L85.56,72.08L85.27,72.05L85.12,72.02L84.99,71.99L84.85,71.95L84.73,71.90L84.61,71.85L84.51,71.79L84.41,71.72L84.32,71.65L84.25,71.57L84.19,71.49L84.14,71.41L84.11,71.33L84.09,71.24L84.08,71.15L84.09,71.07L84.01,71.54L84.01,71.65L84.02,71.77L84.04,71.87L84.08,71.97L84.15,72.08L84.21,72.16L84.29,72.25L84.39,72.33L84.50,72.40L84.61,72.46L84.72,72.52"/><path style="stroke:#000000;stroke-width:0.088" d="M84.28,70.96L84.27,71.02L84.28,71.09L84.30,71.17L84.33,71.24L84.37,71.31L84.42,71.38L84.49,71.45L84.56,71.51L84.65,71.57L84.74,71.62L84.84,71.67L85.07,71.75L85.32,71.80L85.58,71.83L85.84,71.83L86.10,71.80L86.34,71.74L86.56,71.65L86.66,71.60L86.75,71.55L86.83,71.49L86.90,71.42L86.96,71.35L87.01,71.28L87.05,71.21L87.07,71.14L87.08,71.06L87.08,70.98L87.07,70.91L87.05,70.83L87.01,70.76L86.96,70.69L86.91,70.62L86.83,70.56L86.75,70.50L86.67,70.44L86.57,70.39L86.46,70.34L86.23,70.27L85.98,70.22L85.72,70.21L85.45,70.22L85.20,70.25L84.96,70.32L84.75,70.41L84.65,70.46L84.57,70.52L84.49,70.58L84.43,70.65L84.37,70.72L84.33,70.79L84.30,70.86L84.28,70.96"/><path style="stroke:#000000;stroke-width:0.088" d="M84.22,70.76L84.28,70.68L84.21,70.77L84.16,70.86L84.12,70.95L84.09,71.07"/><path style="stroke:#000000;stroke-width:0.088" d="M84.11,70.98L84.09,71.04"/><path style="stroke:#000000;stroke-width:0.088" d="M84.89,77.98L85.57,78.38L85.56,90.42"/><path style="stroke:#000000;stroke-width:0.088" d="M84.46,74.08L84.29,73.98"/><path style="stroke:#000000;stroke-width:0.088" d="M87.26,71.03L87.22,70.91L87.18,70.82L87.12,70.73L87.04,70.64L86.96,70.57L86.86,70.49L86.76,70.43L86.65,70.37L86.53,70.32L86.40,70.28L86.27,70.24L86.00,70.19L85.86,70.18L85.58,70.17L85.30,70.20L85.03,70.25L84.90,70.29L84.78,70.34L84.65,70.40L84.55,70.46L84.45,70.52L84.36,70.60L84.28,70.68"/><path style="stroke:#000000;stroke-width:0.088" d="M85.56,101.34L99.97,93.02L99.98,85.89L98.88,85.26"/><path style="stroke:#000000;stroke-width:0.088" d="M85.56,92.23L85.56,91.75"/><path style="stroke:#000000;stroke-width:0.088" d="M85.57,78.38L86.60,76.98L85.92,76.59"/><path style="stroke:#000000;stroke-width:0.088" d="M96.22,67.08L93.81,65.69L86.01,70.19"/><path style="stroke:#000000;stroke-width:0.088" d="M86.60,76.98L97.80,70.52L95.75,69.33L95.75,67.35L96.26,67.05L96.02,67.19"/><path style="stroke:#000000;stroke-width:0.088" d="M87.62,72.36L87.62,73.22L87.61,73.33L87.58,73.43L87.53,73.53L87.47,73.63L87.39,73.73L87.30,73.82L87.19,73.90L87.04,74.00"/><path style="stroke:#000000;stroke-width:0.088" d="M87.35,71.59L87.28,71.12"/><path style="stroke:#000000;stroke-width:0.088" d="M91.33,96.86L91.32,96.98L91.33,97.05L91.35,97.15L91.38,97.24L91.41,97.27L91.47,97.33L91.51,97.35L91.59,97.37L91.69,97.37L91.79,97.34L91.89,97.29L91.94,97.25L92.04,97.17L92.14,97.07L92.18,97.01L92.26,96.89L92.35,96.69L92.41,96.50L92.42,96.43L92.42,96.31L92.42,96.26L92.39,96.15L92.35,96.07L92.29,96.01L92.21,95.97L92.13,95.96L92.08,95.96L91.98,95.98L91.93,96.00L91.88,96.03L91.78,96.10L91.68,96.18L91.59,96.29L91.47,96.47L91.38,96.67L91.34,96.80L91.33,96.86"/><path style="stroke:#000000;stroke-width:0.088" d="M95.45,94.72L95.48,94.82L95.53,94.90L95.56,94.93L95.63,94.97L95.71,95.00L95.81,94.99L95.91,94.96L95.96,94.94L96.06,94.88L96.16,94.79L96.21,94.74L96.30,94.63L96.41,94.45L96.49,94.25L96.53,94.12L96.54,93.97L96.53,93.88L96.52,93.83L96.49,93.73L96.44,93.66L96.37,93.61L96.29,93.58L96.20,93.58L96.15,93.59L96.05,93.62L96.00,93.65L95.90,93.72L95.80,93.81L95.66,93.97L95.59,94.09L95.52,94.23L95.48,94.36L95.45,94.49L95.44,94.61L95.45,94.72"/><path style="stroke:#000000;stroke-width:0.088" d="M96.47,69.13L96.57,69.25L96.62,69.30L96.73,69.38L96.84,69.44L96.89,69.46L96.94,69.48L97.04,69.49L97.09,69.48L97.18,69.46L97.21,69.43L97.28,69.37L97.32,69.28L97.35,69.17L97.36,69.11L97.35,68.98L97.34,68.92L97.33,68.85L97.29,68.71L97.26,68.64L97.19,68.50L97.10,68.37L97.06,68.31L96.96,68.20L96.85,68.11L96.74,68.04L96.69,68.02L96.63,68.00L96.53,67.98L96.44,67.99L96.39,68.01L96.32,68.05L96.26,68.13L96.24,68.17L96.22,68.22L96.20,68.33L96.19,68.46L96.20,68.52L96.23,68.66L96.25,68.73L96.31,68.87L96.34,68.94L96.38,69.01L96.47,69.13"/><path style="stroke:#000000;stroke-width:0.088" d="M96.09,67.15L97.46,67.95L97.80,68.54L97.80,70.52"/><path style="stroke:#000000;stroke-width:0.088" d="M96.26,67.05L98.09,66.00L97.46,66.36"/><path style="stroke:#000000;stroke-width:0.088" d="M97.40,72.72L97.32,72.75L97.27,72.76L97.18,72.76L97.10,72.73L97.03,72.68L97.01,72.65L96.96,72.56L96.94,72.46L96.93,72.41L96.93,72.35L96.94,72.22L96.98,72.09L97.03,71.96L97.09,71.83L97.21,71.65L97.31,71.55L97.41,71.46L97.46,71.43L97.56,71.38L97.61,71.36L97.71,71.34L97.80,71.35L97.84,71.37L97.91,71.41L97.97,71.48L98.01,71.57L98.03,71.67L98.03,71.74L98.02,71.85L97.99,71.98L97.95,72.11L97.89,72.24L97.77,72.43L97.68,72.53L97.58,72.62L97.47,72.69L97.40,72.72"/><path style="stroke:#000000;stroke-width:0.088" d="M97.80,68.54L99.86,67.35L99.86,69.33L99.99,69.26L99.86,69.19"/><path style="stroke:#000000;stroke-width:0.088" d="M97.46,67.95L99.52,66.76L98.15,65.96L98.09,66.00"/><path style="stroke:#000000;stroke-width:0.088" d="M99.99,69.26L99.98,75.55L98.88,75.46L98.88,87.26L99.98,85.89"/><path style="stroke:#000000;stroke-width:0.088" d="M99.52,66.76L99.86,67.35"/><path style="stroke:#000000;stroke-width:0.088" d="M34.40,142.35L35.30,142.83L36.27,143.25L37.30,143.62L38.39,143.93L39.37,144.15L39.52,144.18L40.69,144.37L41.89,144.49L43.10,144.55L44.31,144.54L45.52,144.47L46.71,144.33L47.88,144.13L49.00,143.87L50.08,143.55L51.10,143.17L52.05,142.73L52.93,142.25L53.19,142.10L52.31,142.59L51.32,143.03L50.27,143.42L49.16,143.76L48.00,144.03L47.54,144.11L46.81,144.24L45.58,144.38L44.34,144.45L43.09,144.46L41.84,144.40L40.61,144.27L39.37,144.07L38.23,143.82L37.11,143.50L36.05,143.12L35.05,142.68L34.13,142.20L33.80,141.99L33.28,141.66L32.53,141.08L31.88,140.47L31.33,139.82L30.89,139.14L30.79,138.94L30.55,138.44L30.34,137.73L30.24,137.01L30.24,134.89L30.34,135.61L30.56,136.32L30.82,136.87L30.89,137.01L31.34,137.69L31.89,138.34L32.55,138.95L33.30,139.53L34.13,140.06L35.07,140.55L36.07,140.99L37.13,141.37L38.26,141.69L38.96,141.84L39.42,141.94L40.63,142.13L41.86,142.26L43.11,142.32L44.36,142.31L45.60,142.24L46.83,142.09L48.03,141.89L49.18,141.61L50.29,141.28L50.92,141.04L51.34,140.89L52.32,140.44L53.23,139.94L54.05,139.39L54.78,138.81L55.41,138.18L55.93,137.53L56.35,136.85L56.65,136.14L56.84,135.43L56.90,134.79L56.91,134.71L56.87,133.99L56.71,133.27L56.43,132.57L56.04,131.88L55.54,131.22L55.02,130.67"/><path style="stroke:#000000;stroke-width:0.088" d="M32.12,130.66L32.04,130.73L31.46,131.38L30.99,132.04L30.63,132.74L30.38,133.44L30.25,134.16L30.24,134.89"/><path style="stroke:#000000;stroke-width:0.088" d="M54.96,130.76L55.19,131.00L55.68,131.64L56.06,132.31L56.33,132.99L56.48,133.69L56.53,134.39L56.45,135.09L56.27,135.78L55.98,136.46L55.57,137.13L55.06,137.76L54.45,138.37L53.74,138.94L52.95,139.47L52.07,139.95L51.12,140.39L50.10,140.77L49.02,141.09L47.90,141.36L46.73,141.56L45.54,141.70L44.34,141.77L43.12,141.78L41.91,141.72L40.72,141.60L39.55,141.41L39.37,141.37L38.41,141.16L37.32,140.85L36.29,140.49L35.92,140.33L35.31,140.06L34.42,139.59L33.60,139.07L32.87,138.51L32.23,137.91L31.70,137.28L31.26,136.63L30.94,135.95L30.73,135.26L30.63,134.56L30.64,133.86L30.77,133.16L31.01,132.47L31.36,131.80L31.81,131.15L32.19,130.74"/><path style="stroke:#000000;stroke-width:0.088" d="M33.21,135.75L33.16,135.65L33.10,135.47"/><path style="stroke:#000000;stroke-width:0.088" d="M33.02,135.19L32.98,135.08L32.96,134.90"/><path style="stroke:#000000;stroke-width:0.088" d="M32.92,134.64L32.90,134.50L32.91,134.32"/><path style="stroke:#000000;stroke-width:0.088" d="M33.88,136.87L33.78,136.75L33.67,136.58"/><path style="stroke:#000000;stroke-width:0.088" d="M33.34,136.04L33.42,136.21L33.49,136.31"/><path style="stroke:#000000;stroke-width:0.088" d="M34.41,142.36L34.13,142.20"/><path style="stroke:#000000;stroke-width:0.088" d="M34.85,137.84L34.74,137.76L34.53,137.56"/><path style="stroke:#000000;stroke-width:0.088" d="M34.32,137.36L34.22,137.27L34.08,137.10"/><path style="stroke:#000000;stroke-width:0.088" d="M35.16,138.08L35.34,138.22L35.46,138.30"/><path style="stroke:#000000;stroke-width:0.088" d="M35.80,138.52L36.01,138.65L36.15,138.72"/><path style="stroke:#000000;stroke-width:0.088" d="M36.90,139.10L36.75,139.04L36.52,138.92"/><path style="stroke:#000000;stroke-width:0.088" d="M37.71,139.45L37.55,139.39L37.30,139.28"/><path style="stroke:#000000;stroke-width:0.088" d="M38.14,139.60L38.40,139.69L38.57,139.74"/><path style="stroke:#000000;stroke-width:0.088" d="M39.02,139.87L39.30,139.95L39.47,139.99"/><path style="stroke:#000000;stroke-width:0.088" d="M39.94,140.09L40.24,140.16L40.41,140.19"/><path style="stroke:#000000;stroke-width:0.088" d="M41.45,140.34L41.20,140.31L40.89,140.26"/><path style="stroke:#000000;stroke-width:0.088" d="M41.87,140.38L42.18,140.41L42.37,140.42"/><path style="stroke:#000000;stroke-width:0.088" d="M42.83,140.45L43.18,140.46L43.37,140.46"/><path style="stroke:#000000;stroke-width:0.088" d="M44.37,140.45L44.18,140.46L43.86,140.46"/><path style="stroke:#000000;stroke-width:0.088" d="M44.87,140.42L45.18,140.40L45.35,140.38"/><path style="stroke:#000000;stroke-width:0.088" d="M46.33,140.25L46.16,140.28L45.83,140.32"/><path style="stroke:#000000;stroke-width:0.088" d="M47.29,140.08L47.12,140.12L46.81,140.17"/><path style="stroke:#000000;stroke-width:0.088" d="M47.66,139.99L48.04,139.90L48.20,139.85"/><path style="stroke:#000000;stroke-width:0.088" d="M49.08,139.58L48.93,139.64L48.66,139.72"/><path style="stroke:#000000;stroke-width:0.088" d="M49.51,139.42L49.77,139.32L49.92,139.26"/><path style="stroke:#000000;stroke-width:0.088" d="M50.31,139.08L50.56,138.97L50.70,138.89"/><path style="stroke:#000000;stroke-width:0.088" d="M51.35,138.52L51.28,138.57L51.22,138.60"/><path style="stroke:#000000;stroke-width:0.088" d="M52.05,138.05L51.94,138.13L51.74,138.27"/><path style="stroke:#000000;stroke-width:0.088" d="M52.34,137.81L52.52,137.66L52.63,137.56"/><path style="stroke:#000000;stroke-width:0.088" d="M53.19,142.10L54.03,141.54L54.76,140.96L55.39,140.33L55.92,139.68L56.34,139.00L56.64,138.30L56.84,137.58L56.91,136.86L56.91,134.71"/><path style="stroke:#000000;stroke-width:0.088" d="M53.11,137.07L53.03,137.16L52.87,137.32"/><path style="stroke:#000000;stroke-width:0.088" d="M53.51,136.54L53.45,136.64L53.32,136.80"/><path style="stroke:#000000;stroke-width:0.088" d="M53.83,135.99L53.79,136.09L53.68,136.26"/><path style="stroke:#000000;stroke-width:0.088" d="M54.06,135.43L54.03,135.53L53.96,135.71"/><path style="stroke:#000000;stroke-width:0.088" d="M54.14,135.14L54.18,134.96L54.20,134.86"/><path style="stroke:#000000;stroke-width:0.088" d="M54.23,134.57L54.24,134.39L54.24,134.28"/><path style="stroke:#000000;stroke-width:0.088" d="M77.80,130.71L81.23,132.70L81.35,132.62L81.47,132.51L81.58,132.39L81.67,132.26L78.24,130.27L78.15,130.41L78.04,130.53L77.92,130.63L77.80,130.71L60.72,140.57L60.98,140.72L59.98,141.29"/><path style="stroke:#000000;stroke-width:0.088" d="M69.40,139.52L81.23,132.70"/><path style="stroke:#000000;stroke-width:0.088" d="M78.24,130.27L80.94,126.10L81.02,125.95L81.08,125.80L81.12,125.64L81.13,125.57L81.14,125.43L84.57,127.41L84.58,117.70L85.07,117.85L85.78,118.01L85.78,113.13L85.76,112.98L85.71,112.81L85.64,112.65L85.56,112.49L85.46,112.35L85.35,112.22L85.22,112.11L85.10,112.02L80.64,109.44L80.51,109.38L80.39,109.35L80.33,109.35L80.28,109.35L80.18,109.38L80.13,109.41L80.06,109.48L80.00,109.58L79.96,109.70L79.96,109.76L79.95,114.63L80.66,115.30L81.15,115.72L81.14,125.43"/><path style="stroke:#000000;stroke-width:0.088" d="M80.13,109.41L82.58,107.99L82.68,107.96L82.79,107.96L82.92,107.99L83.04,108.05L80.64,109.44"/><path style="stroke:#000000;stroke-width:0.088" d="M84.57,127.41L84.56,127.55L84.55,127.63L84.51,127.78L84.41,128.01L84.33,128.16L80.90,126.17"/><path style="stroke:#000000;stroke-width:0.088" d="M84.20,113.54L82.09,114.76L81.99,114.69L81.89,114.62L81.78,114.53L81.69,114.43L81.50,114.22L81.33,113.98L81.19,113.72L81.13,113.58L81.04,113.31L80.98,113.05L80.97,112.92L80.96,112.80L80.97,112.68L80.98,112.57L81.01,112.46L81.04,112.37L81.08,112.28L81.13,112.21L81.19,112.14L81.26,112.09L81.33,112.05L81.41,112.01L81.50,112.00L81.59,111.99L81.69,112.00L81.79,112.02L81.89,112.05L81.99,112.09L82.10,112.14L83.64,113.04L83.74,113.10L83.95,113.27L84.05,113.36L84.23,113.58L84.32,113.70L84.48,113.95L84.54,114.08L84.65,114.35L84.73,114.62L84.75,114.75L84.77,114.88L84.77,115.00L83.64,115.65L83.74,115.71L83.85,115.75L83.95,115.78L84.05,115.80L84.14,115.81L84.23,115.80L84.32,115.78L84.40,115.75L84.47,115.71L84.54,115.65L84.60,115.59L84.65,115.51L84.69,115.43L84.73,115.33L84.75,115.23L84.76,115.12L84.77,115.00"/><path style="stroke:#000000;stroke-width:0.088" d="M81.67,132.26L84.33,128.16"/><path style="stroke:#000000;stroke-width:0.088" d="M82.09,114.76L83.64,115.65"/><path style="stroke:#000000;stroke-width:0.088" d="M83.04,108.05L87.56,110.67L87.63,110.72L87.75,110.83L87.86,110.96L87.91,111.03L88.01,111.19L88.05,111.27L88.11,111.43L88.14,111.51L88.17,111.67L88.19,111.82L88.18,116.62L85.78,118.01"/><path style="stroke:#000000;stroke-width:0.088" d="M85.10,112.02L87.50,110.63"/><path style="stroke:#000000;stroke-width:0.088" d="M88.19,111.82L85.78,113.21"/><path style="stroke:#000000;stroke-width:0.088" d="M86.81,117.41L86.80,135.73"/><path style="stroke:#000000;stroke-width:0.088" d="M122.08,122.47L122.09,114.95L122.20,114.88L128.37,118.45L128.26,118.52L128.26,126.04L122.08,122.47"/><path style="stroke:#000000;stroke-width:0.088" d="M122.09,114.95L128.26,118.52"/><path style="stroke:#000000;stroke-width:0.088" d="M122.54,115.08L122.77,114.95L128.95,118.52L128.95,116.14L128.60,116.34L128.37,116.87L128.26,116.93L122.09,113.36L122.09,112.88L122.26,112.68L122.26,111.66"/><path style="stroke:#000000;stroke-width:0.088" d="M122.09,112.88L128.26,116.46L128.26,116.93"/><path style="stroke:#000000;stroke-width:0.088" d="M122.26,112.68L128.43,116.26L128.26,116.46"/><path style="stroke:#000000;stroke-width:0.088" d="M128.43,116.26L128.43,115.13L128.26,115.13L122.09,111.56L122.10,99.51L123.13,98.12L123.81,98.51L124.16,98.31L124.15,100.49L122.78,101.28L122.78,99.91L123.81,98.51"/><path style="stroke:#000000;stroke-width:0.088" d="M122.78,99.91L122.10,99.51"/><path style="stroke:#000000;stroke-width:0.088" d="M122.96,119.02L122.91,118.99L122.85,118.94L122.76,118.84L122.69,118.73L122.65,118.65L122.62,118.56L122.60,118.44L122.60,118.37L122.61,118.30L122.64,118.25L122.67,118.21L122.72,118.18L122.74,118.17L122.77,118.17L122.83,118.17L122.89,118.19L122.99,118.24L123.05,118.30L123.14,118.39L123.19,118.47L123.23,118.55L123.27,118.68L123.29,118.80L123.28,118.87L123.27,118.93L123.22,119.00L123.18,119.03L123.10,119.05L123.04,119.05L122.96,119.02"/><path style="stroke:#000000;stroke-width:0.088" d="M122.77,114.95L122.77,113.76"/><path style="stroke:#000000;stroke-width:0.088" d="M122.78,101.28L127.58,104.06L127.58,102.69L128.27,103.08L128.26,115.13"/><path style="stroke:#000000;stroke-width:0.088" d="M123.13,98.12L126.75,96.03"/><path style="stroke:#000000;stroke-width:0.088" d="M124.34,121.08L124.18,120.83L124.10,120.67L124.02,120.50L123.96,120.34L123.90,120.17L123.86,120.01L123.83,119.84L123.81,119.68L123.80,119.53L123.80,119.39L123.82,119.25L123.85,119.12L123.89,119.00L123.94,118.89L124.00,118.80L124.07,118.71L124.15,118.65L124.24,118.59L124.34,118.55L124.45,118.53L124.56,118.52L124.68,118.53L124.80,118.56L124.92,118.59L125.05,118.65L125.18,118.72L125.31,118.80L125.44,118.89L125.56,119.00L125.68,119.12L125.80,119.25L125.91,119.39L126.02,119.53L126.11,119.69L126.20,119.85L126.28,120.01L126.35,120.17L126.41,120.34L126.46,120.50L126.50,120.67L126.53,120.83L126.54,120.98L126.54,121.13L126.53,121.28L126.51,121.41L126.48,121.53L126.43,121.65L126.38,121.75L126.31,121.84L126.23,121.91L126.15,121.97L126.05,122.02L125.95,122.05L125.84,122.07L125.73,122.07L125.61,122.05L125.48,122.02L125.36,121.97L125.17,121.88L124.97,121.75L124.85,121.65L124.72,121.53L124.60,121.41L124.49,121.27L124.34,121.08"/><path style="stroke:#000000;stroke-width:0.088" d="M124.15,100.49L127.69,102.54"/><path style="stroke:#000000;stroke-width:0.088" d="M124.16,98.31L128.96,101.09L128.61,101.29L129.30,101.69L128.27,103.08"/><path style="stroke:#000000;stroke-width:0.088" d="M125.92,121.26L125.98,121.23L126.03,121.19L126.07,121.14L126.11,121.08L126.14,121.02L126.18,120.88L126.11,120.91L126.01,120.92L125.93,120.91L125.84,120.88L125.81,120.95L125.79,121.00L125.72,121.09L125.68,121.12L125.58,121.17L125.48,121.18L125.42,121.18L125.30,121.15L125.17,121.09L125.05,121.00L124.92,120.89L124.87,120.83L124.76,120.69L124.66,120.54L124.59,120.38L124.56,120.29L124.51,120.11L124.46,120.07L124.44,120.03L124.45,120.08L124.43,120.02L124.44,119.98L124.47,119.93L124.67,119.81"/><path style="stroke:#000000;stroke-width:0.088" d="M124.43,120.02L124.47,120.18L124.54,120.37L124.62,120.55L124.73,120.73L124.85,120.89L124.99,121.03L125.14,121.15L125.30,121.24L125.39,121.28L125.46,121.30L125.55,121.32L125.64,121.33L125.73,121.32L125.83,121.30L125.92,121.26L126.53,120.91"/><path style="stroke:#000000;stroke-width:0.088" d="M124.51,120.11L124.69,120.21L124.72,120.32L124.77,120.44L124.88,120.61L125.01,120.76L125.10,120.84L125.15,120.88L125.25,120.93L125.29,120.94L125.38,120.96L125.47,120.95L125.54,120.92L125.57,120.90L125.63,120.84L125.66,120.77L125.84,120.88"/><path style="stroke:#000000;stroke-width:0.088" d="M124.44,119.58L124.43,119.61L124.44,119.63L124.44,119.65L124.47,119.69L124.51,119.71L124.69,119.82L125.00,119.64"/><path style="stroke:#000000;stroke-width:0.088" d="M124.44,119.59L124.48,119.45L124.52,119.37L124.57,119.29L124.63,119.23L124.71,119.16L125.03,118.98L124.70,119.17"/><path style="stroke:#000000;stroke-width:0.088" d="M124.69,119.82L124.73,119.74L124.75,119.71L124.82,119.66L124.85,119.64L124.93,119.63L125.02,119.64L125.12,119.67L125.22,119.73L125.12,119.68"/><path style="stroke:#000000;stroke-width:0.088" d="M124.69,120.21L125.34,119.83"/><path style="stroke:#000000;stroke-width:0.088" d="M124.51,119.71L124.53,119.64L124.59,119.54L124.67,119.47L124.76,119.42L124.81,119.41L124.92,119.41L125.05,119.44L125.17,119.50L125.30,119.59L125.42,119.70L125.53,119.83L125.59,119.90L125.68,120.06L125.76,120.22L125.81,120.38L125.84,120.48L125.66,120.38L125.64,120.31L125.53,120.16L125.46,120.04L125.40,119.89"/><path style="stroke:#000000;stroke-width:0.088" d="M124.45,119.57L124.43,119.62"/><path style="stroke:#000000;stroke-width:0.088" d="M125.66,120.77L126.11,120.51L126.18,120.48L126.14,120.30L126.11,120.20L126.04,120.02L125.98,119.90L125.86,119.71L125.80,119.62L125.66,119.46L125.50,119.31L125.34,119.21L125.19,119.13L125.04,119.09L124.96,119.09L124.89,119.09L124.83,119.10L124.77,119.13"/><path style="stroke:#000000;stroke-width:0.088" d="M125.03,118.98L125.32,118.81"/><path style="stroke:#000000;stroke-width:0.088" d="M124.83,119.11L125.03,118.99L124.83,119.10"/><path style="stroke:#000000;stroke-width:0.088" d="M125.64,120.31L125.58,120.18L125.48,120.00L125.36,119.85L125.26,119.76L125.22,119.73"/><path style="stroke:#000000;stroke-width:0.088" d="M125.03,118.99L125.33,118.82"/><path style="stroke:#000000;stroke-width:0.088" d="M125.17,118.71L125.18,118.89"/><path style="stroke:#000000;stroke-width:0.088" d="M125.45,105.78L125.52,105.84L127.58,107.03L127.63,107.05L127.67,107.05L127.71,107.04L127.74,107.01L127.75,106.97L127.75,106.93L127.75,105.73L127.73,105.63L127.70,105.57L127.66,105.51L127.58,105.45L126.93,105.07L125.52,104.26L125.49,104.24L125.45,104.23L125.41,104.24L125.38,104.27L125.36,104.31L125.35,104.34L125.35,105.54L125.36,105.60L125.38,105.66L125.41,105.72L125.45,105.78"/><path style="stroke:#000000;stroke-width:0.088" d="M125.52,105.84L125.87,105.64L127.75,106.74"/><path style="stroke:#000000;stroke-width:0.088" d="M125.35,105.54L125.70,105.35L125.71,105.45L125.75,105.53L125.81,105.59L125.87,105.64"/><path style="stroke:#000000;stroke-width:0.088" d="M125.70,105.35L125.70,104.36"/><path style="stroke:#000000;stroke-width:0.088" d="M125.35,104.36L125.52,104.26"/><path style="stroke:#000000;stroke-width:0.088" d="M126.39,120.99L126.54,121.09"/><path style="stroke:#000000;stroke-width:0.088" d="M126.18,120.88L126.50,120.70"/><path style="stroke:#000000;stroke-width:0.088" d="M126.35,120.39L126.44,120.44"/><path style="stroke:#000000;stroke-width:0.088" d="M126.18,120.48L126.42,120.35"/><path style="stroke:#000000;stroke-width:0.088" d="M125.86,120.49L125.93,120.53L126.03,120.56"/><path style="stroke:#000000;stroke-width:0.088" d="M125.84,120.48L125.89,120.51L125.97,120.52L126.03,120.52L126.11,120.51"/><path style="stroke:#000000;stroke-width:0.088" d="M127.75,106.54L126.04,105.55L125.96,105.48L125.90,105.39L125.88,105.33L125.87,105.27L125.87,104.46"/><path style="stroke:#000000;stroke-width:0.088" d="M125.87,105.25L126.21,105.05L126.21,104.65"/><path style="stroke:#000000;stroke-width:0.088" d="M126.04,105.55L126.38,105.35L126.32,105.30L126.26,105.21L126.22,105.13L126.21,105.05"/><path style="stroke:#000000;stroke-width:0.088" d="M126.38,105.35L127.75,106.14"/><path style="stroke:#000000;stroke-width:0.088" d="M129.83,98.64L129.82,98.75L129.80,98.83L129.76,98.91L129.72,98.98L129.66,99.05L129.59,99.12L129.51,99.18L129.42,99.24L129.32,99.29L129.21,99.34L128.97,99.42L128.72,99.47L128.49,99.49L128.31,99.49L128.04,99.47L127.78,99.42L127.66,99.39L127.54,99.34L127.44,99.30L127.34,99.24L127.25,99.18L127.16,99.12L127.09,99.05L127.04,98.98L126.99,98.91L126.95,98.83L126.93,98.75L126.92,98.64"/><path style="stroke:#000000;stroke-width:0.088" d="M126.73,96.52L126.65,96.60L126.57,96.70L126.51,96.80L126.47,96.90L126.45,97.00L126.44,97.11L126.44,97.93L126.45,98.03L126.48,98.14L126.53,98.24L126.59,98.34L126.67,98.43L126.76,98.52L126.87,98.61L126.99,98.69L127.12,98.76L127.27,98.82L127.42,98.88L127.58,98.92L127.75,98.96L127.93,98.99L128.11,99.01L128.29,99.02L128.47,99.02L128.65,99.01L128.83,98.99L129.00,98.96L129.18,98.92L129.34,98.88L129.49,98.82L129.63,98.76L129.77,98.68L129.48,98.85L129.35,98.90L129.22,98.95L129.07,98.99L128.93,99.03L128.77,99.05L128.62,99.07L128.46,99.08L128.30,99.08L128.14,99.07L127.98,99.05L127.83,99.03L127.68,98.99L127.54,98.95L127.41,98.90L127.28,98.85L127.13,98.77"/><path style="stroke:#000000;stroke-width:0.088" d="M126.99,98.69L127.16,98.79"/><path style="stroke:#000000;stroke-width:0.088" d="M126.72,96.22L126.71,96.34L126.71,96.43L126.73,96.52L126.77,96.60L126.82,96.69L126.89,96.77L126.96,96.85L127.05,96.93L127.15,96.99L127.26,97.06L127.39,97.11L127.58,97.18L127.80,97.24L127.95,97.27L128.17,97.30L128.41,97.30L128.57,97.30L128.72,97.28L128.88,97.26L129.09,97.21L129.30,97.14L129.48,97.06L129.65,96.96L129.75,96.89L129.87,96.77L129.90,96.74L129.96,96.65L130.00,96.56L130.03,96.48L130.05,96.39L130.05,96.29L130.05,96.43L130.03,96.52L130.00,96.62L130.03,96.69L130.06,96.78L130.07,96.87L130.07,96.96L130.06,97.05L130.03,97.14L129.98,97.23L129.92,97.32L129.85,97.40L129.77,97.48L129.67,97.55L129.56,97.62L129.44,97.68L129.31,97.73L129.18,97.78L129.03,97.82L128.88,97.85L128.73,97.87L128.49,97.89L128.25,97.89L128.10,97.88L127.94,97.86L127.79,97.83L127.64,97.80L127.50,97.75L127.37,97.70L127.18,97.60L127.03,97.51L126.94,97.43L126.86,97.35L126.80,97.27L126.74,97.18L126.71,97.09L126.69,97.00L126.68,96.91L126.69,96.82L126.71,96.73L126.76,96.62"/><path style="stroke:#000000;stroke-width:0.088" d="M126.44,97.11L126.44,97.21L126.47,97.32L126.51,97.42L126.57,97.52L126.64,97.61L126.73,97.70L126.84,97.79L126.95,97.87L127.08,97.95L127.23,98.01L127.38,98.07L127.54,98.12L127.70,98.16L127.88,98.19L128.06,98.22L128.24,98.23L128.42,98.23L128.60,98.22L128.78,98.21L128.96,98.18L129.13,98.14L129.34,98.08L129.45,98.05L129.59,97.98L129.73,97.91L129.85,97.84L129.97,97.75L130.06,97.67L130.15,97.57L130.21,97.47L130.26,97.37L130.30,97.27L130.32,97.13L130.32,97.06L130.30,96.96L130.27,96.85L130.22,96.75L130.15,96.65L130.03,96.52"/><path style="stroke:#000000;stroke-width:0.088" d="M126.92,96.88L126.93,96.97L126.94,97.05L126.97,97.13L127.01,97.20L127.07,97.28L127.13,97.35L127.21,97.41L127.35,97.51L127.49,97.58L127.61,97.62L127.85,97.70L128.11,97.74L128.38,97.75L128.65,97.74L128.79,97.72L129.04,97.66L129.16,97.62L129.27,97.58L129.37,97.52L129.47,97.47L129.55,97.41L129.63,97.34L129.69,97.27L129.75,97.20L129.79,97.12L129.81,97.05L129.83,96.97L129.83,96.88"/><path style="stroke:#000000;stroke-width:0.088" d="M129.96,95.73L129.98,95.82L129.98,95.91L129.96,96.00L129.93,96.08L129.89,96.16L129.84,96.24L129.77,96.32L129.69,96.39L129.59,96.46L129.49,96.53L129.38,96.58L129.26,96.63L129.13,96.68L128.99,96.72L128.85,96.75L128.71,96.77L128.49,96.78L128.26,96.78L128.12,96.77L127.97,96.76L127.80,96.72L127.55,96.65L127.43,96.61L127.31,96.55L127.20,96.49L127.11,96.42L127.02,96.35L126.95,96.28L126.89,96.20L126.84,96.12L126.80,96.03L126.79,95.99L126.78,95.95L126.78,95.86L126.78,95.77L126.71,96.24L126.70,96.36L126.71,96.47L126.74,96.56L126.79,96.69L126.84,96.77L126.91,96.87L126.99,96.95L127.09,97.03L127.20,97.11L127.30,97.17L127.42,97.22L127.55,97.27L127.69,97.31L127.82,97.35L127.97,97.37L128.11,97.39L128.41,97.41L128.71,97.39L128.99,97.33L129.13,97.30L129.27,97.25L129.39,97.20L129.50,97.14L129.61,97.07L129.72,96.99L129.80,96.92L129.88,96.83L129.94,96.73L130.00,96.62"/><path style="stroke:#000000;stroke-width:0.088" d="M127.09,95.39L127.03,95.49L127.00,95.57L126.98,95.64L126.97,95.72L126.98,95.80L126.99,95.87L127.02,95.95L127.07,96.02L127.12,96.09L127.19,96.15L127.26,96.22L127.35,96.28L127.44,96.33L127.54,96.38L127.77,96.46L128.01,96.51L128.14,96.53L128.41,96.54L128.67,96.52L128.92,96.47L129.04,96.44L129.26,96.36L129.36,96.31L129.45,96.25L129.53,96.19L129.60,96.13L129.66,96.06L129.71,95.99L129.75,95.92L129.77,95.84L129.78,95.76L129.78,95.69L129.77,95.61L129.75,95.54L129.71,95.46L129.66,95.39L129.60,95.32L129.53,95.26L129.45,95.20L129.36,95.14L129.27,95.09L129.05,95.01L128.80,94.95L128.68,94.93L128.41,94.91L128.28,94.91L128.02,94.94L127.78,94.99L127.55,95.07L127.45,95.11L127.35,95.17L127.27,95.22L127.19,95.29L127.09,95.39"/><path style="stroke:#000000;stroke-width:0.088" d="M129.11,94.98L129.18,95.01L128.97,94.94L128.84,94.92L128.70,94.89L128.42,94.87L128.28,94.88L127.99,94.90L127.73,94.96L127.60,95.00L127.47,95.05L127.35,95.10L127.25,95.16L127.15,95.22L127.06,95.30L126.97,95.39L126.91,95.47L126.85,95.56L126.81,95.66L126.78,95.77"/><path style="stroke:#000000;stroke-width:0.088" d="M126.81,95.69L126.79,95.75"/><path style="stroke:#000000;stroke-width:0.088" d="M127.58,107.03L127.75,106.93"/><path style="stroke:#000000;stroke-width:0.088" d="M127.58,102.69L128.61,101.29"/><path style="stroke:#000000;stroke-width:0.088" d="M127.55,97.27L127.42,97.22"/><path style="stroke:#000000;stroke-width:0.088" d="M128.26,126.04L142.67,117.73L142.67,110.60L141.58,111.96L141.58,100.16L142.68,100.26L142.68,93.96L142.56,94.04L142.56,92.06L140.50,93.24L140.16,92.65L140.12,92.63L138.79,91.86L138.45,92.05L138.44,94.03L140.50,95.22L129.30,101.69"/><path style="stroke:#000000;stroke-width:0.088" d="M128.37,118.45L128.60,118.72L128.95,118.52"/><path style="stroke:#000000;stroke-width:0.088" d="M138.91,91.78L136.51,90.39L128.71,94.90"/><path style="stroke:#000000;stroke-width:0.088" d="M129.77,98.68L129.89,98.61L129.99,98.52L130.09,98.43L130.17,98.34L130.23,98.24L130.27,98.14L130.30,98.03L130.32,97.93L130.32,97.06"/><path style="stroke:#000000;stroke-width:0.088" d="M129.22,95.02L129.18,95.01L129.35,95.08L129.46,95.14L129.56,95.20L129.66,95.27L129.75,95.35L129.82,95.44L129.88,95.53L129.93,95.62L129.96,95.74"/><path style="stroke:#000000;stroke-width:0.088" d="M130.05,96.29L129.98,95.82"/><path style="stroke:#000000;stroke-width:0.088" d="M134.02,121.69L134.03,121.57L134.06,121.44L134.13,121.24L134.20,121.11L134.28,120.99L134.38,120.89L134.43,120.84L134.48,120.80L134.58,120.73L134.68,120.68L134.78,120.66L134.83,120.66L134.91,120.68L134.95,120.69L135.02,120.74L135.05,120.78L135.09,120.86L135.11,120.96L135.12,121.02L135.12,121.14L135.09,121.27L135.05,121.40L134.96,121.59L134.84,121.77L134.74,121.87L134.64,121.96L134.54,122.02L134.49,122.04L134.39,122.07L134.29,122.08L134.25,122.07L134.21,122.05L134.14,122.01L134.08,121.94L134.05,121.85L134.03,121.80L134.02,121.69"/><path style="stroke:#000000;stroke-width:0.088" d="M138.14,119.26L138.14,119.37L138.16,119.45L138.18,119.52L138.20,119.57L138.26,119.63L138.33,119.68L138.37,119.69L138.41,119.70L138.51,119.70L138.61,119.67L138.66,119.64L138.76,119.58L138.86,119.50L139.00,119.34L139.08,119.22L139.17,119.02L139.21,118.89L139.22,118.82L139.24,118.70L139.23,118.58L139.21,118.48L139.16,118.40L139.14,118.37L139.11,118.34L139.03,118.30L138.94,118.28L138.90,118.29L138.80,118.31L138.70,118.35L138.59,118.42L138.54,118.47L138.50,118.51L138.40,118.62L138.32,118.74L138.25,118.86L138.18,119.06L138.15,119.19L138.14,119.26"/><path style="stroke:#000000;stroke-width:0.088" d="M138.65,91.94L138.85,91.82L138.79,91.86"/><path style="stroke:#000000;stroke-width:0.088" d="M139.37,94.04L139.43,94.08L139.53,94.15L139.64,94.18L139.69,94.19L139.79,94.19L139.88,94.16L139.91,94.14L139.98,94.07L140.02,93.98L140.05,93.88L140.06,93.82L140.05,93.69L140.03,93.55L139.98,93.41L139.96,93.34L139.89,93.20L139.80,93.07L139.76,93.01L139.66,92.91L139.60,92.86L139.55,92.82L139.44,92.75L139.33,92.71L139.23,92.69L139.18,92.69L139.09,92.71L139.05,92.73L139.02,92.76L138.96,92.83L138.92,92.92L138.90,92.98L138.89,93.10L138.90,93.23L138.93,93.36L138.98,93.51L139.01,93.58L139.08,93.71L139.17,93.84L139.22,93.90L139.32,94.00L139.37,94.04"/><path style="stroke:#000000;stroke-width:0.088" d="M140.23,91.02L140.85,90.67L138.85,91.82"/><path style="stroke:#000000;stroke-width:0.088" d="M140.22,97.36L140.17,97.39L140.07,97.44L140.02,97.45L139.92,97.46L139.84,97.45L139.80,97.43L139.73,97.38L139.70,97.35L139.66,97.27L139.64,97.17L139.63,97.11L139.63,96.99L139.66,96.86L139.70,96.73L139.79,96.53L139.91,96.36L140.01,96.25L140.11,96.17L140.16,96.13L140.26,96.08L140.31,96.06L140.41,96.05L140.50,96.06L140.54,96.07L140.61,96.12L140.67,96.18L140.69,96.22L140.72,96.32L140.73,96.43L140.73,96.49L140.71,96.62L140.69,96.68L140.65,96.82L140.58,96.95L140.51,97.07L140.37,97.24L140.27,97.32L140.22,97.36"/><path style="stroke:#000000;stroke-width:0.088" d="M140.16,92.65L142.22,91.46L140.85,90.67"/><path style="stroke:#000000;stroke-width:0.088" d="M140.50,95.22L140.50,93.24"/><path style="stroke:#000000;stroke-width:0.088" d="M141.58,109.96L142.67,110.60"/><path style="stroke:#000000;stroke-width:0.088" d="M142.22,91.46L142.56,92.06"/><path style="stroke:#000000;stroke-width:0.088" d="M142.68,93.96L142.56,93.89"/><path style="fill:#ffffff" d="M171.15,82.41L197.56,82.41L197.56,76.77L171.15,76.77z"/><path style="stroke:#000000;stroke-width:0.255" d="M171.15,82.41L197.56,82.41L197.56,76.77L171.15,76.77z"/><path style="stroke:#000000;stroke-width:0.250;stroke-opacity:0.00" d="M171.15,82.41L197.56,82.41L197.56,76.77L171.15,76.77z"/><text xml:space="preserve" fill="#000000" stroke-width="0" x="171.85" y="80.82" font-size="3.41" opacity="1.00" font-family="Arial" font-weight="bold" font-style="italic">VA3580</text><path style="fill:#ffffff" d="M171.15,72.37L197.56,72.37L197.56,66.73L171.15,66.73z"/><path style="stroke:#000000;stroke-width:0.255" d="M171.15,72.37L197.56,72.37L197.56,66.73L171.15,66.73z"/><path style="stroke:#000000;stroke-width:0.250;stroke-opacity:0.00" d="M171.15,72.37L197.56,72.37L197.56,66.73L171.15,66.73z"/><text xml:space="preserve" fill="#000000" stroke-width="0" x="171.85" y="70.78" font-size="3.46" opacity="1.00" font-family="Arial" font-weight="bold" font-style="italic">SE6942</text><g id="paperID" visibility="hidden" opacity="0.00" transform="scale(0.000100)"><path style="stroke:#000000;stroke-width:0.500;fill:#e6e6e6;fill-rule:evenodd" d="M-2000.00,-2000.00L2210.00,-2000.00L2210.00,2150.00L-2000.00,2150.00zM0.00,0.00L210.00,0.00L210.00,150.00L0.00,150.00z"/><path style="fill:#000000;fill-opacity:0.118" d="M3.00,150.00L210.00,150.00L210.00,3.00L213.00,3.00L213.00,153.00L3.00,153.00z"/></g><g id="hotspot.0" onmouseover="ShowHotSpot(evt,'0')" onmouseout="HideHotSpot(evt,'0')" onmousemove="ShowToolTip(evt,'0',&quot;VA3580-1&quot;)" opacity="0"><path style="fill:#00ff00;fill-rule:evenodd" d="M95.71,66.71L96.65,66.73L98.04,65.89L98.31,65.90L99.73,66.91L99.91,69.13L99.91,75.44L99.04,75.33L99.05,85.26L99.93,85.77L99.93,92.91L85.79,101.07L85.25,101.08L79.43,97.64L79.37,90.21L80.04,90.08L80.06,88.98L79.42,88.59L79.45,74.63L80.63,73.20L84.04,71.19L84.46,70.41L84.98,70.12L86.21,69.94L93.62,65.70L94.09,65.70zM197.87,76.97L197.89,82.24L197.65,82.41L171.16,82.41L170.92,82.24L170.96,76.80L171.12,76.56L197.47,76.57zM138.44,91.43L139.41,91.43L140.89,90.61L142.08,91.21L142.49,91.81L142.68,93.83L142.68,100.13L141.61,100.03L141.67,109.88L142.67,110.49L142.67,117.57L128.56,125.77L128.02,125.77L122.13,122.40L122.14,114.89L122.74,114.93L122.82,113.68L122.19,113.29L122.18,99.30L123.33,97.84L126.65,95.94L126.96,95.24L127.74,94.82L128.97,94.64L136.39,90.39L136.65,90.39z"/></g><g id="hotspot.1" onmouseover="ShowHotSpot(evt,'1')" onmouseout="HideHotSpot(evt,'1')" onmousemove="ShowToolTip(evt,'1',&quot;SE6942-2&quot;)" opacity="0"><path style="fill:#00ff00;fill-rule:evenodd" d="M86.66,23.36L86.85,43.44L87.08,43.82L87.25,47.86L87.67,49.05L87.88,56.96L87.67,57.35L86.81,58.10L84.64,58.10L83.86,57.68L83.64,57.30L83.65,52.13L83.85,48.71L84.26,47.32L84.45,43.50L84.66,23.42L85.18,23.15L86.28,23.14zM129.44,48.24L129.64,68.31L129.84,68.52L130.02,72.76L130.43,73.94L130.44,82.06L129.58,82.80L127.20,82.80L126.42,82.18L126.40,73.80L126.81,72.41L127.03,68.41L127.23,68.20L127.42,48.12L127.74,47.84L129.04,47.84zM197.87,66.94L197.89,72.21L197.65,72.37L171.16,72.37L170.92,72.21L170.96,66.76L171.12,66.52L197.47,66.53z"/></g></g></svg>
