<?xml version="1.0" encoding="UTF-8" standalone="no"?>
<svg xmlns="http://www.w3.org/2000/svg" xmlns:xlink="http://www.w3.org/1999/xlink" width="210.000mm" height="150.000mm" viewBox="0.000000 0.000000 210.000000 150.000000" stroke-linejoin="round" stroke-linecap="round" fill="none" fill-rule="evenodd"><desc>Composer Export</desc><script type="text/ecmascript"><![CDATA[
if(typeof(top) != "undefined")
{
	top.ShowPaper = ShowPaper;
}
function ShowHotSpot(evt,hotspotid)
{
	var svgDocument = evt.target.ownerDocument;
	var strId = "hotspot."+hotspotid;
	var hotspot = svgDocument.getElementById(strId);
	if(hotspot)
		hotspot.setAttribute("opacity",".5");
}
function HideHotSpot(evt,hotspotid)
{
	var svgDocument = evt.target.ownerDocument;
	var strId = "hotspot."+hotspotid;
	var hotspot = svgDocument.getElementById(strId);
	if(hotspot)
		hotspot.setAttribute("opacity","0");

	var toolTip = svgDocument.getElementById('ToolTip');
	if(toolTip)
		toolTip.setAttribute("visibility","hidden");
}
function ShowToolTip(evt,hotspotid,strTooltip)
{
	if(strTooltip=="")
	return;

	// change text
	var svgDocument = evt.target.ownerDocument;
	var tiptext = svgDocument.getElementById('ToolTipText');
	if( !tiptext )
	return;
	tiptext.firstChild.nodeValue = " " + strTooltip + "  " ;

	// show tooltip before, else some refresh issue

	var toolTip = svgDocument.getElementById('ToolTip');
	if(!toolTip)
	return;

	toolTip.setAttribute("visibility","visible");
	toolTip.setAttribute("opacity",".95");

	// move tooltip
	// get viewbox

	var root = svgDocument.documentElement;
	var vbox = (root.getAttribute("viewBox")).split(' ');
	var x0 = parseFloat(vbox[0]);
	var y0 = parseFloat(vbox[1]);
	var vboxW = parseFloat(vbox[2]);
	var vboxH = parseFloat(vbox[3]);

	// get default width of svg

	var strW = root.getAttribute("width");
	var svgW = parseFloat(strW);
	if(strW.indexOf('mm') != -1)
	svgW *= 3.779;

	var strH = root.getAttribute("height");
	var svgH = parseFloat(strH);
	if(strH.indexOf('mm') != -1)
	svgH *= 3.779;  	// 96 dpi  -> 96/25.4 = 3.779

	// update the viewbox / width / height if svg is embedded in html with zoom fit all
	var realx0 = x0;
	var realy0 = y0;
	var realvboxW = vboxW;
	var realvboxH = vboxH;
	var realsvgW = svgW;
	var realsvgH = svgH;

	if ((typeof(top) == "undefined") || (typeof(top.svgctl1) != "undefined")) // embedded in html
	{
		// get window size in pxl

		svgW = window.innerWidth;
		svgH = window.innerHeight;

		// calculate real viewbox

		realsvgW = svgW;
		realsvgH = svgH;
		if((svgW / svgH) > (vboxW / vboxH))
		{
			realvboxW = (vboxH * svgW) / svgH;
			realvboxH = vboxH;
			realx0 = x0 - (realvboxW - vboxW)/2 ;
		}
		else
		{
			realvboxH = (vboxW * svgH) / svgW;
			realvboxW = vboxW;
			realy0 = y0 - (realvboxH - vboxH)/2 ;
		}
	}

	// get user zoom/pan

	var newScale = root.currentScale;
	var translation = root.currentTranslate;

	// transform pxl to user unit

	var xPos = (((evt.clientX+10- translation.x)/newScale) * realvboxW)/realsvgW  + realx0 ;
	var yPos = (((evt.clientY+5- translation.y)/newScale) * realvboxH)/ realsvgH  + realy0 ;
	var scaleForWidth = ( (1 / newScale) * realvboxH) / realsvgH;

	// move tooltip

	toolTip.setAttribute("transform", "translate(" + xPos + "," + yPos + ")" );

	// resize tooltip

	var fontsize = 12;
	tiptext.setAttribute("font-size",fontsize*scaleForWidth);
	tiptext.setAttribute("y", fontsize*scaleForWidth);
	var tipBG = svgDocument.getElementById('ToolTipBG');
	var outline = tiptext.getBBox();
	if(tipBG)
	{
		tipBG.setAttribute("stroke-width", 1*scaleForWidth);
		tipBG.setAttribute("width", Number(outline.width) );
		tipBG.setAttribute("height", Number(outline.height) + fontsize*.5*scaleForWidth );
	}
	var ToolTipShadow = svgDocument.getElementById('ToolTipShadow');
	if(ToolTipShadow)
	{
		ToolTipShadow.setAttribute("width", Number(outline.width) );
		ToolTipShadow.setAttribute("height", Number(outline.height) + fontsize*.5*scaleForWidth );
		ToolTipShadow.setAttribute("x", 3*scaleForWidth);
		ToolTipShadow.setAttribute("y", 3*scaleForWidth);
	}
}
function ShowPaper()
{
  var svgDocument = getDocument();
  var paper = svgDocument.getElementById("paperID");
  if(paper)
  {
    paper.setAttribute("transform","scale(1)");
    paper.setAttribute("opacity","1");
    paper.setAttribute("visibility","visible");
  }
  var svg = svgDocument.getRootElement();
  if(svg)
  {
    svg.setAttribute("width","220.000mm");
    svg.setAttribute("height","160.000mm");
    svg.setAttribute("viewBox","-5.000000 -5.000000 220.000000 160.000000");
  }
}
]]></script><defs/><g><path style="fill:#ffffff" d="M209.99,149.93L0.04,149.93L0.04,0.04L209.99,0.04z"/><path style="fill:#fc8510" d="M103.58,63.27L104.07,63.54L104.22,63.78L105.35,64.44L105.69,64.44L107.34,63.52L107.51,63.52L108.27,63.91L108.79,64.29L108.91,65.05L109.04,65.18L109.93,66.32L111.07,67.46L111.19,68.23L111.57,74.45L112.33,75.10L113.34,75.60L113.48,75.97L113.87,76.48L114.11,78.78L114.49,79.53L115.01,80.80L115.52,81.30L116.40,81.82L117.05,82.32L117.67,83.22L117.92,84.36L118.56,95.15L118.82,100.91L118.69,101.17L116.40,102.56L116.40,103.91L116.53,105.57L116.41,107.01L116.22,107.33L105.44,113.57L104.84,113.57L93.92,108.11L93.55,107.84L92.78,106.58L92.65,106.21L92.53,105.44L92.40,101.63L91.26,82.07L91.13,81.18L91.12,79.65L90.25,79.14L89.73,78.52L89.34,77.64L89.34,76.39L89.73,76.01L89.74,75.59L89.23,74.83L87.95,74.83L87.08,73.04L86.81,72.56L86.43,70.90L85.66,68.87L85.67,68.41L87.53,67.34L89.50,67.16L90.11,68.61L90.97,68.62L92.27,68.15L92.80,67.77L92.59,66.93L93.81,66.95L93.93,67.08L94.27,68.03L94.50,67.99L95.28,67.09L96.93,66.46L101.03,64.07L101.63,63.41L102.93,63.15z"/><path style="fill:#8ba8c0" d="M80.47,34.83L92.59,66.93L92.80,67.77L92.27,68.15L90.97,68.62L90.11,68.61L89.50,67.16L77.78,35.85L77.79,35.52L79.06,34.87L79.53,34.71L80.35,34.70z"/><path style="fill:#8ba8c0" d="M96.59,77.63L96.72,78.29L95.91,78.77L94.78,79.16L94.05,79.15L92.65,75.47L92.60,75.09L93.92,74.75L95.22,74.19z"/><path style="stroke:#000000;stroke-width:0.088" d="M86.77,71.13L85.90,68.82L85.82,68.83L85.75,68.82L85.69,68.82L85.64,68.80L85.60,68.79L85.57,68.76L85.56,68.74L86.64,71.61"/><path style="stroke:#000000;stroke-width:0.088" d="M86.58,68.52L86.48,68.24L86.95,67.97L86.51,68.00L85.94,68.33L85.85,68.38L85.78,68.44L85.71,68.49L85.66,68.54L85.62,68.58L85.58,68.63L85.56,68.67L85.55,68.70L85.56,68.74"/><path style="stroke:#000000;stroke-width:0.088" d="M89.45,68.82L89.37,68.61L85.90,68.82"/><path style="stroke:#000000;stroke-width:0.088" d="M88.19,71.01L88.15,71.04L88.11,71.09L88.08,71.12L88.07,71.16L87.93,71.08L87.82,71.02L87.70,70.97L87.59,70.93L87.48,70.91L87.38,70.90L87.27,70.91L87.18,70.93L87.09,70.96L87.01,71.01L86.93,71.07L86.87,71.14L86.81,71.23L86.76,71.32L86.73,71.43L86.70,71.54L86.68,71.67L86.68,71.80L86.68,71.93L86.70,72.07L86.72,72.22L86.76,72.37L86.81,72.52L86.86,72.67L86.93,72.82L87.00,72.96L87.08,73.10L87.17,73.24L87.27,73.37L87.38,73.51L87.38,73.54L87.38,73.55L87.40,73.57L87.42,73.57L87.45,73.55L87.86,73.35L88.61,70.73L88.19,71.01L88.03,70.91L87.90,70.84L87.78,70.79L87.66,70.75L87.54,70.73L87.42,70.72L87.31,70.73L87.21,70.75L87.11,70.78L87.02,70.83L86.93,70.91L86.86,70.99L86.78,71.10L86.73,71.21L86.69,71.32L86.66,71.46L86.64,71.59L86.63,71.74L86.64,71.89L86.66,72.03L86.69,72.19L86.72,72.35L86.77,72.51L86.83,72.66L86.90,72.82L86.98,72.97L87.06,73.12L87.16,73.26L87.26,73.40L87.39,73.56"/><path style="stroke:#000000;stroke-width:0.088" d="M86.48,68.24L86.39,68.30L86.35,68.33L86.31,68.36L86.26,68.41L86.25,68.43L86.24,68.45L86.23,68.47L86.23,68.48L86.24,68.50L86.26,68.51L86.28,68.52L86.30,68.53L86.37,68.53L86.41,68.53L89.93,68.31"/><path style="stroke:#000000;stroke-width:0.088" d="M86.51,68.00L87.60,67.37L89.54,67.25"/><path style="stroke:#000000;stroke-width:0.088" d="M91.59,74.75L88.21,74.97L88.13,74.97L88.06,74.97L88.00,74.96L87.95,74.95L87.91,74.93L87.88,74.91L87.87,74.88L87.36,73.52"/><path style="stroke:#000000;stroke-width:0.088" d="M87.38,73.51L88.07,71.16"/><path style="stroke:#000000;stroke-width:0.088" d="M87.80,73.87L87.64,73.46"/><path style="stroke:#000000;stroke-width:0.088" d="M87.02,70.83L87.92,70.18L88.01,70.12L88.11,70.07L88.22,70.04L88.34,70.02L88.46,70.02L88.58,70.04L88.71,70.07L88.85,70.12L88.98,70.19L89.12,70.27L89.25,70.36L89.39,70.47L89.52,70.59L89.64,70.72L89.76,70.86L89.87,71.01L89.98,71.17L90.08,71.33L90.19,71.54L90.25,71.67L90.32,71.85L90.37,72.02L90.42,72.20L90.45,72.37L90.47,72.53L90.48,72.69L90.48,72.85L90.46,72.99L90.43,73.13L90.39,73.25L90.33,73.37L90.27,73.47L90.19,73.55L90.11,73.62L90.01,73.68L88.94,74.15L89.02,74.10L89.11,74.03L89.18,73.96L89.24,73.87L89.29,73.77L89.33,73.64L89.36,73.53L89.37,73.40L89.38,73.25L89.37,73.11L89.36,72.95L89.33,72.80L89.29,72.64L89.24,72.47L89.18,72.31L89.11,72.15L89.03,71.99L88.94,71.84L88.84,71.69L88.74,71.55L88.60,71.38L89.03,71.11L88.90,70.98L88.78,70.86L88.61,70.73"/><path style="stroke:#000000;stroke-width:0.088" d="M87.02,70.84L86.98,70.87"/><path style="stroke:#000000;stroke-width:0.088" d="M89.64,73.84L89.73,73.85L89.86,73.84L89.98,73.82L90.09,73.78L90.19,73.72L90.28,73.64L90.36,73.55L90.41,73.47L90.43,73.45L90.49,73.33L90.53,73.19L90.56,73.05L90.58,72.90L90.58,72.73L90.58,72.56L90.55,72.39L90.52,72.21L90.47,72.02L90.41,71.84L90.34,71.65L90.25,71.47L90.16,71.29L90.05,71.12L89.94,70.95L89.82,70.79L89.69,70.64L89.56,70.50L89.42,70.37L89.28,70.26L89.14,70.16L89.00,70.08L88.85,70.01L88.71,69.95L88.57,69.92L88.46,69.90L88.44,69.90L88.31,69.90L88.19,69.92L88.07,69.95L87.97,70.00L87.87,70.07L87.79,70.15L87.71,70.25L87.65,70.36L87.64,70.39"/><path style="stroke:#000000;stroke-width:0.088" d="M87.15,68.48L86.95,67.97L87.10,67.96L87.28,68.05L86.99,68.06"/><path style="stroke:#000000;stroke-width:0.088" d="M87.36,68.47L87.40,68.35L87.11,68.37"/><path style="stroke:#000000;stroke-width:0.088" d="M87.40,68.35L87.28,68.05L87.22,68.27L87.40,68.35L87.44,68.46"/><path style="stroke:#000000;stroke-width:0.088" d="M87.22,68.27L87.07,68.28"/><path style="stroke:#000000;stroke-width:0.088" d="M87.28,68.05L87.22,67.89L87.10,67.96"/><path style="stroke:#000000;stroke-width:0.088" d="M87.22,67.89L89.72,67.73"/><path style="stroke:#000000;stroke-width:0.088" d="M88.21,74.97L87.83,73.95"/><path style="stroke:#000000;stroke-width:0.088" d="M88.60,71.38L88.56,71.42L88.52,71.45L88.50,71.49L88.48,71.53L88.59,71.67L88.69,71.81L88.78,71.94L88.86,72.08L88.93,72.23L89.00,72.38L89.05,72.53L89.10,72.68L89.14,72.83L89.16,72.97L89.18,73.11L89.19,73.25L89.18,73.38L89.16,73.50L89.14,73.62L89.10,73.72L89.05,73.82L89.00,73.90L88.93,73.97L88.86,74.03L88.77,74.08L88.68,74.12L88.59,74.14L88.49,74.14L88.38,74.13L88.27,74.11L88.16,74.08L88.04,74.03L87.93,73.97L87.80,73.89L87.79,73.91L87.80,73.93L87.80,73.93L87.83,73.96L87.95,74.03L88.08,74.10L88.21,74.16L88.34,74.19L88.46,74.22L88.58,74.23L88.70,74.22L88.83,74.19L88.94,74.15"/><path style="stroke:#000000;stroke-width:0.088" d="M88.48,71.53L87.80,73.89"/><path style="stroke:#000000;stroke-width:0.088" d="M87.86,73.35L87.93,73.43"/><path style="stroke:#000000;stroke-width:0.088" d="M87.97,70.00L88.17,69.88L88.28,69.83L88.39,69.80L88.52,69.78L88.64,69.78L88.78,69.80L88.92,69.84L89.06,69.89L89.20,69.96L89.34,70.04L89.49,70.14L89.63,70.26L89.77,70.38L89.90,70.52L90.03,70.67L90.08,70.74"/><path style="stroke:#000000;stroke-width:0.088" d="M88.84,74.19L88.93,74.16"/><path style="stroke:#000000;stroke-width:0.088" d="M90.00,78.90L89.97,78.87L89.87,78.74L89.77,78.60L89.69,78.46L89.60,78.31L89.53,78.16L89.47,78.00L89.42,77.85L89.37,77.69L89.34,77.54L89.32,77.39L89.31,77.25L89.31,77.11L89.32,76.98L89.35,76.86L89.38,76.75L89.43,76.65L89.48,76.56L89.55,76.48L89.62,76.41L89.70,76.36L89.79,76.32L89.89,76.30L89.99,76.29L90.10,76.29L90.21,76.31L90.33,76.34L90.45,76.39L90.57,76.45L90.69,76.52L90.81,76.61L90.92,76.71L91.04,76.81L91.15,76.93L91.25,77.06L91.35,77.19L91.44,77.34L91.53,77.48L91.60,77.63L91.67,77.78L91.70,77.86L91.73,77.94L91.78,78.09L91.81,78.25L91.84,78.40L91.86,78.54L91.86,78.68L91.85,78.82L91.84,78.94L91.81,79.06L91.77,79.17L91.72,79.26L91.66,79.35L91.59,79.42L91.51,79.48L91.42,79.53L91.33,79.56L91.23,79.58L91.12,79.58L91.01,79.57L90.90,79.54L90.78,79.50L90.66,79.45L90.54,79.38L90.42,79.30L90.31,79.21L90.19,79.11L90.08,78.99L90.00,78.90"/><path style="stroke:#000000;stroke-width:0.088" d="M91.70,79.64L91.80,79.59L91.89,79.52L91.97,79.44L92.04,79.34L92.10,79.23L92.14,79.11L92.17,78.98L92.19,78.84L92.20,78.80L92.20,78.68L92.20,78.53L92.18,78.36L92.15,78.19L92.11,78.02L92.05,77.84L91.99,77.67L91.91,77.49L91.82,77.32L91.73,77.16L91.62,77.00L91.51,76.84L91.39,76.70L91.36,76.67L91.27,76.57L91.14,76.44L91.01,76.33L90.87,76.24L90.74,76.15L90.60,76.08L90.47,76.03L90.34,75.99L90.21,75.97L90.08,75.97L89.97,75.98L89.86,76.01L89.76,76.05L89.64,76.12L89.55,76.21L89.45,76.32L89.38,76.44L89.33,76.57L89.28,76.71L89.26,76.86L89.24,77.00L89.24,77.16L89.25,77.32L89.27,77.48L89.31,77.66L89.36,77.82L89.41,77.99L89.48,78.15L89.56,78.32L89.65,78.48L89.74,78.63L89.85,78.78L89.96,78.92L90.07,79.06L90.19,79.18L90.33,79.30L90.45,79.40L90.58,79.48L90.73,79.56L90.87,79.63L91.00,79.67L91.14,79.71L91.28,79.72L91.42,79.72L91.56,79.69L91.69,79.65L91.80,79.59"/><path style="stroke:#000000;stroke-width:0.088" d="M89.80,77.46L90.20,76.92L90.99,77.39L91.37,78.40L90.97,78.95L90.18,78.48L89.80,77.46L90.47,77.08"/><path style="stroke:#000000;stroke-width:0.088" d="M89.66,76.11L89.75,76.05"/><path style="stroke:#000000;stroke-width:0.088" d="M89.99,75.38L90.05,75.42L89.66,75.44L89.46,75.36L89.87,75.33L89.99,75.38"/><path style="stroke:#000000;stroke-width:0.088" d="M89.92,75.96L89.78,75.97L89.82,75.75L89.62,75.66L89.99,75.64L90.05,75.42L90.17,75.72L90.14,75.83"/><path style="stroke:#000000;stroke-width:0.088" d="M89.62,75.66L89.66,75.44"/><path style="stroke:#000000;stroke-width:0.088" d="M89.78,75.97L89.85,76.00"/><path style="stroke:#000000;stroke-width:0.088" d="M89.82,75.75L90.17,75.72L89.99,75.64"/><path style="stroke:#000000;stroke-width:0.088" d="M89.76,76.05L91.38,75.11L91.48,75.06L91.59,75.03L91.69,75.02"/><path style="stroke:#000000;stroke-width:0.088" d="M89.46,75.36L89.50,75.14L89.30,75.05L89.76,75.02L89.80,74.87"/><path style="stroke:#000000;stroke-width:0.088" d="M89.87,75.33L89.94,75.11L89.84,74.86"/><path style="stroke:#000000;stroke-width:0.088" d="M89.30,75.05L89.33,74.90"/><path style="stroke:#000000;stroke-width:0.088" d="M89.76,75.02L89.94,75.11L89.50,75.14"/><path style="stroke:#000000;stroke-width:0.088" d="M89.94,75.11L90.05,75.42"/><path style="stroke:#000000;stroke-width:0.088" d="M89.80,70.00L89.41,68.96L89.43,69.00L89.46,69.04L89.52,69.06L89.59,69.08L89.67,69.10L89.78,69.10L89.89,69.10L90.02,69.09L90.16,69.07L90.32,69.04L90.46,69.01L90.65,68.97L90.83,68.92L91.01,68.87L91.20,68.81L91.39,68.75L91.58,68.68L91.76,68.61L91.95,68.53L92.13,68.46L92.31,68.38L92.47,68.29L92.63,68.21L92.78,68.13L95.09,74.27L94.94,74.35L94.78,74.44L94.62,74.52L94.44,74.60L94.26,74.68L94.07,74.75L93.89,74.83L93.70,74.89L93.51,74.96L93.32,75.01L93.14,75.07L92.96,75.11L92.77,75.16L92.63,75.19L92.47,75.21L92.33,75.23L92.20,75.24L92.09,75.24L91.98,75.24L91.90,75.23L91.83,75.21L91.77,75.18L91.74,75.14L91.72,75.10L89.80,70.00"/><path style="stroke:#000000;stroke-width:0.088" d="M89.37,68.61L89.44,68.61L89.50,68.61L89.52,68.62L89.53,68.63L89.54,68.64L89.55,68.66L89.54,68.68L89.54,68.69L89.53,68.71L89.46,68.80L89.42,68.86L89.41,68.91L89.41,68.96"/><path style="stroke:#000000;stroke-width:0.088" d="M90.18,78.48L91.18,77.90"/><path style="stroke:#000000;stroke-width:0.088" d="M90.17,75.72L90.19,75.80"/><path style="stroke:#000000;stroke-width:0.088" d="M91.25,74.78L91.20,74.80L91.09,74.87L91.00,74.97L90.91,75.08L90.84,75.20L90.79,75.34L90.75,75.48"/><path style="stroke:#000000;stroke-width:0.088" d="M90.09,73.78L90.39,73.60L90.48,73.52L90.56,73.43L90.63,73.33L90.69,73.21L90.73,73.08L90.77,72.93L90.78,72.78L90.79,72.63"/><path style="stroke:#000000;stroke-width:0.088" d="M90.83,68.74L90.73,68.76"/><path style="stroke:#000000;stroke-width:0.088" d="M90.72,68.76L90.63,68.78"/><path style="stroke:#000000;stroke-width:0.088" d="M90.61,68.78L90.53,68.79"/><path style="stroke:#000000;stroke-width:0.088" d="M90.52,68.79L90.44,68.80"/><path style="stroke:#000000;stroke-width:0.088" d="M90.43,68.80L90.36,68.80"/><path style="stroke:#000000;stroke-width:0.088" d="M90.29,68.80L90.35,68.80"/><path style="stroke:#000000;stroke-width:0.088" d="M90.23,68.80L90.28,68.80"/><path style="stroke:#000000;stroke-width:0.088" d="M90.22,68.80L90.17,68.78"/><path style="stroke:#000000;stroke-width:0.088" d="M90.13,68.77L90.17,68.78"/><path style="stroke:#000000;stroke-width:0.088" d="M90.10,68.74L90.10,68.73"/><path style="stroke:#000000;stroke-width:0.088" d="M90.11,68.74L90.13,68.77"/><path style="stroke:#000000;stroke-width:0.088" d="M91.20,74.80L91.24,74.78"/><path style="stroke:#000000;stroke-width:0.088" d="M91.46,68.55L91.56,68.51"/><path style="stroke:#000000;stroke-width:0.088" d="M91.31,68.60L91.21,68.64"/><path style="stroke:#000000;stroke-width:0.088" d="M91.43,68.56L91.33,68.59"/><path style="stroke:#000000;stroke-width:0.088" d="M91.08,68.67L91.18,68.64"/><path style="stroke:#000000;stroke-width:0.088" d="M91.06,68.68L90.96,68.71"/><path style="stroke:#000000;stroke-width:0.088" d="M90.94,68.71L90.85,68.73"/><path style="stroke:#000000;stroke-width:0.088" d="M91.80,79.59L93.48,78.62L93.56,78.55L93.64,78.46L93.71,78.35"/><path style="stroke:#000000;stroke-width:0.088" d="M96.08,78.78L96.07,78.86L96.00,79.15L95.92,79.41L95.80,79.65L95.66,79.86L95.50,80.04L95.32,80.19L95.12,80.31L94.90,80.39L94.66,80.44L94.41,80.46L94.15,80.44L93.87,80.39L93.59,80.30L93.31,80.18L93.02,80.03L92.74,79.84L92.45,79.63L92.16,79.38"/><path style="stroke:#000000;stroke-width:0.088" d="M91.70,68.46L91.59,68.50"/><path style="stroke:#000000;stroke-width:0.088" d="M92.15,68.25L92.07,68.29"/><path style="stroke:#000000;stroke-width:0.088" d="M92.26,68.20L92.18,68.24"/><path style="stroke:#000000;stroke-width:0.088" d="M91.93,68.36L91.84,68.40"/><path style="stroke:#000000;stroke-width:0.088" d="M92.05,68.31L91.96,68.35"/><path style="stroke:#000000;stroke-width:0.088" d="M91.71,68.45L91.81,68.41"/><path style="stroke:#000000;stroke-width:0.088" d="M92.28,68.18L93.35,67.57L93.80,67.54L96.11,73.68L95.09,74.27"/><path style="stroke:#000000;stroke-width:0.088" d="M93.86,78.74L93.77,78.84L93.67,78.93L93.55,78.99L93.43,79.04L93.30,79.07L93.16,79.08L93.01,79.07L92.86,79.04L92.79,79.02"/><path style="stroke:#000000;stroke-width:0.088" d="M92.42,75.22L92.49,75.26L92.57,75.32"/><path style="stroke:#000000;stroke-width:0.088" d="M92.79,67.70L92.93,67.69L92.90,67.83"/><path style="stroke:#000000;stroke-width:0.088" d="M92.78,68.13L93.80,67.54"/><path style="stroke:#000000;stroke-width:0.088" d="M92.93,67.69L92.76,67.61L92.75,67.61"/><path style="stroke:#000000;stroke-width:0.088" d="M92.76,67.61L93.85,66.98L92.55,67.06"/><path style="stroke:#000000;stroke-width:0.088" d="M93.38,78.68L93.38,78.68"/><path style="stroke:#000000;stroke-width:0.088" d="M93.55,78.99L93.88,78.80"/><path style="stroke:#000000;stroke-width:0.088" d="M93.85,66.98L94.50,68.71L94.29,68.83"/><path style="stroke:#000000;stroke-width:0.088" d="M95.12,80.31L96.09,79.75L96.08,79.75"/><path style="stroke:#000000;stroke-width:0.088" d="M95.33,74.46L95.36,74.45L95.34,74.50"/><path style="stroke:#000000;stroke-width:0.088" d="M95.36,74.45L95.32,74.43"/><path style="stroke:#000000;stroke-width:0.088" d="M95.29,74.16L95.25,74.25"/><path style="stroke:#000000;stroke-width:0.088" d="M95.29,71.51L95.50,71.39L95.25,71.40"/><path style="stroke:#000000;stroke-width:0.088" d="M96.09,79.75L96.29,79.63L96.47,79.48L96.63,79.30L96.77,79.09L96.88,78.85L96.97,78.59L97.04,78.30L97.07,78.00L97.08,77.67L97.07,77.33L97.02,76.98L96.95,76.62L96.28,77.00"/><path style="stroke:#000000;stroke-width:0.088" d="M95.94,73.24L96.16,73.12L95.50,71.39"/><path style="stroke:#000000;stroke-width:0.088" d="M96.95,76.62L96.16,73.12"/><path style="stroke:#000000;stroke-width:0.088" d="M90.09,68.72L77.71,35.80L77.73,35.82L77.76,35.85L77.85,35.87L77.98,35.88L78.15,35.87L78.36,35.83L78.59,35.78L78.83,35.71L79.08,35.63L79.34,35.53L79.58,35.43L79.80,35.32L80.00,35.21L80.17,35.10L80.30,35.00L80.38,34.91L80.40,34.87L80.42,34.83L80.42,34.80L92.85,67.86"/><path style="stroke:#000000;stroke-width:0.088" d="M77.71,35.80L77.71,35.77L77.71,35.73L77.76,35.65L77.86,35.56L78.00,35.45L78.17,35.35L78.49,35.18L78.73,35.07L78.98,34.97L79.23,34.89L79.48,34.81L79.71,34.76L80.02,34.71L80.18,34.70L80.30,34.71L80.38,34.74L80.41,34.77L80.42,34.80"/><path style="stroke:#000000;stroke-width:0.088" d="M95.23,74.19L96.75,78.23L96.75,78.27L96.73,78.30L96.67,78.39L96.57,78.48L96.42,78.59L96.24,78.70L96.02,78.81L95.79,78.92L95.54,79.02L95.29,79.11L95.04,79.19L94.80,79.25L94.58,79.29L94.39,79.31L94.24,79.32L94.13,79.30L94.09,79.28L94.06,79.26L94.04,79.24L92.53,75.20"/><path style="stroke:#000000;stroke-width:0.088" d="M91.19,81.57L92.54,104.57"/><path style="stroke:#000000;stroke-width:0.088" d="M93.98,83.76L94.15,83.67L94.25,83.59L94.35,83.49L94.43,83.38L94.49,83.26L94.55,83.12L94.59,82.96L94.61,82.80L94.62,82.62L94.62,82.44L94.45,82.54L94.45,82.72L94.44,82.90L94.42,83.06L94.38,83.22L94.32,83.36L94.26,83.48L94.18,83.59L94.08,83.69L93.98,83.76L93.86,83.82L93.74,83.86L93.61,83.89L93.47,83.89L93.32,83.87L93.17,83.84L93.01,83.78L92.86,83.71L92.70,83.62L92.54,83.52L92.38,83.40L92.23,83.26L92.08,83.11L91.94,82.95L91.81,82.78L91.68,82.60L91.56,82.41L91.45,82.21L91.36,82.01L91.27,81.81L91.20,81.60L91.14,81.40L91.10,81.20L91.07,81.00L91.03,80.45L91.03,80.30L91.04,80.12L91.06,79.95L91.10,79.80L91.13,79.70"/><path style="stroke:#000000;stroke-width:0.088" d="M93.27,80.16L93.47,80.40L93.67,80.69L93.76,80.85L93.90,81.17L93.96,81.33L94.01,81.49L94.05,81.65L94.07,81.81L94.09,81.96L94.11,82.37L94.11,82.51L94.11,82.65L94.08,82.79L94.05,82.91L94.01,83.02L93.96,83.12L93.89,83.21L93.82,83.28L93.74,83.35L93.65,83.39L93.55,83.43L93.44,83.45L93.33,83.45L93.22,83.44L93.10,83.41L92.97,83.37L92.85,83.32L92.72,83.25L92.60,83.16L92.47,83.07L92.35,82.96L92.23,82.85L92.12,82.72L91.91,82.44L91.81,82.29L91.65,81.97L91.58,81.81L91.52,81.65L91.47,81.49L91.44,81.33L91.41,81.17L91.40,81.02L91.37,80.47L91.38,80.33L91.40,80.20L91.43,80.07L91.47,79.96L91.52,79.86L91.59,79.77L91.66,79.70L91.74,79.64L91.84,79.59L91.93,79.55L92.04,79.54L92.15,79.53L92.27,79.54L92.38,79.57"/><path style="stroke:#000000;stroke-width:0.088" d="M91.40,81.02L91.57,80.92L91.54,80.52L91.37,80.61"/><path style="stroke:#000000;stroke-width:0.088" d="M91.57,80.92L91.58,81.07L91.61,81.23L91.64,81.39L91.69,81.55L91.75,81.72L91.82,81.88L91.90,82.04L92.08,82.34L92.29,82.62L92.40,82.75L92.52,82.86L92.64,82.97L92.77,83.07L92.89,83.15L93.02,83.22L93.14,83.27L93.27,83.31L93.39,83.34L93.50,83.35L93.61,83.35L93.72,83.33L93.80,83.30"/><path style="stroke:#000000;stroke-width:0.088" d="M92.10,81.55L92.18,81.76L92.23,81.87L92.29,81.98L92.42,82.17L92.53,82.31L92.65,82.43L92.82,82.57L92.90,82.62L92.99,82.67L93.15,82.73L93.23,82.75L93.31,82.76L93.39,82.76L93.46,82.74L93.52,82.72L93.58,82.69L93.64,82.64L93.69,82.59L93.73,82.53L93.76,82.46L93.81,82.30L93.82,82.12L93.81,81.91L93.79,81.81L93.76,81.70L93.69,81.48L93.58,81.27L93.46,81.06L93.39,80.97L93.23,80.80L93.15,80.72L93.07,80.65L92.90,80.54L92.82,80.50L92.65,80.45L92.50,80.43L92.42,80.44L92.36,80.46L92.29,80.49L92.24,80.53L92.18,80.57L92.14,80.63L92.10,80.69L92.07,80.77L92.03,80.93L92.02,81.03L92.03,81.23L92.07,81.44L92.10,81.55"/><path style="stroke:#000000;stroke-width:0.088" d="M91.86,79.58L91.76,79.67L91.69,79.76L91.64,79.86L91.60,79.98L91.57,80.10L91.55,80.23L91.54,80.37L91.54,80.52"/><path style="stroke:#000000;stroke-width:0.088" d="M93.08,107.26L92.92,106.98L92.82,106.78L92.73,106.58L92.66,106.38L92.60,106.18L92.55,105.98L92.52,105.78L92.50,105.59L92.48,105.18L92.48,105.00L92.49,104.83L92.51,104.66L92.55,104.51L92.60,104.37L92.67,104.24L92.75,104.13L92.84,104.04L92.95,103.96L93.06,103.90L93.18,103.86L93.31,103.84L93.45,103.83L93.60,103.85L93.75,103.88L93.90,103.93L94.06,104.00L94.21,104.09L94.37,104.19L94.53,104.31L94.68,104.44L94.83,104.59L94.97,104.75L95.10,104.92L95.23,105.10L95.35,105.28L95.46,105.48L95.56,105.68L95.64,105.88L95.72,106.08L95.78,106.28L95.82,106.48L95.85,106.68L95.87,106.87L95.90,107.27L95.90,107.46L95.89,107.63L95.86,107.80L95.83,107.95L95.77,108.09L95.71,108.22L95.63,108.33L95.53,108.42L95.48,108.46L95.43,108.50L95.32,108.56L95.19,108.60L95.06,108.62L94.92,108.63L94.78,108.61L94.62,108.58L94.47,108.53L94.32,108.46L94.16,108.37L94.00,108.27L93.85,108.15L93.70,108.02L93.55,107.87L93.41,107.71L93.27,107.54L93.08,107.26"/><path style="stroke:#000000;stroke-width:0.088" d="M95.24,108.04L95.17,108.07L95.06,108.09L94.95,108.09L94.83,108.08L94.71,108.05L94.59,108.01L94.46,107.96L94.34,107.89L94.21,107.81L94.09,107.71L93.97,107.60L93.85,107.49L93.63,107.22L93.53,107.08L93.34,106.77L93.20,106.45L93.14,106.29L93.09,106.13L93.05,105.97L93.03,105.81L93.01,105.66L92.84,105.76L92.86,105.91L92.88,106.07L92.92,106.23L92.97,106.39L93.03,106.55L93.10,106.71L93.17,106.87L93.36,107.18L93.46,107.32L93.68,107.58L93.80,107.70L93.92,107.81L94.04,107.90L94.17,107.99L94.29,108.05L94.42,108.11L94.54,108.15L94.66,108.18L94.78,108.19L94.89,108.19L95.00,108.17L95.09,108.13L95.18,108.09L95.27,108.02L95.34,107.95L95.40,107.86L95.46,107.76L95.50,107.65L95.53,107.52L95.55,107.39L95.56,107.25L95.55,106.92L95.52,106.55L95.49,106.39L95.46,106.23L95.41,106.07L95.35,105.91L95.20,105.59L95.02,105.28L94.81,105.00L94.70,104.88L94.58,104.76L94.46,104.65L94.33,104.56L93.42,105.08L93.47,105.89L93.50,106.09L93.55,106.31L93.64,106.52L93.69,106.63L93.75,106.73L93.88,106.92L94.03,107.10L94.18,107.25L94.27,107.31L94.43,107.41L94.60,107.47L94.68,107.49L94.75,107.50L94.83,107.50L94.90,107.48L94.96,107.46L95.02,107.43L95.08,107.39L95.13,107.34L95.17,107.28L95.23,107.14L95.25,107.06L95.27,106.88L95.27,106.78L95.21,105.87L95.17,105.66L95.14,105.55L95.05,105.33"/><path style="stroke:#000000;stroke-width:0.088" d="M93.01,105.66L92.99,105.11L92.99,104.97L93.01,104.84L93.05,104.71L93.08,104.62L93.14,104.50L93.21,104.41L93.30,104.32"/><path style="stroke:#000000;stroke-width:0.088" d="M92.84,105.76L92.82,105.21L92.82,105.07L92.84,104.93L92.88,104.81L92.92,104.70L92.97,104.60L93.04,104.51L93.11,104.44L93.19,104.37L93.28,104.33L93.38,104.29L93.49,104.27L93.60,104.27L93.71,104.28L93.83,104.31L93.96,104.35L94.08,104.40L94.21,104.47L94.33,104.56"/><path style="stroke:#000000;stroke-width:0.088" d="M92.99,105.25L92.82,105.35"/><path style="stroke:#000000;stroke-width:0.088" d="M92.95,103.96L93.23,103.80L93.35,103.76L93.48,103.74L93.62,103.73L93.77,103.75L93.92,103.78L94.07,103.83L94.23,103.90L94.38,103.99L94.54,104.09L94.70,104.21L94.85,104.34L95.00,104.49L95.14,104.65L95.27,104.82L95.40,105.00L95.52,105.19L95.63,105.38L95.73,105.58L95.81,105.78L95.89,105.98L95.95,106.18L95.99,106.38L96.02,106.58L96.04,106.77L95.87,106.87"/><path style="stroke:#000000;stroke-width:0.088" d="M93.47,105.89L94.87,105.08"/><path style="stroke:#000000;stroke-width:0.088" d="M93.42,105.08L93.42,104.98L93.44,104.80L93.49,104.64L93.52,104.58L93.57,104.52L93.62,104.47L93.67,104.43L93.73,104.40L93.80,104.37L93.87,104.36L93.99,104.37"/><path style="stroke:#000000;stroke-width:0.088" d="M93.79,80.36L93.90,80.54L94.01,80.73L94.11,80.93L94.19,81.13L94.27,81.34L94.33,81.54L94.38,81.74L94.41,81.94L94.43,82.13L94.45,82.54"/><path style="stroke:#000000;stroke-width:0.088" d="M94.06,80.42L94.18,80.63L94.28,80.83L94.36,81.03L94.44,81.24L94.50,81.44L94.55,81.64L94.58,81.84L94.60,82.03L94.62,82.44"/><path style="stroke:#000000;stroke-width:0.088" d="M94.43,82.13L94.60,82.03"/><path style="stroke:#000000;stroke-width:0.088" d="M104.34,113.43L104.34,113.45L94.84,108.73L94.83,108.62"/><path style="stroke:#000000;stroke-width:0.088" d="M95.43,108.50L95.60,108.40L95.70,108.32L95.80,108.23L95.88,108.12L95.94,107.99L96.00,107.85L96.03,107.70L96.06,107.53L96.07,107.36L96.07,107.18L95.90,107.27"/><path style="stroke:#000000;stroke-width:0.088" d="M96.07,107.18L96.04,106.77"/><path style="stroke:#000000;stroke-width:0.088" d="M103.75,85.12L103.56,84.90L103.41,84.76L103.26,84.62L103.11,84.50L102.95,84.40L102.79,84.31L102.64,84.25L102.48,84.19L102.33,84.16L102.19,84.15L102.05,84.15L101.92,84.17L101.79,84.22L101.68,84.28L101.96,84.12L102.09,84.08L102.22,84.05L102.36,84.05L102.50,84.06L102.65,84.10L102.81,84.15L102.96,84.22L113.17,78.32L112.83,78.16L112.74,76.74L102.54,82.63L96.39,79.58"/><path style="stroke:#000000;stroke-width:0.088" d="M98.95,79.84L98.80,79.83L98.72,79.81L98.65,79.78L98.59,79.75L98.54,79.71L98.51,79.66L98.50,79.62L98.50,79.67L98.49,79.61"/><path style="stroke:#000000;stroke-width:0.088" d="M98.96,79.85L98.79,79.83L98.67,79.80L98.58,79.75L98.53,79.71L98.50,79.67"/><path style="stroke:#000000;stroke-width:0.088" d="M104.63,87.58L104.64,87.77L104.63,87.95L104.60,88.11L104.56,88.27L104.51,88.41L104.44,88.53L104.36,88.64L104.27,88.74L104.17,88.81L104.05,88.87L103.93,88.92L103.80,88.94L103.66,88.94L103.51,88.93L103.36,88.90L103.21,88.84L103.05,88.78L102.90,88.69L102.74,88.59L102.59,88.47L102.43,88.33L102.29,88.19L102.14,88.03L102.01,87.86L101.88,87.68L101.76,87.49L101.65,87.30L101.56,87.10L101.47,86.90L101.40,86.70L101.34,86.49L101.29,86.29L101.26,86.10L101.22,85.50L101.21,85.32L101.22,85.14L101.25,84.98L101.29,84.82L101.34,84.68L101.41,84.56L101.49,84.45L101.58,84.35L101.68,84.28"/><path style="stroke:#000000;stroke-width:0.088" d="M103.98,88.36L103.90,88.38L103.80,88.40L103.68,88.41L103.57,88.39L103.45,88.37L103.33,88.33L103.20,88.27L103.08,88.20L102.95,88.12L102.83,88.03L102.70,87.92L102.59,87.80L102.47,87.67L102.36,87.54L102.26,87.39L102.08,87.09L101.93,86.77L101.87,86.61L101.83,86.45L101.79,86.29L101.76,86.13L101.75,85.98L101.58,86.07L101.59,86.23L101.62,86.38L101.66,86.54L101.70,86.71L101.83,87.03L101.91,87.19L102.00,87.34L102.09,87.49L102.30,87.77L102.42,87.90L102.53,88.02L102.66,88.12L102.78,88.22L102.90,88.30L103.03,88.37L103.16,88.43L103.28,88.47L103.40,88.49L103.51,88.50L103.63,88.50L103.73,88.48L103.83,88.45L103.92,88.40L104.00,88.34L104.08,88.26L104.14,88.18L104.19,88.07L104.24,87.96L104.27,87.84L104.29,87.71L104.30,87.57L104.29,87.39"/><path style="stroke:#000000;stroke-width:0.088" d="M104.01,87.13L104.03,87.60L104.01,87.78L103.96,87.93L103.93,88.00L103.85,88.10L103.78,88.15L103.72,88.18L103.66,88.20L103.59,88.22L103.51,88.22L103.36,88.19L103.19,88.13L103.03,88.03L102.94,87.97L102.78,87.82L102.64,87.64L102.57,87.55L102.45,87.35L102.35,87.13L102.28,86.92L102.26,86.81L102.23,86.61L102.18,85.70L102.20,85.52L102.25,85.37L102.28,85.30L102.33,85.24L102.38,85.19L102.43,85.15L102.49,85.12L102.56,85.10L102.63,85.08L102.70,85.08L102.86,85.11L102.94,85.13L103.02,85.17L103.19,85.27L103.35,85.40L103.43,85.48L103.57,85.66L103.64,85.75L103.70,85.85L103.80,86.03"/><path style="stroke:#000000;stroke-width:0.088" d="M102.23,86.61L103.66,85.78"/><path style="stroke:#000000;stroke-width:0.088" d="M101.75,85.98L101.72,85.42L101.73,85.28L101.75,85.15L101.78,85.03L101.82,84.92L101.88,84.82L101.94,84.73L102.04,84.63"/><path style="stroke:#000000;stroke-width:0.088" d="M101.58,86.07L101.55,85.52L101.56,85.38L101.58,85.25L101.61,85.13L101.65,85.02L101.71,84.92L101.77,84.83L101.84,84.75L101.93,84.69L102.02,84.64L102.12,84.61L102.22,84.59L102.33,84.59L102.45,84.60L102.53,84.62L102.69,84.67L102.82,84.72L102.94,84.79L103.07,84.87L103.19,84.97L103.31,85.07L103.43,85.19L103.65,85.45L103.78,85.63"/><path style="stroke:#000000;stroke-width:0.088" d="M101.55,85.67L101.72,85.57"/><path style="stroke:#000000;stroke-width:0.088" d="M103.14,85.24L102.18,85.80"/><path style="stroke:#000000;stroke-width:0.088" d="M106.08,112.33L106.04,111.77L106.01,111.58L105.97,111.37L105.91,111.17L105.84,110.97L105.75,110.76L105.66,110.56L105.55,110.37L105.43,110.18L105.31,110.00L105.17,109.82L105.03,109.66L104.88,109.51L104.73,109.38L104.57,109.26L104.41,109.15L104.26,109.06L104.10,108.99L103.94,108.94L103.79,108.90L103.65,108.89L103.51,108.89L103.37,108.91L103.25,108.95L103.13,109.01L103.03,109.09L102.94,109.18L102.86,109.29L102.79,109.42L102.73,109.56L102.69,109.71L102.67,109.88L102.66,110.05L102.66,110.24L102.69,110.64L102.70,110.80L102.73,110.99L102.77,111.19L102.83,111.40L102.90,111.60L102.99,111.80L103.08,112.00L103.19,112.20L103.31,112.39L103.44,112.57L103.57,112.74L103.71,112.91L103.86,113.06L104.01,113.19L104.17,113.31L104.33,113.42L104.49,113.51L104.64,113.58L104.80,113.63L104.95,113.67L105.10,113.68L105.24,113.68L105.37,113.66L105.49,113.62L105.61,113.56L105.71,113.48L105.80,113.39L105.89,113.28L105.95,113.15L106.01,113.01L106.05,112.86L106.07,112.69L106.08,112.51L106.08,112.33L116.45,106.34L116.46,106.52L116.45,106.70L116.42,106.86L116.38,107.02L116.33,107.16L116.26,107.28L116.18,107.39L116.09,107.49L115.98,107.57L105.61,113.56"/><path style="stroke:#000000;stroke-width:0.088" d="M103.49,109.37L103.39,109.47L103.32,109.56L103.27,109.66L103.23,109.77L103.20,109.89L103.18,110.02L103.17,110.16L103.17,110.31L103.00,110.41L103.02,110.81L103.20,110.71L103.21,110.87L103.24,111.02L103.27,111.18L103.32,111.35L103.38,111.51L103.53,111.83L103.71,112.13L103.92,112.41L104.03,112.54L104.15,112.66L104.27,112.76L104.40,112.86L104.52,112.94L104.65,113.01L104.77,113.07L104.90,113.11L105.02,113.13L105.13,113.15L105.24,113.14L105.35,113.12L105.43,113.10"/><path style="stroke:#000000;stroke-width:0.088" d="M103.02,110.81L103.04,110.97L103.07,111.12L103.10,111.28L103.15,111.44L103.21,111.61L103.36,111.93L103.54,112.23L103.64,112.38L103.75,112.51L103.86,112.64L103.98,112.76L104.10,112.86L104.23,112.96L104.35,113.04L104.48,113.11L104.60,113.16L104.73,113.21L104.85,113.23L104.96,113.24L105.07,113.24L105.18,113.22L105.28,113.19L105.37,113.14L105.45,113.08L105.52,113.00L105.59,112.91L105.64,112.81L105.68,112.70L105.71,112.58L105.73,112.45L105.74,112.31L105.74,112.16L105.72,111.76L105.70,111.60L105.68,111.45L105.64,111.29L105.59,111.12L105.53,110.96L105.39,110.64L105.20,110.34L104.99,110.06L104.88,109.93L104.76,109.81L104.64,109.71L104.52,109.61L104.39,109.53L104.26,109.46L104.14,109.40L104.02,109.36L103.90,109.34L103.78,109.33L103.67,109.33L103.56,109.35L103.47,109.38L103.37,109.43L103.29,109.49L103.22,109.57L103.15,109.65L103.10,109.76L103.06,109.87L103.03,109.99L103.01,110.12L103.00,110.26L103.00,110.41"/><path style="stroke:#000000;stroke-width:0.088" d="M112.83,78.16L102.62,84.05L102.96,84.22"/><path style="stroke:#000000;stroke-width:0.088" d="M102.62,84.05L102.54,82.63"/><path style="stroke:#000000;stroke-width:0.088" d="M103.68,110.83L103.74,111.04L103.79,111.15L103.90,111.36L103.96,111.46L104.03,111.56L104.18,111.74L104.26,111.82L104.42,111.96L104.59,112.06L104.68,112.09L104.76,112.12L104.92,112.15L104.99,112.14L105.06,112.13L105.13,112.11L105.19,112.07L105.24,112.03L105.29,111.98L105.33,111.92L105.37,111.85L105.41,111.69L105.43,111.50L105.43,111.40L105.40,111.19L105.33,110.98L105.24,110.76L105.19,110.65L105.06,110.45L104.99,110.36L104.84,110.19L104.68,110.04L104.59,109.98L104.42,109.89L104.34,109.86L104.26,109.83L104.10,109.82L104.03,109.83L103.96,109.85L103.90,109.87L103.85,109.91L103.79,109.96L103.74,110.02L103.71,110.08L103.68,110.15L103.64,110.32L103.63,110.41L103.64,110.61L103.68,110.83"/><path style="stroke:#000000;stroke-width:0.088" d="M103.17,110.31L103.20,110.71"/><path style="stroke:#000000;stroke-width:0.088" d="M103.13,109.01L103.42,108.85L103.54,108.81L103.68,108.79L103.82,108.79L103.96,108.80L104.11,108.84L104.27,108.89L104.43,108.96L104.58,109.05L104.74,109.16L104.90,109.28L105.05,109.41L105.20,109.56L105.34,109.73L105.48,109.90L105.60,110.08L105.72,110.27L105.83,110.47L105.92,110.67L106.01,110.87L106.08,111.07L106.14,111.28L106.18,111.48L106.21,111.67L106.23,111.83L106.06,111.92"/><path style="stroke:#000000;stroke-width:0.088" d="M104.34,113.45L104.36,113.44"/><path style="stroke:#000000;stroke-width:0.088" d="M104.17,88.81L104.34,88.72L104.44,88.64L104.53,88.54L104.61,88.43L104.68,88.31L104.73,88.17L104.77,88.01L104.80,87.85L104.81,87.65"/><path style="stroke:#000000;stroke-width:0.088" d="M105.21,93.11L106.31,111.87L106.23,111.83"/><path style="stroke:#000000;stroke-width:0.088" d="M104.63,87.59L104.64,87.59"/><path style="stroke:#000000;stroke-width:0.088" d="M106.31,111.87L116.51,105.97L116.40,103.95L106.19,109.84L116.31,103.90L116.40,103.95"/><path style="stroke:#000000;stroke-width:0.088" d="M107.75,79.44L107.61,79.42"/><path style="stroke:#000000;stroke-width:0.088" d="M107.97,79.21L107.96,79.26L107.93,79.31L107.89,79.35L107.84,79.40L107.77,79.43L107.69,79.46L107.60,79.48L107.48,79.50"/><path style="stroke:#000000;stroke-width:0.088" d="M107.77,87.97L115.21,83.67L115.09,81.64L108.58,85.40"/><path style="stroke:#000000;stroke-width:0.088" d="M115.09,81.64L115.01,81.60L108.58,85.31"/><path style="stroke:#000000;stroke-width:0.088" d="M108.55,84.91L114.98,81.19L114.96,81.00L114.93,80.81L114.89,80.61L114.82,80.40L114.75,80.20L114.67,80.00L114.57,79.80L114.46,79.61L114.34,79.42L114.21,79.24L114.08,79.07L113.94,78.91L113.79,78.76L113.64,78.63L113.48,78.51L113.32,78.41L113.17,78.32"/><path style="stroke:#000000;stroke-width:0.088" d="M112.64,76.08L112.61,76.05L112.58,76.02L111.51,75.49"/><path style="stroke:#000000;stroke-width:0.088" d="M111.51,75.68L112.49,76.16L112.07,76.40"/><path style="stroke:#000000;stroke-width:0.088" d="M111.52,76.13L112.74,76.74"/><path style="stroke:#000000;stroke-width:0.088" d="M111.49,74.75L113.26,75.63L113.29,75.66L113.32,75.69L113.35,75.77L113.26,75.82"/><path style="stroke:#000000;stroke-width:0.088" d="M112.20,75.10L112.03,74.91L111.83,74.72L111.62,74.57L111.48,74.50"/><path style="stroke:#000000;stroke-width:0.088" d="M113.98,78.96L114.02,78.94L113.90,76.92L112.79,77.56"/><path style="stroke:#000000;stroke-width:0.088" d="M112.49,76.16L113.17,75.77L113.29,75.84L113.35,75.89L113.35,75.77"/><path style="stroke:#000000;stroke-width:0.088" d="M112.58,76.02L113.26,75.63"/><path style="stroke:#000000;stroke-width:0.088" d="M113.90,76.92L113.88,76.76L113.83,76.60L113.80,76.52L113.73,76.36L113.59,76.13L113.47,76.00L113.35,75.89"/><path style="stroke:#000000;stroke-width:0.088" d="M114.07,79.06L114.20,78.98L114.25,79.29"/><path style="stroke:#000000;stroke-width:0.088" d="M114.20,78.98L114.19,78.94L114.17,78.90L114.14,78.87L114.11,78.85L114.01,78.90"/><path style="stroke:#000000;stroke-width:0.088" d="M114.01,78.80L114.11,78.85"/><path style="stroke:#000000;stroke-width:0.088" d="M116.22,102.44L115.21,85.09L115.29,85.39L115.31,85.54L115.33,85.70L116.28,101.92L116.28,102.07L116.27,102.21L116.25,102.34L116.22,102.44L116.31,103.90"/><path style="stroke:#000000;stroke-width:0.088" d="M115.33,85.70L117.03,84.72L117.98,100.94L117.98,101.08L117.97,101.22L117.95,101.36L117.92,101.48L117.88,101.59L117.82,101.69L117.76,101.78L117.69,101.85L117.60,101.92L116.24,102.70"/><path style="stroke:#000000;stroke-width:0.088" d="M115.21,85.09L115.13,83.72"/><path style="stroke:#000000;stroke-width:0.088" d="M115.15,82.66L115.58,82.42L115.15,82.21L115.13,82.22"/><path style="stroke:#000000;stroke-width:0.088" d="M114.92,80.75L115.08,80.95L115.22,81.12L115.37,81.27L115.52,81.40L115.68,81.52L115.84,81.63L116.00,81.72L115.32,82.11L115.11,81.99"/><path style="stroke:#000000;stroke-width:0.088" d="M115.32,82.11L115.75,82.32L115.87,82.39L116.00,82.47L116.12,82.57L116.24,82.67L116.36,82.79L116.47,82.92L116.58,83.05L116.69,83.20L116.78,83.35L116.95,83.66L117.07,83.99L117.12,84.15L117.16,84.31L117.18,84.46L117.20,84.62L118.15,100.84L118.15,100.99L118.14,101.13L118.12,101.26L118.09,101.38L118.05,101.49L117.99,101.60L117.93,101.68L117.85,101.76L117.77,101.82L117.66,101.87"/><path style="stroke:#000000;stroke-width:0.088" d="M115.12,82.19L115.15,82.21"/><path style="stroke:#000000;stroke-width:0.088" d="M115.01,81.60L114.98,81.19"/><path style="stroke:#000000;stroke-width:0.088" d="M115.75,82.32L116.43,81.93L116.00,81.72"/><path style="stroke:#000000;stroke-width:0.088" d="M115.58,82.42L115.70,82.49L115.83,82.57L115.95,82.67L116.07,82.77L116.19,82.89L116.31,83.02L116.52,83.30L116.70,83.60L116.84,83.92L116.90,84.08L116.95,84.25L116.99,84.41L117.01,84.56L117.03,84.72"/><path style="stroke:#000000;stroke-width:0.088" d="M116.45,106.34L116.43,106.02"/><path style="stroke:#000000;stroke-width:0.088" d="M116.28,101.92L117.98,100.94"/><path style="stroke:#000000;stroke-width:0.088" d="M118.15,100.84L118.83,100.45L117.88,84.22L117.86,84.07L117.84,83.91L117.80,83.75L117.75,83.59L117.63,83.27L117.46,82.96L117.26,82.66L117.16,82.53L117.04,82.40L116.92,82.28L116.80,82.17L116.68,82.08L116.55,82.00L116.43,81.93"/><path style="stroke:#000000;stroke-width:0.088" d="M117.20,84.62L117.88,84.22"/><path style="stroke:#000000;stroke-width:0.088" d="M117.77,101.82L118.45,101.43L118.53,101.37L118.61,101.29L118.67,101.20L118.73,101.10L118.77,100.99L118.80,100.87L118.82,100.73L118.83,100.59L118.83,100.45"/><path style="stroke:#000000;stroke-width:0.088" d="M95.39,69.60L94.97,69.39L94.83,69.32L94.70,69.23L94.59,69.14L94.49,69.04L94.42,68.94L94.36,68.83L94.35,68.80"/><path style="stroke:#000000;stroke-width:0.088" d="M94.31,68.89L94.31,68.82"/><path style="stroke:#000000;stroke-width:0.088" d="M94.35,68.31L94.36,68.27L94.42,68.15L94.50,68.05L94.59,67.94L94.70,67.84L94.83,67.74L94.95,67.67"/><path style="stroke:#000000;stroke-width:0.088" d="M95.18,71.20L95.39,71.32L95.49,71.39"/><path style="stroke:#000000;stroke-width:0.088" d="M94.97,69.39L94.98,69.84"/><path style="stroke:#000000;stroke-width:0.088" d="M94.72,69.99L95.66,69.45L95.66,69.45"/><path style="stroke:#000000;stroke-width:0.088" d="M95.92,69.31L95.81,69.29L95.68,69.25L95.55,69.21L95.43,69.16L95.32,69.10L95.22,69.04L95.14,68.97L95.07,68.90L95.01,68.82L94.96,68.74L94.93,68.66L94.91,68.58L94.91,68.49L94.95,67.69L94.95,67.76L94.97,67.84L95.00,67.92L95.04,67.99L95.10,68.07L95.16,68.13L95.25,68.20L95.34,68.26L95.44,68.31L95.55,68.36L95.68,68.40L95.81,68.44L95.94,68.46L96.08,68.49L96.23,68.50L96.38,68.51L96.53,68.50L96.68,68.49L96.82,68.48L96.97,68.45L97.09,68.43L97.25,68.39L97.38,68.34L97.50,68.29L97.62,68.24L97.73,68.17L97.82,68.11L97.91,68.04L97.98,67.96L98.04,67.89L98.09,67.81L98.12,67.73L98.14,67.65L98.14,67.57L98.13,67.49L98.11,67.41L98.08,67.33L98.03,67.26L97.96,67.19L97.89,67.12L97.80,67.06L97.70,67.01L97.59,66.95L97.48,66.91L97.35,66.87L97.22,66.84L97.08,66.81L96.94,66.80L96.79,66.79L96.64,66.78L96.49,66.79L96.34,66.80L96.19,66.82L96.05,66.85L95.91,66.88L95.78,66.93L95.65,66.97L95.53,67.03L95.42,67.08L95.32,67.15L95.23,67.22L95.15,67.29L95.08,67.36L95.03,67.44L94.99,67.52L94.96,67.60L94.95,67.69"/><path style="stroke:#000000;stroke-width:0.088" d="M96.23,79.67L96.16,79.71L96.12,79.73"/><path style="stroke:#000000;stroke-width:0.088" d="M96.16,79.71L97.25,79.08L97.44,78.95L97.62,78.79L97.77,78.60L97.90,78.38L98.01,78.13L98.09,77.86L98.14,77.57L98.17,77.25L98.17,76.92L98.14,76.58L98.09,76.22L98.01,75.85L97.90,75.49L97.77,75.11L97.62,74.75L97.45,74.38L97.25,74.03L97.04,73.68L96.80,73.35L96.56,73.04L96.30,72.75L96.03,72.48L95.86,72.33"/><path style="stroke:#000000;stroke-width:0.088" d="M96.08,72.53L96.28,72.72L96.52,72.98L96.76,73.25L96.97,73.55L97.18,73.86L97.37,74.18L97.54,74.51L97.69,74.84L97.82,75.18L97.93,75.52L98.01,75.88"/><path style="stroke:#000000;stroke-width:0.088" d="M95.51,71.40L95.71,71.53L96.03,71.77L96.34,72.05L96.64,72.35L96.92,72.67L97.20,73.02L97.45,73.38L97.69,73.77L97.91,74.16L98.10,74.56L98.27,74.97L98.42,75.39L98.53,75.80L98.62,76.20L98.68,76.60L98.71,76.98L98.71,77.35L98.68,77.70L98.62,78.03L98.53,78.33L98.42,78.60L98.27,78.85L98.10,79.06L97.91,79.24L97.69,79.38L97.45,79.49L97.19,79.56L96.92,79.59L96.63,79.58L96.43,79.55"/><path style="stroke:#000000;stroke-width:0.088" d="M95.66,69.45L95.88,69.32L96.13,69.23L96.39,69.18L96.67,69.16L96.96,69.18L97.27,69.24L97.56,69.33L97.53,69.32"/><path style="stroke:#000000;stroke-width:0.088" d="M96.99,67.93L96.96,67.35L97.22,67.52L97.48,67.71L97.26,67.83L97.04,67.96L96.79,67.77L96.53,67.60L96.30,67.77L96.03,68.01L95.81,67.89L95.59,67.79L95.82,67.60L96.10,67.39L95.85,67.30L95.60,67.24L95.81,67.11L96.03,67.00L96.37,67.72"/><path style="stroke:#000000;stroke-width:0.088" d="M96.13,67.91L96.10,67.39"/><path style="stroke:#000000;stroke-width:0.088" d="M96.76,67.75L97.05,66.95L96.99,66.97L96.76,67.04L96.53,67.14L96.28,67.05L96.03,67.00"/><path style="stroke:#000000;stroke-width:0.088" d="M96.66,79.26L96.68,79.23L96.72,79.16"/><path style="stroke:#000000;stroke-width:0.088" d="M96.50,79.45L96.53,79.42L96.58,79.36"/><path style="stroke:#000000;stroke-width:0.088" d="M96.32,79.61L96.35,79.58L96.41,79.53"/><path style="stroke:#000000;stroke-width:0.088" d="M96.94,78.68L96.92,78.76L96.90,78.80"/><path style="stroke:#000000;stroke-width:0.088" d="M96.85,78.93L96.81,79.01L96.79,79.05"/><path style="stroke:#000000;stroke-width:0.088" d="M96.53,67.14L96.56,67.62"/><path style="stroke:#000000;stroke-width:0.088" d="M96.46,66.79L101.07,64.13"/><path style="stroke:#000000;stroke-width:0.088" d="M97.02,78.40L97.00,78.49L96.98,78.54"/><path style="stroke:#000000;stroke-width:0.088" d="M97.07,77.94L97.08,77.88L97.08,77.77"/><path style="stroke:#000000;stroke-width:0.088" d="M97.04,78.25L97.05,78.20L97.06,78.10"/><path style="stroke:#000000;stroke-width:0.088" d="M97.06,77.27L97.05,77.20L97.04,77.09"/><path style="stroke:#000000;stroke-width:0.088" d="M97.08,77.61L97.08,77.55L97.07,77.44"/><path style="stroke:#000000;stroke-width:0.088" d="M97.01,76.92L97.00,76.85L96.97,76.73"/><path style="stroke:#000000;stroke-width:0.088" d="M97.56,69.33L107.35,63.68L107.45,63.71L107.73,63.84L108.01,63.99L108.11,64.05L108.23,64.06L108.31,64.08L108.39,64.10L108.45,64.12L108.51,64.15L108.60,64.20L108.64,64.23L108.70,64.28L108.72,64.31L108.75,64.36L108.77,64.41L108.77,64.44L108.81,65.10L108.45,64.88L108.61,65.01L108.87,65.25L109.13,65.51L109.37,65.78L109.60,66.08L109.81,66.39L109.86,66.47"/><path style="stroke:#000000;stroke-width:0.088" d="M97.39,69.28L105.54,64.58L106.02,64.30L106.22,64.22L106.24,64.22"/><path style="stroke:#000000;stroke-width:0.088" d="M97.29,69.25L97.47,69.19L97.60,69.14L97.72,69.08L97.84,69.01L97.94,68.94L98.03,68.87L98.10,68.79L98.16,68.71L98.21,68.63L98.25,68.55L98.27,68.46L98.27,68.38L98.27,68.29L98.13,67.49"/><path style="stroke:#000000;stroke-width:0.088" d="M97.45,69.30L107.36,63.58L107.35,63.62L107.35,63.68"/><path style="stroke:#000000;stroke-width:0.088" d="M96.93,67.88L96.99,67.91"/><path style="stroke:#000000;stroke-width:0.088" d="M97.05,66.95L97.27,67.05L97.48,67.17L97.42,67.18L97.19,67.26L96.96,67.35"/><path style="stroke:#000000;stroke-width:0.088" d="M108.11,64.05L98.31,69.71L98.61,69.91L98.93,70.16L99.23,70.43L99.53,70.73L99.81,71.06L100.09,71.41L100.34,71.77L100.57,72.16L100.78,72.53L100.95,72.92L101.11,73.31L101.19,73.54L101.28,73.83L101.37,74.16L101.46,74.56L101.48,74.69L101.51,74.96L101.53,75.26L101.69,75.30L101.88,75.35L102.09,75.38L102.30,75.40L102.52,75.42L102.74,75.42L102.97,75.41L103.19,75.39L103.40,75.36L103.62,75.32L103.85,75.26L104.02,75.20L104.21,75.13L104.39,75.05L104.55,74.97L104.77,81.06L104.62,81.14L104.46,81.21L104.29,81.28L104.10,81.33L103.91,81.38L103.72,81.42L103.52,81.45L103.32,81.46L103.11,81.47L102.91,81.47L102.72,81.46L102.52,81.44L102.33,81.41L102.15,81.36L101.97,81.31L101.81,81.26L101.66,81.19L97.85,79.29"/><path style="stroke:#000000;stroke-width:0.088" d="M97.69,79.38L100.65,77.67L100.76,77.59L100.95,77.42L101.11,77.21L101.25,76.97L101.30,76.85L101.66,81.19"/><path style="stroke:#000000;stroke-width:0.088" d="M98.95,79.84L98.86,79.84L98.78,79.82L98.70,79.80L98.63,79.77L98.58,79.74L98.53,79.70L98.51,79.65L98.50,79.62"/><path style="stroke:#000000;stroke-width:0.088" d="M99.08,70.29L108.45,64.88"/><path style="stroke:#000000;stroke-width:0.088" d="M98.88,70.12L108.77,64.41"/><path style="stroke:#000000;stroke-width:0.088" d="M104.32,72.29L104.55,74.97L110.68,71.43L110.44,68.76L104.32,72.29L104.17,72.38L104.00,72.45L103.82,72.52L103.63,72.58L103.43,72.63L103.23,72.67L103.02,72.70L102.81,72.71L102.59,72.72L102.38,72.72L102.18,72.71L101.97,72.69L101.78,72.65L101.59,72.61L101.40,72.56L101.24,72.50L101.08,72.43L100.59,72.18"/><path style="stroke:#000000;stroke-width:0.088" d="M100.24,71.63L101.04,71.17"/><path style="stroke:#000000;stroke-width:0.088" d="M101.30,76.85L101.36,76.70L101.43,76.48L101.45,76.39L101.51,76.06L101.54,75.77L101.54,75.53L101.53,75.26"/><path style="stroke:#000000;stroke-width:0.088" d="M101.11,73.31L101.08,72.43"/><path style="stroke:#000000;stroke-width:0.088" d="M101.02,71.61L101.04,71.69L101.07,71.78L101.12,71.86L101.18,71.93L101.25,72.00L101.33,72.07L101.43,72.13L101.54,72.19L101.66,72.24L101.79,72.28L101.92,72.32L102.07,72.35L102.22,72.37L102.37,72.39L102.52,72.39L102.68,72.39L102.84,72.38L103.00,72.37L103.15,72.34L103.30,72.31L103.44,72.27L103.58,72.22L103.71,72.17L103.83,72.11L103.95,72.05L104.05,71.98L104.13,71.90L104.21,71.83L104.27,71.75L104.32,71.66L104.36,71.58L104.38,71.49L104.38,71.41L104.38,71.32L104.24,70.52L104.25,70.60L104.25,70.68L104.23,70.76L104.20,70.84L104.15,70.92L104.09,71.00L104.02,71.07L103.93,71.14L103.84,71.21L103.73,71.27L103.61,71.32L103.49,71.37L103.36,71.42L103.22,71.46L103.08,71.49L102.93,71.51L102.78,71.53L102.64,71.54L102.49,71.54L102.34,71.53L102.19,71.52L102.10,71.51L101.92,71.47L101.79,71.43L101.66,71.39L101.55,71.34L101.45,71.29L101.36,71.23L101.27,71.17L101.21,71.10L101.15,71.03L101.11,70.95L101.08,70.87L101.06,70.79L101.06,70.71L101.02,71.53L101.02,71.61"/><path style="stroke:#000000;stroke-width:0.088" d="M104.24,70.52L104.22,70.44L104.19,70.37L104.14,70.29L104.07,70.22L104.00,70.16L103.91,70.09L103.81,70.04L103.70,69.99L103.59,69.94L103.46,69.90L103.33,69.87L103.19,69.85L103.05,69.83L102.90,69.82L102.75,69.82L102.60,69.82L102.45,69.84L102.30,69.86L102.16,69.88L102.02,69.92L101.89,69.96L101.76,70.01L101.64,70.06L101.53,70.12L101.43,70.18L101.34,70.25L101.26,70.32L101.19,70.40L101.14,70.47L101.10,70.55L101.07,70.63L101.06,70.71"/><path style="stroke:#000000;stroke-width:0.088" d="M104.26,63.95L104.39,64.76L104.40,64.84L104.39,64.93L104.37,65.01L104.34,65.09L104.29,65.18L104.22,65.26L104.15,65.33L104.06,65.41L103.96,65.48L103.85,65.54L103.72,65.60L103.59,65.65L103.46,65.70L103.31,65.74L103.16,65.77L103.01,65.80L102.85,65.81L102.69,65.82L102.54,65.83L102.38,65.82L102.23,65.81L102.08,65.78L101.94,65.75L101.80,65.72L101.67,65.67L101.55,65.62L101.44,65.56L101.35,65.50L101.26,65.43L101.19,65.36L101.13,65.29L101.08,65.21L101.05,65.13L101.04,65.04L101.03,64.96L101.07,64.14L101.08,64.06L101.11,63.98L101.15,63.90L101.20,63.83L101.27,63.75L101.35,63.68L101.44,63.61L101.54,63.55L101.65,63.49L101.77,63.44L101.90,63.39L102.03,63.35L102.17,63.31L102.32,63.29L102.46,63.27L102.61,63.25L102.76,63.25L102.91,63.25L103.06,63.26L103.20,63.28L103.34,63.30L103.47,63.33L103.60,63.37L103.72,63.42L103.82,63.47L103.92,63.53L104.01,63.59L104.08,63.65L104.15,63.72L104.17,63.75L104.20,63.80L104.23,63.88L104.26,63.95L104.27,64.03L104.26,64.11L104.24,64.19L104.21,64.27L104.16,64.35L104.10,64.43L104.03,64.50L103.94,64.57L103.85,64.64L103.74,64.70L103.63,64.76L103.50,64.81L103.37,64.85L103.27,64.88L103.09,64.92L102.95,64.94L102.80,64.96L102.65,64.97L102.50,64.97L102.35,64.96L102.20,64.95L102.06,64.93L101.93,64.90L101.80,64.87L101.68,64.82L101.56,64.78L101.46,64.72L101.37,64.66L101.31,64.62L101.22,64.53L101.16,64.46L101.12,64.38L101.09,64.30L101.07,64.23L101.07,64.14"/><path style="stroke:#000000;stroke-width:0.088" d="M102.24,70.95L102.21,70.42L101.95,70.61L101.73,70.80L101.71,70.83L101.91,70.92L102.13,71.04L102.38,70.82L102.64,70.64L102.70,70.67L102.93,70.82L103.15,71.00L103.38,70.87L103.59,70.75L103.30,70.53L103.07,70.39L103.10,70.96"/><path style="stroke:#000000;stroke-width:0.088" d="M102.48,70.75L102.14,70.03L101.92,70.14L101.71,70.28L101.76,70.29L101.98,70.34L102.21,70.42"/><path style="stroke:#000000;stroke-width:0.088" d="M102.14,70.03L102.19,70.04L102.41,70.09L102.64,70.17L102.67,70.65"/><path style="stroke:#000000;stroke-width:0.088" d="M103.12,64.39L103.08,63.82L103.31,63.96L103.60,64.18L103.39,64.30L103.17,64.43L102.88,64.21L102.65,64.07L102.40,64.26L102.15,64.47L101.92,64.35L101.72,64.26L101.74,64.24L101.97,64.04L102.22,63.85L102.25,64.38"/><path style="stroke:#000000;stroke-width:0.088" d="M102.22,63.85L102.16,63.83L101.94,63.76L101.72,63.71L101.93,63.57L102.15,63.46L102.37,63.51L102.59,63.58L102.65,63.60L102.68,64.09"/><path style="stroke:#000000;stroke-width:0.088" d="M102.15,63.46L102.49,64.19"/><path style="stroke:#000000;stroke-width:0.088" d="M103.10,70.93L103.02,70.89"/><path style="stroke:#000000;stroke-width:0.088" d="M102.87,70.78L103.16,69.99L102.89,70.07L102.64,70.17"/><path style="stroke:#000000;stroke-width:0.088" d="M103.07,70.39L103.33,70.28L103.59,70.20L103.38,70.08L103.16,69.99"/><path style="stroke:#000000;stroke-width:0.088" d="M102.88,64.21L103.17,63.42L102.91,63.50L102.65,63.60"/><path style="stroke:#000000;stroke-width:0.088" d="M103.06,64.34L103.12,64.37"/><path style="stroke:#000000;stroke-width:0.088" d="M107.16,67.63L103.29,69.86"/><path style="stroke:#000000;stroke-width:0.088" d="M103.17,63.42L103.39,63.51L103.60,63.63L103.34,63.71L103.08,63.82"/><path style="stroke:#000000;stroke-width:0.088" d="M104.25,63.95L104.34,63.98L105.54,64.58L105.53,64.58"/><path style="stroke:#000000;stroke-width:0.088" d="M104.77,81.06L110.89,77.52L111.03,77.44L111.15,77.35L111.26,77.25L111.35,77.15L111.42,77.04L111.48,76.94L111.52,76.83L111.54,76.72L111.54,76.61L111.38,70.43L111.38,70.55L111.36,70.67L111.32,70.77L111.32,70.79L111.26,70.91L111.18,71.02L111.08,71.13L110.96,71.24L110.83,71.34L110.68,71.43L110.89,77.52"/><path style="stroke:#000000;stroke-width:0.088" d="M105.54,64.58L105.61,64.53"/><path style="stroke:#000000;stroke-width:0.088" d="M107.18,67.18L107.14,67.99L107.15,68.08L107.16,68.16L107.19,68.24L107.24,68.32L107.30,68.40L107.37,68.47L107.46,68.54L107.55,68.60L107.66,68.65L107.78,68.70L107.91,68.75L108.05,68.79L108.19,68.82L108.34,68.84L108.49,68.85L108.65,68.86L108.80,68.86L108.96,68.85L109.12,68.83L109.27,68.81L109.42,68.77L109.57,68.73L109.70,68.69L109.83,68.63L109.96,68.57L110.07,68.51L110.17,68.44L110.26,68.37L110.33,68.29L110.40,68.21L110.45,68.13L110.48,68.04L110.50,67.96L110.51,67.87L110.50,67.79L110.37,66.99L110.34,66.89L110.31,66.83L110.26,66.76L110.19,66.69L110.12,66.62L110.03,66.56L109.93,66.50L109.83,66.45L109.71,66.41L109.58,66.37L109.45,66.34L109.31,66.31L109.17,66.29L109.02,66.28L108.87,66.28L108.72,66.29L108.58,66.30L108.43,66.32L108.28,66.35L108.14,66.38L108.01,66.42L107.91,66.46L107.76,66.52L107.65,66.58L107.55,66.65L107.46,66.71L107.38,66.79L107.31,66.86L107.26,66.94L107.22,67.02L107.19,67.10L107.18,67.18L107.18,67.26L107.20,67.34L107.21,67.37L107.23,67.41L107.27,67.49L107.33,67.56L107.40,67.63L107.48,67.69L107.57,67.75L107.65,67.80L107.79,67.86L107.91,67.90L108.04,67.93L108.17,67.96L108.31,67.98L108.48,68.00L108.61,68.00L108.76,68.00L108.91,67.99L109.06,67.98L109.20,67.95L109.34,67.92L109.48,67.88L109.61,67.84L109.74,67.79L109.85,67.73L109.96,67.67L110.05,67.61L110.14,67.54L110.21,67.46L110.27,67.39L110.32,67.31L110.35,67.23L110.37,67.15L110.37,67.07L110.37,66.99"/><path style="stroke:#000000;stroke-width:0.088" d="M107.36,63.58L107.63,63.67L107.36,63.58L107.39,63.58L107.36,63.58"/><path style="stroke:#000000;stroke-width:0.088" d="M107.39,63.58L107.69,63.69L107.96,63.81L108.26,63.97L108.53,64.15L108.60,64.20"/><path style="stroke:#000000;stroke-width:0.088" d="M109.23,67.42L109.19,66.85L109.45,67.02L109.71,67.21L109.49,67.33L109.28,67.46L109.02,67.27L108.76,67.10L108.53,67.27L108.31,67.45L108.26,67.50L108.04,67.39L107.83,67.29L108.10,67.05L108.33,66.89L108.36,67.41"/><path style="stroke:#000000;stroke-width:0.088" d="M108.60,67.22L108.26,66.49L108.04,66.60L107.83,66.74L108.08,66.80L108.33,66.89"/><path style="stroke:#000000;stroke-width:0.088" d="M108.26,66.49L108.51,66.55L108.76,66.64L108.79,67.12"/><path style="stroke:#000000;stroke-width:0.088" d="M109.14,67.35L109.22,67.40"/><path style="stroke:#000000;stroke-width:0.088" d="M108.76,66.64L108.99,66.54L109.22,66.46L109.28,66.45L108.99,67.25"/><path style="stroke:#000000;stroke-width:0.088" d="M109.19,66.85L109.25,66.82L109.48,66.73L109.71,66.66L109.50,66.55L109.28,66.45"/><path style="stroke:#000000;stroke-width:0.088" d="M110.06,66.58L109.93,66.37L109.74,66.10L109.54,65.83L109.33,65.59L109.11,65.36L108.88,65.16L108.81,65.10"/><path style="stroke:#000000;stroke-width:0.088" d="M110.36,66.97L110.59,67.09L110.72,67.18L110.83,67.27L110.92,67.37L111.00,67.47L111.06,67.58L111.10,67.69L111.12,67.80L111.12,67.92L111.10,68.03L111.06,68.14L111.00,68.26L110.92,68.36L110.83,68.47L110.72,68.57L110.59,68.67L110.44,68.76"/><path style="stroke:#000000;stroke-width:0.088" d="M111.38,70.43L111.12,67.80"/><path style="stroke:#000000;stroke-width:0.088" d="M108.50,84.08L108.51,84.19L108.64,86.39L108.64,86.51L108.62,86.63L108.58,86.75L108.52,86.87L108.44,86.98L108.34,87.10L108.23,87.20L108.09,87.31L107.94,87.40L107.77,87.49L107.59,87.57L107.40,87.64L107.20,87.70L106.99,87.75L106.77,87.80L106.55,87.83L106.32,87.85L106.10,87.85L105.87,87.85L105.65,87.83L105.44,87.81L105.23,87.77L105.03,87.72L104.93,87.69L104.84,87.67L104.66,87.60L104.50,87.52L104.35,87.44L104.22,87.34L104.11,87.24L104.02,87.14L103.94,87.03L103.89,86.91L103.85,86.79L103.84,86.67"/><path style="stroke:#000000;stroke-width:0.088" d="M103.84,86.67L103.71,84.48L103.73,84.60L103.78,84.72L103.84,84.83L103.93,84.94L103.98,84.99L104.03,85.04L104.15,85.14L104.29,85.23L104.45,85.31L104.62,85.38L104.80,85.45L105.00,85.50L105.20,85.54L105.41,85.57L105.63,85.59L105.85,85.60L106.08,85.60L106.30,85.59L106.53,85.56L106.75,85.53L106.96,85.48L107.17,85.42L107.37,85.36L107.55,85.28L107.73,85.20L107.81,85.15L107.88,85.10L108.03,85.00L108.16,84.90L108.21,84.84L108.26,84.79L108.35,84.67L108.42,84.56L108.47,84.44L108.50,84.32L108.51,84.19L108.50,84.07"/><path style="stroke:#000000;stroke-width:0.088" d="M103.71,84.48L103.71,84.36L103.71,84.48"/><path style="stroke:#000000;stroke-width:0.088" d="M103.71,84.36L103.71,84.33L103.73,84.19"/><path style="stroke:#000000;stroke-width:0.088" d="M103.85,83.91L103.84,83.92L103.78,84.05L103.73,84.19"/><path style="stroke:#000000;stroke-width:0.088" d="M104.11,84.70L104.21,84.79L104.32,84.88L104.45,84.96L104.59,85.04L104.74,85.10L104.91,85.16L105.09,85.21L105.27,85.25L105.47,85.28L105.66,85.29L105.87,85.30L106.07,85.30L106.28,85.29L106.48,85.27L106.68,85.23L106.87,85.19L107.06,85.14L107.24,85.08L107.41,85.01L107.57,84.93L107.64,84.89L107.71,84.85L107.85,84.76L107.96,84.66L108.06,84.56L108.14,84.46L108.21,84.35L108.25,84.24L108.28,84.13L108.29,84.02L108.27,83.91L108.24,83.81L108.19,83.70L108.12,83.60L108.04,83.50L107.94,83.41L107.82,83.33L107.68,83.25L107.53,83.18L107.37,83.12L107.20,83.07L107.02,83.02L106.83,82.99L106.63,82.97L106.43,82.95L106.23,82.95L106.15,82.95L106.02,82.96L105.82,82.97L105.62,83.00L105.42,83.04L105.23,83.09L105.05,83.14L104.87,83.21L104.71,83.28L104.55,83.36L104.42,83.45L104.29,83.54L104.19,83.64L104.09,83.74L104.02,83.85L103.97,83.95L103.93,84.06L103.91,84.17L103.92,84.28L103.94,84.39L103.98,84.50L104.04,84.60L104.11,84.70"/><path style="stroke:#000000;stroke-width:0.088" d="M104.16,83.56L104.04,83.67L103.94,83.78L103.85,83.91"/><path style="stroke:#000000;stroke-width:0.088" d="M104.30,83.45L104.17,83.55"/><path style="stroke:#000000;stroke-width:0.088" d="M104.31,83.45L104.46,83.35"/><path style="stroke:#000000;stroke-width:0.088" d="M105.82,93.58L105.73,93.54L105.48,93.39L105.40,93.34L105.33,93.28L105.27,93.21L105.23,93.15L105.20,93.08L105.18,93.01L105.17,92.93L104.86,87.67"/><path style="stroke:#000000;stroke-width:0.088" d="M105.08,84.67L105.06,84.66L105.03,84.63L105.00,84.59L104.97,84.55L104.92,84.44L104.89,84.37L104.86,84.30L104.83,84.21L104.76,83.99L104.85,83.99L104.94,83.98L105.03,83.96L105.11,83.93L105.18,83.90L105.26,83.86L105.33,83.81L105.41,83.76L105.49,83.69L105.57,83.61L105.66,83.52L105.74,83.42L105.87,83.48L105.99,83.54L106.10,83.58L106.21,83.61L106.32,83.63L106.42,83.65L106.52,83.65L106.63,83.65L106.73,83.64L106.84,83.62L106.92,83.61L106.96,83.60L107.08,83.56L107.00,83.52L106.90,83.48L106.80,83.45L106.69,83.43L106.58,83.41L106.46,83.39L106.34,83.38L106.22,83.38L106.10,83.38L105.97,83.39L105.85,83.40L105.74,83.42L105.63,83.44L105.52,83.47L105.41,83.51L105.31,83.55L105.21,83.59L105.12,83.64L105.04,83.69L104.96,83.75L104.90,83.81L104.84,83.87L104.79,83.93L104.76,83.99L104.73,84.05L104.72,84.11L104.71,84.18L104.72,84.25L104.73,84.31L104.76,84.37L104.80,84.44L104.84,84.49L104.90,84.55L104.97,84.60L105.04,84.65L105.12,84.69L105.20,84.73L105.30,84.77L105.40,84.80L105.51,84.82L105.62,84.85L105.74,84.86L105.86,84.87L105.98,84.87L106.10,84.87L106.15,84.87L106.22,84.86L106.35,84.85L106.46,84.83L106.57,84.81L106.68,84.78L106.79,84.74L106.89,84.70L106.99,84.66L107.08,84.61L107.16,84.56L107.24,84.51L107.30,84.45L107.36,84.39L107.40,84.32L107.44,84.26L107.46,84.20L107.48,84.14L107.49,84.07L107.48,84.01L107.47,83.94L107.44,83.88L107.40,83.82L107.36,83.76L107.30,83.70L107.23,83.65L107.16,83.60L107.08,83.56L107.14,84.57"/><path style="stroke:#000000;stroke-width:0.088" d="M104.63,83.27L104.80,83.19L104.98,83.12L105.19,83.06L105.39,83.01L105.59,82.97L105.81,82.94L106.02,82.92L106.24,82.91L106.45,82.92L106.66,82.93L106.87,82.96L106.92,82.97L106.87,82.96"/><path style="stroke:#000000;stroke-width:0.088" d="M105.82,93.58L105.91,93.61L106.00,93.64L106.10,93.67L106.21,93.69L106.32,93.70L106.43,93.71L106.55,93.71L106.66,93.70L106.78,93.69L106.89,93.68L107.00,93.66L107.11,93.63L107.21,93.60L107.31,93.56L107.40,93.52L107.49,93.48L107.57,93.43"/><path style="stroke:#000000;stroke-width:0.088" d="M105.57,93.44L105.66,93.49L105.77,93.53L105.88,93.56L106.00,93.59L106.13,93.62L106.26,93.63L106.39,93.64L106.53,93.64L106.66,93.64L106.79,93.63L106.93,93.61L107.06,93.58L107.18,93.55L107.31,93.51L107.42,93.47L107.53,93.42L107.63,93.37L107.72,93.31L107.80,93.25L107.87,93.19L107.93,93.12L107.98,93.05L108.02,92.98L108.04,92.91L108.05,92.83L108.05,92.76L107.74,87.50"/><path style="stroke:#000000;stroke-width:0.088" d="M105.50,84.82L105.81,84.64L105.74,83.42"/><path style="stroke:#000000;stroke-width:0.088" d="M105.81,84.64L106.80,84.74"/><path style="stroke:#000000;stroke-width:0.088" d="M107.80,83.25L107.62,83.16L107.45,83.10L107.27,83.04L107.08,82.99L106.92,82.97L107.08,82.99L107.04,82.99"/><path style="stroke:#000000;stroke-width:0.088" d="M107.56,93.43L107.72,93.31"/><path style="stroke:#000000;stroke-width:0.088" d="M107.13,84.58L107.19,84.53L107.27,84.46L107.35,84.36L107.44,84.26L107.41,84.25L107.38,84.23L107.35,84.20L107.32,84.16L107.30,84.12L107.27,84.07L107.24,84.01L107.21,83.94L107.18,83.87L107.12,83.67L107.08,83.56"/><path style="stroke:#000000;stroke-width:0.088" d="M108.49,84.04L108.45,83.91L108.39,83.78L108.30,83.64L108.21,83.54L108.07,83.42L107.95,83.33L107.79,83.24L107.84,83.27"/><path style="stroke:#000000;stroke-width:0.088" d="M108.49,84.04L108.50,84.06"/><path style="fill:#ffffff" d="M170.32,77.65L196.73,77.65L196.73,72.00L170.32,72.00z"/><path style="stroke:#35414c;stroke-width:0.255" d="M170.32,77.65L196.73,77.65L196.73,72.00L170.32,72.00z"/><path style="stroke:#35404c;stroke-width:0.250;stroke-opacity:0.00" d="M170.32,77.65L196.73,77.65L196.73,72.00L170.32,72.00z"/><text xml:space="preserve" fill="#333f4b" stroke-width="0" x="171.02" y="76.06" font-size="3.50" opacity="1.00" font-family="Arial" font-weight="bold" font-style="italic">SE6027</text><g id="paperID" visibility="hidden" opacity="0.00" transform="scale(0.000100)"><path style="stroke:#000000;stroke-width:0.500;fill:#e6e6e6;fill-rule:evenodd" d="M-2000.00,-2000.00L2210.00,-2000.00L2210.00,2150.00L-2000.00,2150.00zM0.00,0.00L210.00,0.00L210.00,150.00L0.00,150.00z"/><path style="fill:#000000;fill-opacity:0.118" d="M3.00,150.00L210.00,150.00L210.00,3.00L213.00,3.00L213.00,153.00L3.00,153.00z"/></g><g id="hotspot.0" onmouseover="ShowHotSpot(evt,'0')" onmouseout="HideHotSpot(evt,'0')" onmousemove="ShowToolTip(evt,'0',&quot;schmersal_T4V10H_335-12Z.1.3.2_2-1&quot;)" opacity="0"><path style="fill:#00ff00;fill-rule:evenodd" d="M91.91,65.59L92.71,67.26L93.77,67.16L94.24,68.07L94.72,67.98L95.53,67.16L96.96,66.73L102.16,63.45L103.33,63.45L105.18,64.55L105.88,64.55L106.93,63.98L108.11,63.97L108.41,64.20L108.90,65.31L111.03,67.68L111.27,69.30L111.46,74.68L112.86,75.66L113.94,76.97L114.17,79.12L114.96,80.98L116.30,82.03L117.42,83.04L117.90,84.41L118.43,93.16L118.72,101.22L116.30,102.81L116.23,107.48L105.91,113.59L104.10,113.59L94.05,108.53L92.98,107.21L92.70,106.69L91.06,80.15L91.10,79.88L90.08,79.35L89.52,78.32L89.57,76.28L89.80,75.91L89.26,75.13L87.85,74.95L87.18,73.50L86.86,73.03L86.35,70.89L85.80,69.57L85.82,68.60L87.31,67.69L89.28,67.24L89.00,65.85L77.74,35.87L79.09,35.08L80.51,35.10zM196.95,72.44L196.84,77.79L170.04,77.88L170.12,72.28L196.69,72.18zM108.38,83.85L108.64,86.90L107.82,87.70L108.09,92.89L107.47,93.68L105.67,93.72L105.36,93.50L105.17,92.64L104.93,88.10L104.04,87.40L103.85,86.26L103.85,83.96L104.82,83.34L106.76,83.07z"/></g></g></svg>
